<svg height="360pt" viewBox="0 0 360 360" width="360pt" xmlns="http://www.w3.org/2000/svg"><path d="m0 0h360v360h-360z" fill="#fff"/><g fill="#800080"><path d="m173.511719 180 9.734375-5.621094v11.242188zm0 0"/><path d="m183.246094 185.621094 9.734375-5.621094v11.242188zm0 0"/><path d="m183.246094 174.378906 9.734375-5.621094v11.242188zm0 0"/><path d="m173.511719 168.757812 9.734375-5.617187v11.238281zm0 0"/><path d="m163.777344 174.378906 9.734375-5.621094v11.242188zm0 0"/><path d="m163.777344 185.621094 9.734375-5.621094v11.242188zm0 0"/><path d="m173.511719 191.242188 9.734375-5.621094v11.238281zm0 0"/><path d="m192.980469 191.242188 9.734375-5.621094v11.238281zm0 0"/><path d="m192.980469 180 9.734375-5.621094v11.242188zm0 0"/><path d="m183.246094 163.140625 9.734375-5.621094v11.238281zm0 0"/><path d="m173.511719 157.519531 9.734375-5.621093v11.242187zm0 0"/><path d="m163.777344 163.140625 9.734375-5.621094v11.238281zm0 0"/><path d="m154.042969 168.757812 9.734375-5.617187v11.238281zm0 0"/><path d="m154.042969 180 9.734375-5.621094v11.242188zm0 0"/><path d="m183.246094 196.859375 9.734375-5.617187v11.238281zm0 0"/><path d="m202.714844 196.859375 9.734375-5.617187v11.238281zm0 0"/><path d="m192.980469 157.519531 9.734375-5.621093v11.242187zm0 0"/><path d="m183.246094 151.898438 9.734375-5.621094v11.242187zm0 0"/><path d="m173.511719 146.277344 9.734375-5.617188v11.238282zm0 0"/><path d="m163.777344 151.898438 9.734375-5.621094v11.242187zm0 0"/><path d="m154.042969 157.519531 9.734375-5.621093v11.242187zm0 0"/><path d="m144.308594 163.140625 9.734375-5.621094v11.238281zm0 0"/><path d="m144.308594 174.378906 9.734375-5.621094v11.242188zm0 0"/><path d="m144.308594 196.859375 9.734375-5.617187v11.238281zm0 0"/><path d="m163.777344 208.101562 9.734375-5.621093v11.242187zm0 0"/><path d="m173.511719 213.722656 9.734375-5.621094v11.238282zm0 0"/><path d="m183.246094 208.101562 9.734375-5.621093v11.242187zm0 0"/><path d="m192.980469 202.480469 9.734375-5.621094v11.242187zm0 0"/><path d="m212.449219 202.480469 9.734375-5.621094v11.242187zm0 0"/><path d="m212.449219 191.242188 9.734375-5.621094v11.238281zm0 0"/><path d="m212.449219 180 9.734375-5.621094v11.242188zm0 0"/><path d="m212.449219 168.757812 9.734375-5.617187v11.238281zm0 0"/><path d="m202.714844 151.898438 9.734375-5.621094v11.242187zm0 0"/><path d="m173.511719 135.039062 9.734375-5.621093v11.242187zm0 0"/><path d="m154.042969 146.277344 9.734375-5.617188v11.238282zm0 0"/><path d="m144.308594 151.898438 9.734375-5.621094v11.242187zm0 0"/><path d="m134.574219 157.519531 9.734375-5.621093v11.242187zm0 0"/><path d="m134.574219 168.757812 9.734375-5.617187v11.238281zm0 0"/><path d="m144.308594 208.101562 9.734375-5.621093v11.242187zm0 0"/><path d="m163.777344 219.339844 9.734375-5.617188v11.238282zm0 0"/><path d="m183.246094 219.339844 9.734375-5.617188v11.238282zm0 0"/><path d="m192.980469 213.722656 9.734375-5.621094v11.238282zm0 0"/><path d="m202.714844 208.101562 9.734375-5.621093v11.242187zm0 0"/><path d="m222.183594 208.101562 9.734375-5.621093v11.242187zm0 0"/><path d="m222.183594 151.898438 9.734375-5.621094v11.242187zm0 0"/><path d="m212.449219 146.277344 9.734375-5.617188v11.238282zm0 0"/><path d="m202.714844 140.660156 9.734375-5.621094v11.238282zm0 0"/><path d="m192.980469 135.039062 9.734375-5.621093v11.242187zm0 0"/><path d="m173.511719 123.796875 9.734375-5.617187v11.238281zm0 0"/><path d="m163.777344 129.417969 9.734375-5.621094v11.242187zm0 0"/><path d="m144.308594 140.660156 9.734375-5.621094v11.238282zm0 0"/><path d="m134.574219 146.277344 9.734375-5.617188v11.238282zm0 0"/><path d="m124.839844 151.898438 9.734375-5.621094v11.242187zm0 0"/><path d="m124.839844 174.378906 9.734375-5.621094v11.242188zm0 0"/><path d="m163.777344 230.582031 9.734375-5.621093v11.242187zm0 0"/><path d="m192.980469 224.960938 9.734375-5.621094v11.242187zm0 0"/><path d="m202.714844 219.339844 9.734375-5.617188v11.238282zm0 0"/><path d="m212.449219 213.722656 9.734375-5.621094v11.238282zm0 0"/><path d="m231.917969 213.722656 9.734375-5.621094v11.238282zm0 0"/><path d="m231.917969 202.480469 9.734375-5.621094v11.242187zm0 0"/><path d="m231.917969 168.757812 9.734375-5.617187v11.238281zm0 0"/><path d="m231.917969 157.519531 9.734375-5.621093v11.242187zm0 0"/><path d="m231.917969 146.277344 9.734375-5.617188v11.238282zm0 0"/><path d="m222.183594 140.660156 9.734375-5.621094v11.238282zm0 0"/><path d="m183.246094 118.179688 9.734375-5.621094v11.238281zm0 0"/><path d="m173.511719 112.558594 9.734375-5.621094v11.242188zm0 0"/><path d="m163.777344 118.179688 9.734375-5.621094v11.238281zm0 0"/><path d="m154.042969 123.796875 9.734375-5.617187v11.238281zm0 0"/><path d="m144.308594 129.417969 9.734375-5.621094v11.242187zm0 0"/><path d="m134.574219 135.039062 9.734375-5.621093v11.242187zm0 0"/><path d="m124.839844 140.660156 9.734375-5.621094v11.238282zm0 0"/><path d="m115.105469 146.277344 9.734375-5.617188v11.238282zm0 0"/><path d="m115.105469 157.519531 9.734375-5.621093v11.242187zm0 0"/><path d="m202.714844 230.582031 9.734375-5.621093v11.242187zm0 0"/><path d="m212.449219 224.960938 9.734375-5.621094v11.242187zm0 0"/><path d="m222.183594 219.339844 9.734375-5.617188v11.238282zm0 0"/><path d="m241.652344 219.339844 9.734375-5.617188v11.238282zm0 0"/><path d="m241.652344 208.101562 9.734375-5.621093v11.242187zm0 0"/><path d="m241.652344 196.859375 9.734375-5.617187v11.238281zm0 0"/><path d="m241.652344 151.898438 9.734375-5.621094v11.242187zm0 0"/><path d="m231.917969 135.039062 9.734375-5.621093v11.242187zm0 0"/><path d="m212.449219 123.796875 9.734375-5.617187v11.238281zm0 0"/><path d="m163.777344 106.9375 9.734375-5.621094v11.242188zm0 0"/><path d="m154.042969 112.558594 9.734375-5.621094v11.242188zm0 0"/><path d="m134.574219 123.796875 9.734375-5.617187v11.238281zm0 0"/><path d="m124.839844 129.417969 9.734375-5.621094v11.242187zm0 0"/><path d="m202.714844 241.820312 9.734375-5.617187v11.238281zm0 0"/><path d="m231.917969 224.960938 9.734375-5.621094v11.242187zm0 0"/><path d="m251.386719 224.960938 9.734375-5.621094v11.242187zm0 0"/><path d="m251.386719 202.480469 9.734375-5.621094v11.242187zm0 0"/><path d="m251.386719 191.242188 9.734375-5.621094v11.238281zm0 0"/><path d="m251.386719 146.277344 9.734375-5.617188v11.238282zm0 0"/><path d="m241.652344 129.417969 9.734375-5.621094v11.242187zm0 0"/><path d="m231.917969 123.796875 9.734375-5.617187v11.238281zm0 0"/><path d="m212.449219 112.558594 9.734375-5.621094v11.242188zm0 0"/><path d="m202.714844 106.9375 9.734375-5.621094v11.242188zm0 0"/><path d="m154.042969 101.316406 9.734375-5.617187v11.238281zm0 0"/><path d="m124.839844 118.179688 9.734375-5.621094v11.238281zm0 0"/><path d="m115.105469 123.796875 9.734375-5.617187v11.238281zm0 0"/><path d="m105.371094 129.417969 9.734375-5.621094v11.242187zm0 0"/><path d="m231.917969 236.203125 9.734375-5.621094v11.238281zm0 0"/><path d="m241.652344 230.582031 9.734375-5.621093v11.242187zm0 0"/><path d="m261.121094 208.101562 9.734375-5.621093v11.242187zm0 0"/><path d="m261.121094 196.859375 9.734375-5.617187v11.238281zm0 0"/><path d="m261.121094 185.621094 9.734375-5.621094v11.242188zm0 0"/><path d="m261.121094 151.898438 9.734375-5.621094v11.242187zm0 0"/><path d="m144.308594 95.699219 9.734375-5.621094v11.238281zm0 0"/><path d="m134.574219 101.316406 9.734375-5.617187v11.238281zm0 0"/><path d="m231.917969 247.441406 9.734375-5.621094v11.242188zm0 0"/><path d="m270.855469 213.722656 9.734375-5.621094v11.238282zm0 0"/><path d="m270.855469 202.480469 9.734375-5.621094v11.242187zm0 0"/><path d="m270.855469 191.242188 9.734375-5.621094v11.238281zm0 0"/><path d="m270.855469 180 9.734375-5.621094v11.242188zm0 0"/><path d="m270.855469 168.757812 9.734375-5.617187v11.238281zm0 0"/><path d="m270.855469 135.039062 9.734375-5.621093v11.242187zm0 0"/><path d="m241.652344 106.9375 9.734375-5.621094v11.242188zm0 0"/><path d="m154.042969 78.835938 9.734375-5.617188v11.238281zm0 0"/><path d="m144.308594 84.457031 9.734375-5.621093v11.242187zm0 0"/><path d="m134.574219 90.078125 9.734375-5.621094v11.242188zm0 0"/><path d="m241.652344 253.0625 9.734375-5.621094v11.242188zm0 0"/><path d="m280.589844 208.101562 9.734375-5.621093v11.242187zm0 0"/><path d="m280.589844 185.621094 9.734375-5.621094v11.242188zm0 0"/><path d="m280.589844 174.378906 9.734375-5.621094v11.242188zm0 0"/><path d="m154.042969 67.597656 9.734375-5.621094v11.242188zm0 0"/><path d="m144.308594 73.21875 9.734375-5.621094v11.238282zm0 0"/><path d="m124.839844 84.457031 9.734375-5.621093v11.242187zm0 0"/><path d="m183.246094 174.378906-9.734375-5.621094v11.242188zm0 0"/><path d="m183.246094 185.621094-9.734375-5.621094v11.242188zm0 0"/><path d="m202.714844 174.378906-9.734375-5.621094v11.242188zm0 0"/><path d="m192.980469 168.757812-9.734375-5.617187v11.238281zm0 0"/><path d="m173.511719 168.757812-9.734375-5.617187v11.238281zm0 0"/><path d="m173.511719 180-9.734375-5.621094v11.242188zm0 0"/><path d="m173.511719 191.242188-9.734375-5.621094v11.238281zm0 0"/><path d="m183.246094 196.859375-9.734375-5.617187v11.238281zm0 0"/><path d="m192.980469 191.242188-9.734375-5.621094v11.238281zm0 0"/><path d="m202.714844 163.140625-9.734375-5.621094v11.238281zm0 0"/><path d="m192.980469 157.519531-9.734375-5.621093v11.242187zm0 0"/><path d="m183.246094 151.898438-9.734375-5.621094v11.242187zm0 0"/><path d="m163.777344 174.378906-9.734375-5.621094v11.242188zm0 0"/><path d="m163.777344 185.621094-9.734375-5.621094v11.242188zm0 0"/><path d="m163.777344 196.859375-9.734375-5.617187v11.238281zm0 0"/><path d="m222.183594 196.859375-9.734375-5.617187v11.238281zm0 0"/><path d="m212.449219 157.519531-9.734375-5.621093v11.242187zm0 0"/><path d="m202.714844 151.898438-9.734375-5.621094v11.242187zm0 0"/><path d="m192.980469 146.277344-9.734375-5.617188v11.238282zm0 0"/><path d="m183.246094 140.660156-9.734375-5.621094v11.238282zm0 0"/><path d="m154.042969 168.757812-9.734375-5.617187v11.238281zm0 0"/><path d="m154.042969 180-9.734375-5.621094v11.242188zm0 0"/><path d="m154.042969 191.242188-9.734375-5.621094v11.238281zm0 0"/><path d="m154.042969 202.480469-9.734375-5.621094v11.242187zm0 0"/><path d="m163.777344 208.101562-9.734375-5.621093v11.242187zm0 0"/><path d="m212.449219 202.480469-9.734375-5.621094v11.242187zm0 0"/><path d="m231.917969 168.757812-9.734375-5.617187v11.238281zm0 0"/><path d="m231.917969 157.519531-9.734375-5.621093v11.242187zm0 0"/><path d="m222.183594 151.898438-9.734375-5.621094v11.242187zm0 0"/><path d="m212.449219 146.277344-9.734375-5.617188v11.238282zm0 0"/><path d="m183.246094 129.417969-9.734375-5.621094v11.242187zm0 0"/><path d="m144.308594 174.378906-9.734375-5.621094v11.242188zm0 0"/><path d="m144.308594 185.621094-9.734375-5.621094v11.242188zm0 0"/><path d="m144.308594 196.859375-9.734375-5.617187v11.238281zm0 0"/><path d="m154.042969 213.722656-9.734375-5.621094v11.238282zm0 0"/><path d="m163.777344 219.339844-9.734375-5.617188v11.238282zm0 0"/><path d="m202.714844 219.339844-9.734375-5.617188v11.238282zm0 0"/><path d="m212.449219 213.722656-9.734375-5.621094v11.238282zm0 0"/><path d="m222.183594 208.101562-9.734375-5.621093v11.242187zm0 0"/><path d="m241.652344 151.898438-9.734375-5.621094v11.242187zm0 0"/><path d="m231.917969 146.277344-9.734375-5.617188v11.238282zm0 0"/><path d="m222.183594 140.660156-9.734375-5.621094v11.238282zm0 0"/><path d="m212.449219 135.039062-9.734375-5.621093v11.242187zm0 0"/><path d="m192.980469 123.796875-9.734375-5.617187v11.238281zm0 0"/><path d="m183.246094 118.179688-9.734375-5.621094v11.238281zm0 0"/><path d="m163.777344 129.417969-9.734375-5.621094v11.242187zm0 0"/><path d="m134.574219 180-9.734375-5.621094v11.242188zm0 0"/><path d="m134.574219 213.722656-9.734375-5.621094v11.238282zm0 0"/><path d="m154.042969 224.960938-9.734375-5.621094v11.242187zm0 0"/><path d="m163.777344 230.582031-9.734375-5.621093v11.242187zm0 0"/><path d="m212.449219 224.960938-9.734375-5.621094v11.242187zm0 0"/><path d="m222.183594 219.339844-9.734375-5.617188v11.238282zm0 0"/><path d="m231.917969 213.722656-9.734375-5.621094v11.238282zm0 0"/><path d="m251.386719 202.480469-9.734375-5.621094v11.242187zm0 0"/><path d="m251.386719 191.242188-9.734375-5.621094v11.238281zm0 0"/><path d="m251.386719 180-9.734375-5.621094v11.242188zm0 0"/><path d="m251.386719 157.519531-9.734375-5.621093v11.242187zm0 0"/><path d="m241.652344 140.660156-9.734375-5.621094v11.238282zm0 0"/><path d="m222.183594 129.417969-9.734375-5.621094v11.242187zm0 0"/><path d="m212.449219 123.796875-9.734375-5.617187v11.238281zm0 0"/><path d="m173.511719 112.558594-9.734375-5.621094v11.242188zm0 0"/><path d="m154.042969 123.796875-9.734375-5.617187v11.238281zm0 0"/><path d="m222.183594 230.582031-9.734375-5.621093v11.242187zm0 0"/><path d="m231.917969 224.960938-9.734375-5.621094v11.242187zm0 0"/><path d="m241.652344 219.339844-9.734375-5.617188v11.238282zm0 0"/><path d="m261.121094 185.621094-9.734375-5.621094v11.242188zm0 0"/><path d="m261.121094 174.378906-9.734375-5.621094v11.242188zm0 0"/><path d="m261.121094 151.898438-9.734375-5.621094v11.242187zm0 0"/><path d="m261.121094 140.660156-9.734375-5.621094v11.238282zm0 0"/><path d="m251.386719 135.039062-9.734375-5.621093v11.242187zm0 0"/><path d="m192.980469 101.316406-9.734375-5.617187v11.238281zm0 0"/><path d="m173.511719 101.316406-9.734375-5.617187v11.238281zm0 0"/><path d="m144.308594 118.179688-9.734375-5.621094v11.238281zm0 0"/><path d="m222.183594 241.820312-9.734375-5.617187v11.238281zm0 0"/><path d="m241.652344 230.582031-9.734375-5.621093v11.242187zm0 0"/><path d="m251.386719 224.960938-9.734375-5.621094v11.242187zm0 0"/><path d="m270.855469 213.722656-9.734375-5.621094v11.238282zm0 0"/><path d="m270.855469 191.242188-9.734375-5.621094v11.238281zm0 0"/><path d="m270.855469 180-9.734375-5.621094v11.242188zm0 0"/><path d="m270.855469 168.757812-9.734375-5.617187v11.238281zm0 0"/><path d="m173.511719 90.078125-9.734375-5.621094v11.242188zm0 0"/><path d="m144.308594 106.9375-9.734375-5.621094v11.242188zm0 0"/><path d="m134.574219 112.558594-9.734375-5.621094v11.242188zm0 0"/><path d="m115.105469 123.796875-9.734375-5.617187v11.238281zm0 0"/><path d="m241.652344 241.820312-9.734375-5.617187v11.238281zm0 0"/><path d="m251.386719 236.203125-9.734375-5.621094v11.238281zm0 0"/><path d="m261.121094 230.582031-9.734375-5.621093v11.242187zm0 0"/><path d="m280.589844 185.621094-9.734375-5.621094v11.242188zm0 0"/><path d="m173.511719 78.835938-9.734375-5.617188v11.238281zm0 0"/><path d="m163.777344 84.457031-9.734375-5.621093v11.242187zm0 0"/><path d="m154.042969 90.078125-9.734375-5.621094v11.242188zm0 0"/><path d="m134.574219 101.316406-9.734375-5.617187v11.238281zm0 0"/><path d="m124.839844 106.9375-9.734375-5.621094v11.242188zm0 0"/><path d="m115.105469 112.558594-9.734375-5.621094v11.242188zm0 0"/><path d="m231.917969 258.683594-9.734375-5.621094v11.238281zm0 0"/><path d="m290.324219 180-9.734375-5.621094v11.242188zm0 0"/><path d="m290.324219 157.519531-9.734375-5.621093v11.242187zm0 0"/><path d="m163.777344 73.21875-9.734375-5.621094v11.238282zm0 0"/><path d="m154.042969 78.835938-9.734375-5.617188v11.238281zm0 0"/><path d="m300.058594 163.140625-9.734375-5.621094v11.238281zm0 0"/><path d="m154.042969 67.597656-9.734375-5.621094v11.242188zm0 0"/><path d="m124.839844 84.457031-9.734375-5.621093v11.242187zm0 0"/></g></svg>