<svg height="360pt" viewBox="0 0 360 360" width="360pt" xmlns="http://www.w3.org/2000/svg"><path d="m0 0h360v360h-360z" fill="#800080"/><g fill="#fff"><path d="m182.660156 184.609375 7.984375-4.609375v9.21875zm0 0"/><path d="m174.675781 170.78125 7.984375-4.609375v9.21875zm0 0"/><path d="m174.675781 189.21875 7.984375-4.609375v9.21875zm0 0"/><path d="m190.644531 170.78125 7.984375-4.609375v9.21875zm0 0"/><path d="m182.660156 193.828125 7.984375-4.609375v9.21875zm0 0"/><path d="m198.628906 175.390625 7.984375-4.609375v9.21875zm0 0"/><path d="m206.613281 189.21875 7.984375-4.609375v9.21875zm0 0"/><path d="m206.613281 180 7.984375-4.609375v9.21875zm0 0"/><path d="m150.726562 156.953125 7.980469-4.609375v9.21875zm0 0"/><path d="m142.742188 189.21875 7.984374-4.609375v9.21875zm0 0"/><path d="m142.742188 198.4375 7.984374-4.609375v9.21875zm0 0"/><path d="m214.597656 193.828125 7.984375-4.609375v9.21875zm0 0"/><path d="m158.707031 143.121094 7.984375-4.609375v9.21875zm0 0"/><path d="m150.726562 147.730469 7.980469-4.609375v9.222656zm0 0"/><path d="m134.757812 166.171875 7.984376-4.609375v9.21875zm0 0"/><path d="m134.757812 184.609375 7.984376-4.609375v9.21875zm0 0"/><path d="m190.644531 216.878906 7.984375-4.609375v9.21875zm0 0"/><path d="m222.582031 198.4375 7.984375-4.609375v9.21875zm0 0"/><path d="m150.726562 138.511719 7.980469-4.609375v9.21875zm0 0"/><path d="m126.773438 180 7.984374-4.609375v9.21875zm0 0"/><path d="m126.773438 189.21875 7.984374-4.609375v9.21875zm0 0"/><path d="m126.773438 207.65625 7.984374-4.609375v9.222656zm0 0"/><path d="m134.757812 212.269531 7.984376-4.613281v9.222656zm0 0"/><path d="m182.660156 230.707031 7.984375-4.609375v9.21875zm0 0"/><path d="m198.628906 221.488281 7.984375-4.609375v9.21875zm0 0"/><path d="m214.597656 212.269531 7.984375-4.613281v9.222656zm0 0"/><path d="m230.566406 203.046875 7.984375-4.609375v9.21875zm0 0"/><path d="m230.566406 193.828125 7.984375-4.609375v9.21875zm0 0"/><path d="m166.691406 120.074219 7.984375-4.609375v9.21875zm0 0"/><path d="m126.773438 143.121094 7.984374-4.609375v9.21875zm0 0"/><path d="m118.789062 175.390625 7.984376-4.609375v9.21875zm0 0"/><path d="m118.789062 203.046875 7.984376-4.609375v9.21875zm0 0"/><path d="m126.773438 216.878906 7.984374-4.609375v9.21875zm0 0"/><path d="m134.757812 221.488281 7.984376-4.609375v9.21875zm0 0"/><path d="m206.613281 226.097656 7.984375-4.609375v9.21875zm0 0"/><path d="m238.550781 198.4375 7.984375-4.609375v9.21875zm0 0"/><path d="m190.644531 115.464844 7.984375-4.609375v9.21875zm0 0"/><path d="m174.675781 106.246094 7.984375-4.609375v9.21875zm0 0"/><path d="m166.691406 110.855469 7.984375-4.609375v9.21875zm0 0"/><path d="m158.707031 115.464844 7.984375-4.609375v9.21875zm0 0"/><path d="m110.804688 152.34375 7.984374-4.613281v9.222656zm0 0"/><path d="m110.804688 161.5625 7.984374-4.609375v9.21875zm0 0"/><path d="m110.804688 170.78125 7.984374-4.609375v9.21875zm0 0"/><path d="m110.804688 180 7.984374-4.609375v9.21875zm0 0"/><path d="m110.804688 198.4375 7.984374-4.609375v9.21875zm0 0"/><path d="m110.804688 207.65625 7.984374-4.609375v9.222656zm0 0"/><path d="m166.691406 101.636719 7.984375-4.609375v9.21875zm0 0"/><path d="m158.707031 106.246094 7.984375-4.609375v9.21875zm0 0"/><path d="m102.820312 147.730469 7.984376-4.609375v9.222656zm0 0"/><path d="m102.820312 156.953125 7.984376-4.609375v9.21875zm0 0"/><path d="m102.820312 175.390625 7.984376-4.609375v9.21875zm0 0"/><path d="m142.742188 106.246094 7.984374-4.609375v9.21875zm0 0"/><path d="m134.757812 110.855469 7.984376-4.609375v9.21875zm0 0"/><path d="m110.804688 124.683594 7.984374-4.609375v9.21875zm0 0"/><path d="m102.820312 129.292969 7.984376-4.609375v9.21875zm0 0"/><path d="m94.835938 143.121094 7.984374-4.609375v9.21875zm0 0"/><path d="m94.835938 152.34375 7.984374-4.613281v9.222656zm0 0"/><path d="m142.742188 97.027344 7.984374-4.609375v9.21875zm0 0"/><path d="m134.757812 101.636719 7.984376-4.609375v9.21875zm0 0"/><path d="m110.804688 115.464844 7.984374-4.609375v9.21875zm0 0"/><path d="m134.757812 92.417969 7.984376-4.613281v9.222656zm0 0"/><path d="m126.773438 97.027344 7.984374-4.609375v9.21875zm0 0"/><path d="m118.789062 101.636719 7.984376-4.609375v9.21875zm0 0"/><path d="m126.773438 87.804688 7.984374-4.609376v9.222657zm0 0"/><path d="m110.804688 97.027344 7.984374-4.609375v9.21875zm0 0"/><path d="m102.820312 101.636719 7.984376-4.609375v9.21875zm0 0"/><path d="m190.644531 180-7.984375-4.609375v9.21875zm0 0"/><path d="m182.660156 175.390625-7.984375-4.609375v9.21875zm0 0"/><path d="m182.660156 184.609375-7.984375-4.609375v9.21875zm0 0"/><path d="m198.628906 184.609375-7.984375-4.609375v9.21875zm0 0"/><path d="m198.628906 175.390625-7.984375-4.609375v9.21875zm0 0"/><path d="m182.660156 166.171875-7.984375-4.609375v9.21875zm0 0"/><path d="m174.675781 170.78125-7.984375-4.609375v9.21875zm0 0"/><path d="m174.675781 180-7.984375-4.609375v9.21875zm0 0"/><path d="m174.675781 189.21875-7.984375-4.609375v9.21875zm0 0"/><path d="m182.660156 193.828125-7.984375-4.609375v9.21875zm0 0"/><path d="m190.644531 189.21875-7.984375-4.609375v9.21875zm0 0"/><path d="m206.613281 189.21875-7.984375-4.609375v9.21875zm0 0"/><path d="m206.613281 170.78125-7.984375-4.609375v9.21875zm0 0"/><path d="m182.660156 156.953125-7.984375-4.609375v9.21875zm0 0"/><path d="m174.675781 161.5625-7.984375-4.609375v9.21875zm0 0"/><path d="m166.691406 166.171875-7.984375-4.609375v9.21875zm0 0"/><path d="m166.691406 175.390625-7.984375-4.609375v9.21875zm0 0"/><path d="m166.691406 184.609375-7.984375-4.609375v9.21875zm0 0"/><path d="m166.691406 193.828125-7.984375-4.609375v9.21875zm0 0"/><path d="m174.675781 198.4375-7.984375-4.609375v9.21875zm0 0"/><path d="m182.660156 203.046875-7.984375-4.609375v9.21875zm0 0"/><path d="m190.644531 198.4375-7.984375-4.609375v9.21875zm0 0"/><path d="m198.628906 193.828125-7.984375-4.609375v9.21875zm0 0"/><path d="m214.597656 184.609375-7.984375-4.609375v9.21875zm0 0"/><path d="m214.597656 175.390625-7.984375-4.609375v9.21875zm0 0"/><path d="m190.644531 152.34375-7.984375-4.613281v9.222656zm0 0"/><path d="m182.660156 147.730469-7.984375-4.609375v9.222656zm0 0"/><path d="m166.691406 156.953125-7.984375-4.609375v9.21875zm0 0"/><path d="m158.707031 161.5625-7.980469-4.609375v9.21875zm0 0"/><path d="m158.707031 170.78125-7.980469-4.609375v9.21875zm0 0"/><path d="m158.707031 180-7.980469-4.609375v9.21875zm0 0"/><path d="m158.707031 189.21875-7.980469-4.609375v9.21875zm0 0"/><path d="m158.707031 198.4375-7.980469-4.609375v9.21875zm0 0"/><path d="m166.691406 203.046875-7.984375-4.609375v9.21875zm0 0"/><path d="m174.675781 207.65625-7.984375-4.609375v9.222656zm0 0"/><path d="m182.660156 212.269531-7.984375-4.613281v9.222656zm0 0"/><path d="m190.644531 207.65625-7.984375-4.609375v9.222656zm0 0"/><path d="m198.628906 203.046875-7.984375-4.609375v9.21875zm0 0"/><path d="m206.613281 198.4375-7.984375-4.609375v9.21875zm0 0"/><path d="m222.582031 180-7.984375-4.609375v9.21875zm0 0"/><path d="m198.628906 147.730469-7.984375-4.609375v9.222656zm0 0"/><path d="m190.644531 143.121094-7.984375-4.609375v9.21875zm0 0"/><path d="m182.660156 138.511719-7.984375-4.609375v9.21875zm0 0"/><path d="m174.675781 143.121094-7.984375-4.609375v9.21875zm0 0"/><path d="m150.726562 156.953125-7.984374-4.609375v9.21875zm0 0"/><path d="m150.726562 166.171875-7.984374-4.609375v9.21875zm0 0"/><path d="m150.726562 175.390625-7.984374-4.609375v9.21875zm0 0"/><path d="m150.726562 184.609375-7.984374-4.609375v9.21875zm0 0"/><path d="m150.726562 193.828125-7.984374-4.609375v9.21875zm0 0"/><path d="m150.726562 203.046875-7.984374-4.609375v9.21875zm0 0"/><path d="m158.707031 207.65625-7.980469-4.609375v9.222656zm0 0"/><path d="m166.691406 212.269531-7.984375-4.613281v9.222656zm0 0"/><path d="m190.644531 216.878906-7.984375-4.609375v9.21875zm0 0"/><path d="m198.628906 212.269531-7.984375-4.613281v9.222656zm0 0"/><path d="m214.597656 203.046875-7.984375-4.609375v9.21875zm0 0"/><path d="m198.628906 138.511719-7.984375-4.609375v9.21875zm0 0"/><path d="m190.644531 133.902344-7.984375-4.609375v9.21875zm0 0"/><path d="m182.660156 129.292969-7.984375-4.609375v9.21875zm0 0"/><path d="m174.675781 133.902344-7.984375-4.609375v9.21875zm0 0"/><path d="m142.742188 161.5625-7.984376-4.609375v9.21875zm0 0"/><path d="m142.742188 170.78125-7.984376-4.609375v9.21875zm0 0"/><path d="m142.742188 180-7.984376-4.609375v9.21875zm0 0"/><path d="m142.742188 189.21875-7.984376-4.609375v9.21875zm0 0"/><path d="m142.742188 198.4375-7.984376-4.609375v9.21875zm0 0"/><path d="m142.742188 207.65625-7.984376-4.609375v9.222656zm0 0"/><path d="m158.707031 216.878906-7.980469-4.609375v9.21875zm0 0"/><path d="m190.644531 226.097656-7.984375-4.609375v9.21875zm0 0"/><path d="m198.628906 221.488281-7.984375-4.609375v9.21875zm0 0"/><path d="m214.597656 212.269531-7.984375-4.613281v9.222656zm0 0"/><path d="m158.707031 133.902344-7.980469-4.609375v9.21875zm0 0"/><path d="m150.726562 138.511719-7.984374-4.609375v9.21875zm0 0"/><path d="m142.742188 143.121094-7.984376-4.609375v9.21875zm0 0"/><path d="m134.757812 147.730469-7.984374-4.609375v9.222656zm0 0"/><path d="m134.757812 156.953125-7.984374-4.609375v9.21875zm0 0"/><path d="m134.757812 166.171875-7.984374-4.609375v9.21875zm0 0"/><path d="m134.757812 175.390625-7.984374-4.609375v9.21875zm0 0"/><path d="m134.757812 184.609375-7.984374-4.609375v9.21875zm0 0"/><path d="m134.757812 193.828125-7.984374-4.609375v9.21875zm0 0"/><path d="m134.757812 203.046875-7.984374-4.609375v9.21875zm0 0"/><path d="m190.644531 235.316406-7.984375-4.609375v9.21875zm0 0"/><path d="m198.628906 230.707031-7.984375-4.609375v9.21875zm0 0"/><path d="m206.613281 226.097656-7.984375-4.609375v9.21875zm0 0"/><path d="m214.597656 221.488281-7.984375-4.609375v9.21875zm0 0"/><path d="m222.582031 216.878906-7.984375-4.609375v9.21875zm0 0"/><path d="m206.613281 124.683594-7.984375-4.609375v9.21875zm0 0"/><path d="m182.660156 110.855469-7.984375-4.609375v9.21875zm0 0"/><path d="m174.675781 115.464844-7.984375-4.609375v9.21875zm0 0"/><path d="m142.742188 133.902344-7.984376-4.609375v9.21875zm0 0"/><path d="m126.773438 143.121094-7.984376-4.609375v9.21875zm0 0"/><path d="m126.773438 152.34375-7.984376-4.613281v9.222656zm0 0"/><path d="m126.773438 170.78125-7.984376-4.609375v9.21875zm0 0"/><path d="m198.628906 239.925781-7.984375-4.609375v9.21875zm0 0"/><path d="m142.742188 124.683594-7.984376-4.609375v9.21875zm0 0"/><path d="m118.789062 138.511719-7.984374-4.609375v9.21875zm0 0"/><path d="m118.789062 147.730469-7.984374-4.609375v9.222656zm0 0"/><path d="m118.789062 175.390625-7.984374-4.609375v9.21875zm0 0"/><path d="m198.628906 249.144531-7.984375-4.609375v9.21875zm0 0"/><path d="m150.726562 110.855469-7.984374-4.609375v9.21875zm0 0"/><path d="m142.742188 115.464844-7.984376-4.609375v9.21875zm0 0"/><path d="m134.757812 120.074219-7.984374-4.609375v9.21875zm0 0"/><path d="m110.804688 143.121094-7.984376-4.609375v9.21875zm0 0"/><path d="m110.804688 152.34375-7.984376-4.613281v9.222656zm0 0"/><path d="m110.804688 180-7.984376-4.609375v9.21875zm0 0"/><path d="m110.804688 189.21875-7.984376-4.609375v9.21875zm0 0"/><path d="m142.742188 106.246094-7.984376-4.609375v9.21875zm0 0"/><path d="m134.757812 110.855469-7.984374-4.609375v9.21875zm0 0"/><path d="m126.773438 115.464844-7.984376-4.609375v9.21875zm0 0"/><path d="m118.789062 120.074219-7.984374-4.609375v9.21875zm0 0"/><path d="m102.820312 147.730469-7.984374-4.609375v9.222656zm0 0"/><path d="m102.820312 203.046875-7.984374-4.609375v9.21875zm0 0"/><path d="m142.742188 97.027344-7.984376-4.609375v9.21875zm0 0"/><path d="m134.757812 101.636719-7.984374-4.609375v9.21875zm0 0"/><path d="m126.773438 106.246094-7.984376-4.609375v9.21875zm0 0"/><path d="m118.789062 110.855469-7.984374-4.609375v9.21875zm0 0"/><path d="m94.835938 198.4375-7.984376-4.609375v9.21875zm0 0"/><path d="m118.789062 101.636719-7.984374-4.609375v9.21875zm0 0"/><path d="m110.804688 106.246094-7.984376-4.609375v9.21875zm0 0"/><path d="m118.789062 92.417969-7.984374-4.613281v9.222656zm0 0"/><path d="m110.804688 97.027344-7.984376-4.609375v9.21875zm0 0"/><path d="m102.820312 101.636719-7.984374-4.609375v9.21875zm0 0"/></g></svg>