<svg height="360pt" viewBox="0 0 360 360" width="360pt" xmlns="http://www.w3.org/2000/svg"><path d="m0 0h360v360h-360z" fill="#fff"/><g fill="#800080"><path d="m171.003906 180 13.496094-7.792969v15.585938zm0 0"/><path d="m184.5 187.792969 13.496094-7.792969v15.585938zm0 0"/><path d="m171.003906 164.414062 13.496094-7.792968v15.585937zm0 0"/><path d="m157.503906 172.207031 13.5-7.792969v15.585938zm0 0"/><path d="m157.503906 187.792969 13.5-7.792969v15.585938zm0 0"/><path d="m197.996094 195.585938 13.496094-7.792969v15.585937zm0 0"/><path d="m144.007812 164.414062 13.496094-7.792968v15.585937zm0 0"/><path d="m211.492188 203.378906 13.496093-7.792968v15.582031zm0 0"/><path d="m211.492188 156.621094 13.496093-7.789063v15.582031zm0 0"/><path d="m144.007812 148.832031 13.496094-7.792969v15.582032zm0 0"/><path d="m130.511719 156.621094 13.496093-7.789063v15.582031zm0 0"/><path d="m130.511719 187.792969 13.496093-7.792969v15.585938zm0 0"/><path d="m130.511719 203.378906 13.496093-7.792968v15.582031zm0 0"/><path d="m144.007812 211.167969 13.496094-7.789063v15.582032zm0 0"/><path d="m157.503906 218.960938 13.5-7.792969v15.585937zm0 0"/><path d="m184.5 218.960938 13.496094-7.792969v15.585937zm0 0"/><path d="m224.988281 195.585938 13.496094-7.792969v15.585937zm0 0"/><path d="m224.988281 164.414062 13.496094-7.792968v15.585937zm0 0"/><path d="m224.988281 148.832031 13.496094-7.792969v15.582032zm0 0"/><path d="m157.503906 125.453125 13.5-7.792969v15.585938zm0 0"/><path d="m117.015625 164.414062 13.496094-7.792968v15.585937zm0 0"/><path d="m117.015625 195.585938 13.496094-7.792969v15.585937zm0 0"/><path d="m130.511719 218.960938 13.496093-7.792969v15.585937zm0 0"/><path d="m184.5 234.546875 13.496094-7.792969v15.585938zm0 0"/><path d="m197.996094 226.753906 13.496094-7.792968v15.585937zm0 0"/><path d="m238.484375 156.621094 13.496094-7.789063v15.582031zm0 0"/><path d="m211.492188 125.453125 13.496093-7.792969v15.585938zm0 0"/><path d="m184.5 109.867188 13.496094-7.789063v15.582031zm0 0"/><path d="m171.003906 102.078125 13.496094-7.792969v15.582032zm0 0"/><path d="m144.007812 117.660156 13.496094-7.792968v15.585937zm0 0"/><path d="m117.015625 133.246094 13.496094-7.792969v15.585937zm0 0"/><path d="m103.519531 141.039062 13.496094-7.792968v15.585937zm0 0"/><path d="m103.519531 187.792969 13.496094-7.792969v15.585938zm0 0"/><path d="m103.519531 218.960938 13.496094-7.792969v15.585937zm0 0"/><path d="m117.015625 226.753906 13.496094-7.792968v15.585937zm0 0"/><path d="m130.511719 234.546875 13.496093-7.792969v15.585938zm0 0"/><path d="m251.980469 164.414062 13.5-7.792968v15.585937zm0 0"/><path d="m251.980469 148.832031 13.5-7.792969v15.582032zm0 0"/><path d="m251.980469 133.246094 13.5-7.792969v15.585937zm0 0"/><path d="m238.484375 125.453125 13.496094-7.792969v15.585938zm0 0"/><path d="m224.988281 117.660156 13.496094-7.792968v15.585937zm0 0"/><path d="m171.003906 86.492188 13.496094-7.792969v15.585937zm0 0"/><path d="m157.503906 94.285156 13.5-7.792968v15.585937zm0 0"/><path d="m144.007812 102.078125 13.496094-7.792969v15.582032zm0 0"/><path d="m103.519531 125.453125 13.496094-7.792969v15.585938zm0 0"/><path d="m90.023438 164.414062 13.496093-7.792968v15.585937zm0 0"/><path d="m144.007812 257.921875 13.496094-7.789063v15.582032zm0 0"/><path d="m211.492188 250.132812 13.496093-7.792968v15.582031zm0 0"/><path d="m224.988281 242.339844 13.496094-7.792969v15.585937zm0 0"/><path d="m184.5 172.207031-13.496094-7.792969v15.585938zm0 0"/><path d="m211.492188 172.207031-13.496094-7.792969v15.585938zm0 0"/><path d="m197.996094 164.414062-13.496094-7.792968v15.585937zm0 0"/><path d="m171.003906 180-13.5-7.792969v15.585938zm0 0"/><path d="m184.5 203.378906-13.496094-7.792968v15.582031zm0 0"/><path d="m224.988281 195.585938-13.496093-7.792969v15.585937zm0 0"/><path d="m224.988281 164.414062-13.496093-7.792968v15.585937zm0 0"/><path d="m211.492188 156.621094-13.496094-7.789063v15.582031zm0 0"/><path d="m184.5 141.039062-13.496094-7.792968v15.585937zm0 0"/><path d="m157.503906 156.621094-13.496094-7.789063v15.582031zm0 0"/><path d="m157.503906 172.207031-13.496094-7.792969v15.585938zm0 0"/><path d="m171.003906 211.167969-13.5-7.789063v15.582032zm0 0"/><path d="m184.5 218.960938-13.496094-7.792969v15.585937zm0 0"/><path d="m238.484375 203.378906-13.496094-7.792968v15.582031zm0 0"/><path d="m238.484375 172.207031-13.496094-7.792969v15.585938zm0 0"/><path d="m238.484375 156.621094-13.496094-7.789063v15.582031zm0 0"/><path d="m197.996094 133.246094-13.496094-7.792969v15.585937zm0 0"/><path d="m171.003906 226.753906-13.5-7.792968v15.585937zm0 0"/><path d="m211.492188 218.960938-13.496094-7.792969v15.585937zm0 0"/><path d="m251.980469 180-13.496094-7.792969v15.585938zm0 0"/><path d="m251.980469 164.414062-13.496094-7.792968v15.585937zm0 0"/><path d="m224.988281 133.246094-13.496093-7.792969v15.585937zm0 0"/><path d="m157.503906 125.453125-13.496094-7.792969v15.585938zm0 0"/><path d="m144.007812 133.246094-13.496093-7.792969v15.585937zm0 0"/><path d="m197.996094 242.339844-13.496094-7.792969v15.585937zm0 0"/><path d="m211.492188 234.546875-13.496094-7.792969v15.585938zm0 0"/><path d="m224.988281 226.753906-13.496093-7.792968v15.585937zm0 0"/><path d="m238.484375 125.453125-13.496094-7.792969v15.585938zm0 0"/><path d="m224.988281 117.660156-13.496093-7.792968v15.585937zm0 0"/><path d="m197.996094 102.078125-13.496094-7.792969v15.582032zm0 0"/><path d="m117.015625 148.832031-13.496094-7.792969v15.582032zm0 0"/><path d="m117.015625 180-13.496094-7.792969v15.585938zm0 0"/><path d="m117.015625 226.753906-13.496094-7.792968v15.585937zm0 0"/><path d="m157.503906 250.132812-13.496094-7.792968v15.582031zm0 0"/><path d="m171.003906 257.921875-13.5-7.789063v15.582032zm0 0"/><path d="m211.492188 250.132812-13.496094-7.792968v15.582031zm0 0"/><path d="m251.980469 226.753906-13.496094-7.792968v15.585937zm0 0"/><path d="m278.976562 164.414062-13.496093-7.792968v15.585937zm0 0"/><path d="m278.976562 133.246094-13.496093-7.792969v15.585937zm0 0"/><path d="m238.484375 109.867188-13.496094-7.789063v15.582031zm0 0"/><path d="m211.492188 94.285156-13.496094-7.792968v15.585937zm0 0"/><path d="m184.5 78.699219-13.496094-7.792969v15.585938zm0 0"/><path d="m171.003906 86.492188-13.5-7.792969v15.585937zm0 0"/><path d="m157.503906 94.285156-13.496094-7.792968v15.585937zm0 0"/><path d="m117.015625 117.660156-13.496094-7.792968v15.585937zm0 0"/><path d="m103.519531 156.621094-13.496093-7.789063v15.582031zm0 0"/><path d="m103.519531 187.792969-13.496093-7.792969v15.585938zm0 0"/><path d="m144.007812 257.921875-13.496093-7.789063v15.582032zm0 0"/><path d="m157.503906 265.714844-13.496094-7.792969v15.585937zm0 0"/><path d="m224.988281 257.921875-13.496093-7.789063v15.582032zm0 0"/><path d="m251.980469 242.339844-13.496094-7.792969v15.585937zm0 0"/></g></svg>