<svg height="360pt" viewBox="0 0 360 360" width="360pt" xmlns="http://www.w3.org/2000/svg"><path d="m0 0h360v360h-360z" fill="#fff"/><g fill="#800080"><path d="m172.324219 180 11.511719-6.648438v13.296876zm0 0"/><path d="m172.324219 166.707031 11.511719-6.648437v13.292968zm0 0"/><path d="m160.8125 173.351562 11.511719-6.644531v13.292969zm0 0"/><path d="m195.351562 180 11.511719-6.648438v13.296876zm0 0"/><path d="m195.351562 166.707031 11.511719-6.648437v13.292968zm0 0"/><path d="m172.324219 153.410156 11.511719-6.648437v13.296875zm0 0"/><path d="m149.296875 166.707031 11.515625-6.648437v13.292968zm0 0"/><path d="m149.296875 193.292969 11.515625-6.644531v13.292968zm0 0"/><path d="m206.863281 199.941406 11.515625-6.648437v13.296875zm0 0"/><path d="m206.863281 186.648438 11.515625-6.648438v13.292969zm0 0"/><path d="m206.863281 160.058594 11.515625-6.648438v13.296875zm0 0"/><path d="m183.835938 146.761719 11.515624-6.644531v13.292968zm0 0"/><path d="m172.324219 140.117188 11.511719-6.648438v13.292969zm0 0"/><path d="m160.8125 146.761719 11.511719-6.644531v13.292968zm0 0"/><path d="m183.835938 213.238281 11.515624-6.648437v13.292968zm0 0"/><path d="m218.378906 166.707031 11.511719-6.648437v13.292968zm0 0"/><path d="m218.378906 153.410156 11.511719-6.648437v13.296875zm0 0"/><path d="m172.324219 126.820312 11.511719-6.644531v13.292969zm0 0"/><path d="m137.785156 146.761719 11.511719-6.644531v13.292968zm0 0"/><path d="m126.269531 166.707031 11.515625-6.648437v13.292968zm0 0"/><path d="m126.269531 180 11.515625-6.648438v13.296876zm0 0"/><path d="m126.269531 193.292969 11.515625-6.644531v13.292968zm0 0"/><path d="m195.351562 219.882812 11.511719-6.644531v13.292969zm0 0"/><path d="m229.890625 199.941406 11.515625-6.648437v13.296875zm0 0"/><path d="m229.890625 160.058594 11.515625-6.648438v13.296875zm0 0"/><path d="m160.8125 120.175781 11.511719-6.648437v13.292968zm0 0"/><path d="m149.296875 126.820312 11.515625-6.644531v13.292969zm0 0"/><path d="m126.269531 100.234375 11.515625-6.648437v13.292968zm0 0"/><path d="m183.835938 186.648438-11.511719-6.648438v13.292969zm0 0"/><path d="m195.351562 166.707031-11.515624-6.648437v13.292968zm0 0"/><path d="m172.324219 180-11.511719-6.648438v13.296876zm0 0"/><path d="m172.324219 193.292969-11.511719-6.644531v13.292968zm0 0"/><path d="m206.863281 160.058594-11.511719-6.648438v13.296875zm0 0"/><path d="m195.351562 153.410156-11.515624-6.648437v13.296875zm0 0"/><path d="m183.835938 146.761719-11.511719-6.644531v13.292968zm0 0"/><path d="m160.8125 173.351562-11.515625-6.644531v13.292969zm0 0"/><path d="m160.8125 186.648438-11.515625-6.648438v13.292969zm0 0"/><path d="m160.8125 199.941406-11.515625-6.648437v13.296875zm0 0"/><path d="m172.324219 206.589844-11.511719-6.648438v13.296875zm0 0"/><path d="m229.890625 173.351562-11.511719-6.644531v13.292969zm0 0"/><path d="m218.378906 153.410156-11.515625-6.648437v13.296875zm0 0"/><path d="m149.296875 166.707031-11.511719-6.648437v13.292968zm0 0"/><path d="m149.296875 180-11.511719-6.648438v13.296876zm0 0"/><path d="m149.296875 193.292969-11.511719-6.644531v13.292968zm0 0"/><path d="m195.351562 219.882812-11.515624-6.644531v13.292969zm0 0"/></g></svg>