<svg height="360pt" viewBox="0 0 360 360" width="360pt" xmlns="http://www.w3.org/2000/svg"><path d="m0 0h360v360h-360z" fill="#800080"/><g fill="#fff"><path d="m182.210938 176.171875 6.625-3.824219v7.652344zm0 0"/><path d="m168.953125 176.171875 6.628906-3.824219v7.652344zm0 0"/><path d="m168.953125 183.828125 6.628906-3.828125v7.652344zm0 0"/><path d="m175.582031 187.652344 6.628907-3.824219v7.652344zm0 0"/><path d="m188.835938 180 6.628906-3.828125v7.65625zm0 0"/><path d="m175.582031 164.695312 6.628907-3.828124v7.652343zm0 0"/><path d="m182.210938 191.480469 6.625-3.828125v7.652344zm0 0"/><path d="m195.464844 176.171875 6.628906-3.824219v7.652344zm0 0"/><path d="m155.699219 191.480469 6.625-3.828125v7.652344zm0 0"/><path d="m162.324219 195.304688 6.628906-3.824219v7.652343zm0 0"/><path d="m175.582031 202.960938 6.628907-3.828126v7.652344zm0 0"/><path d="m182.210938 153.214844 6.625-3.828125v7.652343zm0 0"/><path d="m155.699219 160.867188 6.625-3.828126v7.65625zm0 0"/><path d="m149.070312 180 6.628907-3.828125v7.65625zm0 0"/><path d="m149.070312 187.652344 6.628907-3.824219v7.652344zm0 0"/><path d="m155.699219 199.132812 6.625-3.828124v7.65625zm0 0"/><path d="m162.324219 202.960938 6.628906-3.828126v7.652344zm0 0"/><path d="m168.953125 206.785156 6.628906-3.824218v7.652343zm0 0"/><path d="m175.582031 210.613281 6.628907-3.828125v7.65625zm0 0"/><path d="m182.210938 206.785156 6.625-3.824218v7.652343zm0 0"/><path d="m188.835938 202.960938 6.628906-3.828126v7.652344zm0 0"/><path d="m208.722656 168.519531 6.625-3.824219v7.652344zm0 0"/><path d="m202.09375 157.039062 6.628906-3.824218v7.652344zm0 0"/><path d="m195.464844 153.214844 6.628906-3.828125v7.652343zm0 0"/><path d="m155.699219 153.214844 6.625-3.828125v7.652343zm0 0"/><path d="m142.441406 168.519531 6.628906-3.824219v7.652344zm0 0"/><path d="m142.441406 191.480469 6.628906-3.828125v7.652344zm0 0"/><path d="m188.835938 210.613281 6.628906-3.828125v7.65625zm0 0"/><path d="m195.464844 206.785156 6.628906-3.824218v7.652343zm0 0"/><path d="m215.347656 202.960938 6.628906-3.828126v7.652344zm0 0"/><path d="m215.347656 195.304688 6.628906-3.824219v7.652343zm0 0"/><path d="m215.347656 180 6.628906-3.828125v7.65625zm0 0"/><path d="m215.347656 172.347656 6.628906-3.828125v7.652344zm0 0"/><path d="m215.347656 157.039062 6.628906-3.824218v7.652344zm0 0"/><path d="m208.722656 153.214844 6.625-3.828125v7.652343zm0 0"/><path d="m202.09375 149.386719 6.628906-3.828125v7.65625zm0 0"/><path d="m149.070312 149.386719 6.628907-3.828125v7.65625zm0 0"/><path d="m135.8125 172.347656 6.628906-3.828125v7.652344zm0 0"/><path d="m135.8125 187.652344 6.628906-3.824219v7.652344zm0 0"/><path d="m155.699219 214.441406 6.625-3.828125v7.652344zm0 0"/><path d="m162.324219 218.265625 6.628906-3.824219v7.652344zm0 0"/><path d="m168.953125 222.09375 6.628906-3.828125v7.652344zm0 0"/><path d="m175.582031 225.917969 6.628907-3.824219v7.652344zm0 0"/><path d="m188.835938 218.265625 6.628906-3.824219v7.652344zm0 0"/><path d="m208.722656 206.785156 6.625-3.824218v7.652343zm0 0"/><path d="m221.976562 183.828125 6.628907-3.828125v7.652344zm0 0"/><path d="m221.976562 176.171875 6.628907-3.824219v7.652344zm0 0"/><path d="m221.976562 153.214844 6.628907-3.828125v7.652343zm0 0"/><path d="m215.347656 149.386719 6.628906-3.828125v7.65625zm0 0"/><path d="m208.722656 145.558594 6.625-3.824219v7.652344zm0 0"/><path d="m195.464844 137.90625 6.628906-3.824219v7.652344zm0 0"/><path d="m175.582031 126.425781 6.628907-3.824219v7.652344zm0 0"/><path d="m168.953125 130.253906 6.628906-3.828125v7.65625zm0 0"/><path d="m162.324219 134.082031 6.628906-3.828125v7.652344zm0 0"/><path d="m129.1875 153.214844 6.625-3.828125v7.652343zm0 0"/><path d="m129.1875 160.867188 6.625-3.828126v7.65625zm0 0"/><path d="m129.1875 168.519531 6.625-3.824219v7.652344zm0 0"/><path d="m129.1875 199.132812 6.625-3.828124v7.65625zm0 0"/><path d="m129.1875 206.785156 6.625-3.824218v7.652343zm0 0"/><path d="m135.8125 210.613281 6.628906-3.828125v7.65625zm0 0"/><path d="m142.441406 214.441406 6.628906-3.828125v7.652344zm0 0"/><path d="m168.953125 229.746094 6.628906-3.828125v7.65625zm0 0"/><path d="m208.722656 214.441406 6.625-3.828125v7.652344zm0 0"/><path d="m228.605469 210.613281 6.628906-3.828125v7.65625zm0 0"/><path d="m228.605469 180 6.628906-3.828125v7.65625zm0 0"/><path d="m228.605469 164.695312 6.628906-3.828124v7.652343zm0 0"/><path d="m228.605469 157.039062 6.628906-3.824218v7.652344zm0 0"/><path d="m215.347656 141.734375 6.628906-3.828125v7.652344zm0 0"/><path d="m195.464844 130.253906 6.628906-3.828125v7.65625zm0 0"/><path d="m162.324219 126.425781 6.628906-3.824219v7.652344zm0 0"/><path d="m149.070312 134.082031 6.628907-3.828125v7.652344zm0 0"/><path d="m135.8125 141.734375 6.628906-3.828125v7.652344zm0 0"/><path d="m129.1875 145.558594 6.625-3.824219v7.652344zm0 0"/><path d="m122.558594 202.960938 6.628906-3.828126v7.652344zm0 0"/><path d="m122.558594 210.613281 6.628906-3.828125v7.65625zm0 0"/><path d="m149.070312 225.917969 6.628907-3.824219v7.652344zm0 0"/><path d="m155.699219 229.746094 6.625-3.828125v7.65625zm0 0"/><path d="m168.953125 237.398438 6.628906-3.824219v7.652343zm0 0"/><path d="m182.210938 237.398438 6.625-3.824219v7.652343zm0 0"/><path d="m188.835938 233.574219 6.628906-3.828125v7.652344zm0 0"/><path d="m195.464844 229.746094 6.628906-3.828125v7.65625zm0 0"/><path d="m202.09375 225.917969 6.628906-3.824219v7.652344zm0 0"/><path d="m208.722656 222.09375 6.625-3.828125v7.652344zm0 0"/><path d="m215.347656 218.265625 6.628906-3.824219v7.652344zm0 0"/><path d="m221.976562 214.441406 6.628907-3.828125v7.652344zm0 0"/><path d="m235.234375 214.441406 6.625-3.828125v7.652344zm0 0"/><path d="m235.234375 168.519531 6.625-3.824219v7.652344zm0 0"/><path d="m235.234375 160.867188 6.625-3.828126v7.65625zm0 0"/><path d="m228.605469 141.734375 6.628906-3.828125v7.652344zm0 0"/><path d="m215.347656 134.082031 6.628906-3.828125v7.652344zm0 0"/><path d="m195.464844 122.601562 6.628906-3.828124v7.652343zm0 0"/><path d="m188.835938 118.773438 6.628906-3.828126v7.65625zm0 0"/><path d="m175.582031 111.121094 6.628907-3.828125v7.652343zm0 0"/><path d="m168.953125 114.945312 6.628906-3.824218v7.652344zm0 0"/><path d="m155.699219 122.601562 6.625-3.828124v7.652343zm0 0"/><path d="m135.8125 134.082031 6.628906-3.828125v7.652344zm0 0"/><path d="m115.929688 145.558594 6.628906-3.824219v7.652344zm0 0"/><path d="m115.929688 160.867188 6.628906-3.828126v7.65625zm0 0"/><path d="m135.8125 225.917969 6.628906-3.824219v7.652344zm0 0"/><path d="m142.441406 229.746094 6.628906-3.828125v7.65625zm0 0"/><path d="m175.582031 248.878906 6.628907-3.824218v7.652343zm0 0"/><path d="m188.835938 241.226562 6.628906-3.828124v7.65625zm0 0"/><path d="m241.859375 210.613281 6.628906-3.828125v7.65625zm0 0"/><path d="m241.859375 202.960938 6.628906-3.828126v7.652344zm0 0"/><path d="m241.859375 180 6.628906-3.828125v7.65625zm0 0"/><path d="m241.859375 164.695312 6.628906-3.828124v7.652343zm0 0"/><path d="m228.605469 134.082031 6.628906-3.828125v7.652344zm0 0"/><path d="m215.347656 126.425781 6.628906-3.824219v7.652344zm0 0"/><path d="m182.210938 107.292969 6.625-3.824219v7.652344zm0 0"/><path d="m175.582031 103.46875 6.628907-3.828125v7.652344zm0 0"/><path d="m168.953125 107.292969 6.628906-3.824219v7.652344zm0 0"/><path d="m122.558594 134.082031 6.628906-3.828125v7.652344zm0 0"/><path d="m115.929688 137.90625 6.628906-3.824219v7.652344zm0 0"/><path d="m109.300781 164.695312 6.628907-3.828124v7.652343zm0 0"/><path d="m109.300781 172.347656 6.628907-3.828125v7.652344zm0 0"/><path d="m109.300781 195.304688 6.628907-3.824219v7.652343zm0 0"/><path d="m122.558594 225.917969 6.628906-3.824219v7.652344zm0 0"/><path d="m182.210938 252.707031 6.625-3.828125v7.652344zm0 0"/><path d="m202.09375 241.226562 6.628906-3.828124v7.65625zm0 0"/><path d="m228.605469 225.917969 6.628906-3.824219v7.652344zm0 0"/><path d="m248.488281 199.132812 6.628907-3.828124v7.65625zm0 0"/><path d="m248.488281 183.828125 6.628907-3.828125v7.652344zm0 0"/><path d="m248.488281 176.171875 6.628907-3.824219v7.652344zm0 0"/><path d="m221.976562 122.601562 6.628907-3.828124v7.652343zm0 0"/><path d="m168.953125 99.640625 6.628906-3.828125v7.65625zm0 0"/><path d="m162.324219 103.46875 6.628906-3.828125v7.652344zm0 0"/><path d="m129.1875 122.601562 6.625-3.828124v7.652343zm0 0"/><path d="m115.929688 130.253906 6.628906-3.828125v7.65625zm0 0"/><path d="m102.671875 183.828125 6.628906-3.828125v7.652344zm0 0"/><path d="m102.671875 206.785156 6.628906-3.824218v7.652343zm0 0"/><path d="m109.300781 225.917969 6.628907-3.824219v7.652344zm0 0"/><path d="m115.929688 229.746094 6.628906-3.828125v7.65625zm0 0"/><path d="m135.8125 241.226562 6.628906-3.828124v7.65625zm0 0"/><path d="m168.953125 260.359375 6.628906-3.828125v7.65625zm0 0"/><path d="m175.582031 264.1875 6.628907-3.828125v7.652344zm0 0"/><path d="m255.117188 172.347656 6.628906-3.828125v7.652344zm0 0"/><path d="m255.117188 149.386719 6.628906-3.828125v7.65625zm0 0"/><path d="m182.210938 91.988281 6.625-3.828125v7.652344zm0 0"/><path d="m175.582031 88.160156 6.628907-3.828125v7.65625zm0 0"/><path d="m155.699219 99.640625 6.625-3.828125v7.65625zm0 0"/><path d="m129.1875 114.945312 6.625-3.824218v7.652344zm0 0"/><path d="m122.558594 118.773438 6.628906-3.828126v7.65625zm0 0"/><path d="m115.929688 122.601562 6.628906-3.828124v7.652343zm0 0"/><path d="m109.300781 126.425781 6.628907-3.824219v7.652344zm0 0"/><path d="m96.046875 149.386719 6.625-3.828125v7.65625zm0 0"/><path d="m96.046875 164.695312 6.625-3.828124v7.652343zm0 0"/><path d="m96.046875 180 6.625-3.828125v7.65625zm0 0"/><path d="m102.671875 229.746094 6.628906-3.828125v7.65625zm0 0"/><path d="m122.558594 241.226562 6.628906-3.828124v7.65625zm0 0"/><path d="m155.699219 260.359375 6.625-3.828125v7.65625zm0 0"/><path d="m162.324219 264.1875 6.628906-3.828125v7.652344zm0 0"/><path d="m168.953125 268.011719 6.628906-3.824219v7.652344zm0 0"/><path d="m188.835938 264.1875 6.628906-3.828125v7.652344zm0 0"/><path d="m202.09375 256.53125 6.628906-3.824219v7.652344zm0 0"/><path d="m228.605469 241.226562 6.628906-3.828124v7.65625zm0 0"/><path d="m235.234375 237.398438 6.625-3.824219v7.652343zm0 0"/><path d="m261.746094 229.746094 6.625-3.828125v7.65625zm0 0"/><path d="m261.746094 199.132812 6.625-3.828124v7.65625zm0 0"/><path d="m261.746094 183.828125 6.625-3.828125v7.652344zm0 0"/><path d="m261.746094 176.171875 6.625-3.824219v7.652344zm0 0"/><path d="m261.746094 160.867188 6.625-3.828126v7.65625zm0 0"/><path d="m261.746094 153.214844 6.625-3.828125v7.652343zm0 0"/><path d="m255.117188 126.425781 6.628906-3.824219v7.652344zm0 0"/><path d="m241.859375 118.773438 6.628906-3.828126v7.65625zm0 0"/><path d="m221.976562 107.292969 6.628907-3.824219v7.652344zm0 0"/><path d="m208.722656 99.640625 6.625-3.828125v7.65625zm0 0"/><path d="m182.210938 84.332031 6.625-3.824219v7.652344zm0 0"/><path d="m175.582031 80.507812 6.628907-3.828124v7.652343zm0 0"/><path d="m162.324219 88.160156 6.628906-3.828125v7.65625zm0 0"/><path d="m155.699219 91.988281 6.625-3.828125v7.652344zm0 0"/><path d="m142.441406 99.640625 6.628906-3.828125v7.65625zm0 0"/><path d="m96.046875 126.425781 6.625-3.824219v7.652344zm0 0"/><path d="m89.417969 160.867188 6.628906-3.828126v7.65625zm0 0"/><path d="m89.417969 176.171875 6.628906-3.824219v7.652344zm0 0"/><path d="m89.417969 191.480469 6.628906-3.828125v7.652344zm0 0"/><path d="m89.417969 199.132812 6.628906-3.828124v7.65625zm0 0"/><path d="m102.671875 237.398438 6.628906-3.824219v7.652343zm0 0"/><path d="m109.300781 241.226562 6.628907-3.828124v7.65625zm0 0"/><path d="m122.558594 248.878906 6.628906-3.824218v7.652343zm0 0"/><path d="m129.1875 252.707031 6.625-3.828125v7.652344zm0 0"/><path d="m155.699219 268.011719 6.625-3.824219v7.652344zm0 0"/><path d="m162.324219 271.839844 6.628906-3.828125v7.65625zm0 0"/><path d="m168.953125 275.667969 6.628906-3.828125v7.652344zm0 0"/><path d="m195.464844 268.011719 6.628906-3.824219v7.652344zm0 0"/><path d="m208.722656 260.359375 6.625-3.828125v7.65625zm0 0"/><path d="m215.347656 256.53125 6.628906-3.824219v7.652344zm0 0"/><path d="m228.605469 248.878906 6.628906-3.824218v7.652343zm0 0"/><path d="m241.859375 241.226562 6.628906-3.828124v7.65625zm0 0"/><path d="m268.371094 202.960938 6.628906-3.828126v7.652344zm0 0"/><path d="m268.371094 195.304688 6.628906-3.824219v7.652343zm0 0"/><path d="m268.371094 187.652344 6.628906-3.824219v7.652344zm0 0"/><path d="m268.371094 172.347656 6.628906-3.828125v7.652344zm0 0"/><path d="m268.371094 149.386719 6.628906-3.828125v7.65625zm0 0"/><path d="m268.371094 141.734375 6.628906-3.828125v7.652344zm0 0"/><path d="m268.371094 134.082031 6.628906-3.828125v7.652344zm0 0"/><path d="m221.976562 99.640625 6.628907-3.828125v7.65625zm0 0"/><path d="m208.722656 91.988281 6.625-3.828125v7.652344zm0 0"/><path d="m182.210938 76.679688 6.625-3.824219v7.652343zm0 0"/><path d="m175.582031 72.855469 6.628907-3.828125v7.652344zm0 0"/><path d="m149.070312 88.160156 6.628907-3.828125v7.65625zm0 0"/><path d="m142.441406 91.988281 6.628906-3.828125v7.652344zm0 0"/><path d="m135.8125 95.8125 6.628906-3.824219v7.652344zm0 0"/><path d="m129.1875 99.640625 6.625-3.828125v7.65625zm0 0"/><path d="m122.558594 103.46875 6.628906-3.828125v7.652344zm0 0"/><path d="m109.300781 111.121094 6.628907-3.828125v7.652343zm0 0"/><path d="m102.671875 114.945312 6.628906-3.824218v7.652344zm0 0"/><path d="m82.789062 134.082031 6.628907-3.828125v7.652344zm0 0"/><path d="m82.789062 149.386719 6.628907-3.828125v7.65625zm0 0"/><path d="m82.789062 164.695312 6.628907-3.828124v7.652343zm0 0"/><path d="m82.789062 180 6.628907-3.828125v7.65625zm0 0"/><path d="m82.789062 210.613281 6.628907-3.828125v7.65625zm0 0"/><path d="m82.789062 218.265625 6.628907-3.824219v7.652344zm0 0"/><path d="m96.046875 241.226562 6.625-3.828124v7.65625zm0 0"/><path d="m135.8125 264.1875 6.628906-3.828125v7.652344zm0 0"/><path d="m142.441406 268.011719 6.628906-3.824219v7.652344zm0 0"/><path d="m155.699219 275.667969 6.625-3.828125v7.652344zm0 0"/><path d="m175.582031 287.144531 6.628907-3.824219v7.652344zm0 0"/><path d="m182.210938 283.320312 6.625-3.828124v7.652343zm0 0"/><path d="m195.464844 275.667969 6.628906-3.828125v7.652344zm0 0"/><path d="m202.09375 271.839844 6.628906-3.828125v7.65625zm0 0"/><path d="m275 222.09375 6.628906-3.828125v7.652344zm0 0"/><path d="m275 214.441406 6.628906-3.828125v7.652344zm0 0"/><path d="m275 183.828125 6.628906-3.828125v7.652344zm0 0"/><path d="m275 130.253906 6.628906-3.828125v7.65625zm0 0"/><path d="m268.371094 118.773438 6.628906-3.828126v7.65625zm0 0"/><path d="m261.746094 114.945312 6.625-3.824218v7.652344zm0 0"/><path d="m255.117188 111.121094 6.628906-3.828125v7.652343zm0 0"/><path d="m241.859375 103.46875 6.628906-3.828125v7.652344zm0 0"/><path d="m235.234375 99.640625 6.625-3.828125v7.65625zm0 0"/><path d="m228.605469 95.8125 6.628906-3.824219v7.652344zm0 0"/><path d="m215.347656 88.160156 6.628906-3.828125v7.65625zm0 0"/><path d="m175.582031 65.199219 6.628907-3.824219v7.652344zm0 0"/><path d="m162.324219 72.855469 6.628906-3.828125v7.652344zm0 0"/><path d="m149.070312 80.507812 6.628907-3.828124v7.652343zm0 0"/><path d="m142.441406 84.332031 6.628906-3.824219v7.652344zm0 0"/><path d="m129.1875 91.988281 6.625-3.828125v7.652344zm0 0"/><path d="m122.558594 95.8125 6.628906-3.824219v7.652344zm0 0"/><path d="m102.671875 107.292969 6.628906-3.824219v7.652344zm0 0"/><path d="m89.417969 114.945312 6.628906-3.824218v7.652344zm0 0"/><path d="m76.160156 176.171875 6.628906-3.824219v7.652344zm0 0"/><path d="m76.160156 183.828125 6.628906-3.828125v7.652344zm0 0"/><path d="m76.160156 191.480469 6.628906-3.828125v7.652344zm0 0"/><path d="m76.160156 229.746094 6.628906-3.828125v7.65625zm0 0"/><path d="m89.417969 245.054688 6.628906-3.828126v7.652344zm0 0"/><path d="m122.558594 264.1875 6.628906-3.828125v7.652344zm0 0"/><path d="m129.1875 268.011719 6.625-3.824219v7.652344zm0 0"/><path d="m142.441406 275.667969 6.628906-3.828125v7.652344zm0 0"/><path d="m155.699219 283.320312 6.625-3.828124v7.652343zm0 0"/><path d="m182.210938 290.972656 6.625-3.828125v7.65625zm0 0"/><path d="m195.464844 283.320312 6.628906-3.828124v7.652343zm0 0"/><path d="m202.09375 279.492188 6.628906-3.824219v7.652343zm0 0"/><path d="m208.722656 275.667969 6.625-3.828125v7.652344zm0 0"/><path d="m241.859375 256.53125 6.628906-3.824219v7.652344zm0 0"/><path d="m255.117188 248.878906 6.628906-3.824218v7.652343zm0 0"/><path d="m281.628906 241.226562 6.628906-3.828124v7.65625zm0 0"/><path d="m281.628906 233.574219 6.628906-3.828125v7.652344zm0 0"/><path d="m281.628906 187.652344 6.628906-3.824219v7.652344zm0 0"/><path d="m281.628906 180 6.628906-3.828125v7.65625zm0 0"/><path d="m281.628906 134.082031 6.628906-3.828125v7.652344zm0 0"/><path d="m275 114.945312 6.628906-3.824218v7.652344zm0 0"/><path d="m268.371094 111.121094 6.628906-3.828125v7.652343zm0 0"/><path d="m261.746094 107.292969 6.625-3.824219v7.652344zm0 0"/><path d="m255.117188 103.46875 6.628906-3.828125v7.652344zm0 0"/><path d="m248.488281 99.640625 6.628907-3.828125v7.65625zm0 0"/><path d="m241.859375 95.8125 6.628906-3.824219v7.652344zm0 0"/><path d="m235.234375 91.988281 6.625-3.828125v7.652344zm0 0"/><path d="m228.605469 88.160156 6.628906-3.828125v7.65625zm0 0"/><path d="m221.976562 84.332031 6.628907-3.824219v7.652344zm0 0"/><path d="m215.347656 80.507812 6.628906-3.828124v7.652343zm0 0"/><path d="m208.722656 76.679688 6.625-3.824219v7.652343zm0 0"/><path d="m202.09375 72.855469 6.628906-3.828125v7.652344zm0 0"/><path d="m195.464844 69.027344 6.628906-3.828125v7.65625zm0 0"/><path d="m188.835938 65.199219 6.628906-3.824219v7.652344zm0 0"/><path d="m168.953125 61.375 6.628906-3.828125v7.652344zm0 0"/><path d="m162.324219 65.199219 6.628906-3.824219v7.652344zm0 0"/><path d="m149.070312 72.855469 6.628907-3.828125v7.652344zm0 0"/><path d="m142.441406 76.679688 6.628906-3.824219v7.652343zm0 0"/><path d="m122.558594 88.160156 6.628906-3.828125v7.65625zm0 0"/><path d="m115.929688 91.988281 6.628906-3.828125v7.652344zm0 0"/><path d="m109.300781 95.8125 6.628907-3.824219v7.652344zm0 0"/><path d="m102.671875 99.640625 6.628906-3.828125v7.65625zm0 0"/><path d="m69.535156 141.734375 6.625-3.828125v7.652344zm0 0"/><path d="m69.535156 149.386719 6.625-3.828125v7.65625zm0 0"/><path d="m69.535156 157.039062 6.625-3.824218v7.652344zm0 0"/><path d="m69.535156 195.304688 6.625-3.824219v7.652343zm0 0"/><path d="m69.535156 210.613281 6.625-3.828125v7.65625zm0 0"/><path d="m69.535156 225.917969 6.625-3.824219v7.652344zm0 0"/><path d="m76.160156 245.054688 6.628906-3.828126v7.652344zm0 0"/><path d="m82.789062 248.878906 6.628907-3.824218v7.652343zm0 0"/><path d="m89.417969 252.707031 6.628906-3.828125v7.652344zm0 0"/><path d="m115.929688 268.011719 6.628906-3.824219v7.652344zm0 0"/><path d="m135.8125 279.492188 6.628906-3.824219v7.652343zm0 0"/><path d="m182.210938 298.625 6.625-3.824219v7.652344zm0 0"/><path d="m188.835938 294.800781 6.628906-3.828125v7.652344zm0 0"/><path d="m208.722656 283.320312 6.625-3.828124v7.652343zm0 0"/><path d="m221.976562 275.667969 6.628907-3.828125v7.652344zm0 0"/><path d="m255.117188 256.53125 6.628906-3.824219v7.652344zm0 0"/><path d="m261.746094 252.707031 6.625-3.828125v7.652344zm0 0"/><path d="m288.257812 137.90625 6.625-3.824219v7.652344zm0 0"/><path d="m188.835938 57.546875 6.628906-3.828125v7.65625zm0 0"/><path d="m182.210938 53.71875 6.625-3.824219v7.652344zm0 0"/><path d="m175.582031 49.894531 6.628907-3.828125v7.652344zm0 0"/><path d="m162.324219 57.546875 6.628906-3.828125v7.65625zm0 0"/><path d="m62.90625 137.90625 6.628906-3.824219v7.652344zm0 0"/><path d="m62.90625 145.558594 6.628906-3.824219v7.652344zm0 0"/><path d="m62.90625 153.214844 6.628906-3.828125v7.652343zm0 0"/><path d="m62.90625 160.867188 6.628906-3.828126v7.65625zm0 0"/><path d="m62.90625 168.519531 6.628906-3.824219v7.652344zm0 0"/><path d="m62.90625 176.171875 6.628906-3.824219v7.652344zm0 0"/><path d="m62.90625 183.828125 6.628906-3.828125v7.652344zm0 0"/><path d="m62.90625 191.480469 6.628906-3.828125v7.652344zm0 0"/><path d="m62.90625 214.441406 6.628906-3.828125v7.652344zm0 0"/><path d="m62.90625 222.09375 6.628906-3.828125v7.652344zm0 0"/><path d="m62.90625 245.054688 6.628906-3.828126v7.652344zm0 0"/><path d="m76.160156 252.707031 6.628906-3.828125v7.652344zm0 0"/><path d="m89.417969 260.359375 6.628906-3.828125v7.65625zm0 0"/><path d="m96.046875 264.1875 6.625-3.828125v7.652344zm0 0"/><path d="m109.300781 271.839844 6.628907-3.828125v7.65625zm0 0"/><path d="m122.558594 279.492188 6.628906-3.824219v7.652343zm0 0"/><path d="m168.953125 306.28125 6.628906-3.828125v7.652344zm0 0"/><path d="m202.09375 294.800781 6.628906-3.828125v7.652344zm0 0"/><path d="m215.347656 287.144531 6.628906-3.824219v7.652344zm0 0"/><path d="m221.976562 283.320312 6.628907-3.828124v7.652343zm0 0"/><path d="m228.605469 279.492188 6.628906-3.824219v7.652343zm0 0"/><path d="m241.859375 271.839844 6.628906-3.828125v7.65625zm0 0"/><path d="m294.882812 233.574219 6.628907-3.828125v7.652344zm0 0"/><path d="m294.882812 225.917969 6.628907-3.824219v7.652344zm0 0"/><path d="m294.882812 218.265625 6.628907-3.824219v7.652344zm0 0"/><path d="m294.882812 210.613281 6.628907-3.828125v7.65625zm0 0"/><path d="m294.882812 202.960938 6.628907-3.828126v7.652344zm0 0"/><path d="m294.882812 195.304688 6.628907-3.824219v7.652343zm0 0"/><path d="m294.882812 187.652344 6.628907-3.824219v7.652344zm0 0"/><path d="m294.882812 180 6.628907-3.828125v7.65625zm0 0"/><path d="m294.882812 172.347656 6.628907-3.828125v7.652344zm0 0"/><path d="m294.882812 164.695312 6.628907-3.828124v7.652343zm0 0"/><path d="m294.882812 157.039062 6.628907-3.824218v7.652344zm0 0"/><path d="m294.882812 149.386719 6.628907-3.828125v7.65625zm0 0"/><path d="m294.882812 141.734375 6.628907-3.828125v7.652344zm0 0"/><path d="m294.882812 134.082031 6.628907-3.828125v7.652344zm0 0"/><path d="m294.882812 111.121094 6.628907-3.828125v7.652343zm0 0"/><path d="m288.257812 107.292969 6.625-3.824219v7.652344zm0 0"/><path d="m281.628906 103.46875 6.628906-3.828125v7.652344zm0 0"/><path d="m275 99.640625 6.628906-3.828125v7.65625zm0 0"/><path d="m268.371094 95.8125 6.628906-3.824219v7.652344zm0 0"/><path d="m261.746094 91.988281 6.625-3.828125v7.652344zm0 0"/><path d="m255.117188 88.160156 6.628906-3.828125v7.65625zm0 0"/><path d="m248.488281 84.332031 6.628907-3.824219v7.652344zm0 0"/><path d="m241.859375 80.507812 6.628906-3.828124v7.652343zm0 0"/><path d="m235.234375 76.679688 6.625-3.824219v7.652343zm0 0"/><path d="m228.605469 72.855469 6.628906-3.828125v7.652344zm0 0"/><path d="m221.976562 69.027344 6.628907-3.828125v7.65625zm0 0"/><path d="m215.347656 65.199219 6.628906-3.824219v7.652344zm0 0"/><path d="m208.722656 61.375 6.625-3.828125v7.652344zm0 0"/><path d="m202.09375 57.546875 6.628906-3.828125v7.65625zm0 0"/><path d="m195.464844 53.71875 6.628906-3.824219v7.652344zm0 0"/><path d="m188.835938 49.894531 6.628906-3.828125v7.652344zm0 0"/><path d="m56.277344 111.121094 6.628906-3.828125v7.652343zm0 0"/><path d="m56.277344 118.773438 6.628906-3.828126v7.65625zm0 0"/><path d="m56.277344 248.878906 6.628906-3.824218v7.652343zm0 0"/><path d="m69.535156 256.53125 6.625-3.824219v7.652344zm0 0"/><path d="m82.789062 264.1875 6.628907-3.828125v7.652344zm0 0"/><path d="m89.417969 268.011719 6.628906-3.824219v7.652344zm0 0"/><path d="m96.046875 271.839844 6.625-3.828125v7.65625zm0 0"/><path d="m102.671875 275.667969 6.628906-3.828125v7.652344zm0 0"/><path d="m109.300781 279.492188 6.628907-3.824219v7.652343zm0 0"/><path d="m115.929688 283.320312 6.628906-3.828124v7.652343zm0 0"/><path d="m122.558594 287.144531 6.628906-3.824219v7.652344zm0 0"/><path d="m129.1875 290.972656 6.625-3.828125v7.65625zm0 0"/><path d="m135.8125 294.800781 6.628906-3.828125v7.652344zm0 0"/><path d="m142.441406 298.625 6.628906-3.824219v7.652344zm0 0"/><path d="m149.070312 302.453125 6.628907-3.828125v7.65625zm0 0"/><path d="m155.699219 306.28125 6.625-3.828125v7.652344zm0 0"/><path d="m162.324219 310.105469 6.628906-3.824219v7.652344zm0 0"/><path d="m168.953125 313.933594 6.628906-3.828125v7.652343zm0 0"/><path d="m175.582031 317.757812 6.628907-3.824218v7.652344zm0 0"/><path d="m301.511719 252.707031 6.628906-3.828125v7.652344zm0 0"/><path d="m301.511719 130.253906 6.628906-3.828125v7.65625zm0 0"/><path d="m49.648438 130.253906 6.628906-3.828125v7.65625zm0 0"/><path d="m49.648438 137.90625 6.628906-3.824219v7.652344zm0 0"/><path d="m49.648438 145.558594 6.628906-3.824219v7.652344zm0 0"/><path d="m49.648438 153.214844 6.628906-3.828125v7.652343zm0 0"/><path d="m49.648438 160.867188 6.628906-3.828126v7.65625zm0 0"/><path d="m49.648438 168.519531 6.628906-3.824219v7.652344zm0 0"/><path d="m49.648438 176.171875 6.628906-3.824219v7.652344zm0 0"/><path d="m49.648438 183.828125 6.628906-3.828125v7.652344zm0 0"/><path d="m49.648438 191.480469 6.628906-3.828125v7.652344zm0 0"/><path d="m49.648438 199.132812 6.628906-3.828124v7.65625zm0 0"/><path d="m49.648438 206.785156 6.628906-3.824218v7.652343zm0 0"/><path d="m49.648438 214.441406 6.628906-3.828125v7.652344zm0 0"/><path d="m49.648438 222.09375 6.628906-3.828125v7.652344zm0 0"/><path d="m49.648438 229.746094 6.628906-3.828125v7.65625zm0 0"/><path d="m49.648438 237.398438 6.628906-3.824219v7.652343zm0 0"/><path d="m49.648438 245.054688 6.628906-3.828126v7.652344zm0 0"/><path d="m69.535156 264.1875 6.625-3.828125v7.652344zm0 0"/><path d="m175.582031 325.414062 6.628907-3.828124v7.652343zm0 0"/><path d="m202.09375 310.105469 6.628906-3.824219v7.652344zm0 0"/><path d="m208.722656 306.28125 6.625-3.828125v7.652344zm0 0"/><path d="m215.347656 302.453125 6.628906-3.828125v7.65625zm0 0"/><path d="m221.976562 298.625 6.628907-3.824219v7.652344zm0 0"/><path d="m228.605469 294.800781 6.628906-3.828125v7.652344zm0 0"/><path d="m235.234375 290.972656 6.625-3.828125v7.65625zm0 0"/><path d="m241.859375 287.144531 6.628906-3.824219v7.652344zm0 0"/><path d="m248.488281 283.320312 6.628907-3.828124v7.652343zm0 0"/><path d="m255.117188 279.492188 6.628906-3.824219v7.652343zm0 0"/><path d="m261.746094 275.667969 6.625-3.828125v7.652344zm0 0"/><path d="m268.371094 271.839844 6.628906-3.828125v7.65625zm0 0"/><path d="m275 268.011719 6.628906-3.824219v7.652344zm0 0"/><path d="m288.257812 260.359375 6.625-3.828125v7.65625zm0 0"/><path d="m294.882812 256.53125 6.628907-3.824219v7.652344zm0 0"/><path d="m195.464844 183.828125-6.628906-3.828125v7.652344zm0 0"/><path d="m182.210938 168.519531-6.628907-3.824219v7.652344zm0 0"/><path d="m202.09375 180-6.628906-3.828125v7.65625zm0 0"/><path d="m195.464844 168.519531-6.628906-3.824219v7.652344zm0 0"/><path d="m182.210938 160.867188-6.628907-3.828126v7.65625zm0 0"/><path d="m168.953125 183.828125-6.628906-3.828125v7.652344zm0 0"/><path d="m168.953125 191.480469-6.628906-3.828125v7.652344zm0 0"/><path d="m162.324219 187.652344-6.625-3.824219v7.652344zm0 0"/><path d="m168.953125 199.132812-6.628906-3.828124v7.65625zm0 0"/><path d="m215.347656 164.695312-6.625-3.828124v7.652343zm0 0"/><path d="m202.09375 157.039062-6.628906-3.824218v7.652344zm0 0"/><path d="m195.464844 153.214844-6.628906-3.828125v7.652343zm0 0"/><path d="m162.324219 157.039062-6.625-3.824218v7.652344zm0 0"/><path d="m155.699219 160.867188-6.628907-3.828126v7.65625zm0 0"/><path d="m155.699219 176.171875-6.628907-3.824219v7.652344zm0 0"/><path d="m155.699219 199.132812-6.628907-3.828124v7.65625zm0 0"/><path d="m162.324219 202.960938-6.625-3.828126v7.652344zm0 0"/><path d="m182.210938 214.441406-6.628907-3.828125v7.652344zm0 0"/><path d="m188.835938 210.613281-6.625-3.828125v7.65625zm0 0"/><path d="m195.464844 206.785156-6.628906-3.824218v7.652343zm0 0"/><path d="m221.976562 199.132812-6.628906-3.828124v7.65625zm0 0"/><path d="m221.976562 191.480469-6.628906-3.828125v7.652344zm0 0"/><path d="m221.976562 176.171875-6.628906-3.824219v7.652344zm0 0"/><path d="m221.976562 168.519531-6.628906-3.824219v7.652344zm0 0"/><path d="m149.070312 157.039062-6.628906-3.824218v7.652344zm0 0"/><path d="m149.070312 180-6.628906-3.828125v7.65625zm0 0"/><path d="m162.324219 210.613281-6.625-3.828125v7.65625zm0 0"/><path d="m215.347656 202.960938-6.625-3.828126v7.652344zm0 0"/><path d="m228.605469 172.347656-6.628907-3.828125v7.652344zm0 0"/><path d="m215.347656 149.386719-6.625-3.828125v7.65625zm0 0"/><path d="m168.953125 137.90625-6.628906-3.824219v7.652344zm0 0"/><path d="m162.324219 141.734375-6.625-3.828125v7.652344zm0 0"/><path d="m142.441406 206.785156-6.628906-3.824218v7.652343zm0 0"/><path d="m155.699219 214.441406-6.628907-3.828125v7.652344zm0 0"/><path d="m162.324219 218.265625-6.625-3.824219v7.652344zm0 0"/><path d="m188.835938 225.917969-6.625-3.824219v7.652344zm0 0"/><path d="m195.464844 222.09375-6.628906-3.828125v7.652344zm0 0"/><path d="m221.976562 206.785156-6.628906-3.824218v7.652343zm0 0"/><path d="m235.234375 191.480469-6.628906-3.828125v7.652344zm0 0"/><path d="m235.234375 176.171875-6.628906-3.824219v7.652344zm0 0"/><path d="m235.234375 168.519531-6.628906-3.824219v7.652344zm0 0"/><path d="m228.605469 149.386719-6.628907-3.828125v7.65625zm0 0"/><path d="m221.976562 145.558594-6.628906-3.824219v7.652344zm0 0"/><path d="m208.722656 137.90625-6.628906-3.824219v7.652344zm0 0"/><path d="m182.210938 122.601562-6.628907-3.828124v7.652343zm0 0"/><path d="m175.582031 126.425781-6.628906-3.824219v7.652344zm0 0"/><path d="m162.324219 134.082031-6.625-3.828125v7.652344zm0 0"/><path d="m142.441406 145.558594-6.628906-3.824219v7.652344zm0 0"/><path d="m135.8125 157.039062-6.625-3.824218v7.652344zm0 0"/><path d="m135.8125 164.695312-6.625-3.828124v7.652343zm0 0"/><path d="m135.8125 210.613281-6.625-3.828125v7.65625zm0 0"/><path d="m142.441406 214.441406-6.628906-3.828125v7.652344zm0 0"/><path d="m149.070312 218.265625-6.628906-3.824219v7.652344zm0 0"/><path d="m175.582031 233.574219-6.628906-3.828125v7.652344zm0 0"/><path d="m182.210938 237.398438-6.628907-3.824219v7.652343zm0 0"/><path d="m195.464844 229.746094-6.628906-3.828125v7.65625zm0 0"/><path d="m202.09375 225.917969-6.628906-3.824219v7.652344zm0 0"/><path d="m215.347656 218.265625-6.625-3.824219v7.652344zm0 0"/><path d="m221.976562 214.441406-6.628906-3.828125v7.652344zm0 0"/><path d="m241.859375 202.960938-6.625-3.828126v7.652344zm0 0"/><path d="m235.234375 145.558594-6.628906-3.824219v7.652344zm0 0"/><path d="m221.976562 137.90625-6.628906-3.824219v7.652344zm0 0"/><path d="m208.722656 130.253906-6.628906-3.828125v7.65625zm0 0"/><path d="m182.210938 114.945312-6.628907-3.824218v7.652344zm0 0"/><path d="m175.582031 118.773438-6.628906-3.828126v7.65625zm0 0"/><path d="m149.070312 134.082031-6.628906-3.828125v7.652344zm0 0"/><path d="m142.441406 137.90625-6.628906-3.824219v7.652344zm0 0"/><path d="m129.1875 160.867188-6.628906-3.828126v7.65625zm0 0"/><path d="m129.1875 183.828125-6.628906-3.828125v7.652344zm0 0"/><path d="m149.070312 225.917969-6.628906-3.824219v7.652344zm0 0"/><path d="m155.699219 229.746094-6.628907-3.828125v7.65625zm0 0"/><path d="m248.488281 168.519531-6.628906-3.824219v7.652344zm0 0"/><path d="m248.488281 160.867188-6.628906-3.828126v7.65625zm0 0"/><path d="m235.234375 137.90625-6.628906-3.824219v7.652344zm0 0"/><path d="m202.09375 118.773438-6.628906-3.828126v7.65625zm0 0"/><path d="m182.210938 107.292969-6.628907-3.824219v7.652344zm0 0"/><path d="m168.953125 114.945312-6.628906-3.824218v7.652344zm0 0"/><path d="m149.070312 126.425781-6.628906-3.824219v7.652344zm0 0"/><path d="m122.558594 149.386719-6.628906-3.828125v7.65625zm0 0"/><path d="m122.558594 164.695312-6.628906-3.828124v7.652343zm0 0"/><path d="m122.558594 180-6.628906-3.828125v7.65625zm0 0"/><path d="m122.558594 195.304688-6.628906-3.824219v7.652343zm0 0"/><path d="m122.558594 218.265625-6.628906-3.824219v7.652344zm0 0"/><path d="m135.8125 225.917969-6.625-3.824219v7.652344zm0 0"/><path d="m142.441406 229.746094-6.628906-3.828125v7.65625zm0 0"/><path d="m149.070312 233.574219-6.628906-3.828125v7.652344zm0 0"/><path d="m188.835938 248.878906-6.625-3.824218v7.652343zm0 0"/><path d="m228.605469 225.917969-6.628907-3.824219v7.652344zm0 0"/><path d="m255.117188 195.304688-6.628907-3.824219v7.652343zm0 0"/><path d="m255.117188 187.652344-6.628907-3.824219v7.652344zm0 0"/><path d="m255.117188 164.695312-6.628907-3.828124v7.652343zm0 0"/><path d="m255.117188 157.039062-6.628907-3.824218v7.652344zm0 0"/><path d="m235.234375 130.253906-6.628906-3.828125v7.65625zm0 0"/><path d="m221.976562 122.601562-6.628906-3.828124v7.652343zm0 0"/><path d="m202.09375 111.121094-6.628906-3.828125v7.652343zm0 0"/><path d="m142.441406 122.601562-6.628906-3.828124v7.652343zm0 0"/><path d="m115.929688 168.519531-6.628907-3.824219v7.652344zm0 0"/><path d="m115.929688 191.480469-6.628907-3.828125v7.652344zm0 0"/><path d="m115.929688 206.785156-6.628907-3.824218v7.652343zm0 0"/><path d="m115.929688 222.09375-6.628907-3.828125v7.652344zm0 0"/><path d="m122.558594 225.917969-6.628906-3.824219v7.652344zm0 0"/><path d="m135.8125 233.574219-6.625-3.828125v7.652344zm0 0"/><path d="m142.441406 237.398438-6.628906-3.824219v7.652343zm0 0"/><path d="m149.070312 241.226562-6.628906-3.828124v7.65625zm0 0"/><path d="m155.699219 245.054688-6.628907-3.828126v7.652344zm0 0"/><path d="m195.464844 252.707031-6.628906-3.828125v7.652344zm0 0"/><path d="m202.09375 248.878906-6.628906-3.824218v7.652343zm0 0"/><path d="m215.347656 241.226562-6.625-3.828124v7.65625zm0 0"/><path d="m235.234375 229.746094-6.628906-3.828125v7.65625zm0 0"/><path d="m248.488281 222.09375-6.628906-3.828125v7.652344zm0 0"/><path d="m261.746094 214.441406-6.628906-3.828125v7.652344zm0 0"/><path d="m261.746094 206.785156-6.628906-3.824218v7.652343zm0 0"/><path d="m261.746094 176.171875-6.628906-3.824219v7.652344zm0 0"/><path d="m261.746094 160.867188-6.628906-3.828126v7.65625zm0 0"/><path d="m261.746094 153.214844-6.628906-3.828125v7.652343zm0 0"/><path d="m241.859375 126.425781-6.625-3.824219v7.652344zm0 0"/><path d="m235.234375 122.601562-6.628906-3.828124v7.652343zm0 0"/><path d="m228.605469 118.773438-6.628907-3.828126v7.65625zm0 0"/><path d="m208.722656 107.292969-6.628906-3.824219v7.652344zm0 0"/><path d="m202.09375 103.46875-6.628906-3.828125v7.652344zm0 0"/><path d="m195.464844 99.640625-6.628906-3.828125v7.65625zm0 0"/><path d="m188.835938 95.8125-6.625-3.824219v7.652344zm0 0"/><path d="m182.210938 91.988281-6.628907-3.828125v7.652344zm0 0"/><path d="m168.953125 99.640625-6.628906-3.828125v7.65625zm0 0"/><path d="m162.324219 103.46875-6.625-3.828125v7.652344zm0 0"/><path d="m155.699219 107.292969-6.628907-3.824219v7.652344zm0 0"/><path d="m149.070312 111.121094-6.628906-3.828125v7.652343zm0 0"/><path d="m129.1875 122.601562-6.628906-3.828124v7.652343zm0 0"/><path d="m122.558594 126.425781-6.628906-3.824219v7.652344zm0 0"/><path d="m109.300781 172.347656-6.628906-3.828125v7.652344zm0 0"/><path d="m109.300781 180-6.628906-3.828125v7.65625zm0 0"/><path d="m109.300781 225.917969-6.628906-3.824219v7.652344zm0 0"/><path d="m129.1875 237.398438-6.628906-3.824219v7.652343zm0 0"/><path d="m162.324219 256.53125-6.625-3.824219v7.652344zm0 0"/><path d="m168.953125 260.359375-6.628906-3.828125v7.65625zm0 0"/><path d="m175.582031 264.1875-6.628906-3.828125v7.652344zm0 0"/><path d="m182.210938 268.011719-6.628907-3.824219v7.652344zm0 0"/><path d="m215.347656 248.878906-6.625-3.824218v7.652343zm0 0"/><path d="m228.605469 241.226562-6.628907-3.828124v7.65625zm0 0"/><path d="m241.859375 233.574219-6.625-3.828125v7.652344zm0 0"/><path d="m248.488281 229.746094-6.628906-3.828125v7.65625zm0 0"/><path d="m268.371094 210.613281-6.625-3.828125v7.65625zm0 0"/><path d="m268.371094 157.039062-6.625-3.824218v7.652344zm0 0"/><path d="m268.371094 134.082031-6.625-3.828125v7.652344zm0 0"/><path d="m228.605469 111.121094-6.628907-3.828125v7.652343zm0 0"/><path d="m215.347656 103.46875-6.625-3.828125v7.652344zm0 0"/><path d="m195.464844 91.988281-6.628906-3.828125v7.652344zm0 0"/><path d="m168.953125 91.988281-6.628906-3.828125v7.652344zm0 0"/><path d="m135.8125 111.121094-6.625-3.828125v7.652343zm0 0"/><path d="m102.671875 130.253906-6.625-3.828125v7.65625zm0 0"/><path d="m102.671875 168.519531-6.625-3.824219v7.652344zm0 0"/><path d="m102.671875 176.171875-6.625-3.824219v7.652344zm0 0"/><path d="m109.300781 233.574219-6.628906-3.828125v7.652344zm0 0"/><path d="m129.1875 245.054688-6.628906-3.828126v7.652344zm0 0"/><path d="m155.699219 260.359375-6.628907-3.828125v7.65625zm0 0"/><path d="m162.324219 264.1875-6.625-3.828125v7.652344zm0 0"/><path d="m168.953125 268.011719-6.628906-3.824219v7.652344zm0 0"/><path d="m195.464844 268.011719-6.628906-3.824219v7.652344zm0 0"/><path d="m202.09375 264.1875-6.628906-3.828125v7.652344zm0 0"/><path d="m228.605469 248.878906-6.628907-3.824218v7.652343zm0 0"/><path d="m241.859375 241.226562-6.625-3.828124v7.65625zm0 0"/><path d="m261.746094 229.746094-6.628906-3.828125v7.65625zm0 0"/><path d="m275 229.746094-6.628906-3.828125v7.65625zm0 0"/><path d="m275 214.441406-6.628906-3.828125v7.652344zm0 0"/><path d="m275 206.785156-6.628906-3.824218v7.652343zm0 0"/><path d="m275 160.867188-6.628906-3.828126v7.65625zm0 0"/><path d="m275 153.214844-6.628906-3.828125v7.652343zm0 0"/><path d="m275 145.558594-6.628906-3.824219v7.652344zm0 0"/><path d="m275 137.90625-6.628906-3.824219v7.652344zm0 0"/><path d="m268.371094 126.425781-6.625-3.824219v7.652344zm0 0"/><path d="m255.117188 118.773438-6.628907-3.828126v7.65625zm0 0"/><path d="m248.488281 114.945312-6.628906-3.824218v7.652344zm0 0"/><path d="m221.976562 99.640625-6.628906-3.828125v7.65625zm0 0"/><path d="m195.464844 84.332031-6.628906-3.824219v7.652344zm0 0"/><path d="m182.210938 76.679688-6.628907-3.824219v7.652343zm0 0"/><path d="m168.953125 84.332031-6.628906-3.824219v7.652344zm0 0"/><path d="m149.070312 95.8125-6.628906-3.824219v7.652344zm0 0"/><path d="m102.671875 237.398438-6.625-3.824219v7.652343zm0 0"/><path d="m149.070312 264.1875-6.628906-3.828125v7.652344zm0 0"/><path d="m155.699219 268.011719-6.628907-3.824219v7.652344zm0 0"/><path d="m162.324219 271.839844-6.625-3.828125v7.65625zm0 0"/><path d="m175.582031 279.492188-6.628906-3.824219v7.652343zm0 0"/><path d="m195.464844 275.667969-6.628906-3.828125v7.652344zm0 0"/><path d="m202.09375 271.839844-6.628906-3.828125v7.65625zm0 0"/><path d="m208.722656 268.011719-6.628906-3.824219v7.652344zm0 0"/><path d="m228.605469 256.53125-6.628907-3.824219v7.652344zm0 0"/><path d="m235.234375 252.707031-6.628906-3.828125v7.652344zm0 0"/><path d="m248.488281 245.054688-6.628906-3.828126v7.652344zm0 0"/><path d="m268.371094 233.574219-6.625-3.828125v7.652344zm0 0"/><path d="m281.628906 225.917969-6.628906-3.824219v7.652344zm0 0"/><path d="m281.628906 172.347656-6.628906-3.828125v7.652344zm0 0"/><path d="m275 122.601562-6.628906-3.828124v7.652343zm0 0"/><path d="m268.371094 118.773438-6.625-3.828126v7.65625zm0 0"/><path d="m261.746094 114.945312-6.628906-3.824218v7.652344zm0 0"/><path d="m248.488281 107.292969-6.628906-3.824219v7.652344zm0 0"/><path d="m241.859375 103.46875-6.625-3.828125v7.652344zm0 0"/><path d="m228.605469 95.8125-6.628907-3.824219v7.652344zm0 0"/><path d="m221.976562 91.988281-6.628906-3.828125v7.652344zm0 0"/><path d="m155.699219 84.332031-6.628907-3.824219v7.652344zm0 0"/><path d="m149.070312 88.160156-6.628906-3.828125v7.65625zm0 0"/><path d="m142.441406 91.988281-6.628906-3.828125v7.652344zm0 0"/><path d="m135.8125 95.8125-6.625-3.824219v7.652344zm0 0"/><path d="m129.1875 99.640625-6.628906-3.828125v7.65625zm0 0"/><path d="m115.929688 107.292969-6.628907-3.824219v7.652344zm0 0"/><path d="m109.300781 111.121094-6.628906-3.828125v7.652343zm0 0"/><path d="m102.671875 114.945312-6.625-3.824218v7.652344zm0 0"/><path d="m89.417969 137.90625-6.628907-3.824219v7.652344zm0 0"/><path d="m89.417969 168.519531-6.628907-3.824219v7.652344zm0 0"/><path d="m89.417969 176.171875-6.628907-3.824219v7.652344zm0 0"/><path d="m89.417969 183.828125-6.628907-3.828125v7.652344zm0 0"/><path d="m89.417969 191.480469-6.628907-3.828125v7.652344zm0 0"/><path d="m89.417969 199.132812-6.628907-3.828124v7.65625zm0 0"/><path d="m89.417969 206.785156-6.628907-3.824218v7.652343zm0 0"/><path d="m102.671875 245.054688-6.625-3.828126v7.652344zm0 0"/><path d="m109.300781 248.878906-6.628906-3.824218v7.652343zm0 0"/><path d="m195.464844 283.320312-6.628906-3.828124v7.652343zm0 0"/><path d="m208.722656 275.667969-6.628906-3.828125v7.652344zm0 0"/><path d="m215.347656 271.839844-6.625-3.828125v7.65625zm0 0"/><path d="m221.976562 268.011719-6.628906-3.824219v7.652344zm0 0"/><path d="m255.117188 248.878906-6.628907-3.824218v7.652343zm0 0"/><path d="m288.257812 229.746094-6.628906-3.828125v7.65625zm0 0"/><path d="m228.605469 88.160156-6.628907-3.828125v7.65625zm0 0"/><path d="m221.976562 84.332031-6.628906-3.824219v7.652344zm0 0"/><path d="m215.347656 80.507812-6.625-3.828124v7.652343zm0 0"/><path d="m208.722656 76.679688-6.628906-3.824219v7.652343zm0 0"/><path d="m168.953125 69.027344-6.628906-3.828125v7.65625zm0 0"/><path d="m155.699219 76.679688-6.628907-3.824219v7.652343zm0 0"/><path d="m149.070312 80.507812-6.628906-3.828124v7.652343zm0 0"/><path d="m135.8125 88.160156-6.625-3.828125v7.65625zm0 0"/><path d="m129.1875 91.988281-6.628906-3.828125v7.652344zm0 0"/><path d="m122.558594 95.8125-6.628906-3.824219v7.652344zm0 0"/><path d="m115.929688 99.640625-6.628907-3.828125v7.65625zm0 0"/><path d="m109.300781 103.46875-6.628906-3.828125v7.652344zm0 0"/><path d="m89.417969 114.945312-6.628907-3.824218v7.652344zm0 0"/><path d="m82.789062 134.082031-6.628906-3.828125v7.652344zm0 0"/><path d="m82.789062 141.734375-6.628906-3.828125v7.652344zm0 0"/><path d="m82.789062 149.386719-6.628906-3.828125v7.65625zm0 0"/><path d="m82.789062 164.695312-6.628906-3.828124v7.652343zm0 0"/><path d="m82.789062 180-6.628906-3.828125v7.65625zm0 0"/><path d="m82.789062 210.613281-6.628906-3.828125v7.65625zm0 0"/><path d="m96.046875 248.878906-6.628906-3.824218v7.652343zm0 0"/><path d="m162.324219 287.144531-6.625-3.824219v7.652344zm0 0"/><path d="m175.582031 294.800781-6.628906-3.828125v7.652344zm0 0"/><path d="m182.210938 298.625-6.628907-3.824219v7.652344zm0 0"/><path d="m195.464844 290.972656-6.628906-3.828125v7.65625zm0 0"/><path d="m202.09375 287.144531-6.628906-3.824219v7.652344zm0 0"/><path d="m208.722656 283.320312-6.628906-3.828124v7.652343zm0 0"/><path d="m215.347656 279.492188-6.625-3.824219v7.652343zm0 0"/><path d="m221.976562 275.667969-6.628906-3.828125v7.652344zm0 0"/><path d="m294.882812 241.226562-6.625-3.828124v7.65625zm0 0"/><path d="m294.882812 210.613281-6.625-3.828125v7.65625zm0 0"/><path d="m294.882812 202.960938-6.625-3.828126v7.652344zm0 0"/><path d="m294.882812 195.304688-6.625-3.824219v7.652343zm0 0"/><path d="m294.882812 180-6.625-3.828125v7.65625zm0 0"/><path d="m294.882812 149.386719-6.625-3.828125v7.65625zm0 0"/><path d="m288.257812 114.945312-6.628906-3.824218v7.652344zm0 0"/><path d="m202.09375 65.199219-6.628906-3.824219v7.652344zm0 0"/><path d="m188.835938 57.546875-6.625-3.828125v7.65625zm0 0"/><path d="m175.582031 57.546875-6.628906-3.828125v7.65625zm0 0"/><path d="m162.324219 65.199219-6.625-3.824219v7.652344zm0 0"/><path d="m155.699219 69.027344-6.628907-3.828125v7.65625zm0 0"/><path d="m149.070312 72.855469-6.628906-3.828125v7.652344zm0 0"/><path d="m142.441406 76.679688-6.628906-3.824219v7.652343zm0 0"/><path d="m135.8125 80.507812-6.625-3.828124v7.652343zm0 0"/><path d="m129.1875 84.332031-6.628906-3.824219v7.652344zm0 0"/><path d="m122.558594 88.160156-6.628906-3.828125v7.65625zm0 0"/><path d="m115.929688 91.988281-6.628907-3.828125v7.652344zm0 0"/><path d="m109.300781 95.8125-6.628906-3.824219v7.652344zm0 0"/><path d="m102.671875 99.640625-6.625-3.828125v7.65625zm0 0"/><path d="m96.046875 103.46875-6.628906-3.828125v7.652344zm0 0"/><path d="m89.417969 107.292969-6.628907-3.824219v7.652344zm0 0"/><path d="m82.789062 111.121094-6.628906-3.828125v7.652343zm0 0"/><path d="m76.160156 122.601562-6.625-3.828124v7.652343zm0 0"/><path d="m115.929688 268.011719-6.628907-3.824219v7.652344zm0 0"/><path d="m122.558594 271.839844-6.628906-3.828125v7.65625zm0 0"/><path d="m129.1875 275.667969-6.628906-3.828125v7.652344zm0 0"/><path d="m135.8125 279.492188-6.625-3.824219v7.652343zm0 0"/><path d="m142.441406 283.320312-6.628906-3.828124v7.652343zm0 0"/><path d="m149.070312 287.144531-6.628906-3.824219v7.652344zm0 0"/><path d="m155.699219 290.972656-6.628907-3.828125v7.65625zm0 0"/><path d="m162.324219 294.800781-6.625-3.828125v7.652344zm0 0"/><path d="m168.953125 298.625-6.628906-3.824219v7.652344zm0 0"/><path d="m175.582031 302.453125-6.628906-3.828125v7.65625zm0 0"/><path d="m188.835938 302.453125-6.625-3.828125v7.65625zm0 0"/><path d="m202.09375 294.800781-6.628906-3.828125v7.652344zm0 0"/><path d="m215.347656 287.144531-6.625-3.824219v7.652344zm0 0"/><path d="m301.511719 222.09375-6.628907-3.828125v7.652344zm0 0"/><path d="m301.511719 176.171875-6.628907-3.824219v7.652344zm0 0"/><path d="m301.511719 114.945312-6.628907-3.824218v7.652344zm0 0"/><path d="m294.882812 111.121094-6.625-3.828125v7.652343zm0 0"/><path d="m288.257812 107.292969-6.628906-3.824219v7.652344zm0 0"/><path d="m281.628906 103.46875-6.628906-3.828125v7.652344zm0 0"/><path d="m275 99.640625-6.628906-3.828125v7.65625zm0 0"/><path d="m268.371094 95.8125-6.625-3.824219v7.652344zm0 0"/><path d="m261.746094 91.988281-6.628906-3.828125v7.652344zm0 0"/><path d="m255.117188 88.160156-6.628907-3.828125v7.65625zm0 0"/><path d="m248.488281 84.332031-6.628906-3.824219v7.652344zm0 0"/><path d="m241.859375 80.507812-6.625-3.828124v7.652343zm0 0"/><path d="m235.234375 76.679688-6.628906-3.824219v7.652343zm0 0"/><path d="m228.605469 72.855469-6.628907-3.828125v7.652344zm0 0"/><path d="m221.976562 69.027344-6.628906-3.828125v7.65625zm0 0"/><path d="m215.347656 65.199219-6.625-3.824219v7.652344zm0 0"/><path d="m208.722656 61.375-6.628906-3.828125v7.652344zm0 0"/><path d="m202.09375 57.546875-6.628906-3.828125v7.65625zm0 0"/><path d="m195.464844 53.71875-6.628906-3.824219v7.652344zm0 0"/><path d="m82.789062 256.53125-6.628906-3.824219v7.652344zm0 0"/><path d="m89.417969 260.359375-6.628907-3.828125v7.65625zm0 0"/><path d="m195.464844 306.28125-6.628906-3.828125v7.652344zm0 0"/><path d="m215.347656 294.800781-6.625-3.828125v7.652344zm0 0"/><path d="m308.140625 233.574219-6.628906-3.828125v7.652344zm0 0"/><path d="m308.140625 225.917969-6.628906-3.824219v7.652344zm0 0"/><path d="m308.140625 218.265625-6.628906-3.824219v7.652344zm0 0"/><path d="m308.140625 210.613281-6.628906-3.828125v7.65625zm0 0"/><path d="m308.140625 202.960938-6.628906-3.828126v7.652344zm0 0"/><path d="m308.140625 195.304688-6.628906-3.824219v7.652343zm0 0"/><path d="m308.140625 187.652344-6.628906-3.824219v7.652344zm0 0"/><path d="m308.140625 180-6.628906-3.828125v7.65625zm0 0"/><path d="m308.140625 172.347656-6.628906-3.828125v7.652344zm0 0"/><path d="m308.140625 164.695312-6.628906-3.828124v7.652343zm0 0"/><path d="m308.140625 157.039062-6.628906-3.824218v7.652344zm0 0"/><path d="m308.140625 149.386719-6.628906-3.828125v7.65625zm0 0"/><path d="m308.140625 141.734375-6.628906-3.828125v7.652344zm0 0"/><path d="m308.140625 134.082031-6.628906-3.828125v7.652344zm0 0"/><path d="m308.140625 111.121094-6.628906-3.828125v7.652343zm0 0"/><path d="m202.09375 49.894531-6.628906-3.828125v7.652344zm0 0"/><path d="m168.953125 46.066406-6.628906-3.824218v7.652343zm0 0"/><path d="m162.324219 49.894531-6.625-3.828125v7.652344zm0 0"/><path d="m155.699219 53.71875-6.628907-3.824219v7.652344zm0 0"/><path d="m149.070312 57.546875-6.628906-3.828125v7.65625zm0 0"/><path d="m142.441406 61.375-6.628906-3.828125v7.652344zm0 0"/><path d="m135.8125 65.199219-6.625-3.824219v7.652344zm0 0"/><path d="m129.1875 69.027344-6.628906-3.828125v7.65625zm0 0"/><path d="m122.558594 72.855469-6.628906-3.828125v7.652344zm0 0"/><path d="m115.929688 76.679688-6.628907-3.824219v7.652343zm0 0"/><path d="m109.300781 80.507812-6.628906-3.828124v7.652343zm0 0"/><path d="m102.671875 84.332031-6.625-3.824219v7.652344zm0 0"/><path d="m96.046875 88.160156-6.628906-3.828125v7.65625zm0 0"/><path d="m89.417969 91.988281-6.628907-3.828125v7.652344zm0 0"/><path d="m82.789062 95.8125-6.628906-3.824219v7.652344zm0 0"/><path d="m76.160156 99.640625-6.625-3.828125v7.65625zm0 0"/><path d="m69.535156 103.46875-6.628906-3.828125v7.652344zm0 0"/><path d="m62.90625 122.601562-6.628906-3.828124v7.652343zm0 0"/><path d="m82.789062 264.1875-6.628906-3.828125v7.652344zm0 0"/><path d="m89.417969 268.011719-6.628907-3.824219v7.652344zm0 0"/><path d="m96.046875 271.839844-6.628906-3.828125v7.65625zm0 0"/><path d="m102.671875 275.667969-6.625-3.828125v7.652344zm0 0"/><path d="m109.300781 279.492188-6.628906-3.824219v7.652343zm0 0"/><path d="m115.929688 283.320312-6.628907-3.828124v7.652343zm0 0"/><path d="m122.558594 287.144531-6.628906-3.824219v7.652344zm0 0"/><path d="m129.1875 290.972656-6.628906-3.828125v7.65625zm0 0"/><path d="m135.8125 294.800781-6.625-3.828125v7.652344zm0 0"/><path d="m142.441406 298.625-6.628906-3.824219v7.652344zm0 0"/><path d="m149.070312 302.453125-6.628906-3.828125v7.65625zm0 0"/><path d="m155.699219 306.28125-6.628907-3.828125v7.652344zm0 0"/><path d="m162.324219 310.105469-6.625-3.824219v7.652344zm0 0"/><path d="m168.953125 313.933594-6.628906-3.828125v7.652343zm0 0"/><path d="m175.582031 317.757812-6.628906-3.824218v7.652344zm0 0"/><path d="m182.210938 321.585938-6.628907-3.828126v7.65625zm0 0"/><path d="m202.09375 310.105469-6.628906-3.824219v7.652344zm0 0"/></g></svg>