<svg height="360pt" viewBox="0 0 360 360" width="360pt" xmlns="http://www.w3.org/2000/svg"><path d="m0 0h360v360h-360z" fill="#800080"/><g fill="#fff"><path d="m182.121094 183.671875 6.355468-3.671875v7.339844zm0 0"/><path d="m169.402344 176.328125 6.359375-3.667969v7.339844zm0 0"/><path d="m188.476562 180 6.359376-3.671875v7.34375zm0 0"/><path d="m182.121094 168.988281 6.355468-3.671875v7.34375zm0 0"/><path d="m175.761719 165.316406 6.359375-3.671875v7.34375zm0 0"/><path d="m169.402344 168.988281 6.359375-3.671875v7.34375zm0 0"/><path d="m163.046875 172.660156 6.355469-3.671875v7.339844zm0 0"/><path d="m163.046875 187.339844 6.355469-3.667969v7.339844zm0 0"/><path d="m169.402344 191.011719 6.359375-3.671875v7.34375zm0 0"/><path d="m175.761719 194.683594 6.359375-3.671875v7.34375zm0 0"/><path d="m194.835938 191.011719 6.355468-3.671875v7.34375zm0 0"/><path d="m182.121094 161.644531 6.355468-3.667969v7.339844zm0 0"/><path d="m169.402344 161.644531 6.359375-3.667969v7.339844zm0 0"/><path d="m156.6875 168.988281 6.359375-3.671875v7.34375zm0 0"/><path d="m163.046875 194.683594 6.355469-3.671875v7.34375zm0 0"/><path d="m188.476562 194.683594 6.359376-3.671875v7.34375zm0 0"/><path d="m201.191406 187.339844 6.359375-3.667969v7.339844zm0 0"/><path d="m201.191406 172.660156 6.359375-3.671875v7.339844zm0 0"/><path d="m201.191406 165.316406 6.359375-3.671875v7.34375zm0 0"/><path d="m194.835938 161.644531 6.355468-3.667969v7.339844zm0 0"/><path d="m188.476562 157.976562 6.359376-3.671874v7.339843zm0 0"/><path d="m169.402344 154.304688 6.359375-3.671876v7.34375zm0 0"/><path d="m163.046875 157.976562 6.355469-3.671874v7.339843zm0 0"/><path d="m156.6875 161.644531 6.359375-3.667969v7.339844zm0 0"/><path d="m150.328125 172.660156 6.359375-3.671875v7.339844zm0 0"/><path d="m150.328125 180 6.359375-3.671875v7.34375zm0 0"/><path d="m150.328125 187.339844 6.359375-3.667969v7.339844zm0 0"/><path d="m150.328125 194.683594 6.359375-3.671875v7.34375zm0 0"/><path d="m156.6875 198.355469 6.359375-3.671875v7.339844zm0 0"/><path d="m188.476562 202.023438 6.359376-3.667969v7.339843zm0 0"/><path d="m207.550781 198.355469 6.359375-3.671875v7.339844zm0 0"/><path d="m207.550781 191.011719 6.359375-3.671875v7.34375zm0 0"/><path d="m207.550781 176.328125 6.359375-3.667969v7.339844zm0 0"/><path d="m201.191406 157.976562 6.359375-3.671874v7.339843zm0 0"/><path d="m188.476562 150.632812 6.359376-3.667968v7.339844zm0 0"/><path d="m175.761719 143.292969 6.359375-3.671875v7.34375zm0 0"/><path d="m163.046875 150.632812 6.355469-3.667968v7.339844zm0 0"/><path d="m156.6875 154.304688 6.359375-3.671876v7.34375zm0 0"/><path d="m143.972656 161.644531 6.355469-3.667969v7.339844zm0 0"/><path d="m143.972656 183.671875 6.355469-3.671875v7.339844zm0 0"/><path d="m150.328125 202.023438 6.359375-3.667969v7.339843zm0 0"/><path d="m156.6875 205.695312 6.359375-3.671874v7.34375zm0 0"/><path d="m163.046875 209.367188 6.355469-3.671876v7.339844zm0 0"/><path d="m194.835938 205.695312 6.355468-3.671874v7.34375zm0 0"/><path d="m213.910156 187.339844 6.355469-3.667969v7.339844zm0 0"/><path d="m201.191406 150.632812 6.359375-3.667968v7.339844zm0 0"/><path d="m194.835938 146.964844 6.355468-3.671875v7.339843zm0 0"/><path d="m156.6875 146.964844 6.359375-3.671875v7.339843zm0 0"/><path d="m137.613281 172.660156 6.359375-3.671875v7.339844zm0 0"/><path d="m137.613281 194.683594 6.359375-3.671875v7.34375zm0 0"/><path d="m163.046875 216.707031 6.355469-3.671875v7.34375zm0 0"/><path d="m169.402344 220.378906 6.359375-3.671875v7.339844zm0 0"/><path d="m188.476562 216.707031 6.359376-3.671875v7.34375zm0 0"/><path d="m201.191406 209.367188 6.359375-3.671876v7.339844zm0 0"/><path d="m220.265625 205.695312 6.359375-3.671874v7.34375zm0 0"/><path d="m220.265625 191.011719 6.359375-3.671875v7.34375zm0 0"/><path d="m220.265625 183.671875 6.359375-3.671875v7.339844zm0 0"/><path d="m220.265625 176.328125 6.359375-3.667969v7.339844zm0 0"/><path d="m220.265625 161.644531 6.359375-3.667969v7.339844zm0 0"/><path d="m194.835938 139.621094 6.355468-3.667969v7.339844zm0 0"/><path d="m182.121094 132.28125 6.355468-3.671875v7.34375zm0 0"/><path d="m156.6875 139.621094 6.359375-3.667969v7.339844zm0 0"/><path d="m150.328125 143.292969 6.359375-3.671875v7.34375zm0 0"/><path d="m131.257812 154.304688 6.355469-3.671876v7.34375zm0 0"/><path d="m137.613281 209.367188 6.359375-3.671876v7.339844zm0 0"/><path d="m143.972656 213.035156 6.355469-3.667968v7.339843zm0 0"/><path d="m156.6875 220.378906 6.359375-3.671875v7.339844zm0 0"/><path d="m169.402344 227.71875 6.359375-3.671875v7.34375zm0 0"/><path d="m175.761719 231.390625 6.359375-3.671875v7.34375zm0 0"/><path d="m207.550781 213.035156 6.359375-3.667968v7.339843zm0 0"/><path d="m213.910156 209.367188 6.355469-3.671876v7.339844zm0 0"/><path d="m226.625 172.660156 6.359375-3.671875v7.339844zm0 0"/><path d="m226.625 157.976562 6.359375-3.671874v7.339843zm0 0"/><path d="m201.191406 135.953125 6.359375-3.671875v7.339844zm0 0"/><path d="m188.476562 128.609375 6.359376-3.671875v7.34375zm0 0"/><path d="m182.121094 124.9375 6.355468-3.667969v7.339844zm0 0"/><path d="m150.328125 135.953125 6.359375-3.671875v7.339844zm0 0"/><path d="m124.898438 150.632812 6.359374-3.667968v7.339844zm0 0"/><path d="m124.898438 157.976562 6.359374-3.671874v7.339843zm0 0"/><path d="m124.898438 172.660156 6.359374-3.671875v7.339844zm0 0"/><path d="m124.898438 202.023438 6.359374-3.667969v7.339843zm0 0"/><path d="m131.257812 213.035156 6.355469-3.667968v7.339843zm0 0"/><path d="m182.121094 235.0625 6.355468-3.671875v7.339844zm0 0"/><path d="m220.265625 213.035156 6.359375-3.667968v7.339843zm0 0"/><path d="m232.984375 198.355469 6.355469-3.671875v7.339844zm0 0"/><path d="m232.984375 191.011719 6.355469-3.671875v7.34375zm0 0"/><path d="m232.984375 176.328125 6.355469-3.667969v7.339844zm0 0"/><path d="m232.984375 146.964844 6.355469-3.671875v7.339843zm0 0"/><path d="m226.625 143.292969 6.359375-3.671875v7.34375zm0 0"/><path d="m220.265625 139.621094 6.359375-3.667969v7.339844zm0 0"/><path d="m213.910156 135.953125 6.355469-3.671875v7.339844zm0 0"/><path d="m207.550781 132.28125 6.359375-3.671875v7.34375zm0 0"/><path d="m169.402344 117.597656 6.359375-3.671875v7.34375zm0 0"/><path d="m118.539062 191.011719 6.359376-3.671875v7.34375zm0 0"/><path d="m118.539062 198.355469 6.359376-3.671875v7.339844zm0 0"/><path d="m131.257812 220.378906 6.355469-3.671875v7.339844zm0 0"/><path d="m169.402344 242.402344 6.359375-3.671875v7.34375zm0 0"/><path d="m175.761719 246.074219 6.359375-3.671875v7.339844zm0 0"/><path d="m182.121094 242.402344 6.355468-3.671875v7.34375zm0 0"/><path d="m226.625 216.707031 6.359375-3.671875v7.34375zm0 0"/><path d="m239.339844 216.707031 6.359375-3.671875v7.34375zm0 0"/><path d="m239.339844 180 6.359375-3.671875v7.34375zm0 0"/><path d="m239.339844 150.632812 6.359375-3.667968v7.339844zm0 0"/><path d="m232.984375 139.621094 6.355469-3.667969v7.339844zm0 0"/><path d="m226.625 135.953125 6.359375-3.671875v7.339844zm0 0"/><path d="m220.265625 132.28125 6.359375-3.671875v7.34375zm0 0"/><path d="m213.910156 128.609375 6.355469-3.671875v7.34375zm0 0"/><path d="m207.550781 124.9375 6.359375-3.667969v7.339844zm0 0"/><path d="m201.191406 121.269531 6.359375-3.671875v7.339844zm0 0"/><path d="m194.835938 117.597656 6.355468-3.671875v7.34375zm0 0"/><path d="m163.046875 113.925781 6.355469-3.667969v7.339844zm0 0"/><path d="m150.328125 121.269531 6.359375-3.671875v7.339844zm0 0"/><path d="m143.972656 124.9375 6.355469-3.667969v7.339844zm0 0"/><path d="m124.898438 135.953125 6.359374-3.671875v7.339844zm0 0"/><path d="m118.539062 139.621094 6.359376-3.667969v7.339844zm0 0"/><path d="m112.183594 143.292969 6.355468-3.671875v7.34375zm0 0"/><path d="m112.183594 150.632812 6.355468-3.667968v7.339844zm0 0"/><path d="m112.183594 157.976562 6.355468-3.671874v7.339843zm0 0"/><path d="m112.183594 187.339844 6.355468-3.667969v7.339844zm0 0"/><path d="m112.183594 194.683594 6.355468-3.671875v7.34375zm0 0"/><path d="m150.328125 238.730469 6.359375-3.667969v7.339844zm0 0"/><path d="m156.6875 242.402344 6.359375-3.671875v7.34375zm0 0"/><path d="m163.046875 246.074219 6.355469-3.671875v7.339844zm0 0"/><path d="m188.476562 246.074219 6.359376-3.671875v7.339844zm0 0"/><path d="m194.835938 242.402344 6.355468-3.671875v7.34375zm0 0"/><path d="m207.550781 235.0625 6.359375-3.671875v7.339844zm0 0"/><path d="m245.699219 198.355469 6.355469-3.671875v7.339844zm0 0"/><path d="m245.699219 176.328125 6.355469-3.667969v7.339844zm0 0"/><path d="m245.699219 168.988281 6.355469-3.671875v7.34375zm0 0"/><path d="m245.699219 146.964844 6.355469-3.671875v7.339843zm0 0"/><path d="m245.699219 139.621094 6.355469-3.667969v7.339844zm0 0"/><path d="m207.550781 117.597656 6.359375-3.671875v7.34375zm0 0"/><path d="m194.835938 110.257812 6.355468-3.671874v7.339843zm0 0"/><path d="m188.476562 106.585938 6.359376-3.671876v7.34375zm0 0"/><path d="m156.6875 110.257812 6.359375-3.671874v7.339843zm0 0"/><path d="m150.328125 113.925781 6.359375-3.667969v7.339844zm0 0"/><path d="m137.613281 121.269531 6.359375-3.671875v7.339844zm0 0"/><path d="m105.824219 146.964844 6.359375-3.671875v7.339843zm0 0"/><path d="m105.824219 176.328125 6.359375-3.667969v7.339844zm0 0"/><path d="m105.824219 205.695312 6.359375-3.671874v7.34375zm0 0"/><path d="m105.824219 213.035156 6.359375-3.667968v7.339843zm0 0"/><path d="m105.824219 220.378906 6.359375-3.671875v7.339844zm0 0"/><path d="m112.183594 224.046875 6.355468-3.667969v7.339844zm0 0"/><path d="m163.046875 253.414062 6.355469-3.671874v7.34375zm0 0"/><path d="m175.761719 260.757812 6.359375-3.671874v7.339843zm0 0"/><path d="m188.476562 253.414062 6.359376-3.671874v7.34375zm0 0"/><path d="m194.835938 249.742188 6.355468-3.667969v7.339843zm0 0"/><path d="m213.910156 238.730469 6.355469-3.667969v7.339844zm0 0"/><path d="m252.054688 202.023438 6.359374-3.667969v7.339843zm0 0"/><path d="m252.054688 172.660156 6.359374-3.671875v7.339844zm0 0"/><path d="m252.054688 157.976562 6.359374-3.671874v7.339843zm0 0"/><path d="m252.054688 150.632812 6.359374-3.667968v7.339844zm0 0"/><path d="m239.339844 128.609375 6.359375-3.671875v7.34375zm0 0"/><path d="m226.625 121.269531 6.359375-3.671875v7.339844zm0 0"/><path d="m220.265625 117.597656 6.359375-3.671875v7.34375zm0 0"/><path d="m188.476562 99.242188 6.359376-3.667969v7.339843zm0 0"/><path d="m175.761719 91.902344 6.359375-3.671875v7.34375zm0 0"/><path d="m156.6875 102.914062 6.359375-3.671874v7.34375zm0 0"/><path d="m150.328125 106.585938 6.359375-3.671876v7.34375zm0 0"/><path d="m143.972656 110.257812 6.355469-3.671874v7.339843zm0 0"/><path d="m131.257812 117.597656 6.355469-3.671875v7.34375zm0 0"/><path d="m124.898438 121.269531 6.359374-3.671875v7.339844zm0 0"/><path d="m118.539062 124.9375 6.359376-3.667969v7.339844zm0 0"/><path d="m105.824219 132.28125 6.359375-3.671875v7.34375zm0 0"/><path d="m99.464844 143.292969 6.359375-3.671875v7.34375zm0 0"/><path d="m99.464844 157.976562 6.359375-3.671874v7.339843zm0 0"/><path d="m99.464844 165.316406 6.359375-3.671875v7.34375zm0 0"/><path d="m99.464844 172.660156 6.359375-3.671875v7.339844zm0 0"/><path d="m99.464844 180 6.359375-3.671875v7.34375zm0 0"/><path d="m99.464844 216.707031 6.359375-3.671875v7.34375zm0 0"/><path d="m105.824219 227.71875 6.359375-3.671875v7.34375zm0 0"/><path d="m112.183594 231.390625 6.355468-3.671875v7.34375zm0 0"/><path d="m124.898438 238.730469 6.359374-3.667969v7.339844zm0 0"/><path d="m143.972656 249.742188 6.355469-3.667969v7.339843zm0 0"/><path d="m150.328125 253.414062 6.359375-3.671874v7.34375zm0 0"/><path d="m163.046875 260.757812 6.355469-3.671874v7.339843zm0 0"/><path d="m169.402344 264.425781 6.359375-3.667969v7.339844zm0 0"/><path d="m182.121094 264.425781 6.355468-3.667969v7.339844zm0 0"/><path d="m201.191406 253.414062 6.359375-3.671874v7.34375zm0 0"/><path d="m207.550781 249.742188 6.359375-3.667969v7.339843zm0 0"/><path d="m213.910156 246.074219 6.355469-3.671875v7.339844zm0 0"/><path d="m232.984375 235.0625 6.355469-3.671875v7.339844zm0 0"/><path d="m245.699219 227.71875 6.355469-3.671875v7.34375zm0 0"/><path d="m258.414062 227.71875 6.359376-3.671875v7.34375zm0 0"/><path d="m258.414062 183.671875 6.359376-3.671875v7.339844zm0 0"/><path d="m258.414062 161.644531 6.359376-3.667969v7.339844zm0 0"/><path d="m258.414062 154.304688 6.359376-3.671876v7.34375zm0 0"/><path d="m258.414062 132.28125 6.359376-3.671875v7.34375zm0 0"/><path d="m239.339844 121.269531 6.359375-3.671875v7.339844zm0 0"/><path d="m220.265625 110.257812 6.359375-3.671874v7.339843zm0 0"/><path d="m188.476562 91.902344 6.359376-3.671875v7.34375zm0 0"/><path d="m169.402344 88.230469 6.359375-3.667969v7.339844zm0 0"/><path d="m163.046875 91.902344 6.355469-3.671875v7.34375zm0 0"/><path d="m156.6875 95.574219 6.359375-3.671875v7.339844zm0 0"/><path d="m137.613281 106.585938 6.359375-3.671876v7.34375zm0 0"/><path d="m118.539062 117.597656 6.359376-3.671875v7.34375zm0 0"/><path d="m112.183594 121.269531 6.355468-3.671875v7.339844zm0 0"/><path d="m105.824219 124.9375 6.359375-3.667969v7.339844zm0 0"/><path d="m99.464844 128.609375 6.359375-3.671875v7.34375zm0 0"/><path d="m93.109375 139.621094 6.355469-3.667969v7.339844zm0 0"/><path d="m93.109375 154.304688 6.355469-3.671876v7.34375zm0 0"/><path d="m93.109375 161.644531 6.355469-3.667969v7.339844zm0 0"/><path d="m93.109375 168.988281 6.355469-3.671875v7.34375zm0 0"/><path d="m93.109375 183.671875 6.355469-3.671875v7.339844zm0 0"/><path d="m99.464844 231.390625 6.359375-3.671875v7.34375zm0 0"/><path d="m105.824219 235.0625 6.359375-3.671875v7.339844zm0 0"/><path d="m118.539062 242.402344 6.359376-3.671875v7.34375zm0 0"/><path d="m150.328125 260.757812 6.359375-3.671874v7.339843zm0 0"/><path d="m163.046875 268.097656 6.355469-3.671875v7.34375zm0 0"/><path d="m182.121094 271.769531 6.355468-3.671875v7.339844zm0 0"/><path d="m188.476562 268.097656 6.359376-3.671875v7.34375zm0 0"/><path d="m194.835938 264.425781 6.355468-3.667969v7.339844zm0 0"/><path d="m201.191406 260.757812 6.359375-3.671874v7.339843zm0 0"/><path d="m245.699219 235.0625 6.355469-3.671875v7.339844zm0 0"/><path d="m264.773438 209.367188 6.355468-3.671876v7.339844zm0 0"/><path d="m264.773438 202.023438 6.355468-3.667969v7.339843zm0 0"/><path d="m264.773438 194.683594 6.355468-3.671875v7.34375zm0 0"/><path d="m264.773438 157.976562 6.355468-3.671874v7.339843zm0 0"/><path d="m264.773438 150.632812 6.355468-3.667968v7.339844zm0 0"/><path d="m264.773438 128.609375 6.355468-3.671875v7.34375zm0 0"/><path d="m213.910156 99.242188 6.355469-3.667969v7.339843zm0 0"/><path d="m118.539062 110.257812 6.359376-3.671874v7.339843zm0 0"/><path d="m86.75 128.609375 6.359375-3.671875v7.34375zm0 0"/><path d="m86.75 143.292969 6.359375-3.671875v7.34375zm0 0"/><path d="m86.75 150.632812 6.359375-3.667968v7.339844zm0 0"/><path d="m86.75 157.976562 6.359375-3.671874v7.339843zm0 0"/><path d="m86.75 194.683594 6.359375-3.671875v7.34375zm0 0"/><path d="m86.75 231.390625 6.359375-3.671875v7.34375zm0 0"/><path d="m99.464844 238.730469 6.359375-3.667969v7.339844zm0 0"/><path d="m118.539062 249.742188 6.359376-3.667969v7.339843zm0 0"/><path d="m124.898438 253.414062 6.359374-3.671874v7.34375zm0 0"/><path d="m131.257812 257.085938 6.355469-3.671876v7.34375zm0 0"/><path d="m137.613281 260.757812 6.359375-3.671874v7.339843zm0 0"/><path d="m175.761719 282.78125 6.359375-3.671875v7.339844zm0 0"/><path d="m188.476562 275.4375 6.359376-3.667969v7.339844zm0 0"/><path d="m201.191406 268.097656 6.359375-3.671875v7.34375zm0 0"/><path d="m207.550781 264.425781 6.359375-3.667969v7.339844zm0 0"/><path d="m213.910156 260.757812 6.355469-3.671874v7.339843zm0 0"/><path d="m220.265625 257.085938 6.359375-3.671876v7.34375zm0 0"/><path d="m226.625 253.414062 6.359375-3.671874v7.34375zm0 0"/><path d="m245.699219 242.402344 6.355469-3.671875v7.34375zm0 0"/><path d="m258.414062 235.0625 6.359376-3.671875v7.339844zm0 0"/><path d="m271.128906 227.71875 6.359375-3.671875v7.34375zm0 0"/><path d="m271.128906 220.378906 6.359375-3.671875v7.339844zm0 0"/><path d="m271.128906 213.035156 6.359375-3.667968v7.339843zm0 0"/><path d="m271.128906 205.695312 6.359375-3.671874v7.34375zm0 0"/><path d="m271.128906 198.355469 6.359375-3.671875v7.339844zm0 0"/><path d="m271.128906 191.011719 6.359375-3.671875v7.34375zm0 0"/><path d="m271.128906 176.328125 6.359375-3.667969v7.339844zm0 0"/><path d="m271.128906 168.988281 6.359375-3.671875v7.34375zm0 0"/><path d="m271.128906 146.964844 6.359375-3.671875v7.339843zm0 0"/><path d="m271.128906 139.621094 6.359375-3.667969v7.339844zm0 0"/><path d="m271.128906 132.28125 6.359375-3.671875v7.34375zm0 0"/><path d="m271.128906 124.9375 6.359375-3.667969v7.339844zm0 0"/><path d="m264.773438 121.269531 6.355468-3.671875v7.339844zm0 0"/><path d="m258.414062 117.597656 6.359376-3.671875v7.34375zm0 0"/><path d="m252.054688 113.925781 6.359374-3.667969v7.339844zm0 0"/><path d="m226.625 99.242188 6.359375-3.667969v7.339843zm0 0"/><path d="m220.265625 95.574219 6.359375-3.671875v7.339844zm0 0"/><path d="m213.910156 91.902344 6.355469-3.671875v7.34375zm0 0"/><path d="m175.761719 69.878906 6.359375-3.671875v7.34375zm0 0"/><path d="m169.402344 73.550781 6.359375-3.671875v7.339844zm0 0"/><path d="m163.046875 77.21875 6.355469-3.667969v7.339844zm0 0"/><path d="m143.972656 88.230469 6.355469-3.667969v7.339844zm0 0"/><path d="m131.257812 95.574219 6.355469-3.671875v7.339844zm0 0"/><path d="m105.824219 110.257812 6.359375-3.671874v7.339843zm0 0"/><path d="m80.394531 124.9375 6.355469-3.667969v7.339844zm0 0"/><path d="m80.394531 132.28125 6.355469-3.671875v7.34375zm0 0"/><path d="m80.394531 146.964844 6.355469-3.671875v7.339843zm0 0"/><path d="m80.394531 154.304688 6.355469-3.671876v7.34375zm0 0"/><path d="m80.394531 227.71875 6.355469-3.671875v7.34375zm0 0"/><path d="m80.394531 235.0625 6.355469-3.671875v7.339844zm0 0"/><path d="m93.109375 242.402344 6.355469-3.671875v7.34375zm0 0"/><path d="m118.539062 257.085938 6.359376-3.671876v7.34375zm0 0"/><path d="m137.613281 268.097656 6.359375-3.671875v7.34375zm0 0"/><path d="m143.972656 271.769531 6.355469-3.671875v7.339844zm0 0"/><path d="m169.402344 286.449219 6.359375-3.667969v7.339844zm0 0"/><path d="m182.121094 286.449219 6.355468-3.667969v7.339844zm0 0"/><path d="m239.339844 253.414062 6.359375-3.671874v7.34375zm0 0"/><path d="m245.699219 249.742188 6.355469-3.667969v7.339843zm0 0"/><path d="m264.773438 238.730469 6.355468-3.667969v7.339844zm0 0"/><path d="m277.488281 231.390625 6.355469-3.671875v7.34375zm0 0"/><path d="m277.488281 224.046875 6.355469-3.667969v7.339844zm0 0"/><path d="m277.488281 216.707031 6.355469-3.671875v7.34375zm0 0"/><path d="m277.488281 209.367188 6.355469-3.671876v7.339844zm0 0"/><path d="m277.488281 202.023438 6.355469-3.667969v7.339843zm0 0"/><path d="m277.488281 194.683594 6.355469-3.671875v7.34375zm0 0"/><path d="m277.488281 187.339844 6.355469-3.667969v7.339844zm0 0"/><path d="m277.488281 180 6.355469-3.671875v7.34375zm0 0"/><path d="m277.488281 172.660156 6.355469-3.671875v7.339844zm0 0"/><path d="m277.488281 165.316406 6.355469-3.671875v7.34375zm0 0"/><path d="m277.488281 157.976562 6.355469-3.671874v7.339843zm0 0"/><path d="m277.488281 150.632812 6.355469-3.667968v7.339844zm0 0"/><path d="m271.128906 117.597656 6.359375-3.671875v7.34375zm0 0"/><path d="m156.6875 73.550781 6.359375-3.671875v7.339844zm0 0"/><path d="m150.328125 77.21875 6.359375-3.667969v7.339844zm0 0"/><path d="m143.972656 80.890625 6.355469-3.671875v7.34375zm0 0"/><path d="m137.613281 84.5625 6.359375-3.671875v7.339844zm0 0"/><path d="m124.898438 91.902344 6.359374-3.671875v7.34375zm0 0"/><path d="m118.539062 95.574219 6.359376-3.671875v7.339844zm0 0"/><path d="m99.464844 106.585938 6.359375-3.671876v7.34375zm0 0"/><path d="m93.109375 110.257812 6.355469-3.671874v7.339843zm0 0"/><path d="m86.75 113.925781 6.359375-3.667969v7.339844zm0 0"/><path d="m80.394531 117.597656 6.355469-3.671875v7.34375zm0 0"/><path d="m74.035156 121.269531 6.359375-3.671875v7.339844zm0 0"/><path d="m74.035156 128.609375 6.359375-3.671875v7.34375zm0 0"/><path d="m74.035156 150.632812 6.359375-3.667968v7.339844zm0 0"/><path d="m74.035156 172.660156 6.359375-3.671875v7.339844zm0 0"/><path d="m74.035156 180 6.359375-3.671875v7.34375zm0 0"/><path d="m74.035156 209.367188 6.359375-3.671876v7.339844zm0 0"/><path d="m74.035156 238.730469 6.359375-3.667969v7.339844zm0 0"/><path d="m86.75 246.074219 6.359375-3.671875v7.339844zm0 0"/><path d="m124.898438 268.097656 6.359374-3.671875v7.34375zm0 0"/><path d="m131.257812 271.769531 6.355469-3.671875v7.339844zm0 0"/><path d="m137.613281 275.4375 6.359375-3.667969v7.339844zm0 0"/><path d="m143.972656 279.109375 6.355469-3.671875v7.34375zm0 0"/><path d="m150.328125 282.78125 6.359375-3.671875v7.339844zm0 0"/><path d="m163.046875 290.121094 6.355469-3.671875v7.34375zm0 0"/><path d="m169.402344 293.792969 6.359375-3.671875v7.34375zm0 0"/><path d="m182.121094 293.792969 6.355468-3.671875v7.34375zm0 0"/><path d="m213.910156 275.4375 6.355469-3.667969v7.339844zm0 0"/><path d="m220.265625 271.769531 6.359375-3.671875v7.339844zm0 0"/><path d="m226.625 268.097656 6.359375-3.671875v7.34375zm0 0"/><path d="m252.054688 253.414062 6.359374-3.671874v7.34375zm0 0"/><path d="m258.414062 249.742188 6.359376-3.667969v7.339843zm0 0"/><path d="m283.84375 227.71875 6.359375-3.671875v7.34375zm0 0"/><path d="m283.84375 220.378906 6.359375-3.671875v7.339844zm0 0"/><path d="m283.84375 146.964844 6.359375-3.671875v7.339843zm0 0"/><path d="m283.84375 132.28125 6.359375-3.671875v7.34375zm0 0"/><path d="m283.84375 117.597656 6.359375-3.671875v7.34375zm0 0"/><path d="m264.773438 106.585938 6.355468-3.671876v7.34375zm0 0"/><path d="m252.054688 99.242188 6.359374-3.667969v7.339843zm0 0"/><path d="m245.699219 95.574219 6.355469-3.671875v7.339844zm0 0"/><path d="m239.339844 91.902344 6.359375-3.671875v7.34375zm0 0"/><path d="m232.984375 88.230469 6.355469-3.667969v7.339844zm0 0"/><path d="m226.625 84.5625 6.359375-3.671875v7.339844zm0 0"/><path d="m220.265625 80.890625 6.359375-3.671875v7.34375zm0 0"/><path d="m213.910156 77.21875 6.355469-3.667969v7.339844zm0 0"/><path d="m207.550781 73.550781 6.359375-3.671875v7.339844zm0 0"/><path d="m201.191406 69.878906 6.359375-3.671875v7.34375zm0 0"/><path d="m188.476562 62.535156 6.359376-3.667968v7.339843zm0 0"/><path d="m182.121094 58.867188 6.355468-3.671876v7.339844zm0 0"/><path d="m169.402344 58.867188 6.359375-3.671876v7.339844zm0 0"/><path d="m163.046875 62.535156 6.355469-3.667968v7.339843zm0 0"/><path d="m137.613281 77.21875 6.359375-3.667969v7.339844zm0 0"/><path d="m131.257812 80.890625 6.355469-3.671875v7.34375zm0 0"/><path d="m124.898438 84.5625 6.359374-3.671875v7.339844zm0 0"/><path d="m118.539062 88.230469 6.359376-3.667969v7.339844zm0 0"/><path d="m112.183594 91.902344 6.355468-3.671875v7.34375zm0 0"/><path d="m105.824219 95.574219 6.359375-3.671875v7.339844zm0 0"/><path d="m99.464844 99.242188 6.359375-3.667969v7.339843zm0 0"/><path d="m93.109375 102.914062 6.355469-3.671874v7.34375zm0 0"/><path d="m86.75 106.585938 6.359375-3.671876v7.34375zm0 0"/><path d="m80.394531 110.257812 6.355469-3.671874v7.339843zm0 0"/><path d="m67.675781 154.304688 6.359375-3.671876v7.34375zm0 0"/><path d="m67.675781 168.988281 6.359375-3.671875v7.34375zm0 0"/><path d="m80.394531 249.742188 6.355469-3.667969v7.339843zm0 0"/><path d="m86.75 253.414062 6.359375-3.671874v7.34375zm0 0"/><path d="m118.539062 271.769531 6.359376-3.671875v7.339844zm0 0"/><path d="m143.972656 286.449219 6.355469-3.667969v7.339844zm0 0"/><path d="m150.328125 290.121094 6.359375-3.671875v7.34375zm0 0"/><path d="m156.6875 293.792969 6.359375-3.671875v7.34375zm0 0"/><path d="m163.046875 297.464844 6.355469-3.671875v7.339843zm0 0"/><path d="m169.402344 301.132812 6.359375-3.667968v7.339844zm0 0"/><path d="m182.121094 301.132812 6.355468-3.667968v7.339844zm0 0"/><path d="m194.835938 293.792969 6.355468-3.671875v7.34375zm0 0"/><path d="m226.625 275.4375 6.359375-3.667969v7.339844zm0 0"/><path d="m252.054688 260.757812 6.359374-3.671874v7.339843zm0 0"/><path d="m264.773438 253.414062 6.355468-3.671874v7.34375zm0 0"/><path d="m290.203125 224.046875 6.359375-3.667969v7.339844zm0 0"/><path d="m290.203125 143.292969 6.359375-3.671875v7.34375zm0 0"/><path d="m290.203125 128.609375 6.359375-3.671875v7.34375zm0 0"/><path d="m277.488281 106.585938 6.355469-3.671876v7.34375zm0 0"/><path d="m271.128906 102.914062 6.359375-3.671874v7.34375zm0 0"/><path d="m264.773438 99.242188 6.355468-3.667969v7.339843zm0 0"/><path d="m194.835938 58.867188 6.355468-3.671876v7.339844zm0 0"/><path d="m188.476562 55.195312 6.359376-3.671874v7.34375zm0 0"/><path d="m175.761719 47.855469 6.359375-3.671875v7.339844zm0 0"/><path d="m156.6875 58.867188 6.359375-3.671876v7.339844zm0 0"/><path d="m74.035156 106.585938 6.359375-3.671876v7.34375zm0 0"/><path d="m67.675781 110.257812 6.359375-3.671874v7.339843zm0 0"/><path d="m61.320312 113.925781 6.355469-3.667969v7.339844zm0 0"/><path d="m61.320312 121.269531 6.355469-3.671875v7.339844zm0 0"/><path d="m61.320312 128.609375 6.355469-3.671875v7.34375zm0 0"/><path d="m67.675781 249.742188 6.359375-3.667969v7.339843zm0 0"/><path d="m86.75 260.757812 6.359375-3.671874v7.339843zm0 0"/><path d="m93.109375 264.425781 6.355469-3.667969v7.339844zm0 0"/><path d="m99.464844 268.097656 6.359375-3.671875v7.34375zm0 0"/><path d="m105.824219 271.769531 6.359375-3.671875v7.339844zm0 0"/><path d="m112.183594 275.4375 6.355468-3.667969v7.339844zm0 0"/><path d="m118.539062 279.109375 6.359376-3.671875v7.34375zm0 0"/><path d="m124.898438 282.78125 6.359374-3.671875v7.339844zm0 0"/><path d="m131.257812 286.449219 6.355469-3.667969v7.339844zm0 0"/><path d="m137.613281 290.121094 6.359375-3.671875v7.34375zm0 0"/><path d="m143.972656 293.792969 6.355469-3.671875v7.34375zm0 0"/><path d="m150.328125 297.464844 6.359375-3.671875v7.339843zm0 0"/><path d="m156.6875 301.132812 6.359375-3.667968v7.339844zm0 0"/><path d="m163.046875 304.804688 6.355469-3.671876v7.34375zm0 0"/><path d="m169.402344 308.476562 6.359375-3.671874v7.339843zm0 0"/><path d="m188.476562 304.804688 6.359376-3.671876v7.34375zm0 0"/><path d="m194.835938 301.132812 6.355468-3.667968v7.339844zm0 0"/><path d="m271.128906 257.085938 6.359375-3.671876v7.34375zm0 0"/><path d="m296.5625 227.71875 6.355469-3.671875v7.34375zm0 0"/><path d="m296.5625 139.621094 6.355469-3.667969v7.339844zm0 0"/><path d="m296.5625 117.597656 6.355469-3.671875v7.34375zm0 0"/><path d="m277.488281 99.242188 6.355469-3.667969v7.339843zm0 0"/><path d="m194.835938 51.523438 6.355468-3.667969v7.339843zm0 0"/><path d="m163.046875 47.855469 6.355469-3.671875v7.339844zm0 0"/><path d="m156.6875 51.523438 6.359375-3.667969v7.339843zm0 0"/><path d="m61.320312 106.585938 6.355469-3.671876v7.34375zm0 0"/><path d="m54.960938 110.257812 6.359374-3.671874v7.339843zm0 0"/><path d="m54.960938 117.597656 6.359374-3.671875v7.34375zm0 0"/><path d="m54.960938 132.28125 6.359374-3.671875v7.34375zm0 0"/><path d="m54.960938 139.621094 6.359374-3.667969v7.339844zm0 0"/><path d="m54.960938 146.964844 6.359374-3.671875v7.339843zm0 0"/><path d="m54.960938 154.304688 6.359374-3.671876v7.34375zm0 0"/><path d="m54.960938 161.644531 6.359374-3.667969v7.339844zm0 0"/><path d="m54.960938 168.988281 6.359374-3.671875v7.34375zm0 0"/><path d="m54.960938 176.328125 6.359374-3.667969v7.339844zm0 0"/><path d="m54.960938 183.671875 6.359374-3.671875v7.339844zm0 0"/><path d="m54.960938 191.011719 6.359374-3.671875v7.34375zm0 0"/><path d="m54.960938 198.355469 6.359374-3.671875v7.339844zm0 0"/><path d="m54.960938 205.695312 6.359374-3.671874v7.34375zm0 0"/><path d="m54.960938 213.035156 6.359374-3.667968v7.339843zm0 0"/><path d="m169.402344 315.816406 6.359375-3.671875v7.34375zm0 0"/><path d="m207.550781 301.132812 6.359375-3.667968v7.339844zm0 0"/><path d="m213.910156 297.464844 6.355469-3.671875v7.339843zm0 0"/><path d="m220.265625 293.792969 6.359375-3.671875v7.34375zm0 0"/><path d="m226.625 290.121094 6.359375-3.671875v7.34375zm0 0"/><path d="m232.984375 286.449219 6.355469-3.667969v7.339844zm0 0"/><path d="m239.339844 282.78125 6.359375-3.671875v7.339844zm0 0"/><path d="m245.699219 279.109375 6.355469-3.671875v7.34375zm0 0"/><path d="m252.054688 275.4375 6.359374-3.667969v7.339844zm0 0"/><path d="m258.414062 271.769531 6.359376-3.671875v7.339844zm0 0"/><path d="m264.773438 268.097656 6.355468-3.671875v7.34375zm0 0"/><path d="m302.917969 253.414062 6.359375-3.671874v7.34375zm0 0"/><path d="m302.917969 246.074219 6.359375-3.671875v7.339844zm0 0"/><path d="m302.917969 238.730469 6.359375-3.667969v7.339844zm0 0"/><path d="m302.917969 231.390625 6.359375-3.671875v7.34375zm0 0"/><path d="m302.917969 135.953125 6.359375-3.671875v7.339844zm0 0"/><path d="m302.917969 128.609375 6.359375-3.671875v7.34375zm0 0"/><path d="m302.917969 121.269531 6.359375-3.671875v7.339844zm0 0"/><path d="m302.917969 113.925781 6.359375-3.667969v7.339844zm0 0"/><path d="m296.5625 102.914062 6.355469-3.671874v7.34375zm0 0"/><path d="m283.84375 95.574219 6.359375-3.671875v7.339844zm0 0"/><path d="m194.835938 44.183594 6.355468-3.671875v7.34375zm0 0"/><path d="m182.121094 36.839844 6.355468-3.667969v7.339844zm0 0"/><path d="m163.046875 40.511719 6.355469-3.671875v7.34375zm0 0"/><path d="m150.328125 47.855469 6.359375-3.671875v7.339844zm0 0"/><path d="m61.320312 99.242188 6.355469-3.667969v7.339843zm0 0"/><path d="m48.605469 106.585938 6.355469-3.671876v7.34375zm0 0"/><path d="m48.605469 121.269531 6.355469-3.671875v7.339844zm0 0"/><path d="m48.605469 128.609375 6.355469-3.671875v7.34375zm0 0"/><path d="m48.605469 224.046875 6.355469-3.667969v7.339844zm0 0"/><path d="m48.605469 238.730469 6.355469-3.667969v7.339844zm0 0"/><path d="m48.605469 246.074219 6.355469-3.671875v7.339844zm0 0"/><path d="m67.675781 264.425781 6.359375-3.667969v7.339844zm0 0"/><path d="m74.035156 268.097656 6.359375-3.671875v7.34375zm0 0"/><path d="m169.402344 323.160156 6.359375-3.671875v7.339844zm0 0"/><path d="m175.761719 326.828125 6.359375-3.667969v7.339844zm0 0"/><path d="m182.121094 323.160156 6.355468-3.671875v7.339844zm0 0"/><path d="m188.476562 319.488281 6.359376-3.671875v7.34375zm0 0"/><path d="m194.835938 315.816406 6.355468-3.671875v7.34375zm0 0"/><path d="m201.191406 312.144531 6.359375-3.667969v7.339844zm0 0"/><path d="m277.488281 268.097656 6.355469-3.671875v7.34375zm0 0"/><path d="m283.84375 264.425781 6.359375-3.667969v7.339844zm0 0"/><path d="m290.203125 260.757812 6.359375-3.671874v7.339843zm0 0"/><path d="m296.5625 257.085938 6.355469-3.671876v7.34375zm0 0"/><path d="m188.476562 180-6.355468-3.671875v7.34375zm0 0"/><path d="m182.121094 176.328125-6.359375-3.667969v7.339844zm0 0"/><path d="m188.476562 172.660156-6.355468-3.671875v7.339844zm0 0"/><path d="m182.121094 168.988281-6.359375-3.671875v7.34375zm0 0"/><path d="m188.476562 187.339844-6.355468-3.667969v7.339844zm0 0"/><path d="m201.191406 187.339844-6.355468-3.667969v7.339844zm0 0"/><path d="m182.121094 161.644531-6.359375-3.667969v7.339844zm0 0"/><path d="m175.761719 165.316406-6.359375-3.671875v7.34375zm0 0"/><path d="m194.835938 191.011719-6.359376-3.671875v7.34375zm0 0"/><path d="m207.550781 183.671875-6.359375-3.671875v7.339844zm0 0"/><path d="m207.550781 168.988281-6.359375-3.671875v7.34375zm0 0"/><path d="m201.191406 165.316406-6.355468-3.671875v7.34375zm0 0"/><path d="m182.121094 154.304688-6.359375-3.671876v7.34375zm0 0"/><path d="m175.761719 157.976562-6.359375-3.671874v7.339843zm0 0"/><path d="m182.121094 205.695312-6.359375-3.671874v7.34375zm0 0"/><path d="m188.476562 202.023438-6.355468-3.667969v7.339843zm0 0"/><path d="m201.191406 194.683594-6.355468-3.671875v7.34375zm0 0"/><path d="m213.910156 187.339844-6.359375-3.667969v7.339844zm0 0"/><path d="m213.910156 172.660156-6.359375-3.671875v7.339844zm0 0"/><path d="m213.910156 165.316406-6.359375-3.671875v7.34375zm0 0"/><path d="m194.835938 154.304688-6.359376-3.671876v7.34375zm0 0"/><path d="m182.121094 146.964844-6.359375-3.671875v7.339843zm0 0"/><path d="m169.402344 154.304688-6.355469-3.671876v7.34375zm0 0"/><path d="m163.046875 157.976562-6.359375-3.671874v7.339843zm0 0"/><path d="m156.6875 161.644531-6.359375-3.667969v7.339844zm0 0"/><path d="m156.6875 191.011719-6.359375-3.671875v7.34375zm0 0"/><path d="m156.6875 198.355469-6.359375-3.671875v7.339844zm0 0"/><path d="m175.761719 209.367188-6.359375-3.671876v7.339844zm0 0"/><path d="m220.265625 191.011719-6.355469-3.671875v7.34375zm0 0"/><path d="m213.910156 157.976562-6.359375-3.671874v7.339843zm0 0"/><path d="m182.121094 139.621094-6.359375-3.667969v7.339844zm0 0"/><path d="m163.046875 150.632812-6.359375-3.667968v7.339844zm0 0"/><path d="m150.328125 172.660156-6.355469-3.671875v7.339844zm0 0"/><path d="m150.328125 180-6.355469-3.671875v7.34375zm0 0"/><path d="m163.046875 209.367188-6.359375-3.671876v7.339844zm0 0"/><path d="m169.402344 213.035156-6.355469-3.667968v7.339843zm0 0"/><path d="m182.121094 220.378906-6.359375-3.671875v7.339844zm0 0"/><path d="m194.835938 213.035156-6.359376-3.667968v7.339843zm0 0"/><path d="m213.910156 202.023438-6.359375-3.667969v7.339843zm0 0"/><path d="m226.625 202.023438-6.359375-3.667969v7.339843zm0 0"/><path d="m226.625 194.683594-6.359375-3.671875v7.34375zm0 0"/><path d="m226.625 180-6.359375-3.671875v7.34375zm0 0"/><path d="m226.625 157.976562-6.359375-3.671874v7.339843zm0 0"/><path d="m207.550781 146.964844-6.359375-3.671875v7.339843zm0 0"/><path d="m182.121094 132.28125-6.359375-3.671875v7.34375zm0 0"/><path d="m143.972656 168.988281-6.359375-3.671875v7.34375zm0 0"/><path d="m143.972656 183.671875-6.359375-3.671875v7.339844zm0 0"/><path d="m143.972656 205.695312-6.359375-3.671874v7.34375zm0 0"/><path d="m163.046875 216.707031-6.359375-3.671875v7.34375zm0 0"/><path d="m169.402344 220.378906-6.355469-3.671875v7.339844zm0 0"/><path d="m220.265625 205.695312-6.355469-3.671874v7.34375zm0 0"/><path d="m232.984375 176.328125-6.359375-3.667969v7.339844zm0 0"/><path d="m226.625 150.632812-6.359375-3.667968v7.339844zm0 0"/><path d="m213.910156 143.292969-6.359375-3.671875v7.34375zm0 0"/><path d="m194.835938 132.28125-6.359376-3.671875v7.34375zm0 0"/><path d="m150.328125 143.292969-6.355469-3.671875v7.34375zm0 0"/><path d="m137.613281 187.339844-6.355469-3.667969v7.339844zm0 0"/><path d="m137.613281 202.023438-6.355469-3.667969v7.339843zm0 0"/><path d="m150.328125 216.707031-6.355469-3.671875v7.34375zm0 0"/><path d="m156.6875 220.378906-6.359375-3.671875v7.339844zm0 0"/><path d="m163.046875 224.046875-6.359375-3.667969v7.339844zm0 0"/><path d="m169.402344 227.71875-6.355469-3.671875v7.34375zm0 0"/><path d="m182.121094 235.0625-6.359375-3.671875v7.339844zm0 0"/><path d="m239.339844 194.683594-6.355469-3.671875v7.34375zm0 0"/><path d="m239.339844 187.339844-6.355469-3.667969v7.339844zm0 0"/><path d="m239.339844 165.316406-6.355469-3.671875v7.34375zm0 0"/><path d="m201.191406 128.609375-6.355468-3.671875v7.34375zm0 0"/><path d="m169.402344 124.9375-6.355469-3.667969v7.339844zm0 0"/><path d="m163.046875 128.609375-6.359375-3.671875v7.34375zm0 0"/><path d="m156.6875 132.28125-6.359375-3.671875v7.34375zm0 0"/><path d="m131.257812 176.328125-6.359374-3.667969v7.339844zm0 0"/><path d="m131.257812 183.671875-6.359374-3.671875v7.339844zm0 0"/><path d="m131.257812 191.011719-6.359374-3.671875v7.34375zm0 0"/><path d="m131.257812 205.695312-6.359374-3.671874v7.34375zm0 0"/><path d="m131.257812 213.035156-6.359374-3.667968v7.339843zm0 0"/><path d="m143.972656 220.378906-6.359375-3.671875v7.339844zm0 0"/><path d="m245.699219 183.671875-6.359375-3.671875v7.339844zm0 0"/><path d="m245.699219 161.644531-6.359375-3.667969v7.339844zm0 0"/><path d="m220.265625 132.28125-6.355469-3.671875v7.34375zm0 0"/><path d="m194.835938 117.597656-6.359376-3.671875v7.34375zm0 0"/><path d="m182.121094 110.257812-6.359375-3.671874v7.339843zm0 0"/><path d="m163.046875 121.269531-6.359375-3.671875v7.339844zm0 0"/><path d="m156.6875 124.9375-6.359375-3.667969v7.339844zm0 0"/><path d="m137.613281 224.046875-6.355469-3.667969v7.339844zm0 0"/><path d="m150.328125 231.390625-6.355469-3.671875v7.34375zm0 0"/><path d="m163.046875 238.730469-6.359375-3.667969v7.339844zm0 0"/><path d="m252.054688 180-6.355469-3.671875v7.34375zm0 0"/><path d="m252.054688 165.316406-6.355469-3.671875v7.34375zm0 0"/><path d="m252.054688 157.976562-6.355469-3.671874v7.339843zm0 0"/><path d="m252.054688 150.632812-6.355469-3.667968v7.339844zm0 0"/><path d="m252.054688 143.292969-6.355469-3.671875v7.34375zm0 0"/><path d="m213.910156 121.269531-6.359375-3.671875v7.339844zm0 0"/><path d="m201.191406 113.925781-6.355468-3.667969v7.339844zm0 0"/><path d="m194.835938 110.257812-6.359376-3.671874v7.339843zm0 0"/><path d="m182.121094 102.914062-6.359375-3.671874v7.34375zm0 0"/><path d="m163.046875 113.925781-6.359375-3.667969v7.339844zm0 0"/><path d="m118.539062 168.988281-6.355468-3.671875v7.34375zm0 0"/><path d="m118.539062 183.671875-6.355468-3.671875v7.339844zm0 0"/><path d="m118.539062 198.355469-6.355468-3.671875v7.339844zm0 0"/><path d="m124.898438 224.046875-6.359376-3.667969v7.339844zm0 0"/><path d="m143.972656 235.0625-6.359375-3.671875v7.339844zm0 0"/><path d="m156.6875 242.402344-6.359375-3.671875v7.34375zm0 0"/><path d="m163.046875 246.074219-6.359375-3.671875v7.339844zm0 0"/><path d="m258.414062 176.328125-6.359374-3.667969v7.339844zm0 0"/><path d="m258.414062 168.988281-6.359374-3.671875v7.34375zm0 0"/><path d="m258.414062 161.644531-6.359374-3.667969v7.339844zm0 0"/><path d="m258.414062 139.621094-6.359374-3.667969v7.339844zm0 0"/><path d="m245.699219 132.28125-6.359375-3.671875v7.34375zm0 0"/><path d="m213.910156 113.925781-6.359375-3.667969v7.339844zm0 0"/><path d="m188.476562 99.242188-6.355468-3.667969v7.339843zm0 0"/><path d="m143.972656 117.597656-6.359375-3.671875v7.34375zm0 0"/><path d="m112.183594 180-6.359375-3.671875v7.34375zm0 0"/><path d="m112.183594 187.339844-6.359375-3.667969v7.339844zm0 0"/><path d="m112.183594 194.683594-6.359375-3.671875v7.34375zm0 0"/><path d="m112.183594 216.707031-6.359375-3.671875v7.34375zm0 0"/><path d="m124.898438 231.390625-6.359376-3.671875v7.34375zm0 0"/><path d="m131.257812 235.0625-6.359374-3.671875v7.339844zm0 0"/><path d="m143.972656 242.402344-6.359375-3.671875v7.34375zm0 0"/><path d="m150.328125 246.074219-6.355469-3.671875v7.339844zm0 0"/><path d="m264.773438 150.632812-6.359376-3.667968v7.339844zm0 0"/><path d="m264.773438 135.953125-6.359376-3.671875v7.339844zm0 0"/><path d="m201.191406 99.242188-6.355468-3.667969v7.339843zm0 0"/><path d="m175.761719 91.902344-6.359375-3.671875v7.34375zm0 0"/><path d="m163.046875 99.242188-6.359375-3.667969v7.339843zm0 0"/><path d="m137.613281 113.925781-6.355469-3.667969v7.339844zm0 0"/><path d="m131.257812 117.597656-6.359374-3.671875v7.34375zm0 0"/><path d="m105.824219 198.355469-6.359375-3.671875v7.339844zm0 0"/><path d="m105.824219 213.035156-6.359375-3.667968v7.339843zm0 0"/><path d="m112.183594 231.390625-6.359375-3.671875v7.34375zm0 0"/><path d="m118.539062 235.0625-6.355468-3.671875v7.339844zm0 0"/><path d="m124.898438 238.730469-6.359376-3.667969v7.339844zm0 0"/><path d="m143.972656 249.742188-6.359375-3.667969v7.339843zm0 0"/><path d="m271.128906 146.964844-6.355468-3.671875v7.339843zm0 0"/><path d="m271.128906 139.621094-6.355468-3.667969v7.339844zm0 0"/><path d="m264.773438 128.609375-6.359376-3.671875v7.34375zm0 0"/><path d="m258.414062 124.9375-6.359374-3.667969v7.339844zm0 0"/><path d="m239.339844 113.925781-6.355469-3.667969v7.339844zm0 0"/><path d="m232.984375 110.257812-6.359375-3.671874v7.339843zm0 0"/><path d="m226.625 106.585938-6.359375-3.671876v7.34375zm0 0"/><path d="m201.191406 91.902344-6.355468-3.671875v7.34375zm0 0"/><path d="m175.761719 84.5625-6.359375-3.671875v7.339844zm0 0"/><path d="m163.046875 91.902344-6.359375-3.671875v7.34375zm0 0"/><path d="m137.613281 106.585938-6.355469-3.671876v7.34375zm0 0"/><path d="m118.539062 242.402344-6.355468-3.671875v7.34375zm0 0"/><path d="m137.613281 253.414062-6.355469-3.671874v7.34375zm0 0"/><path d="m277.488281 143.292969-6.359375-3.671875v7.34375zm0 0"/><path d="m264.773438 121.269531-6.359376-3.671875v7.339844zm0 0"/><path d="m258.414062 117.597656-6.359374-3.671875v7.34375zm0 0"/><path d="m252.054688 113.925781-6.355469-3.667969v7.339844zm0 0"/><path d="m169.402344 80.890625-6.355469-3.671875v7.34375zm0 0"/><path d="m163.046875 84.5625-6.359375-3.671875v7.339844zm0 0"/><path d="m112.183594 246.074219-6.359375-3.671875v7.339844zm0 0"/><path d="m118.539062 249.742188-6.355468-3.667969v7.339843zm0 0"/><path d="m283.84375 139.621094-6.355469-3.667969v7.339844zm0 0"/><path d="m264.773438 113.925781-6.359376-3.667969v7.339844zm0 0"/><path d="m163.046875 77.21875-6.359375-3.667969v7.339844zm0 0"/><path d="m86.75 238.730469-6.355469-3.667969v7.339844zm0 0"/><path d="m93.109375 242.402344-6.359375-3.671875v7.34375zm0 0"/><path d="m118.539062 257.085938-6.355468-3.671876v7.34375zm0 0"/><path d="m290.203125 135.953125-6.359375-3.671875v7.339844zm0 0"/><path d="m290.203125 128.609375-6.359375-3.671875v7.34375zm0 0"/><path d="m290.203125 121.269531-6.359375-3.671875v7.339844zm0 0"/><path d="m112.183594 260.757812-6.359375-3.671874v7.339843zm0 0"/><path d="m118.539062 264.425781-6.355468-3.667969v7.339844zm0 0"/><path d="m124.898438 268.097656-6.359376-3.671875v7.34375zm0 0"/><path d="m296.5625 117.597656-6.359375-3.671875v7.34375zm0 0"/><path d="m290.203125 113.925781-6.359375-3.667969v7.339844zm0 0"/><path d="m283.84375 110.257812-6.355469-3.671874v7.339843zm0 0"/><path d="m182.121094 51.523438-6.359375-3.667969v7.339843zm0 0"/><path d="m175.761719 55.195312-6.359375-3.671874v7.34375zm0 0"/><path d="m80.394531 249.742188-6.359375-3.667969v7.339843zm0 0"/><path d="m86.75 253.414062-6.355469-3.671874v7.34375zm0 0"/><path d="m93.109375 257.085938-6.359375-3.671876v7.34375zm0 0"/><path d="m118.539062 271.769531-6.355468-3.671875v7.339844zm0 0"/><path d="m296.5625 110.257812-6.359375-3.671874v7.339843zm0 0"/><path d="m175.761719 47.855469-6.359375-3.671875v7.339844zm0 0"/><path d="m74.035156 253.414062-6.359375-3.671874v7.34375zm0 0"/><path d="m309.277344 110.257812-6.359375-3.671874v7.339843zm0 0"/><path d="m182.121094 36.839844-6.359375-3.667969v7.339844zm0 0"/><path d="m67.675781 257.085938-6.355469-3.671876v7.34375zm0 0"/></g></svg>