<svg height="360pt" viewBox="0 0 360 360" width="360pt" xmlns="http://www.w3.org/2000/svg"><path d="m0 0h360v360h-360z" fill="#fff"/><g fill="#800080"><path d="m152.84375 227.03125 16.292969-9.40625v18.816406zm0 0"/><path d="m169.136719 236.441406 16.292969-9.410156v18.816406zm0 0"/><path d="m152.84375 245.847656 16.292969-9.40625v18.8125zm0 0"/><path d="m234.308594 180-16.292969-9.40625v18.8125zm0 0"/><path d="m218.015625 151.78125-16.292969-9.40625v18.8125zm0 0"/><path d="m201.722656 142.375-16.292968-9.40625v18.8125zm0 0"/><path d="m250.601562 189.40625-16.292968-9.40625v18.8125zm0 0"/><path d="m250.601562 170.59375-16.292968-9.40625v18.8125zm0 0"/><path d="m218.015625 132.96875-16.292969-9.410156v18.816406zm0 0"/></g></svg>