<svg height="360pt" viewBox="0 0 360 360" width="360pt" xmlns="http://www.w3.org/2000/svg"><path d="m0 0h360v360h-360z" fill="#800080"/><g fill="#fff"><path d="m172.015625 180 11.976563-6.914062v13.828124zm0 0"/><path d="m183.992188 173.085938 11.972656-6.914063v13.828125zm0 0"/><path d="m160.042969 186.914062 11.972656-6.914062v13.828125zm0 0"/><path d="m172.015625 193.828125 11.976563-6.914063v13.824219zm0 0"/><path d="m195.964844 180 11.976562-6.914062v13.828124zm0 0"/><path d="m195.964844 166.171875 11.976562-6.910156v13.824219zm0 0"/><path d="m183.992188 159.261719 11.972656-6.914063v13.824219zm0 0"/><path d="m160.042969 159.261719 11.972656-6.914063v13.824219zm0 0"/><path d="m148.070312 166.171875 11.972657-6.910156v13.824219zm0 0"/><path d="m148.070312 180 11.972657-6.914062v13.828124zm0 0"/><path d="m148.070312 193.828125 11.972657-6.914063v13.824219zm0 0"/><path d="m160.042969 200.738281 11.972656-6.910156v13.824219zm0 0"/><path d="m172.015625 207.652344 11.976563-6.914063v13.828125zm0 0"/><path d="m207.941406 173.085938 11.972656-6.914063v13.828125zm0 0"/><path d="m195.964844 152.347656 11.976562-6.914062v13.828125zm0 0"/><path d="m160.042969 145.433594 11.972656-6.914063v13.828125zm0 0"/><path d="m136.09375 173.085938 11.976562-6.914063v13.828125zm0 0"/><path d="m136.09375 186.914062 11.976562-6.914062v13.828125zm0 0"/><path d="m136.09375 200.738281 11.976562-6.910156v13.824219zm0 0"/><path d="m148.070312 207.652344 11.972657-6.914063v13.828125zm0 0"/><path d="m160.042969 214.566406 11.972656-6.914062v13.828125zm0 0"/><path d="m172.015625 221.480469 11.976563-6.914063v13.828125zm0 0"/><path d="m183.992188 214.566406 11.972656-6.914062v13.828125zm0 0"/><path d="m195.964844 207.652344 11.976562-6.914063v13.828125zm0 0"/><path d="m219.914062 207.652344 11.972657-6.914063v13.828125zm0 0"/><path d="m219.914062 180 11.972657-6.914062v13.828124zm0 0"/><path d="m219.914062 166.171875 11.972657-6.910156v13.824219zm0 0"/><path d="m219.914062 152.347656 11.972657-6.914062v13.828125zm0 0"/><path d="m207.941406 145.433594 11.972656-6.914063v13.828125zm0 0"/><path d="m183.992188 131.605469 11.972656-6.910157v13.824219zm0 0"/><path d="m160.042969 131.605469 11.972656-6.910157v13.824219zm0 0"/><path d="m148.070312 138.519531 11.972657-6.914062v13.828125zm0 0"/><path d="m124.121094 193.828125 11.972656-6.914063v13.824219zm0 0"/><path d="m124.121094 207.652344 11.972656-6.914063v13.828125zm0 0"/><path d="m195.964844 221.480469 11.976562-6.914063v13.828125zm0 0"/><path d="m207.941406 214.566406 11.972656-6.914062v13.828125zm0 0"/><path d="m231.886719 214.566406 11.976562-6.914062v13.828125zm0 0"/><path d="m231.886719 186.914062 11.976562-6.914062v13.828125zm0 0"/><path d="m231.886719 159.261719 11.976562-6.914063v13.824219zm0 0"/><path d="m207.941406 131.605469 11.972656-6.910157v13.824219zm0 0"/><path d="m195.964844 124.695312 11.976562-6.914062v13.824219zm0 0"/><path d="m112.148438 200.738281 11.972656-6.910156v13.824219zm0 0"/><path d="m148.070312 235.304688 11.972657-6.910157v13.824219zm0 0"/><path d="m160.042969 242.21875 11.972656-6.914062v13.828124zm0 0"/><path d="m172.015625 249.132812 11.976563-6.914062v13.828125zm0 0"/><path d="m195.964844 235.304688 11.976562-6.910157v13.824219zm0 0"/><path d="m207.941406 228.394531 11.972656-6.914062v13.824219zm0 0"/><path d="m219.914062 221.480469 11.972657-6.914063v13.828125zm0 0"/><path d="m243.863281 180 11.972657-6.914062v13.828124zm0 0"/><path d="m231.886719 131.605469 11.976562-6.910157v13.824219zm0 0"/><path d="m219.914062 124.695312 11.972657-6.914062v13.824219zm0 0"/><path d="m136.09375 242.21875 11.976562-6.914062v13.828124zm0 0"/><path d="m148.070312 249.132812 11.972657-6.914062v13.828125zm0 0"/><path d="m183.992188 256.046875 11.972656-6.914063v13.824219zm0 0"/><path d="m195.964844 249.132812 11.976562-6.914062v13.828125zm0 0"/><path d="m207.941406 242.21875 11.972656-6.914062v13.828124zm0 0"/><path d="m219.914062 235.304688 11.972657-6.910157v13.824219zm0 0"/><path d="m231.886719 228.394531 11.976562-6.914062v13.824219zm0 0"/><path d="m255.835938 228.394531 11.972656-6.914062v13.824219zm0 0"/><path d="m255.835938 200.738281 11.972656-6.910156v13.824219zm0 0"/><path d="m255.835938 186.914062 11.972656-6.914062v13.828125zm0 0"/><path d="m255.835938 173.085938 11.972656-6.914063v13.828125zm0 0"/><path d="m136.09375 256.046875 11.976562-6.914063v13.824219zm0 0"/><path d="m160.042969 269.871094 11.972656-6.914063v13.828125zm0 0"/><path d="m219.914062 249.132812 11.972657-6.914062v13.828125zm0 0"/><path d="m231.886719 242.21875 11.976562-6.914062v13.828124zm0 0"/><path d="m243.863281 235.304688 11.972657-6.910157v13.824219zm0 0"/><path d="m231.886719 256.046875 11.976562-6.914063v13.824219zm0 0"/><path d="m255.835938 242.21875 11.972656-6.914062v13.828124zm0 0"/><path d="m195.964844 180-11.972656-6.914062v13.828124zm0 0"/><path d="m183.992188 173.085938-11.976563-6.914063v13.828125zm0 0"/><path d="m183.992188 186.914062-11.976563-6.914062v13.828125zm0 0"/><path d="m207.941406 186.914062-11.976562-6.914062v13.828125zm0 0"/><path d="m207.941406 173.085938-11.976562-6.914063v13.828125zm0 0"/><path d="m195.964844 166.171875-11.972656-6.910156v13.824219zm0 0"/><path d="m172.015625 166.171875-11.972656-6.910156v13.824219zm0 0"/><path d="m172.015625 180-11.972656-6.914062v13.828124zm0 0"/><path d="m172.015625 193.828125-11.972656-6.914063v13.824219zm0 0"/><path d="m183.992188 200.738281-11.976563-6.910156v13.824219zm0 0"/><path d="m195.964844 193.828125-11.972656-6.914063v13.824219zm0 0"/><path d="m219.914062 166.171875-11.972656-6.910156v13.824219zm0 0"/><path d="m207.941406 159.261719-11.976562-6.914063v13.824219zm0 0"/><path d="m195.964844 152.347656-11.972656-6.914062v13.828125zm0 0"/><path d="m183.992188 145.433594-11.976563-6.914063v13.828125zm0 0"/><path d="m160.042969 173.085938-11.972657-6.914063v13.828125zm0 0"/><path d="m160.042969 186.914062-11.972657-6.914062v13.828125zm0 0"/><path d="m183.992188 214.566406-11.976563-6.914062v13.828125zm0 0"/><path d="m195.964844 207.652344-11.972656-6.914063v13.828125zm0 0"/><path d="m231.886719 173.085938-11.972657-6.914063v13.828125zm0 0"/><path d="m231.886719 159.261719-11.972657-6.914063v13.824219zm0 0"/><path d="m219.914062 152.347656-11.972656-6.914062v13.828125zm0 0"/><path d="m207.941406 145.433594-11.976562-6.914063v13.828125zm0 0"/><path d="m195.964844 138.519531-11.972656-6.914062v13.828125zm0 0"/><path d="m172.015625 138.519531-11.972656-6.914062v13.828125zm0 0"/><path d="m148.070312 180-11.976562-6.914062v13.828124zm0 0"/><path d="m148.070312 207.652344-11.976562-6.914063v13.828125zm0 0"/><path d="m172.015625 221.480469-11.972656-6.914063v13.828125zm0 0"/><path d="m183.992188 228.394531-11.976563-6.914062v13.824219zm0 0"/><path d="m195.964844 221.480469-11.972656-6.914063v13.828125zm0 0"/><path d="m207.941406 214.566406-11.976562-6.914062v13.828125zm0 0"/><path d="m219.914062 207.652344-11.972656-6.914063v13.828125zm0 0"/><path d="m243.863281 166.171875-11.976562-6.910156v13.824219zm0 0"/><path d="m231.886719 145.433594-11.972657-6.914063v13.828125zm0 0"/><path d="m219.914062 138.519531-11.972656-6.914062v13.828125zm0 0"/><path d="m207.941406 131.605469-11.976562-6.910157v13.824219zm0 0"/><path d="m195.964844 124.695312-11.972656-6.914062v13.824219zm0 0"/><path d="m160.042969 131.605469-11.972657-6.910157v13.824219zm0 0"/><path d="m136.09375 200.738281-11.972656-6.910156v13.824219zm0 0"/><path d="m136.09375 214.566406-11.972656-6.914062v13.828125zm0 0"/><path d="m183.992188 242.21875-11.976563-6.914062v13.828124zm0 0"/><path d="m195.964844 235.304688-11.972656-6.910157v13.824219zm0 0"/><path d="m219.914062 221.480469-11.972656-6.914063v13.828125zm0 0"/><path d="m231.886719 214.566406-11.972657-6.914062v13.828125zm0 0"/><path d="m255.835938 186.914062-11.972657-6.914062v13.828125zm0 0"/><path d="m255.835938 173.085938-11.972657-6.914063v13.828125zm0 0"/><path d="m243.863281 138.519531-11.976562-6.914062v13.828125zm0 0"/><path d="m231.886719 131.605469-11.972657-6.910157v13.824219zm0 0"/><path d="m207.941406 117.78125-11.976562-6.914062v13.828124zm0 0"/><path d="m124.121094 180-11.972656-6.914062v13.828124zm0 0"/><path d="m124.121094 207.652344-11.972656-6.914063v13.828125zm0 0"/><path d="m160.042969 242.21875-11.972657-6.914062v13.828124zm0 0"/><path d="m172.015625 249.132812-11.972656-6.914062v13.828125zm0 0"/><path d="m207.941406 242.21875-11.976562-6.914062v13.828124zm0 0"/><path d="m219.914062 235.304688-11.972656-6.910157v13.824219zm0 0"/><path d="m243.863281 221.480469-11.976562-6.914063v13.828125zm0 0"/><path d="m267.808594 193.828125-11.972656-6.914063v13.824219zm0 0"/><path d="m267.808594 180-11.972656-6.914062v13.828124zm0 0"/><path d="m267.808594 166.171875-11.972656-6.910156v13.824219zm0 0"/><path d="m255.835938 131.605469-11.972657-6.910157v13.824219zm0 0"/><path d="m231.886719 117.78125-11.972657-6.914062v13.828124zm0 0"/><path d="m160.042969 256.046875-11.972657-6.914063v13.824219zm0 0"/><path d="m207.941406 256.046875-11.976562-6.914063v13.824219zm0 0"/><path d="m219.914062 249.132812-11.972656-6.914062v13.828125zm0 0"/><path d="m243.863281 235.304688-11.976562-6.910157v13.824219zm0 0"/><path d="m255.835938 228.394531-11.972657-6.914062v13.824219zm0 0"/><path d="m279.785156 214.566406-11.976562-6.914062v13.828125zm0 0"/><path d="m279.785156 200.738281-11.976562-6.910156v13.824219zm0 0"/><path d="m291.757812 207.652344-11.972656-6.914063v13.828125zm0 0"/><path d="m291.757812 180-11.972656-6.914062v13.828124zm0 0"/></g></svg>