<svg height="360pt" viewBox="0 0 360 360" width="360pt" xmlns="http://www.w3.org/2000/svg"><path d="m0 0h360v360h-360z" fill="#800080"/><g fill="#fff"><path d="m173.511719 180 9.734375-5.621094v11.242188zm0 0"/><path d="m183.246094 185.621094 9.734375-5.621094v11.242188zm0 0"/><path d="m173.511719 168.757812 9.734375-5.617187v11.238281zm0 0"/><path d="m192.980469 168.757812 9.734375-5.617187v11.238281zm0 0"/><path d="m163.777344 163.140625 9.734375-5.621094v11.238281zm0 0"/><path d="m163.777344 196.859375 9.734375-5.617187v11.238281zm0 0"/><path d="m202.714844 163.140625 9.734375-5.621094v11.238281zm0 0"/><path d="m192.980469 157.519531 9.734375-5.621093v11.242187zm0 0"/><path d="m183.246094 151.898438 9.734375-5.621094v11.242187zm0 0"/><path d="m212.449219 180 9.734375-5.621094v11.242188zm0 0"/><path d="m202.714844 151.898438 9.734375-5.621094v11.242187zm0 0"/><path d="m163.777344 140.660156 9.734375-5.621094v11.238282zm0 0"/><path d="m144.308594 208.101562 9.734375-5.621093v11.242187zm0 0"/><path d="m154.042969 213.722656 9.734375-5.621094v11.238282zm0 0"/><path d="m173.511719 224.960938 9.734375-5.621094v11.242187zm0 0"/><path d="m183.246094 219.339844 9.734375-5.617188v11.238282zm0 0"/><path d="m222.183594 196.859375 9.734375-5.617187v11.238281zm0 0"/><path d="m222.183594 174.378906 9.734375-5.621094v11.242188zm0 0"/><path d="m222.183594 151.898438 9.734375-5.621094v11.242187zm0 0"/><path d="m202.714844 140.660156 9.734375-5.621094v11.238282zm0 0"/><path d="m173.511719 123.796875 9.734375-5.617187v11.238281zm0 0"/><path d="m124.839844 174.378906 9.734375-5.621094v11.242188zm0 0"/><path d="m124.839844 185.621094 9.734375-5.621094v11.242188zm0 0"/><path d="m144.308594 219.339844 9.734375-5.617188v11.238282zm0 0"/><path d="m173.511719 236.203125 9.734375-5.621094v11.238281zm0 0"/><path d="m231.917969 213.722656 9.734375-5.621094v11.238282zm0 0"/><path d="m231.917969 202.480469 9.734375-5.621094v11.242187zm0 0"/><path d="m231.917969 180 9.734375-5.621094v11.242188zm0 0"/><path d="m212.449219 135.039062 9.734375-5.621093v11.242187zm0 0"/><path d="m115.105469 191.242188 9.734375-5.621094v11.238281zm0 0"/><path d="m115.105469 202.480469 9.734375-5.621094v11.242187zm0 0"/><path d="m115.105469 213.722656 9.734375-5.621094v11.238282zm0 0"/><path d="m173.511719 247.441406 9.734375-5.621094v11.242188zm0 0"/><path d="m183.246094 241.820312 9.734375-5.617187v11.238281zm0 0"/><path d="m192.980469 236.203125 9.734375-5.621094v11.238281zm0 0"/><path d="m241.652344 208.101562 9.734375-5.621093v11.242187zm0 0"/><path d="m241.652344 196.859375 9.734375-5.617187v11.238281zm0 0"/><path d="m241.652344 140.660156 9.734375-5.621094v11.238282zm0 0"/><path d="m202.714844 118.179688 9.734375-5.621094v11.238281zm0 0"/><path d="m183.246094 106.9375 9.734375-5.621094v11.242188zm0 0"/><path d="m124.839844 230.582031 9.734375-5.621093v11.242187zm0 0"/><path d="m163.777344 253.0625 9.734375-5.621094v11.242188zm0 0"/><path d="m231.917969 224.960938 9.734375-5.621094v11.242187zm0 0"/><path d="m251.386719 168.757812 9.734375-5.617187v11.238281zm0 0"/><path d="m251.386719 146.277344 9.734375-5.617188v11.238282zm0 0"/><path d="m251.386719 135.039062 9.734375-5.621093v11.242187zm0 0"/><path d="m241.652344 129.417969 9.734375-5.621094v11.242187zm0 0"/><path d="m231.917969 123.796875 9.734375-5.617187v11.238281zm0 0"/><path d="m222.183594 118.179688 9.734375-5.621094v11.238281zm0 0"/><path d="m202.714844 106.9375 9.734375-5.621094v11.242188zm0 0"/><path d="m192.980469 101.316406 9.734375-5.617187v11.238281zm0 0"/><path d="m95.636719 191.242188 9.734375-5.621094v11.238281zm0 0"/><path d="m95.636719 224.960938 9.734375-5.621094v11.242187zm0 0"/><path d="m261.121094 196.859375 9.734375-5.617187v11.238281zm0 0"/><path d="m261.121094 163.140625 9.734375-5.621094v11.238281zm0 0"/><path d="m261.121094 140.660156 9.734375-5.621094v11.238282zm0 0"/><path d="m251.386719 123.796875 9.734375-5.617187v11.238281zm0 0"/><path d="m241.652344 118.179688 9.734375-5.621094v11.238281zm0 0"/><path d="m222.183594 106.9375 9.734375-5.621094v11.242188zm0 0"/><path d="m212.449219 101.316406 9.734375-5.617187v11.238281zm0 0"/><path d="m85.902344 230.582031 9.734375-5.621093v11.242187zm0 0"/><path d="m154.042969 269.921875 9.734375-5.621094v11.242188zm0 0"/><path d="m163.777344 275.542969 9.734375-5.621094v11.242187zm0 0"/><path d="m173.511719 281.164062 9.734375-5.621093v11.238281zm0 0"/><path d="m270.855469 157.519531 9.734375-5.621093v11.242187zm0 0"/><path d="m270.855469 123.796875 9.734375-5.617187v11.238281zm0 0"/><path d="m192.980469 78.835938 9.734375-5.617188v11.238281zm0 0"/><path d="m76.167969 236.203125 9.734375-5.621094v11.238281zm0 0"/><path d="m173.511719 292.402344 9.734375-5.621094v11.242188zm0 0"/><path d="m261.121094 241.820312 9.734375-5.617187v11.238281zm0 0"/><path d="m280.589844 208.101562 9.734375-5.621093v11.242187zm0 0"/><path d="m280.589844 118.179688 9.734375-5.621094v11.238281zm0 0"/><path d="m202.714844 73.21875 9.734375-5.621094v11.238282zm0 0"/><path d="m66.433594 241.820312 9.734375-5.617187v11.238281zm0 0"/><path d="m154.042969 292.402344 9.734375-5.621094v11.242188zm0 0"/><path d="m173.511719 303.644531 9.734375-5.621093v11.238281zm0 0"/><path d="m261.121094 253.0625 9.734375-5.621094v11.242188zm0 0"/><path d="m270.855469 247.441406 9.734375-5.621094v11.242188zm0 0"/><path d="m202.714844 185.621094-9.734375-5.621094v11.242188zm0 0"/><path d="m183.246094 196.859375-9.734375-5.617187v11.238281zm0 0"/><path d="m192.980469 191.242188-9.734375-5.621094v11.238281zm0 0"/><path d="m183.246094 151.898438-9.734375-5.621094v11.242187zm0 0"/><path d="m173.511719 157.519531-9.734375-5.621093v11.242187zm0 0"/><path d="m163.777344 174.378906-9.734375-5.621094v11.242188zm0 0"/><path d="m183.246094 208.101562-9.734375-5.621093v11.242187zm0 0"/><path d="m202.714844 196.859375-9.734375-5.617187v11.238281zm0 0"/><path d="m222.183594 185.621094-9.734375-5.621094v11.242188zm0 0"/><path d="m222.183594 174.378906-9.734375-5.621094v11.242188zm0 0"/><path d="m192.980469 146.277344-9.734375-5.617188v11.238282zm0 0"/><path d="m163.777344 151.898438-9.734375-5.621094v11.242187zm0 0"/><path d="m154.042969 157.519531-9.734375-5.621093v11.242187zm0 0"/><path d="m154.042969 168.757812-9.734375-5.617187v11.238281zm0 0"/><path d="m154.042969 191.242188-9.734375-5.621094v11.238281zm0 0"/><path d="m163.777344 208.101562-9.734375-5.621093v11.242187zm0 0"/><path d="m173.511719 213.722656-9.734375-5.621094v11.238282zm0 0"/><path d="m212.449219 202.480469-9.734375-5.621094v11.242187zm0 0"/><path d="m231.917969 202.480469-9.734375-5.621094v11.242187zm0 0"/><path d="m222.183594 151.898438-9.734375-5.621094v11.242187zm0 0"/><path d="m202.714844 140.660156-9.734375-5.621094v11.238282zm0 0"/><path d="m154.042969 146.277344-9.734375-5.617188v11.238282zm0 0"/><path d="m144.308594 151.898438-9.734375-5.621094v11.242187zm0 0"/><path d="m144.308594 208.101562-9.734375-5.621093v11.242187zm0 0"/><path d="m173.511719 224.960938-9.734375-5.621094v11.242187zm0 0"/><path d="m202.714844 219.339844-9.734375-5.617188v11.238282zm0 0"/><path d="m212.449219 213.722656-9.734375-5.621094v11.238282zm0 0"/><path d="m202.714844 129.417969-9.734375-5.621094v11.242187zm0 0"/><path d="m192.980469 123.796875-9.734375-5.617187v11.238281zm0 0"/><path d="m144.308594 140.660156-9.734375-5.621094v11.238282zm0 0"/><path d="m134.574219 146.277344-9.734375-5.617188v11.238282zm0 0"/><path d="m134.574219 157.519531-9.734375-5.621093v11.242187zm0 0"/><path d="m134.574219 168.757812-9.734375-5.617187v11.238281zm0 0"/><path d="m134.574219 180-9.734375-5.621094v11.242188zm0 0"/><path d="m134.574219 191.242188-9.734375-5.621094v11.238281zm0 0"/><path d="m212.449219 224.960938-9.734375-5.621094v11.242187zm0 0"/><path d="m222.183594 219.339844-9.734375-5.617188v11.238282zm0 0"/><path d="m231.917969 213.722656-9.734375-5.621094v11.238282zm0 0"/><path d="m251.386719 213.722656-9.734375-5.621094v11.238282zm0 0"/><path d="m251.386719 191.242188-9.734375-5.621094v11.238281zm0 0"/><path d="m251.386719 180-9.734375-5.621094v11.242188zm0 0"/><path d="m251.386719 157.519531-9.734375-5.621093v11.242187zm0 0"/><path d="m251.386719 146.277344-9.734375-5.617188v11.238282zm0 0"/><path d="m202.714844 118.179688-9.734375-5.621094v11.238281zm0 0"/><path d="m192.980469 112.558594-9.734375-5.621094v11.242188zm0 0"/><path d="m173.511719 112.558594-9.734375-5.621094v11.242188zm0 0"/><path d="m163.777344 118.179688-9.734375-5.621094v11.238281zm0 0"/><path d="m154.042969 123.796875-9.734375-5.617187v11.238281zm0 0"/><path d="m124.839844 163.140625-9.734375-5.621094v11.238281zm0 0"/><path d="m124.839844 185.621094-9.734375-5.621094v11.242188zm0 0"/><path d="m144.308594 230.582031-9.734375-5.621093v11.242187zm0 0"/><path d="m154.042969 236.203125-9.734375-5.621094v11.238281zm0 0"/><path d="m222.183594 230.582031-9.734375-5.621093v11.242187zm0 0"/><path d="m261.121094 219.339844-9.734375-5.617188v11.238282zm0 0"/><path d="m261.121094 208.101562-9.734375-5.621093v11.242187zm0 0"/><path d="m261.121094 185.621094-9.734375-5.621094v11.242188zm0 0"/><path d="m183.246094 95.699219-9.734375-5.621094v11.238281zm0 0"/><path d="m173.511719 101.316406-9.734375-5.617187v11.238281zm0 0"/><path d="m163.777344 106.9375-9.734375-5.621094v11.242188zm0 0"/><path d="m134.574219 123.796875-9.734375-5.617187v11.238281zm0 0"/><path d="m124.839844 129.417969-9.734375-5.621094v11.242187zm0 0"/><path d="m115.105469 135.039062-9.734375-5.621093v11.242187zm0 0"/><path d="m115.105469 180-9.734375-5.621094v11.242188zm0 0"/><path d="m115.105469 224.960938-9.734375-5.621094v11.242187zm0 0"/><path d="m124.839844 230.582031-9.734375-5.621093v11.242187zm0 0"/><path d="m134.574219 236.203125-9.734375-5.621094v11.238281zm0 0"/><path d="m202.714844 253.0625-9.734375-5.621094v11.242188zm0 0"/><path d="m222.183594 241.820312-9.734375-5.617187v11.238281zm0 0"/><path d="m231.917969 236.203125-9.734375-5.621094v11.238281zm0 0"/><path d="m241.652344 230.582031-9.734375-5.621093v11.242187zm0 0"/><path d="m270.855469 213.722656-9.734375-5.621094v11.238282zm0 0"/><path d="m270.855469 157.519531-9.734375-5.621093v11.242187zm0 0"/><path d="m173.511719 90.078125-9.734375-5.621094v11.242188zm0 0"/><path d="m163.777344 95.699219-9.734375-5.621094v11.238281zm0 0"/><path d="m154.042969 101.316406-9.734375-5.617187v11.238281zm0 0"/><path d="m115.105469 123.796875-9.734375-5.617187v11.238281zm0 0"/><path d="m105.371094 151.898438-9.734375-5.621094v11.242187zm0 0"/><path d="m105.371094 174.378906-9.734375-5.621094v11.242188zm0 0"/><path d="m115.105469 236.203125-9.734375-5.621094v11.238281zm0 0"/><path d="m124.839844 241.820312-9.734375-5.617187v11.238281zm0 0"/><path d="m154.042969 258.683594-9.734375-5.621094v11.238281zm0 0"/><path d="m163.777344 264.300781-9.734375-5.617187v11.238281zm0 0"/><path d="m202.714844 264.300781-9.734375-5.617187v11.238281zm0 0"/><path d="m222.183594 253.0625-9.734375-5.621094v11.242188zm0 0"/><path d="m241.652344 241.820312-9.734375-5.617187v11.238281zm0 0"/><path d="m280.589844 230.582031-9.734375-5.621093v11.242187zm0 0"/><path d="m280.589844 208.101562-9.734375-5.621093v11.242187zm0 0"/><path d="m192.980469 78.835938-9.734375-5.617188v11.238281zm0 0"/><path d="m183.246094 73.21875-9.734375-5.621094v11.238282zm0 0"/><path d="m173.511719 78.835938-9.734375-5.617188v11.238281zm0 0"/><path d="m163.777344 84.457031-9.734375-5.621093v11.242187zm0 0"/><path d="m154.042969 90.078125-9.734375-5.621094v11.242188zm0 0"/><path d="m144.308594 95.699219-9.734375-5.621094v11.238281zm0 0"/><path d="m95.636719 123.796875-9.734375-5.617187v11.238281zm0 0"/><path d="m95.636719 135.039062-9.734375-5.621093v11.242187zm0 0"/><path d="m95.636719 146.277344-9.734375-5.617188v11.238282zm0 0"/><path d="m95.636719 191.242188-9.734375-5.621094v11.238281zm0 0"/><path d="m95.636719 202.480469-9.734375-5.621094v11.242187zm0 0"/><path d="m95.636719 224.960938-9.734375-5.621094v11.242187zm0 0"/><path d="m105.371094 241.820312-9.734375-5.617187v11.238281zm0 0"/><path d="m115.105469 247.441406-9.734375-5.621094v11.242188zm0 0"/><path d="m144.308594 264.300781-9.734375-5.617187v11.238281zm0 0"/><path d="m163.777344 275.542969-9.734375-5.621094v11.242187zm0 0"/><path d="m192.980469 281.164062-9.734375-5.621093v11.238281zm0 0"/><path d="m202.714844 275.542969-9.734375-5.621094v11.242187zm0 0"/><path d="m212.449219 269.921875-9.734375-5.621094v11.242188zm0 0"/><path d="m222.183594 264.300781-9.734375-5.617187v11.238281zm0 0"/><path d="m290.324219 236.203125-9.734375-5.621094v11.238281zm0 0"/><path d="m290.324219 224.960938-9.734375-5.621094v11.242187zm0 0"/><path d="m290.324219 213.722656-9.734375-5.621094v11.238282zm0 0"/><path d="m202.714844 73.21875-9.734375-5.621094v11.238282zm0 0"/><path d="m192.980469 67.597656-9.734375-5.621094v11.242188zm0 0"/><path d="m183.246094 61.976562-9.734375-5.621093v11.242187zm0 0"/><path d="m154.042969 78.835938-9.734375-5.617188v11.238281zm0 0"/><path d="m134.574219 90.078125-9.734375-5.621094v11.242188zm0 0"/><path d="m115.105469 101.316406-9.734375-5.617187v11.238281zm0 0"/><path d="m105.371094 106.9375-9.734375-5.621094v11.242188zm0 0"/><path d="m95.636719 112.558594-9.734375-5.621094v11.242188zm0 0"/><path d="m85.902344 129.417969-9.734375-5.621094v11.242187zm0 0"/><path d="m85.902344 151.898438-9.734375-5.621094v11.242187zm0 0"/><path d="m85.902344 163.140625-9.734375-5.621094v11.238281zm0 0"/><path d="m85.902344 196.859375-9.734375-5.617187v11.238281zm0 0"/><path d="m85.902344 219.339844-9.734375-5.617188v11.238282zm0 0"/><path d="m134.574219 269.921875-9.734375-5.621094v11.242188zm0 0"/><path d="m192.980469 292.402344-9.734375-5.621094v11.242188zm0 0"/><path d="m251.386719 258.683594-9.734375-5.621094v11.238281zm0 0"/><path d="m261.121094 253.0625-9.734375-5.621094v11.242188zm0 0"/><path d="m173.511719 56.355469-9.734375-5.617188v11.238281zm0 0"/><path d="m154.042969 67.597656-9.734375-5.621094v11.242188zm0 0"/><path d="m144.308594 73.21875-9.734375-5.621094v11.238282zm0 0"/><path d="m134.574219 78.835938-9.734375-5.617188v11.238281zm0 0"/><path d="m124.839844 84.457031-9.734375-5.621093v11.242187zm0 0"/><path d="m115.105469 90.078125-9.734375-5.621094v11.242188zm0 0"/><path d="m105.371094 95.699219-9.734375-5.621094v11.238281zm0 0"/><path d="m85.902344 106.9375-9.734375-5.621094v11.242188zm0 0"/><path d="m76.167969 146.277344-9.734375-5.617188v11.238282zm0 0"/><path d="m76.167969 236.203125-9.734375-5.621094v11.238281zm0 0"/><path d="m85.902344 253.0625-9.734375-5.621094v11.242188zm0 0"/><path d="m95.636719 258.683594-9.734375-5.621094v11.238281zm0 0"/><path d="m105.371094 264.300781-9.734375-5.617187v11.238281zm0 0"/><path d="m115.105469 269.921875-9.734375-5.621094v11.242188zm0 0"/><path d="m124.839844 275.542969-9.734375-5.621094v11.242187zm0 0"/><path d="m134.574219 281.164062-9.734375-5.621093v11.238281zm0 0"/><path d="m144.308594 286.78125-9.734375-5.617188v11.238282zm0 0"/><path d="m154.042969 292.402344-9.734375-5.621094v11.242188zm0 0"/><path d="m192.980469 303.644531-9.734375-5.621093v11.238281zm0 0"/><path d="m270.855469 258.683594-9.734375-5.621094v11.238281zm0 0"/></g></svg>