<svg height="360pt" viewBox="0 0 360 360" width="360pt" xmlns="http://www.w3.org/2000/svg"><path d="m0 0h360v360h-360z" fill="#fff"/><g fill="#800080"><path d="m177.433594 175.558594 3.847656-2.222656v4.441406zm0 0"/><path d="m173.585938 177.777344 3.847656-2.21875v4.441406zm0 0"/><path d="m185.128906 184.441406 3.851563-2.21875v4.441406zm0 0"/><path d="m185.128906 175.558594 3.851563-2.222656v4.441406zm0 0"/><path d="m181.28125 173.335938 3.847656-2.222657v4.445313zm0 0"/><path d="m169.738281 180 3.847657-2.222656v4.445312zm0 0"/><path d="m181.28125 186.664062 3.847656-2.222656v4.445313zm0 0"/><path d="m188.980469 186.664062 3.847656-2.222656v4.445313zm0 0"/><path d="m188.980469 182.222656 3.847656-2.222656v4.441406zm0 0"/><path d="m188.980469 173.335938 3.847656-2.222657v4.445313zm0 0"/><path d="m185.128906 171.113281 3.851563-2.222656v4.445313zm0 0"/><path d="m181.28125 168.890625 3.847656-2.21875v4.441406zm0 0"/><path d="m177.433594 166.671875 3.847656-2.222656v4.441406zm0 0"/><path d="m165.890625 177.777344 3.847656-2.21875v4.441406zm0 0"/><path d="m165.890625 182.222656 3.847656-2.222656v4.441406zm0 0"/><path d="m173.585938 191.109375 3.847656-2.222656v4.441406zm0 0"/><path d="m177.433594 193.328125 3.847656-2.21875v4.441406zm0 0"/><path d="m185.128906 188.886719 3.851563-2.222657v4.445313zm0 0"/><path d="m192.828125 188.886719 3.847656-2.222657v4.445313zm0 0"/><path d="m192.828125 175.558594 3.847656-2.222656v4.441406zm0 0"/><path d="m192.828125 171.113281 3.847656-2.222656v4.445313zm0 0"/><path d="m181.28125 164.449219 3.847656-2.222657v4.445313zm0 0"/><path d="m173.585938 164.449219 3.847656-2.222657v4.445313zm0 0"/><path d="m169.738281 166.671875 3.847657-2.222656v4.441406zm0 0"/><path d="m162.042969 171.113281 3.847656-2.222656v4.445313zm0 0"/><path d="m162.042969 175.558594 3.847656-2.222656v4.441406zm0 0"/><path d="m162.042969 184.441406 3.847656-2.21875v4.441406zm0 0"/><path d="m162.042969 188.886719 3.847656-2.222657v4.445313zm0 0"/><path d="m165.890625 191.109375 3.847656-2.222656v4.441406zm0 0"/><path d="m173.585938 195.550781 3.847656-2.222656v4.445313zm0 0"/><path d="m181.28125 195.550781 3.847656-2.222656v4.445313zm0 0"/><path d="m185.128906 193.328125 3.851563-2.21875v4.441406zm0 0"/><path d="m285.179688 242.207031 3.847656-2.222656v4.445313zm0 0"/><path d="m285.179688 117.792969 3.847656-2.222657v4.445313zm0 0"/><path d="m69.691406 117.792969 3.847656-2.222657v4.445313zm0 0"/><path d="m69.691406 242.207031 3.847656-2.222656v4.445313zm0 0"/><path d="m289.027344 120.015625 3.847656-2.222656v4.445312zm0 0"/><path d="m285.179688 113.351562 3.847656-2.222656v4.441406zm0 0"/><path d="m181.28125 53.367188 3.847656-2.222657v4.441407zm0 0"/><path d="m177.433594 51.144531 3.847656-2.222656v4.445313zm0 0"/><path d="m173.585938 53.367188 3.847656-2.222657v4.441407zm0 0"/><path d="m65.84375 115.570312 3.847656-2.21875v4.441407zm0 0"/><path d="m65.84375 244.429688 3.847656-2.222657v4.441407zm0 0"/><path d="m69.691406 246.648438 3.847656-2.21875v4.441406zm0 0"/><path d="m173.585938 306.632812 3.847656-2.21875v4.441407zm0 0"/><path d="m177.433594 308.855469 3.847656-2.222657v4.445313zm0 0"/><path d="m181.28125 306.632812 3.847656-2.21875v4.441407zm0 0"/><path d="m285.179688 246.648438 3.847656-2.21875v4.441406zm0 0"/><path d="m292.875 237.761719 3.847656-2.21875v4.441406zm0 0"/><path d="m289.027344 111.128906 3.847656-2.222656v4.445312zm0 0"/><path d="m185.128906 51.144531 3.851563-2.222656v4.445313zm0 0"/><path d="m173.585938 48.921875 3.847656-2.222656v4.445312zm0 0"/><path d="m65.84375 111.128906 3.847656-2.222656v4.445312zm0 0"/><path d="m61.992188 113.351562 3.851562-2.222656v4.441406zm0 0"/><path d="m61.992188 117.792969 3.851562-2.222657v4.445313zm0 0"/><path d="m61.992188 122.238281 3.851562-2.222656v4.441406zm0 0"/><path d="m61.992188 242.207031 3.851562-2.222656v4.445313zm0 0"/><path d="m61.992188 246.648438 3.851562-2.21875v4.441406zm0 0"/><path d="m169.738281 308.855469 3.847657-2.222657v4.445313zm0 0"/><path d="m181.28125 311.078125 3.847656-2.222656v4.445312zm0 0"/><path d="m289.027344 248.871094 3.847656-2.222656v4.445312zm0 0"/><path d="m296.722656 248.871094 3.847656-2.222656v4.445312zm0 0"/><path d="m296.722656 235.542969 3.847656-2.222657v4.441407zm0 0"/><path d="m296.722656 124.457031 3.847656-2.21875v4.441407zm0 0"/><path d="m296.722656 120.015625 3.847656-2.222656v4.445312zm0 0"/><path d="m292.875 108.90625 3.847656-2.222656v4.445312zm0 0"/><path d="m289.027344 106.683594 3.847656-2.21875v4.441406zm0 0"/><path d="m285.179688 104.464844 3.847656-2.222656v4.441406zm0 0"/><path d="m185.128906 46.699219 3.851563-2.21875v4.441406zm0 0"/><path d="m181.28125 44.480469 3.847656-2.222657v4.441407zm0 0"/><path d="m165.890625 48.921875 3.847656-2.222656v4.445312zm0 0"/><path d="m69.691406 104.464844 3.847656-2.222656v4.441406zm0 0"/><path d="m58.144531 115.570312 3.847657-2.21875v4.441407zm0 0"/><path d="m58.144531 124.457031 3.847657-2.21875v4.441407zm0 0"/><path d="m58.144531 235.542969 3.847657-2.222657v4.441407zm0 0"/><path d="m58.144531 239.984375 3.847657-2.222656v4.445312zm0 0"/><path d="m58.144531 244.429688 3.847657-2.222657v4.441407zm0 0"/><path d="m65.84375 253.316406 3.847656-2.222656v4.441406zm0 0"/><path d="m177.433594 317.742188 3.847656-2.222657v4.445313zm0 0"/><path d="m181.28125 315.519531 3.847656-2.21875v4.441407zm0 0"/><path d="m185.128906 313.300781 3.851563-2.222656v4.441406zm0 0"/><path d="m285.179688 255.535156 3.847656-2.21875v4.441406zm0 0"/><path d="m289.027344 253.316406 3.847656-2.222656v4.441406zm0 0"/><path d="m292.875 251.09375 3.847656-2.222656v4.445312zm0 0"/><path d="m300.570312 246.648438 3.847657-2.21875v4.441406zm0 0"/><path d="m300.570312 237.761719 3.847657-2.21875v4.441406zm0 0"/><path d="m300.570312 122.238281 3.847657-2.222656v4.441406zm0 0"/><path d="m296.722656 106.683594 3.847656-2.21875v4.441406zm0 0"/><path d="m285.179688 100.019531 3.847656-2.222656v4.445313zm0 0"/><path d="m192.828125 46.699219 3.847656-2.21875v4.441406zm0 0"/><path d="m188.980469 44.480469 3.847656-2.222657v4.441407zm0 0"/><path d="m185.128906 42.257812 3.851563-2.222656v4.445313zm0 0"/><path d="m162.042969 46.699219 3.847656-2.21875v4.441406zm0 0"/><path d="m69.691406 100.019531 3.847656-2.222656v4.445313zm0 0"/><path d="m65.84375 102.242188 3.847656-2.222657v4.445313zm0 0"/><path d="m61.992188 104.464844 3.851562-2.222656v4.441406zm0 0"/><path d="m54.296875 122.238281 3.847656-2.222656v4.441406zm0 0"/><path d="m54.296875 237.761719 3.847656-2.21875v4.441406zm0 0"/><path d="m54.296875 246.648438 3.847656-2.21875v4.441406zm0 0"/><path d="m61.992188 255.535156 3.851562-2.21875v4.441406zm0 0"/><path d="m65.84375 257.757812 3.847656-2.222656v4.445313zm0 0"/><path d="m69.691406 259.980469 3.847656-2.222657v4.445313zm0 0"/><path d="m162.042969 313.300781 3.847656-2.222656v4.441406zm0 0"/><path d="m173.585938 319.964844 3.847656-2.222656v4.445312zm0 0"/><path d="m185.128906 317.742188 3.851563-2.222657v4.445313zm0 0"/><path d="m188.980469 315.519531 3.847656-2.21875v4.441407zm0 0"/><path d="m192.828125 313.300781 3.847656-2.222656v4.441406zm0 0"/><path d="m285.179688 259.980469 3.847656-2.222657v4.445313zm0 0"/><path d="m304.417969 244.429688 3.847656-2.222657v4.441407zm0 0"/><path d="m304.417969 239.984375 3.847656-2.222656v4.445312zm0 0"/><path d="m304.417969 235.542969 3.847656-2.222657v4.441407zm0 0"/><path d="m304.417969 124.457031 3.847656-2.21875v4.441407zm0 0"/><path d="m304.417969 115.570312 3.847656-2.21875v4.441407zm0 0"/><path d="m300.570312 104.464844 3.847657-2.222656v4.441406zm0 0"/><path d="m188.980469 40.035156 3.847656-2.222656v4.445312zm0 0"/><path d="m177.433594 33.371094 3.847656-2.222656v4.445312zm0 0"/><path d="m173.585938 35.59375 3.847656-2.222656v4.441406zm0 0"/><path d="m169.738281 37.8125 3.847657-2.21875v4.441406zm0 0"/><path d="m165.890625 40.035156 3.847656-2.222656v4.445312zm0 0"/><path d="m162.042969 42.257812 3.847656-2.222656v4.445313zm0 0"/><path d="m61.992188 100.019531 3.851562-2.222656v4.445313zm0 0"/><path d="m58.144531 102.242188 3.847657-2.222657v4.445313zm0 0"/><path d="m54.296875 104.464844 3.847656-2.222656v4.441406zm0 0"/><path d="m50.449219 106.683594 3.847656-2.21875v4.441406zm0 0"/><path d="m50.449219 120.015625 3.847656-2.222656v4.445312zm0 0"/><path d="m50.449219 124.457031 3.847656-2.21875v4.441407zm0 0"/><path d="m50.449219 235.542969 3.847656-2.222657v4.441407zm0 0"/><path d="m50.449219 248.871094 3.847656-2.222656v4.445312zm0 0"/><path d="m58.144531 257.757812 3.847657-2.222656v4.445313zm0 0"/><path d="m61.992188 259.980469 3.851562-2.222657v4.445313zm0 0"/><path d="m162.042969 317.742188 3.847656-2.222657v4.445313zm0 0"/><path d="m165.890625 319.964844 3.847656-2.222656v4.445312zm0 0"/><path d="m169.738281 322.1875 3.847657-2.222656v4.441406zm0 0"/><path d="m192.828125 317.742188 3.847656-2.222657v4.445313zm0 0"/><path d="m289.027344 262.203125 3.847656-2.222656v4.441406zm0 0"/><path d="m308.265625 255.535156 3.851563-2.21875v4.441406zm0 0"/><path d="m308.265625 246.648438 3.851563-2.21875v4.441406zm0 0"/><path d="m308.265625 242.207031 3.851563-2.222656v4.445313zm0 0"/><path d="m308.265625 122.238281 3.851563-2.222656v4.441406zm0 0"/><path d="m308.265625 117.792969 3.851563-2.222657v4.445313zm0 0"/><path d="m308.265625 113.351562 3.851563-2.222656v4.441406zm0 0"/><path d="m308.265625 104.464844 3.851563-2.222656v4.441406zm0 0"/><path d="m304.417969 102.242188 3.847656-2.222657v4.445313zm0 0"/><path d="m292.875 95.578125 3.847656-2.222656v4.441406zm0 0"/><path d="m185.128906 33.371094 3.851563-2.222656v4.445312zm0 0"/><path d="m181.28125 31.148438 3.847656-2.222657v4.445313zm0 0"/><path d="m165.890625 35.59375 3.847656-2.222656v4.441406zm0 0"/><path d="m58.144531 97.796875 3.847657-2.21875v4.441406zm0 0"/><path d="m46.601562 108.90625 3.847657-2.222656v4.445312zm0 0"/><path d="m46.601562 237.761719 3.847657-2.21875v4.441406zm0 0"/><path d="m46.601562 251.09375 3.847657-2.222656v4.445312zm0 0"/><path d="m61.992188 264.421875 3.851562-2.21875v4.441406zm0 0"/><path d="m165.890625 324.40625 3.847656-2.21875v4.441406zm0 0"/><path d="m181.28125 328.851562 3.847656-2.222656v4.445313zm0 0"/><path d="m185.128906 326.628906 3.851563-2.222656v4.445312zm0 0"/><path d="m188.980469 324.40625 3.847656-2.21875v4.441406zm0 0"/><path d="m296.722656 262.203125 3.847656-2.222656v4.441406zm0 0"/><path d="m304.417969 257.757812 3.847656-2.222656v4.445313zm0 0"/><path d="m312.117188 257.757812 3.847656-2.222656v4.445313zm0 0"/><path d="m312.117188 253.316406 3.847656-2.222656v4.441406zm0 0"/><path d="m312.117188 244.429688 3.847656-2.222657v4.441407zm0 0"/><path d="m312.117188 115.570312 3.847656-2.21875v4.441407zm0 0"/><path d="m312.117188 111.128906 3.847656-2.222656v4.445312zm0 0"/><path d="m312.117188 102.242188 3.847656-2.222657v4.445313zm0 0"/><path d="m308.265625 100.019531 3.851563-2.222656v4.445313zm0 0"/><path d="m304.417969 97.796875 3.847656-2.21875v4.441406zm0 0"/><path d="m300.570312 95.578125 3.847657-2.222656v4.441406zm0 0"/><path d="m296.722656 93.355469 3.847656-2.222657v4.445313zm0 0"/><path d="m192.828125 33.371094 3.847656-2.222656v4.445312zm0 0"/><path d="m188.980469 31.148438 3.847656-2.222657v4.445313zm0 0"/><path d="m185.128906 28.925781 3.851563-2.21875v4.441407zm0 0"/><path d="m181.28125 26.707031 3.847656-2.222656v4.441406zm0 0"/><path d="m177.433594 24.484375 3.847656-2.222656v4.445312zm0 0"/><path d="m162.042969 33.371094 3.847656-2.222656v4.445312zm0 0"/><path d="m58.144531 93.355469 3.847657-2.222657v4.445313zm0 0"/><path d="m54.296875 95.578125 3.847656-2.222656v4.441406zm0 0"/><path d="m42.753906 106.683594 3.847656-2.21875v4.441406zm0 0"/><path d="m42.753906 111.128906 3.847656-2.222656v4.445312zm0 0"/><path d="m42.753906 120.015625 3.847656-2.222656v4.445312zm0 0"/><path d="m42.753906 248.871094 3.847656-2.222656v4.445312zm0 0"/><path d="m42.753906 253.316406 3.847656-2.222656v4.441406zm0 0"/><path d="m50.449219 262.203125 3.847656-2.222656v4.441406zm0 0"/><path d="m54.296875 264.421875 3.847656-2.21875v4.441406zm0 0"/><path d="m58.144531 266.644531 3.847657-2.222656v4.445313zm0 0"/><path d="m162.042969 326.628906 3.847656-2.222656v4.445312zm0 0"/><path d="m173.585938 333.292969 3.847656-2.21875v4.441406zm0 0"/><path d="m177.433594 335.515625 3.847656-2.222656v4.445312zm0 0"/><path d="m185.128906 331.074219 3.851563-2.222657v4.441407zm0 0"/><path d="m188.980469 328.851562 3.847656-2.222656v4.445313zm0 0"/><path d="m296.722656 266.644531 3.847656-2.222656v4.445313zm0 0"/><path d="m300.570312 264.421875 3.847657-2.21875v4.441406zm0 0"/><path d="m308.265625 259.980469 3.851563-2.222657v4.445313zm0 0"/><path d="m315.964844 259.980469 3.847656-2.222657v4.445313zm0 0"/><path d="m315.964844 246.648438 3.847656-2.21875v4.441406zm0 0"/><path d="m315.964844 242.207031 3.847656-2.222656v4.445313zm0 0"/><path d="m315.964844 117.792969 3.847656-2.222657v4.445313zm0 0"/><path d="m315.964844 104.464844 3.847656-2.222656v4.441406zm0 0"/><path d="m315.964844 100.019531 3.847656-2.222656v4.445313zm0 0"/><path d="m304.417969 93.355469 3.847656-2.222657v4.445313zm0 0"/><path d="m192.828125 28.925781 3.847656-2.21875v4.441407zm0 0"/><path d="m181.28125 22.261719 3.847656-2.222657v4.445313zm0 0"/><path d="m173.585938 22.261719 3.847656-2.222657v4.445313zm0 0"/><path d="m169.738281 24.484375 3.847657-2.222656v4.445312zm0 0"/><path d="m162.042969 28.925781 3.847656-2.21875v4.441407zm0 0"/><path d="m50.449219 93.355469 3.847656-2.222657v4.445313zm0 0"/><path d="m46.601562 95.578125 3.847657-2.222656v4.441406zm0 0"/><path d="m38.90625 100.019531 3.847656-2.222656v4.445313zm0 0"/><path d="m38.90625 104.464844 3.847656-2.222656v4.441406zm0 0"/><path d="m38.90625 113.351562 3.847656-2.222656v4.441406zm0 0"/><path d="m38.90625 117.792969 3.847656-2.222657v4.445313zm0 0"/><path d="m38.90625 242.207031 3.847656-2.222656v4.445313zm0 0"/><path d="m38.90625 246.648438 3.847656-2.21875v4.441406zm0 0"/><path d="m38.90625 255.535156 3.847656-2.21875v4.441406zm0 0"/><path d="m38.90625 259.980469 3.847656-2.222657v4.445313zm0 0"/><path d="m42.753906 262.203125 3.847656-2.222656v4.441406zm0 0"/><path d="m50.449219 266.644531 3.847656-2.222656v4.445313zm0 0"/><path d="m162.042969 331.074219 3.847656-2.222657v4.441407zm0 0"/><path d="m165.890625 333.292969 3.847656-2.21875v4.441406zm0 0"/><path d="m173.585938 337.738281 3.847656-2.222656v4.445313zm0 0"/><path d="m181.28125 337.738281 3.847656-2.222656v4.445313zm0 0"/><path d="m185.128906 335.515625 3.851563-2.222656v4.445312zm0 0"/><path d="m192.828125 331.074219 3.847656-2.222657v4.441407zm0 0"/><path d="m304.417969 266.644531 3.847656-2.222656v4.445313zm0 0"/><path d="m308.265625 264.421875 3.851563-2.21875v4.441406zm0 0"/><path d="m181.28125 177.777344-3.847656-2.21875v4.441406zm0 0"/><path d="m181.28125 182.222656-3.847656-2.222656v4.441406zm0 0"/><path d="m188.980469 177.777344-3.851563-2.21875v4.441406zm0 0"/><path d="m185.128906 175.558594-3.847656-2.222656v4.441406zm0 0"/><path d="m181.28125 173.335938-3.847656-2.222657v4.445313zm0 0"/><path d="m177.433594 175.558594-3.847656-2.222656v4.441406zm0 0"/><path d="m177.433594 180-3.847656-2.222656v4.445312zm0 0"/><path d="m177.433594 184.441406-3.847656-2.21875v4.441406zm0 0"/><path d="m185.128906 184.441406-3.847656-2.21875v4.441406zm0 0"/><path d="m188.980469 173.335938-3.851563-2.222657v4.445313zm0 0"/><path d="m173.585938 182.222656-3.847657-2.222656v4.441406zm0 0"/><path d="m181.28125 191.109375-3.847656-2.222656v4.441406zm0 0"/><path d="m185.128906 188.886719-3.847656-2.222657v4.445313zm0 0"/><path d="m188.980469 186.664062-3.851563-2.222656v4.445313zm0 0"/><path d="m196.675781 182.222656-3.847656-2.222656v4.441406zm0 0"/><path d="m192.828125 171.113281-3.847656-2.222656v4.445313zm0 0"/><path d="m188.980469 168.890625-3.851563-2.21875v4.441406zm0 0"/><path d="m185.128906 166.671875-3.847656-2.222656v4.441406zm0 0"/><path d="m169.738281 184.441406-3.847656-2.21875v4.441406zm0 0"/><path d="m181.28125 195.550781-3.847656-2.222656v4.445313zm0 0"/><path d="m192.828125 188.886719-3.847656-2.222657v4.445313zm0 0"/><path d="m181.28125 53.367188-3.847656-2.222657v4.441407zm0 0"/><path d="m292.875 113.351562-3.847656-2.222656v4.441406zm0 0"/><path d="m181.28125 48.921875-3.847656-2.222656v4.445312zm0 0"/><path d="m73.539062 111.128906-3.847656-2.222656v4.445312zm0 0"/><path d="m69.691406 117.792969-3.847656-2.222657v4.445313zm0 0"/><path d="m69.691406 242.207031-3.847656-2.222656v4.445313zm0 0"/><path d="m185.128906 308.855469-3.847656-2.222657v4.445313zm0 0"/><path d="m300.570312 246.648438-3.847656-2.21875v4.441406zm0 0"/><path d="m300.570312 113.351562-3.847656-2.222656v4.441406zm0 0"/><path d="m296.722656 111.128906-3.847656-2.222656v4.445312zm0 0"/><path d="m185.128906 46.699219-3.847656-2.21875v4.441406zm0 0"/><path d="m65.84375 115.570312-3.851562-2.21875v4.441407zm0 0"/><path d="m65.84375 239.984375-3.851562-2.222656v4.445312zm0 0"/><path d="m65.84375 244.429688-3.851562-2.222657v4.441407zm0 0"/><path d="m65.84375 248.871094-3.851562-2.222656v4.445312zm0 0"/><path d="m73.539062 253.316406-3.847656-2.222656v4.441406zm0 0"/><path d="m181.28125 315.519531-3.847656-2.21875v4.441407zm0 0"/><path d="m188.980469 311.078125-3.851563-2.222656v4.445312zm0 0"/><path d="m304.417969 248.871094-3.847657-2.222656v4.445312zm0 0"/><path d="m304.417969 244.429688-3.847657-2.222657v4.441407zm0 0"/><path d="m304.417969 124.457031-3.847657-2.21875v4.441407zm0 0"/><path d="m304.417969 120.015625-3.847657-2.222656v4.445312zm0 0"/><path d="m304.417969 111.128906-3.847657-2.222656v4.445312zm0 0"/><path d="m300.570312 108.90625-3.847656-2.222656v4.445312zm0 0"/><path d="m192.828125 46.699219-3.847656-2.21875v4.441406zm0 0"/><path d="m188.980469 44.480469-3.851563-2.222657v4.441407zm0 0"/><path d="m185.128906 42.257812-3.847656-2.222656v4.445313zm0 0"/><path d="m181.28125 40.035156-3.847656-2.222656v4.445312zm0 0"/><path d="m177.433594 42.257812-3.847656-2.222656v4.445313zm0 0"/><path d="m65.84375 106.683594-3.851562-2.21875v4.441406zm0 0"/><path d="m61.992188 113.351562-3.847657-2.222656v4.441406zm0 0"/><path d="m61.992188 117.792969-3.847657-2.222657v4.445313zm0 0"/><path d="m61.992188 237.761719-3.847657-2.21875v4.441406zm0 0"/><path d="m61.992188 246.648438-3.847657-2.21875v4.441406zm0 0"/><path d="m177.433594 317.742188-3.847656-2.222657v4.445313zm0 0"/><path d="m181.28125 319.964844-3.847656-2.222656v4.445312zm0 0"/><path d="m185.128906 317.742188-3.847656-2.222657v4.445313zm0 0"/><path d="m188.980469 315.519531-3.851563-2.21875v4.441407zm0 0"/><path d="m192.828125 313.300781-3.847656-2.222656v4.441406zm0 0"/><path d="m292.875 255.535156-3.847656-2.21875v4.441406zm0 0"/><path d="m296.722656 253.316406-3.847656-2.222656v4.441406zm0 0"/><path d="m300.570312 251.09375-3.847656-2.222656v4.445312zm0 0"/><path d="m308.265625 246.648438-3.847656-2.21875v4.441406zm0 0"/><path d="m308.265625 237.761719-3.847656-2.21875v4.441406zm0 0"/><path d="m308.265625 117.792969-3.847656-2.222657v4.445313zm0 0"/><path d="m308.265625 113.351562-3.847656-2.222656v4.441406zm0 0"/><path d="m304.417969 106.683594-3.847657-2.21875v4.441406zm0 0"/><path d="m300.570312 104.464844-3.847656-2.222656v4.441406zm0 0"/><path d="m181.28125 35.59375-3.847656-2.222656v4.441406zm0 0"/><path d="m177.433594 37.8125-3.847656-2.21875v4.441406zm0 0"/><path d="m173.585938 40.035156-3.847657-2.222656v4.445312zm0 0"/><path d="m169.738281 42.257812-3.847656-2.222656v4.445313zm0 0"/><path d="m69.691406 100.019531-3.847656-2.222656v4.445313zm0 0"/><path d="m65.84375 102.242188-3.851562-2.222657v4.445313zm0 0"/><path d="m61.992188 104.464844-3.847657-2.222656v4.441406zm0 0"/><path d="m58.144531 106.683594-3.847656-2.21875v4.441406zm0 0"/><path d="m58.144531 111.128906-3.847656-2.222656v4.445312zm0 0"/><path d="m58.144531 120.015625-3.847656-2.222656v4.445312zm0 0"/><path d="m58.144531 124.457031-3.847656-2.21875v4.441407zm0 0"/><path d="m58.144531 244.429688-3.847656-2.222657v4.441407zm0 0"/><path d="m58.144531 248.871094-3.847656-2.222656v4.445312zm0 0"/><path d="m58.144531 253.316406-3.847656-2.222656v4.441406zm0 0"/><path d="m61.992188 255.535156-3.847657-2.21875v4.441406zm0 0"/><path d="m65.84375 257.757812-3.851562-2.222656v4.445313zm0 0"/><path d="m69.691406 259.980469-3.847656-2.222657v4.445313zm0 0"/><path d="m177.433594 322.1875-3.847656-2.222656v4.441406zm0 0"/><path d="m181.28125 324.40625-3.847656-2.21875v4.441406zm0 0"/><path d="m188.980469 319.964844-3.851563-2.222656v4.445312zm0 0"/><path d="m300.570312 255.535156-3.847656-2.21875v4.441406zm0 0"/><path d="m304.417969 253.316406-3.847657-2.222656v4.441406zm0 0"/><path d="m312.117188 248.871094-3.851563-2.222656v4.445312zm0 0"/><path d="m312.117188 244.429688-3.851563-2.222657v4.441407zm0 0"/><path d="m312.117188 239.984375-3.851563-2.222656v4.445312zm0 0"/><path d="m312.117188 115.570312-3.851563-2.21875v4.441407zm0 0"/><path d="m312.117188 106.683594-3.851563-2.21875v4.441406zm0 0"/><path d="m308.265625 104.464844-3.847656-2.222656v4.441406zm0 0"/><path d="m304.417969 102.242188-3.847657-2.222657v4.445313zm0 0"/><path d="m196.675781 40.035156-3.847656-2.222656v4.445312zm0 0"/><path d="m188.980469 35.59375-3.851563-2.222656v4.441406zm0 0"/><path d="m185.128906 33.371094-3.847656-2.222656v4.445312zm0 0"/><path d="m181.28125 31.148438-3.847656-2.222657v4.445313zm0 0"/><path d="m177.433594 33.371094-3.847656-2.222656v4.445312zm0 0"/><path d="m65.84375 97.796875-3.851562-2.21875v4.441406zm0 0"/><path d="m58.144531 102.242188-3.847656-2.222657v4.445313zm0 0"/><path d="m54.296875 104.464844-3.847656-2.222656v4.441406zm0 0"/><path d="m54.296875 108.90625-3.847656-2.222656v4.445312zm0 0"/><path d="m54.296875 113.351562-3.847656-2.222656v4.441406zm0 0"/><path d="m54.296875 246.648438-3.847656-2.21875v4.441406zm0 0"/><path d="m54.296875 251.09375-3.847656-2.222656v4.445312zm0 0"/><path d="m54.296875 255.535156-3.847656-2.21875v4.441406zm0 0"/><path d="m61.992188 259.980469-3.847657-2.222657v4.445313zm0 0"/><path d="m173.585938 324.40625-3.847657-2.21875v4.441406zm0 0"/><path d="m177.433594 326.628906-3.847656-2.222656v4.445312zm0 0"/><path d="m185.128906 326.628906-3.847656-2.222656v4.445312zm0 0"/><path d="m308.265625 255.535156-3.847656-2.21875v4.441406zm0 0"/><path d="m315.964844 242.207031-3.847656-2.222656v4.445313zm0 0"/><path d="m315.964844 117.792969-3.847656-2.222657v4.445313zm0 0"/><path d="m312.117188 102.242188-3.851563-2.222657v4.445313zm0 0"/><path d="m188.980469 31.148438-3.851563-2.222657v4.445313zm0 0"/><path d="m61.992188 95.578125-3.847657-2.222656v4.441406zm0 0"/><path d="m50.449219 111.128906-3.847657-2.222656v4.445312zm0 0"/><path d="m50.449219 253.316406-3.847657-2.222656v4.441406zm0 0"/><path d="m58.144531 262.203125-3.847656-2.222656v4.441406zm0 0"/><path d="m169.738281 326.628906-3.847656-2.222656v4.445312zm0 0"/><path d="m181.28125 333.292969-3.847656-2.21875v4.441406zm0 0"/><path d="m185.128906 331.074219-3.847656-2.222657v4.441407zm0 0"/><path d="m188.980469 328.851562-3.851563-2.222656v4.445313zm0 0"/><path d="m196.675781 324.40625-3.847656-2.21875v4.441406zm0 0"/><path d="m304.417969 262.203125-3.847657-2.222656v4.441406zm0 0"/><path d="m308.265625 259.980469-3.847656-2.222657v4.445313zm0 0"/><path d="m312.117188 257.757812-3.851563-2.222656v4.445313zm0 0"/><path d="m319.8125 253.316406-3.847656-2.222656v4.441406zm0 0"/><path d="m319.8125 111.128906-3.847656-2.222656v4.445312zm0 0"/><path d="m315.964844 100.019531-3.847656-2.222656v4.445313zm0 0"/><path d="m312.117188 97.796875-3.851563-2.21875v4.441406zm0 0"/><path d="m308.265625 95.578125-3.847656-2.222656v4.441406zm0 0"/><path d="m192.828125 28.925781-3.847656-2.21875v4.441407zm0 0"/><path d="m188.980469 26.707031-3.851563-2.222656v4.441406zm0 0"/><path d="m185.128906 24.484375-3.847656-2.222656v4.445312zm0 0"/><path d="m46.601562 113.351562-3.847656-2.222656v4.441406zm0 0"/><path d="m46.601562 255.535156-3.847656-2.21875v4.441406zm0 0"/><path d="m58.144531 266.644531-3.847656-2.222656v4.445313zm0 0"/><path d="m181.28125 337.738281-3.847656-2.222656v4.445313zm0 0"/><path d="m192.828125 331.074219-3.847656-2.222657v4.441407zm0 0"/><path d="m304.417969 266.644531-3.847657-2.222656v4.445313zm0 0"/><path d="m315.964844 259.980469-3.847656-2.222657v4.445313zm0 0"/></g></svg>