<svg height="360pt" viewBox="0 0 360 360" width="360pt" xmlns="http://www.w3.org/2000/svg"><path d="m0 0h360v360h-360z" fill="#800080"/><g fill="#fff"><path d="m188.144531 180 6.109375-3.527344v7.054688zm0 0"/><path d="m194.253906 169.417969 6.109375-3.527344v7.054687zm0 0"/><path d="m182.035156 197.636719 6.109375-3.527344v7.050781zm0 0"/><path d="m188.144531 194.109375 6.109375-3.527344v7.054688zm0 0"/><path d="m200.363281 172.945312 6.109375-3.527343v7.054687zm0 0"/><path d="m200.363281 165.890625 6.109375-3.527344v7.054688zm0 0"/><path d="m194.253906 162.363281 6.109375-3.523437v7.050781zm0 0"/><path d="m182.035156 204.6875 6.109375-3.527344v7.054688zm0 0"/><path d="m188.144531 201.160156 6.109375-3.523437v7.050781zm0 0"/><path d="m194.253906 197.636719 6.109375-3.527344v7.050781zm0 0"/><path d="m206.472656 169.417969 6.109375-3.527344v7.054687zm0 0"/><path d="m145.382812 162.363281 6.109376-3.523437v7.050781zm0 0"/><path d="m145.382812 169.417969 6.109376-3.527344v7.054687zm0 0"/><path d="m145.382812 176.472656 6.109376-3.527344v7.054688zm0 0"/><path d="m175.925781 215.269531 6.109375-3.527343v7.054687zm0 0"/><path d="m188.144531 208.214844 6.109375-3.527344v7.054688zm0 0"/><path d="m194.253906 204.6875 6.109375-3.527344v7.054688zm0 0"/><path d="m200.363281 201.160156 6.109375-3.523437v7.050781zm0 0"/><path d="m212.582031 201.160156 6.109375-3.523437v7.050781zm0 0"/><path d="m212.582031 194.109375 6.109375-3.527344v7.054688zm0 0"/><path d="m212.582031 187.054688 6.109375-3.527344v7.054687zm0 0"/><path d="m212.582031 180 6.109375-3.527344v7.054688zm0 0"/><path d="m212.582031 172.945312 6.109375-3.527343v7.054687zm0 0"/><path d="m212.582031 165.890625 6.109375-3.527344v7.054688zm0 0"/><path d="m169.820312 141.203125 6.105469-3.527344v7.054688zm0 0"/><path d="m163.710938 144.730469 6.109374-3.527344v7.054687zm0 0"/><path d="m145.382812 155.3125 6.109376-3.527344v7.054688zm0 0"/><path d="m139.273438 158.839844 6.109374-3.527344v7.050781zm0 0"/><path d="m175.925781 222.324219 6.109375-3.527344v7.054687zm0 0"/><path d="m182.035156 218.796875 6.109375-3.527344v7.054688zm0 0"/><path d="m188.144531 215.269531 6.109375-3.527343v7.054687zm0 0"/><path d="m194.253906 211.742188 6.109375-3.527344v7.054687zm0 0"/><path d="m200.363281 208.214844 6.109375-3.527344v7.054688zm0 0"/><path d="m206.472656 204.6875 6.109375-3.527344v7.054688zm0 0"/><path d="m218.691406 197.636719 6.109375-3.527344v7.050781zm0 0"/><path d="m218.691406 190.582031 6.109375-3.527343v7.054687zm0 0"/><path d="m218.691406 183.527344 6.109375-3.527344v7.054688zm0 0"/><path d="m218.691406 176.472656 6.109375-3.527344v7.054688zm0 0"/><path d="m200.363281 144.730469 6.109375-3.527344v7.054687zm0 0"/><path d="m194.253906 141.203125 6.109375-3.527344v7.054688zm0 0"/><path d="m188.144531 137.675781 6.109375-3.527343v7.054687zm0 0"/><path d="m182.035156 134.148438 6.109375-3.527344v7.054687zm0 0"/><path d="m175.925781 130.621094 6.109375-3.527344v7.054688zm0 0"/><path d="m169.820312 134.148438 6.105469-3.527344v7.054687zm0 0"/><path d="m163.710938 137.675781 6.109374-3.527343v7.054687zm0 0"/><path d="m133.164062 155.3125 6.109376-3.527344v7.054688zm0 0"/><path d="m133.164062 162.363281 6.109376-3.523437v7.050781zm0 0"/><path d="m133.164062 169.417969 6.109376-3.527344v7.054687zm0 0"/><path d="m133.164062 176.472656 6.109376-3.527344v7.054688zm0 0"/><path d="m139.273438 208.214844 6.109374-3.527344v7.054688zm0 0"/><path d="m145.382812 211.742188 6.109376-3.527344v7.054687zm0 0"/><path d="m175.925781 229.378906 6.109375-3.527344v7.054688zm0 0"/><path d="m188.144531 222.324219 6.109375-3.527344v7.054687zm0 0"/><path d="m194.253906 218.796875 6.109375-3.527344v7.054688zm0 0"/><path d="m200.363281 215.269531 6.109375-3.527343v7.054687zm0 0"/><path d="m206.472656 211.742188 6.109375-3.527344v7.054687zm0 0"/><path d="m224.800781 201.160156 6.105469-3.523437v7.050781zm0 0"/><path d="m224.800781 194.109375 6.105469-3.527344v7.054688zm0 0"/><path d="m224.800781 187.054688 6.105469-3.527344v7.054687zm0 0"/><path d="m224.800781 180 6.105469-3.527344v7.054688zm0 0"/><path d="m224.800781 172.945312 6.105469-3.527343v7.054687zm0 0"/><path d="m206.472656 141.203125 6.109375-3.527344v7.054688zm0 0"/><path d="m200.363281 137.675781 6.109375-3.527343v7.054687zm0 0"/><path d="m194.253906 134.148438 6.109375-3.527344v7.054687zm0 0"/><path d="m188.144531 130.621094 6.109375-3.527344v7.054688zm0 0"/><path d="m182.035156 127.09375 6.109375-3.527344v7.054688zm0 0"/><path d="m175.925781 123.566406 6.109375-3.527344v7.054688zm0 0"/><path d="m169.820312 127.09375 6.105469-3.527344v7.054688zm0 0"/><path d="m163.710938 130.621094 6.109374-3.527344v7.054688zm0 0"/><path d="m157.601562 134.148438 6.109376-3.527344v7.054687zm0 0"/><path d="m151.492188 137.675781 6.109374-3.527343v7.054687zm0 0"/><path d="m127.054688 158.839844 6.109374-3.527344v7.050781zm0 0"/><path d="m127.054688 165.890625 6.109374-3.527344v7.054688zm0 0"/><path d="m127.054688 172.945312 6.109374-3.527343v7.054687zm0 0"/><path d="m127.054688 187.054688 6.109374-3.527344v7.054687zm0 0"/><path d="m127.054688 208.214844 6.109374-3.527344v7.054688zm0 0"/><path d="m133.164062 211.742188 6.109376-3.527344v7.054687zm0 0"/><path d="m139.273438 215.269531 6.109374-3.527343v7.054687zm0 0"/><path d="m145.382812 218.796875 6.109376-3.527344v7.054688zm0 0"/><path d="m169.820312 232.90625 6.105469-3.527344v7.054688zm0 0"/><path d="m175.925781 236.433594 6.109375-3.527344v7.054688zm0 0"/><path d="m182.035156 232.90625 6.109375-3.527344v7.054688zm0 0"/><path d="m188.144531 229.378906 6.109375-3.527344v7.054688zm0 0"/><path d="m194.253906 225.851562 6.109375-3.527343v7.054687zm0 0"/><path d="m200.363281 222.324219 6.109375-3.527344v7.054687zm0 0"/><path d="m206.472656 218.796875 6.109375-3.527344v7.054688zm0 0"/><path d="m218.691406 211.742188 6.109375-3.527344v7.054687zm0 0"/><path d="m230.90625 197.636719 6.109375-3.527344v7.050781zm0 0"/><path d="m230.90625 190.582031 6.109375-3.527343v7.054687zm0 0"/><path d="m230.90625 176.472656 6.109375-3.527344v7.054688zm0 0"/><path d="m230.90625 169.417969 6.109375-3.527344v7.054687zm0 0"/><path d="m224.800781 144.730469 6.105469-3.527344v7.054687zm0 0"/><path d="m206.472656 134.148438 6.109375-3.527344v7.054687zm0 0"/><path d="m188.144531 123.566406 6.109375-3.527344v7.054688zm0 0"/><path d="m175.925781 116.515625 6.109375-3.527344v7.050781zm0 0"/><path d="m169.820312 120.039062 6.105469-3.523437v7.050781zm0 0"/><path d="m163.710938 123.566406 6.109374-3.527344v7.054688zm0 0"/><path d="m157.601562 127.09375 6.109376-3.527344v7.054688zm0 0"/><path d="m145.382812 134.148438 6.109376-3.527344v7.054687zm0 0"/><path d="m139.273438 137.675781 6.109374-3.527343v7.054687zm0 0"/><path d="m120.945312 148.257812 6.109376-3.527343v7.054687zm0 0"/><path d="m120.945312 169.417969 6.109376-3.527344v7.054687zm0 0"/><path d="m120.945312 176.472656 6.109376-3.527344v7.054688zm0 0"/><path d="m120.945312 183.527344 6.109376-3.527344v7.054688zm0 0"/><path d="m120.945312 190.582031 6.109376-3.527343v7.054687zm0 0"/><path d="m120.945312 197.636719 6.109376-3.527344v7.050781zm0 0"/><path d="m120.945312 204.6875 6.109376-3.527344v7.054688zm0 0"/><path d="m127.054688 215.269531 6.109374-3.527343v7.054687zm0 0"/><path d="m133.164062 218.796875 6.109376-3.527344v7.054688zm0 0"/><path d="m157.601562 232.90625 6.109376-3.527344v7.054688zm0 0"/><path d="m163.710938 236.433594 6.109374-3.527344v7.054688zm0 0"/><path d="m182.035156 239.960938 6.109375-3.527344v7.050781zm0 0"/><path d="m200.363281 229.378906 6.109375-3.527344v7.054688zm0 0"/><path d="m212.582031 222.324219 6.109375-3.527344v7.054687zm0 0"/><path d="m224.800781 215.269531 6.105469-3.527343v7.054687zm0 0"/><path d="m237.015625 194.109375 6.109375-3.527344v7.054688zm0 0"/><path d="m237.015625 144.730469 6.109375-3.527344v7.054687zm0 0"/><path d="m230.90625 141.203125 6.109375-3.527344v7.054688zm0 0"/><path d="m212.582031 130.621094 6.109375-3.527344v7.054688zm0 0"/><path d="m200.363281 123.566406 6.109375-3.527344v7.054688zm0 0"/><path d="m194.253906 120.039062 6.109375-3.523437v7.050781zm0 0"/><path d="m182.035156 112.988281 6.109375-3.527343v7.054687zm0 0"/><path d="m169.820312 112.988281 6.105469-3.527343v7.054687zm0 0"/><path d="m163.710938 116.515625 6.109374-3.527344v7.050781zm0 0"/><path d="m157.601562 120.039062 6.109376-3.523437v7.050781zm0 0"/><path d="m145.382812 127.09375 6.109376-3.527344v7.054688zm0 0"/><path d="m139.273438 130.621094 6.109374-3.527344v7.054688zm0 0"/><path d="m114.839844 165.890625 6.105468-3.527344v7.054688zm0 0"/><path d="m114.839844 172.945312 6.105468-3.527343v7.054687zm0 0"/><path d="m114.839844 180 6.105468-3.527344v7.054688zm0 0"/><path d="m114.839844 201.160156 6.105468-3.523437v7.050781zm0 0"/><path d="m114.839844 208.214844 6.105468-3.527344v7.054688zm0 0"/><path d="m114.839844 215.269531 6.105468-3.527343v7.054687zm0 0"/><path d="m120.945312 218.796875 6.109376-3.527344v7.054688zm0 0"/><path d="m127.054688 222.324219 6.109374-3.527344v7.054687zm0 0"/><path d="m133.164062 225.851562 6.109376-3.527343v7.054687zm0 0"/><path d="m157.601562 239.960938 6.109376-3.527344v7.050781zm0 0"/><path d="m169.820312 247.011719 6.105469-3.527344v7.054687zm0 0"/><path d="m182.035156 247.011719 6.109375-3.527344v7.054687zm0 0"/><path d="m188.144531 243.484375 6.109375-3.523437v7.050781zm0 0"/><path d="m200.363281 236.433594 6.109375-3.527344v7.054688zm0 0"/><path d="m206.472656 232.90625 6.109375-3.527344v7.054688zm0 0"/><path d="m243.125 162.363281 6.109375-3.523437v7.050781zm0 0"/><path d="m230.90625 134.148438 6.109375-3.527344v7.054687zm0 0"/><path d="m206.472656 120.039062 6.109375-3.523437v7.050781zm0 0"/><path d="m200.363281 116.515625 6.109375-3.527344v7.050781zm0 0"/><path d="m194.253906 112.988281 6.109375-3.527343v7.054687zm0 0"/><path d="m188.144531 109.460938 6.109375-3.527344v7.054687zm0 0"/><path d="m182.035156 105.933594 6.109375-3.527344v7.054688zm0 0"/><path d="m163.710938 109.460938 6.109374-3.527344v7.054687zm0 0"/><path d="m157.601562 112.988281 6.109376-3.527343v7.054687zm0 0"/><path d="m139.273438 123.566406 6.109374-3.527344v7.054688zm0 0"/><path d="m108.730469 148.257812 6.109375-3.527343v7.054687zm0 0"/><path d="m108.730469 183.527344 6.109375-3.527344v7.054688zm0 0"/><path d="m108.730469 204.6875 6.109375-3.527344v7.054688zm0 0"/><path d="m108.730469 211.742188 6.109375-3.527344v7.054687zm0 0"/><path d="m114.839844 222.324219 6.105468-3.527344v7.054687zm0 0"/><path d="m120.945312 225.851562 6.109376-3.527343v7.054687zm0 0"/><path d="m127.054688 229.378906 6.109374-3.527344v7.054688zm0 0"/><path d="m133.164062 232.90625 6.109376-3.527344v7.054688zm0 0"/><path d="m145.382812 239.960938 6.109376-3.527344v7.050781zm0 0"/><path d="m151.492188 243.484375 6.109374-3.523437v7.050781zm0 0"/><path d="m157.601562 247.011719 6.109376-3.527344v7.054687zm0 0"/><path d="m194.253906 247.011719 6.109375-3.527344v7.054687zm0 0"/><path d="m206.472656 239.960938 6.109375-3.527344v7.050781zm0 0"/><path d="m212.582031 236.433594 6.109375-3.527344v7.054688zm0 0"/><path d="m224.800781 229.378906 6.105469-3.527344v7.054688zm0 0"/><path d="m206.472656 112.988281 6.109375-3.527343v7.054687zm0 0"/><path d="m200.363281 109.460938 6.109375-3.527344v7.054687zm0 0"/><path d="m194.253906 105.933594 6.109375-3.527344v7.054688zm0 0"/><path d="m188.144531 102.40625 6.109375-3.527344v7.054688zm0 0"/><path d="m182.035156 98.878906 6.109375-3.527344v7.054688zm0 0"/><path d="m169.820312 98.878906 6.105469-3.527344v7.054688zm0 0"/><path d="m163.710938 102.40625 6.109374-3.527344v7.054688zm0 0"/><path d="m157.601562 105.933594 6.109376-3.527344v7.054688zm0 0"/><path d="m151.492188 109.460938 6.109374-3.527344v7.054687zm0 0"/><path d="m145.382812 112.988281 6.109376-3.527343v7.054687zm0 0"/><path d="m139.273438 116.515625 6.109374-3.527344v7.050781zm0 0"/><path d="m133.164062 120.039062 6.109376-3.523437v7.050781zm0 0"/><path d="m127.054688 123.566406 6.109374-3.527344v7.054688zm0 0"/><path d="m102.621094 165.890625 6.109375-3.527344v7.054688zm0 0"/><path d="m102.621094 172.945312 6.109375-3.527343v7.054687zm0 0"/><path d="m102.621094 187.054688 6.109375-3.527344v7.054687zm0 0"/><path d="m102.621094 201.160156 6.109375-3.523437v7.050781zm0 0"/><path d="m108.730469 225.851562 6.109375-3.527343v7.054687zm0 0"/><path d="m114.839844 229.378906 6.105468-3.527344v7.054688zm0 0"/><path d="m120.945312 232.90625 6.109376-3.527344v7.054688zm0 0"/><path d="m127.054688 236.433594 6.109374-3.527344v7.054688zm0 0"/><path d="m194.253906 254.066406 6.109375-3.527344v7.054688zm0 0"/><path d="m200.363281 250.539062 6.109375-3.527343v7.054687zm0 0"/><path d="m206.472656 247.011719 6.109375-3.527344v7.054687zm0 0"/><path d="m237.015625 123.566406 6.109375-3.527344v7.054688zm0 0"/><path d="m212.582031 109.460938 6.109375-3.527344v7.054687zm0 0"/><path d="m200.363281 102.40625 6.109375-3.527344v7.054688zm0 0"/><path d="m194.253906 98.878906 6.109375-3.527344v7.054688zm0 0"/><path d="m188.144531 95.351562 6.109375-3.527343v7.054687zm0 0"/><path d="m163.710938 95.351562 6.109374-3.527343v7.054687zm0 0"/><path d="m157.601562 98.878906 6.109376-3.527344v7.054688zm0 0"/><path d="m151.492188 102.40625 6.109374-3.527344v7.054688zm0 0"/><path d="m145.382812 105.933594 6.109376-3.527344v7.054688zm0 0"/><path d="m139.273438 109.460938 6.109374-3.527344v7.054687zm0 0"/><path d="m133.164062 112.988281 6.109376-3.527343v7.054687zm0 0"/><path d="m96.511719 176.472656 6.109375-3.527344v7.054688zm0 0"/><path d="m127.054688 243.484375 6.109374-3.523437v7.050781zm0 0"/><path d="m139.273438 250.539062 6.109374-3.527343v7.054687zm0 0"/><path d="m145.382812 254.066406 6.109376-3.527344v7.054688zm0 0"/><path d="m200.363281 257.59375 6.109375-3.527344v7.054688zm0 0"/><path d="m206.472656 254.066406 6.109375-3.527344v7.054688zm0 0"/><path d="m212.582031 250.539062 6.109375-3.527343v7.054687zm0 0"/><path d="m243.125 120.039062 6.109375-3.523437v7.050781zm0 0"/><path d="m230.90625 112.988281 6.109375-3.527343v7.054687zm0 0"/><path d="m224.800781 109.460938 6.105469-3.527344v7.054687zm0 0"/><path d="m200.363281 95.351562 6.109375-3.527343v7.054687zm0 0"/><path d="m194.253906 91.824219 6.109375-3.527344v7.054687zm0 0"/><path d="m163.710938 88.296875 6.109374-3.527344v7.054688zm0 0"/><path d="m157.601562 91.824219 6.109376-3.527344v7.054687zm0 0"/><path d="m151.492188 95.351562 6.109374-3.527343v7.054687zm0 0"/><path d="m145.382812 98.878906 6.109376-3.527344v7.054688zm0 0"/><path d="m127.054688 109.460938 6.109374-3.527344v7.054687zm0 0"/><path d="m120.945312 112.988281 6.109376-3.527343v7.054687zm0 0"/><path d="m127.054688 250.539062 6.109374-3.527343v7.054687zm0 0"/><path d="m200.363281 264.648438 6.109375-3.527344v7.054687zm0 0"/><path d="m206.472656 261.121094 6.109375-3.527344v7.054688zm0 0"/><path d="m212.582031 257.59375 6.109375-3.527344v7.054688zm0 0"/><path d="m218.691406 254.066406 6.109375-3.527344v7.054688zm0 0"/><path d="m230.90625 105.933594 6.109375-3.527344v7.054688zm0 0"/><path d="m224.800781 102.40625 6.105469-3.527344v7.054688zm0 0"/><path d="m218.691406 98.878906 6.109375-3.527344v7.054688zm0 0"/><path d="m200.363281 88.296875 6.109375-3.527344v7.054688zm0 0"/><path d="m194.253906 84.769531 6.109375-3.527343v7.054687zm0 0"/><path d="m163.710938 81.242188 6.109374-3.523438v7.050781zm0 0"/><path d="m157.601562 84.769531 6.109376-3.527343v7.054687zm0 0"/><path d="m151.492188 88.296875 6.109374-3.527344v7.054688zm0 0"/><path d="m145.382812 91.824219 6.109376-3.527344v7.054687zm0 0"/><path d="m127.054688 102.40625 6.109374-3.527344v7.054688zm0 0"/><path d="m206.472656 268.175781 6.109375-3.527343v7.054687zm0 0"/><path d="m212.582031 264.648438 6.109375-3.527344v7.054687zm0 0"/><path d="m218.691406 261.121094 6.109375-3.527344v7.054688zm0 0"/><path d="m249.234375 109.460938 6.109375-3.527344v7.054687zm0 0"/><path d="m243.125 105.933594 6.109375-3.527344v7.054688zm0 0"/><path d="m237.015625 102.40625 6.109375-3.527344v7.054688zm0 0"/><path d="m230.90625 98.878906 6.109375-3.527344v7.054688zm0 0"/><path d="m224.800781 95.351562 6.105469-3.527343v7.054687zm0 0"/><path d="m151.492188 81.242188 6.109374-3.523438v7.050781zm0 0"/><path d="m145.382812 84.769531 6.109376-3.527343v7.054687zm0 0"/><path d="m127.054688 95.351562 6.109374-3.527343v7.054687zm0 0"/><path d="m120.945312 98.878906 6.109376-3.527344v7.054688zm0 0"/><path d="m114.839844 102.40625 6.105468-3.527344v7.054688zm0 0"/><path d="m206.472656 275.230469 6.109375-3.527344v7.054687zm0 0"/><path d="m212.582031 271.703125 6.109375-3.527344v7.054688zm0 0"/><path d="m218.691406 268.175781 6.109375-3.527343v7.054687zm0 0"/><path d="m249.234375 102.40625 6.109375-3.527344v7.054688zm0 0"/><path d="m243.125 98.878906 6.109375-3.527344v7.054688zm0 0"/><path d="m237.015625 95.351562 6.109375-3.527343v7.054687zm0 0"/><path d="m145.382812 77.71875 6.109376-3.527344v7.050782zm0 0"/><path d="m139.273438 81.242188 6.109374-3.523438v7.050781zm0 0"/><path d="m133.164062 84.769531 6.109376-3.527343v7.054687zm0 0"/><path d="m120.945312 91.824219 6.109376-3.527344v7.054687zm0 0"/><path d="m114.839844 95.351562 6.105468-3.527343v7.054687zm0 0"/><path d="m108.730469 98.878906 6.109375-3.527344v7.054688zm0 0"/><path d="m200.363281 285.808594 6.109375-3.527344v7.054688zm0 0"/><path d="m206.472656 282.28125 6.109375-3.523438v7.050782zm0 0"/><path d="m249.234375 95.351562 6.109375-3.527343v7.054687zm0 0"/><path d="m243.125 91.824219 6.109375-3.527344v7.054687zm0 0"/><path d="m237.015625 88.296875 6.109375-3.527344v7.054688zm0 0"/><path d="m139.273438 74.191406 6.109374-3.527344v7.054688zm0 0"/><path d="m133.164062 77.71875 6.109376-3.527344v7.050782zm0 0"/><path d="m206.472656 289.335938 6.109375-3.527344v7.054687zm0 0"/><path d="m249.234375 88.296875 6.109375-3.527344v7.054688zm0 0"/><path d="m243.125 84.769531 6.109375-3.527343v7.054687zm0 0"/><path d="m200.363281 299.917969 6.109375-3.527344v7.054687zm0 0"/><path d="m267.5625 91.824219 6.109375-3.527344v7.054687zm0 0"/><path d="m261.453125 88.296875 6.109375-3.527344v7.054688zm0 0"/><path d="m206.472656 303.445312 6.109375-3.527343v7.054687zm0 0"/><path d="m188.144531 180-6.109375-3.527344v7.054688zm0 0"/><path d="m182.035156 176.472656-6.109375-3.527344v7.054688zm0 0"/><path d="m182.035156 183.527344-6.109375-3.527344v7.054688zm0 0"/><path d="m194.253906 176.472656-6.109375-3.527344v7.054688zm0 0"/><path d="m188.144531 172.945312-6.109375-3.527343v7.054687zm0 0"/><path d="m182.035156 169.417969-6.109375-3.527344v7.054687zm0 0"/><path d="m175.925781 172.945312-6.105469-3.527343v7.054687zm0 0"/><path d="m175.925781 180-6.105469-3.527344v7.054688zm0 0"/><path d="m175.925781 187.054688-6.105469-3.527344v7.054687zm0 0"/><path d="m182.035156 190.582031-6.109375-3.527343v7.054687zm0 0"/><path d="m200.363281 180-6.109375-3.527344v7.054688zm0 0"/><path d="m200.363281 172.945312-6.109375-3.527343v7.054687zm0 0"/><path d="m194.253906 169.417969-6.109375-3.527344v7.054687zm0 0"/><path d="m188.144531 165.890625-6.109375-3.527344v7.054688zm0 0"/><path d="m182.035156 162.363281-6.109375-3.523437v7.050781zm0 0"/><path d="m175.925781 165.890625-6.105469-3.527344v7.054688zm0 0"/><path d="m169.820312 169.417969-6.109374-3.527344v7.054687zm0 0"/><path d="m169.820312 176.472656-6.109374-3.527344v7.054688zm0 0"/><path d="m169.820312 183.527344-6.109374-3.527344v7.054688zm0 0"/><path d="m169.820312 190.582031-6.109374-3.527343v7.054687zm0 0"/><path d="m175.925781 194.109375-6.105469-3.527344v7.054688zm0 0"/><path d="m206.472656 176.472656-6.109375-3.527344v7.054688zm0 0"/><path d="m206.472656 169.417969-6.109375-3.527344v7.054687zm0 0"/><path d="m200.363281 165.890625-6.109375-3.527344v7.054688zm0 0"/><path d="m194.253906 162.363281-6.109375-3.523437v7.050781zm0 0"/><path d="m188.144531 158.839844-6.109375-3.527344v7.050781zm0 0"/><path d="m182.035156 155.3125-6.109375-3.527344v7.054688zm0 0"/><path d="m175.925781 158.839844-6.105469-3.527344v7.050781zm0 0"/><path d="m169.820312 162.363281-6.109374-3.523437v7.050781zm0 0"/><path d="m163.710938 165.890625-6.109376-3.527344v7.054688zm0 0"/><path d="m163.710938 172.945312-6.109376-3.527343v7.054687zm0 0"/><path d="m163.710938 180-6.109376-3.527344v7.054688zm0 0"/><path d="m163.710938 187.054688-6.109376-3.527344v7.054687zm0 0"/><path d="m163.710938 194.109375-6.109376-3.527344v7.054688zm0 0"/><path d="m169.820312 197.636719-6.109374-3.527344v7.050781zm0 0"/><path d="m188.144531 201.160156-6.109375-3.523437v7.050781zm0 0"/><path d="m194.253906 197.636719-6.109375-3.527344v7.050781zm0 0"/><path d="m212.582031 165.890625-6.109375-3.527344v7.054688zm0 0"/><path d="m200.363281 158.839844-6.109375-3.527344v7.050781zm0 0"/><path d="m194.253906 155.3125-6.109375-3.527344v7.054688zm0 0"/><path d="m188.144531 151.785156-6.109375-3.527344v7.054688zm0 0"/><path d="m182.035156 148.257812-6.109375-3.527343v7.054687zm0 0"/><path d="m175.925781 151.785156-6.105469-3.527344v7.054688zm0 0"/><path d="m169.820312 155.3125-6.109374-3.527344v7.054688zm0 0"/><path d="m163.710938 158.839844-6.109376-3.527344v7.050781zm0 0"/><path d="m157.601562 162.363281-6.109374-3.523437v7.050781zm0 0"/><path d="m157.601562 169.417969-6.109374-3.527344v7.054687zm0 0"/><path d="m157.601562 176.472656-6.109374-3.527344v7.054688zm0 0"/><path d="m157.601562 183.527344-6.109374-3.527344v7.054688zm0 0"/><path d="m157.601562 190.582031-6.109374-3.527343v7.054687zm0 0"/><path d="m157.601562 197.636719-6.109374-3.527344v7.050781zm0 0"/><path d="m163.710938 201.160156-6.109376-3.523437v7.050781zm0 0"/><path d="m169.820312 204.6875-6.109374-3.527344v7.054688zm0 0"/><path d="m175.925781 208.214844-6.105469-3.527344v7.054688zm0 0"/><path d="m188.144531 208.214844-6.109375-3.527344v7.054688zm0 0"/><path d="m218.691406 183.527344-6.109375-3.527344v7.054688zm0 0"/><path d="m218.691406 176.472656-6.109375-3.527344v7.054688zm0 0"/><path d="m218.691406 169.417969-6.109375-3.527344v7.054687zm0 0"/><path d="m206.472656 155.3125-6.109375-3.527344v7.054688zm0 0"/><path d="m200.363281 151.785156-6.109375-3.527344v7.054688zm0 0"/><path d="m182.035156 141.203125-6.109375-3.527344v7.054688zm0 0"/><path d="m175.925781 144.730469-6.105469-3.527344v7.054687zm0 0"/><path d="m169.820312 148.257812-6.109374-3.527343v7.054687zm0 0"/><path d="m163.710938 151.785156-6.109376-3.527344v7.054688zm0 0"/><path d="m157.601562 155.3125-6.109374-3.527344v7.054688zm0 0"/><path d="m151.492188 165.890625-6.109376-3.527344v7.054688zm0 0"/><path d="m151.492188 180-6.109376-3.527344v7.054688zm0 0"/><path d="m151.492188 194.109375-6.109376-3.527344v7.054688zm0 0"/><path d="m151.492188 201.160156-6.109376-3.523437v7.050781zm0 0"/><path d="m163.710938 208.214844-6.109376-3.527344v7.054688zm0 0"/><path d="m169.820312 211.742188-6.109374-3.527344v7.054687zm0 0"/><path d="m182.035156 218.796875-6.109375-3.527344v7.054688zm0 0"/><path d="m188.144531 215.269531-6.109375-3.527343v7.054687zm0 0"/><path d="m200.363281 208.214844-6.109375-3.527344v7.054688zm0 0"/><path d="m224.800781 187.054688-6.109375-3.527344v7.054687zm0 0"/><path d="m224.800781 165.890625-6.109375-3.527344v7.054688zm0 0"/><path d="m212.582031 151.785156-6.109375-3.527344v7.054688zm0 0"/><path d="m188.144531 137.675781-6.109375-3.527343v7.054687zm0 0"/><path d="m182.035156 134.148438-6.109375-3.527344v7.054687zm0 0"/><path d="m175.925781 137.675781-6.105469-3.527343v7.054687zm0 0"/><path d="m169.820312 141.203125-6.109374-3.527344v7.054688zm0 0"/><path d="m163.710938 144.730469-6.109376-3.527344v7.054687zm0 0"/><path d="m157.601562 148.257812-6.109374-3.527343v7.054687zm0 0"/><path d="m151.492188 151.785156-6.109376-3.527344v7.054688zm0 0"/><path d="m145.382812 155.3125-6.109374-3.527344v7.054688zm0 0"/><path d="m145.382812 162.363281-6.109374-3.523437v7.050781zm0 0"/><path d="m145.382812 190.582031-6.109374-3.527343v7.054687zm0 0"/><path d="m145.382812 197.636719-6.109374-3.527344v7.050781zm0 0"/><path d="m145.382812 204.6875-6.109374-3.527344v7.054688zm0 0"/><path d="m151.492188 208.214844-6.109376-3.527344v7.054688zm0 0"/><path d="m163.710938 215.269531-6.109376-3.527343v7.054687zm0 0"/><path d="m218.691406 204.6875-6.109375-3.527344v7.054688zm0 0"/><path d="m230.90625 183.527344-6.105469-3.527344v7.054688zm0 0"/><path d="m230.90625 169.417969-6.105469-3.527344v7.054687zm0 0"/><path d="m230.90625 162.363281-6.105469-3.523437v7.050781zm0 0"/><path d="m212.582031 144.730469-6.109375-3.527344v7.054687zm0 0"/><path d="m188.144531 130.621094-6.109375-3.527344v7.054688zm0 0"/><path d="m182.035156 127.09375-6.109375-3.527344v7.054688zm0 0"/><path d="m169.820312 134.148438-6.109374-3.527344v7.054687zm0 0"/><path d="m163.710938 137.675781-6.109376-3.527343v7.054687zm0 0"/><path d="m157.601562 141.203125-6.109374-3.527344v7.054688zm0 0"/><path d="m151.492188 144.730469-6.109376-3.527344v7.054687zm0 0"/><path d="m145.382812 148.257812-6.109374-3.527343v7.054687zm0 0"/><path d="m139.273438 151.785156-6.109376-3.527344v7.054688zm0 0"/><path d="m139.273438 158.839844-6.109376-3.527344v7.050781zm0 0"/><path d="m139.273438 172.945312-6.109376-3.527343v7.054687zm0 0"/><path d="m139.273438 180-6.109376-3.527344v7.054688zm0 0"/><path d="m139.273438 187.054688-6.109376-3.527344v7.054687zm0 0"/><path d="m139.273438 194.109375-6.109376-3.527344v7.054688zm0 0"/><path d="m139.273438 208.214844-6.109376-3.527344v7.054688zm0 0"/><path d="m145.382812 211.742188-6.109374-3.527344v7.054687zm0 0"/><path d="m157.601562 218.796875-6.109374-3.527344v7.054688zm0 0"/><path d="m163.710938 222.324219-6.109376-3.527344v7.054687zm0 0"/><path d="m169.820312 225.851562-6.109374-3.527343v7.054687zm0 0"/><path d="m175.925781 229.378906-6.105469-3.527344v7.054688zm0 0"/><path d="m188.144531 229.378906-6.109375-3.527344v7.054688zm0 0"/><path d="m194.253906 225.851562-6.109375-3.527343v7.054687zm0 0"/><path d="m206.472656 218.796875-6.109375-3.527344v7.054688zm0 0"/><path d="m212.582031 215.269531-6.109375-3.527343v7.054687zm0 0"/><path d="m224.800781 208.214844-6.109375-3.527344v7.054688zm0 0"/><path d="m237.015625 165.890625-6.109375-3.527344v7.054688zm0 0"/><path d="m237.015625 151.785156-6.109375-3.527344v7.054688zm0 0"/><path d="m230.90625 148.257812-6.105469-3.527343v7.054687zm0 0"/><path d="m224.800781 144.730469-6.109375-3.527344v7.054687zm0 0"/><path d="m200.363281 130.621094-6.109375-3.527344v7.054688zm0 0"/><path d="m188.144531 123.566406-6.109375-3.527344v7.054688zm0 0"/><path d="m169.820312 127.09375-6.109374-3.527344v7.054688zm0 0"/><path d="m157.601562 134.148438-6.109374-3.527344v7.054687zm0 0"/><path d="m151.492188 137.675781-6.109376-3.527343v7.054687zm0 0"/><path d="m145.382812 141.203125-6.109374-3.527344v7.054688zm0 0"/><path d="m139.273438 144.730469-6.109376-3.527344v7.054687zm0 0"/><path d="m133.164062 162.363281-6.109374-3.523437v7.050781zm0 0"/><path d="m133.164062 190.582031-6.109374-3.527343v7.054687zm0 0"/><path d="m133.164062 197.636719-6.109374-3.527344v7.050781zm0 0"/><path d="m133.164062 204.6875-6.109374-3.527344v7.054688zm0 0"/><path d="m151.492188 222.324219-6.109376-3.527344v7.054687zm0 0"/><path d="m157.601562 225.851562-6.109374-3.527343v7.054687zm0 0"/><path d="m163.710938 229.378906-6.109376-3.527344v7.054688zm0 0"/><path d="m169.820312 232.90625-6.109374-3.527344v7.054688zm0 0"/><path d="m175.925781 236.433594-6.105469-3.527344v7.054688zm0 0"/><path d="m194.253906 232.90625-6.109375-3.527344v7.054688zm0 0"/><path d="m212.582031 222.324219-6.109375-3.527344v7.054687zm0 0"/><path d="m218.691406 218.796875-6.109375-3.527344v7.054688zm0 0"/><path d="m224.800781 215.269531-6.109375-3.527343v7.054687zm0 0"/><path d="m243.125 148.257812-6.109375-3.527343v7.054687zm0 0"/><path d="m224.800781 137.675781-6.109375-3.527343v7.054687zm0 0"/><path d="m200.363281 123.566406-6.109375-3.527344v7.054688zm0 0"/><path d="m182.035156 112.988281-6.109375-3.527343v7.054687zm0 0"/><path d="m151.492188 130.621094-6.109376-3.527344v7.054688zm0 0"/><path d="m127.054688 144.730469-6.109376-3.527344v7.054687zm0 0"/><path d="m127.054688 151.785156-6.109376-3.527344v7.054688zm0 0"/><path d="m127.054688 165.890625-6.109376-3.527344v7.054688zm0 0"/><path d="m127.054688 172.945312-6.109376-3.527343v7.054687zm0 0"/><path d="m127.054688 187.054688-6.109376-3.527344v7.054687zm0 0"/><path d="m127.054688 194.109375-6.109376-3.527344v7.054688zm0 0"/><path d="m127.054688 201.160156-6.109376-3.523437v7.050781zm0 0"/><path d="m127.054688 208.214844-6.109376-3.527344v7.054688zm0 0"/><path d="m145.382812 225.851562-6.109374-3.527343v7.054687zm0 0"/><path d="m151.492188 229.378906-6.109376-3.527344v7.054688zm0 0"/><path d="m157.601562 232.90625-6.109374-3.527344v7.054688zm0 0"/><path d="m163.710938 236.433594-6.109376-3.527344v7.054688zm0 0"/><path d="m169.820312 239.960938-6.109374-3.527344v7.050781zm0 0"/><path d="m175.925781 243.484375-6.105469-3.523437v7.050781zm0 0"/><path d="m182.035156 247.011719-6.109375-3.527344v7.054687zm0 0"/><path d="m188.144531 243.484375-6.109375-3.523437v7.050781zm0 0"/><path d="m194.253906 239.960938-6.109375-3.527344v7.050781zm0 0"/><path d="m200.363281 236.433594-6.109375-3.527344v7.054688zm0 0"/><path d="m206.472656 232.90625-6.109375-3.527344v7.054688zm0 0"/><path d="m212.582031 229.378906-6.109375-3.527344v7.054688zm0 0"/><path d="m218.691406 225.851562-6.109375-3.527343v7.054687zm0 0"/><path d="m224.800781 222.324219-6.109375-3.527344v7.054687zm0 0"/><path d="m230.90625 218.796875-6.105469-3.527344v7.054688zm0 0"/><path d="m237.015625 215.269531-6.109375-3.527343v7.054687zm0 0"/><path d="m237.015625 137.675781-6.109375-3.527343v7.054687zm0 0"/><path d="m230.90625 134.148438-6.105469-3.527344v7.054687zm0 0"/><path d="m224.800781 130.621094-6.109375-3.527344v7.054688zm0 0"/><path d="m182.035156 105.933594-6.109375-3.527344v7.054688zm0 0"/><path d="m157.601562 120.039062-6.109374-3.523437v7.050781zm0 0"/><path d="m151.492188 123.566406-6.109376-3.527344v7.054688zm0 0"/><path d="m127.054688 137.675781-6.109376-3.527343v7.054687zm0 0"/><path d="m120.945312 141.203125-6.105468-3.527344v7.054688zm0 0"/><path d="m120.945312 148.257812-6.105468-3.527343v7.054687zm0 0"/><path d="m120.945312 176.472656-6.105468-3.527344v7.054688zm0 0"/><path d="m120.945312 183.527344-6.105468-3.527344v7.054688zm0 0"/><path d="m120.945312 190.582031-6.105468-3.527343v7.054687zm0 0"/><path d="m151.492188 236.433594-6.109376-3.527344v7.054688zm0 0"/><path d="m157.601562 239.960938-6.109374-3.527344v7.050781zm0 0"/><path d="m163.710938 243.484375-6.109376-3.523437v7.050781zm0 0"/><path d="m169.820312 247.011719-6.109374-3.527344v7.054687zm0 0"/><path d="m175.925781 250.539062-6.105469-3.527343v7.054687zm0 0"/><path d="m182.035156 254.066406-6.109375-3.527344v7.054688zm0 0"/><path d="m188.144531 250.539062-6.109375-3.527343v7.054687zm0 0"/><path d="m194.253906 247.011719-6.109375-3.527344v7.054687zm0 0"/><path d="m200.363281 243.484375-6.109375-3.523437v7.050781zm0 0"/><path d="m212.582031 236.433594-6.109375-3.527344v7.054688zm0 0"/><path d="m218.691406 232.90625-6.109375-3.527344v7.054688zm0 0"/><path d="m224.800781 229.378906-6.109375-3.527344v7.054688zm0 0"/><path d="m230.90625 225.851562-6.105469-3.527343v7.054687zm0 0"/><path d="m237.015625 222.324219-6.109375-3.527344v7.054687zm0 0"/><path d="m243.125 134.148438-6.109375-3.527344v7.054687zm0 0"/><path d="m237.015625 130.621094-6.109375-3.527344v7.054688zm0 0"/><path d="m230.90625 127.09375-6.105469-3.527344v7.054688zm0 0"/><path d="m218.691406 120.039062-6.109375-3.523437v7.050781zm0 0"/><path d="m200.363281 109.460938-6.109375-3.527344v7.054687zm0 0"/><path d="m188.144531 102.40625-6.109375-3.527344v7.054688zm0 0"/><path d="m182.035156 98.878906-6.109375-3.527344v7.054688zm0 0"/><path d="m169.820312 105.933594-6.109374-3.527344v7.054688zm0 0"/><path d="m163.710938 109.460938-6.109376-3.527344v7.054687zm0 0"/><path d="m157.601562 112.988281-6.109374-3.527343v7.054687zm0 0"/><path d="m151.492188 116.515625-6.109376-3.527344v7.050781zm0 0"/><path d="m133.164062 127.09375-6.109374-3.527344v7.054688zm0 0"/><path d="m127.054688 130.621094-6.109376-3.527344v7.054688zm0 0"/><path d="m120.945312 134.148438-6.105468-3.527344v7.054687zm0 0"/><path d="m114.839844 144.730469-6.109375-3.527344v7.054687zm0 0"/><path d="m114.839844 151.785156-6.109375-3.527344v7.054688zm0 0"/><path d="m114.839844 180-6.109375-3.527344v7.054688zm0 0"/><path d="m114.839844 187.054688-6.109375-3.527344v7.054687zm0 0"/><path d="m114.839844 208.214844-6.109375-3.527344v7.054688zm0 0"/><path d="m120.945312 225.851562-6.105468-3.527343v7.054687zm0 0"/><path d="m145.382812 239.960938-6.109374-3.527344v7.050781zm0 0"/><path d="m151.492188 243.484375-6.109376-3.523437v7.050781zm0 0"/><path d="m163.710938 250.539062-6.109376-3.527343v7.054687zm0 0"/><path d="m169.820312 254.066406-6.109374-3.527344v7.054688zm0 0"/><path d="m182.035156 261.121094-6.109375-3.527344v7.054688zm0 0"/><path d="m188.144531 257.59375-6.109375-3.527344v7.054688zm0 0"/><path d="m200.363281 250.539062-6.109375-3.527343v7.054687zm0 0"/><path d="m230.90625 232.90625-6.105469-3.527344v7.054688zm0 0"/><path d="m243.125 127.09375-6.109375-3.527344v7.054688zm0 0"/><path d="m237.015625 123.566406-6.109375-3.527344v7.054688zm0 0"/><path d="m230.90625 120.039062-6.105469-3.523437v7.050781zm0 0"/><path d="m218.691406 112.988281-6.109375-3.527343v7.054687zm0 0"/><path d="m200.363281 102.40625-6.109375-3.527344v7.054688zm0 0"/><path d="m194.253906 98.878906-6.109375-3.527344v7.054688zm0 0"/><path d="m188.144531 95.351562-6.109375-3.527343v7.054687zm0 0"/><path d="m182.035156 91.824219-6.109375-3.527344v7.054687zm0 0"/><path d="m175.925781 95.351562-6.105469-3.527343v7.054687zm0 0"/><path d="m169.820312 98.878906-6.109374-3.527344v7.054688zm0 0"/><path d="m139.273438 116.515625-6.109376-3.527344v7.050781zm0 0"/><path d="m133.164062 120.039062-6.109374-3.523437v7.050781zm0 0"/><path d="m108.730469 141.203125-6.109375-3.527344v7.054688zm0 0"/><path d="m108.730469 190.582031-6.109375-3.527343v7.054687zm0 0"/><path d="m120.945312 232.90625-6.105468-3.527344v7.054688zm0 0"/><path d="m133.164062 239.960938-6.109374-3.527344v7.050781zm0 0"/><path d="m151.492188 250.539062-6.109376-3.527343v7.054687zm0 0"/><path d="m249.234375 123.566406-6.109375-3.527344v7.054688zm0 0"/><path d="m237.015625 116.515625-6.109375-3.527344v7.050781zm0 0"/><path d="m230.90625 112.988281-6.105469-3.527343v7.054687zm0 0"/><path d="m194.253906 91.824219-6.109375-3.527344v7.054687zm0 0"/><path d="m175.925781 88.296875-6.105469-3.527344v7.054688zm0 0"/><path d="m157.601562 98.878906-6.109374-3.527344v7.054688zm0 0"/><path d="m151.492188 102.40625-6.109376-3.527344v7.054688zm0 0"/><path d="m145.382812 105.933594-6.109374-3.527344v7.054688zm0 0"/><path d="m139.273438 109.460938-6.109376-3.527344v7.054687zm0 0"/><path d="m114.839844 123.566406-6.109375-3.527344v7.054688zm0 0"/><path d="m108.730469 127.09375-6.109375-3.527344v7.054688zm0 0"/><path d="m102.621094 130.621094-6.109375-3.527344v7.054688zm0 0"/><path d="m102.621094 137.675781-6.109375-3.527343v7.054687zm0 0"/><path d="m102.621094 194.109375-6.109375-3.527344v7.054688zm0 0"/><path d="m120.945312 239.960938-6.105468-3.527344v7.050781zm0 0"/><path d="m145.382812 254.066406-6.109374-3.527344v7.054688zm0 0"/><path d="m151.492188 257.59375-6.109376-3.527344v7.054688zm0 0"/><path d="m249.234375 116.515625-6.109375-3.527344v7.050781zm0 0"/><path d="m243.125 112.988281-6.109375-3.527343v7.054687zm0 0"/><path d="m182.035156 77.71875-6.109375-3.527344v7.050782zm0 0"/><path d="m175.925781 81.242188-6.105469-3.523438v7.050781zm0 0"/><path d="m169.820312 84.769531-6.109374-3.527343v7.054687zm0 0"/><path d="m157.601562 91.824219-6.109374-3.527344v7.054687zm0 0"/><path d="m151.492188 95.351562-6.109376-3.527343v7.054687zm0 0"/><path d="m139.273438 102.40625-6.109376-3.527344v7.054688zm0 0"/><path d="m127.054688 109.460938-6.109376-3.527344v7.054687zm0 0"/><path d="m114.839844 116.515625-6.109375-3.527344v7.050781zm0 0"/><path d="m108.730469 120.039062-6.109375-3.523437v7.050781zm0 0"/><path d="m102.621094 123.566406-6.109375-3.527344v7.054688zm0 0"/><path d="m96.511719 134.148438-6.109375-3.527344v7.054687zm0 0"/><path d="m224.800781 257.59375-6.109375-3.527344v7.054688zm0 0"/><path d="m243.125 105.933594-6.109375-3.527344v7.054688zm0 0"/><path d="m237.015625 102.40625-6.109375-3.527344v7.054688zm0 0"/><path d="m133.164062 98.878906-6.109374-3.527344v7.054688zm0 0"/><path d="m120.945312 105.933594-6.105468-3.527344v7.054688zm0 0"/><path d="m90.402344 123.566406-6.109375-3.527344v7.054688zm0 0"/><path d="m218.691406 268.175781-6.109375-3.527343v7.054687zm0 0"/><path d="m261.453125 109.460938-6.109375-3.527344v7.054687zm0 0"/><path d="m255.34375 105.933594-6.109375-3.527344v7.054688zm0 0"/><path d="m243.125 98.878906-6.109375-3.527344v7.054688zm0 0"/><path d="m237.015625 95.351562-6.109375-3.527343v7.054687zm0 0"/><path d="m230.90625 91.824219-6.105469-3.527344v7.054687zm0 0"/><path d="m145.382812 84.769531-6.109374-3.527343v7.054687zm0 0"/><path d="m120.945312 98.878906-6.105468-3.527344v7.054688zm0 0"/><path d="m90.402344 116.515625-6.109375-3.527344v7.050781zm0 0"/><path d="m84.292969 120.039062-6.109375-3.523437v7.050781zm0 0"/><path d="m194.253906 289.335938-6.109375-3.527344v7.054687zm0 0"/><path d="m218.691406 275.230469-6.109375-3.527344v7.054687zm0 0"/><path d="m224.800781 271.703125-6.109375-3.527344v7.054688zm0 0"/><path d="m267.5625 105.933594-6.109375-3.527344v7.054688zm0 0"/><path d="m261.453125 102.40625-6.109375-3.527344v7.054688zm0 0"/><path d="m243.125 91.824219-6.109375-3.527344v7.054687zm0 0"/><path d="m114.839844 95.351562-6.109375-3.527343v7.054687zm0 0"/><path d="m102.621094 102.40625-6.109375-3.527344v7.054688zm0 0"/><path d="m206.472656 289.335938-6.109375-3.527344v7.054687zm0 0"/><path d="m212.582031 285.808594-6.109375-3.527344v7.054688zm0 0"/><path d="m273.671875 102.40625-6.109375-3.527344v7.054688zm0 0"/><path d="m267.5625 98.878906-6.109375-3.527344v7.054688zm0 0"/><path d="m255.34375 91.824219-6.109375-3.527344v7.054687zm0 0"/><path d="m102.621094 95.351562-6.109375-3.527343v7.054687zm0 0"/><path d="m273.671875 95.351562-6.109375-3.527343v7.054687zm0 0"/><path d="m206.472656 303.445312-6.109375-3.527343v7.054687zm0 0"/><path d="m212.582031 299.917969-6.109375-3.527344v7.054687zm0 0"/><path d="m273.671875 88.296875-6.109375-3.527344v7.054688zm0 0"/></g></svg>