<svg height="360pt" viewBox="0 0 360 360" width="360pt" xmlns="http://www.w3.org/2000/svg"><path d="m0 0h360v360h-360z" fill="#800080"/><g fill="#fff"><path d="m181.421875 182.464844 4.269531-2.464844v4.929688zm0 0"/><path d="m181.421875 177.535156 4.269531-2.464844v4.929688zm0 0"/><path d="m177.152344 175.070312 4.269531-2.464843v4.929687zm0 0"/><path d="m172.882812 177.535156 4.269532-2.464844v4.929688zm0 0"/><path d="m172.882812 182.464844 4.269532-2.464844v4.929688zm0 0"/><path d="m177.152344 184.929688 4.269531-2.464844v4.929687zm0 0"/><path d="m189.960938 187.394531 4.269531-2.464843v4.929687zm0 0"/><path d="m189.960938 172.605469 4.269531-2.464844v4.929687zm0 0"/><path d="m177.152344 165.210938 4.269531-2.464844v4.929687zm0 0"/><path d="m164.34375 172.605469 4.269531-2.464844v4.929687zm0 0"/><path d="m164.34375 187.394531 4.269531-2.464843v4.929687zm0 0"/><path d="m177.152344 194.789062 4.269531-2.464843v4.929687zm0 0"/><path d="m194.230469 189.859375 4.269531-2.464844v4.929688zm0 0"/><path d="m194.230469 184.929688 4.269531-2.464844v4.929687zm0 0"/><path d="m194.230469 175.070312 4.269531-2.464843v4.929687zm0 0"/><path d="m194.230469 170.140625 4.269531-2.464844v4.929688zm0 0"/><path d="m177.152344 160.28125 4.269531-2.464844v4.929688zm0 0"/><path d="m172.882812 162.746094 4.269532-2.464844v4.929688zm0 0"/><path d="m164.34375 167.675781 4.269531-2.464843v4.929687zm0 0"/><path d="m160.074219 170.140625 4.269531-2.464844v4.929688zm0 0"/><path d="m160.074219 189.859375 4.269531-2.464844v4.929688zm0 0"/><path d="m164.34375 192.324219 4.269531-2.464844v4.929687zm0 0"/><path d="m172.882812 197.253906 4.269532-2.464844v4.929688zm0 0"/><path d="m177.152344 199.71875 4.269531-2.464844v4.929688zm0 0"/><path d="m198.5 187.394531 4.269531-2.464843v4.929687zm0 0"/><path d="m198.5 172.605469 4.269531-2.464844v4.929687zm0 0"/><path d="m189.960938 162.746094 4.269531-2.464844v4.929688zm0 0"/><path d="m185.691406 160.28125 4.269532-2.464844v4.929688zm0 0"/><path d="m172.882812 157.816406 4.269532-2.464844v4.929688zm0 0"/><path d="m160.074219 165.210938 4.269531-2.464844v4.929687zm0 0"/><path d="m155.804688 177.535156 4.269531-2.464844v4.929688zm0 0"/><path d="m155.804688 182.464844 4.269531-2.464844v4.929688zm0 0"/><path d="m160.074219 194.789062 4.269531-2.464843v4.929687zm0 0"/><path d="m172.882812 202.183594 4.269532-2.464844v4.929688zm0 0"/><path d="m185.691406 199.71875 4.269532-2.464844v4.929688zm0 0"/><path d="m189.960938 197.253906 4.269531-2.464844v4.929688zm0 0"/><path d="m202.769531 189.859375 4.269531-2.464844v4.929688zm0 0"/><path d="m202.769531 170.140625 4.269531-2.464844v4.929688zm0 0"/><path d="m172.882812 152.886719 4.269532-2.464844v4.929687zm0 0"/><path d="m155.804688 162.746094 4.269531-2.464844v4.929688zm0 0"/><path d="m155.804688 197.253906 4.269531-2.464844v4.929688zm0 0"/><path d="m172.882812 207.113281 4.269532-2.464843v4.929687zm0 0"/><path d="m207.039062 187.394531 4.269532-2.464843v4.929687zm0 0"/><path d="m207.039062 172.605469 4.269532-2.464844v4.929687zm0 0"/><path d="m168.613281 150.421875 4.269531-2.464844v4.929688zm0 0"/><path d="m155.804688 157.816406 4.269531-2.464844v4.929688zm0 0"/><path d="m155.804688 202.183594 4.269531-2.464844v4.929688zm0 0"/><path d="m168.613281 209.578125 4.269531-2.464844v4.929688zm0 0"/><path d="m211.308594 194.789062 4.269531-2.464843v4.929687zm0 0"/><path d="m211.308594 189.859375 4.269531-2.464844v4.929688zm0 0"/><path d="m211.308594 170.140625 4.269531-2.464844v4.929688zm0 0"/><path d="m211.308594 165.210938 4.269531-2.464844v4.929687zm0 0"/><path d="m198.5 152.886719 4.269531-2.464844v4.929687zm0 0"/><path d="m189.960938 147.957031 4.269531-2.464843v4.929687zm0 0"/><path d="m172.882812 143.023438 4.269532-2.464844v4.933594zm0 0"/><path d="m168.613281 145.492188 4.269531-2.46875v4.933593zm0 0"/><path d="m151.535156 155.351562 4.269532-2.464843v4.929687zm0 0"/><path d="m147.265625 157.816406 4.269531-2.464844v4.929688zm0 0"/><path d="m142.996094 175.070312 4.269531-2.464843v4.929687zm0 0"/><path d="m142.996094 184.929688 4.269531-2.464844v4.929687zm0 0"/><path d="m147.265625 202.183594 4.269531-2.464844v4.929688zm0 0"/><path d="m151.535156 204.648438 4.269532-2.464844v4.929687zm0 0"/><path d="m168.613281 214.507812 4.269531-2.464843v4.933593zm0 0"/><path d="m172.882812 216.976562 4.269532-2.46875v4.933594zm0 0"/><path d="m189.960938 212.042969 4.269531-2.464844v4.929687zm0 0"/><path d="m198.5 207.113281 4.269531-2.464843v4.929687zm0 0"/><path d="m215.578125 192.324219 4.269531-2.464844v4.929687zm0 0"/><path d="m215.578125 182.464844 4.269531-2.464844v4.929688zm0 0"/><path d="m215.578125 177.535156 4.269531-2.464844v4.929688zm0 0"/><path d="m215.578125 167.675781 4.269531-2.464843v4.929687zm0 0"/><path d="m211.308594 155.351562 4.269531-2.464843v4.929687zm0 0"/><path d="m198.5 147.957031 4.269531-2.464843v4.929687zm0 0"/><path d="m194.230469 145.492188 4.269531-2.46875v4.933593zm0 0"/><path d="m181.421875 138.09375 4.269531-2.464844v4.929688zm0 0"/><path d="m168.613281 140.558594 4.269531-2.464844v4.929688zm0 0"/><path d="m160.074219 145.492188 4.269531-2.46875v4.933593zm0 0"/><path d="m155.804688 147.957031 4.269531-2.464843v4.929687zm0 0"/><path d="m147.265625 152.886719 4.269531-2.464844v4.929687zm0 0"/><path d="m138.730469 162.746094 4.265625-2.464844v4.929688zm0 0"/><path d="m138.730469 177.535156 4.265625-2.464844v4.929688zm0 0"/><path d="m138.730469 182.464844 4.265625-2.464844v4.929688zm0 0"/><path d="m138.730469 197.253906 4.265625-2.464844v4.929688zm0 0"/><path d="m147.265625 207.113281 4.269531-2.464843v4.929687zm0 0"/><path d="m155.804688 212.042969 4.269531-2.464844v4.929687zm0 0"/><path d="m160.074219 214.507812 4.269531-2.464843v4.933593zm0 0"/><path d="m168.613281 219.441406 4.269531-2.464844v4.929688zm0 0"/><path d="m181.421875 221.90625 4.269531-2.464844v4.929688zm0 0"/><path d="m194.230469 214.507812 4.269531-2.464843v4.933593zm0 0"/><path d="m198.5 212.042969 4.269531-2.464844v4.929687zm0 0"/><path d="m211.308594 204.648438 4.269531-2.464844v4.929687zm0 0"/><path d="m219.847656 199.71875 4.269532-2.464844v4.929688zm0 0"/><path d="m219.847656 160.28125 4.269532-2.464844v4.929688zm0 0"/><path d="m172.882812 133.164062 4.269532-2.464843v4.929687zm0 0"/><path d="m138.730469 152.886719 4.265625-2.464844v4.929687zm0 0"/><path d="m138.730469 207.113281 4.265625-2.464843v4.929687zm0 0"/><path d="m172.882812 226.835938 4.269532-2.464844v4.929687zm0 0"/><path d="m224.117188 197.253906 4.269531-2.464844v4.929688zm0 0"/><path d="m224.117188 192.324219 4.269531-2.464844v4.929687zm0 0"/><path d="m224.117188 167.675781 4.269531-2.464843v4.929687zm0 0"/><path d="m224.117188 162.746094 4.269531-2.464844v4.929688zm0 0"/><path d="m202.769531 140.558594 4.269531-2.464844v4.929688zm0 0"/><path d="m198.5 138.09375 4.269531-2.464844v4.929688zm0 0"/><path d="m168.613281 130.699219 4.269531-2.464844v4.929687zm0 0"/><path d="m164.34375 133.164062 4.269531-2.464843v4.929687zm0 0"/><path d="m142.996094 145.492188 4.269531-2.46875v4.933593zm0 0"/><path d="m138.730469 147.957031 4.265625-2.464843v4.929687zm0 0"/><path d="m130.191406 177.535156 4.269532-2.464844v4.929688zm0 0"/><path d="m130.191406 182.464844 4.269532-2.464844v4.929688zm0 0"/><path d="m138.730469 212.042969 4.265625-2.464844v4.929687zm0 0"/><path d="m142.996094 214.507812 4.269531-2.464843v4.933593zm0 0"/><path d="m164.34375 226.835938 4.269531-2.464844v4.929687zm0 0"/><path d="m168.613281 229.300781 4.269531-2.464843v4.929687zm0 0"/><path d="m198.5 221.90625 4.269531-2.464844v4.929688zm0 0"/><path d="m202.769531 219.441406 4.269531-2.464844v4.929688zm0 0"/><path d="m228.386719 209.578125 4.269531-2.464844v4.929688zm0 0"/><path d="m228.386719 150.421875 4.269531-2.464844v4.929688zm0 0"/><path d="m177.152344 120.839844 4.269531-2.464844v4.929688zm0 0"/><path d="m125.921875 150.421875 4.269531-2.464844v4.929688zm0 0"/><path d="m125.921875 209.578125 4.269531-2.464844v4.929688zm0 0"/><path d="m177.152344 239.160156 4.269531-2.464844v4.929688zm0 0"/><path d="m232.65625 207.113281 4.269531-2.464843v4.929687zm0 0"/><path d="m232.65625 197.253906 4.269531-2.464844v4.929688zm0 0"/><path d="m232.65625 182.464844 4.269531-2.464844v4.929688zm0 0"/><path d="m232.65625 177.535156 4.269531-2.464844v4.929688zm0 0"/><path d="m232.65625 162.746094 4.269531-2.464844v4.929688zm0 0"/><path d="m232.65625 152.886719 4.269531-2.464844v4.929687zm0 0"/><path d="m224.117188 143.023438 4.269531-2.464844v4.933594zm0 0"/><path d="m219.847656 140.558594 4.269532-2.464844v4.929688zm0 0"/><path d="m215.578125 138.09375 4.269531-2.464844v4.929688zm0 0"/><path d="m194.230469 125.769531 4.269531-2.464843v4.929687zm0 0"/><path d="m189.960938 123.304688 4.269531-2.464844v4.929687zm0 0"/><path d="m185.691406 120.839844 4.269532-2.464844v4.929688zm0 0"/><path d="m172.882812 118.375 4.269532-2.464844v4.929688zm0 0"/><path d="m164.34375 123.304688 4.269531-2.464844v4.929687zm0 0"/><path d="m151.535156 130.699219 4.269532-2.464844v4.929687zm0 0"/><path d="m147.265625 133.164062 4.269531-2.464843v4.929687zm0 0"/><path d="m134.460938 140.558594 4.269531-2.464844v4.929688zm0 0"/><path d="m125.921875 145.492188 4.269531-2.46875v4.933593zm0 0"/><path d="m121.652344 157.816406 4.269531-2.464844v4.929688zm0 0"/><path d="m121.652344 162.746094 4.269531-2.464844v4.929688zm0 0"/><path d="m121.652344 167.675781 4.269531-2.464843v4.929687zm0 0"/><path d="m121.652344 192.324219 4.269531-2.464844v4.929687zm0 0"/><path d="m121.652344 197.253906 4.269531-2.464844v4.929688zm0 0"/><path d="m121.652344 202.183594 4.269531-2.464844v4.929688zm0 0"/><path d="m125.921875 214.507812 4.269531-2.464843v4.933593zm0 0"/><path d="m134.460938 219.441406 4.269531-2.464844v4.929688zm0 0"/><path d="m147.265625 226.835938 4.269531-2.464844v4.929687zm0 0"/><path d="m151.535156 229.300781 4.269532-2.464843v4.929687zm0 0"/><path d="m164.34375 236.695312 4.269531-2.464843v4.929687zm0 0"/><path d="m172.882812 241.625 4.269532-2.464844v4.929688zm0 0"/><path d="m185.691406 239.160156 4.269532-2.464844v4.929688zm0 0"/><path d="m189.960938 236.695312 4.269531-2.464843v4.929687zm0 0"/><path d="m194.230469 234.230469 4.269531-2.464844v4.929687zm0 0"/><path d="m215.578125 221.90625 4.269531-2.464844v4.929688zm0 0"/><path d="m219.847656 219.441406 4.269532-2.464844v4.929688zm0 0"/><path d="m224.117188 216.976562 4.269531-2.46875v4.933594zm0 0"/><path d="m236.925781 204.648438 4.269531-2.464844v4.929687zm0 0"/><path d="m236.925781 199.71875 4.269531-2.464844v4.929688zm0 0"/><path d="m236.925781 194.789062 4.269531-2.464843v4.929687zm0 0"/><path d="m236.925781 189.859375 4.269531-2.464844v4.929688zm0 0"/><path d="m236.925781 184.929688 4.269531-2.464844v4.929687zm0 0"/><path d="m236.925781 175.070312 4.269531-2.464843v4.929687zm0 0"/><path d="m236.925781 170.140625 4.269531-2.464844v4.929688zm0 0"/><path d="m236.925781 165.210938 4.269531-2.464844v4.929687zm0 0"/><path d="m236.925781 160.28125 4.269531-2.464844v4.929688zm0 0"/><path d="m236.925781 155.351562 4.269531-2.464843v4.929687zm0 0"/><path d="m228.386719 140.558594 4.269531-2.464844v4.929688zm0 0"/><path d="m185.691406 115.910156 4.269532-2.464844v4.929688zm0 0"/><path d="m168.613281 115.910156 4.269531-2.464844v4.929688zm0 0"/><path d="m164.34375 118.375 4.269531-2.464844v4.929688zm0 0"/><path d="m160.074219 120.839844 4.269531-2.464844v4.929688zm0 0"/><path d="m155.804688 123.304688 4.269531-2.464844v4.929687zm0 0"/><path d="m151.535156 125.769531 4.269532-2.464843v4.929687zm0 0"/><path d="m142.996094 130.699219 4.269531-2.464844v4.929687zm0 0"/><path d="m138.730469 133.164062 4.265625-2.464843v4.929687zm0 0"/><path d="m134.460938 135.628906 4.269531-2.464844v4.929688zm0 0"/><path d="m130.191406 138.09375 4.269532-2.464844v4.929688zm0 0"/><path d="m125.921875 140.558594 4.269531-2.464844v4.929688zm0 0"/><path d="m117.382812 155.351562 4.269532-2.464843v4.929687zm0 0"/><path d="m117.382812 204.648438 4.269532-2.464844v4.929687zm0 0"/><path d="m125.921875 219.441406 4.269531-2.464844v4.929688zm0 0"/><path d="m130.191406 221.90625 4.269532-2.464844v4.929688zm0 0"/><path d="m134.460938 224.371094 4.269531-2.464844v4.929688zm0 0"/><path d="m138.730469 226.835938 4.265625-2.464844v4.929687zm0 0"/><path d="m142.996094 229.300781 4.269531-2.464843v4.929687zm0 0"/><path d="m151.535156 234.230469 4.269532-2.464844v4.929687zm0 0"/><path d="m155.804688 236.695312 4.269531-2.464843v4.929687zm0 0"/><path d="m160.074219 239.160156 4.269531-2.464844v4.929688zm0 0"/><path d="m164.34375 241.625 4.269531-2.464844v4.929688zm0 0"/><path d="m168.613281 244.089844 4.269531-2.464844v4.929688zm0 0"/><path d="m185.691406 244.089844 4.269532-2.464844v4.929688zm0 0"/><path d="m228.386719 219.441406 4.269531-2.464844v4.929688zm0 0"/><path d="m241.195312 216.976562 4.269532-2.46875v4.933594zm0 0"/><path d="m241.195312 192.324219 4.269532-2.464844v4.929687zm0 0"/><path d="m241.195312 182.464844 4.269532-2.464844v4.929688zm0 0"/><path d="m241.195312 177.535156 4.269532-2.464844v4.929688zm0 0"/><path d="m241.195312 167.675781 4.269532-2.464843v4.929687zm0 0"/><path d="m241.195312 143.023438 4.269532-2.464844v4.933594zm0 0"/><path d="m236.925781 140.558594 4.269531-2.464844v4.929688zm0 0"/><path d="m228.386719 135.628906 4.269531-2.464844v4.929688zm0 0"/><path d="m224.117188 133.164062 4.269531-2.464843v4.929687zm0 0"/><path d="m219.847656 130.699219 4.269532-2.464844v4.929687zm0 0"/><path d="m215.578125 128.234375 4.269531-2.464844v4.929688zm0 0"/><path d="m211.308594 125.769531 4.269531-2.464843v4.929687zm0 0"/><path d="m207.039062 123.304688 4.269532-2.464844v4.929687zm0 0"/><path d="m202.769531 120.839844 4.269531-2.464844v4.929688zm0 0"/><path d="m198.5 118.375 4.269531-2.464844v4.929688zm0 0"/><path d="m194.230469 115.910156 4.269531-2.464844v4.929688zm0 0"/><path d="m189.960938 113.445312 4.269531-2.464843v4.929687zm0 0"/><path d="m181.421875 108.515625 4.269531-2.464844v4.929688zm0 0"/><path d="m177.152344 106.050781 4.269531-2.464843v4.929687zm0 0"/><path d="m155.804688 118.375 4.269531-2.464844v4.929688zm0 0"/><path d="m147.265625 123.304688 4.269531-2.464844v4.929687zm0 0"/><path d="m142.996094 125.769531 4.269531-2.464843v4.929687zm0 0"/><path d="m134.460938 130.699219 4.269531-2.464844v4.929687zm0 0"/><path d="m113.113281 143.023438 4.269531-2.464844v4.933594zm0 0"/><path d="m113.113281 147.957031 4.269531-2.464843v4.929687zm0 0"/><path d="m113.113281 157.816406 4.269531-2.464844v4.929688zm0 0"/><path d="m113.113281 162.746094 4.269531-2.464844v4.929688zm0 0"/><path d="m113.113281 167.675781 4.269531-2.464843v4.929687zm0 0"/><path d="m113.113281 172.605469 4.269531-2.464844v4.929687zm0 0"/><path d="m113.113281 177.535156 4.269531-2.464844v4.929688zm0 0"/><path d="m113.113281 182.464844 4.269531-2.464844v4.929688zm0 0"/><path d="m113.113281 187.394531 4.269531-2.464843v4.929687zm0 0"/><path d="m113.113281 192.324219 4.269531-2.464844v4.929687zm0 0"/><path d="m113.113281 197.253906 4.269531-2.464844v4.929688zm0 0"/><path d="m113.113281 202.183594 4.269531-2.464844v4.929688zm0 0"/><path d="m113.113281 212.042969 4.269531-2.464844v4.929687zm0 0"/><path d="m113.113281 216.976562 4.269531-2.46875v4.933594zm0 0"/><path d="m134.460938 229.300781 4.269531-2.464843v4.929687zm0 0"/><path d="m142.996094 234.230469 4.269531-2.464844v4.929687zm0 0"/><path d="m147.265625 236.695312 4.269531-2.464843v4.929687zm0 0"/><path d="m155.804688 241.625 4.269531-2.464844v4.929688zm0 0"/><path d="m177.152344 253.949219 4.269531-2.464844v4.929687zm0 0"/><path d="m181.421875 251.484375 4.269531-2.464844v4.929688zm0 0"/><path d="m189.960938 246.554688 4.269531-2.464844v4.929687zm0 0"/><path d="m194.230469 244.089844 4.269531-2.464844v4.929688zm0 0"/><path d="m198.5 241.625 4.269531-2.464844v4.929688zm0 0"/><path d="m202.769531 239.160156 4.269531-2.464844v4.929688zm0 0"/><path d="m207.039062 236.695312 4.269532-2.464843v4.929687zm0 0"/><path d="m211.308594 234.230469 4.269531-2.464844v4.929687zm0 0"/><path d="m215.578125 231.765625 4.269531-2.464844v4.929688zm0 0"/><path d="m219.847656 229.300781 4.269532-2.464843v4.929687zm0 0"/><path d="m224.117188 226.835938 4.269531-2.464844v4.929687zm0 0"/><path d="m228.386719 224.371094 4.269531-2.464844v4.929688zm0 0"/><path d="m236.925781 219.441406 4.269531-2.464844v4.929688zm0 0"/><path d="m245.464844 184.929688 4.269531-2.464844v4.929687zm0 0"/><path d="m245.464844 175.070312 4.269531-2.464843v4.929687zm0 0"/><path d="m241.195312 138.09375 4.269532-2.464844v4.929688zm0 0"/><path d="m236.925781 135.628906 4.269531-2.464844v4.929688zm0 0"/><path d="m219.847656 125.769531 4.269532-2.464843v4.929687zm0 0"/><path d="m215.578125 123.304688 4.269531-2.464844v4.929687zm0 0"/><path d="m207.039062 118.375 4.269532-2.464844v4.929688zm0 0"/><path d="m202.769531 115.910156 4.269531-2.464844v4.929688zm0 0"/><path d="m185.691406 106.050781 4.269532-2.464843v4.929687zm0 0"/><path d="m181.421875 103.585938 4.269531-2.464844v4.929687zm0 0"/><path d="m147.265625 118.375 4.269531-2.464844v4.929688zm0 0"/><path d="m138.730469 123.304688 4.265625-2.464844v4.929687zm0 0"/><path d="m108.84375 145.492188 4.269531-2.46875v4.933593zm0 0"/><path d="m108.84375 150.421875 4.269531-2.464844v4.929688zm0 0"/><path d="m108.84375 170.140625 4.269531-2.464844v4.929688zm0 0"/><path d="m108.84375 175.070312 4.269531-2.464843v4.929687zm0 0"/><path d="m108.84375 184.929688 4.269531-2.464844v4.929687zm0 0"/><path d="m108.84375 189.859375 4.269531-2.464844v4.929688zm0 0"/><path d="m108.84375 209.578125 4.269531-2.464844v4.929688zm0 0"/><path d="m108.84375 214.507812 4.269531-2.464843v4.933593zm0 0"/><path d="m138.730469 236.695312 4.265625-2.464843v4.929687zm0 0"/><path d="m147.265625 241.625 4.269531-2.464844v4.929688zm0 0"/><path d="m181.421875 256.414062 4.269531-2.464843v4.929687zm0 0"/><path d="m185.691406 253.949219 4.269532-2.464844v4.929687zm0 0"/><path d="m202.769531 244.089844 4.269531-2.464844v4.929688zm0 0"/><path d="m207.039062 241.625 4.269532-2.464844v4.929688zm0 0"/><path d="m215.578125 236.695312 4.269531-2.464843v4.929687zm0 0"/><path d="m219.847656 234.230469 4.269532-2.464844v4.929687zm0 0"/><path d="m236.925781 224.371094 4.269531-2.464844v4.929688zm0 0"/><path d="m241.195312 221.90625 4.269532-2.464844v4.929688zm0 0"/><path d="m249.734375 221.90625 4.269531-2.464844v4.929688zm0 0"/><path d="m249.734375 197.253906 4.269531-2.464844v4.929688zm0 0"/><path d="m249.734375 187.394531 4.269531-2.464843v4.929687zm0 0"/><path d="m249.734375 172.605469 4.269531-2.464844v4.929687zm0 0"/><path d="m249.734375 162.746094 4.269531-2.464844v4.929688zm0 0"/><path d="m249.734375 138.09375 4.269531-2.464844v4.929688zm0 0"/><path d="m241.195312 133.164062 4.269532-2.464843v4.929687zm0 0"/><path d="m232.65625 128.234375 4.269531-2.464844v4.929688zm0 0"/><path d="m228.386719 125.769531 4.269531-2.464843v4.929687zm0 0"/><path d="m224.117188 123.304688 4.269531-2.464844v4.929687zm0 0"/><path d="m219.847656 120.839844 4.269532-2.464844v4.929688zm0 0"/><path d="m207.039062 113.445312 4.269532-2.464843v4.929687zm0 0"/><path d="m202.769531 110.980469 4.269531-2.464844v4.929687zm0 0"/><path d="m198.5 108.515625 4.269531-2.464844v4.929688zm0 0"/><path d="m194.230469 106.050781 4.269531-2.464843v4.929687zm0 0"/><path d="m185.691406 101.121094 4.269532-2.464844v4.929688zm0 0"/><path d="m177.152344 96.191406 4.269531-2.464844v4.929688zm0 0"/><path d="m155.804688 108.515625 4.269531-2.464844v4.929688zm0 0"/><path d="m147.265625 113.445312 4.269531-2.464843v4.929687zm0 0"/><path d="m134.460938 120.839844 4.269531-2.464844v4.929688zm0 0"/><path d="m125.921875 125.769531 4.269531-2.464843v4.929687zm0 0"/><path d="m104.574219 138.09375 4.269531-2.464844v4.929688zm0 0"/><path d="m104.574219 147.957031 4.269531-2.464843v4.929687zm0 0"/><path d="m104.574219 157.816406 4.269531-2.464844v4.929688zm0 0"/><path d="m104.574219 162.746094 4.269531-2.464844v4.929688zm0 0"/><path d="m104.574219 167.675781 4.269531-2.464843v4.929687zm0 0"/><path d="m104.574219 172.605469 4.269531-2.464844v4.929687zm0 0"/><path d="m104.574219 187.394531 4.269531-2.464843v4.929687zm0 0"/><path d="m104.574219 192.324219 4.269531-2.464844v4.929687zm0 0"/><path d="m104.574219 197.253906 4.269531-2.464844v4.929688zm0 0"/><path d="m104.574219 202.183594 4.269531-2.464844v4.929688zm0 0"/><path d="m104.574219 212.042969 4.269531-2.464844v4.929687zm0 0"/><path d="m104.574219 221.90625 4.269531-2.464844v4.929688zm0 0"/><path d="m125.921875 234.230469 4.269531-2.464844v4.929687zm0 0"/><path d="m134.460938 239.160156 4.269531-2.464844v4.929688zm0 0"/><path d="m147.265625 246.554688 4.269531-2.464844v4.929687zm0 0"/><path d="m155.804688 251.484375 4.269531-2.464844v4.929688zm0 0"/><path d="m177.152344 263.808594 4.269531-2.464844v4.929688zm0 0"/><path d="m185.691406 258.878906 4.269532-2.464844v4.929688zm0 0"/><path d="m194.230469 253.949219 4.269531-2.464844v4.929687zm0 0"/><path d="m198.5 251.484375 4.269531-2.464844v4.929688zm0 0"/><path d="m202.769531 249.019531 4.269531-2.464843v4.929687zm0 0"/><path d="m207.039062 246.554688 4.269532-2.464844v4.929687zm0 0"/><path d="m219.847656 239.160156 4.269532-2.464844v4.929688zm0 0"/><path d="m224.117188 236.695312 4.269531-2.464843v4.929687zm0 0"/><path d="m228.386719 234.230469 4.269531-2.464844v4.929687zm0 0"/><path d="m232.65625 231.765625 4.269531-2.464844v4.929688zm0 0"/><path d="m241.195312 226.835938 4.269532-2.464844v4.929687zm0 0"/><path d="m254.003906 224.371094 4.269532-2.464844v4.929688zm0 0"/><path d="m254.003906 194.789062 4.269532-2.464843v4.929687zm0 0"/><path d="m254.003906 189.859375 4.269532-2.464844v4.929688zm0 0"/><path d="m254.003906 184.929688 4.269532-2.464844v4.929687zm0 0"/><path d="m254.003906 175.070312 4.269532-2.464843v4.929687zm0 0"/><path d="m254.003906 170.140625 4.269532-2.464844v4.929688zm0 0"/><path d="m254.003906 165.210938 4.269532-2.464844v4.929687zm0 0"/><path d="m254.003906 135.628906 4.269532-2.464844v4.929688zm0 0"/><path d="m236.925781 125.769531 4.269531-2.464843v4.929687zm0 0"/><path d="m228.386719 120.839844 4.269531-2.464844v4.929688zm0 0"/><path d="m202.769531 106.050781 4.269531-2.464843v4.929687zm0 0"/><path d="m194.230469 101.121094 4.269531-2.464844v4.929688zm0 0"/><path d="m177.152344 91.261719 4.269531-2.464844v4.929687zm0 0"/><path d="m151.535156 106.050781 4.269532-2.464843v4.929687zm0 0"/><path d="m147.265625 108.515625 4.269531-2.464844v4.929688zm0 0"/><path d="m142.996094 110.980469 4.269531-2.464844v4.929687zm0 0"/><path d="m134.460938 115.910156 4.269531-2.464844v4.929688zm0 0"/><path d="m130.191406 118.375 4.269532-2.464844v4.929688zm0 0"/><path d="m125.921875 120.839844 4.269531-2.464844v4.929688zm0 0"/><path d="m100.304688 135.628906 4.269531-2.464844v4.929688zm0 0"/><path d="m100.304688 155.351562 4.269531-2.464843v4.929687zm0 0"/><path d="m100.304688 165.210938 4.269531-2.464844v4.929687zm0 0"/><path d="m100.304688 194.789062 4.269531-2.464843v4.929687zm0 0"/><path d="m100.304688 204.648438 4.269531-2.464844v4.929687zm0 0"/><path d="m100.304688 224.371094 4.269531-2.464844v4.929688zm0 0"/><path d="m125.921875 239.160156 4.269531-2.464844v4.929688zm0 0"/><path d="m130.191406 241.625 4.269532-2.464844v4.929688zm0 0"/><path d="m134.460938 244.089844 4.269531-2.464844v4.929688zm0 0"/><path d="m142.996094 249.019531 4.269531-2.464843v4.929687zm0 0"/><path d="m147.265625 251.484375 4.269531-2.464844v4.929688zm0 0"/><path d="m151.535156 253.949219 4.269532-2.464844v4.929687zm0 0"/><path d="m177.152344 268.738281 4.269531-2.464843v4.929687zm0 0"/><path d="m194.230469 258.878906 4.269531-2.464844v4.929688zm0 0"/><path d="m202.769531 253.949219 4.269531-2.464844v4.929687zm0 0"/><path d="m228.386719 239.160156 4.269531-2.464844v4.929688zm0 0"/><path d="m236.925781 234.230469 4.269531-2.464844v4.929687zm0 0"/><path d="m258.273438 207.113281 4.269531-2.464843v4.929687zm0 0"/><path d="m258.273438 197.253906 4.269531-2.464844v4.929688zm0 0"/><path d="m258.273438 192.324219 4.269531-2.464844v4.929687zm0 0"/><path d="m258.273438 187.394531 4.269531-2.464843v4.929687zm0 0"/><path d="m258.273438 182.464844 4.269531-2.464844v4.929688zm0 0"/><path d="m258.273438 177.535156 4.269531-2.464844v4.929688zm0 0"/><path d="m258.273438 172.605469 4.269531-2.464844v4.929687zm0 0"/><path d="m258.273438 167.675781 4.269531-2.464843v4.929687zm0 0"/><path d="m258.273438 162.746094 4.269531-2.464844v4.929688zm0 0"/><path d="m258.273438 152.886719 4.269531-2.464844v4.929687zm0 0"/><path d="m254.003906 130.699219 4.269532-2.464844v4.929687zm0 0"/><path d="m249.734375 128.234375 4.269531-2.464844v4.929688zm0 0"/><path d="m236.925781 120.839844 4.269531-2.464844v4.929688zm0 0"/><path d="m228.386719 115.910156 4.269531-2.464844v4.929688zm0 0"/><path d="m224.117188 113.445312 4.269531-2.464843v4.929687zm0 0"/><path d="m219.847656 110.980469 4.269532-2.464844v4.929687zm0 0"/><path d="m215.578125 108.515625 4.269531-2.464844v4.929688zm0 0"/><path d="m211.308594 106.050781 4.269531-2.464843v4.929687zm0 0"/><path d="m207.039062 103.585938 4.269532-2.464844v4.929687zm0 0"/><path d="m198.5 98.65625 4.269531-2.464844v4.929688zm0 0"/><path d="m185.691406 91.261719 4.269532-2.464844v4.929687zm0 0"/><path d="m181.421875 88.796875 4.269531-2.464844v4.929688zm0 0"/><path d="m160.074219 96.191406 4.269531-2.464844v4.929688zm0 0"/><path d="m151.535156 101.121094 4.269532-2.464844v4.929688zm0 0"/><path d="m147.265625 103.585938 4.269531-2.464844v4.929687zm0 0"/><path d="m142.996094 106.050781 4.269531-2.464843v4.929687zm0 0"/><path d="m138.730469 108.515625 4.265625-2.464844v4.929688zm0 0"/><path d="m134.460938 110.980469 4.269531-2.464844v4.929687zm0 0"/><path d="m130.191406 113.445312 4.269532-2.464843v4.929687zm0 0"/><path d="m125.921875 115.910156 4.269531-2.464844v4.929688zm0 0"/><path d="m121.652344 118.375 4.269531-2.464844v4.929688zm0 0"/><path d="m113.113281 123.304688 4.269531-2.464844v4.929687zm0 0"/><path d="m96.035156 138.09375 4.269532-2.464844v4.929688zm0 0"/><path d="m96.035156 143.023438 4.269532-2.464844v4.933594zm0 0"/><path d="m96.035156 157.816406 4.269532-2.464844v4.929688zm0 0"/><path d="m96.035156 167.675781 4.269532-2.464843v4.929687zm0 0"/><path d="m96.035156 172.605469 4.269532-2.464844v4.929687zm0 0"/><path d="m96.035156 177.535156 4.269532-2.464844v4.929688zm0 0"/><path d="m96.035156 182.464844 4.269532-2.464844v4.929688zm0 0"/><path d="m96.035156 187.394531 4.269532-2.464843v4.929687zm0 0"/><path d="m96.035156 192.324219 4.269532-2.464844v4.929687zm0 0"/><path d="m96.035156 202.183594 4.269532-2.464844v4.929688zm0 0"/><path d="m96.035156 216.976562 4.269532-2.46875v4.933594zm0 0"/><path d="m96.035156 221.90625 4.269532-2.464844v4.929688zm0 0"/><path d="m113.113281 236.695312 4.269531-2.464843v4.929687zm0 0"/><path d="m121.652344 241.625 4.269531-2.464844v4.929688zm0 0"/><path d="m125.921875 244.089844 4.269531-2.464844v4.929688zm0 0"/><path d="m130.191406 246.554688 4.269532-2.464844v4.929687zm0 0"/><path d="m134.460938 249.019531 4.269531-2.464843v4.929687zm0 0"/><path d="m138.730469 251.484375 4.265625-2.464844v4.929688zm0 0"/><path d="m142.996094 253.949219 4.269531-2.464844v4.929687zm0 0"/><path d="m147.265625 256.414062 4.269531-2.464843v4.929687zm0 0"/><path d="m151.535156 258.878906 4.269532-2.464844v4.929688zm0 0"/><path d="m160.074219 263.808594 4.269531-2.464844v4.929688zm0 0"/><path d="m181.421875 271.203125 4.269531-2.464844v4.929688zm0 0"/><path d="m185.691406 268.738281 4.269532-2.464843v4.929687zm0 0"/><path d="m198.5 261.34375 4.269531-2.464844v4.929688zm0 0"/><path d="m207.039062 256.414062 4.269532-2.464843v4.929687zm0 0"/><path d="m211.308594 253.949219 4.269531-2.464844v4.929687zm0 0"/><path d="m215.578125 251.484375 4.269531-2.464844v4.929688zm0 0"/><path d="m219.847656 249.019531 4.269532-2.464843v4.929687zm0 0"/><path d="m224.117188 246.554688 4.269531-2.464844v4.929687zm0 0"/><path d="m228.386719 244.089844 4.269531-2.464844v4.929688zm0 0"/><path d="m236.925781 239.160156 4.269531-2.464844v4.929688zm0 0"/><path d="m249.734375 231.765625 4.269531-2.464844v4.929688zm0 0"/><path d="m254.003906 229.300781 4.269532-2.464843v4.929687zm0 0"/><path d="m262.542969 224.371094 4.269531-2.464844v4.929688zm0 0"/><path d="m262.542969 209.578125 4.269531-2.464844v4.929688zm0 0"/><path d="m262.542969 204.648438 4.269531-2.464844v4.929687zm0 0"/><path d="m262.542969 155.351562 4.269531-2.464843v4.929687zm0 0"/><path d="m262.542969 150.421875 4.269531-2.464844v4.929688zm0 0"/><path d="m262.542969 135.628906 4.269531-2.464844v4.929688zm0 0"/><path d="m258.273438 128.234375 4.269531-2.464844v4.929688zm0 0"/><path d="m254.003906 125.769531 4.269532-2.464843v4.929687zm0 0"/><path d="m249.734375 123.304688 4.269531-2.464844v4.929687zm0 0"/><path d="m236.925781 115.910156 4.269531-2.464844v4.929688zm0 0"/><path d="m232.65625 113.445312 4.269531-2.464843v4.929687zm0 0"/><path d="m207.039062 98.65625 4.269532-2.464844v4.929688zm0 0"/><path d="m202.769531 96.191406 4.269531-2.464844v4.929688zm0 0"/><path d="m189.960938 88.796875 4.269531-2.464844v4.929688zm0 0"/><path d="m185.691406 86.332031 4.269532-2.464843v4.929687zm0 0"/><path d="m181.421875 83.867188 4.269531-2.464844v4.929687zm0 0"/><path d="m172.882812 83.867188 4.269532-2.464844v4.929687zm0 0"/><path d="m160.074219 91.261719 4.269531-2.464844v4.929687zm0 0"/><path d="m155.804688 93.726562 4.269531-2.464843v4.929687zm0 0"/><path d="m113.113281 118.375 4.269531-2.464844v4.929688zm0 0"/><path d="m108.84375 120.839844 4.269531-2.464844v4.929688zm0 0"/><path d="m96.035156 128.234375 4.269532-2.464844v4.929688zm0 0"/><path d="m91.765625 135.628906 4.269531-2.464844v4.929688zm0 0"/><path d="m91.765625 140.558594 4.269531-2.464844v4.929688zm0 0"/><path d="m91.765625 145.492188 4.269531-2.46875v4.933593zm0 0"/><path d="m91.765625 160.28125 4.269531-2.464844v4.929688zm0 0"/><path d="m91.765625 165.210938 4.269531-2.464844v4.929687zm0 0"/><path d="m91.765625 194.789062 4.269531-2.464843v4.929687zm0 0"/><path d="m91.765625 199.71875 4.269531-2.464844v4.929688zm0 0"/><path d="m91.765625 214.507812 4.269531-2.464843v4.933593zm0 0"/><path d="m91.765625 219.441406 4.269531-2.464844v4.929688zm0 0"/><path d="m91.765625 224.371094 4.269531-2.464844v4.929688zm0 0"/><path d="m96.035156 231.765625 4.269532-2.464844v4.929688zm0 0"/><path d="m108.84375 239.160156 4.269531-2.464844v4.929688zm0 0"/><path d="m113.113281 241.625 4.269531-2.464844v4.929688zm0 0"/><path d="m155.804688 266.273438 4.269531-2.464844v4.929687zm0 0"/><path d="m160.074219 268.738281 4.269531-2.464843v4.929687zm0 0"/><path d="m172.882812 276.132812 4.269532-2.464843v4.929687zm0 0"/><path d="m181.421875 276.132812 4.269531-2.464843v4.929687zm0 0"/><path d="m185.691406 273.667969 4.269532-2.464844v4.929687zm0 0"/><path d="m189.960938 271.203125 4.269531-2.464844v4.929688zm0 0"/><path d="m202.769531 263.808594 4.269531-2.464844v4.929688zm0 0"/><path d="m207.039062 261.34375 4.269532-2.464844v4.929688zm0 0"/><path d="m232.65625 246.554688 4.269531-2.464844v4.929687zm0 0"/><path d="m236.925781 244.089844 4.269531-2.464844v4.929688zm0 0"/><path d="m249.734375 236.695312 4.269531-2.464843v4.929687zm0 0"/><path d="m254.003906 234.230469 4.269532-2.464844v4.929687zm0 0"/><path d="m258.273438 231.765625 4.269531-2.464844v4.929688zm0 0"/><path d="m266.8125 226.835938 4.269531-2.464844v4.929687zm0 0"/><path d="m266.8125 221.90625 4.269531-2.464844v4.929688zm0 0"/><path d="m266.8125 216.976562 4.269531-2.46875v4.933594zm0 0"/><path d="m266.8125 207.113281 4.269531-2.464843v4.929687zm0 0"/><path d="m266.8125 202.183594 4.269531-2.464844v4.929688zm0 0"/><path d="m266.8125 182.464844 4.269531-2.464844v4.929688zm0 0"/><path d="m266.8125 177.535156 4.269531-2.464844v4.929688zm0 0"/><path d="m266.8125 157.816406 4.269531-2.464844v4.929688zm0 0"/><path d="m266.8125 152.886719 4.269531-2.464844v4.929687zm0 0"/><path d="m266.8125 143.023438 4.269531-2.464844v4.933594zm0 0"/><path d="m266.8125 138.09375 4.269531-2.464844v4.929688zm0 0"/><path d="m266.8125 133.164062 4.269531-2.464843v4.929687zm0 0"/><path d="m262.542969 125.769531 4.269531-2.464843v4.929687zm0 0"/><path d="m254.003906 120.839844 4.269532-2.464844v4.929688zm0 0"/><path d="m228.386719 106.050781 4.269531-2.464843v4.929687zm0 0"/><path d="m215.578125 98.65625 4.269531-2.464844v4.929688zm0 0"/><path d="m189.960938 83.867188 4.269531-2.464844v4.929687zm0 0"/><path d="m181.421875 78.9375 4.269531-2.464844v4.929688zm0 0"/><path d="m172.882812 78.9375 4.269532-2.464844v4.929688zm0 0"/><path d="m168.613281 81.402344 4.269531-2.464844v4.929688zm0 0"/><path d="m164.34375 83.867188 4.269531-2.464844v4.929687zm0 0"/><path d="m155.804688 88.796875 4.269531-2.464844v4.929688zm0 0"/><path d="m151.535156 91.261719 4.269532-2.464844v4.929687zm0 0"/><path d="m134.460938 101.121094 4.269531-2.464844v4.929688zm0 0"/><path d="m130.191406 103.585938 4.269532-2.464844v4.929687zm0 0"/><path d="m113.113281 113.445312 4.269531-2.464843v4.929687zm0 0"/><path d="m108.84375 115.910156 4.269531-2.464844v4.929688zm0 0"/><path d="m100.304688 120.839844 4.269531-2.464844v4.929688zm0 0"/><path d="m96.035156 123.304688 4.269532-2.464844v4.929687zm0 0"/><path d="m91.765625 125.769531 4.269531-2.464843v4.929687zm0 0"/><path d="m87.496094 133.164062 4.269531-2.464843v4.929687zm0 0"/><path d="m87.496094 143.023438 4.269531-2.464844v4.933594zm0 0"/><path d="m87.496094 172.605469 4.269531-2.464844v4.929687zm0 0"/><path d="m87.496094 187.394531 4.269531-2.464843v4.929687zm0 0"/><path d="m87.496094 216.976562 4.269531-2.46875v4.933594zm0 0"/><path d="m87.496094 226.835938 4.269531-2.464844v4.929687zm0 0"/><path d="m91.765625 234.230469 4.269531-2.464844v4.929687zm0 0"/><path d="m96.035156 236.695312 4.269532-2.464843v4.929687zm0 0"/><path d="m100.304688 239.160156 4.269531-2.464844v4.929688zm0 0"/><path d="m108.84375 244.089844 4.269531-2.464844v4.929688zm0 0"/><path d="m113.113281 246.554688 4.269531-2.464844v4.929687zm0 0"/><path d="m130.191406 256.414062 4.269532-2.464843v4.929687zm0 0"/><path d="m134.460938 258.878906 4.269531-2.464844v4.929688zm0 0"/><path d="m151.535156 268.738281 4.269532-2.464843v4.929687zm0 0"/><path d="m155.804688 271.203125 4.269531-2.464844v4.929688zm0 0"/><path d="m164.34375 276.132812 4.269531-2.464843v4.929687zm0 0"/><path d="m168.613281 278.597656 4.269531-2.464844v4.929688zm0 0"/><path d="m172.882812 281.0625 4.269532-2.464844v4.929688zm0 0"/><path d="m181.421875 281.0625 4.269531-2.464844v4.929688zm0 0"/><path d="m189.960938 276.132812 4.269531-2.464843v4.929687zm0 0"/><path d="m215.578125 261.34375 4.269531-2.464844v4.929688zm0 0"/><path d="m228.386719 253.949219 4.269531-2.464844v4.929687zm0 0"/><path d="m254.003906 239.160156 4.269532-2.464844v4.929688zm0 0"/><path d="m262.542969 234.230469 4.269531-2.464844v4.929687zm0 0"/><path d="m271.082031 234.230469 4.269531-2.464844v4.929687zm0 0"/><path d="m271.082031 229.300781 4.269531-2.464843v4.929687zm0 0"/><path d="m271.082031 224.371094 4.269531-2.464844v4.929688zm0 0"/><path d="m271.082031 214.507812 4.269531-2.464843v4.933593zm0 0"/><path d="m271.082031 199.71875 4.269531-2.464844v4.929688zm0 0"/><path d="m271.082031 160.28125 4.269531-2.464844v4.929688zm0 0"/><path d="m271.082031 145.492188 4.269531-2.46875v4.933593zm0 0"/><path d="m271.082031 135.628906 4.269531-2.464844v4.929688zm0 0"/><path d="m271.082031 130.699219 4.269531-2.464844v4.929687zm0 0"/><path d="m271.082031 125.769531 4.269531-2.464843v4.929687zm0 0"/><path d="m266.8125 123.304688 4.269531-2.464844v4.929687zm0 0"/><path d="m258.273438 118.375 4.269531-2.464844v4.929688zm0 0"/><path d="m249.734375 113.445312 4.269531-2.464843v4.929687zm0 0"/><path d="m245.464844 110.980469 4.269531-2.464844v4.929687zm0 0"/><path d="m202.769531 86.332031 4.269531-2.464843v4.929687zm0 0"/><path d="m198.5 83.867188 4.269531-2.464844v4.929687zm0 0"/><path d="m189.960938 78.9375 4.269531-2.464844v4.929688zm0 0"/><path d="m181.421875 74.007812 4.269531-2.464843v4.929687zm0 0"/><path d="m177.152344 71.542969 4.269531-2.46875v4.933593zm0 0"/><path d="m172.882812 74.007812 4.269532-2.464843v4.929687zm0 0"/><path d="m168.613281 76.472656 4.269531-2.464844v4.929688zm0 0"/><path d="m160.074219 81.402344 4.269531-2.464844v4.929688zm0 0"/><path d="m147.265625 88.796875 4.269531-2.464844v4.929688zm0 0"/><path d="m113.113281 108.515625 4.269531-2.464844v4.929688zm0 0"/><path d="m100.304688 115.910156 4.269531-2.464844v4.929688zm0 0"/><path d="m91.765625 120.839844 4.269531-2.464844v4.929688zm0 0"/><path d="m87.496094 123.304688 4.269531-2.464844v4.929687zm0 0"/><path d="m83.226562 125.769531 4.269532-2.464843v4.929687zm0 0"/><path d="m83.226562 130.699219 4.269532-2.464844v4.929687zm0 0"/><path d="m83.226562 140.558594 4.269532-2.464844v4.929688zm0 0"/><path d="m83.226562 150.421875 4.269532-2.464844v4.929688zm0 0"/><path d="m83.226562 155.351562 4.269532-2.464843v4.929687zm0 0"/><path d="m83.226562 204.648438 4.269532-2.464844v4.929687zm0 0"/><path d="m83.226562 209.578125 4.269532-2.464844v4.929688zm0 0"/><path d="m83.226562 219.441406 4.269532-2.464844v4.929688zm0 0"/><path d="m83.226562 229.300781 4.269532-2.464843v4.929687zm0 0"/><path d="m83.226562 234.230469 4.269532-2.464844v4.929687zm0 0"/><path d="m87.496094 236.695312 4.269531-2.464843v4.929687zm0 0"/><path d="m91.765625 239.160156 4.269531-2.464844v4.929688zm0 0"/><path d="m100.304688 244.089844 4.269531-2.464844v4.929688zm0 0"/><path d="m113.113281 251.484375 4.269531-2.464844v4.929688zm0 0"/><path d="m147.265625 271.203125 4.269531-2.464844v4.929688zm0 0"/><path d="m160.074219 278.597656 4.269531-2.464844v4.929688zm0 0"/><path d="m168.613281 283.527344 4.269531-2.464844v4.929688zm0 0"/><path d="m172.882812 285.992188 4.269532-2.464844v4.929687zm0 0"/><path d="m177.152344 288.457031 4.269531-2.464843v4.933593zm0 0"/><path d="m181.421875 285.992188 4.269531-2.464844v4.929687zm0 0"/><path d="m189.960938 281.0625 4.269531-2.464844v4.929688zm0 0"/><path d="m198.5 276.132812 4.269531-2.464843v4.929687zm0 0"/><path d="m202.769531 273.667969 4.269531-2.464844v4.929687zm0 0"/><path d="m245.464844 249.019531 4.269531-2.464843v4.929687zm0 0"/><path d="m249.734375 246.554688 4.269531-2.464844v4.929687zm0 0"/><path d="m258.273438 241.625 4.269531-2.464844v4.929688zm0 0"/><path d="m266.8125 236.695312 4.269531-2.464843v4.929687zm0 0"/><path d="m275.351562 236.695312 4.269532-2.464843v4.929687zm0 0"/><path d="m275.351562 207.113281 4.269532-2.464843v4.929687zm0 0"/><path d="m275.351562 187.394531 4.269532-2.464843v4.929687zm0 0"/><path d="m275.351562 182.464844 4.269532-2.464844v4.929688zm0 0"/><path d="m275.351562 177.535156 4.269532-2.464844v4.929688zm0 0"/><path d="m275.351562 172.605469 4.269532-2.464844v4.929687zm0 0"/><path d="m275.351562 152.886719 4.269532-2.464844v4.929687zm0 0"/><path d="m275.351562 123.304688 4.269532-2.464844v4.929687zm0 0"/><path d="m266.8125 118.375 4.269531-2.464844v4.929688zm0 0"/><path d="m262.542969 115.910156 4.269531-2.464844v4.929688zm0 0"/><path d="m254.003906 110.980469 4.269532-2.464844v4.929687zm0 0"/><path d="m249.734375 108.515625 4.269531-2.464844v4.929688zm0 0"/><path d="m236.925781 101.121094 4.269531-2.464844v4.929688zm0 0"/><path d="m232.65625 98.65625 4.269531-2.464844v4.929688zm0 0"/><path d="m228.386719 96.191406 4.269531-2.464844v4.929688zm0 0"/><path d="m224.117188 93.726562 4.269531-2.464843v4.929687zm0 0"/><path d="m219.847656 91.261719 4.269532-2.464844v4.929687zm0 0"/><path d="m215.578125 88.796875 4.269531-2.464844v4.929688zm0 0"/><path d="m202.769531 81.402344 4.269531-2.464844v4.929688zm0 0"/><path d="m198.5 78.9375 4.269531-2.464844v4.929688zm0 0"/><path d="m189.960938 74.007812 4.269531-2.464843v4.929687zm0 0"/><path d="m185.691406 71.542969 4.269532-2.46875v4.933593zm0 0"/><path d="m177.152344 66.609375 4.269531-2.464844v4.929688zm0 0"/><path d="m151.535156 81.402344 4.269532-2.464844v4.929688zm0 0"/><path d="m134.460938 91.261719 4.269531-2.464844v4.929687zm0 0"/><path d="m130.191406 93.726562 4.269532-2.464843v4.929687zm0 0"/><path d="m125.921875 96.191406 4.269531-2.464844v4.929688zm0 0"/><path d="m121.652344 98.65625 4.269531-2.464844v4.929688zm0 0"/><path d="m104.574219 108.515625 4.269531-2.464844v4.929688zm0 0"/><path d="m78.957031 123.304688 4.269531-2.464844v4.929687zm0 0"/><path d="m78.957031 133.164062 4.269531-2.464843v4.929687zm0 0"/><path d="m78.957031 138.09375 4.269531-2.464844v4.929688zm0 0"/><path d="m78.957031 147.957031 4.269531-2.464843v4.929687zm0 0"/><path d="m78.957031 152.886719 4.269531-2.464844v4.929687zm0 0"/><path d="m78.957031 167.675781 4.269531-2.464843v4.929687zm0 0"/><path d="m78.957031 172.605469 4.269531-2.464844v4.929687zm0 0"/><path d="m78.957031 177.535156 4.269531-2.464844v4.929688zm0 0"/><path d="m78.957031 182.464844 4.269531-2.464844v4.929688zm0 0"/><path d="m78.957031 187.394531 4.269531-2.464843v4.929687zm0 0"/><path d="m78.957031 192.324219 4.269531-2.464844v4.929687zm0 0"/><path d="m78.957031 207.113281 4.269531-2.464843v4.929687zm0 0"/><path d="m78.957031 212.042969 4.269531-2.464844v4.929687zm0 0"/><path d="m78.957031 221.90625 4.269531-2.464844v4.929688zm0 0"/><path d="m78.957031 226.835938 4.269531-2.464844v4.929687zm0 0"/><path d="m78.957031 236.695312 4.269531-2.464843v4.929687zm0 0"/><path d="m104.574219 251.484375 4.269531-2.464844v4.929688zm0 0"/><path d="m121.652344 261.34375 4.269531-2.464844v4.929688zm0 0"/><path d="m125.921875 263.808594 4.269531-2.464844v4.929688zm0 0"/><path d="m130.191406 266.273438 4.269532-2.464844v4.929687zm0 0"/><path d="m134.460938 268.738281 4.269531-2.464843v4.929687zm0 0"/><path d="m151.535156 278.597656 4.269532-2.464844v4.929688zm0 0"/><path d="m177.152344 293.390625 4.269531-2.464844v4.929688zm0 0"/><path d="m185.691406 288.457031 4.269532-2.464843v4.933593zm0 0"/><path d="m189.960938 285.992188 4.269531-2.464844v4.929687zm0 0"/><path d="m198.5 281.0625 4.269531-2.464844v4.929688zm0 0"/><path d="m202.769531 278.597656 4.269531-2.464844v4.929688zm0 0"/><path d="m215.578125 271.203125 4.269531-2.464844v4.929688zm0 0"/><path d="m219.847656 268.738281 4.269532-2.464843v4.929687zm0 0"/><path d="m224.117188 266.273438 4.269531-2.464844v4.929687zm0 0"/><path d="m228.386719 263.808594 4.269531-2.464844v4.929688zm0 0"/><path d="m232.65625 261.34375 4.269531-2.464844v4.929688zm0 0"/><path d="m236.925781 258.878906 4.269531-2.464844v4.929688zm0 0"/><path d="m249.734375 251.484375 4.269531-2.464844v4.929688zm0 0"/><path d="m254.003906 249.019531 4.269532-2.464843v4.929687zm0 0"/><path d="m262.542969 244.089844 4.269531-2.464844v4.929688zm0 0"/><path d="m266.8125 241.625 4.269531-2.464844v4.929688zm0 0"/><path d="m279.621094 234.230469 4.269531-2.464844v4.929687zm0 0"/><path d="m279.621094 209.578125 4.269531-2.464844v4.929688zm0 0"/><path d="m279.621094 184.929688 4.269531-2.464844v4.929687zm0 0"/><path d="m279.621094 175.070312 4.269531-2.464843v4.929687zm0 0"/><path d="m279.621094 150.421875 4.269531-2.464844v4.929688zm0 0"/><path d="m279.621094 125.769531 4.269531-2.464843v4.929687zm0 0"/><path d="m275.351562 118.375 4.269532-2.464844v4.929688zm0 0"/><path d="m271.082031 115.910156 4.269531-2.464844v4.929688zm0 0"/><path d="m266.8125 113.445312 4.269531-2.464843v4.929687zm0 0"/><path d="m254.003906 106.050781 4.269532-2.464843v4.929687zm0 0"/><path d="m241.195312 98.65625 4.269532-2.464844v4.929688zm0 0"/><path d="m232.65625 93.726562 4.269531-2.464843v4.929687zm0 0"/><path d="m224.117188 88.796875 4.269531-2.464844v4.929688zm0 0"/><path d="m215.578125 83.867188 4.269531-2.464844v4.929687zm0 0"/><path d="m202.769531 76.472656 4.269531-2.464844v4.929688zm0 0"/><path d="m189.960938 69.074219 4.269531-2.464844v4.933594zm0 0"/><path d="m185.691406 66.609375 4.269532-2.464844v4.929688zm0 0"/><path d="m181.421875 64.144531 4.269531-2.464843v4.929687zm0 0"/><path d="m172.882812 64.144531 4.269532-2.464843v4.929687zm0 0"/><path d="m151.535156 76.472656 4.269532-2.464844v4.929688zm0 0"/><path d="m130.191406 88.796875 4.269532-2.464844v4.929688zm0 0"/><path d="m121.652344 93.726562 4.269531-2.464843v4.929687zm0 0"/><path d="m100.304688 106.050781 4.269531-2.464843v4.929687zm0 0"/><path d="m78.957031 118.375 4.269531-2.464844v4.929688zm0 0"/><path d="m74.6875 125.769531 4.269531-2.464843v4.929687zm0 0"/><path d="m74.6875 130.699219 4.269531-2.464844v4.929687zm0 0"/><path d="m74.6875 135.628906 4.269531-2.464844v4.929688zm0 0"/><path d="m74.6875 150.421875 4.269531-2.464844v4.929688zm0 0"/><path d="m74.6875 165.210938 4.269531-2.464844v4.929687zm0 0"/><path d="m74.6875 175.070312 4.269531-2.464843v4.929687zm0 0"/><path d="m74.6875 184.929688 4.269531-2.464844v4.929687zm0 0"/><path d="m74.6875 194.789062 4.269531-2.464843v4.929687zm0 0"/><path d="m74.6875 209.578125 4.269531-2.464844v4.929688zm0 0"/><path d="m74.6875 224.371094 4.269531-2.464844v4.929688zm0 0"/><path d="m74.6875 229.300781 4.269531-2.464843v4.929687zm0 0"/><path d="m74.6875 234.230469 4.269531-2.464844v4.929687zm0 0"/><path d="m78.957031 241.625 4.269531-2.464844v4.929688zm0 0"/><path d="m100.304688 253.949219 4.269531-2.464844v4.929687zm0 0"/><path d="m121.652344 266.273438 4.269531-2.464844v4.929687zm0 0"/><path d="m130.191406 271.203125 4.269532-2.464844v4.929688zm0 0"/><path d="m151.535156 283.527344 4.269532-2.464844v4.929688zm0 0"/><path d="m172.882812 295.855469 4.269532-2.464844v4.929687zm0 0"/><path d="m181.421875 295.855469 4.269531-2.464844v4.929687zm0 0"/><path d="m185.691406 293.390625 4.269532-2.464844v4.929688zm0 0"/><path d="m189.960938 290.925781 4.269531-2.46875v4.933594zm0 0"/><path d="m202.769531 283.527344 4.269531-2.464844v4.929688zm0 0"/><path d="m215.578125 276.132812 4.269531-2.464843v4.929687zm0 0"/><path d="m224.117188 271.203125 4.269531-2.464844v4.929688zm0 0"/><path d="m232.65625 266.273438 4.269531-2.464844v4.929687zm0 0"/><path d="m241.195312 261.34375 4.269532-2.464844v4.929688zm0 0"/><path d="m254.003906 253.949219 4.269532-2.464844v4.929687zm0 0"/><path d="m266.8125 246.554688 4.269531-2.464844v4.929687zm0 0"/><path d="m271.082031 244.089844 4.269531-2.464844v4.929688zm0 0"/><path d="m275.351562 241.625 4.269532-2.464844v4.929688zm0 0"/><path d="m283.890625 241.625 4.269531-2.464844v4.929688zm0 0"/><path d="m283.890625 236.695312 4.269531-2.464843v4.929687zm0 0"/><path d="m283.890625 221.90625 4.269531-2.464844v4.929688zm0 0"/><path d="m283.890625 182.464844 4.269531-2.464844v4.929688zm0 0"/><path d="m283.890625 177.535156 4.269531-2.464844v4.929688zm0 0"/><path d="m283.890625 138.09375 4.269531-2.464844v4.929688zm0 0"/><path d="m283.890625 123.304688 4.269531-2.464844v4.929687zm0 0"/><path d="m283.890625 118.375 4.269531-2.464844v4.929688zm0 0"/><path d="m275.351562 113.445312 4.269532-2.464843v4.929687zm0 0"/><path d="m258.273438 103.585938 4.269531-2.464844v4.929687zm0 0"/><path d="m254.003906 101.121094 4.269532-2.464844v4.929688zm0 0"/><path d="m249.734375 98.65625 4.269531-2.464844v4.929688zm0 0"/><path d="m241.195312 93.726562 4.269532-2.464843v4.929687zm0 0"/><path d="m236.925781 91.261719 4.269531-2.464844v4.929687zm0 0"/><path d="m224.117188 83.867188 4.269531-2.464844v4.929687zm0 0"/><path d="m219.847656 81.402344 4.269532-2.464844v4.929688zm0 0"/><path d="m211.308594 76.472656 4.269531-2.464844v4.929688zm0 0"/><path d="m207.039062 74.007812 4.269532-2.464843v4.929687zm0 0"/><path d="m202.769531 71.542969 4.269531-2.46875v4.933593zm0 0"/><path d="m185.691406 61.679688 4.269532-2.464844v4.929687zm0 0"/><path d="m177.152344 56.75 4.269531-2.464844v4.929688zm0 0"/><path d="m172.882812 59.214844 4.269532-2.464844v4.929688zm0 0"/><path d="m160.074219 66.609375 4.269531-2.464844v4.929688zm0 0"/><path d="m125.921875 86.332031 4.269531-2.464843v4.929687zm0 0"/><path d="m121.652344 88.796875 4.269531-2.464844v4.929688zm0 0"/><path d="m87.496094 108.515625 4.269531-2.464844v4.929688zm0 0"/><path d="m74.6875 115.910156 4.269531-2.464844v4.929688zm0 0"/><path d="m70.417969 118.375 4.269531-2.464844v4.929688zm0 0"/><path d="m70.417969 128.234375 4.269531-2.464844v4.929688zm0 0"/><path d="m70.417969 147.957031 4.269531-2.464843v4.929687zm0 0"/><path d="m70.417969 152.886719 4.269531-2.464844v4.929687zm0 0"/><path d="m70.417969 157.816406 4.269531-2.464844v4.929688zm0 0"/><path d="m70.417969 167.675781 4.269531-2.464843v4.929687zm0 0"/><path d="m70.417969 172.605469 4.269531-2.464844v4.929687zm0 0"/><path d="m70.417969 187.394531 4.269531-2.464843v4.929687zm0 0"/><path d="m70.417969 192.324219 4.269531-2.464844v4.929687zm0 0"/><path d="m70.417969 202.183594 4.269531-2.464844v4.929688zm0 0"/><path d="m70.417969 207.113281 4.269531-2.464843v4.929687zm0 0"/><path d="m70.417969 212.042969 4.269531-2.464844v4.929687zm0 0"/><path d="m70.417969 231.765625 4.269531-2.464844v4.929688zm0 0"/><path d="m70.417969 241.625 4.269531-2.464844v4.929688zm0 0"/><path d="m74.6875 244.089844 4.269531-2.464844v4.929688zm0 0"/><path d="m87.496094 251.484375 4.269531-2.464844v4.929688zm0 0"/><path d="m121.652344 271.203125 4.269531-2.464844v4.929688zm0 0"/><path d="m125.921875 273.667969 4.269531-2.464844v4.929687zm0 0"/><path d="m160.074219 293.390625 4.269531-2.464844v4.929688zm0 0"/><path d="m172.882812 300.785156 4.269532-2.464844v4.929688zm0 0"/><path d="m177.152344 303.25 4.269531-2.464844v4.929688zm0 0"/><path d="m185.691406 298.320312 4.269532-2.464843v4.929687zm0 0"/><path d="m202.769531 288.457031 4.269531-2.464843v4.933593zm0 0"/><path d="m207.039062 285.992188 4.269532-2.464844v4.929687zm0 0"/><path d="m211.308594 283.527344 4.269531-2.464844v4.929688zm0 0"/><path d="m219.847656 278.597656 4.269532-2.464844v4.929688zm0 0"/><path d="m224.117188 276.132812 4.269531-2.464843v4.929687zm0 0"/><path d="m236.925781 268.738281 4.269531-2.464843v4.929687zm0 0"/><path d="m241.195312 266.273438 4.269532-2.464844v4.929687zm0 0"/><path d="m249.734375 261.34375 4.269531-2.464844v4.929688zm0 0"/><path d="m254.003906 258.878906 4.269532-2.464844v4.929688zm0 0"/><path d="m258.273438 256.414062 4.269531-2.464843v4.929687zm0 0"/><path d="m275.351562 246.554688 4.269532-2.464844v4.929687zm0 0"/><path d="m288.160156 239.160156 4.269532-2.464844v4.929688zm0 0"/><path d="m288.160156 234.230469 4.269532-2.464844v4.929687zm0 0"/><path d="m288.160156 219.441406 4.269532-2.464844v4.929688zm0 0"/><path d="m288.160156 199.71875 4.269532-2.464844v4.929688zm0 0"/><path d="m288.160156 184.929688 4.269532-2.464844v4.929687zm0 0"/><path d="m288.160156 175.070312 4.269532-2.464843v4.929687zm0 0"/><path d="m288.160156 160.28125 4.269532-2.464844v4.929688zm0 0"/><path d="m288.160156 140.558594 4.269532-2.464844v4.929688zm0 0"/><path d="m288.160156 125.769531 4.269532-2.464843v4.929687zm0 0"/><path d="m288.160156 120.839844 4.269532-2.464844v4.929688zm0 0"/><path d="m275.351562 108.515625 4.269532-2.464844v4.929688zm0 0"/><path d="m266.8125 103.585938 4.269531-2.464844v4.929687zm0 0"/><path d="m262.542969 101.121094 4.269531-2.464844v4.929688zm0 0"/><path d="m254.003906 96.191406 4.269532-2.464844v4.929688zm0 0"/><path d="m249.734375 93.726562 4.269531-2.464843v4.929687zm0 0"/><path d="m236.925781 86.332031 4.269531-2.464843v4.929687zm0 0"/><path d="m228.386719 81.402344 4.269531-2.464844v4.929688zm0 0"/><path d="m215.578125 74.007812 4.269531-2.464843v4.929687zm0 0"/><path d="m211.308594 71.542969 4.269531-2.46875v4.933593zm0 0"/><path d="m202.769531 66.609375 4.269531-2.464844v4.929688zm0 0"/><path d="m198.5 64.144531 4.269531-2.464843v4.929687zm0 0"/><path d="m189.960938 59.214844 4.269531-2.464844v4.929688zm0 0"/><path d="m172.882812 54.285156 4.269532-2.464844v4.929688zm0 0"/><path d="m168.613281 56.75 4.269531-2.464844v4.929688zm0 0"/><path d="m155.804688 64.144531 4.269531-2.464843v4.929687zm0 0"/><path d="m138.730469 74.007812 4.265625-2.464843v4.929687zm0 0"/><path d="m125.921875 81.402344 4.269531-2.464844v4.929688zm0 0"/><path d="m117.382812 86.332031 4.269532-2.464843v4.929687zm0 0"/><path d="m104.574219 93.726562 4.269531-2.464843v4.929687zm0 0"/><path d="m87.496094 103.585938 4.269531-2.464844v4.929687zm0 0"/><path d="m74.6875 110.980469 4.269531-2.464844v4.929687zm0 0"/><path d="m70.417969 113.445312 4.269531-2.464843v4.929687zm0 0"/><path d="m66.148438 130.699219 4.269531-2.464844v4.929687zm0 0"/><path d="m66.148438 140.558594 4.269531-2.464844v4.929688zm0 0"/><path d="m66.148438 145.492188 4.269531-2.46875v4.933593zm0 0"/><path d="m66.148438 155.351562 4.269531-2.464843v4.929687zm0 0"/><path d="m66.148438 160.28125 4.269531-2.464844v4.929688zm0 0"/><path d="m66.148438 175.070312 4.269531-2.464843v4.929687zm0 0"/><path d="m66.148438 184.929688 4.269531-2.464844v4.929687zm0 0"/><path d="m66.148438 199.71875 4.269531-2.464844v4.929688zm0 0"/><path d="m66.148438 204.648438 4.269531-2.464844v4.929687zm0 0"/><path d="m66.148438 214.507812 4.269531-2.464843v4.933593zm0 0"/><path d="m66.148438 219.441406 4.269531-2.464844v4.929688zm0 0"/><path d="m66.148438 229.300781 4.269531-2.464843v4.929687zm0 0"/><path d="m70.417969 246.554688 4.269531-2.464844v4.929687zm0 0"/><path d="m74.6875 249.019531 4.269531-2.464843v4.929687zm0 0"/><path d="m87.496094 256.414062 4.269531-2.464843v4.929687zm0 0"/><path d="m104.574219 266.273438 4.269531-2.464844v4.929687zm0 0"/><path d="m117.382812 273.667969 4.269532-2.464844v4.929687zm0 0"/><path d="m125.921875 278.597656 4.269531-2.464844v4.929688zm0 0"/><path d="m138.730469 285.992188 4.265625-2.464844v4.929687zm0 0"/><path d="m155.804688 295.855469 4.269531-2.464844v4.929687zm0 0"/><path d="m168.613281 303.25 4.269531-2.464844v4.929688zm0 0"/><path d="m172.882812 305.714844 4.269532-2.464844v4.929688zm0 0"/><path d="m189.960938 300.785156 4.269531-2.464844v4.929688zm0 0"/><path d="m198.5 295.855469 4.269531-2.464844v4.929687zm0 0"/><path d="m202.769531 293.390625 4.269531-2.464844v4.929688zm0 0"/><path d="m211.308594 288.457031 4.269531-2.464843v4.933593zm0 0"/><path d="m215.578125 285.992188 4.269531-2.464844v4.929687zm0 0"/><path d="m228.386719 278.597656 4.269531-2.464844v4.929688zm0 0"/><path d="m236.925781 273.667969 4.269531-2.464844v4.929687zm0 0"/><path d="m249.734375 266.273438 4.269531-2.464844v4.929687zm0 0"/><path d="m254.003906 263.808594 4.269532-2.464844v4.929688zm0 0"/><path d="m262.542969 258.878906 4.269531-2.464844v4.929688zm0 0"/><path d="m266.8125 256.414062 4.269531-2.464843v4.929687zm0 0"/><path d="m275.351562 251.484375 4.269532-2.464844v4.929688zm0 0"/><path d="m292.429688 246.554688 4.269531-2.464844v4.929687zm0 0"/><path d="m292.429688 221.90625 4.269531-2.464844v4.929688zm0 0"/><path d="m292.429688 202.183594 4.269531-2.464844v4.929688zm0 0"/><path d="m292.429688 192.324219 4.269531-2.464844v4.929687zm0 0"/><path d="m292.429688 182.464844 4.269531-2.464844v4.929688zm0 0"/><path d="m292.429688 177.535156 4.269531-2.464844v4.929688zm0 0"/><path d="m292.429688 167.675781 4.269531-2.464843v4.929687zm0 0"/><path d="m292.429688 157.816406 4.269531-2.464844v4.929688zm0 0"/><path d="m292.429688 138.09375 4.269531-2.464844v4.929688zm0 0"/><path d="m292.429688 113.445312 4.269531-2.464843v4.929687zm0 0"/><path d="m288.160156 110.980469 4.269532-2.464844v4.929687zm0 0"/><path d="m283.890625 108.515625 4.269531-2.464844v4.929688zm0 0"/><path d="m279.621094 106.050781 4.269531-2.464843v4.929687zm0 0"/><path d="m271.082031 101.121094 4.269531-2.464844v4.929688zm0 0"/><path d="m249.734375 88.796875 4.269531-2.464844v4.929688zm0 0"/><path d="m236.925781 81.402344 4.269531-2.464844v4.929688zm0 0"/><path d="m232.65625 78.9375 4.269531-2.464844v4.929688zm0 0"/><path d="m219.847656 71.542969 4.269532-2.46875v4.933593zm0 0"/><path d="m198.5 59.214844 4.269531-2.464844v4.929688zm0 0"/><path d="m189.960938 54.285156 4.269531-2.464844v4.929688zm0 0"/><path d="m185.691406 51.820312 4.269532-2.464843v4.929687zm0 0"/><path d="m181.421875 49.355469 4.269531-2.464844v4.929687zm0 0"/><path d="m177.152344 46.890625 4.269531-2.464844v4.929688zm0 0"/><path d="m155.804688 59.214844 4.269531-2.464844v4.929688zm0 0"/><path d="m138.730469 69.074219 4.265625-2.464844v4.933594zm0 0"/><path d="m130.191406 74.007812 4.269532-2.464843v4.929687zm0 0"/><path d="m121.652344 78.9375 4.269531-2.464844v4.929688zm0 0"/><path d="m117.382812 81.402344 4.269532-2.464844v4.929688zm0 0"/><path d="m108.84375 86.332031 4.269531-2.464843v4.929687zm0 0"/><path d="m100.304688 91.261719 4.269531-2.464844v4.929687zm0 0"/><path d="m83.226562 101.121094 4.269532-2.464844v4.929688zm0 0"/><path d="m61.878906 113.445312 4.269532-2.464843v4.929687zm0 0"/><path d="m61.878906 118.375 4.269532-2.464844v4.929688zm0 0"/><path d="m61.878906 123.304688 4.269532-2.464844v4.929687zm0 0"/><path d="m61.878906 128.234375 4.269532-2.464844v4.929688zm0 0"/><path d="m61.878906 138.09375 4.269532-2.464844v4.929688zm0 0"/><path d="m61.878906 162.746094 4.269532-2.464844v4.929688zm0 0"/><path d="m61.878906 177.535156 4.269532-2.464844v4.929688zm0 0"/><path d="m61.878906 182.464844 4.269532-2.464844v4.929688zm0 0"/><path d="m61.878906 197.253906 4.269532-2.464844v4.929688zm0 0"/><path d="m61.878906 221.90625 4.269532-2.464844v4.929688zm0 0"/><path d="m61.878906 231.765625 4.269532-2.464844v4.929688zm0 0"/><path d="m61.878906 236.695312 4.269532-2.464843v4.929687zm0 0"/><path d="m61.878906 241.625 4.269532-2.464844v4.929688zm0 0"/><path d="m61.878906 246.554688 4.269532-2.464844v4.929687zm0 0"/><path d="m83.226562 258.878906 4.269532-2.464844v4.929688zm0 0"/><path d="m100.304688 268.738281 4.269531-2.464843v4.929687zm0 0"/><path d="m108.84375 273.667969 4.269531-2.464844v4.929687zm0 0"/><path d="m117.382812 278.597656 4.269532-2.464844v4.929688zm0 0"/><path d="m121.652344 281.0625 4.269531-2.464844v4.929688zm0 0"/><path d="m130.191406 285.992188 4.269532-2.464844v4.929687zm0 0"/><path d="m138.730469 290.925781 4.265625-2.46875v4.933594zm0 0"/><path d="m155.804688 300.785156 4.269531-2.464844v4.929688zm0 0"/><path d="m177.152344 313.109375 4.269531-2.464844v4.929688zm0 0"/><path d="m181.421875 310.644531 4.269531-2.464843v4.929687zm0 0"/><path d="m185.691406 308.179688 4.269532-2.464844v4.929687zm0 0"/><path d="m189.960938 305.714844 4.269531-2.464844v4.929688zm0 0"/><path d="m198.5 300.785156 4.269531-2.464844v4.929688zm0 0"/><path d="m219.847656 288.457031 4.269532-2.464843v4.933593zm0 0"/><path d="m232.65625 281.0625 4.269531-2.464844v4.929688zm0 0"/><path d="m236.925781 278.597656 4.269531-2.464844v4.929688zm0 0"/><path d="m249.734375 271.203125 4.269531-2.464844v4.929688zm0 0"/><path d="m271.082031 258.878906 4.269531-2.464844v4.929688zm0 0"/><path d="m279.621094 253.949219 4.269531-2.464844v4.929687zm0 0"/><path d="m283.890625 251.484375 4.269531-2.464844v4.929688zm0 0"/><path d="m288.160156 249.019531 4.269532-2.464843v4.929687zm0 0"/><path d="m296.699219 244.089844 4.269531-2.464844v4.929688zm0 0"/><path d="m296.699219 234.230469 4.269531-2.464844v4.929687zm0 0"/><path d="m296.699219 229.300781 4.269531-2.464843v4.929687zm0 0"/><path d="m296.699219 194.789062 4.269531-2.464843v4.929687zm0 0"/><path d="m296.699219 184.929688 4.269531-2.464844v4.929687zm0 0"/><path d="m296.699219 175.070312 4.269531-2.464843v4.929687zm0 0"/><path d="m296.699219 165.210938 4.269531-2.464844v4.929687zm0 0"/><path d="m296.699219 130.699219 4.269531-2.464844v4.929687zm0 0"/><path d="m296.699219 125.769531 4.269531-2.464843v4.929687zm0 0"/><path d="m296.699219 115.910156 4.269531-2.464844v4.929688zm0 0"/><path d="m279.621094 101.121094 4.269531-2.464844v4.929688zm0 0"/><path d="m275.351562 98.65625 4.269532-2.464844v4.929688zm0 0"/><path d="m271.082031 96.191406 4.269531-2.464844v4.929688zm0 0"/><path d="m258.273438 88.796875 4.269531-2.464844v4.929688zm0 0"/><path d="m254.003906 86.332031 4.269532-2.464843v4.929687zm0 0"/><path d="m249.734375 83.867188 4.269531-2.464844v4.929687zm0 0"/><path d="m241.195312 78.9375 4.269532-2.464844v4.929688zm0 0"/><path d="m232.65625 74.007812 4.269531-2.464843v4.929687zm0 0"/><path d="m224.117188 69.074219 4.269531-2.464844v4.933594zm0 0"/><path d="m219.847656 66.609375 4.269532-2.464844v4.929688zm0 0"/><path d="m215.578125 64.144531 4.269531-2.464843v4.929687zm0 0"/><path d="m202.769531 56.75 4.269531-2.464844v4.929688zm0 0"/><path d="m198.5 54.285156 4.269531-2.464844v4.929688zm0 0"/><path d="m194.230469 51.820312 4.269531-2.464843v4.929687zm0 0"/><path d="m172.882812 44.425781 4.269532-2.464843v4.929687zm0 0"/><path d="m164.34375 49.355469 4.269531-2.464844v4.929687zm0 0"/><path d="m160.074219 51.820312 4.269531-2.464843v4.929687zm0 0"/><path d="m130.191406 69.074219 4.269532-2.464844v4.933594zm0 0"/><path d="m121.652344 74.007812 4.269531-2.464843v4.929687zm0 0"/><path d="m113.113281 78.9375 4.269531-2.464844v4.929688zm0 0"/><path d="m104.574219 83.867188 4.269531-2.464844v4.929687zm0 0"/><path d="m74.6875 101.121094 4.269531-2.464844v4.929688zm0 0"/><path d="m70.417969 103.585938 4.269531-2.464844v4.929687zm0 0"/><path d="m61.878906 108.515625 4.269532-2.464844v4.929688zm0 0"/><path d="m57.609375 130.699219 4.269531-2.464844v4.929687zm0 0"/><path d="m57.609375 135.628906 4.269531-2.464844v4.929688zm0 0"/><path d="m57.609375 140.558594 4.269531-2.464844v4.929688zm0 0"/><path d="m57.609375 155.351562 4.269531-2.464843v4.929687zm0 0"/><path d="m57.609375 160.28125 4.269531-2.464844v4.929688zm0 0"/><path d="m57.609375 165.210938 4.269531-2.464844v4.929687zm0 0"/><path d="m57.609375 175.070312 4.269531-2.464843v4.929687zm0 0"/><path d="m57.609375 184.929688 4.269531-2.464844v4.929687zm0 0"/><path d="m57.609375 194.789062 4.269531-2.464843v4.929687zm0 0"/><path d="m57.609375 199.71875 4.269531-2.464844v4.929688zm0 0"/><path d="m57.609375 204.648438 4.269531-2.464844v4.929687zm0 0"/><path d="m57.609375 219.441406 4.269531-2.464844v4.929688zm0 0"/><path d="m57.609375 224.371094 4.269531-2.464844v4.929688zm0 0"/><path d="m57.609375 229.300781 4.269531-2.464843v4.929687zm0 0"/><path d="m61.878906 251.484375 4.269532-2.464844v4.929688zm0 0"/><path d="m70.417969 256.414062 4.269531-2.464843v4.929687zm0 0"/><path d="m74.6875 258.878906 4.269531-2.464844v4.929688zm0 0"/><path d="m104.574219 276.132812 4.269531-2.464843v4.929687zm0 0"/><path d="m113.113281 281.0625 4.269531-2.464844v4.929688zm0 0"/><path d="m121.652344 285.992188 4.269531-2.464844v4.929687zm0 0"/><path d="m130.191406 290.925781 4.269532-2.46875v4.933594zm0 0"/><path d="m160.074219 308.179688 4.269531-2.464844v4.929687zm0 0"/><path d="m164.34375 310.644531 4.269531-2.464843v4.929687zm0 0"/><path d="m172.882812 315.574219 4.269532-2.464844v4.929687zm0 0"/><path d="m194.230469 308.179688 4.269531-2.464844v4.929687zm0 0"/><path d="m198.5 305.714844 4.269531-2.464844v4.929688zm0 0"/><path d="m202.769531 303.25 4.269531-2.464844v4.929688zm0 0"/><path d="m215.578125 295.855469 4.269531-2.464844v4.929687zm0 0"/><path d="m219.847656 293.390625 4.269532-2.464844v4.929688zm0 0"/><path d="m224.117188 290.925781 4.269531-2.46875v4.933594zm0 0"/><path d="m232.65625 285.992188 4.269531-2.464844v4.929687zm0 0"/><path d="m241.195312 281.0625 4.269532-2.464844v4.929688zm0 0"/><path d="m249.734375 276.132812 4.269531-2.464843v4.929687zm0 0"/><path d="m254.003906 273.667969 4.269532-2.464844v4.929687zm0 0"/><path d="m258.273438 271.203125 4.269531-2.464844v4.929688zm0 0"/><path d="m271.082031 263.808594 4.269531-2.464844v4.929688zm0 0"/><path d="m275.351562 261.34375 4.269532-2.464844v4.929688zm0 0"/><path d="m279.621094 258.878906 4.269531-2.464844v4.929688zm0 0"/><path d="m300.96875 241.625 4.269531-2.464844v4.929688zm0 0"/><path d="m300.96875 236.695312 4.269531-2.464843v4.929687zm0 0"/><path d="m300.96875 226.835938 4.269531-2.464844v4.929687zm0 0"/><path d="m300.96875 212.042969 4.269531-2.464844v4.929687zm0 0"/><path d="m300.96875 202.183594 4.269531-2.464844v4.929688zm0 0"/><path d="m300.96875 197.253906 4.269531-2.464844v4.929688zm0 0"/><path d="m300.96875 182.464844 4.269531-2.464844v4.929688zm0 0"/><path d="m300.96875 177.535156 4.269531-2.464844v4.929688zm0 0"/><path d="m300.96875 162.746094 4.269531-2.464844v4.929688zm0 0"/><path d="m300.96875 157.816406 4.269531-2.464844v4.929688zm0 0"/><path d="m300.96875 147.957031 4.269531-2.464843v4.929687zm0 0"/><path d="m300.96875 133.164062 4.269531-2.464843v4.929687zm0 0"/><path d="m300.96875 123.304688 4.269531-2.464844v4.929687zm0 0"/><path d="m300.96875 118.375 4.269531-2.464844v4.929688zm0 0"/><path d="m275.351562 93.726562 4.269532-2.464843v4.929687zm0 0"/><path d="m271.082031 91.261719 4.269531-2.464844v4.929687zm0 0"/><path d="m258.273438 83.867188 4.269531-2.464844v4.929687zm0 0"/><path d="m241.195312 74.007812 4.269532-2.464843v4.929687zm0 0"/><path d="m236.925781 71.542969 4.269531-2.46875v4.933593zm0 0"/><path d="m219.847656 61.679688 4.269532-2.464844v4.929687zm0 0"/><path d="m207.039062 54.285156 4.269532-2.464844v4.929688zm0 0"/><path d="m202.769531 51.820312 4.269531-2.464843v4.929687zm0 0"/><path d="m168.613281 41.960938 4.269531-2.464844v4.929687zm0 0"/><path d="m164.34375 44.425781 4.269531-2.464843v4.929687zm0 0"/><path d="m155.804688 49.355469 4.269531-2.464844v4.929687zm0 0"/><path d="m142.996094 56.75 4.269531-2.464844v4.929688zm0 0"/><path d="m134.460938 61.679688 4.269531-2.464844v4.929687zm0 0"/><path d="m130.191406 64.144531 4.269532-2.464843v4.929687zm0 0"/><path d="m117.382812 71.542969 4.269532-2.46875v4.933593zm0 0"/><path d="m113.113281 74.007812 4.269531-2.464843v4.929687zm0 0"/><path d="m100.304688 81.402344 4.269531-2.464844v4.929688zm0 0"/><path d="m96.035156 83.867188 4.269532-2.464844v4.929687zm0 0"/><path d="m87.496094 88.796875 4.269531-2.464844v4.929688zm0 0"/><path d="m74.6875 96.191406 4.269531-2.464844v4.929688zm0 0"/><path d="m66.148438 101.121094 4.269531-2.464844v4.929688zm0 0"/><path d="m61.878906 103.585938 4.269532-2.464844v4.929687zm0 0"/><path d="m53.339844 138.09375 4.269531-2.464844v4.929688zm0 0"/><path d="m53.339844 143.023438 4.269531-2.464844v4.933594zm0 0"/><path d="m53.339844 157.816406 4.269531-2.464844v4.929688zm0 0"/><path d="m53.339844 177.535156 4.269531-2.464844v4.929688zm0 0"/><path d="m53.339844 182.464844 4.269531-2.464844v4.929688zm0 0"/><path d="m53.339844 202.183594 4.269531-2.464844v4.929688zm0 0"/><path d="m53.339844 216.976562 4.269531-2.46875v4.933594zm0 0"/><path d="m53.339844 221.90625 4.269531-2.464844v4.929688zm0 0"/><path d="m61.878906 256.414062 4.269532-2.464843v4.929687zm0 0"/><path d="m66.148438 258.878906 4.269531-2.464844v4.929688zm0 0"/><path d="m74.6875 263.808594 4.269531-2.464844v4.929688zm0 0"/><path d="m87.496094 271.203125 4.269531-2.464844v4.929688zm0 0"/><path d="m96.035156 276.132812 4.269532-2.464843v4.929687zm0 0"/><path d="m100.304688 278.597656 4.269531-2.464844v4.929688zm0 0"/><path d="m113.113281 285.992188 4.269531-2.464844v4.929687zm0 0"/><path d="m117.382812 288.457031 4.269532-2.464843v4.933593zm0 0"/><path d="m130.191406 295.855469 4.269532-2.464844v4.929687zm0 0"/><path d="m134.460938 298.320312 4.269531-2.464843v4.929687zm0 0"/><path d="m142.996094 303.25 4.269531-2.464844v4.929688zm0 0"/><path d="m155.804688 310.644531 4.269531-2.464843v4.929687zm0 0"/><path d="m164.34375 315.574219 4.269531-2.464844v4.929687zm0 0"/><path d="m168.613281 318.039062 4.269531-2.464843v4.929687zm0 0"/><path d="m202.769531 308.179688 4.269531-2.464844v4.929687zm0 0"/><path d="m207.039062 305.714844 4.269532-2.464844v4.929688zm0 0"/><path d="m219.847656 298.320312 4.269532-2.464843v4.929687zm0 0"/><path d="m236.925781 288.457031 4.269531-2.464843v4.933593zm0 0"/><path d="m241.195312 285.992188 4.269532-2.464844v4.929687zm0 0"/><path d="m258.273438 276.132812 4.269531-2.464843v4.929687zm0 0"/><path d="m271.082031 268.738281 4.269531-2.464843v4.929687zm0 0"/><path d="m275.351562 266.273438 4.269532-2.464844v4.929687zm0 0"/><path d="m305.238281 253.949219 4.269531-2.464844v4.929687zm0 0"/><path d="m305.238281 244.089844 4.269531-2.464844v4.929688zm0 0"/><path d="m305.238281 234.230469 4.269531-2.464844v4.929687zm0 0"/><path d="m305.238281 224.371094 4.269531-2.464844v4.929688zm0 0"/><path d="m305.238281 214.507812 4.269531-2.464843v4.933593zm0 0"/><path d="m305.238281 204.648438 4.269531-2.464844v4.929687zm0 0"/><path d="m305.238281 194.789062 4.269531-2.464843v4.929687zm0 0"/><path d="m305.238281 184.929688 4.269531-2.464844v4.929687zm0 0"/><path d="m305.238281 175.070312 4.269531-2.464843v4.929687zm0 0"/><path d="m305.238281 165.210938 4.269531-2.464844v4.929687zm0 0"/><path d="m305.238281 155.351562 4.269531-2.464843v4.929687zm0 0"/><path d="m305.238281 145.492188 4.269531-2.46875v4.933593zm0 0"/><path d="m305.238281 135.628906 4.269531-2.464844v4.929688zm0 0"/><path d="m305.238281 125.769531 4.269531-2.464843v4.929687zm0 0"/><path d="m305.238281 115.910156 4.269531-2.464844v4.929688zm0 0"/><path d="m305.238281 106.050781 4.269531-2.464843v4.929687zm0 0"/><path d="m177.152344 32.101562 4.269531-2.464843v4.929687zm0 0"/><path d="m168.613281 37.03125 4.269531-2.464844v4.929688zm0 0"/><path d="m160.074219 41.960938 4.269531-2.464844v4.929687zm0 0"/><path d="m151.535156 46.890625 4.269532-2.464844v4.929688zm0 0"/><path d="m142.996094 51.820312 4.269531-2.464843v4.929687zm0 0"/><path d="m134.460938 56.75 4.269531-2.464844v4.929688zm0 0"/><path d="m125.921875 61.679688 4.269531-2.464844v4.929687zm0 0"/><path d="m117.382812 66.609375 4.269532-2.464844v4.929688zm0 0"/><path d="m108.84375 71.542969 4.269531-2.46875v4.933593zm0 0"/><path d="m100.304688 76.472656 4.269531-2.464844v4.929688zm0 0"/><path d="m91.765625 81.402344 4.269531-2.464844v4.929688zm0 0"/><path d="m83.226562 86.332031 4.269532-2.464843v4.929687zm0 0"/><path d="m74.6875 91.261719 4.269531-2.464844v4.929687zm0 0"/><path d="m66.148438 96.191406 4.269531-2.464844v4.929688zm0 0"/><path d="m57.609375 101.121094 4.269531-2.464844v4.929688zm0 0"/><path d="m49.070312 106.050781 4.269532-2.464843v4.929687zm0 0"/><path d="m49.070312 253.949219 4.269532-2.464844v4.929687zm0 0"/><path d="m57.609375 258.878906 4.269531-2.464844v4.929688zm0 0"/><path d="m66.148438 263.808594 4.269531-2.464844v4.929688zm0 0"/><path d="m74.6875 268.738281 4.269531-2.464843v4.929687zm0 0"/><path d="m83.226562 273.667969 4.269532-2.464844v4.929687zm0 0"/><path d="m91.765625 278.597656 4.269531-2.464844v4.929688zm0 0"/><path d="m100.304688 283.527344 4.269531-2.464844v4.929688zm0 0"/><path d="m108.84375 288.457031 4.269531-2.464843v4.933593zm0 0"/><path d="m117.382812 293.390625 4.269532-2.464844v4.929688zm0 0"/><path d="m125.921875 298.320312 4.269531-2.464843v4.929687zm0 0"/><path d="m134.460938 303.25 4.269531-2.464844v4.929688zm0 0"/><path d="m142.996094 308.179688 4.269531-2.464844v4.929687zm0 0"/><path d="m151.535156 313.109375 4.269532-2.464844v4.929688zm0 0"/><path d="m160.074219 318.039062 4.269531-2.464843v4.929687zm0 0"/><path d="m168.613281 322.96875 4.269531-2.464844v4.929688zm0 0"/><path d="m177.152344 327.898438 4.269531-2.464844v4.929687zm0 0"/><path d="m309.507812 256.414062 4.269532-2.464843v4.929687zm0 0"/><path d="m309.507812 251.484375 4.269532-2.464844v4.929688zm0 0"/><path d="m309.507812 246.554688 4.269532-2.464844v4.929687zm0 0"/><path d="m309.507812 241.625 4.269532-2.464844v4.929688zm0 0"/><path d="m309.507812 236.695312 4.269532-2.464843v4.929687zm0 0"/><path d="m309.507812 231.765625 4.269532-2.464844v4.929688zm0 0"/><path d="m309.507812 226.835938 4.269532-2.464844v4.929687zm0 0"/><path d="m309.507812 221.90625 4.269532-2.464844v4.929688zm0 0"/><path d="m309.507812 216.976562 4.269532-2.46875v4.933594zm0 0"/><path d="m309.507812 212.042969 4.269532-2.464844v4.929687zm0 0"/><path d="m309.507812 207.113281 4.269532-2.464843v4.929687zm0 0"/><path d="m309.507812 202.183594 4.269532-2.464844v4.929688zm0 0"/><path d="m309.507812 197.253906 4.269532-2.464844v4.929688zm0 0"/><path d="m309.507812 192.324219 4.269532-2.464844v4.929687zm0 0"/><path d="m309.507812 187.394531 4.269532-2.464843v4.929687zm0 0"/><path d="m309.507812 182.464844 4.269532-2.464844v4.929688zm0 0"/><path d="m309.507812 177.535156 4.269532-2.464844v4.929688zm0 0"/><path d="m309.507812 172.605469 4.269532-2.464844v4.929687zm0 0"/><path d="m309.507812 167.675781 4.269532-2.464843v4.929687zm0 0"/><path d="m309.507812 162.746094 4.269532-2.464844v4.929688zm0 0"/><path d="m309.507812 157.816406 4.269532-2.464844v4.929688zm0 0"/><path d="m309.507812 152.886719 4.269532-2.464844v4.929687zm0 0"/><path d="m309.507812 147.957031 4.269532-2.464843v4.929687zm0 0"/><path d="m309.507812 143.023438 4.269532-2.464844v4.933594zm0 0"/><path d="m309.507812 138.09375 4.269532-2.464844v4.929688zm0 0"/><path d="m309.507812 133.164062 4.269532-2.464843v4.929687zm0 0"/><path d="m309.507812 128.234375 4.269532-2.464844v4.929688zm0 0"/><path d="m309.507812 123.304688 4.269532-2.464844v4.929687zm0 0"/><path d="m309.507812 118.375 4.269532-2.464844v4.929688zm0 0"/><path d="m309.507812 113.445312 4.269532-2.464843v4.929687zm0 0"/><path d="m309.507812 108.515625 4.269532-2.464844v4.929688zm0 0"/><path d="m309.507812 103.585938 4.269532-2.464844v4.929687zm0 0"/><path d="m305.238281 101.121094 4.269531-2.464844v4.929688zm0 0"/><path d="m300.96875 98.65625 4.269531-2.464844v4.929688zm0 0"/><path d="m296.699219 96.191406 4.269531-2.464844v4.929688zm0 0"/><path d="m292.429688 93.726562 4.269531-2.464843v4.929687zm0 0"/><path d="m288.160156 91.261719 4.269532-2.464844v4.929687zm0 0"/><path d="m283.890625 88.796875 4.269531-2.464844v4.929688zm0 0"/><path d="m279.621094 86.332031 4.269531-2.464843v4.929687zm0 0"/><path d="m275.351562 83.867188 4.269532-2.464844v4.929687zm0 0"/><path d="m271.082031 81.402344 4.269531-2.464844v4.929688zm0 0"/><path d="m266.8125 78.9375 4.269531-2.464844v4.929688zm0 0"/><path d="m262.542969 76.472656 4.269531-2.464844v4.929688zm0 0"/><path d="m258.273438 74.007812 4.269531-2.464843v4.929687zm0 0"/><path d="m254.003906 71.542969 4.269532-2.46875v4.933593zm0 0"/><path d="m249.734375 69.074219 4.269531-2.464844v4.933594zm0 0"/><path d="m245.464844 66.609375 4.269531-2.464844v4.929688zm0 0"/><path d="m241.195312 64.144531 4.269532-2.464843v4.929687zm0 0"/><path d="m236.925781 61.679688 4.269531-2.464844v4.929687zm0 0"/><path d="m232.65625 59.214844 4.269531-2.464844v4.929688zm0 0"/><path d="m228.386719 56.75 4.269531-2.464844v4.929688zm0 0"/><path d="m224.117188 54.285156 4.269531-2.464844v4.929688zm0 0"/><path d="m219.847656 51.820312 4.269532-2.464843v4.929687zm0 0"/><path d="m215.578125 49.355469 4.269531-2.464844v4.929687zm0 0"/><path d="m211.308594 46.890625 4.269531-2.464844v4.929688zm0 0"/><path d="m207.039062 44.425781 4.269532-2.464843v4.929687zm0 0"/><path d="m202.769531 41.960938 4.269531-2.464844v4.929687zm0 0"/><path d="m198.5 39.496094 4.269531-2.464844v4.929688zm0 0"/><path d="m194.230469 37.03125 4.269531-2.464844v4.929688zm0 0"/><path d="m189.960938 34.566406 4.269531-2.464844v4.929688zm0 0"/><path d="m185.691406 32.101562 4.269532-2.464843v4.929687zm0 0"/><path d="m181.421875 29.636719 4.269531-2.464844v4.929687zm0 0"/><path d="m177.152344 27.171875 4.269531-2.464844v4.929688zm0 0"/><path d="m172.882812 29.636719 4.269532-2.464844v4.929687zm0 0"/><path d="m168.613281 32.101562 4.269531-2.464843v4.929687zm0 0"/><path d="m164.34375 34.566406 4.269531-2.464844v4.929688zm0 0"/><path d="m160.074219 37.03125 4.269531-2.464844v4.929688zm0 0"/><path d="m155.804688 39.496094 4.269531-2.464844v4.929688zm0 0"/><path d="m151.535156 41.960938 4.269532-2.464844v4.929687zm0 0"/><path d="m147.265625 44.425781 4.269531-2.464843v4.929687zm0 0"/><path d="m142.996094 46.890625 4.269531-2.464844v4.929688zm0 0"/><path d="m138.730469 49.355469 4.265625-2.464844v4.929687zm0 0"/><path d="m134.460938 51.820312 4.269531-2.464843v4.929687zm0 0"/><path d="m130.191406 54.285156 4.269532-2.464844v4.929688zm0 0"/><path d="m125.921875 56.75 4.269531-2.464844v4.929688zm0 0"/><path d="m121.652344 59.214844 4.269531-2.464844v4.929688zm0 0"/><path d="m117.382812 61.679688 4.269532-2.464844v4.929687zm0 0"/><path d="m113.113281 64.144531 4.269531-2.464843v4.929687zm0 0"/><path d="m108.84375 66.609375 4.269531-2.464844v4.929688zm0 0"/><path d="m104.574219 69.074219 4.269531-2.464844v4.933594zm0 0"/><path d="m100.304688 71.542969 4.269531-2.46875v4.933593zm0 0"/><path d="m96.035156 74.007812 4.269532-2.464843v4.929687zm0 0"/><path d="m91.765625 76.472656 4.269531-2.464844v4.929688zm0 0"/><path d="m87.496094 78.9375 4.269531-2.464844v4.929688zm0 0"/><path d="m83.226562 81.402344 4.269532-2.464844v4.929688zm0 0"/><path d="m78.957031 83.867188 4.269531-2.464844v4.929687zm0 0"/><path d="m74.6875 86.332031 4.269531-2.464843v4.929687zm0 0"/><path d="m70.417969 88.796875 4.269531-2.464844v4.929688zm0 0"/><path d="m66.148438 91.261719 4.269531-2.464844v4.929687zm0 0"/><path d="m61.878906 93.726562 4.269532-2.464843v4.929687zm0 0"/><path d="m57.609375 96.191406 4.269531-2.464844v4.929688zm0 0"/><path d="m53.339844 98.65625 4.269531-2.464844v4.929688zm0 0"/><path d="m49.070312 101.121094 4.269532-2.464844v4.929688zm0 0"/><path d="m44.800781 103.585938 4.269531-2.464844v4.929687zm0 0"/><path d="m44.800781 108.515625 4.269531-2.464844v4.929688zm0 0"/><path d="m44.800781 113.445312 4.269531-2.464843v4.929687zm0 0"/><path d="m44.800781 118.375 4.269531-2.464844v4.929688zm0 0"/><path d="m44.800781 123.304688 4.269531-2.464844v4.929687zm0 0"/><path d="m44.800781 128.234375 4.269531-2.464844v4.929688zm0 0"/><path d="m44.800781 133.164062 4.269531-2.464843v4.929687zm0 0"/><path d="m44.800781 138.09375 4.269531-2.464844v4.929688zm0 0"/><path d="m44.800781 143.023438 4.269531-2.464844v4.933594zm0 0"/><path d="m44.800781 147.957031 4.269531-2.464843v4.929687zm0 0"/><path d="m44.800781 152.886719 4.269531-2.464844v4.929687zm0 0"/><path d="m44.800781 157.816406 4.269531-2.464844v4.929688zm0 0"/><path d="m44.800781 162.746094 4.269531-2.464844v4.929688zm0 0"/><path d="m44.800781 167.675781 4.269531-2.464843v4.929687zm0 0"/><path d="m44.800781 172.605469 4.269531-2.464844v4.929687zm0 0"/><path d="m44.800781 177.535156 4.269531-2.464844v4.929688zm0 0"/><path d="m44.800781 182.464844 4.269531-2.464844v4.929688zm0 0"/><path d="m44.800781 187.394531 4.269531-2.464843v4.929687zm0 0"/><path d="m44.800781 192.324219 4.269531-2.464844v4.929687zm0 0"/><path d="m44.800781 197.253906 4.269531-2.464844v4.929688zm0 0"/><path d="m44.800781 202.183594 4.269531-2.464844v4.929688zm0 0"/><path d="m44.800781 207.113281 4.269531-2.464843v4.929687zm0 0"/><path d="m44.800781 212.042969 4.269531-2.464844v4.929687zm0 0"/><path d="m44.800781 216.976562 4.269531-2.46875v4.933594zm0 0"/><path d="m44.800781 221.90625 4.269531-2.464844v4.929688zm0 0"/><path d="m44.800781 226.835938 4.269531-2.464844v4.929687zm0 0"/><path d="m44.800781 231.765625 4.269531-2.464844v4.929688zm0 0"/><path d="m44.800781 236.695312 4.269531-2.464843v4.929687zm0 0"/><path d="m44.800781 241.625 4.269531-2.464844v4.929688zm0 0"/><path d="m44.800781 246.554688 4.269531-2.464844v4.929687zm0 0"/><path d="m44.800781 251.484375 4.269531-2.464844v4.929688zm0 0"/><path d="m44.800781 256.414062 4.269531-2.464843v4.929687zm0 0"/><path d="m49.070312 258.878906 4.269532-2.464844v4.929688zm0 0"/><path d="m53.339844 261.34375 4.269531-2.464844v4.929688zm0 0"/><path d="m57.609375 263.808594 4.269531-2.464844v4.929688zm0 0"/><path d="m61.878906 266.273438 4.269532-2.464844v4.929687zm0 0"/><path d="m66.148438 268.738281 4.269531-2.464843v4.929687zm0 0"/><path d="m70.417969 271.203125 4.269531-2.464844v4.929688zm0 0"/><path d="m74.6875 273.667969 4.269531-2.464844v4.929687zm0 0"/><path d="m78.957031 276.132812 4.269531-2.464843v4.929687zm0 0"/><path d="m83.226562 278.597656 4.269532-2.464844v4.929688zm0 0"/><path d="m87.496094 281.0625 4.269531-2.464844v4.929688zm0 0"/><path d="m91.765625 283.527344 4.269531-2.464844v4.929688zm0 0"/><path d="m96.035156 285.992188 4.269532-2.464844v4.929687zm0 0"/><path d="m100.304688 288.457031 4.269531-2.464843v4.933593zm0 0"/><path d="m104.574219 290.925781 4.269531-2.46875v4.933594zm0 0"/><path d="m108.84375 293.390625 4.269531-2.464844v4.929688zm0 0"/><path d="m113.113281 295.855469 4.269531-2.464844v4.929687zm0 0"/><path d="m117.382812 298.320312 4.269532-2.464843v4.929687zm0 0"/><path d="m121.652344 300.785156 4.269531-2.464844v4.929688zm0 0"/><path d="m125.921875 303.25 4.269531-2.464844v4.929688zm0 0"/><path d="m130.191406 305.714844 4.269532-2.464844v4.929688zm0 0"/><path d="m134.460938 308.179688 4.269531-2.464844v4.929687zm0 0"/><path d="m138.730469 310.644531 4.265625-2.464843v4.929687zm0 0"/><path d="m142.996094 313.109375 4.269531-2.464844v4.929688zm0 0"/><path d="m147.265625 315.574219 4.269531-2.464844v4.929687zm0 0"/><path d="m151.535156 318.039062 4.269532-2.464843v4.929687zm0 0"/><path d="m155.804688 320.503906 4.269531-2.464844v4.929688zm0 0"/><path d="m160.074219 322.96875 4.269531-2.464844v4.929688zm0 0"/><path d="m164.34375 325.433594 4.269531-2.464844v4.929688zm0 0"/><path d="m168.613281 327.898438 4.269531-2.464844v4.929687zm0 0"/><path d="m172.882812 330.363281 4.269532-2.464843v4.929687zm0 0"/><path d="m177.152344 332.828125 4.269531-2.464844v4.929688zm0 0"/><path d="m181.421875 330.363281 4.269531-2.464843v4.929687zm0 0"/><path d="m185.691406 327.898438 4.269532-2.464844v4.929687zm0 0"/><path d="m189.960938 325.433594 4.269531-2.464844v4.929688zm0 0"/><path d="m194.230469 322.96875 4.269531-2.464844v4.929688zm0 0"/><path d="m198.5 320.503906 4.269531-2.464844v4.929688zm0 0"/><path d="m202.769531 318.039062 4.269531-2.464843v4.929687zm0 0"/><path d="m207.039062 315.574219 4.269532-2.464844v4.929687zm0 0"/><path d="m211.308594 313.109375 4.269531-2.464844v4.929688zm0 0"/><path d="m215.578125 310.644531 4.269531-2.464843v4.929687zm0 0"/><path d="m219.847656 308.179688 4.269532-2.464844v4.929687zm0 0"/><path d="m224.117188 305.714844 4.269531-2.464844v4.929688zm0 0"/><path d="m228.386719 303.25 4.269531-2.464844v4.929688zm0 0"/><path d="m232.65625 300.785156 4.269531-2.464844v4.929688zm0 0"/><path d="m236.925781 298.320312 4.269531-2.464843v4.929687zm0 0"/><path d="m241.195312 295.855469 4.269532-2.464844v4.929687zm0 0"/><path d="m245.464844 293.390625 4.269531-2.464844v4.929688zm0 0"/><path d="m249.734375 290.925781 4.269531-2.46875v4.933594zm0 0"/><path d="m254.003906 288.457031 4.269532-2.464843v4.933593zm0 0"/><path d="m258.273438 285.992188 4.269531-2.464844v4.929687zm0 0"/><path d="m262.542969 283.527344 4.269531-2.464844v4.929688zm0 0"/><path d="m266.8125 281.0625 4.269531-2.464844v4.929688zm0 0"/><path d="m271.082031 278.597656 4.269531-2.464844v4.929688zm0 0"/><path d="m275.351562 276.132812 4.269532-2.464843v4.929687zm0 0"/><path d="m279.621094 273.667969 4.269531-2.464844v4.929687zm0 0"/><path d="m283.890625 271.203125 4.269531-2.464844v4.929688zm0 0"/><path d="m288.160156 268.738281 4.269532-2.464843v4.929687zm0 0"/><path d="m292.429688 266.273438 4.269531-2.464844v4.929687zm0 0"/><path d="m296.699219 263.808594 4.269531-2.464844v4.929688zm0 0"/><path d="m300.96875 261.34375 4.269531-2.464844v4.929688zm0 0"/><path d="m305.238281 258.878906 4.269531-2.464844v4.929688zm0 0"/><path d="m313.777344 258.878906 4.269531-2.464844v4.929688zm0 0"/><path d="m313.777344 101.121094 4.269531-2.464844v4.929688zm0 0"/><path d="m177.152344 22.242188 4.269531-2.464844v4.929687zm0 0"/><path d="m40.53125 101.121094 4.269531-2.464844v4.929688zm0 0"/><path d="m40.53125 258.878906 4.269531-2.464844v4.929688zm0 0"/><path d="m177.152344 337.757812 4.269531-2.464843v4.929687zm0 0"/></g></svg>