<svg height="360pt" viewBox="0 0 360 360" width="360pt" xmlns="http://www.w3.org/2000/svg"><path d="m0 0h360v360h-360z" fill="#800080"/><g fill="#fff"><path d="m182.121094 183.671875 6.355468-3.671875v7.339844zm0 0"/><path d="m175.761719 172.660156 6.359375-3.671875v7.339844zm0 0"/><path d="m175.761719 187.339844 6.359375-3.667969v7.339844zm0 0"/><path d="m188.476562 187.339844 6.359376-3.667969v7.339844zm0 0"/><path d="m188.476562 180 6.359376-3.671875v7.34375zm0 0"/><path d="m188.476562 172.660156 6.359376-3.671875v7.339844zm0 0"/><path d="m182.121094 168.988281 6.355468-3.671875v7.34375zm0 0"/><path d="m175.761719 165.316406 6.359375-3.671875v7.34375zm0 0"/><path d="m169.402344 168.988281 6.359375-3.671875v7.34375zm0 0"/><path d="m163.046875 172.660156 6.355469-3.671875v7.339844zm0 0"/><path d="m182.121094 191.011719 6.355468-3.671875v7.34375zm0 0"/><path d="m194.835938 191.011719 6.355468-3.671875v7.34375zm0 0"/><path d="m194.835938 183.671875 6.355468-3.671875v7.339844zm0 0"/><path d="m194.835938 176.328125 6.355468-3.667969v7.339844zm0 0"/><path d="m188.476562 165.316406 6.359376-3.671875v7.34375zm0 0"/><path d="m175.761719 157.976562 6.359375-3.671874v7.339843zm0 0"/><path d="m163.046875 194.683594 6.355469-3.671875v7.34375zm0 0"/><path d="m201.191406 194.683594 6.359375-3.671875v7.34375zm0 0"/><path d="m201.191406 187.339844 6.359375-3.667969v7.339844zm0 0"/><path d="m201.191406 172.660156 6.359375-3.671875v7.339844zm0 0"/><path d="m201.191406 165.316406 6.359375-3.671875v7.34375zm0 0"/><path d="m194.835938 161.644531 6.355468-3.667969v7.339844zm0 0"/><path d="m188.476562 157.976562 6.359376-3.671874v7.339843zm0 0"/><path d="m182.121094 154.304688 6.355468-3.671876v7.34375zm0 0"/><path d="m175.761719 150.632812 6.359375-3.667968v7.339844zm0 0"/><path d="m169.402344 154.304688 6.359375-3.671876v7.34375zm0 0"/><path d="m156.6875 161.644531 6.359375-3.667969v7.339844zm0 0"/><path d="m150.328125 194.683594 6.359375-3.671875v7.34375zm0 0"/><path d="m156.6875 198.355469 6.359375-3.671875v7.339844zm0 0"/><path d="m175.761719 209.367188 6.359375-3.671876v7.339844zm0 0"/><path d="m182.121094 205.695312 6.355468-3.671874v7.34375zm0 0"/><path d="m188.476562 202.023438 6.359376-3.667969v7.339843zm0 0"/><path d="m194.835938 198.355469 6.355468-3.671875v7.339844zm0 0"/><path d="m207.550781 198.355469 6.359375-3.671875v7.339844zm0 0"/><path d="m207.550781 191.011719 6.359375-3.671875v7.34375zm0 0"/><path d="m207.550781 183.671875 6.359375-3.671875v7.339844zm0 0"/><path d="m207.550781 176.328125 6.359375-3.667969v7.339844zm0 0"/><path d="m207.550781 168.988281 6.359375-3.671875v7.34375zm0 0"/><path d="m201.191406 157.976562 6.359375-3.671874v7.339843zm0 0"/><path d="m194.835938 154.304688 6.355468-3.671876v7.34375zm0 0"/><path d="m182.121094 146.964844 6.355468-3.671875v7.339843zm0 0"/><path d="m169.402344 146.964844 6.359375-3.671875v7.339843zm0 0"/><path d="m156.6875 154.304688 6.359375-3.671876v7.34375zm0 0"/><path d="m150.328125 157.976562 6.359375-3.671874v7.339843zm0 0"/><path d="m143.972656 161.644531 6.355469-3.667969v7.339844zm0 0"/><path d="m143.972656 168.988281 6.355469-3.671875v7.34375zm0 0"/><path d="m143.972656 176.328125 6.355469-3.667969v7.339844zm0 0"/><path d="m143.972656 191.011719 6.355469-3.671875v7.34375zm0 0"/><path d="m150.328125 202.023438 6.359375-3.667969v7.339843zm0 0"/><path d="m156.6875 205.695312 6.359375-3.671874v7.34375zm0 0"/><path d="m169.402344 213.035156 6.359375-3.667968v7.339843zm0 0"/><path d="m182.121094 213.035156 6.355468-3.667968v7.339843zm0 0"/><path d="m194.835938 205.695312 6.355468-3.671874v7.34375zm0 0"/><path d="m213.910156 202.023438 6.355469-3.667969v7.339843zm0 0"/><path d="m213.910156 187.339844 6.355469-3.667969v7.339844zm0 0"/><path d="m213.910156 165.316406 6.355469-3.671875v7.34375zm0 0"/><path d="m213.910156 157.976562 6.355469-3.671874v7.339843zm0 0"/><path d="m207.550781 154.304688 6.359375-3.671876v7.34375zm0 0"/><path d="m194.835938 146.964844 6.355468-3.671875v7.339843zm0 0"/><path d="m188.476562 143.292969 6.359376-3.671875v7.34375zm0 0"/><path d="m182.121094 139.621094 6.355468-3.667969v7.339844zm0 0"/><path d="m175.761719 135.953125 6.359375-3.671875v7.339844zm0 0"/><path d="m169.402344 139.621094 6.359375-3.667969v7.339844zm0 0"/><path d="m163.046875 143.292969 6.355469-3.671875v7.34375zm0 0"/><path d="m150.328125 150.632812 6.359375-3.667968v7.339844zm0 0"/><path d="m137.613281 157.976562 6.359375-3.671874v7.339843zm0 0"/><path d="m137.613281 165.316406 6.359375-3.671875v7.34375zm0 0"/><path d="m137.613281 180 6.359375-3.671875v7.34375zm0 0"/><path d="m137.613281 187.339844 6.359375-3.667969v7.339844zm0 0"/><path d="m143.972656 205.695312 6.355469-3.671874v7.34375zm0 0"/><path d="m150.328125 209.367188 6.359375-3.671876v7.339844zm0 0"/><path d="m156.6875 213.035156 6.359375-3.667968v7.339843zm0 0"/><path d="m163.046875 216.707031 6.355469-3.671875v7.34375zm0 0"/><path d="m169.402344 220.378906 6.359375-3.671875v7.339844zm0 0"/><path d="m175.761719 224.046875 6.359375-3.667969v7.339844zm0 0"/><path d="m182.121094 220.378906 6.355468-3.671875v7.339844zm0 0"/><path d="m188.476562 216.707031 6.359376-3.671875v7.34375zm0 0"/><path d="m194.835938 213.035156 6.355468-3.667968v7.339843zm0 0"/><path d="m207.550781 205.695312 6.359375-3.671874v7.34375zm0 0"/><path d="m220.265625 198.355469 6.359375-3.671875v7.339844zm0 0"/><path d="m220.265625 191.011719 6.359375-3.671875v7.34375zm0 0"/><path d="m220.265625 183.671875 6.359375-3.671875v7.339844zm0 0"/><path d="m220.265625 168.988281 6.359375-3.671875v7.34375zm0 0"/><path d="m220.265625 161.644531 6.359375-3.667969v7.339844zm0 0"/><path d="m213.910156 150.632812 6.355469-3.667968v7.339844zm0 0"/><path d="m207.550781 146.964844 6.359375-3.671875v7.339843zm0 0"/><path d="m201.191406 143.292969 6.359375-3.671875v7.34375zm0 0"/><path d="m194.835938 139.621094 6.355468-3.667969v7.339844zm0 0"/><path d="m182.121094 132.28125 6.355468-3.671875v7.34375zm0 0"/><path d="m169.402344 132.28125 6.359375-3.671875v7.34375zm0 0"/><path d="m156.6875 139.621094 6.359375-3.667969v7.339844zm0 0"/><path d="m150.328125 143.292969 6.359375-3.671875v7.34375zm0 0"/><path d="m143.972656 146.964844 6.355469-3.671875v7.339843zm0 0"/><path d="m137.613281 150.632812 6.359375-3.667968v7.339844zm0 0"/><path d="m131.257812 154.304688 6.355469-3.671876v7.34375zm0 0"/><path d="m131.257812 161.644531 6.355469-3.667969v7.339844zm0 0"/><path d="m131.257812 168.988281 6.355469-3.671875v7.34375zm0 0"/><path d="m131.257812 183.671875 6.355469-3.671875v7.339844zm0 0"/><path d="m131.257812 198.355469 6.355469-3.671875v7.339844zm0 0"/><path d="m131.257812 205.695312 6.355469-3.671874v7.34375zm0 0"/><path d="m137.613281 209.367188 6.359375-3.671876v7.339844zm0 0"/><path d="m143.972656 213.035156 6.355469-3.667968v7.339843zm0 0"/><path d="m156.6875 220.378906 6.359375-3.671875v7.339844zm0 0"/><path d="m169.402344 227.71875 6.359375-3.671875v7.34375zm0 0"/><path d="m182.121094 227.71875 6.355468-3.671875v7.34375zm0 0"/><path d="m194.835938 220.378906 6.355468-3.671875v7.339844zm0 0"/><path d="m201.191406 216.707031 6.359375-3.671875v7.34375zm0 0"/><path d="m207.550781 213.035156 6.359375-3.667968v7.339843zm0 0"/><path d="m213.910156 209.367188 6.355469-3.671876v7.339844zm0 0"/><path d="m226.625 202.023438 6.359375-3.667969v7.339843zm0 0"/><path d="m226.625 194.683594 6.359375-3.671875v7.34375zm0 0"/><path d="m226.625 180 6.359375-3.671875v7.34375zm0 0"/><path d="m226.625 172.660156 6.359375-3.671875v7.339844zm0 0"/><path d="m226.625 157.976562 6.359375-3.671874v7.339843zm0 0"/><path d="m226.625 150.632812 6.359375-3.667968v7.339844zm0 0"/><path d="m220.265625 146.964844 6.359375-3.671875v7.339843zm0 0"/><path d="m207.550781 139.621094 6.359375-3.667969v7.339844zm0 0"/><path d="m194.835938 132.28125 6.355468-3.671875v7.34375zm0 0"/><path d="m188.476562 128.609375 6.359376-3.671875v7.34375zm0 0"/><path d="m182.121094 124.9375 6.355468-3.667969v7.339844zm0 0"/><path d="m175.761719 121.269531 6.359375-3.671875v7.339844zm0 0"/><path d="m169.402344 124.9375 6.359375-3.667969v7.339844zm0 0"/><path d="m163.046875 128.609375 6.355469-3.671875v7.34375zm0 0"/><path d="m156.6875 132.28125 6.359375-3.671875v7.34375zm0 0"/><path d="m150.328125 135.953125 6.359375-3.671875v7.339844zm0 0"/><path d="m143.972656 139.621094 6.355469-3.667969v7.339844zm0 0"/><path d="m124.898438 150.632812 6.359374-3.667968v7.339844zm0 0"/><path d="m124.898438 165.316406 6.359374-3.671875v7.34375zm0 0"/><path d="m124.898438 172.660156 6.359374-3.671875v7.339844zm0 0"/><path d="m124.898438 180 6.359374-3.671875v7.34375zm0 0"/><path d="m124.898438 194.683594 6.359374-3.671875v7.34375zm0 0"/><path d="m124.898438 202.023438 6.359374-3.667969v7.339843zm0 0"/><path d="m124.898438 209.367188 6.359374-3.671876v7.339844zm0 0"/><path d="m137.613281 216.707031 6.359375-3.671875v7.34375zm0 0"/><path d="m150.328125 224.046875 6.359375-3.667969v7.339844zm0 0"/><path d="m156.6875 227.71875 6.359375-3.671875v7.34375zm0 0"/><path d="m163.046875 231.390625 6.355469-3.671875v7.34375zm0 0"/><path d="m169.402344 235.0625 6.359375-3.671875v7.339844zm0 0"/><path d="m175.761719 238.730469 6.359375-3.667969v7.339844zm0 0"/><path d="m182.121094 235.0625 6.355468-3.671875v7.339844zm0 0"/><path d="m188.476562 231.390625 6.359376-3.671875v7.34375zm0 0"/><path d="m194.835938 227.71875 6.355468-3.671875v7.34375zm0 0"/><path d="m207.550781 220.378906 6.359375-3.671875v7.339844zm0 0"/><path d="m232.984375 213.035156 6.355469-3.667968v7.339843zm0 0"/><path d="m232.984375 198.355469 6.355469-3.671875v7.339844zm0 0"/><path d="m232.984375 191.011719 6.355469-3.671875v7.34375zm0 0"/><path d="m232.984375 183.671875 6.355469-3.671875v7.339844zm0 0"/><path d="m232.984375 168.988281 6.355469-3.671875v7.34375zm0 0"/><path d="m232.984375 161.644531 6.355469-3.667969v7.339844zm0 0"/><path d="m232.984375 154.304688 6.355469-3.671876v7.34375zm0 0"/><path d="m226.625 143.292969 6.359375-3.671875v7.34375zm0 0"/><path d="m220.265625 139.621094 6.359375-3.667969v7.339844zm0 0"/><path d="m213.910156 135.953125 6.355469-3.671875v7.339844zm0 0"/><path d="m207.550781 132.28125 6.359375-3.671875v7.34375zm0 0"/><path d="m201.191406 128.609375 6.359375-3.671875v7.34375zm0 0"/><path d="m194.835938 124.9375 6.355468-3.667969v7.339844zm0 0"/><path d="m182.121094 117.597656 6.355468-3.671875v7.34375zm0 0"/><path d="m175.761719 113.925781 6.359375-3.667969v7.339844zm0 0"/><path d="m156.6875 124.9375 6.359375-3.667969v7.339844zm0 0"/><path d="m143.972656 132.28125 6.355469-3.671875v7.34375zm0 0"/><path d="m137.613281 135.953125 6.359375-3.671875v7.339844zm0 0"/><path d="m131.257812 139.621094 6.355469-3.667969v7.339844zm0 0"/><path d="m124.898438 143.292969 6.359374-3.671875v7.34375zm0 0"/><path d="m118.539062 146.964844 6.359376-3.671875v7.339843zm0 0"/><path d="m118.539062 154.304688 6.359376-3.671876v7.34375zm0 0"/><path d="m118.539062 161.644531 6.359376-3.667969v7.339844zm0 0"/><path d="m118.539062 176.328125 6.359376-3.667969v7.339844zm0 0"/><path d="m118.539062 183.671875 6.359376-3.671875v7.339844zm0 0"/><path d="m118.539062 191.011719 6.359376-3.671875v7.34375zm0 0"/><path d="m118.539062 198.355469 6.359376-3.671875v7.339844zm0 0"/><path d="m118.539062 213.035156 6.359376-3.667968v7.339843zm0 0"/><path d="m124.898438 216.707031 6.359374-3.671875v7.34375zm0 0"/><path d="m131.257812 220.378906 6.355469-3.671875v7.339844zm0 0"/><path d="m137.613281 224.046875 6.359375-3.667969v7.339844zm0 0"/><path d="m150.328125 231.390625 6.359375-3.671875v7.34375zm0 0"/><path d="m169.402344 242.402344 6.359375-3.671875v7.34375zm0 0"/><path d="m182.121094 242.402344 6.355468-3.671875v7.34375zm0 0"/><path d="m194.835938 235.0625 6.355468-3.671875v7.339844zm0 0"/><path d="m201.191406 231.390625 6.359375-3.671875v7.34375zm0 0"/><path d="m207.550781 227.71875 6.359375-3.671875v7.34375zm0 0"/><path d="m213.910156 224.046875 6.355469-3.667969v7.339844zm0 0"/><path d="m220.265625 220.378906 6.359375-3.671875v7.339844zm0 0"/><path d="m226.625 216.707031 6.359375-3.671875v7.34375zm0 0"/><path d="m239.339844 216.707031 6.359375-3.671875v7.34375zm0 0"/><path d="m239.339844 209.367188 6.359375-3.671876v7.339844zm0 0"/><path d="m239.339844 202.023438 6.359375-3.667969v7.339843zm0 0"/><path d="m239.339844 194.683594 6.359375-3.671875v7.34375zm0 0"/><path d="m239.339844 187.339844 6.359375-3.667969v7.339844zm0 0"/><path d="m239.339844 180 6.359375-3.671875v7.34375zm0 0"/><path d="m239.339844 172.660156 6.359375-3.671875v7.339844zm0 0"/><path d="m239.339844 165.316406 6.359375-3.671875v7.34375zm0 0"/><path d="m239.339844 150.632812 6.359375-3.667968v7.339844zm0 0"/><path d="m239.339844 143.292969 6.359375-3.671875v7.34375zm0 0"/><path d="m232.984375 139.621094 6.355469-3.667969v7.339844zm0 0"/><path d="m220.265625 132.28125 6.359375-3.671875v7.34375zm0 0"/><path d="m207.550781 124.9375 6.359375-3.667969v7.339844zm0 0"/><path d="m194.835938 117.597656 6.355468-3.671875v7.34375zm0 0"/><path d="m188.476562 113.925781 6.359376-3.667969v7.339844zm0 0"/><path d="m182.121094 110.257812 6.355468-3.671874v7.339843zm0 0"/><path d="m175.761719 106.585938 6.359375-3.671876v7.34375zm0 0"/><path d="m169.402344 110.257812 6.359375-3.671874v7.339843zm0 0"/><path d="m156.6875 117.597656 6.359375-3.671875v7.34375zm0 0"/><path d="m150.328125 121.269531 6.359375-3.671875v7.339844zm0 0"/><path d="m143.972656 124.9375 6.355469-3.667969v7.339844zm0 0"/><path d="m137.613281 128.609375 6.359375-3.671875v7.34375zm0 0"/><path d="m131.257812 132.28125 6.355469-3.671875v7.34375zm0 0"/><path d="m112.183594 157.976562 6.355468-3.671874v7.339843zm0 0"/><path d="m112.183594 165.316406 6.355468-3.671875v7.34375zm0 0"/><path d="m112.183594 172.660156 6.355468-3.671875v7.339844zm0 0"/><path d="m112.183594 187.339844 6.355468-3.667969v7.339844zm0 0"/><path d="m112.183594 202.023438 6.355468-3.667969v7.339843zm0 0"/><path d="m112.183594 209.367188 6.355468-3.671876v7.339844zm0 0"/><path d="m112.183594 216.707031 6.355468-3.671875v7.34375zm0 0"/><path d="m124.898438 224.046875 6.359374-3.667969v7.339844zm0 0"/><path d="m137.613281 231.390625 6.359375-3.671875v7.34375zm0 0"/><path d="m143.972656 235.0625 6.355469-3.671875v7.339844zm0 0"/><path d="m150.328125 238.730469 6.359375-3.667969v7.339844zm0 0"/><path d="m156.6875 242.402344 6.359375-3.671875v7.34375zm0 0"/><path d="m163.046875 246.074219 6.355469-3.671875v7.339844zm0 0"/><path d="m169.402344 249.742188 6.359375-3.667969v7.339843zm0 0"/><path d="m175.761719 253.414062 6.359375-3.671874v7.34375zm0 0"/><path d="m182.121094 249.742188 6.355468-3.667969v7.339843zm0 0"/><path d="m188.476562 246.074219 6.359376-3.671875v7.339844zm0 0"/><path d="m194.835938 242.402344 6.355468-3.671875v7.34375zm0 0"/><path d="m207.550781 235.0625 6.359375-3.671875v7.339844zm0 0"/><path d="m220.265625 227.71875 6.359375-3.671875v7.34375zm0 0"/><path d="m232.984375 220.378906 6.355469-3.671875v7.339844zm0 0"/><path d="m245.699219 220.378906 6.355469-3.671875v7.339844zm0 0"/><path d="m245.699219 205.695312 6.355469-3.671874v7.34375zm0 0"/><path d="m245.699219 198.355469 6.355469-3.671875v7.339844zm0 0"/><path d="m245.699219 154.304688 6.355469-3.671876v7.34375zm0 0"/><path d="m245.699219 146.964844 6.355469-3.671875v7.339843zm0 0"/><path d="m239.339844 135.953125 6.359375-3.671875v7.339844zm0 0"/><path d="m232.984375 132.28125 6.355469-3.671875v7.34375zm0 0"/><path d="m226.625 128.609375 6.359375-3.671875v7.34375zm0 0"/><path d="m220.265625 124.9375 6.359375-3.667969v7.339844zm0 0"/><path d="m213.910156 121.269531 6.355469-3.671875v7.339844zm0 0"/><path d="m207.550781 117.597656 6.359375-3.671875v7.34375zm0 0"/><path d="m201.191406 113.925781 6.359375-3.667969v7.339844zm0 0"/><path d="m194.835938 110.257812 6.355468-3.671874v7.339843zm0 0"/><path d="m182.121094 102.914062 6.355468-3.671874v7.34375zm0 0"/><path d="m175.761719 99.242188 6.359375-3.667969v7.339843zm0 0"/><path d="m163.046875 106.585938 6.355469-3.671876v7.34375zm0 0"/><path d="m150.328125 113.925781 6.359375-3.667969v7.339844zm0 0"/><path d="m143.972656 117.597656 6.355469-3.671875v7.34375zm0 0"/><path d="m118.539062 132.28125 6.359376-3.671875v7.34375zm0 0"/><path d="m112.183594 135.953125 6.355468-3.671875v7.339844zm0 0"/><path d="m105.824219 146.964844 6.359375-3.671875v7.339843zm0 0"/><path d="m105.824219 154.304688 6.359375-3.671876v7.34375zm0 0"/><path d="m105.824219 168.988281 6.359375-3.671875v7.34375zm0 0"/><path d="m105.824219 176.328125 6.359375-3.667969v7.339844zm0 0"/><path d="m105.824219 183.671875 6.359375-3.671875v7.339844zm0 0"/><path d="m105.824219 191.011719 6.359375-3.671875v7.34375zm0 0"/><path d="m105.824219 198.355469 6.359375-3.671875v7.339844zm0 0"/><path d="m105.824219 205.695312 6.359375-3.671874v7.34375zm0 0"/><path d="m105.824219 220.378906 6.359375-3.671875v7.339844zm0 0"/><path d="m112.183594 224.046875 6.355468-3.667969v7.339844zm0 0"/><path d="m118.539062 227.71875 6.359376-3.671875v7.34375zm0 0"/><path d="m124.898438 231.390625 6.359374-3.671875v7.34375zm0 0"/><path d="m131.257812 235.0625 6.355469-3.671875v7.339844zm0 0"/><path d="m137.613281 238.730469 6.359375-3.667969v7.339844zm0 0"/><path d="m143.972656 242.402344 6.355469-3.671875v7.34375zm0 0"/><path d="m150.328125 246.074219 6.359375-3.671875v7.339844zm0 0"/><path d="m156.6875 249.742188 6.359375-3.667969v7.339843zm0 0"/><path d="m169.402344 257.085938 6.359375-3.671876v7.34375zm0 0"/><path d="m182.121094 257.085938 6.355468-3.671876v7.34375zm0 0"/><path d="m194.835938 249.742188 6.355468-3.667969v7.339843zm0 0"/><path d="m201.191406 246.074219 6.359375-3.671875v7.339844zm0 0"/><path d="m207.550781 242.402344 6.359375-3.671875v7.34375zm0 0"/><path d="m213.910156 238.730469 6.355469-3.667969v7.339844zm0 0"/><path d="m220.265625 235.0625 6.359375-3.671875v7.339844zm0 0"/><path d="m226.625 231.390625 6.359375-3.671875v7.34375zm0 0"/><path d="m232.984375 227.71875 6.355469-3.671875v7.34375zm0 0"/><path d="m239.339844 224.046875 6.359375-3.667969v7.339844zm0 0"/><path d="m252.054688 224.046875 6.359374-3.667969v7.339844zm0 0"/><path d="m252.054688 216.707031 6.359374-3.671875v7.34375zm0 0"/><path d="m252.054688 209.367188 6.359374-3.671876v7.339844zm0 0"/><path d="m252.054688 194.683594 6.359374-3.671875v7.34375zm0 0"/><path d="m252.054688 187.339844 6.359374-3.667969v7.339844zm0 0"/><path d="m252.054688 180 6.359374-3.671875v7.34375zm0 0"/><path d="m252.054688 172.660156 6.359374-3.671875v7.339844zm0 0"/><path d="m252.054688 165.316406 6.359374-3.671875v7.34375zm0 0"/><path d="m252.054688 143.292969 6.359374-3.671875v7.34375zm0 0"/><path d="m252.054688 135.953125 6.359374-3.671875v7.339844zm0 0"/><path d="m245.699219 132.28125 6.355469-3.671875v7.34375zm0 0"/><path d="m232.984375 124.9375 6.355469-3.667969v7.339844zm0 0"/><path d="m220.265625 117.597656 6.359375-3.671875v7.34375zm0 0"/><path d="m207.550781 110.257812 6.359375-3.671874v7.339843zm0 0"/><path d="m194.835938 102.914062 6.355468-3.671874v7.34375zm0 0"/><path d="m188.476562 99.242188 6.359376-3.667969v7.339843zm0 0"/><path d="m182.121094 95.574219 6.355468-3.671875v7.339844zm0 0"/><path d="m175.761719 91.902344 6.359375-3.671875v7.34375zm0 0"/><path d="m169.402344 95.574219 6.359375-3.671875v7.339844zm0 0"/><path d="m163.046875 99.242188 6.355469-3.667969v7.339843zm0 0"/><path d="m156.6875 102.914062 6.359375-3.671874v7.34375zm0 0"/><path d="m150.328125 106.585938 6.359375-3.671876v7.34375zm0 0"/><path d="m137.613281 113.925781 6.359375-3.667969v7.339844zm0 0"/><path d="m131.257812 117.597656 6.355469-3.671875v7.34375zm0 0"/><path d="m112.183594 128.609375 6.355468-3.671875v7.34375zm0 0"/><path d="m105.824219 132.28125 6.359375-3.671875v7.34375zm0 0"/><path d="m99.464844 135.953125 6.359375-3.671875v7.339844zm0 0"/><path d="m99.464844 150.632812 6.359375-3.667968v7.339844zm0 0"/><path d="m99.464844 157.976562 6.359375-3.671874v7.339843zm0 0"/><path d="m99.464844 165.316406 6.359375-3.671875v7.34375zm0 0"/><path d="m99.464844 180 6.359375-3.671875v7.34375zm0 0"/><path d="m99.464844 187.339844 6.359375-3.667969v7.339844zm0 0"/><path d="m99.464844 194.683594 6.359375-3.671875v7.34375zm0 0"/><path d="m99.464844 209.367188 6.359375-3.671876v7.339844zm0 0"/><path d="m99.464844 216.707031 6.359375-3.671875v7.34375zm0 0"/><path d="m118.539062 235.0625 6.359376-3.671875v7.339844zm0 0"/><path d="m124.898438 238.730469 6.359374-3.667969v7.339844zm0 0"/><path d="m131.257812 242.402344 6.355469-3.671875v7.34375zm0 0"/><path d="m137.613281 246.074219 6.359375-3.671875v7.339844zm0 0"/><path d="m163.046875 260.757812 6.355469-3.671874v7.339843zm0 0"/><path d="m169.402344 264.425781 6.359375-3.667969v7.339844zm0 0"/><path d="m175.761719 268.097656 6.359375-3.671875v7.34375zm0 0"/><path d="m182.121094 264.425781 6.355468-3.667969v7.339844zm0 0"/><path d="m188.476562 260.757812 6.359376-3.671874v7.339843zm0 0"/><path d="m194.835938 257.085938 6.355468-3.671876v7.34375zm0 0"/><path d="m207.550781 249.742188 6.359375-3.667969v7.339843zm0 0"/><path d="m220.265625 242.402344 6.359375-3.671875v7.34375zm0 0"/><path d="m232.984375 235.0625 6.355469-3.671875v7.339844zm0 0"/><path d="m245.699219 227.71875 6.355469-3.671875v7.34375zm0 0"/><path d="m258.414062 227.71875 6.359376-3.671875v7.34375zm0 0"/><path d="m258.414062 213.035156 6.359376-3.667968v7.339843zm0 0"/><path d="m258.414062 205.695312 6.359376-3.671874v7.34375zm0 0"/><path d="m258.414062 198.355469 6.359376-3.671875v7.339844zm0 0"/><path d="m258.414062 191.011719 6.359376-3.671875v7.34375zm0 0"/><path d="m258.414062 183.671875 6.359376-3.671875v7.339844zm0 0"/><path d="m258.414062 176.328125 6.359376-3.667969v7.339844zm0 0"/><path d="m258.414062 168.988281 6.359376-3.671875v7.34375zm0 0"/><path d="m258.414062 161.644531 6.359376-3.667969v7.339844zm0 0"/><path d="m258.414062 154.304688 6.359376-3.671876v7.34375zm0 0"/><path d="m258.414062 146.964844 6.359376-3.671875v7.339843zm0 0"/><path d="m258.414062 139.621094 6.359376-3.667969v7.339844zm0 0"/><path d="m252.054688 128.609375 6.359374-3.671875v7.34375zm0 0"/><path d="m245.699219 124.9375 6.355469-3.667969v7.339844zm0 0"/><path d="m239.339844 121.269531 6.359375-3.671875v7.339844zm0 0"/><path d="m207.550781 102.914062 6.359375-3.671874v7.34375zm0 0"/><path d="m201.191406 99.242188 6.359375-3.667969v7.339843zm0 0"/><path d="m194.835938 95.574219 6.355468-3.671875v7.339844zm0 0"/><path d="m182.121094 88.230469 6.355468-3.667969v7.339844zm0 0"/><path d="m169.402344 88.230469 6.359375-3.667969v7.339844zm0 0"/><path d="m163.046875 91.902344 6.355469-3.671875v7.34375zm0 0"/><path d="m156.6875 95.574219 6.359375-3.671875v7.339844zm0 0"/><path d="m150.328125 99.242188 6.359375-3.667969v7.339843zm0 0"/><path d="m137.613281 106.585938 6.359375-3.671876v7.34375zm0 0"/><path d="m131.257812 110.257812 6.355469-3.671874v7.339843zm0 0"/><path d="m112.183594 121.269531 6.355468-3.671875v7.339844zm0 0"/><path d="m99.464844 128.609375 6.359375-3.671875v7.34375zm0 0"/><path d="m93.109375 132.28125 6.355469-3.671875v7.34375zm0 0"/><path d="m93.109375 139.621094 6.355469-3.667969v7.339844zm0 0"/><path d="m93.109375 146.964844 6.355469-3.671875v7.339843zm0 0"/><path d="m93.109375 161.644531 6.355469-3.667969v7.339844zm0 0"/><path d="m93.109375 213.035156 6.355469-3.667968v7.339843zm0 0"/><path d="m93.109375 227.71875 6.355469-3.671875v7.34375zm0 0"/><path d="m112.183594 238.730469 6.355468-3.667969v7.339844zm0 0"/><path d="m137.613281 253.414062 6.359375-3.671874v7.34375zm0 0"/><path d="m156.6875 264.425781 6.359375-3.667969v7.339844zm0 0"/><path d="m169.402344 271.769531 6.359375-3.671875v7.339844zm0 0"/><path d="m182.121094 271.769531 6.355468-3.671875v7.339844zm0 0"/><path d="m194.835938 264.425781 6.355468-3.667969v7.339844zm0 0"/><path d="m201.191406 260.757812 6.359375-3.671874v7.339843zm0 0"/><path d="m207.550781 257.085938 6.359375-3.671876v7.34375zm0 0"/><path d="m239.339844 238.730469 6.359375-3.667969v7.339844zm0 0"/><path d="m245.699219 235.0625 6.355469-3.671875v7.339844zm0 0"/><path d="m252.054688 231.390625 6.359374-3.671875v7.34375zm0 0"/><path d="m264.773438 231.390625 6.355468-3.671875v7.34375zm0 0"/><path d="m264.773438 224.046875 6.355468-3.667969v7.339844zm0 0"/><path d="m264.773438 209.367188 6.355468-3.671876v7.339844zm0 0"/><path d="m264.773438 202.023438 6.355468-3.667969v7.339843zm0 0"/><path d="m264.773438 194.683594 6.355468-3.671875v7.34375zm0 0"/><path d="m264.773438 187.339844 6.355468-3.667969v7.339844zm0 0"/><path d="m264.773438 180 6.355468-3.671875v7.34375zm0 0"/><path d="m264.773438 172.660156 6.355468-3.671875v7.339844zm0 0"/><path d="m264.773438 165.316406 6.355468-3.671875v7.34375zm0 0"/><path d="m264.773438 157.976562 6.355468-3.671874v7.339843zm0 0"/><path d="m264.773438 150.632812 6.355468-3.667968v7.339844zm0 0"/><path d="m264.773438 143.292969 6.355468-3.671875v7.34375zm0 0"/><path d="m264.773438 135.953125 6.355468-3.671875v7.339844zm0 0"/><path d="m264.773438 128.609375 6.355468-3.671875v7.34375zm0 0"/><path d="m258.414062 124.9375 6.359376-3.667969v7.339844zm0 0"/><path d="m245.699219 117.597656 6.355469-3.671875v7.34375zm0 0"/><path d="m239.339844 113.925781 6.359375-3.667969v7.339844zm0 0"/><path d="m232.984375 110.257812 6.355469-3.671874v7.339843zm0 0"/><path d="m226.625 106.585938 6.359375-3.671876v7.34375zm0 0"/><path d="m220.265625 102.914062 6.359375-3.671874v7.34375zm0 0"/><path d="m213.910156 99.242188 6.355469-3.667969v7.339843zm0 0"/><path d="m207.550781 95.574219 6.359375-3.671875v7.339844zm0 0"/><path d="m194.835938 88.230469 6.355468-3.667969v7.339844zm0 0"/><path d="m188.476562 84.5625 6.359376-3.671875v7.339844zm0 0"/><path d="m163.046875 84.5625 6.355469-3.671875v7.339844zm0 0"/><path d="m156.6875 88.230469 6.359375-3.667969v7.339844zm0 0"/><path d="m150.328125 91.902344 6.359375-3.671875v7.34375zm0 0"/><path d="m143.972656 95.574219 6.355469-3.671875v7.339844zm0 0"/><path d="m137.613281 99.242188 6.359375-3.667969v7.339843zm0 0"/><path d="m131.257812 102.914062 6.355469-3.671874v7.34375zm0 0"/><path d="m124.898438 106.585938 6.359374-3.671876v7.34375zm0 0"/><path d="m112.183594 113.925781 6.355468-3.667969v7.339844zm0 0"/><path d="m105.824219 117.597656 6.359375-3.671875v7.34375zm0 0"/><path d="m93.109375 124.9375 6.355469-3.667969v7.339844zm0 0"/><path d="m86.75 143.292969 6.359375-3.671875v7.34375zm0 0"/><path d="m86.75 150.632812 6.359375-3.667968v7.339844zm0 0"/><path d="m86.75 157.976562 6.359375-3.671874v7.339843zm0 0"/><path d="m86.75 165.316406 6.359375-3.671875v7.34375zm0 0"/><path d="m86.75 172.660156 6.359375-3.671875v7.339844zm0 0"/><path d="m86.75 180 6.359375-3.671875v7.34375zm0 0"/><path d="m86.75 187.339844 6.359375-3.667969v7.339844zm0 0"/><path d="m86.75 194.683594 6.359375-3.671875v7.34375zm0 0"/><path d="m86.75 202.023438 6.359375-3.667969v7.339843zm0 0"/><path d="m86.75 209.367188 6.359375-3.671876v7.339844zm0 0"/><path d="m86.75 216.707031 6.359375-3.671875v7.34375zm0 0"/><path d="m86.75 224.046875 6.359375-3.667969v7.339844zm0 0"/><path d="m86.75 231.390625 6.359375-3.671875v7.34375zm0 0"/><path d="m93.109375 235.0625 6.355469-3.671875v7.339844zm0 0"/><path d="m99.464844 238.730469 6.359375-3.667969v7.339844zm0 0"/><path d="m105.824219 242.402344 6.359375-3.671875v7.34375zm0 0"/><path d="m112.183594 246.074219 6.355468-3.671875v7.339844zm0 0"/><path d="m118.539062 249.742188 6.359376-3.667969v7.339843zm0 0"/><path d="m124.898438 253.414062 6.359374-3.671874v7.34375zm0 0"/><path d="m131.257812 257.085938 6.355469-3.671876v7.34375zm0 0"/><path d="m137.613281 260.757812 6.359375-3.671874v7.339843zm0 0"/><path d="m143.972656 264.425781 6.355469-3.667969v7.339844zm0 0"/><path d="m150.328125 268.097656 6.359375-3.671875v7.34375zm0 0"/><path d="m156.6875 271.769531 6.359375-3.671875v7.339844zm0 0"/><path d="m163.046875 275.4375 6.355469-3.667969v7.339844zm0 0"/><path d="m169.402344 279.109375 6.359375-3.671875v7.34375zm0 0"/><path d="m175.761719 282.78125 6.359375-3.671875v7.339844zm0 0"/><path d="m182.121094 279.109375 6.355468-3.671875v7.34375zm0 0"/><path d="m188.476562 275.4375 6.359376-3.667969v7.339844zm0 0"/><path d="m194.835938 271.769531 6.355468-3.671875v7.339844zm0 0"/><path d="m207.550781 264.425781 6.359375-3.667969v7.339844zm0 0"/><path d="m213.910156 260.757812 6.355469-3.671874v7.339843zm0 0"/><path d="m220.265625 257.085938 6.359375-3.671876v7.34375zm0 0"/><path d="m226.625 253.414062 6.359375-3.671874v7.34375zm0 0"/><path d="m232.984375 249.742188 6.355469-3.667969v7.339843zm0 0"/><path d="m239.339844 246.074219 6.359375-3.671875v7.339844zm0 0"/><path d="m245.699219 242.402344 6.355469-3.671875v7.34375zm0 0"/><path d="m258.414062 235.0625 6.359376-3.671875v7.339844zm0 0"/><path d="m271.128906 235.0625 6.359375-3.671875v7.339844zm0 0"/><path d="m271.128906 220.378906 6.359375-3.671875v7.339844zm0 0"/><path d="m271.128906 213.035156 6.359375-3.667968v7.339843zm0 0"/><path d="m271.128906 168.988281 6.359375-3.671875v7.34375zm0 0"/><path d="m264.773438 121.269531 6.355468-3.671875v7.339844zm0 0"/><path d="m258.414062 117.597656 6.359376-3.671875v7.34375zm0 0"/><path d="m252.054688 113.925781 6.359374-3.667969v7.339844zm0 0"/><path d="m239.339844 106.585938 6.359375-3.671876v7.34375zm0 0"/><path d="m232.984375 102.914062 6.355469-3.671874v7.34375zm0 0"/><path d="m226.625 99.242188 6.359375-3.667969v7.339843zm0 0"/><path d="m220.265625 95.574219 6.359375-3.671875v7.339844zm0 0"/><path d="m207.550781 88.230469 6.359375-3.667969v7.339844zm0 0"/><path d="m201.191406 84.5625 6.359375-3.671875v7.339844zm0 0"/><path d="m194.835938 80.890625 6.355468-3.671875v7.34375zm0 0"/><path d="m169.402344 73.550781 6.359375-3.671875v7.339844zm0 0"/><path d="m163.046875 77.21875 6.355469-3.667969v7.339844zm0 0"/><path d="m156.6875 80.890625 6.359375-3.671875v7.34375zm0 0"/><path d="m150.328125 84.5625 6.359375-3.671875v7.339844zm0 0"/><path d="m143.972656 88.230469 6.355469-3.667969v7.339844zm0 0"/><path d="m137.613281 91.902344 6.359375-3.671875v7.34375zm0 0"/><path d="m131.257812 95.574219 6.355469-3.671875v7.339844zm0 0"/><path d="m124.898438 99.242188 6.359374-3.667969v7.339843zm0 0"/><path d="m118.539062 102.914062 6.359376-3.671874v7.34375zm0 0"/><path d="m112.183594 106.585938 6.355468-3.671876v7.34375zm0 0"/><path d="m105.824219 110.257812 6.359375-3.671874v7.339843zm0 0"/><path d="m99.464844 113.925781 6.359375-3.667969v7.339844zm0 0"/><path d="m93.109375 117.597656 6.355469-3.671875v7.34375zm0 0"/><path d="m86.75 121.269531 6.359375-3.671875v7.339844zm0 0"/><path d="m80.394531 124.9375 6.355469-3.667969v7.339844zm0 0"/><path d="m80.394531 132.28125 6.355469-3.671875v7.34375zm0 0"/><path d="m80.394531 139.621094 6.355469-3.667969v7.339844zm0 0"/><path d="m80.394531 154.304688 6.355469-3.671876v7.34375zm0 0"/><path d="m80.394531 220.378906 6.355469-3.671875v7.339844zm0 0"/><path d="m86.75 238.730469 6.359375-3.667969v7.339844zm0 0"/><path d="m93.109375 242.402344 6.355469-3.671875v7.34375zm0 0"/><path d="m99.464844 246.074219 6.359375-3.671875v7.339844zm0 0"/><path d="m105.824219 249.742188 6.359375-3.667969v7.339843zm0 0"/><path d="m112.183594 253.414062 6.355468-3.671874v7.34375zm0 0"/><path d="m118.539062 257.085938 6.359376-3.671876v7.34375zm0 0"/><path d="m124.898438 260.757812 6.359374-3.671874v7.339843zm0 0"/><path d="m131.257812 264.425781 6.355469-3.667969v7.339844zm0 0"/><path d="m137.613281 268.097656 6.359375-3.671875v7.34375zm0 0"/><path d="m143.972656 271.769531 6.355469-3.671875v7.339844zm0 0"/><path d="m150.328125 275.4375 6.359375-3.667969v7.339844zm0 0"/><path d="m169.402344 286.449219 6.359375-3.667969v7.339844zm0 0"/><path d="m182.121094 286.449219 6.355468-3.667969v7.339844zm0 0"/><path d="m194.835938 279.109375 6.355468-3.671875v7.34375zm0 0"/><path d="m201.191406 275.4375 6.359375-3.667969v7.339844zm0 0"/><path d="m207.550781 271.769531 6.359375-3.671875v7.339844zm0 0"/><path d="m220.265625 264.425781 6.359375-3.667969v7.339844zm0 0"/><path d="m226.625 260.757812 6.359375-3.671874v7.339843zm0 0"/><path d="m232.984375 257.085938 6.355469-3.671876v7.34375zm0 0"/><path d="m239.339844 253.414062 6.359375-3.671874v7.34375zm0 0"/><path d="m252.054688 246.074219 6.359374-3.671875v7.339844zm0 0"/><path d="m258.414062 242.402344 6.359376-3.671875v7.34375zm0 0"/><path d="m277.488281 224.046875 6.355469-3.667969v7.339844zm0 0"/><path d="m277.488281 216.707031 6.355469-3.671875v7.34375zm0 0"/><path d="m277.488281 209.367188 6.355469-3.671876v7.339844zm0 0"/><path d="m277.488281 202.023438 6.355469-3.667969v7.339843zm0 0"/><path d="m277.488281 194.683594 6.355469-3.671875v7.34375zm0 0"/><path d="m277.488281 187.339844 6.355469-3.667969v7.339844zm0 0"/><path d="m277.488281 180 6.355469-3.671875v7.34375zm0 0"/><path d="m277.488281 172.660156 6.355469-3.671875v7.339844zm0 0"/><path d="m277.488281 121.269531 6.355469-3.671875v7.339844zm0 0"/><path d="m271.128906 117.597656 6.359375-3.671875v7.34375zm0 0"/><path d="m258.414062 110.257812 6.359376-3.671874v7.339843zm0 0"/><path d="m207.550781 80.890625 6.359375-3.671875v7.34375zm0 0"/><path d="m194.835938 73.550781 6.355468-3.671875v7.339844zm0 0"/><path d="m188.476562 69.878906 6.359376-3.671875v7.34375zm0 0"/><path d="m175.761719 62.535156 6.359375-3.667968v7.339843zm0 0"/><path d="m169.402344 66.207031 6.359375-3.671875v7.34375zm0 0"/><path d="m118.539062 95.574219 6.359376-3.671875v7.339844zm0 0"/><path d="m112.183594 99.242188 6.355468-3.667969v7.339843zm0 0"/><path d="m105.824219 102.914062 6.359375-3.671874v7.34375zm0 0"/><path d="m74.035156 121.269531 6.359375-3.671875v7.339844zm0 0"/><path d="m74.035156 135.953125 6.359375-3.671875v7.339844zm0 0"/><path d="m74.035156 143.292969 6.359375-3.671875v7.34375zm0 0"/><path d="m74.035156 150.632812 6.359375-3.667968v7.339844zm0 0"/><path d="m74.035156 224.046875 6.359375-3.667969v7.339844zm0 0"/><path d="m74.035156 231.390625 6.359375-3.671875v7.34375zm0 0"/><path d="m74.035156 238.730469 6.359375-3.667969v7.339844zm0 0"/><path d="m80.394531 242.402344 6.355469-3.671875v7.34375zm0 0"/><path d="m150.328125 282.78125 6.359375-3.671875v7.339844zm0 0"/><path d="m156.6875 286.449219 6.359375-3.667969v7.339844zm0 0"/><path d="m163.046875 290.121094 6.355469-3.671875v7.34375zm0 0"/><path d="m169.402344 293.792969 6.359375-3.671875v7.34375zm0 0"/><path d="m188.476562 290.121094 6.359376-3.671875v7.34375zm0 0"/><path d="m194.835938 286.449219 6.355468-3.667969v7.339844zm0 0"/><path d="m207.550781 279.109375 6.359375-3.671875v7.34375zm0 0"/><path d="m258.414062 249.742188 6.359376-3.667969v7.339843zm0 0"/><path d="m271.128906 242.402344 6.359375-3.671875v7.34375zm0 0"/><path d="m283.84375 220.378906 6.359375-3.671875v7.339844zm0 0"/><path d="m283.84375 213.035156 6.359375-3.667968v7.339843zm0 0"/><path d="m283.84375 205.695312 6.359375-3.671874v7.34375zm0 0"/><path d="m283.84375 198.355469 6.359375-3.671875v7.339844zm0 0"/><path d="m283.84375 191.011719 6.359375-3.671875v7.34375zm0 0"/><path d="m283.84375 183.671875 6.359375-3.671875v7.339844zm0 0"/><path d="m283.84375 176.328125 6.359375-3.667969v7.339844zm0 0"/><path d="m283.84375 168.988281 6.359375-3.671875v7.34375zm0 0"/><path d="m277.488281 113.925781 6.355469-3.667969v7.339844zm0 0"/><path d="m271.128906 110.257812 6.359375-3.671874v7.339843zm0 0"/><path d="m264.773438 106.585938 6.355468-3.671876v7.34375zm0 0"/><path d="m258.414062 102.914062 6.359376-3.671874v7.34375zm0 0"/><path d="m252.054688 99.242188 6.359374-3.667969v7.339843zm0 0"/><path d="m245.699219 95.574219 6.355469-3.671875v7.339844zm0 0"/><path d="m239.339844 91.902344 6.359375-3.671875v7.34375zm0 0"/><path d="m232.984375 88.230469 6.355469-3.667969v7.339844zm0 0"/><path d="m226.625 84.5625 6.359375-3.671875v7.339844zm0 0"/><path d="m220.265625 80.890625 6.359375-3.671875v7.34375zm0 0"/><path d="m213.910156 77.21875 6.355469-3.667969v7.339844zm0 0"/><path d="m207.550781 73.550781 6.359375-3.671875v7.339844zm0 0"/><path d="m201.191406 69.878906 6.359375-3.671875v7.34375zm0 0"/><path d="m194.835938 66.207031 6.355468-3.671875v7.34375zm0 0"/><path d="m182.121094 58.867188 6.355468-3.671876v7.339844zm0 0"/><path d="m175.761719 55.195312 6.359375-3.671874v7.34375zm0 0"/><path d="m169.402344 58.867188 6.359375-3.671876v7.339844zm0 0"/><path d="m67.675781 124.9375 6.359375-3.667969v7.339844zm0 0"/><path d="m67.675781 132.28125 6.359375-3.671875v7.34375zm0 0"/><path d="m67.675781 146.964844 6.359375-3.671875v7.339843zm0 0"/><path d="m67.675781 154.304688 6.359375-3.671876v7.34375zm0 0"/><path d="m67.675781 161.644531 6.359375-3.667969v7.339844zm0 0"/><path d="m67.675781 168.988281 6.359375-3.671875v7.34375zm0 0"/><path d="m67.675781 176.328125 6.359375-3.667969v7.339844zm0 0"/><path d="m67.675781 183.671875 6.359375-3.671875v7.339844zm0 0"/><path d="m67.675781 191.011719 6.359375-3.671875v7.34375zm0 0"/><path d="m67.675781 198.355469 6.359375-3.671875v7.339844zm0 0"/><path d="m67.675781 205.695312 6.359375-3.671874v7.34375zm0 0"/><path d="m67.675781 213.035156 6.359375-3.667968v7.339843zm0 0"/><path d="m67.675781 220.378906 6.359375-3.671875v7.339844zm0 0"/><path d="m67.675781 227.71875 6.359375-3.671875v7.34375zm0 0"/><path d="m67.675781 242.402344 6.359375-3.671875v7.34375zm0 0"/><path d="m156.6875 293.792969 6.359375-3.671875v7.34375zm0 0"/><path d="m169.402344 301.132812 6.359375-3.667968v7.339844zm0 0"/><path d="m194.835938 293.792969 6.355468-3.671875v7.34375zm0 0"/><path d="m201.191406 290.121094 6.359375-3.671875v7.34375zm0 0"/><path d="m207.550781 286.449219 6.359375-3.667969v7.339844zm0 0"/><path d="m213.910156 282.78125 6.355469-3.671875v7.339844zm0 0"/><path d="m220.265625 279.109375 6.359375-3.671875v7.34375zm0 0"/><path d="m226.625 275.4375 6.359375-3.667969v7.339844zm0 0"/><path d="m232.984375 271.769531 6.355469-3.671875v7.339844zm0 0"/><path d="m239.339844 268.097656 6.359375-3.671875v7.34375zm0 0"/><path d="m245.699219 264.425781 6.355469-3.667969v7.339844zm0 0"/><path d="m252.054688 260.757812 6.359374-3.671874v7.339843zm0 0"/><path d="m258.414062 257.085938 6.359376-3.671876v7.34375zm0 0"/><path d="m264.773438 253.414062 6.355468-3.671874v7.34375zm0 0"/><path d="m271.128906 249.742188 6.359375-3.667969v7.339843zm0 0"/><path d="m277.488281 246.074219 6.355469-3.671875v7.339844zm0 0"/><path d="m290.203125 246.074219 6.359375-3.671875v7.339844zm0 0"/><path d="m290.203125 238.730469 6.359375-3.667969v7.339844zm0 0"/><path d="m290.203125 231.390625 6.359375-3.671875v7.34375zm0 0"/><path d="m290.203125 165.316406 6.359375-3.671875v7.34375zm0 0"/><path d="m290.203125 157.976562 6.359375-3.671874v7.339843zm0 0"/><path d="m290.203125 150.632812 6.359375-3.667968v7.339844zm0 0"/><path d="m290.203125 143.292969 6.359375-3.671875v7.34375zm0 0"/><path d="m290.203125 135.953125 6.359375-3.671875v7.339844zm0 0"/><path d="m290.203125 128.609375 6.359375-3.671875v7.34375zm0 0"/><path d="m290.203125 121.269531 6.359375-3.671875v7.339844zm0 0"/><path d="m290.203125 113.925781 6.359375-3.667969v7.339844zm0 0"/><path d="m283.84375 110.257812 6.359375-3.671874v7.339843zm0 0"/><path d="m271.128906 102.914062 6.359375-3.671874v7.34375zm0 0"/><path d="m264.773438 99.242188 6.355468-3.667969v7.339843zm0 0"/><path d="m258.414062 95.574219 6.359376-3.671875v7.339844zm0 0"/><path d="m252.054688 91.902344 6.359374-3.671875v7.34375zm0 0"/><path d="m245.699219 88.230469 6.355469-3.667969v7.339844zm0 0"/><path d="m239.339844 84.5625 6.359375-3.671875v7.339844zm0 0"/><path d="m232.984375 80.890625 6.355469-3.671875v7.34375zm0 0"/><path d="m226.625 77.21875 6.359375-3.667969v7.339844zm0 0"/><path d="m220.265625 73.550781 6.359375-3.671875v7.339844zm0 0"/><path d="m213.910156 69.878906 6.355469-3.671875v7.34375zm0 0"/><path d="m207.550781 66.207031 6.359375-3.671875v7.34375zm0 0"/><path d="m194.835938 58.867188 6.355468-3.671876v7.339844zm0 0"/><path d="m188.476562 55.195312 6.359376-3.671874v7.34375zm0 0"/><path d="m182.121094 51.523438 6.355468-3.667969v7.339843zm0 0"/><path d="m175.761719 47.855469 6.359375-3.671875v7.339844zm0 0"/><path d="m169.402344 51.523438 6.359375-3.667969v7.339843zm0 0"/><path d="m163.046875 55.195312 6.355469-3.671874v7.34375zm0 0"/><path d="m61.320312 128.609375 6.355469-3.671875v7.34375zm0 0"/><path d="m61.320312 246.074219 6.355469-3.671875v7.339844zm0 0"/><path d="m156.6875 301.132812 6.359375-3.667968v7.339844zm0 0"/><path d="m163.046875 304.804688 6.355469-3.671876v7.34375zm0 0"/><path d="m169.402344 308.476562 6.359375-3.671874v7.339843zm0 0"/><path d="m175.761719 312.144531 6.359375-3.667969v7.339844zm0 0"/><path d="m182.121094 308.476562 6.355468-3.671874v7.339843zm0 0"/><path d="m188.476562 304.804688 6.359376-3.671876v7.34375zm0 0"/><path d="m194.835938 301.132812 6.355468-3.667968v7.339844zm0 0"/><path d="m207.550781 293.792969 6.359375-3.671875v7.34375zm0 0"/><path d="m213.910156 290.121094 6.355469-3.671875v7.34375zm0 0"/><path d="m220.265625 286.449219 6.359375-3.667969v7.339844zm0 0"/><path d="m226.625 282.78125 6.359375-3.671875v7.339844zm0 0"/><path d="m232.984375 279.109375 6.355469-3.671875v7.34375zm0 0"/><path d="m239.339844 275.4375 6.359375-3.667969v7.339844zm0 0"/><path d="m245.699219 271.769531 6.355469-3.671875v7.339844zm0 0"/><path d="m252.054688 268.097656 6.359374-3.671875v7.34375zm0 0"/><path d="m258.414062 264.425781 6.359376-3.667969v7.339844zm0 0"/><path d="m264.773438 260.757812 6.355468-3.671874v7.339843zm0 0"/><path d="m271.128906 257.085938 6.359375-3.671876v7.34375zm0 0"/><path d="m283.84375 249.742188 6.359375-3.667969v7.339843zm0 0"/><path d="m296.5625 249.742188 6.355469-3.667969v7.339843zm0 0"/><path d="m296.5625 242.402344 6.355469-3.671875v7.34375zm0 0"/><path d="m296.5625 235.0625 6.355469-3.671875v7.339844zm0 0"/><path d="m296.5625 227.71875 6.355469-3.671875v7.34375zm0 0"/><path d="m296.5625 220.378906 6.355469-3.671875v7.339844zm0 0"/><path d="m296.5625 213.035156 6.355469-3.667968v7.339843zm0 0"/><path d="m296.5625 205.695312 6.355469-3.671874v7.34375zm0 0"/><path d="m296.5625 198.355469 6.355469-3.671875v7.339844zm0 0"/><path d="m296.5625 191.011719 6.355469-3.671875v7.34375zm0 0"/><path d="m296.5625 183.671875 6.355469-3.671875v7.339844zm0 0"/><path d="m296.5625 176.328125 6.355469-3.667969v7.339844zm0 0"/><path d="m296.5625 168.988281 6.355469-3.671875v7.34375zm0 0"/><path d="m296.5625 161.644531 6.355469-3.667969v7.339844zm0 0"/><path d="m296.5625 154.304688 6.355469-3.671876v7.34375zm0 0"/><path d="m296.5625 146.964844 6.355469-3.671875v7.339843zm0 0"/><path d="m296.5625 139.621094 6.355469-3.667969v7.339844zm0 0"/><path d="m296.5625 132.28125 6.355469-3.671875v7.34375zm0 0"/><path d="m296.5625 124.9375 6.355469-3.667969v7.339844zm0 0"/><path d="m296.5625 117.597656 6.355469-3.671875v7.34375zm0 0"/><path d="m296.5625 110.257812 6.355469-3.671874v7.339843zm0 0"/><path d="m290.203125 106.585938 6.359375-3.671876v7.34375zm0 0"/><path d="m194.835938 51.523438 6.355468-3.667969v7.339843zm0 0"/><path d="m188.476562 47.855469 6.359376-3.671875v7.339844zm0 0"/><path d="m182.121094 44.183594 6.355468-3.671875v7.34375zm0 0"/><path d="m163.046875 47.855469 6.355469-3.671875v7.339844zm0 0"/><path d="m156.6875 51.523438 6.359375-3.667969v7.339843zm0 0"/><path d="m150.328125 55.195312 6.359375-3.671874v7.34375zm0 0"/><path d="m143.972656 58.867188 6.355469-3.671876v7.339844zm0 0"/><path d="m137.613281 62.535156 6.359375-3.667968v7.339843zm0 0"/><path d="m131.257812 66.207031 6.355469-3.671875v7.34375zm0 0"/><path d="m124.898438 69.878906 6.359374-3.671875v7.34375zm0 0"/><path d="m118.539062 73.550781 6.359376-3.671875v7.339844zm0 0"/><path d="m112.183594 77.21875 6.355468-3.667969v7.339844zm0 0"/><path d="m105.824219 80.890625 6.359375-3.671875v7.34375zm0 0"/><path d="m99.464844 84.5625 6.359375-3.671875v7.339844zm0 0"/><path d="m93.109375 88.230469 6.355469-3.667969v7.339844zm0 0"/><path d="m86.75 91.902344 6.359375-3.671875v7.34375zm0 0"/><path d="m80.394531 95.574219 6.355469-3.671875v7.339844zm0 0"/><path d="m74.035156 99.242188 6.359375-3.667969v7.339843zm0 0"/><path d="m67.675781 102.914062 6.359375-3.671874v7.34375zm0 0"/><path d="m61.320312 106.585938 6.355469-3.671876v7.34375zm0 0"/><path d="m54.960938 110.257812 6.359374-3.671874v7.339843zm0 0"/><path d="m54.960938 117.597656 6.359374-3.671875v7.34375zm0 0"/><path d="m54.960938 124.9375 6.359374-3.667969v7.339844zm0 0"/><path d="m54.960938 249.742188 6.359374-3.667969v7.339843zm0 0"/><path d="m61.320312 253.414062 6.355469-3.671874v7.34375zm0 0"/><path d="m67.675781 257.085938 6.359375-3.671876v7.34375zm0 0"/><path d="m74.035156 260.757812 6.359375-3.671874v7.339843zm0 0"/><path d="m80.394531 264.425781 6.355469-3.667969v7.339844zm0 0"/><path d="m86.75 268.097656 6.359375-3.671875v7.34375zm0 0"/><path d="m93.109375 271.769531 6.355469-3.671875v7.339844zm0 0"/><path d="m99.464844 275.4375 6.359375-3.667969v7.339844zm0 0"/><path d="m105.824219 279.109375 6.359375-3.671875v7.34375zm0 0"/><path d="m112.183594 282.78125 6.355468-3.671875v7.339844zm0 0"/><path d="m118.539062 286.449219 6.359376-3.667969v7.339844zm0 0"/><path d="m124.898438 290.121094 6.359374-3.671875v7.34375zm0 0"/><path d="m131.257812 293.792969 6.355469-3.671875v7.34375zm0 0"/><path d="m137.613281 297.464844 6.359375-3.671875v7.339843zm0 0"/><path d="m143.972656 301.132812 6.355469-3.667968v7.339844zm0 0"/><path d="m150.328125 304.804688 6.359375-3.671876v7.34375zm0 0"/><path d="m156.6875 308.476562 6.359375-3.671874v7.339843zm0 0"/><path d="m175.761719 319.488281 6.359375-3.671875v7.34375zm0 0"/><path d="m182.121094 315.816406 6.355468-3.671875v7.34375zm0 0"/><path d="m188.476562 312.144531 6.359376-3.667969v7.339844zm0 0"/><path d="m194.835938 308.476562 6.355468-3.671874v7.339843zm0 0"/><path d="m290.203125 253.414062 6.359375-3.671874v7.34375zm0 0"/><path d="m302.917969 231.390625 6.359375-3.671875v7.34375zm0 0"/><path d="m302.917969 224.046875 6.359375-3.667969v7.339844zm0 0"/><path d="m302.917969 216.707031 6.359375-3.671875v7.34375zm0 0"/><path d="m302.917969 209.367188 6.359375-3.671876v7.339844zm0 0"/><path d="m302.917969 202.023438 6.359375-3.667969v7.339843zm0 0"/><path d="m302.917969 194.683594 6.359375-3.671875v7.34375zm0 0"/><path d="m302.917969 187.339844 6.359375-3.667969v7.339844zm0 0"/><path d="m302.917969 180 6.359375-3.671875v7.34375zm0 0"/><path d="m302.917969 172.660156 6.359375-3.671875v7.339844zm0 0"/><path d="m302.917969 165.316406 6.359375-3.671875v7.34375zm0 0"/><path d="m302.917969 157.976562 6.359375-3.671874v7.339843zm0 0"/><path d="m302.917969 150.632812 6.359375-3.667968v7.339844zm0 0"/><path d="m302.917969 143.292969 6.359375-3.671875v7.34375zm0 0"/><path d="m302.917969 135.953125 6.359375-3.671875v7.339844zm0 0"/><path d="m302.917969 128.609375 6.359375-3.671875v7.34375zm0 0"/><path d="m302.917969 121.269531 6.359375-3.671875v7.339844zm0 0"/><path d="m302.917969 113.925781 6.359375-3.667969v7.339844zm0 0"/><path d="m302.917969 106.585938 6.359375-3.671876v7.34375zm0 0"/><path d="m296.5625 102.914062 6.355469-3.671874v7.34375zm0 0"/><path d="m290.203125 99.242188 6.359375-3.667969v7.339843zm0 0"/><path d="m283.84375 95.574219 6.359375-3.671875v7.339844zm0 0"/><path d="m277.488281 91.902344 6.355469-3.671875v7.34375zm0 0"/><path d="m271.128906 88.230469 6.359375-3.667969v7.339844zm0 0"/><path d="m264.773438 84.5625 6.355468-3.671875v7.339844zm0 0"/><path d="m258.414062 80.890625 6.359376-3.671875v7.34375zm0 0"/><path d="m252.054688 77.21875 6.359374-3.667969v7.339844zm0 0"/><path d="m245.699219 73.550781 6.355469-3.671875v7.339844zm0 0"/><path d="m239.339844 69.878906 6.359375-3.671875v7.34375zm0 0"/><path d="m232.984375 66.207031 6.355469-3.671875v7.34375zm0 0"/><path d="m226.625 62.535156 6.359375-3.667968v7.339843zm0 0"/><path d="m220.265625 58.867188 6.359375-3.671876v7.339844zm0 0"/><path d="m213.910156 55.195312 6.355469-3.671874v7.34375zm0 0"/><path d="m207.550781 51.523438 6.359375-3.667969v7.339843zm0 0"/><path d="m201.191406 47.855469 6.359375-3.671875v7.339844zm0 0"/><path d="m194.835938 44.183594 6.355468-3.671875v7.34375zm0 0"/><path d="m188.476562 40.511719 6.359376-3.671875v7.34375zm0 0"/><path d="m156.6875 44.183594 6.359375-3.671875v7.34375zm0 0"/><path d="m150.328125 47.855469 6.359375-3.671875v7.339844zm0 0"/><path d="m143.972656 51.523438 6.355469-3.667969v7.339843zm0 0"/><path d="m137.613281 55.195312 6.359375-3.671874v7.34375zm0 0"/><path d="m131.257812 58.867188 6.355469-3.671876v7.339844zm0 0"/><path d="m124.898438 62.535156 6.359374-3.667968v7.339843zm0 0"/><path d="m118.539062 66.207031 6.359376-3.671875v7.34375zm0 0"/><path d="m112.183594 69.878906 6.355468-3.671875v7.34375zm0 0"/><path d="m105.824219 73.550781 6.359375-3.671875v7.339844zm0 0"/><path d="m99.464844 77.21875 6.359375-3.667969v7.339844zm0 0"/><path d="m93.109375 80.890625 6.355469-3.671875v7.34375zm0 0"/><path d="m86.75 84.5625 6.359375-3.671875v7.339844zm0 0"/><path d="m80.394531 88.230469 6.355469-3.667969v7.339844zm0 0"/><path d="m74.035156 91.902344 6.359375-3.671875v7.34375zm0 0"/><path d="m67.675781 95.574219 6.359375-3.671875v7.339844zm0 0"/><path d="m61.320312 99.242188 6.355469-3.667969v7.339843zm0 0"/><path d="m54.960938 102.914062 6.359374-3.671874v7.34375zm0 0"/><path d="m48.605469 106.585938 6.355469-3.671876v7.34375zm0 0"/><path d="m48.605469 113.925781 6.355469-3.667969v7.339844zm0 0"/><path d="m48.605469 121.269531 6.355469-3.671875v7.339844zm0 0"/><path d="m48.605469 128.609375 6.355469-3.671875v7.34375zm0 0"/><path d="m48.605469 135.953125 6.355469-3.671875v7.339844zm0 0"/><path d="m48.605469 143.292969 6.355469-3.671875v7.34375zm0 0"/><path d="m48.605469 150.632812 6.355469-3.667968v7.339844zm0 0"/><path d="m48.605469 157.976562 6.355469-3.671874v7.339843zm0 0"/><path d="m48.605469 165.316406 6.355469-3.671875v7.34375zm0 0"/><path d="m48.605469 172.660156 6.355469-3.671875v7.339844zm0 0"/><path d="m48.605469 180 6.355469-3.671875v7.34375zm0 0"/><path d="m48.605469 187.339844 6.355469-3.667969v7.339844zm0 0"/><path d="m48.605469 194.683594 6.355469-3.671875v7.34375zm0 0"/><path d="m48.605469 202.023438 6.355469-3.667969v7.339843zm0 0"/><path d="m48.605469 209.367188 6.355469-3.671876v7.339844zm0 0"/><path d="m48.605469 216.707031 6.355469-3.671875v7.34375zm0 0"/><path d="m48.605469 224.046875 6.355469-3.667969v7.339844zm0 0"/><path d="m48.605469 231.390625 6.355469-3.671875v7.34375zm0 0"/><path d="m48.605469 238.730469 6.355469-3.667969v7.339844zm0 0"/><path d="m48.605469 246.074219 6.355469-3.671875v7.339844zm0 0"/><path d="m48.605469 253.414062 6.355469-3.671874v7.34375zm0 0"/><path d="m54.960938 257.085938 6.359374-3.671876v7.34375zm0 0"/><path d="m61.320312 260.757812 6.355469-3.671874v7.339843zm0 0"/><path d="m67.675781 264.425781 6.359375-3.667969v7.339844zm0 0"/><path d="m74.035156 268.097656 6.359375-3.671875v7.34375zm0 0"/><path d="m80.394531 271.769531 6.355469-3.671875v7.339844zm0 0"/><path d="m86.75 275.4375 6.359375-3.667969v7.339844zm0 0"/><path d="m93.109375 279.109375 6.355469-3.671875v7.34375zm0 0"/><path d="m99.464844 282.78125 6.359375-3.671875v7.339844zm0 0"/><path d="m105.824219 286.449219 6.359375-3.667969v7.339844zm0 0"/><path d="m112.183594 290.121094 6.355468-3.671875v7.34375zm0 0"/><path d="m118.539062 293.792969 6.359376-3.671875v7.34375zm0 0"/><path d="m124.898438 297.464844 6.359374-3.671875v7.339843zm0 0"/><path d="m131.257812 301.132812 6.355469-3.667968v7.339844zm0 0"/><path d="m137.613281 304.804688 6.359375-3.671876v7.34375zm0 0"/><path d="m143.972656 308.476562 6.355469-3.671874v7.339843zm0 0"/><path d="m150.328125 312.144531 6.359375-3.667969v7.339844zm0 0"/><path d="m156.6875 315.816406 6.359375-3.671875v7.34375zm0 0"/><path d="m163.046875 319.488281 6.355469-3.671875v7.34375zm0 0"/><path d="m169.402344 323.160156 6.359375-3.671875v7.339844zm0 0"/><path d="m182.121094 323.160156 6.355468-3.671875v7.339844zm0 0"/><path d="m188.476562 319.488281 6.359376-3.671875v7.34375zm0 0"/><path d="m194.835938 315.816406 6.355468-3.671875v7.34375zm0 0"/><path d="m201.191406 312.144531 6.359375-3.667969v7.339844zm0 0"/><path d="m207.550781 308.476562 6.359375-3.671874v7.339843zm0 0"/><path d="m213.910156 304.804688 6.355469-3.671876v7.34375zm0 0"/><path d="m220.265625 301.132812 6.359375-3.667968v7.339844zm0 0"/><path d="m226.625 297.464844 6.359375-3.671875v7.339843zm0 0"/><path d="m232.984375 293.792969 6.355469-3.671875v7.34375zm0 0"/><path d="m239.339844 290.121094 6.359375-3.671875v7.34375zm0 0"/><path d="m245.699219 286.449219 6.355469-3.667969v7.339844zm0 0"/><path d="m252.054688 282.78125 6.359374-3.671875v7.339844zm0 0"/><path d="m258.414062 279.109375 6.359376-3.671875v7.34375zm0 0"/><path d="m264.773438 275.4375 6.355468-3.667969v7.339844zm0 0"/><path d="m271.128906 271.769531 6.359375-3.671875v7.339844zm0 0"/><path d="m277.488281 268.097656 6.355469-3.671875v7.34375zm0 0"/><path d="m283.84375 264.425781 6.359375-3.667969v7.339844zm0 0"/><path d="m290.203125 260.757812 6.359375-3.671874v7.339843zm0 0"/><path d="m296.5625 257.085938 6.355469-3.671876v7.34375zm0 0"/><path d="m163.046875 194.683594-6.359375-3.671875v7.34375zm0 0"/><path d="m156.6875 183.671875-6.359375-3.671875v7.339844zm0 0"/><path d="m156.6875 191.011719-6.359375-3.671875v7.34375zm0 0"/><path d="m137.613281 128.609375-6.355469-3.671875v7.34375zm0 0"/><path d="m124.898438 128.609375-6.359376-3.671875v7.34375zm0 0"/><path d="m137.613281 113.925781-6.355469-3.667969v7.339844zm0 0"/><path d="m124.898438 121.269531-6.359376-3.671875v7.339844zm0 0"/><path d="m131.257812 110.257812-6.359374-3.671874v7.339843zm0 0"/><path d="m124.898438 113.925781-6.359376-3.667969v7.339844zm0 0"/><path d="m124.898438 106.585938-6.359376-3.671876v7.34375zm0 0"/><path d="m124.898438 99.242188-6.359376-3.667969v7.339843zm0 0"/><path d="m118.539062 102.914062-6.355468-3.671874v7.34375zm0 0"/><path d="m118.539062 95.574219-6.355468-3.671875v7.339844zm0 0"/><path d="m309.277344 235.0625-6.359375-3.671875v7.339844zm0 0"/><path d="m182.121094 323.160156-6.359375-3.671875v7.339844zm0 0"/></g></svg>