<svg height="360pt" viewBox="0 0 360 360" width="360pt" xmlns="http://www.w3.org/2000/svg"><path d="m0 0h360v360h-360z" fill="#800080"/><g fill="#fff"><path d="m181.820312 183.15625 5.46875-3.15625v6.3125zm0 0"/><path d="m176.355469 186.3125 5.464843-3.15625v6.3125zm0 0"/><path d="m187.289062 186.3125 5.464844-3.15625v6.3125zm0 0"/><path d="m187.289062 180 5.464844-3.15625v6.3125zm0 0"/><path d="m187.289062 173.6875 5.464844-3.15625v6.3125zm0 0"/><path d="m181.820312 170.53125 5.46875-3.15625v6.3125zm0 0"/><path d="m176.355469 167.375 5.464843-3.15625v6.3125zm0 0"/><path d="m170.890625 170.53125 5.464844-3.15625v6.3125zm0 0"/><path d="m170.890625 189.46875 5.464844-3.15625v6.3125zm0 0"/><path d="m176.355469 192.625 5.464843-3.15625v6.3125zm0 0"/><path d="m181.820312 189.46875 5.46875-3.15625v6.3125zm0 0"/><path d="m192.753906 189.46875 5.46875-3.15625v6.3125zm0 0"/><path d="m192.753906 183.15625 5.46875-3.15625v6.3125zm0 0"/><path d="m192.753906 170.53125 5.46875-3.15625v6.3125zm0 0"/><path d="m187.289062 167.375 5.464844-3.15625v6.3125zm0 0"/><path d="m181.820312 164.21875 5.46875-3.15625v6.3125zm0 0"/><path d="m176.355469 161.0625 5.464843-3.15625v6.3125zm0 0"/><path d="m170.890625 164.21875 5.464844-3.15625v6.3125zm0 0"/><path d="m165.421875 167.375 5.46875-3.15625v6.3125zm0 0"/><path d="m159.957031 170.53125 5.464844-3.15625v6.3125zm0 0"/><path d="m159.957031 189.46875 5.464844-3.15625v6.3125zm0 0"/><path d="m165.421875 192.625 5.46875-3.15625v6.3125zm0 0"/><path d="m170.890625 195.78125 5.464844-3.15625v6.3125zm0 0"/><path d="m181.820312 195.78125 5.46875-3.15625v6.3125zm0 0"/><path d="m187.289062 192.625 5.464844-3.15625v6.3125zm0 0"/><path d="m198.222656 192.625 5.464844-3.15625v6.3125zm0 0"/><path d="m181.820312 157.90625 5.46875-3.15625v6.3125zm0 0"/><path d="m170.890625 157.90625 5.464844-3.15625v6.3125zm0 0"/><path d="m165.421875 161.0625 5.46875-3.15625v6.3125zm0 0"/><path d="m154.488281 167.375 5.46875-3.15625v6.3125zm0 0"/><path d="m154.488281 173.6875 5.46875-3.15625v6.3125zm0 0"/><path d="m159.957031 195.78125 5.464844-3.15625v6.3125zm0 0"/><path d="m176.355469 205.25 5.464843-3.15625v6.3125zm0 0"/><path d="m187.289062 198.9375 5.464844-3.15625v6.3125zm0 0"/><path d="m192.753906 195.78125 5.46875-3.15625v6.3125zm0 0"/><path d="m203.6875 195.78125 5.46875-3.15625v6.3125zm0 0"/><path d="m192.753906 157.90625 5.46875-3.15625v6.3125zm0 0"/><path d="m176.355469 148.4375 5.464843-3.15625v6.3125zm0 0"/><path d="m170.890625 151.59375 5.464844-3.15625v6.3125zm0 0"/><path d="m149.023438 164.21875 5.464843-3.15625v6.3125zm0 0"/><path d="m149.023438 170.53125 5.464843-3.15625v6.3125zm0 0"/><path d="m149.023438 176.84375 5.464843-3.15625v6.3125zm0 0"/><path d="m149.023438 183.15625 5.464843-3.15625v6.3125zm0 0"/><path d="m181.820312 208.40625 5.46875-3.15625v6.3125zm0 0"/><path d="m192.753906 202.09375 5.46875-3.15625v6.3125zm0 0"/><path d="m198.222656 198.9375 5.464844-3.15625v6.3125zm0 0"/><path d="m209.15625 192.625 5.464844-3.15625v6.3125zm0 0"/><path d="m209.15625 173.6875 5.464844-3.15625v6.3125zm0 0"/><path d="m209.15625 167.375 5.464844-3.15625v6.3125zm0 0"/><path d="m198.222656 154.75 5.464844-3.15625v6.3125zm0 0"/><path d="m192.753906 151.59375 5.46875-3.15625v6.3125zm0 0"/><path d="m187.289062 148.4375 5.464844-3.15625v6.3125zm0 0"/><path d="m159.957031 151.59375 5.464844-3.15625v6.3125zm0 0"/><path d="m154.488281 154.75 5.46875-3.15625v6.3125zm0 0"/><path d="m149.023438 157.90625 5.464843-3.15625v6.3125zm0 0"/><path d="m143.554688 167.375 5.46875-3.15625v6.3125zm0 0"/><path d="m143.554688 173.6875 5.46875-3.15625v6.3125zm0 0"/><path d="m181.820312 214.71875 5.46875-3.15625v6.3125zm0 0"/><path d="m187.289062 211.5625 5.464844-3.15625v6.3125zm0 0"/><path d="m192.753906 208.40625 5.46875-3.15625v6.3125zm0 0"/><path d="m198.222656 205.25 5.464844-3.15625v6.3125zm0 0"/><path d="m214.621094 202.09375 5.46875-3.15625v6.3125zm0 0"/><path d="m214.621094 176.84375 5.46875-3.15625v6.3125zm0 0"/><path d="m214.621094 170.53125 5.46875-3.15625v6.3125zm0 0"/><path d="m209.15625 154.75 5.464844-3.15625v6.3125zm0 0"/><path d="m203.6875 151.59375 5.46875-3.15625v6.3125zm0 0"/><path d="m192.753906 145.28125 5.46875-3.15625v6.3125zm0 0"/><path d="m187.289062 142.125 5.464844-3.15625v6.3125zm0 0"/><path d="m181.820312 138.96875 5.46875-3.15625v6.3125zm0 0"/><path d="m170.890625 138.96875 5.464844-3.15625v6.3125zm0 0"/><path d="m149.023438 151.59375 5.464843-3.15625v6.3125zm0 0"/><path d="m143.554688 154.75 5.46875-3.15625v6.3125zm0 0"/><path d="m138.089844 170.53125 5.464844-3.15625v6.3125zm0 0"/><path d="m138.089844 183.15625 5.464844-3.15625v6.3125zm0 0"/><path d="m138.089844 189.46875 5.464844-3.15625v6.3125zm0 0"/><path d="m192.753906 214.71875 5.46875-3.15625v6.3125zm0 0"/><path d="m203.6875 208.40625 5.46875-3.15625v6.3125zm0 0"/><path d="m220.089844 198.9375 5.464844-3.15625v6.3125zm0 0"/><path d="m220.089844 192.625 5.464844-3.15625v6.3125zm0 0"/><path d="m220.089844 186.3125 5.464844-3.15625v6.3125zm0 0"/><path d="m220.089844 180 5.464844-3.15625v6.3125zm0 0"/><path d="m220.089844 173.6875 5.464844-3.15625v6.3125zm0 0"/><path d="m220.089844 167.375 5.464844-3.15625v6.3125zm0 0"/><path d="m214.621094 151.59375 5.46875-3.15625v6.3125zm0 0"/><path d="m198.222656 142.125 5.464844-3.15625v6.3125zm0 0"/><path d="m187.289062 135.8125 5.464844-3.15625v6.3125zm0 0"/><path d="m181.820312 132.65625 5.46875-3.15625v6.3125zm0 0"/><path d="m159.957031 138.96875 5.464844-3.15625v6.3125zm0 0"/><path d="m143.554688 148.4375 5.46875-3.15625v6.3125zm0 0"/><path d="m132.621094 154.75 5.46875-3.15625v6.3125zm0 0"/><path d="m132.621094 167.375 5.46875-3.15625v6.3125zm0 0"/><path d="m132.621094 180 5.46875-3.15625v6.3125zm0 0"/><path d="m132.621094 186.3125 5.46875-3.15625v6.3125zm0 0"/><path d="m192.753906 221.03125 5.46875-3.15625v6.3125zm0 0"/><path d="m203.6875 214.71875 5.46875-3.15625v6.3125zm0 0"/><path d="m225.554688 208.40625 5.46875-3.15625v6.3125zm0 0"/><path d="m225.554688 202.09375 5.46875-3.15625v6.3125zm0 0"/><path d="m225.554688 195.78125 5.46875-3.15625v6.3125zm0 0"/><path d="m225.554688 189.46875 5.46875-3.15625v6.3125zm0 0"/><path d="m225.554688 183.15625 5.46875-3.15625v6.3125zm0 0"/><path d="m225.554688 176.84375 5.46875-3.15625v6.3125zm0 0"/><path d="m225.554688 170.53125 5.46875-3.15625v6.3125zm0 0"/><path d="m225.554688 151.59375 5.46875-3.15625v6.3125zm0 0"/><path d="m220.089844 148.4375 5.464844-3.15625v6.3125zm0 0"/><path d="m165.421875 129.5 5.46875-3.15625v6.3125zm0 0"/><path d="m159.957031 132.65625 5.464844-3.15625v6.3125zm0 0"/><path d="m149.023438 138.96875 5.464843-3.15625v6.3125zm0 0"/><path d="m138.089844 145.28125 5.464844-3.15625v6.3125zm0 0"/><path d="m127.15625 189.46875 5.464844-3.15625v6.3125zm0 0"/><path d="m192.753906 227.34375 5.46875-3.15625v6.3125zm0 0"/><path d="m198.222656 224.1875 5.464844-3.15625v6.3125zm0 0"/><path d="m231.023438 205.25 5.464843-3.15625v6.3125zm0 0"/><path d="m231.023438 198.9375 5.464843-3.15625v6.3125zm0 0"/><path d="m231.023438 192.625 5.464843-3.15625v6.3125zm0 0"/><path d="m231.023438 180 5.464843-3.15625v6.3125zm0 0"/><path d="m231.023438 173.6875 5.464843-3.15625v6.3125zm0 0"/><path d="m192.753906 126.34375 5.46875-3.15625v6.3125zm0 0"/><path d="m159.957031 126.34375 5.464844-3.15625v6.3125zm0 0"/><path d="m154.488281 129.5 5.46875-3.15625v6.3125zm0 0"/><path d="m149.023438 132.65625 5.464843-3.15625v6.3125zm0 0"/><path d="m143.554688 135.8125 5.46875-3.15625v6.3125zm0 0"/><path d="m138.089844 138.96875 5.464844-3.15625v6.3125zm0 0"/><path d="m121.6875 186.3125 5.46875-3.15625v6.3125zm0 0"/><path d="m121.6875 192.625 5.46875-3.15625v6.3125zm0 0"/><path d="m121.6875 198.9375 5.46875-3.15625v6.3125zm0 0"/><path d="m236.488281 208.40625 5.46875-3.15625v6.3125zm0 0"/><path d="m236.488281 202.09375 5.46875-3.15625v6.3125zm0 0"/><path d="m236.488281 189.46875 5.46875-3.15625v6.3125zm0 0"/><path d="m236.488281 183.15625 5.46875-3.15625v6.3125zm0 0"/><path d="m236.488281 157.90625 5.46875-3.15625v6.3125zm0 0"/><path d="m236.488281 151.59375 5.46875-3.15625v6.3125zm0 0"/><path d="m198.222656 123.1875 5.464844-3.15625v6.3125zm0 0"/><path d="m192.753906 120.03125 5.46875-3.15625v6.3125zm0 0"/><path d="m176.355469 110.5625 5.464843-3.15625v6.3125zm0 0"/><path d="m170.890625 113.71875 5.464844-3.15625v6.3125zm0 0"/><path d="m154.488281 123.1875 5.46875-3.15625v6.3125zm0 0"/><path d="m121.6875 142.125 5.46875-3.15625v6.3125zm0 0"/><path d="m116.222656 145.28125 5.464844-3.15625v6.3125zm0 0"/><path d="m116.222656 157.90625 5.464844-3.15625v6.3125zm0 0"/><path d="m116.222656 164.21875 5.464844-3.15625v6.3125zm0 0"/><path d="m241.957031 211.5625 5.464844-3.15625v6.3125zm0 0"/><path d="m241.957031 205.25 5.464844-3.15625v6.3125zm0 0"/><path d="m241.957031 154.75 5.464844-3.15625v6.3125zm0 0"/><path d="m241.957031 148.4375 5.464844-3.15625v6.3125zm0 0"/><path d="m241.957031 142.125 5.464844-3.15625v6.3125zm0 0"/><path d="m236.488281 138.96875 5.46875-3.15625v6.3125zm0 0"/><path d="m231.023438 135.8125 5.464843-3.15625v6.3125zm0 0"/><path d="m181.820312 107.40625 5.46875-3.15625v6.3125zm0 0"/><path d="m176.355469 104.25 5.464843-3.15625v6.3125zm0 0"/><path d="m154.488281 116.875 5.46875-3.15625v6.3125zm0 0"/><path d="m149.023438 120.03125 5.464843-3.15625v6.3125zm0 0"/><path d="m143.554688 123.1875 5.46875-3.15625v6.3125zm0 0"/><path d="m138.089844 126.34375 5.464844-3.15625v6.3125zm0 0"/><path d="m116.222656 138.96875 5.464844-3.15625v6.3125zm0 0"/><path d="m110.753906 142.125 5.46875-3.15625v6.3125zm0 0"/><path d="m110.753906 148.4375 5.46875-3.15625v6.3125zm0 0"/><path d="m110.753906 154.75 5.46875-3.15625v6.3125zm0 0"/><path d="m110.753906 161.0625 5.46875-3.15625v6.3125zm0 0"/><path d="m110.753906 167.375 5.46875-3.15625v6.3125zm0 0"/><path d="m220.089844 230.5 5.464844-3.15625v6.3125zm0 0"/><path d="m225.554688 227.34375 5.46875-3.15625v6.3125zm0 0"/><path d="m247.421875 208.40625 5.46875-3.15625v6.3125zm0 0"/><path d="m236.488281 132.65625 5.46875-3.15625v6.3125zm0 0"/><path d="m181.820312 101.09375 5.46875-3.15625v6.3125zm0 0"/><path d="m159.957031 107.40625 5.464844-3.15625v6.3125zm0 0"/><path d="m154.488281 110.5625 5.46875-3.15625v6.3125zm0 0"/><path d="m149.023438 113.71875 5.464843-3.15625v6.3125zm0 0"/><path d="m143.554688 116.875 5.46875-3.15625v6.3125zm0 0"/><path d="m132.621094 123.1875 5.46875-3.15625v6.3125zm0 0"/><path d="m121.6875 129.5 5.46875-3.15625v6.3125zm0 0"/><path d="m110.753906 135.8125 5.46875-3.15625v6.3125zm0 0"/><path d="m105.289062 138.96875 5.464844-3.15625v6.3125zm0 0"/><path d="m105.289062 145.28125 5.464844-3.15625v6.3125zm0 0"/><path d="m105.289062 151.59375 5.464844-3.15625v6.3125zm0 0"/><path d="m105.289062 157.90625 5.464844-3.15625v6.3125zm0 0"/><path d="m105.289062 164.21875 5.464844-3.15625v6.3125zm0 0"/><path d="m225.554688 233.65625 5.46875-3.15625v6.3125zm0 0"/><path d="m252.890625 217.875 5.464844-3.15625v6.3125zm0 0"/><path d="m252.890625 211.5625 5.464844-3.15625v6.3125zm0 0"/><path d="m252.890625 205.25 5.464844-3.15625v6.3125zm0 0"/><path d="m159.957031 101.09375 5.464844-3.15625v6.3125zm0 0"/><path d="m154.488281 104.25 5.46875-3.15625v6.3125zm0 0"/><path d="m149.023438 107.40625 5.464843-3.15625v6.3125zm0 0"/><path d="m143.554688 110.5625 5.46875-3.15625v6.3125zm0 0"/><path d="m138.089844 113.71875 5.464844-3.15625v6.3125zm0 0"/><path d="m121.6875 123.1875 5.46875-3.15625v6.3125zm0 0"/><path d="m116.222656 126.34375 5.464844-3.15625v6.3125zm0 0"/><path d="m110.753906 129.5 5.46875-3.15625v6.3125zm0 0"/><path d="m105.289062 132.65625 5.464844-3.15625v6.3125zm0 0"/><path d="m99.820312 135.8125 5.46875-3.15625v6.3125zm0 0"/><path d="m99.820312 142.125 5.46875-3.15625v6.3125zm0 0"/><path d="m220.089844 243.125 5.464844-3.15625v6.3125zm0 0"/><path d="m225.554688 239.96875 5.46875-3.15625v6.3125zm0 0"/><path d="m258.355469 214.71875 5.46875-3.15625v6.3125zm0 0"/><path d="m258.355469 208.40625 5.46875-3.15625v6.3125zm0 0"/><path d="m258.355469 202.09375 5.46875-3.15625v6.3125zm0 0"/><path d="m258.355469 195.78125 5.46875-3.15625v6.3125zm0 0"/><path d="m258.355469 189.46875 5.46875-3.15625v6.3125zm0 0"/><path d="m159.957031 94.78125 5.464844-3.15625v6.3125zm0 0"/><path d="m154.488281 97.9375 5.46875-3.15625v6.3125zm0 0"/><path d="m143.554688 104.25 5.46875-3.15625v6.3125zm0 0"/><path d="m138.089844 107.40625 5.464844-3.15625v6.3125zm0 0"/><path d="m110.753906 123.1875 5.46875-3.15625v6.3125zm0 0"/><path d="m105.289062 126.34375 5.464844-3.15625v6.3125zm0 0"/><path d="m99.820312 129.5 5.46875-3.15625v6.3125zm0 0"/><path d="m94.355469 132.65625 5.464843-3.15625v6.3125zm0 0"/><path d="m94.355469 138.96875 5.464843-3.15625v6.3125zm0 0"/><path d="m220.089844 249.4375 5.464844-3.15625v6.3125zm0 0"/><path d="m225.554688 246.28125 5.46875-3.15625v6.3125zm0 0"/><path d="m231.023438 243.125 5.464843-3.15625v6.3125zm0 0"/><path d="m263.824219 211.5625 5.464843-3.15625v6.3125zm0 0"/><path d="m263.824219 198.9375 5.464843-3.15625v6.3125zm0 0"/><path d="m263.824219 192.625 5.464843-3.15625v6.3125zm0 0"/><path d="m263.824219 186.3125 5.464843-3.15625v6.3125zm0 0"/><path d="m149.023438 94.78125 5.464843-3.15625v6.3125zm0 0"/><path d="m143.554688 97.9375 5.46875-3.15625v6.3125zm0 0"/><path d="m138.089844 101.09375 5.464844-3.15625v6.3125zm0 0"/><path d="m132.621094 104.25 5.46875-3.15625v6.3125zm0 0"/><path d="m99.820312 123.1875 5.46875-3.15625v6.3125zm0 0"/><path d="m269.289062 202.09375 5.46875-3.15625v6.3125zm0 0"/><path d="m269.289062 189.46875 5.46875-3.15625v6.3125zm0 0"/><path d="m143.554688 91.625 5.46875-3.15625v6.3125zm0 0"/><path d="m138.089844 94.78125 5.464844-3.15625v6.3125zm0 0"/><path d="m132.621094 97.9375 5.46875-3.15625v6.3125zm0 0"/><path d="m274.757812 211.5625 5.464844-3.15625v6.3125zm0 0"/><path d="m274.757812 205.25 5.464844-3.15625v6.3125zm0 0"/><path d="m274.757812 198.9375 5.464844-3.15625v6.3125zm0 0"/><path d="m280.222656 195.78125 5.46875-3.15625v6.3125zm0 0"/><path d="m241.957031 262.0625 5.464844-3.15625v6.3125zm0 0"/><path d="m247.421875 258.90625 5.46875-3.15625v6.3125zm0 0"/><path d="m247.421875 265.21875 5.46875-3.15625v6.3125zm0 0"/><path d="m252.890625 262.0625 5.464844-3.15625v6.3125zm0 0"/><path d="m241.957031 274.6875 5.464844-3.15625v6.3125zm0 0"/><path d="m247.421875 271.53125 5.46875-3.15625v6.3125zm0 0"/><path d="m258.355469 265.21875 5.46875-3.15625v6.3125zm0 0"/><path d="m263.824219 262.0625 5.464843-3.15625v6.3125zm0 0"/><path d="m263.824219 268.375 5.464843-3.15625v6.3125zm0 0"/><path d="m269.289062 265.21875 5.46875-3.15625v6.3125zm0 0"/><path d="m252.890625 281 5.464844-3.15625v6.3125zm0 0"/><path d="m263.824219 274.6875 5.464843-3.15625v6.3125zm0 0"/><path d="m192.753906 176.84375-5.464844-3.15625v6.3125zm0 0"/><path d="m181.820312 170.53125-5.464843-3.15625v6.3125zm0 0"/><path d="m176.355469 173.6875-5.464844-3.15625v6.3125zm0 0"/><path d="m176.355469 180-5.464844-3.15625v6.3125zm0 0"/><path d="m187.289062 186.3125-5.46875-3.15625v6.3125zm0 0"/><path d="m198.222656 173.6875-5.46875-3.15625v6.3125zm0 0"/><path d="m192.753906 170.53125-5.464844-3.15625v6.3125zm0 0"/><path d="m170.890625 170.53125-5.46875-3.15625v6.3125zm0 0"/><path d="m170.890625 189.46875-5.46875-3.15625v6.3125zm0 0"/><path d="m181.820312 195.78125-5.464843-3.15625v6.3125zm0 0"/><path d="m203.6875 189.46875-5.464844-3.15625v6.3125zm0 0"/><path d="m203.6875 183.15625-5.464844-3.15625v6.3125zm0 0"/><path d="m203.6875 176.84375-5.464844-3.15625v6.3125zm0 0"/><path d="m203.6875 170.53125-5.464844-3.15625v6.3125zm0 0"/><path d="m192.753906 164.21875-5.464844-3.15625v6.3125zm0 0"/><path d="m181.820312 157.90625-5.464843-3.15625v6.3125zm0 0"/><path d="m165.421875 173.6875-5.464844-3.15625v6.3125zm0 0"/><path d="m165.421875 192.625-5.464844-3.15625v6.3125zm0 0"/><path d="m181.820312 202.09375-5.464843-3.15625v6.3125zm0 0"/><path d="m187.289062 198.9375-5.46875-3.15625v6.3125zm0 0"/><path d="m192.753906 195.78125-5.464844-3.15625v6.3125zm0 0"/><path d="m198.222656 192.625-5.46875-3.15625v6.3125zm0 0"/><path d="m209.15625 192.625-5.46875-3.15625v6.3125zm0 0"/><path d="m209.15625 186.3125-5.46875-3.15625v6.3125zm0 0"/><path d="m209.15625 180-5.46875-3.15625v6.3125zm0 0"/><path d="m209.15625 173.6875-5.46875-3.15625v6.3125zm0 0"/><path d="m209.15625 167.375-5.46875-3.15625v6.3125zm0 0"/><path d="m203.6875 164.21875-5.464844-3.15625v6.3125zm0 0"/><path d="m198.222656 161.0625-5.46875-3.15625v6.3125zm0 0"/><path d="m187.289062 154.75-5.46875-3.15625v6.3125zm0 0"/><path d="m181.820312 151.59375-5.464843-3.15625v6.3125zm0 0"/><path d="m176.355469 154.75-5.464844-3.15625v6.3125zm0 0"/><path d="m165.421875 161.0625-5.464844-3.15625v6.3125zm0 0"/><path d="m159.957031 164.21875-5.46875-3.15625v6.3125zm0 0"/><path d="m159.957031 176.84375-5.46875-3.15625v6.3125zm0 0"/><path d="m159.957031 195.78125-5.46875-3.15625v6.3125zm0 0"/><path d="m165.421875 198.9375-5.464844-3.15625v6.3125zm0 0"/><path d="m170.890625 202.09375-5.46875-3.15625v6.3125zm0 0"/><path d="m176.355469 205.25-5.464844-3.15625v6.3125zm0 0"/><path d="m181.820312 208.40625-5.464843-3.15625v6.3125zm0 0"/><path d="m187.289062 205.25-5.46875-3.15625v6.3125zm0 0"/><path d="m192.753906 202.09375-5.464844-3.15625v6.3125zm0 0"/><path d="m203.6875 195.78125-5.464844-3.15625v6.3125zm0 0"/><path d="m214.621094 195.78125-5.464844-3.15625v6.3125zm0 0"/><path d="m214.621094 189.46875-5.464844-3.15625v6.3125zm0 0"/><path d="m214.621094 183.15625-5.464844-3.15625v6.3125zm0 0"/><path d="m214.621094 170.53125-5.464844-3.15625v6.3125zm0 0"/><path d="m214.621094 164.21875-5.464844-3.15625v6.3125zm0 0"/><path d="m209.15625 161.0625-5.46875-3.15625v6.3125zm0 0"/><path d="m203.6875 157.90625-5.464844-3.15625v6.3125zm0 0"/><path d="m192.753906 151.59375-5.464844-3.15625v6.3125zm0 0"/><path d="m187.289062 148.4375-5.46875-3.15625v6.3125zm0 0"/><path d="m181.820312 145.28125-5.464843-3.15625v6.3125zm0 0"/><path d="m176.355469 148.4375-5.464844-3.15625v6.3125zm0 0"/><path d="m170.890625 151.59375-5.46875-3.15625v6.3125zm0 0"/><path d="m165.421875 154.75-5.464844-3.15625v6.3125zm0 0"/><path d="m159.957031 157.90625-5.46875-3.15625v6.3125zm0 0"/><path d="m154.488281 167.375-5.464843-3.15625v6.3125zm0 0"/><path d="m154.488281 192.625-5.464843-3.15625v6.3125zm0 0"/><path d="m154.488281 198.9375-5.464843-3.15625v6.3125zm0 0"/><path d="m159.957031 202.09375-5.46875-3.15625v6.3125zm0 0"/><path d="m165.421875 205.25-5.464844-3.15625v6.3125zm0 0"/><path d="m170.890625 208.40625-5.46875-3.15625v6.3125zm0 0"/><path d="m176.355469 211.5625-5.464844-3.15625v6.3125zm0 0"/><path d="m181.820312 214.71875-5.464843-3.15625v6.3125zm0 0"/><path d="m187.289062 211.5625-5.46875-3.15625v6.3125zm0 0"/><path d="m192.753906 208.40625-5.464844-3.15625v6.3125zm0 0"/><path d="m198.222656 205.25-5.46875-3.15625v6.3125zm0 0"/><path d="m203.6875 202.09375-5.464844-3.15625v6.3125zm0 0"/><path d="m209.15625 198.9375-5.46875-3.15625v6.3125zm0 0"/><path d="m220.089844 198.9375-5.46875-3.15625v6.3125zm0 0"/><path d="m220.089844 192.625-5.46875-3.15625v6.3125zm0 0"/><path d="m220.089844 186.3125-5.46875-3.15625v6.3125zm0 0"/><path d="m220.089844 167.375-5.46875-3.15625v6.3125zm0 0"/><path d="m214.621094 157.90625-5.464844-3.15625v6.3125zm0 0"/><path d="m209.15625 154.75-5.46875-3.15625v6.3125zm0 0"/><path d="m176.355469 142.125-5.464844-3.15625v6.3125zm0 0"/><path d="m170.890625 145.28125-5.46875-3.15625v6.3125zm0 0"/><path d="m165.421875 148.4375-5.464844-3.15625v6.3125zm0 0"/><path d="m154.488281 154.75-5.464843-3.15625v6.3125zm0 0"/><path d="m149.023438 157.90625-5.46875-3.15625v6.3125zm0 0"/><path d="m149.023438 170.53125-5.46875-3.15625v6.3125zm0 0"/><path d="m149.023438 176.84375-5.46875-3.15625v6.3125zm0 0"/><path d="m149.023438 189.46875-5.46875-3.15625v6.3125zm0 0"/><path d="m149.023438 195.78125-5.46875-3.15625v6.3125zm0 0"/><path d="m149.023438 202.09375-5.46875-3.15625v6.3125zm0 0"/><path d="m154.488281 205.25-5.464843-3.15625v6.3125zm0 0"/><path d="m159.957031 208.40625-5.46875-3.15625v6.3125zm0 0"/><path d="m165.421875 211.5625-5.464844-3.15625v6.3125zm0 0"/><path d="m170.890625 214.71875-5.46875-3.15625v6.3125zm0 0"/><path d="m176.355469 217.875-5.464844-3.15625v6.3125zm0 0"/><path d="m181.820312 221.03125-5.464843-3.15625v6.3125zm0 0"/><path d="m187.289062 217.875-5.46875-3.15625v6.3125zm0 0"/><path d="m192.753906 214.71875-5.464844-3.15625v6.3125zm0 0"/><path d="m203.6875 208.40625-5.464844-3.15625v6.3125zm0 0"/><path d="m214.621094 202.09375-5.464844-3.15625v6.3125zm0 0"/><path d="m225.554688 202.09375-5.464844-3.15625v6.3125zm0 0"/><path d="m225.554688 195.78125-5.464844-3.15625v6.3125zm0 0"/><path d="m225.554688 189.46875-5.464844-3.15625v6.3125zm0 0"/><path d="m225.554688 183.15625-5.464844-3.15625v6.3125zm0 0"/><path d="m225.554688 176.84375-5.464844-3.15625v6.3125zm0 0"/><path d="m225.554688 157.90625-5.464844-3.15625v6.3125zm0 0"/><path d="m220.089844 154.75-5.46875-3.15625v6.3125zm0 0"/><path d="m214.621094 151.59375-5.464844-3.15625v6.3125zm0 0"/><path d="m209.15625 148.4375-5.46875-3.15625v6.3125zm0 0"/><path d="m203.6875 145.28125-5.464844-3.15625v6.3125zm0 0"/><path d="m198.222656 142.125-5.46875-3.15625v6.3125zm0 0"/><path d="m192.753906 138.96875-5.464844-3.15625v6.3125zm0 0"/><path d="m176.355469 135.8125-5.464844-3.15625v6.3125zm0 0"/><path d="m170.890625 138.96875-5.46875-3.15625v6.3125zm0 0"/><path d="m165.421875 142.125-5.464844-3.15625v6.3125zm0 0"/><path d="m154.488281 148.4375-5.464843-3.15625v6.3125zm0 0"/><path d="m143.554688 173.6875-5.464844-3.15625v6.3125zm0 0"/><path d="m143.554688 180-5.464844-3.15625v6.3125zm0 0"/><path d="m143.554688 192.625-5.464844-3.15625v6.3125zm0 0"/><path d="m143.554688 198.9375-5.464844-3.15625v6.3125zm0 0"/><path d="m143.554688 205.25-5.464844-3.15625v6.3125zm0 0"/><path d="m159.957031 214.71875-5.46875-3.15625v6.3125zm0 0"/><path d="m165.421875 217.875-5.464844-3.15625v6.3125zm0 0"/><path d="m170.890625 221.03125-5.46875-3.15625v6.3125zm0 0"/><path d="m176.355469 224.1875-5.464844-3.15625v6.3125zm0 0"/><path d="m181.820312 227.34375-5.464843-3.15625v6.3125zm0 0"/><path d="m187.289062 224.1875-5.46875-3.15625v6.3125zm0 0"/><path d="m192.753906 221.03125-5.464844-3.15625v6.3125zm0 0"/><path d="m198.222656 217.875-5.46875-3.15625v6.3125zm0 0"/><path d="m209.15625 211.5625-5.46875-3.15625v6.3125zm0 0"/><path d="m214.621094 208.40625-5.464844-3.15625v6.3125zm0 0"/><path d="m220.089844 205.25-5.46875-3.15625v6.3125zm0 0"/><path d="m231.023438 205.25-5.46875-3.15625v6.3125zm0 0"/><path d="m231.023438 198.9375-5.46875-3.15625v6.3125zm0 0"/><path d="m231.023438 192.625-5.46875-3.15625v6.3125zm0 0"/><path d="m231.023438 186.3125-5.46875-3.15625v6.3125zm0 0"/><path d="m214.621094 145.28125-5.464844-3.15625v6.3125zm0 0"/><path d="m209.15625 142.125-5.46875-3.15625v6.3125zm0 0"/><path d="m187.289062 129.5-5.46875-3.15625v6.3125zm0 0"/><path d="m181.820312 126.34375-5.464843-3.15625v6.3125zm0 0"/><path d="m176.355469 129.5-5.464844-3.15625v6.3125zm0 0"/><path d="m165.421875 135.8125-5.464844-3.15625v6.3125zm0 0"/><path d="m159.957031 138.96875-5.46875-3.15625v6.3125zm0 0"/><path d="m154.488281 142.125-5.464843-3.15625v6.3125zm0 0"/><path d="m149.023438 145.28125-5.46875-3.15625v6.3125zm0 0"/><path d="m138.089844 157.90625-5.46875-3.15625v6.3125zm0 0"/><path d="m138.089844 164.21875-5.46875-3.15625v6.3125zm0 0"/><path d="m138.089844 170.53125-5.46875-3.15625v6.3125zm0 0"/><path d="m138.089844 176.84375-5.46875-3.15625v6.3125zm0 0"/><path d="m138.089844 189.46875-5.46875-3.15625v6.3125zm0 0"/><path d="m138.089844 195.78125-5.46875-3.15625v6.3125zm0 0"/><path d="m138.089844 202.09375-5.46875-3.15625v6.3125zm0 0"/><path d="m143.554688 211.5625-5.464844-3.15625v6.3125zm0 0"/><path d="m149.023438 214.71875-5.46875-3.15625v6.3125zm0 0"/><path d="m154.488281 217.875-5.464843-3.15625v6.3125zm0 0"/><path d="m159.957031 221.03125-5.46875-3.15625v6.3125zm0 0"/><path d="m165.421875 224.1875-5.464844-3.15625v6.3125zm0 0"/><path d="m170.890625 227.34375-5.46875-3.15625v6.3125zm0 0"/><path d="m214.621094 214.71875-5.464844-3.15625v6.3125zm0 0"/><path d="m220.089844 211.5625-5.46875-3.15625v6.3125zm0 0"/><path d="m236.488281 208.40625-5.464843-3.15625v6.3125zm0 0"/><path d="m236.488281 202.09375-5.464843-3.15625v6.3125zm0 0"/><path d="m236.488281 195.78125-5.464843-3.15625v6.3125zm0 0"/><path d="m236.488281 189.46875-5.464843-3.15625v6.3125zm0 0"/><path d="m236.488281 183.15625-5.464843-3.15625v6.3125zm0 0"/><path d="m236.488281 176.84375-5.464843-3.15625v6.3125zm0 0"/><path d="m236.488281 151.59375-5.464843-3.15625v6.3125zm0 0"/><path d="m231.023438 148.4375-5.46875-3.15625v6.3125zm0 0"/><path d="m225.554688 145.28125-5.464844-3.15625v6.3125zm0 0"/><path d="m181.820312 120.03125-5.464843-3.15625v6.3125zm0 0"/><path d="m176.355469 123.1875-5.464844-3.15625v6.3125zm0 0"/><path d="m170.890625 126.34375-5.46875-3.15625v6.3125zm0 0"/><path d="m159.957031 132.65625-5.46875-3.15625v6.3125zm0 0"/><path d="m154.488281 135.8125-5.464843-3.15625v6.3125zm0 0"/><path d="m143.554688 142.125-5.464844-3.15625v6.3125zm0 0"/><path d="m132.621094 154.75-5.464844-3.15625v6.3125zm0 0"/><path d="m132.621094 161.0625-5.464844-3.15625v6.3125zm0 0"/><path d="m132.621094 167.375-5.464844-3.15625v6.3125zm0 0"/><path d="m132.621094 192.625-5.464844-3.15625v6.3125zm0 0"/><path d="m132.621094 198.9375-5.464844-3.15625v6.3125zm0 0"/><path d="m165.421875 230.5-5.464844-3.15625v6.3125zm0 0"/><path d="m170.890625 233.65625-5.46875-3.15625v6.3125zm0 0"/><path d="m203.6875 227.34375-5.464844-3.15625v6.3125zm0 0"/><path d="m209.15625 224.1875-5.46875-3.15625v6.3125zm0 0"/><path d="m241.957031 211.5625-5.46875-3.15625v6.3125zm0 0"/><path d="m241.957031 205.25-5.46875-3.15625v6.3125zm0 0"/><path d="m241.957031 198.9375-5.46875-3.15625v6.3125zm0 0"/><path d="m241.957031 192.625-5.46875-3.15625v6.3125zm0 0"/><path d="m241.957031 186.3125-5.46875-3.15625v6.3125zm0 0"/><path d="m241.957031 180-5.46875-3.15625v6.3125zm0 0"/><path d="m241.957031 173.6875-5.46875-3.15625v6.3125zm0 0"/><path d="m236.488281 145.28125-5.464843-3.15625v6.3125zm0 0"/><path d="m231.023438 142.125-5.46875-3.15625v6.3125zm0 0"/><path d="m181.820312 113.71875-5.464843-3.15625v6.3125zm0 0"/><path d="m176.355469 116.875-5.464844-3.15625v6.3125zm0 0"/><path d="m170.890625 120.03125-5.46875-3.15625v6.3125zm0 0"/><path d="m138.089844 138.96875-5.46875-3.15625v6.3125zm0 0"/><path d="m132.621094 142.125-5.464844-3.15625v6.3125zm0 0"/><path d="m127.15625 145.28125-5.46875-3.15625v6.3125zm0 0"/><path d="m127.15625 151.59375-5.46875-3.15625v6.3125zm0 0"/><path d="m209.15625 230.5-5.46875-3.15625v6.3125zm0 0"/><path d="m214.621094 227.34375-5.464844-3.15625v6.3125zm0 0"/><path d="m247.421875 214.71875-5.464844-3.15625v6.3125zm0 0"/><path d="m247.421875 202.09375-5.464844-3.15625v6.3125zm0 0"/><path d="m247.421875 195.78125-5.464844-3.15625v6.3125zm0 0"/><path d="m247.421875 189.46875-5.464844-3.15625v6.3125zm0 0"/><path d="m247.421875 183.15625-5.464844-3.15625v6.3125zm0 0"/><path d="m247.421875 176.84375-5.464844-3.15625v6.3125zm0 0"/><path d="m247.421875 170.53125-5.464844-3.15625v6.3125zm0 0"/><path d="m247.421875 164.21875-5.464844-3.15625v6.3125zm0 0"/><path d="m187.289062 110.5625-5.46875-3.15625v6.3125zm0 0"/><path d="m170.890625 113.71875-5.46875-3.15625v6.3125zm0 0"/><path d="m165.421875 116.875-5.464844-3.15625v6.3125zm0 0"/><path d="m159.957031 120.03125-5.46875-3.15625v6.3125zm0 0"/><path d="m132.621094 135.8125-5.464844-3.15625v6.3125zm0 0"/><path d="m127.15625 138.96875-5.46875-3.15625v6.3125zm0 0"/><path d="m121.6875 154.75-5.464844-3.15625v6.3125zm0 0"/><path d="m121.6875 192.625-5.464844-3.15625v6.3125zm0 0"/><path d="m121.6875 198.9375-5.464844-3.15625v6.3125zm0 0"/><path d="m214.621094 233.65625-5.464844-3.15625v6.3125zm0 0"/><path d="m220.089844 230.5-5.46875-3.15625v6.3125zm0 0"/><path d="m225.554688 227.34375-5.464844-3.15625v6.3125zm0 0"/><path d="m231.023438 224.1875-5.46875-3.15625v6.3125zm0 0"/><path d="m236.488281 221.03125-5.464843-3.15625v6.3125zm0 0"/><path d="m252.890625 205.25-5.46875-3.15625v6.3125zm0 0"/><path d="m252.890625 198.9375-5.46875-3.15625v6.3125zm0 0"/><path d="m252.890625 192.625-5.46875-3.15625v6.3125zm0 0"/><path d="m252.890625 186.3125-5.46875-3.15625v6.3125zm0 0"/><path d="m252.890625 180-5.46875-3.15625v6.3125zm0 0"/><path d="m252.890625 173.6875-5.46875-3.15625v6.3125zm0 0"/><path d="m252.890625 167.375-5.46875-3.15625v6.3125zm0 0"/><path d="m252.890625 161.0625-5.46875-3.15625v6.3125zm0 0"/><path d="m241.957031 135.8125-5.46875-3.15625v6.3125zm0 0"/><path d="m192.753906 107.40625-5.464844-3.15625v6.3125zm0 0"/><path d="m159.957031 113.71875-5.46875-3.15625v6.3125zm0 0"/><path d="m154.488281 116.875-5.464843-3.15625v6.3125zm0 0"/><path d="m143.554688 123.1875-5.464844-3.15625v6.3125zm0 0"/><path d="m138.089844 126.34375-5.46875-3.15625v6.3125zm0 0"/><path d="m116.222656 138.96875-5.46875-3.15625v6.3125zm0 0"/><path d="m116.222656 189.46875-5.46875-3.15625v6.3125zm0 0"/><path d="m214.621094 239.96875-5.464844-3.15625v6.3125zm0 0"/><path d="m220.089844 236.8125-5.46875-3.15625v6.3125zm0 0"/><path d="m225.554688 233.65625-5.464844-3.15625v6.3125zm0 0"/><path d="m231.023438 230.5-5.46875-3.15625v6.3125zm0 0"/><path d="m236.488281 227.34375-5.464843-3.15625v6.3125zm0 0"/><path d="m258.355469 195.78125-5.464844-3.15625v6.3125zm0 0"/><path d="m258.355469 189.46875-5.464844-3.15625v6.3125zm0 0"/><path d="m258.355469 183.15625-5.464844-3.15625v6.3125zm0 0"/><path d="m258.355469 176.84375-5.464844-3.15625v6.3125zm0 0"/><path d="m258.355469 170.53125-5.464844-3.15625v6.3125zm0 0"/><path d="m258.355469 164.21875-5.464844-3.15625v6.3125zm0 0"/><path d="m258.355469 157.90625-5.464844-3.15625v6.3125zm0 0"/><path d="m159.957031 107.40625-5.46875-3.15625v6.3125zm0 0"/><path d="m149.023438 113.71875-5.46875-3.15625v6.3125zm0 0"/><path d="m138.089844 120.03125-5.46875-3.15625v6.3125zm0 0"/><path d="m121.6875 129.5-5.464844-3.15625v6.3125zm0 0"/><path d="m110.753906 142.125-5.464844-3.15625v6.3125zm0 0"/><path d="m220.089844 243.125-5.46875-3.15625v6.3125zm0 0"/><path d="m225.554688 239.96875-5.464844-3.15625v6.3125zm0 0"/><path d="m231.023438 236.8125-5.46875-3.15625v6.3125zm0 0"/><path d="m263.824219 198.9375-5.46875-3.15625v6.3125zm0 0"/><path d="m263.824219 192.625-5.46875-3.15625v6.3125zm0 0"/><path d="m263.824219 186.3125-5.46875-3.15625v6.3125zm0 0"/><path d="m263.824219 180-5.46875-3.15625v6.3125zm0 0"/><path d="m263.824219 173.6875-5.46875-3.15625v6.3125zm0 0"/><path d="m263.824219 167.375-5.46875-3.15625v6.3125zm0 0"/><path d="m263.824219 161.0625-5.46875-3.15625v6.3125zm0 0"/><path d="m159.957031 101.09375-5.46875-3.15625v6.3125zm0 0"/><path d="m149.023438 107.40625-5.46875-3.15625v6.3125zm0 0"/><path d="m110.753906 129.5-5.464844-3.15625v6.3125zm0 0"/><path d="m105.289062 132.65625-5.46875-3.15625v6.3125zm0 0"/><path d="m231.023438 243.125-5.46875-3.15625v6.3125zm0 0"/><path d="m236.488281 239.96875-5.464843-3.15625v6.3125zm0 0"/><path d="m269.289062 214.71875-5.464843-3.15625v6.3125zm0 0"/><path d="m269.289062 202.09375-5.464843-3.15625v6.3125zm0 0"/><path d="m269.289062 195.78125-5.464843-3.15625v6.3125zm0 0"/><path d="m269.289062 183.15625-5.464843-3.15625v6.3125zm0 0"/><path d="m269.289062 176.84375-5.464843-3.15625v6.3125zm0 0"/><path d="m269.289062 170.53125-5.464843-3.15625v6.3125zm0 0"/><path d="m269.289062 164.21875-5.464843-3.15625v6.3125zm0 0"/><path d="m269.289062 157.90625-5.464843-3.15625v6.3125zm0 0"/><path d="m149.023438 101.09375-5.46875-3.15625v6.3125zm0 0"/><path d="m116.222656 120.03125-5.46875-3.15625v6.3125zm0 0"/><path d="m110.753906 123.1875-5.464844-3.15625v6.3125zm0 0"/><path d="m105.289062 126.34375-5.46875-3.15625v6.3125zm0 0"/><path d="m99.820312 129.5-5.464843-3.15625v6.3125zm0 0"/><path d="m236.488281 246.28125-5.464843-3.15625v6.3125zm0 0"/><path d="m241.957031 243.125-5.46875-3.15625v6.3125zm0 0"/><path d="m247.421875 239.96875-5.464844-3.15625v6.3125zm0 0"/><path d="m274.757812 186.3125-5.46875-3.15625v6.3125zm0 0"/><path d="m149.023438 94.78125-5.46875-3.15625v6.3125zm0 0"/><path d="m105.289062 120.03125-5.46875-3.15625v6.3125zm0 0"/><path d="m241.957031 249.4375-5.46875-3.15625v6.3125zm0 0"/><path d="m247.421875 246.28125-5.464844-3.15625v6.3125zm0 0"/><path d="m280.222656 214.71875-5.464844-3.15625v6.3125zm0 0"/><path d="m280.222656 208.40625-5.464844-3.15625v6.3125zm0 0"/><path d="m280.222656 202.09375-5.464844-3.15625v6.3125zm0 0"/><path d="m247.421875 252.59375-5.464844-3.15625v6.3125zm0 0"/><path d="m252.890625 249.4375-5.46875-3.15625v6.3125zm0 0"/><path d="m285.691406 211.5625-5.46875-3.15625v6.3125zm0 0"/><path d="m247.421875 258.90625-5.464844-3.15625v6.3125zm0 0"/><path d="m252.890625 255.75-5.46875-3.15625v6.3125zm0 0"/><path d="m258.355469 252.59375-5.464844-3.15625v6.3125zm0 0"/><path d="m258.355469 258.90625-5.464844-3.15625v6.3125zm0 0"/><path d="m263.824219 255.75-5.46875-3.15625v6.3125zm0 0"/><path d="m252.890625 268.375-5.46875-3.15625v6.3125zm0 0"/><path d="m258.355469 265.21875-5.464844-3.15625v6.3125zm0 0"/><path d="m269.289062 258.90625-5.464843-3.15625v6.3125zm0 0"/><path d="m258.355469 271.53125-5.464844-3.15625v6.3125zm0 0"/><path d="m263.824219 274.6875-5.46875-3.15625v6.3125zm0 0"/><path d="m269.289062 271.53125-5.464843-3.15625v6.3125zm0 0"/></g></svg>