<svg height="360pt" viewBox="0 0 360 360" width="360pt" xmlns="http://www.w3.org/2000/svg"><path d="m0 0h360v360h-360z" fill="#800080"/><g fill="#fff"><path d="m180.953125 181.652344 2.859375-1.652344v3.300781zm0 0"/><path d="m180.953125 178.347656 2.859375-1.648437v3.300781zm0 0"/><path d="m178.09375 176.699219 2.859375-1.652344v3.300781zm0 0"/><path d="m175.234375 178.347656 2.859375-1.648437v3.300781zm0 0"/><path d="m175.234375 181.652344 2.859375-1.652344v3.300781zm0 0"/><path d="m178.09375 183.300781 2.859375-1.648437v3.300781zm0 0"/><path d="m183.8125 183.300781 2.859375-1.648437v3.300781zm0 0"/><path d="m183.8125 176.699219 2.859375-1.652344v3.300781zm0 0"/><path d="m178.09375 173.394531 2.859375-1.648437v3.300781zm0 0"/><path d="m172.375 176.699219 2.859375-1.652344v3.300781zm0 0"/><path d="m172.375 183.300781 2.859375-1.648437v3.300781zm0 0"/><path d="m178.09375 186.605469 2.859375-1.652344v3.300781zm0 0"/><path d="m263.890625 229.535156 2.859375-1.652344v3.304688zm0 0"/><path d="m263.890625 130.464844 2.859375-1.652344v3.304688zm0 0"/><path d="m178.09375 80.929688 2.859375-1.648438v3.300781zm0 0"/><path d="m92.296875 130.464844 2.859375-1.652344v3.304688zm0 0"/><path d="m92.296875 229.535156 2.859375-1.652344v3.304688zm0 0"/><path d="m178.09375 279.070312 2.859375-1.652343v3.300781zm0 0"/><path d="m266.75 231.1875 2.859375-1.652344v3.300782zm0 0"/><path d="m266.75 128.8125 2.859375-1.648438v3.300782zm0 0"/><path d="m178.09375 77.628906 2.859375-1.652344v3.304688zm0 0"/><path d="m89.4375 128.8125 2.859375-1.648438v3.300782zm0 0"/><path d="m89.4375 231.1875 2.859375-1.652344v3.300782zm0 0"/><path d="m178.09375 282.371094 2.859375-1.652344v3.304688zm0 0"/><path d="m269.609375 229.535156 2.859375-1.652344v3.304688zm0 0"/><path d="m269.609375 226.230469 2.859375-1.648438v3.300781zm0 0"/><path d="m269.609375 133.769531 2.859375-1.652343v3.300781zm0 0"/><path d="m269.609375 130.464844 2.859375-1.652344v3.304688zm0 0"/><path d="m266.75 125.511719 2.859375-1.652344v3.304687zm0 0"/><path d="m263.890625 123.859375 2.859375-1.648437v3.300781zm0 0"/><path d="m183.8125 77.628906 2.859375-1.652344v3.304688zm0 0"/><path d="m180.953125 75.976562 2.859375-1.648437v3.300781zm0 0"/><path d="m175.234375 75.976562 2.859375-1.648437v3.300781zm0 0"/><path d="m172.375 77.628906 2.859375-1.652344v3.304688zm0 0"/><path d="m92.296875 123.859375 2.859375-1.648437v3.300781zm0 0"/><path d="m89.4375 125.511719 2.859375-1.652344v3.304687zm0 0"/><path d="m86.578125 130.464844 2.859375-1.652344v3.304688zm0 0"/><path d="m86.578125 133.769531 2.859375-1.652343v3.300781zm0 0"/><path d="m86.578125 226.230469 2.859375-1.648438v3.300781zm0 0"/><path d="m86.578125 229.535156 2.859375-1.652344v3.304688zm0 0"/><path d="m89.4375 234.488281 2.859375-1.652343v3.304687zm0 0"/><path d="m92.296875 236.140625 2.859375-1.652344v3.300781zm0 0"/><path d="m172.375 282.371094 2.859375-1.652344v3.304688zm0 0"/><path d="m175.234375 284.023438 2.859375-1.652344v3.300781zm0 0"/><path d="m180.953125 284.023438 2.859375-1.652344v3.300781zm0 0"/><path d="m183.8125 282.371094 2.859375-1.652344v3.304688zm0 0"/><path d="m263.890625 236.140625 2.859375-1.652344v3.300781zm0 0"/><path d="m266.75 234.488281 2.859375-1.652343v3.304687zm0 0"/><path d="m272.46875 234.488281 2.859375-1.652343v3.304687zm0 0"/><path d="m272.46875 231.1875 2.859375-1.652344v3.300782zm0 0"/><path d="m272.46875 128.8125 2.859375-1.648438v3.300782zm0 0"/><path d="m272.46875 125.511719 2.859375-1.652344v3.304687zm0 0"/><path d="m269.609375 123.859375 2.859375-1.648437v3.300781zm0 0"/><path d="m180.953125 72.675781 2.859375-1.652343v3.304687zm0 0"/><path d="m178.09375 71.023438 2.859375-1.652344v3.304687zm0 0"/><path d="m175.234375 72.675781 2.859375-1.652343v3.304687zm0 0"/><path d="m86.578125 123.859375 2.859375-1.648437v3.300781zm0 0"/><path d="m83.71875 125.511719 2.859375-1.652344v3.304687zm0 0"/><path d="m83.71875 128.8125 2.859375-1.648438v3.300782zm0 0"/><path d="m83.71875 231.1875 2.859375-1.652344v3.300782zm0 0"/><path d="m83.71875 234.488281 2.859375-1.652343v3.304687zm0 0"/><path d="m86.578125 236.140625 2.859375-1.652344v3.300781zm0 0"/><path d="m175.234375 287.324219 2.859375-1.652344v3.304687zm0 0"/><path d="m178.09375 288.976562 2.859375-1.652343v3.304687zm0 0"/><path d="m180.953125 287.324219 2.859375-1.652344v3.304687zm0 0"/><path d="m269.609375 236.140625 2.859375-1.652344v3.300781zm0 0"/><path d="m275.328125 236.140625 2.859375-1.652344v3.300781zm0 0"/><path d="m275.328125 229.535156 2.859375-1.652344v3.304688zm0 0"/><path d="m275.328125 130.464844 2.859375-1.652344v3.304688zm0 0"/><path d="m275.328125 123.859375 2.859375-1.648437v3.300781zm0 0"/><path d="m269.609375 120.558594 2.859375-1.652344v3.304688zm0 0"/><path d="m183.8125 71.023438 2.859375-1.652344v3.304687zm0 0"/><path d="m178.09375 67.722656 2.859375-1.652344v3.300782zm0 0"/><path d="m172.375 71.023438 2.859375-1.652344v3.304687zm0 0"/><path d="m86.578125 120.558594 2.859375-1.652344v3.304688zm0 0"/><path d="m80.859375 123.859375 2.859375-1.648437v3.300781zm0 0"/><path d="m80.859375 130.464844 2.859375-1.652344v3.304688zm0 0"/><path d="m80.859375 229.535156 2.859375-1.652344v3.304688zm0 0"/><path d="m80.859375 236.140625 2.859375-1.652344v3.300781zm0 0"/><path d="m86.578125 239.441406 2.859375-1.652344v3.304688zm0 0"/><path d="m172.375 288.976562 2.859375-1.652343v3.304687zm0 0"/><path d="m178.09375 292.277344 2.859375-1.648438v3.300782zm0 0"/><path d="m183.8125 288.976562 2.859375-1.652343v3.304687zm0 0"/><path d="m269.609375 239.441406 2.859375-1.652344v3.304688zm0 0"/><path d="m309.648438 255.953125 2.859374-1.652344v3.304688zm0 0"/><path d="m309.648438 209.722656 2.859374-1.652344v3.300782zm0 0"/><path d="m309.648438 203.117188 2.859374-1.652344v3.300781zm0 0"/><path d="m309.648438 156.882812 2.859374-1.648437v3.300781zm0 0"/><path d="m309.648438 150.277344 2.859374-1.648438v3.300782zm0 0"/><path d="m309.648438 104.046875 2.859374-1.652344v3.304688zm0 0"/><path d="m269.609375 80.929688 2.859375-1.648438v3.300781zm0 0"/><path d="m263.890625 77.628906 2.859375-1.652344v3.304688zm0 0"/><path d="m223.851562 54.511719 2.859376-1.648438v3.300781zm0 0"/><path d="m218.132812 51.210938 2.859376-1.652344v3.304687zm0 0"/><path d="m178.09375 28.09375 2.859375-1.652344v3.304688zm0 0"/><path d="m138.054688 51.210938 2.859374-1.652344v3.304687zm0 0"/><path d="m132.335938 54.511719 2.859374-1.648438v3.300781zm0 0"/><path d="m92.296875 77.628906 2.859375-1.652344v3.304688zm0 0"/><path d="m86.578125 80.929688 2.859375-1.648438v3.300781zm0 0"/><path d="m46.539062 104.046875 2.859376-1.652344v3.304688zm0 0"/><path d="m46.539062 150.277344 2.859376-1.648438v3.300782zm0 0"/><path d="m46.539062 156.882812 2.859376-1.648437v3.300781zm0 0"/><path d="m46.539062 203.117188 2.859376-1.652344v3.300781zm0 0"/><path d="m46.539062 209.722656 2.859376-1.652344v3.300782zm0 0"/><path d="m46.539062 255.953125 2.859376-1.652344v3.304688zm0 0"/><path d="m86.578125 279.070312 2.859375-1.652343v3.300781zm0 0"/><path d="m92.296875 282.371094 2.859375-1.652344v3.304688zm0 0"/><path d="m132.335938 305.488281 2.859374-1.652343v3.300781zm0 0"/><path d="m138.054688 308.789062 2.859374-1.652343v3.304687zm0 0"/><path d="m178.09375 331.90625 2.859375-1.652344v3.304688zm0 0"/><path d="m218.132812 308.789062 2.859376-1.652343v3.304687zm0 0"/><path d="m223.851562 305.488281 2.859376-1.652343v3.300781zm0 0"/><path d="m263.890625 282.371094 2.859375-1.652344v3.304688zm0 0"/><path d="m269.609375 279.070312 2.859375-1.652343v3.300781zm0 0"/><path d="m312.507812 257.605469 2.859376-1.652344v3.300781zm0 0"/><path d="m312.507812 208.070312 2.859376-1.652343v3.304687zm0 0"/><path d="m312.507812 204.765625 2.859376-1.648437v3.300781zm0 0"/><path d="m312.507812 155.234375 2.859376-1.652344v3.300781zm0 0"/><path d="m312.507812 151.929688 2.859376-1.652344v3.304687zm0 0"/><path d="m312.507812 102.394531 2.859376-1.648437v3.300781zm0 0"/><path d="m269.609375 77.628906 2.859375-1.652344v3.304688zm0 0"/><path d="m266.75 75.976562 2.859375-1.648437v3.300781zm0 0"/><path d="m223.851562 51.210938 2.859376-1.652344v3.304687zm0 0"/><path d="m220.992188 49.558594 2.859374-1.652344v3.304688zm0 0"/><path d="m178.09375 24.792969 2.859375-1.652344v3.300781zm0 0"/><path d="m135.195312 49.558594 2.859376-1.652344v3.304688zm0 0"/><path d="m132.335938 51.210938 2.859374-1.652344v3.304687zm0 0"/><path d="m89.4375 75.976562 2.859375-1.648437v3.300781zm0 0"/><path d="m86.578125 77.628906 2.859375-1.652344v3.304688zm0 0"/><path d="m43.679688 102.394531 2.859374-1.648437v3.300781zm0 0"/><path d="m43.679688 151.929688 2.859374-1.652344v3.304687zm0 0"/><path d="m43.679688 155.234375 2.859374-1.652344v3.300781zm0 0"/><path d="m43.679688 204.765625 2.859374-1.648437v3.300781zm0 0"/><path d="m43.679688 208.070312 2.859374-1.652343v3.304687zm0 0"/><path d="m43.679688 257.605469 2.859374-1.652344v3.300781zm0 0"/><path d="m86.578125 282.371094 2.859375-1.652344v3.304688zm0 0"/><path d="m89.4375 284.023438 2.859375-1.652344v3.300781zm0 0"/><path d="m132.335938 308.789062 2.859374-1.652343v3.304687zm0 0"/><path d="m135.195312 310.441406 2.859376-1.652344v3.304688zm0 0"/><path d="m178.09375 335.207031 2.859375-1.648437v3.300781zm0 0"/><path d="m220.992188 310.441406 2.859374-1.652344v3.304688zm0 0"/><path d="m223.851562 308.789062 2.859376-1.652343v3.304687zm0 0"/><path d="m266.75 284.023438 2.859375-1.652344v3.300781zm0 0"/><path d="m269.609375 282.371094 2.859375-1.652344v3.304688zm0 0"/><path d="m315.367188 255.953125 2.859374-1.652344v3.304688zm0 0"/><path d="m315.367188 252.652344 2.859374-1.652344v3.300781zm0 0"/><path d="m315.367188 213.023438 2.859374-1.652344v3.304687zm0 0"/><path d="m315.367188 209.722656 2.859374-1.652344v3.300782zm0 0"/><path d="m315.367188 203.117188 2.859374-1.652344v3.300781zm0 0"/><path d="m315.367188 199.8125 2.859374-1.648438v3.300782zm0 0"/><path d="m315.367188 160.1875 2.859374-1.652344v3.300782zm0 0"/><path d="m315.367188 156.882812 2.859374-1.648437v3.300781zm0 0"/><path d="m315.367188 150.277344 2.859374-1.648438v3.300782zm0 0"/><path d="m315.367188 146.976562 2.859374-1.652343v3.304687zm0 0"/><path d="m315.367188 107.347656 2.859374-1.648437v3.300781zm0 0"/><path d="m315.367188 104.046875 2.859374-1.652344v3.304688zm0 0"/><path d="m312.507812 99.09375 2.859376-1.652344v3.304688zm0 0"/><path d="m309.648438 97.441406 2.859374-1.648437v3.300781zm0 0"/><path d="m275.328125 77.628906 2.859375-1.652344v3.304688zm0 0"/><path d="m272.46875 75.976562 2.859375-1.648437v3.300781zm0 0"/><path d="m266.75 72.675781 2.859375-1.652343v3.304687zm0 0"/><path d="m263.890625 71.023438 2.859375-1.652344v3.304687zm0 0"/><path d="m229.570312 51.210938 2.859376-1.652344v3.304687zm0 0"/><path d="m226.710938 49.558594 2.859374-1.652344v3.304688zm0 0"/><path d="m220.992188 46.257812 2.859374-1.652343v3.300781zm0 0"/><path d="m218.132812 44.605469 2.859376-1.652344v3.304687zm0 0"/><path d="m183.8125 24.792969 2.859375-1.652344v3.300781zm0 0"/><path d="m180.953125 23.140625 2.859375-1.652344v3.304688zm0 0"/><path d="m175.234375 23.140625 2.859375-1.652344v3.304688zm0 0"/><path d="m172.375 24.792969 2.859375-1.652344v3.300781zm0 0"/><path d="m138.054688 44.605469 2.859374-1.652344v3.304687zm0 0"/><path d="m135.195312 46.257812 2.859376-1.652343v3.300781zm0 0"/><path d="m129.476562 49.558594 2.859376-1.652344v3.304688zm0 0"/><path d="m126.617188 51.210938 2.859374-1.652344v3.304687zm0 0"/><path d="m92.296875 71.023438 2.859375-1.652344v3.304687zm0 0"/><path d="m89.4375 72.675781 2.859375-1.652343v3.304687zm0 0"/><path d="m83.71875 75.976562 2.859375-1.648437v3.300781zm0 0"/><path d="m80.859375 77.628906 2.859375-1.652344v3.304688zm0 0"/><path d="m46.539062 97.441406 2.859376-1.648437v3.300781zm0 0"/><path d="m43.679688 99.09375 2.859374-1.652344v3.304688zm0 0"/><path d="m40.820312 104.046875 2.859376-1.652344v3.304688zm0 0"/><path d="m40.820312 107.347656 2.859376-1.648437v3.300781zm0 0"/><path d="m40.820312 146.976562 2.859376-1.652343v3.304687zm0 0"/><path d="m40.820312 150.277344 2.859376-1.648438v3.300782zm0 0"/><path d="m40.820312 156.882812 2.859376-1.648437v3.300781zm0 0"/><path d="m40.820312 160.1875 2.859376-1.652344v3.300782zm0 0"/><path d="m40.820312 199.8125 2.859376-1.648438v3.300782zm0 0"/><path d="m40.820312 203.117188 2.859376-1.652344v3.300781zm0 0"/><path d="m40.820312 209.722656 2.859376-1.652344v3.300782zm0 0"/><path d="m40.820312 213.023438 2.859376-1.652344v3.304687zm0 0"/><path d="m40.820312 252.652344 2.859376-1.652344v3.300781zm0 0"/><path d="m40.820312 255.953125 2.859376-1.652344v3.304688zm0 0"/><path d="m43.679688 260.90625 2.859374-1.652344v3.304688zm0 0"/><path d="m46.539062 262.558594 2.859376-1.652344v3.300781zm0 0"/><path d="m80.859375 282.371094 2.859375-1.652344v3.304688zm0 0"/><path d="m83.71875 284.023438 2.859375-1.652344v3.300781zm0 0"/><path d="m89.4375 287.324219 2.859375-1.652344v3.304687zm0 0"/><path d="m92.296875 288.976562 2.859375-1.652343v3.304687zm0 0"/><path d="m126.617188 308.789062 2.859374-1.652343v3.304687zm0 0"/><path d="m129.476562 310.441406 2.859376-1.652344v3.304688zm0 0"/><path d="m135.195312 313.742188 2.859376-1.648438v3.300781zm0 0"/><path d="m138.054688 315.394531 2.859374-1.652343v3.304687zm0 0"/><path d="m172.375 335.207031 2.859375-1.648437v3.300781zm0 0"/><path d="m175.234375 336.859375 2.859375-1.652344v3.304688zm0 0"/><path d="m180.953125 336.859375 2.859375-1.652344v3.304688zm0 0"/><path d="m183.8125 335.207031 2.859375-1.648437v3.300781zm0 0"/><path d="m218.132812 315.394531 2.859376-1.652343v3.304687zm0 0"/><path d="m220.992188 313.742188 2.859374-1.648438v3.300781zm0 0"/><path d="m226.710938 310.441406 2.859374-1.652344v3.304688zm0 0"/><path d="m229.570312 308.789062 2.859376-1.652343v3.304687zm0 0"/><path d="m263.890625 288.976562 2.859375-1.652343v3.304687zm0 0"/><path d="m266.75 287.324219 2.859375-1.652344v3.304687zm0 0"/><path d="m272.46875 284.023438 2.859375-1.652344v3.300781zm0 0"/><path d="m275.328125 282.371094 2.859375-1.652344v3.304688zm0 0"/><path d="m309.648438 262.558594 2.859374-1.652344v3.300781zm0 0"/><path d="m312.507812 260.90625 2.859376-1.652344v3.304688zm0 0"/><path d="m318.226562 260.90625 2.859376-1.652344v3.304688zm0 0"/><path d="m318.226562 257.605469 2.859376-1.652344v3.300781zm0 0"/><path d="m318.226562 208.070312 2.859376-1.652343v3.304687zm0 0"/><path d="m318.226562 204.765625 2.859376-1.648437v3.300781zm0 0"/><path d="m318.226562 155.234375 2.859376-1.652344v3.300781zm0 0"/><path d="m318.226562 151.929688 2.859376-1.652344v3.304687zm0 0"/><path d="m318.226562 102.394531 2.859376-1.648437v3.300781zm0 0"/><path d="m318.226562 99.09375 2.859376-1.652344v3.304688zm0 0"/><path d="m315.367188 97.441406 2.859374-1.648437v3.300781zm0 0"/><path d="m272.46875 72.675781 2.859375-1.652343v3.304687zm0 0"/><path d="m269.609375 71.023438 2.859375-1.652344v3.304687zm0 0"/><path d="m226.710938 46.257812 2.859374-1.652343v3.300781zm0 0"/><path d="m223.851562 44.605469 2.859376-1.652344v3.304687zm0 0"/><path d="m180.953125 19.839844 2.859375-1.652344v3.300781zm0 0"/><path d="m178.09375 18.1875 2.859375-1.652344v3.304688zm0 0"/><path d="m175.234375 19.839844 2.859375-1.652344v3.300781zm0 0"/><path d="m132.335938 44.605469 2.859374-1.652344v3.304687zm0 0"/><path d="m129.476562 46.257812 2.859376-1.652343v3.300781zm0 0"/><path d="m86.578125 71.023438 2.859375-1.652344v3.304687zm0 0"/><path d="m83.71875 72.675781 2.859375-1.652343v3.304687zm0 0"/><path d="m40.820312 97.441406 2.859376-1.648437v3.300781zm0 0"/><path d="m37.960938 99.09375 2.859374-1.652344v3.304688zm0 0"/><path d="m37.960938 102.394531 2.859374-1.648437v3.300781zm0 0"/><path d="m37.960938 151.929688 2.859374-1.652344v3.304687zm0 0"/><path d="m37.960938 155.234375 2.859374-1.652344v3.300781zm0 0"/><path d="m37.960938 204.765625 2.859374-1.648437v3.300781zm0 0"/><path d="m37.960938 208.070312 2.859374-1.652343v3.304687zm0 0"/><path d="m37.960938 257.605469 2.859374-1.652344v3.300781zm0 0"/><path d="m37.960938 260.90625 2.859374-1.652344v3.304688zm0 0"/><path d="m40.820312 262.558594 2.859376-1.652344v3.300781zm0 0"/><path d="m83.71875 287.324219 2.859375-1.652344v3.304687zm0 0"/><path d="m86.578125 288.976562 2.859375-1.652343v3.304687zm0 0"/><path d="m129.476562 313.742188 2.859376-1.648438v3.300781zm0 0"/><path d="m132.335938 315.394531 2.859374-1.652343v3.304687zm0 0"/><path d="m175.234375 340.160156 2.859375-1.648437v3.300781zm0 0"/><path d="m178.09375 341.8125 2.859375-1.652344v3.304688zm0 0"/><path d="m180.953125 340.160156 2.859375-1.648437v3.300781zm0 0"/><path d="m223.851562 315.394531 2.859376-1.652343v3.304687zm0 0"/><path d="m226.710938 313.742188 2.859374-1.648438v3.300781zm0 0"/><path d="m269.609375 288.976562 2.859375-1.652343v3.304687zm0 0"/><path d="m272.46875 287.324219 2.859375-1.652344v3.304687zm0 0"/><path d="m315.367188 262.558594 2.859374-1.652344v3.300781zm0 0"/><path d="m321.085938 262.558594 2.859374-1.652344v3.300781zm0 0"/><path d="m321.085938 255.953125 2.859374-1.652344v3.304688zm0 0"/><path d="m321.085938 209.722656 2.859374-1.652344v3.300782zm0 0"/><path d="m321.085938 203.117188 2.859374-1.652344v3.300781zm0 0"/><path d="m321.085938 156.882812 2.859374-1.648437v3.300781zm0 0"/><path d="m321.085938 150.277344 2.859374-1.648438v3.300782zm0 0"/><path d="m321.085938 104.046875 2.859374-1.652344v3.304688zm0 0"/><path d="m321.085938 97.441406 2.859374-1.648437v3.300781zm0 0"/><path d="m315.367188 94.140625 2.859374-1.652344v3.304688zm0 0"/><path d="m275.328125 71.023438 2.859375-1.652344v3.304687zm0 0"/><path d="m269.609375 67.722656 2.859375-1.652344v3.300782zm0 0"/><path d="m229.570312 44.605469 2.859376-1.652344v3.304687zm0 0"/><path d="m223.851562 41.304688 2.859376-1.652344v3.300781zm0 0"/><path d="m183.8125 18.1875 2.859375-1.652344v3.304688zm0 0"/><path d="m178.09375 14.886719 2.859375-1.652344v3.300781zm0 0"/><path d="m172.375 18.1875 2.859375-1.652344v3.304688zm0 0"/><path d="m132.335938 41.304688 2.859374-1.652344v3.300781zm0 0"/><path d="m126.617188 44.605469 2.859374-1.652344v3.304687zm0 0"/><path d="m86.578125 67.722656 2.859375-1.652344v3.300782zm0 0"/><path d="m80.859375 71.023438 2.859375-1.652344v3.304687zm0 0"/><path d="m40.820312 94.140625 2.859376-1.652344v3.304688zm0 0"/><path d="m35.097656 97.441406 2.863282-1.648437v3.300781zm0 0"/><path d="m35.097656 104.046875 2.863282-1.652344v3.304688zm0 0"/><path d="m35.097656 150.277344 2.863282-1.648438v3.300782zm0 0"/><path d="m35.097656 156.882812 2.863282-1.648437v3.300781zm0 0"/><path d="m35.097656 203.117188 2.863282-1.652344v3.300781zm0 0"/><path d="m35.097656 209.722656 2.863282-1.652344v3.300782zm0 0"/><path d="m35.097656 255.953125 2.863282-1.652344v3.304688zm0 0"/><path d="m35.097656 262.558594 2.863282-1.652344v3.300781zm0 0"/><path d="m40.820312 265.859375 2.859376-1.652344v3.304688zm0 0"/><path d="m80.859375 288.976562 2.859375-1.652343v3.304687zm0 0"/><path d="m86.578125 292.277344 2.859375-1.648438v3.300782zm0 0"/><path d="m126.617188 315.394531 2.859374-1.652343v3.304687zm0 0"/><path d="m132.335938 318.695312 2.859374-1.648437v3.300781zm0 0"/><path d="m172.375 341.8125 2.859375-1.652344v3.304688zm0 0"/><path d="m178.09375 345.113281 2.859375-1.648437v3.300781zm0 0"/><path d="m183.8125 341.8125 2.859375-1.652344v3.304688zm0 0"/><path d="m223.851562 318.695312 2.859376-1.648437v3.300781zm0 0"/><path d="m229.570312 315.394531 2.859376-1.652343v3.304687zm0 0"/><path d="m269.609375 292.277344 2.859375-1.648438v3.300782zm0 0"/><path d="m275.328125 288.976562 2.859375-1.652343v3.304687zm0 0"/><path d="m315.367188 265.859375 2.859374-1.652344v3.304688zm0 0"/></g></svg>