<svg height="360pt" viewBox="0 0 360 360" width="360pt" xmlns="http://www.w3.org/2000/svg"><path d="m0 0h360v360h-360z" fill="#800080"/><g fill="#fff"><path d="m171.003906 180 13.496094-7.792969v15.585938zm0 0"/><path d="m171.003906 195.585938 13.496094-7.792969v15.585937zm0 0"/><path d="m197.996094 180 13.496094-7.792969v15.585938zm0 0"/><path d="m197.996094 164.414062 13.496094-7.792968v15.585937zm0 0"/><path d="m184.5 156.621094 13.496094-7.789063v15.582031zm0 0"/><path d="m144.007812 164.414062 13.496094-7.792968v15.585937zm0 0"/><path d="m144.007812 180 13.496094-7.792969v15.585938zm0 0"/><path d="m157.503906 203.378906 13.5-7.792968v15.582031zm0 0"/><path d="m211.492188 187.792969 13.496093-7.792969v15.585938zm0 0"/><path d="m211.492188 172.207031 13.496093-7.792969v15.585938zm0 0"/><path d="m171.003906 133.246094 13.496094-7.792969v15.585937zm0 0"/><path d="m157.503906 141.039062 13.5-7.792968v15.585937zm0 0"/><path d="m144.007812 148.832031 13.496094-7.792969v15.582032zm0 0"/><path d="m157.503906 218.960938 13.5-7.792969v15.585937zm0 0"/><path d="m197.996094 211.167969 13.496094-7.789063v15.582032zm0 0"/><path d="m171.003906 117.660156 13.496094-7.792968v15.585937zm0 0"/><path d="m157.503906 125.453125 13.5-7.792969v15.585938zm0 0"/><path d="m144.007812 133.246094 13.496094-7.792969v15.585937zm0 0"/><path d="m117.015625 195.585938 13.496094-7.792969v15.585937zm0 0"/><path d="m117.015625 211.167969 13.496094-7.789063v15.582032zm0 0"/><path d="m157.503906 234.546875 13.5-7.792969v15.585938zm0 0"/><path d="m171.003906 242.339844 13.496094-7.792969v15.585937zm0 0"/><path d="m144.007812 117.660156 13.496094-7.792968v15.585937zm0 0"/><path d="m130.511719 250.132812 13.496093-7.792968v15.582031zm0 0"/><path d="m144.007812 257.921875 13.496094-7.789063v15.582032zm0 0"/><path d="m130.511719 265.714844 13.496093-7.792969v15.585937zm0 0"/><path d="m184.5 187.792969-13.496094-7.792969v15.585938zm0 0"/><path d="m211.492188 187.792969-13.496094-7.792969v15.585938zm0 0"/><path d="m211.492188 172.207031-13.496094-7.792969v15.585938zm0 0"/><path d="m197.996094 164.414062-13.496094-7.792968v15.585937zm0 0"/><path d="m171.003906 164.414062-13.5-7.792968v15.585937zm0 0"/><path d="m171.003906 195.585938-13.5-7.792969v15.585937zm0 0"/><path d="m211.492188 156.621094-13.496094-7.789063v15.582031zm0 0"/><path d="m197.996094 148.832031-13.496094-7.792969v15.582032zm0 0"/><path d="m184.5 141.039062-13.496094-7.792968v15.585937zm0 0"/><path d="m157.503906 187.792969-13.496094-7.792969v15.585938zm0 0"/><path d="m184.5 218.960938-13.496094-7.792969v15.585937zm0 0"/><path d="m197.996094 211.167969-13.496094-7.789063v15.582032zm0 0"/><path d="m211.492188 141.039062-13.496094-7.792968v15.585937zm0 0"/><path d="m197.996094 133.246094-13.496094-7.792969v15.585937zm0 0"/><path d="m184.5 125.453125-13.496094-7.792969v15.585938zm0 0"/><path d="m144.007812 211.167969-13.496093-7.789063v15.582032zm0 0"/><path d="m171.003906 117.660156-13.5-7.792968v15.585937zm0 0"/><path d="m171.003906 242.339844-13.5-7.792969v15.585937zm0 0"/><path d="m157.503906 250.132812-13.496094-7.792968v15.582031zm0 0"/></g></svg>