<svg height="360pt" viewBox="0 0 360 360" width="360pt" xmlns="http://www.w3.org/2000/svg"><path d="m0 0h360v360h-360z" fill="#800080"/><g fill="#fff"><path d="m176.59375 180 5.109375-2.949219v5.898438zm0 0"/><path d="m181.703125 182.949219 5.109375-2.949219v5.898438zm0 0"/><path d="m181.703125 177.050781 5.109375-2.949219v5.898438zm0 0"/><path d="m186.8125 174.101562 5.109375-2.949218v5.898437zm0 0"/><path d="m166.378906 174.101562 5.105469-2.949218v5.898437zm0 0"/><path d="m166.378906 185.898438 5.105469-2.949219v5.898437zm0 0"/><path d="m171.484375 188.847656 5.109375-2.949218v5.898437zm0 0"/><path d="m176.59375 191.796875 5.109375-2.949219v5.898438zm0 0"/><path d="m191.921875 182.949219 5.105469-2.949219v5.898438zm0 0"/><path d="m191.921875 177.050781 5.105469-2.949219v5.898438zm0 0"/><path d="m191.921875 171.152344 5.105469-2.949219v5.898437zm0 0"/><path d="m181.703125 165.253906 5.109375-2.949218v5.898437zm0 0"/><path d="m176.59375 162.304688 5.109375-2.949219v5.898437zm0 0"/><path d="m166.378906 168.203125 5.105469-2.949219v5.898438zm0 0"/><path d="m161.269531 171.152344 5.109375-2.949219v5.898437zm0 0"/><path d="m161.269531 182.949219 5.109375-2.949219v5.898438zm0 0"/><path d="m171.484375 194.746094 5.109375-2.949219v5.898437zm0 0"/><path d="m176.59375 197.695312 5.109375-2.949218v5.898437zm0 0"/><path d="m197.027344 180 5.109375-2.949219v5.898438zm0 0"/><path d="m197.027344 174.101562 5.109375-2.949218v5.898437zm0 0"/><path d="m197.027344 168.203125 5.109375-2.949219v5.898438zm0 0"/><path d="m191.921875 165.253906 5.105469-2.949218v5.898437zm0 0"/><path d="m186.8125 162.304688 5.109375-2.949219v5.898437zm0 0"/><path d="m181.703125 159.355469 5.109375-2.949219v5.898438zm0 0"/><path d="m166.378906 162.304688 5.105469-2.949219v5.898437zm0 0"/><path d="m156.160156 168.203125 5.109375-2.949219v5.898438zm0 0"/><path d="m156.160156 174.101562 5.109375-2.949218v5.898437zm0 0"/><path d="m156.160156 191.796875 5.109375-2.949219v5.898438zm0 0"/><path d="m181.703125 200.644531 5.109375-2.949219v5.898438zm0 0"/><path d="m186.8125 197.695312 5.109375-2.949218v5.898437zm0 0"/><path d="m191.921875 194.746094 5.105469-2.949219v5.898437zm0 0"/><path d="m202.136719 165.253906 5.109375-2.949218v5.898437zm0 0"/><path d="m197.027344 162.304688 5.109375-2.949219v5.898437zm0 0"/><path d="m191.921875 159.355469 5.105469-2.949219v5.898438zm0 0"/><path d="m186.8125 156.40625 5.109375-2.953125v5.902344zm0 0"/><path d="m171.484375 153.453125 5.109375-2.949219v5.902344zm0 0"/><path d="m166.378906 156.40625 5.105469-2.953125v5.902344zm0 0"/><path d="m156.160156 162.304688 5.109375-2.949219v5.898437zm0 0"/><path d="m151.050781 177.050781 5.109375-2.949219v5.898438zm0 0"/><path d="m151.050781 194.746094 5.109375-2.949219v5.898437zm0 0"/><path d="m156.160156 197.695312 5.109375-2.949218v5.898437zm0 0"/><path d="m186.8125 203.59375 5.109375-2.949219v5.902344zm0 0"/><path d="m197.027344 197.695312 5.109375-2.949218v5.898437zm0 0"/><path d="m207.246094 185.898438 5.109375-2.949219v5.898437zm0 0"/><path d="m207.246094 180 5.109375-2.949219v5.898438zm0 0"/><path d="m207.246094 174.101562 5.109375-2.949218v5.898437zm0 0"/><path d="m207.246094 168.203125 5.109375-2.949219v5.898438zm0 0"/><path d="m197.027344 156.40625 5.109375-2.953125v5.902344zm0 0"/><path d="m191.921875 153.453125 5.105469-2.949219v5.902344zm0 0"/><path d="m186.8125 150.503906 5.109375-2.949218v5.898437zm0 0"/><path d="m171.484375 147.554688 5.109375-2.949219v5.898437zm0 0"/><path d="m151.050781 159.355469 5.109375-2.949219v5.898438zm0 0"/><path d="m145.941406 162.304688 5.109375-2.949219v5.898437zm0 0"/><path d="m145.941406 168.203125 5.109375-2.949219v5.898438zm0 0"/><path d="m145.941406 180 5.109375-2.949219v5.898438zm0 0"/><path d="m145.941406 185.898438 5.109375-2.949219v5.898437zm0 0"/><path d="m145.941406 191.796875 5.109375-2.949219v5.898438zm0 0"/><path d="m145.941406 197.695312 5.109375-2.949218v5.898437zm0 0"/><path d="m151.050781 200.644531 5.109375-2.949219v5.898438zm0 0"/><path d="m156.160156 203.59375 5.109375-2.949219v5.902344zm0 0"/><path d="m161.269531 206.546875 5.109375-2.953125v5.902344zm0 0"/><path d="m181.703125 212.445312 5.109375-2.949218v5.898437zm0 0"/><path d="m202.136719 200.644531 5.109375-2.949219v5.898438zm0 0"/><path d="m212.355469 194.746094 5.109375-2.949219v5.898437zm0 0"/><path d="m212.355469 188.847656 5.109375-2.949218v5.898437zm0 0"/><path d="m212.355469 177.050781 5.109375-2.949219v5.898438zm0 0"/><path d="m207.246094 156.40625 5.109375-2.953125v5.902344zm0 0"/><path d="m186.8125 144.605469 5.109375-2.949219v5.898438zm0 0"/><path d="m181.703125 141.65625 5.109375-2.949219v5.898438zm0 0"/><path d="m176.59375 138.707031 5.109375-2.949219v5.898438zm0 0"/><path d="m156.160156 150.503906 5.109375-2.949218v5.898437zm0 0"/><path d="m140.835938 165.253906 5.105468-2.949218v5.898437zm0 0"/><path d="m140.835938 171.152344 5.105468-2.949219v5.898437zm0 0"/><path d="m140.835938 182.949219 5.105468-2.949219v5.898438zm0 0"/><path d="m140.835938 188.847656 5.105468-2.949218v5.898437zm0 0"/><path d="m145.941406 203.59375 5.109375-2.949219v5.902344zm0 0"/><path d="m151.050781 206.546875 5.109375-2.953125v5.902344zm0 0"/><path d="m156.160156 209.496094 5.109375-2.949219v5.898437zm0 0"/><path d="m166.378906 215.394531 5.105469-2.949219v5.898438zm0 0"/><path d="m171.484375 218.34375 5.109375-2.949219v5.898438zm0 0"/><path d="m176.59375 221.292969 5.109375-2.949219v5.898438zm0 0"/><path d="m191.921875 212.445312 5.105469-2.949218v5.898437zm0 0"/><path d="m202.136719 206.546875 5.109375-2.953125v5.902344zm0 0"/><path d="m207.246094 203.59375 5.109375-2.949219v5.902344zm0 0"/><path d="m217.464844 185.898438 5.105468-2.949219v5.898437zm0 0"/><path d="m217.464844 180 5.105468-2.949219v5.898438zm0 0"/><path d="m217.464844 174.101562 5.105468-2.949218v5.898437zm0 0"/><path d="m217.464844 156.40625 5.105468-2.953125v5.902344zm0 0"/><path d="m207.246094 150.503906 5.109375-2.949218v5.898437zm0 0"/><path d="m202.136719 147.554688 5.109375-2.949219v5.898437zm0 0"/><path d="m191.921875 141.65625 5.105469-2.949219v5.898438zm0 0"/><path d="m186.8125 138.707031 5.109375-2.949219v5.898438zm0 0"/><path d="m166.378906 138.707031 5.105469-2.949219v5.898438zm0 0"/><path d="m156.160156 144.605469 5.109375-2.949219v5.898438zm0 0"/><path d="m151.050781 147.554688 5.109375-2.949219v5.898437zm0 0"/><path d="m145.941406 150.503906 5.109375-2.949218v5.898437zm0 0"/><path d="m135.726562 168.203125 5.109376-2.949219v5.898438zm0 0"/><path d="m135.726562 197.695312 5.109376-2.949218v5.898437zm0 0"/><path d="m140.835938 206.546875 5.105468-2.953125v5.902344zm0 0"/><path d="m145.941406 209.496094 5.109375-2.949219v5.898437zm0 0"/><path d="m151.050781 212.445312 5.109375-2.949218v5.898437zm0 0"/><path d="m156.160156 215.394531 5.109375-2.949219v5.898438zm0 0"/><path d="m166.378906 221.292969 5.105469-2.949219v5.898438zm0 0"/><path d="m176.59375 227.191406 5.109375-2.949218v5.898437zm0 0"/><path d="m186.8125 221.292969 5.109375-2.949219v5.898438zm0 0"/><path d="m207.246094 209.496094 5.109375-2.949219v5.898437zm0 0"/><path d="m222.570312 194.746094 5.109376-2.949219v5.898437zm0 0"/><path d="m222.570312 182.949219 5.109376-2.949219v5.898438zm0 0"/><path d="m222.570312 153.453125 5.109376-2.949219v5.902344zm0 0"/><path d="m207.246094 144.605469 5.109375-2.949219v5.898438zm0 0"/><path d="m197.027344 138.707031 5.109375-2.949219v5.898438zm0 0"/><path d="m191.921875 135.757812 5.105469-2.949218v5.898437zm0 0"/><path d="m186.8125 132.808594 5.109375-2.949219v5.898437zm0 0"/><path d="m181.703125 129.859375 5.109375-2.949219v5.898438zm0 0"/><path d="m161.269531 135.757812 5.109375-2.949218v5.898437zm0 0"/><path d="m156.160156 138.707031 5.109375-2.949219v5.898438zm0 0"/><path d="m145.941406 144.605469 5.109375-2.949219v5.898438zm0 0"/><path d="m135.726562 150.503906 5.109376-2.949218v5.898437zm0 0"/><path d="m130.617188 153.453125 5.109374-2.949219v5.902344zm0 0"/><path d="m130.617188 159.355469 5.109374-2.949219v5.898438zm0 0"/><path d="m130.617188 165.253906 5.109374-2.949218v5.898437zm0 0"/><path d="m130.617188 171.152344 5.109374-2.949219v5.898437zm0 0"/><path d="m130.617188 182.949219 5.109374-2.949219v5.898438zm0 0"/><path d="m130.617188 188.847656 5.109374-2.949218v5.898437zm0 0"/><path d="m130.617188 206.546875 5.109374-2.953125v5.902344zm0 0"/><path d="m140.835938 212.445312 5.105468-2.949218v5.898437zm0 0"/><path d="m145.941406 215.394531 5.109375-2.949219v5.898438zm0 0"/><path d="m151.050781 218.34375 5.109375-2.949219v5.898438zm0 0"/><path d="m161.269531 224.242188 5.109375-2.949219v5.898437zm0 0"/><path d="m166.378906 227.191406 5.105469-2.949218v5.898437zm0 0"/><path d="m181.703125 230.140625 5.109375-2.949219v5.898438zm0 0"/><path d="m186.8125 227.191406 5.109375-2.949218v5.898437zm0 0"/><path d="m202.136719 218.34375 5.109375-2.949219v5.898438zm0 0"/><path d="m227.679688 209.496094 5.109374-2.949219v5.898437zm0 0"/><path d="m227.679688 191.796875 5.109374-2.949219v5.898438zm0 0"/><path d="m227.679688 180 5.109374-2.949219v5.898438zm0 0"/><path d="m227.679688 174.101562 5.109374-2.949218v5.898437zm0 0"/><path d="m227.679688 168.203125 5.109374-2.949219v5.898438zm0 0"/><path d="m227.679688 150.503906 5.109374-2.949218v5.898437zm0 0"/><path d="m212.355469 141.65625 5.109375-2.949219v5.898438zm0 0"/><path d="m186.8125 126.910156 5.109375-2.949218v5.898437zm0 0"/><path d="m176.59375 121.011719 5.109375-2.949219v5.898438zm0 0"/><path d="m156.160156 132.808594 5.109375-2.949219v5.898437zm0 0"/><path d="m145.941406 138.707031 5.109375-2.949219v5.898438zm0 0"/><path d="m135.726562 144.605469 5.109376-2.949219v5.898438zm0 0"/><path d="m125.507812 168.203125 5.109376-2.949219v5.898438zm0 0"/><path d="m125.507812 174.101562 5.109376-2.949218v5.898437zm0 0"/><path d="m125.507812 180 5.109376-2.949219v5.898438zm0 0"/><path d="m125.507812 197.695312 5.109376-2.949218v5.898437zm0 0"/><path d="m130.617188 212.445312 5.109374-2.949218v5.898437zm0 0"/><path d="m135.726562 215.394531 5.109376-2.949219v5.898438zm0 0"/><path d="m151.050781 224.242188 5.109375-2.949219v5.898437zm0 0"/><path d="m161.269531 230.140625 5.109375-2.949219v5.898438zm0 0"/><path d="m186.8125 233.089844 5.109375-2.949219v5.898437zm0 0"/><path d="m191.921875 230.140625 5.105469-2.949219v5.898438zm0 0"/><path d="m202.136719 224.242188 5.109375-2.949219v5.898437zm0 0"/><path d="m212.355469 218.34375 5.109375-2.949219v5.898438zm0 0"/><path d="m232.789062 206.546875 5.109376-2.953125v5.902344zm0 0"/><path d="m232.789062 200.644531 5.109376-2.949219v5.898438zm0 0"/><path d="m232.789062 159.355469 5.109376-2.949219v5.898438zm0 0"/><path d="m232.789062 147.554688 5.109376-2.949219v5.898437zm0 0"/><path d="m222.570312 141.65625 5.109376-2.949219v5.898438zm0 0"/><path d="m217.464844 138.707031 5.105468-2.949219v5.898438zm0 0"/><path d="m212.355469 135.757812 5.109375-2.949218v5.898437zm0 0"/><path d="m202.136719 129.859375 5.109375-2.949219v5.898438zm0 0"/><path d="m191.921875 123.960938 5.105469-2.949219v5.898437zm0 0"/><path d="m186.8125 121.011719 5.109375-2.949219v5.898438zm0 0"/><path d="m171.484375 118.0625 5.109375-2.949219v5.898438zm0 0"/><path d="m140.835938 135.757812 5.105468-2.949218v5.898437zm0 0"/><path d="m135.726562 138.707031 5.109376-2.949219v5.898438zm0 0"/><path d="m130.617188 141.65625 5.109374-2.949219v5.898438zm0 0"/><path d="m125.507812 144.605469 5.109376-2.949219v5.898438zm0 0"/><path d="m120.398438 153.453125 5.109374-2.949219v5.902344zm0 0"/><path d="m120.398438 177.050781 5.109374-2.949219v5.898438zm0 0"/><path d="m120.398438 194.746094 5.109374-2.949219v5.898437zm0 0"/><path d="m120.398438 206.546875 5.109374-2.953125v5.902344zm0 0"/><path d="m130.617188 218.34375 5.109374-2.949219v5.898438zm0 0"/><path d="m135.726562 221.292969 5.109376-2.949219v5.898438zm0 0"/><path d="m161.269531 236.039062 5.109375-2.949218v5.898437zm0 0"/><path d="m166.378906 238.988281 5.105469-2.949219v5.898438zm0 0"/><path d="m176.59375 244.886719 5.109375-2.949219v5.898438zm0 0"/><path d="m181.703125 241.9375 5.109375-2.949219v5.898438zm0 0"/><path d="m186.8125 238.988281 5.109375-2.949219v5.898438zm0 0"/><path d="m212.355469 224.242188 5.109375-2.949219v5.898437zm0 0"/><path d="m227.679688 215.394531 5.109374-2.949219v5.898438zm0 0"/><path d="m237.898438 215.394531 5.109374-2.949219v5.898438zm0 0"/><path d="m237.898438 209.496094 5.109374-2.949219v5.898437zm0 0"/><path d="m237.898438 180 5.109374-2.949219v5.898438zm0 0"/><path d="m237.898438 174.101562 5.109374-2.949218v5.898437zm0 0"/><path d="m237.898438 168.203125 5.109374-2.949219v5.898438zm0 0"/><path d="m237.898438 162.304688 5.109374-2.949219v5.898437zm0 0"/><path d="m237.898438 156.40625 5.109374-2.953125v5.902344zm0 0"/><path d="m237.898438 150.503906 5.109374-2.949218v5.898437zm0 0"/><path d="m237.898438 144.605469 5.109374-2.949219v5.898438zm0 0"/><path d="m232.789062 141.65625 5.109376-2.949219v5.898438zm0 0"/><path d="m227.679688 138.707031 5.109374-2.949219v5.898438zm0 0"/><path d="m212.355469 129.859375 5.109375-2.949219v5.898438zm0 0"/><path d="m197.027344 121.011719 5.109375-2.949219v5.898438zm0 0"/><path d="m181.703125 112.164062 5.109375-2.949218v5.898437zm0 0"/><path d="m171.484375 112.164062 5.109375-2.949218v5.898437zm0 0"/><path d="m156.160156 121.011719 5.109375-2.949219v5.898438zm0 0"/><path d="m145.941406 126.910156 5.109375-2.949218v5.898437zm0 0"/><path d="m120.398438 141.65625 5.109374-2.949219v5.898438zm0 0"/><path d="m115.292969 144.605469 5.105469-2.949219v5.898438zm0 0"/><path d="m115.292969 156.40625 5.105469-2.953125v5.902344zm0 0"/><path d="m115.292969 180 5.105469-2.949219v5.898438zm0 0"/><path d="m115.292969 185.898438 5.105469-2.949219v5.898437zm0 0"/><path d="m115.292969 191.796875 5.105469-2.949219v5.898438zm0 0"/><path d="m115.292969 197.695312 5.105469-2.949218v5.898437zm0 0"/><path d="m115.292969 209.496094 5.105469-2.949219v5.898437zm0 0"/><path d="m130.617188 224.242188 5.109374-2.949219v5.898437zm0 0"/><path d="m151.050781 236.039062 5.109375-2.949218v5.898437zm0 0"/><path d="m161.269531 241.9375 5.109375-2.949219v5.898438zm0 0"/><path d="m166.378906 244.886719 5.105469-2.949219v5.898438zm0 0"/><path d="m171.484375 247.835938 5.109375-2.949219v5.898437zm0 0"/><path d="m176.59375 250.785156 5.109375-2.949218v5.898437zm0 0"/><path d="m181.703125 247.835938 5.109375-2.949219v5.898437zm0 0"/><path d="m186.8125 244.886719 5.109375-2.949219v5.898438zm0 0"/><path d="m191.921875 241.9375 5.105469-2.949219v5.898438zm0 0"/><path d="m227.679688 221.292969 5.109374-2.949219v5.898438zm0 0"/><path d="m243.007812 212.445312 5.105469-2.949218v5.898437zm0 0"/><path d="m243.007812 194.746094 5.105469-2.949219v5.898437zm0 0"/><path d="m243.007812 188.847656 5.105469-2.949218v5.898437zm0 0"/><path d="m243.007812 182.949219 5.105469-2.949219v5.898438zm0 0"/><path d="m243.007812 177.050781 5.105469-2.949219v5.898438zm0 0"/><path d="m243.007812 165.253906 5.105469-2.949218v5.898437zm0 0"/><path d="m243.007812 153.453125 5.105469-2.949219v5.902344zm0 0"/><path d="m243.007812 147.554688 5.105469-2.949219v5.898437zm0 0"/><path d="m243.007812 141.65625 5.105469-2.949219v5.898438zm0 0"/><path d="m237.898438 138.707031 5.109374-2.949219v5.898438zm0 0"/><path d="m222.570312 129.859375 5.109376-2.949219v5.898438zm0 0"/><path d="m217.464844 126.910156 5.105468-2.949218v5.898437zm0 0"/><path d="m212.355469 123.960938 5.109375-2.949219v5.898437zm0 0"/><path d="m202.136719 118.0625 5.109375-2.949219v5.898438zm0 0"/><path d="m197.027344 115.113281 5.109375-2.949219v5.898438zm0 0"/><path d="m156.160156 115.113281 5.109375-2.949219v5.898438zm0 0"/><path d="m151.050781 118.0625 5.109375-2.949219v5.898438zm0 0"/><path d="m140.835938 123.960938 5.105468-2.949219v5.898437zm0 0"/><path d="m110.183594 141.65625 5.109375-2.949219v5.898438zm0 0"/><path d="m110.183594 171.152344 5.109375-2.949219v5.898437zm0 0"/><path d="m110.183594 182.949219 5.109375-2.949219v5.898438zm0 0"/><path d="m110.183594 194.746094 5.109375-2.949219v5.898437zm0 0"/><path d="m110.183594 206.546875 5.109375-2.953125v5.902344zm0 0"/><path d="m125.507812 227.191406 5.109376-2.949218v5.898437zm0 0"/><path d="m140.835938 236.039062 5.105468-2.949218v5.898437zm0 0"/><path d="m145.941406 238.988281 5.109375-2.949219v5.898438zm0 0"/><path d="m156.160156 244.886719 5.109375-2.949219v5.898438zm0 0"/><path d="m161.269531 247.835938 5.109375-2.949219v5.898437zm0 0"/><path d="m171.484375 253.734375 5.109375-2.949219v5.902344zm0 0"/><path d="m181.703125 253.734375 5.109375-2.949219v5.902344zm0 0"/><path d="m191.921875 247.835938 5.105469-2.949219v5.898437zm0 0"/><path d="m197.027344 244.886719 5.109375-2.949219v5.898438zm0 0"/><path d="m217.464844 233.089844 5.105468-2.949219v5.898437zm0 0"/><path d="m222.570312 230.140625 5.109376-2.949219v5.898438zm0 0"/><path d="m232.789062 224.242188 5.109376-2.949219v5.898437zm0 0"/><path d="m237.898438 221.292969 5.109374-2.949219v5.898438zm0 0"/><path d="m248.113281 209.496094 5.109375-2.949219v5.898437zm0 0"/><path d="m248.113281 180 5.109375-2.949219v5.898438zm0 0"/><path d="m248.113281 174.101562 5.109375-2.949218v5.898437zm0 0"/><path d="m248.113281 168.203125 5.109375-2.949219v5.898438zm0 0"/><path d="m248.113281 162.304688 5.109375-2.949219v5.898437zm0 0"/><path d="m248.113281 138.707031 5.109375-2.949219v5.898438zm0 0"/><path d="m243.007812 135.757812 5.105469-2.949218v5.898437zm0 0"/><path d="m237.898438 132.808594 5.109374-2.949219v5.898437zm0 0"/><path d="m232.789062 129.859375 5.109376-2.949219v5.898438zm0 0"/><path d="m217.464844 121.011719 5.105468-2.949219v5.898438zm0 0"/><path d="m212.355469 118.0625 5.109375-2.949219v5.898438zm0 0"/><path d="m181.703125 100.363281 5.109375-2.949219v5.898438zm0 0"/><path d="m176.59375 97.414062 5.109375-2.949218v5.898437zm0 0"/><path d="m171.484375 100.363281 5.109375-2.949219v5.898438zm0 0"/><path d="m166.378906 103.3125 5.105469-2.949219v5.902344zm0 0"/><path d="m140.835938 118.0625 5.105468-2.949219v5.898438zm0 0"/><path d="m135.726562 121.011719 5.109376-2.949219v5.898438zm0 0"/><path d="m115.292969 132.808594 5.105469-2.949219v5.898437zm0 0"/><path d="m110.183594 135.757812 5.109375-2.949218v5.898437zm0 0"/><path d="m105.074219 150.503906 5.109375-2.949218v5.898437zm0 0"/><path d="m105.074219 156.40625 5.109375-2.953125v5.902344zm0 0"/><path d="m105.074219 162.304688 5.109375-2.949219v5.898437zm0 0"/><path d="m105.074219 174.101562 5.109375-2.949218v5.898437zm0 0"/><path d="m105.074219 185.898438 5.109375-2.949219v5.898437zm0 0"/><path d="m105.074219 191.796875 5.109375-2.949219v5.898438zm0 0"/><path d="m105.074219 203.59375 5.109375-2.949219v5.902344zm0 0"/><path d="m120.398438 230.140625 5.109374-2.949219v5.898438zm0 0"/><path d="m140.835938 241.9375 5.105468-2.949219v5.898438zm0 0"/><path d="m151.050781 247.835938 5.109375-2.949219v5.898437zm0 0"/><path d="m156.160156 250.785156 5.109375-2.949218v5.898437zm0 0"/><path d="m171.484375 259.636719 5.109375-2.949219v5.898438zm0 0"/><path d="m191.921875 253.734375 5.105469-2.949219v5.902344zm0 0"/><path d="m197.027344 250.785156 5.109375-2.949218v5.898437zm0 0"/><path d="m217.464844 238.988281 5.105468-2.949219v5.898438zm0 0"/><path d="m232.789062 230.140625 5.109376-2.949219v5.898438zm0 0"/><path d="m253.222656 224.242188 5.109375-2.949219v5.898437zm0 0"/><path d="m253.222656 212.445312 5.109375-2.949218v5.898437zm0 0"/><path d="m253.222656 171.152344 5.109375-2.949219v5.898437zm0 0"/><path d="m253.222656 165.253906 5.109375-2.949218v5.898437zm0 0"/><path d="m253.222656 159.355469 5.109375-2.949219v5.898438zm0 0"/><path d="m253.222656 141.65625 5.109375-2.949219v5.898438zm0 0"/><path d="m212.355469 112.164062 5.109375-2.949218v5.898437zm0 0"/><path d="m207.246094 109.214844 5.109375-2.949219v5.898437zm0 0"/><path d="m202.136719 106.265625 5.109375-2.953125v5.902344zm0 0"/><path d="m171.484375 94.464844 5.109375-2.949219v5.898437zm0 0"/><path d="m161.269531 100.363281 5.109375-2.949219v5.898438zm0 0"/><path d="m145.941406 109.214844 5.109375-2.949219v5.898437zm0 0"/><path d="m125.507812 121.011719 5.109376-2.949219v5.898438zm0 0"/><path d="m120.398438 123.960938 5.109374-2.949219v5.898437zm0 0"/><path d="m110.183594 129.859375 5.109375-2.949219v5.898438zm0 0"/><path d="m99.964844 135.757812 5.109375-2.949218v5.898437zm0 0"/><path d="m99.964844 141.65625 5.109375-2.949219v5.898438zm0 0"/><path d="m99.964844 147.554688 5.109375-2.949219v5.898437zm0 0"/><path d="m99.964844 153.453125 5.109375-2.949219v5.902344zm0 0"/><path d="m99.964844 159.355469 5.109375-2.949219v5.898438zm0 0"/><path d="m99.964844 177.050781 5.109375-2.949219v5.898438zm0 0"/><path d="m99.964844 206.546875 5.109375-2.953125v5.902344zm0 0"/><path d="m99.964844 212.445312 5.109375-2.949218v5.898437zm0 0"/><path d="m99.964844 218.34375 5.109375-2.949219v5.898438zm0 0"/><path d="m110.183594 230.140625 5.109375-2.949219v5.898438zm0 0"/><path d="m120.398438 236.039062 5.109374-2.949218v5.898437zm0 0"/><path d="m130.617188 241.9375 5.109374-2.949219v5.898438zm0 0"/><path d="m135.726562 244.886719 5.109376-2.949219v5.898438zm0 0"/><path d="m140.835938 247.835938 5.105468-2.949219v5.898437zm0 0"/><path d="m166.378906 262.585938 5.105469-2.949219v5.898437zm0 0"/><path d="m171.484375 265.535156 5.109375-2.949218v5.898437zm0 0"/><path d="m186.8125 262.585938 5.109375-2.949219v5.898437zm0 0"/><path d="m197.027344 256.6875 5.109375-2.953125v5.902344zm0 0"/><path d="m202.136719 253.734375 5.109375-2.949219v5.902344zm0 0"/><path d="m207.246094 250.785156 5.109375-2.949218v5.898437zm0 0"/><path d="m222.570312 241.9375 5.109376-2.949219v5.898438zm0 0"/><path d="m227.679688 238.988281 5.109374-2.949219v5.898438zm0 0"/><path d="m232.789062 236.039062 5.109376-2.949218v5.898437zm0 0"/><path d="m237.898438 233.089844 5.109374-2.949219v5.898437zm0 0"/><path d="m258.332031 227.191406 5.109375-2.949218v5.898437zm0 0"/><path d="m258.332031 209.496094 5.109375-2.949219v5.898437zm0 0"/><path d="m258.332031 185.898438 5.109375-2.949219v5.898437zm0 0"/><path d="m258.332031 174.101562 5.109375-2.949218v5.898437zm0 0"/><path d="m258.332031 150.503906 5.109375-2.949218v5.898437zm0 0"/><path d="m258.332031 132.808594 5.109375-2.949219v5.898437zm0 0"/><path d="m248.113281 126.910156 5.109375-2.949218v5.898437zm0 0"/><path d="m227.679688 115.113281 5.109374-2.949219v5.898438zm0 0"/><path d="m222.570312 112.164062 5.109376-2.949218v5.898437zm0 0"/><path d="m217.464844 109.214844 5.105468-2.949219v5.898437zm0 0"/><path d="m176.59375 85.617188 5.109375-2.949219v5.898437zm0 0"/><path d="m166.378906 91.515625 5.105469-2.949219v5.898438zm0 0"/><path d="m156.160156 97.414062 5.109375-2.949218v5.898437zm0 0"/><path d="m151.050781 100.363281 5.109375-2.949219v5.898438zm0 0"/><path d="m140.835938 106.265625 5.105468-2.953125v5.902344zm0 0"/><path d="m130.617188 112.164062 5.109374-2.949218v5.898437zm0 0"/><path d="m125.507812 115.113281 5.109376-2.949219v5.898438zm0 0"/><path d="m120.398438 118.0625 5.109374-2.949219v5.898438zm0 0"/><path d="m105.074219 126.910156 5.109375-2.949218v5.898437zm0 0"/><path d="m94.855469 138.707031 5.109375-2.949219v5.898438zm0 0"/><path d="m94.855469 144.605469 5.109375-2.949219v5.898438zm0 0"/><path d="m94.855469 156.40625 5.109375-2.953125v5.902344zm0 0"/><path d="m94.855469 162.304688 5.109375-2.949219v5.898437zm0 0"/><path d="m94.855469 168.203125 5.109375-2.949219v5.898438zm0 0"/><path d="m94.855469 174.101562 5.109375-2.949218v5.898437zm0 0"/><path d="m94.855469 197.695312 5.109375-2.949218v5.898437zm0 0"/><path d="m94.855469 203.59375 5.109375-2.949219v5.902344zm0 0"/><path d="m94.855469 209.496094 5.109375-2.949219v5.898437zm0 0"/><path d="m94.855469 221.292969 5.109375-2.949219v5.898438zm0 0"/><path d="m99.964844 230.140625 5.109375-2.949219v5.898438zm0 0"/><path d="m120.398438 241.9375 5.109374-2.949219v5.898438zm0 0"/><path d="m125.507812 244.886719 5.109376-2.949219v5.898438zm0 0"/><path d="m130.617188 247.835938 5.109374-2.949219v5.898437zm0 0"/><path d="m151.050781 259.636719 5.109375-2.949219v5.898438zm0 0"/><path d="m161.269531 265.535156 5.109375-2.949218v5.898437zm0 0"/><path d="m166.378906 268.484375 5.105469-2.949219v5.898438zm0 0"/><path d="m171.484375 271.433594 5.109375-2.949219v5.898437zm0 0"/><path d="m176.59375 274.382812 5.109375-2.949218v5.898437zm0 0"/><path d="m186.8125 268.484375 5.109375-2.949219v5.898438zm0 0"/><path d="m191.921875 265.535156 5.105469-2.949218v5.898437zm0 0"/><path d="m207.246094 256.6875 5.109375-2.953125v5.902344zm0 0"/><path d="m222.570312 247.835938 5.109376-2.949219v5.898437zm0 0"/><path d="m227.679688 244.886719 5.109374-2.949219v5.898438zm0 0"/><path d="m237.898438 238.988281 5.109374-2.949219v5.898438zm0 0"/><path d="m248.113281 233.089844 5.109375-2.949219v5.898437zm0 0"/><path d="m253.222656 230.140625 5.109375-2.949219v5.898438zm0 0"/><path d="m263.441406 212.445312 5.109375-2.949218v5.898437zm0 0"/><path d="m263.441406 206.546875 5.109375-2.953125v5.902344zm0 0"/><path d="m263.441406 188.847656 5.109375-2.949218v5.898437zm0 0"/><path d="m263.441406 177.050781 5.109375-2.949219v5.898438zm0 0"/><path d="m263.441406 165.253906 5.109375-2.949218v5.898437zm0 0"/><path d="m263.441406 147.554688 5.109375-2.949219v5.898437zm0 0"/><path d="m263.441406 141.65625 5.109375-2.949219v5.898438zm0 0"/><path d="m263.441406 135.757812 5.109375-2.949218v5.898437zm0 0"/><path d="m258.332031 126.910156 5.109375-2.949218v5.898437zm0 0"/><path d="m253.222656 123.960938 5.109375-2.949219v5.898437zm0 0"/><path d="m248.113281 121.011719 5.109375-2.949219v5.898438zm0 0"/><path d="m243.007812 118.0625 5.105469-2.949219v5.898438zm0 0"/><path d="m232.789062 112.164062 5.109376-2.949218v5.898437zm0 0"/><path d="m222.570312 106.265625 5.109376-2.953125v5.902344zm0 0"/><path d="m217.464844 103.3125 5.105468-2.949219v5.902344zm0 0"/><path d="m212.355469 100.363281 5.109375-2.949219v5.898438zm0 0"/><path d="m207.246094 97.414062 5.109375-2.949218v5.898437zm0 0"/><path d="m202.136719 94.464844 5.109375-2.949219v5.898437zm0 0"/><path d="m197.027344 91.515625 5.109375-2.949219v5.898438zm0 0"/><path d="m186.8125 85.617188 5.109375-2.949219v5.898437zm0 0"/><path d="m176.59375 79.71875 5.109375-2.949219v5.898438zm0 0"/><path d="m166.378906 85.617188 5.105469-2.949219v5.898437zm0 0"/><path d="m161.269531 88.566406 5.109375-2.949218v5.898437zm0 0"/><path d="m156.160156 91.515625 5.109375-2.949219v5.898438zm0 0"/><path d="m135.726562 103.3125 5.109376-2.949219v5.902344zm0 0"/><path d="m125.507812 109.214844 5.109376-2.949219v5.898437zm0 0"/><path d="m110.183594 118.0625 5.109375-2.949219v5.898438zm0 0"/><path d="m105.074219 121.011719 5.109375-2.949219v5.898438zm0 0"/><path d="m99.964844 123.960938 5.109375-2.949219v5.898437zm0 0"/><path d="m94.855469 126.910156 5.109375-2.949218v5.898437zm0 0"/><path d="m89.75 135.757812 5.105469-2.949218v5.898437zm0 0"/><path d="m89.75 153.453125 5.105469-2.949219v5.902344zm0 0"/><path d="m89.75 182.949219 5.105469-2.949219v5.898438zm0 0"/><path d="m89.75 194.746094 5.105469-2.949219v5.898437zm0 0"/><path d="m89.75 206.546875 5.105469-2.953125v5.902344zm0 0"/><path d="m89.75 212.445312 5.105469-2.949218v5.898437zm0 0"/><path d="m89.75 218.34375 5.105469-2.949219v5.898438zm0 0"/><path d="m89.75 224.242188 5.105469-2.949219v5.898437zm0 0"/><path d="m94.855469 233.089844 5.109375-2.949219v5.898437zm0 0"/><path d="m115.292969 244.886719 5.105469-2.949219v5.898438zm0 0"/><path d="m120.398438 247.835938 5.109374-2.949219v5.898437zm0 0"/><path d="m156.160156 268.484375 5.109375-2.949219v5.898438zm0 0"/><path d="m171.484375 277.332031 5.109375-2.949219v5.898438zm0 0"/><path d="m202.136719 265.535156 5.109375-2.949218v5.898437zm0 0"/><path d="m212.355469 259.636719 5.109375-2.949219v5.898438zm0 0"/><path d="m227.679688 250.785156 5.109374-2.949218v5.898437zm0 0"/><path d="m243.007812 241.9375 5.105469-2.949219v5.898438zm0 0"/><path d="m253.222656 236.039062 5.109375-2.949218v5.898437zm0 0"/><path d="m268.550781 203.59375 5.105469-2.949219v5.902344zm0 0"/><path d="m268.550781 185.898438 5.105469-2.949219v5.898437zm0 0"/><path d="m268.550781 180 5.105469-2.949219v5.898438zm0 0"/><path d="m268.550781 156.40625 5.105469-2.953125v5.902344zm0 0"/><path d="m268.550781 144.605469 5.105469-2.949219v5.898438zm0 0"/><path d="m268.550781 132.808594 5.105469-2.949219v5.898437zm0 0"/><path d="m248.113281 115.113281 5.109375-2.949219v5.898438zm0 0"/><path d="m243.007812 112.164062 5.105469-2.949218v5.898437zm0 0"/><path d="m232.789062 106.265625 5.109376-2.953125v5.902344zm0 0"/><path d="m217.464844 97.414062 5.105468-2.949218v5.898437zm0 0"/><path d="m212.355469 94.464844 5.109375-2.949219v5.898437zm0 0"/><path d="m202.136719 88.566406 5.109375-2.949218v5.898437zm0 0"/><path d="m197.027344 85.617188 5.109375-2.949219v5.898437zm0 0"/><path d="m191.921875 82.667969 5.105469-2.949219v5.898438zm0 0"/><path d="m166.378906 79.71875 5.105469-2.949219v5.898438zm0 0"/><path d="m145.941406 91.515625 5.109375-2.949219v5.898438zm0 0"/><path d="m140.835938 94.464844 5.105468-2.949219v5.898437zm0 0"/><path d="m135.726562 97.414062 5.109376-2.949218v5.898437zm0 0"/><path d="m120.398438 106.265625 5.109374-2.953125v5.902344zm0 0"/><path d="m105.074219 115.113281 5.109375-2.949219v5.898438zm0 0"/><path d="m99.964844 118.0625 5.109375-2.949219v5.898438zm0 0"/><path d="m84.640625 126.910156 5.109375-2.949218v5.898437zm0 0"/><path d="m84.640625 138.707031 5.109375-2.949219v5.898438zm0 0"/><path d="m84.640625 144.605469 5.109375-2.949219v5.898438zm0 0"/><path d="m84.640625 150.503906 5.109375-2.949218v5.898437zm0 0"/><path d="m84.640625 156.40625 5.109375-2.953125v5.902344zm0 0"/><path d="m84.640625 162.304688 5.109375-2.949219v5.898437zm0 0"/><path d="m84.640625 168.203125 5.109375-2.949219v5.898438zm0 0"/><path d="m84.640625 174.101562 5.109375-2.949218v5.898437zm0 0"/><path d="m84.640625 180 5.109375-2.949219v5.898438zm0 0"/><path d="m84.640625 185.898438 5.109375-2.949219v5.898437zm0 0"/><path d="m84.640625 191.796875 5.109375-2.949219v5.898438zm0 0"/><path d="m84.640625 197.695312 5.109375-2.949218v5.898437zm0 0"/><path d="m84.640625 209.496094 5.109375-2.949219v5.898437zm0 0"/><path d="m84.640625 221.292969 5.109375-2.949219v5.898438zm0 0"/><path d="m89.75 236.039062 5.105469-2.949218v5.898437zm0 0"/><path d="m99.964844 241.9375 5.109375-2.949219v5.898438zm0 0"/><path d="m110.183594 247.835938 5.109375-2.949219v5.898437zm0 0"/><path d="m120.398438 253.734375 5.109374-2.949219v5.902344zm0 0"/><path d="m140.835938 265.535156 5.105468-2.949218v5.898437zm0 0"/><path d="m171.484375 283.230469 5.109375-2.949219v5.898438zm0 0"/><path d="m186.8125 280.28125 5.109375-2.949219v5.898438zm0 0"/><path d="m202.136719 271.433594 5.109375-2.949219v5.898437zm0 0"/><path d="m207.246094 268.484375 5.109375-2.949219v5.898438zm0 0"/><path d="m227.679688 256.6875 5.109374-2.953125v5.902344zm0 0"/><path d="m232.789062 253.734375 5.109376-2.949219v5.902344zm0 0"/><path d="m237.898438 250.785156 5.109374-2.949218v5.898437zm0 0"/><path d="m243.007812 247.835938 5.105469-2.949219v5.898437zm0 0"/><path d="m253.222656 241.9375 5.109375-2.949219v5.898438zm0 0"/><path d="m273.65625 230.140625 5.109375-2.949219v5.898438zm0 0"/><path d="m273.65625 212.445312 5.109375-2.949218v5.898437zm0 0"/><path d="m273.65625 206.546875 5.109375-2.953125v5.902344zm0 0"/><path d="m273.65625 200.644531 5.109375-2.949219v5.898438zm0 0"/><path d="m273.65625 194.746094 5.109375-2.949219v5.898437zm0 0"/><path d="m273.65625 188.847656 5.109375-2.949218v5.898437zm0 0"/><path d="m273.65625 182.949219 5.109375-2.949219v5.898438zm0 0"/><path d="m273.65625 177.050781 5.109375-2.949219v5.898438zm0 0"/><path d="m273.65625 171.152344 5.109375-2.949219v5.898437zm0 0"/><path d="m273.65625 141.65625 5.109375-2.949219v5.898438zm0 0"/><path d="m273.65625 135.757812 5.109375-2.949218v5.898437zm0 0"/><path d="m273.65625 129.859375 5.109375-2.949219v5.898438zm0 0"/><path d="m268.550781 121.011719 5.105469-2.949219v5.898438zm0 0"/><path d="m253.222656 112.164062 5.109375-2.949218v5.898437zm0 0"/><path d="m232.789062 100.363281 5.109376-2.949219v5.898438zm0 0"/><path d="m222.570312 94.464844 5.109376-2.949219v5.898437zm0 0"/><path d="m217.464844 91.515625 5.105468-2.949219v5.898438zm0 0"/><path d="m212.355469 88.566406 5.109375-2.949218v5.898437zm0 0"/><path d="m207.246094 85.617188 5.109375-2.949219v5.898437zm0 0"/><path d="m176.59375 67.921875 5.109375-2.949219v5.898438zm0 0"/><path d="m166.378906 73.820312 5.105469-2.949218v5.898437zm0 0"/><path d="m161.269531 76.769531 5.109375-2.949219v5.898438zm0 0"/><path d="m151.050781 82.667969 5.109375-2.949219v5.898438zm0 0"/><path d="m145.941406 85.617188 5.109375-2.949219v5.898437zm0 0"/><path d="m125.507812 97.414062 5.109376-2.949218v5.898437zm0 0"/><path d="m115.292969 103.3125 5.105469-2.949219v5.902344zm0 0"/><path d="m79.53125 129.859375 5.109375-2.949219v5.898438zm0 0"/><path d="m79.53125 141.65625 5.109375-2.949219v5.898438zm0 0"/><path d="m79.53125 153.453125 5.109375-2.949219v5.902344zm0 0"/><path d="m79.53125 159.355469 5.109375-2.949219v5.898438zm0 0"/><path d="m79.53125 165.253906 5.109375-2.949218v5.898437zm0 0"/><path d="m79.53125 171.152344 5.109375-2.949219v5.898437zm0 0"/><path d="m79.53125 188.847656 5.109375-2.949218v5.898437zm0 0"/><path d="m79.53125 194.746094 5.109375-2.949219v5.898437zm0 0"/><path d="m79.53125 206.546875 5.109375-2.953125v5.902344zm0 0"/><path d="m89.75 241.9375 5.105469-2.949219v5.898438zm0 0"/><path d="m94.855469 244.886719 5.109375-2.949219v5.898438zm0 0"/><path d="m120.398438 259.636719 5.109374-2.949219v5.898438zm0 0"/><path d="m125.507812 262.585938 5.109376-2.949219v5.898437zm0 0"/><path d="m145.941406 274.382812 5.109375-2.949218v5.898437zm0 0"/><path d="m156.160156 280.28125 5.109375-2.949219v5.898438zm0 0"/><path d="m207.246094 274.382812 5.109375-2.949218v5.898437zm0 0"/><path d="m212.355469 271.433594 5.109375-2.949219v5.898437zm0 0"/><path d="m217.464844 268.484375 5.105468-2.949219v5.898438zm0 0"/><path d="m227.679688 262.585938 5.109374-2.949219v5.898437zm0 0"/><path d="m243.007812 253.734375 5.105469-2.949219v5.902344zm0 0"/><path d="m253.222656 247.835938 5.109375-2.949219v5.898437zm0 0"/><path d="m278.765625 221.292969 5.109375-2.949219v5.898438zm0 0"/><path d="m278.765625 215.394531 5.109375-2.949219v5.898438zm0 0"/><path d="m278.765625 209.496094 5.109375-2.949219v5.898437zm0 0"/><path d="m278.765625 197.695312 5.109375-2.949218v5.898437zm0 0"/><path d="m278.765625 185.898438 5.109375-2.949219v5.898437zm0 0"/><path d="m278.765625 168.203125 5.109375-2.949219v5.898438zm0 0"/><path d="m278.765625 150.503906 5.109375-2.949218v5.898437zm0 0"/><path d="m278.765625 138.707031 5.109375-2.949219v5.898438zm0 0"/><path d="m268.550781 115.113281 5.105469-2.949219v5.898438zm0 0"/><path d="m263.441406 112.164062 5.109375-2.949218v5.898437zm0 0"/><path d="m243.007812 100.363281 5.105469-2.949219v5.898438zm0 0"/><path d="m232.789062 94.464844 5.109376-2.949219v5.898437zm0 0"/><path d="m227.679688 91.515625 5.109374-2.949219v5.898438zm0 0"/><path d="m212.355469 82.667969 5.109375-2.949219v5.898438zm0 0"/><path d="m202.136719 76.769531 5.109375-2.949219v5.898438zm0 0"/><path d="m197.027344 73.820312 5.109375-2.949218v5.898437zm0 0"/><path d="m191.921875 70.871094 5.105469-2.949219v5.898437zm0 0"/><path d="m171.484375 64.972656 5.109375-2.949218v5.898437zm0 0"/><path d="m166.378906 67.921875 5.105469-2.949219v5.898438zm0 0"/><path d="m161.269531 70.871094 5.109375-2.949219v5.898437zm0 0"/><path d="m125.507812 91.515625 5.109376-2.949219v5.898438zm0 0"/><path d="m120.398438 94.464844 5.109374-2.949219v5.898437zm0 0"/><path d="m74.421875 156.40625 5.109375-2.953125v5.902344zm0 0"/><path d="m74.421875 162.304688 5.109375-2.949219v5.898437zm0 0"/><path d="m74.421875 191.796875 5.109375-2.949219v5.898438zm0 0"/><path d="m74.421875 197.695312 5.109375-2.949218v5.898437zm0 0"/><path d="m74.421875 203.59375 5.109375-2.949219v5.902344zm0 0"/><path d="m74.421875 209.496094 5.109375-2.949219v5.898437zm0 0"/><path d="m89.75 247.835938 5.105469-2.949219v5.898437zm0 0"/><path d="m94.855469 250.785156 5.109375-2.949218v5.898437zm0 0"/><path d="m115.292969 262.585938 5.105469-2.949219v5.898437zm0 0"/><path d="m140.835938 277.332031 5.105468-2.949219v5.898438zm0 0"/><path d="m145.941406 280.28125 5.109375-2.949219v5.898438zm0 0"/><path d="m151.050781 283.230469 5.109375-2.949219v5.898438zm0 0"/><path d="m217.464844 274.382812 5.105468-2.949218v5.898437zm0 0"/><path d="m222.570312 271.433594 5.109376-2.949219v5.898437zm0 0"/><path d="m227.679688 268.484375 5.109374-2.949219v5.898438zm0 0"/><path d="m237.898438 262.585938 5.109374-2.949219v5.898437zm0 0"/><path d="m248.113281 256.6875 5.109375-2.953125v5.902344zm0 0"/><path d="m253.222656 253.734375 5.109375-2.949219v5.902344zm0 0"/><path d="m258.332031 250.785156 5.109375-2.949218v5.898437zm0 0"/><path d="m283.875 200.644531 5.109375-2.949219v5.898438zm0 0"/><path d="m283.875 194.746094 5.109375-2.949219v5.898437zm0 0"/><path d="m283.875 182.949219 5.109375-2.949219v5.898438zm0 0"/><path d="m283.875 171.152344 5.109375-2.949219v5.898437zm0 0"/><path d="m283.875 165.253906 5.109375-2.949218v5.898437zm0 0"/><path d="m283.875 159.355469 5.109375-2.949219v5.898438zm0 0"/><path d="m283.875 153.453125 5.109375-2.949219v5.902344zm0 0"/><path d="m268.550781 109.214844 5.105469-2.949219v5.898437zm0 0"/><path d="m253.222656 100.363281 5.109375-2.949219v5.898438zm0 0"/><path d="m232.789062 88.566406 5.109376-2.949218v5.898437zm0 0"/><path d="m227.679688 85.617188 5.109374-2.949219v5.898437zm0 0"/><path d="m207.246094 73.820312 5.109375-2.949218v5.898437zm0 0"/><path d="m186.8125 62.023438 5.109375-2.949219v5.898437zm0 0"/><path d="m181.703125 59.074219 5.109375-2.953125v5.902344zm0 0"/><path d="m166.378906 62.023438 5.105469-2.949219v5.898437zm0 0"/><path d="m151.050781 70.871094 5.109375-2.949219v5.898437zm0 0"/><path d="m140.835938 76.769531 5.105468-2.949219v5.898438zm0 0"/><path d="m135.726562 79.71875 5.109376-2.949219v5.898438zm0 0"/><path d="m130.617188 82.667969 5.109374-2.949219v5.898438zm0 0"/><path d="m69.3125 200.644531 5.109375-2.949219v5.898438zm0 0"/><path d="m84.640625 250.785156 5.109375-2.949218v5.898437zm0 0"/><path d="m94.855469 256.6875 5.109375-2.953125v5.902344zm0 0"/><path d="m99.964844 259.636719 5.109375-2.949219v5.898438zm0 0"/><path d="m145.941406 286.179688 5.109375-2.949219v5.898437zm0 0"/><path d="m207.246094 286.179688 5.109375-2.949219v5.898437zm0 0"/><path d="m212.355469 283.230469 5.109375-2.949219v5.898438zm0 0"/><path d="m243.007812 265.535156 5.105469-2.949218v5.898437zm0 0"/><path d="m258.332031 256.6875 5.109375-2.953125v5.902344zm0 0"/><path d="m268.550781 250.785156 5.105469-2.949218v5.898437zm0 0"/><path d="m273.65625 247.835938 5.109375-2.949219v5.898437zm0 0"/><path d="m288.984375 221.292969 5.109375-2.949219v5.898438zm0 0"/><path d="m288.984375 209.496094 5.109375-2.949219v5.898437zm0 0"/><path d="m288.984375 197.695312 5.109375-2.949218v5.898437zm0 0"/><path d="m288.984375 191.796875 5.109375-2.949219v5.898438zm0 0"/><path d="m288.984375 185.898438 5.109375-2.949219v5.898437zm0 0"/><path d="m288.984375 174.101562 5.109375-2.949218v5.898437zm0 0"/><path d="m288.984375 162.304688 5.109375-2.949219v5.898437zm0 0"/><path d="m253.222656 94.464844 5.109375-2.949219v5.898437zm0 0"/><path d="m248.113281 91.515625 5.109375-2.949219v5.898438zm0 0"/><path d="m186.8125 56.121094 5.109375-2.949219v5.902344zm0 0"/><path d="m166.378906 56.121094 5.105469-2.949219v5.902344zm0 0"/><path d="m145.941406 67.921875 5.109375-2.949219v5.898438zm0 0"/><path d="m140.835938 70.871094 5.105468-2.949219v5.898437zm0 0"/><path d="m94.855469 262.585938 5.109375-2.949219v5.898437zm0 0"/><path d="m105.074219 268.484375 5.109375-2.949219v5.898438zm0 0"/><path d="m212.355469 289.128906 5.109375-2.949218v5.898437zm0 0"/><path d="m222.570312 283.230469 5.109376-2.949219v5.898438zm0 0"/><path d="m227.679688 280.28125 5.109374-2.949219v5.898438zm0 0"/><path d="m237.898438 274.382812 5.109374-2.949218v5.898437zm0 0"/><path d="m243.007812 271.433594 5.105469-2.949219v5.898437zm0 0"/><path d="m248.113281 268.484375 5.109375-2.949219v5.898438zm0 0"/><path d="m263.441406 259.636719 5.109375-2.949219v5.898438zm0 0"/><path d="m273.65625 253.734375 5.109375-2.949219v5.902344zm0 0"/><path d="m283.875 247.835938 5.109375-2.949219v5.898437zm0 0"/><path d="m294.09375 218.34375 5.105469-2.949219v5.898438zm0 0"/><path d="m294.09375 194.746094 5.105469-2.949219v5.898437zm0 0"/><path d="m294.09375 165.253906 5.105469-2.949218v5.898437zm0 0"/><path d="m294.09375 159.355469 5.105469-2.949219v5.898438zm0 0"/><path d="m294.09375 153.453125 5.105469-2.949219v5.902344zm0 0"/><path d="m145.941406 62.023438 5.109375-2.949219v5.898437zm0 0"/><path d="m99.964844 271.433594 5.109375-2.949219v5.898437zm0 0"/><path d="m222.570312 289.128906 5.109376-2.949218v5.898437zm0 0"/><path d="m227.679688 286.179688 5.109374-2.949219v5.898437zm0 0"/><path d="m243.007812 277.332031 5.105469-2.949219v5.898438zm0 0"/><path d="m248.113281 274.382812 5.109375-2.949218v5.898437zm0 0"/><path d="m253.222656 271.433594 5.109375-2.949219v5.898437zm0 0"/><path d="m263.441406 265.535156 5.109375-2.949218v5.898437zm0 0"/><path d="m299.199219 180 5.109375-2.949219v5.898438zm0 0"/><path d="m299.199219 174.101562 5.109375-2.949218v5.898437zm0 0"/><path d="m151.050781 53.171875 5.109375-2.949219v5.898438zm0 0"/><path d="m140.835938 59.074219 5.105468-2.953125v5.902344zm0 0"/><path d="m186.8125 180-5.109375-2.949219v5.898438zm0 0"/><path d="m181.703125 177.050781-5.109375-2.949219v5.898438zm0 0"/><path d="m181.703125 182.949219-5.109375-2.949219v5.898438zm0 0"/><path d="m191.921875 182.949219-5.109375-2.949219v5.898438zm0 0"/><path d="m186.8125 174.101562-5.109375-2.949218v5.898437zm0 0"/><path d="m176.59375 180-5.109375-2.949219v5.898438zm0 0"/><path d="m176.59375 185.898438-5.109375-2.949219v5.898437zm0 0"/><path d="m186.8125 185.898438-5.109375-2.949219v5.898437zm0 0"/><path d="m197.027344 185.898438-5.105469-2.949219v5.898437zm0 0"/><path d="m197.027344 180-5.105469-2.949219v5.898438zm0 0"/><path d="m191.921875 171.152344-5.109375-2.949219v5.898437zm0 0"/><path d="m181.703125 165.253906-5.109375-2.949218v5.898437zm0 0"/><path d="m171.484375 177.050781-5.105469-2.949219v5.898438zm0 0"/><path d="m171.484375 188.847656-5.105469-2.949218v5.898437zm0 0"/><path d="m186.8125 191.796875-5.109375-2.949219v5.898438zm0 0"/><path d="m191.921875 188.847656-5.109375-2.949218v5.898437zm0 0"/><path d="m202.136719 188.847656-5.109375-2.949218v5.898437zm0 0"/><path d="m202.136719 182.949219-5.109375-2.949219v5.898438zm0 0"/><path d="m202.136719 177.050781-5.109375-2.949219v5.898438zm0 0"/><path d="m202.136719 171.152344-5.109375-2.949219v5.898437zm0 0"/><path d="m191.921875 165.253906-5.109375-2.949218v5.898437zm0 0"/><path d="m181.703125 159.355469-5.109375-2.949219v5.898438zm0 0"/><path d="m171.484375 165.253906-5.105469-2.949218v5.898437zm0 0"/><path d="m166.378906 174.101562-5.109375-2.949218v5.898437zm0 0"/><path d="m166.378906 180-5.109375-2.949219v5.898438zm0 0"/><path d="m166.378906 185.898438-5.109375-2.949219v5.898437zm0 0"/><path d="m171.484375 194.746094-5.105469-2.949219v5.898437zm0 0"/><path d="m191.921875 194.746094-5.109375-2.949219v5.898437zm0 0"/><path d="m207.246094 185.898438-5.109375-2.949219v5.898437zm0 0"/><path d="m207.246094 180-5.109375-2.949219v5.898438zm0 0"/><path d="m207.246094 174.101562-5.109375-2.949218v5.898437zm0 0"/><path d="m207.246094 168.203125-5.109375-2.949219v5.898438zm0 0"/><path d="m191.921875 159.355469-5.109375-2.949219v5.898438zm0 0"/><path d="m176.59375 156.40625-5.109375-2.953125v5.902344zm0 0"/><path d="m166.378906 162.304688-5.109375-2.949219v5.898437zm0 0"/><path d="m161.269531 171.152344-5.109375-2.949219v5.898437zm0 0"/><path d="m161.269531 177.050781-5.109375-2.949219v5.898438zm0 0"/><path d="m161.269531 182.949219-5.109375-2.949219v5.898438zm0 0"/><path d="m161.269531 188.847656-5.109375-2.949218v5.898437zm0 0"/><path d="m181.703125 206.546875-5.109375-2.953125v5.902344zm0 0"/><path d="m186.8125 203.59375-5.109375-2.949219v5.902344zm0 0"/><path d="m197.027344 197.695312-5.105469-2.949218v5.898437zm0 0"/><path d="m212.355469 194.746094-5.109375-2.949219v5.898437zm0 0"/><path d="m212.355469 188.847656-5.109375-2.949218v5.898437zm0 0"/><path d="m212.355469 177.050781-5.109375-2.949219v5.898438zm0 0"/><path d="m202.136719 159.355469-5.109375-2.949219v5.898438zm0 0"/><path d="m191.921875 153.453125-5.109375-2.949219v5.902344zm0 0"/><path d="m171.484375 153.453125-5.105469-2.949219v5.902344zm0 0"/><path d="m166.378906 156.40625-5.109375-2.953125v5.902344zm0 0"/><path d="m156.160156 168.203125-5.109375-2.949219v5.898438zm0 0"/><path d="m156.160156 191.796875-5.109375-2.949219v5.898438zm0 0"/><path d="m156.160156 197.695312-5.109375-2.949218v5.898437zm0 0"/><path d="m166.378906 203.59375-5.109375-2.949219v5.902344zm0 0"/><path d="m171.484375 206.546875-5.105469-2.953125v5.902344zm0 0"/><path d="m176.59375 209.496094-5.109375-2.949219v5.898437zm0 0"/><path d="m181.703125 212.445312-5.109375-2.949218v5.898437zm0 0"/><path d="m186.8125 209.496094-5.109375-2.949219v5.898437zm0 0"/><path d="m191.921875 206.546875-5.109375-2.953125v5.902344zm0 0"/><path d="m202.136719 200.644531-5.109375-2.949219v5.898438zm0 0"/><path d="m207.246094 197.695312-5.109375-2.949218v5.898437zm0 0"/><path d="m217.464844 197.695312-5.109375-2.949218v5.898437zm0 0"/><path d="m212.355469 159.355469-5.109375-2.949219v5.898438zm0 0"/><path d="m197.027344 150.503906-5.105469-2.949218v5.898437zm0 0"/><path d="m186.8125 144.605469-5.109375-2.949219v5.898438zm0 0"/><path d="m171.484375 147.554688-5.105469-2.949219v5.898437zm0 0"/><path d="m151.050781 159.355469-5.109375-2.949219v5.898438zm0 0"/><path d="m151.050781 171.152344-5.109375-2.949219v5.898437zm0 0"/><path d="m151.050781 177.050781-5.109375-2.949219v5.898438zm0 0"/><path d="m151.050781 182.949219-5.109375-2.949219v5.898438zm0 0"/><path d="m151.050781 194.746094-5.109375-2.949219v5.898437zm0 0"/><path d="m151.050781 200.644531-5.109375-2.949219v5.898438zm0 0"/><path d="m171.484375 212.445312-5.105469-2.949218v5.898437zm0 0"/><path d="m181.703125 218.34375-5.109375-2.949219v5.898438zm0 0"/><path d="m186.8125 215.394531-5.109375-2.949219v5.898438zm0 0"/><path d="m191.921875 212.445312-5.109375-2.949218v5.898437zm0 0"/><path d="m197.027344 209.496094-5.105469-2.949219v5.898437zm0 0"/><path d="m212.355469 200.644531-5.109375-2.949219v5.898438zm0 0"/><path d="m222.570312 200.644531-5.105468-2.949219v5.898438zm0 0"/><path d="m222.570312 194.746094-5.105468-2.949219v5.898437zm0 0"/><path d="m197.027344 144.605469-5.105469-2.949219v5.898438zm0 0"/><path d="m145.941406 156.40625-5.105468-2.953125v5.902344zm0 0"/><path d="m145.941406 162.304688-5.105468-2.949219v5.898437zm0 0"/><path d="m145.941406 168.203125-5.105468-2.949219v5.898438zm0 0"/><path d="m145.941406 174.101562-5.105468-2.949218v5.898437zm0 0"/><path d="m145.941406 180-5.105468-2.949219v5.898438zm0 0"/><path d="m145.941406 191.796875-5.105468-2.949219v5.898438zm0 0"/><path d="m151.050781 206.546875-5.109375-2.953125v5.902344zm0 0"/><path d="m156.160156 209.496094-5.109375-2.949219v5.898437zm0 0"/><path d="m161.269531 212.445312-5.109375-2.949218v5.898437zm0 0"/><path d="m176.59375 221.292969-5.109375-2.949219v5.898438zm0 0"/><path d="m197.027344 215.394531-5.105469-2.949219v5.898438zm0 0"/><path d="m212.355469 206.546875-5.109375-2.953125v5.902344zm0 0"/><path d="m217.464844 203.59375-5.109375-2.949219v5.902344zm0 0"/><path d="m227.679688 203.59375-5.109376-2.949219v5.902344zm0 0"/><path d="m227.679688 180-5.109376-2.949219v5.898438zm0 0"/><path d="m227.679688 174.101562-5.109376-2.949218v5.898437zm0 0"/><path d="m227.679688 162.304688-5.109376-2.949219v5.898437zm0 0"/><path d="m222.570312 153.453125-5.105468-2.949219v5.902344zm0 0"/><path d="m212.355469 147.554688-5.109375-2.949219v5.898437zm0 0"/><path d="m207.246094 144.605469-5.109375-2.949219v5.898438zm0 0"/><path d="m197.027344 138.707031-5.105469-2.949219v5.898438zm0 0"/><path d="m186.8125 132.808594-5.109375-2.949219v5.898437zm0 0"/><path d="m171.484375 135.757812-5.105469-2.949218v5.898437zm0 0"/><path d="m156.160156 144.605469-5.109375-2.949219v5.898438zm0 0"/><path d="m151.050781 147.554688-5.109375-2.949219v5.898437zm0 0"/><path d="m145.941406 150.503906-5.105468-2.949218v5.898437zm0 0"/><path d="m140.835938 159.355469-5.109376-2.949219v5.898438zm0 0"/><path d="m140.835938 165.253906-5.109376-2.949218v5.898437zm0 0"/><path d="m140.835938 177.050781-5.109376-2.949219v5.898438zm0 0"/><path d="m140.835938 182.949219-5.109376-2.949219v5.898438zm0 0"/><path d="m140.835938 188.847656-5.109376-2.949218v5.898437zm0 0"/><path d="m140.835938 194.746094-5.109376-2.949219v5.898437zm0 0"/><path d="m151.050781 212.445312-5.109375-2.949218v5.898437zm0 0"/><path d="m156.160156 215.394531-5.109375-2.949219v5.898438zm0 0"/><path d="m161.269531 218.34375-5.109375-2.949219v5.898438zm0 0"/><path d="m171.484375 224.242188-5.105469-2.949219v5.898437zm0 0"/><path d="m191.921875 224.242188-5.109375-2.949219v5.898437zm0 0"/><path d="m202.136719 218.34375-5.109375-2.949219v5.898438zm0 0"/><path d="m207.246094 215.394531-5.109375-2.949219v5.898438zm0 0"/><path d="m222.570312 206.546875-5.105468-2.953125v5.902344zm0 0"/><path d="m232.789062 206.546875-5.109374-2.953125v5.902344zm0 0"/><path d="m232.789062 182.949219-5.109374-2.949219v5.898438zm0 0"/><path d="m232.789062 177.050781-5.109374-2.949219v5.898438zm0 0"/><path d="m232.789062 153.453125-5.109374-2.949219v5.902344zm0 0"/><path d="m186.8125 126.910156-5.109375-2.949218v5.898437zm0 0"/><path d="m181.703125 123.960938-5.109375-2.949219v5.898437zm0 0"/><path d="m176.59375 126.910156-5.109375-2.949218v5.898437zm0 0"/><path d="m161.269531 135.757812-5.109375-2.949218v5.898437zm0 0"/><path d="m156.160156 138.707031-5.109375-2.949219v5.898438zm0 0"/><path d="m135.726562 168.203125-5.109374-2.949219v5.898438zm0 0"/><path d="m135.726562 174.101562-5.109374-2.949218v5.898437zm0 0"/><path d="m135.726562 185.898438-5.109374-2.949219v5.898437zm0 0"/><path d="m135.726562 197.695312-5.109374-2.949218v5.898437zm0 0"/><path d="m135.726562 209.496094-5.109374-2.949219v5.898437zm0 0"/><path d="m140.835938 212.445312-5.109376-2.949218v5.898437zm0 0"/><path d="m202.136719 224.242188-5.109375-2.949219v5.898437zm0 0"/><path d="m207.246094 221.292969-5.109375-2.949219v5.898438zm0 0"/><path d="m212.355469 218.34375-5.109375-2.949219v5.898438zm0 0"/><path d="m237.898438 197.695312-5.109376-2.949218v5.898437zm0 0"/><path d="m237.898438 191.796875-5.109376-2.949219v5.898438zm0 0"/><path d="m237.898438 185.898438-5.109376-2.949219v5.898437zm0 0"/><path d="m237.898438 180-5.109376-2.949219v5.898438zm0 0"/><path d="m237.898438 168.203125-5.109376-2.949219v5.898438zm0 0"/><path d="m237.898438 150.503906-5.109376-2.949218v5.898437zm0 0"/><path d="m232.789062 147.554688-5.109374-2.949219v5.898437zm0 0"/><path d="m227.679688 144.605469-5.109376-2.949219v5.898438zm0 0"/><path d="m197.027344 126.910156-5.105469-2.949218v5.898437zm0 0"/><path d="m161.269531 129.859375-5.109375-2.949219v5.898438zm0 0"/><path d="m156.160156 132.808594-5.109375-2.949219v5.898437zm0 0"/><path d="m151.050781 135.757812-5.109375-2.949218v5.898437zm0 0"/><path d="m140.835938 141.65625-5.109376-2.949219v5.898438zm0 0"/><path d="m135.726562 144.605469-5.109374-2.949219v5.898438zm0 0"/><path d="m130.617188 165.253906-5.109376-2.949218v5.898437zm0 0"/><path d="m130.617188 182.949219-5.109376-2.949219v5.898438zm0 0"/><path d="m130.617188 212.445312-5.109376-2.949218v5.898437zm0 0"/><path d="m135.726562 215.394531-5.109374-2.949219v5.898438zm0 0"/><path d="m140.835938 218.34375-5.109376-2.949219v5.898438zm0 0"/><path d="m151.050781 224.242188-5.109375-2.949219v5.898437zm0 0"/><path d="m166.378906 233.089844-5.109375-2.949219v5.898437zm0 0"/><path d="m171.484375 236.039062-5.105469-2.949218v5.898437zm0 0"/><path d="m176.59375 238.988281-5.109375-2.949219v5.898438zm0 0"/><path d="m181.703125 241.9375-5.109375-2.949219v5.898438zm0 0"/><path d="m191.921875 236.039062-5.109375-2.949218v5.898437zm0 0"/><path d="m197.027344 233.089844-5.105469-2.949219v5.898437zm0 0"/><path d="m202.136719 230.140625-5.109375-2.949219v5.898438zm0 0"/><path d="m207.246094 227.191406-5.109375-2.949218v5.898437zm0 0"/><path d="m212.355469 224.242188-5.109375-2.949219v5.898437zm0 0"/><path d="m217.464844 221.292969-5.109375-2.949219v5.898438zm0 0"/><path d="m227.679688 215.394531-5.109376-2.949219v5.898438zm0 0"/><path d="m232.789062 212.445312-5.109374-2.949218v5.898437zm0 0"/><path d="m243.007812 212.445312-5.109374-2.949218v5.898437zm0 0"/><path d="m243.007812 206.546875-5.109374-2.953125v5.902344zm0 0"/><path d="m243.007812 200.644531-5.109374-2.949219v5.898438zm0 0"/><path d="m243.007812 194.746094-5.109374-2.949219v5.898437zm0 0"/><path d="m243.007812 182.949219-5.109374-2.949219v5.898438zm0 0"/><path d="m243.007812 177.050781-5.109374-2.949219v5.898438zm0 0"/><path d="m243.007812 165.253906-5.109374-2.949218v5.898437zm0 0"/><path d="m243.007812 153.453125-5.109374-2.949219v5.902344zm0 0"/><path d="m222.570312 135.757812-5.105468-2.949218v5.898437zm0 0"/><path d="m212.355469 129.859375-5.109375-2.949219v5.898438zm0 0"/><path d="m207.246094 126.910156-5.109375-2.949218v5.898437zm0 0"/><path d="m191.921875 118.0625-5.109375-2.949219v5.898438zm0 0"/><path d="m186.8125 115.113281-5.109375-2.949219v5.898438zm0 0"/><path d="m181.703125 112.164062-5.109375-2.949218v5.898437zm0 0"/><path d="m156.160156 126.910156-5.109375-2.949218v5.898437zm0 0"/><path d="m151.050781 129.859375-5.109375-2.949219v5.898438zm0 0"/><path d="m145.941406 132.808594-5.105468-2.949219v5.898437zm0 0"/><path d="m140.835938 135.757812-5.109376-2.949218v5.898437zm0 0"/><path d="m135.726562 138.707031-5.109374-2.949219v5.898438zm0 0"/><path d="m130.617188 141.65625-5.109376-2.949219v5.898438zm0 0"/><path d="m125.507812 144.605469-5.109374-2.949219v5.898438zm0 0"/><path d="m125.507812 150.503906-5.109374-2.949218v5.898437zm0 0"/><path d="m125.507812 185.898438-5.109374-2.949219v5.898437zm0 0"/><path d="m125.507812 197.695312-5.109374-2.949218v5.898437zm0 0"/><path d="m125.507812 209.496094-5.109374-2.949219v5.898437zm0 0"/><path d="m125.507812 215.394531-5.109374-2.949219v5.898438zm0 0"/><path d="m130.617188 218.34375-5.109376-2.949219v5.898438zm0 0"/><path d="m135.726562 221.292969-5.109374-2.949219v5.898438zm0 0"/><path d="m140.835938 224.242188-5.109376-2.949219v5.898437zm0 0"/><path d="m145.941406 227.191406-5.105468-2.949218v5.898437zm0 0"/><path d="m151.050781 230.140625-5.109375-2.949219v5.898438zm0 0"/><path d="m156.160156 233.089844-5.109375-2.949219v5.898437zm0 0"/><path d="m161.269531 236.039062-5.109375-2.949218v5.898437zm0 0"/><path d="m166.378906 238.988281-5.109375-2.949219v5.898438zm0 0"/><path d="m171.484375 241.9375-5.105469-2.949219v5.898438zm0 0"/><path d="m176.59375 244.886719-5.109375-2.949219v5.898438zm0 0"/><path d="m181.703125 247.835938-5.109375-2.949219v5.898437zm0 0"/><path d="m191.921875 241.9375-5.109375-2.949219v5.898438zm0 0"/><path d="m202.136719 236.039062-5.109375-2.949218v5.898437zm0 0"/><path d="m227.679688 221.292969-5.109376-2.949219v5.898438zm0 0"/><path d="m248.113281 209.496094-5.105469-2.949219v5.898437zm0 0"/><path d="m248.113281 191.796875-5.105469-2.949219v5.898438zm0 0"/><path d="m248.113281 185.898438-5.105469-2.949219v5.898437zm0 0"/><path d="m248.113281 180-5.105469-2.949219v5.898438zm0 0"/><path d="m248.113281 168.203125-5.105469-2.949219v5.898438zm0 0"/><path d="m243.007812 141.65625-5.109374-2.949219v5.898438zm0 0"/><path d="m237.898438 138.707031-5.109376-2.949219v5.898438zm0 0"/><path d="m222.570312 129.859375-5.105468-2.949219v5.898438zm0 0"/><path d="m217.464844 126.910156-5.109375-2.949218v5.898437zm0 0"/><path d="m212.355469 123.960938-5.109375-2.949219v5.898437zm0 0"/><path d="m207.246094 121.011719-5.109375-2.949219v5.898438zm0 0"/><path d="m202.136719 118.0625-5.109375-2.949219v5.898438zm0 0"/><path d="m191.921875 112.164062-5.109375-2.949218v5.898437zm0 0"/><path d="m181.703125 106.265625-5.109375-2.953125v5.902344zm0 0"/><path d="m166.378906 115.113281-5.109375-2.949219v5.898438zm0 0"/><path d="m151.050781 123.960938-5.109375-2.949219v5.898437zm0 0"/><path d="m140.835938 129.859375-5.109376-2.949219v5.898438zm0 0"/><path d="m130.617188 135.757812-5.109376-2.949218v5.898437zm0 0"/><path d="m125.507812 138.707031-5.109374-2.949219v5.898438zm0 0"/><path d="m120.398438 153.453125-5.105469-2.949219v5.902344zm0 0"/><path d="m120.398438 159.355469-5.105469-2.949219v5.898438zm0 0"/><path d="m120.398438 171.152344-5.105469-2.949219v5.898437zm0 0"/><path d="m120.398438 177.050781-5.105469-2.949219v5.898438zm0 0"/><path d="m120.398438 200.644531-5.105469-2.949219v5.898438zm0 0"/><path d="m120.398438 212.445312-5.105469-2.949218v5.898437zm0 0"/><path d="m120.398438 218.34375-5.105469-2.949219v5.898438zm0 0"/><path d="m130.617188 224.242188-5.109376-2.949219v5.898437zm0 0"/><path d="m145.941406 233.089844-5.105468-2.949219v5.898437zm0 0"/><path d="m161.269531 241.9375-5.109375-2.949219v5.898438zm0 0"/><path d="m166.378906 244.886719-5.109375-2.949219v5.898438zm0 0"/><path d="m171.484375 247.835938-5.105469-2.949219v5.898437zm0 0"/><path d="m176.59375 250.785156-5.109375-2.949218v5.898437zm0 0"/><path d="m181.703125 253.734375-5.109375-2.949219v5.902344zm0 0"/><path d="m186.8125 250.785156-5.109375-2.949218v5.898437zm0 0"/><path d="m202.136719 241.9375-5.109375-2.949219v5.898438zm0 0"/><path d="m227.679688 227.191406-5.109376-2.949218v5.898437zm0 0"/><path d="m243.007812 218.34375-5.109374-2.949219v5.898438zm0 0"/><path d="m253.222656 218.34375-5.109375-2.949219v5.898438zm0 0"/><path d="m253.222656 206.546875-5.109375-2.953125v5.902344zm0 0"/><path d="m253.222656 188.847656-5.109375-2.949218v5.898437zm0 0"/><path d="m253.222656 177.050781-5.109375-2.949219v5.898438zm0 0"/><path d="m253.222656 171.152344-5.109375-2.949219v5.898437zm0 0"/><path d="m253.222656 165.253906-5.109375-2.949218v5.898437zm0 0"/><path d="m253.222656 159.355469-5.109375-2.949219v5.898438zm0 0"/><path d="m253.222656 153.453125-5.109375-2.949219v5.902344zm0 0"/><path d="m253.222656 141.65625-5.109375-2.949219v5.898438zm0 0"/><path d="m248.113281 138.707031-5.105469-2.949219v5.898438zm0 0"/><path d="m243.007812 135.757812-5.109374-2.949218v5.898437zm0 0"/><path d="m227.679688 126.910156-5.109376-2.949218v5.898437zm0 0"/><path d="m222.570312 123.960938-5.105468-2.949219v5.898437zm0 0"/><path d="m217.464844 121.011719-5.109375-2.949219v5.898438zm0 0"/><path d="m207.246094 115.113281-5.109375-2.949219v5.898438zm0 0"/><path d="m202.136719 112.164062-5.109375-2.949218v5.898437zm0 0"/><path d="m186.8125 103.3125-5.109375-2.949219v5.902344zm0 0"/><path d="m181.703125 100.363281-5.109375-2.949219v5.898438zm0 0"/><path d="m171.484375 106.265625-5.105469-2.953125v5.902344zm0 0"/><path d="m156.160156 115.113281-5.109375-2.949219v5.898438zm0 0"/><path d="m140.835938 123.960938-5.109376-2.949219v5.898437zm0 0"/><path d="m135.726562 126.910156-5.109374-2.949218v5.898437zm0 0"/><path d="m120.398438 135.757812-5.105469-2.949218v5.898437zm0 0"/><path d="m115.292969 138.707031-5.109375-2.949219v5.898438zm0 0"/><path d="m115.292969 144.605469-5.109375-2.949219v5.898438zm0 0"/><path d="m115.292969 150.503906-5.109375-2.949218v5.898437zm0 0"/><path d="m115.292969 174.101562-5.109375-2.949218v5.898437zm0 0"/><path d="m115.292969 185.898438-5.109375-2.949219v5.898437zm0 0"/><path d="m115.292969 197.695312-5.109375-2.949218v5.898437zm0 0"/><path d="m115.292969 209.496094-5.109375-2.949219v5.898437zm0 0"/><path d="m115.292969 215.394531-5.109375-2.949219v5.898438zm0 0"/><path d="m115.292969 221.292969-5.109375-2.949219v5.898438zm0 0"/><path d="m120.398438 224.242188-5.105469-2.949219v5.898437zm0 0"/><path d="m125.507812 227.191406-5.109374-2.949218v5.898437zm0 0"/><path d="m130.617188 230.140625-5.109376-2.949219v5.898438zm0 0"/><path d="m135.726562 233.089844-5.109374-2.949219v5.898437zm0 0"/><path d="m156.160156 244.886719-5.109375-2.949219v5.898438zm0 0"/><path d="m161.269531 247.835938-5.109375-2.949219v5.898437zm0 0"/><path d="m166.378906 250.785156-5.109375-2.949218v5.898437zm0 0"/><path d="m181.703125 259.636719-5.109375-2.949219v5.898438zm0 0"/><path d="m186.8125 256.6875-5.109375-2.953125v5.902344zm0 0"/><path d="m191.921875 253.734375-5.109375-2.949219v5.902344zm0 0"/><path d="m202.136719 247.835938-5.109375-2.949219v5.898437zm0 0"/><path d="m207.246094 244.886719-5.109375-2.949219v5.898438zm0 0"/><path d="m222.570312 236.039062-5.105468-2.949218v5.898437zm0 0"/><path d="m227.679688 233.089844-5.109376-2.949219v5.898437zm0 0"/><path d="m248.113281 221.292969-5.105469-2.949219v5.898438zm0 0"/><path d="m258.332031 209.496094-5.109375-2.949219v5.898437zm0 0"/><path d="m258.332031 191.796875-5.109375-2.949219v5.898438zm0 0"/><path d="m258.332031 156.40625-5.109375-2.953125v5.902344zm0 0"/><path d="m253.222656 135.757812-5.109375-2.949218v5.898437zm0 0"/><path d="m243.007812 129.859375-5.109374-2.949219v5.898438zm0 0"/><path d="m237.898438 126.910156-5.109376-2.949218v5.898437zm0 0"/><path d="m232.789062 123.960938-5.109374-2.949219v5.898437zm0 0"/><path d="m227.679688 121.011719-5.109376-2.949219v5.898438zm0 0"/><path d="m222.570312 118.0625-5.105468-2.949219v5.898438zm0 0"/><path d="m217.464844 115.113281-5.109375-2.949219v5.898438zm0 0"/><path d="m212.355469 112.164062-5.109375-2.949218v5.898437zm0 0"/><path d="m207.246094 109.214844-5.109375-2.949219v5.898437zm0 0"/><path d="m171.484375 100.363281-5.105469-2.949219v5.898438zm0 0"/><path d="m151.050781 112.164062-5.109375-2.949218v5.898437zm0 0"/><path d="m145.941406 115.113281-5.105468-2.949219v5.898438zm0 0"/><path d="m140.835938 118.0625-5.109376-2.949219v5.898438zm0 0"/><path d="m135.726562 121.011719-5.109374-2.949219v5.898438zm0 0"/><path d="m110.183594 147.554688-5.109375-2.949219v5.898437zm0 0"/><path d="m110.183594 159.355469-5.109375-2.949219v5.898438zm0 0"/><path d="m110.183594 188.847656-5.109375-2.949218v5.898437zm0 0"/><path d="m110.183594 206.546875-5.109375-2.953125v5.902344zm0 0"/><path d="m110.183594 212.445312-5.109375-2.949218v5.898437zm0 0"/><path d="m110.183594 218.34375-5.109375-2.949219v5.898438zm0 0"/><path d="m110.183594 224.242188-5.109375-2.949219v5.898437zm0 0"/><path d="m115.292969 227.191406-5.109375-2.949218v5.898437zm0 0"/><path d="m120.398438 230.140625-5.105469-2.949219v5.898438zm0 0"/><path d="m125.507812 233.089844-5.109374-2.949219v5.898437zm0 0"/><path d="m130.617188 236.039062-5.109376-2.949218v5.898437zm0 0"/><path d="m135.726562 238.988281-5.109374-2.949219v5.898438zm0 0"/><path d="m140.835938 241.9375-5.109376-2.949219v5.898438zm0 0"/><path d="m151.050781 247.835938-5.109375-2.949219v5.898437zm0 0"/><path d="m161.269531 253.734375-5.109375-2.949219v5.902344zm0 0"/><path d="m171.484375 259.636719-5.105469-2.949219v5.898438zm0 0"/><path d="m176.59375 262.585938-5.109375-2.949219v5.898437zm0 0"/><path d="m191.921875 259.636719-5.109375-2.949219v5.898438zm0 0"/><path d="m202.136719 253.734375-5.109375-2.949219v5.902344zm0 0"/><path d="m212.355469 247.835938-5.109375-2.949219v5.898437zm0 0"/><path d="m222.570312 241.9375-5.105468-2.949219v5.898438zm0 0"/><path d="m227.679688 238.988281-5.109376-2.949219v5.898438zm0 0"/><path d="m232.789062 236.039062-5.109374-2.949218v5.898437zm0 0"/><path d="m237.898438 233.089844-5.109376-2.949219v5.898437zm0 0"/><path d="m243.007812 230.140625-5.109374-2.949219v5.898438zm0 0"/><path d="m248.113281 227.191406-5.105469-2.949218v5.898437zm0 0"/><path d="m263.441406 224.242188-5.109375-2.949219v5.898437zm0 0"/><path d="m263.441406 218.34375-5.109375-2.949219v5.898438zm0 0"/><path d="m263.441406 212.445312-5.109375-2.949218v5.898437zm0 0"/><path d="m263.441406 177.050781-5.109375-2.949219v5.898438zm0 0"/><path d="m263.441406 165.253906-5.109375-2.949218v5.898437zm0 0"/><path d="m263.441406 159.355469-5.109375-2.949219v5.898438zm0 0"/><path d="m263.441406 141.65625-5.109375-2.949219v5.898438zm0 0"/><path d="m258.332031 132.808594-5.109375-2.949219v5.898437zm0 0"/><path d="m248.113281 126.910156-5.105469-2.949218v5.898437zm0 0"/><path d="m243.007812 123.960938-5.109374-2.949219v5.898437zm0 0"/><path d="m227.679688 115.113281-5.109376-2.949219v5.898438zm0 0"/><path d="m212.355469 106.265625-5.109375-2.953125v5.902344zm0 0"/><path d="m207.246094 103.3125-5.109375-2.949219v5.902344zm0 0"/><path d="m181.703125 88.566406-5.109375-2.949218v5.898437zm0 0"/><path d="m161.269531 100.363281-5.109375-2.949219v5.898438zm0 0"/><path d="m156.160156 103.3125-5.109375-2.949219v5.902344zm0 0"/><path d="m140.835938 112.164062-5.109376-2.949218v5.898437zm0 0"/><path d="m120.398438 123.960938-5.105469-2.949219v5.898437zm0 0"/><path d="m105.074219 132.808594-5.109375-2.949219v5.898437zm0 0"/><path d="m105.074219 138.707031-5.109375-2.949219v5.898438zm0 0"/><path d="m105.074219 144.605469-5.109375-2.949219v5.898438zm0 0"/><path d="m105.074219 150.503906-5.109375-2.949218v5.898437zm0 0"/><path d="m105.074219 156.40625-5.109375-2.953125v5.902344zm0 0"/><path d="m105.074219 168.203125-5.109375-2.949219v5.898438zm0 0"/><path d="m105.074219 180-5.109375-2.949219v5.898438zm0 0"/><path d="m105.074219 191.796875-5.109375-2.949219v5.898438zm0 0"/><path d="m105.074219 227.191406-5.109375-2.949218v5.898437zm0 0"/><path d="m110.183594 230.140625-5.109375-2.949219v5.898438zm0 0"/><path d="m115.292969 233.089844-5.109375-2.949219v5.898437zm0 0"/><path d="m125.507812 238.988281-5.109374-2.949219v5.898438zm0 0"/><path d="m156.160156 256.6875-5.109375-2.953125v5.902344zm0 0"/><path d="m161.269531 259.636719-5.109375-2.949219v5.898438zm0 0"/><path d="m171.484375 265.535156-5.105469-2.949218v5.898437zm0 0"/><path d="m176.59375 268.484375-5.109375-2.949219v5.898438zm0 0"/><path d="m181.703125 271.433594-5.109375-2.949219v5.898437zm0 0"/><path d="m202.136719 259.636719-5.109375-2.949219v5.898438zm0 0"/><path d="m212.355469 253.734375-5.109375-2.949219v5.902344zm0 0"/><path d="m227.679688 244.886719-5.109376-2.949219v5.898438zm0 0"/><path d="m232.789062 241.9375-5.109374-2.949219v5.898438zm0 0"/><path d="m237.898438 238.988281-5.109376-2.949219v5.898438zm0 0"/><path d="m268.550781 191.796875-5.109375-2.949219v5.898438zm0 0"/><path d="m268.550781 185.898438-5.109375-2.949219v5.898437zm0 0"/><path d="m268.550781 168.203125-5.109375-2.949219v5.898438zm0 0"/><path d="m268.550781 162.304688-5.109375-2.949219v5.898437zm0 0"/><path d="m268.550781 150.503906-5.109375-2.949218v5.898437zm0 0"/><path d="m268.550781 138.707031-5.109375-2.949219v5.898438zm0 0"/><path d="m258.332031 126.910156-5.109375-2.949218v5.898437zm0 0"/><path d="m253.222656 123.960938-5.109375-2.949219v5.898437zm0 0"/><path d="m248.113281 121.011719-5.105469-2.949219v5.898438zm0 0"/><path d="m243.007812 118.0625-5.109374-2.949219v5.898438zm0 0"/><path d="m237.898438 115.113281-5.109376-2.949219v5.898438zm0 0"/><path d="m222.570312 106.265625-5.105468-2.953125v5.902344zm0 0"/><path d="m197.027344 91.515625-5.105469-2.949219v5.898438zm0 0"/><path d="m191.921875 88.566406-5.109375-2.949218v5.898437zm0 0"/><path d="m161.269531 94.464844-5.109375-2.949219v5.898437zm0 0"/><path d="m156.160156 97.414062-5.109375-2.949218v5.898437zm0 0"/><path d="m135.726562 109.214844-5.109374-2.949219v5.898437zm0 0"/><path d="m130.617188 112.164062-5.109376-2.949218v5.898437zm0 0"/><path d="m120.398438 118.0625-5.105469-2.949219v5.898438zm0 0"/><path d="m105.074219 126.910156-5.109375-2.949218v5.898437zm0 0"/><path d="m99.964844 129.859375-5.109375-2.949219v5.898438zm0 0"/><path d="m99.964844 141.65625-5.109375-2.949219v5.898438zm0 0"/><path d="m99.964844 147.554688-5.109375-2.949219v5.898437zm0 0"/><path d="m99.964844 153.453125-5.109375-2.949219v5.902344zm0 0"/><path d="m99.964844 171.152344-5.109375-2.949219v5.898437zm0 0"/><path d="m99.964844 182.949219-5.109375-2.949219v5.898438zm0 0"/><path d="m99.964844 188.847656-5.109375-2.949218v5.898437zm0 0"/><path d="m99.964844 194.746094-5.109375-2.949219v5.898437zm0 0"/><path d="m99.964844 230.140625-5.109375-2.949219v5.898438zm0 0"/><path d="m125.507812 244.886719-5.109374-2.949219v5.898438zm0 0"/><path d="m130.617188 247.835938-5.109376-2.949219v5.898437zm0 0"/><path d="m135.726562 250.785156-5.109374-2.949218v5.898437zm0 0"/><path d="m151.050781 259.636719-5.109375-2.949219v5.898438zm0 0"/><path d="m156.160156 262.585938-5.109375-2.949219v5.898437zm0 0"/><path d="m161.269531 265.535156-5.109375-2.949218v5.898437zm0 0"/><path d="m197.027344 268.484375-5.105469-2.949219v5.898438zm0 0"/><path d="m202.136719 265.535156-5.109375-2.949218v5.898437zm0 0"/><path d="m207.246094 262.585938-5.109375-2.949219v5.898437zm0 0"/><path d="m232.789062 247.835938-5.109374-2.949219v5.898437zm0 0"/><path d="m258.332031 233.089844-5.109375-2.949219v5.898437zm0 0"/><path d="m273.65625 230.140625-5.105469-2.949219v5.898438zm0 0"/><path d="m273.65625 206.546875-5.105469-2.953125v5.902344zm0 0"/><path d="m273.65625 177.050781-5.105469-2.949219v5.898438zm0 0"/><path d="m273.65625 165.253906-5.105469-2.949218v5.898437zm0 0"/><path d="m273.65625 159.355469-5.105469-2.949219v5.898438zm0 0"/><path d="m273.65625 141.65625-5.105469-2.949219v5.898438zm0 0"/><path d="m273.65625 135.757812-5.105469-2.949218v5.898437zm0 0"/><path d="m273.65625 129.859375-5.105469-2.949219v5.898438zm0 0"/><path d="m268.550781 126.910156-5.109375-2.949218v5.898437zm0 0"/><path d="m263.441406 123.960938-5.109375-2.949219v5.898437zm0 0"/><path d="m248.113281 115.113281-5.105469-2.949219v5.898438zm0 0"/><path d="m237.898438 109.214844-5.109376-2.949219v5.898437zm0 0"/><path d="m232.789062 106.265625-5.109374-2.953125v5.902344zm0 0"/><path d="m227.679688 103.3125-5.109376-2.949219v5.902344zm0 0"/><path d="m222.570312 100.363281-5.105468-2.949219v5.898438zm0 0"/><path d="m217.464844 97.414062-5.109375-2.949218v5.898437zm0 0"/><path d="m202.136719 88.566406-5.109375-2.949218v5.898437zm0 0"/><path d="m197.027344 85.617188-5.105469-2.949219v5.898437zm0 0"/><path d="m191.921875 82.667969-5.109375-2.949219v5.898438zm0 0"/><path d="m181.703125 76.769531-5.109375-2.949219v5.898438zm0 0"/><path d="m166.378906 85.617188-5.109375-2.949219v5.898437zm0 0"/><path d="m145.941406 97.414062-5.105468-2.949218v5.898437zm0 0"/><path d="m140.835938 100.363281-5.109376-2.949219v5.898438zm0 0"/><path d="m135.726562 103.3125-5.109374-2.949219v5.902344zm0 0"/><path d="m125.507812 109.214844-5.109374-2.949219v5.898437zm0 0"/><path d="m105.074219 121.011719-5.109375-2.949219v5.898438zm0 0"/><path d="m99.964844 123.960938-5.109375-2.949219v5.898437zm0 0"/><path d="m94.855469 126.910156-5.105469-2.949218v5.898437zm0 0"/><path d="m94.855469 138.707031-5.105469-2.949219v5.898438zm0 0"/><path d="m94.855469 162.304688-5.105469-2.949219v5.898437zm0 0"/><path d="m94.855469 168.203125-5.105469-2.949219v5.898438zm0 0"/><path d="m94.855469 174.101562-5.105469-2.949218v5.898437zm0 0"/><path d="m94.855469 233.089844-5.105469-2.949219v5.898437zm0 0"/><path d="m99.964844 236.039062-5.109375-2.949218v5.898437zm0 0"/><path d="m105.074219 238.988281-5.109375-2.949219v5.898438zm0 0"/><path d="m115.292969 244.886719-5.109375-2.949219v5.898438zm0 0"/><path d="m130.617188 253.734375-5.109376-2.949219v5.902344zm0 0"/><path d="m135.726562 256.6875-5.109374-2.953125v5.902344zm0 0"/><path d="m140.835938 259.636719-5.109376-2.949219v5.898438zm0 0"/><path d="m145.941406 262.585938-5.105468-2.949219v5.898437zm0 0"/><path d="m156.160156 268.484375-5.109375-2.949219v5.898438zm0 0"/><path d="m161.269531 271.433594-5.109375-2.949219v5.898437zm0 0"/><path d="m171.484375 277.332031-5.105469-2.949219v5.898438zm0 0"/><path d="m191.921875 277.332031-5.109375-2.949219v5.898438zm0 0"/><path d="m197.027344 274.382812-5.105469-2.949218v5.898437zm0 0"/><path d="m202.136719 271.433594-5.109375-2.949219v5.898437zm0 0"/><path d="m207.246094 268.484375-5.109375-2.949219v5.898438zm0 0"/><path d="m212.355469 265.535156-5.109375-2.949218v5.898437zm0 0"/><path d="m248.113281 244.886719-5.105469-2.949219v5.898438zm0 0"/><path d="m278.765625 233.089844-5.109375-2.949219v5.898437zm0 0"/><path d="m278.765625 215.394531-5.109375-2.949219v5.898438zm0 0"/><path d="m278.765625 209.496094-5.109375-2.949219v5.898437zm0 0"/><path d="m278.765625 197.695312-5.109375-2.949218v5.898437zm0 0"/><path d="m278.765625 162.304688-5.109375-2.949219v5.898437zm0 0"/><path d="m278.765625 156.40625-5.109375-2.953125v5.902344zm0 0"/><path d="m278.765625 132.808594-5.109375-2.949219v5.898437zm0 0"/><path d="m273.65625 123.960938-5.105469-2.949219v5.898437zm0 0"/><path d="m268.550781 121.011719-5.109375-2.949219v5.898438zm0 0"/><path d="m263.441406 118.0625-5.109375-2.949219v5.898438zm0 0"/><path d="m253.222656 112.164062-5.109375-2.949218v5.898437zm0 0"/><path d="m248.113281 109.214844-5.105469-2.949219v5.898437zm0 0"/><path d="m237.898438 103.3125-5.109376-2.949219v5.902344zm0 0"/><path d="m222.570312 94.464844-5.105468-2.949219v5.898437zm0 0"/><path d="m217.464844 91.515625-5.109375-2.949219v5.898438zm0 0"/><path d="m207.246094 85.617188-5.109375-2.949219v5.898437zm0 0"/><path d="m202.136719 82.667969-5.109375-2.949219v5.898438zm0 0"/><path d="m186.8125 73.820312-5.109375-2.949218v5.898437zm0 0"/><path d="m181.703125 70.871094-5.109375-2.949219v5.898437zm0 0"/><path d="m176.59375 73.820312-5.109375-2.949218v5.898437zm0 0"/><path d="m171.484375 76.769531-5.105469-2.949219v5.898438zm0 0"/><path d="m166.378906 79.71875-5.109375-2.949219v5.898438zm0 0"/><path d="m161.269531 82.667969-5.109375-2.949219v5.898438zm0 0"/><path d="m151.050781 88.566406-5.109375-2.949218v5.898437zm0 0"/><path d="m145.941406 91.515625-5.105468-2.949219v5.898438zm0 0"/><path d="m140.835938 94.464844-5.109376-2.949219v5.898437zm0 0"/><path d="m130.617188 100.363281-5.109376-2.949219v5.898438zm0 0"/><path d="m120.398438 106.265625-5.105469-2.953125v5.902344zm0 0"/><path d="m115.292969 109.214844-5.109375-2.949219v5.898437zm0 0"/><path d="m94.855469 121.011719-5.105469-2.949219v5.898438zm0 0"/><path d="m89.75 141.65625-5.109375-2.949219v5.898438zm0 0"/><path d="m89.75 147.554688-5.109375-2.949219v5.898437zm0 0"/><path d="m89.75 153.453125-5.109375-2.949219v5.902344zm0 0"/><path d="m89.75 159.355469-5.109375-2.949219v5.898438zm0 0"/><path d="m89.75 177.050781-5.109375-2.949219v5.898438zm0 0"/><path d="m89.75 182.949219-5.109375-2.949219v5.898438zm0 0"/><path d="m89.75 212.445312-5.109375-2.949218v5.898437zm0 0"/><path d="m89.75 230.140625-5.109375-2.949219v5.898438zm0 0"/><path d="m94.855469 238.988281-5.105469-2.949219v5.898438zm0 0"/><path d="m99.964844 241.9375-5.109375-2.949219v5.898438zm0 0"/><path d="m115.292969 250.785156-5.109375-2.949218v5.898437zm0 0"/><path d="m135.726562 262.585938-5.109374-2.949219v5.898437zm0 0"/><path d="m145.941406 268.484375-5.105468-2.949219v5.898438zm0 0"/><path d="m171.484375 283.230469-5.105469-2.949219v5.898438zm0 0"/><path d="m176.59375 286.179688-5.109375-2.949219v5.898437zm0 0"/><path d="m191.921875 283.230469-5.109375-2.949219v5.898438zm0 0"/><path d="m217.464844 268.484375-5.109375-2.949219v5.898438zm0 0"/><path d="m222.570312 265.535156-5.105468-2.949218v5.898437zm0 0"/><path d="m227.679688 262.585938-5.109376-2.949219v5.898437zm0 0"/><path d="m232.789062 259.636719-5.109374-2.949219v5.898438zm0 0"/><path d="m248.113281 250.785156-5.105469-2.949218v5.898437zm0 0"/><path d="m258.332031 244.886719-5.109375-2.949219v5.898438zm0 0"/><path d="m263.441406 241.9375-5.109375-2.949219v5.898438zm0 0"/><path d="m273.65625 236.039062-5.105469-2.949218v5.898437zm0 0"/><path d="m283.875 224.242188-5.109375-2.949219v5.898437zm0 0"/><path d="m283.875 212.445312-5.109375-2.949218v5.898437zm0 0"/><path d="m283.875 200.644531-5.109375-2.949219v5.898438zm0 0"/><path d="m283.875 194.746094-5.109375-2.949219v5.898437zm0 0"/><path d="m283.875 182.949219-5.109375-2.949219v5.898438zm0 0"/><path d="m283.875 171.152344-5.109375-2.949219v5.898437zm0 0"/><path d="m283.875 153.453125-5.109375-2.949219v5.902344zm0 0"/><path d="m283.875 135.757812-5.109375-2.949218v5.898437zm0 0"/><path d="m283.875 123.960938-5.109375-2.949219v5.898437zm0 0"/><path d="m273.65625 118.0625-5.105469-2.949219v5.898438zm0 0"/><path d="m268.550781 115.113281-5.109375-2.949219v5.898438zm0 0"/><path d="m227.679688 91.515625-5.109376-2.949219v5.898438zm0 0"/><path d="m222.570312 88.566406-5.105468-2.949218v5.898437zm0 0"/><path d="m212.355469 82.667969-5.109375-2.949219v5.898438zm0 0"/><path d="m202.136719 76.769531-5.109375-2.949219v5.898438zm0 0"/><path d="m191.921875 70.871094-5.109375-2.949219v5.898437zm0 0"/><path d="m176.59375 67.921875-5.109375-2.949219v5.898438zm0 0"/><path d="m171.484375 70.871094-5.105469-2.949219v5.898437zm0 0"/><path d="m166.378906 73.820312-5.109375-2.949218v5.898437zm0 0"/><path d="m156.160156 79.71875-5.109375-2.949219v5.898438zm0 0"/><path d="m151.050781 82.667969-5.109375-2.949219v5.898438zm0 0"/><path d="m145.941406 85.617188-5.105468-2.949219v5.898437zm0 0"/><path d="m130.617188 94.464844-5.109376-2.949219v5.898437zm0 0"/><path d="m115.292969 103.3125-5.109375-2.949219v5.902344zm0 0"/><path d="m84.640625 132.808594-5.109375-2.949219v5.898437zm0 0"/><path d="m84.640625 162.304688-5.109375-2.949219v5.898437zm0 0"/><path d="m84.640625 168.203125-5.109375-2.949219v5.898438zm0 0"/><path d="m84.640625 221.292969-5.109375-2.949219v5.898438zm0 0"/><path d="m89.75 241.9375-5.109375-2.949219v5.898438zm0 0"/><path d="m94.855469 244.886719-5.105469-2.949219v5.898438zm0 0"/><path d="m99.964844 247.835938-5.109375-2.949219v5.898437zm0 0"/><path d="m105.074219 250.785156-5.109375-2.949218v5.898437zm0 0"/><path d="m110.183594 253.734375-5.109375-2.949219v5.902344zm0 0"/><path d="m125.507812 262.585938-5.109374-2.949219v5.898437zm0 0"/><path d="m151.050781 277.332031-5.109375-2.949219v5.898438zm0 0"/><path d="m156.160156 280.28125-5.109375-2.949219v5.898438zm0 0"/><path d="m161.269531 283.230469-5.109375-2.949219v5.898438zm0 0"/><path d="m217.464844 274.382812-5.109375-2.949218v5.898437zm0 0"/><path d="m222.570312 271.433594-5.105468-2.949219v5.898437zm0 0"/><path d="m227.679688 268.484375-5.109376-2.949219v5.898438zm0 0"/><path d="m232.789062 265.535156-5.109374-2.949218v5.898437zm0 0"/><path d="m243.007812 259.636719-5.109374-2.949219v5.898438zm0 0"/><path d="m248.113281 256.6875-5.105469-2.953125v5.902344zm0 0"/><path d="m253.222656 253.734375-5.109375-2.949219v5.902344zm0 0"/><path d="m258.332031 250.785156-5.109375-2.949218v5.898437zm0 0"/><path d="m278.765625 238.988281-5.109375-2.949219v5.898438zm0 0"/><path d="m288.984375 227.191406-5.109375-2.949218v5.898437zm0 0"/><path d="m288.984375 221.292969-5.109375-2.949219v5.898438zm0 0"/><path d="m288.984375 215.394531-5.109375-2.949219v5.898438zm0 0"/><path d="m288.984375 185.898438-5.109375-2.949219v5.898437zm0 0"/><path d="m288.984375 168.203125-5.109375-2.949219v5.898438zm0 0"/><path d="m288.984375 156.40625-5.109375-2.953125v5.902344zm0 0"/><path d="m288.984375 132.808594-5.109375-2.949219v5.898437zm0 0"/><path d="m288.984375 126.910156-5.109375-2.949218v5.898437zm0 0"/><path d="m278.765625 115.113281-5.109375-2.949219v5.898438zm0 0"/><path d="m273.65625 112.164062-5.105469-2.949218v5.898437zm0 0"/><path d="m268.550781 109.214844-5.109375-2.949219v5.898437zm0 0"/><path d="m258.332031 103.3125-5.109375-2.949219v5.902344zm0 0"/><path d="m253.222656 100.363281-5.109375-2.949219v5.898438zm0 0"/><path d="m248.113281 97.414062-5.105469-2.949218v5.898437zm0 0"/><path d="m237.898438 91.515625-5.109376-2.949219v5.898438zm0 0"/><path d="m217.464844 79.71875-5.109375-2.949219v5.898438zm0 0"/><path d="m197.027344 67.921875-5.105469-2.949219v5.898438zm0 0"/><path d="m191.921875 64.972656-5.109375-2.949218v5.898437zm0 0"/><path d="m171.484375 64.972656-5.105469-2.949218v5.898437zm0 0"/><path d="m161.269531 70.871094-5.109375-2.949219v5.898437zm0 0"/><path d="m156.160156 73.820312-5.109375-2.949218v5.898437zm0 0"/><path d="m151.050781 76.769531-5.109375-2.949219v5.898438zm0 0"/><path d="m140.835938 82.667969-5.109376-2.949219v5.898438zm0 0"/><path d="m79.53125 159.355469-5.109375-2.949219v5.898438zm0 0"/><path d="m79.53125 194.746094-5.109375-2.949219v5.898437zm0 0"/><path d="m89.75 247.835938-5.109375-2.949219v5.898437zm0 0"/><path d="m94.855469 250.785156-5.105469-2.949218v5.898437zm0 0"/><path d="m105.074219 256.6875-5.109375-2.953125v5.902344zm0 0"/><path d="m156.160156 286.179688-5.109375-2.949219v5.898437zm0 0"/><path d="m227.679688 274.382812-5.109376-2.949218v5.898437zm0 0"/><path d="m237.898438 268.484375-5.109376-2.949219v5.898438zm0 0"/><path d="m243.007812 265.535156-5.109374-2.949218v5.898437zm0 0"/><path d="m253.222656 259.636719-5.109375-2.949219v5.898438zm0 0"/><path d="m268.550781 250.785156-5.109375-2.949218v5.898437zm0 0"/><path d="m278.765625 244.886719-5.109375-2.949219v5.898438zm0 0"/><path d="m283.875 241.9375-5.109375-2.949219v5.898438zm0 0"/><path d="m294.09375 224.242188-5.109375-2.949219v5.898437zm0 0"/><path d="m294.09375 218.34375-5.109375-2.949219v5.898438zm0 0"/><path d="m294.09375 194.746094-5.109375-2.949219v5.898437zm0 0"/><path d="m294.09375 188.847656-5.109375-2.949218v5.898437zm0 0"/><path d="m294.09375 182.949219-5.109375-2.949219v5.898438zm0 0"/><path d="m294.09375 171.152344-5.109375-2.949219v5.898437zm0 0"/><path d="m294.09375 165.253906-5.109375-2.949218v5.898437zm0 0"/><path d="m294.09375 135.757812-5.109375-2.949218v5.898437zm0 0"/><path d="m273.65625 106.265625-5.105469-2.953125v5.902344zm0 0"/><path d="m258.332031 97.414062-5.109375-2.949218v5.898437zm0 0"/><path d="m253.222656 94.464844-5.109375-2.949219v5.898437zm0 0"/><path d="m248.113281 91.515625-5.105469-2.949219v5.898438zm0 0"/><path d="m237.898438 85.617188-5.109376-2.949219v5.898437zm0 0"/><path d="m207.246094 67.921875-5.109375-2.949219v5.898438zm0 0"/><path d="m156.160156 67.921875-5.109375-2.949219v5.898438zm0 0"/><path d="m151.050781 70.871094-5.109375-2.949219v5.898437zm0 0"/><path d="m145.941406 73.820312-5.105468-2.949218v5.898437zm0 0"/><path d="m140.835938 76.769531-5.109376-2.949219v5.898438zm0 0"/><path d="m135.726562 79.71875-5.109374-2.949219v5.898438zm0 0"/><path d="m105.074219 262.585938-5.109375-2.949219v5.898437zm0 0"/><path d="m110.183594 265.535156-5.109375-2.949218v5.898437zm0 0"/><path d="m243.007812 271.433594-5.109374-2.949219v5.898437zm0 0"/><path d="m248.113281 268.484375-5.105469-2.949219v5.898438zm0 0"/><path d="m258.332031 262.585938-5.109375-2.949219v5.898437zm0 0"/><path d="m263.441406 259.636719-5.109375-2.949219v5.898438zm0 0"/><path d="m268.550781 256.6875-5.109375-2.953125v5.902344zm0 0"/><path d="m273.65625 253.734375-5.105469-2.949219v5.902344zm0 0"/><path d="m278.765625 250.785156-5.109375-2.949218v5.898437zm0 0"/><path d="m299.199219 221.292969-5.105469-2.949219v5.898438zm0 0"/><path d="m299.199219 215.394531-5.105469-2.949219v5.898438zm0 0"/><path d="m299.199219 197.695312-5.105469-2.949218v5.898437zm0 0"/><path d="m299.199219 191.796875-5.105469-2.949219v5.898438zm0 0"/><path d="m299.199219 174.101562-5.105469-2.949218v5.898437zm0 0"/><path d="m299.199219 156.40625-5.105469-2.953125v5.902344zm0 0"/><path d="m299.199219 150.503906-5.105469-2.949218v5.898437zm0 0"/><path d="m299.199219 144.605469-5.105469-2.949219v5.898438zm0 0"/><path d="m299.199219 138.707031-5.105469-2.949219v5.898438zm0 0"/><path d="m268.550781 97.414062-5.109375-2.949218v5.898437zm0 0"/><path d="m263.441406 94.464844-5.109375-2.949219v5.898437zm0 0"/><path d="m171.484375 53.171875-5.105469-2.949219v5.898438zm0 0"/><path d="m166.378906 56.121094-5.109375-2.949219v5.902344zm0 0"/><path d="m99.964844 265.535156-5.109375-2.949218v5.898437zm0 0"/><path d="m105.074219 268.484375-5.109375-2.949219v5.898438zm0 0"/><path d="m110.183594 271.433594-5.109375-2.949219v5.898437zm0 0"/><path d="m227.679688 286.179688-5.109376-2.949219v5.898437zm0 0"/><path d="m232.789062 283.230469-5.109374-2.949219v5.898438zm0 0"/><path d="m237.898438 280.28125-5.109376-2.949219v5.898438zm0 0"/><path d="m243.007812 277.332031-5.109374-2.949219v5.898438zm0 0"/><path d="m248.113281 274.382812-5.105469-2.949218v5.898437zm0 0"/><path d="m253.222656 271.433594-5.109375-2.949219v5.898437zm0 0"/><path d="m263.441406 265.535156-5.109375-2.949218v5.898437zm0 0"/><path d="m268.550781 262.585938-5.109375-2.949219v5.898437zm0 0"/><path d="m273.65625 259.636719-5.105469-2.949219v5.898438zm0 0"/><path d="m304.308594 218.34375-5.109375-2.949219v5.898438zm0 0"/><path d="m304.308594 177.050781-5.109375-2.949219v5.898438zm0 0"/><path d="m304.308594 159.355469-5.109375-2.949219v5.898438zm0 0"/><path d="m166.378906 50.222656-5.109375-2.949218v5.898437zm0 0"/><path d="m156.160156 56.121094-5.109375-2.949219v5.902344zm0 0"/><path d="m227.679688 292.078125-5.109376-2.949219v5.898438zm0 0"/><path d="m237.898438 286.179688-5.109376-2.949219v5.898437zm0 0"/><path d="m243.007812 283.230469-5.109374-2.949219v5.898438zm0 0"/><path d="m248.113281 280.28125-5.105469-2.949219v5.898438zm0 0"/><path d="m253.222656 277.332031-5.109375-2.949219v5.898438zm0 0"/><path d="m258.332031 274.382812-5.109375-2.949218v5.898437zm0 0"/><path d="m309.417969 156.40625-5.109375-2.953125v5.902344zm0 0"/><path d="m151.050781 53.171875-5.109375-2.949219v5.898438zm0 0"/><path d="m145.941406 56.121094-5.105468-2.949219v5.902344zm0 0"/><path d="m145.941406 50.222656-5.105468-2.949218v5.898437zm0 0"/></g></svg>