<svg height="360pt" viewBox="0 0 360 360" width="360pt" xmlns="http://www.w3.org/2000/svg"><path d="m0 0h360v360h-360z" fill="#fff"/><g fill="#800080"><path d="m175.582031 180 6.628907-3.828125v7.65625zm0 0"/><path d="m175.582031 172.347656 6.628907-3.828125v7.652344zm0 0"/><path d="m168.953125 176.171875 6.628906-3.824219v7.652344zm0 0"/><path d="m168.953125 183.828125 6.628906-3.828125v7.652344zm0 0"/><path d="m188.835938 187.652344 6.628906-3.824219v7.652344zm0 0"/><path d="m188.835938 180 6.628906-3.828125v7.65625zm0 0"/><path d="m188.835938 172.347656 6.628906-3.828125v7.652344zm0 0"/><path d="m182.210938 168.519531 6.625-3.824219v7.652344zm0 0"/><path d="m175.582031 164.695312 6.628907-3.828124v7.652343zm0 0"/><path d="m162.324219 172.347656 6.628906-3.828125v7.652344zm0 0"/><path d="m162.324219 180 6.628906-3.828125v7.65625zm0 0"/><path d="m175.582031 195.304688 6.628907-3.824219v7.652343zm0 0"/><path d="m195.464844 191.480469 6.628906-3.828125v7.652344zm0 0"/><path d="m195.464844 183.828125 6.628906-3.828125v7.652344zm0 0"/><path d="m195.464844 176.171875 6.628906-3.824219v7.652344zm0 0"/><path d="m188.835938 164.695312 6.628906-3.828124v7.652343zm0 0"/><path d="m162.324219 164.695312 6.628906-3.828124v7.652343zm0 0"/><path d="m155.699219 183.828125 6.625-3.828125v7.652344zm0 0"/><path d="m155.699219 191.480469 6.625-3.828125v7.652344zm0 0"/><path d="m162.324219 195.304688 6.628906-3.824219v7.652343zm0 0"/><path d="m175.582031 202.960938 6.628907-3.828126v7.652344zm0 0"/><path d="m188.835938 195.304688 6.628906-3.824219v7.652343zm0 0"/><path d="m202.09375 195.304688 6.628906-3.824219v7.652343zm0 0"/><path d="m202.09375 187.652344 6.628906-3.824219v7.652344zm0 0"/><path d="m202.09375 164.695312 6.628906-3.828124v7.652343zm0 0"/><path d="m188.835938 157.039062 6.628906-3.824218v7.652344zm0 0"/><path d="m182.210938 153.214844 6.625-3.828125v7.652343zm0 0"/><path d="m162.324219 157.039062 6.628906-3.824218v7.652344zm0 0"/><path d="m149.070312 172.347656 6.628907-3.828125v7.652344zm0 0"/><path d="m149.070312 187.652344 6.628907-3.824219v7.652344zm0 0"/><path d="m155.699219 199.132812 6.625-3.828124v7.65625zm0 0"/><path d="m162.324219 202.960938 6.628906-3.828126v7.652344zm0 0"/><path d="m175.582031 210.613281 6.628907-3.828125v7.65625zm0 0"/><path d="m195.464844 199.132812 6.628906-3.828124v7.65625zm0 0"/><path d="m208.722656 199.132812 6.625-3.828124v7.65625zm0 0"/><path d="m208.722656 191.480469 6.625-3.828125v7.652344zm0 0"/><path d="m208.722656 183.828125 6.625-3.828125v7.652344zm0 0"/><path d="m208.722656 160.867188 6.625-3.828126v7.65625zm0 0"/><path d="m202.09375 157.039062 6.628906-3.824218v7.652344zm0 0"/><path d="m195.464844 153.214844 6.628906-3.828125v7.652343zm0 0"/><path d="m188.835938 149.386719 6.628906-3.828125v7.65625zm0 0"/><path d="m182.210938 145.558594 6.625-3.824219v7.652344zm0 0"/><path d="m162.324219 149.386719 6.628906-3.828125v7.65625zm0 0"/><path d="m142.441406 199.132812 6.628906-3.828124v7.65625zm0 0"/><path d="m155.699219 206.785156 6.625-3.824218v7.652343zm0 0"/><path d="m162.324219 210.613281 6.628906-3.828125v7.65625zm0 0"/><path d="m175.582031 218.265625 6.628907-3.824219v7.652344zm0 0"/><path d="m182.210938 214.441406 6.625-3.828125v7.652344zm0 0"/><path d="m188.835938 210.613281 6.628906-3.828125v7.65625zm0 0"/><path d="m202.09375 202.960938 6.628906-3.828126v7.652344zm0 0"/><path d="m215.347656 202.960938 6.628906-3.828126v7.652344zm0 0"/><path d="m215.347656 195.304688 6.628906-3.824219v7.652343zm0 0"/><path d="m215.347656 187.652344 6.628906-3.824219v7.652344zm0 0"/><path d="m215.347656 180 6.628906-3.828125v7.65625zm0 0"/><path d="m215.347656 172.347656 6.628906-3.828125v7.652344zm0 0"/><path d="m215.347656 157.039062 6.628906-3.824218v7.652344zm0 0"/><path d="m208.722656 153.214844 6.625-3.828125v7.652343zm0 0"/><path d="m202.09375 149.386719 6.628906-3.828125v7.65625zm0 0"/><path d="m195.464844 145.558594 6.628906-3.824219v7.652344zm0 0"/><path d="m188.835938 141.734375 6.628906-3.828125v7.652344zm0 0"/><path d="m182.210938 137.90625 6.625-3.824219v7.652344zm0 0"/><path d="m175.582031 134.082031 6.628907-3.828125v7.652344zm0 0"/><path d="m168.953125 137.90625 6.628906-3.824219v7.652344zm0 0"/><path d="m162.324219 141.734375 6.628906-3.828125v7.652344zm0 0"/><path d="m155.699219 145.558594 6.625-3.824219v7.652344zm0 0"/><path d="m135.8125 157.039062 6.628906-3.824218v7.652344zm0 0"/><path d="m135.8125 164.695312 6.628906-3.828124v7.652343zm0 0"/><path d="m168.953125 222.09375 6.628906-3.828125v7.652344zm0 0"/><path d="m175.582031 225.917969 6.628907-3.824219v7.652344zm0 0"/><path d="m188.835938 218.265625 6.628906-3.824219v7.652344zm0 0"/><path d="m195.464844 214.441406 6.628906-3.828125v7.652344zm0 0"/><path d="m202.09375 210.613281 6.628906-3.828125v7.65625zm0 0"/><path d="m208.722656 206.785156 6.625-3.824218v7.652343zm0 0"/><path d="m221.976562 183.828125 6.628907-3.828125v7.652344zm0 0"/><path d="m221.976562 168.519531 6.628907-3.824219v7.652344zm0 0"/><path d="m215.347656 149.386719 6.628906-3.828125v7.65625zm0 0"/><path d="m208.722656 145.558594 6.625-3.824219v7.652344zm0 0"/><path d="m202.09375 141.734375 6.628906-3.828125v7.652344zm0 0"/><path d="m195.464844 137.90625 6.628906-3.824219v7.652344zm0 0"/><path d="m188.835938 134.082031 6.628906-3.828125v7.652344zm0 0"/><path d="m182.210938 130.253906 6.625-3.828125v7.65625zm0 0"/><path d="m168.953125 130.253906 6.628906-3.828125v7.65625zm0 0"/><path d="m162.324219 134.082031 6.628906-3.828125v7.652344zm0 0"/><path d="m155.699219 137.90625 6.625-3.824219v7.652344zm0 0"/><path d="m149.070312 141.734375 6.628907-3.828125v7.652344zm0 0"/><path d="m129.1875 160.867188 6.625-3.828126v7.65625zm0 0"/><path d="m129.1875 168.519531 6.625-3.824219v7.652344zm0 0"/><path d="m129.1875 176.171875 6.625-3.824219v7.652344zm0 0"/><path d="m129.1875 206.785156 6.625-3.824218v7.652343zm0 0"/><path d="m135.8125 210.613281 6.628906-3.828125v7.65625zm0 0"/><path d="m142.441406 214.441406 6.628906-3.828125v7.652344zm0 0"/><path d="m155.699219 222.09375 6.625-3.828125v7.652344zm0 0"/><path d="m175.582031 233.574219 6.628907-3.828125v7.652344zm0 0"/><path d="m182.210938 229.746094 6.625-3.828125v7.65625zm0 0"/><path d="m188.835938 225.917969 6.628906-3.824219v7.652344zm0 0"/><path d="m195.464844 222.09375 6.628906-3.828125v7.652344zm0 0"/><path d="m202.09375 218.265625 6.628906-3.824219v7.652344zm0 0"/><path d="m228.605469 195.304688 6.628906-3.824219v7.652343zm0 0"/><path d="m228.605469 187.652344 6.628906-3.824219v7.652344zm0 0"/><path d="m228.605469 180 6.628906-3.828125v7.65625zm0 0"/><path d="m228.605469 164.695312 6.628906-3.828124v7.652343zm0 0"/><path d="m228.605469 149.386719 6.628906-3.828125v7.65625zm0 0"/><path d="m221.976562 145.558594 6.628907-3.824219v7.652344zm0 0"/><path d="m208.722656 137.90625 6.625-3.824219v7.652344zm0 0"/><path d="m202.09375 134.082031 6.628906-3.828125v7.652344zm0 0"/><path d="m195.464844 130.253906 6.628906-3.828125v7.65625zm0 0"/><path d="m188.835938 126.425781 6.628906-3.824219v7.652344zm0 0"/><path d="m182.210938 122.601562 6.625-3.828124v7.652343zm0 0"/><path d="m162.324219 126.425781 6.628906-3.824219v7.652344zm0 0"/><path d="m122.558594 164.695312 6.628906-3.828124v7.652343zm0 0"/><path d="m122.558594 172.347656 6.628906-3.828125v7.652344zm0 0"/><path d="m122.558594 180 6.628906-3.828125v7.65625zm0 0"/><path d="m122.558594 187.652344 6.628906-3.824219v7.652344zm0 0"/><path d="m122.558594 195.304688 6.628906-3.824219v7.652343zm0 0"/><path d="m122.558594 210.613281 6.628906-3.828125v7.65625zm0 0"/><path d="m142.441406 222.09375 6.628906-3.828125v7.652344zm0 0"/><path d="m149.070312 225.917969 6.628907-3.824219v7.652344zm0 0"/><path d="m155.699219 229.746094 6.625-3.828125v7.65625zm0 0"/><path d="m162.324219 233.574219 6.628906-3.828125v7.652344zm0 0"/><path d="m168.953125 237.398438 6.628906-3.824219v7.652343zm0 0"/><path d="m202.09375 225.917969 6.628906-3.824219v7.652344zm0 0"/><path d="m208.722656 222.09375 6.625-3.828125v7.652344zm0 0"/><path d="m235.234375 199.132812 6.625-3.828124v7.65625zm0 0"/><path d="m235.234375 191.480469 6.625-3.828125v7.652344zm0 0"/><path d="m235.234375 183.828125 6.625-3.828125v7.652344zm0 0"/><path d="m235.234375 176.171875 6.625-3.824219v7.652344zm0 0"/><path d="m235.234375 168.519531 6.625-3.824219v7.652344zm0 0"/><path d="m235.234375 160.867188 6.625-3.828126v7.65625zm0 0"/><path d="m228.605469 141.734375 6.628906-3.828125v7.652344zm0 0"/><path d="m221.976562 137.90625 6.628907-3.824219v7.652344zm0 0"/><path d="m215.347656 134.082031 6.628906-3.828125v7.652344zm0 0"/><path d="m208.722656 130.253906 6.625-3.828125v7.65625zm0 0"/><path d="m202.09375 126.425781 6.628906-3.824219v7.652344zm0 0"/><path d="m195.464844 122.601562 6.628906-3.828124v7.652343zm0 0"/><path d="m188.835938 118.773438 6.628906-3.828126v7.65625zm0 0"/><path d="m182.210938 114.945312 6.625-3.824218v7.652344zm0 0"/><path d="m155.699219 122.601562 6.625-3.828124v7.652343zm0 0"/><path d="m149.070312 126.425781 6.628907-3.824219v7.652344zm0 0"/><path d="m115.929688 168.519531 6.628906-3.824219v7.652344zm0 0"/><path d="m115.929688 176.171875 6.628906-3.824219v7.652344zm0 0"/><path d="m115.929688 183.828125 6.628906-3.828125v7.652344zm0 0"/><path d="m115.929688 191.480469 6.628906-3.828125v7.652344zm0 0"/><path d="m115.929688 199.132812 6.628906-3.828124v7.65625zm0 0"/><path d="m115.929688 206.785156 6.628906-3.824218v7.652343zm0 0"/><path d="m129.1875 222.09375 6.625-3.828125v7.652344zm0 0"/><path d="m135.8125 225.917969 6.628906-3.824219v7.652344zm0 0"/><path d="m142.441406 229.746094 6.628906-3.828125v7.65625zm0 0"/><path d="m149.070312 233.574219 6.628907-3.828125v7.652344zm0 0"/><path d="m162.324219 241.226562 6.628906-3.828124v7.65625zm0 0"/><path d="m195.464844 237.398438 6.628906-3.824219v7.652343zm0 0"/><path d="m202.09375 233.574219 6.628906-3.828125v7.652344zm0 0"/><path d="m215.347656 225.917969 6.628906-3.824219v7.652344zm0 0"/><path d="m228.605469 218.265625 6.628906-3.824219v7.652344zm0 0"/><path d="m241.859375 218.265625 6.628906-3.824219v7.652344zm0 0"/><path d="m241.859375 210.613281 6.628906-3.828125v7.65625zm0 0"/><path d="m241.859375 202.960938 6.628906-3.828126v7.652344zm0 0"/><path d="m241.859375 187.652344 6.628906-3.824219v7.652344zm0 0"/><path d="m241.859375 180 6.628906-3.828125v7.65625zm0 0"/><path d="m241.859375 172.347656 6.628906-3.828125v7.652344zm0 0"/><path d="m241.859375 157.039062 6.628906-3.824218v7.652344zm0 0"/><path d="m241.859375 149.386719 6.628906-3.828125v7.65625zm0 0"/><path d="m235.234375 137.90625 6.625-3.824219v7.652344zm0 0"/><path d="m221.976562 130.253906 6.628907-3.828125v7.65625zm0 0"/><path d="m215.347656 126.425781 6.628906-3.824219v7.652344zm0 0"/><path d="m202.09375 118.773438 6.628906-3.828126v7.65625zm0 0"/><path d="m195.464844 114.945312 6.628906-3.824218v7.652344zm0 0"/><path d="m188.835938 111.121094 6.628906-3.828125v7.652343zm0 0"/><path d="m182.210938 107.292969 6.625-3.824219v7.652344zm0 0"/><path d="m175.582031 103.46875 6.628907-3.828125v7.652344zm0 0"/><path d="m168.953125 107.292969 6.628906-3.824219v7.652344zm0 0"/><path d="m162.324219 111.121094 6.628906-3.828125v7.652343zm0 0"/><path d="m155.699219 114.945312 6.625-3.824218v7.652344zm0 0"/><path d="m149.070312 118.773438 6.628907-3.828126v7.65625zm0 0"/><path d="m142.441406 122.601562 6.628906-3.828124v7.652343zm0 0"/><path d="m135.8125 126.425781 6.628906-3.824219v7.652344zm0 0"/><path d="m109.300781 157.039062 6.628907-3.824218v7.652344zm0 0"/><path d="m109.300781 164.695312 6.628907-3.828124v7.652343zm0 0"/><path d="m109.300781 172.347656 6.628907-3.828125v7.652344zm0 0"/><path d="m109.300781 187.652344 6.628907-3.824219v7.652344zm0 0"/><path d="m109.300781 195.304688 6.628907-3.824219v7.652343zm0 0"/><path d="m109.300781 202.960938 6.628907-3.828126v7.652344zm0 0"/><path d="m109.300781 210.613281 6.628907-3.828125v7.65625zm0 0"/><path d="m109.300781 218.265625 6.628907-3.824219v7.652344zm0 0"/><path d="m115.929688 222.09375 6.628906-3.828125v7.652344zm0 0"/><path d="m122.558594 225.917969 6.628906-3.824219v7.652344zm0 0"/><path d="m129.1875 229.746094 6.625-3.828125v7.65625zm0 0"/><path d="m149.070312 241.226562 6.628907-3.828124v7.65625zm0 0"/><path d="m155.699219 245.054688 6.625-3.828126v7.652344zm0 0"/><path d="m168.953125 252.707031 6.628906-3.828125v7.652344zm0 0"/><path d="m175.582031 256.53125 6.628907-3.824219v7.652344zm0 0"/><path d="m182.210938 252.707031 6.625-3.828125v7.652344zm0 0"/><path d="m188.835938 248.878906 6.628906-3.824218v7.652343zm0 0"/><path d="m215.347656 233.574219 6.628906-3.828125v7.652344zm0 0"/><path d="m228.605469 225.917969 6.628906-3.824219v7.652344zm0 0"/><path d="m235.234375 222.09375 6.625-3.828125v7.652344zm0 0"/><path d="m248.488281 222.09375 6.628907-3.828125v7.652344zm0 0"/><path d="m248.488281 214.441406 6.628907-3.828125v7.652344zm0 0"/><path d="m248.488281 206.785156 6.628907-3.824218v7.652343zm0 0"/><path d="m248.488281 176.171875 6.628907-3.824219v7.652344zm0 0"/><path d="m248.488281 168.519531 6.628907-3.824219v7.652344zm0 0"/><path d="m248.488281 160.867188 6.628907-3.828126v7.65625zm0 0"/><path d="m248.488281 153.214844 6.628907-3.828125v7.652343zm0 0"/><path d="m248.488281 145.558594 6.628907-3.824219v7.652344zm0 0"/><path d="m248.488281 137.90625 6.628907-3.824219v7.652344zm0 0"/><path d="m235.234375 130.253906 6.625-3.828125v7.65625zm0 0"/><path d="m228.605469 126.425781 6.628906-3.824219v7.652344zm0 0"/><path d="m221.976562 122.601562 6.628907-3.828124v7.652343zm0 0"/><path d="m208.722656 114.945312 6.625-3.824218v7.652344zm0 0"/><path d="m188.835938 103.46875 6.628906-3.828125v7.652344zm0 0"/><path d="m155.699219 107.292969 6.625-3.824219v7.652344zm0 0"/><path d="m149.070312 111.121094 6.628907-3.828125v7.652343zm0 0"/><path d="m135.8125 118.773438 6.628906-3.828126v7.65625zm0 0"/><path d="m129.1875 122.601562 6.625-3.828124v7.652343zm0 0"/><path d="m102.671875 137.90625 6.628906-3.824219v7.652344zm0 0"/><path d="m102.671875 153.214844 6.628906-3.828125v7.652343zm0 0"/><path d="m102.671875 160.867188 6.628906-3.828126v7.65625zm0 0"/><path d="m102.671875 168.519531 6.628906-3.824219v7.652344zm0 0"/><path d="m102.671875 191.480469 6.628906-3.828125v7.652344zm0 0"/><path d="m102.671875 199.132812 6.628906-3.828124v7.65625zm0 0"/><path d="m102.671875 206.785156 6.628906-3.824218v7.652343zm0 0"/><path d="m102.671875 214.441406 6.628906-3.828125v7.652344zm0 0"/><path d="m115.929688 229.746094 6.628906-3.828125v7.65625zm0 0"/><path d="m122.558594 233.574219 6.628906-3.828125v7.652344zm0 0"/><path d="m135.8125 241.226562 6.628906-3.828124v7.65625zm0 0"/><path d="m142.441406 245.054688 6.628906-3.828126v7.652344zm0 0"/><path d="m155.699219 252.707031 6.625-3.828125v7.652344zm0 0"/><path d="m168.953125 260.359375 6.628906-3.828125v7.65625zm0 0"/><path d="m175.582031 264.1875 6.628907-3.828125v7.652344zm0 0"/><path d="m182.210938 260.359375 6.625-3.828125v7.65625zm0 0"/><path d="m188.835938 256.53125 6.628906-3.824219v7.652344zm0 0"/><path d="m195.464844 252.707031 6.628906-3.828125v7.652344zm0 0"/><path d="m202.09375 248.878906 6.628906-3.824218v7.652343zm0 0"/><path d="m235.234375 229.746094 6.625-3.828125v7.65625zm0 0"/><path d="m241.859375 225.917969 6.628906-3.824219v7.652344zm0 0"/><path d="m255.117188 218.265625 6.628906-3.824219v7.652344zm0 0"/><path d="m255.117188 210.613281 6.628906-3.828125v7.65625zm0 0"/><path d="m255.117188 202.960938 6.628906-3.828126v7.652344zm0 0"/><path d="m255.117188 180 6.628906-3.828125v7.65625zm0 0"/><path d="m255.117188 172.347656 6.628906-3.828125v7.652344zm0 0"/><path d="m255.117188 164.695312 6.628906-3.828124v7.652343zm0 0"/><path d="m255.117188 157.039062 6.628906-3.824218v7.652344zm0 0"/><path d="m255.117188 149.386719 6.628906-3.828125v7.65625zm0 0"/><path d="m255.117188 134.082031 6.628906-3.828125v7.652344zm0 0"/><path d="m241.859375 126.425781 6.628906-3.824219v7.652344zm0 0"/><path d="m235.234375 122.601562 6.625-3.828124v7.652343zm0 0"/><path d="m228.605469 118.773438 6.628906-3.828126v7.65625zm0 0"/><path d="m215.347656 111.121094 6.628906-3.828125v7.652343zm0 0"/><path d="m208.722656 107.292969 6.625-3.824219v7.652344zm0 0"/><path d="m202.09375 103.46875 6.628906-3.828125v7.652344zm0 0"/><path d="m195.464844 99.640625 6.628906-3.828125v7.65625zm0 0"/><path d="m129.1875 114.945312 6.625-3.824218v7.652344zm0 0"/><path d="m122.558594 118.773438 6.628906-3.828126v7.65625zm0 0"/><path d="m102.671875 130.253906 6.628906-3.828125v7.65625zm0 0"/><path d="m96.046875 134.082031 6.625-3.828125v7.652344zm0 0"/><path d="m96.046875 157.039062 6.625-3.824218v7.652344zm0 0"/><path d="m96.046875 172.347656 6.625-3.828125v7.652344zm0 0"/><path d="m96.046875 195.304688 6.625-3.824219v7.652343zm0 0"/><path d="m102.671875 229.746094 6.628906-3.828125v7.65625zm0 0"/><path d="m135.8125 248.878906 6.628906-3.824218v7.652343zm0 0"/><path d="m142.441406 252.707031 6.628906-3.828125v7.652344zm0 0"/><path d="m149.070312 256.53125 6.628907-3.824219v7.652344zm0 0"/><path d="m162.324219 264.1875 6.628906-3.828125v7.652344zm0 0"/><path d="m168.953125 268.011719 6.628906-3.824219v7.652344zm0 0"/><path d="m175.582031 271.839844 6.628907-3.828125v7.65625zm0 0"/><path d="m182.210938 268.011719 6.625-3.824219v7.652344zm0 0"/><path d="m188.835938 264.1875 6.628906-3.828125v7.652344zm0 0"/><path d="m195.464844 260.359375 6.628906-3.828125v7.65625zm0 0"/><path d="m208.722656 252.707031 6.625-3.828125v7.652344zm0 0"/><path d="m215.347656 248.878906 6.628906-3.824218v7.652343zm0 0"/><path d="m228.605469 241.226562 6.628906-3.828124v7.65625zm0 0"/><path d="m235.234375 237.398438 6.625-3.824219v7.652343zm0 0"/><path d="m241.859375 233.574219 6.628906-3.828125v7.652344zm0 0"/><path d="m248.488281 229.746094 6.628907-3.828125v7.65625zm0 0"/><path d="m261.746094 199.132812 6.625-3.828124v7.65625zm0 0"/><path d="m261.746094 191.480469 6.625-3.828125v7.652344zm0 0"/><path d="m228.605469 111.121094 6.628906-3.828125v7.652343zm0 0"/><path d="m221.976562 107.292969 6.628907-3.824219v7.652344zm0 0"/><path d="m215.347656 103.46875 6.628906-3.828125v7.652344zm0 0"/><path d="m208.722656 99.640625 6.625-3.828125v7.65625zm0 0"/><path d="m89.417969 199.132812 6.628906-3.828124v7.65625zm0 0"/><path d="m96.046875 233.574219 6.625-3.828125v7.652344zm0 0"/><path d="m102.671875 237.398438 6.628906-3.824219v7.652343zm0 0"/><path d="m122.558594 248.878906 6.628906-3.824218v7.652343zm0 0"/><path d="m129.1875 252.707031 6.625-3.828125v7.652344zm0 0"/><path d="m149.070312 264.1875 6.628907-3.828125v7.652344zm0 0"/><path d="m162.324219 271.839844 6.628906-3.828125v7.65625zm0 0"/><path d="m175.582031 279.492188 6.628907-3.824219v7.652343zm0 0"/><path d="m188.835938 271.839844 6.628906-3.828125v7.65625zm0 0"/><path d="m195.464844 268.011719 6.628906-3.824219v7.652344zm0 0"/><path d="m202.09375 264.1875 6.628906-3.828125v7.652344zm0 0"/><path d="m215.347656 256.53125 6.628906-3.824219v7.652344zm0 0"/><path d="m221.976562 252.707031 6.628907-3.828125v7.652344zm0 0"/><path d="m228.605469 248.878906 6.628906-3.824218v7.652343zm0 0"/><path d="m248.488281 237.398438 6.628907-3.824219v7.652343zm0 0"/><path d="m268.371094 195.304688 6.628906-3.824219v7.652343zm0 0"/><path d="m268.371094 187.652344 6.628906-3.824219v7.652344zm0 0"/><path d="m241.859375 111.121094 6.628906-3.828125v7.652343zm0 0"/><path d="m228.605469 103.46875 6.628906-3.828125v7.652344zm0 0"/><path d="m82.789062 164.695312 6.628907-3.828124v7.652343zm0 0"/><path d="m82.789062 172.347656 6.628907-3.828125v7.652344zm0 0"/><path d="m82.789062 180 6.628907-3.828125v7.65625zm0 0"/><path d="m82.789062 187.652344 6.628907-3.824219v7.652344zm0 0"/><path d="m82.789062 195.304688 6.628907-3.824219v7.652343zm0 0"/><path d="m82.789062 202.960938 6.628907-3.828126v7.652344zm0 0"/><path d="m122.558594 256.53125 6.628906-3.824219v7.652344zm0 0"/><path d="m135.8125 264.1875 6.628906-3.828125v7.652344zm0 0"/><path d="m162.324219 279.492188 6.628906-3.824219v7.652343zm0 0"/><path d="m168.953125 283.320312 6.628906-3.828124v7.652343zm0 0"/><path d="m175.582031 287.144531 6.628907-3.824219v7.652344zm0 0"/><path d="m182.210938 283.320312 6.625-3.828124v7.652343zm0 0"/><path d="m188.835938 279.492188 6.628906-3.824219v7.652343zm0 0"/><path d="m202.09375 271.839844 6.628906-3.828125v7.65625zm0 0"/><path d="m221.976562 260.359375 6.628907-3.828125v7.65625zm0 0"/><path d="m228.605469 256.53125 6.628906-3.824219v7.652344zm0 0"/><path d="m248.488281 245.054688 6.628907-3.828126v7.652344zm0 0"/><path d="m255.117188 241.226562 6.628906-3.828124v7.65625zm0 0"/><path d="m76.160156 176.171875 6.628906-3.824219v7.652344zm0 0"/><path d="m76.160156 183.828125 6.628906-3.828125v7.652344zm0 0"/><path d="m76.160156 191.480469 6.628906-3.828125v7.652344zm0 0"/><path d="m76.160156 199.132812 6.628906-3.828124v7.65625zm0 0"/><path d="m122.558594 264.1875 6.628906-3.828125v7.652344zm0 0"/><path d="m135.8125 271.839844 6.628906-3.828125v7.65625zm0 0"/><path d="m149.070312 279.492188 6.628907-3.824219v7.652343zm0 0"/><path d="m155.699219 283.320312 6.625-3.828124v7.652343zm0 0"/><path d="m162.324219 287.144531 6.628906-3.824219v7.652344zm0 0"/><path d="m168.953125 290.972656 6.628906-3.828125v7.65625zm0 0"/><path d="m175.582031 294.800781 6.628907-3.828125v7.652344zm0 0"/><path d="m182.210938 290.972656 6.625-3.828125v7.65625zm0 0"/><path d="m188.835938 287.144531 6.628906-3.824219v7.652344zm0 0"/><path d="m69.535156 172.347656 6.625-3.828125v7.652344zm0 0"/><path d="m69.535156 187.652344 6.625-3.824219v7.652344zm0 0"/><path d="m109.300781 264.1875 6.628907-3.828125v7.652344zm0 0"/><path d="m115.929688 268.011719 6.628906-3.824219v7.652344zm0 0"/><path d="m122.558594 271.839844 6.628906-3.828125v7.65625zm0 0"/><path d="m129.1875 275.667969 6.625-3.828125v7.652344zm0 0"/><path d="m135.8125 279.492188 6.628906-3.824219v7.652343zm0 0"/><path d="m142.441406 283.320312 6.628906-3.828124v7.652343zm0 0"/><path d="m149.070312 287.144531 6.628907-3.824219v7.652344zm0 0"/><path d="m162.324219 294.800781 6.628906-3.828125v7.652344zm0 0"/><path d="m168.953125 298.625 6.628906-3.824219v7.652344zm0 0"/><path d="m109.300781 271.839844 6.628907-3.828125v7.65625zm0 0"/><path d="m115.929688 275.667969 6.628906-3.828125v7.652344zm0 0"/><path d="m122.558594 279.492188 6.628906-3.824219v7.652343zm0 0"/><path d="m129.1875 283.320312 6.625-3.828124v7.652343zm0 0"/><path d="m135.8125 287.144531 6.628906-3.824219v7.652344zm0 0"/><path d="m142.441406 290.972656 6.628906-3.828125v7.65625zm0 0"/><path d="m149.070312 294.800781 6.628907-3.828125v7.652344zm0 0"/><path d="m122.558594 287.144531 6.628906-3.824219v7.652344zm0 0"/><path d="m129.1875 290.972656 6.625-3.828125v7.65625zm0 0"/><path d="m182.210938 176.171875-6.628907-3.824219v7.652344zm0 0"/><path d="m188.835938 172.347656-6.625-3.828125v7.652344zm0 0"/><path d="m182.210938 168.519531-6.628907-3.824219v7.652344zm0 0"/><path d="m175.582031 180-6.628906-3.828125v7.65625zm0 0"/><path d="m188.835938 187.652344-6.625-3.824219v7.652344zm0 0"/><path d="m202.09375 187.652344-6.628906-3.824219v7.652344zm0 0"/><path d="m202.09375 180-6.628906-3.828125v7.65625zm0 0"/><path d="m168.953125 168.519531-6.628906-3.824219v7.652344zm0 0"/><path d="m168.953125 176.171875-6.628906-3.824219v7.652344zm0 0"/><path d="m182.210938 199.132812-6.628907-3.828124v7.65625zm0 0"/><path d="m188.835938 195.304688-6.625-3.824219v7.652343zm0 0"/><path d="m208.722656 191.480469-6.628906-3.828125v7.652344zm0 0"/><path d="m208.722656 176.171875-6.628906-3.824219v7.652344zm0 0"/><path d="m195.464844 160.867188-6.628906-3.828126v7.65625zm0 0"/><path d="m162.324219 180-6.625-3.828125v7.65625zm0 0"/><path d="m162.324219 187.652344-6.625-3.824219v7.652344zm0 0"/><path d="m168.953125 199.132812-6.628906-3.828124v7.65625zm0 0"/><path d="m175.582031 202.960938-6.628906-3.828126v7.652344zm0 0"/><path d="m188.835938 202.960938-6.625-3.828126v7.652344zm0 0"/><path d="m195.464844 199.132812-6.628906-3.828124v7.65625zm0 0"/><path d="m202.09375 195.304688-6.628906-3.824219v7.652343zm0 0"/><path d="m215.347656 195.304688-6.625-3.824219v7.652343zm0 0"/><path d="m215.347656 187.652344-6.625-3.824219v7.652344zm0 0"/><path d="m215.347656 180-6.625-3.828125v7.65625zm0 0"/><path d="m215.347656 172.347656-6.625-3.828125v7.652344zm0 0"/><path d="m215.347656 164.695312-6.625-3.828124v7.652343zm0 0"/><path d="m208.722656 160.867188-6.628906-3.828126v7.65625zm0 0"/><path d="m202.09375 157.039062-6.628906-3.824218v7.652344zm0 0"/><path d="m195.464844 153.214844-6.628906-3.828125v7.652343zm0 0"/><path d="m188.835938 149.386719-6.625-3.828125v7.65625zm0 0"/><path d="m175.582031 149.386719-6.628906-3.828125v7.65625zm0 0"/><path d="m168.953125 153.214844-6.628906-3.828125v7.652343zm0 0"/><path d="m162.324219 202.960938-6.625-3.828126v7.652344zm0 0"/><path d="m168.953125 206.785156-6.628906-3.824218v7.652343zm0 0"/><path d="m175.582031 210.613281-6.628906-3.828125v7.65625zm0 0"/><path d="m182.210938 214.441406-6.628907-3.828125v7.652344zm0 0"/><path d="m202.09375 202.960938-6.628906-3.828126v7.652344zm0 0"/><path d="m221.976562 199.132812-6.628906-3.828124v7.65625zm0 0"/><path d="m221.976562 191.480469-6.628906-3.828125v7.652344zm0 0"/><path d="m221.976562 183.828125-6.628906-3.828125v7.652344zm0 0"/><path d="m215.347656 157.039062-6.625-3.824218v7.652344zm0 0"/><path d="m208.722656 153.214844-6.628906-3.828125v7.652343zm0 0"/><path d="m202.09375 149.386719-6.628906-3.828125v7.65625zm0 0"/><path d="m168.953125 145.558594-6.628906-3.824219v7.652344zm0 0"/><path d="m162.324219 149.386719-6.625-3.828125v7.65625zm0 0"/><path d="m155.699219 153.214844-6.628907-3.828125v7.652343zm0 0"/><path d="m149.070312 157.039062-6.628906-3.824218v7.652344zm0 0"/><path d="m149.070312 164.695312-6.628906-3.828124v7.652343zm0 0"/><path d="m162.324219 210.613281-6.625-3.828125v7.65625zm0 0"/><path d="m175.582031 218.265625-6.628906-3.824219v7.652344zm0 0"/><path d="m182.210938 222.09375-6.628907-3.828125v7.652344zm0 0"/><path d="m195.464844 214.441406-6.628906-3.828125v7.652344zm0 0"/><path d="m215.347656 202.960938-6.625-3.828126v7.652344zm0 0"/><path d="m228.605469 202.960938-6.628907-3.828126v7.652344zm0 0"/><path d="m228.605469 187.652344-6.628907-3.824219v7.652344zm0 0"/><path d="m228.605469 172.347656-6.628907-3.828125v7.652344zm0 0"/><path d="m228.605469 164.695312-6.628907-3.828124v7.652343zm0 0"/><path d="m228.605469 157.039062-6.628907-3.824218v7.652344zm0 0"/><path d="m221.976562 153.214844-6.628906-3.828125v7.652343zm0 0"/><path d="m215.347656 149.386719-6.625-3.828125v7.65625zm0 0"/><path d="m202.09375 141.734375-6.628906-3.828125v7.652344zm0 0"/><path d="m195.464844 137.90625-6.628906-3.824219v7.652344zm0 0"/><path d="m188.835938 134.082031-6.625-3.828125v7.652344zm0 0"/><path d="m175.582031 134.082031-6.628906-3.828125v7.652344zm0 0"/><path d="m168.953125 137.90625-6.628906-3.824219v7.652344zm0 0"/><path d="m162.324219 141.734375-6.625-3.828125v7.652344zm0 0"/><path d="m155.699219 145.558594-6.628907-3.824219v7.652344zm0 0"/><path d="m149.070312 149.386719-6.628906-3.828125v7.65625zm0 0"/><path d="m142.441406 160.867188-6.628906-3.828126v7.65625zm0 0"/><path d="m142.441406 176.171875-6.628906-3.824219v7.652344zm0 0"/><path d="m142.441406 206.785156-6.628906-3.824218v7.652343zm0 0"/><path d="m149.070312 210.613281-6.628906-3.828125v7.65625zm0 0"/><path d="m155.699219 214.441406-6.628907-3.828125v7.652344zm0 0"/><path d="m162.324219 218.265625-6.625-3.824219v7.652344zm0 0"/><path d="m188.835938 225.917969-6.625-3.824219v7.652344zm0 0"/><path d="m208.722656 214.441406-6.628906-3.828125v7.652344zm0 0"/><path d="m215.347656 210.613281-6.625-3.828125v7.65625zm0 0"/><path d="m221.976562 206.785156-6.628906-3.824218v7.652343zm0 0"/><path d="m235.234375 199.132812-6.628906-3.828124v7.65625zm0 0"/><path d="m235.234375 183.828125-6.628906-3.828125v7.652344zm0 0"/><path d="m235.234375 176.171875-6.628906-3.824219v7.652344zm0 0"/><path d="m235.234375 160.867188-6.628906-3.828126v7.65625zm0 0"/><path d="m235.234375 153.214844-6.628906-3.828125v7.652343zm0 0"/><path d="m228.605469 149.386719-6.628907-3.828125v7.65625zm0 0"/><path d="m221.976562 145.558594-6.628906-3.824219v7.652344zm0 0"/><path d="m208.722656 137.90625-6.628906-3.824219v7.652344zm0 0"/><path d="m202.09375 134.082031-6.628906-3.828125v7.652344zm0 0"/><path d="m195.464844 130.253906-6.628906-3.828125v7.65625zm0 0"/><path d="m182.210938 122.601562-6.628907-3.828124v7.652343zm0 0"/><path d="m175.582031 126.425781-6.628906-3.824219v7.652344zm0 0"/><path d="m162.324219 134.082031-6.625-3.828125v7.652344zm0 0"/><path d="m155.699219 137.90625-6.628907-3.824219v7.652344zm0 0"/><path d="m135.8125 157.039062-6.625-3.824218v7.652344zm0 0"/><path d="m135.8125 172.347656-6.625-3.828125v7.652344zm0 0"/><path d="m135.8125 210.613281-6.625-3.828125v7.65625zm0 0"/><path d="m149.070312 218.265625-6.628906-3.824219v7.652344zm0 0"/><path d="m155.699219 222.09375-6.628907-3.828125v7.652344zm0 0"/><path d="m162.324219 225.917969-6.625-3.824219v7.652344zm0 0"/><path d="m168.953125 229.746094-6.628906-3.828125v7.65625zm0 0"/><path d="m195.464844 229.746094-6.628906-3.828125v7.65625zm0 0"/><path d="m202.09375 225.917969-6.628906-3.824219v7.652344zm0 0"/><path d="m208.722656 222.09375-6.628906-3.828125v7.652344zm0 0"/><path d="m215.347656 218.265625-6.625-3.824219v7.652344zm0 0"/><path d="m221.976562 214.441406-6.628906-3.828125v7.652344zm0 0"/><path d="m241.859375 210.613281-6.625-3.828125v7.65625zm0 0"/><path d="m241.859375 202.960938-6.625-3.828126v7.652344zm0 0"/><path d="m241.859375 195.304688-6.625-3.824219v7.652343zm0 0"/><path d="m241.859375 187.652344-6.625-3.824219v7.652344zm0 0"/><path d="m241.859375 180-6.625-3.828125v7.65625zm0 0"/><path d="m241.859375 172.347656-6.625-3.828125v7.652344zm0 0"/><path d="m241.859375 164.695312-6.625-3.828124v7.652343zm0 0"/><path d="m241.859375 149.386719-6.625-3.828125v7.65625zm0 0"/><path d="m235.234375 145.558594-6.628906-3.824219v7.652344zm0 0"/><path d="m228.605469 141.734375-6.628907-3.828125v7.652344zm0 0"/><path d="m215.347656 134.082031-6.625-3.828125v7.652344zm0 0"/><path d="m208.722656 130.253906-6.628906-3.828125v7.65625zm0 0"/><path d="m202.09375 126.425781-6.628906-3.824219v7.652344zm0 0"/><path d="m195.464844 122.601562-6.628906-3.828124v7.652343zm0 0"/><path d="m188.835938 118.773438-6.625-3.828126v7.65625zm0 0"/><path d="m168.953125 122.601562-6.628906-3.828124v7.652343zm0 0"/><path d="m162.324219 126.425781-6.625-3.824219v7.652344zm0 0"/><path d="m155.699219 130.253906-6.628907-3.828125v7.65625zm0 0"/><path d="m142.441406 137.90625-6.628906-3.824219v7.652344zm0 0"/><path d="m135.8125 141.734375-6.625-3.828125v7.652344zm0 0"/><path d="m129.1875 153.214844-6.628906-3.828125v7.652343zm0 0"/><path d="m129.1875 168.519531-6.628906-3.824219v7.652344zm0 0"/><path d="m129.1875 176.171875-6.628906-3.824219v7.652344zm0 0"/><path d="m129.1875 191.480469-6.628906-3.828125v7.652344zm0 0"/><path d="m129.1875 206.785156-6.628906-3.824218v7.652343zm0 0"/><path d="m135.8125 218.265625-6.625-3.824219v7.652344zm0 0"/><path d="m142.441406 222.09375-6.628906-3.828125v7.652344zm0 0"/><path d="m149.070312 225.917969-6.628906-3.824219v7.652344zm0 0"/><path d="m155.699219 229.746094-6.628907-3.828125v7.65625zm0 0"/><path d="m175.582031 241.226562-6.628906-3.828124v7.65625zm0 0"/><path d="m188.835938 241.226562-6.625-3.828124v7.65625zm0 0"/><path d="m202.09375 233.574219-6.628906-3.828125v7.652344zm0 0"/><path d="m208.722656 229.746094-6.628906-3.828125v7.65625zm0 0"/><path d="m215.347656 225.917969-6.625-3.824219v7.652344zm0 0"/><path d="m228.605469 218.265625-6.628907-3.824219v7.652344zm0 0"/><path d="m248.488281 214.441406-6.628906-3.828125v7.652344zm0 0"/><path d="m248.488281 183.828125-6.628906-3.828125v7.652344zm0 0"/><path d="m248.488281 176.171875-6.628906-3.824219v7.652344zm0 0"/><path d="m248.488281 168.519531-6.628906-3.824219v7.652344zm0 0"/><path d="m248.488281 153.214844-6.628906-3.828125v7.652343zm0 0"/><path d="m241.859375 141.734375-6.625-3.828125v7.652344zm0 0"/><path d="m235.234375 137.90625-6.628906-3.824219v7.652344zm0 0"/><path d="m228.605469 134.082031-6.628907-3.828125v7.652344zm0 0"/><path d="m208.722656 122.601562-6.628906-3.828124v7.652343zm0 0"/><path d="m202.09375 118.773438-6.628906-3.828126v7.65625zm0 0"/><path d="m195.464844 114.945312-6.628906-3.824218v7.652344zm0 0"/><path d="m188.835938 111.121094-6.625-3.828125v7.652343zm0 0"/><path d="m168.953125 114.945312-6.628906-3.824218v7.652344zm0 0"/><path d="m155.699219 122.601562-6.628907-3.828124v7.652343zm0 0"/><path d="m129.1875 137.90625-6.628906-3.824219v7.652344zm0 0"/><path d="m122.558594 141.734375-6.628906-3.828125v7.652344zm0 0"/><path d="m122.558594 149.386719-6.628906-3.828125v7.65625zm0 0"/><path d="m122.558594 180-6.628906-3.828125v7.65625zm0 0"/><path d="m122.558594 187.652344-6.628906-3.824219v7.652344zm0 0"/><path d="m122.558594 195.304688-6.628906-3.824219v7.652343zm0 0"/><path d="m122.558594 202.960938-6.628906-3.828126v7.652344zm0 0"/><path d="m129.1875 222.09375-6.628906-3.828125v7.652344zm0 0"/><path d="m135.8125 225.917969-6.625-3.824219v7.652344zm0 0"/><path d="m168.953125 245.054688-6.628906-3.828126v7.652344zm0 0"/><path d="m175.582031 248.878906-6.628906-3.824218v7.652343zm0 0"/><path d="m182.210938 252.707031-6.628907-3.828125v7.652344zm0 0"/><path d="m195.464844 245.054688-6.628906-3.828126v7.652344zm0 0"/><path d="m208.722656 237.398438-6.628906-3.824219v7.652343zm0 0"/><path d="m221.976562 229.746094-6.628906-3.828125v7.65625zm0 0"/><path d="m235.234375 222.09375-6.628906-3.828125v7.652344zm0 0"/><path d="m255.117188 218.265625-6.628907-3.824219v7.652344zm0 0"/><path d="m255.117188 210.613281-6.628907-3.828125v7.65625zm0 0"/><path d="m255.117188 202.960938-6.628907-3.828126v7.652344zm0 0"/><path d="m255.117188 195.304688-6.628907-3.824219v7.652343zm0 0"/><path d="m255.117188 172.347656-6.628907-3.828125v7.652344zm0 0"/><path d="m255.117188 149.386719-6.628907-3.828125v7.65625zm0 0"/><path d="m255.117188 141.734375-6.628907-3.828125v7.652344zm0 0"/><path d="m241.859375 134.082031-6.625-3.828125v7.652344zm0 0"/><path d="m235.234375 130.253906-6.628906-3.828125v7.65625zm0 0"/><path d="m228.605469 126.425781-6.628907-3.824219v7.652344zm0 0"/><path d="m221.976562 122.601562-6.628906-3.828124v7.652343zm0 0"/><path d="m202.09375 111.121094-6.628906-3.828125v7.652343zm0 0"/><path d="m188.835938 103.46875-6.625-3.828125v7.652344zm0 0"/><path d="m162.324219 111.121094-6.625-3.828125v7.652343zm0 0"/><path d="m155.699219 114.945312-6.628907-3.824218v7.652344zm0 0"/><path d="m149.070312 118.773438-6.628906-3.828126v7.65625zm0 0"/><path d="m142.441406 122.601562-6.628906-3.828124v7.652343zm0 0"/><path d="m122.558594 134.082031-6.628906-3.828125v7.652344zm0 0"/><path d="m115.929688 160.867188-6.628907-3.828126v7.65625zm0 0"/><path d="m115.929688 168.519531-6.628907-3.824219v7.652344zm0 0"/><path d="m115.929688 176.171875-6.628907-3.824219v7.652344zm0 0"/><path d="m115.929688 183.828125-6.628907-3.828125v7.652344zm0 0"/><path d="m115.929688 191.480469-6.628907-3.828125v7.652344zm0 0"/><path d="m115.929688 199.132812-6.628907-3.828124v7.65625zm0 0"/><path d="m115.929688 214.441406-6.628907-3.828125v7.652344zm0 0"/><path d="m129.1875 229.746094-6.628906-3.828125v7.65625zm0 0"/><path d="m142.441406 237.398438-6.628906-3.824219v7.652343zm0 0"/><path d="m149.070312 241.226562-6.628906-3.828124v7.65625zm0 0"/><path d="m155.699219 245.054688-6.628907-3.828126v7.652344zm0 0"/><path d="m162.324219 248.878906-6.625-3.824218v7.652343zm0 0"/><path d="m182.210938 260.359375-6.628907-3.828125v7.65625zm0 0"/><path d="m188.835938 256.53125-6.625-3.824219v7.652344zm0 0"/><path d="m195.464844 252.707031-6.628906-3.828125v7.652344zm0 0"/><path d="m221.976562 237.398438-6.628906-3.824219v7.652343zm0 0"/><path d="m228.605469 233.574219-6.628907-3.828125v7.652344zm0 0"/><path d="m248.488281 222.09375-6.628906-3.828125v7.652344zm0 0"/><path d="m261.746094 222.09375-6.628906-3.828125v7.652344zm0 0"/><path d="m261.746094 214.441406-6.628906-3.828125v7.652344zm0 0"/><path d="m261.746094 206.785156-6.628906-3.824218v7.652343zm0 0"/><path d="m261.746094 199.132812-6.628906-3.828124v7.65625zm0 0"/><path d="m261.746094 191.480469-6.628906-3.828125v7.652344zm0 0"/><path d="m261.746094 176.171875-6.628906-3.824219v7.652344zm0 0"/><path d="m261.746094 168.519531-6.628906-3.824219v7.652344zm0 0"/><path d="m261.746094 160.867188-6.628906-3.828126v7.65625zm0 0"/><path d="m261.746094 153.214844-6.628906-3.828125v7.652343zm0 0"/><path d="m261.746094 145.558594-6.628906-3.824219v7.652344zm0 0"/><path d="m261.746094 137.90625-6.628906-3.824219v7.652344zm0 0"/><path d="m241.859375 126.425781-6.625-3.824219v7.652344zm0 0"/><path d="m228.605469 118.773438-6.628907-3.828126v7.65625zm0 0"/><path d="m221.976562 114.945312-6.628906-3.824218v7.652344zm0 0"/><path d="m215.347656 111.121094-6.625-3.828125v7.652343zm0 0"/><path d="m142.441406 114.945312-6.628906-3.824218v7.652344zm0 0"/><path d="m135.8125 118.773438-6.625-3.828126v7.65625zm0 0"/><path d="m129.1875 122.601562-6.628906-3.828124v7.652343zm0 0"/><path d="m109.300781 141.734375-6.628906-3.828125v7.652344zm0 0"/><path d="m109.300781 149.386719-6.628906-3.828125v7.65625zm0 0"/><path d="m109.300781 157.039062-6.628906-3.824218v7.652344zm0 0"/><path d="m109.300781 164.695312-6.628906-3.828124v7.652343zm0 0"/><path d="m109.300781 187.652344-6.628906-3.824219v7.652344zm0 0"/><path d="m109.300781 202.960938-6.628906-3.828126v7.652344zm0 0"/><path d="m109.300781 225.917969-6.628906-3.824219v7.652344zm0 0"/><path d="m115.929688 229.746094-6.628907-3.828125v7.65625zm0 0"/><path d="m142.441406 245.054688-6.628906-3.828126v7.652344zm0 0"/><path d="m149.070312 248.878906-6.628906-3.824218v7.652343zm0 0"/><path d="m155.699219 252.707031-6.628907-3.828125v7.652344zm0 0"/><path d="m162.324219 256.53125-6.625-3.824219v7.652344zm0 0"/><path d="m175.582031 264.1875-6.628906-3.828125v7.652344zm0 0"/><path d="m182.210938 268.011719-6.628907-3.824219v7.652344zm0 0"/><path d="m188.835938 264.1875-6.625-3.828125v7.652344zm0 0"/><path d="m195.464844 260.359375-6.628906-3.828125v7.65625zm0 0"/><path d="m202.09375 256.53125-6.628906-3.824219v7.652344zm0 0"/><path d="m208.722656 252.707031-6.628906-3.828125v7.652344zm0 0"/><path d="m215.347656 248.878906-6.625-3.824218v7.652343zm0 0"/><path d="m221.976562 245.054688-6.628906-3.828126v7.652344zm0 0"/><path d="m241.859375 233.574219-6.625-3.828125v7.652344zm0 0"/><path d="m248.488281 229.746094-6.628906-3.828125v7.65625zm0 0"/><path d="m255.117188 225.917969-6.628907-3.824219v7.652344zm0 0"/><path d="m268.371094 202.960938-6.625-3.828126v7.652344zm0 0"/><path d="m268.371094 195.304688-6.625-3.824219v7.652343zm0 0"/><path d="m268.371094 180-6.625-3.828125v7.65625zm0 0"/><path d="m268.371094 164.695312-6.625-3.828124v7.652343zm0 0"/><path d="m268.371094 157.039062-6.625-3.824218v7.652344zm0 0"/><path d="m268.371094 134.082031-6.625-3.828125v7.652344zm0 0"/><path d="m255.117188 126.425781-6.628907-3.824219v7.652344zm0 0"/><path d="m248.488281 122.601562-6.628906-3.828124v7.652343zm0 0"/><path d="m241.859375 118.773438-6.625-3.828126v7.65625zm0 0"/><path d="m221.976562 107.292969-6.628906-3.824219v7.652344zm0 0"/><path d="m215.347656 103.46875-6.625-3.828125v7.652344zm0 0"/><path d="m135.8125 111.121094-6.625-3.828125v7.652343zm0 0"/><path d="m129.1875 114.945312-6.628906-3.824218v7.652344zm0 0"/><path d="m102.671875 137.90625-6.625-3.824219v7.652344zm0 0"/><path d="m102.671875 145.558594-6.625-3.824219v7.652344zm0 0"/><path d="m102.671875 168.519531-6.625-3.824219v7.652344zm0 0"/><path d="m102.671875 183.828125-6.625-3.828125v7.652344zm0 0"/><path d="m102.671875 214.441406-6.625-3.828125v7.652344zm0 0"/><path d="m102.671875 222.09375-6.625-3.828125v7.652344zm0 0"/><path d="m102.671875 229.746094-6.625-3.828125v7.65625zm0 0"/><path d="m109.300781 233.574219-6.628906-3.828125v7.652344zm0 0"/><path d="m115.929688 237.398438-6.628907-3.824219v7.652343zm0 0"/><path d="m122.558594 241.226562-6.628906-3.828124v7.65625zm0 0"/><path d="m129.1875 245.054688-6.628906-3.828126v7.652344zm0 0"/><path d="m135.8125 248.878906-6.625-3.824218v7.652343zm0 0"/><path d="m142.441406 252.707031-6.628906-3.828125v7.652344zm0 0"/><path d="m149.070312 256.53125-6.628906-3.824219v7.652344zm0 0"/><path d="m155.699219 260.359375-6.628907-3.828125v7.65625zm0 0"/><path d="m168.953125 268.011719-6.628906-3.824219v7.652344zm0 0"/><path d="m188.835938 271.839844-6.625-3.828125v7.65625zm0 0"/><path d="m195.464844 268.011719-6.628906-3.824219v7.652344zm0 0"/><path d="m208.722656 260.359375-6.628906-3.828125v7.65625zm0 0"/><path d="m215.347656 256.53125-6.625-3.824219v7.652344zm0 0"/><path d="m221.976562 252.707031-6.628906-3.828125v7.652344zm0 0"/><path d="m228.605469 248.878906-6.628907-3.824218v7.652343zm0 0"/><path d="m241.859375 241.226562-6.625-3.828124v7.65625zm0 0"/><path d="m248.488281 237.398438-6.628906-3.824219v7.652343zm0 0"/><path d="m255.117188 233.574219-6.628907-3.828125v7.652344zm0 0"/><path d="m261.746094 229.746094-6.628906-3.828125v7.65625zm0 0"/><path d="m275 191.480469-6.628906-3.828125v7.652344zm0 0"/><path d="m275 183.828125-6.628906-3.828125v7.652344zm0 0"/><path d="m102.671875 237.398438-6.625-3.824219v7.652343zm0 0"/><path d="m115.929688 245.054688-6.628907-3.828126v7.652344zm0 0"/><path d="m129.1875 252.707031-6.628906-3.828125v7.652344zm0 0"/><path d="m135.8125 256.53125-6.625-3.824219v7.652344zm0 0"/><path d="m142.441406 260.359375-6.628906-3.828125v7.65625zm0 0"/><path d="m149.070312 264.1875-6.628906-3.828125v7.652344zm0 0"/><path d="m168.953125 275.667969-6.628906-3.828125v7.652344zm0 0"/><path d="m175.582031 279.492188-6.628906-3.824219v7.652343zm0 0"/><path d="m182.210938 283.320312-6.628907-3.828124v7.652343zm0 0"/><path d="m195.464844 275.667969-6.628906-3.828125v7.652344zm0 0"/><path d="m208.722656 268.011719-6.628906-3.824219v7.652344zm0 0"/><path d="m221.976562 260.359375-6.628906-3.828125v7.65625zm0 0"/><path d="m228.605469 256.53125-6.628907-3.824219v7.652344zm0 0"/><path d="m235.234375 252.707031-6.628906-3.828125v7.652344zm0 0"/><path d="m255.117188 241.226562-6.628907-3.828124v7.65625zm0 0"/><path d="m261.746094 237.398438-6.628906-3.824219v7.652343zm0 0"/><path d="m89.417969 160.867188-6.628907-3.828126v7.65625zm0 0"/><path d="m89.417969 168.519531-6.628907-3.824219v7.652344zm0 0"/><path d="m89.417969 176.171875-6.628907-3.824219v7.652344zm0 0"/><path d="m89.417969 183.828125-6.628907-3.828125v7.652344zm0 0"/><path d="m89.417969 191.480469-6.628907-3.828125v7.652344zm0 0"/><path d="m109.300781 248.878906-6.628906-3.824218v7.652343zm0 0"/><path d="m122.558594 256.53125-6.628906-3.824219v7.652344zm0 0"/><path d="m129.1875 260.359375-6.628906-3.828125v7.65625zm0 0"/><path d="m135.8125 264.1875-6.625-3.828125v7.652344zm0 0"/><path d="m142.441406 268.011719-6.628906-3.824219v7.652344zm0 0"/><path d="m162.324219 279.492188-6.625-3.824219v7.652343zm0 0"/><path d="m168.953125 283.320312-6.628906-3.828124v7.652343zm0 0"/><path d="m175.582031 287.144531-6.628906-3.824219v7.652344zm0 0"/><path d="m182.210938 290.972656-6.628907-3.828125v7.65625zm0 0"/><path d="m188.835938 287.144531-6.625-3.824219v7.652344zm0 0"/><path d="m195.464844 283.320312-6.628906-3.828124v7.652343zm0 0"/><path d="m215.347656 271.839844-6.625-3.828125v7.65625zm0 0"/><path d="m228.605469 264.1875-6.628907-3.828125v7.652344zm0 0"/><path d="m82.789062 172.347656-6.628906-3.828125v7.652344zm0 0"/><path d="m82.789062 187.652344-6.628906-3.824219v7.652344zm0 0"/><path d="m122.558594 264.1875-6.628906-3.828125v7.652344zm0 0"/><path d="m129.1875 268.011719-6.628906-3.824219v7.652344zm0 0"/><path d="m135.8125 271.839844-6.625-3.828125v7.65625zm0 0"/><path d="m142.441406 275.667969-6.628906-3.828125v7.652344zm0 0"/><path d="m149.070312 279.492188-6.628906-3.824219v7.652343zm0 0"/><path d="m155.699219 283.320312-6.628907-3.828124v7.652343zm0 0"/><path d="m162.324219 287.144531-6.625-3.824219v7.652344zm0 0"/><path d="m175.582031 294.800781-6.628906-3.828125v7.652344zm0 0"/><path d="m188.835938 294.800781-6.625-3.828125v7.652344zm0 0"/><path d="m202.09375 287.144531-6.628906-3.824219v7.652344zm0 0"/><path d="m76.160156 176.171875-6.625-3.824219v7.652344zm0 0"/><path d="m122.558594 271.839844-6.628906-3.828125v7.65625zm0 0"/><path d="m135.8125 279.492188-6.625-3.824219v7.652343zm0 0"/><path d="m142.441406 283.320312-6.628906-3.828124v7.652343zm0 0"/><path d="m149.070312 287.144531-6.628906-3.824219v7.652344zm0 0"/><path d="m155.699219 290.972656-6.628907-3.828125v7.65625zm0 0"/><path d="m162.324219 294.800781-6.625-3.828125v7.652344zm0 0"/><path d="m168.953125 298.625-6.628906-3.824219v7.652344zm0 0"/><path d="m69.535156 172.347656-6.628906-3.828125v7.652344zm0 0"/><path d="m69.535156 180-6.628906-3.828125v7.65625zm0 0"/><path d="m135.8125 287.144531-6.625-3.824219v7.652344zm0 0"/><path d="m149.070312 294.800781-6.628906-3.828125v7.652344zm0 0"/><path d="m155.699219 298.625-6.628907-3.824219v7.652344zm0 0"/><path d="m129.1875 290.972656-6.628906-3.828125v7.65625zm0 0"/><path d="m135.8125 294.800781-6.625-3.828125v7.652344zm0 0"/></g></svg>