<svg height="360pt" viewBox="0 0 360 360" width="360pt" xmlns="http://www.w3.org/2000/svg"><path d="m0 0h360v360h-360z" fill="#fff"/><g fill="#800080"><path d="m167.632812 184.285156 7.421876-4.285156v8.566406zm0 0"/><path d="m160.214844 180 7.417968-4.285156v8.570312zm0 0"/><path d="m182.472656 192.851562 7.421875-4.285156v8.570313zm0 0"/><path d="m197.3125 184.285156 7.417969-4.285156v8.566406zm0 0"/><path d="m197.3125 167.148438 7.417969-4.285157v8.570313zm0 0"/><path d="m182.472656 158.582031 7.421875-4.285156v8.566406zm0 0"/><path d="m175.054688 154.296875 7.417968-4.28125v8.566406zm0 0"/><path d="m152.792969 167.148438 7.421875-4.285157v8.570313zm0 0"/><path d="m152.792969 192.851562 7.421875-4.285156v8.570313zm0 0"/><path d="m160.214844 197.136719 7.417968-4.285157v8.566407zm0 0"/><path d="m204.730469 180 7.421875-4.285156v8.570312zm0 0"/><path d="m197.3125 158.582031 7.417969-4.285156v8.566406zm0 0"/><path d="m189.894531 154.296875 7.417969-4.28125v8.566406zm0 0"/><path d="m175.054688 145.730469 7.417968-4.285157v8.570313zm0 0"/><path d="m145.375 180 7.417969-4.285156v8.570312zm0 0"/><path d="m145.375 197.136719 7.417969-4.285157v8.566407zm0 0"/><path d="m160.214844 205.703125 7.417968-4.285156v8.566406zm0 0"/><path d="m175.054688 214.269531 7.417968-4.285156v8.570313zm0 0"/><path d="m212.152344 201.417969 7.417968-4.28125v8.566406zm0 0"/><path d="m212.152344 192.851562 7.417968-4.285156v8.570313zm0 0"/><path d="m212.152344 184.285156 7.417968-4.285156v8.566406zm0 0"/><path d="m204.730469 154.296875 7.421875-4.28125v8.566406zm0 0"/><path d="m152.792969 150.015625 7.421875-4.285156v8.566406zm0 0"/><path d="m137.957031 175.714844 7.417969-4.28125v8.566406zm0 0"/><path d="m137.957031 184.285156 7.417969-4.285156v8.566406zm0 0"/><path d="m152.792969 209.984375 7.421875-4.28125v8.566406zm0 0"/><path d="m160.214844 214.269531 7.417968-4.285156v8.570313zm0 0"/><path d="m167.632812 218.554688 7.421876-4.285157v8.566407zm0 0"/><path d="m175.054688 222.835938 7.417968-4.28125v8.566406zm0 0"/><path d="m197.3125 209.984375 7.417969-4.28125v8.566406zm0 0"/><path d="m204.730469 205.703125 7.421875-4.285156v8.566406zm0 0"/><path d="m219.570312 205.703125 7.421876-4.285156v8.566406zm0 0"/><path d="m212.152344 150.015625 7.417968-4.285156v8.566406zm0 0"/><path d="m145.375 145.730469 7.417969-4.285157v8.570313zm0 0"/><path d="m130.535156 197.136719 7.421875-4.285157v8.566407zm0 0"/><path d="m130.535156 205.703125 7.421875-4.285156v8.566406zm0 0"/><path d="m160.214844 222.835938 7.417968-4.28125v8.566406zm0 0"/><path d="m204.730469 214.269531 7.421875-4.285156v8.570313zm0 0"/><path d="m212.152344 209.984375 7.417968-4.28125v8.566406zm0 0"/><path d="m226.992188 209.984375 7.417968-4.28125v8.566406zm0 0"/><path d="m226.992188 175.714844 7.417968-4.28125v8.566406zm0 0"/><path d="m226.992188 150.015625 7.417968-4.285156v8.566406zm0 0"/><path d="m123.117188 201.417969 7.417968-4.28125v8.566406zm0 0"/><path d="m123.117188 209.984375 7.417968-4.28125v8.566406zm0 0"/><path d="m152.792969 227.121094 7.421875-4.285156v8.570312zm0 0"/><path d="m160.214844 231.40625 7.417968-4.285156v8.566406zm0 0"/><path d="m212.152344 218.554688 7.417968-4.285157v8.566407zm0 0"/><path d="m219.570312 214.269531 7.421876-4.285156v8.570313zm0 0"/><path d="m234.410156 214.269531 7.421875-4.285156v8.570313zm0 0"/><path d="m234.410156 205.703125 7.421875-4.285156v8.566406zm0 0"/><path d="m234.410156 197.136719 7.421875-4.285157v8.566407zm0 0"/><path d="m234.410156 154.296875 7.421875-4.28125v8.566406zm0 0"/><path d="m234.410156 145.730469 7.421875-4.285157v8.570313zm0 0"/><path d="m115.695312 197.136719 7.421876-4.285157v8.566407zm0 0"/><path d="m123.117188 218.554688 7.417968-4.285157v8.566407zm0 0"/><path d="m130.535156 222.835938 7.421875-4.28125v8.566406zm0 0"/><path d="m160.214844 239.972656 7.417968-4.285156v8.566406zm0 0"/><path d="m212.152344 227.121094 7.417968-4.285156v8.570312zm0 0"/><path d="m241.832031 201.417969 7.417969-4.28125v8.566406zm0 0"/><path d="m241.832031 192.851562 7.417969-4.285156v8.570313zm0 0"/><path d="m241.832031 184.285156 7.417969-4.285156v8.566406zm0 0"/><path d="m115.695312 222.835938 7.421876-4.28125v8.566406zm0 0"/><path d="m123.117188 227.121094 7.417968-4.285156v8.570312zm0 0"/><path d="m234.410156 222.835938 7.421875-4.28125v8.566406zm0 0"/><path d="m249.25 222.835938 7.417969-4.28125v8.566406zm0 0"/><path d="m249.25 180 7.417969-4.285156v8.570312zm0 0"/><path d="m256.667969 218.554688 7.421875-4.285157v8.566407zm0 0"/><path d="m264.089844 231.40625 7.417968-4.285156v8.566406zm0 0"/><path d="m264.089844 214.269531 7.417968-4.285156v8.570313zm0 0"/><path d="m256.667969 235.6875 7.421875-4.28125v8.566406zm0 0"/><path d="m256.667969 244.253906 7.421875-4.28125v8.566406zm0 0"/><path d="m264.089844 239.972656 7.417968-4.285156v8.566406zm0 0"/><path d="m278.929688 222.835938 7.417968-4.28125v8.566406zm0 0"/><path d="m249.25 257.105469 7.417969-4.28125v8.566406zm0 0"/><path d="m256.667969 252.824219 7.421875-4.285157v8.566407zm0 0"/><path d="m264.089844 248.539062 7.417968-4.285156v8.570313zm0 0"/><path d="m286.347656 235.6875 7.417969-4.28125v8.566406zm0 0"/><path d="m264.089844 257.105469 7.417968-4.28125v8.566406zm0 0"/><path d="m182.472656 175.714844-7.417968-4.28125v8.566406zm0 0"/><path d="m175.054688 180-7.421876-4.285156v8.570312zm0 0"/><path d="m175.054688 188.566406-7.421876-4.28125v8.566406zm0 0"/><path d="m182.472656 192.851562-7.417968-4.285156v8.570313zm0 0"/><path d="m204.730469 188.566406-7.417969-4.28125v8.566406zm0 0"/><path d="m204.730469 180-7.417969-4.285156v8.570312zm0 0"/><path d="m204.730469 171.433594-7.417969-4.285156v8.566406zm0 0"/><path d="m182.472656 158.582031-7.417968-4.285156v8.566406zm0 0"/><path d="m167.632812 175.714844-7.417968-4.28125v8.566406zm0 0"/><path d="m167.632812 192.851562-7.417968-4.285156v8.570313zm0 0"/><path d="m175.054688 197.136719-7.421876-4.285157v8.566407zm0 0"/><path d="m212.152344 184.285156-7.421875-4.285156v8.566406zm0 0"/><path d="m212.152344 167.148438-7.421875-4.285157v8.570313zm0 0"/><path d="m204.730469 162.863281-7.417969-4.28125v8.566407zm0 0"/><path d="m197.3125 158.582031-7.417969-4.285156v8.566406zm0 0"/><path d="m189.894531 154.296875-7.421875-4.28125v8.566406zm0 0"/><path d="m182.472656 150.015625-7.417968-4.285156v8.566406zm0 0"/><path d="m160.214844 188.566406-7.421875-4.28125v8.566406zm0 0"/><path d="m219.570312 197.136719-7.417968-4.285157v8.566407zm0 0"/><path d="m219.570312 188.566406-7.417968-4.28125v8.566406zm0 0"/><path d="m204.730469 154.296875-7.417969-4.28125v8.566406zm0 0"/><path d="m152.792969 175.714844-7.417969-4.28125v8.566406zm0 0"/><path d="m152.792969 192.851562-7.417969-4.285156v8.570313zm0 0"/><path d="m175.054688 214.269531-7.421876-4.285156v8.570313zm0 0"/><path d="m182.472656 218.554688-7.417968-4.285157v8.566407zm0 0"/><path d="m212.152344 201.417969-7.421875-4.28125v8.566406zm0 0"/><path d="m226.992188 184.285156-7.421876-4.285156v8.566406zm0 0"/><path d="m226.992188 175.714844-7.421876-4.28125v8.566406zm0 0"/><path d="m212.152344 150.015625-7.421875-4.285156v8.566406zm0 0"/><path d="m160.214844 145.730469-7.421875-4.285157v8.570313zm0 0"/><path d="m145.375 180-7.417969-4.285156v8.570312zm0 0"/><path d="m160.214844 214.269531-7.421875-4.285156v8.570313zm0 0"/><path d="m175.054688 222.835938-7.421876-4.28125v8.566406zm0 0"/><path d="m219.570312 205.703125-7.417968-4.285156v8.566406zm0 0"/><path d="m234.410156 205.703125-7.417968-4.285156v8.566406zm0 0"/><path d="m234.410156 188.566406-7.417968-4.28125v8.566406zm0 0"/><path d="m234.410156 180-7.417968-4.285156v8.570312zm0 0"/><path d="m234.410156 162.863281-7.417968-4.28125v8.566407zm0 0"/><path d="m182.472656 124.3125-7.417968-4.285156v8.566406zm0 0"/><path d="m137.957031 201.417969-7.421875-4.28125v8.566406zm0 0"/><path d="m167.632812 227.121094-7.417968-4.285156v8.570312zm0 0"/><path d="m226.992188 209.984375-7.421876-4.28125v8.566406zm0 0"/><path d="m241.832031 209.984375-7.421875-4.28125v8.566406zm0 0"/><path d="m241.832031 201.417969-7.421875-4.28125v8.566406zm0 0"/><path d="m241.832031 192.851562-7.421875-4.285156v8.570313zm0 0"/><path d="m241.832031 150.015625-7.421875-4.285156v8.566406zm0 0"/><path d="m167.632812 235.6875-7.417968-4.28125v8.566406zm0 0"/><path d="m175.054688 239.972656-7.421876-4.285156v8.566406zm0 0"/><path d="m234.410156 214.269531-7.417968-4.285156v8.570313zm0 0"/><path d="m249.25 197.136719-7.417969-4.285157v8.566407zm0 0"/><path d="m249.25 188.566406-7.417969-4.28125v8.566406zm0 0"/><path d="m249.25 180-7.417969-4.285156v8.570312zm0 0"/><path d="m249.25 154.296875-7.417969-4.28125v8.566406zm0 0"/><path d="m249.25 145.730469-7.417969-4.285157v8.570313zm0 0"/><path d="m241.832031 141.445312-7.421875-4.28125v8.566407zm0 0"/><path d="m123.117188 192.851562-7.421876-4.285156v8.570313zm0 0"/><path d="m123.117188 218.554688-7.421876-4.285157v8.566407zm0 0"/><path d="m130.535156 222.835938-7.417968-4.28125v8.566406zm0 0"/><path d="m167.632812 244.253906-7.417968-4.28125v8.566406zm0 0"/><path d="m219.570312 231.40625-7.417968-4.285156v8.566406zm0 0"/><path d="m241.832031 218.554688-7.421875-4.285157v8.566407zm0 0"/><path d="m256.667969 201.417969-7.417969-4.28125v8.566406zm0 0"/><path d="m256.667969 192.851562-7.417969-4.285156v8.570313zm0 0"/><path d="m123.117188 227.121094-7.421876-4.285156v8.570312zm0 0"/><path d="m264.089844 222.835938-7.421875-4.28125v8.566406zm0 0"/><path d="m264.089844 214.269531-7.421875-4.285156v8.570313zm0 0"/><path d="m271.507812 227.121094-7.417968-4.285156v8.570312zm0 0"/><path d="m271.507812 218.554688-7.417968-4.285157v8.566407zm0 0"/><path d="m271.507812 209.984375-7.417968-4.28125v8.566406zm0 0"/><path d="m278.929688 214.269531-7.421876-4.285156v8.570313zm0 0"/><path d="m249.25 248.539062-7.417969-4.285156v8.570313zm0 0"/><path d="m264.089844 239.972656-7.421875-4.285156v8.566406zm0 0"/><path d="m271.507812 235.6875-7.417968-4.28125v8.566406zm0 0"/><path d="m286.347656 227.121094-7.417968-4.285156v8.570312zm0 0"/><path d="m271.507812 244.253906-7.417968-4.28125v8.566406zm0 0"/><path d="m293.765625 231.40625-7.417969-4.285156v8.566406zm0 0"/><path d="m271.507812 252.824219-7.417968-4.285157v8.566407zm0 0"/></g></svg>