<svg height="360pt" viewBox="0 0 360 360" width="360pt" xmlns="http://www.w3.org/2000/svg"><path d="m0 0h360v360h-360z" fill="#800080"/><g fill="#fff"><path d="m183.460938 174.007812 10.382812-5.996093v11.988281zm0 0"/><path d="m173.078125 191.988281 10.382813-5.996093v11.988281zm0 0"/><path d="m173.078125 156.023438 10.382813-5.992188v11.988281zm0 0"/><path d="m162.695312 162.019531 10.382813-5.996093v11.988281zm0 0"/><path d="m152.316406 168.011719 10.378906-5.992188v11.988281zm0 0"/><path d="m152.316406 180 10.378906-5.992188v11.984376zm0 0"/><path d="m173.078125 203.976562 10.382813-5.996093v11.988281zm0 0"/><path d="m183.460938 197.980469 10.382812-5.992188v11.988281zm0 0"/><path d="m204.222656 162.019531 10.382813-5.996093v11.988281zm0 0"/><path d="m173.078125 144.035156 10.382813-5.992187v11.988281zm0 0"/><path d="m162.695312 150.03125 10.382813-5.996094v11.988282zm0 0"/><path d="m152.316406 156.023438 10.378906-5.992188v11.988281zm0 0"/><path d="m141.933594 162.019531 10.382812-5.996093v11.988281zm0 0"/><path d="m141.933594 197.980469 10.382812-5.992188v11.988281zm0 0"/><path d="m173.078125 215.964844 10.382813-5.996094v11.988281zm0 0"/><path d="m183.460938 209.96875 10.382812-5.992188v11.988282zm0 0"/><path d="m193.84375 203.976562 10.378906-5.996093v11.988281zm0 0"/><path d="m214.605469 180 10.382812-5.992188v11.984376zm0 0"/><path d="m183.460938 138.042969 10.382812-5.996094v11.988281zm0 0"/><path d="m173.078125 132.046875 10.382813-5.992187v11.988281zm0 0"/><path d="m162.695312 138.042969 10.382813-5.996094v11.988281zm0 0"/><path d="m152.316406 144.035156 10.378906-5.992187v11.988281zm0 0"/><path d="m131.550781 180 10.382813-5.992188v11.984376zm0 0"/><path d="m141.933594 209.96875 10.382812-5.992188v11.988282zm0 0"/><path d="m152.316406 215.964844 10.378906-5.996094v11.988281zm0 0"/><path d="m162.695312 221.957031 10.382813-5.992187v11.988281zm0 0"/><path d="m193.84375 215.964844 10.378906-5.996094v11.988281zm0 0"/><path d="m224.988281 209.96875 10.382813-5.992188v11.988282zm0 0"/><path d="m224.988281 197.980469 10.382813-5.992188v11.988281zm0 0"/><path d="m224.988281 174.007812 10.382813-5.996093v11.988281zm0 0"/><path d="m214.605469 144.035156 10.382812-5.992187v11.988281zm0 0"/><path d="m173.078125 120.058594 10.382813-5.992188v11.988282zm0 0"/><path d="m162.695312 126.054688 10.382813-5.996094v11.988281zm0 0"/><path d="m141.933594 138.042969 10.382812-5.996094v11.988281zm0 0"/><path d="m121.167969 150.03125 10.382812-5.996094v11.988282zm0 0"/><path d="m121.167969 174.007812 10.382812-5.996093v11.988281zm0 0"/><path d="m121.167969 185.992188 10.382812-5.992188v11.988281zm0 0"/><path d="m152.316406 227.953125 10.378906-5.996094v11.988281zm0 0"/><path d="m162.695312 233.945312 10.382813-5.992187v11.988281zm0 0"/><path d="m204.222656 221.957031 10.382813-5.992187v11.988281zm0 0"/><path d="m235.371094 215.964844 10.378906-5.996094v11.988281zm0 0"/><path d="m235.371094 203.976562 10.378906-5.996093v11.988281zm0 0"/><path d="m235.371094 180 10.378906-5.992188v11.984376zm0 0"/><path d="m235.371094 156.023438 10.378906-5.992188v11.988281zm0 0"/><path d="m224.988281 138.042969 10.382813-5.996094v11.988281zm0 0"/><path d="m214.605469 132.046875 10.382812-5.992187v11.988281zm0 0"/><path d="m173.078125 108.074219 10.382813-5.996094v11.988281zm0 0"/><path d="m121.167969 138.042969 10.382812-5.996094v11.988281zm0 0"/><path d="m110.789062 168.011719 10.378907-5.992188v11.988281zm0 0"/><path d="m110.789062 180 10.378907-5.992188v11.984376zm0 0"/><path d="m110.789062 191.988281 10.378907-5.996093v11.988281zm0 0"/><path d="m131.550781 227.953125 10.382813-5.996094v11.988281zm0 0"/><path d="m152.316406 239.941406 10.378906-5.996094v11.988282zm0 0"/><path d="m173.078125 251.925781 10.382813-5.992187v11.988281zm0 0"/><path d="m183.460938 245.933594 10.382812-5.992188v11.984375zm0 0"/><path d="m204.222656 233.945312 10.382813-5.992187v11.988281zm0 0"/><path d="m214.605469 227.953125 10.382812-5.996094v11.988281zm0 0"/><path d="m224.988281 221.957031 10.382813-5.992187v11.988281zm0 0"/><path d="m245.75 221.957031 10.382812-5.992187v11.988281zm0 0"/><path d="m245.75 209.96875 10.382812-5.992188v11.988282zm0 0"/><path d="m235.371094 132.046875 10.378906-5.992187v11.988281zm0 0"/><path d="m224.988281 126.054688 10.382813-5.996094v11.988281zm0 0"/><path d="m214.605469 120.058594 10.382812-5.992188v11.988282zm0 0"/><path d="m204.222656 114.066406 10.382813-5.992187v11.984375zm0 0"/><path d="m173.078125 96.085938 10.382813-5.996094v11.988281zm0 0"/><path d="m141.933594 114.066406 10.382812-5.992187v11.984375zm0 0"/><path d="m100.40625 150.03125 10.382812-5.996094v11.988282zm0 0"/><path d="m100.40625 162.019531 10.382812-5.996093v11.988281zm0 0"/><path d="m100.40625 197.980469 10.382812-5.992188v11.988281zm0 0"/><path d="m100.40625 209.96875 10.382812-5.992188v11.988282zm0 0"/><path d="m110.789062 227.953125 10.378907-5.996094v11.988281zm0 0"/><path d="m152.316406 251.925781 10.378906-5.992187v11.988281zm0 0"/><path d="m162.695312 257.921875 10.382813-5.996094v11.988281zm0 0"/><path d="m173.078125 263.914062 10.382813-5.992187v11.988281zm0 0"/><path d="m193.84375 251.925781 10.378906-5.992187v11.988281zm0 0"/><path d="m204.222656 245.933594 10.382813-5.992188v11.984375zm0 0"/><path d="m224.988281 233.945312 10.382813-5.992187v11.988281zm0 0"/><path d="m256.132812 215.964844 10.382813-5.996094v11.988281zm0 0"/><path d="m256.132812 203.976562 10.382813-5.996093v11.988281zm0 0"/><path d="m256.132812 156.023438 10.382813-5.992188v11.988281zm0 0"/><path d="m245.75 126.054688 10.382812-5.996094v11.988281zm0 0"/><path d="m193.84375 96.085938 10.378906-5.996094v11.988281zm0 0"/><path d="m90.023438 132.046875 10.382812-5.992187v11.988281zm0 0"/><path d="m90.023438 144.035156 10.382812-5.992187v11.988281zm0 0"/><path d="m90.023438 191.988281 10.382812-5.996093v11.988281zm0 0"/><path d="m90.023438 215.964844 10.382812-5.996094v11.988281zm0 0"/><path d="m90.023438 227.953125 10.382812-5.996094v11.988281zm0 0"/><path d="m121.167969 245.933594 10.382812-5.992188v11.984375zm0 0"/><path d="m141.933594 257.921875 10.382812-5.996094v11.988281zm0 0"/><path d="m152.316406 263.914062 10.378906-5.992187v11.988281zm0 0"/><path d="m162.695312 269.910156 10.382813-5.996094v11.988282zm0 0"/><path d="m235.371094 239.941406 10.378906-5.996094v11.988282zm0 0"/><path d="m266.515625 233.945312 10.382813-5.992187v11.988281zm0 0"/><path d="m266.515625 221.957031 10.382813-5.992187v11.988281zm0 0"/><path d="m266.515625 138.042969 10.382813-5.996094v11.988281zm0 0"/><path d="m245.75 114.066406 10.382812-5.992187v11.984375zm0 0"/><path d="m224.988281 102.078125 10.382813-5.992187v11.988281zm0 0"/><path d="m193.84375 84.097656 10.378906-5.996094v11.988282zm0 0"/><path d="m183.460938 78.101562 10.382812-5.992187v11.988281zm0 0"/><path d="m141.933594 90.089844 10.382812-5.992188v11.988282zm0 0"/><path d="m121.167969 102.078125 10.382812-5.992187v11.988281zm0 0"/><path d="m100.40625 114.066406 10.382812-5.992187v11.984375zm0 0"/><path d="m79.640625 126.054688 10.382813-5.996094v11.988281zm0 0"/><path d="m79.640625 138.042969 10.382813-5.996094v11.988281zm0 0"/><path d="m79.640625 162.019531 10.382813-5.996093v11.988281zm0 0"/><path d="m79.640625 174.007812 10.382813-5.996093v11.988281zm0 0"/><path d="m79.640625 197.980469 10.382813-5.992188v11.988281zm0 0"/><path d="m79.640625 233.945312 10.382813-5.992187v11.988281zm0 0"/><path d="m90.023438 239.941406 10.382812-5.996094v11.988282zm0 0"/><path d="m100.40625 245.933594 10.382812-5.992188v11.984375zm0 0"/><path d="m110.789062 251.925781 10.378907-5.992187v11.988281zm0 0"/><path d="m152.316406 275.902344 10.378906-5.992188v11.988282zm0 0"/><path d="m162.695312 281.898438 10.382813-5.996094v11.988281zm0 0"/><path d="m235.371094 251.925781 10.378906-5.992187v11.988281zm0 0"/><path d="m256.132812 239.941406 10.382813-5.996094v11.988282zm0 0"/><path d="m276.898438 227.953125 10.378906-5.996094v11.988281zm0 0"/><path d="m276.898438 191.988281 10.378906-5.996093v11.988281zm0 0"/><path d="m276.898438 168.011719 10.378906-5.992188v11.988281zm0 0"/><path d="m276.898438 144.035156 10.378906-5.992187v11.988281zm0 0"/><path d="m276.898438 132.046875 10.378906-5.992187v11.988281zm0 0"/><path d="m276.898438 120.058594 10.378906-5.992188v11.988282zm0 0"/><path d="m266.515625 114.066406 10.382813-5.992187v11.984375zm0 0"/><path d="m235.371094 96.085938 10.378906-5.996094v11.988281zm0 0"/><path d="m224.988281 90.089844 10.382813-5.992188v11.988282zm0 0"/><path d="m162.695312 66.113281 10.382813-5.992187v11.988281zm0 0"/><path d="m152.316406 72.109375 10.378906-5.996094v11.988281zm0 0"/><path d="m131.550781 84.097656 10.382813-5.996094v11.988282zm0 0"/><path d="m110.789062 96.085938 10.378907-5.996094v11.988281zm0 0"/><path d="m90.023438 108.074219 10.382812-5.996094v11.988281zm0 0"/><path d="m79.640625 114.066406 10.382813-5.992187v11.984375zm0 0"/><path d="m69.261719 144.035156 10.378906-5.992187v11.988281zm0 0"/><path d="m69.261719 168.011719 10.378906-5.992188v11.988281zm0 0"/><path d="m69.261719 180 10.378906-5.992188v11.984376zm0 0"/><path d="m69.261719 215.964844 10.378906-5.996094v11.988281zm0 0"/><path d="m69.261719 227.953125 10.378906-5.996094v11.988281zm0 0"/><path d="m69.261719 239.941406 10.378906-5.996094v11.988282zm0 0"/><path d="m79.640625 245.933594 10.382813-5.992188v11.984375zm0 0"/><path d="m90.023438 251.925781 10.382812-5.992187v11.988281zm0 0"/><path d="m100.40625 257.921875 10.382812-5.996094v11.988281zm0 0"/><path d="m121.167969 269.910156 10.382812-5.996094v11.988282zm0 0"/><path d="m141.933594 281.898438 10.382812-5.996094v11.988281zm0 0"/><path d="m152.316406 287.890625 10.378906-5.992187v11.988281zm0 0"/><path d="m173.078125 299.878906 10.382813-5.992187v11.984375zm0 0"/><path d="m204.222656 281.898438 10.382813-5.996094v11.988281zm0 0"/><path d="m214.605469 275.902344 10.382812-5.992188v11.988282zm0 0"/><path d="m245.75 257.921875 10.382812-5.996094v11.988281zm0 0"/><path d="m266.515625 245.933594 10.382813-5.992188v11.984375zm0 0"/><path d="m183.460938 174.007812-10.382813-5.996093v11.988281zm0 0"/><path d="m183.460938 185.992188-10.382813-5.992188v11.988281zm0 0"/><path d="m193.84375 168.011719-10.382812-5.992188v11.988281zm0 0"/><path d="m183.460938 162.019531-10.382813-5.996093v11.988281zm0 0"/><path d="m173.078125 168.011719-10.382813-5.992188v11.988281zm0 0"/><path d="m173.078125 180-10.382813-5.992188v11.984376zm0 0"/><path d="m173.078125 191.988281-10.382813-5.996093v11.988281zm0 0"/><path d="m183.460938 197.980469-10.382813-5.992188v11.988281zm0 0"/><path d="m204.222656 162.019531-10.378906-5.996093v11.988281zm0 0"/><path d="m193.84375 156.023438-10.382812-5.992188v11.988281zm0 0"/><path d="m183.460938 150.03125-10.382813-5.996094v11.988282zm0 0"/><path d="m173.078125 156.023438-10.382813-5.992188v11.988281zm0 0"/><path d="m162.695312 162.019531-10.378906-5.996093v11.988281zm0 0"/><path d="m162.695312 174.007812-10.378906-5.996093v11.988281zm0 0"/><path d="m162.695312 197.980469-10.378906-5.992188v11.988281zm0 0"/><path d="m183.460938 209.96875-10.382813-5.992188v11.988282zm0 0"/><path d="m204.222656 197.980469-10.378906-5.992188v11.988281zm0 0"/><path d="m193.84375 144.035156-10.382812-5.992187v11.988281zm0 0"/><path d="m162.695312 150.03125-10.378906-5.996094v11.988282zm0 0"/><path d="m152.316406 180-10.382812-5.992188v11.984376zm0 0"/><path d="m152.316406 191.988281-10.382812-5.996093v11.988281zm0 0"/><path d="m152.316406 203.976562-10.382812-5.996093v11.988281zm0 0"/><path d="m173.078125 215.964844-10.382813-5.996094v11.988281zm0 0"/><path d="m183.460938 221.957031-10.382813-5.992187v11.988281zm0 0"/><path d="m214.605469 203.976562-10.382813-5.996093v11.988281zm0 0"/><path d="m235.371094 191.988281-10.382813-5.996093v11.988281zm0 0"/><path d="m235.371094 156.023438-10.382813-5.992188v11.988281zm0 0"/><path d="m204.222656 138.042969-10.378906-5.996094v11.988281zm0 0"/><path d="m162.695312 138.042969-10.378906-5.996094v11.988281zm0 0"/><path d="m141.933594 150.03125-10.382813-5.996094v11.988282zm0 0"/><path d="m141.933594 174.007812-10.382813-5.996093v11.988281zm0 0"/><path d="m152.316406 215.964844-10.382812-5.996094v11.988281zm0 0"/><path d="m173.078125 227.953125-10.382813-5.996094v11.988281zm0 0"/><path d="m204.222656 221.957031-10.378906-5.992187v11.988281zm0 0"/><path d="m214.605469 215.964844-10.382813-5.996094v11.988281zm0 0"/><path d="m245.75 197.980469-10.378906-5.992188v11.988281zm0 0"/><path d="m235.371094 144.035156-10.382813-5.992187v11.988281zm0 0"/><path d="m224.988281 138.042969-10.382812-5.996094v11.988281zm0 0"/><path d="m193.84375 120.058594-10.382812-5.992188v11.988282zm0 0"/><path d="m173.078125 120.058594-10.382813-5.992188v11.988282zm0 0"/><path d="m141.933594 138.042969-10.382813-5.996094v11.988281zm0 0"/><path d="m131.550781 144.035156-10.382812-5.992187v11.988281zm0 0"/><path d="m131.550781 156.023438-10.382812-5.992188v11.988281zm0 0"/><path d="m131.550781 168.011719-10.382812-5.992188v11.988281zm0 0"/><path d="m141.933594 221.957031-10.382813-5.992187v11.988281zm0 0"/><path d="m152.316406 227.953125-10.382812-5.996094v11.988281zm0 0"/><path d="m173.078125 239.941406-10.382813-5.996094v11.988282zm0 0"/><path d="m224.988281 221.957031-10.382812-5.992187v11.988281zm0 0"/><path d="m235.371094 215.964844-10.382813-5.996094v11.988281zm0 0"/><path d="m256.132812 215.964844-10.382812-5.996094v11.988281zm0 0"/><path d="m256.132812 203.976562-10.382812-5.996093v11.988281zm0 0"/><path d="m256.132812 168.011719-10.382812-5.992188v11.988281zm0 0"/><path d="m245.75 138.042969-10.378906-5.996094v11.988281zm0 0"/><path d="m193.84375 108.074219-10.382812-5.996094v11.988281zm0 0"/><path d="m162.695312 114.066406-10.378906-5.992187v11.984375zm0 0"/><path d="m152.316406 120.058594-10.382812-5.992188v11.988282zm0 0"/><path d="m131.550781 132.046875-10.382812-5.992187v11.988281zm0 0"/><path d="m121.167969 162.019531-10.378907-5.996093v11.988281zm0 0"/><path d="m121.167969 174.007812-10.378907-5.996093v11.988281zm0 0"/><path d="m121.167969 209.96875-10.378907-5.992188v11.988282zm0 0"/><path d="m141.933594 233.945312-10.382813-5.992187v11.988281zm0 0"/><path d="m152.316406 239.941406-10.382812-5.996094v11.988282zm0 0"/><path d="m183.460938 257.921875-10.382813-5.996094v11.988281zm0 0"/><path d="m193.84375 251.925781-10.382812-5.992187v11.988281zm0 0"/><path d="m204.222656 245.933594-10.378906-5.992188v11.984375zm0 0"/><path d="m214.605469 239.941406-10.382813-5.996094v11.988282zm0 0"/><path d="m266.515625 209.96875-10.382813-5.992188v11.988282zm0 0"/><path d="m266.515625 197.980469-10.382813-5.992188v11.988281zm0 0"/><path d="m266.515625 150.03125-10.382813-5.996094v11.988282zm0 0"/><path d="m245.75 126.054688-10.378906-5.996094v11.988281zm0 0"/><path d="m235.371094 120.058594-10.382813-5.992188v11.988282zm0 0"/><path d="m204.222656 102.078125-10.378906-5.992187v11.988281zm0 0"/><path d="m173.078125 96.085938-10.382813-5.996094v11.988281zm0 0"/><path d="m121.167969 126.054688-10.378907-5.996094v11.988281zm0 0"/><path d="m110.789062 191.988281-10.382812-5.996093v11.988281zm0 0"/><path d="m110.789062 203.976562-10.382812-5.996093v11.988281zm0 0"/><path d="m110.789062 215.964844-10.382812-5.996094v11.988281zm0 0"/><path d="m162.695312 257.921875-10.378906-5.996094v11.988281zm0 0"/><path d="m173.078125 263.914062-10.382813-5.992187v11.988281zm0 0"/><path d="m183.460938 269.910156-10.382813-5.996094v11.988282zm0 0"/><path d="m204.222656 257.921875-10.378906-5.996094v11.988281zm0 0"/><path d="m245.75 233.945312-10.378906-5.992187v11.988281zm0 0"/><path d="m276.898438 203.976562-10.382813-5.996093v11.988281zm0 0"/><path d="m276.898438 156.023438-10.382813-5.992188v11.988281zm0 0"/><path d="m266.515625 126.054688-10.382813-5.996094v11.988281zm0 0"/><path d="m256.132812 120.058594-10.382812-5.992188v11.988282zm0 0"/><path d="m245.75 114.066406-10.378906-5.992187v11.984375zm0 0"/><path d="m100.40625 138.042969-10.382812-5.996094v11.988281zm0 0"/><path d="m100.40625 174.007812-10.382812-5.996093v11.988281zm0 0"/><path d="m100.40625 185.992188-10.382812-5.992188v11.988281zm0 0"/><path d="m100.40625 233.945312-10.382812-5.992187v11.988281zm0 0"/><path d="m173.078125 275.902344-10.382813-5.992188v11.988282zm0 0"/><path d="m183.460938 281.898438-10.382813-5.996094v11.988281zm0 0"/><path d="m193.84375 275.902344-10.382812-5.992188v11.988282zm0 0"/><path d="m235.371094 251.925781-10.382813-5.992187v11.988281zm0 0"/><path d="m256.132812 239.941406-10.382812-5.996094v11.988282zm0 0"/><path d="m287.277344 138.042969-10.378906-5.996094v11.988281zm0 0"/><path d="m266.515625 114.066406-10.382813-5.992187v11.984375zm0 0"/><path d="m245.75 102.078125-10.378906-5.992187v11.988281zm0 0"/><path d="m90.023438 168.011719-10.382813-5.992188v11.988281zm0 0"/><path d="m90.023438 239.941406-10.382813-5.996094v11.988282zm0 0"/><path d="m100.40625 245.933594-10.382812-5.992188v11.984375zm0 0"/><path d="m110.789062 251.925781-10.382812-5.992187v11.988281zm0 0"/><path d="m162.695312 281.898438-10.378906-5.996094v11.988281zm0 0"/><path d="m276.898438 239.941406-10.382813-5.996094v11.988282zm0 0"/></g></svg>