<svg height="360pt" viewBox="0 0 360 360" width="360pt" xmlns="http://www.w3.org/2000/svg"><path d="m0 0h360v360h-360z" fill="#fff"/><g fill="#800080"><path d="m218.132812 203.117188 2.859376-1.652344v3.300781zm0 0"/><path d="m218.132812 199.8125 2.859376-1.648438v3.300782zm0 0"/><path d="m218.132812 196.511719 2.859376-1.652344v3.304687zm0 0"/><path d="m218.132812 193.210938 2.859376-1.652344v3.300781zm0 0"/><path d="m218.132812 189.90625 2.859376-1.652344v3.304688zm0 0"/><path d="m218.132812 186.605469 2.859376-1.652344v3.300781zm0 0"/><path d="m218.132812 183.300781 2.859376-1.648437v3.300781zm0 0"/><path d="m218.132812 180 2.859376-1.652344v3.304688zm0 0"/><path d="m218.132812 176.699219 2.859376-1.652344v3.300781zm0 0"/><path d="m218.132812 173.394531 2.859376-1.648437v3.300781zm0 0"/><path d="m218.132812 170.09375 2.859376-1.652344v3.304688zm0 0"/><path d="m218.132812 166.789062 2.859376-1.648437v3.300781zm0 0"/><path d="m218.132812 163.488281 2.859376-1.652343v3.304687zm0 0"/><path d="m218.132812 160.1875 2.859376-1.652344v3.300782zm0 0"/><path d="m218.132812 156.882812 2.859376-1.648437v3.300781zm0 0"/><path d="m215.273438 155.234375 2.859374-1.652344v3.300781zm0 0"/><path d="m212.410156 153.582031 2.863282-1.652343v3.304687zm0 0"/><path d="m209.550781 151.929688 2.859375-1.652344v3.304687zm0 0"/><path d="m206.691406 150.277344 2.859375-1.648438v3.300782zm0 0"/><path d="m203.832031 148.628906 2.859375-1.652344v3.300782zm0 0"/><path d="m200.972656 146.976562 2.859375-1.652343v3.304687zm0 0"/><path d="m198.113281 145.324219 2.859375-1.648438v3.300781zm0 0"/><path d="m195.253906 143.675781 2.859375-1.652343v3.300781zm0 0"/><path d="m192.394531 142.023438 2.859375-1.652344v3.304687zm0 0"/><path d="m189.53125 140.371094 2.863281-1.648438v3.300782zm0 0"/><path d="m186.671875 138.722656 2.859375-1.652344v3.300782zm0 0"/><path d="m183.8125 137.070312 2.859375-1.652343v3.304687zm0 0"/><path d="m180.953125 135.417969 2.859375-1.648438v3.300781zm0 0"/><path d="m178.09375 133.769531 2.859375-1.652343v3.300781zm0 0"/><path d="m175.234375 135.417969 2.859375-1.648438v3.300781zm0 0"/><path d="m172.375 137.070312 2.859375-1.652343v3.304687zm0 0"/><path d="m169.515625 138.722656 2.859375-1.652344v3.300782zm0 0"/><path d="m166.652344 140.371094 2.863281-1.648438v3.300782zm0 0"/><path d="m163.792969 142.023438 2.859375-1.652344v3.304687zm0 0"/><path d="m160.933594 143.675781 2.859375-1.652343v3.300781zm0 0"/><path d="m158.074219 145.324219 2.859375-1.648438v3.300781zm0 0"/><path d="m155.214844 146.976562 2.859375-1.652343v3.304687zm0 0"/><path d="m152.355469 148.628906 2.859375-1.652344v3.300782zm0 0"/><path d="m149.496094 150.277344 2.859375-1.648438v3.300782zm0 0"/><path d="m146.632812 151.929688 2.863282-1.652344v3.304687zm0 0"/><path d="m143.773438 153.582031 2.859374-1.652343v3.304687zm0 0"/><path d="m140.914062 155.234375 2.859376-1.652344v3.300781zm0 0"/><path d="m138.054688 156.882812 2.859374-1.648437v3.300781zm0 0"/><path d="m138.054688 160.1875 2.859374-1.652344v3.300782zm0 0"/><path d="m138.054688 163.488281 2.859374-1.652343v3.304687zm0 0"/><path d="m138.054688 166.789062 2.859374-1.648437v3.300781zm0 0"/><path d="m138.054688 170.09375 2.859374-1.652344v3.304688zm0 0"/><path d="m138.054688 173.394531 2.859374-1.648437v3.300781zm0 0"/><path d="m138.054688 176.699219 2.859374-1.652344v3.300781zm0 0"/><path d="m138.054688 180 2.859374-1.652344v3.304688zm0 0"/><path d="m138.054688 183.300781 2.859374-1.648437v3.300781zm0 0"/><path d="m138.054688 186.605469 2.859374-1.652344v3.300781zm0 0"/><path d="m138.054688 189.90625 2.859374-1.652344v3.304688zm0 0"/><path d="m138.054688 193.210938 2.859374-1.652344v3.300781zm0 0"/><path d="m138.054688 196.511719 2.859374-1.652344v3.304687zm0 0"/><path d="m138.054688 199.8125 2.859374-1.648438v3.300782zm0 0"/><path d="m138.054688 203.117188 2.859374-1.652344v3.300781zm0 0"/><path d="m140.914062 204.765625 2.859376-1.648437v3.300781zm0 0"/><path d="m143.773438 206.417969 2.859374-1.652344v3.304687zm0 0"/><path d="m146.632812 208.070312 2.863282-1.652343v3.304687zm0 0"/><path d="m149.496094 209.722656 2.859375-1.652344v3.300782zm0 0"/><path d="m152.355469 211.371094 2.859375-1.648438v3.300782zm0 0"/><path d="m155.214844 213.023438 2.859375-1.652344v3.304687zm0 0"/><path d="m158.074219 214.675781 2.859375-1.652343v3.300781zm0 0"/><path d="m160.933594 216.324219 2.859375-1.648438v3.300781zm0 0"/><path d="m163.792969 217.976562 2.859375-1.652343v3.304687zm0 0"/><path d="m166.652344 219.628906 2.863281-1.652344v3.300782zm0 0"/><path d="m169.515625 221.277344 2.859375-1.648438v3.300782zm0 0"/><path d="m172.375 222.929688 2.859375-1.652344v3.304687zm0 0"/><path d="m175.234375 224.582031 2.859375-1.652343v3.300781zm0 0"/><path d="m178.09375 226.230469 2.859375-1.648438v3.300781zm0 0"/><path d="m180.953125 224.582031 2.859375-1.652343v3.300781zm0 0"/><path d="m183.8125 222.929688 2.859375-1.652344v3.304687zm0 0"/><path d="m186.671875 221.277344 2.859375-1.648438v3.300782zm0 0"/><path d="m189.53125 219.628906 2.863281-1.652344v3.300782zm0 0"/><path d="m192.394531 217.976562 2.859375-1.652343v3.304687zm0 0"/><path d="m195.253906 216.324219 2.859375-1.648438v3.300781zm0 0"/><path d="m198.113281 214.675781 2.859375-1.652343v3.300781zm0 0"/><path d="m200.972656 213.023438 2.859375-1.652344v3.304687zm0 0"/><path d="m203.832031 211.371094 2.859375-1.648438v3.300782zm0 0"/><path d="m206.691406 209.722656 2.859375-1.652344v3.300782zm0 0"/><path d="m209.550781 208.070312 2.859375-1.652343v3.304687zm0 0"/><path d="m212.410156 206.417969 2.863282-1.652344v3.304687zm0 0"/><path d="m215.273438 204.765625 2.859374-1.648437v3.300781zm0 0"/><path d="m229.570312 209.722656 2.859376-1.652344v3.300782zm0 0"/><path d="m229.570312 206.417969 2.859376-1.652344v3.304687zm0 0"/><path d="m229.570312 203.117188 2.859376-1.652344v3.300781zm0 0"/><path d="m229.570312 199.8125 2.859376-1.648438v3.300782zm0 0"/><path d="m229.570312 196.511719 2.859376-1.652344v3.304687zm0 0"/><path d="m229.570312 193.210938 2.859376-1.652344v3.300781zm0 0"/><path d="m229.570312 189.90625 2.859376-1.652344v3.304688zm0 0"/><path d="m229.570312 186.605469 2.859376-1.652344v3.300781zm0 0"/><path d="m229.570312 183.300781 2.859376-1.648437v3.300781zm0 0"/><path d="m229.570312 180 2.859376-1.652344v3.304688zm0 0"/><path d="m229.570312 176.699219 2.859376-1.652344v3.300781zm0 0"/><path d="m229.570312 173.394531 2.859376-1.648437v3.300781zm0 0"/><path d="m229.570312 170.09375 2.859376-1.652344v3.304688zm0 0"/><path d="m229.570312 166.789062 2.859376-1.648437v3.300781zm0 0"/><path d="m229.570312 163.488281 2.859376-1.652343v3.304687zm0 0"/><path d="m229.570312 160.1875 2.859376-1.652344v3.300782zm0 0"/><path d="m229.570312 156.882812 2.859376-1.648437v3.300781zm0 0"/><path d="m229.570312 153.582031 2.859376-1.652343v3.304687zm0 0"/><path d="m229.570312 150.277344 2.859376-1.648438v3.300782zm0 0"/><path d="m226.710938 148.628906 2.859374-1.652344v3.300782zm0 0"/><path d="m223.851562 146.976562 2.859376-1.652343v3.304687zm0 0"/><path d="m220.992188 145.324219 2.859374-1.648438v3.300781zm0 0"/><path d="m218.132812 143.675781 2.859376-1.652343v3.300781zm0 0"/><path d="m215.273438 142.023438 2.859374-1.652344v3.304687zm0 0"/><path d="m212.410156 140.371094 2.863282-1.648438v3.300782zm0 0"/><path d="m209.550781 138.722656 2.859375-1.652344v3.300782zm0 0"/><path d="m206.691406 137.070312 2.859375-1.652343v3.304687zm0 0"/><path d="m203.832031 135.417969 2.859375-1.648438v3.300781zm0 0"/><path d="m200.972656 133.769531 2.859375-1.652343v3.300781zm0 0"/><path d="m198.113281 132.117188 2.859375-1.652344v3.304687zm0 0"/><path d="m195.253906 130.464844 2.859375-1.652344v3.304688zm0 0"/><path d="m192.394531 128.8125 2.859375-1.648438v3.300782zm0 0"/><path d="m189.53125 127.164062 2.863281-1.652343v3.300781zm0 0"/><path d="m186.671875 125.511719 2.859375-1.652344v3.304687zm0 0"/><path d="m183.8125 123.859375 2.859375-1.648437v3.300781zm0 0"/><path d="m180.953125 122.210938 2.859375-1.652344v3.300781zm0 0"/><path d="m178.09375 120.558594 2.859375-1.652344v3.304688zm0 0"/><path d="m175.234375 122.210938 2.859375-1.652344v3.300781zm0 0"/><path d="m172.375 123.859375 2.859375-1.648437v3.300781zm0 0"/><path d="m169.515625 125.511719 2.859375-1.652344v3.304687zm0 0"/><path d="m166.652344 127.164062 2.863281-1.652343v3.300781zm0 0"/><path d="m163.792969 128.8125 2.859375-1.648438v3.300782zm0 0"/><path d="m160.933594 130.464844 2.859375-1.652344v3.304688zm0 0"/><path d="m158.074219 132.117188 2.859375-1.652344v3.304687zm0 0"/><path d="m155.214844 133.769531 2.859375-1.652343v3.300781zm0 0"/><path d="m152.355469 135.417969 2.859375-1.648438v3.300781zm0 0"/><path d="m149.496094 137.070312 2.859375-1.652343v3.304687zm0 0"/><path d="m146.632812 138.722656 2.863282-1.652344v3.300782zm0 0"/><path d="m143.773438 140.371094 2.859374-1.648438v3.300782zm0 0"/><path d="m140.914062 142.023438 2.859376-1.652344v3.304687zm0 0"/><path d="m138.054688 143.675781 2.859374-1.652343v3.300781zm0 0"/><path d="m135.195312 145.324219 2.859376-1.648438v3.300781zm0 0"/><path d="m132.335938 146.976562 2.859374-1.652343v3.304687zm0 0"/><path d="m129.476562 148.628906 2.859376-1.652344v3.300782zm0 0"/><path d="m126.617188 150.277344 2.859374-1.648438v3.300782zm0 0"/><path d="m126.617188 153.582031 2.859374-1.652343v3.304687zm0 0"/><path d="m126.617188 156.882812 2.859374-1.648437v3.300781zm0 0"/><path d="m126.617188 160.1875 2.859374-1.652344v3.300782zm0 0"/><path d="m126.617188 163.488281 2.859374-1.652343v3.304687zm0 0"/><path d="m126.617188 166.789062 2.859374-1.648437v3.300781zm0 0"/><path d="m126.617188 170.09375 2.859374-1.652344v3.304688zm0 0"/><path d="m126.617188 173.394531 2.859374-1.648437v3.300781zm0 0"/><path d="m126.617188 176.699219 2.859374-1.652344v3.300781zm0 0"/><path d="m126.617188 180 2.859374-1.652344v3.304688zm0 0"/><path d="m126.617188 183.300781 2.859374-1.648437v3.300781zm0 0"/><path d="m126.617188 186.605469 2.859374-1.652344v3.300781zm0 0"/><path d="m126.617188 189.90625 2.859374-1.652344v3.304688zm0 0"/><path d="m126.617188 193.210938 2.859374-1.652344v3.300781zm0 0"/><path d="m126.617188 196.511719 2.859374-1.652344v3.304687zm0 0"/><path d="m126.617188 199.8125 2.859374-1.648438v3.300782zm0 0"/><path d="m126.617188 203.117188 2.859374-1.652344v3.300781zm0 0"/><path d="m126.617188 206.417969 2.859374-1.652344v3.304687zm0 0"/><path d="m126.617188 209.722656 2.859374-1.652344v3.300782zm0 0"/><path d="m129.476562 211.371094 2.859376-1.648438v3.300782zm0 0"/><path d="m132.335938 213.023438 2.859374-1.652344v3.304687zm0 0"/><path d="m135.195312 214.675781 2.859376-1.652343v3.300781zm0 0"/><path d="m138.054688 216.324219 2.859374-1.648438v3.300781zm0 0"/><path d="m140.914062 217.976562 2.859376-1.652343v3.304687zm0 0"/><path d="m143.773438 219.628906 2.859374-1.652344v3.300782zm0 0"/><path d="m146.632812 221.277344 2.863282-1.648438v3.300782zm0 0"/><path d="m149.496094 222.929688 2.859375-1.652344v3.304687zm0 0"/><path d="m152.355469 224.582031 2.859375-1.652343v3.300781zm0 0"/><path d="m155.214844 226.230469 2.859375-1.648438v3.300781zm0 0"/><path d="m158.074219 227.882812 2.859375-1.652343v3.304687zm0 0"/><path d="m160.933594 229.535156 2.859375-1.652344v3.304688zm0 0"/><path d="m163.792969 231.1875 2.859375-1.652344v3.300782zm0 0"/><path d="m166.652344 232.835938 2.863281-1.648438v3.300781zm0 0"/><path d="m169.515625 234.488281 2.859375-1.652343v3.304687zm0 0"/><path d="m172.375 236.140625 2.859375-1.652344v3.300781zm0 0"/><path d="m175.234375 237.789062 2.859375-1.648437v3.300781zm0 0"/><path d="m178.09375 239.441406 2.859375-1.652344v3.304688zm0 0"/><path d="m180.953125 237.789062 2.859375-1.648437v3.300781zm0 0"/><path d="m183.8125 236.140625 2.859375-1.652344v3.300781zm0 0"/><path d="m186.671875 234.488281 2.859375-1.652343v3.304687zm0 0"/><path d="m189.53125 232.835938 2.863281-1.648438v3.300781zm0 0"/><path d="m192.394531 231.1875 2.859375-1.652344v3.300782zm0 0"/><path d="m195.253906 229.535156 2.859375-1.652344v3.304688zm0 0"/><path d="m198.113281 227.882812 2.859375-1.652343v3.304687zm0 0"/><path d="m200.972656 226.230469 2.859375-1.648438v3.300781zm0 0"/><path d="m203.832031 224.582031 2.859375-1.652343v3.300781zm0 0"/><path d="m206.691406 222.929688 2.859375-1.652344v3.304687zm0 0"/><path d="m209.550781 221.277344 2.859375-1.648438v3.300782zm0 0"/><path d="m212.410156 219.628906 2.863282-1.652344v3.300782zm0 0"/><path d="m215.273438 217.976562 2.859374-1.652343v3.304687zm0 0"/><path d="m218.132812 216.324219 2.859376-1.648438v3.300781zm0 0"/><path d="m220.992188 214.675781 2.859374-1.652343v3.300781zm0 0"/><path d="m223.851562 213.023438 2.859376-1.652344v3.304687zm0 0"/><path d="m226.710938 211.371094 2.859374-1.648438v3.300782zm0 0"/><path d="m309.648438 255.953125 2.859374-1.652344v3.304688zm0 0"/><path d="m309.648438 252.652344 2.859374-1.652344v3.300781zm0 0"/><path d="m309.648438 249.347656 2.859374-1.652344v3.304688zm0 0"/><path d="m309.648438 246.046875 2.859374-1.652344v3.300781zm0 0"/><path d="m309.648438 242.742188 2.859374-1.648438v3.300781zm0 0"/><path d="m309.648438 239.441406 2.859374-1.652344v3.304688zm0 0"/><path d="m309.648438 236.140625 2.859374-1.652344v3.300781zm0 0"/><path d="m309.648438 232.835938 2.859374-1.648438v3.300781zm0 0"/><path d="m309.648438 229.535156 2.859374-1.652344v3.304688zm0 0"/><path d="m309.648438 226.230469 2.859374-1.648438v3.300781zm0 0"/><path d="m309.648438 222.929688 2.859374-1.652344v3.304687zm0 0"/><path d="m309.648438 219.628906 2.859374-1.652344v3.300782zm0 0"/><path d="m309.648438 216.324219 2.859374-1.648438v3.300781zm0 0"/><path d="m309.648438 213.023438 2.859374-1.652344v3.304687zm0 0"/><path d="m309.648438 209.722656 2.859374-1.652344v3.300782zm0 0"/><path d="m309.648438 206.417969 2.859374-1.652344v3.304687zm0 0"/><path d="m309.648438 203.117188 2.859374-1.652344v3.300781zm0 0"/><path d="m309.648438 199.8125 2.859374-1.648438v3.300782zm0 0"/><path d="m309.648438 196.511719 2.859374-1.652344v3.304687zm0 0"/><path d="m309.648438 193.210938 2.859374-1.652344v3.300781zm0 0"/><path d="m309.648438 189.90625 2.859374-1.652344v3.304688zm0 0"/><path d="m309.648438 186.605469 2.859374-1.652344v3.300781zm0 0"/><path d="m309.648438 183.300781 2.859374-1.648437v3.300781zm0 0"/><path d="m309.648438 180 2.859374-1.652344v3.304688zm0 0"/><path d="m309.648438 176.699219 2.859374-1.652344v3.300781zm0 0"/><path d="m309.648438 173.394531 2.859374-1.648437v3.300781zm0 0"/><path d="m309.648438 170.09375 2.859374-1.652344v3.304688zm0 0"/><path d="m309.648438 166.789062 2.859374-1.648437v3.300781zm0 0"/><path d="m309.648438 163.488281 2.859374-1.652343v3.304687zm0 0"/><path d="m309.648438 160.1875 2.859374-1.652344v3.300782zm0 0"/><path d="m309.648438 156.882812 2.859374-1.648437v3.300781zm0 0"/><path d="m309.648438 153.582031 2.859374-1.652343v3.304687zm0 0"/><path d="m309.648438 150.277344 2.859374-1.648438v3.300782zm0 0"/><path d="m309.648438 146.976562 2.859374-1.652343v3.304687zm0 0"/><path d="m309.648438 143.675781 2.859374-1.652343v3.300781zm0 0"/><path d="m309.648438 140.371094 2.859374-1.648438v3.300782zm0 0"/><path d="m309.648438 137.070312 2.859374-1.652343v3.304687zm0 0"/><path d="m309.648438 133.769531 2.859374-1.652343v3.300781zm0 0"/><path d="m309.648438 130.464844 2.859374-1.652344v3.304688zm0 0"/><path d="m309.648438 127.164062 2.859374-1.652343v3.300781zm0 0"/><path d="m309.648438 123.859375 2.859374-1.648437v3.300781zm0 0"/><path d="m309.648438 120.558594 2.859374-1.652344v3.304688zm0 0"/><path d="m309.648438 117.257812 2.859374-1.652343v3.300781zm0 0"/><path d="m309.648438 113.953125 2.859374-1.648437v3.300781zm0 0"/><path d="m309.648438 110.652344 2.859374-1.652344v3.304688zm0 0"/><path d="m309.648438 107.347656 2.859374-1.648437v3.300781zm0 0"/><path d="m309.648438 104.046875 2.859374-1.652344v3.304688zm0 0"/><path d="m306.789062 102.394531 2.859376-1.648437v3.300781zm0 0"/><path d="m303.929688 100.746094 2.859374-1.652344v3.300781zm0 0"/><path d="m301.066406 99.09375 2.863282-1.652344v3.304688zm0 0"/><path d="m298.207031 97.441406 2.859375-1.648437v3.300781zm0 0"/><path d="m295.347656 95.792969 2.859375-1.652344v3.300781zm0 0"/><path d="m292.488281 94.140625 2.859375-1.652344v3.304688zm0 0"/><path d="m289.628906 92.488281 2.859375-1.652343v3.304687zm0 0"/><path d="m286.769531 90.835938 2.859375-1.648438v3.300781zm0 0"/><path d="m283.910156 89.1875 2.859375-1.652344v3.300782zm0 0"/><path d="m281.050781 87.535156 2.859375-1.652344v3.304688zm0 0"/><path d="m278.1875 85.882812 2.863281-1.648437v3.300781zm0 0"/><path d="m275.328125 84.234375 2.859375-1.652344v3.300781zm0 0"/><path d="m272.46875 82.582031 2.859375-1.652343v3.304687zm0 0"/><path d="m269.609375 80.929688 2.859375-1.648438v3.300781zm0 0"/><path d="m266.75 79.28125 2.859375-1.652344v3.300782zm0 0"/><path d="m263.890625 77.628906 2.859375-1.652344v3.304688zm0 0"/><path d="m261.03125 75.976562 2.859375-1.648437v3.300781zm0 0"/><path d="m258.171875 74.328125 2.859375-1.652344v3.300781zm0 0"/><path d="m255.308594 72.675781 2.863281-1.652343v3.304687zm0 0"/><path d="m252.449219 71.023438 2.859375-1.652344v3.304687zm0 0"/><path d="m249.589844 69.371094 2.859375-1.648438v3.300782zm0 0"/><path d="m246.730469 67.722656 2.859375-1.652344v3.300782zm0 0"/><path d="m243.871094 66.070312 2.859375-1.652343v3.304687zm0 0"/><path d="m241.011719 64.417969 2.859375-1.648438v3.300781zm0 0"/><path d="m238.152344 62.769531 2.859375-1.652343v3.300781zm0 0"/><path d="m235.289062 61.117188 2.863282-1.652344v3.304687zm0 0"/><path d="m232.429688 59.464844 2.859374-1.648438v3.300782zm0 0"/><path d="m229.570312 57.816406 2.859376-1.652344v3.300782zm0 0"/><path d="m226.710938 56.164062 2.859374-1.652343v3.304687zm0 0"/><path d="m223.851562 54.511719 2.859376-1.648438v3.300781zm0 0"/><path d="m220.992188 52.863281 2.859374-1.652343v3.300781zm0 0"/><path d="m218.132812 51.210938 2.859376-1.652344v3.304687zm0 0"/><path d="m215.273438 49.558594 2.859374-1.652344v3.304688zm0 0"/><path d="m212.410156 47.90625 2.863282-1.648438v3.300782zm0 0"/><path d="m209.550781 46.257812 2.859375-1.652343v3.300781zm0 0"/><path d="m206.691406 44.605469 2.859375-1.652344v3.304687zm0 0"/><path d="m203.832031 42.953125 2.859375-1.648437v3.300781zm0 0"/><path d="m200.972656 41.304688 2.859375-1.652344v3.300781zm0 0"/><path d="m198.113281 39.652344 2.859375-1.652344v3.304688zm0 0"/><path d="m195.253906 38 2.859375-1.648438v3.300782zm0 0"/><path d="m192.394531 36.351562 2.859375-1.652343v3.300781zm0 0"/><path d="m189.53125 34.699219 2.863281-1.652344v3.304687zm0 0"/><path d="m186.671875 33.046875 2.859375-1.652344v3.304688zm0 0"/><path d="m183.8125 31.394531 2.859375-1.648437v3.300781zm0 0"/><path d="m180.953125 29.746094 2.859375-1.652344v3.300781zm0 0"/><path d="m178.09375 28.09375 2.859375-1.652344v3.304688zm0 0"/><path d="m175.234375 29.746094 2.859375-1.652344v3.300781zm0 0"/><path d="m172.375 31.394531 2.859375-1.648437v3.300781zm0 0"/><path d="m169.515625 33.046875 2.859375-1.652344v3.304688zm0 0"/><path d="m166.652344 34.699219 2.863281-1.652344v3.304687zm0 0"/><path d="m163.792969 36.351562 2.859375-1.652343v3.300781zm0 0"/><path d="m160.933594 38 2.859375-1.648438v3.300782zm0 0"/><path d="m158.074219 39.652344 2.859375-1.652344v3.304688zm0 0"/><path d="m155.214844 41.304688 2.859375-1.652344v3.300781zm0 0"/><path d="m152.355469 42.953125 2.859375-1.648437v3.300781zm0 0"/><path d="m149.496094 44.605469 2.859375-1.652344v3.304687zm0 0"/><path d="m146.632812 46.257812 2.863282-1.652343v3.300781zm0 0"/><path d="m143.773438 47.90625 2.859374-1.648438v3.300782zm0 0"/><path d="m140.914062 49.558594 2.859376-1.652344v3.304688zm0 0"/><path d="m138.054688 51.210938 2.859374-1.652344v3.304687zm0 0"/><path d="m135.195312 52.863281 2.859376-1.652343v3.300781zm0 0"/><path d="m132.335938 54.511719 2.859374-1.648438v3.300781zm0 0"/><path d="m129.476562 56.164062 2.859376-1.652343v3.304687zm0 0"/><path d="m126.617188 57.816406 2.859374-1.652344v3.300782zm0 0"/><path d="m123.753906 59.464844 2.863282-1.648438v3.300782zm0 0"/><path d="m120.894531 61.117188 2.859375-1.652344v3.304687zm0 0"/><path d="m118.035156 62.769531 2.859375-1.652343v3.300781zm0 0"/><path d="m115.175781 64.417969 2.859375-1.648438v3.300781zm0 0"/><path d="m112.316406 66.070312 2.859375-1.652343v3.304687zm0 0"/><path d="m109.457031 67.722656 2.859375-1.652344v3.300782zm0 0"/><path d="m106.597656 69.371094 2.859375-1.648438v3.300782zm0 0"/><path d="m103.738281 71.023438 2.859375-1.652344v3.304687zm0 0"/><path d="m100.875 72.675781 2.863281-1.652343v3.304687zm0 0"/><path d="m98.015625 74.328125 2.859375-1.652344v3.300781zm0 0"/><path d="m95.15625 75.976562 2.859375-1.648437v3.300781zm0 0"/><path d="m92.296875 77.628906 2.859375-1.652344v3.304688zm0 0"/><path d="m89.4375 79.28125 2.859375-1.652344v3.300782zm0 0"/><path d="m86.578125 80.929688 2.859375-1.648438v3.300781zm0 0"/><path d="m83.71875 82.582031 2.859375-1.652343v3.304687zm0 0"/><path d="m80.859375 84.234375 2.859375-1.652344v3.300781zm0 0"/><path d="m77.996094 85.882812 2.863281-1.648437v3.300781zm0 0"/><path d="m75.136719 87.535156 2.859375-1.652344v3.304688zm0 0"/><path d="m72.277344 89.1875 2.859375-1.652344v3.300782zm0 0"/><path d="m69.417969 90.835938 2.859375-1.648438v3.300781zm0 0"/><path d="m66.558594 92.488281 2.859375-1.652343v3.304687zm0 0"/><path d="m63.699219 94.140625 2.859375-1.652344v3.304688zm0 0"/><path d="m60.839844 95.792969 2.859375-1.652344v3.300781zm0 0"/><path d="m57.980469 97.441406 2.859375-1.648437v3.300781zm0 0"/><path d="m55.117188 99.09375 2.863281-1.652344v3.304688zm0 0"/><path d="m52.257812 100.746094 2.859376-1.652344v3.300781zm0 0"/><path d="m49.398438 102.394531 2.859374-1.648437v3.300781zm0 0"/><path d="m46.539062 104.046875 2.859376-1.652344v3.304688zm0 0"/><path d="m46.539062 107.347656 2.859376-1.648437v3.300781zm0 0"/><path d="m46.539062 110.652344 2.859376-1.652344v3.304688zm0 0"/><path d="m46.539062 113.953125 2.859376-1.648437v3.300781zm0 0"/><path d="m46.539062 117.257812 2.859376-1.652343v3.300781zm0 0"/><path d="m46.539062 120.558594 2.859376-1.652344v3.304688zm0 0"/><path d="m46.539062 123.859375 2.859376-1.648437v3.300781zm0 0"/><path d="m46.539062 127.164062 2.859376-1.652343v3.300781zm0 0"/><path d="m46.539062 130.464844 2.859376-1.652344v3.304688zm0 0"/><path d="m46.539062 133.769531 2.859376-1.652343v3.300781zm0 0"/><path d="m46.539062 137.070312 2.859376-1.652343v3.304687zm0 0"/><path d="m46.539062 140.371094 2.859376-1.648438v3.300782zm0 0"/><path d="m46.539062 143.675781 2.859376-1.652343v3.300781zm0 0"/><path d="m46.539062 146.976562 2.859376-1.652343v3.304687zm0 0"/><path d="m46.539062 150.277344 2.859376-1.648438v3.300782zm0 0"/><path d="m46.539062 153.582031 2.859376-1.652343v3.304687zm0 0"/><path d="m46.539062 156.882812 2.859376-1.648437v3.300781zm0 0"/><path d="m46.539062 160.1875 2.859376-1.652344v3.300782zm0 0"/><path d="m46.539062 163.488281 2.859376-1.652343v3.304687zm0 0"/><path d="m46.539062 166.789062 2.859376-1.648437v3.300781zm0 0"/><path d="m46.539062 170.09375 2.859376-1.652344v3.304688zm0 0"/><path d="m46.539062 173.394531 2.859376-1.648437v3.300781zm0 0"/><path d="m46.539062 176.699219 2.859376-1.652344v3.300781zm0 0"/><path d="m46.539062 180 2.859376-1.652344v3.304688zm0 0"/><path d="m46.539062 183.300781 2.859376-1.648437v3.300781zm0 0"/><path d="m46.539062 186.605469 2.859376-1.652344v3.300781zm0 0"/><path d="m46.539062 189.90625 2.859376-1.652344v3.304688zm0 0"/><path d="m46.539062 193.210938 2.859376-1.652344v3.300781zm0 0"/><path d="m46.539062 196.511719 2.859376-1.652344v3.304687zm0 0"/><path d="m46.539062 199.8125 2.859376-1.648438v3.300782zm0 0"/><path d="m46.539062 203.117188 2.859376-1.652344v3.300781zm0 0"/><path d="m46.539062 206.417969 2.859376-1.652344v3.304687zm0 0"/><path d="m46.539062 209.722656 2.859376-1.652344v3.300782zm0 0"/><path d="m46.539062 213.023438 2.859376-1.652344v3.304687zm0 0"/><path d="m46.539062 216.324219 2.859376-1.648438v3.300781zm0 0"/><path d="m46.539062 219.628906 2.859376-1.652344v3.300782zm0 0"/><path d="m46.539062 222.929688 2.859376-1.652344v3.304687zm0 0"/><path d="m46.539062 226.230469 2.859376-1.648438v3.300781zm0 0"/><path d="m46.539062 229.535156 2.859376-1.652344v3.304688zm0 0"/><path d="m46.539062 232.835938 2.859376-1.648438v3.300781zm0 0"/><path d="m46.539062 236.140625 2.859376-1.652344v3.300781zm0 0"/><path d="m46.539062 239.441406 2.859376-1.652344v3.304688zm0 0"/><path d="m46.539062 242.742188 2.859376-1.648438v3.300781zm0 0"/><path d="m46.539062 246.046875 2.859376-1.652344v3.300781zm0 0"/><path d="m46.539062 249.347656 2.859376-1.652344v3.304688zm0 0"/><path d="m46.539062 252.652344 2.859376-1.652344v3.300781zm0 0"/><path d="m46.539062 255.953125 2.859376-1.652344v3.304688zm0 0"/><path d="m49.398438 257.605469 2.859374-1.652344v3.300781zm0 0"/><path d="m52.257812 259.253906 2.859376-1.648437v3.300781zm0 0"/><path d="m55.117188 260.90625 2.863281-1.652344v3.304688zm0 0"/><path d="m57.980469 262.558594 2.859375-1.652344v3.300781zm0 0"/><path d="m60.839844 264.207031 2.859375-1.648437v3.300781zm0 0"/><path d="m63.699219 265.859375 2.859375-1.652344v3.304688zm0 0"/><path d="m66.558594 267.511719 2.859375-1.652344v3.304687zm0 0"/><path d="m69.417969 269.164062 2.859375-1.652343v3.300781zm0 0"/><path d="m72.277344 270.8125 2.859375-1.648438v3.300782zm0 0"/><path d="m75.136719 272.464844 2.859375-1.652344v3.304688zm0 0"/><path d="m77.996094 274.117188 2.863281-1.652344v3.300781zm0 0"/><path d="m80.859375 275.765625 2.859375-1.648437v3.300781zm0 0"/><path d="m83.71875 277.417969 2.859375-1.652344v3.304687zm0 0"/><path d="m86.578125 279.070312 2.859375-1.652343v3.300781zm0 0"/><path d="m89.4375 280.71875 2.859375-1.648438v3.300782zm0 0"/><path d="m92.296875 282.371094 2.859375-1.652344v3.304688zm0 0"/><path d="m95.15625 284.023438 2.859375-1.652344v3.300781zm0 0"/><path d="m98.015625 285.671875 2.859375-1.648437v3.300781zm0 0"/><path d="m100.875 287.324219 2.863281-1.652344v3.304687zm0 0"/><path d="m103.738281 288.976562 2.859375-1.652343v3.304687zm0 0"/><path d="m106.597656 290.628906 2.859375-1.652344v3.300782zm0 0"/><path d="m109.457031 292.277344 2.859375-1.648438v3.300782zm0 0"/><path d="m112.316406 293.929688 2.859375-1.652344v3.304687zm0 0"/><path d="m115.175781 295.582031 2.859375-1.652343v3.300781zm0 0"/><path d="m118.035156 297.230469 2.859375-1.648438v3.300781zm0 0"/><path d="m120.894531 298.882812 2.859375-1.652343v3.304687zm0 0"/><path d="m123.753906 300.535156 2.863282-1.652344v3.300782zm0 0"/><path d="m126.617188 302.183594 2.859374-1.648438v3.300782zm0 0"/><path d="m129.476562 303.835938 2.859376-1.652344v3.304687zm0 0"/><path d="m132.335938 305.488281 2.859374-1.652343v3.300781zm0 0"/><path d="m135.195312 307.136719 2.859376-1.648438v3.300781zm0 0"/><path d="m138.054688 308.789062 2.859374-1.652343v3.304687zm0 0"/><path d="m140.914062 310.441406 2.859376-1.652344v3.304688zm0 0"/><path d="m143.773438 312.09375 2.859374-1.652344v3.300782zm0 0"/><path d="m146.632812 313.742188 2.863282-1.648438v3.300781zm0 0"/><path d="m149.496094 315.394531 2.859375-1.652343v3.304687zm0 0"/><path d="m152.355469 317.046875 2.859375-1.652344v3.300781zm0 0"/><path d="m155.214844 318.695312 2.859375-1.648437v3.300781zm0 0"/><path d="m158.074219 320.347656 2.859375-1.652344v3.304688zm0 0"/><path d="m160.933594 322 2.859375-1.652344v3.300782zm0 0"/><path d="m163.792969 323.648438 2.859375-1.648438v3.300781zm0 0"/><path d="m166.652344 325.300781 2.863281-1.652343v3.304687zm0 0"/><path d="m169.515625 326.953125 2.859375-1.652344v3.304688zm0 0"/><path d="m172.375 328.605469 2.859375-1.652344v3.300781zm0 0"/><path d="m175.234375 330.253906 2.859375-1.648437v3.300781zm0 0"/><path d="m178.09375 331.90625 2.859375-1.652344v3.304688zm0 0"/><path d="m180.953125 330.253906 2.859375-1.648437v3.300781zm0 0"/><path d="m183.8125 328.605469 2.859375-1.652344v3.300781zm0 0"/><path d="m186.671875 326.953125 2.859375-1.652344v3.304688zm0 0"/><path d="m189.53125 325.300781 2.863281-1.652343v3.304687zm0 0"/><path d="m192.394531 323.648438 2.859375-1.648438v3.300781zm0 0"/><path d="m195.253906 322 2.859375-1.652344v3.300782zm0 0"/><path d="m198.113281 320.347656 2.859375-1.652344v3.304688zm0 0"/><path d="m200.972656 318.695312 2.859375-1.648437v3.300781zm0 0"/><path d="m203.832031 317.046875 2.859375-1.652344v3.300781zm0 0"/><path d="m206.691406 315.394531 2.859375-1.652343v3.304687zm0 0"/><path d="m209.550781 313.742188 2.859375-1.648438v3.300781zm0 0"/><path d="m212.410156 312.09375 2.863282-1.652344v3.300782zm0 0"/><path d="m215.273438 310.441406 2.859374-1.652344v3.304688zm0 0"/><path d="m218.132812 308.789062 2.859376-1.652343v3.304687zm0 0"/><path d="m220.992188 307.136719 2.859374-1.648438v3.300781zm0 0"/><path d="m223.851562 305.488281 2.859376-1.652343v3.300781zm0 0"/><path d="m226.710938 303.835938 2.859374-1.652344v3.304687zm0 0"/><path d="m229.570312 302.183594 2.859376-1.648438v3.300782zm0 0"/><path d="m232.429688 300.535156 2.859374-1.652344v3.300782zm0 0"/><path d="m235.289062 298.882812 2.863282-1.652343v3.304687zm0 0"/><path d="m238.152344 297.230469 2.859375-1.648438v3.300781zm0 0"/><path d="m241.011719 295.582031 2.859375-1.652343v3.300781zm0 0"/><path d="m243.871094 293.929688 2.859375-1.652344v3.304687zm0 0"/><path d="m246.730469 292.277344 2.859375-1.648438v3.300782zm0 0"/><path d="m249.589844 290.628906 2.859375-1.652344v3.300782zm0 0"/><path d="m252.449219 288.976562 2.859375-1.652343v3.304687zm0 0"/><path d="m255.308594 287.324219 2.863281-1.652344v3.304687zm0 0"/><path d="m258.171875 285.671875 2.859375-1.648437v3.300781zm0 0"/><path d="m261.03125 284.023438 2.859375-1.652344v3.300781zm0 0"/><path d="m263.890625 282.371094 2.859375-1.652344v3.304688zm0 0"/><path d="m266.75 280.71875 2.859375-1.648438v3.300782zm0 0"/><path d="m269.609375 279.070312 2.859375-1.652343v3.300781zm0 0"/><path d="m272.46875 277.417969 2.859375-1.652344v3.304687zm0 0"/><path d="m275.328125 275.765625 2.859375-1.648437v3.300781zm0 0"/><path d="m278.1875 274.117188 2.863281-1.652344v3.300781zm0 0"/><path d="m281.050781 272.464844 2.859375-1.652344v3.304688zm0 0"/><path d="m283.910156 270.8125 2.859375-1.648438v3.300782zm0 0"/><path d="m286.769531 269.164062 2.859375-1.652343v3.300781zm0 0"/><path d="m289.628906 267.511719 2.859375-1.652344v3.304687zm0 0"/><path d="m292.488281 265.859375 2.859375-1.652344v3.304688zm0 0"/><path d="m295.347656 264.207031 2.859375-1.648437v3.300781zm0 0"/><path d="m298.207031 262.558594 2.859375-1.652344v3.300781zm0 0"/><path d="m301.066406 260.90625 2.863282-1.652344v3.304688zm0 0"/><path d="m303.929688 259.253906 2.859374-1.648437v3.300781zm0 0"/><path d="m306.789062 257.605469 2.859376-1.652344v3.300781zm0 0"/><path d="m321.085938 262.558594 2.859374-1.652344v3.300781zm0 0"/><path d="m321.085938 259.253906 2.859374-1.648437v3.300781zm0 0"/><path d="m321.085938 255.953125 2.859374-1.652344v3.304688zm0 0"/><path d="m321.085938 252.652344 2.859374-1.652344v3.300781zm0 0"/><path d="m321.085938 249.347656 2.859374-1.652344v3.304688zm0 0"/><path d="m321.085938 246.046875 2.859374-1.652344v3.300781zm0 0"/><path d="m321.085938 242.742188 2.859374-1.648438v3.300781zm0 0"/><path d="m321.085938 239.441406 2.859374-1.652344v3.304688zm0 0"/><path d="m321.085938 236.140625 2.859374-1.652344v3.300781zm0 0"/><path d="m321.085938 232.835938 2.859374-1.648438v3.300781zm0 0"/><path d="m321.085938 229.535156 2.859374-1.652344v3.304688zm0 0"/><path d="m321.085938 226.230469 2.859374-1.648438v3.300781zm0 0"/><path d="m321.085938 222.929688 2.859374-1.652344v3.304687zm0 0"/><path d="m321.085938 219.628906 2.859374-1.652344v3.300782zm0 0"/><path d="m321.085938 216.324219 2.859374-1.648438v3.300781zm0 0"/><path d="m321.085938 213.023438 2.859374-1.652344v3.304687zm0 0"/><path d="m321.085938 209.722656 2.859374-1.652344v3.300782zm0 0"/><path d="m321.085938 206.417969 2.859374-1.652344v3.304687zm0 0"/><path d="m321.085938 203.117188 2.859374-1.652344v3.300781zm0 0"/><path d="m321.085938 199.8125 2.859374-1.648438v3.300782zm0 0"/><path d="m321.085938 196.511719 2.859374-1.652344v3.304687zm0 0"/><path d="m321.085938 193.210938 2.859374-1.652344v3.300781zm0 0"/><path d="m321.085938 189.90625 2.859374-1.652344v3.304688zm0 0"/><path d="m321.085938 186.605469 2.859374-1.652344v3.300781zm0 0"/><path d="m321.085938 183.300781 2.859374-1.648437v3.300781zm0 0"/><path d="m321.085938 180 2.859374-1.652344v3.304688zm0 0"/><path d="m321.085938 176.699219 2.859374-1.652344v3.300781zm0 0"/><path d="m321.085938 173.394531 2.859374-1.648437v3.300781zm0 0"/><path d="m321.085938 170.09375 2.859374-1.652344v3.304688zm0 0"/><path d="m321.085938 166.789062 2.859374-1.648437v3.300781zm0 0"/><path d="m321.085938 163.488281 2.859374-1.652343v3.304687zm0 0"/><path d="m321.085938 160.1875 2.859374-1.652344v3.300782zm0 0"/><path d="m321.085938 156.882812 2.859374-1.648437v3.300781zm0 0"/><path d="m321.085938 153.582031 2.859374-1.652343v3.304687zm0 0"/><path d="m321.085938 150.277344 2.859374-1.648438v3.300782zm0 0"/><path d="m321.085938 146.976562 2.859374-1.652343v3.304687zm0 0"/><path d="m321.085938 143.675781 2.859374-1.652343v3.300781zm0 0"/><path d="m321.085938 140.371094 2.859374-1.648438v3.300782zm0 0"/><path d="m321.085938 137.070312 2.859374-1.652343v3.304687zm0 0"/><path d="m321.085938 133.769531 2.859374-1.652343v3.300781zm0 0"/><path d="m321.085938 130.464844 2.859374-1.652344v3.304688zm0 0"/><path d="m321.085938 127.164062 2.859374-1.652343v3.300781zm0 0"/><path d="m321.085938 123.859375 2.859374-1.648437v3.300781zm0 0"/><path d="m321.085938 120.558594 2.859374-1.652344v3.304688zm0 0"/><path d="m321.085938 117.257812 2.859374-1.652343v3.300781zm0 0"/><path d="m321.085938 113.953125 2.859374-1.648437v3.300781zm0 0"/><path d="m321.085938 110.652344 2.859374-1.652344v3.304688zm0 0"/><path d="m321.085938 107.347656 2.859374-1.648437v3.300781zm0 0"/><path d="m321.085938 104.046875 2.859374-1.652344v3.304688zm0 0"/><path d="m321.085938 100.746094 2.859374-1.652344v3.300781zm0 0"/><path d="m321.085938 97.441406 2.859374-1.648437v3.300781zm0 0"/><path d="m318.226562 95.792969 2.859376-1.652344v3.300781zm0 0"/><path d="m315.367188 94.140625 2.859374-1.652344v3.304688zm0 0"/><path d="m312.507812 92.488281 2.859376-1.652343v3.304687zm0 0"/><path d="m309.648438 90.835938 2.859374-1.648438v3.300781zm0 0"/><path d="m306.789062 89.1875 2.859376-1.652344v3.300782zm0 0"/><path d="m303.929688 87.535156 2.859374-1.652344v3.304688zm0 0"/><path d="m301.066406 85.882812 2.863282-1.648437v3.300781zm0 0"/><path d="m298.207031 84.234375 2.859375-1.652344v3.300781zm0 0"/><path d="m295.347656 82.582031 2.859375-1.652343v3.304687zm0 0"/><path d="m292.488281 80.929688 2.859375-1.648438v3.300781zm0 0"/><path d="m289.628906 79.28125 2.859375-1.652344v3.300782zm0 0"/><path d="m286.769531 77.628906 2.859375-1.652344v3.304688zm0 0"/><path d="m283.910156 75.976562 2.859375-1.648437v3.300781zm0 0"/><path d="m281.050781 74.328125 2.859375-1.652344v3.300781zm0 0"/><path d="m278.1875 72.675781 2.863281-1.652343v3.304687zm0 0"/><path d="m275.328125 71.023438 2.859375-1.652344v3.304687zm0 0"/><path d="m272.46875 69.371094 2.859375-1.648438v3.300782zm0 0"/><path d="m269.609375 67.722656 2.859375-1.652344v3.300782zm0 0"/><path d="m266.75 66.070312 2.859375-1.652343v3.304687zm0 0"/><path d="m263.890625 64.417969 2.859375-1.648438v3.300781zm0 0"/><path d="m261.03125 62.769531 2.859375-1.652343v3.300781zm0 0"/><path d="m258.171875 61.117188 2.859375-1.652344v3.304687zm0 0"/><path d="m255.308594 59.464844 2.863281-1.648438v3.300782zm0 0"/><path d="m252.449219 57.816406 2.859375-1.652344v3.300782zm0 0"/><path d="m249.589844 56.164062 2.859375-1.652343v3.304687zm0 0"/><path d="m246.730469 54.511719 2.859375-1.648438v3.300781zm0 0"/><path d="m243.871094 52.863281 2.859375-1.652343v3.300781zm0 0"/><path d="m241.011719 51.210938 2.859375-1.652344v3.304687zm0 0"/><path d="m238.152344 49.558594 2.859375-1.652344v3.304688zm0 0"/><path d="m235.289062 47.90625 2.863282-1.648438v3.300782zm0 0"/><path d="m232.429688 46.257812 2.859374-1.652343v3.300781zm0 0"/><path d="m229.570312 44.605469 2.859376-1.652344v3.304687zm0 0"/><path d="m226.710938 42.953125 2.859374-1.648437v3.300781zm0 0"/><path d="m223.851562 41.304688 2.859376-1.652344v3.300781zm0 0"/><path d="m220.992188 39.652344 2.859374-1.652344v3.304688zm0 0"/><path d="m218.132812 38 2.859376-1.648438v3.300782zm0 0"/><path d="m215.273438 36.351562 2.859374-1.652343v3.300781zm0 0"/><path d="m212.410156 34.699219 2.863282-1.652344v3.304687zm0 0"/><path d="m209.550781 33.046875 2.859375-1.652344v3.304688zm0 0"/><path d="m206.691406 31.394531 2.859375-1.648437v3.300781zm0 0"/><path d="m203.832031 29.746094 2.859375-1.652344v3.300781zm0 0"/><path d="m200.972656 28.09375 2.859375-1.652344v3.304688zm0 0"/><path d="m198.113281 26.441406 2.859375-1.648437v3.300781zm0 0"/><path d="m195.253906 24.792969 2.859375-1.652344v3.300781zm0 0"/><path d="m192.394531 23.140625 2.859375-1.652344v3.304688zm0 0"/><path d="m189.53125 21.488281 2.863281-1.648437v3.300781zm0 0"/><path d="m186.671875 19.839844 2.859375-1.652344v3.300781zm0 0"/><path d="m183.8125 18.1875 2.859375-1.652344v3.304688zm0 0"/><path d="m180.953125 16.535156 2.859375-1.648437v3.300781zm0 0"/><path d="m178.09375 14.886719 2.859375-1.652344v3.300781zm0 0"/><path d="m175.234375 16.535156 2.859375-1.648437v3.300781zm0 0"/><path d="m172.375 18.1875 2.859375-1.652344v3.304688zm0 0"/><path d="m169.515625 19.839844 2.859375-1.652344v3.300781zm0 0"/><path d="m166.652344 21.488281 2.863281-1.648437v3.300781zm0 0"/><path d="m163.792969 23.140625 2.859375-1.652344v3.304688zm0 0"/><path d="m160.933594 24.792969 2.859375-1.652344v3.300781zm0 0"/><path d="m158.074219 26.441406 2.859375-1.648437v3.300781zm0 0"/><path d="m155.214844 28.09375 2.859375-1.652344v3.304688zm0 0"/><path d="m152.355469 29.746094 2.859375-1.652344v3.300781zm0 0"/><path d="m149.496094 31.394531 2.859375-1.648437v3.300781zm0 0"/><path d="m146.632812 33.046875 2.863282-1.652344v3.304688zm0 0"/><path d="m143.773438 34.699219 2.859374-1.652344v3.304687zm0 0"/><path d="m140.914062 36.351562 2.859376-1.652343v3.300781zm0 0"/><path d="m138.054688 38 2.859374-1.648438v3.300782zm0 0"/><path d="m135.195312 39.652344 2.859376-1.652344v3.304688zm0 0"/><path d="m132.335938 41.304688 2.859374-1.652344v3.300781zm0 0"/><path d="m129.476562 42.953125 2.859376-1.648437v3.300781zm0 0"/><path d="m126.617188 44.605469 2.859374-1.652344v3.304687zm0 0"/><path d="m123.753906 46.257812 2.863282-1.652343v3.300781zm0 0"/><path d="m120.894531 47.90625 2.859375-1.648438v3.300782zm0 0"/><path d="m118.035156 49.558594 2.859375-1.652344v3.304688zm0 0"/><path d="m115.175781 51.210938 2.859375-1.652344v3.304687zm0 0"/><path d="m112.316406 52.863281 2.859375-1.652343v3.300781zm0 0"/><path d="m109.457031 54.511719 2.859375-1.648438v3.300781zm0 0"/><path d="m106.597656 56.164062 2.859375-1.652343v3.304687zm0 0"/><path d="m103.738281 57.816406 2.859375-1.652344v3.300782zm0 0"/><path d="m100.875 59.464844 2.863281-1.648438v3.300782zm0 0"/><path d="m98.015625 61.117188 2.859375-1.652344v3.304687zm0 0"/><path d="m95.15625 62.769531 2.859375-1.652343v3.300781zm0 0"/><path d="m92.296875 64.417969 2.859375-1.648438v3.300781zm0 0"/><path d="m89.4375 66.070312 2.859375-1.652343v3.304687zm0 0"/><path d="m86.578125 67.722656 2.859375-1.652344v3.300782zm0 0"/><path d="m83.71875 69.371094 2.859375-1.648438v3.300782zm0 0"/><path d="m80.859375 71.023438 2.859375-1.652344v3.304687zm0 0"/><path d="m77.996094 72.675781 2.863281-1.652343v3.304687zm0 0"/><path d="m75.136719 74.328125 2.859375-1.652344v3.300781zm0 0"/><path d="m72.277344 75.976562 2.859375-1.648437v3.300781zm0 0"/><path d="m69.417969 77.628906 2.859375-1.652344v3.304688zm0 0"/><path d="m66.558594 79.28125 2.859375-1.652344v3.300782zm0 0"/><path d="m63.699219 80.929688 2.859375-1.648438v3.300781zm0 0"/><path d="m60.839844 82.582031 2.859375-1.652343v3.304687zm0 0"/><path d="m57.980469 84.234375 2.859375-1.652344v3.300781zm0 0"/><path d="m55.117188 85.882812 2.863281-1.648437v3.300781zm0 0"/><path d="m52.257812 87.535156 2.859376-1.652344v3.304688zm0 0"/><path d="m49.398438 89.1875 2.859374-1.652344v3.300782zm0 0"/><path d="m46.539062 90.835938 2.859376-1.648438v3.300781zm0 0"/><path d="m43.679688 92.488281 2.859374-1.652343v3.304687zm0 0"/><path d="m40.820312 94.140625 2.859376-1.652344v3.304688zm0 0"/><path d="m37.960938 95.792969 2.859374-1.652344v3.300781zm0 0"/><path d="m35.097656 97.441406 2.863282-1.648437v3.300781zm0 0"/><path d="m35.097656 100.746094 2.863282-1.652344v3.300781zm0 0"/><path d="m35.097656 104.046875 2.863282-1.652344v3.304688zm0 0"/><path d="m35.097656 107.347656 2.863282-1.648437v3.300781zm0 0"/><path d="m35.097656 110.652344 2.863282-1.652344v3.304688zm0 0"/><path d="m35.097656 113.953125 2.863282-1.648437v3.300781zm0 0"/><path d="m35.097656 117.257812 2.863282-1.652343v3.300781zm0 0"/><path d="m35.097656 120.558594 2.863282-1.652344v3.304688zm0 0"/><path d="m35.097656 123.859375 2.863282-1.648437v3.300781zm0 0"/><path d="m35.097656 127.164062 2.863282-1.652343v3.300781zm0 0"/><path d="m35.097656 130.464844 2.863282-1.652344v3.304688zm0 0"/><path d="m35.097656 133.769531 2.863282-1.652343v3.300781zm0 0"/><path d="m35.097656 137.070312 2.863282-1.652343v3.304687zm0 0"/><path d="m35.097656 140.371094 2.863282-1.648438v3.300782zm0 0"/><path d="m35.097656 143.675781 2.863282-1.652343v3.300781zm0 0"/><path d="m35.097656 146.976562 2.863282-1.652343v3.304687zm0 0"/><path d="m35.097656 150.277344 2.863282-1.648438v3.300782zm0 0"/><path d="m35.097656 153.582031 2.863282-1.652343v3.304687zm0 0"/><path d="m35.097656 156.882812 2.863282-1.648437v3.300781zm0 0"/><path d="m35.097656 160.1875 2.863282-1.652344v3.300782zm0 0"/><path d="m35.097656 163.488281 2.863282-1.652343v3.304687zm0 0"/><path d="m35.097656 166.789062 2.863282-1.648437v3.300781zm0 0"/><path d="m35.097656 170.09375 2.863282-1.652344v3.304688zm0 0"/><path d="m35.097656 173.394531 2.863282-1.648437v3.300781zm0 0"/><path d="m35.097656 176.699219 2.863282-1.652344v3.300781zm0 0"/><path d="m35.097656 180 2.863282-1.652344v3.304688zm0 0"/><path d="m35.097656 183.300781 2.863282-1.648437v3.300781zm0 0"/><path d="m35.097656 186.605469 2.863282-1.652344v3.300781zm0 0"/><path d="m35.097656 189.90625 2.863282-1.652344v3.304688zm0 0"/><path d="m35.097656 193.210938 2.863282-1.652344v3.300781zm0 0"/><path d="m35.097656 196.511719 2.863282-1.652344v3.304687zm0 0"/><path d="m35.097656 199.8125 2.863282-1.648438v3.300782zm0 0"/><path d="m35.097656 203.117188 2.863282-1.652344v3.300781zm0 0"/><path d="m35.097656 206.417969 2.863282-1.652344v3.304687zm0 0"/><path d="m35.097656 209.722656 2.863282-1.652344v3.300782zm0 0"/><path d="m35.097656 213.023438 2.863282-1.652344v3.304687zm0 0"/><path d="m35.097656 216.324219 2.863282-1.648438v3.300781zm0 0"/><path d="m35.097656 219.628906 2.863282-1.652344v3.300782zm0 0"/><path d="m35.097656 222.929688 2.863282-1.652344v3.304687zm0 0"/><path d="m35.097656 226.230469 2.863282-1.648438v3.300781zm0 0"/><path d="m35.097656 229.535156 2.863282-1.652344v3.304688zm0 0"/><path d="m35.097656 232.835938 2.863282-1.648438v3.300781zm0 0"/><path d="m35.097656 236.140625 2.863282-1.652344v3.300781zm0 0"/><path d="m35.097656 239.441406 2.863282-1.652344v3.304688zm0 0"/><path d="m35.097656 242.742188 2.863282-1.648438v3.300781zm0 0"/><path d="m35.097656 246.046875 2.863282-1.652344v3.300781zm0 0"/><path d="m35.097656 249.347656 2.863282-1.652344v3.304688zm0 0"/><path d="m35.097656 252.652344 2.863282-1.652344v3.300781zm0 0"/><path d="m35.097656 255.953125 2.863282-1.652344v3.304688zm0 0"/><path d="m35.097656 259.253906 2.863282-1.648437v3.300781zm0 0"/><path d="m35.097656 262.558594 2.863282-1.652344v3.300781zm0 0"/><path d="m37.960938 264.207031 2.859374-1.648437v3.300781zm0 0"/><path d="m40.820312 265.859375 2.859376-1.652344v3.304688zm0 0"/><path d="m43.679688 267.511719 2.859374-1.652344v3.304687zm0 0"/><path d="m46.539062 269.164062 2.859376-1.652343v3.300781zm0 0"/><path d="m49.398438 270.8125 2.859374-1.648438v3.300782zm0 0"/><path d="m52.257812 272.464844 2.859376-1.652344v3.304688zm0 0"/><path d="m55.117188 274.117188 2.863281-1.652344v3.300781zm0 0"/><path d="m57.980469 275.765625 2.859375-1.648437v3.300781zm0 0"/><path d="m60.839844 277.417969 2.859375-1.652344v3.304687zm0 0"/><path d="m63.699219 279.070312 2.859375-1.652343v3.300781zm0 0"/><path d="m66.558594 280.71875 2.859375-1.648438v3.300782zm0 0"/><path d="m69.417969 282.371094 2.859375-1.652344v3.304688zm0 0"/><path d="m72.277344 284.023438 2.859375-1.652344v3.300781zm0 0"/><path d="m75.136719 285.671875 2.859375-1.648437v3.300781zm0 0"/><path d="m77.996094 287.324219 2.863281-1.652344v3.304687zm0 0"/><path d="m80.859375 288.976562 2.859375-1.652343v3.304687zm0 0"/><path d="m83.71875 290.628906 2.859375-1.652344v3.300782zm0 0"/><path d="m86.578125 292.277344 2.859375-1.648438v3.300782zm0 0"/><path d="m89.4375 293.929688 2.859375-1.652344v3.304687zm0 0"/><path d="m92.296875 295.582031 2.859375-1.652343v3.300781zm0 0"/><path d="m95.15625 297.230469 2.859375-1.648438v3.300781zm0 0"/><path d="m98.015625 298.882812 2.859375-1.652343v3.304687zm0 0"/><path d="m100.875 300.535156 2.863281-1.652344v3.300782zm0 0"/><path d="m103.738281 302.183594 2.859375-1.648438v3.300782zm0 0"/><path d="m106.597656 303.835938 2.859375-1.652344v3.304687zm0 0"/><path d="m109.457031 305.488281 2.859375-1.652343v3.300781zm0 0"/><path d="m112.316406 307.136719 2.859375-1.648438v3.300781zm0 0"/><path d="m115.175781 308.789062 2.859375-1.652343v3.304687zm0 0"/><path d="m118.035156 310.441406 2.859375-1.652344v3.304688zm0 0"/><path d="m120.894531 312.09375 2.859375-1.652344v3.300782zm0 0"/><path d="m123.753906 313.742188 2.863282-1.648438v3.300781zm0 0"/><path d="m126.617188 315.394531 2.859374-1.652343v3.304687zm0 0"/><path d="m129.476562 317.046875 2.859376-1.652344v3.300781zm0 0"/><path d="m132.335938 318.695312 2.859374-1.648437v3.300781zm0 0"/><path d="m135.195312 320.347656 2.859376-1.652344v3.304688zm0 0"/><path d="m138.054688 322 2.859374-1.652344v3.300782zm0 0"/><path d="m140.914062 323.648438 2.859376-1.648438v3.300781zm0 0"/><path d="m143.773438 325.300781 2.859374-1.652343v3.304687zm0 0"/><path d="m146.632812 326.953125 2.863282-1.652344v3.304688zm0 0"/><path d="m149.496094 328.605469 2.859375-1.652344v3.300781zm0 0"/><path d="m152.355469 330.253906 2.859375-1.648437v3.300781zm0 0"/><path d="m155.214844 331.90625 2.859375-1.652344v3.304688zm0 0"/><path d="m158.074219 333.558594 2.859375-1.652344v3.300781zm0 0"/><path d="m160.933594 335.207031 2.859375-1.648437v3.300781zm0 0"/><path d="m163.792969 336.859375 2.859375-1.652344v3.304688zm0 0"/><path d="m166.652344 338.511719 2.863281-1.652344v3.300781zm0 0"/><path d="m169.515625 340.160156 2.859375-1.648437v3.300781zm0 0"/><path d="m172.375 341.8125 2.859375-1.652344v3.304688zm0 0"/><path d="m175.234375 343.464844 2.859375-1.652344v3.300781zm0 0"/><path d="m178.09375 345.113281 2.859375-1.648437v3.300781zm0 0"/><path d="m180.953125 343.464844 2.859375-1.652344v3.300781zm0 0"/><path d="m183.8125 341.8125 2.859375-1.652344v3.304688zm0 0"/><path d="m186.671875 340.160156 2.859375-1.648437v3.300781zm0 0"/><path d="m189.53125 338.511719 2.863281-1.652344v3.300781zm0 0"/><path d="m192.394531 336.859375 2.859375-1.652344v3.304688zm0 0"/><path d="m195.253906 335.207031 2.859375-1.648437v3.300781zm0 0"/><path d="m198.113281 333.558594 2.859375-1.652344v3.300781zm0 0"/><path d="m200.972656 331.90625 2.859375-1.652344v3.304688zm0 0"/><path d="m203.832031 330.253906 2.859375-1.648437v3.300781zm0 0"/><path d="m206.691406 328.605469 2.859375-1.652344v3.300781zm0 0"/><path d="m209.550781 326.953125 2.859375-1.652344v3.304688zm0 0"/><path d="m212.410156 325.300781 2.863282-1.652343v3.304687zm0 0"/><path d="m215.273438 323.648438 2.859374-1.648438v3.300781zm0 0"/><path d="m218.132812 322 2.859376-1.652344v3.300782zm0 0"/><path d="m220.992188 320.347656 2.859374-1.652344v3.304688zm0 0"/><path d="m223.851562 318.695312 2.859376-1.648437v3.300781zm0 0"/><path d="m226.710938 317.046875 2.859374-1.652344v3.300781zm0 0"/><path d="m229.570312 315.394531 2.859376-1.652343v3.304687zm0 0"/><path d="m232.429688 313.742188 2.859374-1.648438v3.300781zm0 0"/><path d="m235.289062 312.09375 2.863282-1.652344v3.300782zm0 0"/><path d="m238.152344 310.441406 2.859375-1.652344v3.304688zm0 0"/><path d="m241.011719 308.789062 2.859375-1.652343v3.304687zm0 0"/><path d="m243.871094 307.136719 2.859375-1.648438v3.300781zm0 0"/><path d="m246.730469 305.488281 2.859375-1.652343v3.300781zm0 0"/><path d="m249.589844 303.835938 2.859375-1.652344v3.304687zm0 0"/><path d="m252.449219 302.183594 2.859375-1.648438v3.300782zm0 0"/><path d="m255.308594 300.535156 2.863281-1.652344v3.300782zm0 0"/><path d="m258.171875 298.882812 2.859375-1.652343v3.304687zm0 0"/><path d="m261.03125 297.230469 2.859375-1.648438v3.300781zm0 0"/><path d="m263.890625 295.582031 2.859375-1.652343v3.300781zm0 0"/><path d="m266.75 293.929688 2.859375-1.652344v3.304687zm0 0"/><path d="m269.609375 292.277344 2.859375-1.648438v3.300782zm0 0"/><path d="m272.46875 290.628906 2.859375-1.652344v3.300782zm0 0"/><path d="m275.328125 288.976562 2.859375-1.652343v3.304687zm0 0"/><path d="m278.1875 287.324219 2.863281-1.652344v3.304687zm0 0"/><path d="m281.050781 285.671875 2.859375-1.648437v3.300781zm0 0"/><path d="m283.910156 284.023438 2.859375-1.652344v3.300781zm0 0"/><path d="m286.769531 282.371094 2.859375-1.652344v3.304688zm0 0"/><path d="m289.628906 280.71875 2.859375-1.648438v3.300782zm0 0"/><path d="m292.488281 279.070312 2.859375-1.652343v3.300781zm0 0"/><path d="m295.347656 277.417969 2.859375-1.652344v3.304687zm0 0"/><path d="m298.207031 275.765625 2.859375-1.648437v3.300781zm0 0"/><path d="m301.066406 274.117188 2.863282-1.652344v3.300781zm0 0"/><path d="m303.929688 272.464844 2.859374-1.652344v3.304688zm0 0"/><path d="m306.789062 270.8125 2.859376-1.648438v3.300782zm0 0"/><path d="m309.648438 269.164062 2.859374-1.652343v3.300781zm0 0"/><path d="m312.507812 267.511719 2.859376-1.652344v3.304687zm0 0"/><path d="m315.367188 265.859375 2.859374-1.652344v3.304688zm0 0"/><path d="m318.226562 264.207031 2.859376-1.648437v3.300781zm0 0"/><path d="m220.992188 201.464844-2.859376-1.652344v3.304688zm0 0"/><path d="m220.992188 198.164062-2.859376-1.652343v3.300781zm0 0"/><path d="m220.992188 194.859375-2.859376-1.648437v3.300781zm0 0"/><path d="m220.992188 191.558594-2.859376-1.652344v3.304688zm0 0"/><path d="m220.992188 188.253906-2.859376-1.648437v3.300781zm0 0"/><path d="m220.992188 184.953125-2.859376-1.652344v3.304688zm0 0"/><path d="m220.992188 181.652344-2.859376-1.652344v3.300781zm0 0"/><path d="m220.992188 178.347656-2.859376-1.648437v3.300781zm0 0"/><path d="m220.992188 175.046875-2.859376-1.652344v3.304688zm0 0"/><path d="m220.992188 171.746094-2.859376-1.652344v3.300781zm0 0"/><path d="m220.992188 168.441406-2.859376-1.652344v3.304688zm0 0"/><path d="m220.992188 165.140625-2.859376-1.652344v3.300781zm0 0"/><path d="m220.992188 161.835938-2.859376-1.648438v3.300781zm0 0"/><path d="m220.992188 158.535156-2.859376-1.652344v3.304688zm0 0"/><path d="m218.132812 156.882812-2.859374-1.648437v3.300781zm0 0"/><path d="m215.273438 155.234375-2.863282-1.652344v3.300781zm0 0"/><path d="m212.410156 153.582031-2.859375-1.652343v3.304687zm0 0"/><path d="m209.550781 151.929688-2.859375-1.652344v3.304687zm0 0"/><path d="m206.691406 150.277344-2.859375-1.648438v3.300782zm0 0"/><path d="m203.832031 148.628906-2.859375-1.652344v3.300782zm0 0"/><path d="m200.972656 146.976562-2.859375-1.652343v3.304687zm0 0"/><path d="m198.113281 145.324219-2.859375-1.648438v3.300781zm0 0"/><path d="m195.253906 143.675781-2.859375-1.652343v3.300781zm0 0"/><path d="m192.394531 142.023438-2.863281-1.652344v3.304687zm0 0"/><path d="m189.53125 140.371094-2.859375-1.648438v3.300782zm0 0"/><path d="m186.671875 138.722656-2.859375-1.652344v3.300782zm0 0"/><path d="m183.8125 137.070312-2.859375-1.652343v3.304687zm0 0"/><path d="m180.953125 135.417969-2.859375-1.648438v3.300781zm0 0"/><path d="m178.09375 137.070312-2.859375-1.652343v3.304687zm0 0"/><path d="m175.234375 138.722656-2.859375-1.652344v3.300782zm0 0"/><path d="m172.375 140.371094-2.859375-1.648438v3.300782zm0 0"/><path d="m169.515625 142.023438-2.863281-1.652344v3.304687zm0 0"/><path d="m166.652344 143.675781-2.859375-1.652343v3.300781zm0 0"/><path d="m163.792969 145.324219-2.859375-1.648438v3.300781zm0 0"/><path d="m160.933594 146.976562-2.859375-1.652343v3.304687zm0 0"/><path d="m158.074219 148.628906-2.859375-1.652344v3.300782zm0 0"/><path d="m155.214844 150.277344-2.859375-1.648438v3.300782zm0 0"/><path d="m152.355469 151.929688-2.859375-1.652344v3.304687zm0 0"/><path d="m149.496094 153.582031-2.863282-1.652343v3.304687zm0 0"/><path d="m146.632812 155.234375-2.859374-1.652344v3.300781zm0 0"/><path d="m143.773438 156.882812-2.859376-1.648437v3.300781zm0 0"/><path d="m143.773438 160.1875-2.859376-1.652344v3.300782zm0 0"/><path d="m143.773438 163.488281-2.859376-1.652343v3.304687zm0 0"/><path d="m143.773438 166.789062-2.859376-1.648437v3.300781zm0 0"/><path d="m143.773438 170.09375-2.859376-1.652344v3.304688zm0 0"/><path d="m143.773438 173.394531-2.859376-1.648437v3.300781zm0 0"/><path d="m143.773438 176.699219-2.859376-1.652344v3.300781zm0 0"/><path d="m143.773438 180-2.859376-1.652344v3.304688zm0 0"/><path d="m143.773438 183.300781-2.859376-1.648437v3.300781zm0 0"/><path d="m143.773438 186.605469-2.859376-1.652344v3.300781zm0 0"/><path d="m143.773438 189.90625-2.859376-1.652344v3.304688zm0 0"/><path d="m143.773438 193.210938-2.859376-1.652344v3.300781zm0 0"/><path d="m143.773438 196.511719-2.859376-1.652344v3.304687zm0 0"/><path d="m143.773438 199.8125-2.859376-1.648438v3.300782zm0 0"/><path d="m143.773438 203.117188-2.859376-1.652344v3.300781zm0 0"/><path d="m146.632812 204.765625-2.859374-1.648437v3.300781zm0 0"/><path d="m149.496094 206.417969-2.863282-1.652344v3.304687zm0 0"/><path d="m152.355469 208.070312-2.859375-1.652343v3.304687zm0 0"/><path d="m155.214844 209.722656-2.859375-1.652344v3.300782zm0 0"/><path d="m158.074219 211.371094-2.859375-1.648438v3.300782zm0 0"/><path d="m160.933594 213.023438-2.859375-1.652344v3.304687zm0 0"/><path d="m163.792969 214.675781-2.859375-1.652343v3.300781zm0 0"/><path d="m166.652344 216.324219-2.859375-1.648438v3.300781zm0 0"/><path d="m169.515625 217.976562-2.863281-1.652343v3.304687zm0 0"/><path d="m172.375 219.628906-2.859375-1.652344v3.300782zm0 0"/><path d="m175.234375 221.277344-2.859375-1.648438v3.300782zm0 0"/><path d="m178.09375 222.929688-2.859375-1.652344v3.304687zm0 0"/><path d="m180.953125 224.582031-2.859375-1.652343v3.300781zm0 0"/><path d="m183.8125 222.929688-2.859375-1.652344v3.304687zm0 0"/><path d="m186.671875 221.277344-2.859375-1.648438v3.300782zm0 0"/><path d="m189.53125 219.628906-2.859375-1.652344v3.300782zm0 0"/><path d="m192.394531 217.976562-2.863281-1.652343v3.304687zm0 0"/><path d="m195.253906 216.324219-2.859375-1.648438v3.300781zm0 0"/><path d="m198.113281 214.675781-2.859375-1.652343v3.300781zm0 0"/><path d="m200.972656 213.023438-2.859375-1.652344v3.304687zm0 0"/><path d="m203.832031 211.371094-2.859375-1.648438v3.300782zm0 0"/><path d="m206.691406 209.722656-2.859375-1.652344v3.300782zm0 0"/><path d="m209.550781 208.070312-2.859375-1.652343v3.304687zm0 0"/><path d="m212.410156 206.417969-2.859375-1.652344v3.304687zm0 0"/><path d="m215.273438 204.765625-2.863282-1.648437v3.300781zm0 0"/><path d="m218.132812 203.117188-2.859374-1.652344v3.300781zm0 0"/><path d="m232.429688 208.070312-2.859376-1.652343v3.304687zm0 0"/><path d="m232.429688 204.765625-2.859376-1.648437v3.300781zm0 0"/><path d="m232.429688 201.464844-2.859376-1.652344v3.304688zm0 0"/><path d="m232.429688 198.164062-2.859376-1.652343v3.300781zm0 0"/><path d="m232.429688 194.859375-2.859376-1.648437v3.300781zm0 0"/><path d="m232.429688 191.558594-2.859376-1.652344v3.304688zm0 0"/><path d="m232.429688 188.253906-2.859376-1.648437v3.300781zm0 0"/><path d="m232.429688 184.953125-2.859376-1.652344v3.304688zm0 0"/><path d="m232.429688 181.652344-2.859376-1.652344v3.300781zm0 0"/><path d="m232.429688 178.347656-2.859376-1.648437v3.300781zm0 0"/><path d="m232.429688 175.046875-2.859376-1.652344v3.304688zm0 0"/><path d="m232.429688 171.746094-2.859376-1.652344v3.300781zm0 0"/><path d="m232.429688 168.441406-2.859376-1.652344v3.304688zm0 0"/><path d="m232.429688 165.140625-2.859376-1.652344v3.300781zm0 0"/><path d="m232.429688 161.835938-2.859376-1.648438v3.300781zm0 0"/><path d="m232.429688 158.535156-2.859376-1.652344v3.304688zm0 0"/><path d="m232.429688 155.234375-2.859376-1.652344v3.300781zm0 0"/><path d="m232.429688 151.929688-2.859376-1.652344v3.304687zm0 0"/><path d="m229.570312 150.277344-2.859374-1.648438v3.300782zm0 0"/><path d="m226.710938 148.628906-2.859376-1.652344v3.300782zm0 0"/><path d="m223.851562 146.976562-2.859374-1.652343v3.304687zm0 0"/><path d="m220.992188 145.324219-2.859376-1.648438v3.300781zm0 0"/><path d="m218.132812 143.675781-2.859374-1.652343v3.300781zm0 0"/><path d="m215.273438 142.023438-2.863282-1.652344v3.304687zm0 0"/><path d="m212.410156 140.371094-2.859375-1.648438v3.300782zm0 0"/><path d="m209.550781 138.722656-2.859375-1.652344v3.300782zm0 0"/><path d="m206.691406 137.070312-2.859375-1.652343v3.304687zm0 0"/><path d="m203.832031 135.417969-2.859375-1.648438v3.300781zm0 0"/><path d="m200.972656 133.769531-2.859375-1.652343v3.300781zm0 0"/><path d="m198.113281 132.117188-2.859375-1.652344v3.304687zm0 0"/><path d="m195.253906 130.464844-2.859375-1.652344v3.304688zm0 0"/><path d="m192.394531 128.8125-2.863281-1.648438v3.300782zm0 0"/><path d="m189.53125 127.164062-2.859375-1.652343v3.300781zm0 0"/><path d="m186.671875 125.511719-2.859375-1.652344v3.304687zm0 0"/><path d="m183.8125 123.859375-2.859375-1.648437v3.300781zm0 0"/><path d="m180.953125 122.210938-2.859375-1.652344v3.300781zm0 0"/><path d="m178.09375 123.859375-2.859375-1.648437v3.300781zm0 0"/><path d="m175.234375 125.511719-2.859375-1.652344v3.304687zm0 0"/><path d="m172.375 127.164062-2.859375-1.652343v3.300781zm0 0"/><path d="m169.515625 128.8125-2.863281-1.648438v3.300782zm0 0"/><path d="m166.652344 130.464844-2.859375-1.652344v3.304688zm0 0"/><path d="m163.792969 132.117188-2.859375-1.652344v3.304687zm0 0"/><path d="m160.933594 133.769531-2.859375-1.652343v3.300781zm0 0"/><path d="m158.074219 135.417969-2.859375-1.648438v3.300781zm0 0"/><path d="m155.214844 137.070312-2.859375-1.652343v3.304687zm0 0"/><path d="m152.355469 138.722656-2.859375-1.652344v3.300782zm0 0"/><path d="m149.496094 140.371094-2.863282-1.648438v3.300782zm0 0"/><path d="m146.632812 142.023438-2.859374-1.652344v3.304687zm0 0"/><path d="m143.773438 143.675781-2.859376-1.652343v3.300781zm0 0"/><path d="m140.914062 145.324219-2.859374-1.648438v3.300781zm0 0"/><path d="m138.054688 146.976562-2.859376-1.652343v3.304687zm0 0"/><path d="m135.195312 148.628906-2.859374-1.652344v3.300782zm0 0"/><path d="m132.335938 150.277344-2.859376-1.648438v3.300782zm0 0"/><path d="m132.335938 153.582031-2.859376-1.652343v3.304687zm0 0"/><path d="m132.335938 156.882812-2.859376-1.648437v3.300781zm0 0"/><path d="m132.335938 160.1875-2.859376-1.652344v3.300782zm0 0"/><path d="m132.335938 163.488281-2.859376-1.652343v3.304687zm0 0"/><path d="m132.335938 166.789062-2.859376-1.648437v3.300781zm0 0"/><path d="m132.335938 170.09375-2.859376-1.652344v3.304688zm0 0"/><path d="m132.335938 173.394531-2.859376-1.648437v3.300781zm0 0"/><path d="m132.335938 176.699219-2.859376-1.652344v3.300781zm0 0"/><path d="m132.335938 180-2.859376-1.652344v3.304688zm0 0"/><path d="m132.335938 183.300781-2.859376-1.648437v3.300781zm0 0"/><path d="m132.335938 186.605469-2.859376-1.652344v3.300781zm0 0"/><path d="m132.335938 189.90625-2.859376-1.652344v3.304688zm0 0"/><path d="m132.335938 193.210938-2.859376-1.652344v3.300781zm0 0"/><path d="m132.335938 196.511719-2.859376-1.652344v3.304687zm0 0"/><path d="m132.335938 199.8125-2.859376-1.648438v3.300782zm0 0"/><path d="m132.335938 203.117188-2.859376-1.652344v3.300781zm0 0"/><path d="m132.335938 206.417969-2.859376-1.652344v3.304687zm0 0"/><path d="m132.335938 209.722656-2.859376-1.652344v3.300782zm0 0"/><path d="m135.195312 211.371094-2.859374-1.648438v3.300782zm0 0"/><path d="m138.054688 213.023438-2.859376-1.652344v3.304687zm0 0"/><path d="m140.914062 214.675781-2.859374-1.652343v3.300781zm0 0"/><path d="m143.773438 216.324219-2.859376-1.648438v3.300781zm0 0"/><path d="m146.632812 217.976562-2.859374-1.652343v3.304687zm0 0"/><path d="m149.496094 219.628906-2.863282-1.652344v3.300782zm0 0"/><path d="m152.355469 221.277344-2.859375-1.648438v3.300782zm0 0"/><path d="m155.214844 222.929688-2.859375-1.652344v3.304687zm0 0"/><path d="m158.074219 224.582031-2.859375-1.652343v3.300781zm0 0"/><path d="m160.933594 226.230469-2.859375-1.648438v3.300781zm0 0"/><path d="m163.792969 227.882812-2.859375-1.652343v3.304687zm0 0"/><path d="m166.652344 229.535156-2.859375-1.652344v3.304688zm0 0"/><path d="m169.515625 231.1875-2.863281-1.652344v3.300782zm0 0"/><path d="m172.375 232.835938-2.859375-1.648438v3.300781zm0 0"/><path d="m175.234375 234.488281-2.859375-1.652343v3.304687zm0 0"/><path d="m178.09375 236.140625-2.859375-1.652344v3.300781zm0 0"/><path d="m180.953125 237.789062-2.859375-1.648437v3.300781zm0 0"/><path d="m183.8125 236.140625-2.859375-1.652344v3.300781zm0 0"/><path d="m186.671875 234.488281-2.859375-1.652343v3.304687zm0 0"/><path d="m189.53125 232.835938-2.859375-1.648438v3.300781zm0 0"/><path d="m192.394531 231.1875-2.863281-1.652344v3.300782zm0 0"/><path d="m195.253906 229.535156-2.859375-1.652344v3.304688zm0 0"/><path d="m198.113281 227.882812-2.859375-1.652343v3.304687zm0 0"/><path d="m200.972656 226.230469-2.859375-1.648438v3.300781zm0 0"/><path d="m203.832031 224.582031-2.859375-1.652343v3.300781zm0 0"/><path d="m206.691406 222.929688-2.859375-1.652344v3.304687zm0 0"/><path d="m209.550781 221.277344-2.859375-1.648438v3.300782zm0 0"/><path d="m212.410156 219.628906-2.859375-1.652344v3.300782zm0 0"/><path d="m215.273438 217.976562-2.863282-1.652343v3.304687zm0 0"/><path d="m218.132812 216.324219-2.859374-1.648438v3.300781zm0 0"/><path d="m220.992188 214.675781-2.859376-1.652343v3.300781zm0 0"/><path d="m223.851562 213.023438-2.859374-1.652344v3.304687zm0 0"/><path d="m226.710938 211.371094-2.859376-1.648438v3.300782zm0 0"/><path d="m229.570312 209.722656-2.859374-1.652344v3.300782zm0 0"/><path d="m312.507812 254.300781-2.859374-1.648437v3.300781zm0 0"/><path d="m312.507812 251-2.859374-1.652344v3.304688zm0 0"/><path d="m312.507812 247.695312-2.859374-1.648437v3.300781zm0 0"/><path d="m312.507812 244.394531-2.859374-1.652343v3.304687zm0 0"/><path d="m312.507812 241.09375-2.859374-1.652344v3.300782zm0 0"/><path d="m312.507812 237.789062-2.859374-1.648437v3.300781zm0 0"/><path d="m312.507812 234.488281-2.859374-1.652343v3.304687zm0 0"/><path d="m312.507812 231.1875-2.859374-1.652344v3.300782zm0 0"/><path d="m312.507812 227.882812-2.859374-1.652343v3.304687zm0 0"/><path d="m312.507812 224.582031-2.859374-1.652343v3.300781zm0 0"/><path d="m312.507812 221.277344-2.859374-1.648438v3.300782zm0 0"/><path d="m312.507812 217.976562-2.859374-1.652343v3.304687zm0 0"/><path d="m312.507812 214.675781-2.859374-1.652343v3.300781zm0 0"/><path d="m312.507812 211.371094-2.859374-1.648438v3.300782zm0 0"/><path d="m312.507812 208.070312-2.859374-1.652343v3.304687zm0 0"/><path d="m312.507812 204.765625-2.859374-1.648437v3.300781zm0 0"/><path d="m312.507812 201.464844-2.859374-1.652344v3.304688zm0 0"/><path d="m312.507812 198.164062-2.859374-1.652343v3.300781zm0 0"/><path d="m312.507812 194.859375-2.859374-1.648437v3.300781zm0 0"/><path d="m312.507812 191.558594-2.859374-1.652344v3.304688zm0 0"/><path d="m312.507812 188.253906-2.859374-1.648437v3.300781zm0 0"/><path d="m312.507812 184.953125-2.859374-1.652344v3.304688zm0 0"/><path d="m312.507812 181.652344-2.859374-1.652344v3.300781zm0 0"/><path d="m312.507812 178.347656-2.859374-1.648437v3.300781zm0 0"/><path d="m312.507812 175.046875-2.859374-1.652344v3.304688zm0 0"/><path d="m312.507812 171.746094-2.859374-1.652344v3.300781zm0 0"/><path d="m312.507812 168.441406-2.859374-1.652344v3.304688zm0 0"/><path d="m312.507812 165.140625-2.859374-1.652344v3.300781zm0 0"/><path d="m312.507812 161.835938-2.859374-1.648438v3.300781zm0 0"/><path d="m312.507812 158.535156-2.859374-1.652344v3.304688zm0 0"/><path d="m312.507812 155.234375-2.859374-1.652344v3.300781zm0 0"/><path d="m312.507812 151.929688-2.859374-1.652344v3.304687zm0 0"/><path d="m312.507812 148.628906-2.859374-1.652344v3.300782zm0 0"/><path d="m312.507812 145.324219-2.859374-1.648438v3.300781zm0 0"/><path d="m312.507812 142.023438-2.859374-1.652344v3.304687zm0 0"/><path d="m312.507812 138.722656-2.859374-1.652344v3.300782zm0 0"/><path d="m312.507812 135.417969-2.859374-1.648438v3.300781zm0 0"/><path d="m312.507812 132.117188-2.859374-1.652344v3.304687zm0 0"/><path d="m312.507812 128.8125-2.859374-1.648438v3.300782zm0 0"/><path d="m312.507812 125.511719-2.859374-1.652344v3.304687zm0 0"/><path d="m312.507812 122.210938-2.859374-1.652344v3.300781zm0 0"/><path d="m312.507812 118.90625-2.859374-1.648438v3.300782zm0 0"/><path d="m312.507812 115.605469-2.859374-1.652344v3.304687zm0 0"/><path d="m312.507812 112.304688-2.859374-1.652344v3.300781zm0 0"/><path d="m312.507812 109-2.859374-1.652344v3.304688zm0 0"/><path d="m312.507812 105.699219-2.859374-1.652344v3.300781zm0 0"/><path d="m309.648438 104.046875-2.859376-1.652344v3.304688zm0 0"/><path d="m306.789062 102.394531-2.859374-1.648437v3.300781zm0 0"/><path d="m303.929688 100.746094-2.863282-1.652344v3.300781zm0 0"/><path d="m301.066406 99.09375-2.859375-1.652344v3.304688zm0 0"/><path d="m298.207031 97.441406-2.859375-1.648437v3.300781zm0 0"/><path d="m295.347656 95.792969-2.859375-1.652344v3.300781zm0 0"/><path d="m292.488281 94.140625-2.859375-1.652344v3.304688zm0 0"/><path d="m289.628906 92.488281-2.859375-1.652343v3.304687zm0 0"/><path d="m286.769531 90.835938-2.859375-1.648438v3.300781zm0 0"/><path d="m283.910156 89.1875-2.859375-1.652344v3.300782zm0 0"/><path d="m281.050781 87.535156-2.863281-1.652344v3.304688zm0 0"/><path d="m278.1875 85.882812-2.859375-1.648437v3.300781zm0 0"/><path d="m275.328125 84.234375-2.859375-1.652344v3.300781zm0 0"/><path d="m272.46875 82.582031-2.859375-1.652343v3.304687zm0 0"/><path d="m269.609375 80.929688-2.859375-1.648438v3.300781zm0 0"/><path d="m266.75 79.28125-2.859375-1.652344v3.300782zm0 0"/><path d="m263.890625 77.628906-2.859375-1.652344v3.304688zm0 0"/><path d="m261.03125 75.976562-2.859375-1.648437v3.300781zm0 0"/><path d="m258.171875 74.328125-2.863281-1.652344v3.300781zm0 0"/><path d="m255.308594 72.675781-2.859375-1.652343v3.304687zm0 0"/><path d="m252.449219 71.023438-2.859375-1.652344v3.304687zm0 0"/><path d="m249.589844 69.371094-2.859375-1.648438v3.300782zm0 0"/><path d="m246.730469 67.722656-2.859375-1.652344v3.300782zm0 0"/><path d="m243.871094 66.070312-2.859375-1.652343v3.304687zm0 0"/><path d="m241.011719 64.417969-2.859375-1.648438v3.300781zm0 0"/><path d="m238.152344 62.769531-2.863282-1.652343v3.300781zm0 0"/><path d="m235.289062 61.117188-2.859374-1.652344v3.304687zm0 0"/><path d="m232.429688 59.464844-2.859376-1.648438v3.300782zm0 0"/><path d="m229.570312 57.816406-2.859374-1.652344v3.300782zm0 0"/><path d="m226.710938 56.164062-2.859376-1.652343v3.304687zm0 0"/><path d="m223.851562 54.511719-2.859374-1.648438v3.300781zm0 0"/><path d="m220.992188 52.863281-2.859376-1.652343v3.300781zm0 0"/><path d="m218.132812 51.210938-2.859374-1.652344v3.304687zm0 0"/><path d="m215.273438 49.558594-2.863282-1.652344v3.304688zm0 0"/><path d="m212.410156 47.90625-2.859375-1.648438v3.300782zm0 0"/><path d="m209.550781 46.257812-2.859375-1.652343v3.300781zm0 0"/><path d="m206.691406 44.605469-2.859375-1.652344v3.304687zm0 0"/><path d="m203.832031 42.953125-2.859375-1.648437v3.300781zm0 0"/><path d="m200.972656 41.304688-2.859375-1.652344v3.300781zm0 0"/><path d="m198.113281 39.652344-2.859375-1.652344v3.304688zm0 0"/><path d="m195.253906 38-2.859375-1.648438v3.300782zm0 0"/><path d="m192.394531 36.351562-2.863281-1.652343v3.300781zm0 0"/><path d="m189.53125 34.699219-2.859375-1.652344v3.304687zm0 0"/><path d="m186.671875 33.046875-2.859375-1.652344v3.304688zm0 0"/><path d="m183.8125 31.394531-2.859375-1.648437v3.300781zm0 0"/><path d="m180.953125 29.746094-2.859375-1.652344v3.300781zm0 0"/><path d="m178.09375 31.394531-2.859375-1.648437v3.300781zm0 0"/><path d="m175.234375 33.046875-2.859375-1.652344v3.304688zm0 0"/><path d="m172.375 34.699219-2.859375-1.652344v3.304687zm0 0"/><path d="m169.515625 36.351562-2.863281-1.652343v3.300781zm0 0"/><path d="m166.652344 38-2.859375-1.648438v3.300782zm0 0"/><path d="m163.792969 39.652344-2.859375-1.652344v3.304688zm0 0"/><path d="m160.933594 41.304688-2.859375-1.652344v3.300781zm0 0"/><path d="m158.074219 42.953125-2.859375-1.648437v3.300781zm0 0"/><path d="m155.214844 44.605469-2.859375-1.652344v3.304687zm0 0"/><path d="m152.355469 46.257812-2.859375-1.652343v3.300781zm0 0"/><path d="m149.496094 47.90625-2.863282-1.648438v3.300782zm0 0"/><path d="m146.632812 49.558594-2.859374-1.652344v3.304688zm0 0"/><path d="m143.773438 51.210938-2.859376-1.652344v3.304687zm0 0"/><path d="m140.914062 52.863281-2.859374-1.652343v3.300781zm0 0"/><path d="m138.054688 54.511719-2.859376-1.648438v3.300781zm0 0"/><path d="m135.195312 56.164062-2.859374-1.652343v3.304687zm0 0"/><path d="m132.335938 57.816406-2.859376-1.652344v3.300782zm0 0"/><path d="m129.476562 59.464844-2.859374-1.648438v3.300782zm0 0"/><path d="m126.617188 61.117188-2.863282-1.652344v3.304687zm0 0"/><path d="m123.753906 62.769531-2.859375-1.652343v3.300781zm0 0"/><path d="m120.894531 64.417969-2.859375-1.648438v3.300781zm0 0"/><path d="m118.035156 66.070312-2.859375-1.652343v3.304687zm0 0"/><path d="m115.175781 67.722656-2.859375-1.652344v3.300782zm0 0"/><path d="m112.316406 69.371094-2.859375-1.648438v3.300782zm0 0"/><path d="m109.457031 71.023438-2.859375-1.652344v3.304687zm0 0"/><path d="m106.597656 72.675781-2.859375-1.652343v3.304687zm0 0"/><path d="m103.738281 74.328125-2.863281-1.652344v3.300781zm0 0"/><path d="m100.875 75.976562-2.859375-1.648437v3.300781zm0 0"/><path d="m98.015625 77.628906-2.859375-1.652344v3.304688zm0 0"/><path d="m95.15625 79.28125-2.859375-1.652344v3.300782zm0 0"/><path d="m92.296875 80.929688-2.859375-1.648438v3.300781zm0 0"/><path d="m89.4375 82.582031-2.859375-1.652343v3.304687zm0 0"/><path d="m86.578125 84.234375-2.859375-1.652344v3.300781zm0 0"/><path d="m83.71875 85.882812-2.859375-1.648437v3.300781zm0 0"/><path d="m80.859375 87.535156-2.863281-1.652344v3.304688zm0 0"/><path d="m77.996094 89.1875-2.859375-1.652344v3.300782zm0 0"/><path d="m75.136719 90.835938-2.859375-1.648438v3.300781zm0 0"/><path d="m72.277344 92.488281-2.859375-1.652343v3.304687zm0 0"/><path d="m69.417969 94.140625-2.859375-1.652344v3.304688zm0 0"/><path d="m66.558594 95.792969-2.859375-1.652344v3.300781zm0 0"/><path d="m63.699219 97.441406-2.859375-1.648437v3.300781zm0 0"/><path d="m60.839844 99.09375-2.859375-1.652344v3.304688zm0 0"/><path d="m57.980469 100.746094-2.863281-1.652344v3.300781zm0 0"/><path d="m55.117188 102.394531-2.859376-1.648437v3.300781zm0 0"/><path d="m52.257812 104.046875-2.859374-1.652344v3.304688zm0 0"/><path d="m52.257812 107.347656-2.859374-1.648437v3.300781zm0 0"/><path d="m52.257812 110.652344-2.859374-1.652344v3.304688zm0 0"/><path d="m52.257812 113.953125-2.859374-1.648437v3.300781zm0 0"/><path d="m52.257812 117.257812-2.859374-1.652343v3.300781zm0 0"/><path d="m52.257812 120.558594-2.859374-1.652344v3.304688zm0 0"/><path d="m52.257812 123.859375-2.859374-1.648437v3.300781zm0 0"/><path d="m52.257812 127.164062-2.859374-1.652343v3.300781zm0 0"/><path d="m52.257812 130.464844-2.859374-1.652344v3.304688zm0 0"/><path d="m52.257812 133.769531-2.859374-1.652343v3.300781zm0 0"/><path d="m52.257812 137.070312-2.859374-1.652343v3.304687zm0 0"/><path d="m52.257812 140.371094-2.859374-1.648438v3.300782zm0 0"/><path d="m52.257812 143.675781-2.859374-1.652343v3.300781zm0 0"/><path d="m52.257812 146.976562-2.859374-1.652343v3.304687zm0 0"/><path d="m52.257812 150.277344-2.859374-1.648438v3.300782zm0 0"/><path d="m52.257812 153.582031-2.859374-1.652343v3.304687zm0 0"/><path d="m52.257812 156.882812-2.859374-1.648437v3.300781zm0 0"/><path d="m52.257812 160.1875-2.859374-1.652344v3.300782zm0 0"/><path d="m52.257812 163.488281-2.859374-1.652343v3.304687zm0 0"/><path d="m52.257812 166.789062-2.859374-1.648437v3.300781zm0 0"/><path d="m52.257812 170.09375-2.859374-1.652344v3.304688zm0 0"/><path d="m52.257812 173.394531-2.859374-1.648437v3.300781zm0 0"/><path d="m52.257812 176.699219-2.859374-1.652344v3.300781zm0 0"/><path d="m52.257812 180-2.859374-1.652344v3.304688zm0 0"/><path d="m52.257812 183.300781-2.859374-1.648437v3.300781zm0 0"/><path d="m52.257812 186.605469-2.859374-1.652344v3.300781zm0 0"/><path d="m52.257812 189.90625-2.859374-1.652344v3.304688zm0 0"/><path d="m52.257812 193.210938-2.859374-1.652344v3.300781zm0 0"/><path d="m52.257812 196.511719-2.859374-1.652344v3.304687zm0 0"/><path d="m52.257812 199.8125-2.859374-1.648438v3.300782zm0 0"/><path d="m52.257812 203.117188-2.859374-1.652344v3.300781zm0 0"/><path d="m52.257812 206.417969-2.859374-1.652344v3.304687zm0 0"/><path d="m52.257812 209.722656-2.859374-1.652344v3.300782zm0 0"/><path d="m52.257812 213.023438-2.859374-1.652344v3.304687zm0 0"/><path d="m52.257812 216.324219-2.859374-1.648438v3.300781zm0 0"/><path d="m52.257812 219.628906-2.859374-1.652344v3.300782zm0 0"/><path d="m52.257812 222.929688-2.859374-1.652344v3.304687zm0 0"/><path d="m52.257812 226.230469-2.859374-1.648438v3.300781zm0 0"/><path d="m52.257812 229.535156-2.859374-1.652344v3.304688zm0 0"/><path d="m52.257812 232.835938-2.859374-1.648438v3.300781zm0 0"/><path d="m52.257812 236.140625-2.859374-1.652344v3.300781zm0 0"/><path d="m52.257812 239.441406-2.859374-1.652344v3.304688zm0 0"/><path d="m52.257812 242.742188-2.859374-1.648438v3.300781zm0 0"/><path d="m52.257812 246.046875-2.859374-1.652344v3.300781zm0 0"/><path d="m52.257812 249.347656-2.859374-1.652344v3.304688zm0 0"/><path d="m52.257812 252.652344-2.859374-1.652344v3.300781zm0 0"/><path d="m52.257812 255.953125-2.859374-1.652344v3.304688zm0 0"/><path d="m55.117188 257.605469-2.859376-1.652344v3.300781zm0 0"/><path d="m57.980469 259.253906-2.863281-1.648437v3.300781zm0 0"/><path d="m60.839844 260.90625-2.859375-1.652344v3.304688zm0 0"/><path d="m63.699219 262.558594-2.859375-1.652344v3.300781zm0 0"/><path d="m66.558594 264.207031-2.859375-1.648437v3.300781zm0 0"/><path d="m69.417969 265.859375-2.859375-1.652344v3.304688zm0 0"/><path d="m72.277344 267.511719-2.859375-1.652344v3.304687zm0 0"/><path d="m75.136719 269.164062-2.859375-1.652343v3.300781zm0 0"/><path d="m77.996094 270.8125-2.859375-1.648438v3.300782zm0 0"/><path d="m80.859375 272.464844-2.863281-1.652344v3.304688zm0 0"/><path d="m83.71875 274.117188-2.859375-1.652344v3.300781zm0 0"/><path d="m86.578125 275.765625-2.859375-1.648437v3.300781zm0 0"/><path d="m89.4375 277.417969-2.859375-1.652344v3.304687zm0 0"/><path d="m92.296875 279.070312-2.859375-1.652343v3.300781zm0 0"/><path d="m95.15625 280.71875-2.859375-1.648438v3.300782zm0 0"/><path d="m98.015625 282.371094-2.859375-1.652344v3.304688zm0 0"/><path d="m100.875 284.023438-2.859375-1.652344v3.300781zm0 0"/><path d="m103.738281 285.671875-2.863281-1.648437v3.300781zm0 0"/><path d="m106.597656 287.324219-2.859375-1.652344v3.304687zm0 0"/><path d="m109.457031 288.976562-2.859375-1.652343v3.304687zm0 0"/><path d="m112.316406 290.628906-2.859375-1.652344v3.300782zm0 0"/><path d="m115.175781 292.277344-2.859375-1.648438v3.300782zm0 0"/><path d="m118.035156 293.929688-2.859375-1.652344v3.304687zm0 0"/><path d="m120.894531 295.582031-2.859375-1.652343v3.300781zm0 0"/><path d="m123.753906 297.230469-2.859375-1.648438v3.300781zm0 0"/><path d="m126.617188 298.882812-2.863282-1.652343v3.304687zm0 0"/><path d="m129.476562 300.535156-2.859374-1.652344v3.300782zm0 0"/><path d="m132.335938 302.183594-2.859376-1.648438v3.300782zm0 0"/><path d="m135.195312 303.835938-2.859374-1.652344v3.304687zm0 0"/><path d="m138.054688 305.488281-2.859376-1.652343v3.300781zm0 0"/><path d="m140.914062 307.136719-2.859374-1.648438v3.300781zm0 0"/><path d="m143.773438 308.789062-2.859376-1.652343v3.304687zm0 0"/><path d="m146.632812 310.441406-2.859374-1.652344v3.304688zm0 0"/><path d="m149.496094 312.09375-2.863282-1.652344v3.300782zm0 0"/><path d="m152.355469 313.742188-2.859375-1.648438v3.300781zm0 0"/><path d="m155.214844 315.394531-2.859375-1.652343v3.304687zm0 0"/><path d="m158.074219 317.046875-2.859375-1.652344v3.300781zm0 0"/><path d="m160.933594 318.695312-2.859375-1.648437v3.300781zm0 0"/><path d="m163.792969 320.347656-2.859375-1.652344v3.304688zm0 0"/><path d="m166.652344 322-2.859375-1.652344v3.300782zm0 0"/><path d="m169.515625 323.648438-2.863281-1.648438v3.300781zm0 0"/><path d="m172.375 325.300781-2.859375-1.652343v3.304687zm0 0"/><path d="m175.234375 326.953125-2.859375-1.652344v3.304688zm0 0"/><path d="m178.09375 328.605469-2.859375-1.652344v3.300781zm0 0"/><path d="m180.953125 330.253906-2.859375-1.648437v3.300781zm0 0"/><path d="m183.8125 328.605469-2.859375-1.652344v3.300781zm0 0"/><path d="m186.671875 326.953125-2.859375-1.652344v3.304688zm0 0"/><path d="m189.53125 325.300781-2.859375-1.652343v3.304687zm0 0"/><path d="m192.394531 323.648438-2.863281-1.648438v3.300781zm0 0"/><path d="m195.253906 322-2.859375-1.652344v3.300782zm0 0"/><path d="m198.113281 320.347656-2.859375-1.652344v3.304688zm0 0"/><path d="m200.972656 318.695312-2.859375-1.648437v3.300781zm0 0"/><path d="m203.832031 317.046875-2.859375-1.652344v3.300781zm0 0"/><path d="m206.691406 315.394531-2.859375-1.652343v3.304687zm0 0"/><path d="m209.550781 313.742188-2.859375-1.648438v3.300781zm0 0"/><path d="m212.410156 312.09375-2.859375-1.652344v3.300782zm0 0"/><path d="m215.273438 310.441406-2.863282-1.652344v3.304688zm0 0"/><path d="m218.132812 308.789062-2.859374-1.652343v3.304687zm0 0"/><path d="m220.992188 307.136719-2.859376-1.648438v3.300781zm0 0"/><path d="m223.851562 305.488281-2.859374-1.652343v3.300781zm0 0"/><path d="m226.710938 303.835938-2.859376-1.652344v3.304687zm0 0"/><path d="m229.570312 302.183594-2.859374-1.648438v3.300782zm0 0"/><path d="m232.429688 300.535156-2.859376-1.652344v3.300782zm0 0"/><path d="m235.289062 298.882812-2.859374-1.652343v3.304687zm0 0"/><path d="m238.152344 297.230469-2.863282-1.648438v3.300781zm0 0"/><path d="m241.011719 295.582031-2.859375-1.652343v3.300781zm0 0"/><path d="m243.871094 293.929688-2.859375-1.652344v3.304687zm0 0"/><path d="m246.730469 292.277344-2.859375-1.648438v3.300782zm0 0"/><path d="m249.589844 290.628906-2.859375-1.652344v3.300782zm0 0"/><path d="m252.449219 288.976562-2.859375-1.652343v3.304687zm0 0"/><path d="m255.308594 287.324219-2.859375-1.652344v3.304687zm0 0"/><path d="m258.171875 285.671875-2.863281-1.648437v3.300781zm0 0"/><path d="m261.03125 284.023438-2.859375-1.652344v3.300781zm0 0"/><path d="m263.890625 282.371094-2.859375-1.652344v3.304688zm0 0"/><path d="m266.75 280.71875-2.859375-1.648438v3.300782zm0 0"/><path d="m269.609375 279.070312-2.859375-1.652343v3.300781zm0 0"/><path d="m272.46875 277.417969-2.859375-1.652344v3.304687zm0 0"/><path d="m275.328125 275.765625-2.859375-1.648437v3.300781zm0 0"/><path d="m278.1875 274.117188-2.859375-1.652344v3.300781zm0 0"/><path d="m281.050781 272.464844-2.863281-1.652344v3.304688zm0 0"/><path d="m283.910156 270.8125-2.859375-1.648438v3.300782zm0 0"/><path d="m286.769531 269.164062-2.859375-1.652343v3.300781zm0 0"/><path d="m289.628906 267.511719-2.859375-1.652344v3.304687zm0 0"/><path d="m292.488281 265.859375-2.859375-1.652344v3.304688zm0 0"/><path d="m295.347656 264.207031-2.859375-1.648437v3.300781zm0 0"/><path d="m298.207031 262.558594-2.859375-1.652344v3.300781zm0 0"/><path d="m301.066406 260.90625-2.859375-1.652344v3.304688zm0 0"/><path d="m303.929688 259.253906-2.863282-1.648437v3.300781zm0 0"/><path d="m306.789062 257.605469-2.859374-1.652344v3.300781zm0 0"/><path d="m309.648438 255.953125-2.859376-1.652344v3.304688zm0 0"/><path d="m323.945312 260.90625-2.859374-1.652344v3.304688zm0 0"/><path d="m323.945312 257.605469-2.859374-1.652344v3.300781zm0 0"/><path d="m323.945312 254.300781-2.859374-1.648437v3.300781zm0 0"/><path d="m323.945312 251-2.859374-1.652344v3.304688zm0 0"/><path d="m323.945312 247.695312-2.859374-1.648437v3.300781zm0 0"/><path d="m323.945312 244.394531-2.859374-1.652343v3.304687zm0 0"/><path d="m323.945312 241.09375-2.859374-1.652344v3.300782zm0 0"/><path d="m323.945312 237.789062-2.859374-1.648437v3.300781zm0 0"/><path d="m323.945312 234.488281-2.859374-1.652343v3.304687zm0 0"/><path d="m323.945312 231.1875-2.859374-1.652344v3.300782zm0 0"/><path d="m323.945312 227.882812-2.859374-1.652343v3.304687zm0 0"/><path d="m323.945312 224.582031-2.859374-1.652343v3.300781zm0 0"/><path d="m323.945312 221.277344-2.859374-1.648438v3.300782zm0 0"/><path d="m323.945312 217.976562-2.859374-1.652343v3.304687zm0 0"/><path d="m323.945312 214.675781-2.859374-1.652343v3.300781zm0 0"/><path d="m323.945312 211.371094-2.859374-1.648438v3.300782zm0 0"/><path d="m323.945312 208.070312-2.859374-1.652343v3.304687zm0 0"/><path d="m323.945312 204.765625-2.859374-1.648437v3.300781zm0 0"/><path d="m323.945312 201.464844-2.859374-1.652344v3.304688zm0 0"/><path d="m323.945312 198.164062-2.859374-1.652343v3.300781zm0 0"/><path d="m323.945312 194.859375-2.859374-1.648437v3.300781zm0 0"/><path d="m323.945312 191.558594-2.859374-1.652344v3.304688zm0 0"/><path d="m323.945312 188.253906-2.859374-1.648437v3.300781zm0 0"/><path d="m323.945312 184.953125-2.859374-1.652344v3.304688zm0 0"/><path d="m323.945312 181.652344-2.859374-1.652344v3.300781zm0 0"/><path d="m323.945312 178.347656-2.859374-1.648437v3.300781zm0 0"/><path d="m323.945312 175.046875-2.859374-1.652344v3.304688zm0 0"/><path d="m323.945312 171.746094-2.859374-1.652344v3.300781zm0 0"/><path d="m323.945312 168.441406-2.859374-1.652344v3.304688zm0 0"/><path d="m323.945312 165.140625-2.859374-1.652344v3.300781zm0 0"/><path d="m323.945312 161.835938-2.859374-1.648438v3.300781zm0 0"/><path d="m323.945312 158.535156-2.859374-1.652344v3.304688zm0 0"/><path d="m323.945312 155.234375-2.859374-1.652344v3.300781zm0 0"/><path d="m323.945312 151.929688-2.859374-1.652344v3.304687zm0 0"/><path d="m323.945312 148.628906-2.859374-1.652344v3.300782zm0 0"/><path d="m323.945312 145.324219-2.859374-1.648438v3.300781zm0 0"/><path d="m323.945312 142.023438-2.859374-1.652344v3.304687zm0 0"/><path d="m323.945312 138.722656-2.859374-1.652344v3.300782zm0 0"/><path d="m323.945312 135.417969-2.859374-1.648438v3.300781zm0 0"/><path d="m323.945312 132.117188-2.859374-1.652344v3.304687zm0 0"/><path d="m323.945312 128.8125-2.859374-1.648438v3.300782zm0 0"/><path d="m323.945312 125.511719-2.859374-1.652344v3.304687zm0 0"/><path d="m323.945312 122.210938-2.859374-1.652344v3.300781zm0 0"/><path d="m323.945312 118.90625-2.859374-1.648438v3.300782zm0 0"/><path d="m323.945312 115.605469-2.859374-1.652344v3.304687zm0 0"/><path d="m323.945312 112.304688-2.859374-1.652344v3.300781zm0 0"/><path d="m323.945312 109-2.859374-1.652344v3.304688zm0 0"/><path d="m323.945312 105.699219-2.859374-1.652344v3.300781zm0 0"/><path d="m323.945312 102.394531-2.859374-1.648437v3.300781zm0 0"/><path d="m323.945312 99.09375-2.859374-1.652344v3.304688zm0 0"/><path d="m321.085938 97.441406-2.859376-1.648437v3.300781zm0 0"/><path d="m318.226562 95.792969-2.859374-1.652344v3.300781zm0 0"/><path d="m315.367188 94.140625-2.859376-1.652344v3.304688zm0 0"/><path d="m312.507812 92.488281-2.859374-1.652343v3.304687zm0 0"/><path d="m309.648438 90.835938-2.859376-1.648438v3.300781zm0 0"/><path d="m306.789062 89.1875-2.859374-1.652344v3.300782zm0 0"/><path d="m303.929688 87.535156-2.863282-1.652344v3.304688zm0 0"/><path d="m301.066406 85.882812-2.859375-1.648437v3.300781zm0 0"/><path d="m298.207031 84.234375-2.859375-1.652344v3.300781zm0 0"/><path d="m295.347656 82.582031-2.859375-1.652343v3.304687zm0 0"/><path d="m292.488281 80.929688-2.859375-1.648438v3.300781zm0 0"/><path d="m289.628906 79.28125-2.859375-1.652344v3.300782zm0 0"/><path d="m286.769531 77.628906-2.859375-1.652344v3.304688zm0 0"/><path d="m283.910156 75.976562-2.859375-1.648437v3.300781zm0 0"/><path d="m281.050781 74.328125-2.863281-1.652344v3.300781zm0 0"/><path d="m278.1875 72.675781-2.859375-1.652343v3.304687zm0 0"/><path d="m275.328125 71.023438-2.859375-1.652344v3.304687zm0 0"/><path d="m272.46875 69.371094-2.859375-1.648438v3.300782zm0 0"/><path d="m269.609375 67.722656-2.859375-1.652344v3.300782zm0 0"/><path d="m266.75 66.070312-2.859375-1.652343v3.304687zm0 0"/><path d="m263.890625 64.417969-2.859375-1.648438v3.300781zm0 0"/><path d="m261.03125 62.769531-2.859375-1.652343v3.300781zm0 0"/><path d="m258.171875 61.117188-2.863281-1.652344v3.304687zm0 0"/><path d="m255.308594 59.464844-2.859375-1.648438v3.300782zm0 0"/><path d="m252.449219 57.816406-2.859375-1.652344v3.300782zm0 0"/><path d="m249.589844 56.164062-2.859375-1.652343v3.304687zm0 0"/><path d="m246.730469 54.511719-2.859375-1.648438v3.300781zm0 0"/><path d="m243.871094 52.863281-2.859375-1.652343v3.300781zm0 0"/><path d="m241.011719 51.210938-2.859375-1.652344v3.304687zm0 0"/><path d="m238.152344 49.558594-2.863282-1.652344v3.304688zm0 0"/><path d="m235.289062 47.90625-2.859374-1.648438v3.300782zm0 0"/><path d="m232.429688 46.257812-2.859376-1.652343v3.300781zm0 0"/><path d="m229.570312 44.605469-2.859374-1.652344v3.304687zm0 0"/><path d="m226.710938 42.953125-2.859376-1.648437v3.300781zm0 0"/><path d="m223.851562 41.304688-2.859374-1.652344v3.300781zm0 0"/><path d="m220.992188 39.652344-2.859376-1.652344v3.304688zm0 0"/><path d="m218.132812 38-2.859374-1.648438v3.300782zm0 0"/><path d="m215.273438 36.351562-2.863282-1.652343v3.300781zm0 0"/><path d="m212.410156 34.699219-2.859375-1.652344v3.304687zm0 0"/><path d="m209.550781 33.046875-2.859375-1.652344v3.304688zm0 0"/><path d="m206.691406 31.394531-2.859375-1.648437v3.300781zm0 0"/><path d="m203.832031 29.746094-2.859375-1.652344v3.300781zm0 0"/><path d="m200.972656 28.09375-2.859375-1.652344v3.304688zm0 0"/><path d="m198.113281 26.441406-2.859375-1.648437v3.300781zm0 0"/><path d="m195.253906 24.792969-2.859375-1.652344v3.300781zm0 0"/><path d="m192.394531 23.140625-2.863281-1.652344v3.304688zm0 0"/><path d="m189.53125 21.488281-2.859375-1.648437v3.300781zm0 0"/><path d="m186.671875 19.839844-2.859375-1.652344v3.300781zm0 0"/><path d="m183.8125 18.1875-2.859375-1.652344v3.304688zm0 0"/><path d="m180.953125 16.535156-2.859375-1.648437v3.300781zm0 0"/><path d="m178.09375 18.1875-2.859375-1.652344v3.304688zm0 0"/><path d="m175.234375 19.839844-2.859375-1.652344v3.300781zm0 0"/><path d="m172.375 21.488281-2.859375-1.648437v3.300781zm0 0"/><path d="m169.515625 23.140625-2.863281-1.652344v3.304688zm0 0"/><path d="m166.652344 24.792969-2.859375-1.652344v3.300781zm0 0"/><path d="m163.792969 26.441406-2.859375-1.648437v3.300781zm0 0"/><path d="m160.933594 28.09375-2.859375-1.652344v3.304688zm0 0"/><path d="m158.074219 29.746094-2.859375-1.652344v3.300781zm0 0"/><path d="m155.214844 31.394531-2.859375-1.648437v3.300781zm0 0"/><path d="m152.355469 33.046875-2.859375-1.652344v3.304688zm0 0"/><path d="m149.496094 34.699219-2.863282-1.652344v3.304687zm0 0"/><path d="m146.632812 36.351562-2.859374-1.652343v3.300781zm0 0"/><path d="m143.773438 38-2.859376-1.648438v3.300782zm0 0"/><path d="m140.914062 39.652344-2.859374-1.652344v3.304688zm0 0"/><path d="m138.054688 41.304688-2.859376-1.652344v3.300781zm0 0"/><path d="m135.195312 42.953125-2.859374-1.648437v3.300781zm0 0"/><path d="m132.335938 44.605469-2.859376-1.652344v3.304687zm0 0"/><path d="m129.476562 46.257812-2.859374-1.652343v3.300781zm0 0"/><path d="m126.617188 47.90625-2.863282-1.648438v3.300782zm0 0"/><path d="m123.753906 49.558594-2.859375-1.652344v3.304688zm0 0"/><path d="m120.894531 51.210938-2.859375-1.652344v3.304687zm0 0"/><path d="m118.035156 52.863281-2.859375-1.652343v3.300781zm0 0"/><path d="m115.175781 54.511719-2.859375-1.648438v3.300781zm0 0"/><path d="m112.316406 56.164062-2.859375-1.652343v3.304687zm0 0"/><path d="m109.457031 57.816406-2.859375-1.652344v3.300782zm0 0"/><path d="m106.597656 59.464844-2.859375-1.648438v3.300782zm0 0"/><path d="m103.738281 61.117188-2.863281-1.652344v3.304687zm0 0"/><path d="m100.875 62.769531-2.859375-1.652343v3.300781zm0 0"/><path d="m98.015625 64.417969-2.859375-1.648438v3.300781zm0 0"/><path d="m95.15625 66.070312-2.859375-1.652343v3.304687zm0 0"/><path d="m92.296875 67.722656-2.859375-1.652344v3.300782zm0 0"/><path d="m89.4375 69.371094-2.859375-1.648438v3.300782zm0 0"/><path d="m86.578125 71.023438-2.859375-1.652344v3.304687zm0 0"/><path d="m83.71875 72.675781-2.859375-1.652343v3.304687zm0 0"/><path d="m80.859375 74.328125-2.863281-1.652344v3.300781zm0 0"/><path d="m77.996094 75.976562-2.859375-1.648437v3.300781zm0 0"/><path d="m75.136719 77.628906-2.859375-1.652344v3.304688zm0 0"/><path d="m72.277344 79.28125-2.859375-1.652344v3.300782zm0 0"/><path d="m69.417969 80.929688-2.859375-1.648438v3.300781zm0 0"/><path d="m66.558594 82.582031-2.859375-1.652343v3.304687zm0 0"/><path d="m63.699219 84.234375-2.859375-1.652344v3.300781zm0 0"/><path d="m60.839844 85.882812-2.859375-1.648437v3.300781zm0 0"/><path d="m57.980469 87.535156-2.863281-1.652344v3.304688zm0 0"/><path d="m55.117188 89.1875-2.859376-1.652344v3.300782zm0 0"/><path d="m52.257812 90.835938-2.859374-1.648438v3.300781zm0 0"/><path d="m49.398438 92.488281-2.859376-1.652343v3.304687zm0 0"/><path d="m46.539062 94.140625-2.859374-1.652344v3.304688zm0 0"/><path d="m43.679688 95.792969-2.859376-1.652344v3.300781zm0 0"/><path d="m40.820312 97.441406-2.859374-1.648437v3.300781zm0 0"/><path d="m40.820312 100.746094-2.859374-1.652344v3.300781zm0 0"/><path d="m40.820312 104.046875-2.859374-1.652344v3.304688zm0 0"/><path d="m40.820312 107.347656-2.859374-1.648437v3.300781zm0 0"/><path d="m40.820312 110.652344-2.859374-1.652344v3.304688zm0 0"/><path d="m40.820312 113.953125-2.859374-1.648437v3.300781zm0 0"/><path d="m40.820312 117.257812-2.859374-1.652343v3.300781zm0 0"/><path d="m40.820312 120.558594-2.859374-1.652344v3.304688zm0 0"/><path d="m40.820312 123.859375-2.859374-1.648437v3.300781zm0 0"/><path d="m40.820312 127.164062-2.859374-1.652343v3.300781zm0 0"/><path d="m40.820312 130.464844-2.859374-1.652344v3.304688zm0 0"/><path d="m40.820312 133.769531-2.859374-1.652343v3.300781zm0 0"/><path d="m40.820312 137.070312-2.859374-1.652343v3.304687zm0 0"/><path d="m40.820312 140.371094-2.859374-1.648438v3.300782zm0 0"/><path d="m40.820312 143.675781-2.859374-1.652343v3.300781zm0 0"/><path d="m40.820312 146.976562-2.859374-1.652343v3.304687zm0 0"/><path d="m40.820312 150.277344-2.859374-1.648438v3.300782zm0 0"/><path d="m40.820312 153.582031-2.859374-1.652343v3.304687zm0 0"/><path d="m40.820312 156.882812-2.859374-1.648437v3.300781zm0 0"/><path d="m40.820312 160.1875-2.859374-1.652344v3.300782zm0 0"/><path d="m40.820312 163.488281-2.859374-1.652343v3.304687zm0 0"/><path d="m40.820312 166.789062-2.859374-1.648437v3.300781zm0 0"/><path d="m40.820312 170.09375-2.859374-1.652344v3.304688zm0 0"/><path d="m40.820312 173.394531-2.859374-1.648437v3.300781zm0 0"/><path d="m40.820312 176.699219-2.859374-1.652344v3.300781zm0 0"/><path d="m40.820312 180-2.859374-1.652344v3.304688zm0 0"/><path d="m40.820312 183.300781-2.859374-1.648437v3.300781zm0 0"/><path d="m40.820312 186.605469-2.859374-1.652344v3.300781zm0 0"/><path d="m40.820312 189.90625-2.859374-1.652344v3.304688zm0 0"/><path d="m40.820312 193.210938-2.859374-1.652344v3.300781zm0 0"/><path d="m40.820312 196.511719-2.859374-1.652344v3.304687zm0 0"/><path d="m40.820312 199.8125-2.859374-1.648438v3.300782zm0 0"/><path d="m40.820312 203.117188-2.859374-1.652344v3.300781zm0 0"/><path d="m40.820312 206.417969-2.859374-1.652344v3.304687zm0 0"/><path d="m40.820312 209.722656-2.859374-1.652344v3.300782zm0 0"/><path d="m40.820312 213.023438-2.859374-1.652344v3.304687zm0 0"/><path d="m40.820312 216.324219-2.859374-1.648438v3.300781zm0 0"/><path d="m40.820312 219.628906-2.859374-1.652344v3.300782zm0 0"/><path d="m40.820312 222.929688-2.859374-1.652344v3.304687zm0 0"/><path d="m40.820312 226.230469-2.859374-1.648438v3.300781zm0 0"/><path d="m40.820312 229.535156-2.859374-1.652344v3.304688zm0 0"/><path d="m40.820312 232.835938-2.859374-1.648438v3.300781zm0 0"/><path d="m40.820312 236.140625-2.859374-1.652344v3.300781zm0 0"/><path d="m40.820312 239.441406-2.859374-1.652344v3.304688zm0 0"/><path d="m40.820312 242.742188-2.859374-1.648438v3.300781zm0 0"/><path d="m40.820312 246.046875-2.859374-1.652344v3.300781zm0 0"/><path d="m40.820312 249.347656-2.859374-1.652344v3.304688zm0 0"/><path d="m40.820312 252.652344-2.859374-1.652344v3.300781zm0 0"/><path d="m40.820312 255.953125-2.859374-1.652344v3.304688zm0 0"/><path d="m40.820312 259.253906-2.859374-1.648437v3.300781zm0 0"/><path d="m40.820312 262.558594-2.859374-1.652344v3.300781zm0 0"/><path d="m43.679688 264.207031-2.859376-1.648437v3.300781zm0 0"/><path d="m46.539062 265.859375-2.859374-1.652344v3.304688zm0 0"/><path d="m49.398438 267.511719-2.859376-1.652344v3.304687zm0 0"/><path d="m52.257812 269.164062-2.859374-1.652343v3.300781zm0 0"/><path d="m55.117188 270.8125-2.859376-1.648438v3.300782zm0 0"/><path d="m57.980469 272.464844-2.863281-1.652344v3.304688zm0 0"/><path d="m60.839844 274.117188-2.859375-1.652344v3.300781zm0 0"/><path d="m63.699219 275.765625-2.859375-1.648437v3.300781zm0 0"/><path d="m66.558594 277.417969-2.859375-1.652344v3.304687zm0 0"/><path d="m69.417969 279.070312-2.859375-1.652343v3.300781zm0 0"/><path d="m72.277344 280.71875-2.859375-1.648438v3.300782zm0 0"/><path d="m75.136719 282.371094-2.859375-1.652344v3.304688zm0 0"/><path d="m77.996094 284.023438-2.859375-1.652344v3.300781zm0 0"/><path d="m80.859375 285.671875-2.863281-1.648437v3.300781zm0 0"/><path d="m83.71875 287.324219-2.859375-1.652344v3.304687zm0 0"/><path d="m86.578125 288.976562-2.859375-1.652343v3.304687zm0 0"/><path d="m89.4375 290.628906-2.859375-1.652344v3.300782zm0 0"/><path d="m92.296875 292.277344-2.859375-1.648438v3.300782zm0 0"/><path d="m95.15625 293.929688-2.859375-1.652344v3.304687zm0 0"/><path d="m98.015625 295.582031-2.859375-1.652343v3.300781zm0 0"/><path d="m100.875 297.230469-2.859375-1.648438v3.300781zm0 0"/><path d="m103.738281 298.882812-2.863281-1.652343v3.304687zm0 0"/><path d="m106.597656 300.535156-2.859375-1.652344v3.300782zm0 0"/><path d="m109.457031 302.183594-2.859375-1.648438v3.300782zm0 0"/><path d="m112.316406 303.835938-2.859375-1.652344v3.304687zm0 0"/><path d="m115.175781 305.488281-2.859375-1.652343v3.300781zm0 0"/><path d="m118.035156 307.136719-2.859375-1.648438v3.300781zm0 0"/><path d="m120.894531 308.789062-2.859375-1.652343v3.304687zm0 0"/><path d="m123.753906 310.441406-2.859375-1.652344v3.304688zm0 0"/><path d="m126.617188 312.09375-2.863282-1.652344v3.300782zm0 0"/><path d="m129.476562 313.742188-2.859374-1.648438v3.300781zm0 0"/><path d="m132.335938 315.394531-2.859376-1.652343v3.304687zm0 0"/><path d="m135.195312 317.046875-2.859374-1.652344v3.300781zm0 0"/><path d="m138.054688 318.695312-2.859376-1.648437v3.300781zm0 0"/><path d="m140.914062 320.347656-2.859374-1.652344v3.304688zm0 0"/><path d="m143.773438 322-2.859376-1.652344v3.300782zm0 0"/><path d="m146.632812 323.648438-2.859374-1.648438v3.300781zm0 0"/><path d="m149.496094 325.300781-2.863282-1.652343v3.304687zm0 0"/><path d="m152.355469 326.953125-2.859375-1.652344v3.304688zm0 0"/><path d="m155.214844 328.605469-2.859375-1.652344v3.300781zm0 0"/><path d="m158.074219 330.253906-2.859375-1.648437v3.300781zm0 0"/><path d="m160.933594 331.90625-2.859375-1.652344v3.304688zm0 0"/><path d="m163.792969 333.558594-2.859375-1.652344v3.300781zm0 0"/><path d="m166.652344 335.207031-2.859375-1.648437v3.300781zm0 0"/><path d="m169.515625 336.859375-2.863281-1.652344v3.304688zm0 0"/><path d="m172.375 338.511719-2.859375-1.652344v3.300781zm0 0"/><path d="m175.234375 340.160156-2.859375-1.648437v3.300781zm0 0"/><path d="m178.09375 341.8125-2.859375-1.652344v3.304688zm0 0"/><path d="m180.953125 343.464844-2.859375-1.652344v3.300781zm0 0"/><path d="m183.8125 341.8125-2.859375-1.652344v3.304688zm0 0"/><path d="m186.671875 340.160156-2.859375-1.648437v3.300781zm0 0"/><path d="m189.53125 338.511719-2.859375-1.652344v3.300781zm0 0"/><path d="m192.394531 336.859375-2.863281-1.652344v3.304688zm0 0"/><path d="m195.253906 335.207031-2.859375-1.648437v3.300781zm0 0"/><path d="m198.113281 333.558594-2.859375-1.652344v3.300781zm0 0"/><path d="m200.972656 331.90625-2.859375-1.652344v3.304688zm0 0"/><path d="m203.832031 330.253906-2.859375-1.648437v3.300781zm0 0"/><path d="m206.691406 328.605469-2.859375-1.652344v3.300781zm0 0"/><path d="m209.550781 326.953125-2.859375-1.652344v3.304688zm0 0"/><path d="m212.410156 325.300781-2.859375-1.652343v3.304687zm0 0"/><path d="m215.273438 323.648438-2.863282-1.648438v3.300781zm0 0"/><path d="m218.132812 322-2.859374-1.652344v3.300782zm0 0"/><path d="m220.992188 320.347656-2.859376-1.652344v3.304688zm0 0"/><path d="m223.851562 318.695312-2.859374-1.648437v3.300781zm0 0"/><path d="m226.710938 317.046875-2.859376-1.652344v3.300781zm0 0"/><path d="m229.570312 315.394531-2.859374-1.652343v3.304687zm0 0"/><path d="m232.429688 313.742188-2.859376-1.648438v3.300781zm0 0"/><path d="m235.289062 312.09375-2.859374-1.652344v3.300782zm0 0"/><path d="m238.152344 310.441406-2.863282-1.652344v3.304688zm0 0"/><path d="m241.011719 308.789062-2.859375-1.652343v3.304687zm0 0"/><path d="m243.871094 307.136719-2.859375-1.648438v3.300781zm0 0"/><path d="m246.730469 305.488281-2.859375-1.652343v3.300781zm0 0"/><path d="m249.589844 303.835938-2.859375-1.652344v3.304687zm0 0"/><path d="m252.449219 302.183594-2.859375-1.648438v3.300782zm0 0"/><path d="m255.308594 300.535156-2.859375-1.652344v3.300782zm0 0"/><path d="m258.171875 298.882812-2.863281-1.652343v3.304687zm0 0"/><path d="m261.03125 297.230469-2.859375-1.648438v3.300781zm0 0"/><path d="m263.890625 295.582031-2.859375-1.652343v3.300781zm0 0"/><path d="m266.75 293.929688-2.859375-1.652344v3.304687zm0 0"/><path d="m269.609375 292.277344-2.859375-1.648438v3.300782zm0 0"/><path d="m272.46875 290.628906-2.859375-1.652344v3.300782zm0 0"/><path d="m275.328125 288.976562-2.859375-1.652343v3.304687zm0 0"/><path d="m278.1875 287.324219-2.859375-1.652344v3.304687zm0 0"/><path d="m281.050781 285.671875-2.863281-1.648437v3.300781zm0 0"/><path d="m283.910156 284.023438-2.859375-1.652344v3.300781zm0 0"/><path d="m286.769531 282.371094-2.859375-1.652344v3.304688zm0 0"/><path d="m289.628906 280.71875-2.859375-1.648438v3.300782zm0 0"/><path d="m292.488281 279.070312-2.859375-1.652343v3.300781zm0 0"/><path d="m295.347656 277.417969-2.859375-1.652344v3.304687zm0 0"/><path d="m298.207031 275.765625-2.859375-1.648437v3.300781zm0 0"/><path d="m301.066406 274.117188-2.859375-1.652344v3.300781zm0 0"/><path d="m303.929688 272.464844-2.863282-1.652344v3.304688zm0 0"/><path d="m306.789062 270.8125-2.859374-1.648438v3.300782zm0 0"/><path d="m309.648438 269.164062-2.859376-1.652343v3.300781zm0 0"/><path d="m312.507812 267.511719-2.859374-1.652344v3.304687zm0 0"/><path d="m315.367188 265.859375-2.859376-1.652344v3.304688zm0 0"/><path d="m318.226562 264.207031-2.859374-1.648437v3.300781zm0 0"/><path d="m321.085938 262.558594-2.859376-1.652344v3.300781zm0 0"/></g></svg>