<svg height="360pt" viewBox="0 0 360 360" width="360pt" xmlns="http://www.w3.org/2000/svg"><path d="m0 0h360v360h-360z" fill="#800080"/><g fill="#fff"><path d="m177.402344 180 3.898437-2.25v4.5zm0 0"/><path d="m181.300781 182.25 3.894531-2.25v4.5zm0 0"/><path d="m181.300781 177.75 3.894531-2.25v4.5zm0 0"/><path d="m173.503906 177.75 3.898438-2.25v4.5zm0 0"/><path d="m177.402344 171 3.898437-2.25v4.5zm0 0"/><path d="m177.402344 166.5 3.898437-2.25v4.5zm0 0"/><path d="m165.710938 177.75 3.898437-2.25v4.5zm0 0"/><path d="m165.710938 182.25 3.898437-2.25v4.5zm0 0"/><path d="m181.300781 164.25 3.894531-2.246094v4.496094zm0 0"/><path d="m177.402344 162.003906 3.898437-2.25v4.496094zm0 0"/><path d="m173.503906 164.25 3.898438-2.246094v4.496094zm0 0"/><path d="m161.816406 175.5 3.894532-2.25v4.5zm0 0"/><path d="m161.816406 180 3.894532-2.25v4.5zm0 0"/><path d="m161.816406 184.5 3.894532-2.25v4.5zm0 0"/><path d="m169.609375 193.5 3.894531-2.25v4.5zm0 0"/><path d="m181.300781 159.753906 3.894531-2.25v4.5zm0 0"/><path d="m173.503906 159.753906 3.898438-2.25v4.5zm0 0"/><path d="m165.710938 164.25 3.898437-2.246094v4.496094zm0 0"/><path d="m157.917969 182.25 3.898437-2.25v4.5zm0 0"/><path d="m157.917969 191.25 3.898437-2.25v4.5zm0 0"/><path d="m165.710938 195.75 3.898437-2.25v4.496094zm0 0"/><path d="m177.402344 153.003906 3.898437-2.25v4.5zm0 0"/><path d="m154.023438 175.5 3.894531-2.25v4.5zm0 0"/><path d="m154.023438 184.5 3.894531-2.25v4.5zm0 0"/><path d="m154.023438 193.5 3.894531-2.25v4.5zm0 0"/><path d="m157.917969 195.75 3.898437-2.25v4.496094zm0 0"/><path d="m161.816406 197.996094 3.894532-2.246094v4.496094zm0 0"/><path d="m165.710938 200.246094 3.898437-2.25v4.5zm0 0"/><path d="m181.300781 150.753906 3.894531-2.25v4.5zm0 0"/><path d="m177.402344 148.503906 3.898437-2.25v4.5zm0 0"/><path d="m173.503906 150.753906 3.898438-2.25v4.5zm0 0"/><path d="m150.125 186.75 3.898438-2.25v4.5zm0 0"/><path d="m150.125 195.75 3.898438-2.25v4.496094zm0 0"/><path d="m154.023438 197.996094 3.894531-2.246094v4.496094zm0 0"/><path d="m157.917969 200.246094 3.898437-2.25v4.5zm0 0"/><path d="m208.574219 197.996094 3.898437-2.246094v4.496094zm0 0"/><path d="m192.988281 153.003906 3.898438-2.25v4.5zm0 0"/><path d="m185.195312 148.503906 3.898438-2.25v4.5zm0 0"/><path d="m181.300781 146.253906 3.894531-2.25v4.5zm0 0"/><path d="m177.402344 144.003906 3.898437-2.25v4.5zm0 0"/><path d="m173.503906 146.253906 3.898438-2.25v4.5zm0 0"/><path d="m169.609375 148.503906 3.894531-2.25v4.5zm0 0"/><path d="m165.710938 150.753906 3.898437-2.25v4.5zm0 0"/><path d="m146.230469 197.996094 3.894531-2.246094v4.496094zm0 0"/><path d="m157.917969 204.746094 3.898437-2.25v4.5zm0 0"/><path d="m204.679688 200.246094 3.894531-2.25v4.5zm0 0"/><path d="m212.472656 200.246094 3.894532-2.25v4.5zm0 0"/><path d="m189.09375 146.253906 3.894531-2.25v4.5zm0 0"/><path d="m177.402344 139.503906 3.898437-2.25v4.5zm0 0"/><path d="m173.503906 141.753906 3.898438-2.25v4.5zm0 0"/><path d="m169.609375 144.003906 3.894531-2.25v4.5zm0 0"/><path d="m165.710938 146.253906 3.898437-2.25v4.5zm0 0"/><path d="m142.332031 186.75 3.898438-2.25v4.5zm0 0"/><path d="m142.332031 191.25 3.898438-2.25v4.5zm0 0"/><path d="m157.917969 209.246094 3.898437-2.25v4.5zm0 0"/><path d="m161.816406 211.496094 3.894532-2.25v4.5zm0 0"/><path d="m200.78125 206.996094 3.898438-2.25v4.5zm0 0"/><path d="m208.574219 202.496094 3.898437-2.25v4.5zm0 0"/><path d="m216.367188 175.5 3.898437-2.25v4.5zm0 0"/><path d="m216.367188 166.5 3.898437-2.25v4.5zm0 0"/><path d="m192.988281 144.003906 3.898438-2.25v4.5zm0 0"/><path d="m181.300781 137.253906 3.894531-2.25v4.5zm0 0"/><path d="m177.402344 135.003906 3.898437-2.25v4.5zm0 0"/><path d="m173.503906 137.253906 3.898438-2.25v4.5zm0 0"/><path d="m169.609375 139.503906 3.894531-2.25v4.5zm0 0"/><path d="m165.710938 141.753906 3.898437-2.25v4.5zm0 0"/><path d="m161.816406 144.003906 3.894532-2.25v4.5zm0 0"/><path d="m138.4375 184.5 3.894531-2.25v4.5zm0 0"/><path d="m138.4375 189 3.894531-2.25v4.5zm0 0"/><path d="m138.4375 193.5 3.894531-2.25v4.5zm0 0"/><path d="m138.4375 202.496094 3.894531-2.25v4.5zm0 0"/><path d="m142.332031 204.746094 3.898438-2.25v4.5zm0 0"/><path d="m154.023438 211.496094 3.894531-2.25v4.5zm0 0"/><path d="m200.78125 211.496094 3.898438-2.25v4.5zm0 0"/><path d="m220.265625 204.746094 3.898437-2.25v4.5zm0 0"/><path d="m220.265625 173.25 3.898437-2.25v4.5zm0 0"/><path d="m220.265625 168.75 3.898437-2.25v4.5zm0 0"/><path d="m220.265625 164.25 3.898437-2.246094v4.496094zm0 0"/><path d="m200.78125 144.003906 3.898438-2.25v4.5zm0 0"/><path d="m196.886719 141.753906 3.894531-2.25v4.5zm0 0"/><path d="m192.988281 139.503906 3.898438-2.25v4.5zm0 0"/><path d="m185.195312 135.003906 3.898438-2.25v4.5zm0 0"/><path d="m181.300781 132.753906 3.894531-2.25v4.5zm0 0"/><path d="m161.816406 139.503906 3.894532-2.25v4.5zm0 0"/><path d="m157.917969 141.753906 3.898437-2.25v4.5zm0 0"/><path d="m134.539062 177.75 3.898438-2.25v4.5zm0 0"/><path d="m134.539062 191.25 3.898438-2.25v4.5zm0 0"/><path d="m134.539062 200.246094 3.898438-2.25v4.5zm0 0"/><path d="m142.332031 209.246094 3.898438-2.25v4.5zm0 0"/><path d="m150.125 213.746094 3.898438-2.25v4.5zm0 0"/><path d="m196.886719 218.246094 3.894531-2.25v4.5zm0 0"/><path d="m208.574219 211.496094 3.898437-2.25v4.5zm0 0"/><path d="m212.472656 209.246094 3.894532-2.25v4.5zm0 0"/><path d="m216.367188 206.996094 3.898437-2.25v4.5zm0 0"/><path d="m224.164062 202.496094 3.894532-2.25v4.5zm0 0"/><path d="m224.164062 197.996094 3.894532-2.246094v4.496094zm0 0"/><path d="m224.164062 171 3.894532-2.25v4.5zm0 0"/><path d="m224.164062 166.5 3.894532-2.25v4.5zm0 0"/><path d="m224.164062 162.003906 3.894532-2.25v4.496094zm0 0"/><path d="m224.164062 157.503906 3.894532-2.25v4.5zm0 0"/><path d="m224.164062 153.003906 3.894532-2.25v4.5zm0 0"/><path d="m196.886719 137.253906 3.894531-2.25v4.5zm0 0"/><path d="m161.816406 135.003906 3.894532-2.25v4.5zm0 0"/><path d="m157.917969 137.253906 3.898437-2.25v4.5zm0 0"/><path d="m130.640625 175.5 3.898437-2.25v4.5zm0 0"/><path d="m130.640625 180 3.898437-2.25v4.5zm0 0"/><path d="m130.640625 193.5 3.898437-2.25v4.5zm0 0"/><path d="m150.125 218.246094 3.898438-2.25v4.5zm0 0"/><path d="m181.300781 231.742188 3.894531-2.246094v4.496094zm0 0"/><path d="m189.09375 227.246094 3.894531-2.25v4.5zm0 0"/><path d="m192.988281 224.996094 3.898438-2.25v4.5zm0 0"/><path d="m208.574219 215.996094 3.898437-2.25v4.5zm0 0"/><path d="m220.265625 209.246094 3.898437-2.25v4.5zm0 0"/><path d="m228.058594 195.75 3.898437-2.25v4.496094zm0 0"/><path d="m228.058594 191.25 3.898437-2.25v4.5zm0 0"/><path d="m228.058594 173.25 3.898437-2.25v4.5zm0 0"/><path d="m228.058594 168.75 3.898437-2.25v4.5zm0 0"/><path d="m228.058594 150.753906 3.898437-2.25v4.5zm0 0"/><path d="m224.164062 148.503906 3.894532-2.25v4.5zm0 0"/><path d="m212.472656 141.753906 3.894532-2.25v4.5zm0 0"/><path d="m208.574219 139.503906 3.898437-2.25v4.5zm0 0"/><path d="m200.78125 135.003906 3.898438-2.25v4.5zm0 0"/><path d="m196.886719 132.753906 3.894531-2.25v4.5zm0 0"/><path d="m192.988281 130.503906 3.898438-2.246094v4.496094zm0 0"/><path d="m185.195312 126.007812 3.898438-2.25v4.5zm0 0"/><path d="m173.503906 123.757812 3.898438-2.25v4.5zm0 0"/><path d="m169.609375 126.007812 3.894531-2.25v4.5zm0 0"/><path d="m161.816406 130.503906 3.894532-2.246094v4.496094zm0 0"/><path d="m157.917969 132.753906 3.898437-2.25v4.5zm0 0"/><path d="m154.023438 135.003906 3.894531-2.25v4.5zm0 0"/><path d="m126.746094 200.246094 3.894531-2.25v4.5zm0 0"/><path d="m185.195312 233.992188 3.898438-2.25v4.5zm0 0"/><path d="m196.886719 227.246094 3.894531-2.25v4.5zm0 0"/><path d="m200.78125 224.996094 3.898438-2.25v4.5zm0 0"/><path d="m220.265625 213.746094 3.898437-2.25v4.5zm0 0"/><path d="m224.164062 211.496094 3.894532-2.25v4.5zm0 0"/><path d="m231.957031 202.496094 3.894531-2.25v4.5zm0 0"/><path d="m231.957031 189 3.894531-2.25v4.5zm0 0"/><path d="m231.957031 180 3.894531-2.25v4.5zm0 0"/><path d="m231.957031 175.5 3.894531-2.25v4.5zm0 0"/><path d="m231.957031 171 3.894531-2.25v4.5zm0 0"/><path d="m231.957031 166.5 3.894531-2.25v4.5zm0 0"/><path d="m231.957031 162.003906 3.894531-2.25v4.496094zm0 0"/><path d="m231.957031 148.503906 3.894531-2.25v4.5zm0 0"/><path d="m204.679688 132.753906 3.894531-2.25v4.5zm0 0"/><path d="m200.78125 130.503906 3.898438-2.246094v4.496094zm0 0"/><path d="m196.886719 128.257812 3.894531-2.25v4.496094zm0 0"/><path d="m192.988281 126.007812 3.898438-2.25v4.5zm0 0"/><path d="m189.09375 123.757812 3.894531-2.25v4.5zm0 0"/><path d="m181.300781 119.257812 3.894531-2.25v4.5zm0 0"/><path d="m177.402344 117.007812 3.898437-2.25v4.5zm0 0"/><path d="m173.503906 119.257812 3.898438-2.25v4.5zm0 0"/><path d="m165.710938 123.757812 3.898437-2.25v4.5zm0 0"/><path d="m157.917969 128.257812 3.898437-2.25v4.496094zm0 0"/><path d="m122.847656 184.5 3.898438-2.25v4.5zm0 0"/><path d="m122.847656 193.5 3.898438-2.25v4.5zm0 0"/><path d="m220.265625 218.246094 3.898437-2.25v4.5zm0 0"/><path d="m235.851562 213.746094 3.898438-2.25v4.5zm0 0"/><path d="m235.851562 204.746094 3.898438-2.25v4.5zm0 0"/><path d="m235.851562 191.25 3.898438-2.25v4.5zm0 0"/><path d="m235.851562 186.75 3.898438-2.25v4.5zm0 0"/><path d="m235.851562 182.25 3.898438-2.25v4.5zm0 0"/><path d="m235.851562 177.75 3.898438-2.25v4.5zm0 0"/><path d="m235.851562 173.25 3.898438-2.25v4.5zm0 0"/><path d="m235.851562 146.253906 3.898438-2.25v4.5zm0 0"/><path d="m231.957031 144.003906 3.894531-2.25v4.5zm0 0"/><path d="m224.164062 139.503906 3.894532-2.25v4.5zm0 0"/><path d="m212.472656 132.753906 3.894532-2.25v4.5zm0 0"/><path d="m208.574219 130.503906 3.898437-2.246094v4.496094zm0 0"/><path d="m204.679688 128.257812 3.894531-2.25v4.496094zm0 0"/><path d="m200.78125 126.007812 3.898438-2.25v4.5zm0 0"/><path d="m196.886719 123.757812 3.894531-2.25v4.5zm0 0"/><path d="m192.988281 121.507812 3.898438-2.25v4.5zm0 0"/><path d="m189.09375 119.257812 3.894531-2.25v4.5zm0 0"/><path d="m185.195312 117.007812 3.898438-2.25v4.5zm0 0"/><path d="m169.609375 117.007812 3.894531-2.25v4.5zm0 0"/><path d="m165.710938 119.257812 3.898437-2.25v4.5zm0 0"/><path d="m200.78125 233.992188 3.898438-2.25v4.5zm0 0"/><path d="m228.058594 218.246094 3.898437-2.25v4.5zm0 0"/><path d="m231.957031 215.996094 3.894531-2.25v4.5zm0 0"/><path d="m239.75 215.996094 3.894531-2.25v4.5zm0 0"/><path d="m239.75 211.496094 3.894531-2.25v4.5zm0 0"/><path d="m239.75 206.996094 3.894531-2.25v4.5zm0 0"/><path d="m239.75 202.496094 3.894531-2.25v4.5zm0 0"/><path d="m239.75 184.5 3.894531-2.25v4.5zm0 0"/><path d="m239.75 180 3.894531-2.25v4.5zm0 0"/><path d="m239.75 175.5 3.894531-2.25v4.5zm0 0"/><path d="m239.75 171 3.894531-2.25v4.5zm0 0"/><path d="m239.75 166.5 3.894531-2.25v4.5zm0 0"/><path d="m235.851562 141.753906 3.898438-2.25v4.5zm0 0"/><path d="m231.957031 139.503906 3.894531-2.25v4.5zm0 0"/><path d="m216.367188 130.503906 3.898437-2.246094v4.496094zm0 0"/><path d="m212.472656 128.257812 3.894532-2.25v4.496094zm0 0"/><path d="m208.574219 126.007812 3.898437-2.25v4.5zm0 0"/><path d="m204.679688 123.757812 3.894531-2.25v4.5zm0 0"/><path d="m200.78125 121.507812 3.898438-2.25v4.5zm0 0"/><path d="m196.886719 119.257812 3.894531-2.25v4.5zm0 0"/><path d="m192.988281 117.007812 3.898438-2.25v4.5zm0 0"/><path d="m243.644531 209.246094 3.898438-2.25v4.5zm0 0"/><path d="m243.644531 204.746094 3.898438-2.25v4.5zm0 0"/><path d="m243.644531 200.246094 3.898438-2.25v4.5zm0 0"/><path d="m243.644531 191.25 3.898438-2.25v4.5zm0 0"/><path d="m243.644531 186.75 3.898438-2.25v4.5zm0 0"/><path d="m243.644531 182.25 3.898438-2.25v4.5zm0 0"/><path d="m243.644531 177.75 3.898438-2.25v4.5zm0 0"/><path d="m243.644531 173.25 3.898438-2.25v4.5zm0 0"/><path d="m231.957031 135.003906 3.894531-2.25v4.5zm0 0"/><path d="m216.367188 126.007812 3.898437-2.25v4.5zm0 0"/><path d="m212.472656 123.757812 3.894532-2.25v4.5zm0 0"/><path d="m204.679688 119.257812 3.894531-2.25v4.5zm0 0"/><path d="m200.78125 117.007812 3.898438-2.25v4.5zm0 0"/><path d="m196.886719 114.757812 3.894531-2.25v4.5zm0 0"/><path d="m192.988281 112.507812 3.898438-2.25v4.5zm0 0"/><path d="m231.957031 224.996094 3.894531-2.25v4.5zm0 0"/><path d="m235.851562 222.746094 3.898438-2.25v4.5zm0 0"/><path d="m247.542969 211.496094 3.894531-2.25v4.5zm0 0"/><path d="m247.542969 202.496094 3.894531-2.25v4.5zm0 0"/><path d="m247.542969 193.5 3.894531-2.25v4.5zm0 0"/><path d="m247.542969 189 3.894531-2.25v4.5zm0 0"/><path d="m247.542969 184.5 3.894531-2.25v4.5zm0 0"/><path d="m247.542969 180 3.894531-2.25v4.5zm0 0"/><path d="m247.542969 175.5 3.894531-2.25v4.5zm0 0"/><path d="m247.542969 171 3.894531-2.25v4.5zm0 0"/><path d="m247.542969 166.5 3.894531-2.25v4.5zm0 0"/><path d="m247.542969 157.503906 3.894531-2.25v4.5zm0 0"/><path d="m247.542969 153.003906 3.894531-2.25v4.5zm0 0"/><path d="m247.542969 148.503906 3.894531-2.25v4.5zm0 0"/><path d="m247.542969 144.003906 3.894531-2.25v4.5zm0 0"/><path d="m228.058594 128.257812 3.898437-2.25v4.496094zm0 0"/><path d="m251.4375 218.246094 3.898438-2.25v4.5zm0 0"/><path d="m251.4375 213.746094 3.898438-2.25v4.5zm0 0"/><path d="m251.4375 209.246094 3.898438-2.25v4.5zm0 0"/><path d="m251.4375 200.246094 3.898438-2.25v4.5zm0 0"/><path d="m251.4375 195.75 3.898438-2.25v4.496094zm0 0"/><path d="m251.4375 191.25 3.898438-2.25v4.5zm0 0"/><path d="m251.4375 186.75 3.898438-2.25v4.5zm0 0"/><path d="m251.4375 182.25 3.898438-2.25v4.5zm0 0"/><path d="m251.4375 177.75 3.898438-2.25v4.5zm0 0"/><path d="m251.4375 173.25 3.898438-2.25v4.5zm0 0"/><path d="m251.4375 159.753906 3.898438-2.25v4.5zm0 0"/><path d="m251.4375 141.753906 3.898438-2.25v4.5zm0 0"/><path d="m251.4375 137.253906 3.898438-2.25v4.5zm0 0"/><path d="m247.542969 135.003906 3.894531-2.25v4.5zm0 0"/><path d="m224.164062 121.507812 3.894532-2.25v4.5zm0 0"/><path d="m220.265625 119.257812 3.898437-2.25v4.5zm0 0"/><path d="m216.367188 117.007812 3.898437-2.25v4.5zm0 0"/><path d="m255.335938 206.996094 3.894531-2.25v4.5zm0 0"/><path d="m255.335938 197.996094 3.894531-2.246094v4.496094zm0 0"/><path d="m255.335938 193.5 3.894531-2.25v4.5zm0 0"/><path d="m255.335938 189 3.894531-2.25v4.5zm0 0"/><path d="m255.335938 184.5 3.894531-2.25v4.5zm0 0"/><path d="m255.335938 180 3.894531-2.25v4.5zm0 0"/><path d="m255.335938 175.5 3.894531-2.25v4.5zm0 0"/><path d="m255.335938 171 3.894531-2.25v4.5zm0 0"/><path d="m255.335938 162.003906 3.894531-2.25v4.496094zm0 0"/><path d="m255.335938 157.503906 3.894531-2.25v4.5zm0 0"/><path d="m255.335938 153.003906 3.894531-2.25v4.5zm0 0"/><path d="m255.335938 148.503906 3.894531-2.25v4.5zm0 0"/><path d="m255.335938 139.503906 3.894531-2.25v4.5zm0 0"/><path d="m251.4375 132.753906 3.898438-2.25v4.5zm0 0"/><path d="m247.542969 130.503906 3.894531-2.246094v4.496094zm0 0"/><path d="m239.75 126.007812 3.894531-2.25v4.5zm0 0"/><path d="m228.058594 119.257812 3.898437-2.25v4.5zm0 0"/><path d="m224.164062 117.007812 3.894532-2.25v4.5zm0 0"/><path d="m220.265625 114.757812 3.898437-2.25v4.5zm0 0"/><path d="m216.367188 112.507812 3.898437-2.25v4.5zm0 0"/><path d="m259.230469 204.746094 3.898437-2.25v4.5zm0 0"/><path d="m259.230469 200.246094 3.898437-2.25v4.5zm0 0"/><path d="m259.230469 186.75 3.898437-2.25v4.5zm0 0"/><path d="m259.230469 182.25 3.898437-2.25v4.5zm0 0"/><path d="m259.230469 177.75 3.898437-2.25v4.5zm0 0"/><path d="m259.230469 173.25 3.898437-2.25v4.5zm0 0"/><path d="m259.230469 168.75 3.898437-2.25v4.5zm0 0"/><path d="m259.230469 164.25 3.898437-2.246094v4.496094zm0 0"/><path d="m259.230469 159.753906 3.898437-2.25v4.5zm0 0"/><path d="m259.230469 155.253906 3.898437-2.25v4.5zm0 0"/><path d="m259.230469 141.753906 3.898437-2.25v4.5zm0 0"/><path d="m259.230469 132.753906 3.898437-2.25v4.5zm0 0"/><path d="m228.058594 114.757812 3.898437-2.25v4.5zm0 0"/><path d="m224.164062 112.507812 3.894532-2.25v4.5zm0 0"/><path d="m263.128906 215.996094 3.898438-2.25v4.5zm0 0"/><path d="m263.128906 202.496094 3.898438-2.25v4.5zm0 0"/><path d="m263.128906 197.996094 3.898438-2.246094v4.496094zm0 0"/><path d="m263.128906 193.5 3.898438-2.25v4.5zm0 0"/><path d="m263.128906 184.5 3.898438-2.25v4.5zm0 0"/><path d="m263.128906 180 3.898438-2.25v4.5zm0 0"/><path d="m263.128906 175.5 3.898438-2.25v4.5zm0 0"/><path d="m263.128906 171 3.898438-2.25v4.5zm0 0"/><path d="m263.128906 166.5 3.898438-2.25v4.5zm0 0"/><path d="m263.128906 162.003906 3.898438-2.25v4.496094zm0 0"/><path d="m263.128906 157.503906 3.898438-2.25v4.5zm0 0"/><path d="m263.128906 144.003906 3.898438-2.25v4.5zm0 0"/><path d="m263.128906 139.503906 3.898438-2.25v4.5zm0 0"/><path d="m247.542969 121.507812 3.894531-2.25v4.5zm0 0"/><path d="m231.957031 112.507812 3.894531-2.25v4.5zm0 0"/><path d="m228.058594 110.257812 3.898437-2.25v4.5zm0 0"/><path d="m220.265625 105.757812 3.898437-2.25v4.5zm0 0"/><path d="m267.027344 218.246094 3.894531-2.25v4.5zm0 0"/><path d="m267.027344 213.746094 3.894531-2.25v4.5zm0 0"/><path d="m267.027344 195.75 3.894531-2.25v4.496094zm0 0"/><path d="m267.027344 191.25 3.894531-2.25v4.5zm0 0"/><path d="m267.027344 186.75 3.894531-2.25v4.5zm0 0"/><path d="m267.027344 182.25 3.894531-2.25v4.5zm0 0"/><path d="m267.027344 177.75 3.894531-2.25v4.5zm0 0"/><path d="m267.027344 173.25 3.894531-2.25v4.5zm0 0"/><path d="m267.027344 168.75 3.894531-2.25v4.5zm0 0"/><path d="m267.027344 164.25 3.894531-2.246094v4.496094zm0 0"/><path d="m267.027344 155.253906 3.894531-2.25v4.5zm0 0"/><path d="m267.027344 150.753906 3.894531-2.25v4.5zm0 0"/><path d="m239.75 112.507812 3.894531-2.25v4.5zm0 0"/><path d="m231.957031 108.007812 3.894531-2.25v4.5zm0 0"/><path d="m228.058594 105.757812 3.898437-2.25v4.5zm0 0"/><path d="m270.921875 220.496094 3.898437-2.25v4.5zm0 0"/><path d="m270.921875 197.996094 3.898437-2.246094v4.496094zm0 0"/><path d="m270.921875 193.5 3.898437-2.25v4.5zm0 0"/><path d="m270.921875 189 3.898437-2.25v4.5zm0 0"/><path d="m270.921875 184.5 3.898437-2.25v4.5zm0 0"/><path d="m270.921875 180 3.898437-2.25v4.5zm0 0"/><path d="m270.921875 171 3.898437-2.25v4.5zm0 0"/><path d="m270.921875 162.003906 3.898437-2.25v4.496094zm0 0"/><path d="m270.921875 157.503906 3.898437-2.25v4.5zm0 0"/><path d="m270.921875 153.003906 3.898437-2.25v4.5zm0 0"/><path d="m270.921875 148.503906 3.898437-2.25v4.5zm0 0"/><path d="m251.4375 114.757812 3.898438-2.25v4.5zm0 0"/><path d="m239.75 108.007812 3.894531-2.25v4.5zm0 0"/><path d="m231.957031 103.507812 3.894531-2.25v4.5zm0 0"/><path d="m224.164062 99.007812 3.894532-2.25v4.5zm0 0"/><path d="m274.820312 204.746094 3.894532-2.25v4.5zm0 0"/><path d="m274.820312 195.75 3.894532-2.25v4.496094zm0 0"/><path d="m274.820312 191.25 3.894532-2.25v4.5zm0 0"/><path d="m274.820312 186.75 3.894532-2.25v4.5zm0 0"/><path d="m274.820312 182.25 3.894532-2.25v4.5zm0 0"/><path d="m274.820312 177.75 3.894532-2.25v4.5zm0 0"/><path d="m274.820312 168.75 3.894532-2.25v4.5zm0 0"/><path d="m274.820312 150.753906 3.894532-2.25v4.5zm0 0"/><path d="m274.820312 146.253906 3.894532-2.25v4.5zm0 0"/><path d="m255.335938 112.507812 3.894531-2.25v4.5zm0 0"/><path d="m251.4375 110.257812 3.898438-2.25v4.5zm0 0"/><path d="m228.058594 96.757812 3.898437-2.246093v4.496093zm0 0"/><path d="m278.714844 202.496094 3.898437-2.25v4.5zm0 0"/><path d="m278.714844 193.5 3.898437-2.25v4.5zm0 0"/><path d="m278.714844 184.5 3.898437-2.25v4.5zm0 0"/><path d="m278.714844 180 3.898437-2.25v4.5zm0 0"/><path d="m278.714844 175.5 3.898437-2.25v4.5zm0 0"/><path d="m255.335938 108.007812 3.894531-2.25v4.5zm0 0"/><path d="m231.957031 94.511719 3.894531-2.25v4.496093zm0 0"/><path d="m228.058594 92.261719 3.898437-2.25v4.5zm0 0"/><path d="m282.613281 195.75 3.894531-2.25v4.496094zm0 0"/><path d="m282.613281 191.25 3.894531-2.25v4.5zm0 0"/><path d="m282.613281 177.75 3.894531-2.25v4.5zm0 0"/><path d="m231.957031 90.011719 3.894531-2.25v4.5zm0 0"/><path d="m235.851562 87.761719 3.898438-2.25v4.5zm0 0"/><path d="m298.199219 213.746094 3.894531-2.25v4.5zm0 0"/><path d="m302.09375 215.996094 3.898438-2.25v4.5zm0 0"/><path d="m302.09375 206.996094 3.898438-2.25v4.5zm0 0"/><path d="m305.992188 218.246094 3.898437-2.25v4.5zm0 0"/><path d="m305.992188 213.746094 3.898437-2.25v4.5zm0 0"/><path d="m305.992188 209.246094 3.898437-2.25v4.5zm0 0"/><path d="m309.890625 211.496094 3.894531-2.25v4.5zm0 0"/><path d="m309.890625 202.496094 3.894531-2.25v4.5zm0 0"/><path d="m313.785156 227.246094 3.898438-2.25v4.5zm0 0"/><path d="m313.785156 222.746094 3.898438-2.25v4.5zm0 0"/><path d="m313.785156 213.746094 3.898438-2.25v4.5zm0 0"/><path d="m181.300781 182.25-3.898437-2.25v4.5zm0 0"/><path d="m189.09375 177.75-3.898438-2.25v4.5zm0 0"/><path d="m185.195312 175.5-3.894531-2.25v4.5zm0 0"/><path d="m177.402344 175.5-3.898438-2.25v4.5zm0 0"/><path d="m177.402344 180-3.898438-2.25v4.5zm0 0"/><path d="m177.402344 184.5-3.898438-2.25v4.5zm0 0"/><path d="m185.195312 184.5-3.894531-2.25v4.5zm0 0"/><path d="m192.988281 184.5-3.894531-2.25v4.5zm0 0"/><path d="m192.988281 180-3.894531-2.25v4.5zm0 0"/><path d="m192.988281 175.5-3.894531-2.25v4.5zm0 0"/><path d="m189.09375 173.25-3.898438-2.25v4.5zm0 0"/><path d="m185.195312 171-3.894531-2.25v4.5zm0 0"/><path d="m181.300781 168.75-3.898437-2.25v4.5zm0 0"/><path d="m177.402344 171-3.898438-2.25v4.5zm0 0"/><path d="m173.503906 186.75-3.894531-2.25v4.5zm0 0"/><path d="m185.195312 189-3.894531-2.25v4.5zm0 0"/><path d="m189.09375 186.75-3.898438-2.25v4.5zm0 0"/><path d="m196.886719 186.75-3.898438-2.25v4.5zm0 0"/><path d="m196.886719 182.25-3.898438-2.25v4.5zm0 0"/><path d="m196.886719 177.75-3.898438-2.25v4.5zm0 0"/><path d="m196.886719 173.25-3.898438-2.25v4.5zm0 0"/><path d="m192.988281 171-3.894531-2.25v4.5zm0 0"/><path d="m181.300781 164.25-3.898437-2.246094v4.496094zm0 0"/><path d="m177.402344 166.5-3.898438-2.25v4.5zm0 0"/><path d="m169.609375 184.5-3.898437-2.25v4.5zm0 0"/><path d="m169.609375 189-3.898437-2.25v4.5zm0 0"/><path d="m185.195312 193.5-3.894531-2.25v4.5zm0 0"/><path d="m189.09375 191.25-3.898438-2.25v4.5zm0 0"/><path d="m192.988281 189-3.894531-2.25v4.5zm0 0"/><path d="m200.78125 189-3.894531-2.25v4.5zm0 0"/><path d="m200.78125 184.5-3.894531-2.25v4.5zm0 0"/><path d="m200.78125 180-3.894531-2.25v4.5zm0 0"/><path d="m200.78125 175.5-3.894531-2.25v4.5zm0 0"/><path d="m200.78125 171-3.894531-2.25v4.5zm0 0"/><path d="m196.886719 168.75-3.898438-2.25v4.5zm0 0"/><path d="m192.988281 166.5-3.894531-2.25v4.5zm0 0"/><path d="m189.09375 164.25-3.898438-2.246094v4.496094zm0 0"/><path d="m185.195312 162.003906-3.894531-2.25v4.496094zm0 0"/><path d="m177.402344 162.003906-3.898438-2.25v4.496094zm0 0"/><path d="m173.503906 164.25-3.894531-2.246094v4.496094zm0 0"/><path d="m169.609375 166.5-3.898437-2.25v4.5zm0 0"/><path d="m165.710938 186.75-3.894532-2.25v4.5zm0 0"/><path d="m169.609375 193.5-3.898437-2.25v4.5zm0 0"/><path d="m173.503906 195.75-3.894531-2.25v4.496094zm0 0"/><path d="m181.300781 200.246094-3.898437-2.25v4.5zm0 0"/><path d="m185.195312 197.996094-3.894531-2.246094v4.496094zm0 0"/><path d="m189.09375 195.75-3.898438-2.25v4.496094zm0 0"/><path d="m192.988281 193.5-3.894531-2.25v4.5zm0 0"/><path d="m196.886719 191.25-3.898438-2.25v4.5zm0 0"/><path d="m204.679688 191.25-3.898438-2.25v4.5zm0 0"/><path d="m204.679688 186.75-3.898438-2.25v4.5zm0 0"/><path d="m204.679688 182.25-3.898438-2.25v4.5zm0 0"/><path d="m204.679688 177.75-3.898438-2.25v4.5zm0 0"/><path d="m204.679688 173.25-3.898438-2.25v4.5zm0 0"/><path d="m204.679688 168.75-3.898438-2.25v4.5zm0 0"/><path d="m200.78125 166.5-3.894531-2.25v4.5zm0 0"/><path d="m196.886719 164.25-3.898438-2.246094v4.496094zm0 0"/><path d="m192.988281 162.003906-3.894531-2.25v4.496094zm0 0"/><path d="m185.195312 157.503906-3.894531-2.25v4.5zm0 0"/><path d="m177.402344 157.503906-3.898438-2.25v4.5zm0 0"/><path d="m169.609375 162.003906-3.898437-2.25v4.496094zm0 0"/><path d="m165.710938 164.25-3.894532-2.246094v4.496094zm0 0"/><path d="m161.816406 184.5-3.898437-2.25v4.5zm0 0"/><path d="m165.710938 195.75-3.894532-2.25v4.496094zm0 0"/><path d="m169.609375 197.996094-3.898437-2.246094v4.496094zm0 0"/><path d="m173.503906 200.246094-3.894531-2.25v4.5zm0 0"/><path d="m177.402344 202.496094-3.898438-2.25v4.5zm0 0"/><path d="m181.300781 204.746094-3.898437-2.25v4.5zm0 0"/><path d="m185.195312 202.496094-3.894531-2.25v4.5zm0 0"/><path d="m189.09375 200.246094-3.898438-2.25v4.5zm0 0"/><path d="m192.988281 197.996094-3.894531-2.246094v4.496094zm0 0"/><path d="m196.886719 195.75-3.898438-2.25v4.496094zm0 0"/><path d="m200.78125 193.5-3.894531-2.25v4.5zm0 0"/><path d="m208.574219 193.5-3.894531-2.25v4.5zm0 0"/><path d="m208.574219 189-3.894531-2.25v4.5zm0 0"/><path d="m208.574219 184.5-3.894531-2.25v4.5zm0 0"/><path d="m208.574219 180-3.894531-2.25v4.5zm0 0"/><path d="m208.574219 175.5-3.894531-2.25v4.5zm0 0"/><path d="m208.574219 171-3.894531-2.25v4.5zm0 0"/><path d="m208.574219 166.5-3.894531-2.25v4.5zm0 0"/><path d="m204.679688 164.25-3.898438-2.246094v4.496094zm0 0"/><path d="m200.78125 162.003906-3.894531-2.25v4.496094zm0 0"/><path d="m196.886719 159.753906-3.898438-2.25v4.5zm0 0"/><path d="m192.988281 157.503906-3.894531-2.25v4.5zm0 0"/><path d="m189.09375 155.253906-3.898438-2.25v4.5zm0 0"/><path d="m169.609375 157.503906-3.898437-2.25v4.5zm0 0"/><path d="m157.917969 182.25-3.894531-2.25v4.5zm0 0"/><path d="m161.816406 197.996094-3.898437-2.246094v4.496094zm0 0"/><path d="m165.710938 200.246094-3.894532-2.25v4.5zm0 0"/><path d="m169.609375 202.496094-3.898437-2.25v4.5zm0 0"/><path d="m173.503906 204.746094-3.894531-2.25v4.5zm0 0"/><path d="m177.402344 206.996094-3.898438-2.25v4.5zm0 0"/><path d="m181.300781 209.246094-3.898437-2.25v4.5zm0 0"/><path d="m185.195312 206.996094-3.894531-2.25v4.5zm0 0"/><path d="m189.09375 204.746094-3.898438-2.25v4.5zm0 0"/><path d="m192.988281 202.496094-3.894531-2.25v4.5zm0 0"/><path d="m196.886719 200.246094-3.898438-2.25v4.5zm0 0"/><path d="m200.78125 197.996094-3.894531-2.246094v4.496094zm0 0"/><path d="m204.679688 195.75-3.898438-2.25v4.496094zm0 0"/><path d="m212.472656 195.75-3.898437-2.25v4.496094zm0 0"/><path d="m212.472656 191.25-3.898437-2.25v4.5zm0 0"/><path d="m212.472656 186.75-3.898437-2.25v4.5zm0 0"/><path d="m212.472656 182.25-3.898437-2.25v4.5zm0 0"/><path d="m212.472656 177.75-3.898437-2.25v4.5zm0 0"/><path d="m212.472656 173.25-3.898437-2.25v4.5zm0 0"/><path d="m212.472656 168.75-3.898437-2.25v4.5zm0 0"/><path d="m212.472656 164.25-3.898437-2.246094v4.496094zm0 0"/><path d="m208.574219 162.003906-3.894531-2.25v4.496094zm0 0"/><path d="m204.679688 159.753906-3.898438-2.25v4.5zm0 0"/><path d="m200.78125 157.503906-3.894531-2.25v4.5zm0 0"/><path d="m189.09375 150.753906-3.898438-2.25v4.5zm0 0"/><path d="m185.195312 148.503906-3.894531-2.25v4.5zm0 0"/><path d="m177.402344 148.503906-3.898438-2.25v4.5zm0 0"/><path d="m169.609375 153.003906-3.898437-2.25v4.5zm0 0"/><path d="m154.023438 180-3.898438-2.25v4.5zm0 0"/><path d="m165.710938 204.746094-3.894532-2.25v4.5zm0 0"/><path d="m169.609375 206.996094-3.898437-2.25v4.5zm0 0"/><path d="m173.503906 209.246094-3.894531-2.25v4.5zm0 0"/><path d="m177.402344 211.496094-3.898438-2.25v4.5zm0 0"/><path d="m181.300781 213.746094-3.898437-2.25v4.5zm0 0"/><path d="m185.195312 211.496094-3.894531-2.25v4.5zm0 0"/><path d="m189.09375 209.246094-3.898438-2.25v4.5zm0 0"/><path d="m192.988281 206.996094-3.894531-2.25v4.5zm0 0"/><path d="m200.78125 202.496094-3.894531-2.25v4.5zm0 0"/><path d="m204.679688 200.246094-3.898438-2.25v4.5zm0 0"/><path d="m216.367188 197.996094-3.894532-2.246094v4.496094zm0 0"/><path d="m216.367188 193.5-3.894532-2.25v4.5zm0 0"/><path d="m216.367188 189-3.894532-2.25v4.5zm0 0"/><path d="m216.367188 184.5-3.894532-2.25v4.5zm0 0"/><path d="m216.367188 180-3.894532-2.25v4.5zm0 0"/><path d="m216.367188 175.5-3.894532-2.25v4.5zm0 0"/><path d="m216.367188 171-3.894532-2.25v4.5zm0 0"/><path d="m216.367188 166.5-3.894532-2.25v4.5zm0 0"/><path d="m216.367188 162.003906-3.894532-2.25v4.496094zm0 0"/><path d="m212.472656 159.753906-3.898437-2.25v4.5zm0 0"/><path d="m208.574219 157.503906-3.894531-2.25v4.5zm0 0"/><path d="m204.679688 155.253906-3.898438-2.25v4.5zm0 0"/><path d="m200.78125 153.003906-3.894531-2.25v4.5zm0 0"/><path d="m192.988281 148.503906-3.894531-2.25v4.5zm0 0"/><path d="m189.09375 146.253906-3.898438-2.25v4.5zm0 0"/><path d="m185.195312 144.003906-3.894531-2.25v4.5zm0 0"/><path d="m181.300781 141.753906-3.898437-2.25v4.5zm0 0"/><path d="m177.402344 144.003906-3.898438-2.25v4.5zm0 0"/><path d="m169.609375 148.503906-3.898437-2.25v4.5zm0 0"/><path d="m165.710938 150.753906-3.894532-2.25v4.5zm0 0"/><path d="m150.125 177.75-3.894531-2.25v4.5zm0 0"/><path d="m150.125 182.25-3.894531-2.25v4.5zm0 0"/><path d="m150.125 186.75-3.894531-2.25v4.5zm0 0"/><path d="m150.125 191.25-3.894531-2.25v4.5zm0 0"/><path d="m150.125 200.246094-3.894531-2.25v4.5zm0 0"/><path d="m165.710938 209.246094-3.894532-2.25v4.5zm0 0"/><path d="m169.609375 211.496094-3.898437-2.25v4.5zm0 0"/><path d="m173.503906 213.746094-3.894531-2.25v4.5zm0 0"/><path d="m177.402344 215.996094-3.898438-2.25v4.5zm0 0"/><path d="m181.300781 218.246094-3.898437-2.25v4.5zm0 0"/><path d="m185.195312 215.996094-3.894531-2.25v4.5zm0 0"/><path d="m189.09375 213.746094-3.898438-2.25v4.5zm0 0"/><path d="m192.988281 211.496094-3.894531-2.25v4.5zm0 0"/><path d="m196.886719 209.246094-3.898438-2.25v4.5zm0 0"/><path d="m200.78125 206.996094-3.894531-2.25v4.5zm0 0"/><path d="m204.679688 204.746094-3.898438-2.25v4.5zm0 0"/><path d="m212.472656 200.246094-3.898437-2.25v4.5zm0 0"/><path d="m220.265625 200.246094-3.898437-2.25v4.5zm0 0"/><path d="m220.265625 195.75-3.898437-2.25v4.496094zm0 0"/><path d="m220.265625 191.25-3.898437-2.25v4.5zm0 0"/><path d="m220.265625 177.75-3.898437-2.25v4.5zm0 0"/><path d="m220.265625 168.75-3.898437-2.25v4.5zm0 0"/><path d="m220.265625 164.25-3.898437-2.246094v4.496094zm0 0"/><path d="m220.265625 159.753906-3.898437-2.25v4.5zm0 0"/><path d="m216.367188 157.503906-3.894532-2.25v4.5zm0 0"/><path d="m212.472656 155.253906-3.898437-2.25v4.5zm0 0"/><path d="m208.574219 153.003906-3.894531-2.25v4.5zm0 0"/><path d="m196.886719 146.253906-3.898438-2.25v4.5zm0 0"/><path d="m192.988281 144.003906-3.894531-2.25v4.5zm0 0"/><path d="m189.09375 141.753906-3.898438-2.25v4.5zm0 0"/><path d="m185.195312 139.503906-3.894531-2.25v4.5zm0 0"/><path d="m181.300781 137.253906-3.898437-2.25v4.5zm0 0"/><path d="m177.402344 139.503906-3.898438-2.25v4.5zm0 0"/><path d="m173.503906 141.753906-3.894531-2.25v4.5zm0 0"/><path d="m169.609375 144.003906-3.898437-2.25v4.5zm0 0"/><path d="m165.710938 146.253906-3.894532-2.25v4.5zm0 0"/><path d="m146.230469 171-3.898438-2.25v4.5zm0 0"/><path d="m146.230469 175.5-3.898438-2.25v4.5zm0 0"/><path d="m146.230469 180-3.898438-2.25v4.5zm0 0"/><path d="m146.230469 184.5-3.898438-2.25v4.5zm0 0"/><path d="m146.230469 193.5-3.898438-2.25v4.5zm0 0"/><path d="m161.816406 211.496094-3.898437-2.25v4.5zm0 0"/><path d="m165.710938 213.746094-3.894532-2.25v4.5zm0 0"/><path d="m169.609375 215.996094-3.898437-2.25v4.5zm0 0"/><path d="m185.195312 220.496094-3.894531-2.25v4.5zm0 0"/><path d="m189.09375 218.246094-3.898438-2.25v4.5zm0 0"/><path d="m192.988281 215.996094-3.894531-2.25v4.5zm0 0"/><path d="m196.886719 213.746094-3.898438-2.25v4.5zm0 0"/><path d="m204.679688 209.246094-3.898438-2.25v4.5zm0 0"/><path d="m208.574219 206.996094-3.894531-2.25v4.5zm0 0"/><path d="m216.367188 202.496094-3.894532-2.25v4.5zm0 0"/><path d="m224.164062 202.496094-3.898437-2.25v4.5zm0 0"/><path d="m224.164062 197.996094-3.898437-2.246094v4.496094zm0 0"/><path d="m224.164062 193.5-3.898437-2.25v4.5zm0 0"/><path d="m224.164062 189-3.898437-2.25v4.5zm0 0"/><path d="m224.164062 166.5-3.898437-2.25v4.5zm0 0"/><path d="m224.164062 162.003906-3.898437-2.25v4.496094zm0 0"/><path d="m224.164062 157.503906-3.898437-2.25v4.5zm0 0"/><path d="m220.265625 155.253906-3.898437-2.25v4.5zm0 0"/><path d="m216.367188 153.003906-3.894532-2.25v4.5zm0 0"/><path d="m212.472656 150.753906-3.898437-2.25v4.5zm0 0"/><path d="m208.574219 148.503906-3.894531-2.25v4.5zm0 0"/><path d="m204.679688 146.253906-3.898438-2.25v4.5zm0 0"/><path d="m200.78125 144.003906-3.894531-2.25v4.5zm0 0"/><path d="m196.886719 141.753906-3.898438-2.25v4.5zm0 0"/><path d="m192.988281 139.503906-3.894531-2.25v4.5zm0 0"/><path d="m189.09375 137.253906-3.898438-2.25v4.5zm0 0"/><path d="m185.195312 135.003906-3.894531-2.25v4.5zm0 0"/><path d="m177.402344 135.003906-3.898438-2.25v4.5zm0 0"/><path d="m173.503906 137.253906-3.894531-2.25v4.5zm0 0"/><path d="m169.609375 139.503906-3.898437-2.25v4.5zm0 0"/><path d="m165.710938 141.753906-3.894532-2.25v4.5zm0 0"/><path d="m142.332031 177.75-3.894531-2.25v4.5zm0 0"/><path d="m142.332031 182.25-3.894531-2.25v4.5zm0 0"/><path d="m142.332031 195.75-3.894531-2.25v4.496094zm0 0"/><path d="m169.609375 220.496094-3.898437-2.25v4.5zm0 0"/><path d="m181.300781 227.246094-3.898437-2.25v4.5zm0 0"/><path d="m185.195312 224.996094-3.894531-2.25v4.5zm0 0"/><path d="m189.09375 222.746094-3.898438-2.25v4.5zm0 0"/><path d="m192.988281 220.496094-3.894531-2.25v4.5zm0 0"/><path d="m196.886719 218.246094-3.898438-2.25v4.5zm0 0"/><path d="m228.058594 204.746094-3.894532-2.25v4.5zm0 0"/><path d="m228.058594 200.246094-3.894532-2.25v4.5zm0 0"/><path d="m228.058594 195.75-3.894532-2.25v4.496094zm0 0"/><path d="m228.058594 191.25-3.894532-2.25v4.5zm0 0"/><path d="m228.058594 186.75-3.894532-2.25v4.5zm0 0"/><path d="m228.058594 168.75-3.894532-2.25v4.5zm0 0"/><path d="m228.058594 164.25-3.894532-2.246094v4.496094zm0 0"/><path d="m228.058594 159.753906-3.894532-2.25v4.5zm0 0"/><path d="m228.058594 155.253906-3.894532-2.25v4.5zm0 0"/><path d="m224.164062 153.003906-3.898437-2.25v4.5zm0 0"/><path d="m212.472656 146.253906-3.898437-2.25v4.5zm0 0"/><path d="m208.574219 144.003906-3.894531-2.25v4.5zm0 0"/><path d="m204.679688 141.753906-3.898438-2.25v4.5zm0 0"/><path d="m200.78125 139.503906-3.894531-2.25v4.5zm0 0"/><path d="m196.886719 137.253906-3.898438-2.25v4.5zm0 0"/><path d="m192.988281 135.003906-3.894531-2.25v4.5zm0 0"/><path d="m189.09375 132.753906-3.898438-2.25v4.5zm0 0"/><path d="m177.402344 130.503906-3.898438-2.246094v4.496094zm0 0"/><path d="m165.710938 137.253906-3.894532-2.25v4.5zm0 0"/><path d="m161.816406 139.503906-3.898437-2.25v4.5zm0 0"/><path d="m138.4375 171-3.898438-2.25v4.5zm0 0"/><path d="m138.4375 175.5-3.898438-2.25v4.5zm0 0"/><path d="m138.4375 180-3.898438-2.25v4.5zm0 0"/><path d="m177.402344 229.496094-3.898438-2.25v4.496094zm0 0"/><path d="m181.300781 231.742188-3.898437-2.246094v4.496094zm0 0"/><path d="m185.195312 229.496094-3.894531-2.25v4.496094zm0 0"/><path d="m189.09375 227.246094-3.898438-2.25v4.5zm0 0"/><path d="m224.164062 206.996094-3.898437-2.25v4.5zm0 0"/><path d="m231.957031 206.996094-3.898437-2.25v4.5zm0 0"/><path d="m231.957031 202.496094-3.898437-2.25v4.5zm0 0"/><path d="m231.957031 197.996094-3.898437-2.246094v4.496094zm0 0"/><path d="m231.957031 193.5-3.898437-2.25v4.5zm0 0"/><path d="m231.957031 189-3.898437-2.25v4.5zm0 0"/><path d="m231.957031 184.5-3.898437-2.25v4.5zm0 0"/><path d="m231.957031 157.503906-3.898437-2.25v4.5zm0 0"/><path d="m231.957031 153.003906-3.898437-2.25v4.5zm0 0"/><path d="m228.058594 150.753906-3.894532-2.25v4.5zm0 0"/><path d="m220.265625 146.253906-3.898437-2.25v4.5zm0 0"/><path d="m212.472656 141.753906-3.898437-2.25v4.5zm0 0"/><path d="m208.574219 139.503906-3.894531-2.25v4.5zm0 0"/><path d="m200.78125 135.003906-3.894531-2.25v4.5zm0 0"/><path d="m192.988281 130.503906-3.894531-2.246094v4.496094zm0 0"/><path d="m177.402344 126.007812-3.898438-2.25v4.5zm0 0"/><path d="m169.609375 130.503906-3.898437-2.246094v4.496094zm0 0"/><path d="m165.710938 132.753906-3.894532-2.25v4.5zm0 0"/><path d="m161.816406 135.003906-3.898437-2.25v4.5zm0 0"/><path d="m134.539062 177.75-3.898437-2.25v4.5zm0 0"/><path d="m134.539062 186.75-3.898437-2.25v4.5zm0 0"/><path d="m134.539062 191.25-3.898437-2.25v4.5zm0 0"/><path d="m157.917969 222.746094-3.894531-2.25v4.5zm0 0"/><path d="m185.195312 233.992188-3.894531-2.25v4.5zm0 0"/><path d="m192.988281 229.496094-3.894531-2.25v4.496094zm0 0"/><path d="m220.265625 213.746094-3.898437-2.25v4.5zm0 0"/><path d="m228.058594 209.246094-3.894532-2.25v4.5zm0 0"/><path d="m235.851562 204.746094-3.894531-2.25v4.5zm0 0"/><path d="m235.851562 200.246094-3.894531-2.25v4.5zm0 0"/><path d="m235.851562 186.75-3.894531-2.25v4.5zm0 0"/><path d="m235.851562 159.753906-3.894531-2.25v4.5zm0 0"/><path d="m235.851562 155.253906-3.894531-2.25v4.5zm0 0"/><path d="m235.851562 150.753906-3.894531-2.25v4.5zm0 0"/><path d="m231.957031 148.503906-3.898437-2.25v4.5zm0 0"/><path d="m228.058594 146.253906-3.894532-2.25v4.5zm0 0"/><path d="m224.164062 144.003906-3.898437-2.25v4.5zm0 0"/><path d="m220.265625 141.753906-3.898437-2.25v4.5zm0 0"/><path d="m216.367188 139.503906-3.894532-2.25v4.5zm0 0"/><path d="m165.710938 128.257812-3.894532-2.25v4.496094zm0 0"/><path d="m161.816406 130.503906-3.898437-2.246094v4.496094zm0 0"/><path d="m130.640625 202.496094-3.894531-2.25v4.5zm0 0"/><path d="m181.300781 240.742188-3.898437-2.25v4.5zm0 0"/><path d="m192.988281 233.992188-3.894531-2.25v4.5zm0 0"/><path d="m196.886719 231.742188-3.898438-2.246094v4.496094zm0 0"/><path d="m231.957031 211.496094-3.898437-2.25v4.5zm0 0"/><path d="m239.75 211.496094-3.898438-2.25v4.5zm0 0"/><path d="m239.75 206.996094-3.898438-2.25v4.5zm0 0"/><path d="m239.75 202.496094-3.898438-2.25v4.5zm0 0"/><path d="m239.75 184.5-3.898438-2.25v4.5zm0 0"/><path d="m239.75 180-3.898438-2.25v4.5zm0 0"/><path d="m239.75 166.5-3.898438-2.25v4.5zm0 0"/><path d="m239.75 157.503906-3.898438-2.25v4.5zm0 0"/><path d="m239.75 148.503906-3.898438-2.25v4.5zm0 0"/><path d="m231.957031 144.003906-3.898437-2.25v4.5zm0 0"/><path d="m220.265625 137.253906-3.898437-2.25v4.5zm0 0"/><path d="m200.78125 126.007812-3.894531-2.25v4.5zm0 0"/><path d="m196.886719 123.757812-3.898438-2.25v4.5zm0 0"/><path d="m165.710938 123.757812-3.894532-2.25v4.5zm0 0"/><path d="m126.746094 200.246094-3.898438-2.25v4.5zm0 0"/><path d="m126.746094 204.746094-3.898438-2.25v4.5zm0 0"/><path d="m189.09375 240.742188-3.898438-2.25v4.5zm0 0"/><path d="m192.988281 238.492188-3.894531-2.25v4.5zm0 0"/><path d="m235.851562 213.746094-3.894531-2.25v4.5zm0 0"/><path d="m243.644531 209.246094-3.894531-2.25v4.5zm0 0"/><path d="m243.644531 204.746094-3.894531-2.25v4.5zm0 0"/><path d="m243.644531 195.75-3.894531-2.25v4.496094zm0 0"/><path d="m243.644531 191.25-3.894531-2.25v4.5zm0 0"/><path d="m243.644531 182.25-3.894531-2.25v4.5zm0 0"/><path d="m243.644531 155.253906-3.894531-2.25v4.5zm0 0"/><path d="m243.644531 150.753906-3.894531-2.25v4.5zm0 0"/><path d="m243.644531 146.253906-3.894531-2.25v4.5zm0 0"/><path d="m228.058594 137.253906-3.894532-2.25v4.5zm0 0"/><path d="m220.265625 132.753906-3.898437-2.25v4.5zm0 0"/><path d="m204.679688 123.757812-3.898438-2.25v4.5zm0 0"/><path d="m200.78125 121.507812-3.894531-2.25v4.5zm0 0"/><path d="m247.542969 215.996094-3.898438-2.25v4.5zm0 0"/><path d="m247.542969 211.496094-3.898438-2.25v4.5zm0 0"/><path d="m247.542969 157.503906-3.898438-2.25v4.5zm0 0"/><path d="m247.542969 144.003906-3.898438-2.25v4.5zm0 0"/><path d="m239.75 139.503906-3.898438-2.25v4.5zm0 0"/><path d="m228.058594 132.753906-3.894532-2.25v4.5zm0 0"/><path d="m224.164062 130.503906-3.898437-2.246094v4.496094zm0 0"/><path d="m251.4375 218.246094-3.894531-2.25v4.5zm0 0"/><path d="m251.4375 213.746094-3.894531-2.25v4.5zm0 0"/><path d="m251.4375 146.253906-3.894531-2.25v4.5zm0 0"/><path d="m251.4375 141.753906-3.894531-2.25v4.5zm0 0"/><path d="m247.542969 139.503906-3.898438-2.25v4.5zm0 0"/><path d="m243.644531 137.253906-3.894531-2.25v4.5zm0 0"/><path d="m239.75 135.003906-3.898438-2.25v4.5zm0 0"/><path d="m231.957031 130.503906-3.898437-2.246094v4.496094zm0 0"/><path d="m224.164062 126.007812-3.898437-2.25v4.5zm0 0"/><path d="m208.574219 117.007812-3.894531-2.25v4.5zm0 0"/><path d="m255.335938 215.996094-3.898438-2.25v4.5zm0 0"/><path d="m255.335938 211.496094-3.898438-2.25v4.5zm0 0"/><path d="m255.335938 189-3.898438-2.25v4.5zm0 0"/><path d="m255.335938 166.5-3.898438-2.25v4.5zm0 0"/><path d="m255.335938 162.003906-3.898438-2.25v4.496094zm0 0"/><path d="m255.335938 144.003906-3.898438-2.25v4.5zm0 0"/><path d="m255.335938 139.503906-3.898438-2.25v4.5zm0 0"/><path d="m251.4375 137.253906-3.894531-2.25v4.5zm0 0"/><path d="m247.542969 135.003906-3.898438-2.25v4.5zm0 0"/><path d="m243.644531 132.753906-3.894531-2.25v4.5zm0 0"/><path d="m239.75 130.503906-3.898438-2.246094v4.496094zm0 0"/><path d="m235.851562 128.257812-3.894531-2.25v4.496094zm0 0"/><path d="m231.957031 126.007812-3.898437-2.25v4.5zm0 0"/><path d="m259.230469 213.746094-3.894531-2.25v4.5zm0 0"/><path d="m259.230469 159.753906-3.894531-2.25v4.5zm0 0"/><path d="m259.230469 155.253906-3.894531-2.25v4.5zm0 0"/><path d="m259.230469 141.753906-3.894531-2.25v4.5zm0 0"/><path d="m259.230469 137.253906-3.894531-2.25v4.5zm0 0"/><path d="m255.335938 135.003906-3.898438-2.25v4.5zm0 0"/><path d="m251.4375 132.753906-3.894531-2.25v4.5zm0 0"/><path d="m243.644531 128.257812-3.894531-2.25v4.496094zm0 0"/><path d="m239.75 126.007812-3.898438-2.25v4.5zm0 0"/><path d="m235.851562 123.757812-3.894531-2.25v4.5zm0 0"/><path d="m231.957031 121.507812-3.898437-2.25v4.5zm0 0"/><path d="m228.058594 119.257812-3.894532-2.25v4.5zm0 0"/><path d="m263.128906 211.496094-3.898437-2.25v4.5zm0 0"/><path d="m263.128906 206.996094-3.898437-2.25v4.5zm0 0"/><path d="m263.128906 202.496094-3.898437-2.25v4.5zm0 0"/><path d="m263.128906 171-3.898437-2.25v4.5zm0 0"/><path d="m263.128906 157.503906-3.898437-2.25v4.5zm0 0"/><path d="m263.128906 153.003906-3.898437-2.25v4.5zm0 0"/><path d="m263.128906 148.503906-3.898437-2.25v4.5zm0 0"/><path d="m263.128906 144.003906-3.898437-2.25v4.5zm0 0"/><path d="m263.128906 139.503906-3.898437-2.25v4.5zm0 0"/><path d="m255.335938 130.503906-3.898438-2.246094v4.496094zm0 0"/><path d="m243.644531 123.757812-3.894531-2.25v4.5zm0 0"/><path d="m235.851562 119.257812-3.894531-2.25v4.5zm0 0"/><path d="m231.957031 117.007812-3.898437-2.25v4.5zm0 0"/><path d="m228.058594 114.757812-3.894532-2.25v4.5zm0 0"/><path d="m267.027344 204.746094-3.898438-2.25v4.5zm0 0"/><path d="m267.027344 200.246094-3.898438-2.25v4.5zm0 0"/><path d="m267.027344 195.75-3.898438-2.25v4.496094zm0 0"/><path d="m267.027344 191.25-3.898438-2.25v4.5zm0 0"/><path d="m267.027344 186.75-3.898438-2.25v4.5zm0 0"/><path d="m267.027344 182.25-3.898438-2.25v4.5zm0 0"/><path d="m259.230469 128.257812-3.894531-2.25v4.496094zm0 0"/><path d="m255.335938 126.007812-3.898438-2.25v4.5zm0 0"/><path d="m251.4375 123.757812-3.894531-2.25v4.5zm0 0"/><path d="m247.542969 121.507812-3.898438-2.25v4.5zm0 0"/><path d="m243.644531 119.257812-3.894531-2.25v4.5zm0 0"/><path d="m239.75 117.007812-3.898438-2.25v4.5zm0 0"/><path d="m235.851562 114.757812-3.894531-2.25v4.5zm0 0"/><path d="m270.921875 220.496094-3.894531-2.25v4.5zm0 0"/><path d="m270.921875 202.496094-3.894531-2.25v4.5zm0 0"/><path d="m270.921875 197.996094-3.894531-2.246094v4.496094zm0 0"/><path d="m270.921875 193.5-3.894531-2.25v4.5zm0 0"/><path d="m270.921875 189-3.894531-2.25v4.5zm0 0"/><path d="m270.921875 184.5-3.894531-2.25v4.5zm0 0"/><path d="m270.921875 180-3.894531-2.25v4.5zm0 0"/><path d="m270.921875 171-3.894531-2.25v4.5zm0 0"/><path d="m270.921875 166.5-3.894531-2.25v4.5zm0 0"/><path d="m270.921875 153.003906-3.894531-2.25v4.5zm0 0"/><path d="m259.230469 123.757812-3.894531-2.25v4.5zm0 0"/><path d="m255.335938 121.507812-3.898438-2.25v4.5zm0 0"/><path d="m251.4375 119.257812-3.894531-2.25v4.5zm0 0"/><path d="m247.542969 117.007812-3.898438-2.25v4.5zm0 0"/><path d="m243.644531 114.757812-3.894531-2.25v4.5zm0 0"/><path d="m239.75 112.507812-3.898438-2.25v4.5zm0 0"/><path d="m235.851562 110.257812-3.894531-2.25v4.5zm0 0"/><path d="m274.820312 218.246094-3.898437-2.25v4.5zm0 0"/><path d="m274.820312 213.746094-3.898437-2.25v4.5zm0 0"/><path d="m274.820312 209.246094-3.898437-2.25v4.5zm0 0"/><path d="m274.820312 204.746094-3.898437-2.25v4.5zm0 0"/><path d="m274.820312 200.246094-3.898437-2.25v4.5zm0 0"/><path d="m274.820312 186.75-3.898437-2.25v4.5zm0 0"/><path d="m274.820312 182.25-3.898437-2.25v4.5zm0 0"/><path d="m274.820312 173.25-3.898437-2.25v4.5zm0 0"/><path d="m274.820312 168.75-3.898437-2.25v4.5zm0 0"/><path d="m274.820312 159.753906-3.898437-2.25v4.5zm0 0"/><path d="m274.820312 155.253906-3.898437-2.25v4.5zm0 0"/><path d="m274.820312 150.753906-3.898437-2.25v4.5zm0 0"/><path d="m274.820312 146.253906-3.898437-2.25v4.5zm0 0"/><path d="m247.542969 112.507812-3.898438-2.25v4.5zm0 0"/><path d="m239.75 108.007812-3.898438-2.25v4.5zm0 0"/><path d="m278.714844 206.996094-3.894532-2.25v4.5zm0 0"/><path d="m278.714844 202.496094-3.894532-2.25v4.5zm0 0"/><path d="m278.714844 193.5-3.894532-2.25v4.5zm0 0"/><path d="m278.714844 189-3.894532-2.25v4.5zm0 0"/><path d="m278.714844 184.5-3.894532-2.25v4.5zm0 0"/><path d="m278.714844 180-3.894532-2.25v4.5zm0 0"/><path d="m278.714844 166.5-3.894532-2.25v4.5zm0 0"/><path d="m278.714844 162.003906-3.894532-2.25v4.496094zm0 0"/><path d="m278.714844 153.003906-3.894532-2.25v4.5zm0 0"/><path d="m278.714844 148.503906-3.894532-2.25v4.5zm0 0"/><path d="m263.128906 117.007812-3.898437-2.25v4.5zm0 0"/><path d="m259.230469 114.757812-3.894531-2.25v4.5zm0 0"/><path d="m255.335938 112.507812-3.898438-2.25v4.5zm0 0"/><path d="m251.4375 110.257812-3.894531-2.25v4.5zm0 0"/><path d="m247.542969 108.007812-3.898438-2.25v4.5zm0 0"/><path d="m282.613281 213.746094-3.898437-2.25v4.5zm0 0"/><path d="m282.613281 209.246094-3.898437-2.25v4.5zm0 0"/><path d="m282.613281 164.25-3.898437-2.246094v4.496094zm0 0"/><path d="m282.613281 150.753906-3.898437-2.25v4.5zm0 0"/><path d="m247.542969 103.507812-3.898438-2.25v4.5zm0 0"/><path d="m286.507812 189-3.894531-2.25v4.5zm0 0"/><path d="m251.4375 101.257812-3.894531-2.25v4.5zm0 0"/><path d="m243.644531 96.757812-3.894531-2.246093v4.496093zm0 0"/><path d="m239.75 94.511719-3.898438-2.25v4.496093zm0 0"/><path d="m290.40625 195.75-3.898438-2.25v4.496094zm0 0"/><path d="m243.644531 92.261719-3.894531-2.25v4.5zm0 0"/><path d="m239.75 90.011719-3.898438-2.25v4.5zm0 0"/><path d="m235.851562 87.761719-3.894531-2.25v4.5zm0 0"/><path d="m294.300781 193.5-3.894531-2.25v4.5zm0 0"/><path d="m294.300781 189-3.894531-2.25v4.5zm0 0"/><path d="m298.199219 222.746094-3.898438-2.25v4.5zm0 0"/><path d="m298.199219 213.746094-3.898438-2.25v4.5zm0 0"/><path d="m302.09375 224.996094-3.894531-2.25v4.5zm0 0"/><path d="m302.09375 220.496094-3.894531-2.25v4.5zm0 0"/><path d="m302.09375 215.996094-3.894531-2.25v4.5zm0 0"/><path d="m302.09375 211.496094-3.894531-2.25v4.5zm0 0"/><path d="m305.992188 227.246094-3.898438-2.25v4.5zm0 0"/><path d="m305.992188 218.246094-3.898438-2.25v4.5zm0 0"/><path d="m309.890625 229.496094-3.898437-2.25v4.496094zm0 0"/><path d="m313.785156 222.746094-3.894531-2.25v4.5zm0 0"/><path d="m317.683594 224.996094-3.898438-2.25v4.5zm0 0"/><path d="m321.578125 222.746094-3.894531-2.25v4.5zm0 0"/></g></svg>