<svg height="360pt" viewBox="0 0 360 360" width="360pt" xmlns="http://www.w3.org/2000/svg"><path d="m0 0h360v360h-360z" fill="#800080"/><g fill="#fff"><path d="m176.648438 180 5.027343-2.902344v5.804688zm0 0"/><path d="m181.675781 182.902344 5.027344-2.902344v5.804688zm0 0"/><path d="m171.621094 177.097656 5.027344-2.902344v5.804688zm0 0"/><path d="m171.621094 182.902344 5.027344-2.902344v5.804688zm0 0"/><path d="m186.703125 185.804688 5.027344-2.902344v5.804687zm0 0"/><path d="m181.675781 171.292969 5.027344-2.902344v5.804687zm0 0"/><path d="m166.59375 174.195312 5.027344-2.902343v5.804687zm0 0"/><path d="m171.621094 188.707031 5.027344-2.902343v5.804687zm0 0"/><path d="m181.675781 188.707031 5.027344-2.902343v5.804687zm0 0"/><path d="m191.730469 182.902344 5.027343-2.902344v5.804688zm0 0"/><path d="m191.730469 177.097656 5.027343-2.902344v5.804688zm0 0"/><path d="m191.730469 171.292969 5.027343-2.902344v5.804687zm0 0"/><path d="m171.621094 165.488281 5.027344-2.902343v5.804687zm0 0"/><path d="m166.59375 168.390625 5.027344-2.902344v5.804688zm0 0"/><path d="m161.566406 171.292969 5.027344-2.902344v5.804687zm0 0"/><path d="m161.566406 177.097656 5.027344-2.902344v5.804688zm0 0"/><path d="m171.621094 194.511719 5.027344-2.902344v5.804687zm0 0"/><path d="m176.648438 197.414062 5.027343-2.902343v5.808593zm0 0"/><path d="m196.757812 180 5.027344-2.902344v5.804688zm0 0"/><path d="m196.757812 174.195312 5.027344-2.902343v5.804687zm0 0"/><path d="m186.703125 162.585938 5.027344-2.90625v5.808593zm0 0"/><path d="m171.621094 159.679688 5.027344-2.902344v5.808594zm0 0"/><path d="m166.59375 162.585938 5.027344-2.90625v5.808593zm0 0"/><path d="m161.566406 165.488281 5.027344-2.902343v5.804687zm0 0"/><path d="m156.539062 168.390625 5.027344-2.902344v5.804688zm0 0"/><path d="m156.539062 174.195312 5.027344-2.902343v5.804687zm0 0"/><path d="m156.539062 180 5.027344-2.902344v5.804688zm0 0"/><path d="m171.621094 200.320312 5.027344-2.90625v5.808594zm0 0"/><path d="m201.785156 177.097656 5.027344-2.902344v5.804688zm0 0"/><path d="m191.730469 159.679688 5.027343-2.902344v5.808594zm0 0"/><path d="m186.703125 156.777344 5.027344-2.902344v5.804688zm0 0"/><path d="m166.59375 156.777344 5.027344-2.902344v5.804688zm0 0"/><path d="m156.539062 162.585938 5.027344-2.90625v5.808593zm0 0"/><path d="m151.511719 194.511719 5.027343-2.902344v5.804687zm0 0"/><path d="m156.539062 197.414062 5.027344-2.902343v5.808593zm0 0"/><path d="m171.621094 206.125 5.027344-2.902344v5.804688zm0 0"/><path d="m176.648438 209.027344 5.027343-2.902344v5.804688zm0 0"/><path d="m206.8125 191.609375 5.027344-2.902344v5.804688zm0 0"/><path d="m206.8125 185.804688 5.027344-2.902344v5.804687zm0 0"/><path d="m206.8125 168.390625 5.027344-2.902344v5.804688zm0 0"/><path d="m206.8125 162.585938 5.027344-2.90625v5.808593zm0 0"/><path d="m196.757812 156.777344 5.027344-2.902344v5.804688zm0 0"/><path d="m151.511719 159.679688 5.027343-2.902344v5.808594zm0 0"/><path d="m146.484375 162.585938 5.027344-2.90625v5.808593zm0 0"/><path d="m146.484375 191.609375 5.027344-2.902344v5.804688zm0 0"/><path d="m166.59375 209.027344 5.027344-2.902344v5.804688zm0 0"/><path d="m171.621094 211.929688 5.027344-2.902344v5.804687zm0 0"/><path d="m176.648438 214.832031 5.027343-2.902343v5.804687zm0 0"/><path d="m181.675781 211.929688 5.027344-2.902344v5.804687zm0 0"/><path d="m201.785156 200.320312 5.027344-2.90625v5.808594zm0 0"/><path d="m211.839844 188.707031 5.027344-2.902343v5.804687zm0 0"/><path d="m211.839844 165.488281 5.027344-2.902343v5.804687zm0 0"/><path d="m201.785156 153.875 5.027344-2.902344v5.804688zm0 0"/><path d="m196.757812 150.972656 5.027344-2.902344v5.804688zm0 0"/><path d="m181.675781 142.265625 5.027344-2.902344v5.804688zm0 0"/><path d="m141.457031 159.679688 5.027344-2.902344v5.808594zm0 0"/><path d="m141.457031 177.097656 5.027344-2.902344v5.804688zm0 0"/><path d="m141.457031 188.707031 5.027344-2.902343v5.804687zm0 0"/><path d="m141.457031 194.511719 5.027344-2.902344v5.804687zm0 0"/><path d="m166.59375 214.832031 5.027344-2.902343v5.804687zm0 0"/><path d="m171.621094 217.734375 5.027344-2.902344v5.804688zm0 0"/><path d="m201.785156 206.125 5.027344-2.902344v5.804688zm0 0"/><path d="m206.8125 203.222656 5.027344-2.902344v5.804688zm0 0"/><path d="m216.867188 185.804688 5.027343-2.902344v5.804687zm0 0"/><path d="m216.867188 180 5.027343-2.902344v5.804688zm0 0"/><path d="m216.867188 174.195312 5.027343-2.902343v5.804687zm0 0"/><path d="m216.867188 168.390625 5.027343-2.902344v5.804688zm0 0"/><path d="m206.8125 150.972656 5.027344-2.902344v5.804688zm0 0"/><path d="m186.703125 139.363281 5.027344-2.902343v5.804687zm0 0"/><path d="m171.621094 136.460938 5.027344-2.902344v5.804687zm0 0"/><path d="m166.59375 139.363281 5.027344-2.902343v5.804687zm0 0"/><path d="m161.566406 142.265625 5.027344-2.902344v5.804688zm0 0"/><path d="m156.539062 145.167969 5.027344-2.902344v5.804687zm0 0"/><path d="m151.511719 148.070312 5.027343-2.902343v5.804687zm0 0"/><path d="m136.429688 162.585938 5.027343-2.90625v5.808593zm0 0"/><path d="m136.429688 174.195312 5.027343-2.902343v5.804687zm0 0"/><path d="m136.429688 180 5.027343-2.902344v5.804688zm0 0"/><path d="m136.429688 185.804688 5.027343-2.902344v5.804687zm0 0"/><path d="m136.429688 191.609375 5.027343-2.902344v5.804688zm0 0"/><path d="m136.429688 197.414062 5.027343-2.902343v5.808593zm0 0"/><path d="m136.429688 203.222656 5.027343-2.902344v5.804688zm0 0"/><path d="m141.457031 206.125 5.027344-2.902344v5.804688zm0 0"/><path d="m146.484375 209.027344 5.027344-2.902344v5.804688zm0 0"/><path d="m151.511719 211.929688 5.027343-2.902344v5.804687zm0 0"/><path d="m196.757812 214.832031 5.027344-2.902343v5.804687zm0 0"/><path d="m201.785156 211.929688 5.027344-2.902344v5.804687zm0 0"/><path d="m206.8125 209.027344 5.027344-2.902344v5.804688zm0 0"/><path d="m211.839844 206.125 5.027344-2.902344v5.804688zm0 0"/><path d="m221.894531 182.902344 5.027344-2.902344v5.804688zm0 0"/><path d="m221.894531 171.292969 5.027344-2.902344v5.804687zm0 0"/><path d="m211.839844 148.070312 5.027344-2.902343v5.804687zm0 0"/><path d="m191.730469 136.460938 5.027343-2.902344v5.804687zm0 0"/><path d="m186.703125 133.558594 5.027344-2.902344v5.804688zm0 0"/><path d="m166.59375 133.558594 5.027344-2.902344v5.804688zm0 0"/><path d="m161.566406 136.460938 5.027344-2.902344v5.804687zm0 0"/><path d="m131.402344 159.679688 5.027344-2.902344v5.808594zm0 0"/><path d="m131.402344 165.488281 5.027344-2.902343v5.804687zm0 0"/><path d="m131.402344 206.125 5.027344-2.902344v5.804688zm0 0"/><path d="m136.429688 209.027344 5.027343-2.902344v5.804688zm0 0"/><path d="m141.457031 211.929688 5.027344-2.902344v5.804687zm0 0"/><path d="m151.511719 217.734375 5.027343-2.902344v5.804688zm0 0"/><path d="m196.757812 220.636719 5.027344-2.902344v5.804687zm0 0"/><path d="m201.785156 217.734375 5.027344-2.902344v5.804688zm0 0"/><path d="m206.8125 214.832031 5.027344-2.902343v5.804687zm0 0"/><path d="m211.839844 211.929688 5.027344-2.902344v5.804687zm0 0"/><path d="m216.867188 209.027344 5.027343-2.902344v5.804688zm0 0"/><path d="m216.867188 145.167969 5.027343-2.902344v5.804687zm0 0"/><path d="m211.839844 142.265625 5.027344-2.902344v5.804688zm0 0"/><path d="m196.757812 133.558594 5.027344-2.902344v5.804688zm0 0"/><path d="m186.703125 127.753906 5.027344-2.902344v5.804688zm0 0"/><path d="m161.566406 130.65625 5.027344-2.902344v5.804688zm0 0"/><path d="m136.429688 145.167969 5.027343-2.902344v5.804687zm0 0"/><path d="m131.402344 148.070312 5.027344-2.902343v5.804687zm0 0"/><path d="m126.371094 168.390625 5.03125-2.902344v5.804688zm0 0"/><path d="m126.371094 203.222656 5.03125-2.902344v5.804688zm0 0"/><path d="m126.371094 209.027344 5.03125-2.902344v5.804688zm0 0"/><path d="m131.402344 211.929688 5.027344-2.902344v5.804687zm0 0"/><path d="m151.511719 223.539062 5.027343-2.902343v5.804687zm0 0"/><path d="m156.539062 226.441406 5.027344-2.902344v5.804688zm0 0"/><path d="m161.566406 229.34375 5.027344-2.902344v5.804688zm0 0"/><path d="m166.59375 232.246094 5.027344-2.902344v5.804688zm0 0"/><path d="m171.621094 235.148438 5.027344-2.902344v5.808594zm0 0"/><path d="m176.648438 238.054688 5.027343-2.90625v5.808593zm0 0"/><path d="m186.703125 232.246094 5.027344-2.902344v5.804688zm0 0"/><path d="m221.894531 211.929688 5.027344-2.902344v5.804687zm0 0"/><path d="m231.953125 206.125 5.027344-2.902344v5.804688zm0 0"/><path d="m231.953125 200.320312 5.027344-2.90625v5.808594zm0 0"/><path d="m231.953125 194.511719 5.027344-2.902344v5.804687zm0 0"/><path d="m231.953125 159.679688 5.027344-2.902344v5.808594zm0 0"/><path d="m231.953125 153.875 5.027344-2.902344v5.804688zm0 0"/><path d="m231.953125 148.070312 5.027344-2.902343v5.804687zm0 0"/><path d="m221.894531 142.265625 5.027344-2.902344v5.804688zm0 0"/><path d="m216.867188 139.363281 5.027343-2.902343v5.804687zm0 0"/><path d="m211.839844 136.460938 5.027344-2.902344v5.804687zm0 0"/><path d="m201.785156 130.65625 5.027344-2.902344v5.804688zm0 0"/><path d="m196.757812 127.753906 5.027344-2.902344v5.804688zm0 0"/><path d="m191.730469 124.851562 5.027343-2.90625v5.808594zm0 0"/><path d="m186.703125 121.945312 5.027344-2.902343v5.808593zm0 0"/><path d="m141.457031 136.460938 5.027344-2.902344v5.804687zm0 0"/><path d="m136.429688 139.363281 5.027343-2.902343v5.804687zm0 0"/><path d="m131.402344 142.265625 5.027344-2.902344v5.804688zm0 0"/><path d="m121.34375 165.488281 5.027344-2.902343v5.804687zm0 0"/><path d="m121.34375 171.292969 5.027344-2.902344v5.804687zm0 0"/><path d="m121.34375 188.707031 5.027344-2.902343v5.804687zm0 0"/><path d="m121.34375 200.320312 5.027344-2.90625v5.808594zm0 0"/><path d="m126.371094 214.832031 5.03125-2.902343v5.804687zm0 0"/><path d="m151.511719 229.34375 5.027343-2.902344v5.804688zm0 0"/><path d="m166.59375 238.054688 5.027344-2.90625v5.808593zm0 0"/><path d="m176.648438 243.859375 5.027343-2.902344v5.804688zm0 0"/><path d="m191.730469 235.148438 5.027343-2.902344v5.808594zm0 0"/><path d="m211.839844 223.539062 5.027344-2.902343v5.804687zm0 0"/><path d="m221.894531 217.734375 5.027344-2.902344v5.804688zm0 0"/><path d="m236.980469 203.222656 5.027343-2.902344v5.804688zm0 0"/><path d="m236.980469 180 5.027343-2.902344v5.804688zm0 0"/><path d="m236.980469 174.195312 5.027343-2.902343v5.804687zm0 0"/><path d="m236.980469 150.972656 5.027343-2.902344v5.804688zm0 0"/><path d="m186.703125 116.140625 5.027344-2.902344v5.804688zm0 0"/><path d="m176.648438 110.335938 5.027343-2.902344v5.804687zm0 0"/><path d="m171.621094 113.238281 5.027344-2.902343v5.804687zm0 0"/><path d="m166.59375 116.140625 5.027344-2.902344v5.804688zm0 0"/><path d="m161.566406 119.042969 5.027344-2.902344v5.804687zm0 0"/><path d="m156.539062 121.945312 5.027344-2.902343v5.808593zm0 0"/><path d="m151.511719 124.851562 5.027343-2.90625v5.808594zm0 0"/><path d="m136.429688 133.558594 5.027343-2.902344v5.804688zm0 0"/><path d="m131.402344 136.460938 5.027344-2.902344v5.804687zm0 0"/><path d="m116.316406 145.167969 5.027344-2.902344v5.804687zm0 0"/><path d="m116.316406 174.195312 5.027344-2.902343v5.804687zm0 0"/><path d="m116.316406 197.414062 5.027344-2.902343v5.808593zm0 0"/><path d="m116.316406 203.222656 5.027344-2.902344v5.804688zm0 0"/><path d="m136.429688 226.441406 5.027343-2.902344v5.804688zm0 0"/><path d="m176.648438 249.664062 5.027343-2.902343v5.804687zm0 0"/><path d="m181.675781 246.761719 5.027344-2.902344v5.804687zm0 0"/><path d="m186.703125 243.859375 5.027344-2.902344v5.804688zm0 0"/><path d="m191.730469 240.957031 5.027343-2.902343v5.804687zm0 0"/><path d="m196.757812 238.054688 5.027344-2.90625v5.808593zm0 0"/><path d="m206.8125 232.246094 5.027344-2.902344v5.804688zm0 0"/><path d="m221.894531 223.539062 5.027344-2.902343v5.804687zm0 0"/><path d="m226.921875 220.636719 5.03125-2.902344v5.804687zm0 0"/><path d="m242.007812 217.734375 5.027344-2.902344v5.804688zm0 0"/><path d="m242.007812 211.929688 5.027344-2.902344v5.804687zm0 0"/><path d="m242.007812 177.097656 5.027344-2.902344v5.804688zm0 0"/><path d="m231.953125 136.460938 5.027344-2.902344v5.804687zm0 0"/><path d="m211.839844 124.851562 5.027344-2.90625v5.808594zm0 0"/><path d="m201.785156 119.042969 5.027344-2.902344v5.804687zm0 0"/><path d="m191.730469 113.238281 5.027343-2.902343v5.804687zm0 0"/><path d="m171.621094 107.433594 5.027344-2.902344v5.804688zm0 0"/><path d="m166.59375 110.335938 5.027344-2.902344v5.804687zm0 0"/><path d="m161.566406 113.238281 5.027344-2.902343v5.804687zm0 0"/><path d="m156.539062 116.140625 5.027344-2.902344v5.804688zm0 0"/><path d="m151.511719 119.042969 5.027343-2.902344v5.804687zm0 0"/><path d="m141.457031 124.851562 5.027344-2.90625v5.808594zm0 0"/><path d="m131.402344 130.65625 5.027344-2.902344v5.804688zm0 0"/><path d="m121.34375 136.460938 5.027344-2.902344v5.804687zm0 0"/><path d="m111.289062 171.292969 5.027344-2.902344v5.804687zm0 0"/><path d="m111.289062 177.097656 5.027344-2.902344v5.804688zm0 0"/><path d="m111.289062 194.511719 5.027344-2.902344v5.804687zm0 0"/><path d="m111.289062 200.320312 5.027344-2.90625v5.808594zm0 0"/><path d="m111.289062 206.125 5.027344-2.902344v5.804688zm0 0"/><path d="m111.289062 217.734375 5.027344-2.902344v5.804688zm0 0"/><path d="m116.316406 220.636719 5.027344-2.902344v5.804687zm0 0"/><path d="m121.34375 223.539062 5.027344-2.902343v5.804687zm0 0"/><path d="m136.429688 232.246094 5.027343-2.902344v5.804688zm0 0"/><path d="m141.457031 235.148438 5.027344-2.902344v5.808594zm0 0"/><path d="m146.484375 238.054688 5.027344-2.90625v5.808593zm0 0"/><path d="m151.511719 240.957031 5.027343-2.902343v5.804687zm0 0"/><path d="m221.894531 229.34375 5.027344-2.902344v5.804688zm0 0"/><path d="m226.921875 226.441406 5.03125-2.902344v5.804688zm0 0"/><path d="m231.953125 223.539062 5.027344-2.902343v5.804687zm0 0"/><path d="m247.035156 214.832031 5.027344-2.902343v5.804687zm0 0"/><path d="m247.035156 197.414062 5.027344-2.902343v5.808593zm0 0"/><path d="m247.035156 191.609375 5.027344-2.902344v5.804688zm0 0"/><path d="m247.035156 162.585938 5.027344-2.90625v5.808593zm0 0"/><path d="m247.035156 156.777344 5.027344-2.902344v5.804688zm0 0"/><path d="m247.035156 145.167969 5.027344-2.902344v5.804687zm0 0"/><path d="m247.035156 139.363281 5.027344-2.902343v5.804687zm0 0"/><path d="m236.980469 133.558594 5.027343-2.902344v5.804688zm0 0"/><path d="m231.953125 130.65625 5.027344-2.902344v5.804688zm0 0"/><path d="m216.867188 121.945312 5.027343-2.902343v5.808593zm0 0"/><path d="m211.839844 119.042969 5.027344-2.902344v5.804687zm0 0"/><path d="m196.757812 110.335938 5.027344-2.902344v5.804687zm0 0"/><path d="m191.730469 107.433594 5.027343-2.902344v5.804688zm0 0"/><path d="m176.648438 98.726562 5.027343-2.902343v5.804687zm0 0"/><path d="m171.621094 101.628906 5.027344-2.902344v5.804688zm0 0"/><path d="m161.566406 107.433594 5.027344-2.902344v5.804688zm0 0"/><path d="m151.511719 113.238281 5.027343-2.902343v5.804687zm0 0"/><path d="m136.429688 121.945312 5.027343-2.902343v5.808593zm0 0"/><path d="m121.34375 130.65625 5.027344-2.902344v5.804688zm0 0"/><path d="m111.289062 136.460938 5.027344-2.902344v5.804687zm0 0"/><path d="m106.261719 139.363281 5.027343-2.902343v5.804687zm0 0"/><path d="m106.261719 168.390625 5.027343-2.902344v5.804688zm0 0"/><path d="m106.261719 174.195312 5.027343-2.902343v5.804687zm0 0"/><path d="m106.261719 180 5.027343-2.902344v5.804688zm0 0"/><path d="m106.261719 191.609375 5.027343-2.902344v5.804688zm0 0"/><path d="m106.261719 197.414062 5.027343-2.902343v5.808593zm0 0"/><path d="m106.261719 203.222656 5.027343-2.902344v5.804688zm0 0"/><path d="m116.316406 226.441406 5.027344-2.902344v5.804688zm0 0"/><path d="m136.429688 238.054688 5.027343-2.90625v5.808593zm0 0"/><path d="m151.511719 246.761719 5.027343-2.902344v5.804687zm0 0"/><path d="m156.539062 249.664062 5.027344-2.902343v5.804687zm0 0"/><path d="m161.566406 252.566406 5.027344-2.902344v5.804688zm0 0"/><path d="m166.59375 255.46875 5.027344-2.902344v5.804688zm0 0"/><path d="m191.730469 252.566406 5.027343-2.902344v5.804688zm0 0"/><path d="m206.8125 243.859375 5.027344-2.902344v5.804688zm0 0"/><path d="m242.007812 223.539062 5.027344-2.902343v5.804687zm0 0"/><path d="m252.0625 217.734375 5.027344-2.902344v5.804688zm0 0"/><path d="m252.0625 194.511719 5.027344-2.902344v5.804687zm0 0"/><path d="m252.0625 182.902344 5.027344-2.902344v5.804688zm0 0"/><path d="m252.0625 177.097656 5.027344-2.902344v5.804688zm0 0"/><path d="m252.0625 171.292969 5.027344-2.902344v5.804687zm0 0"/><path d="m252.0625 159.679688 5.027344-2.902344v5.808594zm0 0"/><path d="m252.0625 142.265625 5.027344-2.902344v5.804688zm0 0"/><path d="m247.035156 133.558594 5.027344-2.902344v5.804688zm0 0"/><path d="m242.007812 130.65625 5.027344-2.902344v5.804688zm0 0"/><path d="m236.980469 127.753906 5.027343-2.902344v5.804688zm0 0"/><path d="m231.953125 124.851562 5.027344-2.90625v5.808594zm0 0"/><path d="m221.894531 119.042969 5.027344-2.902344v5.804687zm0 0"/><path d="m216.867188 116.140625 5.027343-2.902344v5.804688zm0 0"/><path d="m211.839844 113.238281 5.027344-2.902343v5.804687zm0 0"/><path d="m206.8125 110.335938 5.027344-2.902344v5.804687zm0 0"/><path d="m201.785156 107.433594 5.027344-2.902344v5.804688zm0 0"/><path d="m181.675781 95.824219 5.027344-2.902344v5.804687zm0 0"/><path d="m171.621094 95.824219 5.027344-2.902344v5.804687zm0 0"/><path d="m146.484375 110.335938 5.027344-2.902344v5.804687zm0 0"/><path d="m141.457031 113.238281 5.027344-2.902343v5.804687zm0 0"/><path d="m126.371094 121.945312 5.03125-2.902343v5.808593zm0 0"/><path d="m106.261719 133.558594 5.027343-2.902344v5.804688zm0 0"/><path d="m101.234375 153.875 5.027344-2.902344v5.804688zm0 0"/><path d="m101.234375 165.488281 5.027344-2.902343v5.804687zm0 0"/><path d="m101.234375 206.125 5.027344-2.902344v5.804688zm0 0"/><path d="m116.316406 232.246094 5.027344-2.902344v5.804688zm0 0"/><path d="m126.371094 238.054688 5.03125-2.90625v5.808593zm0 0"/><path d="m131.402344 240.957031 5.027344-2.902343v5.804687zm0 0"/><path d="m156.539062 255.46875 5.027344-2.902344v5.804688zm0 0"/><path d="m161.566406 258.371094 5.027344-2.902344v5.804688zm0 0"/><path d="m181.675781 264.175781 5.027344-2.902343v5.804687zm0 0"/><path d="m186.703125 261.273438 5.027344-2.902344v5.804687zm0 0"/><path d="m201.785156 252.566406 5.027344-2.902344v5.804688zm0 0"/><path d="m216.867188 243.859375 5.027343-2.902344v5.804688zm0 0"/><path d="m221.894531 240.957031 5.027344-2.902343v5.804687zm0 0"/><path d="m242.007812 229.34375 5.027344-2.902344v5.804688zm0 0"/><path d="m257.089844 226.441406 5.027344-2.902344v5.804688zm0 0"/><path d="m257.089844 220.636719 5.027344-2.902344v5.804687zm0 0"/><path d="m257.089844 191.609375 5.027344-2.902344v5.804688zm0 0"/><path d="m257.089844 185.804688 5.027344-2.902344v5.804687zm0 0"/><path d="m257.089844 168.390625 5.027344-2.902344v5.804688zm0 0"/><path d="m257.089844 162.585938 5.027344-2.90625v5.808593zm0 0"/><path d="m257.089844 145.167969 5.027344-2.902344v5.804687zm0 0"/><path d="m257.089844 133.558594 5.027344-2.902344v5.804688zm0 0"/><path d="m252.0625 130.65625 5.027344-2.902344v5.804688zm0 0"/><path d="m201.785156 101.628906 5.027344-2.902344v5.804688zm0 0"/><path d="m186.703125 92.921875 5.027344-2.902344v5.804688zm0 0"/><path d="m181.675781 90.019531 5.027344-2.902343v5.804687zm0 0"/><path d="m146.484375 104.53125 5.027344-2.902344v5.804688zm0 0"/><path d="m141.457031 107.433594 5.027344-2.902344v5.804688zm0 0"/><path d="m126.371094 116.140625 5.03125-2.902344v5.804688zm0 0"/><path d="m121.34375 119.042969 5.027344-2.902344v5.804687zm0 0"/><path d="m116.316406 121.945312 5.027344-2.902343v5.808593zm0 0"/><path d="m111.289062 124.851562 5.027344-2.90625v5.808594zm0 0"/><path d="m106.261719 127.753906 5.027343-2.902344v5.804688zm0 0"/><path d="m96.207031 133.558594 5.027344-2.902344v5.804688zm0 0"/><path d="m96.207031 150.972656 5.027344-2.902344v5.804688zm0 0"/><path d="m96.207031 156.777344 5.027344-2.902344v5.804688zm0 0"/><path d="m96.207031 162.585938 5.027344-2.90625v5.808593zm0 0"/><path d="m96.207031 168.390625 5.027344-2.902344v5.804688zm0 0"/><path d="m96.207031 203.222656 5.027344-2.902344v5.804688zm0 0"/><path d="m96.207031 209.027344 5.027344-2.902344v5.804688zm0 0"/><path d="m96.207031 220.636719 5.027344-2.902344v5.804687zm0 0"/><path d="m111.289062 235.148438 5.027344-2.902344v5.808594zm0 0"/><path d="m131.402344 246.761719 5.027344-2.902344v5.804687zm0 0"/><path d="m136.429688 249.664062 5.027343-2.902343v5.804687zm0 0"/><path d="m141.457031 252.566406 5.027344-2.902344v5.804688zm0 0"/><path d="m156.539062 261.273438 5.027344-2.902344v5.804687zm0 0"/><path d="m171.621094 269.980469 5.027344-2.902344v5.804687zm0 0"/><path d="m176.648438 272.882812 5.027343-2.902343v5.808593zm0 0"/><path d="m181.675781 269.980469 5.027344-2.902344v5.804687zm0 0"/><path d="m186.703125 267.078125 5.027344-2.902344v5.804688zm0 0"/><path d="m191.730469 264.175781 5.027343-2.902343v5.804687zm0 0"/><path d="m206.8125 255.46875 5.027344-2.902344v5.804688zm0 0"/><path d="m242.007812 235.148438 5.027344-2.902344v5.808594zm0 0"/><path d="m247.035156 232.246094 5.027344-2.902344v5.804688zm0 0"/><path d="m262.117188 223.539062 5.027343-2.902343v5.804687zm0 0"/><path d="m262.117188 206.125 5.027343-2.902344v5.804688zm0 0"/><path d="m262.117188 188.707031 5.027343-2.902343v5.804687zm0 0"/><path d="m262.117188 165.488281 5.027343-2.902343v5.804687zm0 0"/><path d="m262.117188 148.070312 5.027343-2.902343v5.804687zm0 0"/><path d="m257.089844 127.753906 5.027344-2.902344v5.804688zm0 0"/><path d="m252.0625 124.851562 5.027344-2.90625v5.808594zm0 0"/><path d="m242.007812 119.042969 5.027344-2.902344v5.804687zm0 0"/><path d="m236.980469 116.140625 5.027343-2.902344v5.804688zm0 0"/><path d="m221.894531 107.433594 5.027344-2.902344v5.804688zm0 0"/><path d="m216.867188 104.53125 5.027343-2.902344v5.804688zm0 0"/><path d="m206.8125 98.726562 5.027344-2.902343v5.804687zm0 0"/><path d="m201.785156 95.824219 5.027344-2.902344v5.804687zm0 0"/><path d="m191.730469 90.019531 5.027343-2.902343v5.804687zm0 0"/><path d="m176.648438 81.308594 5.027343-2.902344v5.804688zm0 0"/><path d="m141.457031 101.628906 5.027344-2.902344v5.804688zm0 0"/><path d="m116.316406 116.140625 5.027344-2.902344v5.804688zm0 0"/><path d="m106.261719 121.945312 5.027343-2.902343v5.808593zm0 0"/><path d="m91.179688 130.65625 5.027343-2.902344v5.804688zm0 0"/><path d="m91.179688 136.460938 5.027343-2.902344v5.804687zm0 0"/><path d="m91.179688 142.265625 5.027343-2.902344v5.804688zm0 0"/><path d="m91.179688 182.902344 5.027343-2.902344v5.804688zm0 0"/><path d="m91.179688 200.320312 5.027343-2.90625v5.808594zm0 0"/><path d="m91.179688 206.125 5.027343-2.902344v5.804688zm0 0"/><path d="m91.179688 211.929688 5.027343-2.902344v5.804687zm0 0"/><path d="m91.179688 217.734375 5.027343-2.902344v5.804688zm0 0"/><path d="m91.179688 223.539062 5.027343-2.902343v5.804687zm0 0"/><path d="m91.179688 229.34375 5.027343-2.902344v5.804688zm0 0"/><path d="m96.207031 232.246094 5.027344-2.902344v5.804688zm0 0"/><path d="m101.234375 235.148438 5.027344-2.902344v5.808594zm0 0"/><path d="m106.261719 238.054688 5.027343-2.90625v5.808593zm0 0"/><path d="m131.402344 252.566406 5.027344-2.902344v5.804688zm0 0"/><path d="m141.457031 258.371094 5.027344-2.902344v5.804688zm0 0"/><path d="m146.484375 261.273438 5.027344-2.902344v5.804687zm0 0"/><path d="m151.511719 264.175781 5.027343-2.902343v5.804687zm0 0"/><path d="m161.566406 269.980469 5.027344-2.902344v5.804687zm0 0"/><path d="m171.621094 275.789062 5.027344-2.90625v5.808594zm0 0"/><path d="m191.730469 269.980469 5.027343-2.902344v5.804687zm0 0"/><path d="m196.757812 267.078125 5.027344-2.902344v5.804688zm0 0"/><path d="m206.8125 261.273438 5.027344-2.902344v5.804687zm0 0"/><path d="m211.839844 258.371094 5.027344-2.902344v5.804688zm0 0"/><path d="m226.921875 249.664062 5.03125-2.902343v5.804687zm0 0"/><path d="m257.089844 232.246094 5.027344-2.902344v5.804688zm0 0"/><path d="m267.144531 214.832031 5.027344-2.902343v5.804687zm0 0"/><path d="m267.144531 203.222656 5.027344-2.902344v5.804688zm0 0"/><path d="m267.144531 197.414062 5.027344-2.902343v5.808593zm0 0"/><path d="m267.144531 191.609375 5.027344-2.902344v5.804688zm0 0"/><path d="m267.144531 185.804688 5.027344-2.902344v5.804687zm0 0"/><path d="m267.144531 180 5.027344-2.902344v5.804688zm0 0"/><path d="m267.144531 174.195312 5.027344-2.902343v5.804687zm0 0"/><path d="m267.144531 168.390625 5.027344-2.902344v5.804688zm0 0"/><path d="m267.144531 162.585938 5.027344-2.90625v5.808593zm0 0"/><path d="m267.144531 156.777344 5.027344-2.902344v5.804688zm0 0"/><path d="m267.144531 150.972656 5.027344-2.902344v5.804688zm0 0"/><path d="m267.144531 133.558594 5.027344-2.902344v5.804688zm0 0"/><path d="m262.117188 124.851562 5.027343-2.90625v5.808594zm0 0"/><path d="m252.0625 119.042969 5.027344-2.902344v5.804687zm0 0"/><path d="m216.867188 98.726562 5.027343-2.902343v5.804687zm0 0"/><path d="m186.703125 81.308594 5.027344-2.902344v5.804688zm0 0"/><path d="m161.566406 84.210938 5.027344-2.902344v5.808594zm0 0"/><path d="m156.539062 87.117188 5.027344-2.90625v5.808593zm0 0"/><path d="m151.511719 90.019531 5.027343-2.902343v5.804687zm0 0"/><path d="m146.484375 92.921875 5.027344-2.902344v5.804688zm0 0"/><path d="m141.457031 95.824219 5.027344-2.902344v5.804687zm0 0"/><path d="m86.152344 127.753906 5.027344-2.902344v5.804688zm0 0"/><path d="m86.152344 133.558594 5.027344-2.902344v5.804688zm0 0"/><path d="m86.152344 139.363281 5.027344-2.902343v5.804687zm0 0"/><path d="m86.152344 156.777344 5.027344-2.902344v5.804688zm0 0"/><path d="m86.152344 180 5.027344-2.902344v5.804688zm0 0"/><path d="m86.152344 185.804688 5.027344-2.902344v5.804687zm0 0"/><path d="m91.179688 235.148438 5.027343-2.902344v5.808594zm0 0"/><path d="m116.316406 249.664062 5.027344-2.902343v5.804687zm0 0"/><path d="m121.34375 252.566406 5.027344-2.902344v5.804688zm0 0"/><path d="m126.371094 255.46875 5.03125-2.902344v5.804688zm0 0"/><path d="m141.457031 264.175781 5.027344-2.902343v5.804687zm0 0"/><path d="m146.484375 267.078125 5.027344-2.902344v5.804688zm0 0"/><path d="m166.59375 278.691406 5.027344-2.902344v5.804688zm0 0"/><path d="m191.730469 275.789062 5.027343-2.90625v5.808594zm0 0"/><path d="m196.757812 272.882812 5.027344-2.902343v5.808593zm0 0"/><path d="m201.785156 269.980469 5.027344-2.902344v5.804687zm0 0"/><path d="m206.8125 267.078125 5.027344-2.902344v5.804688zm0 0"/><path d="m211.839844 264.175781 5.027344-2.902343v5.804687zm0 0"/><path d="m216.867188 261.273438 5.027343-2.902344v5.804687zm0 0"/><path d="m231.953125 252.566406 5.027344-2.902344v5.804688zm0 0"/><path d="m257.089844 238.054688 5.027344-2.90625v5.808593zm0 0"/><path d="m272.171875 211.929688 5.027344-2.902344v5.804687zm0 0"/><path d="m272.171875 206.125 5.027344-2.902344v5.804688zm0 0"/><path d="m272.171875 194.511719 5.027344-2.902344v5.804687zm0 0"/><path d="m272.171875 182.902344 5.027344-2.902344v5.804688zm0 0"/><path d="m272.171875 171.292969 5.027344-2.902344v5.804687zm0 0"/><path d="m272.171875 159.679688 5.027344-2.902344v5.808594zm0 0"/><path d="m272.171875 148.070312 5.027344-2.902343v5.804687zm0 0"/><path d="m272.171875 142.265625 5.027344-2.902344v5.804688zm0 0"/><path d="m267.144531 121.945312 5.027344-2.902343v5.808593zm0 0"/><path d="m262.117188 119.042969 5.027343-2.902344v5.804687zm0 0"/><path d="m252.0625 113.238281 5.027344-2.902343v5.804687zm0 0"/><path d="m236.980469 104.53125 5.027343-2.902344v5.804688zm0 0"/><path d="m226.921875 98.726562 5.03125-2.902343v5.804687zm0 0"/><path d="m161.566406 78.40625 5.027344-2.902344v5.804688zm0 0"/><path d="m151.511719 84.210938 5.027343-2.902344v5.808594zm0 0"/><path d="m146.484375 87.117188 5.027344-2.90625v5.808593zm0 0"/><path d="m131.402344 95.824219 5.027344-2.902344v5.804687zm0 0"/><path d="m126.371094 98.726562 5.03125-2.902343v5.804687zm0 0"/><path d="m121.34375 101.628906 5.027344-2.902344v5.804688zm0 0"/><path d="m81.125 159.679688 5.027344-2.902344v5.808594zm0 0"/><path d="m81.125 171.292969 5.027344-2.902344v5.804687zm0 0"/><path d="m81.125 177.097656 5.027344-2.902344v5.804688zm0 0"/><path d="m81.125 182.902344 5.027344-2.902344v5.804688zm0 0"/><path d="m81.125 188.707031 5.027344-2.902343v5.804687zm0 0"/><path d="m81.125 206.125 5.027344-2.902344v5.804688zm0 0"/><path d="m81.125 211.929688 5.027344-2.902344v5.804687zm0 0"/><path d="m81.125 223.539062 5.027344-2.902343v5.804687zm0 0"/><path d="m86.152344 238.054688 5.027344-2.90625v5.808593zm0 0"/><path d="m96.207031 243.859375 5.027344-2.902344v5.804688zm0 0"/><path d="m116.316406 255.46875 5.027344-2.902344v5.804688zm0 0"/><path d="m126.371094 261.273438 5.03125-2.902344v5.804687zm0 0"/><path d="m141.457031 269.980469 5.027344-2.902344v5.804687zm0 0"/><path d="m181.675781 287.398438 5.027344-2.902344v5.804687zm0 0"/><path d="m236.980469 255.46875 5.027343-2.902344v5.804688zm0 0"/><path d="m252.0625 246.761719 5.027344-2.902344v5.804687zm0 0"/><path d="m257.089844 243.859375 5.027344-2.902344v5.804688zm0 0"/><path d="m262.117188 240.957031 5.027343-2.902343v5.804687zm0 0"/><path d="m277.199219 191.609375 5.027343-2.902344v5.804688zm0 0"/><path d="m277.199219 185.804688 5.027343-2.902344v5.804687zm0 0"/><path d="m277.199219 168.390625 5.027343-2.902344v5.804688zm0 0"/><path d="m277.199219 162.585938 5.027343-2.90625v5.808593zm0 0"/><path d="m247.035156 104.53125 5.027344-2.902344v5.804688zm0 0"/><path d="m236.980469 98.726562 5.027343-2.902343v5.804687zm0 0"/><path d="m231.953125 95.824219 5.027344-2.902344v5.804687zm0 0"/><path d="m226.921875 92.921875 5.03125-2.902344v5.804688zm0 0"/><path d="m221.894531 90.019531 5.027344-2.902343v5.804687zm0 0"/><path d="m216.867188 87.117188 5.027343-2.90625v5.808593zm0 0"/><path d="m206.8125 81.308594 5.027344-2.902344v5.804688zm0 0"/><path d="m146.484375 81.308594 5.027344-2.902344v5.804688zm0 0"/><path d="m141.457031 84.210938 5.027344-2.902344v5.808594zm0 0"/><path d="m121.34375 95.824219 5.027344-2.902344v5.804687zm0 0"/><path d="m106.261719 104.53125 5.027343-2.902344v5.804688zm0 0"/><path d="m101.234375 107.433594 5.027344-2.902344v5.804688zm0 0"/><path d="m96.207031 110.335938 5.027344-2.902344v5.804687zm0 0"/><path d="m91.179688 113.238281 5.027343-2.902343v5.804687zm0 0"/><path d="m76.097656 162.585938 5.027344-2.90625v5.808593zm0 0"/><path d="m76.097656 168.390625 5.027344-2.902344v5.804688zm0 0"/><path d="m101.234375 252.566406 5.027344-2.902344v5.804688zm0 0"/><path d="m121.34375 264.175781 5.027344-2.902343v5.804687zm0 0"/><path d="m151.511719 281.59375 5.027343-2.902344v5.804688zm0 0"/><path d="m156.539062 284.496094 5.027344-2.902344v5.804688zm0 0"/><path d="m161.566406 287.398438 5.027344-2.902344v5.804687zm0 0"/><path d="m166.59375 290.300781 5.027344-2.902343v5.804687zm0 0"/><path d="m211.839844 275.789062 5.027344-2.90625v5.808594zm0 0"/><path d="m216.867188 272.882812 5.027343-2.902343v5.808593zm0 0"/><path d="m236.980469 261.273438 5.027343-2.902344v5.804687zm0 0"/><path d="m252.0625 252.566406 5.027344-2.902344v5.804688zm0 0"/><path d="m282.226562 206.125 5.027344-2.902344v5.804688zm0 0"/><path d="m282.226562 200.320312 5.027344-2.90625v5.808594zm0 0"/><path d="m282.226562 188.707031 5.027344-2.902343v5.804687zm0 0"/><path d="m282.226562 165.488281 5.027344-2.902343v5.804687zm0 0"/><path d="m282.226562 153.875 5.027344-2.902344v5.804688zm0 0"/><path d="m282.226562 148.070312 5.027344-2.902343v5.804687zm0 0"/><path d="m216.867188 81.308594 5.027343-2.902344v5.804688zm0 0"/><path d="m211.839844 78.40625 5.027344-2.902344v5.804688zm0 0"/><path d="m206.8125 75.503906 5.027344-2.902344v5.804688zm0 0"/><path d="m131.402344 84.210938 5.027344-2.902344v5.808594zm0 0"/><path d="m126.371094 87.117188 5.03125-2.90625v5.808593zm0 0"/><path d="m96.207031 104.53125 5.027344-2.902344v5.804688zm0 0"/><path d="m91.179688 107.433594 5.027343-2.902344v5.804688zm0 0"/><path d="m116.316406 267.078125 5.027344-2.902344v5.804688zm0 0"/><path d="m136.429688 278.691406 5.027343-2.902344v5.804688zm0 0"/><path d="m151.511719 287.398438 5.027343-2.902344v5.804687zm0 0"/><path d="m161.566406 293.203125 5.027344-2.902344v5.804688zm0 0"/><path d="m201.785156 287.398438 5.027344-2.902344v5.804687zm0 0"/><path d="m206.8125 284.496094 5.027344-2.902344v5.804688zm0 0"/><path d="m226.921875 272.882812 5.03125-2.902343v5.808593zm0 0"/><path d="m236.980469 267.078125 5.027343-2.902344v5.804688zm0 0"/><path d="m242.007812 264.175781 5.027344-2.902343v5.804687zm0 0"/><path d="m247.035156 261.273438 5.027344-2.902344v5.804687zm0 0"/><path d="m287.253906 197.414062 5.027344-2.902343v5.808593zm0 0"/><path d="m287.253906 185.804688 5.027344-2.902344v5.804687zm0 0"/><path d="m287.253906 180 5.027344-2.902344v5.804688zm0 0"/><path d="m287.253906 174.195312 5.027344-2.902343v5.804687zm0 0"/><path d="m287.253906 168.390625 5.027344-2.902344v5.804688zm0 0"/><path d="m287.253906 156.777344 5.027344-2.902344v5.804688zm0 0"/><path d="m136.429688 75.503906 5.027343-2.902344v5.804688zm0 0"/><path d="m131.402344 78.40625 5.027344-2.902344v5.804688zm0 0"/><path d="m121.34375 84.210938 5.027344-2.902344v5.808594zm0 0"/><path d="m101.234375 95.824219 5.027344-2.902344v5.804687zm0 0"/><path d="m96.207031 98.726562 5.027344-2.902343v5.804687zm0 0"/><path d="m116.316406 272.882812 5.027344-2.902343v5.808593zm0 0"/><path d="m121.34375 275.789062 5.027344-2.90625v5.808594zm0 0"/><path d="m131.402344 281.59375 5.027344-2.902344v5.804688zm0 0"/><path d="m136.429688 284.496094 5.027343-2.902344v5.804688zm0 0"/><path d="m156.539062 296.105469 5.027344-2.902344v5.804687zm0 0"/><path d="m166.59375 301.910156 5.027344-2.902344v5.804688zm0 0"/><path d="m206.8125 290.300781 5.027344-2.902343v5.804687zm0 0"/><path d="m211.839844 287.398438 5.027344-2.902344v5.804687zm0 0"/><path d="m226.921875 278.691406 5.03125-2.902344v5.804688zm0 0"/><path d="m231.953125 275.789062 5.027344-2.90625v5.808594zm0 0"/><path d="m236.980469 272.882812 5.027343-2.902343v5.808593zm0 0"/><path d="m292.28125 200.320312 5.027344-2.90625v5.808594zm0 0"/><path d="m292.28125 153.875 5.027344-2.902344v5.804688zm0 0"/><path d="m111.289062 275.789062 5.027344-2.90625v5.808594zm0 0"/><path d="m221.894531 287.398438 5.027344-2.902344v5.804687zm0 0"/><path d="m242.007812 275.789062 5.027344-2.90625v5.808594zm0 0"/><path d="m297.308594 185.804688 5.027344-2.902344v5.804687zm0 0"/><path d="m297.308594 180 5.027344-2.902344v5.804688zm0 0"/><path d="m297.308594 174.195312 5.027344-2.902343v5.804687zm0 0"/><path d="m297.308594 168.390625 5.027344-2.902344v5.804688zm0 0"/><path d="m236.980469 284.496094 5.027343-2.902344v5.804688zm0 0"/><path d="m302.335938 177.097656 5.027343-2.902344v5.804688zm0 0"/><path d="m307.363281 180 5.027344-2.902344v5.804688zm0 0"/><path d="m307.363281 174.195312 5.027344-2.902343v5.804687zm0 0"/><path d="m191.730469 177.097656-5.027344-2.902344v5.804688zm0 0"/><path d="m186.703125 174.195312-5.027344-2.902343v5.804687zm0 0"/><path d="m181.675781 171.292969-5.027343-2.902344v5.804687zm0 0"/><path d="m191.730469 171.292969-5.027344-2.902344v5.804687zm0 0"/><path d="m186.703125 168.390625-5.027344-2.902344v5.804688zm0 0"/><path d="m171.621094 171.292969-5.027344-2.902344v5.804687zm0 0"/><path d="m171.621094 182.902344-5.027344-2.902344v5.804688zm0 0"/><path d="m171.621094 188.707031-5.027344-2.902343v5.804687zm0 0"/><path d="m201.785156 188.707031-5.027344-2.902343v5.804687zm0 0"/><path d="m186.703125 162.585938-5.027344-2.90625v5.808593zm0 0"/><path d="m176.648438 162.585938-5.027344-2.90625v5.808593zm0 0"/><path d="m166.59375 168.390625-5.027344-2.902344v5.804688zm0 0"/><path d="m166.59375 174.195312-5.027344-2.902343v5.804687zm0 0"/><path d="m166.59375 185.804688-5.027344-2.902344v5.804687zm0 0"/><path d="m166.59375 191.609375-5.027344-2.902344v5.804688zm0 0"/><path d="m171.621094 194.511719-5.027344-2.902344v5.804687zm0 0"/><path d="m191.730469 194.511719-5.027344-2.902344v5.804687zm0 0"/><path d="m196.757812 191.609375-5.027343-2.902344v5.804688zm0 0"/><path d="m206.8125 191.609375-5.027344-2.902344v5.804688zm0 0"/><path d="m206.8125 185.804688-5.027344-2.902344v5.804687zm0 0"/><path d="m206.8125 168.390625-5.027344-2.902344v5.804688zm0 0"/><path d="m201.785156 165.488281-5.027344-2.902343v5.804687zm0 0"/><path d="m186.703125 156.777344-5.027344-2.902344v5.804688zm0 0"/><path d="m181.675781 153.875-5.027343-2.902344v5.804688zm0 0"/><path d="m161.566406 188.707031-5.027344-2.902343v5.804687zm0 0"/><path d="m171.621094 200.320312-5.027344-2.90625v5.808594zm0 0"/><path d="m186.703125 203.222656-5.027344-2.902344v5.804688zm0 0"/><path d="m206.8125 162.585938-5.027344-2.90625v5.808593zm0 0"/><path d="m186.703125 150.972656-5.027344-2.902344v5.804688zm0 0"/><path d="m181.675781 148.070312-5.027343-2.902343v5.804687zm0 0"/><path d="m176.648438 150.972656-5.027344-2.902344v5.804688zm0 0"/><path d="m166.59375 156.777344-5.027344-2.902344v5.804688zm0 0"/><path d="m156.539062 168.390625-5.027343-2.902344v5.804688zm0 0"/><path d="m156.539062 174.195312-5.027343-2.902343v5.804687zm0 0"/><path d="m156.539062 180-5.027343-2.902344v5.804688zm0 0"/><path d="m156.539062 185.804688-5.027343-2.902344v5.804687zm0 0"/><path d="m156.539062 197.414062-5.027343-2.902343v5.808593zm0 0"/><path d="m176.648438 209.027344-5.027344-2.902344v5.804688zm0 0"/><path d="m181.675781 211.929688-5.027343-2.902344v5.804687zm0 0"/><path d="m191.730469 206.125-5.027344-2.902344v5.804688zm0 0"/><path d="m201.785156 200.320312-5.027344-2.90625v5.808594zm0 0"/><path d="m216.867188 197.414062-5.027344-2.902343v5.808593zm0 0"/><path d="m216.867188 180-5.027344-2.902344v5.804688zm0 0"/><path d="m216.867188 174.195312-5.027344-2.902343v5.804687zm0 0"/><path d="m211.839844 159.679688-5.027344-2.902344v5.808594zm0 0"/><path d="m196.757812 150.972656-5.027343-2.902344v5.804688zm0 0"/><path d="m191.730469 148.070312-5.027344-2.902343v5.804687zm0 0"/><path d="m181.675781 142.265625-5.027343-2.902344v5.804688zm0 0"/><path d="m176.648438 145.167969-5.027344-2.902344v5.804687zm0 0"/><path d="m171.621094 148.070312-5.027344-2.902343v5.804687zm0 0"/><path d="m166.59375 150.972656-5.027344-2.902344v5.804688zm0 0"/><path d="m161.566406 153.875-5.027344-2.902344v5.804688zm0 0"/><path d="m151.511719 171.292969-5.027344-2.902344v5.804687zm0 0"/><path d="m151.511719 182.902344-5.027344-2.902344v5.804688zm0 0"/><path d="m151.511719 200.320312-5.027344-2.90625v5.808594zm0 0"/><path d="m156.539062 203.222656-5.027343-2.902344v5.804688zm0 0"/><path d="m176.648438 214.832031-5.027344-2.902343v5.804687zm0 0"/><path d="m196.757812 209.027344-5.027343-2.902344v5.804688zm0 0"/><path d="m201.785156 206.125-5.027344-2.902344v5.804688zm0 0"/><path d="m221.894531 200.320312-5.027343-2.90625v5.808594zm0 0"/><path d="m221.894531 194.511719-5.027343-2.902344v5.804687zm0 0"/><path d="m221.894531 159.679688-5.027343-2.902344v5.808594zm0 0"/><path d="m216.867188 156.777344-5.027344-2.902344v5.804688zm0 0"/><path d="m196.757812 145.167969-5.027343-2.902344v5.804687zm0 0"/><path d="m186.703125 139.363281-5.027344-2.902343v5.804687zm0 0"/><path d="m151.511719 153.875-5.027344-2.902344v5.804688zm0 0"/><path d="m146.484375 168.390625-5.027344-2.902344v5.804688zm0 0"/><path d="m166.59375 214.832031-5.027344-2.902343v5.804687zm0 0"/><path d="m181.675781 223.539062-5.027343-2.902343v5.804687zm0 0"/><path d="m186.703125 220.636719-5.027344-2.902344v5.804687zm0 0"/><path d="m191.730469 217.734375-5.027344-2.902344v5.804688zm0 0"/><path d="m196.757812 214.832031-5.027343-2.902343v5.804687zm0 0"/><path d="m211.839844 206.125-5.027344-2.902344v5.804688zm0 0"/><path d="m226.921875 203.222656-5.027344-2.902344v5.804688zm0 0"/><path d="m226.921875 191.609375-5.027344-2.902344v5.804688zm0 0"/><path d="m226.921875 162.585938-5.027344-2.90625v5.808593zm0 0"/><path d="m221.894531 153.875-5.027343-2.902344v5.804688zm0 0"/><path d="m206.8125 145.167969-5.027344-2.902344v5.804687zm0 0"/><path d="m201.785156 142.265625-5.027344-2.902344v5.804688zm0 0"/><path d="m186.703125 133.558594-5.027344-2.902344v5.804688zm0 0"/><path d="m181.675781 130.65625-5.027343-2.902344v5.804688zm0 0"/><path d="m161.566406 142.265625-5.027344-2.902344v5.804688zm0 0"/><path d="m151.511719 148.070312-5.027344-2.902343v5.804687zm0 0"/><path d="m146.484375 150.972656-5.027344-2.902344v5.804688zm0 0"/><path d="m141.457031 153.875-5.027343-2.902344v5.804688zm0 0"/><path d="m141.457031 206.125-5.027343-2.902344v5.804688zm0 0"/><path d="m146.484375 209.027344-5.027344-2.902344v5.804688zm0 0"/><path d="m161.566406 217.734375-5.027344-2.902344v5.804688zm0 0"/><path d="m166.59375 220.636719-5.027344-2.902344v5.804687zm0 0"/><path d="m171.621094 223.539062-5.027344-2.902343v5.804687zm0 0"/><path d="m176.648438 226.441406-5.027344-2.902344v5.804688zm0 0"/><path d="m181.675781 229.34375-5.027343-2.902344v5.804688zm0 0"/><path d="m186.703125 226.441406-5.027344-2.902344v5.804688zm0 0"/><path d="m191.730469 223.539062-5.027344-2.902343v5.804687zm0 0"/><path d="m196.757812 220.636719-5.027343-2.902344v5.804687zm0 0"/><path d="m206.8125 214.832031-5.027344-2.902343v5.804687zm0 0"/><path d="m211.839844 211.929688-5.027344-2.902344v5.804687zm0 0"/><path d="m216.867188 209.027344-5.027344-2.902344v5.804688zm0 0"/><path d="m231.953125 206.125-5.03125-2.902344v5.804688zm0 0"/><path d="m231.953125 200.320312-5.03125-2.90625v5.808594zm0 0"/><path d="m231.953125 194.511719-5.03125-2.902344v5.804687zm0 0"/><path d="m231.953125 188.707031-5.03125-2.902343v5.804687zm0 0"/><path d="m231.953125 177.097656-5.03125-2.902344v5.804688zm0 0"/><path d="m231.953125 165.488281-5.03125-2.902343v5.804687zm0 0"/><path d="m231.953125 159.679688-5.03125-2.902344v5.808594zm0 0"/><path d="m231.953125 153.875-5.03125-2.902344v5.804688zm0 0"/><path d="m226.921875 150.972656-5.027344-2.902344v5.804688zm0 0"/><path d="m211.839844 142.265625-5.027344-2.902344v5.804688zm0 0"/><path d="m206.8125 139.363281-5.027344-2.902343v5.804687zm0 0"/><path d="m186.703125 127.753906-5.027344-2.902344v5.804688zm0 0"/><path d="m176.648438 127.753906-5.027344-2.902344v5.804688zm0 0"/><path d="m161.566406 136.460938-5.027344-2.902344v5.804687zm0 0"/><path d="m156.539062 139.363281-5.027343-2.902343v5.804687zm0 0"/><path d="m151.511719 142.265625-5.027344-2.902344v5.804688zm0 0"/><path d="m136.429688 174.195312-5.027344-2.902343v5.804687zm0 0"/><path d="m136.429688 180-5.027344-2.902344v5.804688zm0 0"/><path d="m136.429688 185.804688-5.027344-2.902344v5.804687zm0 0"/><path d="m136.429688 191.609375-5.027344-2.902344v5.804688zm0 0"/><path d="m136.429688 197.414062-5.027344-2.902343v5.808593zm0 0"/><path d="m136.429688 209.027344-5.027344-2.902344v5.804688zm0 0"/><path d="m151.511719 217.734375-5.027344-2.902344v5.804688zm0 0"/><path d="m186.703125 232.246094-5.027344-2.902344v5.804688zm0 0"/><path d="m196.757812 226.441406-5.027343-2.902344v5.804688zm0 0"/><path d="m236.980469 185.804688-5.027344-2.902344v5.804687zm0 0"/><path d="m236.980469 180-5.027344-2.902344v5.804688zm0 0"/><path d="m236.980469 174.195312-5.027344-2.902343v5.804687zm0 0"/><path d="m236.980469 168.390625-5.027344-2.902344v5.804688zm0 0"/><path d="m231.953125 148.070312-5.03125-2.902343v5.804687zm0 0"/><path d="m211.839844 136.460938-5.027344-2.902344v5.804687zm0 0"/><path d="m186.703125 121.945312-5.027344-2.902343v5.808593zm0 0"/><path d="m181.675781 119.042969-5.027343-2.902344v5.804687zm0 0"/><path d="m176.648438 121.945312-5.027344-2.902343v5.808593zm0 0"/><path d="m171.621094 124.851562-5.027344-2.90625v5.808594zm0 0"/><path d="m166.59375 127.753906-5.027344-2.902344v5.804688zm0 0"/><path d="m161.566406 130.65625-5.027344-2.902344v5.804688zm0 0"/><path d="m156.539062 133.558594-5.027343-2.902344v5.804688zm0 0"/><path d="m141.457031 142.265625-5.027343-2.902344v5.804688zm0 0"/><path d="m131.402344 148.070312-5.03125-2.902343v5.804687zm0 0"/><path d="m131.402344 153.875-5.03125-2.902344v5.804688zm0 0"/><path d="m131.402344 159.679688-5.03125-2.902344v5.808594zm0 0"/><path d="m131.402344 177.097656-5.03125-2.902344v5.804688zm0 0"/><path d="m131.402344 182.902344-5.03125-2.902344v5.804688zm0 0"/><path d="m131.402344 194.511719-5.03125-2.902344v5.804687zm0 0"/><path d="m141.457031 217.734375-5.027343-2.902344v5.804688zm0 0"/><path d="m146.484375 220.636719-5.027344-2.902344v5.804687zm0 0"/><path d="m151.511719 223.539062-5.027344-2.902343v5.804687zm0 0"/><path d="m166.59375 232.246094-5.027344-2.902344v5.804688zm0 0"/><path d="m201.785156 229.34375-5.027344-2.902344v5.804688zm0 0"/><path d="m206.8125 226.441406-5.027344-2.902344v5.804688zm0 0"/><path d="m211.839844 223.539062-5.027344-2.902343v5.804687zm0 0"/><path d="m216.867188 220.636719-5.027344-2.902344v5.804687zm0 0"/><path d="m221.894531 217.734375-5.027343-2.902344v5.804688zm0 0"/><path d="m242.007812 211.929688-5.027343-2.902344v5.804687zm0 0"/><path d="m242.007812 188.707031-5.027343-2.902343v5.804687zm0 0"/><path d="m242.007812 165.488281-5.027343-2.902343v5.804687zm0 0"/><path d="m186.703125 116.140625-5.027344-2.902344v5.804688zm0 0"/><path d="m151.511719 130.65625-5.027344-2.902344v5.804688zm0 0"/><path d="m141.457031 136.460938-5.027343-2.902344v5.804687zm0 0"/><path d="m131.402344 142.265625-5.03125-2.902344v5.804688zm0 0"/><path d="m126.371094 150.972656-5.027344-2.902344v5.804688zm0 0"/><path d="m126.371094 156.777344-5.027344-2.902344v5.804688zm0 0"/><path d="m126.371094 180-5.027344-2.902344v5.804688zm0 0"/><path d="m126.371094 209.027344-5.027344-2.902344v5.804688zm0 0"/><path d="m126.371094 214.832031-5.027344-2.902343v5.804687zm0 0"/><path d="m131.402344 217.734375-5.03125-2.902344v5.804688zm0 0"/><path d="m136.429688 220.636719-5.027344-2.902344v5.804687zm0 0"/><path d="m151.511719 229.34375-5.027344-2.902344v5.804688zm0 0"/><path d="m161.566406 235.148438-5.027344-2.902344v5.808594zm0 0"/><path d="m166.59375 238.054688-5.027344-2.90625v5.808593zm0 0"/><path d="m176.648438 243.859375-5.027344-2.902344v5.804688zm0 0"/><path d="m206.8125 232.246094-5.027344-2.902344v5.804688zm0 0"/><path d="m216.867188 226.441406-5.027344-2.902344v5.804688zm0 0"/><path d="m221.894531 223.539062-5.027343-2.902343v5.804687zm0 0"/><path d="m236.980469 214.832031-5.027344-2.902343v5.804687zm0 0"/><path d="m247.035156 197.414062-5.027344-2.902343v5.808593zm0 0"/><path d="m247.035156 191.609375-5.027344-2.902344v5.804688zm0 0"/><path d="m247.035156 185.804688-5.027344-2.902344v5.804687zm0 0"/><path d="m247.035156 168.390625-5.027344-2.902344v5.804688zm0 0"/><path d="m247.035156 162.585938-5.027344-2.90625v5.808593zm0 0"/><path d="m247.035156 156.777344-5.027344-2.902344v5.804688zm0 0"/><path d="m247.035156 145.167969-5.027344-2.902344v5.804687zm0 0"/><path d="m242.007812 142.265625-5.027343-2.902344v5.804688zm0 0"/><path d="m236.980469 139.363281-5.027344-2.902343v5.804687zm0 0"/><path d="m231.953125 136.460938-5.03125-2.902344v5.804687zm0 0"/><path d="m226.921875 133.558594-5.027344-2.902344v5.804688zm0 0"/><path d="m221.894531 130.65625-5.027343-2.902344v5.804688zm0 0"/><path d="m216.867188 127.753906-5.027344-2.902344v5.804688zm0 0"/><path d="m211.839844 124.851562-5.027344-2.90625v5.808594zm0 0"/><path d="m206.8125 121.945312-5.027344-2.902343v5.808593zm0 0"/><path d="m201.785156 119.042969-5.027344-2.902344v5.804687zm0 0"/><path d="m151.511719 124.851562-5.027344-2.90625v5.808594zm0 0"/><path d="m146.484375 127.753906-5.027344-2.902344v5.804688zm0 0"/><path d="m131.402344 136.460938-5.03125-2.902344v5.804687zm0 0"/><path d="m126.371094 139.363281-5.027344-2.902343v5.804687zm0 0"/><path d="m121.34375 153.875-5.027344-2.902344v5.804688zm0 0"/><path d="m121.34375 159.679688-5.027344-2.902344v5.808594zm0 0"/><path d="m121.34375 165.488281-5.027344-2.902343v5.804687zm0 0"/><path d="m121.34375 182.902344-5.027344-2.902344v5.804688zm0 0"/><path d="m121.34375 188.707031-5.027344-2.902343v5.804687zm0 0"/><path d="m121.34375 200.320312-5.027344-2.90625v5.808594zm0 0"/><path d="m121.34375 211.929688-5.027344-2.902344v5.804687zm0 0"/><path d="m136.429688 226.441406-5.027344-2.902344v5.804688zm0 0"/><path d="m166.59375 243.859375-5.027344-2.902344v5.804688zm0 0"/><path d="m171.621094 246.761719-5.027344-2.902344v5.804687zm0 0"/><path d="m176.648438 249.664062-5.027344-2.902343v5.804687zm0 0"/><path d="m221.894531 229.34375-5.027343-2.902344v5.804688zm0 0"/><path d="m242.007812 217.734375-5.027343-2.902344v5.804688zm0 0"/><path d="m252.0625 206.125-5.027344-2.902344v5.804688zm0 0"/><path d="m252.0625 182.902344-5.027344-2.902344v5.804688zm0 0"/><path d="m252.0625 177.097656-5.027344-2.902344v5.804688zm0 0"/><path d="m252.0625 171.292969-5.027344-2.902344v5.804687zm0 0"/><path d="m247.035156 139.363281-5.027344-2.902343v5.804687zm0 0"/><path d="m231.953125 130.65625-5.03125-2.902344v5.804688zm0 0"/><path d="m226.921875 127.753906-5.027344-2.902344v5.804688zm0 0"/><path d="m211.839844 119.042969-5.027344-2.902344v5.804687zm0 0"/><path d="m206.8125 116.140625-5.027344-2.902344v5.804688zm0 0"/><path d="m191.730469 107.433594-5.027344-2.902344v5.804688zm0 0"/><path d="m186.703125 104.53125-5.027344-2.902344v5.804688zm0 0"/><path d="m151.511719 119.042969-5.027344-2.902344v5.804687zm0 0"/><path d="m146.484375 121.945312-5.027344-2.902343v5.808593zm0 0"/><path d="m141.457031 124.851562-5.027343-2.90625v5.808594zm0 0"/><path d="m131.402344 130.65625-5.03125-2.902344v5.804688zm0 0"/><path d="m126.371094 133.558594-5.027344-2.902344v5.804688zm0 0"/><path d="m116.316406 145.167969-5.027344-2.902344v5.804687zm0 0"/><path d="m116.316406 150.972656-5.027344-2.902344v5.804688zm0 0"/><path d="m116.316406 162.585938-5.027344-2.90625v5.808593zm0 0"/><path d="m116.316406 185.804688-5.027344-2.902344v5.804687zm0 0"/><path d="m116.316406 197.414062-5.027344-2.902343v5.808593zm0 0"/><path d="m116.316406 203.222656-5.027344-2.902344v5.804688zm0 0"/><path d="m131.402344 229.34375-5.03125-2.902344v5.804688zm0 0"/><path d="m136.429688 232.246094-5.027344-2.902344v5.804688zm0 0"/><path d="m151.511719 240.957031-5.027344-2.902343v5.804687zm0 0"/><path d="m181.675781 258.371094-5.027343-2.902344v5.804688zm0 0"/><path d="m186.703125 255.46875-5.027344-2.902344v5.804688zm0 0"/><path d="m191.730469 252.566406-5.027344-2.902344v5.804688zm0 0"/><path d="m196.757812 249.664062-5.027343-2.902343v5.804687zm0 0"/><path d="m201.785156 246.761719-5.027344-2.902344v5.804687zm0 0"/><path d="m206.8125 243.859375-5.027344-2.902344v5.804688zm0 0"/><path d="m211.839844 240.957031-5.027344-2.902343v5.804687zm0 0"/><path d="m216.867188 238.054688-5.027344-2.90625v5.808593zm0 0"/><path d="m221.894531 235.148438-5.027343-2.902344v5.808594zm0 0"/><path d="m242.007812 223.539062-5.027343-2.902343v5.804687zm0 0"/><path d="m257.089844 220.636719-5.027344-2.902344v5.804687zm0 0"/><path d="m257.089844 209.027344-5.027344-2.902344v5.804688zm0 0"/><path d="m257.089844 203.222656-5.027344-2.902344v5.804688zm0 0"/><path d="m257.089844 150.972656-5.027344-2.902344v5.804688zm0 0"/><path d="m242.007812 130.65625-5.027343-2.902344v5.804688zm0 0"/><path d="m231.953125 124.851562-5.03125-2.90625v5.808594zm0 0"/><path d="m221.894531 119.042969-5.027343-2.902344v5.804687zm0 0"/><path d="m211.839844 113.238281-5.027344-2.902343v5.804687zm0 0"/><path d="m191.730469 101.628906-5.027344-2.902344v5.804688zm0 0"/><path d="m171.621094 101.628906-5.027344-2.902344v5.804688zm0 0"/><path d="m161.566406 107.433594-5.027344-2.902344v5.804688zm0 0"/><path d="m141.457031 119.042969-5.027343-2.902344v5.804687zm0 0"/><path d="m126.371094 127.753906-5.027344-2.902344v5.804688zm0 0"/><path d="m121.34375 130.65625-5.027344-2.902344v5.804688zm0 0"/><path d="m111.289062 148.070312-5.027343-2.902343v5.804687zm0 0"/><path d="m111.289062 211.929688-5.027343-2.902344v5.804687zm0 0"/><path d="m111.289062 217.734375-5.027343-2.902344v5.804688zm0 0"/><path d="m111.289062 223.539062-5.027343-2.902343v5.804687zm0 0"/><path d="m116.316406 226.441406-5.027344-2.902344v5.804688zm0 0"/><path d="m126.371094 232.246094-5.027344-2.902344v5.804688zm0 0"/><path d="m146.484375 243.859375-5.027344-2.902344v5.804688zm0 0"/><path d="m151.511719 246.761719-5.027344-2.902344v5.804687zm0 0"/><path d="m176.648438 261.273438-5.027344-2.902344v5.804687zm0 0"/><path d="m181.675781 264.175781-5.027343-2.902343v5.804687zm0 0"/><path d="m196.757812 255.46875-5.027343-2.902344v5.804688zm0 0"/><path d="m201.785156 252.566406-5.027344-2.902344v5.804688zm0 0"/><path d="m211.839844 246.761719-5.027344-2.902344v5.804687zm0 0"/><path d="m216.867188 243.859375-5.027344-2.902344v5.804688zm0 0"/><path d="m231.953125 235.148438-5.03125-2.902344v5.808594zm0 0"/><path d="m236.980469 232.246094-5.027344-2.902344v5.804688zm0 0"/><path d="m242.007812 229.34375-5.027343-2.902344v5.804688zm0 0"/><path d="m252.0625 223.539062-5.027344-2.902343v5.804687zm0 0"/><path d="m262.117188 211.929688-5.027344-2.902344v5.804687zm0 0"/><path d="m262.117188 206.125-5.027344-2.902344v5.804688zm0 0"/><path d="m262.117188 200.320312-5.027344-2.90625v5.808594zm0 0"/><path d="m262.117188 177.097656-5.027344-2.902344v5.804688zm0 0"/><path d="m262.117188 153.875-5.027344-2.902344v5.804688zm0 0"/><path d="m262.117188 148.070312-5.027344-2.902343v5.804687zm0 0"/><path d="m201.785156 101.628906-5.027344-2.902344v5.804688zm0 0"/><path d="m196.757812 98.726562-5.027343-2.902343v5.804687zm0 0"/><path d="m181.675781 90.019531-5.027343-2.902343v5.804687zm0 0"/><path d="m171.621094 95.824219-5.027344-2.902344v5.804687zm0 0"/><path d="m166.59375 98.726562-5.027344-2.902343v5.804687zm0 0"/><path d="m161.566406 101.628906-5.027344-2.902344v5.804688zm0 0"/><path d="m156.539062 104.53125-5.027343-2.902344v5.804688zm0 0"/><path d="m141.457031 113.238281-5.027343-2.902343v5.804687zm0 0"/><path d="m106.261719 133.558594-5.027344-2.902344v5.804688zm0 0"/><path d="m106.261719 139.363281-5.027344-2.902343v5.804687zm0 0"/><path d="m106.261719 145.167969-5.027344-2.902344v5.804687zm0 0"/><path d="m106.261719 174.195312-5.027344-2.902343v5.804687zm0 0"/><path d="m106.261719 180-5.027344-2.902344v5.804688zm0 0"/><path d="m106.261719 185.804688-5.027344-2.902344v5.804687zm0 0"/><path d="m106.261719 191.609375-5.027344-2.902344v5.804688zm0 0"/><path d="m106.261719 197.414062-5.027344-2.902343v5.808593zm0 0"/><path d="m106.261719 214.832031-5.027344-2.902343v5.804687zm0 0"/><path d="m106.261719 226.441406-5.027344-2.902344v5.804688zm0 0"/><path d="m111.289062 229.34375-5.027343-2.902344v5.804688zm0 0"/><path d="m126.371094 238.054688-5.027344-2.90625v5.808593zm0 0"/><path d="m156.539062 255.46875-5.027343-2.902344v5.804688zm0 0"/><path d="m171.621094 264.175781-5.027344-2.902343v5.804687zm0 0"/><path d="m201.785156 258.371094-5.027344-2.902344v5.804688zm0 0"/><path d="m216.867188 249.664062-5.027344-2.902343v5.804687zm0 0"/><path d="m242.007812 235.148438-5.027343-2.902344v5.808594zm0 0"/><path d="m257.089844 226.441406-5.027344-2.902344v5.804688zm0 0"/><path d="m267.144531 214.832031-5.027343-2.902343v5.804687zm0 0"/><path d="m267.144531 197.414062-5.027343-2.902343v5.808593zm0 0"/><path d="m267.144531 180-5.027343-2.902344v5.804688zm0 0"/><path d="m267.144531 174.195312-5.027343-2.902343v5.804687zm0 0"/><path d="m267.144531 156.777344-5.027343-2.902344v5.804688zm0 0"/><path d="m267.144531 139.363281-5.027343-2.902343v5.804687zm0 0"/><path d="m252.0625 124.851562-5.027344-2.90625v5.808594zm0 0"/><path d="m247.035156 121.945312-5.027344-2.902343v5.808593zm0 0"/><path d="m242.007812 119.042969-5.027343-2.902344v5.804687zm0 0"/><path d="m236.980469 116.140625-5.027344-2.902344v5.804688zm0 0"/><path d="m231.953125 113.238281-5.03125-2.902343v5.804687zm0 0"/><path d="m226.921875 110.335938-5.027344-2.902344v5.804687zm0 0"/><path d="m221.894531 107.433594-5.027343-2.902344v5.804688zm0 0"/><path d="m216.867188 104.53125-5.027344-2.902344v5.804688zm0 0"/><path d="m201.785156 95.824219-5.027344-2.902344v5.804687zm0 0"/><path d="m181.675781 84.210938-5.027343-2.902344v5.808594zm0 0"/><path d="m176.648438 87.117188-5.027344-2.90625v5.808593zm0 0"/><path d="m171.621094 90.019531-5.027344-2.902343v5.804687zm0 0"/><path d="m166.59375 92.921875-5.027344-2.902344v5.804688zm0 0"/><path d="m161.566406 95.824219-5.027344-2.902344v5.804687zm0 0"/><path d="m156.539062 98.726562-5.027343-2.902343v5.804687zm0 0"/><path d="m141.457031 107.433594-5.027343-2.902344v5.804688zm0 0"/><path d="m136.429688 110.335938-5.027344-2.902344v5.804687zm0 0"/><path d="m106.261719 127.753906-5.027344-2.902344v5.804688zm0 0"/><path d="m101.234375 177.097656-5.027344-2.902344v5.804688zm0 0"/><path d="m101.234375 188.707031-5.027344-2.902343v5.804687zm0 0"/><path d="m101.234375 194.511719-5.027344-2.902344v5.804687zm0 0"/><path d="m101.234375 206.125-5.027344-2.902344v5.804688zm0 0"/><path d="m121.34375 240.957031-5.027344-2.902343v5.804687zm0 0"/><path d="m126.371094 243.859375-5.027344-2.902344v5.804688zm0 0"/><path d="m131.402344 246.761719-5.03125-2.902344v5.804687zm0 0"/><path d="m166.59375 267.078125-5.027344-2.902344v5.804688zm0 0"/><path d="m171.621094 269.980469-5.027344-2.902344v5.804687zm0 0"/><path d="m181.675781 275.789062-5.027343-2.90625v5.808594zm0 0"/><path d="m206.8125 261.273438-5.027344-2.902344v5.804687zm0 0"/><path d="m221.894531 252.566406-5.027343-2.902344v5.804688zm0 0"/><path d="m226.921875 249.664062-5.027344-2.902343v5.804687zm0 0"/><path d="m236.980469 243.859375-5.027344-2.902344v5.804688zm0 0"/><path d="m272.171875 211.929688-5.027344-2.902344v5.804687zm0 0"/><path d="m272.171875 142.265625-5.027344-2.902344v5.804688zm0 0"/><path d="m272.171875 136.460938-5.027344-2.902344v5.804687zm0 0"/><path d="m272.171875 130.65625-5.027344-2.902344v5.804688zm0 0"/><path d="m267.144531 127.753906-5.027343-2.902344v5.804688zm0 0"/><path d="m252.0625 119.042969-5.027344-2.902344v5.804687zm0 0"/><path d="m247.035156 116.140625-5.027344-2.902344v5.804688zm0 0"/><path d="m242.007812 113.238281-5.027343-2.902343v5.804687zm0 0"/><path d="m231.953125 107.433594-5.03125-2.902344v5.804688zm0 0"/><path d="m226.921875 104.53125-5.027344-2.902344v5.804688zm0 0"/><path d="m221.894531 101.628906-5.027343-2.902344v5.804688zm0 0"/><path d="m191.730469 84.210938-5.027344-2.902344v5.808594zm0 0"/><path d="m186.703125 81.308594-5.027344-2.902344v5.804688zm0 0"/><path d="m181.675781 78.40625-5.027343-2.902344v5.804688zm0 0"/><path d="m176.648438 81.308594-5.027344-2.902344v5.804688zm0 0"/><path d="m141.457031 101.628906-5.027343-2.902344v5.804688zm0 0"/><path d="m136.429688 104.53125-5.027344-2.902344v5.804688zm0 0"/><path d="m131.402344 107.433594-5.03125-2.902344v5.804688zm0 0"/><path d="m126.371094 110.335938-5.027344-2.902344v5.804687zm0 0"/><path d="m116.316406 116.140625-5.027344-2.902344v5.804688zm0 0"/><path d="m106.261719 121.945312-5.027344-2.902343v5.808593zm0 0"/><path d="m101.234375 124.851562-5.027344-2.90625v5.808594zm0 0"/><path d="m96.207031 139.363281-5.027343-2.902343v5.804687zm0 0"/><path d="m96.207031 150.972656-5.027343-2.902344v5.804688zm0 0"/><path d="m96.207031 156.777344-5.027343-2.902344v5.804688zm0 0"/><path d="m96.207031 162.585938-5.027343-2.90625v5.808593zm0 0"/><path d="m96.207031 168.390625-5.027343-2.902344v5.804688zm0 0"/><path d="m96.207031 174.195312-5.027343-2.902343v5.804687zm0 0"/><path d="m96.207031 191.609375-5.027343-2.902344v5.804688zm0 0"/><path d="m116.316406 243.859375-5.027344-2.902344v5.804688zm0 0"/><path d="m141.457031 258.371094-5.027343-2.902344v5.804688zm0 0"/><path d="m161.566406 269.980469-5.027344-2.902344v5.804687zm0 0"/><path d="m166.59375 272.882812-5.027344-2.902343v5.808593zm0 0"/><path d="m181.675781 281.59375-5.027343-2.902344v5.804688zm0 0"/><path d="m186.703125 278.691406-5.027344-2.902344v5.804688zm0 0"/><path d="m191.730469 275.789062-5.027344-2.90625v5.808594zm0 0"/><path d="m216.867188 261.273438-5.027344-2.902344v5.804687zm0 0"/><path d="m226.921875 255.46875-5.027344-2.902344v5.804688zm0 0"/><path d="m242.007812 246.761719-5.027343-2.902344v5.804687zm0 0"/><path d="m252.0625 240.957031-5.027344-2.902343v5.804687zm0 0"/><path d="m257.089844 238.054688-5.027344-2.90625v5.808593zm0 0"/><path d="m267.144531 232.246094-5.027343-2.902344v5.804688zm0 0"/><path d="m277.199219 214.832031-5.027344-2.902343v5.804687zm0 0"/><path d="m277.199219 191.609375-5.027344-2.902344v5.804688zm0 0"/><path d="m277.199219 162.585938-5.027344-2.90625v5.808593zm0 0"/><path d="m252.0625 113.238281-5.027344-2.902343v5.804687zm0 0"/><path d="m247.035156 110.335938-5.027344-2.902344v5.804687zm0 0"/><path d="m236.980469 104.53125-5.027344-2.902344v5.804688zm0 0"/><path d="m226.921875 98.726562-5.027344-2.902343v5.804687zm0 0"/><path d="m221.894531 95.824219-5.027343-2.902344v5.804687zm0 0"/><path d="m216.867188 92.921875-5.027344-2.902344v5.804688zm0 0"/><path d="m211.839844 90.019531-5.027344-2.902343v5.804687zm0 0"/><path d="m206.8125 87.117188-5.027344-2.90625v5.808593zm0 0"/><path d="m201.785156 84.210938-5.027344-2.902344v5.808594zm0 0"/><path d="m196.757812 81.308594-5.027343-2.902344v5.804688zm0 0"/><path d="m191.730469 78.40625-5.027344-2.902344v5.804688zm0 0"/><path d="m186.703125 75.503906-5.027344-2.902344v5.804688zm0 0"/><path d="m156.539062 87.117188-5.027343-2.90625v5.808593zm0 0"/><path d="m151.511719 90.019531-5.027344-2.902343v5.804687zm0 0"/><path d="m121.34375 107.433594-5.027344-2.902344v5.804688zm0 0"/><path d="m116.316406 110.335938-5.027344-2.902344v5.804687zm0 0"/><path d="m111.289062 113.238281-5.027343-2.902343v5.804687zm0 0"/><path d="m106.261719 116.140625-5.027344-2.902344v5.804688zm0 0"/><path d="m101.234375 119.042969-5.027344-2.902344v5.804687zm0 0"/><path d="m96.207031 121.945312-5.027343-2.902343v5.808593zm0 0"/><path d="m91.179688 165.488281-5.027344-2.902343v5.804687zm0 0"/><path d="m91.179688 171.292969-5.027344-2.902344v5.804687zm0 0"/><path d="m91.179688 206.125-5.027344-2.902344v5.804688zm0 0"/><path d="m91.179688 211.929688-5.027344-2.902344v5.804687zm0 0"/><path d="m91.179688 217.734375-5.027344-2.902344v5.804688zm0 0"/><path d="m91.179688 223.539062-5.027344-2.902343v5.804687zm0 0"/><path d="m91.179688 229.34375-5.027344-2.902344v5.804688zm0 0"/><path d="m101.234375 240.957031-5.027344-2.902343v5.804687zm0 0"/><path d="m106.261719 243.859375-5.027344-2.902344v5.804688zm0 0"/><path d="m111.289062 246.761719-5.027343-2.902344v5.804687zm0 0"/><path d="m116.316406 249.664062-5.027344-2.902343v5.804687zm0 0"/><path d="m141.457031 264.175781-5.027343-2.902343v5.804687zm0 0"/><path d="m156.539062 272.882812-5.027343-2.902343v5.808593zm0 0"/><path d="m161.566406 275.789062-5.027344-2.90625v5.808594zm0 0"/><path d="m166.59375 278.691406-5.027344-2.902344v5.804688zm0 0"/><path d="m176.648438 284.496094-5.027344-2.902344v5.804688zm0 0"/><path d="m181.675781 287.398438-5.027343-2.902344v5.804687zm0 0"/><path d="m191.730469 281.59375-5.027344-2.902344v5.804688zm0 0"/><path d="m231.953125 258.371094-5.03125-2.902344v5.804688zm0 0"/><path d="m247.035156 249.664062-5.027344-2.902343v5.804687zm0 0"/><path d="m252.0625 246.761719-5.027344-2.902344v5.804687zm0 0"/><path d="m282.226562 200.320312-5.027343-2.90625v5.808594zm0 0"/><path d="m282.226562 177.097656-5.027343-2.902344v5.804688zm0 0"/><path d="m282.226562 153.875-5.027343-2.902344v5.804688zm0 0"/><path d="m272.171875 119.042969-5.027344-2.902344v5.804687zm0 0"/><path d="m267.144531 116.140625-5.027343-2.902344v5.804688zm0 0"/><path d="m252.0625 107.433594-5.027344-2.902344v5.804688zm0 0"/><path d="m226.921875 92.921875-5.027344-2.902344v5.804688zm0 0"/><path d="m221.894531 90.019531-5.027343-2.902343v5.804687zm0 0"/><path d="m216.867188 87.117188-5.027344-2.90625v5.808593zm0 0"/><path d="m206.8125 81.308594-5.027344-2.902344v5.804688zm0 0"/><path d="m201.785156 78.40625-5.027344-2.902344v5.804688zm0 0"/><path d="m161.566406 78.40625-5.027344-2.902344v5.804688zm0 0"/><path d="m156.539062 81.308594-5.027343-2.902344v5.804688zm0 0"/><path d="m151.511719 84.210938-5.027344-2.902344v5.808594zm0 0"/><path d="m121.34375 101.628906-5.027344-2.902344v5.804688zm0 0"/><path d="m86.152344 180-5.027344-2.902344v5.804688zm0 0"/><path d="m86.152344 185.804688-5.027344-2.902344v5.804687zm0 0"/><path d="m86.152344 191.609375-5.027344-2.902344v5.804688zm0 0"/><path d="m86.152344 209.027344-5.027344-2.902344v5.804688zm0 0"/><path d="m86.152344 214.832031-5.027344-2.902343v5.804687zm0 0"/><path d="m91.179688 240.957031-5.027344-2.902343v5.804687zm0 0"/><path d="m116.316406 255.46875-5.027344-2.902344v5.804688zm0 0"/><path d="m136.429688 267.078125-5.027344-2.902344v5.804688zm0 0"/><path d="m141.457031 269.980469-5.027343-2.902344v5.804687zm0 0"/><path d="m151.511719 275.789062-5.027344-2.90625v5.808594zm0 0"/><path d="m206.8125 278.691406-5.027344-2.902344v5.804688zm0 0"/><path d="m211.839844 275.789062-5.027344-2.90625v5.808594zm0 0"/><path d="m216.867188 272.882812-5.027344-2.902343v5.808593zm0 0"/><path d="m221.894531 269.980469-5.027343-2.902344v5.804687zm0 0"/><path d="m226.921875 267.078125-5.027344-2.902344v5.804688zm0 0"/><path d="m231.953125 264.175781-5.03125-2.902343v5.804687zm0 0"/><path d="m236.980469 261.273438-5.027344-2.902344v5.804687zm0 0"/><path d="m252.0625 252.566406-5.027344-2.902344v5.804688zm0 0"/><path d="m267.144531 243.859375-5.027343-2.902344v5.804688zm0 0"/><path d="m287.253906 203.222656-5.027344-2.902344v5.804688zm0 0"/><path d="m287.253906 197.414062-5.027344-2.902343v5.808593zm0 0"/><path d="m287.253906 180-5.027344-2.902344v5.804688zm0 0"/><path d="m287.253906 174.195312-5.027344-2.902343v5.804687zm0 0"/><path d="m287.253906 156.777344-5.027344-2.902344v5.804688zm0 0"/><path d="m287.253906 150.972656-5.027344-2.902344v5.804688zm0 0"/><path d="m242.007812 95.824219-5.027343-2.902344v5.804687zm0 0"/><path d="m236.980469 92.921875-5.027344-2.902344v5.804688zm0 0"/><path d="m226.921875 87.117188-5.027344-2.90625v5.808593zm0 0"/><path d="m206.8125 75.503906-5.027344-2.902344v5.804688zm0 0"/><path d="m161.566406 72.601562-5.027344-2.902343v5.804687zm0 0"/><path d="m156.539062 75.503906-5.027343-2.902344v5.804688zm0 0"/><path d="m136.429688 87.117188-5.027344-2.90625v5.808593zm0 0"/><path d="m121.34375 95.824219-5.027344-2.902344v5.804687zm0 0"/><path d="m116.316406 98.726562-5.027344-2.902343v5.804687zm0 0"/><path d="m101.234375 107.433594-5.027344-2.902344v5.804688zm0 0"/><path d="m96.207031 110.335938-5.027343-2.902344v5.804687zm0 0"/><path d="m81.125 165.488281-5.027344-2.902343v5.804687zm0 0"/><path d="m116.316406 261.273438-5.027344-2.902344v5.804687zm0 0"/><path d="m131.402344 269.980469-5.03125-2.902344v5.804687zm0 0"/><path d="m136.429688 272.882812-5.027344-2.902343v5.808593zm0 0"/><path d="m151.511719 281.59375-5.027344-2.902344v5.804688zm0 0"/><path d="m211.839844 281.59375-5.027344-2.902344v5.804688zm0 0"/><path d="m216.867188 278.691406-5.027344-2.902344v5.804688zm0 0"/><path d="m221.894531 275.789062-5.027343-2.90625v5.808594zm0 0"/><path d="m226.921875 272.882812-5.027344-2.902343v5.808593zm0 0"/><path d="m236.980469 267.078125-5.027344-2.902344v5.804688zm0 0"/><path d="m252.0625 258.371094-5.027344-2.902344v5.804688zm0 0"/><path d="m292.28125 200.320312-5.027344-2.90625v5.808594zm0 0"/><path d="m292.28125 194.511719-5.027344-2.902344v5.804687zm0 0"/><path d="m292.28125 159.679688-5.027344-2.902344v5.808594zm0 0"/><path d="m292.28125 153.875-5.027344-2.902344v5.804688zm0 0"/><path d="m231.953125 84.210938-5.03125-2.902344v5.808594zm0 0"/><path d="m221.894531 78.40625-5.027343-2.902344v5.804688zm0 0"/><path d="m216.867188 75.503906-5.027344-2.902344v5.804688zm0 0"/><path d="m151.511719 72.601562-5.027344-2.902343v5.804687zm0 0"/><path d="m146.484375 75.503906-5.027344-2.902344v5.804688zm0 0"/><path d="m141.457031 78.40625-5.027343-2.902344v5.804688zm0 0"/><path d="m136.429688 81.308594-5.027344-2.902344v5.804688zm0 0"/><path d="m121.34375 90.019531-5.027344-2.902343v5.804687zm0 0"/><path d="m111.289062 95.824219-5.027343-2.902344v5.804687zm0 0"/><path d="m106.261719 98.726562-5.027344-2.902343v5.804687zm0 0"/><path d="m121.34375 269.980469-5.027344-2.902344v5.804687zm0 0"/><path d="m136.429688 278.691406-5.027344-2.902344v5.804688zm0 0"/><path d="m141.457031 281.59375-5.027343-2.902344v5.804688zm0 0"/><path d="m146.484375 284.496094-5.027344-2.902344v5.804688zm0 0"/><path d="m171.621094 299.007812-5.027344-2.902343v5.804687zm0 0"/><path d="m216.867188 284.496094-5.027344-2.902344v5.804688zm0 0"/><path d="m221.894531 281.59375-5.027343-2.902344v5.804688zm0 0"/><path d="m226.921875 278.691406-5.027344-2.902344v5.804688zm0 0"/><path d="m297.308594 197.414062-5.027344-2.902343v5.808593zm0 0"/><path d="m297.308594 191.609375-5.027344-2.902344v5.804688zm0 0"/><path d="m297.308594 162.585938-5.027344-2.90625v5.808593zm0 0"/><path d="m297.308594 156.777344-5.027344-2.902344v5.804688zm0 0"/><path d="m126.371094 81.308594-5.027344-2.902344v5.804688zm0 0"/><path d="m121.34375 275.789062-5.027344-2.90625v5.808594zm0 0"/><path d="m221.894531 287.398438-5.027343-2.902344v5.804687zm0 0"/><path d="m226.921875 284.496094-5.027344-2.902344v5.804688zm0 0"/><path d="m247.035156 272.882812-5.027344-2.902343v5.808593zm0 0"/><path d="m302.335938 200.320312-5.027344-2.90625v5.808594zm0 0"/><path d="m302.335938 194.511719-5.027344-2.902344v5.804687zm0 0"/><path d="m302.335938 188.707031-5.027344-2.902343v5.804687zm0 0"/><path d="m302.335938 182.902344-5.027344-2.902344v5.804688zm0 0"/><path d="m302.335938 177.097656-5.027344-2.902344v5.804688zm0 0"/><path d="m302.335938 171.292969-5.027344-2.902344v5.804687zm0 0"/><path d="m302.335938 165.488281-5.027344-2.902343v5.804687zm0 0"/><path d="m302.335938 159.679688-5.027344-2.902344v5.808594zm0 0"/><path d="m302.335938 153.875-5.027344-2.902344v5.804688zm0 0"/><path d="m226.921875 290.300781-5.027344-2.902343v5.804687zm0 0"/><path d="m242.007812 281.59375-5.027343-2.902344v5.804688zm0 0"/><path d="m247.035156 278.691406-5.027344-2.902344v5.804688zm0 0"/><path d="m307.363281 180-5.027343-2.902344v5.804688zm0 0"/><path d="m307.363281 174.195312-5.027343-2.902343v5.804687zm0 0"/><path d="m312.390625 177.097656-5.027344-2.902344v5.804688zm0 0"/></g></svg>