<svg height="360pt" viewBox="0 0 360 360" width="360pt" xmlns="http://www.w3.org/2000/svg"><path d="m0 0h360v360h-360z" fill="#fff"/><g fill="#800080"><path d="m171.714844 180 12.425781-7.175781v14.351562zm0 0"/><path d="m184.140625 187.175781 12.429687-7.175781v14.347656zm0 0"/><path d="m171.714844 165.652344 12.425781-7.175782v14.347657zm0 0"/><path d="m159.289062 172.824219 12.425782-7.171875v14.347656zm0 0"/><path d="m171.714844 194.347656 12.425781-7.171875v14.347657zm0 0"/><path d="m196.570312 194.347656 12.425782-7.171875v14.347657zm0 0"/><path d="m196.570312 180 12.425782-7.175781v14.351562zm0 0"/><path d="m196.570312 165.652344 12.425782-7.175782v14.347657zm0 0"/><path d="m159.289062 158.476562 12.425782-7.175781v14.351563zm0 0"/><path d="m146.859375 165.652344 12.429687-7.175782v14.347657zm0 0"/><path d="m146.859375 194.347656 12.429687-7.171875v14.347657zm0 0"/><path d="m171.714844 208.699219 12.425781-7.175781v14.351562zm0 0"/><path d="m184.140625 201.523438 12.429687-7.175782v14.351563zm0 0"/><path d="m208.996094 158.476562 12.425781-7.175781v14.351563zm0 0"/><path d="m184.140625 144.125 12.429687-7.171875v14.347656zm0 0"/><path d="m146.859375 151.300781 12.429687-7.175781v14.351562zm0 0"/><path d="m184.140625 215.875 12.429687-7.175781v14.347656zm0 0"/><path d="m221.421875 208.699219 12.429687-7.175781v14.351562zm0 0"/><path d="m221.421875 194.347656 12.429687-7.171875v14.347657zm0 0"/><path d="m221.421875 165.652344 12.429687-7.175782v14.347657zm0 0"/><path d="m221.421875 151.300781 12.429687-7.175781v14.351562zm0 0"/><path d="m184.140625 129.777344 12.429687-7.175782v14.351563zm0 0"/><path d="m171.714844 122.601562 12.425781-7.175781v14.351563zm0 0"/><path d="m146.859375 136.953125 12.429687-7.175781v14.347656zm0 0"/><path d="m122.007812 165.652344 12.425782-7.175782v14.347657zm0 0"/><path d="m122.007812 180 12.425782-7.175781v14.351562zm0 0"/><path d="m122.007812 194.347656 12.425782-7.171875v14.347657zm0 0"/><path d="m196.570312 223.046875 12.425782-7.171875v14.347656zm0 0"/><path d="m233.851562 201.523438 12.425782-7.175782v14.351563zm0 0"/><path d="m233.851562 158.476562 12.425782-7.175781v14.351563zm0 0"/><path d="m159.289062 115.425781 12.425782-7.171875v14.347656zm0 0"/><path d="m146.859375 122.601562 12.429687-7.175781v14.351563zm0 0"/><path d="m134.433594 129.777344 12.425781-7.175782v14.351563zm0 0"/><path d="m122.007812 136.953125 12.425782-7.175781v14.347656zm0 0"/><path d="m146.859375 108.253906 12.429687-7.175781v14.347656zm0 0"/><path d="m134.433594 115.425781 12.425781-7.171875v14.347656zm0 0"/><path d="m122.007812 122.601562 12.425782-7.175781v14.351563zm0 0"/><path d="m134.433594 101.078125 12.425781-7.175781v14.351562zm0 0"/><path d="m196.570312 165.652344-12.429687-7.175782v14.347657zm0 0"/><path d="m171.714844 180-12.425782-7.175781v14.351562zm0 0"/><path d="m171.714844 194.347656-12.425782-7.171875v14.347657zm0 0"/><path d="m208.996094 158.476562-12.425782-7.175781v14.351563zm0 0"/><path d="m159.289062 172.824219-12.429687-7.171875v14.347656zm0 0"/><path d="m159.289062 187.175781-12.429687-7.175781v14.347656zm0 0"/><path d="m159.289062 201.523438-12.429687-7.175782v14.351563zm0 0"/><path d="m171.714844 208.699219-12.425782-7.175781v14.351562zm0 0"/><path d="m233.851562 172.824219-12.429687-7.171875v14.347656zm0 0"/><path d="m221.421875 151.300781-12.425781-7.175781v14.351562zm0 0"/><path d="m146.859375 165.652344-12.425781-7.175782v14.347657zm0 0"/><path d="m146.859375 180-12.425781-7.175781v14.351562zm0 0"/><path d="m146.859375 194.347656-12.425781-7.171875v14.347657zm0 0"/><path d="m196.570312 223.046875-12.429687-7.171875v14.347656zm0 0"/></g></svg>