<svg height="360pt" viewBox="0 0 360 360" width="360pt" xmlns="http://www.w3.org/2000/svg"><path d="m0 0h360v360h-360z" fill="#fff"/><g fill="#800080"><path d="m174.070312 180 8.894532-5.132812v10.265624zm0 0"/><path d="m182.964844 185.132812 8.894531-5.132812v10.269531zm0 0"/><path d="m182.964844 174.867188 8.894531-5.136719v10.269531zm0 0"/><path d="m174.070312 169.730469 8.894532-5.132813v10.269532zm0 0"/><path d="m165.175781 174.867188 8.894531-5.136719v10.269531zm0 0"/><path d="m165.175781 185.132812 8.894531-5.132812v10.269531zm0 0"/><path d="m174.070312 190.269531 8.894532-5.136719v10.269532zm0 0"/><path d="m209.644531 200.539062 8.894531-5.136718v10.269531zm0 0"/><path d="m209.644531 159.460938 8.894531-5.132813v10.269531zm0 0"/><path d="m200.75 154.328125 8.894531-5.136719v10.269532zm0 0"/><path d="m182.964844 144.058594 8.894531-5.136719v10.269531zm0 0"/><path d="m174.070312 138.921875 8.894532-5.132813v10.269532zm0 0"/><path d="m138.496094 159.460938 8.894531-5.132813v10.269531zm0 0"/><path d="m138.496094 169.730469 8.894531-5.132813v10.269532zm0 0"/><path d="m138.496094 190.269531 8.894531-5.136719v10.269532zm0 0"/><path d="m138.496094 200.539062 8.894531-5.136718v10.269531zm0 0"/><path d="m174.070312 221.078125 8.894532-5.136719v10.269532zm0 0"/><path d="m182.964844 215.941406 8.894531-5.132812v10.269531zm0 0"/><path d="m200.75 205.671875 8.894531-5.132813v10.269532zm0 0"/><path d="m209.644531 149.191406 8.894531-5.132812v10.269531zm0 0"/><path d="m200.75 144.058594 8.894531-5.136719v10.269531zm0 0"/><path d="m191.859375 138.921875 8.890625-5.132813v10.269532zm0 0"/><path d="m182.964844 133.789062 8.894531-5.136718v10.269531zm0 0"/><path d="m129.601562 164.597656 8.894532-5.136718v10.269531zm0 0"/><path d="m129.601562 174.867188 8.894532-5.136719v10.269531zm0 0"/><path d="m129.601562 185.132812 8.894532-5.132812v10.269531zm0 0"/><path d="m129.601562 195.402344 8.894532-5.132813v10.269531zm0 0"/><path d="m182.964844 226.210938 8.894531-5.132813v10.269531zm0 0"/><path d="m191.859375 221.078125 8.890625-5.136719v10.269532zm0 0"/><path d="m200.75 215.941406 8.894531-5.132812v10.269531zm0 0"/><path d="m209.644531 210.808594 8.894531-5.136719v10.269531zm0 0"/><path d="m227.433594 200.539062 8.890625-5.136718v10.269531zm0 0"/><path d="m227.433594 190.269531 8.890625-5.136719v10.269532zm0 0"/><path d="m227.433594 169.730469 8.890625-5.132813v10.269532zm0 0"/><path d="m227.433594 159.460938 8.890625-5.132813v10.269531zm0 0"/><path d="m218.539062 144.058594 8.894532-5.136719v10.269531zm0 0"/><path d="m209.644531 138.921875 8.894531-5.132813v10.269532zm0 0"/><path d="m191.859375 128.652344 8.890625-5.132813v10.269531zm0 0"/><path d="m182.964844 123.519531 8.894531-5.136719v10.269532zm0 0"/><path d="m165.175781 123.519531 8.894531-5.136719v10.269532zm0 0"/><path d="m156.285156 128.652344 8.890625-5.132813v10.269531zm0 0"/><path d="m138.496094 138.921875 8.894531-5.132813v10.269532zm0 0"/><path d="m129.601562 144.058594 8.894532-5.136719v10.269531zm0 0"/><path d="m120.710938 159.460938 8.890624-5.132813v10.269531zm0 0"/><path d="m120.710938 169.730469 8.890624-5.132813v10.269532zm0 0"/><path d="m120.710938 190.269531 8.890624-5.136719v10.269532zm0 0"/><path d="m120.710938 200.539062 8.890624-5.136718v10.269531zm0 0"/><path d="m129.601562 215.941406 8.894532-5.132812v10.269531zm0 0"/><path d="m138.496094 221.078125 8.894531-5.136719v10.269532zm0 0"/><path d="m156.285156 231.347656 8.890625-5.136718v10.269531zm0 0"/><path d="m165.175781 236.480469 8.894531-5.132813v10.269532zm0 0"/><path d="m182.964844 236.480469 8.894531-5.132813v10.269532zm0 0"/><path d="m191.859375 231.347656 8.890625-5.136718v10.269531zm0 0"/><path d="m209.644531 221.078125 8.894531-5.136719v10.269532zm0 0"/><path d="m218.539062 215.941406 8.894532-5.132812v10.269531zm0 0"/><path d="m236.324219 195.402344 8.894531-5.132813v10.269531zm0 0"/><path d="m236.324219 164.597656 8.894531-5.136718v10.269531zm0 0"/><path d="m209.644531 128.652344 8.894531-5.132813v10.269531zm0 0"/><path d="m200.75 123.519531 8.894531-5.136719v10.269532zm0 0"/><path d="m156.285156 118.382812 8.890625-5.132812v10.269531zm0 0"/><path d="m129.601562 133.789062 8.894532-5.136718v10.269531zm0 0"/><path d="m111.816406 174.867188 8.894532-5.136719v10.269531zm0 0"/><path d="m111.816406 185.132812 8.894532-5.132812v10.269531zm0 0"/><path d="m129.601562 226.210938 8.894532-5.132813v10.269531zm0 0"/><path d="m156.285156 241.617188 8.890625-5.136719v10.269531zm0 0"/><path d="m200.75 236.480469 8.894531-5.132813v10.269532zm0 0"/><path d="m209.644531 231.347656 8.894531-5.136718v10.269531zm0 0"/><path d="m245.21875 210.808594 8.894531-5.136719v10.269531zm0 0"/><path d="m245.21875 149.191406 8.894531-5.132812v10.269531zm0 0"/><path d="m218.539062 123.519531 8.894532-5.136719v10.269532zm0 0"/><path d="m200.75 113.25 8.894531-5.136719v10.269531zm0 0"/><path d="m165.175781 102.980469 8.894531-5.136719v10.269531zm0 0"/><path d="m111.816406 133.789062 8.894532-5.136718v10.269531zm0 0"/><path d="m102.921875 169.730469 8.894531-5.132813v10.269532zm0 0"/><path d="m102.921875 190.269531 8.894531-5.136719v10.269532zm0 0"/><path d="m111.816406 226.210938 8.894532-5.132813v10.269531zm0 0"/><path d="m165.175781 257.019531 8.894531-5.132812v10.269531zm0 0"/><path d="m200.75 246.75 8.894531-5.132812v10.269531zm0 0"/><path d="m218.539062 236.480469 8.894532-5.132813v10.269532zm0 0"/><path d="m254.113281 205.671875 8.894531-5.132813v10.269532zm0 0"/><path d="m254.113281 185.132812 8.894531-5.132812v10.269531zm0 0"/><path d="m254.113281 174.867188 8.894531-5.136719v10.269531zm0 0"/><path d="m254.113281 154.328125 8.894531-5.136719v10.269532zm0 0"/><path d="m156.285156 97.84375 8.890625-5.132812v10.269531zm0 0"/><path d="m138.496094 108.113281 8.894531-5.132812v10.269531zm0 0"/><path d="m129.601562 113.25 8.894532-5.136719v10.269531zm0 0"/><path d="m111.816406 123.519531 8.894532-5.136719v10.269532zm0 0"/><path d="m111.816406 236.480469 8.894532-5.132813v10.269532zm0 0"/><path d="m129.601562 246.75 8.894532-5.132812v10.269531zm0 0"/><path d="m138.496094 251.886719 8.894531-5.136719v10.269531zm0 0"/><path d="m156.285156 262.15625 8.890625-5.136719v10.269531zm0 0"/><path d="m263.007812 231.347656 8.894532-5.136718v10.269531zm0 0"/><path d="m263.007812 210.808594 8.894532-5.136719v10.269531zm0 0"/><path d="m263.007812 149.191406 8.894532-5.132812v10.269531zm0 0"/><path d="m263.007812 128.652344 8.894532-5.132813v10.269531zm0 0"/><path d="m227.433594 108.113281 8.890625-5.132812v10.269531zm0 0"/><path d="m209.644531 97.84375 8.894531-5.132812v10.269531zm0 0"/><path d="m174.070312 77.304688 8.894532-5.132813v10.269531zm0 0"/><path d="m156.285156 87.574219 8.890625-5.132813v10.269532zm0 0"/><path d="m102.921875 118.382812 8.894531-5.132812v10.269531zm0 0"/><path d="m85.136719 128.652344 8.890625-5.132813v10.269531zm0 0"/><path d="m85.136719 169.730469 8.890625-5.132813v10.269532zm0 0"/><path d="m85.136719 190.269531 8.890625-5.136719v10.269532zm0 0"/><path d="m85.136719 231.347656 8.890625-5.136718v10.269531zm0 0"/><path d="m102.921875 241.617188 8.894531-5.136719v10.269531zm0 0"/><path d="m156.285156 272.425781 8.890625-5.136719v10.269532zm0 0"/><path d="m174.070312 282.695312 8.894532-5.136718v10.269531zm0 0"/><path d="m209.644531 262.15625 8.894531-5.136719v10.269531zm0 0"/><path d="m227.433594 251.886719 8.890625-5.136719v10.269531zm0 0"/><path d="m271.902344 215.941406 8.890625-5.132812v10.269531zm0 0"/><path d="m271.902344 195.402344 8.890625-5.132813v10.269531zm0 0"/><path d="m271.902344 185.132812 8.890625-5.132812v10.269531zm0 0"/><path d="m271.902344 174.867188 8.890625-5.136719v10.269531zm0 0"/><path d="m271.902344 164.597656 8.890625-5.136718v10.269531zm0 0"/><path d="m271.902344 144.058594 8.890625-5.136719v10.269531zm0 0"/><path d="m254.113281 113.25 8.894531-5.136719v10.269531zm0 0"/><path d="m236.324219 102.980469 8.894531-5.136719v10.269531zm0 0"/><path d="m227.433594 97.84375 8.890625-5.132812v10.269531zm0 0"/><path d="m218.539062 92.710938 8.894532-5.136719v10.269531zm0 0"/><path d="m209.644531 87.574219 8.894531-5.132813v10.269532zm0 0"/><path d="m191.859375 77.304688 8.890625-5.132813v10.269531zm0 0"/><path d="m156.285156 77.304688 8.890625-5.132813v10.269531zm0 0"/><path d="m138.496094 87.574219 8.894531-5.132813v10.269532zm0 0"/><path d="m129.601562 92.710938 8.894532-5.136719v10.269531zm0 0"/><path d="m120.710938 97.84375 8.890624-5.132812v10.269531zm0 0"/><path d="m111.816406 102.980469 8.894532-5.136719v10.269531zm0 0"/><path d="m94.027344 113.25 8.894531-5.136719v10.269531zm0 0"/><path d="m76.242188 144.058594 8.894531-5.136719v10.269531zm0 0"/><path d="m76.242188 164.597656 8.894531-5.136718v10.269531zm0 0"/><path d="m76.242188 174.867188 8.894531-5.136719v10.269531zm0 0"/><path d="m76.242188 185.132812 8.894531-5.132812v10.269531zm0 0"/><path d="m76.242188 195.402344 8.894531-5.132813v10.269531zm0 0"/><path d="m76.242188 215.941406 8.894531-5.132812v10.269531zm0 0"/><path d="m94.027344 246.75 8.894531-5.132812v10.269531zm0 0"/><path d="m111.816406 257.019531 8.894532-5.132812v10.269531zm0 0"/><path d="m120.710938 262.15625 8.890624-5.136719v10.269531zm0 0"/><path d="m129.601562 267.289062 8.894532-5.132812v10.269531zm0 0"/><path d="m138.496094 272.425781 8.894531-5.136719v10.269532zm0 0"/><path d="m156.285156 282.695312 8.890625-5.136718v10.269531zm0 0"/><path d="m191.859375 282.695312 8.890625-5.136718v10.269531zm0 0"/><path d="m209.644531 272.425781 8.894531-5.136719v10.269532zm0 0"/><path d="m218.539062 267.289062 8.894532-5.132812v10.269531zm0 0"/><path d="m227.433594 262.15625 8.890625-5.136719v10.269531zm0 0"/><path d="m236.324219 257.019531 8.894531-5.132812v10.269531zm0 0"/><path d="m254.113281 246.75 8.894531-5.132812v10.269531zm0 0"/><path d="m280.792969 210.808594 8.894531-5.136719v10.269531zm0 0"/><path d="m280.792969 149.191406 8.894531-5.132812v10.269531zm0 0"/><path d="m271.902344 113.25 8.890625-5.136719v10.269531zm0 0"/><path d="m263.007812 108.113281 8.894532-5.132812v10.269531zm0 0"/><path d="m191.859375 67.035156 8.890625-5.132812v10.269531zm0 0"/><path d="m182.964844 61.902344 8.894531-5.136719v10.269531zm0 0"/><path d="m147.390625 72.171875 8.894531-5.136719v10.269532zm0 0"/><path d="m94.027344 102.980469 8.894531-5.136719v10.269531zm0 0"/><path d="m67.347656 128.652344 8.894532-5.132813v10.269531zm0 0"/><path d="m67.347656 138.921875 8.894532-5.132813v10.269532zm0 0"/><path d="m67.347656 221.078125 8.894532-5.136719v10.269532zm0 0"/><path d="m67.347656 231.347656 8.894532-5.136718v10.269531zm0 0"/><path d="m94.027344 257.019531 8.894531-5.132812v10.269531zm0 0"/><path d="m147.390625 287.828125 8.894531-5.132813v10.269532zm0 0"/><path d="m182.964844 298.097656 8.894531-5.132812v10.269531zm0 0"/><path d="m191.859375 292.964844 8.890625-5.136719v10.269531zm0 0"/><path d="m263.007812 251.886719 8.894532-5.136719v10.269531zm0 0"/><path d="m271.902344 246.75 8.890625-5.132812v10.269531zm0 0"/><path d="m191.859375 180-8.894531-5.132812v10.265624zm0 0"/><path d="m182.964844 174.867188-8.894532-5.136719v10.269531zm0 0"/><path d="m182.964844 185.132812-8.894532-5.132812v10.269531zm0 0"/><path d="m218.539062 185.132812-8.894531-5.132812v10.269531zm0 0"/><path d="m218.539062 174.867188-8.894531-5.136719v10.269531zm0 0"/><path d="m174.070312 149.191406-8.894531-5.132812v10.269531zm0 0"/><path d="m165.175781 154.328125-8.890625-5.136719v10.269532zm0 0"/><path d="m165.175781 205.671875-8.890625-5.132813v10.269532zm0 0"/><path d="m174.070312 210.808594-8.894531-5.136719v10.269531zm0 0"/><path d="m218.539062 154.328125-8.894531-5.136719v10.269532zm0 0"/><path d="m191.859375 138.921875-8.894531-5.132813v10.269532zm0 0"/><path d="m147.390625 164.597656-8.894531-5.136718v10.269531zm0 0"/><path d="m147.390625 195.402344-8.894531-5.132813v10.269531zm0 0"/><path d="m191.859375 221.078125-8.894531-5.136719v10.269532zm0 0"/><path d="m218.539062 205.671875-8.894531-5.132813v10.269532zm0 0"/><path d="m227.433594 149.191406-8.894532-5.132812v10.269531zm0 0"/><path d="m218.539062 144.058594-8.894531-5.136719v10.269531zm0 0"/><path d="m200.75 133.789062-8.890625-5.136718v10.269531zm0 0"/><path d="m191.859375 128.652344-8.894531-5.132813v10.269531zm0 0"/><path d="m138.496094 159.460938-8.894532-5.132813v10.269531zm0 0"/><path d="m138.496094 169.730469-8.894532-5.132813v10.269532zm0 0"/><path d="m138.496094 190.269531-8.894532-5.136719v10.269532zm0 0"/><path d="m138.496094 200.539062-8.894532-5.136718v10.269531zm0 0"/><path d="m191.859375 231.347656-8.894531-5.136718v10.269531zm0 0"/><path d="m200.75 226.210938-8.890625-5.132813v10.269531zm0 0"/><path d="m218.539062 215.941406-8.894531-5.132812v10.269531zm0 0"/><path d="m227.433594 210.808594-8.894532-5.136719v10.269531zm0 0"/><path d="m245.21875 210.808594-8.894531-5.136719v10.269531zm0 0"/><path d="m245.21875 149.191406-8.894531-5.132812v10.269531zm0 0"/><path d="m227.433594 138.921875-8.894532-5.132813v10.269532zm0 0"/><path d="m200.75 123.519531-8.890625-5.136719v10.269532zm0 0"/><path d="m182.964844 113.25-8.894532-5.136719v10.269531zm0 0"/><path d="m129.601562 144.058594-8.890624-5.136719v10.269531zm0 0"/><path d="m129.601562 164.597656-8.890624-5.136718v10.269531zm0 0"/><path d="m129.601562 195.402344-8.890624-5.132813v10.269531zm0 0"/><path d="m129.601562 215.941406-8.890624-5.132812v10.269531zm0 0"/><path d="m182.964844 246.75-8.894532-5.132812v10.269531zm0 0"/><path d="m200.75 236.480469-8.890625-5.132813v10.269532zm0 0"/><path d="m227.433594 221.078125-8.894532-5.136719v10.269532zm0 0"/><path d="m254.113281 215.941406-8.894531-5.132812v10.269531zm0 0"/><path d="m254.113281 195.402344-8.894531-5.132813v10.269531zm0 0"/><path d="m254.113281 185.132812-8.894531-5.132812v10.269531zm0 0"/><path d="m254.113281 174.867188-8.894531-5.136719v10.269531zm0 0"/><path d="m254.113281 164.597656-8.894531-5.136718v10.269531zm0 0"/><path d="m254.113281 144.058594-8.894531-5.136719v10.269531zm0 0"/><path d="m236.324219 133.789062-8.890625-5.136718v10.269531zm0 0"/><path d="m200.75 113.25-8.890625-5.136719v10.269531zm0 0"/><path d="m182.964844 102.980469-8.894532-5.136719v10.269531zm0 0"/><path d="m165.175781 113.25-8.890625-5.136719v10.269531zm0 0"/><path d="m156.285156 118.382812-8.894531-5.132812v10.269531zm0 0"/><path d="m147.390625 123.519531-8.894531-5.136719v10.269532zm0 0"/><path d="m138.496094 128.652344-8.894532-5.132813v10.269531zm0 0"/><path d="m120.710938 138.921875-8.894532-5.132813v10.269532zm0 0"/><path d="m120.710938 159.460938-8.894532-5.132813v10.269531zm0 0"/><path d="m120.710938 200.539062-8.894532-5.136718v10.269531zm0 0"/><path d="m120.710938 221.078125-8.894532-5.136719v10.269532zm0 0"/><path d="m138.496094 231.347656-8.894532-5.136718v10.269531zm0 0"/><path d="m147.390625 236.480469-8.894531-5.132813v10.269532zm0 0"/><path d="m156.285156 241.617188-8.894531-5.136719v10.269531zm0 0"/><path d="m165.175781 246.75-8.890625-5.132812v10.269531zm0 0"/><path d="m182.964844 257.019531-8.894532-5.132812v10.269531zm0 0"/><path d="m200.75 246.75-8.890625-5.132812v10.269531zm0 0"/><path d="m236.324219 226.210938-8.890625-5.132813v10.269531zm0 0"/><path d="m245.21875 128.652344-8.894531-5.132813v10.269531zm0 0"/><path d="m200.75 102.980469-8.890625-5.136719v10.269531zm0 0"/><path d="m111.816406 154.328125-8.894531-5.136719v10.269532zm0 0"/><path d="m111.816406 205.671875-8.894531-5.132813v10.269532zm0 0"/><path d="m200.75 257.019531-8.890625-5.132812v10.269531zm0 0"/><path d="m245.21875 231.347656-8.894531-5.136718v10.269531zm0 0"/><path d="m271.902344 226.210938-8.894532-5.132813v10.269531zm0 0"/><path d="m271.902344 133.789062-8.894532-5.136718v10.269531zm0 0"/><path d="m245.21875 118.382812-8.894531-5.132812v10.269531zm0 0"/><path d="m236.324219 113.25-8.890625-5.136719v10.269531zm0 0"/><path d="m218.539062 102.980469-8.894531-5.136719v10.269531zm0 0"/><path d="m209.644531 97.84375-8.894531-5.132812v10.269531zm0 0"/><path d="m182.964844 82.441406-8.894532-5.136718v10.269531zm0 0"/><path d="m102.921875 128.652344-8.894531-5.132813v10.269531zm0 0"/><path d="m102.921875 159.460938-8.894531-5.132813v10.269531zm0 0"/><path d="m102.921875 169.730469-8.894531-5.132813v10.269532zm0 0"/><path d="m102.921875 190.269531-8.894531-5.136719v10.269532zm0 0"/><path d="m102.921875 200.539062-8.894531-5.136718v10.269531zm0 0"/><path d="m102.921875 231.347656-8.894531-5.136718v10.269531zm0 0"/><path d="m182.964844 277.558594-8.894532-5.132813v10.269531zm0 0"/><path d="m209.644531 262.15625-8.894531-5.136719v10.269531zm0 0"/><path d="m218.539062 257.019531-8.894531-5.132812v10.269531zm0 0"/><path d="m236.324219 246.75-8.890625-5.132812v10.269531zm0 0"/><path d="m245.21875 241.617188-8.894531-5.136719v10.269531zm0 0"/><path d="m280.792969 221.078125-8.890625-5.136719v10.269532zm0 0"/><path d="m280.792969 190.269531-8.890625-5.136719v10.269532zm0 0"/><path d="m280.792969 169.730469-8.890625-5.132813v10.269532zm0 0"/><path d="m280.792969 138.921875-8.890625-5.132813v10.269532zm0 0"/><path d="m245.21875 108.113281-8.894531-5.132812v10.269531zm0 0"/><path d="m218.539062 92.710938-8.894531-5.136719v10.269531zm0 0"/><path d="m174.070312 77.304688-8.894531-5.132813v10.269531zm0 0"/><path d="m147.390625 92.710938-8.894531-5.136719v10.269531zm0 0"/><path d="m129.601562 102.980469-8.890624-5.136719v10.269531zm0 0"/><path d="m102.921875 118.382812-8.894531-5.132812v10.269531zm0 0"/><path d="m94.027344 164.597656-8.890625-5.136718v10.269531zm0 0"/><path d="m94.027344 195.402344-8.890625-5.132813v10.269531zm0 0"/><path d="m102.921875 241.617188-8.894531-5.136719v10.269531zm0 0"/><path d="m129.601562 257.019531-8.890624-5.132812v10.269531zm0 0"/><path d="m147.390625 267.289062-8.894531-5.132812v10.269531zm0 0"/><path d="m174.070312 282.695312-8.894531-5.136718v10.269531zm0 0"/><path d="m218.539062 267.289062-8.894531-5.132812v10.269531zm0 0"/><path d="m245.21875 251.886719-8.894531-5.136719v10.269531zm0 0"/><path d="m289.6875 236.480469-8.894531-5.132813v10.269532zm0 0"/><path d="m289.6875 205.671875-8.894531-5.132813v10.269532zm0 0"/><path d="m289.6875 154.328125-8.894531-5.136719v10.269532zm0 0"/><path d="m289.6875 123.519531-8.894531-5.136719v10.269532zm0 0"/><path d="m182.964844 61.902344-8.894532-5.136719v10.269531zm0 0"/><path d="m156.285156 77.304688-8.894531-5.132813v10.269531zm0 0"/><path d="m111.816406 102.980469-8.894531-5.136719v10.269531zm0 0"/><path d="m85.136719 118.382812-8.894531-5.132812v10.269531zm0 0"/><path d="m85.136719 241.617188-8.894531-5.136719v10.269531zm0 0"/><path d="m111.816406 257.019531-8.894531-5.132812v10.269531zm0 0"/><path d="m156.285156 282.695312-8.894531-5.136718v10.269531zm0 0"/><path d="m182.964844 298.097656-8.894532-5.132812v10.269531zm0 0"/><path d="m298.582031 241.617188-8.894531-5.136719v10.269531zm0 0"/><path d="m298.582031 210.808594-8.894531-5.136719v10.269531zm0 0"/><path d="m298.582031 149.191406-8.894531-5.132812v10.269531zm0 0"/><path d="m298.582031 118.382812-8.894531-5.132812v10.269531zm0 0"/><path d="m263.007812 97.84375-8.894531-5.132812v10.269531zm0 0"/><path d="m218.539062 72.171875-8.894531-5.136719v10.269532zm0 0"/><path d="m182.964844 51.632812-8.894532-5.136718v10.269531zm0 0"/><path d="m156.285156 67.035156-8.894531-5.132812v10.269531zm0 0"/><path d="m102.921875 97.84375-8.894531-5.132812v10.269531zm0 0"/><path d="m76.242188 113.25-8.894532-5.136719v10.269531zm0 0"/><path d="m76.242188 154.328125-8.894532-5.136719v10.269532zm0 0"/><path d="m76.242188 205.671875-8.894532-5.132813v10.269532zm0 0"/><path d="m76.242188 246.75-8.894532-5.132812v10.269531zm0 0"/><path d="m102.921875 262.15625-8.894531-5.136719v10.269531zm0 0"/><path d="m156.285156 292.964844-8.894531-5.136719v10.269531zm0 0"/><path d="m182.964844 308.367188-8.894532-5.132813v10.269531zm0 0"/><path d="m218.539062 287.828125-8.894531-5.132813v10.269532zm0 0"/><path d="m263.007812 262.15625-8.894531-5.136719v10.269531zm0 0"/></g></svg>