<svg height="360pt" viewBox="0 0 360 360" width="360pt" xmlns="http://www.w3.org/2000/svg"><path d="m0 0h360v360h-360z" fill="#fff"/><g fill="#800080"><path d="m173.890625 180 9.164063-5.289062v10.578124zm0 0"/><path d="m192.21875 190.582031 9.160156-5.292969v10.582032zm0 0"/><path d="m192.21875 169.417969 9.160156-5.289063v10.582032zm0 0"/><path d="m173.890625 158.839844 9.164063-5.289063v10.578125zm0 0"/><path d="m155.566406 169.417969 9.164063-5.289063v10.582032zm0 0"/><path d="m155.566406 190.582031 9.164063-5.292969v10.582032zm0 0"/><path d="m173.890625 201.160156 9.164063-5.289062v10.578125zm0 0"/><path d="m201.378906 195.871094 9.164063-5.289063v10.578125zm0 0"/><path d="m201.378906 185.289062 9.164063-5.289062v10.582031zm0 0"/><path d="m201.378906 174.710938 9.164063-5.292969v10.582031zm0 0"/><path d="m201.378906 164.128906 9.164063-5.289062v10.578125zm0 0"/><path d="m173.890625 148.257812 9.164063-5.289062v10.582031zm0 0"/><path d="m164.730469 153.550781 9.160156-5.292969v10.582032zm0 0"/><path d="m155.566406 158.839844 9.164063-5.289063v10.578125zm0 0"/><path d="m146.402344 164.128906 9.164062-5.289062v10.578125zm0 0"/><path d="m146.402344 195.871094 9.164062-5.289063v10.578125zm0 0"/><path d="m155.566406 201.160156 9.164063-5.289062v10.578125zm0 0"/><path d="m164.730469 206.449219 9.160156-5.289063v10.582032zm0 0"/><path d="m173.890625 211.742188 9.164063-5.292969v10.582031zm0 0"/><path d="m210.542969 201.160156 9.164062-5.289062v10.578125zm0 0"/><path d="m210.542969 190.582031 9.164062-5.292969v10.582032zm0 0"/><path d="m210.542969 169.417969 9.164062-5.289063v10.582032zm0 0"/><path d="m210.542969 158.839844 9.164062-5.289063v10.578125zm0 0"/><path d="m201.378906 153.550781 9.164063-5.292969v10.582032zm0 0"/><path d="m183.054688 142.96875 9.164062-5.289062v10.578124zm0 0"/><path d="m173.890625 137.679688 9.164063-5.289063v10.578125zm0 0"/><path d="m164.730469 142.96875 9.160156-5.289062v10.578124zm0 0"/><path d="m146.402344 153.550781 9.164062-5.292969v10.582032zm0 0"/><path d="m137.242188 158.839844 9.160156-5.289063v10.578125zm0 0"/><path d="m137.242188 169.417969 9.160156-5.289063v10.582032zm0 0"/><path d="m137.242188 190.582031 9.160156-5.292969v10.582032zm0 0"/><path d="m137.242188 201.160156 9.160156-5.289062v10.578125zm0 0"/><path d="m146.402344 206.449219 9.164062-5.289063v10.582032zm0 0"/><path d="m164.730469 217.03125 9.160156-5.289062v10.578124zm0 0"/><path d="m173.890625 222.320312 9.164063-5.289062v10.578125zm0 0"/><path d="m183.054688 217.03125 9.164062-5.289062v10.578124zm0 0"/><path d="m201.378906 206.449219 9.164063-5.289063v10.582032zm0 0"/><path d="m219.707031 206.449219 9.160157-5.289063v10.582032zm0 0"/><path d="m219.707031 195.871094 9.160157-5.289063v10.578125zm0 0"/><path d="m219.707031 164.128906 9.160157-5.289062v10.578125zm0 0"/><path d="m219.707031 153.550781 9.160157-5.292969v10.582032zm0 0"/><path d="m210.542969 148.257812 9.164062-5.289062v10.582031zm0 0"/><path d="m201.378906 142.96875 9.164063-5.289062v10.578124zm0 0"/><path d="m192.21875 137.679688 9.160156-5.289063v10.578125zm0 0"/><path d="m183.054688 132.390625 9.164062-5.292969v10.582032zm0 0"/><path d="m173.890625 127.097656 9.164063-5.289062v10.582031zm0 0"/><path d="m164.730469 132.390625 9.160156-5.292969v10.582032zm0 0"/><path d="m137.242188 148.257812 9.160156-5.289062v10.582031zm0 0"/><path d="m128.078125 153.550781 9.164063-5.292969v10.582032zm0 0"/><path d="m128.078125 164.128906 9.164063-5.289062v10.578125zm0 0"/><path d="m128.078125 174.710938 9.164063-5.292969v10.582031zm0 0"/><path d="m128.078125 185.289062 9.164063-5.289062v10.582031zm0 0"/><path d="m128.078125 195.871094 9.164063-5.289063v10.578125zm0 0"/><path d="m128.078125 206.449219 9.164063-5.289063v10.582032zm0 0"/><path d="m137.242188 211.742188 9.160156-5.292969v10.582031zm0 0"/><path d="m164.730469 227.609375 9.160156-5.289063v10.582032zm0 0"/><path d="m173.890625 232.902344 9.164063-5.292969v10.582031zm0 0"/><path d="m183.054688 227.609375 9.164062-5.289063v10.582032zm0 0"/><path d="m192.21875 222.320312 9.160156-5.289062v10.578125zm0 0"/><path d="m201.378906 217.03125 9.164063-5.289062v10.578124zm0 0"/><path d="m210.542969 211.742188 9.164062-5.292969v10.582031zm0 0"/><path d="m228.867188 211.742188 9.164062-5.292969v10.582031zm0 0"/><path d="m228.867188 201.160156 9.164062-5.289062v10.578125zm0 0"/><path d="m228.867188 190.582031 9.164062-5.292969v10.582032zm0 0"/><path d="m228.867188 169.417969 9.164062-5.289063v10.582032zm0 0"/><path d="m228.867188 158.839844 9.164062-5.289063v10.578125zm0 0"/><path d="m228.867188 148.257812 9.164062-5.289062v10.582031zm0 0"/><path d="m210.542969 137.679688 9.164062-5.289063v10.578125zm0 0"/><path d="m192.21875 127.097656 9.160156-5.289062v10.582031zm0 0"/><path d="m173.890625 116.519531 9.164063-5.292969v10.582032zm0 0"/><path d="m164.730469 121.808594 9.160156-5.289063v10.578125zm0 0"/><path d="m155.566406 127.097656 9.164063-5.289062v10.582031zm0 0"/><path d="m137.242188 137.679688 9.160156-5.289063v10.578125zm0 0"/><path d="m128.078125 142.96875 9.164063-5.289062v10.578124zm0 0"/><path d="m118.914062 148.257812 9.164063-5.289062v10.582031zm0 0"/><path d="m118.914062 169.417969 9.164063-5.289063v10.582032zm0 0"/><path d="m118.914062 190.582031 9.164063-5.292969v10.582032zm0 0"/><path d="m118.914062 211.742188 9.164063-5.292969v10.582031zm0 0"/><path d="m128.078125 217.03125 9.164063-5.289062v10.578124zm0 0"/><path d="m137.242188 222.320312 9.160156-5.289062v10.578125zm0 0"/><path d="m155.566406 232.902344 9.164063-5.292969v10.582031zm0 0"/><path d="m164.730469 238.191406 9.160156-5.289062v10.578125zm0 0"/><path d="m173.890625 243.480469 9.164063-5.289063v10.582032zm0 0"/><path d="m192.21875 232.902344 9.160156-5.292969v10.582031zm0 0"/><path d="m210.542969 222.320312 9.164062-5.289062v10.578125zm0 0"/><path d="m238.03125 217.03125 9.164062-5.289062v10.578124zm0 0"/><path d="m238.03125 206.449219 9.164062-5.289063v10.582032zm0 0"/><path d="m238.03125 195.871094 9.164062-5.289063v10.578125zm0 0"/><path d="m238.03125 164.128906 9.164062-5.289062v10.578125zm0 0"/><path d="m238.03125 153.550781 9.164062-5.292969v10.582032zm0 0"/><path d="m238.03125 142.96875 9.164062-5.289062v10.578124zm0 0"/><path d="m228.867188 137.679688 9.164062-5.289063v10.578125zm0 0"/><path d="m219.707031 132.390625 9.160157-5.292969v10.582032zm0 0"/><path d="m210.542969 127.097656 9.164062-5.289062v10.582031zm0 0"/><path d="m201.378906 121.808594 9.164063-5.289063v10.578125zm0 0"/><path d="m192.21875 116.519531 9.160156-5.292969v10.582032zm0 0"/><path d="m183.054688 111.226562 9.164062-5.289062v10.582031zm0 0"/><path d="m173.890625 105.9375 9.164063-5.289062v10.578124zm0 0"/><path d="m164.730469 111.226562 9.160156-5.289062v10.582031zm0 0"/><path d="m155.566406 116.519531 9.164063-5.292969v10.582032zm0 0"/><path d="m128.078125 132.390625 9.164063-5.292969v10.582032zm0 0"/><path d="m118.914062 137.679688 9.164063-5.289063v10.578125zm0 0"/><path d="m109.753906 142.96875 9.160156-5.289062v10.578124zm0 0"/><path d="m109.753906 153.550781 9.160156-5.292969v10.582032zm0 0"/><path d="m109.753906 164.128906 9.160156-5.289062v10.578125zm0 0"/><path d="m109.753906 174.710938 9.160156-5.292969v10.582031zm0 0"/><path d="m109.753906 185.289062 9.160156-5.289062v10.582031zm0 0"/><path d="m109.753906 195.871094 9.160156-5.289063v10.578125zm0 0"/><path d="m109.753906 206.449219 9.160156-5.289063v10.582032zm0 0"/><path d="m109.753906 217.03125 9.160156-5.289062v10.578124zm0 0"/><path d="m118.914062 222.320312 9.164063-5.289062v10.578125zm0 0"/><path d="m128.078125 227.609375 9.164063-5.289063v10.582032zm0 0"/><path d="m155.566406 243.480469 9.164063-5.289063v10.582032zm0 0"/><path d="m164.730469 248.773438 9.160156-5.292969v10.582031zm0 0"/><path d="m173.890625 254.0625 9.164063-5.289062v10.578124zm0 0"/><path d="m183.054688 248.773438 9.164062-5.292969v10.582031zm0 0"/><path d="m192.21875 243.480469 9.160156-5.289063v10.582032zm0 0"/><path d="m201.378906 238.191406 9.164063-5.289062v10.578125zm0 0"/><path d="m210.542969 232.902344 9.164062-5.292969v10.582031zm0 0"/><path d="m219.707031 227.609375 9.160157-5.289063v10.582032zm0 0"/><path d="m228.867188 222.320312 9.164062-5.289062v10.578125zm0 0"/><path d="m247.195312 201.160156 9.160157-5.289062v10.578125zm0 0"/><path d="m247.195312 190.582031 9.160157-5.292969v10.582032zm0 0"/><path d="m247.195312 169.417969 9.160157-5.289063v10.582032zm0 0"/><path d="m247.195312 158.839844 9.160157-5.289063v10.578125zm0 0"/><path d="m228.867188 127.097656 9.164062-5.289062v10.582031zm0 0"/><path d="m219.707031 121.808594 9.160157-5.289063v10.578125zm0 0"/><path d="m201.378906 111.226562 9.164063-5.289062v10.582031zm0 0"/><path d="m192.21875 105.9375 9.160156-5.289062v10.578124zm0 0"/><path d="m155.566406 105.9375 9.164063-5.289062v10.578124zm0 0"/><path d="m146.402344 111.226562 9.164062-5.289062v10.582031zm0 0"/><path d="m128.078125 121.808594 9.164063-5.289063v10.578125zm0 0"/><path d="m118.914062 127.097656 9.164063-5.289062v10.582031zm0 0"/><path d="m100.589844 158.839844 9.164062-5.289063v10.578125zm0 0"/><path d="m100.589844 169.417969 9.164062-5.289063v10.582032zm0 0"/><path d="m100.589844 190.582031 9.164062-5.292969v10.582032zm0 0"/><path d="m100.589844 201.160156 9.164062-5.289062v10.578125zm0 0"/><path d="m118.914062 232.902344 9.164063-5.292969v10.582031zm0 0"/><path d="m128.078125 238.191406 9.164063-5.289062v10.578125zm0 0"/><path d="m146.402344 248.773438 9.164062-5.292969v10.582031zm0 0"/><path d="m155.566406 254.0625 9.164063-5.289062v10.578124zm0 0"/><path d="m192.21875 254.0625 9.160156-5.289062v10.578124zm0 0"/><path d="m201.378906 248.773438 9.164063-5.292969v10.582031zm0 0"/><path d="m219.707031 238.191406 9.160157-5.289062v10.578125zm0 0"/><path d="m228.867188 232.902344 9.164062-5.292969v10.582031zm0 0"/><path d="m256.355469 227.609375 9.164062-5.289063v10.582032zm0 0"/><path d="m256.355469 217.03125 9.164062-5.289062v10.578124zm0 0"/><path d="m256.355469 206.449219 9.164062-5.289063v10.582032zm0 0"/><path d="m256.355469 195.871094 9.164062-5.289063v10.578125zm0 0"/><path d="m256.355469 164.128906 9.164062-5.289062v10.578125zm0 0"/><path d="m256.355469 153.550781 9.164062-5.292969v10.582032zm0 0"/><path d="m256.355469 142.96875 9.164062-5.289062v10.578124zm0 0"/><path d="m256.355469 132.390625 9.164062-5.292969v10.582032zm0 0"/><path d="m247.195312 127.097656 9.160157-5.289062v10.582031zm0 0"/><path d="m238.03125 121.808594 9.164062-5.289063v10.578125zm0 0"/><path d="m192.21875 95.359375 9.160156-5.292969v10.582032zm0 0"/><path d="m183.054688 90.066406 9.164062-5.289062v10.582031zm0 0"/><path d="m173.890625 84.777344 9.164063-5.289063v10.578125zm0 0"/><path d="m164.730469 90.066406 9.160156-5.289062v10.582031zm0 0"/><path d="m155.566406 95.359375 9.164063-5.292969v10.582032zm0 0"/><path d="m146.402344 100.648438 9.164062-5.289063v10.578125zm0 0"/><path d="m118.914062 116.519531 9.164063-5.292969v10.582032zm0 0"/><path d="m109.753906 121.808594 9.160156-5.289063v10.578125zm0 0"/><path d="m100.589844 127.097656 9.164062-5.289062v10.582031zm0 0"/><path d="m91.425781 132.390625 9.164063-5.292969v10.582032zm0 0"/><path d="m91.425781 142.96875 9.164063-5.289062v10.578124zm0 0"/><path d="m91.425781 153.550781 9.164063-5.292969v10.582032zm0 0"/><path d="m91.425781 206.449219 9.164063-5.289063v10.582032zm0 0"/><path d="m91.425781 217.03125 9.164063-5.289062v10.578124zm0 0"/><path d="m91.425781 227.609375 9.164063-5.289063v10.582032zm0 0"/><path d="m100.589844 232.902344 9.164062-5.292969v10.582031zm0 0"/><path d="m109.753906 238.191406 9.160156-5.289062v10.578125zm0 0"/><path d="m118.914062 243.480469 9.164063-5.289063v10.582032zm0 0"/><path d="m146.402344 259.351562 9.164062-5.289062v10.578125zm0 0"/><path d="m155.566406 264.640625 9.164063-5.289063v10.582032zm0 0"/><path d="m164.730469 269.933594 9.160156-5.292969v10.582031zm0 0"/><path d="m173.890625 275.222656 9.164063-5.289062v10.578125zm0 0"/><path d="m183.054688 269.933594 9.164062-5.292969v10.582031zm0 0"/><path d="m192.21875 264.640625 9.160156-5.289063v10.582032zm0 0"/><path d="m238.03125 238.191406 9.164062-5.289062v10.578125zm0 0"/><path d="m247.195312 232.902344 9.160157-5.292969v10.582031zm0 0"/><path d="m265.519531 232.902344 9.164063-5.292969v10.582031zm0 0"/><path d="m265.519531 211.742188 9.164063-5.292969v10.582031zm0 0"/><path d="m265.519531 148.257812 9.164063-5.289062v10.582031zm0 0"/><path d="m265.519531 127.097656 9.164063-5.289062v10.582031zm0 0"/><path d="m247.195312 116.519531 9.160157-5.292969v10.582032zm0 0"/><path d="m192.21875 84.777344 9.160156-5.289063v10.578125zm0 0"/><path d="m173.890625 74.199219 9.164063-5.292969v10.582031zm0 0"/><path d="m155.566406 84.777344 9.164063-5.289063v10.578125zm0 0"/><path d="m100.589844 116.519531 9.164062-5.292969v10.582032zm0 0"/><path d="m82.265625 127.097656 9.160156-5.289062v10.582031zm0 0"/><path d="m82.265625 148.257812 9.160156-5.289062v10.582031zm0 0"/><path d="m82.265625 211.742188 9.160156-5.292969v10.582031zm0 0"/><path d="m82.265625 232.902344 9.160156-5.292969v10.582031zm0 0"/><path d="m100.589844 243.480469 9.164062-5.289063v10.582032zm0 0"/><path d="m155.566406 275.222656 9.164063-5.289062v10.578125zm0 0"/><path d="m173.890625 285.800781 9.164063-5.289062v10.582031zm0 0"/><path d="m192.21875 275.222656 9.160156-5.289062v10.578125zm0 0"/><path d="m247.195312 243.480469 9.160157-5.289063v10.582032zm0 0"/><path d="m283.84375 243.480469 9.164062-5.289063v10.582032zm0 0"/><path d="m283.84375 201.160156 9.164062-5.289062v10.578125zm0 0"/><path d="m283.84375 158.839844 9.164062-5.289063v10.578125zm0 0"/><path d="m283.84375 116.519531 9.164062-5.292969v10.582032zm0 0"/><path d="m247.195312 95.359375 9.160157-5.292969v10.582032zm0 0"/><path d="m210.542969 74.199219 9.164062-5.292969v10.582031zm0 0"/><path d="m173.890625 53.035156 9.164063-5.289062v10.582031zm0 0"/><path d="m137.242188 74.199219 9.160156-5.292969v10.582031zm0 0"/><path d="m100.589844 95.359375 9.164062-5.292969v10.582032zm0 0"/><path d="m63.9375 116.519531 9.164062-5.292969v10.582032zm0 0"/><path d="m63.9375 158.839844 9.164062-5.289063v10.578125zm0 0"/><path d="m63.9375 201.160156 9.164062-5.289062v10.578125zm0 0"/><path d="m63.9375 243.480469 9.164062-5.289063v10.582032zm0 0"/><path d="m100.589844 264.640625 9.164062-5.289063v10.582032zm0 0"/><path d="m137.242188 285.800781 9.160156-5.289062v10.582031zm0 0"/><path d="m173.890625 306.964844 9.164063-5.292969v10.582031zm0 0"/><path d="m210.542969 285.800781 9.164062-5.289062v10.582031zm0 0"/><path d="m247.195312 264.640625 9.160157-5.289063v10.582032zm0 0"/><path d="m210.542969 190.582031-9.164063-5.292969v10.582032zm0 0"/><path d="m210.542969 169.417969-9.164063-5.289063v10.582032zm0 0"/><path d="m183.054688 153.550781-9.164063-5.292969v10.582032zm0 0"/><path d="m164.730469 164.128906-9.164063-5.289062v10.578125zm0 0"/><path d="m164.730469 195.871094-9.164063-5.289063v10.578125zm0 0"/><path d="m183.054688 206.449219-9.164063-5.289063v10.582032zm0 0"/><path d="m219.707031 195.871094-9.164062-5.289063v10.578125zm0 0"/><path d="m219.707031 164.128906-9.164062-5.289062v10.578125zm0 0"/><path d="m210.542969 158.839844-9.164063-5.289063v10.578125zm0 0"/><path d="m192.21875 148.257812-9.164062-5.289062v10.582031zm0 0"/><path d="m183.054688 142.96875-9.164063-5.289062v10.578124zm0 0"/><path d="m155.566406 158.839844-9.164062-5.289063v10.578125zm0 0"/><path d="m155.566406 169.417969-9.164062-5.289063v10.582032zm0 0"/><path d="m155.566406 190.582031-9.164062-5.292969v10.582032zm0 0"/><path d="m155.566406 201.160156-9.164062-5.289062v10.578125zm0 0"/><path d="m183.054688 217.03125-9.164063-5.289062v10.578124zm0 0"/><path d="m192.21875 211.742188-9.164062-5.292969v10.582031zm0 0"/><path d="m210.542969 201.160156-9.164063-5.289062v10.578125zm0 0"/><path d="m228.867188 201.160156-9.160157-5.289062v10.578125zm0 0"/><path d="m228.867188 190.582031-9.160157-5.292969v10.582032zm0 0"/><path d="m228.867188 169.417969-9.160157-5.289063v10.582032zm0 0"/><path d="m228.867188 158.839844-9.160157-5.289063v10.578125zm0 0"/><path d="m219.707031 153.550781-9.164062-5.292969v10.582032zm0 0"/><path d="m210.542969 148.257812-9.164063-5.289062v10.582031zm0 0"/><path d="m201.378906 142.96875-9.160156-5.289062v10.578124zm0 0"/><path d="m192.21875 137.679688-9.164062-5.289063v10.578125zm0 0"/><path d="m183.054688 132.390625-9.164063-5.292969v10.582032zm0 0"/><path d="m173.890625 137.679688-9.160156-5.289063v10.578125zm0 0"/><path d="m155.566406 148.257812-9.164062-5.289062v10.582031zm0 0"/><path d="m146.402344 153.550781-9.160156-5.292969v10.582032zm0 0"/><path d="m146.402344 164.128906-9.160156-5.289062v10.578125zm0 0"/><path d="m146.402344 174.710938-9.160156-5.292969v10.582031zm0 0"/><path d="m146.402344 185.289062-9.160156-5.289062v10.582031zm0 0"/><path d="m146.402344 195.871094-9.160156-5.289063v10.578125zm0 0"/><path d="m146.402344 206.449219-9.160156-5.289063v10.582032zm0 0"/><path d="m155.566406 211.742188-9.164062-5.292969v10.582031zm0 0"/><path d="m173.890625 222.320312-9.160156-5.289062v10.578125zm0 0"/><path d="m183.054688 227.609375-9.164063-5.289063v10.582032zm0 0"/><path d="m192.21875 222.320312-9.164062-5.289062v10.578125zm0 0"/><path d="m201.378906 217.03125-9.160156-5.289062v10.578124zm0 0"/><path d="m210.542969 211.742188-9.164063-5.292969v10.582031zm0 0"/><path d="m219.707031 206.449219-9.164062-5.289063v10.582032zm0 0"/><path d="m238.03125 206.449219-9.164062-5.289063v10.582032zm0 0"/><path d="m238.03125 195.871094-9.164062-5.289063v10.578125zm0 0"/><path d="m238.03125 164.128906-9.164062-5.289062v10.578125zm0 0"/><path d="m238.03125 153.550781-9.164062-5.292969v10.582032zm0 0"/><path d="m228.867188 148.257812-9.160157-5.289062v10.582031zm0 0"/><path d="m219.707031 142.96875-9.164062-5.289062v10.578124zm0 0"/><path d="m201.378906 132.390625-9.160156-5.292969v10.582032zm0 0"/><path d="m192.21875 127.097656-9.164062-5.289062v10.582031zm0 0"/><path d="m183.054688 121.808594-9.164063-5.289063v10.578125zm0 0"/><path d="m173.890625 127.097656-9.160156-5.289062v10.582031zm0 0"/><path d="m146.402344 142.96875-9.160156-5.289062v10.578124zm0 0"/><path d="m137.242188 148.257812-9.164063-5.289062v10.582031zm0 0"/><path d="m137.242188 158.839844-9.164063-5.289063v10.578125zm0 0"/><path d="m137.242188 169.417969-9.164063-5.289063v10.582032zm0 0"/><path d="m137.242188 190.582031-9.164063-5.292969v10.582032zm0 0"/><path d="m137.242188 201.160156-9.164063-5.289062v10.578125zm0 0"/><path d="m137.242188 211.742188-9.164063-5.292969v10.582031zm0 0"/><path d="m146.402344 217.03125-9.160156-5.289062v10.578124zm0 0"/><path d="m173.890625 232.902344-9.160156-5.292969v10.582031zm0 0"/><path d="m183.054688 238.191406-9.164063-5.289062v10.578125zm0 0"/><path d="m192.21875 232.902344-9.164062-5.292969v10.582031zm0 0"/><path d="m201.378906 227.609375-9.160156-5.289063v10.582032zm0 0"/><path d="m219.707031 217.03125-9.164062-5.289062v10.578124zm0 0"/><path d="m228.867188 211.742188-9.160157-5.292969v10.582031zm0 0"/><path d="m247.195312 211.742188-9.164062-5.292969v10.582031zm0 0"/><path d="m247.195312 201.160156-9.164062-5.289062v10.578125zm0 0"/><path d="m247.195312 190.582031-9.164062-5.292969v10.582032zm0 0"/><path d="m247.195312 169.417969-9.164062-5.289063v10.582032zm0 0"/><path d="m247.195312 158.839844-9.164062-5.289063v10.578125zm0 0"/><path d="m247.195312 148.257812-9.164062-5.289062v10.582031zm0 0"/><path d="m228.867188 137.679688-9.160157-5.289063v10.578125zm0 0"/><path d="m219.707031 132.390625-9.164062-5.292969v10.582032zm0 0"/><path d="m210.542969 127.097656-9.164063-5.289062v10.582031zm0 0"/><path d="m201.378906 121.808594-9.160156-5.289063v10.578125zm0 0"/><path d="m183.054688 111.226562-9.164063-5.289062v10.582031zm0 0"/><path d="m173.890625 116.519531-9.160156-5.292969v10.582032zm0 0"/><path d="m164.730469 121.808594-9.164063-5.289063v10.578125zm0 0"/><path d="m146.402344 132.390625-9.160156-5.292969v10.582032zm0 0"/><path d="m137.242188 137.679688-9.164063-5.289063v10.578125zm0 0"/><path d="m128.078125 142.96875-9.164063-5.289062v10.578124zm0 0"/><path d="m128.078125 164.128906-9.164063-5.289062v10.578125zm0 0"/><path d="m128.078125 174.710938-9.164063-5.292969v10.582031zm0 0"/><path d="m128.078125 185.289062-9.164063-5.289062v10.582031zm0 0"/><path d="m128.078125 195.871094-9.164063-5.289063v10.578125zm0 0"/><path d="m128.078125 217.03125-9.164063-5.289062v10.578124zm0 0"/><path d="m137.242188 222.320312-9.164063-5.289062v10.578125zm0 0"/><path d="m146.402344 227.609375-9.160156-5.289063v10.582032zm0 0"/><path d="m164.730469 238.191406-9.164063-5.289062v10.578125zm0 0"/><path d="m173.890625 243.480469-9.160156-5.289063v10.582032zm0 0"/><path d="m183.054688 248.773438-9.164063-5.292969v10.582031zm0 0"/><path d="m201.378906 238.191406-9.160156-5.289062v10.578125zm0 0"/><path d="m210.542969 232.902344-9.164063-5.292969v10.582031zm0 0"/><path d="m219.707031 227.609375-9.164062-5.289063v10.582032zm0 0"/><path d="m228.867188 222.320312-9.160157-5.289062v10.578125zm0 0"/><path d="m256.355469 217.03125-9.160157-5.289062v10.578124zm0 0"/><path d="m256.355469 206.449219-9.160157-5.289063v10.582032zm0 0"/><path d="m256.355469 195.871094-9.160157-5.289063v10.578125zm0 0"/><path d="m256.355469 185.289062-9.160157-5.289062v10.582031zm0 0"/><path d="m256.355469 174.710938-9.160157-5.292969v10.582031zm0 0"/><path d="m256.355469 164.128906-9.160157-5.289062v10.578125zm0 0"/><path d="m256.355469 153.550781-9.160157-5.292969v10.582032zm0 0"/><path d="m256.355469 142.96875-9.160157-5.289062v10.578124zm0 0"/><path d="m247.195312 137.679688-9.164062-5.289063v10.578125zm0 0"/><path d="m238.03125 132.390625-9.164062-5.292969v10.582032zm0 0"/><path d="m228.867188 127.097656-9.160157-5.289062v10.582031zm0 0"/><path d="m210.542969 116.519531-9.164063-5.292969v10.582032zm0 0"/><path d="m201.378906 111.226562-9.160156-5.289062v10.582031zm0 0"/><path d="m192.21875 105.9375-9.164062-5.289062v10.578124zm0 0"/><path d="m183.054688 100.648438-9.164063-5.289063v10.578125zm0 0"/><path d="m173.890625 105.9375-9.160156-5.289062v10.578124zm0 0"/><path d="m164.730469 111.226562-9.164063-5.289062v10.582031zm0 0"/><path d="m155.566406 116.519531-9.164062-5.292969v10.582032zm0 0"/><path d="m146.402344 121.808594-9.160156-5.289063v10.578125zm0 0"/><path d="m137.242188 127.097656-9.164063-5.289062v10.582031zm0 0"/><path d="m128.078125 132.390625-9.164063-5.292969v10.582032zm0 0"/><path d="m118.914062 137.679688-9.160156-5.289063v10.578125zm0 0"/><path d="m118.914062 148.257812-9.160156-5.289062v10.582031zm0 0"/><path d="m118.914062 158.839844-9.160156-5.289063v10.578125zm0 0"/><path d="m118.914062 169.417969-9.160156-5.289063v10.582032zm0 0"/><path d="m118.914062 190.582031-9.160156-5.292969v10.582032zm0 0"/><path d="m118.914062 201.160156-9.160156-5.289062v10.578125zm0 0"/><path d="m118.914062 211.742188-9.160156-5.292969v10.582031zm0 0"/><path d="m118.914062 222.320312-9.160156-5.289062v10.578125zm0 0"/><path d="m128.078125 227.609375-9.164063-5.289063v10.582032zm0 0"/><path d="m137.242188 232.902344-9.164063-5.292969v10.582031zm0 0"/><path d="m146.402344 238.191406-9.160156-5.289062v10.578125zm0 0"/><path d="m155.566406 243.480469-9.164062-5.289063v10.582032zm0 0"/><path d="m164.730469 248.773438-9.164063-5.292969v10.582031zm0 0"/><path d="m173.890625 254.0625-9.160156-5.289062v10.578124zm0 0"/><path d="m183.054688 259.351562-9.164063-5.289062v10.578125zm0 0"/><path d="m192.21875 254.0625-9.164062-5.289062v10.578124zm0 0"/><path d="m201.378906 248.773438-9.160156-5.292969v10.582031zm0 0"/><path d="m210.542969 243.480469-9.164063-5.289063v10.582032zm0 0"/><path d="m228.867188 232.902344-9.160157-5.292969v10.582031zm0 0"/><path d="m238.03125 227.609375-9.164062-5.289063v10.582032zm0 0"/><path d="m247.195312 222.320312-9.164062-5.289062v10.578125zm0 0"/><path d="m265.519531 222.320312-9.164062-5.289062v10.578125zm0 0"/><path d="m265.519531 211.742188-9.164062-5.292969v10.582031zm0 0"/><path d="m265.519531 201.160156-9.164062-5.289062v10.578125zm0 0"/><path d="m265.519531 190.582031-9.164062-5.292969v10.582032zm0 0"/><path d="m265.519531 169.417969-9.164062-5.289063v10.582032zm0 0"/><path d="m265.519531 158.839844-9.164062-5.289063v10.578125zm0 0"/><path d="m265.519531 148.257812-9.164062-5.289062v10.582031zm0 0"/><path d="m265.519531 137.679688-9.164062-5.289063v10.578125zm0 0"/><path d="m238.03125 121.808594-9.164062-5.289063v10.578125zm0 0"/><path d="m210.542969 105.9375-9.164063-5.289062v10.578124zm0 0"/><path d="m183.054688 90.066406-9.164063-5.289062v10.582031zm0 0"/><path d="m173.890625 95.359375-9.160156-5.292969v10.582032zm0 0"/><path d="m164.730469 100.648438-9.164063-5.289063v10.578125zm0 0"/><path d="m155.566406 105.9375-9.164062-5.289062v10.578124zm0 0"/><path d="m137.242188 116.519531-9.164063-5.292969v10.582032zm0 0"/><path d="m128.078125 121.808594-9.164063-5.289063v10.578125zm0 0"/><path d="m118.914062 127.097656-9.160156-5.289062v10.582031zm0 0"/><path d="m109.753906 132.390625-9.164062-5.292969v10.582032zm0 0"/><path d="m109.753906 164.128906-9.164062-5.289062v10.578125zm0 0"/><path d="m109.753906 195.871094-9.164062-5.289063v10.578125zm0 0"/><path d="m109.753906 227.609375-9.164062-5.289063v10.582032zm0 0"/><path d="m118.914062 232.902344-9.160156-5.292969v10.582031zm0 0"/><path d="m128.078125 238.191406-9.164063-5.289062v10.578125zm0 0"/><path d="m137.242188 243.480469-9.164063-5.289063v10.582032zm0 0"/><path d="m155.566406 254.0625-9.164062-5.289062v10.578124zm0 0"/><path d="m164.730469 259.351562-9.164063-5.289062v10.578125zm0 0"/><path d="m173.890625 264.640625-9.160156-5.289063v10.582032zm0 0"/><path d="m183.054688 269.933594-9.164063-5.292969v10.582031zm0 0"/><path d="m210.542969 254.0625-9.164063-5.289062v10.578124zm0 0"/><path d="m238.03125 238.191406-9.164062-5.289062v10.578125zm0 0"/><path d="m274.683594 227.609375-9.164063-5.289063v10.582032zm0 0"/><path d="m274.683594 217.03125-9.164063-5.289062v10.578124zm0 0"/><path d="m274.683594 185.289062-9.164063-5.289062v10.582031zm0 0"/><path d="m274.683594 174.710938-9.164063-5.292969v10.582031zm0 0"/><path d="m274.683594 142.96875-9.164063-5.289062v10.578124zm0 0"/><path d="m274.683594 132.390625-9.164063-5.292969v10.582032zm0 0"/><path d="m256.355469 121.808594-9.160157-5.289063v10.578125zm0 0"/><path d="m247.195312 116.519531-9.164062-5.292969v10.582032zm0 0"/><path d="m238.03125 111.226562-9.164062-5.289062v10.582031zm0 0"/><path d="m219.707031 100.648438-9.164062-5.289063v10.578125zm0 0"/><path d="m210.542969 95.359375-9.164063-5.292969v10.582032zm0 0"/><path d="m201.378906 90.066406-9.160156-5.289062v10.582031zm0 0"/><path d="m183.054688 79.488281-9.164063-5.289062v10.578125zm0 0"/><path d="m173.890625 84.777344-9.160156-5.289063v10.578125zm0 0"/><path d="m146.402344 100.648438-9.160156-5.289063v10.578125zm0 0"/><path d="m137.242188 105.9375-9.164063-5.289062v10.578124zm0 0"/><path d="m109.753906 121.808594-9.164062-5.289063v10.578125zm0 0"/><path d="m100.589844 127.097656-9.164063-5.289062v10.582031zm0 0"/><path d="m100.589844 148.257812-9.164063-5.289062v10.582031zm0 0"/><path d="m100.589844 158.839844-9.164063-5.289063v10.578125zm0 0"/><path d="m100.589844 169.417969-9.164063-5.289063v10.582032zm0 0"/><path d="m100.589844 190.582031-9.164063-5.292969v10.582032zm0 0"/><path d="m100.589844 201.160156-9.164063-5.289062v10.578125zm0 0"/><path d="m100.589844 211.742188-9.164063-5.292969v10.582031zm0 0"/><path d="m100.589844 232.902344-9.164063-5.292969v10.582031zm0 0"/><path d="m109.753906 238.191406-9.164062-5.289062v10.578125zm0 0"/><path d="m137.242188 254.0625-9.164063-5.289062v10.578124zm0 0"/><path d="m146.402344 259.351562-9.160156-5.289062v10.578125zm0 0"/><path d="m173.890625 275.222656-9.160156-5.289062v10.578125zm0 0"/><path d="m183.054688 280.511719-9.164063-5.289063v10.578125zm0 0"/><path d="m201.378906 269.933594-9.160156-5.292969v10.582031zm0 0"/><path d="m210.542969 264.640625-9.164063-5.289063v10.582032zm0 0"/><path d="m219.707031 259.351562-9.164062-5.289062v10.578125zm0 0"/><path d="m238.03125 248.773438-9.164062-5.292969v10.582031zm0 0"/><path d="m247.195312 243.480469-9.164062-5.289063v10.582032zm0 0"/><path d="m256.355469 238.191406-9.160157-5.289062v10.578125zm0 0"/><path d="m283.84375 232.902344-9.160156-5.292969v10.582031zm0 0"/><path d="m283.84375 211.742188-9.160156-5.292969v10.582031zm0 0"/><path d="m283.84375 201.160156-9.160156-5.289062v10.578125zm0 0"/><path d="m283.84375 158.839844-9.160156-5.289063v10.578125zm0 0"/><path d="m283.84375 148.257812-9.160156-5.289062v10.582031zm0 0"/><path d="m283.84375 127.097656-9.160156-5.289062v10.582031zm0 0"/><path d="m256.355469 111.226562-9.160157-5.289062v10.582031zm0 0"/><path d="m238.03125 100.648438-9.164062-5.289063v10.578125zm0 0"/><path d="m228.867188 95.359375-9.160157-5.292969v10.582032zm0 0"/><path d="m210.542969 84.777344-9.164063-5.289063v10.578125zm0 0"/><path d="m183.054688 68.90625-9.164063-5.289062v10.582031zm0 0"/><path d="m164.730469 79.488281-9.164063-5.289062v10.578125zm0 0"/><path d="m155.566406 84.777344-9.164062-5.289063v10.578125zm0 0"/><path d="m118.914062 105.9375-9.160156-5.289062v10.578124zm0 0"/><path d="m109.753906 111.226562-9.164062-5.289062v10.582031zm0 0"/><path d="m91.425781 121.808594-9.160156-5.289063v10.578125zm0 0"/><path d="m91.425781 153.550781-9.160156-5.292969v10.582032zm0 0"/><path d="m91.425781 174.710938-9.160156-5.292969v10.582031zm0 0"/><path d="m91.425781 185.289062-9.160156-5.289062v10.582031zm0 0"/><path d="m91.425781 206.449219-9.160156-5.289063v10.582032zm0 0"/><path d="m91.425781 238.191406-9.160156-5.289062v10.578125zm0 0"/><path d="m109.753906 248.773438-9.164062-5.292969v10.582031zm0 0"/><path d="m118.914062 254.0625-9.160156-5.289062v10.578124zm0 0"/><path d="m155.566406 275.222656-9.164062-5.289062v10.578125zm0 0"/><path d="m164.730469 280.511719-9.164063-5.289063v10.578125zm0 0"/><path d="m183.054688 291.09375-9.164063-5.292969v10.582031zm0 0"/><path d="m210.542969 275.222656-9.164063-5.289062v10.578125zm0 0"/><path d="m228.867188 264.640625-9.160157-5.289063v10.582032zm0 0"/><path d="m238.03125 259.351562-9.164062-5.289062v10.578125zm0 0"/><path d="m256.355469 248.773438-9.160157-5.292969v10.582031zm0 0"/><path d="m293.007812 227.609375-9.164062-5.289063v10.582032zm0 0"/><path d="m293.007812 217.03125-9.164062-5.289062v10.578124zm0 0"/><path d="m293.007812 195.871094-9.164062-5.289063v10.578125zm0 0"/><path d="m293.007812 164.128906-9.164062-5.289062v10.578125zm0 0"/><path d="m293.007812 142.96875-9.164062-5.289062v10.578124zm0 0"/><path d="m293.007812 132.390625-9.164062-5.292969v10.582032zm0 0"/><path d="m173.890625 63.617188-9.160156-5.289063v10.578125zm0 0"/><path d="m164.730469 68.90625-9.164063-5.289062v10.582031zm0 0"/><path d="m146.402344 79.488281-9.160156-5.289062v10.578125zm0 0"/><path d="m118.914062 95.359375-9.160156-5.292969v10.582032zm0 0"/><path d="m100.589844 105.9375-9.164063-5.289062v10.578124zm0 0"/><path d="m91.425781 111.226562-9.160156-5.289062v10.582031zm0 0"/><path d="m91.425781 248.773438-9.160156-5.292969v10.582031zm0 0"/><path d="m100.589844 254.0625-9.164063-5.289062v10.578124zm0 0"/><path d="m118.914062 264.640625-9.160156-5.289063v10.582032zm0 0"/><path d="m146.402344 280.511719-9.160156-5.289063v10.578125zm0 0"/><path d="m164.730469 291.09375-9.164063-5.292969v10.582031zm0 0"/><path d="m173.890625 296.382812-9.160156-5.289062v10.578125zm0 0"/><path d="m302.171875 243.480469-9.164063-5.289063v10.582032zm0 0"/><path d="m302.171875 201.160156-9.164063-5.289062v10.578125zm0 0"/><path d="m302.171875 158.839844-9.164063-5.289063v10.578125zm0 0"/><path d="m302.171875 116.519531-9.164063-5.292969v10.582032zm0 0"/><path d="m293.007812 111.226562-9.164062-5.289062v10.582031zm0 0"/><path d="m265.519531 95.359375-9.164062-5.292969v10.582032zm0 0"/><path d="m256.355469 90.066406-9.160157-5.289062v10.582031zm0 0"/><path d="m228.867188 74.199219-9.160157-5.292969v10.582031zm0 0"/><path d="m219.707031 68.90625-9.164062-5.289062v10.582031zm0 0"/><path d="m192.21875 53.035156-9.164062-5.289062v10.582031zm0 0"/><path d="m183.054688 47.746094-9.164063-5.289063v10.578125zm0 0"/><path d="m146.402344 68.90625-9.160156-5.289062v10.582031zm0 0"/><path d="m109.753906 90.066406-9.164062-5.289062v10.582031zm0 0"/><path d="m73.101562 111.226562-9.164062-5.289062v10.582031zm0 0"/><path d="m73.101562 121.808594-9.164062-5.289063v10.578125zm0 0"/><path d="m73.101562 153.550781-9.164062-5.292969v10.582032zm0 0"/><path d="m73.101562 164.128906-9.164062-5.289062v10.578125zm0 0"/><path d="m73.101562 195.871094-9.164062-5.289063v10.578125zm0 0"/><path d="m73.101562 206.449219-9.164062-5.289063v10.582032zm0 0"/><path d="m73.101562 238.191406-9.164062-5.289062v10.578125zm0 0"/><path d="m73.101562 248.773438-9.164062-5.292969v10.582031zm0 0"/><path d="m109.753906 269.933594-9.164062-5.292969v10.582031zm0 0"/><path d="m146.402344 291.09375-9.160156-5.292969v10.582031zm0 0"/><path d="m183.054688 312.253906-9.164063-5.289062v10.578125zm0 0"/><path d="m192.21875 306.964844-9.164062-5.292969v10.582031zm0 0"/><path d="m219.707031 291.09375-9.164062-5.292969v10.582031zm0 0"/><path d="m228.867188 285.800781-9.160157-5.289062v10.582031zm0 0"/><path d="m256.355469 269.933594-9.160157-5.292969v10.582031zm0 0"/><path d="m265.519531 264.640625-9.164062-5.289063v10.582032zm0 0"/><path d="m293.007812 248.773438-9.164062-5.292969v10.582031zm0 0"/></g></svg>