<svg height="360pt" viewBox="0 0 360 360" width="360pt" xmlns="http://www.w3.org/2000/svg"><path d="m0 0h360v360h-360z" fill="#fff"/><g fill="#800080"><path d="m174.9375 180 7.59375-4.386719v8.773438zm0 0"/><path d="m167.339844 175.613281 7.597656-4.382812v8.769531zm0 0"/><path d="m167.339844 184.386719 7.597656-4.386719v8.769531zm0 0"/><path d="m174.9375 188.769531 7.59375-4.382812v8.769531zm0 0"/><path d="m190.128906 180 7.59375-4.386719v8.773438zm0 0"/><path d="m174.9375 162.457031 7.59375-4.382812v8.769531zm0 0"/><path d="m167.339844 166.84375 7.597656-4.386719v8.773438zm0 0"/><path d="m159.746094 188.769531 7.59375-4.382812v8.769531zm0 0"/><path d="m174.9375 197.542969 7.59375-4.386719v8.769531zm0 0"/><path d="m190.128906 162.457031 7.59375-4.382812v8.769531zm0 0"/><path d="m182.53125 158.074219 7.597656-4.386719v8.769531zm0 0"/><path d="m174.9375 153.6875 7.59375-4.386719v8.773438zm0 0"/><path d="m167.339844 158.074219 7.597656-4.386719v8.769531zm0 0"/><path d="m159.746094 162.457031 7.59375-4.382812v8.769531zm0 0"/><path d="m174.9375 206.3125 7.59375-4.386719v8.773438zm0 0"/><path d="m190.128906 197.542969 7.59375-4.386719v8.769531zm0 0"/><path d="m205.320312 180 7.59375-4.386719v8.773438zm0 0"/><path d="m205.320312 171.230469 7.59375-4.386719v8.769531zm0 0"/><path d="m205.320312 162.457031 7.59375-4.382812v8.769531zm0 0"/><path d="m167.339844 149.300781 7.597656-4.382812v8.769531zm0 0"/><path d="m159.746094 153.6875 7.59375-4.386719v8.773438zm0 0"/><path d="m152.148438 201.925781 7.597656-4.382812v8.769531zm0 0"/><path d="m159.746094 206.3125 7.59375-4.386719v8.773438zm0 0"/><path d="m167.339844 210.699219 7.597656-4.386719v8.769531zm0 0"/><path d="m174.9375 215.082031 7.59375-4.382812v8.769531zm0 0"/><path d="m182.53125 210.699219 7.597656-4.386719v8.769531zm0 0"/><path d="m212.914062 193.15625 7.597657-4.386719v8.773438zm0 0"/><path d="m212.914062 184.386719 7.597657-4.386719v8.769531zm0 0"/><path d="m212.914062 175.613281 7.597657-4.382812v8.769531zm0 0"/><path d="m212.914062 166.84375 7.597657-4.386719v8.773438zm0 0"/><path d="m182.53125 140.53125 7.597656-4.386719v8.773438zm0 0"/><path d="m174.9375 136.144531 7.59375-4.382812v8.769531zm0 0"/><path d="m159.746094 144.917969 7.59375-4.386719v8.769531zm0 0"/><path d="m152.148438 149.300781 7.597656-4.382812v8.769531zm0 0"/><path d="m144.554688 153.6875 7.59375-4.386719v8.773438zm0 0"/><path d="m136.957031 158.074219 7.597657-4.386719v8.769531zm0 0"/><path d="m136.957031 166.84375 7.597657-4.386719v8.773438zm0 0"/><path d="m136.957031 193.15625 7.597657-4.386719v8.773438zm0 0"/><path d="m136.957031 201.925781 7.597657-4.382812v8.769531zm0 0"/><path d="m144.554688 206.3125 7.59375-4.386719v8.773438zm0 0"/><path d="m152.148438 210.699219 7.597656-4.386719v8.769531zm0 0"/><path d="m167.339844 219.46875 7.597656-4.386719v8.773438zm0 0"/><path d="m174.9375 223.855469 7.59375-4.386719v8.769531zm0 0"/><path d="m182.53125 219.46875 7.597656-4.386719v8.773438zm0 0"/><path d="m190.128906 215.082031 7.59375-4.382812v8.769531zm0 0"/><path d="m197.722656 210.699219 7.597656-4.386719v8.769531zm0 0"/><path d="m205.320312 206.3125 7.59375-4.386719v8.773438zm0 0"/><path d="m220.511719 206.3125 7.59375-4.386719v8.773438zm0 0"/><path d="m220.511719 188.769531 7.59375-4.382812v8.769531zm0 0"/><path d="m220.511719 180 7.59375-4.386719v8.773438zm0 0"/><path d="m220.511719 162.457031 7.59375-4.382812v8.769531zm0 0"/><path d="m212.914062 149.300781 7.597657-4.382812v8.769531zm0 0"/><path d="m190.128906 136.144531 7.59375-4.382812v8.769531zm0 0"/><path d="m182.53125 131.761719 7.597656-4.386719v8.769531zm0 0"/><path d="m174.9375 127.375 7.59375-4.386719v8.773438zm0 0"/><path d="m167.339844 131.761719 7.597656-4.386719v8.769531zm0 0"/><path d="m159.746094 136.144531 7.59375-4.382812v8.769531zm0 0"/><path d="m144.554688 144.917969 7.59375-4.386719v8.769531zm0 0"/><path d="m129.363281 162.457031 7.59375-4.382812v8.769531zm0 0"/><path d="m129.363281 188.769531 7.59375-4.382812v8.769531zm0 0"/><path d="m129.363281 197.542969 7.59375-4.386719v8.769531zm0 0"/><path d="m144.554688 215.082031 7.59375-4.382812v8.769531zm0 0"/><path d="m152.148438 219.46875 7.597656-4.386719v8.773438zm0 0"/><path d="m159.746094 223.855469 7.59375-4.386719v8.769531zm0 0"/><path d="m167.339844 228.238281 7.597656-4.382812v8.769531zm0 0"/><path d="m174.9375 232.625 7.59375-4.386719v8.773438zm0 0"/><path d="m190.128906 223.855469 7.59375-4.386719v8.769531zm0 0"/><path d="m197.722656 219.46875 7.597656-4.386719v8.773438zm0 0"/><path d="m205.320312 215.082031 7.59375-4.382812v8.769531zm0 0"/><path d="m212.914062 210.699219 7.597657-4.386719v8.769531zm0 0"/><path d="m228.105469 210.699219 7.597656-4.386719v8.769531zm0 0"/><path d="m228.105469 201.925781 7.597656-4.382812v8.769531zm0 0"/><path d="m228.105469 184.386719 7.597656-4.386719v8.769531zm0 0"/><path d="m228.105469 175.613281 7.597656-4.382812v8.769531zm0 0"/><path d="m228.105469 149.300781 7.597656-4.382812v8.769531zm0 0"/><path d="m220.511719 144.917969 7.59375-4.386719v8.769531zm0 0"/><path d="m212.914062 140.53125 7.597657-4.386719v8.773438zm0 0"/><path d="m205.320312 136.144531 7.59375-4.382812v8.769531zm0 0"/><path d="m197.722656 131.761719 7.597656-4.386719v8.769531zm0 0"/><path d="m190.128906 127.375 7.59375-4.386719v8.773438zm0 0"/><path d="m182.53125 122.988281 7.597656-4.382812v8.769531zm0 0"/><path d="m167.339844 122.988281 7.597656-4.382812v8.769531zm0 0"/><path d="m159.746094 127.375 7.59375-4.386719v8.773438zm0 0"/><path d="m129.363281 144.917969 7.59375-4.386719v8.769531zm0 0"/><path d="m121.765625 175.613281 7.597656-4.382812v8.769531zm0 0"/><path d="m121.765625 193.15625 7.597656-4.386719v8.773438zm0 0"/><path d="m121.765625 201.925781 7.597656-4.382812v8.769531zm0 0"/><path d="m121.765625 210.699219 7.597656-4.386719v8.769531zm0 0"/><path d="m129.363281 215.082031 7.59375-4.382812v8.769531zm0 0"/><path d="m152.148438 228.238281 7.597656-4.382812v8.769531zm0 0"/><path d="m167.339844 237.011719 7.597656-4.386719v8.769531zm0 0"/><path d="m190.128906 232.625 7.59375-4.386719v8.773438zm0 0"/><path d="m197.722656 228.238281 7.597656-4.382812v8.769531zm0 0"/><path d="m205.320312 223.855469 7.59375-4.386719v8.769531zm0 0"/><path d="m212.914062 219.46875 7.597657-4.386719v8.773438zm0 0"/><path d="m220.511719 215.082031 7.59375-4.382812v8.769531zm0 0"/><path d="m235.703125 188.769531 7.59375-4.382812v8.769531zm0 0"/><path d="m235.703125 180 7.59375-4.386719v8.773438zm0 0"/><path d="m235.703125 162.457031 7.59375-4.382812v8.769531zm0 0"/><path d="m235.703125 144.917969 7.59375-4.386719v8.769531zm0 0"/><path d="m228.105469 140.53125 7.597656-4.386719v8.773438zm0 0"/><path d="m197.722656 122.988281 7.597656-4.382812v8.769531zm0 0"/><path d="m190.128906 118.605469 7.59375-4.386719v8.769531zm0 0"/><path d="m174.9375 109.832031 7.59375-4.382812v8.769531zm0 0"/><path d="m152.148438 122.988281 7.597656-4.382812v8.769531zm0 0"/><path d="m144.554688 127.375 7.59375-4.386719v8.773438zm0 0"/><path d="m114.171875 180 7.59375-4.386719v8.773438zm0 0"/><path d="m114.171875 188.769531 7.59375-4.382812v8.769531zm0 0"/><path d="m114.171875 197.542969 7.59375-4.386719v8.769531zm0 0"/><path d="m159.746094 241.394531 7.59375-4.382812v8.769531zm0 0"/><path d="m167.339844 245.78125 7.597656-4.386719v8.773438zm0 0"/><path d="m182.53125 245.78125 7.597656-4.386719v8.773438zm0 0"/><path d="m197.722656 237.011719 7.597656-4.386719v8.769531zm0 0"/><path d="m205.320312 232.625 7.59375-4.386719v8.773438zm0 0"/><path d="m212.914062 228.238281 7.597657-4.382812v8.769531zm0 0"/><path d="m220.511719 223.855469 7.59375-4.386719v8.769531zm0 0"/><path d="m243.296875 219.46875 7.597656-4.386719v8.773438zm0 0"/><path d="m243.296875 210.699219 7.597656-4.386719v8.769531zm0 0"/><path d="m243.296875 201.925781 7.597656-4.382812v8.769531zm0 0"/><path d="m243.296875 193.15625 7.597656-4.386719v8.773438zm0 0"/><path d="m243.296875 184.386719 7.597656-4.386719v8.769531zm0 0"/><path d="m243.296875 175.613281 7.597656-4.382812v8.769531zm0 0"/><path d="m243.296875 140.53125 7.597656-4.386719v8.773438zm0 0"/><path d="m212.914062 122.988281 7.597657-4.382812v8.769531zm0 0"/><path d="m205.320312 118.605469 7.59375-4.386719v8.769531zm0 0"/><path d="m197.722656 114.21875 7.597656-4.386719v8.773438zm0 0"/><path d="m182.53125 105.449219 7.597656-4.386719v8.769531zm0 0"/><path d="m174.9375 101.0625 7.59375-4.386719v8.773438zm0 0"/><path d="m167.339844 105.449219 7.597656-4.386719v8.769531zm0 0"/><path d="m152.148438 114.21875 7.597656-4.386719v8.773438zm0 0"/><path d="m121.765625 131.761719 7.597656-4.386719v8.769531zm0 0"/><path d="m106.574219 166.84375 7.597656-4.386719v8.773438zm0 0"/><path d="m106.574219 175.613281 7.597656-4.382812v8.769531zm0 0"/><path d="m106.574219 193.15625 7.597656-4.386719v8.773438zm0 0"/><path d="m106.574219 219.46875 7.597656-4.386719v8.773438zm0 0"/><path d="m114.171875 223.855469 7.59375-4.386719v8.769531zm0 0"/><path d="m144.554688 241.394531 7.59375-4.382812v8.769531zm0 0"/><path d="m159.746094 250.167969 7.59375-4.386719v8.769531zm0 0"/><path d="m167.339844 254.550781 7.597656-4.382812v8.769531zm0 0"/><path d="m174.9375 258.9375 7.59375-4.386719v8.773438zm0 0"/><path d="m205.320312 241.394531 7.59375-4.382812v8.769531zm0 0"/><path d="m212.914062 237.011719 7.597657-4.386719v8.769531zm0 0"/><path d="m220.511719 232.625 7.59375-4.386719v8.773438zm0 0"/><path d="m250.894531 223.855469 7.59375-4.386719v8.769531zm0 0"/><path d="m250.894531 215.082031 7.59375-4.382812v8.769531zm0 0"/><path d="m250.894531 206.3125 7.59375-4.386719v8.773438zm0 0"/><path d="m228.105469 122.988281 7.597656-4.382812v8.769531zm0 0"/><path d="m220.511719 118.605469 7.59375-4.386719v8.769531zm0 0"/><path d="m174.9375 92.292969 7.59375-4.386719v8.769531zm0 0"/><path d="m167.339844 96.675781 7.597656-4.382812v8.769531zm0 0"/><path d="m159.746094 101.0625 7.59375-4.386719v8.773438zm0 0"/><path d="m152.148438 105.449219 7.597656-4.386719v8.769531zm0 0"/><path d="m144.554688 109.832031 7.59375-4.382812v8.769531zm0 0"/><path d="m121.765625 122.988281 7.597656-4.382812v8.769531zm0 0"/><path d="m98.980469 171.230469 7.59375-4.386719v8.769531zm0 0"/><path d="m106.574219 228.238281 7.597656-4.382812v8.769531zm0 0"/><path d="m129.363281 241.394531 7.59375-4.382812v8.769531zm0 0"/><path d="m136.957031 245.78125 7.597657-4.386719v8.773438zm0 0"/><path d="m144.554688 250.167969 7.59375-4.386719v8.769531zm0 0"/><path d="m167.339844 263.324219 7.597656-4.386719v8.769531zm0 0"/><path d="m174.9375 267.707031 7.59375-4.382812v8.769531zm0 0"/><path d="m220.511719 241.394531 7.59375-4.382812v8.769531zm0 0"/><path d="m235.703125 232.625 7.59375-4.386719v8.773438zm0 0"/><path d="m243.296875 228.238281 7.597656-4.382812v8.769531zm0 0"/><path d="m258.488281 228.238281 7.597657-4.382812v8.769531zm0 0"/><path d="m258.488281 140.53125 7.597657-4.386719v8.773438zm0 0"/><path d="m235.703125 118.605469 7.59375-4.386719v8.769531zm0 0"/><path d="m212.914062 105.449219 7.597657-4.386719v8.769531zm0 0"/><path d="m205.320312 101.0625 7.59375-4.386719v8.773438zm0 0"/><path d="m136.957031 105.449219 7.597657-4.386719v8.769531zm0 0"/><path d="m98.980469 127.375 7.59375-4.386719v8.773438zm0 0"/><path d="m91.382812 131.761719 7.597657-4.386719v8.769531zm0 0"/><path d="m91.382812 140.53125 7.597657-4.386719v8.773438zm0 0"/><path d="m91.382812 149.300781 7.597657-4.382812v8.769531zm0 0"/><path d="m91.382812 166.84375 7.597657-4.386719v8.773438zm0 0"/><path d="m91.382812 175.613281 7.597657-4.382812v8.769531zm0 0"/><path d="m91.382812 193.15625 7.597657-4.386719v8.773438zm0 0"/><path d="m91.382812 201.925781 7.597657-4.382812v8.769531zm0 0"/><path d="m98.980469 232.625 7.59375-4.386719v8.773438zm0 0"/><path d="m106.574219 237.011719 7.597656-4.386719v8.769531zm0 0"/><path d="m114.171875 241.394531 7.59375-4.382812v8.769531zm0 0"/><path d="m121.765625 245.78125 7.597656-4.386719v8.773438zm0 0"/><path d="m129.363281 250.167969 7.59375-4.386719v8.769531zm0 0"/><path d="m136.957031 254.550781 7.597657-4.382812v8.769531zm0 0"/><path d="m167.339844 272.09375 7.597656-4.386719v8.769531zm0 0"/><path d="m174.9375 276.476562 7.59375-4.382812v8.769531zm0 0"/><path d="m182.53125 272.09375 7.597656-4.386719v8.769531zm0 0"/><path d="m212.914062 254.550781 7.597657-4.382812v8.769531zm0 0"/><path d="m243.296875 237.011719 7.597656-4.386719v8.769531zm0 0"/><path d="m250.894531 232.625 7.59375-4.386719v8.773438zm0 0"/><path d="m266.085938 215.082031 7.59375-4.382812v8.769531zm0 0"/><path d="m266.085938 206.3125 7.59375-4.386719v8.773438zm0 0"/><path d="m266.085938 188.769531 7.59375-4.382812v8.769531zm0 0"/><path d="m266.085938 162.457031 7.59375-4.382812v8.769531zm0 0"/><path d="m266.085938 153.6875 7.59375-4.386719v8.773438zm0 0"/><path d="m266.085938 144.917969 7.59375-4.386719v8.769531zm0 0"/><path d="m258.488281 122.988281 7.597657-4.382812v8.769531zm0 0"/><path d="m250.894531 118.605469 7.59375-4.386719v8.769531zm0 0"/><path d="m243.296875 114.21875 7.597656-4.386719v8.773438zm0 0"/><path d="m235.703125 109.832031 7.59375-4.382812v8.769531zm0 0"/><path d="m228.105469 105.449219 7.597656-4.386719v8.769531zm0 0"/><path d="m220.511719 101.0625 7.59375-4.386719v8.773438zm0 0"/><path d="m212.914062 96.675781 7.597657-4.382812v8.769531zm0 0"/><path d="m205.320312 92.292969 7.59375-4.386719v8.769531zm0 0"/><path d="m174.9375 74.75 7.59375-4.382812v8.769531zm0 0"/><path d="m159.746094 83.523438 7.59375-4.386719v8.769531zm0 0"/><path d="m136.957031 96.675781 7.597657-4.382812v8.769531zm0 0"/><path d="m106.574219 114.21875 7.597656-4.386719v8.773438zm0 0"/><path d="m98.980469 118.605469 7.59375-4.386719v8.769531zm0 0"/><path d="m91.382812 122.988281 7.597657-4.382812v8.769531zm0 0"/><path d="m83.789062 127.375 7.59375-4.386719v8.773438zm0 0"/><path d="m83.789062 136.144531 7.59375-4.382812v8.769531zm0 0"/><path d="m83.789062 171.230469 7.59375-4.386719v8.769531zm0 0"/><path d="m83.789062 215.082031 7.59375-4.382812v8.769531zm0 0"/><path d="m91.382812 237.011719 7.597657-4.386719v8.769531zm0 0"/><path d="m114.171875 250.167969 7.59375-4.386719v8.769531zm0 0"/><path d="m144.554688 267.707031 7.59375-4.382812v8.769531zm0 0"/><path d="m167.339844 280.863281 7.597656-4.386719v8.773438zm0 0"/><path d="m182.53125 280.863281 7.597656-4.386719v8.773438zm0 0"/><path d="m190.128906 276.476562 7.59375-4.382812v8.769531zm0 0"/><path d="m205.320312 267.707031 7.59375-4.382812v8.769531zm0 0"/><path d="m220.511719 258.9375 7.59375-4.386719v8.773438zm0 0"/><path d="m228.105469 254.550781 7.597656-4.382812v8.769531zm0 0"/><path d="m243.296875 245.78125 7.597656-4.386719v8.773438zm0 0"/><path d="m250.894531 241.394531 7.59375-4.382812v8.769531zm0 0"/><path d="m273.679688 201.925781 7.597656-4.382812v8.769531zm0 0"/><path d="m273.679688 184.386719 7.597656-4.386719v8.769531zm0 0"/><path d="m273.679688 175.613281 7.597656-4.382812v8.769531zm0 0"/><path d="m273.679688 166.84375 7.597656-4.386719v8.773438zm0 0"/><path d="m273.679688 158.074219 7.597656-4.386719v8.769531zm0 0"/><path d="m273.679688 149.300781 7.597656-4.382812v8.769531zm0 0"/><path d="m235.703125 101.0625 7.59375-4.386719v8.773438zm0 0"/><path d="m197.722656 79.136719 7.597656-4.386719v8.773438zm0 0"/><path d="m190.128906 74.75 7.59375-4.382812v8.769531zm0 0"/><path d="m159.746094 74.75 7.59375-4.382812v8.769531zm0 0"/><path d="m144.554688 83.523438 7.59375-4.386719v8.769531zm0 0"/><path d="m136.957031 87.90625 7.597657-4.382812v8.769531zm0 0"/><path d="m114.171875 101.0625 7.59375-4.386719v8.773438zm0 0"/><path d="m106.574219 105.449219 7.597656-4.386719v8.769531zm0 0"/><path d="m91.382812 114.21875 7.597657-4.386719v8.773438zm0 0"/><path d="m76.191406 149.300781 7.597656-4.382812v8.769531zm0 0"/><path d="m76.191406 166.84375 7.597656-4.386719v8.773438zm0 0"/><path d="m76.191406 193.15625 7.597656-4.386719v8.773438zm0 0"/><path d="m76.191406 201.925781 7.597656-4.382812v8.769531zm0 0"/><path d="m76.191406 210.699219 7.597656-4.386719v8.769531zm0 0"/><path d="m106.574219 254.550781 7.597656-4.382812v8.769531zm0 0"/><path d="m136.957031 272.09375 7.597657-4.386719v8.769531zm0 0"/><path d="m144.554688 276.476562 7.59375-4.382812v8.769531zm0 0"/><path d="m190.128906 285.25 7.59375-4.386719v8.769531zm0 0"/><path d="m197.722656 280.863281 7.597656-4.386719v8.773438zm0 0"/><path d="m205.320312 276.476562 7.59375-4.382812v8.769531zm0 0"/><path d="m212.914062 272.09375 7.597657-4.386719v8.769531zm0 0"/><path d="m243.296875 254.550781 7.597656-4.382812v8.769531zm0 0"/><path d="m281.277344 197.542969 7.59375-4.386719v8.769531zm0 0"/><path d="m281.277344 188.769531 7.59375-4.382812v8.769531zm0 0"/><path d="m281.277344 180 7.59375-4.386719v8.773438zm0 0"/><path d="m281.277344 171.230469 7.59375-4.386719v8.769531zm0 0"/><path d="m243.296875 96.675781 7.597656-4.382812v8.769531zm0 0"/><path d="m235.703125 92.292969 7.59375-4.386719v8.769531zm0 0"/><path d="m228.105469 87.90625 7.597656-4.382812v8.769531zm0 0"/><path d="m129.363281 83.523438 7.59375-4.386719v8.769531zm0 0"/><path d="m121.765625 87.90625 7.597656-4.382812v8.769531zm0 0"/><path d="m114.171875 92.292969 7.59375-4.386719v8.769531zm0 0"/><path d="m106.574219 96.675781 7.597656-4.382812v8.769531zm0 0"/><path d="m98.980469 101.0625 7.59375-4.386719v8.773438zm0 0"/><path d="m68.597656 153.6875 7.59375-4.386719v8.773438zm0 0"/><path d="m68.597656 162.457031 7.59375-4.382812v8.769531zm0 0"/><path d="m68.597656 171.230469 7.59375-4.386719v8.769531zm0 0"/><path d="m68.597656 180 7.59375-4.386719v8.773438zm0 0"/><path d="m68.597656 188.769531 7.59375-4.382812v8.769531zm0 0"/><path d="m68.597656 197.542969 7.59375-4.386719v8.769531zm0 0"/><path d="m114.171875 267.707031 7.59375-4.382812v8.769531zm0 0"/><path d="m144.554688 285.25 7.59375-4.386719v8.769531zm0 0"/><path d="m212.914062 280.863281 7.597657-4.386719v8.773438zm0 0"/><path d="m228.105469 272.09375 7.597656-4.386719v8.769531zm0 0"/><path d="m235.703125 267.707031 7.59375-4.382812v8.769531zm0 0"/><path d="m288.871094 184.386719 7.597656-4.386719v8.769531zm0 0"/><path d="m288.871094 175.613281 7.597656-4.382812v8.769531zm0 0"/><path d="m235.703125 83.523438 7.59375-4.386719v8.769531zm0 0"/><path d="m228.105469 79.136719 7.597656-4.386719v8.773438zm0 0"/><path d="m220.511719 74.75 7.59375-4.382812v8.769531zm0 0"/><path d="m129.363281 74.75 7.59375-4.382812v8.769531zm0 0"/><path d="m121.765625 79.136719 7.597656-4.386719v8.773438zm0 0"/><path d="m114.171875 83.523438 7.59375-4.386719v8.769531zm0 0"/><path d="m61 166.84375 7.597656-4.386719v8.773438zm0 0"/><path d="m61 175.613281 7.597656-4.382812v8.769531zm0 0"/><path d="m61 184.386719 7.597656-4.386719v8.769531zm0 0"/><path d="m129.363281 285.25 7.59375-4.386719v8.769531zm0 0"/><path d="m228.105469 280.863281 7.597656-4.386719v8.773438zm0 0"/><path d="m235.703125 276.476562 7.59375-4.382812v8.769531zm0 0"/><path d="m114.171875 74.75 7.59375-4.382812v8.769531zm0 0"/><path d="m182.53125 175.613281-7.59375-4.382812v8.769531zm0 0"/><path d="m182.53125 184.386719-7.59375-4.386719v8.769531zm0 0"/><path d="m197.722656 175.613281-7.59375-4.382812v8.769531zm0 0"/><path d="m190.128906 171.230469-7.597656-4.386719v8.769531zm0 0"/><path d="m182.53125 166.84375-7.59375-4.386719v8.773438zm0 0"/><path d="m174.9375 188.769531-7.597656-4.382812v8.769531zm0 0"/><path d="m205.320312 180-7.597656-4.386719v8.773438zm0 0"/><path d="m205.320312 171.230469-7.597656-4.386719v8.769531zm0 0"/><path d="m197.722656 166.84375-7.59375-4.386719v8.773438zm0 0"/><path d="m190.128906 162.457031-7.597656-4.382812v8.769531zm0 0"/><path d="m167.339844 193.15625-7.59375-4.386719v8.773438zm0 0"/><path d="m182.53125 201.925781-7.59375-4.382812v8.769531zm0 0"/><path d="m190.128906 197.542969-7.597656-4.386719v8.769531zm0 0"/><path d="m212.914062 175.613281-7.59375-4.382812v8.769531zm0 0"/><path d="m190.128906 153.6875-7.597656-4.386719v8.773438zm0 0"/><path d="m174.9375 153.6875-7.597656-4.386719v8.773438zm0 0"/><path d="m167.339844 158.074219-7.59375-4.386719v8.769531zm0 0"/><path d="m159.746094 162.457031-7.597656-4.382812v8.769531zm0 0"/><path d="m159.746094 180-7.597656-4.386719v8.773438zm0 0"/><path d="m167.339844 201.925781-7.59375-4.382812v8.769531zm0 0"/><path d="m182.53125 210.699219-7.59375-4.386719v8.769531zm0 0"/><path d="m190.128906 206.3125-7.597656-4.386719v8.773438zm0 0"/><path d="m220.511719 197.542969-7.597657-4.386719v8.769531zm0 0"/><path d="m220.511719 188.769531-7.597657-4.382812v8.769531zm0 0"/><path d="m220.511719 180-7.597657-4.386719v8.773438zm0 0"/><path d="m220.511719 171.230469-7.597657-4.386719v8.769531zm0 0"/><path d="m220.511719 162.457031-7.597657-4.382812v8.769531zm0 0"/><path d="m212.914062 158.074219-7.59375-4.386719v8.769531zm0 0"/><path d="m190.128906 144.917969-7.597656-4.386719v8.769531zm0 0"/><path d="m182.53125 140.53125-7.59375-4.386719v8.773438zm0 0"/><path d="m167.339844 149.300781-7.59375-4.382812v8.769531zm0 0"/><path d="m159.746094 153.6875-7.597656-4.386719v8.773438zm0 0"/><path d="m152.148438 158.074219-7.59375-4.386719v8.769531zm0 0"/><path d="m152.148438 166.84375-7.59375-4.386719v8.773438zm0 0"/><path d="m152.148438 193.15625-7.59375-4.386719v8.773438zm0 0"/><path d="m167.339844 210.699219-7.59375-4.386719v8.769531zm0 0"/><path d="m174.9375 215.082031-7.597656-4.382812v8.769531zm0 0"/><path d="m205.320312 206.3125-7.597656-4.386719v8.773438zm0 0"/><path d="m228.105469 201.925781-7.59375-4.382812v8.769531zm0 0"/><path d="m228.105469 184.386719-7.59375-4.386719v8.769531zm0 0"/><path d="m228.105469 166.84375-7.59375-4.386719v8.773438zm0 0"/><path d="m220.511719 153.6875-7.597657-4.386719v8.773438zm0 0"/><path d="m212.914062 149.300781-7.59375-4.382812v8.769531zm0 0"/><path d="m197.722656 140.53125-7.59375-4.386719v8.773438zm0 0"/><path d="m190.128906 136.144531-7.597656-4.382812v8.769531zm0 0"/><path d="m182.53125 131.761719-7.59375-4.386719v8.769531zm0 0"/><path d="m167.339844 140.53125-7.59375-4.386719v8.773438zm0 0"/><path d="m159.746094 144.917969-7.597656-4.386719v8.769531zm0 0"/><path d="m152.148438 149.300781-7.59375-4.382812v8.769531zm0 0"/><path d="m144.554688 153.6875-7.597657-4.386719v8.773438zm0 0"/><path d="m144.554688 162.457031-7.597657-4.382812v8.769531zm0 0"/><path d="m144.554688 180-7.597657-4.386719v8.773438zm0 0"/><path d="m144.554688 197.542969-7.597657-4.386719v8.769531zm0 0"/><path d="m144.554688 206.3125-7.597657-4.386719v8.773438zm0 0"/><path d="m159.746094 215.082031-7.597656-4.382812v8.769531zm0 0"/><path d="m182.53125 228.238281-7.59375-4.382812v8.769531zm0 0"/><path d="m205.320312 215.082031-7.597656-4.382812v8.769531zm0 0"/><path d="m212.914062 210.699219-7.59375-4.386719v8.769531zm0 0"/><path d="m220.511719 206.3125-7.597657-4.386719v8.773438zm0 0"/><path d="m235.703125 206.3125-7.597656-4.386719v8.773438zm0 0"/><path d="m235.703125 180-7.597656-4.386719v8.773438zm0 0"/><path d="m235.703125 171.230469-7.597656-4.386719v8.769531zm0 0"/><path d="m235.703125 153.6875-7.597656-4.386719v8.773438zm0 0"/><path d="m228.105469 149.300781-7.59375-4.382812v8.769531zm0 0"/><path d="m220.511719 144.917969-7.597657-4.386719v8.769531zm0 0"/><path d="m205.320312 136.144531-7.597656-4.382812v8.769531zm0 0"/><path d="m197.722656 131.761719-7.59375-4.386719v8.769531zm0 0"/><path d="m190.128906 127.375-7.597656-4.386719v8.773438zm0 0"/><path d="m167.339844 131.761719-7.59375-4.386719v8.769531zm0 0"/><path d="m159.746094 136.144531-7.597656-4.382812v8.769531zm0 0"/><path d="m144.554688 144.917969-7.597657-4.386719v8.769531zm0 0"/><path d="m136.957031 158.074219-7.59375-4.386719v8.769531zm0 0"/><path d="m136.957031 166.84375-7.59375-4.386719v8.773438zm0 0"/><path d="m136.957031 175.613281-7.59375-4.382812v8.769531zm0 0"/><path d="m136.957031 184.386719-7.59375-4.386719v8.769531zm0 0"/><path d="m136.957031 193.15625-7.59375-4.386719v8.773438zm0 0"/><path d="m136.957031 201.925781-7.59375-4.382812v8.769531zm0 0"/><path d="m136.957031 210.699219-7.59375-4.386719v8.769531zm0 0"/><path d="m144.554688 215.082031-7.597657-4.382812v8.769531zm0 0"/><path d="m159.746094 223.855469-7.597656-4.386719v8.769531zm0 0"/><path d="m190.128906 232.625-7.597656-4.386719v8.773438zm0 0"/><path d="m197.722656 228.238281-7.59375-4.382812v8.769531zm0 0"/><path d="m205.320312 223.855469-7.597656-4.386719v8.769531zm0 0"/><path d="m212.914062 219.46875-7.59375-4.386719v8.773438zm0 0"/><path d="m220.511719 215.082031-7.597657-4.382812v8.769531zm0 0"/><path d="m228.105469 210.699219-7.59375-4.386719v8.769531zm0 0"/><path d="m243.296875 210.699219-7.59375-4.386719v8.769531zm0 0"/><path d="m243.296875 166.84375-7.59375-4.386719v8.773438zm0 0"/><path d="m235.703125 144.917969-7.597656-4.386719v8.769531zm0 0"/><path d="m228.105469 140.53125-7.59375-4.386719v8.773438zm0 0"/><path d="m212.914062 131.761719-7.59375-4.386719v8.769531zm0 0"/><path d="m205.320312 127.375-7.597656-4.386719v8.773438zm0 0"/><path d="m197.722656 122.988281-7.59375-4.382812v8.769531zm0 0"/><path d="m190.128906 118.605469-7.597656-4.386719v8.769531zm0 0"/><path d="m174.9375 118.605469-7.597656-4.386719v8.769531zm0 0"/><path d="m129.363281 171.230469-7.597656-4.386719v8.769531zm0 0"/><path d="m129.363281 180-7.597656-4.386719v8.773438zm0 0"/><path d="m129.363281 206.3125-7.597656-4.386719v8.773438zm0 0"/><path d="m167.339844 237.011719-7.59375-4.386719v8.769531zm0 0"/><path d="m174.9375 241.394531-7.597656-4.382812v8.769531zm0 0"/><path d="m197.722656 237.011719-7.59375-4.386719v8.769531zm0 0"/><path d="m205.320312 232.625-7.597656-4.386719v8.773438zm0 0"/><path d="m212.914062 228.238281-7.59375-4.382812v8.769531zm0 0"/><path d="m220.511719 223.855469-7.597657-4.386719v8.769531zm0 0"/><path d="m228.105469 219.46875-7.59375-4.386719v8.773438zm0 0"/><path d="m250.894531 215.082031-7.597656-4.382812v8.769531zm0 0"/><path d="m250.894531 206.3125-7.597656-4.386719v8.773438zm0 0"/><path d="m250.894531 188.769531-7.597656-4.382812v8.769531zm0 0"/><path d="m250.894531 180-7.597656-4.386719v8.773438zm0 0"/><path d="m250.894531 171.230469-7.597656-4.386719v8.769531zm0 0"/><path d="m243.296875 140.53125-7.59375-4.386719v8.773438zm0 0"/><path d="m235.703125 136.144531-7.597656-4.382812v8.769531zm0 0"/><path d="m228.105469 131.761719-7.59375-4.386719v8.769531zm0 0"/><path d="m220.511719 127.375-7.597657-4.386719v8.773438zm0 0"/><path d="m197.722656 114.21875-7.59375-4.386719v8.773438zm0 0"/><path d="m182.53125 105.449219-7.59375-4.386719v8.769531zm0 0"/><path d="m167.339844 114.21875-7.59375-4.386719v8.773438zm0 0"/><path d="m136.957031 131.761719-7.59375-4.386719v8.769531zm0 0"/><path d="m121.765625 140.53125-7.59375-4.386719v8.773438zm0 0"/><path d="m121.765625 149.300781-7.59375-4.382812v8.769531zm0 0"/><path d="m121.765625 158.074219-7.59375-4.386719v8.769531zm0 0"/><path d="m121.765625 175.613281-7.59375-4.382812v8.769531zm0 0"/><path d="m121.765625 184.386719-7.59375-4.386719v8.769531zm0 0"/><path d="m121.765625 193.15625-7.59375-4.386719v8.773438zm0 0"/><path d="m121.765625 201.925781-7.59375-4.382812v8.769531zm0 0"/><path d="m129.363281 223.855469-7.597656-4.386719v8.769531zm0 0"/><path d="m152.148438 237.011719-7.59375-4.386719v8.769531zm0 0"/><path d="m159.746094 241.394531-7.597656-4.382812v8.769531zm0 0"/><path d="m167.339844 245.78125-7.59375-4.386719v8.773438zm0 0"/><path d="m174.9375 250.167969-7.597656-4.386719v8.769531zm0 0"/><path d="m190.128906 250.167969-7.597656-4.386719v8.769531zm0 0"/><path d="m205.320312 241.394531-7.597656-4.382812v8.769531zm0 0"/><path d="m212.914062 237.011719-7.59375-4.386719v8.769531zm0 0"/><path d="m220.511719 232.625-7.597657-4.386719v8.773438zm0 0"/><path d="m228.105469 228.238281-7.59375-4.382812v8.769531zm0 0"/><path d="m235.703125 223.855469-7.597656-4.386719v8.769531zm0 0"/><path d="m243.296875 219.46875-7.59375-4.386719v8.773438zm0 0"/><path d="m258.488281 210.699219-7.59375-4.386719v8.769531zm0 0"/><path d="m243.296875 131.761719-7.59375-4.386719v8.769531zm0 0"/><path d="m235.703125 127.375-7.597656-4.386719v8.773438zm0 0"/><path d="m228.105469 122.988281-7.59375-4.382812v8.769531zm0 0"/><path d="m220.511719 118.605469-7.597657-4.386719v8.769531zm0 0"/><path d="m212.914062 114.21875-7.59375-4.386719v8.773438zm0 0"/><path d="m205.320312 109.832031-7.597656-4.382812v8.769531zm0 0"/><path d="m190.128906 101.0625-7.597656-4.386719v8.773438zm0 0"/><path d="m182.53125 96.675781-7.59375-4.382812v8.769531zm0 0"/><path d="m174.9375 101.0625-7.597656-4.386719v8.773438zm0 0"/><path d="m167.339844 105.449219-7.59375-4.386719v8.769531zm0 0"/><path d="m159.746094 109.832031-7.597656-4.382812v8.769531zm0 0"/><path d="m136.957031 122.988281-7.59375-4.382812v8.769531zm0 0"/><path d="m121.765625 131.761719-7.59375-4.386719v8.769531zm0 0"/><path d="m114.171875 136.144531-7.597656-4.382812v8.769531zm0 0"/><path d="m114.171875 144.917969-7.597656-4.386719v8.769531zm0 0"/><path d="m114.171875 171.230469-7.597656-4.386719v8.769531zm0 0"/><path d="m114.171875 188.769531-7.597656-4.382812v8.769531zm0 0"/><path d="m114.171875 223.855469-7.597656-4.386719v8.769531zm0 0"/><path d="m121.765625 228.238281-7.59375-4.382812v8.769531zm0 0"/><path d="m144.554688 241.394531-7.597657-4.382812v8.769531zm0 0"/><path d="m152.148438 245.78125-7.59375-4.386719v8.773438zm0 0"/><path d="m167.339844 254.550781-7.59375-4.382812v8.769531zm0 0"/><path d="m182.53125 263.324219-7.59375-4.386719v8.769531zm0 0"/><path d="m190.128906 258.9375-7.597656-4.386719v8.773438zm0 0"/><path d="m228.105469 237.011719-7.59375-4.386719v8.769531zm0 0"/><path d="m235.703125 232.625-7.597656-4.386719v8.773438zm0 0"/><path d="m250.894531 223.855469-7.597656-4.386719v8.769531zm0 0"/><path d="m266.085938 197.542969-7.597657-4.386719v8.769531zm0 0"/><path d="m266.085938 144.917969-7.597657-4.386719v8.769531zm0 0"/><path d="m250.894531 127.375-7.597656-4.386719v8.773438zm0 0"/><path d="m220.511719 109.832031-7.597657-4.382812v8.769531zm0 0"/><path d="m212.914062 105.449219-7.59375-4.386719v8.769531zm0 0"/><path d="m190.128906 92.292969-7.597656-4.386719v8.769531zm0 0"/><path d="m152.148438 105.449219-7.59375-4.386719v8.769531zm0 0"/><path d="m144.554688 109.832031-7.597657-4.382812v8.769531zm0 0"/><path d="m136.957031 114.21875-7.59375-4.386719v8.773438zm0 0"/><path d="m114.171875 127.375-7.597656-4.386719v8.773438zm0 0"/><path d="m106.574219 131.761719-7.59375-4.386719v8.769531zm0 0"/><path d="m106.574219 140.53125-7.59375-4.386719v8.773438zm0 0"/><path d="m106.574219 149.300781-7.59375-4.382812v8.769531zm0 0"/><path d="m106.574219 166.84375-7.59375-4.386719v8.773438zm0 0"/><path d="m106.574219 175.613281-7.59375-4.382812v8.769531zm0 0"/><path d="m106.574219 201.925781-7.59375-4.382812v8.769531zm0 0"/><path d="m106.574219 228.238281-7.59375-4.382812v8.769531zm0 0"/><path d="m121.765625 237.011719-7.59375-4.386719v8.769531zm0 0"/><path d="m136.957031 245.78125-7.59375-4.386719v8.773438zm0 0"/><path d="m144.554688 250.167969-7.597657-4.386719v8.769531zm0 0"/><path d="m152.148438 254.550781-7.59375-4.382812v8.769531zm0 0"/><path d="m159.746094 258.9375-7.597656-4.386719v8.773438zm0 0"/><path d="m182.53125 272.09375-7.59375-4.386719v8.769531zm0 0"/><path d="m190.128906 267.707031-7.597656-4.382812v8.769531zm0 0"/><path d="m235.703125 241.394531-7.597656-4.382812v8.769531zm0 0"/><path d="m243.296875 237.011719-7.59375-4.386719v8.769531zm0 0"/><path d="m250.894531 232.625-7.597656-4.386719v8.773438zm0 0"/><path d="m258.488281 228.238281-7.59375-4.382812v8.769531zm0 0"/><path d="m273.679688 228.238281-7.59375-4.382812v8.769531zm0 0"/><path d="m273.679688 210.699219-7.59375-4.386719v8.769531zm0 0"/><path d="m273.679688 175.613281-7.59375-4.382812v8.769531zm0 0"/><path d="m266.085938 127.375-7.597657-4.386719v8.773438zm0 0"/><path d="m258.488281 122.988281-7.59375-4.382812v8.769531zm0 0"/><path d="m250.894531 118.605469-7.597656-4.386719v8.769531zm0 0"/><path d="m235.703125 109.832031-7.597656-4.382812v8.769531zm0 0"/><path d="m197.722656 87.90625-7.59375-4.382812v8.769531zm0 0"/><path d="m182.53125 79.136719-7.59375-4.386719v8.773438zm0 0"/><path d="m167.339844 87.90625-7.59375-4.382812v8.769531zm0 0"/><path d="m152.148438 96.675781-7.59375-4.382812v8.769531zm0 0"/><path d="m114.171875 118.605469-7.597656-4.386719v8.769531zm0 0"/><path d="m106.574219 122.988281-7.59375-4.382812v8.769531zm0 0"/><path d="m98.980469 153.6875-7.597657-4.386719v8.773438zm0 0"/><path d="m98.980469 171.230469-7.597657-4.386719v8.769531zm0 0"/><path d="m98.980469 188.769531-7.597657-4.382812v8.769531zm0 0"/><path d="m98.980469 206.3125-7.597657-4.386719v8.773438zm0 0"/><path d="m106.574219 237.011719-7.59375-4.386719v8.769531zm0 0"/><path d="m114.171875 241.394531-7.597656-4.382812v8.769531zm0 0"/><path d="m121.765625 245.78125-7.59375-4.386719v8.773438zm0 0"/><path d="m152.148438 263.324219-7.59375-4.386719v8.769531zm0 0"/><path d="m159.746094 267.707031-7.597656-4.382812v8.769531zm0 0"/><path d="m174.9375 276.476562-7.597656-4.382812v8.769531zm0 0"/><path d="m182.53125 280.863281-7.59375-4.386719v8.773438zm0 0"/><path d="m190.128906 276.476562-7.597656-4.382812v8.769531zm0 0"/><path d="m212.914062 263.324219-7.59375-4.386719v8.769531zm0 0"/><path d="m228.105469 254.550781-7.59375-4.382812v8.769531zm0 0"/><path d="m258.488281 237.011719-7.59375-4.386719v8.769531zm0 0"/><path d="m266.085938 232.625-7.597657-4.386719v8.773438zm0 0"/><path d="m281.277344 197.542969-7.597656-4.386719v8.769531zm0 0"/><path d="m281.277344 180-7.597656-4.386719v8.773438zm0 0"/><path d="m281.277344 171.230469-7.597656-4.386719v8.769531zm0 0"/><path d="m281.277344 153.6875-7.597656-4.386719v8.773438zm0 0"/><path d="m281.277344 144.917969-7.597656-4.386719v8.769531zm0 0"/><path d="m266.085938 118.605469-7.597657-4.386719v8.769531zm0 0"/><path d="m258.488281 114.21875-7.59375-4.386719v8.773438zm0 0"/><path d="m243.296875 105.449219-7.59375-4.386719v8.769531zm0 0"/><path d="m235.703125 101.0625-7.597656-4.386719v8.773438zm0 0"/><path d="m228.105469 96.675781-7.59375-4.382812v8.769531zm0 0"/><path d="m220.511719 92.292969-7.597657-4.386719v8.769531zm0 0"/><path d="m197.722656 79.136719-7.59375-4.386719v8.773438zm0 0"/><path d="m167.339844 79.136719-7.59375-4.386719v8.773438zm0 0"/><path d="m152.148438 87.90625-7.59375-4.382812v8.769531zm0 0"/><path d="m144.554688 92.292969-7.597657-4.386719v8.769531zm0 0"/><path d="m136.957031 96.675781-7.59375-4.382812v8.769531zm0 0"/><path d="m106.574219 114.21875-7.59375-4.386719v8.773438zm0 0"/><path d="m98.980469 118.605469-7.597657-4.386719v8.769531zm0 0"/><path d="m91.382812 131.761719-7.59375-4.386719v8.769531zm0 0"/><path d="m91.382812 166.84375-7.59375-4.386719v8.773438zm0 0"/><path d="m91.382812 184.386719-7.59375-4.386719v8.769531zm0 0"/><path d="m91.382812 201.925781-7.59375-4.382812v8.769531zm0 0"/><path d="m91.382812 210.699219-7.59375-4.386719v8.769531zm0 0"/><path d="m91.382812 219.46875-7.59375-4.386719v8.773438zm0 0"/><path d="m106.574219 245.78125-7.59375-4.386719v8.773438zm0 0"/><path d="m159.746094 276.476562-7.597656-4.382812v8.769531zm0 0"/><path d="m174.9375 285.25-7.597656-4.386719v8.769531zm0 0"/><path d="m197.722656 280.863281-7.59375-4.386719v8.773438zm0 0"/><path d="m205.320312 276.476562-7.597656-4.382812v8.769531zm0 0"/><path d="m212.914062 272.09375-7.59375-4.386719v8.769531zm0 0"/><path d="m220.511719 267.707031-7.597657-4.382812v8.769531zm0 0"/><path d="m235.703125 258.9375-7.597656-4.386719v8.773438zm0 0"/><path d="m250.894531 250.167969-7.597656-4.386719v8.769531zm0 0"/><path d="m258.488281 245.78125-7.59375-4.386719v8.773438zm0 0"/><path d="m266.085938 241.394531-7.597657-4.382812v8.769531zm0 0"/><path d="m288.871094 201.925781-7.59375-4.382812v8.769531zm0 0"/><path d="m288.871094 193.15625-7.59375-4.386719v8.773438zm0 0"/><path d="m288.871094 184.386719-7.59375-4.386719v8.769531zm0 0"/><path d="m288.871094 175.613281-7.59375-4.382812v8.769531zm0 0"/><path d="m288.871094 166.84375-7.59375-4.386719v8.773438zm0 0"/><path d="m288.871094 158.074219-7.59375-4.386719v8.769531zm0 0"/><path d="m250.894531 101.0625-7.597656-4.386719v8.773438zm0 0"/><path d="m243.296875 96.675781-7.59375-4.382812v8.769531zm0 0"/><path d="m235.703125 92.292969-7.597656-4.386719v8.769531zm0 0"/><path d="m220.511719 83.523438-7.597657-4.386719v8.769531zm0 0"/><path d="m205.320312 74.75-7.597656-4.382812v8.769531zm0 0"/><path d="m144.554688 83.523438-7.597657-4.386719v8.769531zm0 0"/><path d="m136.957031 87.90625-7.59375-4.382812v8.769531zm0 0"/><path d="m129.363281 92.292969-7.597656-4.386719v8.769531zm0 0"/><path d="m121.765625 96.675781-7.59375-4.382812v8.769531zm0 0"/><path d="m114.171875 101.0625-7.597656-4.386719v8.773438zm0 0"/><path d="m83.789062 162.457031-7.597656-4.382812v8.769531zm0 0"/><path d="m83.789062 171.230469-7.597656-4.386719v8.769531zm0 0"/><path d="m83.789062 180-7.597656-4.386719v8.773438zm0 0"/><path d="m83.789062 188.769531-7.597656-4.382812v8.769531zm0 0"/><path d="m83.789062 206.3125-7.597656-4.386719v8.773438zm0 0"/><path d="m114.171875 258.9375-7.597656-4.386719v8.773438zm0 0"/><path d="m121.765625 263.324219-7.59375-4.386719v8.769531zm0 0"/><path d="m144.554688 276.476562-7.597657-4.382812v8.769531zm0 0"/><path d="m212.914062 280.863281-7.59375-4.386719v8.773438zm0 0"/><path d="m220.511719 276.476562-7.597657-4.382812v8.769531zm0 0"/><path d="m250.894531 258.9375-7.597656-4.386719v8.773438zm0 0"/><path d="m296.46875 188.769531-7.597656-4.382812v8.769531zm0 0"/><path d="m296.46875 180-7.597656-4.386719v8.773438zm0 0"/><path d="m296.46875 171.230469-7.597656-4.386719v8.769531zm0 0"/><path d="m250.894531 92.292969-7.597656-4.386719v8.769531zm0 0"/><path d="m243.296875 87.90625-7.59375-4.382812v8.769531zm0 0"/><path d="m228.105469 79.136719-7.59375-4.386719v8.773438zm0 0"/><path d="m144.554688 74.75-7.597657-4.382812v8.769531zm0 0"/><path d="m136.957031 79.136719-7.59375-4.386719v8.773438zm0 0"/><path d="m129.363281 83.523438-7.597656-4.386719v8.769531zm0 0"/><path d="m121.765625 87.90625-7.59375-4.382812v8.769531zm0 0"/><path d="m76.191406 158.074219-7.59375-4.386719v8.769531zm0 0"/><path d="m76.191406 166.84375-7.59375-4.386719v8.773438zm0 0"/><path d="m76.191406 175.613281-7.59375-4.382812v8.769531zm0 0"/><path d="m76.191406 184.386719-7.59375-4.386719v8.769531zm0 0"/><path d="m76.191406 193.15625-7.59375-4.386719v8.773438zm0 0"/><path d="m129.363281 276.476562-7.597656-4.382812v8.769531zm0 0"/><path d="m136.957031 280.863281-7.59375-4.386719v8.773438zm0 0"/><path d="m220.511719 285.25-7.597657-4.386719v8.769531zm0 0"/><path d="m235.703125 276.476562-7.597656-4.382812v8.769531zm0 0"/><path d="m243.296875 272.09375-7.59375-4.386719v8.769531zm0 0"/><path d="m243.296875 79.136719-7.59375-4.386719v8.773438zm0 0"/><path d="m235.703125 74.75-7.597656-4.382812v8.769531zm0 0"/><path d="m129.363281 74.75-7.597656-4.382812v8.769531zm0 0"/><path d="m121.765625 79.136719-7.59375-4.386719v8.773438zm0 0"/><path d="m68.597656 171.230469-7.597656-4.386719v8.769531zm0 0"/><path d="m68.597656 180-7.597656-4.386719v8.773438zm0 0"/><path d="m129.363281 285.25-7.597656-4.386719v8.769531zm0 0"/><path d="m235.703125 285.25-7.597656-4.386719v8.769531zm0 0"/><path d="m243.296875 280.863281-7.59375-4.386719v8.773438zm0 0"/></g></svg>