<svg height="360pt" viewBox="0 0 360 360" width="360pt" xmlns="http://www.w3.org/2000/svg"><path d="m0 0h360v360h-360z" fill="#800080"/><g fill="#fff"><path d="m181.792969 183.101562 5.371093-3.101562v6.207031zm0 0"/><path d="m181.792969 176.898438 5.371093-3.105469v6.207031zm0 0"/><path d="m176.417969 173.792969 5.375-3.101563v6.207032zm0 0"/><path d="m171.042969 176.898438 5.375-3.105469v6.207031zm0 0"/><path d="m171.042969 183.101562 5.375-3.101562v6.207031zm0 0"/><path d="m176.417969 186.207031 5.375-3.105469v6.207032zm0 0"/><path d="m187.164062 186.207031 5.375-3.105469v6.207032zm0 0"/><path d="m187.164062 173.792969 5.375-3.101563v6.207032zm0 0"/><path d="m176.417969 167.589844 5.375-3.105469v6.207031zm0 0"/><path d="m165.667969 173.792969 5.375-3.101563v6.207032zm0 0"/><path d="m165.667969 186.207031 5.375-3.105469v6.207032zm0 0"/><path d="m176.417969 192.410156 5.375-3.101562v6.207031zm0 0"/><path d="m192.539062 183.101562 5.375-3.101562v6.207031zm0 0"/><path d="m192.539062 176.898438 5.375-3.105469v6.207031zm0 0"/><path d="m187.164062 167.589844 5.375-3.105469v6.207031zm0 0"/><path d="m181.792969 164.484375 5.371093-3.101563v6.207032zm0 0"/><path d="m171.042969 164.484375 5.375-3.101563v6.207032zm0 0"/><path d="m165.667969 167.589844 5.375-3.105469v6.207031zm0 0"/><path d="m160.296875 176.898438 5.371094-3.105469v6.207031zm0 0"/><path d="m160.296875 183.101562 5.371094-3.101562v6.207031zm0 0"/><path d="m165.667969 192.410156 5.375-3.101562v6.207031zm0 0"/><path d="m171.042969 195.515625 5.375-3.105469v6.207032zm0 0"/><path d="m181.792969 195.515625 5.371093-3.105469v6.207032zm0 0"/><path d="m187.164062 192.410156 5.375-3.101562v6.207031zm0 0"/><path d="m197.914062 186.207031 5.375-3.105469v6.207032zm0 0"/><path d="m197.914062 173.792969 5.375-3.101563v6.207032zm0 0"/><path d="m171.042969 158.28125 5.375-3.101562v6.203124zm0 0"/><path d="m160.296875 164.484375 5.371094-3.101563v6.207032zm0 0"/><path d="m160.296875 195.515625 5.371094-3.105469v6.207032zm0 0"/><path d="m171.042969 201.71875 5.375-3.101562v6.203124zm0 0"/><path d="m203.289062 195.515625 5.371094-3.105469v6.207032zm0 0"/><path d="m203.289062 189.308594 5.371094-3.101563v6.203125zm0 0"/><path d="m203.289062 183.101562 5.371094-3.101562v6.207031zm0 0"/><path d="m203.289062 176.898438 5.371094-3.105469v6.207031zm0 0"/><path d="m203.289062 170.691406 5.371094-3.101562v6.203125zm0 0"/><path d="m203.289062 164.484375 5.371094-3.101563v6.207032zm0 0"/><path d="m197.914062 161.382812 5.375-3.101562v6.203125zm0 0"/><path d="m192.539062 158.28125 5.375-3.101562v6.203124zm0 0"/><path d="m187.164062 155.179688 5.375-3.105469v6.207031zm0 0"/><path d="m181.792969 152.074219 5.371093-3.101563v6.207032zm0 0"/><path d="m176.417969 148.972656 5.375-3.101562v6.203125zm0 0"/><path d="m171.042969 152.074219 5.375-3.101563v6.207032zm0 0"/><path d="m165.667969 155.179688 5.375-3.105469v6.207031zm0 0"/><path d="m160.296875 158.28125 5.371094-3.101562v6.203124zm0 0"/><path d="m154.921875 161.382812 5.375-3.101562v6.203125zm0 0"/><path d="m149.546875 164.484375 5.375-3.101563v6.207032zm0 0"/><path d="m149.546875 170.691406 5.375-3.101562v6.203125zm0 0"/><path d="m149.546875 176.898438 5.375-3.105469v6.207031zm0 0"/><path d="m149.546875 183.101562 5.375-3.101562v6.207031zm0 0"/><path d="m149.546875 189.308594 5.375-3.101563v6.203125zm0 0"/><path d="m149.546875 195.515625 5.375-3.105469v6.207032zm0 0"/><path d="m154.921875 198.617188 5.375-3.101563v6.203125zm0 0"/><path d="m160.296875 201.71875 5.371094-3.101562v6.203124zm0 0"/><path d="m165.667969 204.820312 5.375-3.101562v6.207031zm0 0"/><path d="m171.042969 207.925781 5.375-3.105469v6.207032zm0 0"/><path d="m176.417969 211.027344 5.375-3.101563v6.203125zm0 0"/><path d="m181.792969 207.925781 5.371093-3.105469v6.207032zm0 0"/><path d="m187.164062 204.820312 5.375-3.101562v6.207031zm0 0"/><path d="m192.539062 201.71875 5.375-3.101562v6.203124zm0 0"/><path d="m197.914062 198.617188 5.375-3.101563v6.203125zm0 0"/><path d="m208.660156 198.617188 5.375-3.101563v6.203125zm0 0"/><path d="m208.660156 161.382812 5.375-3.101562v6.203125zm0 0"/><path d="m203.289062 158.28125 5.371094-3.101562v6.203124zm0 0"/><path d="m181.792969 145.871094 5.371093-3.105469v6.207031zm0 0"/><path d="m176.417969 142.765625 5.375-3.101563v6.207032zm0 0"/><path d="m144.171875 161.382812 5.375-3.101562v6.203125zm0 0"/><path d="m144.171875 167.589844 5.375-3.105469v6.207031zm0 0"/><path d="m144.171875 192.410156 5.375-3.101562v6.207031zm0 0"/><path d="m144.171875 198.617188 5.375-3.101563v6.203125zm0 0"/><path d="m176.417969 217.234375 5.375-3.105469v6.207032zm0 0"/><path d="m181.792969 214.128906 5.371093-3.101562v6.207031zm0 0"/><path d="m203.289062 201.71875 5.371094-3.101562v6.203124zm0 0"/><path d="m214.035156 201.71875 5.375-3.101562v6.203124zm0 0"/><path d="m214.035156 189.308594 5.375-3.101563v6.203125zm0 0"/><path d="m214.035156 170.691406 5.375-3.101562v6.203125zm0 0"/><path d="m214.035156 158.28125 5.375-3.101562v6.203124zm0 0"/><path d="m176.417969 136.5625 5.375-3.105469v6.207031zm0 0"/><path d="m165.667969 142.765625 5.375-3.101563v6.207032zm0 0"/><path d="m149.546875 152.074219 5.375-3.101563v6.207032zm0 0"/><path d="m138.796875 158.28125 5.375-3.101562v6.203124zm0 0"/><path d="m138.796875 201.71875 5.375-3.101562v6.203124zm0 0"/><path d="m149.546875 207.925781 5.375-3.105469v6.207032zm0 0"/><path d="m165.667969 217.234375 5.375-3.105469v6.207032zm0 0"/><path d="m176.417969 223.4375 5.375-3.101562v6.207031zm0 0"/><path d="m214.035156 152.074219 5.375-3.101563v6.207032zm0 0"/><path d="m203.289062 145.871094 5.371094-3.105469v6.207031zm0 0"/><path d="m192.539062 139.664062 5.375-3.101562v6.203125zm0 0"/><path d="m181.792969 133.457031 5.371093-3.101562v6.207031zm0 0"/><path d="m133.425781 161.382812 5.371094-3.101562v6.203125zm0 0"/><path d="m133.425781 173.792969 5.371094-3.101563v6.207032zm0 0"/><path d="m133.425781 186.207031 5.371094-3.105469v6.207032zm0 0"/><path d="m133.425781 198.617188 5.371094-3.101563v6.203125zm0 0"/><path d="m181.792969 226.542969 5.371093-3.105469v6.207031zm0 0"/><path d="m192.539062 220.335938 5.375-3.101563v6.203125zm0 0"/><path d="m203.289062 214.128906 5.371094-3.101562v6.207031zm0 0"/><path d="m214.035156 207.925781 5.375-3.105469v6.207032zm0 0"/><path d="m224.785156 201.71875 5.375-3.101562v6.203124zm0 0"/><path d="m224.785156 195.515625 5.375-3.105469v6.207032zm0 0"/><path d="m224.785156 164.484375 5.375-3.101563v6.207032zm0 0"/><path d="m224.785156 158.28125 5.375-3.101562v6.203124zm0 0"/><path d="m171.042969 127.253906 5.375-3.101562v6.203125zm0 0"/><path d="m165.667969 130.355469 5.375-3.101563v6.203125zm0 0"/><path d="m138.796875 145.871094 5.375-3.105469v6.207031zm0 0"/><path d="m133.425781 148.972656 5.371094-3.101562v6.203125zm0 0"/><path d="m133.425781 211.027344 5.371094-3.101563v6.203125zm0 0"/><path d="m138.796875 214.128906 5.375-3.101562v6.207031zm0 0"/><path d="m165.667969 229.644531 5.375-3.101562v6.203125zm0 0"/><path d="m171.042969 232.746094 5.375-3.101563v6.203125zm0 0"/><path d="m230.160156 204.820312 5.371094-3.101562v6.207031zm0 0"/><path d="m230.160156 155.179688 5.371094-3.105469v6.207031zm0 0"/><path d="m219.410156 142.765625 5.375-3.101563v6.207032zm0 0"/><path d="m208.660156 136.5625 5.375-3.105469v6.207031zm0 0"/><path d="m197.914062 130.355469 5.375-3.101563v6.203125zm0 0"/><path d="m187.164062 124.152344 5.375-3.105469v6.207031zm0 0"/><path d="m171.042969 121.046875 5.375-3.101563v6.207032zm0 0"/><path d="m128.050781 145.871094 5.375-3.105469v6.207031zm0 0"/><path d="m122.675781 161.382812 5.375-3.101562v6.203125zm0 0"/><path d="m122.675781 173.792969 5.375-3.101563v6.207032zm0 0"/><path d="m122.675781 186.207031 5.375-3.105469v6.207032zm0 0"/><path d="m122.675781 198.617188 5.375-3.101563v6.203125zm0 0"/><path d="m128.050781 214.128906 5.375-3.101562v6.207031zm0 0"/><path d="m171.042969 238.953125 5.375-3.105469v6.207032zm0 0"/><path d="m187.164062 235.847656 5.375-3.101562v6.207031zm0 0"/><path d="m197.914062 229.644531 5.375-3.101562v6.203125zm0 0"/><path d="m208.660156 223.4375 5.375-3.101562v6.207031zm0 0"/><path d="m219.410156 217.234375 5.375-3.105469v6.207032zm0 0"/><path d="m235.53125 183.101562 5.375-3.101562v6.207031zm0 0"/><path d="m235.53125 176.898438 5.375-3.105469v6.207031zm0 0"/><path d="m230.160156 142.765625 5.371094-3.101563v6.207032zm0 0"/><path d="m224.785156 139.664062 5.375-3.101562v6.203125zm0 0"/><path d="m214.035156 133.457031 5.375-3.101562v6.207031zm0 0"/><path d="m208.660156 130.355469 5.375-3.101563v6.203125zm0 0"/><path d="m203.289062 127.253906 5.371094-3.101562v6.203125zm0 0"/><path d="m197.914062 124.152344 5.375-3.105469v6.207031zm0 0"/><path d="m187.164062 117.945312 5.375-3.101562v6.203125zm0 0"/><path d="m181.792969 114.84375 5.371093-3.105469v6.207031zm0 0"/><path d="m149.546875 127.253906 5.375-3.101562v6.203125zm0 0"/><path d="m144.171875 130.355469 5.375-3.101563v6.203125zm0 0"/><path d="m117.300781 152.074219 5.375-3.101563v6.207032zm0 0"/><path d="m117.300781 158.28125 5.375-3.101562v6.203124zm0 0"/><path d="m117.300781 170.691406 5.375-3.101562v6.203125zm0 0"/><path d="m117.300781 176.898438 5.375-3.105469v6.207031zm0 0"/><path d="m117.300781 183.101562 5.375-3.101562v6.207031zm0 0"/><path d="m117.300781 189.308594 5.375-3.101563v6.203125zm0 0"/><path d="m117.300781 201.71875 5.375-3.101562v6.203124zm0 0"/><path d="m117.300781 207.925781 5.375-3.105469v6.207032zm0 0"/><path d="m144.171875 229.644531 5.375-3.101562v6.203125zm0 0"/><path d="m149.546875 232.746094 5.375-3.101563v6.203125zm0 0"/><path d="m181.792969 245.15625 5.371093-3.101562v6.207031zm0 0"/><path d="m187.164062 242.054688 5.375-3.101563v6.203125zm0 0"/><path d="m197.914062 235.847656 5.375-3.101562v6.207031zm0 0"/><path d="m203.289062 232.746094 5.371094-3.101563v6.203125zm0 0"/><path d="m208.660156 229.644531 5.375-3.101562v6.203125zm0 0"/><path d="m214.035156 226.542969 5.375-3.105469v6.207031zm0 0"/><path d="m224.785156 220.335938 5.375-3.101563v6.203125zm0 0"/><path d="m230.160156 217.234375 5.371094-3.105469v6.207032zm0 0"/><path d="m240.90625 217.234375 5.375-3.105469v6.207032zm0 0"/><path d="m240.90625 211.027344 5.375-3.101563v6.203125zm0 0"/><path d="m240.90625 204.820312 5.375-3.101562v6.207031zm0 0"/><path d="m240.90625 192.410156 5.375-3.101562v6.207031zm0 0"/><path d="m240.90625 186.207031 5.375-3.105469v6.207032zm0 0"/><path d="m240.90625 173.792969 5.375-3.101563v6.207032zm0 0"/><path d="m240.90625 167.589844 5.375-3.105469v6.207031zm0 0"/><path d="m240.90625 155.179688 5.375-3.105469v6.207031zm0 0"/><path d="m240.90625 148.972656 5.375-3.101562v6.203125zm0 0"/><path d="m240.90625 142.765625 5.375-3.101563v6.207032zm0 0"/><path d="m224.785156 133.457031 5.375-3.101562v6.207031zm0 0"/><path d="m214.035156 127.253906 5.375-3.101562v6.203125zm0 0"/><path d="m203.289062 121.046875 5.371094-3.101563v6.207032zm0 0"/><path d="m192.539062 114.84375 5.375-3.105469v6.207031zm0 0"/><path d="m176.417969 105.535156 5.375-3.105468v6.207031zm0 0"/><path d="m171.042969 108.636719 5.375-3.101563v6.203125zm0 0"/><path d="m165.667969 111.738281 5.375-3.101562v6.207031zm0 0"/><path d="m154.921875 117.945312 5.375-3.101562v6.203125zm0 0"/><path d="m149.546875 121.046875 5.375-3.101563v6.207032zm0 0"/><path d="m138.796875 127.253906 5.375-3.101562v6.203125zm0 0"/><path d="m133.425781 130.355469 5.371094-3.101563v6.203125zm0 0"/><path d="m122.675781 136.5625 5.375-3.105469v6.207031zm0 0"/><path d="m117.300781 139.664062 5.375-3.101562v6.203125zm0 0"/><path d="m111.929688 142.765625 5.371093-3.101563v6.207032zm0 0"/><path d="m111.929688 161.382812 5.371093-3.101562v6.203125zm0 0"/><path d="m111.929688 173.792969 5.371093-3.101563v6.207032zm0 0"/><path d="m111.929688 186.207031 5.371093-3.105469v6.207032zm0 0"/><path d="m111.929688 198.617188 5.371093-3.101563v6.203125zm0 0"/><path d="m111.929688 217.234375 5.371093-3.105469v6.207032zm0 0"/><path d="m117.300781 220.335938 5.375-3.101563v6.203125zm0 0"/><path d="m122.675781 223.4375 5.375-3.101562v6.207031zm0 0"/><path d="m133.425781 229.644531 5.371094-3.101562v6.203125zm0 0"/><path d="m138.796875 232.746094 5.375-3.101563v6.203125zm0 0"/><path d="m149.546875 238.953125 5.375-3.105469v6.207032zm0 0"/><path d="m154.921875 242.054688 5.375-3.101563v6.203125zm0 0"/><path d="m165.667969 248.261719 5.375-3.105469v6.207031zm0 0"/><path d="m171.042969 251.363281 5.375-3.101562v6.203125zm0 0"/><path d="m176.417969 254.464844 5.375-3.101563v6.207031zm0 0"/><path d="m192.539062 245.15625 5.375-3.101562v6.207031zm0 0"/><path d="m203.289062 238.953125 5.371094-3.105469v6.207032zm0 0"/><path d="m214.035156 232.746094 5.375-3.101563v6.203125zm0 0"/><path d="m224.785156 226.542969 5.375-3.105469v6.207031zm0 0"/><path d="m246.28125 220.335938 5.375-3.101563v6.203125zm0 0"/><path d="m246.28125 183.101562 5.375-3.101562v6.207031zm0 0"/><path d="m246.28125 176.898438 5.375-3.105469v6.207031zm0 0"/><path d="m246.28125 139.664062 5.375-3.101562v6.203125zm0 0"/><path d="m214.035156 121.046875 5.375-3.101563v6.207032zm0 0"/><path d="m208.660156 117.945312 5.375-3.101562v6.203125zm0 0"/><path d="m176.417969 99.328125 5.375-3.101563v6.203126zm0 0"/><path d="m144.171875 117.945312 5.375-3.101562v6.203125zm0 0"/><path d="m138.796875 121.046875 5.375-3.101563v6.207032zm0 0"/><path d="m106.554688 139.664062 5.375-3.101562v6.203125zm0 0"/><path d="m106.554688 176.898438 5.375-3.105469v6.207031zm0 0"/><path d="m106.554688 183.101562 5.375-3.101562v6.207031zm0 0"/><path d="m106.554688 220.335938 5.375-3.101563v6.203125zm0 0"/><path d="m138.796875 238.953125 5.375-3.105469v6.207032zm0 0"/><path d="m144.171875 242.054688 5.375-3.101563v6.203125zm0 0"/><path d="m176.417969 260.671875 5.375-3.101563v6.203126zm0 0"/><path d="m208.660156 242.054688 5.375-3.101563v6.203125zm0 0"/><path d="m214.035156 238.953125 5.375-3.105469v6.207032zm0 0"/><path d="m251.65625 204.820312 5.371094-3.101562v6.207031zm0 0"/><path d="m251.65625 192.410156 5.371094-3.101562v6.207031zm0 0"/><path d="m251.65625 167.589844 5.371094-3.105469v6.207031zm0 0"/><path d="m251.65625 155.179688 5.371094-3.105469v6.207031zm0 0"/><path d="m246.28125 133.457031 5.375-3.101562v6.207031zm0 0"/><path d="m181.792969 96.226562 5.371093-3.101562v6.203125zm0 0"/><path d="m160.296875 102.429688 5.371094-3.101563v6.207031zm0 0"/><path d="m149.546875 108.636719 5.375-3.101563v6.203125zm0 0"/><path d="m128.050781 121.046875 5.375-3.101563v6.207032zm0 0"/><path d="m117.300781 127.253906 5.375-3.101562v6.203125zm0 0"/><path d="m101.179688 142.765625 5.375-3.101563v6.207032zm0 0"/><path d="m101.179688 217.234375 5.375-3.105469v6.207032zm0 0"/><path d="m117.300781 232.746094 5.375-3.101563v6.203125zm0 0"/><path d="m128.050781 238.953125 5.375-3.105469v6.207032zm0 0"/><path d="m149.546875 251.363281 5.375-3.101562v6.203125zm0 0"/><path d="m160.296875 257.570312 5.371094-3.105468v6.207031zm0 0"/><path d="m181.792969 263.773438 5.371093-3.101563v6.203125zm0 0"/><path d="m246.28125 226.542969 5.375-3.105469v6.207031zm0 0"/><path d="m257.027344 226.542969 5.375-3.105469v6.207031zm0 0"/><path d="m257.027344 220.335938 5.375-3.101563v6.203125zm0 0"/><path d="m257.027344 189.308594 5.375-3.101563v6.203125zm0 0"/><path d="m257.027344 170.691406 5.375-3.101562v6.203125zm0 0"/><path d="m257.027344 139.664062 5.375-3.101562v6.203125zm0 0"/><path d="m257.027344 133.457031 5.375-3.101562v6.207031zm0 0"/><path d="m246.28125 127.253906 5.375-3.101562v6.203125zm0 0"/><path d="m240.90625 124.152344 5.375-3.105469v6.207031zm0 0"/><path d="m230.160156 117.945312 5.371094-3.101562v6.203125zm0 0"/><path d="m203.289062 102.429688 5.371094-3.101563v6.207031zm0 0"/><path d="m192.539062 96.226562 5.375-3.101562v6.203125zm0 0"/><path d="m187.164062 93.125 5.375-3.105469v6.207031zm0 0"/><path d="m176.417969 86.917969 5.375-3.101563v6.203125zm0 0"/><path d="m171.042969 90.019531 5.375-3.101562v6.207031zm0 0"/><path d="m144.171875 105.535156 5.375-3.105468v6.207031zm0 0"/><path d="m128.050781 114.84375 5.375-3.105469v6.207031zm0 0"/><path d="m101.179688 130.355469 5.375-3.101563v6.203125zm0 0"/><path d="m95.804688 133.457031 5.375-3.101562v6.207031zm0 0"/><path d="m95.804688 145.871094 5.375-3.105469v6.207031zm0 0"/><path d="m95.804688 152.074219 5.375-3.101563v6.207032zm0 0"/><path d="m95.804688 164.484375 5.375-3.101563v6.207032zm0 0"/><path d="m95.804688 195.515625 5.375-3.105469v6.207032zm0 0"/><path d="m95.804688 207.925781 5.375-3.105469v6.207032zm0 0"/><path d="m95.804688 214.128906 5.375-3.101562v6.207031zm0 0"/><path d="m95.804688 226.542969 5.375-3.105469v6.207031zm0 0"/><path d="m101.179688 229.644531 5.375-3.101562v6.203125zm0 0"/><path d="m128.050781 245.15625 5.375-3.101562v6.207031zm0 0"/><path d="m144.171875 254.464844 5.375-3.101563v6.207031zm0 0"/><path d="m171.042969 269.980469 5.375-3.105469v6.207031zm0 0"/><path d="m176.417969 273.082031 5.375-3.101562v6.203125zm0 0"/><path d="m187.164062 266.875 5.375-3.101562v6.207031zm0 0"/><path d="m192.539062 263.773438 5.375-3.101563v6.203125zm0 0"/><path d="m203.289062 257.570312 5.371094-3.105468v6.207031zm0 0"/><path d="m230.160156 242.054688 5.371094-3.101563v6.203125zm0 0"/><path d="m240.90625 235.847656 5.375-3.101562v6.207031zm0 0"/><path d="m246.28125 232.746094 5.375-3.101563v6.203125zm0 0"/><path d="m262.402344 192.410156 5.375-3.101562v6.207031zm0 0"/><path d="m262.402344 167.589844 5.375-3.105469v6.207031zm0 0"/><path d="m251.65625 124.152344 5.371094-3.105469v6.207031zm0 0"/><path d="m246.28125 121.046875 5.375-3.101563v6.207032zm0 0"/><path d="m240.90625 117.945312 5.375-3.101562v6.203125zm0 0"/><path d="m230.160156 111.738281 5.371094-3.101562v6.207031zm0 0"/><path d="m208.660156 99.328125 5.375-3.101563v6.203126zm0 0"/><path d="m197.914062 93.125 5.375-3.105469v6.207031zm0 0"/><path d="m192.539062 90.019531 5.375-3.101562v6.207031zm0 0"/><path d="m187.164062 86.917969 5.375-3.101563v6.203125zm0 0"/><path d="m144.171875 99.328125 5.375-3.101563v6.203126zm0 0"/><path d="m122.675781 111.738281 5.375-3.101562v6.207031zm0 0"/><path d="m90.433594 142.765625 5.371094-3.101563v6.207032zm0 0"/><path d="m90.433594 148.972656 5.371094-3.101562v6.203125zm0 0"/><path d="m90.433594 155.179688 5.371094-3.105469v6.207031zm0 0"/><path d="m90.433594 167.589844 5.371094-3.105469v6.207031zm0 0"/><path d="m90.433594 192.410156 5.371094-3.101562v6.207031zm0 0"/><path d="m90.433594 204.820312 5.371094-3.101562v6.207031zm0 0"/><path d="m90.433594 211.027344 5.371094-3.101563v6.203125zm0 0"/><path d="m90.433594 217.234375 5.371094-3.105469v6.207032zm0 0"/><path d="m122.675781 248.261719 5.375-3.105469v6.207031zm0 0"/><path d="m144.171875 260.671875 5.375-3.101563v6.203126zm0 0"/><path d="m187.164062 273.082031 5.375-3.101562v6.203125zm0 0"/><path d="m192.539062 269.980469 5.375-3.105469v6.207031zm0 0"/><path d="m197.914062 266.875 5.375-3.101562v6.207031zm0 0"/><path d="m208.660156 260.671875 5.375-3.101563v6.203126zm0 0"/><path d="m230.160156 248.261719 5.371094-3.105469v6.207031zm0 0"/><path d="m240.90625 242.054688 5.375-3.101563v6.203125zm0 0"/><path d="m246.28125 238.953125 5.375-3.105469v6.207032zm0 0"/><path d="m251.65625 235.847656 5.371094-3.101562v6.207031zm0 0"/><path d="m267.777344 232.746094 5.375-3.101563v6.203125zm0 0"/><path d="m267.777344 214.128906 5.375-3.101562v6.207031zm0 0"/><path d="m267.777344 201.71875 5.375-3.101562v6.203124zm0 0"/><path d="m267.777344 195.515625 5.375-3.105469v6.207032zm0 0"/><path d="m267.777344 189.308594 5.375-3.101563v6.203125zm0 0"/><path d="m267.777344 183.101562 5.375-3.101562v6.207031zm0 0"/><path d="m267.777344 176.898438 5.375-3.105469v6.207031zm0 0"/><path d="m267.777344 170.691406 5.375-3.101562v6.203125zm0 0"/><path d="m267.777344 164.484375 5.375-3.101563v6.207032zm0 0"/><path d="m267.777344 158.28125 5.375-3.101562v6.203124zm0 0"/><path d="m267.777344 145.871094 5.375-3.105469v6.207031zm0 0"/><path d="m267.777344 127.253906 5.375-3.101562v6.203125zm0 0"/><path d="m257.027344 121.046875 5.375-3.101563v6.207032zm0 0"/><path d="m187.164062 80.710938 5.375-3.101563v6.207031zm0 0"/><path d="m176.417969 74.507812 5.375-3.105468v6.207031zm0 0"/><path d="m160.296875 83.816406 5.371094-3.105468v6.207031zm0 0"/><path d="m149.546875 90.019531 5.375-3.101562v6.207031zm0 0"/><path d="m144.171875 93.125 5.375-3.105469v6.207031zm0 0"/><path d="m138.796875 96.226562 5.375-3.101562v6.203125zm0 0"/><path d="m133.425781 99.328125 5.371094-3.101563v6.203126zm0 0"/><path d="m128.050781 102.429688 5.375-3.101563v6.207031zm0 0"/><path d="m122.675781 105.535156 5.375-3.105468v6.207031zm0 0"/><path d="m117.300781 108.636719 5.375-3.101563v6.203125zm0 0"/><path d="m111.929688 111.738281 5.371093-3.101562v6.207031zm0 0"/><path d="m101.179688 117.945312 5.375-3.101562v6.203125zm0 0"/><path d="m85.058594 127.253906 5.375-3.101562v6.203125zm0 0"/><path d="m85.058594 139.664062 5.375-3.101562v6.203125zm0 0"/><path d="m85.058594 220.335938 5.375-3.101563v6.203125zm0 0"/><path d="m85.058594 232.746094 5.375-3.101563v6.203125zm0 0"/><path d="m101.179688 242.054688 5.375-3.101563v6.203125zm0 0"/><path d="m111.929688 248.261719 5.371093-3.105469v6.207031zm0 0"/><path d="m117.300781 251.363281 5.375-3.101562v6.203125zm0 0"/><path d="m122.675781 254.464844 5.375-3.101563v6.207031zm0 0"/><path d="m128.050781 257.570312 5.375-3.105468v6.207031zm0 0"/><path d="m133.425781 260.671875 5.371094-3.101563v6.203126zm0 0"/><path d="m138.796875 263.773438 5.375-3.101563v6.203125zm0 0"/><path d="m144.171875 266.875 5.375-3.101562v6.207031zm0 0"/><path d="m149.546875 269.980469 5.375-3.105469v6.207031zm0 0"/><path d="m160.296875 276.183594 5.371094-3.101563v6.207031zm0 0"/><path d="m176.417969 285.492188 5.375-3.101563v6.207031zm0 0"/><path d="m187.164062 279.289062 5.375-3.105468v6.207031zm0 0"/><path d="m257.027344 238.953125 5.375-3.105469v6.207032zm0 0"/><path d="m273.152344 229.644531 5.371094-3.101562v6.203125zm0 0"/><path d="m273.152344 211.027344 5.371094-3.101563v6.203125zm0 0"/><path d="m273.152344 204.820312 5.371094-3.101562v6.207031zm0 0"/><path d="m273.152344 192.410156 5.371094-3.101562v6.207031zm0 0"/><path d="m273.152344 167.589844 5.371094-3.105469v6.207031zm0 0"/><path d="m273.152344 155.179688 5.371094-3.105469v6.207031zm0 0"/><path d="m273.152344 148.972656 5.371094-3.101562v6.203125zm0 0"/><path d="m273.152344 130.355469 5.371094-3.101563v6.203125zm0 0"/><path d="m251.65625 111.738281 5.371094-3.101562v6.207031zm0 0"/><path d="m246.28125 108.636719 5.375-3.101563v6.203125zm0 0"/><path d="m240.90625 105.535156 5.375-3.105468v6.207031zm0 0"/><path d="m208.660156 86.917969 5.375-3.101563v6.203125zm0 0"/><path d="m203.289062 83.816406 5.371094-3.105468v6.207031zm0 0"/><path d="m197.914062 80.710938 5.375-3.101563v6.207031zm0 0"/><path d="m171.042969 71.402344 5.375-3.101563v6.207031zm0 0"/><path d="m154.921875 80.710938 5.375-3.101563v6.207031zm0 0"/><path d="m149.546875 83.816406 5.375-3.105468v6.207031zm0 0"/><path d="m138.796875 90.019531 5.375-3.101562v6.207031zm0 0"/><path d="m117.300781 102.429688 5.375-3.101563v6.207031zm0 0"/><path d="m106.554688 108.636719 5.375-3.101563v6.203125zm0 0"/><path d="m101.179688 111.738281 5.375-3.101562v6.207031zm0 0"/><path d="m85.058594 121.046875 5.375-3.101563v6.207032zm0 0"/><path d="m79.683594 148.972656 5.375-3.101562v6.203125zm0 0"/><path d="m79.683594 155.179688 5.375-3.105469v6.207031zm0 0"/><path d="m79.683594 161.382812 5.375-3.101562v6.203125zm0 0"/><path d="m79.683594 198.617188 5.375-3.101563v6.203125zm0 0"/><path d="m79.683594 204.820312 5.375-3.101562v6.207031zm0 0"/><path d="m79.683594 211.027344 5.375-3.101563v6.203125zm0 0"/><path d="m85.058594 238.953125 5.375-3.105469v6.207032zm0 0"/><path d="m101.179688 248.261719 5.375-3.105469v6.207031zm0 0"/><path d="m106.554688 251.363281 5.375-3.101562v6.203125zm0 0"/><path d="m117.300781 257.570312 5.375-3.105468v6.207031zm0 0"/><path d="m138.796875 269.980469 5.375-3.105469v6.207031zm0 0"/><path d="m149.546875 276.183594 5.375-3.101563v6.207031zm0 0"/><path d="m154.921875 279.289062 5.375-3.105468v6.207031zm0 0"/><path d="m171.042969 288.597656 5.375-3.105468v6.207031zm0 0"/><path d="m197.914062 279.289062 5.375-3.105468v6.207031zm0 0"/><path d="m203.289062 276.183594 5.371094-3.101563v6.207031zm0 0"/><path d="m208.660156 273.082031 5.375-3.101562v6.203125zm0 0"/><path d="m240.90625 254.464844 5.375-3.101563v6.207031zm0 0"/><path d="m246.28125 251.363281 5.375-3.101562v6.203125zm0 0"/><path d="m251.65625 248.261719 5.371094-3.105469v6.207031zm0 0"/><path d="m278.523438 238.953125 5.375-3.105469v6.207032zm0 0"/><path d="m278.523438 214.128906 5.375-3.101562v6.207031zm0 0"/><path d="m278.523438 207.925781 5.375-3.105469v6.207032zm0 0"/><path d="m278.523438 201.71875 5.375-3.101562v6.203124zm0 0"/><path d="m278.523438 195.515625 5.375-3.105469v6.207032zm0 0"/><path d="m278.523438 164.484375 5.375-3.101563v6.207032zm0 0"/><path d="m278.523438 158.28125 5.375-3.101562v6.203124zm0 0"/><path d="m278.523438 152.074219 5.375-3.101563v6.207032zm0 0"/><path d="m278.523438 145.871094 5.375-3.105469v6.207031zm0 0"/><path d="m278.523438 121.046875 5.375-3.101563v6.207032zm0 0"/><path d="m262.402344 111.738281 5.375-3.101562v6.207031zm0 0"/><path d="m240.90625 99.328125 5.375-3.101563v6.203126zm0 0"/><path d="m214.035156 83.816406 5.375-3.105468v6.207031zm0 0"/><path d="m192.539062 71.402344 5.375-3.101563v6.207031zm0 0"/><path d="m176.417969 62.097656 5.375-3.105468v6.207031zm0 0"/><path d="m154.921875 74.507812 5.375-3.105468v6.207031zm0 0"/><path d="m149.546875 77.609375 5.375-3.101563v6.203126zm0 0"/><path d="m144.171875 80.710938 5.375-3.101563v6.207031zm0 0"/><path d="m138.796875 83.816406 5.375-3.105468v6.207031zm0 0"/><path d="m111.929688 99.328125 5.371093-3.101563v6.203126zm0 0"/><path d="m106.554688 102.429688 5.375-3.101563v6.207031zm0 0"/><path d="m101.179688 105.535156 5.375-3.105468v6.207031zm0 0"/><path d="m95.804688 108.636719 5.375-3.101563v6.203125zm0 0"/><path d="m74.308594 121.046875 5.375-3.101563v6.207032zm0 0"/><path d="m74.308594 139.664062 5.375-3.101562v6.203125zm0 0"/><path d="m74.308594 164.484375 5.375-3.101563v6.207032zm0 0"/><path d="m74.308594 195.515625 5.375-3.105469v6.207032zm0 0"/><path d="m74.308594 220.335938 5.375-3.101563v6.203125zm0 0"/><path d="m74.308594 238.953125 5.375-3.105469v6.207032zm0 0"/><path d="m95.804688 251.363281 5.375-3.101562v6.203125zm0 0"/><path d="m101.179688 254.464844 5.375-3.101563v6.207031zm0 0"/><path d="m106.554688 257.570312 5.375-3.105468v6.207031zm0 0"/><path d="m111.929688 260.671875 5.371093-3.101563v6.203126zm0 0"/><path d="m138.796875 276.183594 5.375-3.101563v6.207031zm0 0"/><path d="m144.171875 279.289062 5.375-3.105468v6.207031zm0 0"/><path d="m149.546875 282.390625 5.375-3.101563v6.203126zm0 0"/><path d="m154.921875 285.492188 5.375-3.101563v6.207031zm0 0"/><path d="m176.417969 297.902344 5.375-3.101563v6.207031zm0 0"/><path d="m192.539062 288.597656 5.375-3.105468v6.207031zm0 0"/><path d="m214.035156 276.183594 5.375-3.101563v6.207031zm0 0"/><path d="m240.90625 260.671875 5.375-3.101563v6.203126zm0 0"/><path d="m262.402344 248.261719 5.375-3.105469v6.207031zm0 0"/><path d="m283.898438 229.644531 5.375-3.101562v6.203125zm0 0"/><path d="m283.898438 223.4375 5.375-3.101562v6.207031zm0 0"/><path d="m283.898438 204.820312 5.375-3.101562v6.207031zm0 0"/><path d="m283.898438 192.410156 5.375-3.101562v6.207031zm0 0"/><path d="m283.898438 167.589844 5.375-3.105469v6.207031zm0 0"/><path d="m283.898438 155.179688 5.375-3.105469v6.207031zm0 0"/><path d="m283.898438 136.5625 5.375-3.105469v6.207031zm0 0"/><path d="m283.898438 130.355469 5.375-3.101563v6.203125zm0 0"/><path d="m278.523438 114.84375 5.375-3.105469v6.207031zm0 0"/><path d="m267.777344 108.636719 5.375-3.101563v6.203125zm0 0"/><path d="m262.402344 105.535156 5.375-3.105468v6.207031zm0 0"/><path d="m251.65625 99.328125 5.371094-3.101563v6.203126zm0 0"/><path d="m246.28125 96.226562 5.375-3.101562v6.203125zm0 0"/><path d="m214.035156 77.609375 5.375-3.101563v6.203126zm0 0"/><path d="m208.660156 74.507812 5.375-3.105468v6.207031zm0 0"/><path d="m197.914062 68.300781 5.375-3.101562v6.203125zm0 0"/><path d="m192.539062 65.199219 5.375-3.101563v6.203125zm0 0"/><path d="m181.792969 58.992188 5.371093-3.101563v6.207031zm0 0"/><path d="m165.667969 62.097656 5.375-3.105468v6.207031zm0 0"/><path d="m160.296875 65.199219 5.371094-3.101563v6.203125zm0 0"/><path d="m144.171875 74.507812 5.375-3.105468v6.207031zm0 0"/><path d="m133.425781 80.710938 5.371094-3.101563v6.207031zm0 0"/><path d="m111.929688 93.125 5.371093-3.105469v6.207031zm0 0"/><path d="m101.179688 99.328125 5.375-3.101563v6.203126zm0 0"/><path d="m85.058594 108.636719 5.375-3.101563v6.203125zm0 0"/><path d="m79.683594 111.738281 5.375-3.101562v6.207031zm0 0"/><path d="m68.933594 124.152344 5.375-3.105469v6.207031zm0 0"/><path d="m68.933594 136.5625 5.375-3.105469v6.207031zm0 0"/><path d="m68.933594 142.765625 5.375-3.101563v6.207032zm0 0"/><path d="m68.933594 155.179688 5.375-3.105469v6.207031zm0 0"/><path d="m68.933594 161.382812 5.375-3.101562v6.203125zm0 0"/><path d="m68.933594 198.617188 5.375-3.101563v6.203125zm0 0"/><path d="m68.933594 204.820312 5.375-3.101562v6.207031zm0 0"/><path d="m68.933594 217.234375 5.375-3.105469v6.207032zm0 0"/><path d="m68.933594 223.4375 5.375-3.101562v6.207031zm0 0"/><path d="m68.933594 235.847656 5.375-3.101562v6.207031zm0 0"/><path d="m79.683594 248.261719 5.375-3.105469v6.207031zm0 0"/><path d="m85.058594 251.363281 5.375-3.101562v6.203125zm0 0"/><path d="m101.179688 260.671875 5.375-3.101563v6.203126zm0 0"/><path d="m111.929688 266.875 5.371093-3.101562v6.207031zm0 0"/><path d="m133.425781 279.289062 5.371094-3.105468v6.207031zm0 0"/><path d="m144.171875 285.492188 5.375-3.101563v6.207031zm0 0"/><path d="m160.296875 294.800781 5.371094-3.101562v6.203125zm0 0"/><path d="m165.667969 297.902344 5.375-3.101563v6.207031zm0 0"/><path d="m181.792969 301.007812 5.371093-3.105468v6.207031zm0 0"/><path d="m192.539062 294.800781 5.375-3.101562v6.203125zm0 0"/><path d="m197.914062 291.699219 5.375-3.101563v6.203125zm0 0"/><path d="m208.660156 285.492188 5.375-3.101563v6.207031zm0 0"/><path d="m214.035156 282.390625 5.375-3.101563v6.203126zm0 0"/><path d="m246.28125 263.773438 5.375-3.101563v6.203125zm0 0"/><path d="m251.65625 260.671875 5.371094-3.101563v6.203126zm0 0"/><path d="m262.402344 254.464844 5.375-3.101563v6.207031zm0 0"/><path d="m267.777344 251.363281 5.375-3.101562v6.203125zm0 0"/><path d="m278.523438 245.15625 5.375-3.101562v6.207031zm0 0"/><path d="m289.273438 238.953125 5.375-3.105469v6.207032zm0 0"/><path d="m289.273438 232.746094 5.375-3.101563v6.203125zm0 0"/><path d="m289.273438 226.542969 5.375-3.105469v6.207031zm0 0"/><path d="m289.273438 207.925781 5.375-3.105469v6.207032zm0 0"/><path d="m289.273438 201.71875 5.375-3.101562v6.203124zm0 0"/><path d="m289.273438 195.515625 5.375-3.105469v6.207032zm0 0"/><path d="m289.273438 164.484375 5.375-3.101563v6.207032zm0 0"/><path d="m289.273438 158.28125 5.375-3.101562v6.203124zm0 0"/><path d="m289.273438 152.074219 5.375-3.101563v6.207032zm0 0"/><path d="m289.273438 133.457031 5.375-3.101562v6.207031zm0 0"/><path d="m289.273438 127.253906 5.375-3.101562v6.203125zm0 0"/><path d="m289.273438 121.046875 5.375-3.101563v6.207032zm0 0"/><path d="m278.523438 108.636719 5.375-3.101563v6.203125zm0 0"/><path d="m273.152344 105.535156 5.371094-3.105468v6.207031zm0 0"/><path d="m267.777344 102.429688 5.375-3.101563v6.207031zm0 0"/><path d="m251.65625 93.125 5.371094-3.105469v6.207031zm0 0"/><path d="m214.035156 71.402344 5.375-3.101563v6.207031zm0 0"/><path d="m197.914062 62.097656 5.375-3.105468v6.207031zm0 0"/><path d="m192.539062 58.992188 5.375-3.101563v6.207031zm0 0"/><path d="m187.164062 55.890625 5.375-3.101563v6.203126zm0 0"/><path d="m171.042969 52.789062 5.375-3.105468v6.207031zm0 0"/><path d="m165.667969 55.890625 5.375-3.101563v6.203126zm0 0"/><path d="m160.296875 58.992188 5.371094-3.101563v6.207031zm0 0"/><path d="m144.171875 68.300781 5.375-3.101562v6.203125zm0 0"/><path d="m138.796875 71.402344 5.375-3.101563v6.207031zm0 0"/><path d="m133.425781 74.507812 5.371094-3.105468v6.207031zm0 0"/><path d="m106.554688 90.019531 5.375-3.101562v6.207031zm0 0"/><path d="m101.179688 93.125 5.375-3.105469v6.207031zm0 0"/><path d="m95.804688 96.226562 5.375-3.101562v6.203125zm0 0"/><path d="m79.683594 105.535156 5.375-3.105468v6.207031zm0 0"/><path d="m74.308594 108.636719 5.375-3.101563v6.203125zm0 0"/><path d="m68.933594 111.738281 5.375-3.101562v6.207031zm0 0"/><path d="m63.5625 127.253906 5.371094-3.101562v6.203125zm0 0"/><path d="m63.5625 133.457031 5.371094-3.101562v6.207031zm0 0"/><path d="m63.5625 139.664062 5.371094-3.101562v6.203125zm0 0"/><path d="m63.5625 158.28125 5.371094-3.101562v6.203124zm0 0"/><path d="m63.5625 201.71875 5.371094-3.101562v6.203124zm0 0"/><path d="m63.5625 220.335938 5.371094-3.101563v6.203125zm0 0"/><path d="m63.5625 226.542969 5.371094-3.105469v6.207031zm0 0"/><path d="m63.5625 232.746094 5.371094-3.101563v6.203125zm0 0"/><path d="m68.933594 248.261719 5.375-3.105469v6.207031zm0 0"/><path d="m74.308594 251.363281 5.375-3.101562v6.203125zm0 0"/><path d="m79.683594 254.464844 5.375-3.101563v6.207031zm0 0"/><path d="m95.804688 263.773438 5.375-3.101563v6.203125zm0 0"/><path d="m101.179688 266.875 5.375-3.101562v6.207031zm0 0"/><path d="m106.554688 269.980469 5.375-3.105469v6.207031zm0 0"/><path d="m133.425781 285.492188 5.371094-3.101563v6.207031zm0 0"/><path d="m138.796875 288.597656 5.375-3.105468v6.207031zm0 0"/><path d="m144.171875 291.699219 5.375-3.101563v6.203125zm0 0"/><path d="m160.296875 301.007812 5.371094-3.105468v6.207031zm0 0"/><path d="m165.667969 304.109375 5.375-3.101563v6.203126zm0 0"/><path d="m171.042969 307.210938 5.375-3.101563v6.207031zm0 0"/><path d="m187.164062 304.109375 5.375-3.101563v6.203126zm0 0"/><path d="m192.539062 301.007812 5.375-3.105468v6.207031zm0 0"/><path d="m197.914062 297.902344 5.375-3.101563v6.207031zm0 0"/><path d="m214.035156 288.597656 5.375-3.105468v6.207031zm0 0"/><path d="m251.65625 266.875 5.371094-3.101562v6.207031zm0 0"/><path d="m267.777344 257.570312 5.375-3.105468v6.207031zm0 0"/><path d="m273.152344 254.464844 5.371094-3.101563v6.207031zm0 0"/><path d="m278.523438 251.363281 5.375-3.101562v6.203125zm0 0"/><path d="m294.648438 248.261719 5.371093-3.105469v6.207031zm0 0"/><path d="m294.648438 242.054688 5.371093-3.101563v6.203125zm0 0"/><path d="m294.648438 235.847656 5.371093-3.101562v6.207031zm0 0"/><path d="m294.648438 204.820312 5.371093-3.101562v6.207031zm0 0"/><path d="m294.648438 155.179688 5.371093-3.105469v6.207031zm0 0"/><path d="m294.648438 124.152344 5.371093-3.105469v6.207031zm0 0"/><path d="m294.648438 117.945312 5.371093-3.101562v6.203125zm0 0"/><path d="m294.648438 111.738281 5.371093-3.101562v6.207031zm0 0"/><path d="m283.898438 105.535156 5.375-3.105468v6.207031zm0 0"/><path d="m257.027344 90.019531 5.375-3.101562v6.207031zm0 0"/><path d="m214.035156 65.199219 5.375-3.101563v6.203125zm0 0"/><path d="m187.164062 49.683594 5.375-3.101563v6.207031zm0 0"/><path d="m176.417969 43.480469 5.375-3.105469v6.207031zm0 0"/><path d="m171.042969 46.582031 5.375-3.101562v6.203125zm0 0"/><path d="m165.667969 49.683594 5.375-3.101563v6.207031zm0 0"/><path d="m138.796875 65.199219 5.375-3.101563v6.203125zm0 0"/><path d="m95.804688 90.019531 5.375-3.101562v6.207031zm0 0"/><path d="m68.933594 105.535156 5.375-3.105468v6.207031zm0 0"/><path d="m63.5625 108.636719 5.371094-3.101563v6.203125zm0 0"/><path d="m58.1875 111.738281 5.375-3.101562v6.207031zm0 0"/><path d="m58.1875 124.152344 5.375-3.105469v6.207031zm0 0"/><path d="m58.1875 155.179688 5.375-3.105469v6.207031zm0 0"/><path d="m58.1875 204.820312 5.375-3.101562v6.207031zm0 0"/><path d="m58.1875 235.847656 5.375-3.101562v6.207031zm0 0"/><path d="m58.1875 248.261719 5.375-3.105469v6.207031zm0 0"/><path d="m63.5625 251.363281 5.371094-3.101562v6.203125zm0 0"/><path d="m68.933594 254.464844 5.375-3.101563v6.207031zm0 0"/><path d="m95.804688 269.980469 5.375-3.105469v6.207031zm0 0"/><path d="m138.796875 294.800781 5.375-3.101562v6.203125zm0 0"/><path d="m165.667969 310.316406 5.375-3.105468v6.207031zm0 0"/><path d="m171.042969 313.417969 5.375-3.101563v6.203125zm0 0"/><path d="m176.417969 316.519531 5.375-3.101562v6.207031zm0 0"/><path d="m187.164062 310.316406 5.375-3.105468v6.207031zm0 0"/><path d="m214.035156 294.800781 5.375-3.101562v6.203125zm0 0"/><path d="m257.027344 269.980469 5.375-3.105469v6.207031zm0 0"/><path d="m283.898438 254.464844 5.375-3.101563v6.207031zm0 0"/><path d="m300.019531 238.953125 5.375-3.105469v6.207032zm0 0"/><path d="m300.019531 220.335938 5.375-3.101563v6.203125zm0 0"/><path d="m300.019531 214.128906 5.375-3.101562v6.207031zm0 0"/><path d="m300.019531 207.925781 5.375-3.105469v6.207032zm0 0"/><path d="m300.019531 152.074219 5.375-3.101563v6.207032zm0 0"/><path d="m300.019531 145.871094 5.375-3.105469v6.207031zm0 0"/><path d="m300.019531 139.664062 5.375-3.101562v6.203125zm0 0"/><path d="m300.019531 121.046875 5.375-3.101563v6.207032zm0 0"/><path d="m294.648438 105.535156 5.371093-3.105468v6.207031zm0 0"/><path d="m289.273438 102.429688 5.375-3.101563v6.207031zm0 0"/><path d="m283.898438 99.328125 5.375-3.101563v6.203126zm0 0"/><path d="m278.523438 96.226562 5.375-3.101562v6.203125zm0 0"/><path d="m273.152344 93.125 5.371094-3.105469v6.207031zm0 0"/><path d="m267.777344 90.019531 5.375-3.101562v6.207031zm0 0"/><path d="m262.402344 86.917969 5.375-3.101563v6.203125zm0 0"/><path d="m214.035156 58.992188 5.375-3.101563v6.207031zm0 0"/><path d="m208.660156 55.890625 5.375-3.101563v6.203126zm0 0"/><path d="m203.289062 52.789062 5.371094-3.105468v6.207031zm0 0"/><path d="m197.914062 49.683594 5.375-3.101563v6.207031zm0 0"/><path d="m192.539062 46.582031 5.375-3.101562v6.203125zm0 0"/><path d="m187.164062 43.480469 5.375-3.105469v6.207031zm0 0"/><path d="m181.792969 40.375 5.371093-3.101562v6.207031zm0 0"/><path d="m165.667969 43.480469 5.375-3.105469v6.207031zm0 0"/><path d="m149.546875 52.789062 5.375-3.105468v6.207031zm0 0"/><path d="m144.171875 55.890625 5.375-3.101563v6.203126zm0 0"/><path d="m138.796875 58.992188 5.375-3.101563v6.207031zm0 0"/><path d="m90.433594 86.917969 5.371094-3.101563v6.203125zm0 0"/><path d="m85.058594 90.019531 5.375-3.101562v6.207031zm0 0"/><path d="m79.683594 93.125 5.375-3.105469v6.207031zm0 0"/><path d="m63.5625 102.429688 5.371094-3.101563v6.207031zm0 0"/><path d="m52.8125 114.84375 5.375-3.105469v6.207031zm0 0"/><path d="m52.8125 121.046875 5.375-3.101563v6.207032zm0 0"/><path d="m52.8125 127.253906 5.375-3.101562v6.203125zm0 0"/><path d="m52.8125 133.457031 5.375-3.101562v6.207031zm0 0"/><path d="m52.8125 139.664062 5.375-3.101562v6.203125zm0 0"/><path d="m52.8125 145.871094 5.375-3.105469v6.207031zm0 0"/><path d="m52.8125 152.074219 5.375-3.101563v6.207032zm0 0"/><path d="m52.8125 207.925781 5.375-3.105469v6.207032zm0 0"/><path d="m52.8125 214.128906 5.375-3.101562v6.207031zm0 0"/><path d="m52.8125 220.335938 5.375-3.101563v6.203125zm0 0"/><path d="m52.8125 226.542969 5.375-3.105469v6.207031zm0 0"/><path d="m52.8125 232.746094 5.375-3.101563v6.203125zm0 0"/><path d="m52.8125 238.953125 5.375-3.105469v6.207032zm0 0"/><path d="m52.8125 245.15625 5.375-3.101562v6.207031zm0 0"/><path d="m63.5625 257.570312 5.371094-3.105468v6.207031zm0 0"/><path d="m79.683594 266.875 5.375-3.101562v6.207031zm0 0"/><path d="m85.058594 269.980469 5.375-3.105469v6.207031zm0 0"/><path d="m90.433594 273.082031 5.371094-3.101562v6.203125zm0 0"/><path d="m138.796875 301.007812 5.375-3.105468v6.207031zm0 0"/><path d="m144.171875 304.109375 5.375-3.101563v6.203126zm0 0"/><path d="m149.546875 307.210938 5.375-3.101563v6.207031zm0 0"/><path d="m165.667969 316.519531 5.375-3.101562v6.207031zm0 0"/><path d="m181.792969 319.625 5.371093-3.105469v6.207031zm0 0"/><path d="m187.164062 316.519531 5.375-3.101562v6.207031zm0 0"/><path d="m192.539062 313.417969 5.375-3.101563v6.203125zm0 0"/><path d="m197.914062 310.316406 5.375-3.105468v6.207031zm0 0"/><path d="m203.289062 307.210938 5.371094-3.101563v6.207031zm0 0"/><path d="m208.660156 304.109375 5.375-3.101563v6.203126zm0 0"/><path d="m214.035156 301.007812 5.375-3.105468v6.207031zm0 0"/><path d="m262.402344 273.082031 5.375-3.101562v6.203125zm0 0"/><path d="m267.777344 269.980469 5.375-3.105469v6.207031zm0 0"/><path d="m273.152344 266.875 5.371094-3.101562v6.207031zm0 0"/><path d="m278.523438 263.773438 5.375-3.101563v6.203125zm0 0"/><path d="m283.898438 260.671875 5.375-3.101563v6.203126zm0 0"/><path d="m289.273438 257.570312 5.375-3.105468v6.207031zm0 0"/><path d="m294.648438 254.464844 5.371093-3.101563v6.207031zm0 0"/><path d="m305.394531 254.464844 5.375-3.101563v6.207031zm0 0"/><path d="m305.394531 204.820312 5.375-3.101562v6.207031zm0 0"/><path d="m305.394531 155.179688 5.375-3.105469v6.207031zm0 0"/><path d="m305.394531 105.535156 5.375-3.105468v6.207031zm0 0"/><path d="m262.402344 80.710938 5.375-3.101563v6.207031zm0 0"/><path d="m219.410156 55.890625 5.375-3.101563v6.203126zm0 0"/><path d="m176.417969 31.070312 5.375-3.105468v6.207031zm0 0"/><path d="m133.425781 55.890625 5.371094-3.101563v6.203126zm0 0"/><path d="m90.433594 80.710938 5.371094-3.101563v6.207031zm0 0"/><path d="m47.4375 105.535156 5.375-3.105468v6.207031zm0 0"/><path d="m47.4375 155.179688 5.375-3.105469v6.207031zm0 0"/><path d="m47.4375 204.820312 5.375-3.101562v6.207031zm0 0"/><path d="m47.4375 254.464844 5.375-3.101563v6.207031zm0 0"/><path d="m90.433594 279.289062 5.371094-3.105468v6.207031zm0 0"/><path d="m133.425781 304.109375 5.371094-3.101563v6.203126zm0 0"/><path d="m176.417969 328.929688 5.375-3.101563v6.207031zm0 0"/><path d="m219.410156 304.109375 5.375-3.101563v6.203126zm0 0"/><path d="m262.402344 279.289062 5.375-3.105468v6.207031zm0 0"/><path d="m192.539062 183.101562-5.375-3.101562v6.207031zm0 0"/><path d="m192.539062 176.898438-5.375-3.105469v6.207031zm0 0"/><path d="m181.792969 170.691406-5.375-3.101562v6.203125zm0 0"/><path d="m176.417969 173.792969-5.375-3.101563v6.207032zm0 0"/><path d="m176.417969 186.207031-5.375-3.105469v6.207032zm0 0"/><path d="m181.792969 189.308594-5.375-3.101563v6.203125zm0 0"/><path d="m197.914062 186.207031-5.375-3.105469v6.207032zm0 0"/><path d="m197.914062 173.792969-5.375-3.101563v6.207032zm0 0"/><path d="m192.539062 170.691406-5.375-3.101562v6.203125zm0 0"/><path d="m187.164062 167.589844-5.371093-3.105469v6.207031zm0 0"/><path d="m181.792969 164.484375-5.375-3.101563v6.207032zm0 0"/><path d="m171.042969 170.691406-5.375-3.101562v6.203125zm0 0"/><path d="m171.042969 176.898438-5.375-3.105469v6.207031zm0 0"/><path d="m171.042969 183.101562-5.375-3.101562v6.207031zm0 0"/><path d="m171.042969 189.308594-5.375-3.101563v6.203125zm0 0"/><path d="m181.792969 195.515625-5.375-3.105469v6.207032zm0 0"/><path d="m187.164062 192.410156-5.371093-3.101562v6.207031zm0 0"/><path d="m192.539062 189.308594-5.375-3.101563v6.203125zm0 0"/><path d="m208.660156 192.410156-5.371094-3.101562v6.207031zm0 0"/><path d="m208.660156 186.207031-5.371094-3.105469v6.207032zm0 0"/><path d="m208.660156 173.792969-5.371094-3.101563v6.207032zm0 0"/><path d="m208.660156 167.589844-5.371094-3.105469v6.207031zm0 0"/><path d="m181.792969 152.074219-5.375-3.101563v6.207032zm0 0"/><path d="m176.417969 155.179688-5.375-3.105469v6.207031zm0 0"/><path d="m165.667969 161.382812-5.371094-3.101562v6.203125zm0 0"/><path d="m160.296875 164.484375-5.375-3.101563v6.207032zm0 0"/><path d="m160.296875 195.515625-5.375-3.105469v6.207032zm0 0"/><path d="m165.667969 198.617188-5.371094-3.101563v6.203125zm0 0"/><path d="m176.417969 204.820312-5.375-3.101562v6.207031zm0 0"/><path d="m181.792969 207.925781-5.375-3.105469v6.207032zm0 0"/><path d="m214.035156 183.101562-5.375-3.101562v6.207031zm0 0"/><path d="m214.035156 176.898438-5.375-3.105469v6.207031zm0 0"/><path d="m208.660156 161.382812-5.371094-3.101562v6.203125zm0 0"/><path d="m187.164062 148.972656-5.371093-3.101562v6.203125zm0 0"/><path d="m171.042969 152.074219-5.375-3.101563v6.207032zm0 0"/><path d="m165.667969 155.179688-5.371094-3.105469v6.207031zm0 0"/><path d="m154.921875 167.589844-5.375-3.105469v6.207031zm0 0"/><path d="m154.921875 192.410156-5.375-3.101562v6.207031zm0 0"/><path d="m165.667969 204.820312-5.371094-3.101562v6.207031zm0 0"/><path d="m171.042969 207.925781-5.375-3.105469v6.207032zm0 0"/><path d="m187.164062 211.027344-5.371093-3.101563v6.203125zm0 0"/><path d="m208.660156 198.617188-5.371094-3.101563v6.203125zm0 0"/><path d="m219.410156 198.617188-5.375-3.101563v6.203125zm0 0"/><path d="m219.410156 186.207031-5.375-3.105469v6.207032zm0 0"/><path d="m219.410156 173.792969-5.375-3.101563v6.207032zm0 0"/><path d="m219.410156 161.382812-5.375-3.101562v6.203125zm0 0"/><path d="m181.792969 139.664062-5.375-3.101562v6.203125zm0 0"/><path d="m171.042969 145.871094-5.375-3.105469v6.207031zm0 0"/><path d="m160.296875 152.074219-5.375-3.101563v6.207032zm0 0"/><path d="m149.546875 158.28125-5.375-3.101562v6.203124zm0 0"/><path d="m149.546875 201.71875-5.375-3.101562v6.203124zm0 0"/><path d="m160.296875 207.925781-5.375-3.105469v6.207032zm0 0"/><path d="m171.042969 214.128906-5.375-3.101562v6.207031zm0 0"/><path d="m181.792969 220.335938-5.375-3.101563v6.203125zm0 0"/><path d="m224.785156 183.101562-5.375-3.101562v6.207031zm0 0"/><path d="m224.785156 176.898438-5.375-3.105469v6.207031zm0 0"/><path d="m219.410156 155.179688-5.375-3.105469v6.207031zm0 0"/><path d="m187.164062 136.5625-5.371093-3.105469v6.207031zm0 0"/><path d="m165.667969 142.765625-5.371094-3.101563v6.207032zm0 0"/><path d="m160.296875 145.871094-5.375-3.105469v6.207031zm0 0"/><path d="m144.171875 161.382812-5.375-3.101562v6.203125zm0 0"/><path d="m144.171875 198.617188-5.375-3.101563v6.203125zm0 0"/><path d="m160.296875 214.128906-5.375-3.101562v6.207031zm0 0"/><path d="m165.667969 217.234375-5.371094-3.105469v6.207032zm0 0"/><path d="m187.164062 223.4375-5.371093-3.101562v6.207031zm0 0"/><path d="m219.410156 204.820312-5.375-3.101562v6.207031zm0 0"/><path d="m230.160156 204.820312-5.375-3.101562v6.207031zm0 0"/><path d="m230.160156 198.617188-5.375-3.101563v6.203125zm0 0"/><path d="m230.160156 161.382812-5.375-3.101562v6.203125zm0 0"/><path d="m230.160156 155.179688-5.375-3.105469v6.207031zm0 0"/><path d="m224.785156 152.074219-5.375-3.101563v6.207032zm0 0"/><path d="m219.410156 148.972656-5.375-3.101562v6.203125zm0 0"/><path d="m208.660156 142.765625-5.371094-3.101563v6.207032zm0 0"/><path d="m203.289062 139.664062-5.375-3.101562v6.203125zm0 0"/><path d="m192.539062 133.457031-5.375-3.101562v6.207031zm0 0"/><path d="m187.164062 130.355469-5.371093-3.101563v6.203125zm0 0"/><path d="m181.792969 127.253906-5.375-3.101562v6.203125zm0 0"/><path d="m176.417969 130.355469-5.375-3.101563v6.203125zm0 0"/><path d="m144.171875 148.972656-5.375-3.101562v6.203125zm0 0"/><path d="m138.796875 152.074219-5.371094-3.101563v6.207032zm0 0"/><path d="m138.796875 158.28125-5.371094-3.101562v6.203124zm0 0"/><path d="m138.796875 164.484375-5.371094-3.101563v6.207032zm0 0"/><path d="m138.796875 176.898438-5.371094-3.105469v6.207031zm0 0"/><path d="m138.796875 183.101562-5.371094-3.101562v6.207031zm0 0"/><path d="m138.796875 195.515625-5.371094-3.105469v6.207032zm0 0"/><path d="m138.796875 201.71875-5.371094-3.101562v6.203124zm0 0"/><path d="m138.796875 207.925781-5.371094-3.105469v6.207032zm0 0"/><path d="m144.171875 211.027344-5.375-3.101563v6.203125zm0 0"/><path d="m176.417969 229.644531-5.375-3.101562v6.203125zm0 0"/><path d="m181.792969 232.746094-5.375-3.101563v6.203125zm0 0"/><path d="m187.164062 229.644531-5.371093-3.101562v6.203125zm0 0"/><path d="m192.539062 226.542969-5.375-3.105469v6.207031zm0 0"/><path d="m203.289062 220.335938-5.375-3.101563v6.203125zm0 0"/><path d="m208.660156 217.234375-5.371094-3.105469v6.207032zm0 0"/><path d="m219.410156 211.027344-5.375-3.101563v6.203125zm0 0"/><path d="m224.785156 207.925781-5.375-3.105469v6.207032zm0 0"/><path d="m235.53125 207.925781-5.371094-3.105469v6.207032zm0 0"/><path d="m235.53125 201.71875-5.371094-3.101562v6.203124zm0 0"/><path d="m235.53125 195.515625-5.371094-3.105469v6.207032zm0 0"/><path d="m235.53125 189.308594-5.371094-3.101563v6.203125zm0 0"/><path d="m235.53125 183.101562-5.371094-3.101562v6.207031zm0 0"/><path d="m235.53125 176.898438-5.371094-3.105469v6.207031zm0 0"/><path d="m235.53125 170.691406-5.371094-3.101562v6.203125zm0 0"/><path d="m235.53125 164.484375-5.371094-3.101563v6.207032zm0 0"/><path d="m235.53125 158.28125-5.371094-3.101562v6.203124zm0 0"/><path d="m235.53125 152.074219-5.371094-3.101563v6.207032zm0 0"/><path d="m181.792969 121.046875-5.375-3.101563v6.207032zm0 0"/><path d="m176.417969 124.152344-5.375-3.105469v6.207031zm0 0"/><path d="m171.042969 127.253906-5.375-3.101562v6.203125zm0 0"/><path d="m165.667969 130.355469-5.371094-3.101563v6.203125zm0 0"/><path d="m160.296875 133.457031-5.375-3.101562v6.207031zm0 0"/><path d="m154.921875 136.5625-5.375-3.105469v6.207031zm0 0"/><path d="m149.546875 139.664062-5.375-3.101562v6.203125zm0 0"/><path d="m144.171875 142.765625-5.375-3.101563v6.207032zm0 0"/><path d="m138.796875 145.871094-5.371094-3.105469v6.207031zm0 0"/><path d="m133.425781 148.972656-5.375-3.101562v6.203125zm0 0"/><path d="m133.425781 211.027344-5.375-3.101563v6.203125zm0 0"/><path d="m138.796875 214.128906-5.371094-3.101562v6.207031zm0 0"/><path d="m144.171875 217.234375-5.375-3.105469v6.207032zm0 0"/><path d="m149.546875 220.335938-5.375-3.101563v6.203125zm0 0"/><path d="m154.921875 223.4375-5.375-3.101562v6.207031zm0 0"/><path d="m160.296875 226.542969-5.375-3.105469v6.207031zm0 0"/><path d="m165.667969 229.644531-5.371094-3.101562v6.203125zm0 0"/><path d="m171.042969 232.746094-5.375-3.101563v6.203125zm0 0"/><path d="m176.417969 235.847656-5.375-3.101562v6.207031zm0 0"/><path d="m181.792969 238.953125-5.375-3.105469v6.207032zm0 0"/><path d="m240.90625 204.820312-5.375-3.101562v6.207031zm0 0"/><path d="m240.90625 198.617188-5.375-3.101563v6.203125zm0 0"/><path d="m240.90625 186.207031-5.375-3.105469v6.207032zm0 0"/><path d="m240.90625 173.792969-5.375-3.101563v6.207032zm0 0"/><path d="m240.90625 161.382812-5.375-3.101562v6.203125zm0 0"/><path d="m240.90625 155.179688-5.375-3.105469v6.207031zm0 0"/><path d="m235.53125 145.871094-5.371094-3.105469v6.207031zm0 0"/><path d="m230.160156 142.765625-5.375-3.101563v6.207032zm0 0"/><path d="m214.035156 133.457031-5.375-3.101562v6.207031zm0 0"/><path d="m208.660156 130.355469-5.371094-3.101563v6.203125zm0 0"/><path d="m192.539062 121.046875-5.375-3.101563v6.207032zm0 0"/><path d="m187.164062 117.945312-5.371093-3.101562v6.203125zm0 0"/><path d="m176.417969 117.945312-5.375-3.101562v6.203125zm0 0"/><path d="m171.042969 121.046875-5.375-3.101563v6.207032zm0 0"/><path d="m160.296875 127.253906-5.375-3.101562v6.203125zm0 0"/><path d="m149.546875 133.457031-5.375-3.101562v6.207031zm0 0"/><path d="m138.796875 139.664062-5.371094-3.101562v6.203125zm0 0"/><path d="m133.425781 142.765625-5.375-3.101563v6.207032zm0 0"/><path d="m128.050781 152.074219-5.375-3.101563v6.207032zm0 0"/><path d="m128.050781 158.28125-5.375-3.101562v6.203124zm0 0"/><path d="m128.050781 176.898438-5.375-3.105469v6.207031zm0 0"/><path d="m128.050781 183.101562-5.375-3.101562v6.207031zm0 0"/><path d="m128.050781 201.71875-5.375-3.101562v6.203124zm0 0"/><path d="m128.050781 207.925781-5.375-3.105469v6.207032zm0 0"/><path d="m133.425781 217.234375-5.375-3.105469v6.207032zm0 0"/><path d="m138.796875 220.335938-5.371094-3.101563v6.203125zm0 0"/><path d="m149.546875 226.542969-5.375-3.105469v6.207031zm0 0"/><path d="m160.296875 232.746094-5.375-3.101563v6.203125zm0 0"/><path d="m171.042969 238.953125-5.375-3.105469v6.207032zm0 0"/><path d="m176.417969 242.054688-5.375-3.101563v6.203125zm0 0"/><path d="m187.164062 242.054688-5.371093-3.101563v6.203125zm0 0"/><path d="m192.539062 238.953125-5.375-3.105469v6.207032zm0 0"/><path d="m208.660156 229.644531-5.371094-3.101562v6.203125zm0 0"/><path d="m214.035156 226.542969-5.375-3.105469v6.207031zm0 0"/><path d="m230.160156 217.234375-5.375-3.105469v6.207032zm0 0"/><path d="m235.53125 214.128906-5.371094-3.101562v6.207031zm0 0"/><path d="m246.28125 214.128906-5.375-3.101562v6.207031zm0 0"/><path d="m246.28125 207.925781-5.375-3.105469v6.207032zm0 0"/><path d="m246.28125 201.71875-5.375-3.101562v6.203124zm0 0"/><path d="m246.28125 189.308594-5.375-3.101563v6.203125zm0 0"/><path d="m246.28125 170.691406-5.375-3.101562v6.203125zm0 0"/><path d="m246.28125 158.28125-5.375-3.101562v6.203124zm0 0"/><path d="m246.28125 152.074219-5.375-3.101563v6.207032zm0 0"/><path d="m246.28125 145.871094-5.375-3.105469v6.207031zm0 0"/><path d="m240.90625 142.765625-5.375-3.101563v6.207032zm0 0"/><path d="m235.53125 139.664062-5.371094-3.101562v6.203125zm0 0"/><path d="m230.160156 136.5625-5.375-3.105469v6.207031zm0 0"/><path d="m197.914062 117.945312-5.375-3.101562v6.203125zm0 0"/><path d="m192.539062 114.84375-5.375-3.105469v6.207031zm0 0"/><path d="m187.164062 111.738281-5.371093-3.101562v6.207031zm0 0"/><path d="m181.792969 108.636719-5.375-3.101563v6.203125zm0 0"/><path d="m176.417969 111.738281-5.375-3.101562v6.207031zm0 0"/><path d="m171.042969 114.84375-5.375-3.105469v6.207031zm0 0"/><path d="m160.296875 121.046875-5.375-3.101563v6.207032zm0 0"/><path d="m144.171875 130.355469-5.375-3.101563v6.203125zm0 0"/><path d="m133.425781 136.5625-5.375-3.105469v6.207031zm0 0"/><path d="m128.050781 139.664062-5.375-3.101562v6.203125zm0 0"/><path d="m122.675781 142.765625-5.375-3.101563v6.207032zm0 0"/><path d="m122.675781 148.972656-5.375-3.101562v6.203125zm0 0"/><path d="m122.675781 155.179688-5.375-3.105469v6.207031zm0 0"/><path d="m122.675781 161.382812-5.375-3.101562v6.203125zm0 0"/><path d="m122.675781 198.617188-5.375-3.101563v6.203125zm0 0"/><path d="m122.675781 204.820312-5.375-3.101562v6.207031zm0 0"/><path d="m122.675781 211.027344-5.375-3.101563v6.203125zm0 0"/><path d="m122.675781 217.234375-5.375-3.105469v6.207032zm0 0"/><path d="m128.050781 220.335938-5.375-3.101563v6.203125zm0 0"/><path d="m133.425781 223.4375-5.375-3.101562v6.207031zm0 0"/><path d="m144.171875 229.644531-5.375-3.101562v6.203125zm0 0"/><path d="m160.296875 238.953125-5.375-3.105469v6.207032zm0 0"/><path d="m171.042969 245.15625-5.375-3.101562v6.207031zm0 0"/><path d="m176.417969 248.261719-5.375-3.105469v6.207031zm0 0"/><path d="m181.792969 251.363281-5.375-3.101562v6.203125zm0 0"/><path d="m187.164062 248.261719-5.371093-3.105469v6.207031zm0 0"/><path d="m192.539062 245.15625-5.375-3.101562v6.207031zm0 0"/><path d="m197.914062 242.054688-5.375-3.101563v6.203125zm0 0"/><path d="m230.160156 223.4375-5.375-3.101562v6.207031zm0 0"/><path d="m235.53125 220.335938-5.371094-3.101563v6.203125zm0 0"/><path d="m240.90625 217.234375-5.375-3.105469v6.207032zm0 0"/><path d="m251.65625 198.617188-5.375-3.101563v6.203125zm0 0"/><path d="m251.65625 192.410156-5.375-3.101562v6.207031zm0 0"/><path d="m251.65625 186.207031-5.375-3.105469v6.207032zm0 0"/><path d="m251.65625 173.792969-5.375-3.101563v6.207032zm0 0"/><path d="m251.65625 167.589844-5.375-3.105469v6.207031zm0 0"/><path d="m251.65625 161.382812-5.375-3.101562v6.203125zm0 0"/><path d="m240.90625 136.5625-5.375-3.105469v6.207031zm0 0"/><path d="m230.160156 130.355469-5.375-3.101563v6.203125zm0 0"/><path d="m219.410156 124.152344-5.375-3.105469v6.207031zm0 0"/><path d="m214.035156 121.046875-5.375-3.101563v6.207032zm0 0"/><path d="m203.289062 114.84375-5.375-3.105469v6.207031zm0 0"/><path d="m192.539062 108.636719-5.375-3.101563v6.203125zm0 0"/><path d="m165.667969 111.738281-5.371094-3.101562v6.207031zm0 0"/><path d="m160.296875 114.84375-5.375-3.105469v6.207031zm0 0"/><path d="m154.921875 117.945312-5.375-3.101562v6.203125zm0 0"/><path d="m144.171875 124.152344-5.375-3.105469v6.207031zm0 0"/><path d="m138.796875 127.253906-5.371094-3.101562v6.203125zm0 0"/><path d="m133.425781 130.355469-5.375-3.101563v6.203125zm0 0"/><path d="m117.300781 152.074219-5.371093-3.101563v6.207032zm0 0"/><path d="m117.300781 164.484375-5.371093-3.101563v6.207032zm0 0"/><path d="m117.300781 176.898438-5.371093-3.105469v6.207031zm0 0"/><path d="m117.300781 183.101562-5.371093-3.101562v6.207031zm0 0"/><path d="m117.300781 195.515625-5.371093-3.105469v6.207032zm0 0"/><path d="m117.300781 207.925781-5.371093-3.105469v6.207032zm0 0"/><path d="m133.425781 229.644531-5.375-3.101562v6.203125zm0 0"/><path d="m138.796875 232.746094-5.371094-3.101563v6.203125zm0 0"/><path d="m144.171875 235.847656-5.375-3.101562v6.207031zm0 0"/><path d="m154.921875 242.054688-5.375-3.101563v6.203125zm0 0"/><path d="m160.296875 245.15625-5.375-3.101562v6.207031zm0 0"/><path d="m165.667969 248.261719-5.371094-3.105469v6.207031zm0 0"/><path d="m192.539062 251.363281-5.375-3.101562v6.203125zm0 0"/><path d="m203.289062 245.15625-5.375-3.101562v6.207031zm0 0"/><path d="m214.035156 238.953125-5.375-3.105469v6.207032zm0 0"/><path d="m219.410156 235.847656-5.375-3.101562v6.207031zm0 0"/><path d="m230.160156 229.644531-5.375-3.101562v6.203125zm0 0"/><path d="m240.90625 223.4375-5.375-3.101562v6.207031zm0 0"/><path d="m257.027344 201.71875-5.371094-3.101562v6.203124zm0 0"/><path d="m257.027344 158.28125-5.371094-3.101562v6.203124zm0 0"/><path d="m251.65625 136.5625-5.375-3.105469v6.207031zm0 0"/><path d="m246.28125 133.457031-5.375-3.101562v6.207031zm0 0"/><path d="m235.53125 127.253906-5.371094-3.101562v6.203125zm0 0"/><path d="m203.289062 108.636719-5.375-3.101563v6.203125zm0 0"/><path d="m192.539062 102.429688-5.375-3.101563v6.207031zm0 0"/><path d="m187.164062 99.328125-5.371093-3.101563v6.203126zm0 0"/><path d="m165.667969 105.535156-5.371094-3.105468v6.207031zm0 0"/><path d="m128.050781 127.253906-5.375-3.101562v6.203125zm0 0"/><path d="m111.929688 142.765625-5.375-3.101563v6.207032zm0 0"/><path d="m111.929688 148.972656-5.375-3.101562v6.203125zm0 0"/><path d="m111.929688 161.382812-5.375-3.101562v6.203125zm0 0"/><path d="m111.929688 198.617188-5.375-3.101563v6.203125zm0 0"/><path d="m111.929688 211.027344-5.375-3.101563v6.203125zm0 0"/><path d="m111.929688 217.234375-5.375-3.105469v6.207032zm0 0"/><path d="m128.050781 232.746094-5.375-3.101563v6.203125zm0 0"/><path d="m165.667969 254.464844-5.371094-3.101563v6.207031zm0 0"/><path d="m187.164062 260.671875-5.371093-3.101563v6.203126zm0 0"/><path d="m192.539062 257.570312-5.375-3.105468v6.207031zm0 0"/><path d="m203.289062 251.363281-5.375-3.101562v6.203125zm0 0"/><path d="m235.53125 232.746094-5.371094-3.101563v6.203125zm0 0"/><path d="m246.28125 226.542969-5.375-3.105469v6.207031zm0 0"/><path d="m251.65625 223.4375-5.375-3.101562v6.207031zm0 0"/><path d="m262.402344 223.4375-5.375-3.101562v6.207031zm0 0"/><path d="m262.402344 217.234375-5.375-3.105469v6.207032zm0 0"/><path d="m262.402344 211.027344-5.375-3.101563v6.203125zm0 0"/><path d="m262.402344 204.820312-5.375-3.101562v6.207031zm0 0"/><path d="m262.402344 192.410156-5.375-3.101562v6.207031zm0 0"/><path d="m262.402344 167.589844-5.375-3.105469v6.207031zm0 0"/><path d="m262.402344 155.179688-5.375-3.105469v6.207031zm0 0"/><path d="m262.402344 148.972656-5.375-3.101562v6.203125zm0 0"/><path d="m262.402344 142.765625-5.375-3.101563v6.207032zm0 0"/><path d="m262.402344 136.5625-5.375-3.105469v6.207031zm0 0"/><path d="m235.53125 121.046875-5.371094-3.101563v6.207032zm0 0"/><path d="m208.660156 105.535156-5.371094-3.105468v6.207031zm0 0"/><path d="m181.792969 90.019531-5.375-3.101562v6.207031zm0 0"/><path d="m176.417969 93.125-5.375-3.105469v6.207031zm0 0"/><path d="m171.042969 96.226562-5.375-3.101562v6.203125zm0 0"/><path d="m165.667969 99.328125-5.371094-3.101563v6.203126zm0 0"/><path d="m154.921875 105.535156-5.375-3.105468v6.207031zm0 0"/><path d="m133.425781 117.945312-5.375-3.101562v6.203125zm0 0"/><path d="m122.675781 124.152344-5.375-3.105469v6.207031zm0 0"/><path d="m117.300781 127.253906-5.371093-3.101562v6.203125zm0 0"/><path d="m111.929688 130.355469-5.375-3.101563v6.203125zm0 0"/><path d="m106.554688 133.457031-5.375-3.101562v6.207031zm0 0"/><path d="m106.554688 164.484375-5.375-3.101563v6.207032zm0 0"/><path d="m106.554688 195.515625-5.375-3.105469v6.207032zm0 0"/><path d="m106.554688 226.542969-5.375-3.105469v6.207031zm0 0"/><path d="m111.929688 229.644531-5.375-3.101562v6.203125zm0 0"/><path d="m117.300781 232.746094-5.371093-3.101563v6.203125zm0 0"/><path d="m122.675781 235.847656-5.375-3.101562v6.207031zm0 0"/><path d="m133.425781 242.054688-5.375-3.101563v6.203125zm0 0"/><path d="m154.921875 254.464844-5.375-3.101563v6.207031zm0 0"/><path d="m165.667969 260.671875-5.371094-3.101563v6.203126zm0 0"/><path d="m171.042969 263.773438-5.375-3.101563v6.203125zm0 0"/><path d="m176.417969 266.875-5.375-3.101562v6.207031zm0 0"/><path d="m181.792969 269.980469-5.375-3.105469v6.207031zm0 0"/><path d="m208.660156 254.464844-5.371094-3.101563v6.207031zm0 0"/><path d="m235.53125 238.953125-5.371094-3.105469v6.207032zm0 0"/><path d="m267.777344 226.542969-5.375-3.105469v6.207031zm0 0"/><path d="m267.777344 220.335938-5.375-3.101563v6.203125zm0 0"/><path d="m267.777344 214.128906-5.375-3.101562v6.207031zm0 0"/><path d="m267.777344 195.515625-5.375-3.105469v6.207032zm0 0"/><path d="m267.777344 183.101562-5.375-3.101562v6.207031zm0 0"/><path d="m267.777344 176.898438-5.375-3.105469v6.207031zm0 0"/><path d="m267.777344 164.484375-5.375-3.101563v6.207032zm0 0"/><path d="m267.777344 145.871094-5.375-3.105469v6.207031zm0 0"/><path d="m267.777344 139.664062-5.375-3.101562v6.203125zm0 0"/><path d="m267.777344 133.457031-5.375-3.101562v6.207031zm0 0"/><path d="m246.28125 121.046875-5.375-3.101563v6.207032zm0 0"/><path d="m235.53125 114.84375-5.371094-3.105469v6.207031zm0 0"/><path d="m214.035156 102.429688-5.375-3.101563v6.207031zm0 0"/><path d="m203.289062 96.226562-5.375-3.101562v6.203125zm0 0"/><path d="m181.792969 83.816406-5.375-3.105468v6.207031zm0 0"/><path d="m176.417969 86.917969-5.375-3.101563v6.203125zm0 0"/><path d="m171.042969 90.019531-5.375-3.101562v6.207031zm0 0"/><path d="m154.921875 99.328125-5.375-3.101563v6.203126zm0 0"/><path d="m144.171875 105.535156-5.375-3.105468v6.207031zm0 0"/><path d="m138.796875 108.636719-5.371094-3.101563v6.203125zm0 0"/><path d="m128.050781 114.84375-5.375-3.105469v6.207031zm0 0"/><path d="m111.929688 124.152344-5.375-3.105469v6.207031zm0 0"/><path d="m106.554688 127.253906-5.375-3.101562v6.203125zm0 0"/><path d="m101.179688 130.355469-5.375-3.101563v6.203125zm0 0"/><path d="m101.179688 155.179688-5.375-3.105469v6.207031zm0 0"/><path d="m101.179688 167.589844-5.375-3.105469v6.207031zm0 0"/><path d="m101.179688 192.410156-5.375-3.101562v6.207031zm0 0"/><path d="m101.179688 204.820312-5.375-3.101562v6.207031zm0 0"/><path d="m101.179688 229.644531-5.375-3.101562v6.203125zm0 0"/><path d="m106.554688 232.746094-5.375-3.101563v6.203125zm0 0"/><path d="m111.929688 235.847656-5.375-3.101562v6.207031zm0 0"/><path d="m128.050781 245.15625-5.375-3.101562v6.207031zm0 0"/><path d="m138.796875 251.363281-5.371094-3.101562v6.203125zm0 0"/><path d="m144.171875 254.464844-5.375-3.101563v6.207031zm0 0"/><path d="m154.921875 260.671875-5.375-3.101563v6.203126zm0 0"/><path d="m171.042969 269.980469-5.375-3.105469v6.207031zm0 0"/><path d="m176.417969 273.082031-5.375-3.101562v6.203125zm0 0"/><path d="m181.792969 276.183594-5.375-3.101563v6.207031zm0 0"/><path d="m203.289062 263.773438-5.375-3.101563v6.203125zm0 0"/><path d="m214.035156 257.570312-5.375-3.105468v6.207031zm0 0"/><path d="m235.53125 245.15625-5.371094-3.101562v6.207031zm0 0"/><path d="m246.28125 238.953125-5.375-3.105469v6.207032zm0 0"/><path d="m273.152344 229.644531-5.375-3.101562v6.203125zm0 0"/><path d="m273.152344 223.4375-5.375-3.101562v6.207031zm0 0"/><path d="m273.152344 198.617188-5.375-3.101563v6.203125zm0 0"/><path d="m273.152344 161.382812-5.375-3.101562v6.203125zm0 0"/><path d="m273.152344 136.5625-5.375-3.105469v6.207031zm0 0"/><path d="m273.152344 130.355469-5.375-3.101563v6.203125zm0 0"/><path d="m262.402344 124.152344-5.375-3.105469v6.207031zm0 0"/><path d="m251.65625 117.945312-5.375-3.101562v6.203125zm0 0"/><path d="m240.90625 111.738281-5.375-3.101562v6.207031zm0 0"/><path d="m230.160156 105.535156-5.375-3.105468v6.207031zm0 0"/><path d="m224.785156 102.429688-5.375-3.101563v6.207031zm0 0"/><path d="m214.035156 96.226562-5.375-3.101562v6.203125zm0 0"/><path d="m203.289062 90.019531-5.375-3.101562v6.207031zm0 0"/><path d="m192.539062 83.816406-5.375-3.105468v6.207031zm0 0"/><path d="m181.792969 77.609375-5.375-3.101563v6.203126zm0 0"/><path d="m176.417969 80.710938-5.375-3.101563v6.207031zm0 0"/><path d="m154.921875 93.125-5.375-3.105469v6.207031zm0 0"/><path d="m122.675781 111.738281-5.375-3.101562v6.207031zm0 0"/><path d="m101.179688 124.152344-5.375-3.105469v6.207031zm0 0"/><path d="m95.804688 127.253906-5.371094-3.101562v6.203125zm0 0"/><path d="m95.804688 139.664062-5.371094-3.101562v6.203125zm0 0"/><path d="m95.804688 152.074219-5.371094-3.101563v6.207032zm0 0"/><path d="m95.804688 164.484375-5.371094-3.101563v6.207032zm0 0"/><path d="m95.804688 176.898438-5.371094-3.105469v6.207031zm0 0"/><path d="m95.804688 183.101562-5.371094-3.101562v6.207031zm0 0"/><path d="m95.804688 195.515625-5.371094-3.105469v6.207032zm0 0"/><path d="m95.804688 207.925781-5.371094-3.105469v6.207032zm0 0"/><path d="m95.804688 220.335938-5.371094-3.101563v6.203125zm0 0"/><path d="m95.804688 232.746094-5.371094-3.101563v6.203125zm0 0"/><path d="m101.179688 235.847656-5.375-3.101562v6.207031zm0 0"/><path d="m122.675781 248.261719-5.375-3.105469v6.207031zm0 0"/><path d="m154.921875 266.875-5.375-3.101562v6.207031zm0 0"/><path d="m176.417969 279.289062-5.375-3.105468v6.207031zm0 0"/><path d="m181.792969 282.390625-5.375-3.101563v6.203126zm0 0"/><path d="m192.539062 276.183594-5.375-3.101563v6.207031zm0 0"/><path d="m203.289062 269.980469-5.375-3.105469v6.207031zm0 0"/><path d="m214.035156 263.773438-5.375-3.101563v6.203125zm0 0"/><path d="m224.785156 257.570312-5.375-3.105468v6.207031zm0 0"/><path d="m230.160156 254.464844-5.375-3.101563v6.207031zm0 0"/><path d="m240.90625 248.261719-5.375-3.105469v6.207031zm0 0"/><path d="m251.65625 242.054688-5.375-3.101563v6.203125zm0 0"/><path d="m262.402344 235.847656-5.375-3.101562v6.207031zm0 0"/><path d="m278.523438 214.128906-5.371094-3.101562v6.207031zm0 0"/><path d="m278.523438 183.101562-5.371094-3.101562v6.207031zm0 0"/><path d="m278.523438 176.898438-5.371094-3.105469v6.207031zm0 0"/><path d="m278.523438 145.871094-5.371094-3.105469v6.207031zm0 0"/><path d="m267.777344 121.046875-5.375-3.101563v6.207032zm0 0"/><path d="m262.402344 117.945312-5.375-3.101562v6.203125zm0 0"/><path d="m257.027344 114.84375-5.371094-3.105469v6.207031zm0 0"/><path d="m235.53125 102.429688-5.371094-3.101563v6.207031zm0 0"/><path d="m224.785156 96.226562-5.375-3.101562v6.203125zm0 0"/><path d="m203.289062 83.816406-5.375-3.105468v6.207031zm0 0"/><path d="m197.914062 80.710938-5.375-3.101563v6.207031zm0 0"/><path d="m192.539062 77.609375-5.375-3.101563v6.203126zm0 0"/><path d="m165.667969 80.710938-5.371094-3.101563v6.207031zm0 0"/><path d="m138.796875 96.226562-5.371094-3.101562v6.203125zm0 0"/><path d="m133.425781 99.328125-5.375-3.101563v6.203126zm0 0"/><path d="m106.554688 114.84375-5.375-3.105469v6.207031zm0 0"/><path d="m90.433594 136.5625-5.375-3.105469v6.207031zm0 0"/><path d="m90.433594 142.765625-5.375-3.101563v6.207032zm0 0"/><path d="m90.433594 148.972656-5.375-3.101562v6.203125zm0 0"/><path d="m90.433594 173.792969-5.375-3.101563v6.207032zm0 0"/><path d="m90.433594 186.207031-5.375-3.105469v6.207032zm0 0"/><path d="m90.433594 211.027344-5.375-3.101563v6.203125zm0 0"/><path d="m90.433594 217.234375-5.375-3.105469v6.207032zm0 0"/><path d="m90.433594 223.4375-5.375-3.101562v6.207031zm0 0"/><path d="m106.554688 245.15625-5.375-3.101562v6.207031zm0 0"/><path d="m133.425781 260.671875-5.375-3.101563v6.203126zm0 0"/><path d="m138.796875 263.773438-5.371094-3.101563v6.203125zm0 0"/><path d="m165.667969 279.289062-5.371094-3.105468v6.207031zm0 0"/><path d="m192.539062 282.390625-5.375-3.101563v6.203126zm0 0"/><path d="m197.914062 279.289062-5.375-3.105468v6.207031zm0 0"/><path d="m203.289062 276.183594-5.375-3.101563v6.207031zm0 0"/><path d="m224.785156 263.773438-5.375-3.101563v6.203125zm0 0"/><path d="m235.53125 257.570312-5.371094-3.105468v6.207031zm0 0"/><path d="m257.027344 245.15625-5.371094-3.101562v6.207031zm0 0"/><path d="m262.402344 242.054688-5.375-3.101563v6.203125zm0 0"/><path d="m267.777344 238.953125-5.375-3.105469v6.207032zm0 0"/><path d="m283.898438 235.847656-5.375-3.101562v6.207031zm0 0"/><path d="m283.898438 229.644531-5.375-3.101562v6.203125zm0 0"/><path d="m283.898438 223.4375-5.375-3.101562v6.207031zm0 0"/><path d="m283.898438 217.234375-5.375-3.105469v6.207032zm0 0"/><path d="m283.898438 204.820312-5.375-3.101562v6.207031zm0 0"/><path d="m283.898438 155.179688-5.375-3.105469v6.207031zm0 0"/><path d="m283.898438 142.765625-5.375-3.101563v6.207032zm0 0"/><path d="m283.898438 136.5625-5.375-3.105469v6.207031zm0 0"/><path d="m283.898438 130.355469-5.375-3.101563v6.203125zm0 0"/><path d="m283.898438 124.152344-5.375-3.105469v6.207031zm0 0"/><path d="m267.777344 114.84375-5.375-3.105469v6.207031zm0 0"/><path d="m257.027344 108.636719-5.371094-3.101563v6.203125zm0 0"/><path d="m240.90625 99.328125-5.375-3.101563v6.203126zm0 0"/><path d="m224.785156 90.019531-5.375-3.101562v6.207031zm0 0"/><path d="m208.660156 80.710938-5.371094-3.101563v6.207031zm0 0"/><path d="m197.914062 74.507812-5.375-3.105468v6.207031zm0 0"/><path d="m181.792969 65.199219-5.375-3.101563v6.203125zm0 0"/><path d="m176.417969 68.300781-5.375-3.101562v6.203125zm0 0"/><path d="m171.042969 71.402344-5.375-3.101563v6.207031zm0 0"/><path d="m165.667969 74.507812-5.371094-3.105468v6.207031zm0 0"/><path d="m154.921875 80.710938-5.375-3.101563v6.207031zm0 0"/><path d="m111.929688 105.535156-5.375-3.105468v6.207031zm0 0"/><path d="m101.179688 111.738281-5.375-3.101562v6.207031zm0 0"/><path d="m95.804688 114.84375-5.371094-3.105469v6.207031zm0 0"/><path d="m90.433594 117.945312-5.375-3.101562v6.203125zm0 0"/><path d="m85.058594 121.046875-5.375-3.101563v6.207032zm0 0"/><path d="m85.058594 139.664062-5.375-3.101562v6.203125zm0 0"/><path d="m85.058594 152.074219-5.375-3.101563v6.207032zm0 0"/><path d="m85.058594 170.691406-5.375-3.101562v6.203125zm0 0"/><path d="m85.058594 189.308594-5.375-3.101563v6.203125zm0 0"/><path d="m85.058594 207.925781-5.375-3.105469v6.207032zm0 0"/><path d="m85.058594 220.335938-5.375-3.101563v6.203125zm0 0"/><path d="m85.058594 238.953125-5.375-3.105469v6.207032zm0 0"/><path d="m90.433594 242.054688-5.375-3.101563v6.203125zm0 0"/><path d="m95.804688 245.15625-5.371094-3.101562v6.207031zm0 0"/><path d="m101.179688 248.261719-5.375-3.105469v6.207031zm0 0"/><path d="m111.929688 254.464844-5.375-3.101563v6.207031zm0 0"/><path d="m154.921875 279.289062-5.375-3.105468v6.207031zm0 0"/><path d="m165.667969 285.492188-5.371094-3.101563v6.207031zm0 0"/><path d="m171.042969 288.597656-5.375-3.105468v6.207031zm0 0"/><path d="m176.417969 291.699219-5.375-3.101563v6.203125zm0 0"/><path d="m181.792969 294.800781-5.375-3.101562v6.203125zm0 0"/><path d="m197.914062 285.492188-5.375-3.101563v6.207031zm0 0"/><path d="m208.660156 279.289062-5.371094-3.105468v6.207031zm0 0"/><path d="m224.785156 269.980469-5.375-3.105469v6.207031zm0 0"/><path d="m240.90625 260.671875-5.375-3.101563v6.203126zm0 0"/><path d="m257.027344 251.363281-5.371094-3.101562v6.203125zm0 0"/><path d="m267.777344 245.15625-5.375-3.101562v6.207031zm0 0"/><path d="m289.273438 232.746094-5.375-3.101563v6.203125zm0 0"/><path d="m289.273438 220.335938-5.375-3.101563v6.203125zm0 0"/><path d="m289.273438 189.308594-5.375-3.101563v6.203125zm0 0"/><path d="m289.273438 170.691406-5.375-3.101562v6.203125zm0 0"/><path d="m289.273438 139.664062-5.375-3.101562v6.203125zm0 0"/><path d="m289.273438 127.253906-5.375-3.101562v6.203125zm0 0"/><path d="m278.523438 114.84375-5.371094-3.105469v6.207031zm0 0"/><path d="m273.152344 111.738281-5.375-3.101562v6.207031zm0 0"/><path d="m246.28125 96.226562-5.375-3.101562v6.203125zm0 0"/><path d="m224.785156 83.816406-5.375-3.105468v6.207031zm0 0"/><path d="m197.914062 68.300781-5.375-3.101562v6.203125zm0 0"/><path d="m192.539062 65.199219-5.375-3.101563v6.203125zm0 0"/><path d="m176.417969 62.097656-5.375-3.105468v6.207031zm0 0"/><path d="m165.667969 68.300781-5.371094-3.101562v6.203125zm0 0"/><path d="m138.796875 83.816406-5.371094-3.105468v6.207031zm0 0"/><path d="m122.675781 93.125-5.375-3.105469v6.207031zm0 0"/><path d="m95.804688 108.636719-5.371094-3.101563v6.203125zm0 0"/><path d="m85.058594 114.84375-5.375-3.105469v6.207031zm0 0"/><path d="m79.683594 130.355469-5.375-3.101563v6.203125zm0 0"/><path d="m79.683594 136.5625-5.375-3.105469v6.207031zm0 0"/><path d="m79.683594 167.589844-5.375-3.105469v6.207031zm0 0"/><path d="m79.683594 192.410156-5.375-3.101562v6.207031zm0 0"/><path d="m79.683594 223.4375-5.375-3.101562v6.207031zm0 0"/><path d="m79.683594 229.644531-5.375-3.101562v6.203125zm0 0"/><path d="m85.058594 245.15625-5.375-3.101562v6.207031zm0 0"/><path d="m95.804688 251.363281-5.371094-3.101562v6.203125zm0 0"/><path d="m122.675781 266.875-5.375-3.101562v6.207031zm0 0"/><path d="m138.796875 276.183594-5.371094-3.101563v6.207031zm0 0"/><path d="m165.667969 291.699219-5.371094-3.101563v6.203125zm0 0"/><path d="m176.417969 297.902344-5.375-3.101563v6.207031zm0 0"/><path d="m192.539062 294.800781-5.375-3.101562v6.203125zm0 0"/><path d="m197.914062 291.699219-5.375-3.101563v6.203125zm0 0"/><path d="m224.785156 276.183594-5.375-3.101563v6.207031zm0 0"/><path d="m246.28125 263.773438-5.375-3.101563v6.203125zm0 0"/><path d="m273.152344 248.261719-5.375-3.105469v6.207031zm0 0"/><path d="m278.523438 245.15625-5.371094-3.101562v6.207031zm0 0"/><path d="m294.648438 235.847656-5.375-3.101562v6.207031zm0 0"/><path d="m294.648438 211.027344-5.375-3.101563v6.203125zm0 0"/><path d="m294.648438 204.820312-5.375-3.101562v6.207031zm0 0"/><path d="m294.648438 155.179688-5.375-3.105469v6.207031zm0 0"/><path d="m294.648438 148.972656-5.375-3.101562v6.203125zm0 0"/><path d="m294.648438 124.152344-5.375-3.105469v6.207031zm0 0"/><path d="m289.273438 114.84375-5.375-3.105469v6.207031zm0 0"/><path d="m267.777344 102.429688-5.375-3.101563v6.207031zm0 0"/><path d="m262.402344 99.328125-5.375-3.101563v6.203126zm0 0"/><path d="m257.027344 96.226562-5.371094-3.101562v6.203125zm0 0"/><path d="m251.65625 93.125-5.375-3.105469v6.207031zm0 0"/><path d="m224.785156 77.609375-5.375-3.101563v6.203126zm0 0"/><path d="m219.410156 74.507812-5.375-3.105468v6.207031zm0 0"/><path d="m214.035156 71.402344-5.375-3.101563v6.207031zm0 0"/><path d="m208.660156 68.300781-5.371094-3.101562v6.203125zm0 0"/><path d="m187.164062 55.890625-5.371093-3.101563v6.203126zm0 0"/><path d="m176.417969 55.890625-5.375-3.101563v6.203126zm0 0"/><path d="m154.921875 68.300781-5.375-3.101562v6.203125zm0 0"/><path d="m149.546875 71.402344-5.375-3.101563v6.207031zm0 0"/><path d="m106.554688 96.226562-5.375-3.101562v6.203125zm0 0"/><path d="m101.179688 99.328125-5.375-3.101563v6.203126zm0 0"/><path d="m79.683594 111.738281-5.375-3.101562v6.207031zm0 0"/><path d="m74.308594 121.046875-5.375-3.101563v6.207032zm0 0"/><path d="m74.308594 145.871094-5.375-3.105469v6.207031zm0 0"/><path d="m74.308594 152.074219-5.375-3.101563v6.207032zm0 0"/><path d="m74.308594 158.28125-5.375-3.101562v6.203124zm0 0"/><path d="m74.308594 164.484375-5.375-3.101563v6.207032zm0 0"/><path d="m74.308594 195.515625-5.375-3.105469v6.207032zm0 0"/><path d="m74.308594 201.71875-5.375-3.101562v6.203124zm0 0"/><path d="m74.308594 207.925781-5.375-3.105469v6.207032zm0 0"/><path d="m74.308594 214.128906-5.375-3.101562v6.207031zm0 0"/><path d="m74.308594 238.953125-5.375-3.105469v6.207032zm0 0"/><path d="m79.683594 248.261719-5.375-3.105469v6.207031zm0 0"/><path d="m101.179688 260.671875-5.375-3.101563v6.203126zm0 0"/><path d="m106.554688 263.773438-5.375-3.101563v6.203125zm0 0"/><path d="m149.546875 288.597656-5.375-3.105468v6.207031zm0 0"/><path d="m154.921875 291.699219-5.375-3.101563v6.203125zm0 0"/><path d="m176.417969 304.109375-5.375-3.101563v6.203126zm0 0"/><path d="m187.164062 304.109375-5.371093-3.101563v6.203126zm0 0"/><path d="m208.660156 291.699219-5.371094-3.101563v6.203125zm0 0"/><path d="m214.035156 288.597656-5.375-3.105468v6.207031zm0 0"/><path d="m219.410156 285.492188-5.375-3.101563v6.207031zm0 0"/><path d="m224.785156 282.390625-5.375-3.101563v6.203126zm0 0"/><path d="m251.65625 266.875-5.375-3.101562v6.207031zm0 0"/><path d="m257.027344 263.773438-5.371094-3.101563v6.203125zm0 0"/><path d="m262.402344 260.671875-5.375-3.101563v6.203126zm0 0"/><path d="m267.777344 257.570312-5.375-3.105468v6.207031zm0 0"/><path d="m289.273438 245.15625-5.375-3.101562v6.207031zm0 0"/><path d="m300.019531 238.953125-5.371093-3.105469v6.207032zm0 0"/><path d="m300.019531 232.746094-5.371093-3.101563v6.203125zm0 0"/><path d="m300.019531 226.542969-5.371093-3.105469v6.207031zm0 0"/><path d="m300.019531 220.335938-5.371093-3.101563v6.203125zm0 0"/><path d="m300.019531 214.128906-5.371093-3.101562v6.207031zm0 0"/><path d="m300.019531 195.515625-5.371093-3.105469v6.207032zm0 0"/><path d="m300.019531 164.484375-5.371093-3.101563v6.207032zm0 0"/><path d="m300.019531 145.871094-5.371093-3.105469v6.207031zm0 0"/><path d="m300.019531 139.664062-5.371093-3.101562v6.203125zm0 0"/><path d="m300.019531 133.457031-5.371093-3.101562v6.207031zm0 0"/><path d="m300.019531 127.253906-5.371093-3.101562v6.203125zm0 0"/><path d="m300.019531 121.046875-5.371093-3.101563v6.207032zm0 0"/><path d="m289.273438 108.636719-5.375-3.101563v6.203125zm0 0"/><path d="m267.777344 96.226562-5.375-3.101562v6.203125zm0 0"/><path d="m257.027344 90.019531-5.371094-3.101562v6.207031zm0 0"/><path d="m224.785156 71.402344-5.375-3.101563v6.207031zm0 0"/><path d="m214.035156 65.199219-5.375-3.101563v6.203125zm0 0"/><path d="m192.539062 52.789062-5.375-3.105468v6.207031zm0 0"/><path d="m176.417969 49.683594-5.375-3.101563v6.207031zm0 0"/><path d="m171.042969 52.789062-5.375-3.105468v6.207031zm0 0"/><path d="m165.667969 55.890625-5.371094-3.101563v6.203126zm0 0"/><path d="m160.296875 58.992188-5.375-3.101563v6.207031zm0 0"/><path d="m154.921875 62.097656-5.375-3.105468v6.207031zm0 0"/><path d="m138.796875 71.402344-5.371094-3.101563v6.207031zm0 0"/><path d="m111.929688 86.917969-5.375-3.101563v6.203125zm0 0"/><path d="m95.804688 96.226562-5.371094-3.101562v6.203125zm0 0"/><path d="m90.433594 99.328125-5.375-3.101563v6.203126zm0 0"/><path d="m85.058594 102.429688-5.375-3.101563v6.207031zm0 0"/><path d="m79.683594 105.535156-5.375-3.105468v6.207031zm0 0"/><path d="m74.308594 108.636719-5.375-3.101563v6.203125zm0 0"/><path d="m68.933594 124.152344-5.371094-3.105469v6.207031zm0 0"/><path d="m68.933594 148.972656-5.371094-3.101562v6.203125zm0 0"/><path d="m68.933594 161.382812-5.371094-3.101562v6.203125zm0 0"/><path d="m68.933594 198.617188-5.371094-3.101563v6.203125zm0 0"/><path d="m68.933594 211.027344-5.371094-3.101563v6.203125zm0 0"/><path d="m68.933594 235.847656-5.371094-3.101562v6.207031zm0 0"/><path d="m74.308594 251.363281-5.375-3.101562v6.203125zm0 0"/><path d="m79.683594 254.464844-5.375-3.101563v6.207031zm0 0"/><path d="m85.058594 257.570312-5.375-3.105468v6.207031zm0 0"/><path d="m90.433594 260.671875-5.375-3.101563v6.203126zm0 0"/><path d="m95.804688 263.773438-5.371094-3.101563v6.203125zm0 0"/><path d="m111.929688 273.082031-5.375-3.101562v6.203125zm0 0"/><path d="m138.796875 288.597656-5.371094-3.105468v6.207031zm0 0"/><path d="m154.921875 297.902344-5.375-3.101563v6.207031zm0 0"/><path d="m160.296875 301.007812-5.375-3.105468v6.207031zm0 0"/><path d="m165.667969 304.109375-5.371094-3.101563v6.203126zm0 0"/><path d="m171.042969 307.210938-5.375-3.101563v6.207031zm0 0"/><path d="m176.417969 310.316406-5.375-3.105468v6.207031zm0 0"/><path d="m192.539062 307.210938-5.375-3.101563v6.207031zm0 0"/><path d="m214.035156 294.800781-5.375-3.101562v6.203125zm0 0"/><path d="m224.785156 288.597656-5.375-3.105468v6.207031zm0 0"/><path d="m257.027344 269.980469-5.371094-3.105469v6.207031zm0 0"/><path d="m267.777344 263.773438-5.375-3.101563v6.203125zm0 0"/><path d="m289.273438 251.363281-5.375-3.101562v6.203125zm0 0"/><path d="m300.019531 108.636719-5.371093-3.101563v6.203125zm0 0"/><path d="m294.648438 105.535156-5.375-3.105468v6.207031zm0 0"/><path d="m289.273438 102.429688-5.375-3.101563v6.207031zm0 0"/><path d="m283.898438 99.328125-5.375-3.101563v6.203126zm0 0"/><path d="m278.523438 96.226562-5.371094-3.101562v6.203125zm0 0"/><path d="m273.152344 93.125-5.375-3.105469v6.207031zm0 0"/><path d="m262.402344 86.917969-5.375-3.101563v6.203125zm0 0"/><path d="m224.785156 65.199219-5.375-3.101563v6.203125zm0 0"/><path d="m214.035156 58.992188-5.375-3.101563v6.207031zm0 0"/><path d="m208.660156 55.890625-5.371094-3.101563v6.203126zm0 0"/><path d="m203.289062 52.789062-5.375-3.105468v6.207031zm0 0"/><path d="m197.914062 49.683594-5.375-3.101563v6.207031zm0 0"/><path d="m192.539062 46.582031-5.375-3.101562v6.203125zm0 0"/><path d="m187.164062 43.480469-5.371093-3.105469v6.207031zm0 0"/><path d="m63.5625 114.84375-5.375-3.105469v6.207031zm0 0"/><path d="m63.5625 121.046875-5.375-3.101563v6.207032zm0 0"/><path d="m63.5625 127.253906-5.375-3.101562v6.203125zm0 0"/><path d="m63.5625 133.457031-5.375-3.101562v6.207031zm0 0"/><path d="m63.5625 139.664062-5.375-3.101562v6.203125zm0 0"/><path d="m63.5625 145.871094-5.375-3.105469v6.207031zm0 0"/><path d="m63.5625 158.28125-5.375-3.101562v6.203124zm0 0"/><path d="m63.5625 201.71875-5.375-3.101562v6.203124zm0 0"/><path d="m63.5625 214.128906-5.375-3.101562v6.207031zm0 0"/><path d="m63.5625 220.335938-5.375-3.101563v6.203125zm0 0"/><path d="m63.5625 226.542969-5.375-3.105469v6.207031zm0 0"/><path d="m63.5625 232.746094-5.375-3.101563v6.203125zm0 0"/><path d="m63.5625 238.953125-5.375-3.105469v6.207032zm0 0"/><path d="m63.5625 245.15625-5.375-3.101562v6.207031zm0 0"/><path d="m187.164062 316.519531-5.371093-3.101562v6.207031zm0 0"/><path d="m192.539062 313.417969-5.375-3.101563v6.203125zm0 0"/><path d="m197.914062 310.316406-5.375-3.105468v6.207031zm0 0"/><path d="m203.289062 307.210938-5.375-3.101563v6.207031zm0 0"/><path d="m208.660156 304.109375-5.371094-3.101563v6.203126zm0 0"/><path d="m214.035156 301.007812-5.375-3.105468v6.207031zm0 0"/><path d="m224.785156 294.800781-5.375-3.101562v6.203125zm0 0"/><path d="m262.402344 273.082031-5.375-3.101562v6.203125zm0 0"/><path d="m273.152344 266.875-5.375-3.101562v6.207031zm0 0"/><path d="m278.523438 263.773438-5.371094-3.101563v6.203125zm0 0"/><path d="m283.898438 260.671875-5.375-3.101563v6.203126zm0 0"/><path d="m289.273438 257.570312-5.375-3.105468v6.207031zm0 0"/><path d="m294.648438 254.464844-5.375-3.101563v6.207031zm0 0"/><path d="m300.019531 251.363281-5.371093-3.101562v6.203125zm0 0"/><path d="m310.769531 245.15625-5.375-3.101562v6.207031zm0 0"/><path d="m310.769531 238.953125-5.375-3.105469v6.207032zm0 0"/><path d="m310.769531 232.746094-5.375-3.101563v6.203125zm0 0"/><path d="m310.769531 226.542969-5.375-3.105469v6.207031zm0 0"/><path d="m310.769531 220.335938-5.375-3.101563v6.203125zm0 0"/><path d="m310.769531 214.128906-5.375-3.101562v6.207031zm0 0"/><path d="m310.769531 201.71875-5.375-3.101562v6.203124zm0 0"/><path d="m310.769531 158.28125-5.375-3.101562v6.203124zm0 0"/><path d="m310.769531 145.871094-5.375-3.105469v6.207031zm0 0"/><path d="m310.769531 139.664062-5.375-3.101562v6.203125zm0 0"/><path d="m310.769531 133.457031-5.375-3.101562v6.207031zm0 0"/><path d="m310.769531 127.253906-5.375-3.101562v6.203125zm0 0"/><path d="m310.769531 121.046875-5.375-3.101563v6.207032zm0 0"/><path d="m310.769531 114.84375-5.375-3.105469v6.207031zm0 0"/><path d="m176.417969 37.273438-5.375-3.101563v6.203125zm0 0"/><path d="m171.042969 40.375-5.375-3.101562v6.207031zm0 0"/><path d="m165.667969 43.480469-5.371094-3.105469v6.207031zm0 0"/><path d="m160.296875 46.582031-5.375-3.101562v6.203125zm0 0"/><path d="m154.921875 49.683594-5.375-3.101563v6.207031zm0 0"/><path d="m149.546875 52.789062-5.375-3.105468v6.207031zm0 0"/><path d="m138.796875 58.992188-5.371094-3.101563v6.207031zm0 0"/><path d="m101.179688 80.710938-5.375-3.101563v6.207031zm0 0"/><path d="m90.433594 86.917969-5.375-3.101563v6.203125zm0 0"/><path d="m85.058594 90.019531-5.375-3.101562v6.207031zm0 0"/><path d="m79.683594 93.125-5.375-3.105469v6.207031zm0 0"/><path d="m74.308594 96.226562-5.375-3.101562v6.203125zm0 0"/><path d="m68.933594 99.328125-5.371094-3.101563v6.203126zm0 0"/><path d="m63.5625 102.429688-5.375-3.101563v6.207031zm0 0"/><path d="m63.5625 257.570312-5.375-3.105468v6.207031zm0 0"/><path d="m68.933594 260.671875-5.371094-3.101563v6.203126zm0 0"/><path d="m74.308594 263.773438-5.375-3.101563v6.203125zm0 0"/><path d="m79.683594 266.875-5.375-3.101562v6.207031zm0 0"/><path d="m85.058594 269.980469-5.375-3.105469v6.207031zm0 0"/><path d="m90.433594 273.082031-5.375-3.101562v6.203125zm0 0"/><path d="m101.179688 279.289062-5.375-3.105468v6.207031zm0 0"/><path d="m138.796875 301.007812-5.371094-3.105468v6.207031zm0 0"/><path d="m149.546875 307.210938-5.375-3.101563v6.207031zm0 0"/><path d="m154.921875 310.316406-5.375-3.105468v6.207031zm0 0"/><path d="m160.296875 313.417969-5.375-3.101563v6.203125zm0 0"/><path d="m165.667969 316.519531-5.371094-3.101562v6.207031zm0 0"/><path d="m171.042969 319.625-5.375-3.105469v6.207031zm0 0"/><path d="m176.417969 322.726562-5.375-3.101562v6.203125zm0 0"/><path d="m316.144531 254.464844-5.375-3.101563v6.207031zm0 0"/><path d="m316.144531 204.820312-5.375-3.101562v6.207031zm0 0"/><path d="m316.144531 155.179688-5.375-3.105469v6.207031zm0 0"/><path d="m316.144531 105.535156-5.375-3.105468v6.207031zm0 0"/><path d="m310.769531 102.429688-5.375-3.101563v6.207031zm0 0"/><path d="m273.152344 80.710938-5.375-3.101563v6.207031zm0 0"/><path d="m267.777344 77.609375-5.375-3.101563v6.203126zm0 0"/><path d="m230.160156 55.890625-5.375-3.101563v6.203126zm0 0"/><path d="m224.785156 52.789062-5.375-3.105468v6.207031zm0 0"/><path d="m187.164062 31.070312-5.371093-3.105468v6.207031zm0 0"/><path d="m181.792969 27.964844-5.375-3.101563v6.207031zm0 0"/><path d="m138.796875 52.789062-5.371094-3.105468v6.207031zm0 0"/><path d="m95.804688 77.609375-5.371094-3.101563v6.203126zm0 0"/><path d="m52.8125 102.429688-5.375-3.101563v6.207031zm0 0"/><path d="m52.8125 108.636719-5.375-3.101563v6.203125zm0 0"/><path d="m52.8125 152.074219-5.375-3.101563v6.207032zm0 0"/><path d="m52.8125 158.28125-5.375-3.101562v6.203124zm0 0"/><path d="m52.8125 201.71875-5.375-3.101562v6.203124zm0 0"/><path d="m52.8125 207.925781-5.375-3.105469v6.207032zm0 0"/><path d="m52.8125 251.363281-5.375-3.101562v6.203125zm0 0"/><path d="m52.8125 257.570312-5.375-3.105468v6.207031zm0 0"/><path d="m95.804688 282.390625-5.371094-3.101563v6.203126zm0 0"/><path d="m138.796875 307.210938-5.371094-3.101563v6.207031zm0 0"/><path d="m181.792969 332.035156-5.375-3.105468v6.207031zm0 0"/><path d="m187.164062 328.929688-5.371093-3.101563v6.207031zm0 0"/><path d="m224.785156 307.210938-5.375-3.101563v6.207031zm0 0"/><path d="m230.160156 304.109375-5.375-3.101563v6.203126zm0 0"/><path d="m267.777344 282.390625-5.375-3.101563v6.203126zm0 0"/><path d="m273.152344 279.289062-5.375-3.105468v6.207031zm0 0"/><path d="m310.769531 257.570312-5.375-3.105468v6.207031zm0 0"/></g></svg>