<svg height="360pt" viewBox="0 0 360 360" width="360pt" xmlns="http://www.w3.org/2000/svg"><path d="m0 0h360v360h-360z" fill="#fff"/><g fill="#800080"><path d="m175.386719 180 6.921875-3.996094v7.992188zm0 0"/><path d="m182.308594 176.003906 6.921875-3.996094v7.992188zm0 0"/><path d="m175.386719 172.007812 6.921875-3.996093v7.992187zm0 0"/><path d="m168.464844 176.003906 6.921875-3.996094v7.992188zm0 0"/><path d="m175.386719 187.992188 6.921875-3.996094v7.992187zm0 0"/><path d="m189.230469 172.007812 6.921875-3.996093v7.992187zm0 0"/><path d="m175.386719 164.015625 6.921875-3.996094v7.992188zm0 0"/><path d="m168.464844 168.011719 6.921875-3.996094v7.992187zm0 0"/><path d="m161.542969 180 6.921875-3.996094v7.992188zm0 0"/><path d="m168.464844 191.988281 6.921875-3.996093v7.992187zm0 0"/><path d="m175.386719 195.984375 6.921875-3.996094v7.992188zm0 0"/><path d="m182.308594 191.988281 6.921875-3.996093v7.992187zm0 0"/><path d="m196.152344 183.996094 6.921875-3.996094v7.992188zm0 0"/><path d="m182.308594 160.019531 6.921875-3.996093v7.992187zm0 0"/><path d="m175.386719 156.023438 6.921875-4v7.996093zm0 0"/><path d="m161.542969 164.015625 6.921875-3.996094v7.992188zm0 0"/><path d="m154.621094 183.996094 6.921875-3.996094v7.992188zm0 0"/><path d="m175.386719 203.976562 6.921875-3.996093v7.996093zm0 0"/><path d="m203.074219 195.984375 6.921875-3.996094v7.992188zm0 0"/><path d="m203.074219 187.992188 6.921875-3.996094v7.992187zm0 0"/><path d="m203.074219 172.007812 6.921875-3.996093v7.992187zm0 0"/><path d="m196.152344 160.019531 6.921875-3.996093v7.992187zm0 0"/><path d="m189.230469 156.023438 6.921875-4v7.996093zm0 0"/><path d="m182.308594 152.023438 6.921875-3.996094v7.996094zm0 0"/><path d="m175.386719 148.027344 6.921875-3.996094v7.992188zm0 0"/><path d="m168.464844 152.023438 6.921875-3.996094v7.996094zm0 0"/><path d="m161.542969 156.023438 6.921875-4v7.996093zm0 0"/><path d="m154.621094 160.019531 6.921875-3.996093v7.992187zm0 0"/><path d="m147.699219 180 6.921875-3.996094v7.992188zm0 0"/><path d="m154.621094 199.980469 6.921875-3.996094v7.992187zm0 0"/><path d="m175.386719 211.972656 6.921875-3.996094v7.992188zm0 0"/><path d="m196.152344 199.980469 6.921875-3.996094v7.992187zm0 0"/><path d="m209.996094 199.980469 6.921875-3.996094v7.992187zm0 0"/><path d="m209.996094 176.003906 6.921875-3.996094v7.992188zm0 0"/><path d="m209.996094 168.011719 6.921875-3.996094v7.992187zm0 0"/><path d="m209.996094 160.019531 6.921875-3.996093v7.992187zm0 0"/><path d="m175.386719 140.035156 6.921875-3.996094v7.992188zm0 0"/><path d="m168.464844 144.03125 6.921875-3.996094v7.992188zm0 0"/><path d="m161.542969 148.027344 6.921875-3.996094v7.992188zm0 0"/><path d="m154.621094 152.023438 6.921875-3.996094v7.996094zm0 0"/><path d="m140.777344 168.011719 6.921875-3.996094v7.992187zm0 0"/><path d="m140.777344 183.996094 6.921875-3.996094v7.992188zm0 0"/><path d="m140.777344 191.988281 6.921875-3.996093v7.992187zm0 0"/><path d="m161.542969 211.972656 6.921875-3.996094v7.992188zm0 0"/><path d="m168.464844 215.96875 6.921875-3.996094v7.992188zm0 0"/><path d="m196.152344 207.976562 6.921875-4v7.996094zm0 0"/><path d="m203.074219 203.976562 6.921875-3.996093v7.996093zm0 0"/><path d="m216.917969 203.976562 6.921875-3.996093v7.996093zm0 0"/><path d="m216.917969 180 6.921875-3.996094v7.992188zm0 0"/><path d="m216.917969 172.007812 6.921875-3.996093v7.992187zm0 0"/><path d="m216.917969 156.023438 6.921875-4v7.996093zm0 0"/><path d="m196.152344 144.03125 6.921875-3.996094v7.992188zm0 0"/><path d="m182.308594 136.039062 6.921875-3.996093v7.992187zm0 0"/><path d="m168.464844 136.039062 6.921875-3.996093v7.992187zm0 0"/><path d="m161.542969 140.035156 6.921875-3.996094v7.992188zm0 0"/><path d="m154.621094 144.03125 6.921875-3.996094v7.992188zm0 0"/><path d="m147.699219 148.027344 6.921875-3.996094v7.992188zm0 0"/><path d="m140.777344 152.023438 6.921875-3.996094v7.996094zm0 0"/><path d="m133.855469 156.023438 6.921875-4v7.996093zm0 0"/><path d="m133.855469 164.015625 6.921875-3.996094v7.992188zm0 0"/><path d="m133.855469 172.007812 6.921875-3.996093v7.992187zm0 0"/><path d="m133.855469 180 6.921875-3.996094v7.992188zm0 0"/><path d="m133.855469 195.984375 6.921875-3.996094v7.992188zm0 0"/><path d="m140.777344 207.976562 6.921875-4v7.996094zm0 0"/><path d="m154.621094 215.96875 6.921875-3.996094v7.992188zm0 0"/><path d="m161.542969 219.964844 6.921875-3.996094v7.992188zm0 0"/><path d="m189.230469 219.964844 6.921875-3.996094v7.992188zm0 0"/><path d="m196.152344 215.96875 6.921875-3.996094v7.992188zm0 0"/><path d="m203.074219 211.972656 6.921875-3.996094v7.992188zm0 0"/><path d="m209.996094 207.976562 6.921875-4v7.996094zm0 0"/><path d="m223.839844 207.976562 6.921875-4v7.996094zm0 0"/><path d="m223.839844 199.980469 6.921875-3.996094v7.992187zm0 0"/><path d="m223.839844 183.996094 6.921875-3.996094v7.992188zm0 0"/><path d="m223.839844 176.003906 6.921875-3.996094v7.992188zm0 0"/><path d="m203.074219 140.035156 6.921875-3.996094v7.992188zm0 0"/><path d="m196.152344 136.039062 6.921875-3.996093v7.992187zm0 0"/><path d="m175.386719 124.050781 6.921875-3.996093v7.992187zm0 0"/><path d="m161.542969 132.042969 6.921875-3.996094v7.992187zm0 0"/><path d="m147.699219 140.035156 6.921875-3.996094v7.992188zm0 0"/><path d="m140.777344 144.03125 6.921875-3.996094v7.992188zm0 0"/><path d="m126.929688 152.023438 6.925781-3.996094v7.996094zm0 0"/><path d="m126.929688 160.019531 6.925781-3.996093v7.992187zm0 0"/><path d="m126.929688 168.011719 6.925781-3.996094v7.992187zm0 0"/><path d="m126.929688 176.003906 6.925781-3.996094v7.992188zm0 0"/><path d="m126.929688 191.988281 6.925781-3.996093v7.992187zm0 0"/><path d="m126.929688 199.980469 6.925781-3.996094v7.992187zm0 0"/><path d="m126.929688 207.976562 6.925781-4v7.996094zm0 0"/><path d="m133.855469 211.972656 6.921875-3.996094v7.992188zm0 0"/><path d="m140.777344 215.96875 6.921875-3.996094v7.992188zm0 0"/><path d="m161.542969 227.957031 6.921875-3.996093v7.992187zm0 0"/><path d="m168.464844 231.953125 6.921875-3.996094v7.992188zm0 0"/><path d="m175.386719 235.949219 6.921875-3.996094v7.992187zm0 0"/><path d="m209.996094 215.96875 6.921875-3.996094v7.992188zm0 0"/><path d="m216.917969 211.972656 6.921875-3.996094v7.992188zm0 0"/><path d="m230.761719 211.972656 6.921875-3.996094v7.992188zm0 0"/><path d="m230.761719 195.984375 6.921875-3.996094v7.992188zm0 0"/><path d="m230.761719 187.992188 6.921875-3.996094v7.992187zm0 0"/><path d="m230.761719 180 6.921875-3.996094v7.992188zm0 0"/><path d="m230.761719 172.007812 6.921875-3.996093v7.992187zm0 0"/><path d="m230.761719 164.015625 6.921875-3.996094v7.992188zm0 0"/><path d="m223.839844 144.03125 6.921875-3.996094v7.992188zm0 0"/><path d="m216.917969 140.035156 6.921875-3.996094v7.992188zm0 0"/><path d="m209.996094 136.039062 6.921875-3.996093v7.992187zm0 0"/><path d="m203.074219 132.042969 6.921875-3.996094v7.992187zm0 0"/><path d="m189.230469 124.050781 6.921875-3.996093v7.992187zm0 0"/><path d="m161.542969 124.050781 6.921875-3.996093v7.992187zm0 0"/><path d="m147.699219 132.042969 6.921875-3.996094v7.992187zm0 0"/><path d="m133.855469 140.035156 6.921875-3.996094v7.992188zm0 0"/><path d="m120.007812 148.027344 6.921876-3.996094v7.992188zm0 0"/><path d="m120.007812 156.023438 6.921876-4v7.996093zm0 0"/><path d="m120.007812 164.015625 6.921876-3.996094v7.992188zm0 0"/><path d="m120.007812 180 6.921876-3.996094v7.992188zm0 0"/><path d="m120.007812 211.972656 6.921876-3.996094v7.992188zm0 0"/><path d="m133.855469 219.964844 6.921875-3.996094v7.992188zm0 0"/><path d="m140.777344 223.960938 6.921875-3.996094v7.992187zm0 0"/><path d="m147.699219 227.957031 6.921875-3.996093v7.992187zm0 0"/><path d="m175.386719 243.941406 6.921875-3.996094v7.992188zm0 0"/><path d="m182.308594 239.945312 6.921875-3.996093v7.992187zm0 0"/><path d="m216.917969 219.964844 6.921875-3.996094v7.992188zm0 0"/><path d="m223.839844 215.96875 6.921875-3.996094v7.992188zm0 0"/><path d="m237.683594 207.976562 6.921875-4v7.996094zm0 0"/><path d="m237.683594 176.003906 6.921875-3.996094v7.992188zm0 0"/><path d="m237.683594 168.011719 6.921875-3.996094v7.992187zm0 0"/><path d="m237.683594 152.023438 6.921875-3.996094v7.996094zm0 0"/><path d="m237.683594 144.03125 6.921875-3.996094v7.992188zm0 0"/><path d="m230.761719 140.035156 6.921875-3.996094v7.992188zm0 0"/><path d="m223.839844 136.039062 6.921875-3.996093v7.992187zm0 0"/><path d="m203.074219 124.050781 6.921875-3.996093v7.992187zm0 0"/><path d="m196.152344 120.054688 6.921875-3.996094v7.992187zm0 0"/><path d="m189.230469 116.058594 6.921875-3.996094v7.992188zm0 0"/><path d="m175.386719 108.066406 6.921875-3.996094v7.992188zm0 0"/><path d="m168.464844 112.0625 6.921875-3.996094v7.992188zm0 0"/><path d="m161.542969 116.058594 6.921875-3.996094v7.992188zm0 0"/><path d="m154.621094 120.054688 6.921875-3.996094v7.992187zm0 0"/><path d="m147.699219 124.050781 6.921875-3.996093v7.992187zm0 0"/><path d="m126.929688 136.039062 6.925781-3.996093v7.992187zm0 0"/><path d="m120.007812 140.035156 6.921876-3.996094v7.992188zm0 0"/><path d="m113.085938 160.019531 6.921874-3.996093v7.992187zm0 0"/><path d="m113.085938 168.011719 6.921874-3.996094v7.992187zm0 0"/><path d="m113.085938 176.003906 6.921874-3.996094v7.992188zm0 0"/><path d="m113.085938 183.996094 6.921874-3.996094v7.992188zm0 0"/><path d="m113.085938 191.988281 6.921874-3.996093v7.992187zm0 0"/><path d="m133.855469 227.957031 6.921875-3.996093v7.992187zm0 0"/><path d="m154.621094 239.945312 6.921875-3.996093v7.992187zm0 0"/><path d="m161.542969 243.941406 6.921875-3.996094v7.992188zm0 0"/><path d="m168.464844 247.9375 6.921875-3.996094v7.992188zm0 0"/><path d="m196.152344 239.945312 6.921875-3.996093v7.992187zm0 0"/><path d="m216.917969 227.957031 6.921875-3.996093v7.992187zm0 0"/><path d="m223.839844 223.960938 6.921875-3.996094v7.992187zm0 0"/><path d="m244.605469 219.964844 6.921875-3.996094v7.992188zm0 0"/><path d="m244.605469 211.972656 6.921875-3.996094v7.992188zm0 0"/><path d="m244.605469 203.976562 6.921875-3.996093v7.996093zm0 0"/><path d="m244.605469 180 6.921875-3.996094v7.992188zm0 0"/><path d="m244.605469 172.007812 6.921875-3.996093v7.992187zm0 0"/><path d="m244.605469 156.023438 6.921875-4v7.996093zm0 0"/><path d="m244.605469 148.027344 6.921875-3.996094v7.992188zm0 0"/><path d="m223.839844 128.046875 6.921875-3.996094v7.992188zm0 0"/><path d="m209.996094 120.054688 6.921875-3.996094v7.992187zm0 0"/><path d="m203.074219 116.058594 6.921875-3.996094v7.992188zm0 0"/><path d="m196.152344 112.0625 6.921875-3.996094v7.992188zm0 0"/><path d="m168.464844 104.070312 6.921875-4v7.996094zm0 0"/><path d="m161.542969 108.066406 6.921875-3.996094v7.992188zm0 0"/><path d="m147.699219 116.058594 6.921875-3.996094v7.992188zm0 0"/><path d="m120.007812 132.042969 6.921876-3.996094v7.992187zm0 0"/><path d="m106.164062 164.015625 6.921876-3.996094v7.992188zm0 0"/><path d="m106.164062 180 6.921876-3.996094v7.992188zm0 0"/><path d="m106.164062 187.992188 6.921876-3.996094v7.992187zm0 0"/><path d="m106.164062 195.984375 6.921876-3.996094v7.992188zm0 0"/><path d="m106.164062 203.976562 6.921876-3.996093v7.996093zm0 0"/><path d="m106.164062 211.972656 6.921876-3.996094v7.992188zm0 0"/><path d="m113.085938 223.960938 6.921874-3.996094v7.992187zm0 0"/><path d="m120.007812 227.957031 6.921876-3.996093v7.992187zm0 0"/><path d="m133.855469 235.949219 6.921875-3.996094v7.992187zm0 0"/><path d="m161.542969 251.933594 6.921875-3.996094v7.992188zm0 0"/><path d="m168.464844 255.929688 6.921875-3.996094v7.996094zm0 0"/><path d="m175.386719 259.929688 6.921875-4v7.996093zm0 0"/><path d="m237.683594 223.960938 6.921875-3.996094v7.992187zm0 0"/><path d="m251.527344 223.960938 6.921875-3.996094v7.992187zm0 0"/><path d="m251.527344 215.96875 6.921875-3.996094v7.992188zm0 0"/><path d="m251.527344 207.976562 6.921875-4v7.996094zm0 0"/><path d="m251.527344 191.988281 6.921875-3.996093v7.992187zm0 0"/><path d="m251.527344 183.996094 6.921875-3.996094v7.992188zm0 0"/><path d="m251.527344 176.003906 6.921875-3.996094v7.992188zm0 0"/><path d="m251.527344 168.011719 6.921875-3.996094v7.992187zm0 0"/><path d="m251.527344 160.019531 6.921875-3.996093v7.992187zm0 0"/><path d="m251.527344 152.023438 6.921875-3.996094v7.996094zm0 0"/><path d="m251.527344 144.03125 6.921875-3.996094v7.992188zm0 0"/><path d="m251.527344 136.039062 6.921875-3.996093v7.992187zm0 0"/><path d="m244.605469 132.042969 6.921875-3.996094v7.992187zm0 0"/><path d="m230.761719 124.050781 6.921875-3.996093v7.992187zm0 0"/><path d="m223.839844 120.054688 6.921875-3.996094v7.992187zm0 0"/><path d="m216.917969 116.058594 6.921875-3.996094v7.992188zm0 0"/><path d="m203.074219 108.066406 6.921875-3.996094v7.992188zm0 0"/><path d="m189.230469 100.070312 6.921875-3.996093v7.996093zm0 0"/><path d="m175.386719 92.078125 6.921875-3.996094v7.992188zm0 0"/><path d="m168.464844 96.074219 6.921875-3.996094v7.992187zm0 0"/><path d="m154.621094 104.070312 6.921875-4v7.996094zm0 0"/><path d="m147.699219 108.066406 6.921875-3.996094v7.992188zm0 0"/><path d="m140.777344 112.0625 6.921875-3.996094v7.992188zm0 0"/><path d="m133.855469 116.058594 6.921875-3.996094v7.992188zm0 0"/><path d="m120.007812 124.050781 6.921876-3.996093v7.992187zm0 0"/><path d="m106.164062 132.042969 6.921876-3.996094v7.992187zm0 0"/><path d="m99.242188 144.03125 6.921874-3.996094v7.992188zm0 0"/><path d="m99.242188 160.019531 6.921874-3.996093v7.992187zm0 0"/><path d="m99.242188 168.011719 6.921874-3.996094v7.992187zm0 0"/><path d="m99.242188 176.003906 6.921874-3.996094v7.992188zm0 0"/><path d="m99.242188 207.976562 6.921874-4v7.996094zm0 0"/><path d="m99.242188 215.96875 6.921874-3.996094v7.992188zm0 0"/><path d="m106.164062 227.957031 6.921876-3.996093v7.992187zm0 0"/><path d="m113.085938 231.953125 6.921874-3.996094v7.992188zm0 0"/><path d="m126.929688 239.945312 6.925781-3.996093v7.992187zm0 0"/><path d="m154.621094 255.929688 6.921875-3.996094v7.996094zm0 0"/><path d="m161.542969 259.929688 6.921875-4v7.996093zm0 0"/><path d="m203.074219 251.933594 6.921875-3.996094v7.992188zm0 0"/><path d="m216.917969 243.941406 6.921875-3.996094v7.992188zm0 0"/><path d="m223.839844 239.945312 6.921875-3.996093v7.992187zm0 0"/><path d="m237.683594 231.953125 6.921875-3.996094v7.992188zm0 0"/><path d="m258.449219 227.957031 6.921875-3.996093v7.992187zm0 0"/><path d="m258.449219 195.984375 6.921875-3.996094v7.992188zm0 0"/><path d="m258.449219 187.992188 6.921875-3.996094v7.992187zm0 0"/><path d="m258.449219 180 6.921875-3.996094v7.992188zm0 0"/><path d="m258.449219 164.015625 6.921875-3.996094v7.992188zm0 0"/><path d="m258.449219 156.023438 6.921875-4v7.996093zm0 0"/><path d="m258.449219 140.035156 6.921875-3.996094v7.992188zm0 0"/><path d="m258.449219 132.042969 6.921875-3.996094v7.992187zm0 0"/><path d="m251.527344 128.046875 6.921875-3.996094v7.992188zm0 0"/><path d="m237.683594 120.054688 6.921875-3.996094v7.992187zm0 0"/><path d="m223.839844 112.0625 6.921875-3.996094v7.992188zm0 0"/><path d="m216.917969 108.066406 6.921875-3.996094v7.992188zm0 0"/><path d="m203.074219 100.070312 6.921875-3.996093v7.996093zm0 0"/><path d="m189.230469 92.078125 6.921875-3.996094v7.992188zm0 0"/><path d="m175.386719 84.085938 6.921875-3.996094v7.992187zm0 0"/><path d="m168.464844 88.082031 6.921875-3.996093v7.992187zm0 0"/><path d="m161.542969 92.078125 6.921875-3.996094v7.992188zm0 0"/><path d="m133.855469 108.066406 6.921875-3.996094v7.992188zm0 0"/><path d="m126.929688 112.0625 6.925781-3.996094v7.992188zm0 0"/><path d="m113.085938 120.054688 6.921874-3.996094v7.992187zm0 0"/><path d="m92.320312 132.042969 6.921876-3.996094v7.992187zm0 0"/><path d="m92.320312 140.035156 6.921876-3.996094v7.992188zm0 0"/><path d="m92.320312 148.027344 6.921876-3.996094v7.992188zm0 0"/><path d="m92.320312 156.023438 6.921876-4v7.996093zm0 0"/><path d="m92.320312 164.015625 6.921876-3.996094v7.992188zm0 0"/><path d="m92.320312 172.007812 6.921876-3.996093v7.992187zm0 0"/><path d="m92.320312 195.984375 6.921876-3.996094v7.992188zm0 0"/><path d="m92.320312 203.976562 6.921876-3.996093v7.996093zm0 0"/><path d="m99.242188 231.953125 6.921874-3.996094v7.992188zm0 0"/><path d="m113.085938 239.945312 6.921874-3.996093v7.992187zm0 0"/><path d="m120.007812 243.941406 6.921876-3.996094v7.992188zm0 0"/><path d="m126.929688 247.9375 6.925781-3.996094v7.992188zm0 0"/><path d="m147.699219 259.929688 6.921875-4v7.996093zm0 0"/><path d="m203.074219 259.929688 6.921875-4v7.996093zm0 0"/><path d="m216.917969 251.933594 6.921875-3.996094v7.992188zm0 0"/><path d="m223.839844 247.9375 6.921875-3.996094v7.992188zm0 0"/><path d="m230.761719 243.941406 6.921875-3.996094v7.992188zm0 0"/><path d="m237.683594 239.945312 6.921875-3.996093v7.992187zm0 0"/><path d="m244.605469 235.949219 6.921875-3.996094v7.992187zm0 0"/><path d="m251.527344 231.953125 6.921875-3.996094v7.992188zm0 0"/><path d="m265.371094 223.960938 6.921875-3.996094v7.992187zm0 0"/><path d="m265.371094 215.96875 6.921875-3.996094v7.992188zm0 0"/><path d="m265.371094 207.976562 6.921875-4v7.996094zm0 0"/><path d="m265.371094 199.980469 6.921875-3.996094v7.992187zm0 0"/><path d="m265.371094 191.988281 6.921875-3.996093v7.992187zm0 0"/><path d="m265.371094 176.003906 6.921875-3.996094v7.992188zm0 0"/><path d="m265.371094 160.019531 6.921875-3.996093v7.992187zm0 0"/><path d="m265.371094 152.023438 6.921875-3.996094v7.996094zm0 0"/><path d="m265.371094 144.03125 6.921875-3.996094v7.992188zm0 0"/><path d="m265.371094 136.039062 6.921875-3.996093v7.992187zm0 0"/><path d="m265.371094 128.046875 6.921875-3.996094v7.992188zm0 0"/><path d="m258.449219 124.050781 6.921875-3.996093v7.992187zm0 0"/><path d="m251.527344 120.054688 6.921875-3.996094v7.992187zm0 0"/><path d="m237.683594 112.0625 6.921875-3.996094v7.992188zm0 0"/><path d="m223.839844 104.070312 6.921875-4v7.996094zm0 0"/><path d="m216.917969 100.070312 6.921875-3.996093v7.996093zm0 0"/><path d="m203.074219 92.078125 6.921875-3.996094v7.992188zm0 0"/><path d="m182.308594 80.089844 6.921875-3.996094v7.992188zm0 0"/><path d="m175.386719 76.09375 6.921875-3.996094v7.992188zm0 0"/><path d="m113.085938 112.0625 6.921874-3.996094v7.992188zm0 0"/><path d="m92.320312 124.050781 6.921876-3.996093v7.992187zm0 0"/><path d="m85.398438 136.039062 6.921874-3.996093v7.992187zm0 0"/><path d="m85.398438 144.03125 6.921874-3.996094v7.992188zm0 0"/><path d="m85.398438 152.023438 6.921874-3.996094v7.996094zm0 0"/><path d="m85.398438 168.011719 6.921874-3.996094v7.992187zm0 0"/><path d="m85.398438 176.003906 6.921874-3.996094v7.992188zm0 0"/><path d="m85.398438 183.996094 6.921874-3.996094v7.992188zm0 0"/><path d="m85.398438 231.953125 6.921874-3.996094v7.992188zm0 0"/><path d="m113.085938 247.9375 6.921874-3.996094v7.992188zm0 0"/><path d="m120.007812 251.933594 6.921876-3.996094v7.992188zm0 0"/><path d="m126.929688 255.929688 6.925781-3.996094v7.996094zm0 0"/><path d="m147.699219 267.921875 6.921875-3.996094v7.992188zm0 0"/><path d="m154.621094 271.917969 6.921875-3.996094v7.992187zm0 0"/><path d="m196.152344 271.917969 6.921875-3.996094v7.992187zm0 0"/><path d="m203.074219 267.921875 6.921875-3.996094v7.992188zm0 0"/><path d="m209.996094 263.925781 6.921875-3.996093v7.992187zm0 0"/><path d="m216.917969 259.929688 6.921875-4v7.996093zm0 0"/><path d="m223.839844 255.929688 6.921875-3.996094v7.996094zm0 0"/><path d="m230.761719 251.933594 6.921875-3.996094v7.992188zm0 0"/><path d="m244.605469 243.941406 6.921875-3.996094v7.992188zm0 0"/><path d="m251.527344 239.945312 6.921875-3.996093v7.992187zm0 0"/><path d="m258.449219 235.949219 6.921875-3.996094v7.992187zm0 0"/><path d="m272.292969 235.949219 6.921875-3.996094v7.992187zm0 0"/><path d="m272.292969 219.964844 6.921875-3.996094v7.992188zm0 0"/><path d="m272.292969 211.972656 6.921875-3.996094v7.992188zm0 0"/><path d="m272.292969 203.976562 6.921875-3.996093v7.996093zm0 0"/><path d="m272.292969 187.992188 6.921875-3.996094v7.992187zm0 0"/><path d="m272.292969 180 6.921875-3.996094v7.992188zm0 0"/><path d="m272.292969 164.015625 6.921875-3.996094v7.992188zm0 0"/><path d="m272.292969 156.023438 6.921875-4v7.996093zm0 0"/><path d="m272.292969 148.027344 6.921875-3.996094v7.992188zm0 0"/><path d="m272.292969 140.035156 6.921875-3.996094v7.992188zm0 0"/><path d="m258.449219 116.058594 6.921875-3.996094v7.992188zm0 0"/><path d="m251.527344 112.0625 6.921875-3.996094v7.992188zm0 0"/><path d="m244.605469 108.066406 6.921875-3.996094v7.992188zm0 0"/><path d="m230.761719 100.070312 6.921875-3.996093v7.996093zm0 0"/><path d="m223.839844 96.074219 6.921875-3.996094v7.992187zm0 0"/><path d="m189.230469 76.09375 6.921875-3.996094v7.992188zm0 0"/><path d="m168.464844 72.097656 6.921875-3.996094v7.992188zm0 0"/><path d="m154.621094 80.089844 6.921875-3.996094v7.992188zm0 0"/><path d="m140.777344 88.082031 6.921875-3.996093v7.992187zm0 0"/><path d="m133.855469 92.078125 6.921875-3.996094v7.992188zm0 0"/><path d="m126.929688 96.074219 6.925781-3.996094v7.992187zm0 0"/><path d="m113.085938 104.070312 6.921874-4v7.996094zm0 0"/><path d="m92.320312 116.058594 6.921876-3.996094v7.992188zm0 0"/><path d="m78.476562 227.957031 6.921876-3.996093v7.992187zm0 0"/><path d="m78.476562 235.949219 6.921876-3.996094v7.992187zm0 0"/><path d="m85.398438 239.945312 6.921874-3.996093v7.992187zm0 0"/><path d="m133.855469 267.921875 6.921875-3.996094v7.992188zm0 0"/><path d="m140.777344 271.917969 6.921875-3.996094v7.992187zm0 0"/><path d="m203.074219 275.914062 6.921875-3.996093v7.992187zm0 0"/><path d="m209.996094 271.917969 6.921875-3.996094v7.992187zm0 0"/><path d="m216.917969 267.921875 6.921875-3.996094v7.992188zm0 0"/><path d="m223.839844 263.925781 6.921875-3.996093v7.992187zm0 0"/><path d="m230.761719 259.929688 6.921875-4v7.996093zm0 0"/><path d="m237.683594 255.929688 6.921875-3.996094v7.996094zm0 0"/><path d="m251.527344 247.9375 6.921875-3.996094v7.992188zm0 0"/><path d="m258.449219 243.941406 6.921875-3.996094v7.992188zm0 0"/><path d="m279.214844 215.96875 6.921875-3.996094v7.992188zm0 0"/><path d="m279.214844 191.988281 6.921875-3.996093v7.992187zm0 0"/><path d="m279.214844 176.003906 6.921875-3.996094v7.992188zm0 0"/><path d="m279.214844 168.011719 6.921875-3.996094v7.992187zm0 0"/><path d="m279.214844 160.019531 6.921875-3.996093v7.992187zm0 0"/><path d="m279.214844 144.03125 6.921875-3.996094v7.992188zm0 0"/><path d="m272.292969 116.058594 6.921875-3.996094v7.992188zm0 0"/><path d="m251.527344 104.070312 6.921875-4v7.996094zm0 0"/><path d="m244.605469 100.070312 6.921875-3.996093v7.996093zm0 0"/><path d="m237.683594 96.074219 6.921875-3.996094v7.992187zm0 0"/><path d="m196.152344 72.097656 6.921875-3.996094v7.992188zm0 0"/><path d="m189.230469 68.101562 6.921875-3.996093v7.992187zm0 0"/><path d="m182.308594 64.105469 6.921875-3.996094v7.992187zm0 0"/><path d="m175.386719 60.109375 6.921875-3.996094v7.992188zm0 0"/><path d="m161.542969 68.101562 6.921875-3.996093v7.992187zm0 0"/><path d="m154.621094 72.097656 6.921875-3.996094v7.992188zm0 0"/><path d="m147.699219 76.09375 6.921875-3.996094v7.992188zm0 0"/><path d="m140.777344 80.089844 6.921875-3.996094v7.992188zm0 0"/><path d="m133.855469 84.085938 6.921875-3.996094v7.992187zm0 0"/><path d="m126.929688 88.082031 6.925781-3.996093v7.992187zm0 0"/><path d="m120.007812 92.078125 6.921876-3.996094v7.992188zm0 0"/><path d="m113.085938 96.074219 6.921874-3.996094v7.992187zm0 0"/><path d="m99.242188 104.070312 6.921874-4v7.996094zm0 0"/><path d="m92.320312 108.066406 6.921876-3.996094v7.992188zm0 0"/><path d="m71.554688 199.980469 6.921874-3.996094v7.992187zm0 0"/><path d="m92.320312 251.933594 6.921876-3.996094v7.992188zm0 0"/><path d="m113.085938 263.925781 6.921874-3.996093v7.992187zm0 0"/><path d="m209.996094 279.910156 6.921875-3.996094v7.992188zm0 0"/><path d="m223.839844 271.917969 6.921875-3.996094v7.992187zm0 0"/><path d="m230.761719 267.921875 6.921875-3.996094v7.992188zm0 0"/><path d="m237.683594 263.925781 6.921875-3.996093v7.992187zm0 0"/><path d="m244.605469 259.929688 6.921875-4v7.996093zm0 0"/><path d="m251.527344 255.929688 6.921875-3.996094v7.996094zm0 0"/><path d="m258.449219 251.933594 6.921875-3.996094v7.992188zm0 0"/><path d="m265.371094 247.9375 6.921875-3.996094v7.992188zm0 0"/><path d="m272.292969 243.941406 6.921875-3.996094v7.992188zm0 0"/><path d="m286.136719 243.941406 6.921875-3.996094v7.992188zm0 0"/><path d="m286.136719 235.949219 6.921875-3.996094v7.992187zm0 0"/><path d="m286.136719 211.972656 6.921875-3.996094v7.992188zm0 0"/><path d="m286.136719 203.976562 6.921875-3.996093v7.996093zm0 0"/><path d="m286.136719 187.992188 6.921875-3.996094v7.992187zm0 0"/><path d="m286.136719 164.015625 6.921875-3.996094v7.992188zm0 0"/><path d="m286.136719 148.027344 6.921875-3.996094v7.992188zm0 0"/><path d="m286.136719 140.035156 6.921875-3.996094v7.992188zm0 0"/><path d="m265.371094 104.070312 6.921875-4v7.996094zm0 0"/><path d="m258.449219 100.070312 6.921875-3.996093v7.996093zm0 0"/><path d="m244.605469 92.078125 6.921875-3.996094v7.992188zm0 0"/><path d="m237.683594 88.082031 6.921875-3.996093v7.992187zm0 0"/><path d="m182.308594 56.113281 6.921875-4v7.996094zm0 0"/><path d="m168.464844 56.113281 6.921875-4v7.996094zm0 0"/><path d="m161.542969 60.109375 6.921875-3.996094v7.992188zm0 0"/><path d="m154.621094 64.105469 6.921875-3.996094v7.992187zm0 0"/><path d="m140.777344 72.097656 6.921875-3.996094v7.992188zm0 0"/><path d="m126.929688 80.089844 6.925781-3.996094v7.992188zm0 0"/><path d="m120.007812 84.085938 6.921876-3.996094v7.992187zm0 0"/><path d="m113.085938 88.082031 6.921874-3.996093v7.992187zm0 0"/><path d="m106.164062 92.078125 6.921876-3.996094v7.992188zm0 0"/><path d="m216.917969 283.90625 6.921875-3.996094v7.992188zm0 0"/><path d="m237.683594 271.917969 6.921875-3.996094v7.992187zm0 0"/><path d="m244.605469 267.921875 6.921875-3.996094v7.992188zm0 0"/><path d="m293.058594 231.953125 6.921875-3.996094v7.992188zm0 0"/><path d="m293.058594 215.96875 6.921875-3.996094v7.992188zm0 0"/><path d="m293.058594 207.976562 6.921875-4v7.996094zm0 0"/><path d="m293.058594 199.980469 6.921875-3.996094v7.992187zm0 0"/><path d="m293.058594 183.996094 6.921875-3.996094v7.992188zm0 0"/><path d="m293.058594 176.003906 6.921875-3.996094v7.992188zm0 0"/><path d="m293.058594 160.019531 6.921875-3.996093v7.992187zm0 0"/><path d="m161.542969 52.113281 6.921875-3.996093v7.996093zm0 0"/><path d="m154.621094 56.113281 6.921875-4v7.996094zm0 0"/><path d="m140.777344 64.105469 6.921875-3.996094v7.992187zm0 0"/><path d="m230.761719 283.90625 6.921875-3.996094v7.992188zm0 0"/><path d="m237.683594 287.902344 6.921875-3.996094v7.992188zm0 0"/><path d="m244.605469 283.90625 6.921875-3.996094v7.992188zm0 0"/><path d="m182.308594 176.003906-6.921875-3.996094v7.992188zm0 0"/><path d="m196.152344 183.996094-6.921875-3.996094v7.992188zm0 0"/><path d="m196.152344 176.003906-6.921875-3.996094v7.992188zm0 0"/><path d="m189.230469 172.007812-6.921875-3.996093v7.992187zm0 0"/><path d="m182.308594 168.011719-6.921875-3.996094v7.992187zm0 0"/><path d="m175.386719 172.007812-6.921875-3.996093v7.992187zm0 0"/><path d="m175.386719 187.992188-6.921875-3.996094v7.992187zm0 0"/><path d="m182.308594 191.988281-6.921875-3.996093v7.992187zm0 0"/><path d="m189.230469 187.992188-6.921875-3.996094v7.992187zm0 0"/><path d="m203.074219 172.007812-6.921875-3.996093v7.992187zm0 0"/><path d="m182.308594 160.019531-6.921875-3.996093v7.992187zm0 0"/><path d="m175.386719 164.015625-6.921875-3.996094v7.992188zm0 0"/><path d="m168.464844 168.011719-6.921875-3.996094v7.992187zm0 0"/><path d="m168.464844 191.988281-6.921875-3.996093v7.992187zm0 0"/><path d="m175.386719 195.984375-6.921875-3.996094v7.992188zm0 0"/><path d="m182.308594 199.980469-6.921875-3.996094v7.992187zm0 0"/><path d="m189.230469 195.984375-6.921875-3.996094v7.992188zm0 0"/><path d="m209.996094 176.003906-6.921875-3.996094v7.992188zm0 0"/><path d="m196.152344 160.019531-6.921875-3.996093v7.992187zm0 0"/><path d="m182.308594 152.023438-6.921875-3.996094v7.996094zm0 0"/><path d="m161.542969 180-6.921875-3.996094v7.992188zm0 0"/><path d="m161.542969 187.992188-6.921875-3.996094v7.992187zm0 0"/><path d="m161.542969 195.984375-6.921875-3.996094v7.992188zm0 0"/><path d="m175.386719 203.976562-6.921875-3.996093v7.996093zm0 0"/><path d="m216.917969 195.984375-6.921875-3.996094v7.992188zm0 0"/><path d="m216.917969 164.015625-6.921875-3.996094v7.992188zm0 0"/><path d="m209.996094 160.019531-6.921875-3.996093v7.992187zm0 0"/><path d="m203.074219 156.023438-6.921875-4v7.996093zm0 0"/><path d="m196.152344 152.023438-6.921875-3.996094v7.996094zm0 0"/><path d="m189.230469 148.027344-6.921875-3.996094v7.992188zm0 0"/><path d="m182.308594 144.03125-6.921875-3.996094v7.992188zm0 0"/><path d="m175.386719 148.027344-6.921875-3.996094v7.992188zm0 0"/><path d="m161.542969 156.023438-6.921875-4v7.996093zm0 0"/><path d="m154.621094 160.019531-6.921875-3.996093v7.992187zm0 0"/><path d="m154.621094 199.980469-6.921875-3.996094v7.992187zm0 0"/><path d="m161.542969 203.976562-6.921875-3.996093v7.996093zm0 0"/><path d="m175.386719 211.972656-6.921875-3.996094v7.992188zm0 0"/><path d="m189.230469 211.972656-6.921875-3.996094v7.992188zm0 0"/><path d="m196.152344 207.976562-6.921875-4v7.996094zm0 0"/><path d="m223.839844 199.980469-6.921875-3.996094v7.992187zm0 0"/><path d="m223.839844 183.996094-6.921875-3.996094v7.992188zm0 0"/><path d="m223.839844 176.003906-6.921875-3.996094v7.992188zm0 0"/><path d="m223.839844 168.011719-6.921875-3.996094v7.992187zm0 0"/><path d="m216.917969 156.023438-6.921875-4v7.996093zm0 0"/><path d="m209.996094 152.023438-6.921875-3.996094v7.996094zm0 0"/><path d="m189.230469 140.035156-6.921875-3.996094v7.992188zm0 0"/><path d="m182.308594 136.039062-6.921875-3.996093v7.992187zm0 0"/><path d="m175.386719 140.035156-6.921875-3.996094v7.992188zm0 0"/><path d="m161.542969 148.027344-6.921875-3.996094v7.992188zm0 0"/><path d="m154.621094 152.023438-6.921875-3.996094v7.996094zm0 0"/><path d="m147.699219 156.023438-6.921875-4v7.996093zm0 0"/><path d="m147.699219 172.007812-6.921875-3.996093v7.992187zm0 0"/><path d="m147.699219 195.984375-6.921875-3.996094v7.992188zm0 0"/><path d="m154.621094 207.976562-6.921875-4v7.996094zm0 0"/><path d="m161.542969 211.972656-6.921875-3.996094v7.992188zm0 0"/><path d="m182.308594 223.960938-6.921875-3.996094v7.992187zm0 0"/><path d="m189.230469 219.964844-6.921875-3.996094v7.992188zm0 0"/><path d="m196.152344 215.96875-6.921875-3.996094v7.992188zm0 0"/><path d="m203.074219 211.972656-6.921875-3.996094v7.992188zm0 0"/><path d="m209.996094 207.976562-6.921875-4v7.996094zm0 0"/><path d="m216.917969 203.976562-6.921875-3.996093v7.996093zm0 0"/><path d="m230.761719 195.984375-6.921875-3.996094v7.992188zm0 0"/><path d="m230.761719 180-6.921875-3.996094v7.992188zm0 0"/><path d="m230.761719 172.007812-6.921875-3.996093v7.992187zm0 0"/><path d="m230.761719 164.015625-6.921875-3.996094v7.992188zm0 0"/><path d="m223.839844 152.023438-6.921875-3.996094v7.996094zm0 0"/><path d="m196.152344 136.039062-6.921875-3.996093v7.992187zm0 0"/><path d="m189.230469 132.042969-6.921875-3.996094v7.992187zm0 0"/><path d="m168.464844 136.039062-6.921875-3.996093v7.992187zm0 0"/><path d="m161.542969 140.035156-6.921875-3.996094v7.992188zm0 0"/><path d="m147.699219 148.027344-6.921875-3.996094v7.992188zm0 0"/><path d="m140.777344 152.023438-6.921875-3.996094v7.996094zm0 0"/><path d="m140.777344 183.996094-6.921875-3.996094v7.992188zm0 0"/><path d="m140.777344 199.980469-6.921875-3.996094v7.992187zm0 0"/><path d="m147.699219 211.972656-6.921875-3.996094v7.992188zm0 0"/><path d="m161.542969 219.964844-6.921875-3.996094v7.992188zm0 0"/><path d="m175.386719 227.957031-6.921875-3.996093v7.992187zm0 0"/><path d="m182.308594 231.953125-6.921875-3.996094v7.992188zm0 0"/><path d="m189.230469 227.957031-6.921875-3.996093v7.992187zm0 0"/><path d="m203.074219 219.964844-6.921875-3.996094v7.992188zm0 0"/><path d="m209.996094 215.96875-6.921875-3.996094v7.992188zm0 0"/><path d="m216.917969 211.972656-6.921875-3.996094v7.992188zm0 0"/><path d="m223.839844 207.976562-6.921875-4v7.996094zm0 0"/><path d="m237.683594 207.976562-6.921875-4v7.996094zm0 0"/><path d="m237.683594 199.980469-6.921875-3.996094v7.992187zm0 0"/><path d="m237.683594 191.988281-6.921875-3.996093v7.992187zm0 0"/><path d="m237.683594 183.996094-6.921875-3.996094v7.992188zm0 0"/><path d="m237.683594 160.019531-6.921875-3.996093v7.992187zm0 0"/><path d="m223.839844 144.03125-6.921875-3.996094v7.992188zm0 0"/><path d="m216.917969 140.035156-6.921875-3.996094v7.992188zm0 0"/><path d="m203.074219 132.042969-6.921875-3.996094v7.992187zm0 0"/><path d="m196.152344 128.046875-6.921875-3.996094v7.992188zm0 0"/><path d="m189.230469 124.050781-6.921875-3.996093v7.992187zm0 0"/><path d="m175.386719 124.050781-6.921875-3.996093v7.992187zm0 0"/><path d="m161.542969 132.042969-6.921875-3.996094v7.992187zm0 0"/><path d="m154.621094 136.039062-6.921875-3.996093v7.992187zm0 0"/><path d="m147.699219 140.035156-6.921875-3.996094v7.992188zm0 0"/><path d="m133.855469 148.027344-6.925781-3.996094v7.992188zm0 0"/><path d="m133.855469 156.023438-6.925781-4v7.996093zm0 0"/><path d="m133.855469 172.007812-6.925781-3.996093v7.992187zm0 0"/><path d="m133.855469 180-6.925781-3.996094v7.992188zm0 0"/><path d="m133.855469 203.976562-6.925781-3.996093v7.996093zm0 0"/><path d="m133.855469 211.972656-6.925781-3.996094v7.992188zm0 0"/><path d="m140.777344 215.96875-6.921875-3.996094v7.992188zm0 0"/><path d="m147.699219 219.964844-6.921875-3.996094v7.992188zm0 0"/><path d="m168.464844 231.953125-6.921875-3.996094v7.992188zm0 0"/><path d="m175.386719 235.949219-6.921875-3.996094v7.992187zm0 0"/><path d="m189.230469 235.949219-6.921875-3.996094v7.992187zm0 0"/><path d="m223.839844 215.96875-6.921875-3.996094v7.992188zm0 0"/><path d="m230.761719 211.972656-6.921875-3.996094v7.992188zm0 0"/><path d="m244.605469 211.972656-6.921875-3.996094v7.992188zm0 0"/><path d="m244.605469 195.984375-6.921875-3.996094v7.992188zm0 0"/><path d="m244.605469 180-6.921875-3.996094v7.992188zm0 0"/><path d="m244.605469 172.007812-6.921875-3.996093v7.992187zm0 0"/><path d="m244.605469 164.015625-6.921875-3.996094v7.992188zm0 0"/><path d="m216.917969 132.042969-6.921875-3.996094v7.992187zm0 0"/><path d="m209.996094 128.046875-6.921875-3.996094v7.992188zm0 0"/><path d="m203.074219 124.050781-6.921875-3.996093v7.992187zm0 0"/><path d="m161.542969 124.050781-6.921875-3.996093v7.992187zm0 0"/><path d="m147.699219 132.042969-6.921875-3.996094v7.992187zm0 0"/><path d="m140.777344 136.039062-6.921875-3.996093v7.992187zm0 0"/><path d="m133.855469 140.035156-6.925781-3.996094v7.992188zm0 0"/><path d="m126.929688 176.003906-6.921876-3.996094v7.992188zm0 0"/><path d="m126.929688 199.980469-6.921876-3.996094v7.992187zm0 0"/><path d="m126.929688 215.96875-6.921876-3.996094v7.992188zm0 0"/><path d="m154.621094 231.953125-6.921875-3.996094v7.992188zm0 0"/><path d="m168.464844 239.945312-6.921875-3.996093v7.992187zm0 0"/><path d="m175.386719 243.941406-6.921875-3.996094v7.992188zm0 0"/><path d="m203.074219 235.949219-6.921875-3.996094v7.992187zm0 0"/><path d="m209.996094 231.953125-6.921875-3.996094v7.992188zm0 0"/><path d="m216.917969 227.957031-6.921875-3.996093v7.992187zm0 0"/><path d="m223.839844 223.960938-6.921875-3.996094v7.992187zm0 0"/><path d="m237.683594 215.96875-6.921875-3.996094v7.992188zm0 0"/><path d="m251.527344 215.96875-6.921875-3.996094v7.992188zm0 0"/><path d="m251.527344 207.976562-6.921875-4v7.996094zm0 0"/><path d="m251.527344 199.980469-6.921875-3.996094v7.992187zm0 0"/><path d="m251.527344 191.988281-6.921875-3.996093v7.992187zm0 0"/><path d="m251.527344 183.996094-6.921875-3.996094v7.992188zm0 0"/><path d="m251.527344 176.003906-6.921875-3.996094v7.992188zm0 0"/><path d="m251.527344 168.011719-6.921875-3.996094v7.992187zm0 0"/><path d="m251.527344 160.019531-6.921875-3.996093v7.992187zm0 0"/><path d="m251.527344 152.023438-6.921875-3.996094v7.996094zm0 0"/><path d="m251.527344 144.03125-6.921875-3.996094v7.992188zm0 0"/><path d="m230.761719 132.042969-6.921875-3.996094v7.992187zm0 0"/><path d="m216.917969 124.050781-6.921875-3.996093v7.992187zm0 0"/><path d="m209.996094 120.054688-6.921875-3.996094v7.992187zm0 0"/><path d="m196.152344 112.0625-6.921875-3.996094v7.992188zm0 0"/><path d="m161.542969 116.058594-6.921875-3.996094v7.992188zm0 0"/><path d="m154.621094 120.054688-6.921875-3.996094v7.992187zm0 0"/><path d="m126.929688 136.039062-6.921876-3.996093v7.992187zm0 0"/><path d="m120.007812 148.027344-6.921874-3.996094v7.992188zm0 0"/><path d="m120.007812 164.015625-6.921874-3.996094v7.992188zm0 0"/><path d="m120.007812 180-6.921874-3.996094v7.992188zm0 0"/><path d="m120.007812 187.992188-6.921874-3.996094v7.992187zm0 0"/><path d="m120.007812 195.984375-6.921874-3.996094v7.992188zm0 0"/><path d="m120.007812 203.976562-6.921874-3.996093v7.996093zm0 0"/><path d="m120.007812 211.972656-6.921874-3.996094v7.992188zm0 0"/><path d="m120.007812 219.964844-6.921874-3.996094v7.992188zm0 0"/><path d="m133.855469 227.957031-6.925781-3.996093v7.992187zm0 0"/><path d="m154.621094 239.945312-6.921875-3.996093v7.992187zm0 0"/><path d="m168.464844 247.9375-6.921875-3.996094v7.992188zm0 0"/><path d="m175.386719 251.933594-6.921875-3.996094v7.992188zm0 0"/><path d="m182.308594 255.929688-6.921875-3.996094v7.996094zm0 0"/><path d="m203.074219 243.941406-6.921875-3.996094v7.992188zm0 0"/><path d="m216.917969 235.949219-6.921875-3.996094v7.992187zm0 0"/><path d="m244.605469 219.964844-6.921875-3.996094v7.992188zm0 0"/><path d="m258.449219 219.964844-6.921875-3.996094v7.992188zm0 0"/><path d="m258.449219 211.972656-6.921875-3.996094v7.992188zm0 0"/><path d="m258.449219 172.007812-6.921875-3.996093v7.992187zm0 0"/><path d="m258.449219 156.023438-6.921875-4v7.996093zm0 0"/><path d="m244.605469 132.042969-6.921875-3.996094v7.992187zm0 0"/><path d="m237.683594 128.046875-6.921875-3.996094v7.992188zm0 0"/><path d="m230.761719 124.050781-6.921875-3.996093v7.992187zm0 0"/><path d="m216.917969 116.058594-6.921875-3.996094v7.992188zm0 0"/><path d="m209.996094 112.0625-6.921875-3.996094v7.992188zm0 0"/><path d="m203.074219 108.066406-6.921875-3.996094v7.992188zm0 0"/><path d="m189.230469 100.070312-6.921875-3.996093v7.996093zm0 0"/><path d="m182.308594 96.074219-6.921875-3.996094v7.992187zm0 0"/><path d="m175.386719 100.070312-6.921875-3.996093v7.996093zm0 0"/><path d="m168.464844 104.070312-6.921875-4v7.996094zm0 0"/><path d="m161.542969 108.066406-6.921875-3.996094v7.992188zm0 0"/><path d="m147.699219 116.058594-6.921875-3.996094v7.992188zm0 0"/><path d="m140.777344 120.054688-6.921875-3.996094v7.992187zm0 0"/><path d="m126.929688 128.046875-6.921876-3.996094v7.992188zm0 0"/><path d="m113.085938 160.019531-6.921876-3.996093v7.992187zm0 0"/><path d="m113.085938 223.960938-6.921876-3.996094v7.992187zm0 0"/><path d="m120.007812 227.957031-6.921874-3.996093v7.992187zm0 0"/><path d="m140.777344 239.945312-6.921875-3.996093v7.992187zm0 0"/><path d="m147.699219 243.941406-6.921875-3.996094v7.992188zm0 0"/><path d="m154.621094 247.9375-6.921875-3.996094v7.992188zm0 0"/><path d="m168.464844 255.929688-6.921875-3.996094v7.996094zm0 0"/><path d="m203.074219 251.933594-6.921875-3.996094v7.992188zm0 0"/><path d="m244.605469 227.957031-6.921875-3.996093v7.992187zm0 0"/><path d="m265.371094 223.960938-6.921875-3.996094v7.992187zm0 0"/><path d="m265.371094 191.988281-6.921875-3.996093v7.992187zm0 0"/><path d="m265.371094 183.996094-6.921875-3.996094v7.992188zm0 0"/><path d="m265.371094 176.003906-6.921875-3.996094v7.992188zm0 0"/><path d="m265.371094 168.011719-6.921875-3.996094v7.992187zm0 0"/><path d="m265.371094 152.023438-6.921875-3.996094v7.996094zm0 0"/><path d="m265.371094 144.03125-6.921875-3.996094v7.992188zm0 0"/><path d="m265.371094 136.039062-6.921875-3.996093v7.992187zm0 0"/><path d="m230.761719 116.058594-6.921875-3.996094v7.992188zm0 0"/><path d="m216.917969 108.066406-6.921875-3.996094v7.992188zm0 0"/><path d="m209.996094 104.070312-6.921875-4v7.996094zm0 0"/><path d="m203.074219 100.070312-6.921875-3.996093v7.996093zm0 0"/><path d="m189.230469 92.078125-6.921875-3.996094v7.992188zm0 0"/><path d="m161.542969 100.070312-6.921875-3.996093v7.996093zm0 0"/><path d="m154.621094 104.070312-6.921875-4v7.996094zm0 0"/><path d="m147.699219 108.066406-6.921875-3.996094v7.992188zm0 0"/><path d="m140.777344 112.0625-6.921875-3.996094v7.992188zm0 0"/><path d="m133.855469 116.058594-6.925781-3.996094v7.992188zm0 0"/><path d="m126.929688 120.054688-6.921876-3.996094v7.992187zm0 0"/><path d="m106.164062 132.042969-6.921874-3.996094v7.992187zm0 0"/><path d="m106.164062 148.027344-6.921874-3.996094v7.992188zm0 0"/><path d="m106.164062 172.007812-6.921874-3.996093v7.992187zm0 0"/><path d="m106.164062 180-6.921874-3.996094v7.992188zm0 0"/><path d="m106.164062 195.984375-6.921874-3.996094v7.992188zm0 0"/><path d="m113.085938 231.953125-6.921876-3.996094v7.992188zm0 0"/><path d="m120.007812 235.949219-6.921874-3.996094v7.992187zm0 0"/><path d="m126.929688 239.945312-6.921876-3.996093v7.992187zm0 0"/><path d="m133.855469 243.941406-6.925781-3.996094v7.992188zm0 0"/><path d="m140.777344 247.9375-6.921875-3.996094v7.992188zm0 0"/><path d="m147.699219 251.933594-6.921875-3.996094v7.992188zm0 0"/><path d="m154.621094 255.929688-6.921875-3.996094v7.996094zm0 0"/><path d="m168.464844 263.925781-6.921875-3.996093v7.992187zm0 0"/><path d="m182.308594 271.917969-6.921875-3.996094v7.992187zm0 0"/><path d="m189.230469 267.921875-6.921875-3.996094v7.992188zm0 0"/><path d="m203.074219 259.929688-6.921875-4v7.996093zm0 0"/><path d="m216.917969 251.933594-6.921875-3.996094v7.992188zm0 0"/><path d="m244.605469 235.949219-6.921875-3.996094v7.992187zm0 0"/><path d="m272.292969 227.957031-6.921875-3.996093v7.992187zm0 0"/><path d="m272.292969 219.964844-6.921875-3.996094v7.992188zm0 0"/><path d="m272.292969 156.023438-6.921875-4v7.996093zm0 0"/><path d="m272.292969 148.027344-6.921875-3.996094v7.992188zm0 0"/><path d="m272.292969 132.042969-6.921875-3.996094v7.992187zm0 0"/><path d="m258.449219 124.050781-6.921875-3.996093v7.992187zm0 0"/><path d="m251.527344 120.054688-6.921875-3.996094v7.992187zm0 0"/><path d="m244.605469 116.058594-6.921875-3.996094v7.992188zm0 0"/><path d="m237.683594 112.0625-6.921875-3.996094v7.992188zm0 0"/><path d="m223.839844 104.070312-6.921875-4v7.996094zm0 0"/><path d="m216.917969 100.070312-6.921875-3.996093v7.996093zm0 0"/><path d="m203.074219 92.078125-6.921875-3.996094v7.992188zm0 0"/><path d="m189.230469 84.085938-6.921875-3.996094v7.992187zm0 0"/><path d="m182.308594 80.089844-6.921875-3.996094v7.992188zm0 0"/><path d="m175.386719 84.085938-6.921875-3.996094v7.992187zm0 0"/><path d="m168.464844 88.082031-6.921875-3.996093v7.992187zm0 0"/><path d="m161.542969 92.078125-6.921875-3.996094v7.992188zm0 0"/><path d="m140.777344 104.070312-6.921875-4v7.996094zm0 0"/><path d="m120.007812 116.058594-6.921874-3.996094v7.992188zm0 0"/><path d="m106.164062 124.050781-6.921874-3.996093v7.992187zm0 0"/><path d="m99.242188 144.03125-6.921876-3.996094v7.992188zm0 0"/><path d="m99.242188 168.011719-6.921876-3.996094v7.992187zm0 0"/><path d="m99.242188 199.980469-6.921876-3.996094v7.992187zm0 0"/><path d="m99.242188 207.976562-6.921876-4v7.996094zm0 0"/><path d="m99.242188 215.96875-6.921876-3.996094v7.992188zm0 0"/><path d="m99.242188 223.960938-6.921876-3.996094v7.992187zm0 0"/><path d="m113.085938 239.945312-6.921876-3.996093v7.992187zm0 0"/><path d="m140.777344 255.929688-6.921875-3.996094v7.996094zm0 0"/><path d="m147.699219 259.929688-6.921875-4v7.996093zm0 0"/><path d="m161.542969 267.921875-6.921875-3.996094v7.992188zm0 0"/><path d="m168.464844 271.917969-6.921875-3.996094v7.992187zm0 0"/><path d="m209.996094 263.925781-6.921875-3.996093v7.992187zm0 0"/><path d="m223.839844 255.929688-6.921875-3.996094v7.996094zm0 0"/><path d="m230.761719 251.933594-6.921875-3.996094v7.992188zm0 0"/><path d="m237.683594 247.9375-6.921875-3.996094v7.992188zm0 0"/><path d="m244.605469 243.941406-6.921875-3.996094v7.992188zm0 0"/><path d="m251.527344 239.945312-6.921875-3.996093v7.992187zm0 0"/><path d="m258.449219 235.949219-6.921875-3.996094v7.992187zm0 0"/><path d="m265.371094 231.953125-6.921875-3.996094v7.992188zm0 0"/><path d="m279.214844 215.96875-6.921875-3.996094v7.992188zm0 0"/><path d="m279.214844 191.988281-6.921875-3.996093v7.992187zm0 0"/><path d="m279.214844 183.996094-6.921875-3.996094v7.992188zm0 0"/><path d="m279.214844 168.011719-6.921875-3.996094v7.992187zm0 0"/><path d="m279.214844 160.019531-6.921875-3.996093v7.992187zm0 0"/><path d="m279.214844 136.039062-6.921875-3.996093v7.992187zm0 0"/><path d="m279.214844 128.046875-6.921875-3.996094v7.992188zm0 0"/><path d="m272.292969 124.050781-6.921875-3.996093v7.992187zm0 0"/><path d="m258.449219 116.058594-6.921875-3.996094v7.992188zm0 0"/><path d="m244.605469 108.066406-6.921875-3.996094v7.992188zm0 0"/><path d="m230.761719 100.070312-6.921875-3.996093v7.996093zm0 0"/><path d="m223.839844 96.074219-6.921875-3.996094v7.992187zm0 0"/><path d="m216.917969 92.078125-6.921875-3.996094v7.992188zm0 0"/><path d="m209.996094 88.082031-6.921875-3.996093v7.992187zm0 0"/><path d="m196.152344 80.089844-6.921875-3.996094v7.992188zm0 0"/><path d="m189.230469 76.09375-6.921875-3.996094v7.992188zm0 0"/><path d="m154.621094 88.082031-6.921875-3.996093v7.992187zm0 0"/><path d="m147.699219 92.078125-6.921875-3.996094v7.992188zm0 0"/><path d="m133.855469 100.070312-6.925781-3.996093v7.996093zm0 0"/><path d="m126.929688 104.070312-6.921876-4v7.996094zm0 0"/><path d="m106.164062 116.058594-6.921874-3.996094v7.992188zm0 0"/><path d="m99.242188 120.054688-6.921876-3.996094v7.992187zm0 0"/><path d="m92.320312 164.015625-6.921874-3.996094v7.992188zm0 0"/><path d="m92.320312 172.007812-6.921874-3.996093v7.992187zm0 0"/><path d="m92.320312 180-6.921874-3.996094v7.992188zm0 0"/><path d="m92.320312 187.992188-6.921874-3.996094v7.992187zm0 0"/><path d="m92.320312 203.976562-6.921874-3.996093v7.996093zm0 0"/><path d="m92.320312 211.972656-6.921874-3.996094v7.992188zm0 0"/><path d="m92.320312 219.964844-6.921874-3.996094v7.992188zm0 0"/><path d="m92.320312 227.957031-6.921874-3.996093v7.992187zm0 0"/><path d="m106.164062 243.941406-6.921874-3.996094v7.992188zm0 0"/><path d="m113.085938 247.9375-6.921876-3.996094v7.992188zm0 0"/><path d="m120.007812 251.933594-6.921874-3.996094v7.992188zm0 0"/><path d="m126.929688 255.929688-6.921876-3.996094v7.996094zm0 0"/><path d="m147.699219 267.921875-6.921875-3.996094v7.992188zm0 0"/><path d="m161.542969 275.914062-6.921875-3.996093v7.992187zm0 0"/><path d="m216.917969 267.921875-6.921875-3.996094v7.992188zm0 0"/><path d="m223.839844 263.925781-6.921875-3.996093v7.992187zm0 0"/><path d="m237.683594 255.929688-6.921875-3.996094v7.996094zm0 0"/><path d="m244.605469 251.933594-6.921875-3.996094v7.992188zm0 0"/><path d="m251.527344 247.9375-6.921875-3.996094v7.992188zm0 0"/><path d="m265.371094 239.945312-6.921875-3.996093v7.992187zm0 0"/><path d="m272.292969 235.949219-6.921875-3.996094v7.992187zm0 0"/><path d="m286.136719 235.949219-6.921875-3.996094v7.992187zm0 0"/><path d="m286.136719 227.957031-6.921875-3.996093v7.992187zm0 0"/><path d="m286.136719 219.964844-6.921875-3.996094v7.992188zm0 0"/><path d="m286.136719 195.984375-6.921875-3.996094v7.992188zm0 0"/><path d="m286.136719 180-6.921875-3.996094v7.992188zm0 0"/><path d="m286.136719 172.007812-6.921875-3.996093v7.992187zm0 0"/><path d="m286.136719 148.027344-6.921875-3.996094v7.992188zm0 0"/><path d="m286.136719 132.042969-6.921875-3.996094v7.992187zm0 0"/><path d="m286.136719 124.050781-6.921875-3.996093v7.992187zm0 0"/><path d="m279.214844 120.054688-6.921875-3.996094v7.992187zm0 0"/><path d="m272.292969 116.058594-6.921875-3.996094v7.992188zm0 0"/><path d="m258.449219 108.066406-6.921875-3.996094v7.992188zm0 0"/><path d="m237.683594 96.074219-6.921875-3.996094v7.992187zm0 0"/><path d="m230.761719 92.078125-6.921875-3.996094v7.992188zm0 0"/><path d="m223.839844 88.082031-6.921875-3.996093v7.992187zm0 0"/><path d="m209.996094 80.089844-6.921875-3.996094v7.992188zm0 0"/><path d="m203.074219 76.09375-6.921875-3.996094v7.992188zm0 0"/><path d="m168.464844 72.097656-6.921875-3.996094v7.992188zm0 0"/><path d="m161.542969 76.09375-6.921875-3.996094v7.992188zm0 0"/><path d="m147.699219 84.085938-6.921875-3.996094v7.992187zm0 0"/><path d="m140.777344 88.082031-6.921875-3.996093v7.992187zm0 0"/><path d="m120.007812 100.070312-6.921874-3.996093v7.996093zm0 0"/><path d="m106.164062 108.066406-6.921874-3.996094v7.992188zm0 0"/><path d="m99.242188 112.0625-6.921876-3.996094v7.992188zm0 0"/><path d="m85.398438 176.003906-6.921876-3.996094v7.992188zm0 0"/><path d="m85.398438 199.980469-6.921876-3.996094v7.992187zm0 0"/><path d="m85.398438 207.976562-6.921876-4v7.996094zm0 0"/><path d="m140.777344 271.917969-6.921875-3.996094v7.992187zm0 0"/><path d="m147.699219 275.914062-6.921875-3.996093v7.992187zm0 0"/><path d="m223.839844 271.917969-6.921875-3.996094v7.992187zm0 0"/><path d="m230.761719 267.921875-6.921875-3.996094v7.992188zm0 0"/><path d="m237.683594 263.925781-6.921875-3.996093v7.992187zm0 0"/><path d="m244.605469 259.929688-6.921875-4v7.996093zm0 0"/><path d="m293.058594 239.945312-6.921875-3.996093v7.992187zm0 0"/><path d="m293.058594 223.960938-6.921875-3.996094v7.992187zm0 0"/><path d="m293.058594 215.96875-6.921875-3.996094v7.992188zm0 0"/><path d="m293.058594 199.980469-6.921875-3.996094v7.992187zm0 0"/><path d="m293.058594 183.996094-6.921875-3.996094v7.992188zm0 0"/><path d="m293.058594 144.03125-6.921875-3.996094v7.992188zm0 0"/><path d="m293.058594 136.039062-6.921875-3.996093v7.992187zm0 0"/><path d="m286.136719 116.058594-6.921875-3.996094v7.992188zm0 0"/><path d="m258.449219 100.070312-6.921875-3.996093v7.996093zm0 0"/><path d="m182.308594 56.113281-6.921875-4v7.996094zm0 0"/><path d="m147.699219 76.09375-6.921875-3.996094v7.992188zm0 0"/><path d="m133.855469 84.085938-6.925781-3.996094v7.992187zm0 0"/><path d="m126.929688 88.082031-6.921876-3.996093v7.992187zm0 0"/><path d="m120.007812 92.078125-6.921874-3.996094v7.992188zm0 0"/><path d="m106.164062 100.070312-6.921874-3.996093v7.996093zm0 0"/><path d="m106.164062 259.929688-6.921874-4v7.996093zm0 0"/><path d="m113.085938 263.925781-6.921876-3.996093v7.992187zm0 0"/><path d="m216.917969 283.90625-6.921875-3.996094v7.992188zm0 0"/><path d="m230.761719 275.914062-6.921875-3.996093v7.992187zm0 0"/><path d="m251.527344 263.925781-6.921875-3.996093v7.992187zm0 0"/><path d="m299.980469 235.949219-6.921875-3.996094v7.992187zm0 0"/><path d="m299.980469 219.964844-6.921875-3.996094v7.992188zm0 0"/><path d="m299.980469 203.976562-6.921875-3.996093v7.996093zm0 0"/><path d="m299.980469 195.984375-6.921875-3.996094v7.992188zm0 0"/><path d="m299.980469 180-6.921875-3.996094v7.992188zm0 0"/><path d="m299.980469 172.007812-6.921875-3.996093v7.992187zm0 0"/><path d="m299.980469 156.023438-6.921875-4v7.996093zm0 0"/><path d="m299.980469 140.035156-6.921875-3.996094v7.992188zm0 0"/><path d="m279.214844 104.070312-6.921875-4v7.996094zm0 0"/><path d="m272.292969 100.070312-6.921875-3.996093v7.996093zm0 0"/><path d="m258.449219 92.078125-6.921875-3.996094v7.992188zm0 0"/><path d="m251.527344 88.082031-6.921875-3.996093v7.992187zm0 0"/><path d="m168.464844 56.113281-6.921875-4v7.996094zm0 0"/><path d="m161.542969 60.109375-6.921875-3.996094v7.992188zm0 0"/><path d="m147.699219 68.101562-6.921875-3.996093v7.992187zm0 0"/><path d="m223.839844 287.902344-6.921875-3.996094v7.992188zm0 0"/><path d="m230.761719 283.90625-6.921875-3.996094v7.992188zm0 0"/><path d="m251.527344 271.917969-6.921875-3.996094v7.992187zm0 0"/><path d="m306.902344 231.953125-6.921875-3.996094v7.992188zm0 0"/><path d="m306.902344 207.976562-6.921875-4v7.996094zm0 0"/><path d="m306.902344 168.011719-6.921875-3.996094v7.992187zm0 0"/><path d="m161.542969 52.113281-6.921875-3.996093v7.996093zm0 0"/><path d="m154.621094 56.113281-6.921875-4v7.996094zm0 0"/><path d="m147.699219 60.109375-6.921875-3.996094v7.992188zm0 0"/><path d="m237.683594 287.902344-6.921875-3.996094v7.992188zm0 0"/><path d="m258.449219 275.914062-6.921875-3.996093v7.992187zm0 0"/></g></svg>