<svg height="360pt" viewBox="0 0 360 360" width="360pt" xmlns="http://www.w3.org/2000/svg"><path d="m0 0h360v360h-360z" fill="#fff"/><g fill="#800080"><path d="m172.851562 180 10.722657-6.191406v12.382812zm0 0"/><path d="m172.851562 167.617188 10.722657-6.191407v12.382813zm0 0"/><path d="m162.125 173.808594 10.726562-6.191406v12.382812zm0 0"/><path d="m172.851562 192.382812 10.722657-6.191406v12.382813zm0 0"/><path d="m194.300781 167.617188 10.722657-6.191407v12.382813zm0 0"/><path d="m183.574219 161.425781 10.726562-6.191406v12.382813zm0 0"/><path d="m151.402344 167.617188 10.722656-6.191407v12.382813zm0 0"/><path d="m151.402344 180 10.722656-6.191406v12.382812zm0 0"/><path d="m151.402344 192.382812 10.722656-6.191406v12.382813zm0 0"/><path d="m162.125 198.574219 10.726562-6.191407v12.382813zm0 0"/><path d="m172.851562 204.765625 10.722657-6.191406v12.382812zm0 0"/><path d="m205.023438 198.574219 10.722656-6.191407v12.382813zm0 0"/><path d="m205.023438 173.808594 10.722656-6.191406v12.382812zm0 0"/><path d="m205.023438 161.425781 10.722656-6.191406v12.382813zm0 0"/><path d="m194.300781 155.234375 10.722657-6.191406v12.382812zm0 0"/><path d="m151.402344 155.234375 10.722656-6.191406v12.382812zm0 0"/><path d="m140.675781 161.425781 10.726563-6.191406v12.382813zm0 0"/><path d="m140.675781 186.191406 10.726563-6.191406v12.382812zm0 0"/><path d="m140.675781 198.574219 10.726563-6.191407v12.382813zm0 0"/><path d="m162.125 210.957031 10.726562-6.191406v12.382813zm0 0"/><path d="m172.851562 217.148438 10.722657-6.191407v12.382813zm0 0"/><path d="m183.574219 210.957031 10.726562-6.191406v12.382813zm0 0"/><path d="m194.300781 204.765625 10.722657-6.191406v12.382812zm0 0"/><path d="m215.746094 204.765625 10.726562-6.191406v12.382812zm0 0"/><path d="m215.746094 180 10.726562-6.191406v12.382812zm0 0"/><path d="m215.746094 167.617188 10.726562-6.191407v12.382813zm0 0"/><path d="m205.023438 149.042969 10.722656-6.191407v12.382813zm0 0"/><path d="m194.300781 142.851562 10.722657-6.191406v12.382813zm0 0"/><path d="m183.574219 136.660156 10.726562-6.195312v12.386718zm0 0"/><path d="m172.851562 130.464844 10.722657-6.191406v12.386718zm0 0"/><path d="m151.402344 142.851562 10.722656-6.191406v12.382813zm0 0"/><path d="m140.675781 149.042969 10.726563-6.191407v12.382813zm0 0"/><path d="m129.953125 155.234375 10.722656-6.191406v12.382812zm0 0"/><path d="m129.953125 192.382812 10.722656-6.191406v12.382813zm0 0"/><path d="m151.402344 217.148438 10.722656-6.191407v12.382813zm0 0"/><path d="m162.125 223.339844 10.726562-6.191406v12.386718zm0 0"/><path d="m183.574219 223.339844 10.726562-6.191406v12.386718zm0 0"/><path d="m194.300781 217.148438 10.722657-6.191407v12.382813zm0 0"/><path d="m226.472656 210.957031 10.722656-6.191406v12.382813zm0 0"/><path d="m226.472656 198.574219 10.722656-6.191407v12.382813zm0 0"/><path d="m215.746094 142.851562 10.726562-6.191406v12.382813zm0 0"/><path d="m205.023438 136.660156 10.722656-6.195312v12.386718zm0 0"/><path d="m194.300781 130.464844 10.722657-6.191406v12.386718zm0 0"/><path d="m183.574219 124.273438 10.726562-6.191407v12.382813zm0 0"/><path d="m172.851562 118.082031 10.722657-6.191406v12.382813zm0 0"/><path d="m162.125 124.273438 10.726562-6.191407v12.382813zm0 0"/><path d="m129.953125 142.851562 10.722656-6.191406v12.382813zm0 0"/><path d="m119.230469 161.425781 10.722656-6.191406v12.382813zm0 0"/><path d="m119.230469 173.808594 10.722656-6.191406v12.382812zm0 0"/><path d="m119.230469 186.191406 10.722656-6.191406v12.382812zm0 0"/><path d="m119.230469 198.574219 10.722656-6.191407v12.382813zm0 0"/><path d="m119.230469 210.957031 10.722656-6.191406v12.382813zm0 0"/><path d="m140.675781 223.339844 10.726563-6.191406v12.386718zm0 0"/><path d="m151.402344 229.535156 10.722656-6.195312v12.386718zm0 0"/><path d="m162.125 235.726562 10.726562-6.191406v12.382813zm0 0"/><path d="m205.023438 223.339844 10.722656-6.191406v12.386718zm0 0"/><path d="m215.746094 217.148438 10.726562-6.191407v12.382813zm0 0"/><path d="m215.746094 130.464844 10.726562-6.191406v12.386718zm0 0"/><path d="m194.300781 118.082031 10.722657-6.191406v12.382813zm0 0"/><path d="m183.574219 111.890625 10.726562-6.191406v12.382812zm0 0"/><path d="m129.953125 130.464844 10.722656-6.191406v12.386718zm0 0"/><path d="m119.230469 136.660156 10.722656-6.195312v12.386718zm0 0"/><path d="m108.503906 142.851562 10.726563-6.191406v12.382813zm0 0"/><path d="m108.503906 155.234375 10.726563-6.191406v12.382812zm0 0"/><path d="m108.503906 180 10.726563-6.191406v12.382812zm0 0"/><path d="m108.503906 192.382812 10.726563-6.191406v12.382813zm0 0"/><path d="m108.503906 204.765625 10.726563-6.191406v12.382812zm0 0"/><path d="m108.503906 217.148438 10.726563-6.191407v12.382813zm0 0"/><path d="m119.230469 223.339844 10.722656-6.191406v12.386718zm0 0"/><path d="m172.851562 254.300781 10.722657-6.191406v12.382813zm0 0"/><path d="m183.574219 248.109375 10.726562-6.191406v12.382812zm0 0"/><path d="m194.300781 241.917969 10.722657-6.191407v12.382813zm0 0"/><path d="m215.746094 229.535156 10.726562-6.195312v12.386718zm0 0"/><path d="m226.472656 223.339844 10.722656-6.191406v12.386718zm0 0"/><path d="m247.921875 223.339844 10.722656-6.191406v12.386718zm0 0"/><path d="m247.921875 186.191406 10.722656-6.191406v12.382812zm0 0"/><path d="m247.921875 161.425781 10.722656-6.191406v12.382813zm0 0"/><path d="m247.921875 149.042969 10.722656-6.191407v12.382813zm0 0"/><path d="m194.300781 105.699219 10.722657-6.191407v12.382813zm0 0"/><path d="m162.125 99.507812 10.726562-6.191406v12.382813zm0 0"/><path d="m151.402344 105.699219 10.722656-6.191407v12.382813zm0 0"/><path d="m129.953125 118.082031 10.722656-6.191406v12.382813zm0 0"/><path d="m97.78125 136.660156 10.722656-6.195312v12.386718zm0 0"/><path d="m97.78125 161.425781 10.722656-6.191406v12.382813zm0 0"/><path d="m97.78125 173.808594 10.722656-6.191406v12.382812zm0 0"/><path d="m97.78125 223.339844 10.722656-6.191406v12.386718zm0 0"/><path d="m108.503906 229.535156 10.726563-6.195312v12.386718zm0 0"/><path d="m119.230469 235.726562 10.722656-6.191406v12.382813zm0 0"/><path d="m162.125 260.492188 10.726562-6.191407v12.382813zm0 0"/><path d="m172.851562 266.683594 10.722657-6.191406v12.382812zm0 0"/><path d="m194.300781 254.300781 10.722657-6.191406v12.382813zm0 0"/><path d="m226.472656 235.726562 10.722656-6.191406v12.382813zm0 0"/><path d="m258.644531 229.535156 10.722657-6.195312v12.386718zm0 0"/><path d="m258.644531 217.148438 10.722657-6.191407v12.382813zm0 0"/><path d="m258.644531 204.765625 10.722657-6.191406v12.382812zm0 0"/><path d="m258.644531 192.382812 10.722657-6.191406v12.382813zm0 0"/><path d="m258.644531 180 10.722657-6.191406v12.382812zm0 0"/><path d="m258.644531 155.234375 10.722657-6.191406v12.382812zm0 0"/><path d="m258.644531 142.851562 10.722657-6.191406v12.382813zm0 0"/><path d="m194.300781 93.316406 10.722657-6.191406v12.382812zm0 0"/><path d="m162.125 87.125 10.726562-6.191406v12.382812zm0 0"/><path d="m151.402344 93.316406 10.722656-6.191406v12.382812zm0 0"/><path d="m87.054688 142.851562 10.726562-6.191406v12.382813zm0 0"/><path d="m87.054688 155.234375 10.726562-6.191406v12.382812zm0 0"/><path d="m87.054688 180 10.726562-6.191406v12.382812zm0 0"/><path d="m87.054688 217.148438 10.726562-6.191407v12.382813zm0 0"/><path d="m140.675781 260.492188 10.726563-6.191407v12.382813zm0 0"/><path d="m151.402344 266.683594 10.722656-6.191406v12.382812zm0 0"/><path d="m237.195312 105.699219 10.726563-6.191407v12.382813zm0 0"/><path d="m226.472656 99.507812 10.722656-6.191406v12.382813zm0 0"/><path d="m215.746094 93.316406 10.726562-6.191406v12.382812zm0 0"/><path d="m205.023438 87.125 10.722656-6.191406v12.382812zm0 0"/><path d="m76.332031 149.042969 10.722657-6.191407v12.382813zm0 0"/><path d="m76.332031 173.808594 10.722657-6.191406v12.382812zm0 0"/><path d="m76.332031 186.191406 10.722657-6.191406v12.382812zm0 0"/><path d="m129.953125 266.683594 10.722656-6.191406v12.382812zm0 0"/><path d="m140.675781 272.875 10.726563-6.191406v12.382812zm0 0"/><path d="m226.472656 87.125 10.722656-6.191406v12.382812zm0 0"/><path d="m194.300781 180-10.726562-6.191406v12.382812zm0 0"/><path d="m183.574219 186.191406-10.722657-6.191406v12.382812zm0 0"/><path d="m205.023438 173.808594-10.722657-6.191406v12.382812zm0 0"/><path d="m194.300781 167.617188-10.726562-6.191407v12.382813zm0 0"/><path d="m183.574219 161.425781-10.722657-6.191406v12.382813zm0 0"/><path d="m172.851562 167.617188-10.726562-6.191407v12.382813zm0 0"/><path d="m172.851562 180-10.726562-6.191406v12.382812zm0 0"/><path d="m172.851562 192.382812-10.726562-6.191406v12.382813zm0 0"/><path d="m194.300781 192.382812-10.726562-6.191406v12.382813zm0 0"/><path d="m215.746094 192.382812-10.722656-6.191406v12.382813zm0 0"/><path d="m215.746094 180-10.722656-6.191406v12.382812zm0 0"/><path d="m194.300781 155.234375-10.726562-6.191406v12.382812zm0 0"/><path d="m172.851562 155.234375-10.726562-6.191406v12.382812zm0 0"/><path d="m162.125 173.808594-10.722656-6.191406v12.382812zm0 0"/><path d="m162.125 198.574219-10.722656-6.191407v12.382813zm0 0"/><path d="m172.851562 204.765625-10.726562-6.191406v12.382812zm0 0"/><path d="m194.300781 204.765625-10.726562-6.191406v12.382812zm0 0"/><path d="m205.023438 198.574219-10.722657-6.191407v12.382813zm0 0"/><path d="m226.472656 198.574219-10.726562-6.191407v12.382813zm0 0"/><path d="m226.472656 186.191406-10.726562-6.191406v12.382812zm0 0"/><path d="m226.472656 161.425781-10.726562-6.191406v12.382813zm0 0"/><path d="m205.023438 149.042969-10.722657-6.191407v12.382813zm0 0"/><path d="m194.300781 142.851562-10.726562-6.191406v12.382813zm0 0"/><path d="m183.574219 136.660156-10.722657-6.195312v12.386718zm0 0"/><path d="m172.851562 142.851562-10.726562-6.191406v12.382813zm0 0"/><path d="m151.402344 167.617188-10.726563-6.191407v12.382813zm0 0"/><path d="m151.402344 180-10.726563-6.191406v12.382812zm0 0"/><path d="m151.402344 204.765625-10.726563-6.191406v12.382812zm0 0"/><path d="m162.125 210.957031-10.722656-6.191406v12.382813zm0 0"/><path d="m183.574219 223.339844-10.722657-6.191406v12.386718zm0 0"/><path d="m237.195312 192.382812-10.722656-6.191406v12.382813zm0 0"/><path d="m237.195312 180-10.722656-6.191406v12.382812zm0 0"/><path d="m237.195312 167.617188-10.722656-6.191407v12.382813zm0 0"/><path d="m237.195312 155.234375-10.722656-6.191406v12.382812zm0 0"/><path d="m226.472656 149.042969-10.726562-6.191407v12.382813zm0 0"/><path d="m172.851562 130.464844-10.726562-6.191406v12.386718zm0 0"/><path d="m162.125 136.660156-10.722656-6.195312v12.386718zm0 0"/><path d="m151.402344 142.851562-10.726563-6.191406v12.382813zm0 0"/><path d="m140.675781 161.425781-10.722656-6.191406v12.382813zm0 0"/><path d="m140.675781 173.808594-10.722656-6.191406v12.382812zm0 0"/><path d="m140.675781 186.191406-10.722656-6.191406v12.382812zm0 0"/><path d="m140.675781 198.574219-10.722656-6.191407v12.382813zm0 0"/><path d="m140.675781 210.957031-10.722656-6.191406v12.382813zm0 0"/><path d="m151.402344 217.148438-10.726563-6.191407v12.382813zm0 0"/><path d="m183.574219 235.726562-10.722657-6.191406v12.382813zm0 0"/><path d="m194.300781 229.535156-10.726562-6.195312v12.386718zm0 0"/><path d="m205.023438 223.339844-10.722657-6.191406v12.386718zm0 0"/><path d="m247.921875 210.957031-10.726563-6.191406v12.382813zm0 0"/><path d="m247.921875 198.574219-10.726563-6.191407v12.382813zm0 0"/><path d="m237.195312 142.851562-10.722656-6.191406v12.382813zm0 0"/><path d="m183.574219 111.890625-10.722657-6.191406v12.382812zm0 0"/><path d="m172.851562 118.082031-10.726562-6.191406v12.382813zm0 0"/><path d="m162.125 124.273438-10.722656-6.191407v12.382813zm0 0"/><path d="m151.402344 130.464844-10.726563-6.191406v12.386718zm0 0"/><path d="m140.675781 223.339844-10.722656-6.191406v12.386718zm0 0"/><path d="m151.402344 229.535156-10.726563-6.195312v12.386718zm0 0"/><path d="m162.125 235.726562-10.722656-6.191406v12.382813zm0 0"/><path d="m172.851562 241.917969-10.726562-6.191407v12.382813zm0 0"/><path d="m183.574219 248.109375-10.722657-6.191406v12.382812zm0 0"/><path d="m194.300781 241.917969-10.726562-6.191407v12.382813zm0 0"/><path d="m205.023438 235.726562-10.722657-6.191406v12.382813zm0 0"/><path d="m215.746094 229.535156-10.722656-6.195312v12.386718zm0 0"/><path d="m226.472656 223.339844-10.726562-6.191406v12.386718zm0 0"/><path d="m237.195312 217.148438-10.722656-6.191407v12.382813zm0 0"/><path d="m258.644531 180-10.722656-6.191406v12.382812zm0 0"/><path d="m258.644531 167.617188-10.722656-6.191407v12.382813zm0 0"/><path d="m258.644531 142.851562-10.722656-6.191406v12.382813zm0 0"/><path d="m247.921875 136.660156-10.726563-6.195312v12.386718zm0 0"/><path d="m237.195312 130.464844-10.722656-6.191406v12.386718zm0 0"/><path d="m215.746094 118.082031-10.722656-6.191406v12.382813zm0 0"/><path d="m194.300781 105.699219-10.726562-6.191407v12.382813zm0 0"/><path d="m172.851562 105.699219-10.726562-6.191407v12.382813zm0 0"/><path d="m162.125 111.890625-10.722656-6.191406v12.382812zm0 0"/><path d="m151.402344 118.082031-10.726563-6.191406v12.382813zm0 0"/><path d="m119.230469 136.660156-10.726563-6.195312v12.386718zm0 0"/><path d="m119.230469 149.042969-10.726563-6.191407v12.382813zm0 0"/><path d="m119.230469 161.425781-10.726563-6.191406v12.382813zm0 0"/><path d="m119.230469 186.191406-10.726563-6.191406v12.382812zm0 0"/><path d="m119.230469 210.957031-10.726563-6.191406v12.382813zm0 0"/><path d="m140.675781 235.726562-10.722656-6.191406v12.382813zm0 0"/><path d="m151.402344 241.917969-10.726563-6.191407v12.382813zm0 0"/><path d="m172.851562 254.300781-10.726562-6.191406v12.382813zm0 0"/><path d="m215.746094 241.917969-10.722656-6.191407v12.382813zm0 0"/><path d="m226.472656 235.726562-10.726562-6.191406v12.382813zm0 0"/><path d="m237.195312 229.535156-10.722656-6.195312v12.386718zm0 0"/><path d="m269.367188 173.808594-10.722657-6.191406v12.382812zm0 0"/><path d="m269.367188 161.425781-10.722657-6.191406v12.382813zm0 0"/><path d="m247.921875 124.273438-10.726563-6.191407v12.382813zm0 0"/><path d="m237.195312 118.082031-10.722656-6.191406v12.382813zm0 0"/><path d="m226.472656 111.890625-10.726562-6.191406v12.382812zm0 0"/><path d="m215.746094 105.699219-10.722656-6.191407v12.382813zm0 0"/><path d="m151.402344 105.699219-10.726563-6.191407v12.382813zm0 0"/><path d="m108.503906 167.617188-10.722656-6.191407v12.382813zm0 0"/><path d="m108.503906 180-10.722656-6.191406v12.382812zm0 0"/><path d="m108.503906 204.765625-10.722656-6.191406v12.382812zm0 0"/><path d="m119.230469 235.726562-10.726563-6.191406v12.382813zm0 0"/><path d="m140.675781 248.109375-10.722656-6.191406v12.382812zm0 0"/><path d="m151.402344 254.300781-10.726563-6.191406v12.382813zm0 0"/><path d="m162.125 260.492188-10.722656-6.191407v12.382813zm0 0"/><path d="m194.300781 266.683594-10.726562-6.191406v12.382812zm0 0"/><path d="m205.023438 260.492188-10.722657-6.191407v12.382813zm0 0"/><path d="m247.921875 235.726562-10.726563-6.191406v12.382813zm0 0"/><path d="m258.644531 229.535156-10.722656-6.195312v12.386718zm0 0"/><path d="m280.09375 204.765625-10.726562-6.191406v12.382812zm0 0"/><path d="m280.09375 167.617188-10.726562-6.191407v12.382813zm0 0"/><path d="m280.09375 155.234375-10.726562-6.191406v12.382812zm0 0"/><path d="m258.644531 118.082031-10.722656-6.191406v12.382813zm0 0"/><path d="m247.921875 111.890625-10.726563-6.191406v12.382812zm0 0"/><path d="m237.195312 105.699219-10.722656-6.191407v12.382813zm0 0"/><path d="m226.472656 99.507812-10.726562-6.191406v12.382813zm0 0"/><path d="m151.402344 93.316406-10.726563-6.191406v12.382812zm0 0"/><path d="m97.78125 136.660156-10.726562-6.195312v12.386718zm0 0"/><path d="m97.78125 161.425781-10.726562-6.191406v12.382813zm0 0"/><path d="m97.78125 173.808594-10.726562-6.191406v12.382812zm0 0"/><path d="m97.78125 186.191406-10.726562-6.191406v12.382812zm0 0"/><path d="m97.78125 198.574219-10.726562-6.191407v12.382813zm0 0"/></g></svg>