<svg height="360pt" viewBox="0 0 360 360" width="360pt" xmlns="http://www.w3.org/2000/svg"><path d="m0 0h360v360h-360z" fill="#fff"/><g fill="#800080"><path d="m174.230469 180 8.65625-4.996094v9.992188zm0 0"/><path d="m182.886719 184.996094 8.652343-4.996094v9.992188zm0 0"/><path d="m174.230469 170.007812 8.65625-4.996093v9.992187zm0 0"/><path d="m191.539062 180 8.65625-4.996094v9.992188zm0 0"/><path d="m191.539062 170.007812 8.65625-4.996093v9.992187zm0 0"/><path d="m182.886719 165.011719 8.652343-5v9.996093zm0 0"/><path d="m165.574219 165.011719 8.65625-5v9.996093zm0 0"/><path d="m156.921875 170.007812 8.652344-4.996093v9.992187zm0 0"/><path d="m174.230469 199.988281 8.65625-5v9.996094zm0 0"/><path d="m182.886719 194.988281 8.652343-4.996093v9.996093zm0 0"/><path d="m200.195312 194.988281 8.652344-4.996093v9.996093zm0 0"/><path d="m200.195312 165.011719 8.652344-5v9.996093zm0 0"/><path d="m191.539062 160.011719 8.65625-4.996094v9.996094zm0 0"/><path d="m182.886719 155.015625 8.652343-4.996094v9.992188zm0 0"/><path d="m148.265625 175.003906 8.65625-4.996094v9.992188zm0 0"/><path d="m148.265625 194.988281 8.65625-4.996093v9.996093zm0 0"/><path d="m208.847656 199.988281 8.65625-5v9.996094zm0 0"/><path d="m208.847656 180 8.65625-4.996094v9.992188zm0 0"/><path d="m191.539062 150.019531 8.65625-4.996093v9.992187zm0 0"/><path d="m148.265625 155.015625 8.65625-4.996094v9.992188zm0 0"/><path d="m139.613281 160.011719 8.652344-4.996094v9.996094zm0 0"/><path d="m139.613281 170.007812 8.652344-4.996093v9.992187zm0 0"/><path d="m139.613281 180 8.652344-4.996094v9.992188zm0 0"/><path d="m139.613281 189.992188 8.652344-4.996094v9.992187zm0 0"/><path d="m148.265625 204.984375 8.65625-4.996094v9.992188zm0 0"/><path d="m174.230469 219.972656 8.65625-4.996094v9.992188zm0 0"/><path d="m191.539062 209.980469 8.65625-4.996094v9.992187zm0 0"/><path d="m200.195312 204.984375 8.652344-4.996094v9.992188zm0 0"/><path d="m217.503906 204.984375 8.652344-4.996094v9.992188zm0 0"/><path d="m217.503906 165.011719 8.652344-5v9.996093zm0 0"/><path d="m174.230469 130.03125 8.65625-4.996094v9.996094zm0 0"/><path d="m139.613281 150.019531 8.652344-4.996093v9.992187zm0 0"/><path d="m130.957031 175.003906 8.65625-4.996094v9.992188zm0 0"/><path d="m130.957031 194.988281 8.65625-4.996093v9.996093zm0 0"/><path d="m130.957031 204.984375 8.65625-4.996094v9.992188zm0 0"/><path d="m139.613281 209.980469 8.652344-4.996094v9.992187zm0 0"/><path d="m165.574219 224.96875 8.65625-4.996094v9.996094zm0 0"/><path d="m174.230469 229.96875 8.65625-5v9.996094zm0 0"/><path d="m191.539062 219.972656 8.65625-4.996094v9.992188zm0 0"/><path d="m226.15625 209.980469 8.65625-4.996094v9.992187zm0 0"/><path d="m226.15625 199.988281 8.65625-5v9.996094zm0 0"/><path d="m226.15625 189.992188 8.65625-4.996094v9.992187zm0 0"/><path d="m226.15625 160.011719 8.65625-4.996094v9.996094zm0 0"/><path d="m226.15625 150.019531 8.65625-4.996093v9.992187zm0 0"/><path d="m208.847656 140.027344 8.65625-4.996094v9.992188zm0 0"/><path d="m182.886719 125.035156 8.652343-4.996094v9.992188zm0 0"/><path d="m174.230469 120.039062 8.65625-4.996093v9.992187zm0 0"/><path d="m139.613281 140.027344 8.652344-4.996094v9.992188zm0 0"/><path d="m122.304688 180 8.652343-4.996094v9.992188zm0 0"/><path d="m122.304688 209.980469 8.652343-4.996094v9.992187zm0 0"/><path d="m130.957031 214.976562 8.65625-4.996093v9.992187zm0 0"/><path d="m165.574219 234.964844 8.65625-4.996094v9.992188zm0 0"/><path d="m182.886719 234.964844 8.652343-4.996094v9.992188zm0 0"/><path d="m200.195312 224.96875 8.652344-4.996094v9.996094zm0 0"/><path d="m208.847656 219.972656 8.65625-4.996094v9.992188zm0 0"/><path d="m217.503906 214.976562 8.652344-4.996093v9.992187zm0 0"/><path d="m234.8125 204.984375 8.652344-4.996094v9.992188zm0 0"/><path d="m234.8125 175.003906 8.652344-4.996094v9.992188zm0 0"/><path d="m234.8125 165.011719 8.652344-5v9.996093zm0 0"/><path d="m208.847656 130.03125 8.65625-4.996094v9.996094zm0 0"/><path d="m200.195312 125.035156 8.652344-4.996094v9.992188zm0 0"/><path d="m148.265625 125.035156 8.65625-4.996094v9.992188zm0 0"/><path d="m130.957031 135.03125 8.65625-5v9.996094zm0 0"/><path d="m122.304688 140.027344 8.652343-4.996094v9.992188zm0 0"/><path d="m113.648438 165.011719 8.65625-5v9.996093zm0 0"/><path d="m113.648438 184.996094 8.65625-4.996094v9.992188zm0 0"/><path d="m113.648438 204.984375 8.65625-4.996094v9.992188zm0 0"/><path d="m122.304688 219.972656 8.652343-4.996094v9.992188zm0 0"/><path d="m139.613281 229.96875 8.652344-5v9.996094zm0 0"/><path d="m148.265625 234.964844 8.65625-4.996094v9.992188zm0 0"/><path d="m191.539062 239.960938 8.65625-4.996094v9.992187zm0 0"/><path d="m208.847656 229.96875 8.65625-5v9.996094zm0 0"/><path d="m217.503906 224.96875 8.652344-4.996094v9.996094zm0 0"/><path d="m243.464844 209.980469 8.65625-4.996094v9.992187zm0 0"/><path d="m243.464844 199.988281 8.65625-5v9.996094zm0 0"/><path d="m243.464844 189.992188 8.65625-4.996094v9.992187zm0 0"/><path d="m243.464844 180 8.65625-4.996094v9.992188zm0 0"/><path d="m243.464844 150.019531 8.65625-4.996093v9.992187zm0 0"/><path d="m226.15625 130.03125 8.65625-4.996094v9.996094zm0 0"/><path d="m217.503906 125.035156 8.652344-4.996094v9.992188zm0 0"/><path d="m208.847656 120.039062 8.65625-4.996093v9.992187zm0 0"/><path d="m200.195312 115.042969 8.652344-4.996094v9.992187zm0 0"/><path d="m156.921875 110.046875 8.652344-4.996094v9.992188zm0 0"/><path d="m148.265625 115.042969 8.65625-4.996094v9.992187zm0 0"/><path d="m104.992188 160.011719 8.65625-4.996094v9.996094zm0 0"/><path d="m104.992188 180 8.65625-4.996094v9.992188zm0 0"/><path d="m148.265625 244.957031 8.65625-4.996093v9.992187zm0 0"/><path d="m165.574219 254.949219 8.65625-4.996094v9.992187zm0 0"/><path d="m174.230469 259.945312 8.65625-4.996093v9.996093zm0 0"/><path d="m200.195312 244.957031 8.652344-4.996093v9.992187zm0 0"/><path d="m226.15625 229.96875 8.65625-5v9.996094zm0 0"/><path d="m234.8125 224.96875 8.652344-4.996094v9.996094zm0 0"/><path d="m252.121094 224.96875 8.65625-4.996094v9.996094zm0 0"/><path d="m252.121094 194.988281 8.65625-4.996093v9.996093zm0 0"/><path d="m252.121094 165.011719 8.65625-5v9.996093zm0 0"/><path d="m252.121094 135.03125 8.65625-5v9.996094zm0 0"/><path d="m243.464844 130.03125 8.65625-4.996094v9.996094zm0 0"/><path d="m226.15625 120.039062 8.65625-4.996093v9.992187zm0 0"/><path d="m217.503906 115.042969 8.652344-4.996094v9.992187zm0 0"/><path d="m148.265625 105.050781 8.65625-4.996093v9.992187zm0 0"/><path d="m96.339844 184.996094 8.652344-4.996094v9.992188zm0 0"/><path d="m113.648438 234.964844 8.65625-4.996094v9.992188zm0 0"/><path d="m148.265625 254.949219 8.65625-4.996094v9.992187zm0 0"/><path d="m156.921875 259.945312 8.652344-4.996093v9.996093zm0 0"/><path d="m165.574219 264.945312 8.65625-5v9.996094zm0 0"/><path d="m226.15625 239.960938 8.65625-4.996094v9.992187zm0 0"/><path d="m260.777344 189.992188 8.652344-4.996094v9.992187zm0 0"/><path d="m260.777344 180 8.652344-4.996094v9.992188zm0 0"/><path d="m260.777344 170.007812 8.652344-4.996093v9.992187zm0 0"/><path d="m260.777344 160.011719 8.652344-4.996094v9.996094zm0 0"/><path d="m252.121094 125.035156 8.65625-4.996094v9.992188zm0 0"/><path d="m243.464844 120.039062 8.65625-4.996093v9.992187zm0 0"/><path d="m104.992188 239.960938 8.65625-4.996094v9.992187zm0 0"/><path d="m122.304688 249.953125 8.652343-4.996094v9.992188zm0 0"/><path d="m148.265625 264.945312 8.65625-5v9.996094zm0 0"/><path d="m269.429688 184.996094 8.65625-4.996094v9.992188zm0 0"/><path d="m269.429688 155.015625 8.65625-4.996094v9.992188zm0 0"/><path d="m260.777344 120.039062 8.652344-4.996093v9.992187zm0 0"/><path d="m122.304688 259.945312 8.652343-4.996093v9.996093zm0 0"/><path d="m130.957031 264.945312 8.65625-5v9.996094zm0 0"/><path d="m278.085938 180 8.652343-4.996094v9.992188zm0 0"/><path d="m234.8125 95.054688 8.652344-4.996094v9.996094zm0 0"/><path d="m226.15625 90.058594 8.65625-4.996094v9.992188zm0 0"/><path d="m286.738281 175.003906 8.65625-4.996094v9.992188zm0 0"/><path d="m286.738281 165.011719 8.65625-5v9.996093zm0 0"/><path d="m182.886719 175.003906-8.65625-4.996094v9.992188zm0 0"/><path d="m182.886719 184.996094-8.65625-4.996094v9.992188zm0 0"/><path d="m200.195312 175.003906-8.65625-4.996094v9.992188zm0 0"/><path d="m182.886719 165.011719-8.65625-5v9.996093zm0 0"/><path d="m174.230469 170.007812-8.65625-4.996093v9.992187zm0 0"/><path d="m182.886719 194.988281-8.65625-4.996093v9.996093zm0 0"/><path d="m191.539062 189.992188-8.652343-4.996094v9.992187zm0 0"/><path d="m208.847656 189.992188-8.652344-4.996094v9.992187zm0 0"/><path d="m208.847656 180-8.652344-4.996094v9.992188zm0 0"/><path d="m182.886719 155.015625-8.65625-4.996094v9.992188zm0 0"/><path d="m165.574219 165.011719-8.652344-5v9.996093zm0 0"/><path d="m200.195312 194.988281-8.65625-4.996093v9.996093zm0 0"/><path d="m217.503906 194.988281-8.65625-4.996093v9.996093zm0 0"/><path d="m217.503906 184.996094-8.65625-4.996094v9.992188zm0 0"/><path d="m208.847656 160.011719-8.652344-4.996094v9.996094zm0 0"/><path d="m191.539062 150.019531-8.652343-4.996093v9.992187zm0 0"/><path d="m165.574219 155.015625-8.652344-4.996094v9.992188zm0 0"/><path d="m156.921875 160.011719-8.65625-4.996094v9.996094zm0 0"/><path d="m156.921875 180-8.65625-4.996094v9.992188zm0 0"/><path d="m156.921875 199.988281-8.65625-5v9.996094zm0 0"/><path d="m165.574219 204.984375-8.652344-4.996094v9.992188zm0 0"/><path d="m174.230469 209.980469-8.65625-4.996094v9.992187zm0 0"/><path d="m200.195312 204.984375-8.65625-4.996094v9.992188zm0 0"/><path d="m208.847656 199.988281-8.652344-5v9.996094zm0 0"/><path d="m226.15625 199.988281-8.652344-5v9.996094zm0 0"/><path d="m226.15625 189.992188-8.652344-4.996094v9.992187zm0 0"/><path d="m226.15625 180-8.652344-4.996094v9.992188zm0 0"/><path d="m226.15625 170.007812-8.652344-4.996093v9.992187zm0 0"/><path d="m226.15625 160.011719-8.652344-4.996094v9.996094zm0 0"/><path d="m217.503906 155.015625-8.65625-4.996094v9.992188zm0 0"/><path d="m200.195312 145.023438-8.65625-4.996094v9.992187zm0 0"/><path d="m191.539062 140.027344-8.652343-4.996094v9.992188zm0 0"/><path d="m182.886719 135.03125-8.65625-5v9.996094zm0 0"/><path d="m165.574219 145.023438-8.652344-4.996094v9.992187zm0 0"/><path d="m148.265625 165.011719-8.652344-5v9.996093zm0 0"/><path d="m148.265625 175.003906-8.652344-4.996094v9.992188zm0 0"/><path d="m148.265625 184.996094-8.652344-4.996094v9.992188zm0 0"/><path d="m156.921875 209.980469-8.65625-4.996094v9.992187zm0 0"/><path d="m174.230469 219.972656-8.65625-4.996094v9.992188zm0 0"/><path d="m200.195312 214.976562-8.65625-4.996093v9.992187zm0 0"/><path d="m234.8125 204.984375-8.65625-4.996094v9.992188zm0 0"/><path d="m234.8125 194.988281-8.65625-4.996093v9.996093zm0 0"/><path d="m234.8125 184.996094-8.65625-4.996094v9.992188zm0 0"/><path d="m234.8125 155.015625-8.65625-4.996094v9.992188zm0 0"/><path d="m226.15625 150.019531-8.652344-4.996093v9.992187zm0 0"/><path d="m165.574219 135.03125-8.652344-5v9.996094zm0 0"/><path d="m156.921875 140.027344-8.65625-4.996094v9.992188zm0 0"/><path d="m139.613281 189.992188-8.65625-4.996094v9.992187zm0 0"/><path d="m139.613281 209.980469-8.65625-4.996094v9.992187zm0 0"/><path d="m165.574219 224.96875-8.652344-4.996094v9.996094zm0 0"/><path d="m182.886719 234.964844-8.65625-4.996094v9.992188zm0 0"/><path d="m200.195312 224.96875-8.65625-4.996094v9.996094zm0 0"/><path d="m208.847656 219.972656-8.652344-4.996094v9.992188zm0 0"/><path d="m217.503906 214.976562-8.65625-4.996093v9.992187zm0 0"/><path d="m243.464844 180-8.652344-4.996094v9.992188zm0 0"/><path d="m243.464844 170.007812-8.652344-4.996093v9.992187zm0 0"/><path d="m243.464844 150.019531-8.652344-4.996093v9.992187zm0 0"/><path d="m226.15625 140.027344-8.652344-4.996094v9.992188zm0 0"/><path d="m217.503906 135.03125-8.65625-5v9.996094zm0 0"/><path d="m200.195312 125.035156-8.65625-4.996094v9.992188zm0 0"/><path d="m174.230469 120.039062-8.65625-4.996093v9.992187zm0 0"/><path d="m165.574219 125.035156-8.652344-4.996094v9.992188zm0 0"/><path d="m156.921875 130.03125-8.65625-4.996094v9.996094zm0 0"/><path d="m148.265625 135.03125-8.652344-5v9.996094zm0 0"/><path d="m139.613281 140.027344-8.65625-4.996094v9.992188zm0 0"/><path d="m130.957031 175.003906-8.652343-4.996094v9.992188zm0 0"/><path d="m130.957031 184.996094-8.652343-4.996094v9.992188zm0 0"/><path d="m130.957031 214.976562-8.652343-4.996093v9.992187zm0 0"/><path d="m156.921875 229.96875-8.65625-5v9.996094zm0 0"/><path d="m165.574219 234.964844-8.652344-4.996094v9.992188zm0 0"/><path d="m174.230469 239.960938-8.65625-4.996094v9.992187zm0 0"/><path d="m191.539062 239.960938-8.652343-4.996094v9.992187zm0 0"/><path d="m208.847656 229.96875-8.652344-5v9.996094zm0 0"/><path d="m217.503906 224.96875-8.65625-4.996094v9.996094zm0 0"/><path d="m234.8125 214.976562-8.65625-4.996093v9.992187zm0 0"/><path d="m252.121094 204.984375-8.65625-4.996094v9.992188zm0 0"/><path d="m252.121094 184.996094-8.65625-4.996094v9.992188zm0 0"/><path d="m252.121094 175.003906-8.65625-4.996094v9.992188zm0 0"/><path d="m243.464844 140.027344-8.652344-4.996094v9.992188zm0 0"/><path d="m217.503906 125.035156-8.65625-4.996094v9.992188zm0 0"/><path d="m208.847656 120.039062-8.652344-4.996093v9.992187zm0 0"/><path d="m174.230469 110.046875-8.65625-4.996094v9.992188zm0 0"/><path d="m165.574219 115.042969-8.652344-4.996094v9.992187zm0 0"/><path d="m122.304688 170.007812-8.65625-4.996093v9.992187zm0 0"/><path d="m122.304688 189.992188-8.65625-4.996094v9.992187zm0 0"/><path d="m122.304688 199.988281-8.65625-5v9.996094zm0 0"/><path d="m122.304688 209.980469-8.65625-4.996094v9.992187zm0 0"/><path d="m139.613281 229.96875-8.65625-5v9.996094zm0 0"/><path d="m165.574219 244.957031-8.652344-4.996093v9.992187zm0 0"/><path d="m174.230469 249.953125-8.65625-4.996094v9.992188zm0 0"/><path d="m191.539062 249.953125-8.652343-4.996094v9.992188zm0 0"/><path d="m200.195312 244.957031-8.65625-4.996093v9.992187zm0 0"/><path d="m217.503906 234.964844-8.65625-4.996094v9.992188zm0 0"/><path d="m226.15625 229.96875-8.652344-5v9.996094zm0 0"/><path d="m243.464844 219.972656-8.652344-4.996094v9.992188zm0 0"/><path d="m260.777344 189.992188-8.65625-4.996094v9.992187zm0 0"/><path d="m260.777344 160.011719-8.65625-4.996094v9.996094zm0 0"/><path d="m234.8125 125.035156-8.65625-4.996094v9.992188zm0 0"/><path d="m217.503906 115.042969-8.65625-4.996094v9.992187zm0 0"/><path d="m165.574219 105.050781-8.652344-4.996093v9.992187zm0 0"/><path d="m148.265625 244.957031-8.652344-4.996093v9.992187zm0 0"/><path d="m174.230469 259.945312-8.65625-4.996093v9.996093zm0 0"/><path d="m182.886719 264.945312-8.65625-5v9.996094zm0 0"/><path d="m208.847656 249.953125-8.652344-4.996094v9.992188zm0 0"/><path d="m226.15625 239.960938-8.652344-4.996094v9.992187zm0 0"/><path d="m234.8125 234.964844-8.65625-4.996094v9.992188zm0 0"/><path d="m243.464844 229.96875-8.652344-5v9.996094zm0 0"/><path d="m252.121094 224.96875-8.65625-4.996094v9.996094zm0 0"/><path d="m269.429688 184.996094-8.652344-4.996094v9.992188zm0 0"/><path d="m269.429688 175.003906-8.652344-4.996094v9.992188zm0 0"/><path d="m269.429688 165.011719-8.652344-5v9.996093zm0 0"/><path d="m269.429688 145.023438-8.652344-4.996094v9.992187zm0 0"/><path d="m243.464844 120.039062-8.652344-4.996093v9.992187zm0 0"/><path d="m104.992188 189.992188-8.652344-4.996094v9.992187zm0 0"/><path d="m104.992188 199.988281-8.652344-5v9.996094zm0 0"/><path d="m122.304688 239.960938-8.65625-4.996094v9.992187zm0 0"/><path d="m130.957031 244.957031-8.652343-4.996093v9.992187zm0 0"/><path d="m148.265625 254.949219-8.652344-4.996094v9.992187zm0 0"/><path d="m156.921875 259.945312-8.65625-4.996093v9.996093zm0 0"/><path d="m234.8125 244.957031-8.65625-4.996093v9.992187zm0 0"/><path d="m243.464844 239.960938-8.652344-4.996094v9.992187zm0 0"/><path d="m260.777344 229.96875-8.65625-5v9.996094zm0 0"/><path d="m278.085938 189.992188-8.65625-4.996094v9.992187zm0 0"/><path d="m278.085938 170.007812-8.65625-4.996093v9.992187zm0 0"/><path d="m278.085938 150.019531-8.65625-4.996093v9.992187zm0 0"/><path d="m269.429688 125.035156-8.652344-4.996094v9.992188zm0 0"/><path d="m252.121094 115.042969-8.65625-4.996094v9.992187zm0 0"/><path d="m234.8125 105.050781-8.65625-4.996093v9.992187zm0 0"/><path d="m286.738281 175.003906-8.652343-4.996094v9.992188zm0 0"/><path d="m286.738281 165.011719-8.652343-5v9.996093zm0 0"/><path d="m286.738281 155.015625-8.652343-4.996094v9.992188zm0 0"/><path d="m286.738281 145.023438-8.652343-4.996094v9.992187zm0 0"/><path d="m269.429688 115.042969-8.652344-4.996094v9.992187zm0 0"/><path d="m260.777344 110.046875-8.65625-4.996094v9.992188zm0 0"/><path d="m243.464844 100.054688-8.652344-5v9.996093zm0 0"/><path d="m234.8125 95.054688-8.65625-4.996094v9.996094zm0 0"/><path d="m295.394531 160.011719-8.65625-4.996094v9.996094zm0 0"/></g></svg>