<svg height="360pt" viewBox="0 0 360 360" width="360pt" xmlns="http://www.w3.org/2000/svg"><path d="m0 0h360v360h-360z" fill="#fff"/><g fill="#800080"><path d="m168.707031 176.089844 6.777344-3.914063v7.824219zm0 0"/><path d="m168.707031 183.910156 6.777344-3.910156v7.824219zm0 0"/><path d="m161.933594 172.175781 6.773437-3.910156v7.824219zm0 0"/><path d="m161.933594 180 6.773437-3.910156v7.820312zm0 0"/><path d="m161.933594 187.824219 6.773437-3.914063v7.824219zm0 0"/><path d="m155.160156 176.089844 6.773438-3.914063v7.824219zm0 0"/><path d="m155.160156 191.734375 6.773438-3.910156v7.820312zm0 0"/><path d="m175.484375 148.707031 6.773437-3.910156v7.820313zm0 0"/><path d="m168.707031 152.617188 6.777344-3.910157v7.824219zm0 0"/><path d="m148.382812 172.175781 6.777344-3.910156v7.824219zm0 0"/><path d="m148.382812 180 6.777344-3.910156v7.820312zm0 0"/><path d="m148.382812 187.824219 6.777344-3.914063v7.824219zm0 0"/><path d="m209.359375 199.558594 6.773437-3.914063v7.824219zm0 0"/><path d="m209.359375 183.910156 6.773437-3.910156v7.824219zm0 0"/><path d="m209.359375 168.265625 6.773437-3.910156v7.820312zm0 0"/><path d="m209.359375 160.441406 6.773437-3.910156v7.824219zm0 0"/><path d="m168.707031 144.796875 6.777344-3.914063v7.824219zm0 0"/><path d="m161.933594 148.707031 6.773437-3.910156v7.820313zm0 0"/><path d="m155.160156 152.617188 6.773438-3.910157v7.824219zm0 0"/><path d="m148.382812 156.53125 6.777344-3.914062v7.824218zm0 0"/><path d="m141.609375 160.441406 6.773437-3.910156v7.824219zm0 0"/><path d="m141.609375 168.265625 6.773437-3.910156v7.820312zm0 0"/><path d="m141.609375 176.089844 6.773437-3.914063v7.824219zm0 0"/><path d="m141.609375 183.910156 6.773437-3.910156v7.824219zm0 0"/><path d="m141.609375 191.734375 6.773437-3.910156v7.820312zm0 0"/><path d="m141.609375 199.558594 6.773437-3.914063v7.824219zm0 0"/><path d="m148.382812 203.46875 6.777344-3.910156v7.824218zm0 0"/><path d="m216.132812 164.355469 6.777344-3.914063v7.824219zm0 0"/><path d="m216.132812 156.53125 6.777344-3.914062v7.824218zm0 0"/><path d="m209.359375 152.617188 6.773437-3.910157v7.824219zm0 0"/><path d="m182.257812 136.972656 6.777344-3.910156v7.820312zm0 0"/><path d="m175.484375 133.0625 6.773437-3.914062v7.824218zm0 0"/><path d="m168.707031 136.972656 6.777344-3.910156v7.820312zm0 0"/><path d="m161.933594 140.882812 6.773437-3.910156v7.824219zm0 0"/><path d="m148.382812 148.707031 6.777344-3.910156v7.820313zm0 0"/><path d="m141.609375 152.617188 6.773437-3.910157v7.824219zm0 0"/><path d="m134.832031 156.53125 6.777344-3.914062v7.824218zm0 0"/><path d="m134.832031 164.355469 6.777344-3.914063v7.824219zm0 0"/><path d="m155.160156 215.203125 6.773438-3.910156v7.824219zm0 0"/><path d="m209.359375 207.382812 6.773437-3.914062v7.824219zm0 0"/><path d="m222.910156 168.265625 6.773438-3.910156v7.820312zm0 0"/><path d="m222.910156 160.441406 6.773438-3.910156v7.824219zm0 0"/><path d="m216.132812 148.707031 6.777344-3.910156v7.820313zm0 0"/><path d="m209.359375 144.796875 6.773437-3.914063v7.824219zm0 0"/><path d="m202.582031 140.882812 6.777344-3.910156v7.824219zm0 0"/><path d="m195.808594 136.972656 6.773437-3.910156v7.820312zm0 0"/><path d="m175.484375 125.238281 6.773437-3.910156v7.820313zm0 0"/><path d="m161.933594 133.0625 6.773437-3.914062v7.824218zm0 0"/><path d="m155.160156 136.972656 6.773438-3.910156v7.820312zm0 0"/><path d="m128.058594 152.617188 6.773437-3.910157v7.824219zm0 0"/><path d="m128.058594 168.265625 6.773437-3.910156v7.820312zm0 0"/><path d="m155.160156 223.027344 6.773438-3.910156v7.820312zm0 0"/><path d="m175.484375 234.761719 6.773437-3.910157v7.820313zm0 0"/><path d="m189.035156 226.9375 6.773438-3.910156v7.824218zm0 0"/><path d="m229.683594 211.292969 6.773437-3.910157v7.820313zm0 0"/><path d="m229.683594 203.46875 6.773437-3.910156v7.824218zm0 0"/><path d="m229.683594 195.644531 6.773437-3.910156v7.824219zm0 0"/><path d="m229.683594 180 6.773437-3.910156v7.820312zm0 0"/><path d="m229.683594 172.175781 6.773437-3.910156v7.824219zm0 0"/><path d="m229.683594 164.355469 6.773437-3.914063v7.824219zm0 0"/><path d="m229.683594 156.53125 6.773437-3.914062v7.824218zm0 0"/><path d="m229.683594 148.707031 6.773437-3.910156v7.820313zm0 0"/><path d="m216.132812 140.882812 6.777344-3.910156v7.824219zm0 0"/><path d="m202.582031 133.0625 6.777344-3.914062v7.824218zm0 0"/><path d="m128.058594 144.796875 6.773437-3.914063v7.824219zm0 0"/><path d="m121.285156 148.707031 6.773438-3.910156v7.820313zm0 0"/><path d="m121.285156 172.175781 6.773438-3.910156v7.824219zm0 0"/><path d="m121.285156 180 6.773438-3.910156v7.820312zm0 0"/><path d="m121.285156 187.824219 6.773438-3.914063v7.824219zm0 0"/><path d="m189.035156 234.761719 6.773438-3.910157v7.820313zm0 0"/><path d="m195.808594 230.851562 6.773437-3.914062v7.824219zm0 0"/><path d="m236.457031 207.382812 6.777344-3.914062v7.824219zm0 0"/><path d="m236.457031 199.558594 6.777344-3.914063v7.824219zm0 0"/><path d="m236.457031 191.734375 6.777344-3.910156v7.820312zm0 0"/><path d="m236.457031 183.910156 6.777344-3.910156v7.824219zm0 0"/><path d="m236.457031 160.441406 6.777344-3.910156v7.824219zm0 0"/><path d="m236.457031 152.617188 6.777344-3.910157v7.824219zm0 0"/><path d="m216.132812 133.0625 6.777344-3.914062v7.824218zm0 0"/><path d="m209.359375 129.148438 6.773437-3.910157v7.824219zm0 0"/><path d="m175.484375 109.59375 6.773437-3.914062v7.824218zm0 0"/><path d="m168.707031 113.503906 6.777344-3.910156v7.820312zm0 0"/><path d="m148.382812 125.238281 6.777344-3.910156v7.820313zm0 0"/><path d="m141.609375 129.148438 6.773437-3.910157v7.824219zm0 0"/><path d="m128.058594 136.972656 6.773437-3.910156v7.820312zm0 0"/><path d="m114.507812 144.796875 6.777344-3.914063v7.824219zm0 0"/><path d="m114.507812 152.617188 6.777344-3.910157v7.824219zm0 0"/><path d="m114.507812 168.265625 6.777344-3.910156v7.820312zm0 0"/><path d="m114.507812 183.910156 6.777344-3.910156v7.824219zm0 0"/><path d="m134.832031 226.9375 6.777344-3.910156v7.824218zm0 0"/><path d="m141.609375 230.851562 6.773437-3.914062v7.824219zm0 0"/><path d="m195.808594 238.671875 6.773437-3.910156v7.824219zm0 0"/><path d="m202.582031 234.761719 6.777344-3.910157v7.820313zm0 0"/><path d="m243.234375 195.644531 6.773437-3.910156v7.824219zm0 0"/><path d="m243.234375 187.824219 6.773437-3.914063v7.824219zm0 0"/><path d="m243.234375 172.175781 6.773437-3.910156v7.824219zm0 0"/><path d="m229.683594 133.0625 6.773437-3.914062v7.824218zm0 0"/><path d="m216.132812 125.238281 6.777344-3.910156v7.820313zm0 0"/><path d="m209.359375 121.328125 6.773437-3.914063v7.824219zm0 0"/><path d="m202.582031 117.414062 6.777344-3.910156v7.824219zm0 0"/><path d="m189.035156 109.59375 6.773438-3.914062v7.824218zm0 0"/><path d="m175.484375 101.769531 6.773437-3.914062v7.824219zm0 0"/><path d="m168.707031 105.679688 6.777344-3.910157v7.824219zm0 0"/><path d="m148.382812 117.414062 6.777344-3.910156v7.824219zm0 0"/><path d="m141.609375 121.328125 6.773437-3.914063v7.824219zm0 0"/><path d="m134.832031 125.238281 6.777344-3.910156v7.820313zm0 0"/><path d="m128.058594 129.148438 6.773437-3.910157v7.824219zm0 0"/><path d="m107.734375 164.355469 6.773437-3.914063v7.824219zm0 0"/><path d="m107.734375 180 6.773437-3.910156v7.820312zm0 0"/><path d="m107.734375 187.824219 6.773437-3.914063v7.824219zm0 0"/><path d="m155.160156 246.496094 6.773438-3.910156v7.820312zm0 0"/><path d="m202.582031 242.585938 6.777344-3.914063v7.824219zm0 0"/><path d="m209.359375 238.671875 6.773437-3.910156v7.824219zm0 0"/><path d="m216.132812 234.761719 6.777344-3.910157v7.820313zm0 0"/><path d="m222.910156 230.851562 6.773438-3.914062v7.824219zm0 0"/><path d="m229.683594 226.9375 6.773437-3.910156v7.824218zm0 0"/><path d="m250.007812 207.382812 6.777344-3.914062v7.824219zm0 0"/><path d="m250.007812 160.441406 6.777344-3.910156v7.824219zm0 0"/><path d="m250.007812 144.796875 6.777344-3.914063v7.824219zm0 0"/><path d="m250.007812 136.972656 6.777344-3.910156v7.820312zm0 0"/><path d="m243.234375 133.0625 6.773437-3.914062v7.824218zm0 0"/><path d="m236.457031 129.148438 6.777344-3.910157v7.824219zm0 0"/><path d="m216.132812 117.414062 6.777344-3.910156v7.824219zm0 0"/><path d="m209.359375 113.503906 6.773437-3.910156v7.820312zm0 0"/><path d="m202.582031 109.59375 6.777344-3.914062v7.824218zm0 0"/><path d="m195.808594 105.679688 6.773437-3.910157v7.824219zm0 0"/><path d="m168.707031 97.855469 6.777344-3.910157v7.824219zm0 0"/><path d="m141.609375 113.503906 6.773437-3.910156v7.820312zm0 0"/><path d="m128.058594 121.328125 6.773437-3.914063v7.824219zm0 0"/><path d="m100.957031 144.796875 6.777344-3.914063v7.824219zm0 0"/><path d="m100.957031 160.441406 6.777344-3.910156v7.824219zm0 0"/><path d="m100.957031 168.265625 6.777344-3.910156v7.820312zm0 0"/><path d="m100.957031 191.734375 6.777344-3.910156v7.820312zm0 0"/><path d="m216.132812 242.585938 6.777344-3.914063v7.824219zm0 0"/><path d="m229.683594 234.761719 6.773437-3.910157v7.820313zm0 0"/><path d="m236.457031 230.851562 6.777344-3.914062v7.824219zm0 0"/><path d="m256.785156 211.292969 6.773438-3.910157v7.820313zm0 0"/><path d="m256.785156 203.46875 6.773438-3.910156v7.824218zm0 0"/><path d="m256.785156 187.824219 6.773438-3.914063v7.824219zm0 0"/><path d="m256.785156 172.175781 6.773438-3.910156v7.824219zm0 0"/><path d="m256.785156 164.355469 6.773438-3.914063v7.824219zm0 0"/><path d="m256.785156 156.53125 6.773438-3.914062v7.824218zm0 0"/><path d="m256.785156 148.707031 6.773438-3.910156v7.820313zm0 0"/><path d="m256.785156 140.882812 6.773438-3.910156v7.824219zm0 0"/><path d="m256.785156 133.0625 6.773438-3.914062v7.824218zm0 0"/><path d="m250.007812 129.148438 6.777344-3.910157v7.824219zm0 0"/><path d="m216.132812 109.59375 6.777344-3.914062v7.824218zm0 0"/><path d="m209.359375 105.679688 6.773437-3.910157v7.824219zm0 0"/><path d="m202.582031 101.769531 6.777344-3.914062v7.824219zm0 0"/><path d="m141.609375 105.679688 6.773437-3.910157v7.824219zm0 0"/><path d="m134.832031 109.59375 6.777344-3.914062v7.824218zm0 0"/><path d="m94.183594 156.53125 6.773437-3.914062v7.824218zm0 0"/><path d="m94.183594 187.824219 6.773437-3.914063v7.824219zm0 0"/><path d="m94.183594 211.292969 6.773437-3.910157v7.820313zm0 0"/><path d="m94.183594 226.9375 6.773437-3.910156v7.824218zm0 0"/><path d="m134.832031 250.40625 6.777344-3.910156v7.824218zm0 0"/><path d="m141.609375 254.320312 6.773437-3.914062v7.824219zm0 0"/><path d="m216.132812 250.40625 6.777344-3.910156v7.824218zm0 0"/><path d="m222.910156 246.496094 6.773438-3.910156v7.820312zm0 0"/><path d="m229.683594 242.585938 6.773437-3.914063v7.824219zm0 0"/><path d="m263.558594 199.558594 6.773437-3.914063v7.824219zm0 0"/><path d="m263.558594 191.734375 6.773437-3.910156v7.820312zm0 0"/><path d="m263.558594 183.910156 6.773437-3.910156v7.824219zm0 0"/><path d="m263.558594 176.089844 6.773437-3.914063v7.824219zm0 0"/><path d="m263.558594 168.265625 6.773437-3.910156v7.820312zm0 0"/><path d="m263.558594 160.441406 6.773437-3.910156v7.824219zm0 0"/><path d="m263.558594 144.796875 6.773437-3.914063v7.824219zm0 0"/><path d="m263.558594 136.972656 6.773437-3.910156v7.820312zm0 0"/><path d="m263.558594 129.148438 6.773437-3.910157v7.824219zm0 0"/><path d="m256.785156 125.238281 6.773438-3.910156v7.820313zm0 0"/><path d="m236.457031 113.503906 6.777344-3.910156v7.820312zm0 0"/><path d="m216.132812 101.769531 6.777344-3.914062v7.824219zm0 0"/><path d="m87.410156 160.441406 6.773438-3.910156v7.824219zm0 0"/><path d="m121.285156 250.40625 6.773438-3.910156v7.824218zm0 0"/><path d="m128.058594 254.320312 6.773437-3.914062v7.824219zm0 0"/><path d="m134.832031 258.230469 6.777344-3.910157v7.824219zm0 0"/><path d="m216.132812 258.230469 6.777344-3.910157v7.824219zm0 0"/><path d="m270.332031 187.824219 6.777344-3.914063v7.824219zm0 0"/><path d="m270.332031 180 6.777344-3.910156v7.820312zm0 0"/><path d="m270.332031 156.53125 6.777344-3.914062v7.824218zm0 0"/><path d="m270.332031 148.707031 6.777344-3.910156v7.820313zm0 0"/><path d="m270.332031 140.882812 6.777344-3.910156v7.824219zm0 0"/><path d="m270.332031 133.0625 6.777344-3.914062v7.824218zm0 0"/><path d="m243.234375 109.59375 6.773437-3.914062v7.824218zm0 0"/><path d="m80.632812 219.117188 6.777344-3.914063v7.824219zm0 0"/><path d="m87.410156 238.671875 6.773438-3.910156v7.824219zm0 0"/><path d="m121.285156 258.230469 6.773438-3.910157v7.824219zm0 0"/><path d="m128.058594 262.144531 6.773437-3.914062v7.824219zm0 0"/><path d="m277.109375 191.734375 6.773437-3.910156v7.820312zm0 0"/><path d="m277.109375 152.617188 6.773437-3.910157v7.824219zm0 0"/><path d="m277.109375 144.796875 6.773437-3.914063v7.824219zm0 0"/><path d="m277.109375 136.972656 6.773437-3.910156v7.820312zm0 0"/><path d="m73.859375 223.027344 6.773437-3.910156v7.820312zm0 0"/><path d="m73.859375 230.851562 6.773437-3.914062v7.824219zm0 0"/><path d="m94.183594 250.40625 6.773437-3.910156v7.824218zm0 0"/><path d="m107.734375 258.230469 6.773437-3.910157v7.824219zm0 0"/><path d="m114.507812 262.144531 6.777344-3.914062v7.824219zm0 0"/><path d="m121.285156 266.054688 6.773438-3.910157v7.820313zm0 0"/><path d="m128.058594 269.964844 6.773437-3.910156v7.824218zm0 0"/><path d="m283.882812 156.53125 6.777344-3.914062v7.824218zm0 0"/><path d="m283.882812 140.882812 6.777344-3.910156v7.824219zm0 0"/><path d="m67.082031 226.9375 6.777344-3.910156v7.824218zm0 0"/><path d="m107.734375 266.054688 6.773437-3.910157v7.820313zm0 0"/><path d="m60.308594 230.851562 6.773437-3.914062v7.824219zm0 0"/><path d="m80.632812 258.230469 6.777344-3.910157v7.824219zm0 0"/><path d="m100.957031 269.964844 6.777344-3.910156v7.824218zm0 0"/><path d="m189.035156 180-6.777344-3.910156v7.820312zm0 0"/><path d="m182.257812 183.910156-6.773437-3.910156v7.824219zm0 0"/><path d="m195.808594 183.910156-6.773438-3.910156v7.824219zm0 0"/><path d="m195.808594 176.089844-6.773438-3.914063v7.824219zm0 0"/><path d="m175.484375 180-6.777344-3.910156v7.820312zm0 0"/><path d="m175.484375 187.824219-6.777344-3.914063v7.824219zm0 0"/><path d="m182.257812 191.734375-6.773437-3.910156v7.820312zm0 0"/><path d="m189.035156 187.824219-6.777344-3.914063v7.824219zm0 0"/><path d="m202.582031 172.175781-6.773437-3.910156v7.824219zm0 0"/><path d="m189.035156 164.355469-6.777344-3.914063v7.824219zm0 0"/><path d="m168.707031 191.734375-6.773437-3.910156v7.820312zm0 0"/><path d="m175.484375 195.644531-6.777344-3.910156v7.824219zm0 0"/><path d="m182.257812 199.558594-6.773437-3.914063v7.824219zm0 0"/><path d="m189.035156 195.644531-6.777344-3.910156v7.824219zm0 0"/><path d="m195.808594 191.734375-6.773438-3.910156v7.820312zm0 0"/><path d="m209.359375 176.089844-6.777344-3.914063v7.824219zm0 0"/><path d="m209.359375 168.265625-6.777344-3.910156v7.820312zm0 0"/><path d="m202.582031 164.355469-6.773437-3.914063v7.824219zm0 0"/><path d="m189.035156 156.53125-6.777344-3.914062v7.824218zm0 0"/><path d="m182.257812 152.617188-6.773437-3.910157v7.824219zm0 0"/><path d="m161.933594 172.175781-6.773438-3.910156v7.824219zm0 0"/><path d="m161.933594 187.824219-6.773438-3.914063v7.824219zm0 0"/><path d="m175.484375 203.46875-6.777344-3.910156v7.824218zm0 0"/><path d="m182.257812 207.382812-6.773437-3.914062v7.824219zm0 0"/><path d="m189.035156 203.46875-6.777344-3.910156v7.824218zm0 0"/><path d="m195.808594 199.558594-6.773438-3.914063v7.824219zm0 0"/><path d="m216.132812 195.644531-6.773437-3.910156v7.824219zm0 0"/><path d="m216.132812 187.824219-6.773437-3.914063v7.824219zm0 0"/><path d="m216.132812 180-6.773437-3.910156v7.820312zm0 0"/><path d="m202.582031 156.53125-6.773437-3.914062v7.824218zm0 0"/><path d="m175.484375 148.707031-6.777344-3.910156v7.820313zm0 0"/><path d="m155.160156 160.441406-6.777344-3.910156v7.824219zm0 0"/><path d="m155.160156 191.734375-6.777344-3.910156v7.820312zm0 0"/><path d="m155.160156 199.558594-6.777344-3.914063v7.824219zm0 0"/><path d="m168.707031 207.382812-6.773437-3.914062v7.824219zm0 0"/><path d="m175.484375 211.292969-6.777344-3.910157v7.820313zm0 0"/><path d="m182.257812 215.203125-6.773437-3.910156v7.824219zm0 0"/><path d="m189.035156 211.292969-6.777344-3.910157v7.820313zm0 0"/><path d="m195.808594 207.382812-6.773438-3.914062v7.824219zm0 0"/><path d="m222.910156 199.558594-6.777344-3.914063v7.824219zm0 0"/><path d="m222.910156 183.910156-6.777344-3.910156v7.824219zm0 0"/><path d="m222.910156 176.089844-6.777344-3.914063v7.824219zm0 0"/><path d="m222.910156 168.265625-6.777344-3.910156v7.820312zm0 0"/><path d="m202.582031 148.707031-6.773437-3.910156v7.820313zm0 0"/><path d="m182.257812 136.972656-6.773437-3.910156v7.820312zm0 0"/><path d="m175.484375 140.882812-6.777344-3.910156v7.824219zm0 0"/><path d="m168.707031 144.796875-6.773437-3.914063v7.824219zm0 0"/><path d="m148.382812 156.53125-6.773437-3.914062v7.824218zm0 0"/><path d="m148.382812 164.355469-6.773437-3.914063v7.824219zm0 0"/><path d="m148.382812 172.175781-6.773437-3.910156v7.824219zm0 0"/><path d="m148.382812 180-6.773437-3.910156v7.820312zm0 0"/><path d="m148.382812 187.824219-6.773437-3.914063v7.824219zm0 0"/><path d="m148.382812 195.644531-6.773437-3.910156v7.824219zm0 0"/><path d="m148.382812 203.46875-6.773437-3.910156v7.824218zm0 0"/><path d="m155.160156 207.382812-6.777344-3.914062v7.824219zm0 0"/><path d="m161.933594 211.292969-6.773438-3.910157v7.820313zm0 0"/><path d="m168.707031 215.203125-6.773437-3.910156v7.824219zm0 0"/><path d="m175.484375 219.117188-6.777344-3.914063v7.824219zm0 0"/><path d="m182.257812 223.027344-6.773437-3.910156v7.820312zm0 0"/><path d="m189.035156 219.117188-6.777344-3.914063v7.824219zm0 0"/><path d="m195.808594 215.203125-6.773438-3.910156v7.824219zm0 0"/><path d="m202.582031 211.292969-6.773437-3.910157v7.820313zm0 0"/><path d="m229.683594 203.46875-6.773438-3.910156v7.824218zm0 0"/><path d="m229.683594 195.644531-6.773438-3.910156v7.824219zm0 0"/><path d="m229.683594 187.824219-6.773438-3.914063v7.824219zm0 0"/><path d="m229.683594 180-6.773438-3.910156v7.820312zm0 0"/><path d="m229.683594 172.175781-6.773438-3.910156v7.824219zm0 0"/><path d="m229.683594 164.355469-6.773438-3.914063v7.824219zm0 0"/><path d="m209.359375 144.796875-6.777344-3.914063v7.824219zm0 0"/><path d="m202.582031 140.882812-6.773437-3.910156v7.824219zm0 0"/><path d="m195.808594 136.972656-6.773438-3.910156v7.820312zm0 0"/><path d="m189.035156 133.0625-6.777344-3.914062v7.824218zm0 0"/><path d="m182.257812 129.148438-6.773437-3.910157v7.824219zm0 0"/><path d="m175.484375 133.0625-6.777344-3.914062v7.824218zm0 0"/><path d="m168.707031 136.972656-6.773437-3.910156v7.820312zm0 0"/><path d="m161.933594 140.882812-6.773438-3.910156v7.824219zm0 0"/><path d="m141.609375 152.617188-6.777344-3.910157v7.824219zm0 0"/><path d="m141.609375 160.441406-6.777344-3.910156v7.824219zm0 0"/><path d="m141.609375 168.265625-6.777344-3.910156v7.820312zm0 0"/><path d="m141.609375 176.089844-6.777344-3.914063v7.824219zm0 0"/><path d="m141.609375 183.910156-6.777344-3.910156v7.824219zm0 0"/><path d="m141.609375 191.734375-6.777344-3.910156v7.820312zm0 0"/><path d="m141.609375 207.382812-6.777344-3.914062v7.824219zm0 0"/><path d="m148.382812 211.292969-6.773437-3.910157v7.820313zm0 0"/><path d="m155.160156 215.203125-6.777344-3.910156v7.824219zm0 0"/><path d="m161.933594 219.117188-6.773438-3.914063v7.824219zm0 0"/><path d="m168.707031 223.027344-6.773437-3.910156v7.820312zm0 0"/><path d="m175.484375 226.9375-6.777344-3.910156v7.824218zm0 0"/><path d="m182.257812 230.851562-6.773437-3.914062v7.824219zm0 0"/><path d="m189.035156 226.9375-6.777344-3.910156v7.824218zm0 0"/><path d="m195.808594 223.027344-6.773438-3.910156v7.820312zm0 0"/><path d="m202.582031 219.117188-6.773437-3.914063v7.824219zm0 0"/><path d="m209.359375 215.203125-6.777344-3.910156v7.824219zm0 0"/><path d="m216.132812 211.292969-6.773437-3.910157v7.820313zm0 0"/><path d="m222.910156 207.382812-6.777344-3.914062v7.824219zm0 0"/><path d="m236.457031 207.382812-6.773437-3.914062v7.824219zm0 0"/><path d="m236.457031 199.558594-6.773437-3.914063v7.824219zm0 0"/><path d="m236.457031 191.734375-6.773437-3.910156v7.820312zm0 0"/><path d="m236.457031 183.910156-6.773437-3.910156v7.824219zm0 0"/><path d="m236.457031 176.089844-6.773437-3.914063v7.824219zm0 0"/><path d="m236.457031 160.441406-6.773437-3.910156v7.824219zm0 0"/><path d="m236.457031 152.617188-6.773437-3.910157v7.824219zm0 0"/><path d="m222.910156 144.796875-6.777344-3.914063v7.824219zm0 0"/><path d="m216.132812 140.882812-6.773437-3.910156v7.824219zm0 0"/><path d="m209.359375 136.972656-6.777344-3.910156v7.820312zm0 0"/><path d="m202.582031 133.0625-6.773437-3.914062v7.824218zm0 0"/><path d="m195.808594 129.148438-6.773438-3.910157v7.824219zm0 0"/><path d="m189.035156 125.238281-6.777344-3.910156v7.820313zm0 0"/><path d="m182.257812 121.328125-6.773437-3.914063v7.824219zm0 0"/><path d="m175.484375 125.238281-6.777344-3.910156v7.820313zm0 0"/><path d="m168.707031 129.148438-6.773437-3.910157v7.824219zm0 0"/><path d="m161.933594 133.0625-6.773438-3.914062v7.824218zm0 0"/><path d="m148.382812 140.882812-6.773437-3.910156v7.824219zm0 0"/><path d="m134.832031 156.53125-6.773437-3.914062v7.824218zm0 0"/><path d="m134.832031 164.355469-6.773437-3.914063v7.824219zm0 0"/><path d="m134.832031 172.175781-6.773437-3.910156v7.824219zm0 0"/><path d="m134.832031 180-6.773437-3.910156v7.820312zm0 0"/><path d="m134.832031 187.824219-6.773437-3.914063v7.824219zm0 0"/><path d="m134.832031 195.644531-6.773437-3.910156v7.824219zm0 0"/><path d="m141.609375 215.203125-6.777344-3.910156v7.824219zm0 0"/><path d="m148.382812 219.117188-6.773437-3.914063v7.824219zm0 0"/><path d="m155.160156 223.027344-6.777344-3.910156v7.820312zm0 0"/><path d="m161.933594 226.9375-6.773438-3.910156v7.824218zm0 0"/><path d="m168.707031 230.851562-6.773437-3.914062v7.824219zm0 0"/><path d="m175.484375 234.761719-6.777344-3.910157v7.820313zm0 0"/><path d="m189.035156 234.761719-6.777344-3.910157v7.820313zm0 0"/><path d="m195.808594 230.851562-6.773438-3.914062v7.824219zm0 0"/><path d="m202.582031 226.9375-6.773437-3.910156v7.824218zm0 0"/><path d="m209.359375 223.027344-6.777344-3.910156v7.820312zm0 0"/><path d="m216.132812 219.117188-6.773437-3.914063v7.824219zm0 0"/><path d="m222.910156 215.203125-6.777344-3.910156v7.824219zm0 0"/><path d="m229.683594 211.292969-6.773438-3.910157v7.820313zm0 0"/><path d="m243.234375 211.292969-6.777344-3.910157v7.820313zm0 0"/><path d="m243.234375 203.46875-6.777344-3.910156v7.824218zm0 0"/><path d="m243.234375 172.175781-6.777344-3.910156v7.824219zm0 0"/><path d="m243.234375 164.355469-6.777344-3.914063v7.824219zm0 0"/><path d="m243.234375 148.707031-6.777344-3.910156v7.820313zm0 0"/><path d="m236.457031 144.796875-6.773437-3.914063v7.824219zm0 0"/><path d="m222.910156 136.972656-6.777344-3.910156v7.820312zm0 0"/><path d="m216.132812 133.0625-6.773437-3.914062v7.824218zm0 0"/><path d="m209.359375 129.148438-6.777344-3.910157v7.824219zm0 0"/><path d="m202.582031 125.238281-6.773437-3.910156v7.820313zm0 0"/><path d="m195.808594 121.328125-6.773438-3.914063v7.824219zm0 0"/><path d="m189.035156 117.414062-6.777344-3.910156v7.824219zm0 0"/><path d="m182.257812 113.503906-6.773437-3.910156v7.820312zm0 0"/><path d="m168.707031 121.328125-6.773437-3.914063v7.824219zm0 0"/><path d="m161.933594 125.238281-6.773438-3.910156v7.820313zm0 0"/><path d="m155.160156 129.148438-6.777344-3.910157v7.824219zm0 0"/><path d="m141.609375 136.972656-6.777344-3.910156v7.820312zm0 0"/><path d="m134.832031 140.882812-6.773437-3.910156v7.824219zm0 0"/><path d="m128.058594 144.796875-6.773438-3.914063v7.824219zm0 0"/><path d="m128.058594 168.265625-6.773438-3.910156v7.820312zm0 0"/><path d="m128.058594 176.089844-6.773438-3.914063v7.824219zm0 0"/><path d="m128.058594 183.910156-6.773438-3.910156v7.824219zm0 0"/><path d="m128.058594 191.734375-6.773438-3.910156v7.820312zm0 0"/><path d="m128.058594 199.558594-6.773438-3.914063v7.824219zm0 0"/><path d="m128.058594 207.382812-6.773438-3.914062v7.824219zm0 0"/><path d="m141.609375 223.027344-6.777344-3.910156v7.820312zm0 0"/><path d="m148.382812 226.9375-6.773437-3.910156v7.824218zm0 0"/><path d="m155.160156 230.851562-6.777344-3.914062v7.824219zm0 0"/><path d="m161.933594 234.761719-6.773438-3.910157v7.820313zm0 0"/><path d="m168.707031 238.671875-6.773437-3.910156v7.824219zm0 0"/><path d="m195.808594 238.671875-6.773438-3.910156v7.824219zm0 0"/><path d="m216.132812 226.9375-6.773437-3.910156v7.824218zm0 0"/><path d="m222.910156 223.027344-6.777344-3.910156v7.820312zm0 0"/><path d="m229.683594 219.117188-6.773438-3.914063v7.824219zm0 0"/><path d="m236.457031 215.203125-6.773437-3.910156v7.824219zm0 0"/><path d="m250.007812 215.203125-6.773437-3.910156v7.824219zm0 0"/><path d="m250.007812 183.910156-6.773437-3.910156v7.824219zm0 0"/><path d="m250.007812 176.089844-6.773437-3.914063v7.824219zm0 0"/><path d="m236.457031 136.972656-6.773437-3.910156v7.820312zm0 0"/><path d="m229.683594 133.0625-6.773438-3.914062v7.824218zm0 0"/><path d="m222.910156 129.148438-6.777344-3.910157v7.824219zm0 0"/><path d="m216.132812 125.238281-6.773437-3.910156v7.820313zm0 0"/><path d="m209.359375 121.328125-6.777344-3.914063v7.824219zm0 0"/><path d="m202.582031 117.414062-6.773437-3.910156v7.824219zm0 0"/><path d="m182.257812 105.679688-6.773437-3.910157v7.824219zm0 0"/><path d="m155.160156 121.328125-6.777344-3.914063v7.824219zm0 0"/><path d="m121.285156 140.882812-6.777344-3.910156v7.824219zm0 0"/><path d="m121.285156 148.707031-6.777344-3.910156v7.820313zm0 0"/><path d="m121.285156 156.53125-6.777344-3.914062v7.824218zm0 0"/><path d="m121.285156 164.355469-6.777344-3.914063v7.824219zm0 0"/><path d="m121.285156 180-6.777344-3.910156v7.820312zm0 0"/><path d="m121.285156 187.824219-6.777344-3.914063v7.824219zm0 0"/><path d="m121.285156 211.292969-6.777344-3.910157v7.820313zm0 0"/><path d="m121.285156 219.117188-6.777344-3.914063v7.824219zm0 0"/><path d="m141.609375 230.851562-6.777344-3.914062v7.824219zm0 0"/><path d="m168.707031 246.496094-6.773437-3.910156v7.820312zm0 0"/><path d="m175.484375 250.40625-6.777344-3.910156v7.824218zm0 0"/><path d="m195.808594 246.496094-6.773438-3.910156v7.820312zm0 0"/><path d="m202.582031 242.585938-6.773437-3.914063v7.824219zm0 0"/><path d="m209.359375 238.671875-6.777344-3.910156v7.824219zm0 0"/><path d="m222.910156 230.851562-6.777344-3.914062v7.824219zm0 0"/><path d="m236.457031 223.027344-6.773437-3.910156v7.820312zm0 0"/><path d="m243.234375 219.117188-6.777344-3.914063v7.824219zm0 0"/><path d="m256.785156 219.117188-6.777344-3.914063v7.824219zm0 0"/><path d="m256.785156 211.292969-6.777344-3.910157v7.820313zm0 0"/><path d="m256.785156 203.46875-6.777344-3.910156v7.824218zm0 0"/><path d="m256.785156 180-6.777344-3.910156v7.820312zm0 0"/><path d="m256.785156 172.175781-6.777344-3.910156v7.824219zm0 0"/><path d="m256.785156 164.355469-6.777344-3.914063v7.824219zm0 0"/><path d="m256.785156 140.882812-6.777344-3.910156v7.824219zm0 0"/><path d="m243.234375 133.0625-6.777344-3.914062v7.824218zm0 0"/><path d="m229.683594 125.238281-6.773438-3.910156v7.820313zm0 0"/><path d="m222.910156 121.328125-6.777344-3.914063v7.824219zm0 0"/><path d="m216.132812 117.414062-6.773437-3.910156v7.824219zm0 0"/><path d="m209.359375 113.503906-6.777344-3.910156v7.820312zm0 0"/><path d="m202.582031 109.59375-6.773437-3.914062v7.824218zm0 0"/><path d="m148.382812 117.414062-6.773437-3.910156v7.824219zm0 0"/><path d="m141.609375 121.328125-6.777344-3.914063v7.824219zm0 0"/><path d="m134.832031 125.238281-6.773437-3.910156v7.820313zm0 0"/><path d="m114.507812 136.972656-6.773437-3.910156v7.820312zm0 0"/><path d="m114.507812 144.796875-6.773437-3.914063v7.824219zm0 0"/><path d="m114.507812 152.617188-6.773437-3.910157v7.824219zm0 0"/><path d="m114.507812 176.089844-6.773437-3.914063v7.824219zm0 0"/><path d="m114.507812 183.910156-6.773437-3.910156v7.824219zm0 0"/><path d="m114.507812 191.734375-6.773437-3.910156v7.820312zm0 0"/><path d="m114.507812 215.203125-6.773437-3.910156v7.824219zm0 0"/><path d="m114.507812 223.027344-6.773437-3.910156v7.820312zm0 0"/><path d="m134.832031 234.761719-6.773437-3.910157v7.820313zm0 0"/><path d="m141.609375 238.671875-6.777344-3.910156v7.824219zm0 0"/><path d="m161.933594 250.40625-6.773438-3.910156v7.824218zm0 0"/><path d="m168.707031 254.320312-6.773437-3.914062v7.824219zm0 0"/><path d="m175.484375 258.230469-6.777344-3.910157v7.824219zm0 0"/><path d="m209.359375 246.496094-6.777344-3.910156v7.820312zm0 0"/><path d="m216.132812 242.585938-6.773437-3.914063v7.824219zm0 0"/><path d="m222.910156 238.671875-6.777344-3.910156v7.824219zm0 0"/><path d="m236.457031 230.851562-6.773437-3.914062v7.824219zm0 0"/><path d="m243.234375 226.9375-6.777344-3.910156v7.824218zm0 0"/><path d="m250.007812 223.027344-6.773437-3.910156v7.820312zm0 0"/><path d="m263.558594 223.027344-6.773438-3.910156v7.820312zm0 0"/><path d="m263.558594 215.203125-6.773438-3.910156v7.824219zm0 0"/><path d="m263.558594 207.382812-6.773438-3.914062v7.824219zm0 0"/><path d="m263.558594 183.910156-6.773438-3.910156v7.824219zm0 0"/><path d="m263.558594 168.265625-6.773438-3.910156v7.820312zm0 0"/><path d="m263.558594 160.441406-6.773438-3.910156v7.824219zm0 0"/><path d="m256.785156 133.0625-6.777344-3.914062v7.824218zm0 0"/><path d="m250.007812 129.148438-6.773437-3.910157v7.824219zm0 0"/><path d="m243.234375 125.238281-6.777344-3.910156v7.820313zm0 0"/><path d="m236.457031 121.328125-6.773437-3.914063v7.824219zm0 0"/><path d="m229.683594 117.414062-6.773438-3.910156v7.824219zm0 0"/><path d="m222.910156 113.503906-6.777344-3.910156v7.820312zm0 0"/><path d="m209.359375 105.679688-6.777344-3.910157v7.824219zm0 0"/><path d="m141.609375 113.503906-6.777344-3.910156v7.820312zm0 0"/><path d="m107.734375 148.707031-6.777344-3.910156v7.820313zm0 0"/><path d="m107.734375 164.355469-6.777344-3.914063v7.824219zm0 0"/><path d="m107.734375 172.175781-6.777344-3.910156v7.824219zm0 0"/><path d="m107.734375 180-6.777344-3.910156v7.820312zm0 0"/><path d="m107.734375 187.824219-6.777344-3.914063v7.824219zm0 0"/><path d="m107.734375 211.292969-6.777344-3.910157v7.820313zm0 0"/><path d="m107.734375 219.117188-6.777344-3.914063v7.824219zm0 0"/><path d="m107.734375 226.9375-6.777344-3.910156v7.824218zm0 0"/><path d="m114.507812 230.851562-6.773437-3.914062v7.824219zm0 0"/><path d="m121.285156 234.761719-6.777344-3.910157v7.820313zm0 0"/><path d="m128.058594 238.671875-6.773438-3.910156v7.824219zm0 0"/><path d="m134.832031 242.585938-6.773437-3.914063v7.824219zm0 0"/><path d="m148.382812 250.40625-6.773437-3.910156v7.824218zm0 0"/><path d="m155.160156 254.320312-6.777344-3.914062v7.824219zm0 0"/><path d="m161.933594 258.230469-6.773438-3.910157v7.824219zm0 0"/><path d="m168.707031 262.144531-6.773437-3.914062v7.824219zm0 0"/><path d="m216.132812 250.40625-6.773437-3.910156v7.824218zm0 0"/><path d="m222.910156 246.496094-6.777344-3.910156v7.820312zm0 0"/><path d="m250.007812 230.851562-6.773437-3.914062v7.824219zm0 0"/><path d="m270.332031 211.292969-6.773437-3.910157v7.820313zm0 0"/><path d="m270.332031 187.824219-6.773437-3.914063v7.824219zm0 0"/><path d="m270.332031 180-6.773437-3.910156v7.820312zm0 0"/><path d="m270.332031 172.175781-6.773437-3.910156v7.824219zm0 0"/><path d="m263.558594 129.148438-6.773438-3.910157v7.824219zm0 0"/><path d="m256.785156 125.238281-6.777344-3.910156v7.820313zm0 0"/><path d="m250.007812 121.328125-6.773437-3.914063v7.824219zm0 0"/><path d="m243.234375 117.414062-6.777344-3.910156v7.824219zm0 0"/><path d="m236.457031 113.503906-6.773437-3.910156v7.820312zm0 0"/><path d="m216.132812 101.769531-6.773437-3.914062v7.824219zm0 0"/><path d="m100.957031 160.441406-6.773437-3.910156v7.824219zm0 0"/><path d="m100.957031 183.910156-6.773437-3.910156v7.824219zm0 0"/><path d="m100.957031 215.203125-6.773437-3.910156v7.824219zm0 0"/><path d="m100.957031 223.027344-6.773437-3.910156v7.820312zm0 0"/><path d="m100.957031 230.851562-6.773437-3.914062v7.824219zm0 0"/><path d="m107.734375 234.761719-6.777344-3.910157v7.820313zm0 0"/><path d="m114.507812 238.671875-6.773437-3.910156v7.824219zm0 0"/><path d="m121.285156 242.585938-6.777344-3.914063v7.824219zm0 0"/><path d="m128.058594 246.496094-6.773438-3.910156v7.820312zm0 0"/><path d="m134.832031 250.40625-6.773437-3.910156v7.824218zm0 0"/><path d="m141.609375 254.320312-6.777344-3.914062v7.824219zm0 0"/><path d="m148.382812 258.230469-6.773437-3.910157v7.824219zm0 0"/><path d="m155.160156 262.144531-6.777344-3.914062v7.824219zm0 0"/><path d="m216.132812 258.230469-6.773437-3.910157v7.824219zm0 0"/><path d="m277.109375 207.382812-6.777344-3.914062v7.824219zm0 0"/><path d="m277.109375 191.734375-6.777344-3.910156v7.820312zm0 0"/><path d="m277.109375 183.910156-6.777344-3.910156v7.824219zm0 0"/><path d="m250.007812 113.503906-6.773437-3.910156v7.820312zm0 0"/><path d="m94.183594 226.9375-6.773438-3.910156v7.824218zm0 0"/><path d="m94.183594 234.761719-6.773438-3.910157v7.820313zm0 0"/><path d="m100.957031 238.671875-6.773437-3.910156v7.824219zm0 0"/><path d="m107.734375 242.585938-6.777344-3.914063v7.824219zm0 0"/><path d="m114.507812 246.496094-6.773437-3.910156v7.820312zm0 0"/><path d="m283.882812 195.644531-6.773437-3.910156v7.824219zm0 0"/><path d="m94.183594 242.585938-6.773438-3.914063v7.824219zm0 0"/><path d="m100.957031 246.496094-6.773437-3.910156v7.820312zm0 0"/><path d="m107.734375 250.40625-6.777344-3.910156v7.824218zm0 0"/><path d="m290.660156 160.441406-6.777344-3.910156v7.824219zm0 0"/><path d="m290.660156 136.972656-6.777344-3.910156v7.820312zm0 0"/><path d="m80.632812 234.761719-6.773437-3.910157v7.820313zm0 0"/><path d="m100.957031 254.320312-6.773437-3.914062v7.824219zm0 0"/><path d="m114.507812 262.144531-6.773437-3.914062v7.824219zm0 0"/><path d="m297.433594 156.53125-6.773438-3.914062v7.824218zm0 0"/><path d="m297.433594 148.707031-6.773438-3.910156v7.820313zm0 0"/><path d="m297.433594 140.882812-6.773438-3.910156v7.824219zm0 0"/><path d="m73.859375 230.851562-6.777344-3.914062v7.824219zm0 0"/><path d="m73.859375 238.671875-6.777344-3.910156v7.824219zm0 0"/><path d="m107.734375 266.054688-6.777344-3.910157v7.820313zm0 0"/></g></svg>