<svg height="360pt" viewBox="0 0 360 360" width="360pt" xmlns="http://www.w3.org/2000/svg"><path d="m0 0h360v360h-360z" fill="#fff"/><g fill="#800080"><path d="m176.480469 180 5.28125-3.050781v6.101562zm0 0"/><path d="m187.042969 186.097656 5.28125-3.046875v6.097657zm0 0"/><path d="m187.042969 180 5.28125-3.050781v6.101562zm0 0"/><path d="m187.042969 173.902344 5.28125-3.050782v6.097657zm0 0"/><path d="m176.480469 167.800781 5.28125-3.046875v6.097656zm0 0"/><path d="m171.199219 170.851562 5.28125-3.050781v6.101563zm0 0"/><path d="m165.914062 173.902344 5.285157-3.050782v6.097657zm0 0"/><path d="m165.914062 186.097656 5.285157-3.046875v6.097657zm0 0"/><path d="m171.199219 189.148438 5.28125-3.050782v6.101563zm0 0"/><path d="m176.480469 192.199219 5.28125-3.050781v6.097656zm0 0"/><path d="m187.042969 167.800781 5.28125-3.046875v6.097656zm0 0"/><path d="m181.761719 164.753906 5.28125-3.050781v6.097656zm0 0"/><path d="m160.632812 176.949219 5.28125-3.046875v6.097656zm0 0"/><path d="m160.632812 183.050781 5.28125-3.050781v6.097656zm0 0"/><path d="m181.761719 195.246094 5.28125-3.046875v6.097656zm0 0"/><path d="m187.042969 192.199219 5.28125-3.050781v6.097656zm0 0"/><path d="m197.605469 192.199219 5.28125-3.050781v6.097656zm0 0"/><path d="m197.605469 186.097656 5.28125-3.046875v6.097657zm0 0"/><path d="m197.605469 173.902344 5.28125-3.050782v6.097657zm0 0"/><path d="m197.605469 167.800781 5.28125-3.046875v6.097656zm0 0"/><path d="m192.324219 164.753906 5.28125-3.050781v6.097656zm0 0"/><path d="m181.761719 158.65625 5.28125-3.050781v6.097656zm0 0"/><path d="m176.480469 155.605469 5.28125-3.050781v6.101562zm0 0"/><path d="m171.199219 158.65625 5.28125-3.050781v6.097656zm0 0"/><path d="m160.632812 164.753906 5.28125-3.050781v6.097656zm0 0"/><path d="m155.351562 167.800781 5.28125-3.046875v6.097656zm0 0"/><path d="m155.351562 173.902344 5.28125-3.050782v6.097657zm0 0"/><path d="m155.351562 186.097656 5.28125-3.046875v6.097657zm0 0"/><path d="m155.351562 192.199219 5.28125-3.050781v6.097656zm0 0"/><path d="m160.632812 195.246094 5.28125-3.046875v6.097656zm0 0"/><path d="m171.199219 201.34375 5.28125-3.046875v6.097656zm0 0"/><path d="m176.480469 204.394531 5.28125-3.050781v6.101562zm0 0"/><path d="m181.761719 201.34375 5.28125-3.046875v6.097656zm0 0"/><path d="m192.324219 195.246094 5.28125-3.046875v6.097656zm0 0"/><path d="m202.886719 195.246094 5.28125-3.046875v6.097656zm0 0"/><path d="m202.886719 183.050781 5.28125-3.050781v6.097656zm0 0"/><path d="m202.886719 176.949219 5.28125-3.046875v6.097656zm0 0"/><path d="m202.886719 164.753906 5.28125-3.050781v6.097656zm0 0"/><path d="m176.480469 149.507812 5.28125-3.050781v6.097657zm0 0"/><path d="m165.914062 155.605469 5.285157-3.050781v6.101562zm0 0"/><path d="m160.632812 158.65625 5.28125-3.050781v6.097656zm0 0"/><path d="m150.070312 164.753906 5.28125-3.050781v6.097656zm0 0"/><path d="m150.070312 195.246094 5.28125-3.046875v6.097656zm0 0"/><path d="m160.632812 201.34375 5.28125-3.046875v6.097656zm0 0"/><path d="m165.914062 204.394531 5.285157-3.050781v6.101562zm0 0"/><path d="m176.480469 210.492188 5.28125-3.046876v6.097657zm0 0"/><path d="m208.167969 192.199219 5.28125-3.050781v6.097656zm0 0"/><path d="m208.167969 167.800781 5.28125-3.046875v6.097656zm0 0"/><path d="m171.199219 146.457031 5.28125-3.050781v6.101562zm0 0"/><path d="m150.070312 158.65625 5.28125-3.050781v6.097656zm0 0"/><path d="m150.070312 201.34375 5.28125-3.046875v6.097656zm0 0"/><path d="m171.199219 213.542969 5.28125-3.050781v6.101562zm0 0"/><path d="m213.449219 195.246094 5.28125-3.046875v6.097656zm0 0"/><path d="m213.449219 183.050781 5.28125-3.050781v6.097656zm0 0"/><path d="m213.449219 176.949219 5.28125-3.046875v6.097656zm0 0"/><path d="m213.449219 164.753906 5.28125-3.050781v6.097656zm0 0"/><path d="m208.167969 155.605469 5.28125-3.050781v6.101562zm0 0"/><path d="m202.886719 152.554688 5.28125-3.046876v6.097657zm0 0"/><path d="m187.042969 143.40625 5.28125-3.046875v6.097656zm0 0"/><path d="m181.761719 140.359375 5.28125-3.050781v6.097656zm0 0"/><path d="m171.199219 140.359375 5.28125-3.050781v6.097656zm0 0"/><path d="m160.632812 146.457031 5.28125-3.050781v6.101562zm0 0"/><path d="m155.351562 149.507812 5.28125-3.050781v6.097657zm0 0"/><path d="m144.789062 155.605469 5.28125-3.050781v6.101562zm0 0"/><path d="m139.507812 164.753906 5.28125-3.050781v6.097656zm0 0"/><path d="m139.507812 170.851562 5.28125-3.050781v6.101563zm0 0"/><path d="m139.507812 189.148438 5.28125-3.050782v6.101563zm0 0"/><path d="m139.507812 195.246094 5.28125-3.046875v6.097656zm0 0"/><path d="m144.789062 204.394531 5.28125-3.050781v6.101562zm0 0"/><path d="m155.351562 210.492188 5.28125-3.046876v6.097657zm0 0"/><path d="m160.632812 213.542969 5.28125-3.050781v6.101562zm0 0"/><path d="m171.199219 219.640625 5.28125-3.046875v6.097656zm0 0"/><path d="m181.761719 219.640625 5.28125-3.046875v6.097656zm0 0"/><path d="m187.042969 216.59375 5.28125-3.050781v6.097656zm0 0"/><path d="m202.886719 207.445312 5.28125-3.050781v6.097657zm0 0"/><path d="m208.167969 204.394531 5.28125-3.050781v6.101562zm0 0"/><path d="m218.730469 192.199219 5.28125-3.050781v6.097656zm0 0"/><path d="m218.730469 186.097656 5.28125-3.046875v6.097657zm0 0"/><path d="m218.730469 173.902344 5.28125-3.050782v6.097657zm0 0"/><path d="m218.730469 167.800781 5.28125-3.046875v6.097656zm0 0"/><path d="m202.886719 146.457031 5.28125-3.050781v6.101562zm0 0"/><path d="m192.324219 140.359375 5.28125-3.050781v6.097656zm0 0"/><path d="m165.914062 137.308594 5.285157-3.046875v6.097656zm0 0"/><path d="m160.632812 140.359375 5.28125-3.050781v6.097656zm0 0"/><path d="m150.070312 146.457031 5.28125-3.050781v6.101562zm0 0"/><path d="m144.789062 149.507812 5.28125-3.050781v6.097657zm0 0"/><path d="m134.226562 173.902344 5.28125-3.050782v6.097657zm0 0"/><path d="m134.226562 186.097656 5.28125-3.046875v6.097657zm0 0"/><path d="m144.789062 210.492188 5.28125-3.046876v6.097657zm0 0"/><path d="m150.070312 213.542969 5.28125-3.050781v6.101562zm0 0"/><path d="m160.632812 219.640625 5.28125-3.046875v6.097656zm0 0"/><path d="m165.914062 222.691406 5.285157-3.050781v6.097656zm0 0"/><path d="m192.324219 219.640625 5.28125-3.046875v6.097656zm0 0"/><path d="m202.886719 213.542969 5.28125-3.050781v6.101562zm0 0"/><path d="m224.011719 201.34375 5.28125-3.046875v6.097656zm0 0"/><path d="m224.011719 195.246094 5.28125-3.046875v6.097656zm0 0"/><path d="m224.011719 183.050781 5.28125-3.050781v6.097656zm0 0"/><path d="m224.011719 176.949219 5.28125-3.046875v6.097656zm0 0"/><path d="m224.011719 164.753906 5.28125-3.050781v6.097656zm0 0"/><path d="m224.011719 158.65625 5.28125-3.050781v6.097656zm0 0"/><path d="m218.730469 149.507812 5.28125-3.050781v6.097657zm0 0"/><path d="m213.449219 146.457031 5.28125-3.050781v6.101562zm0 0"/><path d="m202.886719 140.359375 5.28125-3.050781v6.097656zm0 0"/><path d="m197.605469 137.308594 5.28125-3.046875v6.097656zm0 0"/><path d="m187.042969 131.210938 5.28125-3.050782v6.101563zm0 0"/><path d="m181.761719 128.160156 5.28125-3.046875v6.097657zm0 0"/><path d="m171.199219 128.160156 5.28125-3.046875v6.097657zm0 0"/><path d="m165.914062 131.210938 5.285157-3.050782v6.101563zm0 0"/><path d="m155.351562 137.308594 5.28125-3.046875v6.097656zm0 0"/><path d="m150.070312 140.359375 5.28125-3.050781v6.097656zm0 0"/><path d="m139.507812 146.457031 5.28125-3.050781v6.101562zm0 0"/><path d="m134.226562 149.507812 5.28125-3.050781v6.097657zm0 0"/><path d="m128.945312 158.65625 5.28125-3.050781v6.097656zm0 0"/><path d="m128.945312 164.753906 5.28125-3.050781v6.097656zm0 0"/><path d="m128.945312 176.949219 5.28125-3.046875v6.097656zm0 0"/><path d="m128.945312 183.050781 5.28125-3.050781v6.097656zm0 0"/><path d="m128.945312 195.246094 5.28125-3.046875v6.097656zm0 0"/><path d="m128.945312 201.34375 5.28125-3.046875v6.097656zm0 0"/><path d="m134.226562 210.492188 5.28125-3.046876v6.097657zm0 0"/><path d="m139.507812 213.542969 5.28125-3.050781v6.101562zm0 0"/><path d="m150.070312 219.640625 5.28125-3.046875v6.097656zm0 0"/><path d="m155.351562 222.691406 5.28125-3.050781v6.097656zm0 0"/><path d="m165.914062 228.789062 5.285157-3.050781v6.101563zm0 0"/><path d="m171.199219 231.839844 5.28125-3.050782v6.097657zm0 0"/><path d="m181.761719 231.839844 5.28125-3.050782v6.097657zm0 0"/><path d="m187.042969 228.789062 5.28125-3.050781v6.101563zm0 0"/><path d="m197.605469 222.691406 5.28125-3.050781v6.097656zm0 0"/><path d="m202.886719 219.640625 5.28125-3.046875v6.097656zm0 0"/><path d="m213.449219 213.542969 5.28125-3.050781v6.101562zm0 0"/><path d="m218.730469 210.492188 5.28125-3.046876v6.097657zm0 0"/><path d="m229.292969 210.492188 5.285156-3.046876v6.097657zm0 0"/><path d="m229.292969 192.199219 5.285156-3.050781v6.097656zm0 0"/><path d="m229.292969 186.097656 5.285156-3.046875v6.097657zm0 0"/><path d="m229.292969 173.902344 5.285156-3.050782v6.097657zm0 0"/><path d="m229.292969 167.800781 5.285156-3.046875v6.097656zm0 0"/><path d="m229.292969 149.507812 5.285156-3.050781v6.097657zm0 0"/><path d="m208.167969 137.308594 5.28125-3.046875v6.097656zm0 0"/><path d="m197.605469 131.210938 5.28125-3.050782v6.101563zm0 0"/><path d="m176.480469 119.011719 5.28125-3.046875v6.097656zm0 0"/><path d="m160.632812 128.160156 5.28125-3.046875v6.097657zm0 0"/><path d="m155.351562 131.210938 5.28125-3.050782v6.101563zm0 0"/><path d="m144.789062 137.308594 5.28125-3.046875v6.097656zm0 0"/><path d="m139.507812 140.359375 5.28125-3.050781v6.097656zm0 0"/><path d="m123.664062 149.507812 5.28125-3.050781v6.097657zm0 0"/><path d="m123.664062 173.902344 5.28125-3.050782v6.097657zm0 0"/><path d="m123.664062 186.097656 5.28125-3.046875v6.097657zm0 0"/><path d="m123.664062 210.492188 5.28125-3.046876v6.097657zm0 0"/><path d="m139.507812 219.640625 5.28125-3.046875v6.097656zm0 0"/><path d="m144.789062 222.691406 5.28125-3.050781v6.097656zm0 0"/><path d="m155.351562 228.789062 5.28125-3.050781v6.101563zm0 0"/><path d="m160.632812 231.839844 5.28125-3.050782v6.097657zm0 0"/><path d="m176.480469 240.988281 5.28125-3.050781v6.097656zm0 0"/><path d="m197.605469 228.789062 5.28125-3.050781v6.101563zm0 0"/><path d="m208.167969 222.691406 5.28125-3.050781v6.097656zm0 0"/><path d="m234.578125 201.34375 5.28125-3.046875v6.097656zm0 0"/><path d="m234.578125 158.65625 5.28125-3.050781v6.097656zm0 0"/><path d="m218.730469 137.308594 5.28125-3.046875v6.097656zm0 0"/><path d="m208.167969 131.210938 5.28125-3.050782v6.101563zm0 0"/><path d="m202.886719 128.160156 5.28125-3.046875v6.097657zm0 0"/><path d="m192.324219 122.0625 5.28125-3.050781v6.101562zm0 0"/><path d="m165.914062 119.011719 5.285157-3.046875v6.097656zm0 0"/><path d="m128.945312 140.359375 5.28125-3.050781v6.097656zm0 0"/><path d="m118.382812 164.753906 5.28125-3.050781v6.097656zm0 0"/><path d="m118.382812 176.949219 5.28125-3.046875v6.097656zm0 0"/><path d="m118.382812 183.050781 5.28125-3.050781v6.097656zm0 0"/><path d="m118.382812 195.246094 5.28125-3.046875v6.097656zm0 0"/><path d="m128.945312 219.640625 5.28125-3.046875v6.097656zm0 0"/><path d="m165.914062 240.988281 5.285157-3.050781v6.097656zm0 0"/><path d="m192.324219 237.9375 5.28125-3.050781v6.101562zm0 0"/><path d="m202.886719 231.839844 5.28125-3.050782v6.097657zm0 0"/><path d="m208.167969 228.789062 5.28125-3.050781v6.101563zm0 0"/><path d="m218.730469 222.691406 5.28125-3.050781v6.097656zm0 0"/><path d="m239.859375 216.59375 5.28125-3.050781v6.097656zm0 0"/><path d="m239.859375 210.492188 5.28125-3.046876v6.097657zm0 0"/><path d="m239.859375 198.296875 5.28125-3.050781v6.097656zm0 0"/><path d="m239.859375 192.199219 5.28125-3.050781v6.097656zm0 0"/><path d="m239.859375 186.097656 5.28125-3.046875v6.097657zm0 0"/><path d="m239.859375 173.902344 5.28125-3.050782v6.097657zm0 0"/><path d="m239.859375 167.800781 5.28125-3.046875v6.097656zm0 0"/><path d="m239.859375 161.703125 5.28125-3.046875v6.097656zm0 0"/><path d="m239.859375 149.507812 5.28125-3.050781v6.097657zm0 0"/><path d="m239.859375 143.40625 5.28125-3.046875v6.097656zm0 0"/><path d="m218.730469 131.210938 5.28125-3.050782v6.101563zm0 0"/><path d="m213.449219 128.160156 5.28125-3.046875v6.097657zm0 0"/><path d="m202.886719 122.0625 5.28125-3.050781v6.101562zm0 0"/><path d="m197.605469 119.011719 5.28125-3.046875v6.097656zm0 0"/><path d="m176.480469 106.816406 5.28125-3.050781v6.101563zm0 0"/><path d="m171.199219 109.867188 5.28125-3.050782v6.097656zm0 0"/><path d="m160.632812 115.964844 5.28125-3.050782v6.097657zm0 0"/><path d="m155.351562 119.011719 5.28125-3.046875v6.097656zm0 0"/><path d="m150.070312 122.0625 5.28125-3.050781v6.101562zm0 0"/><path d="m139.507812 128.160156 5.28125-3.046875v6.097657zm0 0"/><path d="m134.226562 131.210938 5.28125-3.050782v6.101563zm0 0"/><path d="m128.945312 134.261719 5.28125-3.050781v6.097656zm0 0"/><path d="m118.382812 140.359375 5.28125-3.050781v6.097656zm0 0"/><path d="m113.101562 143.40625 5.28125-3.046875v6.097656zm0 0"/><path d="m113.101562 167.800781 5.28125-3.046875v6.097656zm0 0"/><path d="m113.101562 173.902344 5.28125-3.050782v6.097657zm0 0"/><path d="m113.101562 186.097656 5.28125-3.046875v6.097657zm0 0"/><path d="m113.101562 192.199219 5.28125-3.050781v6.097656zm0 0"/><path d="m113.101562 216.59375 5.28125-3.050781v6.097656zm0 0"/><path d="m118.382812 219.640625 5.28125-3.046875v6.097656zm0 0"/><path d="m128.945312 225.738281 5.28125-3.046875v6.097656zm0 0"/><path d="m134.226562 228.789062 5.28125-3.050781v6.101563zm0 0"/><path d="m139.507812 231.839844 5.28125-3.050782v6.097657zm0 0"/><path d="m150.070312 237.9375 5.28125-3.050781v6.101562zm0 0"/><path d="m155.351562 240.988281 5.28125-3.050781v6.097656zm0 0"/><path d="m160.632812 244.035156 5.28125-3.046875v6.097657zm0 0"/><path d="m171.199219 250.132812 5.28125-3.046874v6.097656zm0 0"/><path d="m176.480469 253.183594 5.28125-3.050782v6.101563zm0 0"/><path d="m197.605469 240.988281 5.28125-3.050781v6.097656zm0 0"/><path d="m202.886719 237.9375 5.28125-3.050781v6.101562zm0 0"/><path d="m213.449219 231.839844 5.28125-3.050782v6.097657zm0 0"/><path d="m218.730469 228.789062 5.28125-3.050781v6.101563zm0 0"/><path d="m245.140625 207.445312 5.28125-3.050781v6.097657zm0 0"/><path d="m245.140625 201.34375 5.28125-3.046875v6.097656zm0 0"/><path d="m245.140625 183.050781 5.28125-3.050781v6.097656zm0 0"/><path d="m245.140625 176.949219 5.28125-3.046875v6.097656zm0 0"/><path d="m245.140625 158.65625 5.28125-3.050781v6.097656zm0 0"/><path d="m245.140625 152.554688 5.28125-3.046876v6.097657zm0 0"/><path d="m239.859375 137.308594 5.28125-3.046875v6.097656zm0 0"/><path d="m229.292969 131.210938 5.285156-3.050782v6.101563zm0 0"/><path d="m218.730469 125.113281 5.28125-3.050781v6.097656zm0 0"/><path d="m213.449219 122.0625 5.28125-3.050781v6.101562zm0 0"/><path d="m208.167969 119.011719 5.28125-3.046875v6.097656zm0 0"/><path d="m202.886719 115.964844 5.28125-3.050782v6.097657zm0 0"/><path d="m192.324219 109.867188 5.28125-3.050782v6.097656zm0 0"/><path d="m181.761719 103.765625 5.28125-3.046875v6.097656zm0 0"/><path d="m165.914062 106.816406 5.285157-3.050781v6.101563zm0 0"/><path d="m160.632812 109.867188 5.28125-3.050782v6.097656zm0 0"/><path d="m144.789062 119.011719 5.28125-3.046875v6.097656zm0 0"/><path d="m139.507812 122.0625 5.28125-3.050781v6.101562zm0 0"/><path d="m123.664062 131.210938 5.28125-3.050782v6.101563zm0 0"/><path d="m118.382812 134.261719 5.28125-3.050781v6.097656zm0 0"/><path d="m107.816406 146.457031 5.285156-3.050781v6.101562zm0 0"/><path d="m107.816406 158.65625 5.285156-3.050781v6.097656zm0 0"/><path d="m107.816406 170.851562 5.285156-3.050781v6.101563zm0 0"/><path d="m107.816406 176.949219 5.285156-3.046875v6.097656zm0 0"/><path d="m107.816406 183.050781 5.285156-3.050781v6.097656zm0 0"/><path d="m107.816406 189.148438 5.285156-3.050782v6.101563zm0 0"/><path d="m107.816406 201.34375 5.285156-3.046875v6.097656zm0 0"/><path d="m107.816406 213.542969 5.285156-3.050781v6.101562zm0 0"/><path d="m118.382812 225.738281 5.28125-3.046875v6.097656zm0 0"/><path d="m123.664062 228.789062 5.28125-3.050781v6.101563zm0 0"/><path d="m139.507812 237.9375 5.28125-3.050781v6.101562zm0 0"/><path d="m144.789062 240.988281 5.28125-3.050781v6.097656zm0 0"/><path d="m160.632812 250.132812 5.28125-3.046874v6.097656zm0 0"/><path d="m165.914062 253.183594 5.285157-3.050782v6.101563zm0 0"/><path d="m181.761719 256.234375 5.28125-3.050781v6.097656zm0 0"/><path d="m192.324219 250.132812 5.28125-3.046874v6.097656zm0 0"/><path d="m202.886719 244.035156 5.28125-3.046875v6.097657zm0 0"/><path d="m208.167969 240.988281 5.28125-3.050781v6.097656zm0 0"/><path d="m213.449219 237.9375 5.28125-3.050781v6.101562zm0 0"/><path d="m218.730469 234.886719 5.28125-3.046875v6.097656zm0 0"/><path d="m229.292969 228.789062 5.285156-3.050781v6.101563zm0 0"/><path d="m239.859375 222.691406 5.28125-3.050781v6.097656zm0 0"/><path d="m250.421875 216.59375 5.28125-3.050781v6.097656zm0 0"/><path d="m250.421875 210.492188 5.28125-3.046876v6.097657zm0 0"/><path d="m250.421875 192.199219 5.28125-3.050781v6.097656zm0 0"/><path d="m250.421875 186.097656 5.28125-3.046875v6.097657zm0 0"/><path d="m250.421875 173.902344 5.28125-3.050782v6.097657zm0 0"/><path d="m250.421875 167.800781 5.28125-3.046875v6.097656zm0 0"/><path d="m250.421875 149.507812 5.28125-3.050781v6.097657zm0 0"/><path d="m250.421875 143.40625 5.28125-3.046875v6.097656zm0 0"/><path d="m239.859375 131.210938 5.28125-3.050782v6.101563zm0 0"/><path d="m218.730469 119.011719 5.28125-3.046875v6.097656zm0 0"/><path d="m208.167969 112.914062 5.28125-3.046874v6.097656zm0 0"/><path d="m187.042969 100.71875 5.28125-3.050781v6.097656zm0 0"/><path d="m171.199219 97.667969 5.28125-3.050781v6.101562zm0 0"/><path d="m165.914062 100.71875 5.285157-3.050781v6.097656zm0 0"/><path d="m150.070312 109.867188 5.28125-3.050782v6.097656zm0 0"/><path d="m144.789062 112.914062 5.28125-3.046874v6.097656zm0 0"/><path d="m134.226562 119.011719 5.28125-3.046875v6.097656zm0 0"/><path d="m128.945312 122.0625 5.28125-3.050781v6.101562zm0 0"/><path d="m113.101562 131.210938 5.28125-3.050782v6.101563zm0 0"/><path d="m107.816406 134.261719 5.285156-3.050781v6.097656zm0 0"/><path d="m102.535156 149.507812 5.28125-3.050781v6.097657zm0 0"/><path d="m102.535156 173.902344 5.28125-3.050782v6.097657zm0 0"/><path d="m102.535156 186.097656 5.28125-3.046875v6.097657zm0 0"/><path d="m102.535156 210.492188 5.28125-3.046876v6.097657zm0 0"/><path d="m107.816406 225.738281 5.285156-3.046875v6.097656zm0 0"/><path d="m113.101562 228.789062 5.28125-3.050781v6.101563zm0 0"/><path d="m128.945312 237.9375 5.28125-3.050781v6.101562zm0 0"/><path d="m134.226562 240.988281 5.28125-3.050781v6.097656zm0 0"/><path d="m144.789062 247.085938 5.28125-3.050782v6.097656zm0 0"/><path d="m150.070312 250.132812 5.28125-3.046874v6.097656zm0 0"/><path d="m165.914062 259.28125 5.285157-3.046875v6.097656zm0 0"/><path d="m171.199219 262.332031 5.28125-3.050781v6.101562zm0 0"/><path d="m187.042969 259.28125 5.28125-3.046875v6.097656zm0 0"/><path d="m208.167969 247.085938 5.28125-3.050782v6.097656zm0 0"/><path d="m218.730469 240.988281 5.28125-3.050781v6.097656zm0 0"/><path d="m239.859375 228.789062 5.28125-3.050781v6.101563zm0 0"/><path d="m255.703125 219.640625 5.28125-3.046875v6.097656zm0 0"/><path d="m255.703125 201.34375 5.28125-3.046875v6.097656zm0 0"/><path d="m255.703125 183.050781 5.28125-3.050781v6.097656zm0 0"/><path d="m255.703125 176.949219 5.28125-3.046875v6.097656zm0 0"/><path d="m255.703125 158.65625 5.28125-3.050781v6.097656zm0 0"/><path d="m255.703125 140.359375 5.28125-3.050781v6.097656zm0 0"/><path d="m171.199219 91.570312 5.28125-3.050781v6.097657zm0 0"/><path d="m155.351562 100.71875 5.28125-3.050781v6.097656zm0 0"/><path d="m139.507812 109.867188 5.28125-3.050782v6.097656zm0 0"/><path d="m134.226562 112.914062 5.28125-3.046874v6.097656zm0 0"/><path d="m118.382812 122.0625 5.28125-3.050781v6.101562zm0 0"/><path d="m102.535156 131.210938 5.28125-3.050782v6.101563zm0 0"/><path d="m102.535156 228.789062 5.28125-3.050781v6.101563zm0 0"/><path d="m118.382812 237.9375 5.28125-3.050781v6.101562zm0 0"/><path d="m134.226562 247.085938 5.28125-3.050782v6.097656zm0 0"/><path d="m139.507812 250.132812 5.28125-3.046874v6.097656zm0 0"/><path d="m155.351562 259.28125 5.28125-3.046875v6.097656zm0 0"/><path d="m171.199219 268.429688 5.28125-3.046876v6.097657zm0 0"/><path d="m260.984375 228.789062 5.28125-3.050781v6.101563zm0 0"/><path d="m260.984375 216.59375 5.28125-3.050781v6.097656zm0 0"/><path d="m260.984375 210.492188 5.28125-3.046876v6.097657zm0 0"/><path d="m260.984375 198.296875 5.28125-3.050781v6.097656zm0 0"/><path d="m260.984375 192.199219 5.28125-3.050781v6.097656zm0 0"/><path d="m260.984375 167.800781 5.28125-3.046875v6.097656zm0 0"/><path d="m260.984375 161.703125 5.28125-3.046875v6.097656zm0 0"/><path d="m260.984375 149.507812 5.28125-3.050781v6.097657zm0 0"/><path d="m260.984375 143.40625 5.28125-3.046875v6.097656zm0 0"/><path d="m260.984375 131.210938 5.28125-3.050782v6.101563zm0 0"/><path d="m250.421875 125.113281 5.28125-3.050781v6.097656zm0 0"/><path d="m245.140625 122.0625 5.28125-3.050781v6.101562zm0 0"/><path d="m234.578125 115.964844 5.28125-3.050782v6.097657zm0 0"/><path d="m229.292969 112.914062 5.285156-3.046874v6.097656zm0 0"/><path d="m224.011719 109.867188 5.28125-3.050782v6.097656zm0 0"/><path d="m213.449219 103.765625 5.28125-3.046875v6.097656zm0 0"/><path d="m208.167969 100.71875 5.28125-3.050781v6.097656zm0 0"/><path d="m202.886719 97.667969 5.28125-3.050781v6.101562zm0 0"/><path d="m192.324219 91.570312 5.28125-3.050781v6.097657zm0 0"/><path d="m187.042969 88.519531 5.28125-3.046875v6.097656zm0 0"/><path d="m176.480469 82.421875 5.28125-3.050781v6.101562zm0 0"/><path d="m165.914062 88.519531 5.285157-3.046875v6.097656zm0 0"/><path d="m160.632812 91.570312 5.28125-3.050781v6.097657zm0 0"/><path d="m150.070312 97.667969 5.28125-3.050781v6.101562zm0 0"/><path d="m144.789062 100.71875 5.28125-3.050781v6.097656zm0 0"/><path d="m123.664062 112.914062 5.28125-3.046874v6.097656zm0 0"/><path d="m118.382812 115.964844 5.28125-3.050782v6.097657zm0 0"/><path d="m107.816406 122.0625 5.285156-3.050781v6.101562zm0 0"/><path d="m102.535156 125.113281 5.28125-3.050781v6.097656zm0 0"/><path d="m91.972656 131.210938 5.28125-3.050782v6.101563zm0 0"/><path d="m91.972656 143.40625 5.28125-3.046875v6.097656zm0 0"/><path d="m91.972656 149.507812 5.28125-3.050781v6.097657zm0 0"/><path d="m91.972656 161.703125 5.28125-3.046875v6.097656zm0 0"/><path d="m91.972656 167.800781 5.28125-3.046875v6.097656zm0 0"/><path d="m91.972656 173.902344 5.28125-3.050782v6.097657zm0 0"/><path d="m91.972656 186.097656 5.28125-3.046875v6.097657zm0 0"/><path d="m91.972656 192.199219 5.28125-3.050781v6.097656zm0 0"/><path d="m91.972656 198.296875 5.28125-3.050781v6.097656zm0 0"/><path d="m91.972656 210.492188 5.28125-3.046876v6.097657zm0 0"/><path d="m91.972656 216.59375 5.28125-3.050781v6.097656zm0 0"/><path d="m91.972656 228.789062 5.28125-3.050781v6.101563zm0 0"/><path d="m102.535156 234.886719 5.28125-3.046875v6.097656zm0 0"/><path d="m107.816406 237.9375 5.285156-3.050781v6.101562zm0 0"/><path d="m118.382812 244.035156 5.28125-3.046875v6.097657zm0 0"/><path d="m123.664062 247.085938 5.28125-3.050782v6.097656zm0 0"/><path d="m144.789062 259.28125 5.28125-3.046875v6.097656zm0 0"/><path d="m150.070312 262.332031 5.28125-3.050781v6.101562zm0 0"/><path d="m160.632812 268.429688 5.28125-3.046876v6.097657zm0 0"/><path d="m165.914062 271.480469 5.285157-3.050781v6.097656zm0 0"/><path d="m176.480469 277.578125 5.28125-3.050781v6.101562zm0 0"/><path d="m187.042969 271.480469 5.28125-3.050781v6.097656zm0 0"/><path d="m192.324219 268.429688 5.28125-3.046876v6.097657zm0 0"/><path d="m202.886719 262.332031 5.28125-3.050781v6.101562zm0 0"/><path d="m208.167969 259.28125 5.28125-3.046875v6.097656zm0 0"/><path d="m213.449219 256.234375 5.28125-3.050781v6.097656zm0 0"/><path d="m224.011719 250.132812 5.28125-3.046874v6.097656zm0 0"/><path d="m229.292969 247.085938 5.285156-3.050782v6.097656zm0 0"/><path d="m234.578125 244.035156 5.28125-3.046875v6.097657zm0 0"/><path d="m245.140625 237.9375 5.28125-3.050781v6.101562zm0 0"/><path d="m250.421875 234.886719 5.28125-3.046875v6.097656zm0 0"/><path d="m266.265625 231.839844 5.28125-3.050782v6.097657zm0 0"/><path d="m266.265625 225.738281 5.28125-3.046875v6.097656zm0 0"/><path d="m266.265625 219.640625 5.28125-3.046875v6.097656zm0 0"/><path d="m266.265625 207.445312 5.28125-3.050781v6.097657zm0 0"/><path d="m266.265625 183.050781 5.28125-3.050781v6.097656zm0 0"/><path d="m266.265625 176.949219 5.28125-3.046875v6.097656zm0 0"/><path d="m266.265625 152.554688 5.28125-3.046876v6.097657zm0 0"/><path d="m266.265625 140.359375 5.28125-3.050781v6.097656zm0 0"/><path d="m266.265625 134.261719 5.28125-3.050781v6.097656zm0 0"/><path d="m266.265625 128.160156 5.28125-3.046875v6.097657zm0 0"/><path d="m260.984375 125.113281 5.28125-3.050781v6.097656zm0 0"/><path d="m255.703125 122.0625 5.28125-3.050781v6.101562zm0 0"/><path d="m250.421875 119.011719 5.28125-3.046875v6.097656zm0 0"/><path d="m245.140625 115.964844 5.28125-3.050782v6.097657zm0 0"/><path d="m239.859375 112.914062 5.28125-3.046874v6.097656zm0 0"/><path d="m234.578125 109.867188 5.28125-3.050782v6.097656zm0 0"/><path d="m229.292969 106.816406 5.285156-3.050781v6.101563zm0 0"/><path d="m224.011719 103.765625 5.28125-3.046875v6.097656zm0 0"/><path d="m218.730469 100.71875 5.28125-3.050781v6.097656zm0 0"/><path d="m213.449219 97.667969 5.28125-3.050781v6.101562zm0 0"/><path d="m208.167969 94.617188 5.28125-3.046876v6.097657zm0 0"/><path d="m202.886719 91.570312 5.28125-3.050781v6.097657zm0 0"/><path d="m197.605469 88.519531 5.28125-3.046875v6.097656zm0 0"/><path d="m192.324219 85.472656 5.28125-3.050781v6.097656zm0 0"/><path d="m187.042969 82.421875 5.28125-3.050781v6.101562zm0 0"/><path d="m181.761719 79.371094 5.28125-3.046875v6.097656zm0 0"/><path d="m176.480469 76.324219 5.28125-3.050781v6.097656zm0 0"/><path d="m171.199219 79.371094 5.28125-3.046875v6.097656zm0 0"/><path d="m165.914062 82.421875 5.285157-3.050781v6.101562zm0 0"/><path d="m155.351562 88.519531 5.28125-3.046875v6.097656zm0 0"/><path d="m134.226562 100.71875 5.28125-3.050781v6.097656zm0 0"/><path d="m128.945312 103.765625 5.28125-3.046875v6.097656zm0 0"/><path d="m107.816406 115.964844 5.285156-3.050782v6.097657zm0 0"/><path d="m97.253906 122.0625 5.28125-3.050781v6.101562zm0 0"/><path d="m91.972656 125.113281 5.28125-3.050781v6.097656zm0 0"/><path d="m86.691406 128.160156 5.28125-3.046875v6.097657zm0 0"/><path d="m86.691406 134.261719 5.28125-3.050781v6.097656zm0 0"/><path d="m86.691406 140.359375 5.28125-3.050781v6.097656zm0 0"/><path d="m86.691406 146.457031 5.28125-3.050781v6.101562zm0 0"/><path d="m86.691406 152.554688 5.28125-3.046876v6.097657zm0 0"/><path d="m86.691406 158.65625 5.28125-3.050781v6.097656zm0 0"/><path d="m86.691406 164.753906 5.28125-3.050781v6.097656zm0 0"/><path d="m86.691406 170.851562 5.28125-3.050781v6.101563zm0 0"/><path d="m86.691406 176.949219 5.28125-3.046875v6.097656zm0 0"/><path d="m86.691406 183.050781 5.28125-3.050781v6.097656zm0 0"/><path d="m86.691406 189.148438 5.28125-3.050782v6.101563zm0 0"/><path d="m86.691406 195.246094 5.28125-3.046875v6.097656zm0 0"/><path d="m86.691406 201.34375 5.28125-3.046875v6.097656zm0 0"/><path d="m86.691406 207.445312 5.28125-3.050781v6.097657zm0 0"/><path d="m86.691406 213.542969 5.28125-3.050781v6.101562zm0 0"/><path d="m86.691406 219.640625 5.28125-3.046875v6.097656zm0 0"/><path d="m86.691406 225.738281 5.28125-3.046875v6.097656zm0 0"/><path d="m86.691406 231.839844 5.28125-3.050782v6.097657zm0 0"/><path d="m91.972656 234.886719 5.28125-3.046875v6.097656zm0 0"/><path d="m97.253906 237.9375 5.28125-3.050781v6.101562zm0 0"/><path d="m107.816406 244.035156 5.285156-3.046875v6.097657zm0 0"/><path d="m128.945312 256.234375 5.28125-3.050781v6.097656zm0 0"/><path d="m134.226562 259.28125 5.28125-3.046875v6.097656zm0 0"/><path d="m155.351562 271.480469 5.28125-3.050781v6.097656zm0 0"/><path d="m165.914062 277.578125 5.285157-3.050781v6.101562zm0 0"/><path d="m171.199219 280.628906 5.28125-3.050781v6.097656zm0 0"/><path d="m176.480469 283.675781 5.28125-3.046875v6.097656zm0 0"/><path d="m181.761719 280.628906 5.28125-3.050781v6.097656zm0 0"/><path d="m187.042969 277.578125 5.28125-3.050781v6.101562zm0 0"/><path d="m192.324219 274.527344 5.28125-3.046875v6.097656zm0 0"/><path d="m197.605469 271.480469 5.28125-3.050781v6.097656zm0 0"/><path d="m202.886719 268.429688 5.28125-3.046876v6.097657zm0 0"/><path d="m208.167969 265.382812 5.28125-3.050781v6.097657zm0 0"/><path d="m213.449219 262.332031 5.28125-3.050781v6.101562zm0 0"/><path d="m218.730469 259.28125 5.28125-3.046875v6.097656zm0 0"/><path d="m224.011719 256.234375 5.28125-3.050781v6.097656zm0 0"/><path d="m229.292969 253.183594 5.285156-3.050782v6.101563zm0 0"/><path d="m234.578125 250.132812 5.28125-3.046874v6.097656zm0 0"/><path d="m239.859375 247.085938 5.28125-3.050782v6.097656zm0 0"/><path d="m245.140625 244.035156 5.28125-3.046875v6.097657zm0 0"/><path d="m250.421875 240.988281 5.28125-3.050781v6.097656zm0 0"/><path d="m255.703125 237.9375 5.28125-3.050781v6.101562zm0 0"/><path d="m260.984375 234.886719 5.28125-3.046875v6.097656zm0 0"/><path d="m271.546875 234.886719 5.28125-3.046875v6.097656zm0 0"/><path d="m271.546875 216.59375 5.28125-3.050781v6.097656zm0 0"/><path d="m271.546875 210.492188 5.28125-3.046876v6.097657zm0 0"/><path d="m271.546875 204.394531 5.28125-3.050781v6.101562zm0 0"/><path d="m271.546875 198.296875 5.28125-3.050781v6.097656zm0 0"/><path d="m271.546875 186.097656 5.28125-3.046875v6.097657zm0 0"/><path d="m271.546875 173.902344 5.28125-3.050782v6.097657zm0 0"/><path d="m271.546875 161.703125 5.28125-3.046875v6.097656zm0 0"/><path d="m271.546875 155.605469 5.28125-3.050781v6.101562zm0 0"/><path d="m271.546875 149.507812 5.28125-3.050781v6.097657zm0 0"/><path d="m271.546875 143.40625 5.28125-3.046875v6.097656zm0 0"/><path d="m271.546875 125.113281 5.28125-3.050781v6.097656zm0 0"/><path d="m266.265625 122.0625 5.28125-3.050781v6.101562zm0 0"/><path d="m181.761719 73.273438 5.28125-3.050782v6.101563zm0 0"/><path d="m176.480469 70.222656 5.28125-3.046875v6.097657zm0 0"/><path d="m160.632812 79.371094 5.28125-3.046875v6.097656zm0 0"/><path d="m155.351562 82.421875 5.28125-3.050781v6.101562zm0 0"/><path d="m150.070312 85.472656 5.28125-3.050781v6.097656zm0 0"/><path d="m144.789062 88.519531 5.28125-3.046875v6.097656zm0 0"/><path d="m134.226562 94.617188 5.28125-3.046876v6.097657zm0 0"/><path d="m123.664062 100.71875 5.28125-3.050781v6.097656zm0 0"/><path d="m113.101562 106.816406 5.28125-3.050781v6.101563zm0 0"/><path d="m107.816406 109.867188 5.285156-3.050782v6.097656zm0 0"/><path d="m102.535156 112.914062 5.28125-3.046874v6.097656zm0 0"/><path d="m97.253906 115.964844 5.28125-3.050782v6.097657zm0 0"/><path d="m81.410156 125.113281 5.28125-3.050781v6.097656zm0 0"/><path d="m81.410156 131.210938 5.28125-3.050782v6.101563zm0 0"/><path d="m81.410156 228.789062 5.28125-3.050781v6.101563zm0 0"/><path d="m81.410156 234.886719 5.28125-3.046875v6.097656zm0 0"/><path d="m97.253906 244.035156 5.28125-3.046875v6.097657zm0 0"/><path d="m102.535156 247.085938 5.28125-3.050782v6.097656zm0 0"/><path d="m107.816406 250.132812 5.285156-3.046874v6.097656zm0 0"/><path d="m113.101562 253.183594 5.28125-3.050782v6.101563zm0 0"/><path d="m123.664062 259.28125 5.28125-3.046875v6.097656zm0 0"/><path d="m134.226562 265.382812 5.28125-3.050781v6.097657zm0 0"/><path d="m144.789062 271.480469 5.28125-3.050781v6.097656zm0 0"/><path d="m150.070312 274.527344 5.28125-3.046875v6.097656zm0 0"/><path d="m155.351562 277.578125 5.28125-3.050781v6.101562zm0 0"/><path d="m160.632812 280.628906 5.28125-3.050781v6.097656zm0 0"/><path d="m176.480469 289.777344 5.28125-3.050782v6.097657zm0 0"/><path d="m181.761719 286.726562 5.28125-3.050781v6.101563zm0 0"/><path d="m266.265625 237.9375 5.28125-3.050781v6.101562zm0 0"/><path d="m276.828125 231.839844 5.28125-3.050782v6.097657zm0 0"/><path d="m276.828125 225.738281 5.28125-3.046875v6.097656zm0 0"/><path d="m276.828125 201.34375 5.28125-3.046875v6.097656zm0 0"/><path d="m276.828125 195.246094 5.28125-3.046875v6.097656zm0 0"/><path d="m276.828125 189.148438 5.28125-3.050782v6.101563zm0 0"/><path d="m276.828125 183.050781 5.28125-3.050781v6.097656zm0 0"/><path d="m276.828125 176.949219 5.28125-3.046875v6.097656zm0 0"/><path d="m276.828125 170.851562 5.28125-3.050781v6.101563zm0 0"/><path d="m276.828125 164.753906 5.28125-3.050781v6.097656zm0 0"/><path d="m276.828125 158.65625 5.28125-3.050781v6.097656zm0 0"/><path d="m276.828125 134.261719 5.28125-3.050781v6.097656zm0 0"/><path d="m276.828125 128.160156 5.28125-3.046875v6.097657zm0 0"/><path d="m271.546875 119.011719 5.28125-3.046875v6.097656zm0 0"/><path d="m181.761719 67.175781 5.28125-3.050781v6.097656zm0 0"/><path d="m171.199219 67.175781 5.28125-3.050781v6.097656zm0 0"/><path d="m165.914062 70.222656 5.285157-3.046875v6.097657zm0 0"/><path d="m144.789062 82.421875 5.28125-3.050781v6.101562zm0 0"/><path d="m139.507812 85.472656 5.28125-3.050781v6.097656zm0 0"/><path d="m134.226562 88.519531 5.28125-3.046875v6.097656zm0 0"/><path d="m128.945312 91.570312 5.28125-3.050781v6.097657zm0 0"/><path d="m123.664062 94.617188 5.28125-3.046876v6.097657zm0 0"/><path d="m118.382812 97.667969 5.28125-3.050781v6.101562zm0 0"/><path d="m113.101562 100.71875 5.28125-3.050781v6.097656zm0 0"/><path d="m107.816406 103.765625 5.285156-3.046875v6.097656zm0 0"/><path d="m86.691406 115.964844 5.28125-3.050782v6.097657zm0 0"/><path d="m81.410156 119.011719 5.28125-3.046875v6.097656zm0 0"/><path d="m76.128906 128.160156 5.28125-3.046875v6.097657zm0 0"/><path d="m76.128906 231.839844 5.28125-3.050782v6.097657zm0 0"/><path d="m81.410156 240.988281 5.28125-3.050781v6.097656zm0 0"/><path d="m86.691406 244.035156 5.28125-3.046875v6.097657zm0 0"/><path d="m107.816406 256.234375 5.285156-3.050781v6.097656zm0 0"/><path d="m113.101562 259.28125 5.28125-3.046875v6.097656zm0 0"/><path d="m118.382812 262.332031 5.28125-3.050781v6.101562zm0 0"/><path d="m123.664062 265.382812 5.28125-3.050781v6.097657zm0 0"/><path d="m128.945312 268.429688 5.28125-3.046876v6.097657zm0 0"/><path d="m134.226562 271.480469 5.28125-3.050781v6.097656zm0 0"/><path d="m139.507812 274.527344 5.28125-3.046875v6.097656zm0 0"/><path d="m144.789062 277.578125 5.28125-3.050781v6.101562zm0 0"/><path d="m165.914062 289.777344 5.285157-3.050782v6.097657zm0 0"/><path d="m171.199219 292.824219 5.28125-3.046875v6.097656zm0 0"/><path d="m181.761719 292.824219 5.28125-3.046875v6.097656zm0 0"/><path d="m271.546875 240.988281 5.28125-3.050781v6.097656zm0 0"/><path d="m282.109375 240.988281 5.28125-3.050781v6.097656zm0 0"/><path d="m282.109375 234.886719 5.28125-3.046875v6.097656zm0 0"/><path d="m282.109375 222.691406 5.28125-3.050781v6.097656zm0 0"/><path d="m282.109375 216.59375 5.28125-3.050781v6.097656zm0 0"/><path d="m282.109375 210.492188 5.28125-3.046876v6.097657zm0 0"/><path d="m282.109375 192.199219 5.28125-3.050781v6.097656zm0 0"/><path d="m282.109375 186.097656 5.28125-3.046875v6.097657zm0 0"/><path d="m282.109375 173.902344 5.28125-3.050782v6.097657zm0 0"/><path d="m282.109375 167.800781 5.28125-3.046875v6.097656zm0 0"/><path d="m282.109375 149.507812 5.28125-3.050781v6.097657zm0 0"/><path d="m282.109375 143.40625 5.28125-3.046875v6.097656zm0 0"/><path d="m282.109375 137.308594 5.28125-3.046875v6.097656zm0 0"/><path d="m282.109375 125.113281 5.28125-3.050781v6.097656zm0 0"/><path d="m282.109375 119.011719 5.28125-3.046875v6.097656zm0 0"/><path d="m271.546875 112.914062 5.28125-3.046874v6.097656zm0 0"/><path d="m187.042969 64.125 5.28125-3.046875v6.097656zm0 0"/><path d="m176.480469 58.027344 5.28125-3.050782v6.101563zm0 0"/><path d="m171.199219 61.078125 5.28125-3.050781v6.097656zm0 0"/><path d="m160.632812 67.175781 5.28125-3.050781v6.097656zm0 0"/><path d="m155.351562 70.222656 5.28125-3.046875v6.097657zm0 0"/><path d="m150.070312 73.273438 5.28125-3.050782v6.101563zm0 0"/><path d="m134.226562 82.421875 5.28125-3.050781v6.101562zm0 0"/><path d="m128.945312 85.472656 5.28125-3.050781v6.097656zm0 0"/><path d="m118.382812 91.570312 5.28125-3.050781v6.097657zm0 0"/><path d="m113.101562 94.617188 5.28125-3.046876v6.097657zm0 0"/><path d="m97.253906 103.765625 5.28125-3.046875v6.097656zm0 0"/><path d="m91.972656 106.816406 5.28125-3.050781v6.101563zm0 0"/><path d="m86.691406 109.867188 5.28125-3.050782v6.097656zm0 0"/><path d="m76.128906 115.964844 5.28125-3.050782v6.097657zm0 0"/><path d="m70.847656 119.011719 5.28125-3.046875v6.097656zm0 0"/><path d="m70.847656 131.210938 5.28125-3.050782v6.101563zm0 0"/><path d="m70.847656 228.789062 5.28125-3.050781v6.101563zm0 0"/><path d="m70.847656 240.988281 5.28125-3.050781v6.097656zm0 0"/><path d="m76.128906 244.035156 5.28125-3.046875v6.097657zm0 0"/><path d="m86.691406 250.132812 5.28125-3.046874v6.097656zm0 0"/><path d="m91.972656 253.183594 5.28125-3.050782v6.101563zm0 0"/><path d="m97.253906 256.234375 5.28125-3.050781v6.097656zm0 0"/><path d="m113.101562 265.382812 5.28125-3.050781v6.097657zm0 0"/><path d="m118.382812 268.429688 5.28125-3.046876v6.097657zm0 0"/><path d="m128.945312 274.527344 5.28125-3.046875v6.097656zm0 0"/><path d="m134.226562 277.578125 5.28125-3.050781v6.101562zm0 0"/><path d="m150.070312 286.726562 5.28125-3.050781v6.101563zm0 0"/><path d="m155.351562 289.777344 5.28125-3.050782v6.097657zm0 0"/><path d="m160.632812 292.824219 5.28125-3.046875v6.097656zm0 0"/><path d="m171.199219 298.921875 5.28125-3.046875v6.097656zm0 0"/><path d="m176.480469 301.972656 5.28125-3.050781v6.101563zm0 0"/><path d="m187.042969 295.875 5.28125-3.050781v6.097656zm0 0"/><path d="m271.546875 247.085938 5.28125-3.050782v6.097656zm0 0"/><path d="m287.390625 244.035156 5.285156-3.046875v6.097657zm0 0"/><path d="m287.390625 231.839844 5.285156-3.050782v6.097657zm0 0"/><path d="m287.390625 225.738281 5.285156-3.046875v6.097656zm0 0"/><path d="m287.390625 213.542969 5.285156-3.050781v6.101562zm0 0"/><path d="m287.390625 195.246094 5.285156-3.046875v6.097656zm0 0"/><path d="m287.390625 189.148438 5.285156-3.050782v6.101563zm0 0"/><path d="m287.390625 170.851562 5.285156-3.050781v6.101563zm0 0"/><path d="m287.390625 164.753906 5.285156-3.050781v6.097656zm0 0"/><path d="m287.390625 146.457031 5.285156-3.050781v6.101562zm0 0"/><path d="m287.390625 134.261719 5.285156-3.050781v6.097656zm0 0"/><path d="m287.390625 128.160156 5.285156-3.046875v6.097657zm0 0"/><path d="m287.390625 115.964844 5.285156-3.050782v6.097657zm0 0"/><path d="m282.109375 112.914062 5.28125-3.046874v6.097656zm0 0"/><path d="m276.828125 109.867188 5.28125-3.050782v6.097656zm0 0"/><path d="m271.546875 106.816406 5.28125-3.050781v6.101563zm0 0"/><path d="m266.265625 103.765625 5.28125-3.046875v6.097656zm0 0"/><path d="m260.984375 100.71875 5.28125-3.050781v6.097656zm0 0"/><path d="m255.703125 97.667969 5.28125-3.050781v6.101562zm0 0"/><path d="m250.421875 94.617188 5.28125-3.046876v6.097657zm0 0"/><path d="m245.140625 91.570312 5.28125-3.050781v6.097657zm0 0"/><path d="m239.859375 88.519531 5.28125-3.046875v6.097656zm0 0"/><path d="m234.578125 85.472656 5.28125-3.050781v6.097656zm0 0"/><path d="m229.292969 82.421875 5.285156-3.050781v6.101562zm0 0"/><path d="m224.011719 79.371094 5.28125-3.046875v6.097656zm0 0"/><path d="m218.730469 76.324219 5.28125-3.050781v6.097656zm0 0"/><path d="m213.449219 73.273438 5.28125-3.050782v6.101563zm0 0"/><path d="m208.167969 70.222656 5.28125-3.046875v6.097657zm0 0"/><path d="m202.886719 67.175781 5.28125-3.050781v6.097656zm0 0"/><path d="m197.605469 64.125 5.28125-3.046875v6.097656zm0 0"/><path d="m192.324219 61.078125 5.28125-3.050781v6.097656zm0 0"/><path d="m187.042969 58.027344 5.28125-3.050782v6.101563zm0 0"/><path d="m181.761719 54.976562 5.28125-3.046874v6.097656zm0 0"/><path d="m176.480469 51.929688 5.28125-3.050782v6.097656zm0 0"/><path d="m165.914062 58.027344 5.285157-3.050782v6.101563zm0 0"/><path d="m160.632812 61.078125 5.28125-3.050781v6.097656zm0 0"/><path d="m150.070312 67.175781 5.28125-3.050781v6.097656zm0 0"/><path d="m134.226562 76.324219 5.28125-3.050781v6.097656zm0 0"/><path d="m128.945312 79.371094 5.28125-3.046875v6.097656zm0 0"/><path d="m113.101562 88.519531 5.28125-3.046875v6.097656zm0 0"/><path d="m107.816406 91.570312 5.285156-3.050781v6.097657zm0 0"/><path d="m91.972656 100.71875 5.28125-3.050781v6.097656zm0 0"/><path d="m81.410156 106.816406 5.28125-3.050781v6.101563zm0 0"/><path d="m76.128906 109.867188 5.28125-3.050782v6.097656zm0 0"/><path d="m65.566406 115.964844 5.28125-3.050782v6.097657zm0 0"/><path d="m65.566406 122.0625 5.28125-3.050781v6.101562zm0 0"/><path d="m65.566406 128.160156 5.28125-3.046875v6.097657zm0 0"/><path d="m65.566406 134.261719 5.28125-3.050781v6.097656zm0 0"/><path d="m65.566406 140.359375 5.28125-3.050781v6.097656zm0 0"/><path d="m65.566406 146.457031 5.28125-3.050781v6.101562zm0 0"/><path d="m65.566406 152.554688 5.28125-3.046876v6.097657zm0 0"/><path d="m65.566406 158.65625 5.28125-3.050781v6.097656zm0 0"/><path d="m65.566406 164.753906 5.28125-3.050781v6.097656zm0 0"/><path d="m65.566406 170.851562 5.28125-3.050781v6.101563zm0 0"/><path d="m65.566406 176.949219 5.28125-3.046875v6.097656zm0 0"/><path d="m65.566406 183.050781 5.28125-3.050781v6.097656zm0 0"/><path d="m65.566406 189.148438 5.28125-3.050782v6.101563zm0 0"/><path d="m65.566406 195.246094 5.28125-3.046875v6.097656zm0 0"/><path d="m65.566406 201.34375 5.28125-3.046875v6.097656zm0 0"/><path d="m65.566406 207.445312 5.28125-3.050781v6.097657zm0 0"/><path d="m65.566406 213.542969 5.28125-3.050781v6.101562zm0 0"/><path d="m65.566406 219.640625 5.28125-3.046875v6.097656zm0 0"/><path d="m65.566406 225.738281 5.28125-3.046875v6.097656zm0 0"/><path d="m65.566406 231.839844 5.28125-3.050782v6.097657zm0 0"/><path d="m65.566406 237.9375 5.28125-3.050781v6.101562zm0 0"/><path d="m65.566406 244.035156 5.28125-3.046875v6.097657zm0 0"/><path d="m76.128906 250.132812 5.28125-3.046874v6.097656zm0 0"/><path d="m81.410156 253.183594 5.28125-3.050782v6.101563zm0 0"/><path d="m91.972656 259.28125 5.28125-3.046875v6.097656zm0 0"/><path d="m107.816406 268.429688 5.285156-3.046876v6.097657zm0 0"/><path d="m113.101562 271.480469 5.28125-3.050781v6.097656zm0 0"/><path d="m128.945312 280.628906 5.28125-3.050781v6.097656zm0 0"/><path d="m134.226562 283.675781 5.28125-3.046875v6.097656zm0 0"/><path d="m150.070312 292.824219 5.28125-3.046875v6.097656zm0 0"/><path d="m160.632812 298.921875 5.28125-3.046875v6.097656zm0 0"/><path d="m165.914062 301.972656 5.285157-3.050781v6.101563zm0 0"/><path d="m176.480469 308.070312 5.28125-3.046874v6.097656zm0 0"/><path d="m181.761719 305.023438 5.28125-3.050782v6.097656zm0 0"/><path d="m187.042969 301.972656 5.28125-3.050781v6.101563zm0 0"/><path d="m192.324219 298.921875 5.28125-3.046875v6.097656zm0 0"/><path d="m197.605469 295.875 5.28125-3.050781v6.097656zm0 0"/><path d="m202.886719 292.824219 5.28125-3.046875v6.097656zm0 0"/><path d="m208.167969 289.777344 5.28125-3.050782v6.097657zm0 0"/><path d="m213.449219 286.726562 5.28125-3.050781v6.101563zm0 0"/><path d="m218.730469 283.675781 5.28125-3.046875v6.097656zm0 0"/><path d="m224.011719 280.628906 5.28125-3.050781v6.097656zm0 0"/><path d="m229.292969 277.578125 5.285156-3.050781v6.101562zm0 0"/><path d="m234.578125 274.527344 5.28125-3.046875v6.097656zm0 0"/><path d="m239.859375 271.480469 5.28125-3.050781v6.097656zm0 0"/><path d="m245.140625 268.429688 5.28125-3.046876v6.097657zm0 0"/><path d="m250.421875 265.382812 5.28125-3.050781v6.097657zm0 0"/><path d="m255.703125 262.332031 5.28125-3.050781v6.101562zm0 0"/><path d="m260.984375 259.28125 5.28125-3.046875v6.097656zm0 0"/><path d="m266.265625 256.234375 5.28125-3.050781v6.097656zm0 0"/><path d="m271.546875 253.183594 5.28125-3.050782v6.101563zm0 0"/><path d="m276.828125 250.132812 5.28125-3.046874v6.097656zm0 0"/><path d="m282.109375 247.085938 5.28125-3.050782v6.097656zm0 0"/><path d="m292.675781 234.886719 5.28125-3.046875v6.097656zm0 0"/><path d="m292.675781 222.691406 5.28125-3.050781v6.097656zm0 0"/><path d="m292.675781 198.296875 5.28125-3.050781v6.097656zm0 0"/><path d="m292.675781 192.199219 5.28125-3.050781v6.097656zm0 0"/><path d="m292.675781 167.800781 5.28125-3.046875v6.097656zm0 0"/><path d="m292.675781 161.703125 5.28125-3.046875v6.097656zm0 0"/><path d="m292.675781 137.308594 5.28125-3.046875v6.097656zm0 0"/><path d="m292.675781 125.113281 5.28125-3.050781v6.097656zm0 0"/><path d="m165.914062 51.929688 5.285157-3.050782v6.097656zm0 0"/><path d="m155.351562 58.027344 5.28125-3.050782v6.101563zm0 0"/><path d="m134.226562 70.222656 5.28125-3.046875v6.097657zm0 0"/><path d="m128.945312 73.273438 5.28125-3.050782v6.101563zm0 0"/><path d="m107.816406 85.472656 5.285156-3.050781v6.097656zm0 0"/><path d="m102.535156 88.519531 5.28125-3.046875v6.097656zm0 0"/><path d="m81.410156 100.71875 5.28125-3.050781v6.097656zm0 0"/><path d="m70.847656 106.816406 5.28125-3.050781v6.101563zm0 0"/><path d="m70.847656 253.183594 5.28125-3.050782v6.101563zm0 0"/><path d="m81.410156 259.28125 5.28125-3.046875v6.097656zm0 0"/><path d="m102.535156 271.480469 5.28125-3.050781v6.097656zm0 0"/><path d="m107.816406 274.527344 5.285156-3.046875v6.097656zm0 0"/><path d="m128.945312 286.726562 5.28125-3.050781v6.101563zm0 0"/><path d="m134.226562 289.777344 5.28125-3.050782v6.097657zm0 0"/><path d="m155.351562 301.972656 5.28125-3.050781v6.101563zm0 0"/><path d="m165.914062 308.070312 5.285157-3.046874v6.097656zm0 0"/><path d="m297.957031 201.34375 5.28125-3.046875v6.097656zm0 0"/><path d="m297.957031 195.246094 5.28125-3.046875v6.097656zm0 0"/><path d="m297.957031 164.753906 5.28125-3.050781v6.097656zm0 0"/><path d="m297.957031 158.65625 5.28125-3.050781v6.097656zm0 0"/><path d="m134.226562 64.125 5.28125-3.046875v6.097656zm0 0"/><path d="m128.945312 67.175781 5.28125-3.050781v6.097656zm0 0"/><path d="m102.535156 82.421875 5.28125-3.050781v6.101562zm0 0"/><path d="m97.253906 85.472656 5.28125-3.050781v6.097656zm0 0"/><path d="m97.253906 274.527344 5.28125-3.046875v6.097656zm0 0"/><path d="m102.535156 277.578125 5.28125-3.050781v6.101562zm0 0"/><path d="m128.945312 292.824219 5.28125-3.046875v6.097656zm0 0"/><path d="m134.226562 295.875 5.28125-3.050781v6.097656zm0 0"/><path d="m303.238281 253.183594 5.28125-3.050782v6.101563zm0 0"/><path d="m303.238281 247.085938 5.28125-3.050782v6.097656zm0 0"/><path d="m303.238281 210.492188 5.28125-3.046876v6.097657zm0 0"/><path d="m303.238281 204.394531 5.28125-3.050781v6.101562zm0 0"/><path d="m303.238281 198.296875 5.28125-3.050781v6.097656zm0 0"/><path d="m303.238281 161.703125 5.28125-3.046875v6.097656zm0 0"/><path d="m303.238281 155.605469 5.28125-3.050781v6.101562zm0 0"/><path d="m303.238281 149.507812 5.28125-3.050781v6.097657zm0 0"/><path d="m303.238281 112.914062 5.28125-3.046874v6.097656zm0 0"/><path d="m303.238281 106.816406 5.28125-3.050781v6.101563zm0 0"/><path d="m297.957031 103.765625 5.28125-3.046875v6.097656zm0 0"/><path d="m292.675781 100.71875 5.28125-3.050781v6.097656zm0 0"/><path d="m287.390625 97.667969 5.285156-3.050781v6.101562zm0 0"/><path d="m282.109375 94.617188 5.28125-3.046876v6.097657zm0 0"/><path d="m276.828125 91.570312 5.28125-3.050781v6.097657zm0 0"/><path d="m271.546875 88.519531 5.28125-3.046875v6.097656zm0 0"/><path d="m266.265625 85.472656 5.28125-3.050781v6.097656zm0 0"/><path d="m260.984375 82.421875 5.28125-3.050781v6.101562zm0 0"/><path d="m255.703125 79.371094 5.28125-3.046875v6.097656zm0 0"/><path d="m250.421875 76.324219 5.28125-3.050781v6.097656zm0 0"/><path d="m245.140625 73.273438 5.28125-3.050782v6.101563zm0 0"/><path d="m239.859375 70.222656 5.28125-3.046875v6.097657zm0 0"/><path d="m234.578125 67.175781 5.28125-3.050781v6.097656zm0 0"/><path d="m229.292969 64.125 5.285156-3.046875v6.097656zm0 0"/><path d="m224.011719 61.078125 5.28125-3.050781v6.097656zm0 0"/><path d="m218.730469 58.027344 5.28125-3.050782v6.101563zm0 0"/><path d="m213.449219 54.976562 5.28125-3.046874v6.097656zm0 0"/><path d="m208.167969 51.929688 5.28125-3.050782v6.097656zm0 0"/><path d="m202.886719 48.878906 5.28125-3.050781v6.101563zm0 0"/><path d="m197.605469 45.828125 5.28125-3.046875v6.097656zm0 0"/><path d="m192.324219 42.78125 5.28125-3.050781v6.097656zm0 0"/><path d="m187.042969 39.730469 5.28125-3.050781v6.101562zm0 0"/><path d="m181.761719 36.679688 5.28125-3.046876v6.097657zm0 0"/><path d="m176.480469 33.632812 5.28125-3.050781v6.097657zm0 0"/><path d="m171.199219 36.679688 5.28125-3.046876v6.097657zm0 0"/><path d="m139.507812 54.976562 5.28125-3.046874v6.097656zm0 0"/><path d="m134.226562 58.027344 5.28125-3.050782v6.101563zm0 0"/><path d="m128.945312 61.078125 5.28125-3.050781v6.097656zm0 0"/><path d="m97.253906 79.371094 5.28125-3.046875v6.097656zm0 0"/><path d="m91.972656 82.421875 5.28125-3.050781v6.101562zm0 0"/><path d="m86.691406 85.472656 5.28125-3.050781v6.097656zm0 0"/><path d="m55.003906 103.765625 5.28125-3.046875v6.097656zm0 0"/><path d="m49.722656 106.816406 5.28125-3.050781v6.101563zm0 0"/><path d="m49.722656 112.914062 5.28125-3.046874v6.097656zm0 0"/><path d="m49.722656 119.011719 5.28125-3.046875v6.097656zm0 0"/><path d="m49.722656 125.113281 5.28125-3.050781v6.097656zm0 0"/><path d="m49.722656 131.210938 5.28125-3.050782v6.101563zm0 0"/><path d="m49.722656 137.308594 5.28125-3.046875v6.097656zm0 0"/><path d="m49.722656 143.40625 5.28125-3.046875v6.097656zm0 0"/><path d="m49.722656 149.507812 5.28125-3.050781v6.097657zm0 0"/><path d="m49.722656 155.605469 5.28125-3.050781v6.101562zm0 0"/><path d="m49.722656 161.703125 5.28125-3.046875v6.097656zm0 0"/><path d="m49.722656 167.800781 5.28125-3.046875v6.097656zm0 0"/><path d="m49.722656 173.902344 5.28125-3.050782v6.097657zm0 0"/><path d="m49.722656 180 5.28125-3.050781v6.101562zm0 0"/><path d="m49.722656 186.097656 5.28125-3.046875v6.097657zm0 0"/><path d="m49.722656 192.199219 5.28125-3.050781v6.097656zm0 0"/><path d="m49.722656 198.296875 5.28125-3.050781v6.097656zm0 0"/><path d="m49.722656 204.394531 5.28125-3.050781v6.101562zm0 0"/><path d="m49.722656 210.492188 5.28125-3.046876v6.097657zm0 0"/><path d="m49.722656 216.59375 5.28125-3.050781v6.097656zm0 0"/><path d="m49.722656 222.691406 5.28125-3.050781v6.097656zm0 0"/><path d="m49.722656 228.789062 5.28125-3.050781v6.101563zm0 0"/><path d="m49.722656 234.886719 5.28125-3.046875v6.097656zm0 0"/><path d="m49.722656 240.988281 5.28125-3.050781v6.097656zm0 0"/><path d="m49.722656 247.085938 5.28125-3.050782v6.097656zm0 0"/><path d="m49.722656 253.183594 5.28125-3.050782v6.101563zm0 0"/><path d="m55.003906 256.234375 5.28125-3.050781v6.097656zm0 0"/><path d="m86.691406 274.527344 5.28125-3.046875v6.097656zm0 0"/><path d="m91.972656 277.578125 5.28125-3.050781v6.101562zm0 0"/><path d="m97.253906 280.628906 5.28125-3.050781v6.097656zm0 0"/><path d="m128.945312 298.921875 5.28125-3.046875v6.097656zm0 0"/><path d="m134.226562 301.972656 5.28125-3.050781v6.101563zm0 0"/><path d="m139.507812 305.023438 5.28125-3.050782v6.097656zm0 0"/><path d="m171.199219 323.320312 5.28125-3.050781v6.097657zm0 0"/><path d="m176.480469 326.367188 5.28125-3.046876v6.097657zm0 0"/><path d="m181.761719 323.320312 5.28125-3.050781v6.097657zm0 0"/><path d="m187.042969 320.269531 5.28125-3.050781v6.101562zm0 0"/><path d="m192.324219 317.21875 5.28125-3.046875v6.097656zm0 0"/><path d="m197.605469 314.171875 5.28125-3.050781v6.097656zm0 0"/><path d="m202.886719 311.121094 5.28125-3.050782v6.101563zm0 0"/><path d="m208.167969 308.070312 5.28125-3.046874v6.097656zm0 0"/><path d="m213.449219 305.023438 5.28125-3.050782v6.097656zm0 0"/><path d="m218.730469 301.972656 5.28125-3.050781v6.101563zm0 0"/><path d="m224.011719 298.921875 5.28125-3.046875v6.097656zm0 0"/><path d="m229.292969 295.875 5.285156-3.050781v6.097656zm0 0"/><path d="m234.578125 292.824219 5.28125-3.046875v6.097656zm0 0"/><path d="m239.859375 289.777344 5.28125-3.050782v6.097657zm0 0"/><path d="m245.140625 286.726562 5.28125-3.050781v6.101563zm0 0"/><path d="m250.421875 283.675781 5.28125-3.046875v6.097656zm0 0"/><path d="m255.703125 280.628906 5.28125-3.050781v6.097656zm0 0"/><path d="m260.984375 277.578125 5.28125-3.050781v6.101562zm0 0"/><path d="m266.265625 274.527344 5.28125-3.046875v6.097656zm0 0"/><path d="m271.546875 271.480469 5.28125-3.050781v6.097656zm0 0"/><path d="m276.828125 268.429688 5.28125-3.046876v6.097657zm0 0"/><path d="m282.109375 265.382812 5.28125-3.050781v6.097657zm0 0"/><path d="m287.390625 262.332031 5.285156-3.050781v6.101562zm0 0"/><path d="m292.675781 259.28125 5.28125-3.046875v6.097656zm0 0"/><path d="m297.957031 256.234375 5.28125-3.050781v6.097656zm0 0"/><path d="m308.519531 256.234375 5.28125-3.050781v6.097656zm0 0"/><path d="m308.519531 250.132812 5.28125-3.046874v6.097656zm0 0"/><path d="m308.519531 207.445312 5.28125-3.050781v6.097657zm0 0"/><path d="m308.519531 201.34375 5.28125-3.046875v6.097656zm0 0"/><path d="m308.519531 158.65625 5.28125-3.050781v6.097656zm0 0"/><path d="m308.519531 152.554688 5.28125-3.046876v6.097657zm0 0"/><path d="m308.519531 109.867188 5.28125-3.050782v6.097656zm0 0"/><path d="m308.519531 103.765625 5.28125-3.046875v6.097656zm0 0"/><path d="m303.238281 100.71875 5.28125-3.050781v6.097656zm0 0"/><path d="m297.957031 97.667969 5.28125-3.050781v6.101562zm0 0"/><path d="m292.675781 94.617188 5.28125-3.046876v6.097657zm0 0"/><path d="m287.390625 91.570312 5.285156-3.050781v6.097657zm0 0"/><path d="m282.109375 88.519531 5.28125-3.046875v6.097656zm0 0"/><path d="m276.828125 85.472656 5.28125-3.050781v6.097656zm0 0"/><path d="m271.546875 82.421875 5.28125-3.050781v6.101562zm0 0"/><path d="m266.265625 79.371094 5.28125-3.046875v6.097656zm0 0"/><path d="m260.984375 76.324219 5.28125-3.050781v6.097656zm0 0"/><path d="m255.703125 73.273438 5.28125-3.050782v6.101563zm0 0"/><path d="m250.421875 70.222656 5.28125-3.046875v6.097657zm0 0"/><path d="m245.140625 67.175781 5.28125-3.050781v6.097656zm0 0"/><path d="m239.859375 64.125 5.28125-3.046875v6.097656zm0 0"/><path d="m234.578125 61.078125 5.28125-3.050781v6.097656zm0 0"/><path d="m229.292969 58.027344 5.285156-3.050782v6.101563zm0 0"/><path d="m224.011719 54.976562 5.28125-3.046874v6.097656zm0 0"/><path d="m218.730469 51.929688 5.28125-3.050782v6.097656zm0 0"/><path d="m213.449219 48.878906 5.28125-3.050781v6.101563zm0 0"/><path d="m208.167969 45.828125 5.28125-3.046875v6.097656zm0 0"/><path d="m202.886719 42.78125 5.28125-3.050781v6.097656zm0 0"/><path d="m197.605469 39.730469 5.28125-3.050781v6.101562zm0 0"/><path d="m192.324219 36.679688 5.28125-3.046876v6.097657zm0 0"/><path d="m187.042969 33.632812 5.28125-3.050781v6.097657zm0 0"/><path d="m181.761719 30.582031 5.28125-3.046875v6.097656zm0 0"/><path d="m176.480469 27.535156 5.28125-3.050781v6.097656zm0 0"/><path d="m171.199219 30.582031 5.28125-3.046875v6.097656zm0 0"/><path d="m134.226562 51.929688 5.28125-3.050782v6.097656zm0 0"/><path d="m128.945312 54.976562 5.28125-3.046874v6.097656zm0 0"/><path d="m91.972656 76.324219 5.28125-3.050781v6.097656zm0 0"/><path d="m86.691406 79.371094 5.28125-3.046875v6.097656zm0 0"/><path d="m49.722656 100.71875 5.28125-3.050781v6.097656zm0 0"/><path d="m44.4375 103.765625 5.285156-3.046875v6.097656zm0 0"/><path d="m44.4375 109.867188 5.285156-3.050782v6.097656zm0 0"/><path d="m44.4375 115.964844 5.285156-3.050782v6.097657zm0 0"/><path d="m44.4375 122.0625 5.285156-3.050781v6.101562zm0 0"/><path d="m44.4375 128.160156 5.285156-3.046875v6.097657zm0 0"/><path d="m44.4375 134.261719 5.285156-3.050781v6.097656zm0 0"/><path d="m44.4375 140.359375 5.285156-3.050781v6.097656zm0 0"/><path d="m44.4375 146.457031 5.285156-3.050781v6.101562zm0 0"/><path d="m44.4375 152.554688 5.285156-3.046876v6.097657zm0 0"/><path d="m44.4375 158.65625 5.285156-3.050781v6.097656zm0 0"/><path d="m44.4375 164.753906 5.285156-3.050781v6.097656zm0 0"/><path d="m44.4375 170.851562 5.285156-3.050781v6.101563zm0 0"/><path d="m44.4375 176.949219 5.285156-3.046875v6.097656zm0 0"/><path d="m44.4375 183.050781 5.285156-3.050781v6.097656zm0 0"/><path d="m44.4375 189.148438 5.285156-3.050782v6.101563zm0 0"/><path d="m44.4375 195.246094 5.285156-3.046875v6.097656zm0 0"/><path d="m44.4375 201.34375 5.285156-3.046875v6.097656zm0 0"/><path d="m44.4375 207.445312 5.285156-3.050781v6.097657zm0 0"/><path d="m44.4375 213.542969 5.285156-3.050781v6.101562zm0 0"/><path d="m44.4375 219.640625 5.285156-3.046875v6.097656zm0 0"/><path d="m44.4375 225.738281 5.285156-3.046875v6.097656zm0 0"/><path d="m44.4375 231.839844 5.285156-3.050782v6.097657zm0 0"/><path d="m44.4375 237.9375 5.285156-3.050781v6.101562zm0 0"/><path d="m44.4375 244.035156 5.285156-3.046875v6.097657zm0 0"/><path d="m44.4375 250.132812 5.285156-3.046874v6.097656zm0 0"/><path d="m44.4375 256.234375 5.285156-3.050781v6.097656zm0 0"/><path d="m49.722656 259.28125 5.28125-3.046875v6.097656zm0 0"/><path d="m86.691406 280.628906 5.28125-3.050781v6.097656zm0 0"/><path d="m91.972656 283.675781 5.28125-3.046875v6.097656zm0 0"/><path d="m128.945312 305.023438 5.28125-3.050782v6.097656zm0 0"/><path d="m134.226562 308.070312 5.28125-3.046874v6.097656zm0 0"/><path d="m171.199219 329.417969 5.28125-3.050781v6.097656zm0 0"/><path d="m176.480469 332.464844 5.28125-3.046875v6.097656zm0 0"/><path d="m181.761719 329.417969 5.28125-3.050781v6.097656zm0 0"/><path d="m187.042969 326.367188 5.28125-3.046876v6.097657zm0 0"/><path d="m192.324219 323.320312 5.28125-3.050781v6.097657zm0 0"/><path d="m197.605469 320.269531 5.28125-3.050781v6.101562zm0 0"/><path d="m202.886719 317.21875 5.28125-3.046875v6.097656zm0 0"/><path d="m208.167969 314.171875 5.28125-3.050781v6.097656zm0 0"/><path d="m213.449219 311.121094 5.28125-3.050782v6.101563zm0 0"/><path d="m218.730469 308.070312 5.28125-3.046874v6.097656zm0 0"/><path d="m224.011719 305.023438 5.28125-3.050782v6.097656zm0 0"/><path d="m229.292969 301.972656 5.285156-3.050781v6.101563zm0 0"/><path d="m234.578125 298.921875 5.28125-3.046875v6.097656zm0 0"/><path d="m239.859375 295.875 5.28125-3.050781v6.097656zm0 0"/><path d="m245.140625 292.824219 5.28125-3.046875v6.097656zm0 0"/><path d="m250.421875 289.777344 5.28125-3.050782v6.097657zm0 0"/><path d="m255.703125 286.726562 5.28125-3.050781v6.101563zm0 0"/><path d="m260.984375 283.675781 5.28125-3.046875v6.097656zm0 0"/><path d="m266.265625 280.628906 5.28125-3.050781v6.097656zm0 0"/><path d="m271.546875 277.578125 5.28125-3.050781v6.101562zm0 0"/><path d="m276.828125 274.527344 5.28125-3.046875v6.097656zm0 0"/><path d="m282.109375 271.480469 5.28125-3.050781v6.097656zm0 0"/><path d="m287.390625 268.429688 5.285156-3.046876v6.097657zm0 0"/><path d="m292.675781 265.382812 5.28125-3.050781v6.097657zm0 0"/><path d="m297.957031 262.332031 5.28125-3.050781v6.101562zm0 0"/><path d="m303.238281 259.28125 5.28125-3.046875v6.097656zm0 0"/></g></svg>