<svg height="360pt" viewBox="0 0 360 360" width="360pt" xmlns="http://www.w3.org/2000/svg"><path d="m0 0h360v360h-360z" fill="#800080"/><g fill="#fff"><path d="m172.246094 182.6875 4.652344-2.6875v5.371094zm0 0"/><path d="m176.898438 185.371094 4.652343-2.683594v5.371094zm0 0"/><path d="m186.203125 174.628906 4.648437-2.6875v5.371094zm0 0"/><path d="m181.550781 171.941406 4.652344-2.683594v5.371094zm0 0"/><path d="m172.246094 188.058594 4.652344-2.6875v5.371094zm0 0"/><path d="m181.550781 188.058594 4.652344-2.6875v5.371094zm0 0"/><path d="m190.851562 182.6875 4.652344-2.6875v5.371094zm0 0"/><path d="m190.851562 177.3125 4.652344-2.683594v5.371094zm0 0"/><path d="m162.945312 188.058594 4.652344-2.6875v5.371094zm0 0"/><path d="m172.246094 193.429688 4.652344-2.6875v5.371093zm0 0"/><path d="m195.503906 190.742188 4.652344-2.683594v5.371094zm0 0"/><path d="m195.503906 174.628906 4.652344-2.6875v5.371094zm0 0"/><path d="m195.503906 169.257812 4.652344-2.6875v5.371094zm0 0"/><path d="m190.851562 166.570312 4.652344-2.683593v5.371093zm0 0"/><path d="m186.203125 163.886719 4.648437-2.6875v5.371093zm0 0"/><path d="m176.898438 158.515625 4.652343-2.6875v5.371094zm0 0"/><path d="m172.246094 161.199219 4.652344-2.683594v5.371094zm0 0"/><path d="m167.597656 163.886719 4.648438-2.6875v5.371093zm0 0"/><path d="m158.292969 185.371094 4.652343-2.683594v5.371094zm0 0"/><path d="m167.597656 196.113281 4.648438-2.683593v5.371093zm0 0"/><path d="m172.246094 198.800781 4.652344-2.6875v5.371094zm0 0"/><path d="m176.898438 201.484375 4.652343-2.683594v5.371094zm0 0"/><path d="m181.550781 198.800781 4.652344-2.6875v5.371094zm0 0"/><path d="m186.203125 196.113281 4.648437-2.683593v5.371093zm0 0"/><path d="m200.15625 182.6875 4.652344-2.6875v5.371094zm0 0"/><path d="m190.851562 161.199219 4.652344-2.683594v5.371094zm0 0"/><path d="m172.246094 155.828125 4.652344-2.683594v5.371094zm0 0"/><path d="m153.640625 166.570312 4.652344-2.683593v5.371093zm0 0"/><path d="m162.945312 198.800781 4.652344-2.6875v5.371094zm0 0"/><path d="m167.597656 201.484375 4.648438-2.683594v5.371094zm0 0"/><path d="m176.898438 206.855469 4.652343-2.683594v5.371094zm0 0"/><path d="m186.203125 201.484375 4.648437-2.683594v5.371094zm0 0"/><path d="m195.503906 196.113281 4.652344-2.683593v5.371093zm0 0"/><path d="m204.808594 174.628906 4.652344-2.6875v5.371094zm0 0"/><path d="m204.808594 163.886719 4.652344-2.6875v5.371093zm0 0"/><path d="m186.203125 153.144531 4.648437-2.6875v5.371094zm0 0"/><path d="m167.597656 153.144531 4.648438-2.6875v5.371094zm0 0"/><path d="m162.945312 155.828125 4.652344-2.683594v5.371094zm0 0"/><path d="m158.292969 158.515625 4.652343-2.6875v5.371094zm0 0"/><path d="m153.640625 161.199219 4.652344-2.683594v5.371094zm0 0"/><path d="m148.988281 163.886719 4.652344-2.6875v5.371093zm0 0"/><path d="m148.988281 180 4.652344-2.6875v5.375zm0 0"/><path d="m172.246094 209.542969 4.652344-2.6875v5.371093zm0 0"/><path d="m176.898438 212.226562 4.652343-2.683593v5.371093zm0 0"/><path d="m190.851562 204.171875 4.652344-2.6875v5.371094zm0 0"/><path d="m195.503906 201.484375 4.652344-2.683594v5.371094zm0 0"/><path d="m209.460938 193.429688 4.648437-2.6875v5.371093zm0 0"/><path d="m200.15625 155.828125 4.652344-2.683594v5.371094zm0 0"/><path d="m190.851562 150.457031 4.652344-2.683593v5.371093zm0 0"/><path d="m172.246094 145.085938 4.652344-2.683594v5.371094zm0 0"/><path d="m167.597656 147.773438 4.648438-2.6875v5.371093zm0 0"/><path d="m162.945312 150.457031 4.652344-2.683593v5.371093zm0 0"/><path d="m158.292969 153.144531 4.652343-2.6875v5.371094zm0 0"/><path d="m153.640625 155.828125 4.652344-2.683594v5.371094zm0 0"/><path d="m144.339844 166.570312 4.648437-2.683593v5.371093zm0 0"/><path d="m144.339844 177.3125 4.648437-2.683594v5.371094zm0 0"/><path d="m144.339844 182.6875 4.648437-2.6875v5.371094zm0 0"/><path d="m144.339844 193.429688 4.648437-2.6875v5.371093zm0 0"/><path d="m167.597656 212.226562 4.648438-2.683593v5.371093zm0 0"/><path d="m172.246094 214.914062 4.652344-2.6875v5.371094zm0 0"/><path d="m181.550781 214.914062 4.652344-2.6875v5.371094zm0 0"/><path d="m204.808594 201.484375 4.652344-2.683594v5.371094zm0 0"/><path d="m214.109375 196.113281 4.652344-2.683593v5.371093zm0 0"/><path d="m214.109375 190.742188 4.652344-2.683594v5.371094zm0 0"/><path d="m214.109375 174.628906 4.652344-2.6875v5.371094zm0 0"/><path d="m209.460938 155.828125 4.648437-2.683594v5.371094zm0 0"/><path d="m204.808594 153.144531 4.652344-2.6875v5.371094zm0 0"/><path d="m200.15625 150.457031 4.652344-2.683593v5.371093zm0 0"/><path d="m181.550781 139.714844 4.652344-2.683594v5.371094zm0 0"/><path d="m176.898438 137.03125 4.652343-2.6875v5.371094zm0 0"/><path d="m167.597656 142.402344 4.648438-2.6875v5.371094zm0 0"/><path d="m153.640625 150.457031 4.652344-2.683593v5.371093zm0 0"/><path d="m139.6875 158.515625 4.652344-2.6875v5.371094zm0 0"/><path d="m139.6875 163.886719 4.652344-2.6875v5.371093zm0 0"/><path d="m139.6875 180 4.652344-2.6875v5.375zm0 0"/><path d="m139.6875 185.371094 4.652344-2.683594v5.371094zm0 0"/><path d="m139.6875 196.113281 4.652344-2.683593v5.371093zm0 0"/><path d="m190.851562 214.914062 4.652344-2.6875v5.371094zm0 0"/><path d="m195.503906 212.226562 4.652344-2.683593v5.371093zm0 0"/><path d="m209.460938 204.171875 4.648437-2.6875v5.371094zm0 0"/><path d="m218.761719 182.6875 4.652343-2.6875v5.371094zm0 0"/><path d="m218.761719 171.941406 4.652343-2.683594v5.371094zm0 0"/><path d="m218.761719 155.828125 4.652343-2.683594v5.371094zm0 0"/><path d="m200.15625 145.085938 4.652344-2.683594v5.371094zm0 0"/><path d="m195.503906 142.402344 4.652344-2.6875v5.371094zm0 0"/><path d="m167.597656 137.03125 4.648438-2.6875v5.371094zm0 0"/><path d="m135.035156 155.828125 4.652344-2.683594v5.371094zm0 0"/><path d="m135.035156 161.199219 4.652344-2.683594v5.371094zm0 0"/><path d="m148.988281 212.226562 4.652344-2.683593v5.371093zm0 0"/><path d="m153.640625 214.914062 4.652344-2.6875v5.371094zm0 0"/><path d="m195.503906 217.597656 4.652344-2.683594v5.371094zm0 0"/><path d="m200.15625 214.914062 4.652344-2.6875v5.371094zm0 0"/><path d="m204.808594 212.226562 4.652344-2.683593v5.371093zm0 0"/><path d="m214.109375 206.855469 4.652344-2.683594v5.371094zm0 0"/><path d="m223.414062 196.113281 4.652344-2.683593v5.371093zm0 0"/><path d="m223.414062 185.371094 4.652344-2.683594v5.371094zm0 0"/><path d="m223.414062 180 4.652344-2.6875v5.375zm0 0"/><path d="m223.414062 153.144531 4.652344-2.6875v5.371094zm0 0"/><path d="m214.109375 147.773438 4.652344-2.6875v5.371093zm0 0"/><path d="m209.460938 145.085938 4.648437-2.683594v5.371094zm0 0"/><path d="m204.808594 142.402344 4.652344-2.6875v5.371094zm0 0"/><path d="m195.503906 137.03125 4.652344-2.6875v5.371094zm0 0"/><path d="m190.851562 134.34375 4.652344-2.683594v5.371094zm0 0"/><path d="m181.550781 128.972656 4.652344-2.683594v5.371094zm0 0"/><path d="m172.246094 128.972656 4.652344-2.683594v5.371094zm0 0"/><path d="m158.292969 137.03125 4.652343-2.6875v5.371094zm0 0"/><path d="m148.988281 142.402344 4.652344-2.6875v5.371094zm0 0"/><path d="m144.339844 145.085938 4.648437-2.683594v5.371094zm0 0"/><path d="m130.382812 158.515625 4.652344-2.6875v5.371094zm0 0"/><path d="m139.6875 212.226562 4.652344-2.683593v5.371093zm0 0"/><path d="m153.640625 220.285156 4.652344-2.6875v5.371094zm0 0"/><path d="m158.292969 222.96875 4.652343-2.683594v5.371094zm0 0"/><path d="m190.851562 225.65625 4.652344-2.6875v5.371094zm0 0"/><path d="m228.066406 198.800781 4.652344-2.6875v5.371094zm0 0"/><path d="m228.066406 188.058594 4.652344-2.6875v5.371094zm0 0"/><path d="m228.066406 177.3125 4.652344-2.683594v5.371094zm0 0"/><path d="m228.066406 150.457031 4.652344-2.683593v5.371093zm0 0"/><path d="m223.414062 147.773438 4.652344-2.6875v5.371093zm0 0"/><path d="m218.761719 145.085938 4.652343-2.683594v5.371094zm0 0"/><path d="m204.808594 137.03125 4.652344-2.6875v5.371094zm0 0"/><path d="m200.15625 134.34375 4.652344-2.683594v5.371094zm0 0"/><path d="m195.503906 131.660156 4.652344-2.6875v5.371094zm0 0"/><path d="m190.851562 128.972656 4.652344-2.683594v5.371094zm0 0"/><path d="m186.203125 126.289062 4.648437-2.6875v5.371094zm0 0"/><path d="m172.246094 123.601562 4.652344-2.683593v5.371093zm0 0"/><path d="m167.597656 126.289062 4.648438-2.6875v5.371094zm0 0"/><path d="m125.734375 161.199219 4.648437-2.683594v5.371094zm0 0"/><path d="m125.734375 188.058594 4.648437-2.6875v5.371094zm0 0"/><path d="m125.734375 193.429688 4.648437-2.6875v5.371093zm0 0"/><path d="m148.988281 222.96875 4.652344-2.683594v5.371094zm0 0"/><path d="m158.292969 228.339844 4.652343-2.683594v5.371094zm0 0"/><path d="m209.460938 220.285156 4.648437-2.6875v5.371094zm0 0"/><path d="m218.761719 214.914062 4.652343-2.6875v5.371094zm0 0"/><path d="m223.414062 212.226562 4.652344-2.683593v5.371093zm0 0"/><path d="m232.71875 190.742188 4.648438-2.683594v5.371094zm0 0"/><path d="m232.71875 180 4.648438-2.6875v5.375zm0 0"/><path d="m232.71875 158.515625 4.648438-2.6875v5.371094zm0 0"/><path d="m218.761719 139.714844 4.652343-2.683594v5.371094zm0 0"/><path d="m214.109375 137.03125 4.652344-2.6875v5.371094zm0 0"/><path d="m195.503906 126.289062 4.652344-2.6875v5.371094zm0 0"/><path d="m158.292969 126.289062 4.652343-2.6875v5.371094zm0 0"/><path d="m153.640625 128.972656 4.652344-2.683594v5.371094zm0 0"/><path d="m139.6875 137.03125 4.652344-2.6875v5.371094zm0 0"/><path d="m139.6875 222.96875 4.652344-2.683594v5.371094zm0 0"/><path d="m144.339844 225.65625 4.648437-2.6875v5.371094zm0 0"/><path d="m153.640625 231.027344 4.652344-2.6875v5.371094zm0 0"/><path d="m204.808594 228.339844 4.652344-2.683594v5.371094zm0 0"/><path d="m228.066406 214.914062 4.652344-2.6875v5.371094zm0 0"/><path d="m237.367188 209.542969 4.652343-2.6875v5.371093zm0 0"/><path d="m237.367188 177.3125 4.652343-2.683594v5.371094zm0 0"/><path d="m237.367188 171.941406 4.652343-2.683594v5.371094zm0 0"/><path d="m237.367188 166.570312 4.652343-2.683593v5.371093zm0 0"/><path d="m237.367188 155.828125 4.652343-2.683594v5.371094zm0 0"/><path d="m237.367188 150.457031 4.652343-2.683593v5.371093zm0 0"/><path d="m195.503906 120.917969 4.652344-2.6875v5.371093zm0 0"/><path d="m190.851562 118.230469 4.652344-2.683594v5.371094zm0 0"/><path d="m186.203125 115.546875 4.648437-2.6875v5.371094zm0 0"/><path d="m181.550781 112.859375 4.652344-2.683594v5.371094zm0 0"/><path d="m176.898438 110.175781 4.652343-2.6875v5.371094zm0 0"/><path d="m148.988281 126.289062 4.652344-2.6875v5.371094zm0 0"/><path d="m121.082031 142.402344 4.652344-2.6875v5.371094zm0 0"/><path d="m116.429688 155.828125 4.652343-2.683594v5.371094zm0 0"/><path d="m116.429688 171.941406 4.652343-2.683594v5.371094zm0 0"/><path d="m116.429688 182.6875 4.652343-2.6875v5.371094zm0 0"/><path d="m218.761719 225.65625 4.652343-2.6875v5.371094zm0 0"/><path d="m223.414062 222.96875 4.652344-2.683594v5.371094zm0 0"/><path d="m242.019531 212.226562 4.652344-2.683593v5.371093zm0 0"/><path d="m242.019531 206.855469 4.652344-2.683594v5.371094zm0 0"/><path d="m242.019531 190.742188 4.652344-2.683594v5.371094zm0 0"/><path d="m242.019531 169.257812 4.652344-2.6875v5.371094zm0 0"/><path d="m242.019531 163.886719 4.652344-2.6875v5.371093zm0 0"/><path d="m242.019531 158.515625 4.652344-2.6875v5.371094zm0 0"/><path d="m242.019531 153.144531 4.652344-2.6875v5.371094zm0 0"/><path d="m204.808594 120.917969 4.652344-2.6875v5.371093zm0 0"/><path d="m190.851562 112.859375 4.652344-2.683594v5.371094zm0 0"/><path d="m181.550781 107.488281 4.652344-2.683593v5.371093zm0 0"/><path d="m176.898438 104.804688 4.652343-2.6875v5.371093zm0 0"/><path d="m167.597656 110.175781 4.648438-2.6875v5.371094zm0 0"/><path d="m153.640625 118.230469 4.652344-2.683594v5.371094zm0 0"/><path d="m148.988281 120.917969 4.652344-2.6875v5.371093zm0 0"/><path d="m139.6875 126.289062 4.652344-2.6875v5.371094zm0 0"/><path d="m135.035156 128.972656 4.652344-2.683594v5.371094zm0 0"/><path d="m121.082031 137.03125 4.652344-2.6875v5.371094zm0 0"/><path d="m116.429688 139.714844 4.652343-2.683594v5.371094zm0 0"/><path d="m111.777344 142.402344 4.652344-2.6875v5.371094zm0 0"/><path d="m111.777344 147.773438 4.652344-2.6875v5.371093zm0 0"/><path d="m111.777344 153.144531 4.652344-2.6875v5.371094zm0 0"/><path d="m111.777344 158.515625 4.652344-2.6875v5.371094zm0 0"/><path d="m223.414062 228.339844 4.652344-2.683594v5.371094zm0 0"/><path d="m237.367188 220.285156 4.652343-2.6875v5.371094zm0 0"/><path d="m246.671875 220.285156 4.652344-2.6875v5.371094zm0 0"/><path d="m246.671875 214.914062 4.652344-2.6875v5.371094zm0 0"/><path d="m246.671875 198.800781 4.652344-2.6875v5.371094zm0 0"/><path d="m246.671875 171.941406 4.652344-2.683594v5.371094zm0 0"/><path d="m246.671875 161.199219 4.652344-2.683594v5.371094zm0 0"/><path d="m246.671875 155.828125 4.652344-2.683594v5.371094zm0 0"/><path d="m246.671875 150.457031 4.652344-2.683593v5.371093zm0 0"/><path d="m246.671875 145.085938 4.652344-2.683594v5.371094zm0 0"/><path d="m246.671875 139.714844 4.652344-2.683594v5.371094zm0 0"/><path d="m200.15625 112.859375 4.652344-2.683594v5.371094zm0 0"/><path d="m176.898438 99.433594 4.652343-2.6875v5.371094zm0 0"/><path d="m167.597656 104.804688 4.648438-2.6875v5.371093zm0 0"/><path d="m162.945312 107.488281 4.652344-2.683593v5.371093zm0 0"/><path d="m153.640625 112.859375 4.652344-2.683594v5.371094zm0 0"/><path d="m148.988281 115.546875 4.652344-2.6875v5.371094zm0 0"/><path d="m139.6875 120.917969 4.652344-2.6875v5.371093zm0 0"/><path d="m125.734375 128.972656 4.648437-2.683594v5.371094zm0 0"/><path d="m121.082031 131.660156 4.652344-2.6875v5.371094zm0 0"/><path d="m111.777344 137.03125 4.652344-2.6875v5.371094zm0 0"/><path d="m107.125 139.714844 4.652344-2.683594v5.371094zm0 0"/><path d="m107.125 161.199219 4.652344-2.683594v5.371094zm0 0"/><path d="m107.125 166.570312 4.652344-2.683593v5.371093zm0 0"/><path d="m228.066406 231.027344 4.652344-2.6875v5.371094zm0 0"/><path d="m232.71875 228.339844 4.648438-2.683594v5.371094zm0 0"/><path d="m237.367188 225.65625 4.652343-2.6875v5.371094zm0 0"/><path d="m242.019531 222.96875 4.652344-2.683594v5.371094zm0 0"/><path d="m251.324219 206.855469 4.648437-2.683594v5.371094zm0 0"/><path d="m251.324219 201.484375 4.648437-2.683594v5.371094zm0 0"/><path d="m251.324219 196.113281 4.648437-2.683593v5.371093zm0 0"/><path d="m251.324219 190.742188 4.648437-2.683594v5.371094zm0 0"/><path d="m251.324219 147.773438 4.648437-2.6875v5.371093zm0 0"/><path d="m251.324219 137.03125 4.648437-2.6875v5.371094zm0 0"/><path d="m223.414062 120.917969 4.652344-2.6875v5.371093zm0 0"/><path d="m209.460938 112.859375 4.648437-2.683594v5.371094zm0 0"/><path d="m190.851562 102.117188 4.652344-2.683594v5.371094zm0 0"/><path d="m186.203125 99.433594 4.648437-2.6875v5.371094zm0 0"/><path d="m162.945312 102.117188 4.652344-2.683594v5.371094zm0 0"/><path d="m158.292969 104.804688 4.652343-2.6875v5.371093zm0 0"/><path d="m148.988281 110.175781 4.652344-2.6875v5.371094zm0 0"/><path d="m144.339844 112.859375 4.648437-2.683594v5.371094zm0 0"/><path d="m116.429688 128.972656 4.652343-2.683594v5.371094zm0 0"/><path d="m107.125 134.34375 4.652344-2.683594v5.371094zm0 0"/><path d="m102.476562 137.03125 4.648438-2.6875v5.371094zm0 0"/><path d="m102.476562 163.886719 4.648438-2.6875v5.371093zm0 0"/><path d="m102.476562 169.257812 4.648438-2.6875v5.371094zm0 0"/><path d="m102.476562 174.628906 4.648438-2.6875v5.371094zm0 0"/><path d="m102.476562 180 4.648438-2.6875v5.375zm0 0"/><path d="m102.476562 190.742188 4.648438-2.683594v5.371094zm0 0"/><path d="m232.71875 233.710938 4.648438-2.683594v5.371094zm0 0"/><path d="m246.671875 225.65625 4.652344-2.6875v5.371094zm0 0"/><path d="m255.972656 220.285156 4.652344-2.6875v5.371094zm0 0"/><path d="m255.972656 214.914062 4.652344-2.6875v5.371094zm0 0"/><path d="m255.972656 209.542969 4.652344-2.6875v5.371093zm0 0"/><path d="m255.972656 204.171875 4.652344-2.6875v5.371094zm0 0"/><path d="m255.972656 198.800781 4.652344-2.6875v5.371094zm0 0"/><path d="m255.972656 188.058594 4.652344-2.6875v5.371094zm0 0"/><path d="m255.972656 182.6875 4.652344-2.6875v5.371094zm0 0"/><path d="m255.972656 171.941406 4.652344-2.683594v5.371094zm0 0"/><path d="m255.972656 150.457031 4.652344-2.683593v5.371093zm0 0"/><path d="m255.972656 145.085938 4.652344-2.683594v5.371094zm0 0"/><path d="m218.761719 112.859375 4.652343-2.683594v5.371094zm0 0"/><path d="m195.503906 99.433594 4.652344-2.6875v5.371094zm0 0"/><path d="m190.851562 96.746094 4.652344-2.683594v5.371094zm0 0"/><path d="m186.203125 94.0625 4.648437-2.6875v5.371094zm0 0"/><path d="m181.550781 91.375 4.652344-2.683594v5.371094zm0 0"/><path d="m172.246094 91.375 4.652344-2.683594v5.371094zm0 0"/><path d="m158.292969 99.433594 4.652343-2.6875v5.371094zm0 0"/><path d="m153.640625 102.117188 4.652344-2.683594v5.371094zm0 0"/><path d="m148.988281 104.804688 4.652344-2.6875v5.371093zm0 0"/><path d="m135.035156 112.859375 4.652344-2.683594v5.371094zm0 0"/><path d="m130.382812 115.546875 4.652344-2.6875v5.371094zm0 0"/><path d="m97.824219 134.34375 4.652343-2.683594v5.371094zm0 0"/><path d="m97.824219 155.828125 4.652343-2.683594v5.371094zm0 0"/><path d="m97.824219 171.941406 4.652343-2.683594v5.371094zm0 0"/><path d="m97.824219 188.058594 4.652343-2.6875v5.371094zm0 0"/><path d="m237.367188 236.398438 4.652343-2.6875v5.371093zm0 0"/><path d="m260.625 217.597656 4.652344-2.683594v5.371094zm0 0"/><path d="m260.625 196.113281 4.652344-2.683593v5.371093zm0 0"/><path d="m260.625 190.742188 4.652344-2.683594v5.371094zm0 0"/><path d="m260.625 180 4.652344-2.6875v5.375zm0 0"/><path d="m260.625 174.628906 4.652344-2.6875v5.371094zm0 0"/><path d="m260.625 158.515625 4.652344-2.6875v5.371094zm0 0"/><path d="m260.625 131.660156 4.652344-2.6875v5.371094zm0 0"/><path d="m228.066406 112.859375 4.652344-2.683594v5.371094zm0 0"/><path d="m190.851562 91.375 4.652344-2.683594v5.371094zm0 0"/><path d="m186.203125 88.691406 4.648437-2.6875v5.371094zm0 0"/><path d="m176.898438 83.320312 4.652343-2.6875v5.371094zm0 0"/><path d="m158.292969 94.0625 4.652343-2.6875v5.371094zm0 0"/><path d="m144.339844 102.117188 4.648437-2.683594v5.371094zm0 0"/><path d="m139.6875 104.804688 4.652344-2.6875v5.371093zm0 0"/><path d="m121.082031 115.546875 4.652344-2.6875v5.371094zm0 0"/><path d="m116.429688 118.230469 4.652343-2.683594v5.371094zm0 0"/><path d="m107.125 123.601562 4.652344-2.683593v5.371093zm0 0"/><path d="m102.476562 126.289062 4.648438-2.6875v5.371094zm0 0"/><path d="m97.824219 128.972656 4.652343-2.683594v5.371094zm0 0"/><path d="m93.171875 131.660156 4.652344-2.6875v5.371094zm0 0"/><path d="m93.171875 147.773438 4.652344-2.6875v5.371093zm0 0"/><path d="m93.171875 158.515625 4.652344-2.6875v5.371094zm0 0"/><path d="m93.171875 163.886719 4.652344-2.6875v5.371093zm0 0"/><path d="m93.171875 180 4.652344-2.6875v5.375zm0 0"/><path d="m246.671875 236.398438 4.652344-2.6875v5.371093zm0 0"/><path d="m265.277344 214.914062 4.652344-2.6875v5.371094zm0 0"/><path d="m265.277344 209.542969 4.652344-2.6875v5.371093zm0 0"/><path d="m265.277344 204.171875 4.652344-2.6875v5.371094zm0 0"/><path d="m265.277344 193.429688 4.652344-2.6875v5.371093zm0 0"/><path d="m265.277344 182.6875 4.652344-2.6875v5.371094zm0 0"/><path d="m265.277344 177.3125 4.652344-2.683594v5.371094zm0 0"/><path d="m265.277344 161.199219 4.652344-2.683594v5.371094zm0 0"/><path d="m265.277344 155.828125 4.652344-2.683594v5.371094zm0 0"/><path d="m255.972656 123.601562 4.652344-2.683593v5.371093zm0 0"/><path d="m190.851562 86.003906 4.652344-2.683594v5.371094zm0 0"/><path d="m181.550781 80.632812 4.652344-2.683593v5.371093zm0 0"/><path d="m167.597656 83.320312 4.648438-2.6875v5.371094zm0 0"/><path d="m158.292969 88.691406 4.652343-2.6875v5.371094zm0 0"/><path d="m153.640625 91.375 4.652344-2.683594v5.371094zm0 0"/><path d="m148.988281 94.0625 4.652344-2.6875v5.371094zm0 0"/><path d="m144.339844 96.746094 4.648437-2.683594v5.371094zm0 0"/><path d="m135.035156 102.117188 4.652344-2.683594v5.371094zm0 0"/><path d="m125.734375 107.488281 4.648437-2.683593v5.371093zm0 0"/><path d="m116.429688 112.859375 4.652343-2.683594v5.371094zm0 0"/><path d="m111.777344 115.546875 4.652344-2.6875v5.371094zm0 0"/><path d="m102.476562 120.917969 4.648438-2.6875v5.371093zm0 0"/><path d="m93.171875 126.289062 4.652344-2.6875v5.371094zm0 0"/><path d="m88.519531 128.972656 4.652344-2.683594v5.371094zm0 0"/><path d="m88.519531 145.085938 4.652344-2.683594v5.371094zm0 0"/><path d="m88.519531 150.457031 4.652344-2.683593v5.371093zm0 0"/><path d="m88.519531 155.828125 4.652344-2.683594v5.371094zm0 0"/><path d="m88.519531 161.199219 4.652344-2.683594v5.371094zm0 0"/><path d="m251.324219 239.082031 4.648437-2.683593v5.371093zm0 0"/><path d="m255.972656 236.398438 4.652344-2.6875v5.371093zm0 0"/><path d="m269.929688 233.710938 4.652343-2.683594v5.371094zm0 0"/><path d="m269.929688 217.597656 4.652343-2.683594v5.371094zm0 0"/><path d="m269.929688 206.855469 4.652343-2.683594v5.371094zm0 0"/><path d="m269.929688 196.113281 4.652343-2.683593v5.371093zm0 0"/><path d="m269.929688 185.371094 4.652343-2.683594v5.371094zm0 0"/><path d="m269.929688 174.628906 4.652343-2.6875v5.371094zm0 0"/><path d="m269.929688 153.144531 4.652343-2.6875v5.371094zm0 0"/><path d="m260.625 120.917969 4.652344-2.6875v5.371093zm0 0"/><path d="m190.851562 80.632812 4.652344-2.683593v5.371093zm0 0"/><path d="m186.203125 77.949219 4.648437-2.6875v5.371093zm0 0"/><path d="m176.898438 72.578125 4.652343-2.6875v5.371094zm0 0"/><path d="m167.597656 77.949219 4.648438-2.6875v5.371093zm0 0"/><path d="m162.945312 80.632812 4.652344-2.683593v5.371093zm0 0"/><path d="m158.292969 83.320312 4.652343-2.6875v5.371094zm0 0"/><path d="m153.640625 86.003906 4.652344-2.683594v5.371094zm0 0"/><path d="m144.339844 91.375 4.648437-2.683594v5.371094zm0 0"/><path d="m135.035156 96.746094 4.652344-2.683594v5.371094zm0 0"/><path d="m121.082031 104.804688 4.652344-2.6875v5.371093zm0 0"/><path d="m107.125 112.859375 4.652344-2.683594v5.371094zm0 0"/><path d="m97.824219 118.230469 4.652343-2.683594v5.371094zm0 0"/><path d="m93.171875 120.917969 4.652344-2.6875v5.371093zm0 0"/><path d="m83.867188 131.660156 4.652343-2.6875v5.371094zm0 0"/><path d="m83.867188 137.03125 4.652343-2.6875v5.371094zm0 0"/><path d="m83.867188 142.402344 4.652343-2.6875v5.371094zm0 0"/><path d="m83.867188 153.144531 4.652343-2.6875v5.371094zm0 0"/><path d="m83.867188 158.515625 4.652343-2.6875v5.371094zm0 0"/><path d="m246.671875 247.140625 4.652344-2.6875v5.371094zm0 0"/><path d="m251.324219 244.453125 4.648437-2.683594v5.371094zm0 0"/><path d="m255.972656 241.769531 4.652344-2.6875v5.371094zm0 0"/><path d="m260.625 239.082031 4.652344-2.683593v5.371093zm0 0"/><path d="m274.582031 231.027344 4.648438-2.6875v5.371094zm0 0"/><path d="m274.582031 225.65625 4.648438-2.6875v5.371094zm0 0"/><path d="m274.582031 214.914062 4.648438-2.6875v5.371094zm0 0"/><path d="m274.582031 198.800781 4.648438-2.6875v5.371094zm0 0"/><path d="m274.582031 188.058594 4.648438-2.6875v5.371094zm0 0"/><path d="m274.582031 182.6875 4.648438-2.6875v5.371094zm0 0"/><path d="m274.582031 166.570312 4.648438-2.683593v5.371093zm0 0"/><path d="m274.582031 155.828125 4.648438-2.683594v5.371094zm0 0"/><path d="m274.582031 139.714844 4.648438-2.683594v5.371094zm0 0"/><path d="m274.582031 128.972656 4.648438-2.683594v5.371094zm0 0"/><path d="m269.929688 120.917969 4.652343-2.6875v5.371093zm0 0"/><path d="m265.277344 118.230469 4.652344-2.683594v5.371094zm0 0"/><path d="m260.625 115.546875 4.652344-2.6875v5.371094zm0 0"/><path d="m200.15625 80.632812 4.652344-2.683593v5.371093zm0 0"/><path d="m190.851562 75.261719 4.652344-2.683594v5.371094zm0 0"/><path d="m181.550781 69.890625 4.652344-2.683594v5.371094zm0 0"/><path d="m176.898438 67.207031 4.652343-2.6875v5.371094zm0 0"/><path d="m167.597656 72.578125 4.648438-2.6875v5.371094zm0 0"/><path d="m158.292969 77.949219 4.652343-2.6875v5.371093zm0 0"/><path d="m153.640625 80.632812 4.652344-2.683593v5.371093zm0 0"/><path d="m148.988281 83.320312 4.652344-2.6875v5.371094zm0 0"/><path d="m135.035156 91.375 4.652344-2.683594v5.371094zm0 0"/><path d="m111.777344 104.804688 4.652344-2.6875v5.371093zm0 0"/><path d="m107.125 107.488281 4.652344-2.683593v5.371093zm0 0"/><path d="m102.476562 110.175781 4.648438-2.6875v5.371094zm0 0"/><path d="m93.171875 115.546875 4.652344-2.6875v5.371094zm0 0"/><path d="m88.519531 118.230469 4.652344-2.683594v5.371094zm0 0"/><path d="m83.867188 120.917969 4.652343-2.6875v5.371093zm0 0"/><path d="m79.21875 123.601562 4.648438-2.683593v5.371093zm0 0"/><path d="m79.21875 139.714844 4.648438-2.683594v5.371094zm0 0"/><path d="m265.277344 241.769531 4.652344-2.6875v5.371094zm0 0"/><path d="m269.929688 239.082031 4.652343-2.683593v5.371093zm0 0"/><path d="m279.230469 217.597656 4.652343-2.683594v5.371094zm0 0"/><path d="m279.230469 212.226562 4.652343-2.683593v5.371093zm0 0"/><path d="m279.230469 201.484375 4.652343-2.683594v5.371094zm0 0"/><path d="m279.230469 190.742188 4.652343-2.683594v5.371094zm0 0"/><path d="m279.230469 180 4.652343-2.6875v5.375zm0 0"/><path d="m279.230469 169.257812 4.652343-2.6875v5.371094zm0 0"/><path d="m279.230469 163.886719 4.652343-2.6875v5.371093zm0 0"/><path d="m279.230469 153.144531 4.652343-2.6875v5.371094zm0 0"/><path d="m279.230469 131.660156 4.652343-2.6875v5.371094zm0 0"/><path d="m269.929688 115.546875 4.652343-2.6875v5.371094zm0 0"/><path d="m265.277344 112.859375 4.652344-2.683594v5.371094zm0 0"/><path d="m200.15625 75.261719 4.652344-2.683594v5.371094zm0 0"/><path d="m172.246094 64.519531 4.652344-2.683593v5.371093zm0 0"/><path d="m158.292969 72.578125 4.652343-2.6875v5.371094zm0 0"/><path d="m153.640625 75.261719 4.652344-2.683594v5.371094zm0 0"/><path d="m139.6875 83.320312 4.652344-2.6875v5.371094zm0 0"/><path d="m135.035156 86.003906 4.652344-2.683594v5.371094zm0 0"/><path d="m130.382812 88.691406 4.652344-2.6875v5.371094zm0 0"/><path d="m116.429688 96.746094 4.652343-2.683594v5.371094zm0 0"/><path d="m107.125 102.117188 4.652344-2.683594v5.371094zm0 0"/><path d="m102.476562 104.804688 4.648438-2.6875v5.371093zm0 0"/><path d="m97.824219 107.488281 4.652343-2.683593v5.371093zm0 0"/><path d="m83.867188 115.546875 4.652343-2.6875v5.371094zm0 0"/><path d="m79.21875 118.230469 4.648438-2.683594v5.371094zm0 0"/><path d="m74.566406 147.773438 4.652344-2.6875v5.371093zm0 0"/><path d="m260.625 249.824219 4.652344-2.683594v5.371094zm0 0"/><path d="m274.582031 241.769531 4.648438-2.6875v5.371094zm0 0"/><path d="m283.882812 241.769531 4.652344-2.6875v5.371094zm0 0"/><path d="m283.882812 231.027344 4.652344-2.6875v5.371094zm0 0"/><path d="m283.882812 193.429688 4.652344-2.6875v5.371093zm0 0"/><path d="m283.882812 177.3125 4.652344-2.683594v5.371094zm0 0"/><path d="m283.882812 150.457031 4.652344-2.683593v5.371093zm0 0"/><path d="m283.882812 145.085938 4.652344-2.683594v5.371094zm0 0"/><path d="m283.882812 139.714844 4.652344-2.683594v5.371094zm0 0"/><path d="m283.882812 134.34375 4.652344-2.683594v5.371094zm0 0"/><path d="m283.882812 128.972656 4.652344-2.683594v5.371094zm0 0"/><path d="m283.882812 123.601562 4.652344-2.683593v5.371093zm0 0"/><path d="m204.808594 72.578125 4.652344-2.6875v5.371094zm0 0"/><path d="m167.597656 61.835938 4.648438-2.6875v5.371093zm0 0"/><path d="m158.292969 67.207031 4.652343-2.6875v5.371094zm0 0"/><path d="m139.6875 77.949219 4.652344-2.6875v5.371093zm0 0"/><path d="m130.382812 83.320312 4.652344-2.6875v5.371094zm0 0"/><path d="m116.429688 91.375 4.652343-2.683594v5.371094zm0 0"/><path d="m102.476562 99.433594 4.648438-2.6875v5.371094zm0 0"/><path d="m97.824219 102.117188 4.652343-2.683594v5.371094zm0 0"/><path d="m88.519531 107.488281 4.652344-2.683593v5.371093zm0 0"/><path d="m74.566406 115.546875 4.652344-2.6875v5.371094zm0 0"/><path d="m69.914062 150.457031 4.652344-2.683593v5.371093zm0 0"/><path d="m269.929688 249.824219 4.652343-2.683594v5.371094zm0 0"/><path d="m279.230469 244.453125 4.652343-2.683594v5.371094zm0 0"/><path d="m288.535156 244.453125 4.652344-2.683594v5.371094zm0 0"/><path d="m288.535156 239.082031 4.652344-2.683593v5.371093zm0 0"/><path d="m288.535156 233.710938 4.652344-2.683594v5.371094zm0 0"/><path d="m288.535156 222.96875 4.652344-2.683594v5.371094zm0 0"/><path d="m288.535156 212.226562 4.652344-2.683593v5.371093zm0 0"/><path d="m288.535156 196.113281 4.652344-2.683593v5.371093zm0 0"/><path d="m288.535156 174.628906 4.652344-2.6875v5.371094zm0 0"/><path d="m288.535156 153.144531 4.652344-2.6875v5.371094zm0 0"/><path d="m288.535156 137.03125 4.652344-2.6875v5.371094zm0 0"/><path d="m200.15625 64.519531 4.652344-2.683593v5.371093zm0 0"/><path d="m181.550781 53.777344 4.652344-2.683594v5.371094zm0 0"/><path d="m176.898438 51.09375 4.652343-2.6875v5.371094zm0 0"/><path d="m167.597656 56.464844 4.648438-2.6875v5.371094zm0 0"/><path d="m158.292969 61.835938 4.652343-2.6875v5.371093zm0 0"/><path d="m153.640625 64.519531 4.652344-2.683593v5.371093zm0 0"/><path d="m139.6875 72.578125 4.652344-2.6875v5.371094zm0 0"/><path d="m135.035156 75.261719 4.652344-2.683594v5.371094zm0 0"/><path d="m125.734375 80.632812 4.648437-2.683593v5.371093zm0 0"/><path d="m121.082031 83.320312 4.652344-2.6875v5.371094zm0 0"/><path d="m116.429688 86.003906 4.652343-2.683594v5.371094zm0 0"/><path d="m93.171875 99.433594 4.652344-2.6875v5.371094zm0 0"/><path d="m88.519531 102.117188 4.652344-2.683594v5.371094zm0 0"/><path d="m83.867188 104.804688 4.652343-2.6875v5.371093zm0 0"/><path d="m79.21875 107.488281 4.648438-2.683593v5.371093zm0 0"/><path d="m65.261719 120.917969 4.652343-2.6875v5.371093zm0 0"/><path d="m65.261719 131.660156 4.652343-2.6875v5.371094zm0 0"/><path d="m65.261719 137.03125 4.652343-2.6875v5.371094zm0 0"/><path d="m283.882812 247.140625 4.652344-2.6875v5.371094zm0 0"/><path d="m293.1875 236.398438 4.652344-2.6875v5.371093zm0 0"/><path d="m293.1875 225.65625 4.652344-2.6875v5.371094zm0 0"/><path d="m293.1875 220.285156 4.652344-2.6875v5.371094zm0 0"/><path d="m293.1875 198.800781 4.652344-2.6875v5.371094zm0 0"/><path d="m293.1875 161.199219 4.652344-2.683594v5.371094zm0 0"/><path d="m293.1875 155.828125 4.652344-2.683594v5.371094zm0 0"/><path d="m293.1875 134.34375 4.652344-2.683594v5.371094zm0 0"/><path d="m293.1875 128.972656 4.652344-2.683594v5.371094zm0 0"/><path d="m293.1875 112.859375 4.652344-2.683594v5.371094zm0 0"/><path d="m190.851562 53.777344 4.652344-2.683594v5.371094zm0 0"/><path d="m181.550781 48.40625 4.652344-2.683594v5.371094zm0 0"/><path d="m172.246094 48.40625 4.652344-2.683594v5.371094zm0 0"/><path d="m167.597656 51.09375 4.648438-2.6875v5.371094zm0 0"/><path d="m162.945312 53.777344 4.652344-2.683594v5.371094zm0 0"/><path d="m144.339844 64.519531 4.648437-2.683593v5.371093zm0 0"/><path d="m135.035156 69.890625 4.652344-2.683594v5.371094zm0 0"/><path d="m130.382812 72.578125 4.652344-2.6875v5.371094zm0 0"/><path d="m125.734375 75.261719 4.648437-2.683594v5.371094zm0 0"/><path d="m93.171875 94.0625 4.652344-2.6875v5.371094zm0 0"/><path d="m83.867188 99.433594 4.652343-2.6875v5.371094zm0 0"/><path d="m69.914062 107.488281 4.652344-2.683593v5.371093zm0 0"/><path d="m60.613281 112.859375 4.648438-2.683594v5.371094zm0 0"/><path d="m60.613281 128.972656 4.648438-2.683594v5.371094zm0 0"/><path d="m60.613281 139.714844 4.648438-2.683594v5.371094zm0 0"/><path d="m297.839844 249.824219 4.648437-2.683594v5.371094zm0 0"/><path d="m297.839844 239.082031 4.648437-2.683593v5.371093zm0 0"/><path d="m297.839844 228.339844 4.648437-2.683594v5.371094zm0 0"/><path d="m297.839844 217.597656 4.648437-2.683594v5.371094zm0 0"/><path d="m297.839844 206.855469 4.648437-2.683594v5.371094zm0 0"/><path d="m297.839844 153.144531 4.648437-2.6875v5.371094zm0 0"/><path d="m297.839844 147.773438 4.648437-2.6875v5.371093zm0 0"/><path d="m297.839844 110.175781 4.648437-2.6875v5.371094zm0 0"/><path d="m190.851562 48.40625 4.652344-2.683594v5.371094zm0 0"/><path d="m186.203125 45.722656 4.648437-2.6875v5.371094zm0 0"/><path d="m181.550781 43.035156 4.652344-2.683594v5.371094zm0 0"/><path d="m176.898438 40.351562 4.652343-2.6875v5.371094zm0 0"/><path d="m172.246094 43.035156 4.652344-2.683594v5.371094zm0 0"/><path d="m158.292969 51.09375 4.652343-2.6875v5.371094zm0 0"/><path d="m144.339844 59.148438 4.648437-2.683594v5.371094zm0 0"/><path d="m139.6875 61.835938 4.652344-2.6875v5.371093zm0 0"/><path d="m135.035156 64.519531 4.652344-2.683593v5.371093zm0 0"/><path d="m121.082031 72.578125 4.652344-2.6875v5.371094zm0 0"/><path d="m107.125 80.632812 4.652344-2.683593v5.371093zm0 0"/><path d="m102.476562 83.320312 4.648438-2.6875v5.371094zm0 0"/><path d="m97.824219 86.003906 4.652343-2.683594v5.371094zm0 0"/><path d="m83.867188 94.0625 4.652343-2.6875v5.371094zm0 0"/><path d="m69.914062 102.117188 4.652344-2.683594v5.371094zm0 0"/><path d="m65.261719 104.804688 4.652343-2.6875v5.371093zm0 0"/><path d="m60.613281 107.488281 4.648438-2.683593v5.371093zm0 0"/><path d="m55.960938 115.546875 4.652343-2.6875v5.371094zm0 0"/><path d="m55.960938 120.917969 4.652343-2.6875v5.371093zm0 0"/><path d="m55.960938 126.289062 4.652343-2.6875v5.371094zm0 0"/><path d="m55.960938 137.03125 4.652343-2.6875v5.371094zm0 0"/><path d="m288.535156 255.195312 4.652344-2.683593v5.371093zm0 0"/><path d="m302.488281 247.140625 4.652344-2.6875v5.371094zm0 0"/><path d="m302.488281 236.398438 4.652344-2.6875v5.371093zm0 0"/><path d="m302.488281 231.027344 4.652344-2.6875v5.371094zm0 0"/><path d="m302.488281 225.65625 4.652344-2.6875v5.371094zm0 0"/><path d="m302.488281 220.285156 4.652344-2.6875v5.371094zm0 0"/><path d="m302.488281 214.914062 4.652344-2.6875v5.371094zm0 0"/><path d="m302.488281 209.542969 4.652344-2.6875v5.371093zm0 0"/><path d="m302.488281 198.800781 4.652344-2.6875v5.371094zm0 0"/><path d="m302.488281 161.199219 4.652344-2.683594v5.371094zm0 0"/><path d="m302.488281 150.457031 4.652344-2.683593v5.371093zm0 0"/><path d="m302.488281 145.085938 4.652344-2.683594v5.371094zm0 0"/><path d="m302.488281 139.714844 4.652344-2.683594v5.371094zm0 0"/><path d="m302.488281 134.34375 4.652344-2.683594v5.371094zm0 0"/><path d="m302.488281 128.972656 4.652344-2.683594v5.371094zm0 0"/><path d="m302.488281 123.601562 4.652344-2.683593v5.371093zm0 0"/><path d="m302.488281 118.230469 4.652344-2.683594v5.371094zm0 0"/><path d="m302.488281 112.859375 4.652344-2.683594v5.371094zm0 0"/><path d="m181.550781 37.664062 4.652344-2.683593v5.371093zm0 0"/><path d="m51.308594 118.230469 4.652344-2.683594v5.371094zm0 0"/><path d="m51.308594 123.601562 4.652344-2.683593v5.371093zm0 0"/><path d="m293.1875 257.882812 4.652344-2.6875v5.371094zm0 0"/><path d="m297.839844 255.195312 4.648437-2.683593v5.371093zm0 0"/><path d="m307.140625 249.824219 4.652344-2.683594v5.371094zm0 0"/><path d="m307.140625 239.082031 4.652344-2.683593v5.371093zm0 0"/><path d="m307.140625 206.855469 4.652344-2.683594v5.371094zm0 0"/><path d="m307.140625 196.113281 4.652344-2.683593v5.371093zm0 0"/><path d="m307.140625 163.886719 4.652344-2.6875v5.371093zm0 0"/><path d="m307.140625 153.144531 4.652344-2.6875v5.371094zm0 0"/><path d="m307.140625 120.917969 4.652344-2.6875v5.371093zm0 0"/><path d="m307.140625 115.546875 4.652344-2.6875v5.371094zm0 0"/><path d="m46.65625 115.546875 4.652344-2.6875v5.371094zm0 0"/><path d="m311.792969 247.140625 4.652343-2.6875v5.371094zm0 0"/><path d="m311.792969 241.769531 4.652343-2.6875v5.371094zm0 0"/><path d="m311.792969 204.171875 4.652343-2.6875v5.371094zm0 0"/><path d="m311.792969 198.800781 4.652343-2.6875v5.371094zm0 0"/><path d="m311.792969 161.199219 4.652343-2.683594v5.371094zm0 0"/><path d="m311.792969 155.828125 4.652343-2.683594v5.371094zm0 0"/><path d="m311.792969 118.230469 4.652343-2.683594v5.371094zm0 0"/><path d="m311.792969 112.859375 4.652343-2.683594v5.371094zm0 0"/><path d="m186.203125 180-4.652344-2.6875v5.375zm0 0"/><path d="m186.203125 174.628906-4.652344-2.6875v5.371094zm0 0"/><path d="m181.550781 171.941406-4.652343-2.683594v5.371094zm0 0"/><path d="m176.898438 174.628906-4.652344-2.6875v5.371094zm0 0"/><path d="m176.898438 185.371094-4.652344-2.683594v5.371094zm0 0"/><path d="m186.203125 185.371094-4.652344-2.683594v5.371094zm0 0"/><path d="m195.503906 180-4.652344-2.6875v5.375zm0 0"/><path d="m181.550781 166.570312-4.652343-2.683593v5.371093zm0 0"/><path d="m172.246094 177.3125-4.648438-2.683594v5.371094zm0 0"/><path d="m172.246094 182.6875-4.648438-2.6875v5.371094zm0 0"/><path d="m172.246094 188.058594-4.648438-2.6875v5.371094zm0 0"/><path d="m186.203125 190.742188-4.652344-2.683594v5.371094zm0 0"/><path d="m190.851562 188.058594-4.648437-2.6875v5.371094zm0 0"/><path d="m200.15625 188.058594-4.652344-2.6875v5.371094zm0 0"/><path d="m190.851562 166.570312-4.648437-2.683593v5.371093zm0 0"/><path d="m186.203125 163.886719-4.652344-2.6875v5.371093zm0 0"/><path d="m181.550781 161.199219-4.652343-2.683594v5.371094zm0 0"/><path d="m176.898438 163.886719-4.652344-2.6875v5.371093zm0 0"/><path d="m167.597656 180-4.652344-2.6875v5.375zm0 0"/><path d="m167.597656 190.742188-4.652344-2.683594v5.371094zm0 0"/><path d="m204.808594 190.742188-4.652344-2.683594v5.371094zm0 0"/><path d="m200.15625 166.570312-4.652344-2.683593v5.371093zm0 0"/><path d="m190.851562 161.199219-4.648437-2.683594v5.371094zm0 0"/><path d="m186.203125 158.515625-4.652344-2.6875v5.371094zm0 0"/><path d="m181.550781 155.828125-4.652343-2.683594v5.371094zm0 0"/><path d="m172.246094 161.199219-4.648438-2.683594v5.371094zm0 0"/><path d="m162.945312 171.941406-4.652343-2.683594v5.371094zm0 0"/><path d="m176.898438 201.484375-4.652344-2.683594v5.371094zm0 0"/><path d="m186.203125 201.484375-4.652344-2.683594v5.371094zm0 0"/><path d="m209.460938 193.429688-4.652344-2.6875v5.371093zm0 0"/><path d="m209.460938 182.6875-4.652344-2.6875v5.371094zm0 0"/><path d="m209.460938 171.941406-4.652344-2.683594v5.371094zm0 0"/><path d="m209.460938 166.570312-4.652344-2.683593v5.371093zm0 0"/><path d="m176.898438 153.144531-4.652344-2.6875v5.371094zm0 0"/><path d="m158.292969 174.628906-4.652344-2.6875v5.371094zm0 0"/><path d="m158.292969 190.742188-4.652344-2.683594v5.371094zm0 0"/><path d="m158.292969 196.113281-4.652344-2.683593v5.371093zm0 0"/><path d="m167.597656 201.484375-4.652344-2.683594v5.371094zm0 0"/><path d="m186.203125 206.855469-4.652344-2.683594v5.371094zm0 0"/><path d="m214.109375 196.113281-4.648437-2.683593v5.371093zm0 0"/><path d="m214.109375 174.628906-4.648437-2.6875v5.371094zm0 0"/><path d="m195.503906 153.144531-4.652344-2.6875v5.371094zm0 0"/><path d="m172.246094 150.457031-4.648438-2.683593v5.371093zm0 0"/><path d="m167.597656 153.144531-4.652344-2.6875v5.371094zm0 0"/><path d="m153.640625 171.941406-4.652344-2.683594v5.371094zm0 0"/><path d="m153.640625 182.6875-4.652344-2.6875v5.371094zm0 0"/><path d="m167.597656 206.855469-4.652344-2.683594v5.371094zm0 0"/><path d="m172.246094 209.542969-4.648438-2.6875v5.371093zm0 0"/><path d="m190.851562 209.542969-4.648437-2.6875v5.371093zm0 0"/><path d="m195.503906 206.855469-4.652344-2.683594v5.371094zm0 0"/><path d="m209.460938 198.800781-4.652344-2.6875v5.371094zm0 0"/><path d="m218.761719 193.429688-4.652344-2.6875v5.371093zm0 0"/><path d="m218.761719 177.3125-4.652344-2.683594v5.371094zm0 0"/><path d="m214.109375 158.515625-4.648437-2.6875v5.371094zm0 0"/><path d="m195.503906 147.773438-4.652344-2.6875v5.371093zm0 0"/><path d="m186.203125 142.402344-4.652344-2.6875v5.371094zm0 0"/><path d="m181.550781 139.714844-4.652343-2.683594v5.371094zm0 0"/><path d="m158.292969 153.144531-4.652344-2.6875v5.371094zm0 0"/><path d="m148.988281 163.886719-4.648437-2.6875v5.371093zm0 0"/><path d="m148.988281 180-4.648437-2.6875v5.375zm0 0"/><path d="m148.988281 190.742188-4.648437-2.683594v5.371094zm0 0"/><path d="m148.988281 201.484375-4.648437-2.683594v5.371094zm0 0"/><path d="m158.292969 206.855469-4.652344-2.683594v5.371094zm0 0"/><path d="m162.945312 209.542969-4.652343-2.6875v5.371093zm0 0"/><path d="m167.597656 212.226562-4.652344-2.683593v5.371093zm0 0"/><path d="m176.898438 217.597656-4.652344-2.683594v5.371094zm0 0"/><path d="m181.550781 220.285156-4.652343-2.6875v5.371094zm0 0"/><path d="m186.203125 217.597656-4.652344-2.683594v5.371094zm0 0"/><path d="m223.414062 190.742188-4.652343-2.683594v5.371094zm0 0"/><path d="m223.414062 185.371094-4.652343-2.683594v5.371094zm0 0"/><path d="m218.761719 155.828125-4.652344-2.683594v5.371094zm0 0"/><path d="m214.109375 153.144531-4.648437-2.6875v5.371094zm0 0"/><path d="m209.460938 150.457031-4.652344-2.683593v5.371093zm0 0"/><path d="m200.15625 145.085938-4.652344-2.683594v5.371094zm0 0"/><path d="m195.503906 142.402344-4.652344-2.6875v5.371094zm0 0"/><path d="m190.851562 139.714844-4.648437-2.683594v5.371094zm0 0"/><path d="m153.640625 150.457031-4.652344-2.683593v5.371093zm0 0"/><path d="m148.988281 153.144531-4.648437-2.6875v5.371094zm0 0"/><path d="m144.339844 155.828125-4.652344-2.683594v5.371094zm0 0"/><path d="m144.339844 161.199219-4.652344-2.683594v5.371094zm0 0"/><path d="m144.339844 182.6875-4.652344-2.6875v5.371094zm0 0"/><path d="m144.339844 198.800781-4.652344-2.6875v5.371094zm0 0"/><path d="m144.339844 204.171875-4.652344-2.6875v5.371094zm0 0"/><path d="m153.640625 209.542969-4.652344-2.6875v5.371093zm0 0"/><path d="m158.292969 212.226562-4.652344-2.683593v5.371093zm0 0"/><path d="m162.945312 214.914062-4.652343-2.6875v5.371094zm0 0"/><path d="m167.597656 217.597656-4.652344-2.683594v5.371094zm0 0"/><path d="m172.246094 220.285156-4.648438-2.6875v5.371094zm0 0"/><path d="m176.898438 222.96875-4.652344-2.683594v5.371094zm0 0"/><path d="m190.851562 220.285156-4.648437-2.6875v5.371094zm0 0"/><path d="m218.761719 204.171875-4.652344-2.6875v5.371094zm0 0"/><path d="m228.066406 193.429688-4.652344-2.6875v5.371093zm0 0"/><path d="m228.066406 166.570312-4.652344-2.683593v5.371093zm0 0"/><path d="m223.414062 153.144531-4.652343-2.6875v5.371094zm0 0"/><path d="m218.761719 150.457031-4.652344-2.683593v5.371093zm0 0"/><path d="m148.988281 147.773438-4.648437-2.6875v5.371093zm0 0"/><path d="m139.6875 158.515625-4.652344-2.6875v5.371094zm0 0"/><path d="m139.6875 163.886719-4.652344-2.6875v5.371093zm0 0"/><path d="m139.6875 180-4.652344-2.6875v5.375zm0 0"/><path d="m139.6875 201.484375-4.652344-2.683594v5.371094zm0 0"/><path d="m176.898438 228.339844-4.652344-2.683594v5.371094zm0 0"/><path d="m181.550781 231.027344-4.652343-2.6875v5.371094zm0 0"/><path d="m186.203125 228.339844-4.652344-2.683594v5.371094zm0 0"/><path d="m190.851562 225.65625-4.648437-2.6875v5.371094zm0 0"/><path d="m195.503906 222.96875-4.652344-2.683594v5.371094zm0 0"/><path d="m209.460938 214.914062-4.652344-2.6875v5.371094zm0 0"/><path d="m232.71875 206.855469-4.652344-2.683594v5.371094zm0 0"/><path d="m232.71875 185.371094-4.652344-2.683594v5.371094zm0 0"/><path d="m232.71875 180-4.652344-2.6875v5.375zm0 0"/><path d="m232.71875 169.257812-4.652344-2.6875v5.371094zm0 0"/><path d="m232.71875 153.144531-4.652344-2.6875v5.371094zm0 0"/><path d="m204.808594 137.03125-4.652344-2.6875v5.371094zm0 0"/><path d="m195.503906 131.660156-4.652344-2.6875v5.371094zm0 0"/><path d="m190.851562 128.972656-4.648437-2.683594v5.371094zm0 0"/><path d="m158.292969 137.03125-4.652344-2.6875v5.371094zm0 0"/><path d="m153.640625 139.714844-4.652344-2.683594v5.371094zm0 0"/><path d="m139.6875 147.773438-4.652344-2.6875v5.371093zm0 0"/><path d="m135.035156 150.457031-4.652344-2.683593v5.371093zm0 0"/><path d="m135.035156 161.199219-4.652344-2.683594v5.371094zm0 0"/><path d="m135.035156 171.941406-4.652344-2.683594v5.371094zm0 0"/><path d="m135.035156 177.3125-4.652344-2.683594v5.371094zm0 0"/><path d="m135.035156 182.6875-4.652344-2.6875v5.371094zm0 0"/><path d="m135.035156 188.058594-4.652344-2.6875v5.371094zm0 0"/><path d="m135.035156 198.800781-4.652344-2.6875v5.371094zm0 0"/><path d="m167.597656 228.339844-4.652344-2.683594v5.371094zm0 0"/><path d="m176.898438 233.710938-4.652344-2.683594v5.371094zm0 0"/><path d="m181.550781 236.398438-4.652343-2.6875v5.371093zm0 0"/><path d="m190.851562 231.027344-4.648437-2.6875v5.371094zm0 0"/><path d="m195.503906 228.339844-4.652344-2.683594v5.371094zm0 0"/><path d="m218.761719 214.914062-4.652344-2.6875v5.371094zm0 0"/><path d="m223.414062 212.226562-4.652343-2.683593v5.371093zm0 0"/><path d="m237.367188 204.171875-4.648438-2.6875v5.371094zm0 0"/><path d="m237.367188 182.6875-4.648438-2.6875v5.371094zm0 0"/><path d="m237.367188 171.941406-4.648438-2.683594v5.371094zm0 0"/><path d="m237.367188 161.199219-4.648438-2.683594v5.371094zm0 0"/><path d="m237.367188 150.457031-4.648438-2.683593v5.371093zm0 0"/><path d="m228.066406 145.085938-4.652344-2.683594v5.371094zm0 0"/><path d="m190.851562 123.601562-4.648437-2.683593v5.371093zm0 0"/><path d="m186.203125 120.917969-4.652344-2.6875v5.371093zm0 0"/><path d="m158.292969 131.660156-4.652344-2.6875v5.371094zm0 0"/><path d="m144.339844 139.714844-4.652344-2.683594v5.371094zm0 0"/><path d="m139.6875 142.402344-4.652344-2.6875v5.371094zm0 0"/><path d="m130.382812 153.144531-4.648437-2.6875v5.371094zm0 0"/><path d="m130.382812 163.886719-4.648437-2.6875v5.371093zm0 0"/><path d="m130.382812 190.742188-4.648437-2.683594v5.371094zm0 0"/><path d="m130.382812 196.113281-4.648437-2.683593v5.371093zm0 0"/><path d="m130.382812 212.226562-4.648437-2.683593v5.371093zm0 0"/><path d="m135.035156 214.914062-4.652344-2.6875v5.371094zm0 0"/><path d="m153.640625 225.65625-4.652344-2.6875v5.371094zm0 0"/><path d="m162.945312 231.027344-4.652343-2.6875v5.371094zm0 0"/><path d="m172.246094 236.398438-4.648438-2.6875v5.371093zm0 0"/><path d="m181.550781 241.769531-4.652343-2.6875v5.371094zm0 0"/><path d="m190.851562 236.398438-4.648437-2.6875v5.371093zm0 0"/><path d="m204.808594 228.339844-4.652344-2.683594v5.371094zm0 0"/><path d="m214.109375 222.96875-4.648437-2.683594v5.371094zm0 0"/><path d="m228.066406 214.914062-4.652344-2.6875v5.371094zm0 0"/><path d="m232.71875 212.226562-4.652344-2.683593v5.371093zm0 0"/><path d="m242.019531 212.226562-4.652343-2.683593v5.371093zm0 0"/><path d="m242.019531 206.855469-4.652343-2.683594v5.371094zm0 0"/><path d="m242.019531 196.113281-4.652343-2.683593v5.371093zm0 0"/><path d="m242.019531 190.742188-4.652343-2.683594v5.371094zm0 0"/><path d="m242.019531 163.886719-4.652343-2.6875v5.371093zm0 0"/><path d="m242.019531 153.144531-4.652343-2.6875v5.371094zm0 0"/><path d="m237.367188 145.085938-4.648438-2.683594v5.371094zm0 0"/><path d="m232.71875 142.402344-4.652344-2.6875v5.371094zm0 0"/><path d="m218.761719 134.34375-4.652344-2.683594v5.371094zm0 0"/><path d="m195.503906 120.917969-4.652344-2.6875v5.371093zm0 0"/><path d="m153.640625 128.972656-4.652344-2.683594v5.371094zm0 0"/><path d="m148.988281 131.660156-4.648437-2.6875v5.371094zm0 0"/><path d="m125.734375 177.3125-4.652344-2.683594v5.371094zm0 0"/><path d="m125.734375 198.800781-4.652344-2.6875v5.371094zm0 0"/><path d="m125.734375 209.542969-4.652344-2.6875v5.371093zm0 0"/><path d="m125.734375 214.914062-4.652344-2.6875v5.371094zm0 0"/><path d="m135.035156 220.285156-4.652344-2.6875v5.371094zm0 0"/><path d="m158.292969 233.710938-4.652344-2.683594v5.371094zm0 0"/><path d="m172.246094 241.769531-4.648438-2.6875v5.371094zm0 0"/><path d="m176.898438 244.453125-4.652344-2.683594v5.371094zm0 0"/><path d="m181.550781 247.140625-4.652343-2.6875v5.371094zm0 0"/><path d="m186.203125 244.453125-4.652344-2.683594v5.371094zm0 0"/><path d="m190.851562 241.769531-4.648437-2.6875v5.371094zm0 0"/><path d="m195.503906 239.082031-4.652344-2.683593v5.371093zm0 0"/><path d="m209.460938 231.027344-4.652344-2.6875v5.371094zm0 0"/><path d="m214.109375 228.339844-4.648437-2.683594v5.371094zm0 0"/><path d="m223.414062 222.96875-4.652343-2.683594v5.371094zm0 0"/><path d="m228.066406 220.285156-4.652344-2.6875v5.371094zm0 0"/><path d="m246.671875 204.171875-4.652344-2.6875v5.371094zm0 0"/><path d="m246.671875 193.429688-4.652344-2.6875v5.371093zm0 0"/><path d="m246.671875 188.058594-4.652344-2.6875v5.371094zm0 0"/><path d="m246.671875 171.941406-4.652344-2.683594v5.371094zm0 0"/><path d="m246.671875 161.199219-4.652344-2.683594v5.371094zm0 0"/><path d="m242.019531 142.402344-4.652343-2.6875v5.371094zm0 0"/><path d="m228.066406 134.34375-4.652344-2.683594v5.371094zm0 0"/><path d="m223.414062 131.660156-4.652343-2.6875v5.371094zm0 0"/><path d="m209.460938 123.601562-4.652344-2.683593v5.371093zm0 0"/><path d="m200.15625 118.230469-4.652344-2.683594v5.371094zm0 0"/><path d="m190.851562 112.859375-4.648437-2.683594v5.371094zm0 0"/><path d="m181.550781 107.488281-4.652343-2.683593v5.371093zm0 0"/><path d="m176.898438 110.175781-4.652344-2.6875v5.371094zm0 0"/><path d="m153.640625 123.601562-4.652344-2.683593v5.371093zm0 0"/><path d="m139.6875 131.660156-4.652344-2.6875v5.371094zm0 0"/><path d="m135.035156 134.34375-4.652344-2.683594v5.371094zm0 0"/><path d="m130.382812 137.03125-4.648437-2.6875v5.371094zm0 0"/><path d="m121.082031 147.773438-4.652343-2.6875v5.371093zm0 0"/><path d="m121.082031 153.144531-4.652343-2.6875v5.371094zm0 0"/><path d="m121.082031 158.515625-4.652343-2.6875v5.371094zm0 0"/><path d="m121.082031 185.371094-4.652343-2.683594v5.371094zm0 0"/><path d="m121.082031 201.484375-4.652343-2.683594v5.371094zm0 0"/><path d="m158.292969 239.082031-4.652344-2.683593v5.371093zm0 0"/><path d="m172.246094 247.140625-4.648438-2.6875v5.371094zm0 0"/><path d="m181.550781 252.511719-4.652343-2.6875v5.371093zm0 0"/><path d="m186.203125 249.824219-4.652344-2.683594v5.371094zm0 0"/><path d="m218.761719 231.027344-4.652344-2.6875v5.371094zm0 0"/><path d="m223.414062 228.339844-4.652343-2.683594v5.371094zm0 0"/><path d="m232.71875 222.96875-4.652344-2.683594v5.371094zm0 0"/><path d="m242.019531 217.597656-4.652343-2.683594v5.371094zm0 0"/><path d="m251.324219 212.226562-4.652344-2.683593v5.371093zm0 0"/><path d="m251.324219 206.855469-4.652344-2.683594v5.371094zm0 0"/><path d="m251.324219 201.484375-4.652344-2.683594v5.371094zm0 0"/><path d="m251.324219 196.113281-4.652344-2.683593v5.371093zm0 0"/><path d="m251.324219 169.257812-4.652344-2.6875v5.371094zm0 0"/><path d="m251.324219 142.402344-4.652344-2.6875v5.371094zm0 0"/><path d="m242.019531 137.03125-4.652343-2.6875v5.371094zm0 0"/><path d="m232.71875 131.660156-4.652344-2.6875v5.371094zm0 0"/><path d="m228.066406 128.972656-4.652344-2.683594v5.371094zm0 0"/><path d="m195.503906 110.175781-4.652344-2.6875v5.371094zm0 0"/><path d="m181.550781 102.117188-4.652343-2.683594v5.371094zm0 0"/><path d="m172.246094 107.488281-4.648438-2.683593v5.371093zm0 0"/><path d="m148.988281 120.917969-4.648437-2.6875v5.371093zm0 0"/><path d="m135.035156 128.972656-4.652344-2.683594v5.371094zm0 0"/><path d="m116.429688 155.828125-4.652344-2.683594v5.371094zm0 0"/><path d="m116.429688 188.058594-4.652344-2.6875v5.371094zm0 0"/><path d="m116.429688 204.171875-4.652344-2.6875v5.371094zm0 0"/><path d="m125.734375 225.65625-4.652344-2.6875v5.371094zm0 0"/><path d="m135.035156 231.027344-4.652344-2.6875v5.371094zm0 0"/><path d="m158.292969 244.453125-4.652344-2.683594v5.371094zm0 0"/><path d="m162.945312 247.140625-4.652343-2.6875v5.371094zm0 0"/><path d="m181.550781 257.882812-4.652343-2.6875v5.371094zm0 0"/><path d="m190.851562 252.511719-4.648437-2.6875v5.371093zm0 0"/><path d="m195.503906 249.824219-4.652344-2.683594v5.371094zm0 0"/><path d="m204.808594 244.453125-4.652344-2.683594v5.371094zm0 0"/><path d="m237.367188 225.65625-4.648438-2.6875v5.371094zm0 0"/><path d="m255.972656 204.171875-4.648437-2.6875v5.371094zm0 0"/><path d="m255.972656 166.570312-4.648437-2.683593v5.371093zm0 0"/><path d="m255.972656 150.457031-4.648437-2.683593v5.371093zm0 0"/><path d="m255.972656 145.085938-4.648437-2.683594v5.371094zm0 0"/><path d="m251.324219 137.03125-4.652344-2.6875v5.371094zm0 0"/><path d="m237.367188 128.972656-4.648438-2.683594v5.371094zm0 0"/><path d="m232.71875 126.289062-4.652344-2.6875v5.371094zm0 0"/><path d="m218.761719 118.230469-4.652344-2.683594v5.371094zm0 0"/><path d="m200.15625 107.488281-4.652344-2.683593v5.371093zm0 0"/><path d="m195.503906 104.804688-4.652344-2.6875v5.371093zm0 0"/><path d="m190.851562 102.117188-4.648437-2.683594v5.371094zm0 0"/><path d="m181.550781 96.746094-4.652343-2.683594v5.371094zm0 0"/><path d="m111.777344 142.402344-4.652344-2.6875v5.371094zm0 0"/><path d="m111.777344 163.886719-4.652344-2.6875v5.371093zm0 0"/><path d="m111.777344 180-4.652344-2.6875v5.375zm0 0"/><path d="m111.777344 190.742188-4.652344-2.683594v5.371094zm0 0"/><path d="m111.777344 196.113281-4.652344-2.683593v5.371093zm0 0"/><path d="m111.777344 206.855469-4.652344-2.683594v5.371094zm0 0"/><path d="m111.777344 212.226562-4.652344-2.683593v5.371093zm0 0"/><path d="m111.777344 217.597656-4.652344-2.683594v5.371094zm0 0"/><path d="m111.777344 222.96875-4.652344-2.683594v5.371094zm0 0"/><path d="m116.429688 225.65625-4.652344-2.6875v5.371094zm0 0"/><path d="m121.082031 228.339844-4.652343-2.683594v5.371094zm0 0"/><path d="m135.035156 236.398438-4.652344-2.6875v5.371093zm0 0"/><path d="m148.988281 244.453125-4.648437-2.683594v5.371094zm0 0"/><path d="m153.640625 247.140625-4.652344-2.6875v5.371094zm0 0"/><path d="m186.203125 260.566406-4.652344-2.683594v5.371094zm0 0"/><path d="m200.15625 252.511719-4.652344-2.6875v5.371093zm0 0"/><path d="m204.808594 249.824219-4.652344-2.683594v5.371094zm0 0"/><path d="m232.71875 233.710938-4.652344-2.683594v5.371094zm0 0"/><path d="m246.671875 225.65625-4.652344-2.6875v5.371094zm0 0"/><path d="m251.324219 222.96875-4.652344-2.683594v5.371094zm0 0"/><path d="m260.625 158.515625-4.652344-2.6875v5.371094zm0 0"/><path d="m260.625 153.144531-4.652344-2.6875v5.371094zm0 0"/><path d="m260.625 142.402344-4.652344-2.6875v5.371094zm0 0"/><path d="m260.625 137.03125-4.652344-2.6875v5.371094zm0 0"/><path d="m251.324219 131.660156-4.652344-2.6875v5.371094zm0 0"/><path d="m242.019531 126.289062-4.652343-2.6875v5.371094zm0 0"/><path d="m237.367188 123.601562-4.648438-2.683593v5.371093zm0 0"/><path d="m232.71875 120.917969-4.652344-2.6875v5.371093zm0 0"/><path d="m223.414062 115.546875-4.652343-2.6875v5.371094zm0 0"/><path d="m204.808594 104.804688-4.652344-2.6875v5.371093zm0 0"/><path d="m107.125 171.941406-4.648438-2.683594v5.371094zm0 0"/><path d="m107.125 177.3125-4.648438-2.683594v5.371094zm0 0"/><path d="m107.125 198.800781-4.648438-2.6875v5.371094zm0 0"/><path d="m107.125 209.542969-4.648438-2.6875v5.371093zm0 0"/><path d="m107.125 225.65625-4.648438-2.6875v5.371094zm0 0"/><path d="m111.777344 228.339844-4.652344-2.683594v5.371094zm0 0"/><path d="m116.429688 231.027344-4.652344-2.6875v5.371094zm0 0"/><path d="m121.082031 233.710938-4.652343-2.683594v5.371094zm0 0"/><path d="m125.734375 236.398438-4.652344-2.6875v5.371093zm0 0"/><path d="m130.382812 239.082031-4.648437-2.683593v5.371093zm0 0"/><path d="m139.6875 244.453125-4.652344-2.683594v5.371094zm0 0"/><path d="m176.898438 265.9375-4.652344-2.683594v5.371094zm0 0"/><path d="m181.550781 268.625-4.652343-2.6875v5.371094zm0 0"/><path d="m190.851562 263.253906-4.648437-2.6875v5.371094zm0 0"/><path d="m200.15625 257.882812-4.652344-2.6875v5.371094zm0 0"/><path d="m204.808594 255.195312-4.652344-2.683593v5.371093zm0 0"/><path d="m218.761719 247.140625-4.652344-2.6875v5.371094zm0 0"/><path d="m228.066406 241.769531-4.652344-2.6875v5.371094zm0 0"/><path d="m237.367188 236.398438-4.648438-2.6875v5.371093zm0 0"/><path d="m265.277344 155.828125-4.652344-2.683594v5.371094zm0 0"/><path d="m265.277344 150.457031-4.652344-2.683593v5.371093zm0 0"/><path d="m265.277344 145.085938-4.652344-2.683594v5.371094zm0 0"/><path d="m265.277344 139.714844-4.652344-2.683594v5.371094zm0 0"/><path d="m260.625 131.660156-4.652344-2.6875v5.371094zm0 0"/><path d="m255.972656 128.972656-4.648437-2.683594v5.371094zm0 0"/><path d="m246.671875 123.601562-4.652344-2.683593v5.371093zm0 0"/><path d="m242.019531 120.917969-4.652343-2.6875v5.371093zm0 0"/><path d="m214.109375 104.804688-4.648437-2.6875v5.371093zm0 0"/><path d="m209.460938 102.117188-4.652344-2.683594v5.371094zm0 0"/><path d="m200.15625 96.746094-4.652344-2.683594v5.371094zm0 0"/><path d="m190.851562 91.375-4.648437-2.683594v5.371094zm0 0"/><path d="m186.203125 88.691406-4.652344-2.6875v5.371094zm0 0"/><path d="m102.476562 131.660156-4.652343-2.6875v5.371094zm0 0"/><path d="m102.476562 137.03125-4.652343-2.6875v5.371094zm0 0"/><path d="m102.476562 142.402344-4.652343-2.6875v5.371094zm0 0"/><path d="m102.476562 153.144531-4.652343-2.6875v5.371094zm0 0"/><path d="m102.476562 158.515625-4.652343-2.6875v5.371094zm0 0"/><path d="m102.476562 169.257812-4.652343-2.6875v5.371094zm0 0"/><path d="m102.476562 174.628906-4.652343-2.6875v5.371094zm0 0"/><path d="m102.476562 185.371094-4.652343-2.683594v5.371094zm0 0"/><path d="m102.476562 190.742188-4.652343-2.683594v5.371094zm0 0"/><path d="m102.476562 196.113281-4.652343-2.683593v5.371093zm0 0"/><path d="m102.476562 217.597656-4.652343-2.683594v5.371094zm0 0"/><path d="m144.339844 252.511719-4.652344-2.6875v5.371093zm0 0"/><path d="m148.988281 255.195312-4.648437-2.683593v5.371093zm0 0"/><path d="m153.640625 257.882812-4.652344-2.6875v5.371094zm0 0"/><path d="m158.292969 260.566406-4.652344-2.683594v5.371094zm0 0"/><path d="m176.898438 271.308594-4.652344-2.683594v5.371094zm0 0"/><path d="m186.203125 271.308594-4.652344-2.683594v5.371094zm0 0"/><path d="m195.503906 265.9375-4.652344-2.683594v5.371094zm0 0"/><path d="m200.15625 263.253906-4.652344-2.6875v5.371094zm0 0"/><path d="m214.109375 255.195312-4.648437-2.683593v5.371093zm0 0"/><path d="m228.066406 247.140625-4.652344-2.6875v5.371094zm0 0"/><path d="m237.367188 241.769531-4.648438-2.6875v5.371094zm0 0"/><path d="m246.671875 236.398438-4.652344-2.6875v5.371093zm0 0"/><path d="m269.929688 158.515625-4.652344-2.6875v5.371094zm0 0"/><path d="m269.929688 137.03125-4.652344-2.6875v5.371094zm0 0"/><path d="m260.625 126.289062-4.652344-2.6875v5.371094zm0 0"/><path d="m251.324219 120.917969-4.652344-2.6875v5.371093zm0 0"/><path d="m232.71875 110.175781-4.652344-2.6875v5.371094zm0 0"/><path d="m209.460938 96.746094-4.652344-2.683594v5.371094zm0 0"/><path d="m204.808594 94.0625-4.652344-2.6875v5.371094zm0 0"/><path d="m186.203125 83.320312-4.652344-2.6875v5.371094zm0 0"/><path d="m97.824219 134.34375-4.652344-2.683594v5.371094zm0 0"/><path d="m97.824219 139.714844-4.652344-2.683594v5.371094zm0 0"/><path d="m97.824219 145.085938-4.652344-2.683594v5.371094zm0 0"/><path d="m97.824219 161.199219-4.652344-2.683594v5.371094zm0 0"/><path d="m97.824219 171.941406-4.652344-2.683594v5.371094zm0 0"/><path d="m97.824219 188.058594-4.652344-2.6875v5.371094zm0 0"/><path d="m97.824219 209.542969-4.652344-2.6875v5.371093zm0 0"/><path d="m97.824219 225.65625-4.652344-2.6875v5.371094zm0 0"/><path d="m102.476562 233.710938-4.652343-2.683594v5.371094zm0 0"/><path d="m130.382812 249.824219-4.648437-2.683594v5.371094zm0 0"/><path d="m139.6875 255.195312-4.652344-2.683593v5.371093zm0 0"/><path d="m148.988281 260.566406-4.648437-2.683594v5.371094zm0 0"/><path d="m153.640625 263.253906-4.652344-2.6875v5.371094zm0 0"/><path d="m167.597656 271.308594-4.652344-2.683594v5.371094zm0 0"/><path d="m172.246094 273.996094-4.648438-2.6875v5.371094zm0 0"/><path d="m176.898438 276.679688-4.652344-2.683594v5.371094zm0 0"/><path d="m186.203125 276.679688-4.652344-2.683594v5.371094zm0 0"/><path d="m204.808594 265.9375-4.652344-2.683594v5.371094zm0 0"/><path d="m214.109375 260.566406-4.648437-2.683594v5.371094zm0 0"/><path d="m218.761719 257.882812-4.652344-2.6875v5.371094zm0 0"/><path d="m223.414062 255.195312-4.652343-2.683593v5.371093zm0 0"/><path d="m228.066406 252.511719-4.652344-2.6875v5.371093zm0 0"/><path d="m232.71875 249.824219-4.652344-2.683594v5.371094zm0 0"/><path d="m237.367188 247.140625-4.648438-2.6875v5.371094zm0 0"/><path d="m242.019531 244.453125-4.652343-2.683594v5.371094zm0 0"/><path d="m251.324219 239.082031-4.652344-2.683593v5.371093zm0 0"/><path d="m274.582031 155.828125-4.652343-2.683594v5.371094zm0 0"/><path d="m265.277344 123.601562-4.652344-2.683593v5.371093zm0 0"/><path d="m260.625 120.917969-4.652344-2.6875v5.371093zm0 0"/><path d="m246.671875 112.859375-4.652344-2.683594v5.371094zm0 0"/><path d="m186.203125 77.949219-4.652344-2.6875v5.371093zm0 0"/><path d="m93.171875 137.03125-4.652344-2.6875v5.371094zm0 0"/><path d="m93.171875 142.402344-4.652344-2.6875v5.371094zm0 0"/><path d="m93.171875 153.144531-4.652344-2.6875v5.371094zm0 0"/><path d="m93.171875 158.515625-4.652344-2.6875v5.371094zm0 0"/><path d="m93.171875 163.886719-4.652344-2.6875v5.371093zm0 0"/><path d="m93.171875 169.257812-4.652344-2.6875v5.371094zm0 0"/><path d="m93.171875 174.628906-4.652344-2.6875v5.371094zm0 0"/><path d="m93.171875 180-4.652344-2.6875v5.375zm0 0"/><path d="m93.171875 185.371094-4.652344-2.683594v5.371094zm0 0"/><path d="m93.171875 217.597656-4.652344-2.683594v5.371094zm0 0"/><path d="m97.824219 236.398438-4.652344-2.6875v5.371093zm0 0"/><path d="m102.476562 239.082031-4.652343-2.683593v5.371093zm0 0"/><path d="m116.429688 247.140625-4.652344-2.6875v5.371094zm0 0"/><path d="m121.082031 249.824219-4.652343-2.683594v5.371094zm0 0"/><path d="m125.734375 252.511719-4.652344-2.6875v5.371093zm0 0"/><path d="m130.382812 255.195312-4.648437-2.683593v5.371093zm0 0"/><path d="m139.6875 260.566406-4.652344-2.683594v5.371094zm0 0"/><path d="m148.988281 265.9375-4.648437-2.683594v5.371094zm0 0"/><path d="m190.851562 279.367188-4.648437-2.6875v5.371093zm0 0"/><path d="m204.808594 271.308594-4.652344-2.683594v5.371094zm0 0"/><path d="m214.109375 265.9375-4.648437-2.683594v5.371094zm0 0"/><path d="m218.761719 263.253906-4.652344-2.6875v5.371094zm0 0"/><path d="m223.414062 260.566406-4.652343-2.683594v5.371094zm0 0"/><path d="m232.71875 255.195312-4.652344-2.683593v5.371093zm0 0"/><path d="m237.367188 252.511719-4.648438-2.6875v5.371093zm0 0"/><path d="m242.019531 249.824219-4.652343-2.683594v5.371094zm0 0"/><path d="m246.671875 247.140625-4.652344-2.6875v5.371094zm0 0"/><path d="m260.625 239.082031-4.652344-2.683593v5.371093zm0 0"/><path d="m265.277344 236.398438-4.652344-2.6875v5.371093zm0 0"/><path d="m279.230469 233.710938-4.648438-2.683594v5.371094zm0 0"/><path d="m279.230469 163.886719-4.648438-2.6875v5.371093zm0 0"/><path d="m279.230469 158.515625-4.648438-2.6875v5.371094zm0 0"/><path d="m279.230469 142.402344-4.648438-2.6875v5.371094zm0 0"/><path d="m279.230469 126.289062-4.648438-2.6875v5.371094zm0 0"/><path d="m265.277344 118.230469-4.652344-2.683594v5.371094zm0 0"/><path d="m255.972656 112.859375-4.648437-2.683594v5.371094zm0 0"/><path d="m251.324219 110.175781-4.652344-2.6875v5.371094zm0 0"/><path d="m242.019531 104.804688-4.652343-2.6875v5.371093zm0 0"/><path d="m237.367188 102.117188-4.648438-2.683594v5.371094zm0 0"/><path d="m232.71875 99.433594-4.652344-2.6875v5.371094zm0 0"/><path d="m218.761719 91.375-4.652344-2.683594v5.371094zm0 0"/><path d="m214.109375 88.691406-4.648437-2.6875v5.371094zm0 0"/><path d="m204.808594 83.320312-4.652344-2.6875v5.371094zm0 0"/><path d="m195.503906 77.949219-4.652344-2.6875v5.371093zm0 0"/><path d="m186.203125 72.578125-4.652344-2.6875v5.371094zm0 0"/><path d="m88.519531 145.085938-4.652343-2.683594v5.371094zm0 0"/><path d="m88.519531 150.457031-4.652343-2.683593v5.371093zm0 0"/><path d="m88.519531 161.199219-4.652343-2.683594v5.371094zm0 0"/><path d="m88.519531 214.914062-4.652343-2.6875v5.371094zm0 0"/><path d="m88.519531 220.285156-4.652343-2.6875v5.371094zm0 0"/><path d="m93.171875 239.082031-4.652344-2.683593v5.371093zm0 0"/><path d="m102.476562 244.453125-4.652343-2.683594v5.371094zm0 0"/><path d="m111.777344 249.824219-4.652344-2.683594v5.371094zm0 0"/><path d="m125.734375 257.882812-4.652344-2.6875v5.371094zm0 0"/><path d="m139.6875 265.9375-4.652344-2.683594v5.371094zm0 0"/><path d="m158.292969 276.679688-4.652344-2.683594v5.371094zm0 0"/><path d="m162.945312 279.367188-4.652343-2.6875v5.371093zm0 0"/><path d="m181.550781 290.109375-4.652343-2.6875v5.371094zm0 0"/><path d="m214.109375 271.308594-4.648437-2.683594v5.371094zm0 0"/><path d="m228.066406 263.253906-4.652344-2.6875v5.371094zm0 0"/><path d="m237.367188 257.882812-4.648438-2.6875v5.371094zm0 0"/><path d="m242.019531 255.195312-4.652343-2.683593v5.371093zm0 0"/><path d="m246.671875 252.511719-4.652344-2.6875v5.371093zm0 0"/><path d="m260.625 244.453125-4.652344-2.683594v5.371094zm0 0"/><path d="m265.277344 241.769531-4.652344-2.6875v5.371094zm0 0"/><path d="m283.882812 236.398438-4.652343-2.6875v5.371093zm0 0"/><path d="m283.882812 155.828125-4.652343-2.683594v5.371094zm0 0"/><path d="m283.882812 145.085938-4.652343-2.683594v5.371094zm0 0"/><path d="m283.882812 123.601562-4.652343-2.683593v5.371093zm0 0"/><path d="m269.929688 115.546875-4.652344-2.6875v5.371094zm0 0"/><path d="m260.625 110.175781-4.652344-2.6875v5.371094zm0 0"/><path d="m255.972656 107.488281-4.648437-2.683593v5.371093zm0 0"/><path d="m246.671875 102.117188-4.652344-2.683594v5.371094zm0 0"/><path d="m232.71875 94.0625-4.652344-2.6875v5.371094zm0 0"/><path d="m195.503906 72.578125-4.652344-2.6875v5.371094zm0 0"/><path d="m186.203125 67.207031-4.652344-2.6875v5.371094zm0 0"/><path d="m83.867188 153.144531-4.648438-2.6875v5.371094zm0 0"/><path d="m83.867188 196.113281-4.648438-2.683593v5.371093zm0 0"/><path d="m83.867188 201.484375-4.648438-2.683594v5.371094zm0 0"/><path d="m83.867188 206.855469-4.648438-2.683594v5.371094zm0 0"/><path d="m83.867188 228.339844-4.648438-2.683594v5.371094zm0 0"/><path d="m83.867188 233.710938-4.648438-2.683594v5.371094zm0 0"/><path d="m97.824219 247.140625-4.652344-2.6875v5.371094zm0 0"/><path d="m111.777344 255.195312-4.652344-2.683593v5.371093zm0 0"/><path d="m116.429688 257.882812-4.652344-2.6875v5.371094zm0 0"/><path d="m121.082031 260.566406-4.652343-2.683594v5.371094zm0 0"/><path d="m125.734375 263.253906-4.652344-2.6875v5.371094zm0 0"/><path d="m135.035156 268.625-4.652344-2.6875v5.371094zm0 0"/><path d="m139.6875 271.308594-4.652344-2.683594v5.371094zm0 0"/><path d="m144.339844 273.996094-4.652344-2.6875v5.371094zm0 0"/><path d="m153.640625 279.367188-4.652344-2.6875v5.371093zm0 0"/><path d="m162.945312 284.738281-4.652343-2.6875v5.371094zm0 0"/><path d="m186.203125 292.792969-4.652344-2.683594v5.371094zm0 0"/><path d="m214.109375 276.679688-4.648437-2.683594v5.371094zm0 0"/><path d="m228.066406 268.625-4.652344-2.6875v5.371094zm0 0"/><path d="m232.71875 265.9375-4.652344-2.683594v5.371094zm0 0"/><path d="m242.019531 260.566406-4.652343-2.683594v5.371094zm0 0"/><path d="m246.671875 257.882812-4.652344-2.6875v5.371094zm0 0"/><path d="m251.324219 255.195312-4.652344-2.683593v5.371093zm0 0"/><path d="m265.277344 247.140625-4.652344-2.6875v5.371094zm0 0"/><path d="m274.582031 241.769531-4.652343-2.6875v5.371094zm0 0"/><path d="m288.535156 158.515625-4.652344-2.6875v5.371094zm0 0"/><path d="m288.535156 120.917969-4.652344-2.6875v5.371093zm0 0"/><path d="m274.582031 112.859375-4.652343-2.683594v5.371094zm0 0"/><path d="m260.625 104.804688-4.652344-2.6875v5.371093zm0 0"/><path d="m251.324219 99.433594-4.652344-2.6875v5.371094zm0 0"/><path d="m232.71875 88.691406-4.652344-2.6875v5.371094zm0 0"/><path d="m209.460938 75.261719-4.652344-2.683594v5.371094zm0 0"/><path d="m200.15625 69.890625-4.652344-2.683594v5.371094zm0 0"/><path d="m195.503906 67.207031-4.652344-2.6875v5.371094zm0 0"/><path d="m190.851562 64.519531-4.648437-2.683593v5.371093zm0 0"/><path d="m79.21875 123.601562-4.652344-2.683593v5.371093zm0 0"/><path d="m79.21875 139.714844-4.652344-2.683594v5.371094zm0 0"/><path d="m79.21875 145.085938-4.652344-2.683594v5.371094zm0 0"/><path d="m79.21875 161.199219-4.652344-2.683594v5.371094zm0 0"/><path d="m79.21875 188.058594-4.652344-2.6875v5.371094zm0 0"/><path d="m79.21875 198.800781-4.652344-2.6875v5.371094zm0 0"/><path d="m79.21875 220.285156-4.652344-2.6875v5.371094zm0 0"/><path d="m79.21875 225.65625-4.652344-2.6875v5.371094zm0 0"/><path d="m79.21875 241.769531-4.652344-2.6875v5.371094zm0 0"/><path d="m111.777344 260.566406-4.652344-2.683594v5.371094zm0 0"/><path d="m116.429688 263.253906-4.652344-2.6875v5.371094zm0 0"/><path d="m121.082031 265.9375-4.652343-2.683594v5.371094zm0 0"/><path d="m125.734375 268.625-4.652344-2.6875v5.371094zm0 0"/><path d="m130.382812 271.308594-4.648437-2.683594v5.371094zm0 0"/><path d="m135.035156 273.996094-4.652344-2.6875v5.371094zm0 0"/><path d="m139.6875 276.679688-4.652344-2.683594v5.371094zm0 0"/><path d="m144.339844 279.367188-4.652344-2.6875v5.371093zm0 0"/><path d="m158.292969 287.421875-4.652344-2.683594v5.371094zm0 0"/><path d="m162.945312 290.109375-4.652343-2.6875v5.371094zm0 0"/><path d="m167.597656 292.792969-4.652344-2.683594v5.371094zm0 0"/><path d="m176.898438 298.164062-4.652344-2.683593v5.371093zm0 0"/><path d="m181.550781 300.851562-4.652343-2.6875v5.371094zm0 0"/><path d="m186.203125 298.164062-4.652344-2.683593v5.371093zm0 0"/><path d="m190.851562 295.480469-4.648437-2.6875v5.371093zm0 0"/><path d="m214.109375 282.050781-4.648437-2.683593v5.371093zm0 0"/><path d="m242.019531 265.9375-4.652343-2.683594v5.371094zm0 0"/><path d="m246.671875 263.253906-4.652344-2.6875v5.371094zm0 0"/><path d="m265.277344 252.511719-4.652344-2.6875v5.371093zm0 0"/><path d="m293.1875 134.34375-4.652344-2.683594v5.371094zm0 0"/><path d="m293.1875 118.230469-4.652344-2.683594v5.371094zm0 0"/><path d="m283.882812 112.859375-4.652343-2.683594v5.371094zm0 0"/><path d="m274.582031 107.488281-4.652343-2.683593v5.371093zm0 0"/><path d="m255.972656 96.746094-4.648437-2.683594v5.371094zm0 0"/><path d="m232.71875 83.320312-4.652344-2.6875v5.371094zm0 0"/><path d="m214.109375 72.578125-4.648437-2.6875v5.371094zm0 0"/><path d="m209.460938 69.890625-4.652344-2.683594v5.371094zm0 0"/><path d="m74.566406 142.402344-4.652344-2.6875v5.371094zm0 0"/><path d="m74.566406 158.515625-4.652344-2.6875v5.371094zm0 0"/><path d="m74.566406 169.257812-4.652344-2.6875v5.371094zm0 0"/><path d="m74.566406 201.484375-4.652344-2.683594v5.371094zm0 0"/><path d="m74.566406 217.597656-4.652344-2.683594v5.371094zm0 0"/><path d="m74.566406 228.339844-4.652344-2.683594v5.371094zm0 0"/><path d="m74.566406 233.710938-4.652344-2.683594v5.371094zm0 0"/><path d="m74.566406 239.082031-4.652344-2.683593v5.371093zm0 0"/><path d="m88.519531 252.511719-4.652343-2.6875v5.371093zm0 0"/><path d="m93.171875 255.195312-4.652344-2.683593v5.371093zm0 0"/><path d="m97.824219 257.882812-4.652344-2.6875v5.371094zm0 0"/><path d="m102.476562 260.566406-4.652343-2.683594v5.371094zm0 0"/><path d="m116.429688 268.625-4.652344-2.6875v5.371094zm0 0"/><path d="m135.035156 279.367188-4.652344-2.6875v5.371093zm0 0"/><path d="m148.988281 287.421875-4.648437-2.683594v5.371094zm0 0"/><path d="m153.640625 290.109375-4.652344-2.6875v5.371094zm0 0"/><path d="m158.292969 292.792969-4.652344-2.683594v5.371094zm0 0"/><path d="m162.945312 295.480469-4.652343-2.6875v5.371093zm0 0"/><path d="m181.550781 306.222656-4.652343-2.6875v5.371094zm0 0"/><path d="m190.851562 300.851562-4.648437-2.6875v5.371094zm0 0"/><path d="m195.503906 298.164062-4.652344-2.683593v5.371093zm0 0"/><path d="m214.109375 287.421875-4.648437-2.683594v5.371094zm0 0"/><path d="m237.367188 273.996094-4.648438-2.6875v5.371094zm0 0"/><path d="m242.019531 271.308594-4.652343-2.683594v5.371094zm0 0"/><path d="m265.277344 257.882812-4.652344-2.6875v5.371094zm0 0"/><path d="m297.839844 131.660156-4.652344-2.6875v5.371094zm0 0"/><path d="m297.839844 120.917969-4.652344-2.6875v5.371093zm0 0"/><path d="m283.882812 107.488281-4.652343-2.683593v5.371093zm0 0"/><path d="m279.230469 104.804688-4.648438-2.6875v5.371093zm0 0"/><path d="m269.929688 99.433594-4.652344-2.6875v5.371094zm0 0"/><path d="m223.414062 72.578125-4.652343-2.6875v5.371094zm0 0"/><path d="m214.109375 67.207031-4.648437-2.6875v5.371094zm0 0"/><path d="m209.460938 64.519531-4.652344-2.683593v5.371093zm0 0"/><path d="m69.914062 145.085938-4.652343-2.683594v5.371094zm0 0"/><path d="m69.914062 161.199219-4.652343-2.683594v5.371094zm0 0"/><path d="m69.914062 204.171875-4.652343-2.6875v5.371094zm0 0"/><path d="m69.914062 225.65625-4.652343-2.6875v5.371094zm0 0"/><path d="m69.914062 231.027344-4.652343-2.6875v5.371094zm0 0"/><path d="m69.914062 241.769531-4.652343-2.6875v5.371094zm0 0"/><path d="m83.867188 255.195312-4.648438-2.683593v5.371093zm0 0"/><path d="m93.171875 260.566406-4.652344-2.683594v5.371094zm0 0"/><path d="m102.476562 265.9375-4.652343-2.683594v5.371094zm0 0"/><path d="m111.777344 271.308594-4.652344-2.683594v5.371094zm0 0"/><path d="m116.429688 273.996094-4.652344-2.6875v5.371094zm0 0"/><path d="m130.382812 282.050781-4.648437-2.683593v5.371093zm0 0"/><path d="m135.035156 284.738281-4.652344-2.6875v5.371094zm0 0"/><path d="m144.339844 290.109375-4.652344-2.6875v5.371094zm0 0"/><path d="m153.640625 295.480469-4.652344-2.6875v5.371093zm0 0"/><path d="m162.945312 300.851562-4.652343-2.6875v5.371094zm0 0"/><path d="m181.550781 311.59375-4.652343-2.6875v5.371094zm0 0"/><path d="m190.851562 306.222656-4.648437-2.6875v5.371094zm0 0"/><path d="m200.15625 300.851562-4.652344-2.6875v5.371094zm0 0"/><path d="m209.460938 295.480469-4.652344-2.6875v5.371093zm0 0"/><path d="m246.671875 273.996094-4.652344-2.6875v5.371094zm0 0"/><path d="m255.972656 268.625-4.648437-2.6875v5.371094zm0 0"/><path d="m260.625 265.9375-4.652344-2.683594v5.371094zm0 0"/><path d="m265.277344 263.253906-4.652344-2.6875v5.371094zm0 0"/><path d="m269.929688 260.566406-4.652344-2.683594v5.371094zm0 0"/><path d="m302.488281 123.601562-4.648437-2.683593v5.371093zm0 0"/><path d="m293.1875 107.488281-4.652344-2.683593v5.371093zm0 0"/><path d="m288.535156 104.804688-4.652344-2.6875v5.371093zm0 0"/><path d="m283.882812 102.117188-4.652343-2.683594v5.371094zm0 0"/><path d="m279.230469 99.433594-4.648438-2.6875v5.371094zm0 0"/><path d="m274.582031 96.746094-4.652343-2.683594v5.371094zm0 0"/><path d="m265.277344 91.375-4.652344-2.683594v5.371094zm0 0"/><path d="m232.71875 72.578125-4.652344-2.6875v5.371094zm0 0"/><path d="m223.414062 67.207031-4.652343-2.6875v5.371094zm0 0"/><path d="m218.761719 64.519531-4.652344-2.683593v5.371093zm0 0"/><path d="m214.109375 61.835938-4.648437-2.6875v5.371093zm0 0"/><path d="m209.460938 59.148438-4.652344-2.683594v5.371094zm0 0"/><path d="m204.808594 56.464844-4.652344-2.6875v5.371094zm0 0"/><path d="m65.261719 126.289062-4.648438-2.6875v5.371094zm0 0"/><path d="m65.261719 131.660156-4.648438-2.6875v5.371094zm0 0"/><path d="m65.261719 147.773438-4.648438-2.6875v5.371093zm0 0"/><path d="m65.261719 169.257812-4.648438-2.6875v5.371094zm0 0"/><path d="m65.261719 180-4.648438-2.6875v5.375zm0 0"/><path d="m65.261719 212.226562-4.648438-2.683593v5.371093zm0 0"/><path d="m65.261719 222.96875-4.648438-2.683594v5.371094zm0 0"/><path d="m65.261719 233.710938-4.648438-2.683594v5.371094zm0 0"/><path d="m65.261719 244.453125-4.648438-2.683594v5.371094zm0 0"/><path d="m88.519531 263.253906-4.652343-2.6875v5.371094zm0 0"/><path d="m93.171875 265.9375-4.652344-2.683594v5.371094zm0 0"/><path d="m107.125 273.996094-4.648438-2.6875v5.371094zm0 0"/><path d="m111.777344 276.679688-4.652344-2.683594v5.371094zm0 0"/><path d="m130.382812 287.421875-4.648437-2.683594v5.371094zm0 0"/><path d="m135.035156 290.109375-4.652344-2.6875v5.371094zm0 0"/><path d="m148.988281 298.164062-4.648437-2.683593v5.371093zm0 0"/><path d="m153.640625 300.851562-4.652344-2.6875v5.371094zm0 0"/><path d="m186.203125 314.277344-4.652344-2.683594v5.371094zm0 0"/><path d="m190.851562 311.59375-4.648437-2.6875v5.371094zm0 0"/><path d="m195.503906 308.90625-4.652344-2.683594v5.371094zm0 0"/><path d="m200.15625 306.222656-4.652344-2.6875v5.371094zm0 0"/><path d="m204.808594 303.535156-4.652344-2.683594v5.371094zm0 0"/><path d="m209.460938 300.851562-4.652344-2.6875v5.371094zm0 0"/><path d="m218.761719 295.480469-4.652344-2.6875v5.371093zm0 0"/><path d="m246.671875 279.367188-4.652344-2.6875v5.371093zm0 0"/><path d="m260.625 271.308594-4.652344-2.683594v5.371094zm0 0"/><path d="m265.277344 268.625-4.652344-2.6875v5.371094zm0 0"/><path d="m269.929688 265.9375-4.652344-2.683594v5.371094zm0 0"/><path d="m274.582031 263.253906-4.652343-2.6875v5.371094zm0 0"/><path d="m279.230469 260.566406-4.648438-2.683594v5.371094zm0 0"/><path d="m293.1875 252.511719-4.652344-2.6875v5.371093zm0 0"/><path d="m307.140625 110.175781-4.652344-2.6875v5.371094zm0 0"/><path d="m302.488281 107.488281-4.648437-2.683593v5.371093zm0 0"/><path d="m297.839844 104.804688-4.652344-2.6875v5.371093zm0 0"/><path d="m269.929688 88.691406-4.652344-2.6875v5.371094zm0 0"/><path d="m260.625 83.320312-4.652344-2.6875v5.371094zm0 0"/><path d="m242.019531 72.578125-4.652343-2.6875v5.371094zm0 0"/><path d="m232.71875 67.207031-4.652344-2.6875v5.371094zm0 0"/><path d="m204.808594 51.09375-4.652344-2.6875v5.371094zm0 0"/><path d="m200.15625 48.40625-4.652344-2.683594v5.371094zm0 0"/><path d="m195.503906 45.722656-4.652344-2.6875v5.371094zm0 0"/><path d="m190.851562 43.035156-4.648437-2.683594v5.371094zm0 0"/><path d="m60.613281 139.714844-4.652343-2.683594v5.371094zm0 0"/><path d="m60.613281 145.085938-4.652343-2.683594v5.371094zm0 0"/><path d="m60.613281 150.457031-4.652343-2.683593v5.371093zm0 0"/><path d="m60.613281 155.828125-4.652343-2.683594v5.371094zm0 0"/><path d="m60.613281 161.199219-4.652343-2.683594v5.371094zm0 0"/><path d="m60.613281 171.941406-4.652343-2.683594v5.371094zm0 0"/><path d="m60.613281 177.3125-4.652343-2.683594v5.371094zm0 0"/><path d="m60.613281 204.171875-4.652343-2.6875v5.371094zm0 0"/><path d="m60.613281 214.914062-4.652343-2.6875v5.371094zm0 0"/><path d="m60.613281 220.285156-4.652343-2.6875v5.371094zm0 0"/><path d="m60.613281 225.65625-4.652343-2.6875v5.371094zm0 0"/><path d="m60.613281 231.027344-4.652343-2.6875v5.371094zm0 0"/><path d="m60.613281 236.398438-4.652343-2.6875v5.371093zm0 0"/><path d="m60.613281 241.769531-4.652343-2.6875v5.371094zm0 0"/><path d="m60.613281 252.511719-4.652343-2.6875v5.371093zm0 0"/><path d="m65.261719 255.195312-4.648438-2.683593v5.371093zm0 0"/><path d="m88.519531 268.625-4.652343-2.6875v5.371094zm0 0"/><path d="m148.988281 303.535156-4.648437-2.683594v5.371094zm0 0"/><path d="m172.246094 316.964844-4.648438-2.6875v5.371094zm0 0"/><path d="m176.898438 319.648438-4.652344-2.683594v5.371094zm0 0"/><path d="m186.203125 319.648438-4.652344-2.683594v5.371094zm0 0"/><path d="m214.109375 303.535156-4.648437-2.683594v5.371094zm0 0"/><path d="m223.414062 298.164062-4.652343-2.683593v5.371093zm0 0"/><path d="m311.792969 112.859375-4.652344-2.683594v5.371094zm0 0"/><path d="m302.488281 102.117188-4.648437-2.683594v5.371094zm0 0"/><path d="m279.230469 88.691406-4.648438-2.6875v5.371094zm0 0"/><path d="m265.277344 80.632812-4.652344-2.683593v5.371093zm0 0"/><path d="m242.019531 67.207031-4.652343-2.6875v5.371094zm0 0"/><path d="m228.066406 59.148438-4.652344-2.683594v5.371094zm0 0"/><path d="m204.808594 45.722656-4.652344-2.6875v5.371094zm0 0"/><path d="m190.851562 37.664062-4.648437-2.683593v5.371093zm0 0"/><path d="m55.960938 120.917969-4.652344-2.6875v5.371093zm0 0"/><path d="m55.960938 126.289062-4.652344-2.6875v5.371094zm0 0"/><path d="m55.960938 158.515625-4.652344-2.6875v5.371094zm0 0"/><path d="m55.960938 169.257812-4.652344-2.6875v5.371094zm0 0"/><path d="m55.960938 201.484375-4.652344-2.683594v5.371094zm0 0"/><path d="m55.960938 212.226562-4.652344-2.683593v5.371093zm0 0"/><path d="m55.960938 244.453125-4.652344-2.683594v5.371094zm0 0"/><path d="m55.960938 255.195312-4.652344-2.683593v5.371093zm0 0"/><path d="m65.261719 260.566406-4.648438-2.683594v5.371094zm0 0"/><path d="m69.914062 263.253906-4.652343-2.6875v5.371094zm0 0"/><path d="m88.519531 273.996094-4.652343-2.6875v5.371094zm0 0"/><path d="m93.171875 276.679688-4.652344-2.683594v5.371094zm0 0"/><path d="m102.476562 282.050781-4.652343-2.683593v5.371093zm0 0"/><path d="m107.125 284.738281-4.648438-2.6875v5.371094zm0 0"/><path d="m125.734375 295.480469-4.652344-2.6875v5.371093zm0 0"/><path d="m130.382812 298.164062-4.648437-2.683593v5.371093zm0 0"/><path d="m139.6875 303.535156-4.652344-2.683594v5.371094zm0 0"/><path d="m144.339844 306.222656-4.652344-2.6875v5.371094zm0 0"/><path d="m162.945312 316.964844-4.652343-2.6875v5.371094zm0 0"/><path d="m167.597656 319.648438-4.652344-2.683594v5.371094zm0 0"/><path d="m176.898438 325.019531-4.652344-2.683593v5.371093zm0 0"/><path d="m181.550781 327.707031-4.652343-2.6875v5.371094zm0 0"/><path d="m186.203125 325.019531-4.652344-2.683593v5.371093zm0 0"/><path d="m218.761719 306.222656-4.652344-2.6875v5.371094zm0 0"/><path d="m223.414062 303.535156-4.652343-2.683594v5.371094zm0 0"/><path d="m255.972656 284.738281-4.648437-2.6875v5.371094zm0 0"/><path d="m260.625 282.050781-4.652344-2.683593v5.371093zm0 0"/><path d="m293.1875 263.253906-4.652344-2.6875v5.371094zm0 0"/><path d="m297.839844 260.566406-4.652344-2.683594v5.371094zm0 0"/><path d="m316.445312 110.175781-4.652343-2.6875v5.371094zm0 0"/><path d="m51.308594 118.230469-4.652344-2.683594v5.371094zm0 0"/><path d="m51.308594 123.601562-4.652344-2.683593v5.371093zm0 0"/><path d="m51.308594 161.199219-4.652344-2.683594v5.371094zm0 0"/><path d="m51.308594 166.570312-4.652344-2.683593v5.371093zm0 0"/><path d="m51.308594 204.171875-4.652344-2.6875v5.371094zm0 0"/><path d="m51.308594 209.542969-4.652344-2.6875v5.371093zm0 0"/><path d="m51.308594 247.140625-4.652344-2.6875v5.371094zm0 0"/><path d="m51.308594 252.511719-4.652344-2.6875v5.371093zm0 0"/></g></svg>