<svg height="360pt" viewBox="0 0 360 360" width="360pt" xmlns="http://www.w3.org/2000/svg"><path d="m0 0h360v360h-360z" fill="#fff"/><g fill="#800080"><path d="m176.898438 180 4.652343-2.6875v5.375zm0 0"/><path d="m181.550781 182.6875 4.652344-2.6875v5.371094zm0 0"/><path d="m181.550781 177.3125 4.652344-2.683594v5.371094zm0 0"/><path d="m176.898438 174.628906 4.652343-2.6875v5.371094zm0 0"/><path d="m172.246094 177.3125 4.652344-2.683594v5.371094zm0 0"/><path d="m172.246094 182.6875 4.652344-2.6875v5.371094zm0 0"/><path d="m176.898438 185.371094 4.652343-2.683594v5.371094zm0 0"/><path d="m186.203125 185.371094 4.648437-2.683594v5.371094zm0 0"/><path d="m186.203125 180 4.648437-2.6875v5.375zm0 0"/><path d="m186.203125 174.628906 4.648437-2.6875v5.371094zm0 0"/><path d="m181.550781 171.941406 4.652344-2.683594v5.371094zm0 0"/><path d="m176.898438 169.257812 4.652343-2.6875v5.371094zm0 0"/><path d="m172.246094 171.941406 4.652344-2.683594v5.371094zm0 0"/><path d="m167.597656 174.628906 4.648438-2.6875v5.371094zm0 0"/><path d="m167.597656 180 4.648438-2.6875v5.375zm0 0"/><path d="m167.597656 185.371094 4.648438-2.683594v5.371094zm0 0"/><path d="m172.246094 188.058594 4.652344-2.6875v5.371094zm0 0"/><path d="m176.898438 190.742188 4.652343-2.683594v5.371094zm0 0"/><path d="m181.550781 188.058594 4.652344-2.6875v5.371094zm0 0"/><path d="m190.851562 188.058594 4.652344-2.6875v5.371094zm0 0"/><path d="m190.851562 182.6875 4.652344-2.6875v5.371094zm0 0"/><path d="m190.851562 177.3125 4.652344-2.683594v5.371094zm0 0"/><path d="m190.851562 171.941406 4.652344-2.683594v5.371094zm0 0"/><path d="m186.203125 169.257812 4.648437-2.6875v5.371094zm0 0"/><path d="m181.550781 166.570312 4.652344-2.683593v5.371093zm0 0"/><path d="m167.597656 169.257812 4.648438-2.6875v5.371094zm0 0"/><path d="m162.945312 171.941406 4.652344-2.683594v5.371094zm0 0"/><path d="m162.945312 177.3125 4.652344-2.683594v5.371094zm0 0"/><path d="m162.945312 182.6875 4.652344-2.6875v5.371094zm0 0"/><path d="m162.945312 188.058594 4.652344-2.6875v5.371094zm0 0"/><path d="m167.597656 190.742188 4.648438-2.683594v5.371094zm0 0"/><path d="m172.246094 193.429688 4.652344-2.6875v5.371093zm0 0"/><path d="m176.898438 196.113281 4.652343-2.683593v5.371093zm0 0"/><path d="m181.550781 193.429688 4.652344-2.6875v5.371093zm0 0"/><path d="m186.203125 190.742188 4.648437-2.683594v5.371094zm0 0"/><path d="m195.503906 190.742188 4.652344-2.683594v5.371094zm0 0"/><path d="m195.503906 185.371094 4.652344-2.683594v5.371094zm0 0"/><path d="m195.503906 180 4.652344-2.6875v5.375zm0 0"/><path d="m195.503906 174.628906 4.652344-2.6875v5.371094zm0 0"/><path d="m195.503906 169.257812 4.652344-2.6875v5.371094zm0 0"/><path d="m190.851562 166.570312 4.652344-2.683593v5.371093zm0 0"/><path d="m181.550781 161.199219 4.652344-2.683594v5.371094zm0 0"/><path d="m167.597656 163.886719 4.648438-2.6875v5.371093zm0 0"/><path d="m162.945312 166.570312 4.652344-2.683593v5.371093zm0 0"/><path d="m158.292969 174.628906 4.652343-2.6875v5.371094zm0 0"/><path d="m167.597656 196.113281 4.648438-2.683593v5.371093zm0 0"/><path d="m172.246094 198.800781 4.652344-2.6875v5.371094zm0 0"/><path d="m176.898438 201.484375 4.652343-2.683594v5.371094zm0 0"/><path d="m181.550781 198.800781 4.652344-2.6875v5.371094zm0 0"/><path d="m186.203125 196.113281 4.648437-2.683593v5.371093zm0 0"/><path d="m190.851562 193.429688 4.652344-2.6875v5.371093zm0 0"/><path d="m200.15625 193.429688 4.652344-2.6875v5.371093zm0 0"/><path d="m200.15625 188.058594 4.652344-2.6875v5.371094zm0 0"/><path d="m200.15625 182.6875 4.652344-2.6875v5.371094zm0 0"/><path d="m200.15625 177.3125 4.652344-2.683594v5.371094zm0 0"/><path d="m200.15625 171.941406 4.652344-2.683594v5.371094zm0 0"/><path d="m200.15625 166.570312 4.652344-2.683593v5.371093zm0 0"/><path d="m190.851562 161.199219 4.652344-2.683594v5.371094zm0 0"/><path d="m186.203125 158.515625 4.648437-2.6875v5.371094zm0 0"/><path d="m162.945312 161.199219 4.652344-2.683594v5.371094zm0 0"/><path d="m153.640625 171.941406 4.652344-2.683594v5.371094zm0 0"/><path d="m153.640625 177.3125 4.652344-2.683594v5.371094zm0 0"/><path d="m153.640625 188.058594 4.652344-2.6875v5.371094zm0 0"/><path d="m153.640625 193.429688 4.652344-2.6875v5.371093zm0 0"/><path d="m158.292969 196.113281 4.652343-2.683593v5.371093zm0 0"/><path d="m167.597656 201.484375 4.648438-2.683594v5.371094zm0 0"/><path d="m172.246094 204.171875 4.652344-2.6875v5.371094zm0 0"/><path d="m176.898438 206.855469 4.652343-2.683594v5.371094zm0 0"/><path d="m181.550781 204.171875 4.652344-2.6875v5.371094zm0 0"/><path d="m186.203125 201.484375 4.648437-2.683594v5.371094zm0 0"/><path d="m190.851562 198.800781 4.652344-2.6875v5.371094zm0 0"/><path d="m195.503906 196.113281 4.652344-2.683593v5.371093zm0 0"/><path d="m204.808594 196.113281 4.652344-2.683593v5.371093zm0 0"/><path d="m204.808594 190.742188 4.652344-2.683594v5.371094zm0 0"/><path d="m204.808594 185.371094 4.652344-2.683594v5.371094zm0 0"/><path d="m204.808594 180 4.652344-2.6875v5.375zm0 0"/><path d="m204.808594 174.628906 4.652344-2.6875v5.371094zm0 0"/><path d="m204.808594 169.257812 4.652344-2.6875v5.371094zm0 0"/><path d="m204.808594 163.886719 4.652344-2.6875v5.371093zm0 0"/><path d="m200.15625 161.199219 4.652344-2.683594v5.371094zm0 0"/><path d="m195.503906 158.515625 4.652344-2.6875v5.371094zm0 0"/><path d="m190.851562 155.828125 4.652344-2.683594v5.371094zm0 0"/><path d="m176.898438 147.773438 4.652343-2.6875v5.371093zm0 0"/><path d="m172.246094 150.457031 4.652344-2.683593v5.371093zm0 0"/><path d="m162.945312 155.828125 4.652344-2.683594v5.371094zm0 0"/><path d="m158.292969 158.515625 4.652343-2.6875v5.371094zm0 0"/><path d="m153.640625 161.199219 4.652344-2.683594v5.371094zm0 0"/><path d="m148.988281 174.628906 4.652344-2.6875v5.371094zm0 0"/><path d="m148.988281 190.742188 4.652344-2.683594v5.371094zm0 0"/><path d="m148.988281 196.113281 4.652344-2.683593v5.371093zm0 0"/><path d="m153.640625 198.800781 4.652344-2.6875v5.371094zm0 0"/><path d="m162.945312 204.171875 4.652344-2.6875v5.371094zm0 0"/><path d="m167.597656 206.855469 4.648438-2.683594v5.371094zm0 0"/><path d="m172.246094 209.542969 4.652344-2.6875v5.371093zm0 0"/><path d="m176.898438 212.226562 4.652343-2.683593v5.371093zm0 0"/><path d="m181.550781 209.542969 4.652344-2.6875v5.371093zm0 0"/><path d="m186.203125 206.855469 4.648437-2.683594v5.371094zm0 0"/><path d="m190.851562 204.171875 4.652344-2.6875v5.371094zm0 0"/><path d="m195.503906 201.484375 4.652344-2.683594v5.371094zm0 0"/><path d="m200.15625 198.800781 4.652344-2.6875v5.371094zm0 0"/><path d="m209.460938 198.800781 4.648437-2.6875v5.371094zm0 0"/><path d="m209.460938 193.429688 4.648437-2.6875v5.371093zm0 0"/><path d="m209.460938 188.058594 4.648437-2.6875v5.371094zm0 0"/><path d="m209.460938 182.6875 4.648437-2.6875v5.371094zm0 0"/><path d="m209.460938 177.3125 4.648437-2.683594v5.371094zm0 0"/><path d="m209.460938 171.941406 4.648437-2.683594v5.371094zm0 0"/><path d="m209.460938 166.570312 4.648437-2.683593v5.371093zm0 0"/><path d="m209.460938 161.199219 4.648437-2.683594v5.371094zm0 0"/><path d="m190.851562 150.457031 4.652344-2.683593v5.371093zm0 0"/><path d="m186.203125 147.773438 4.648437-2.6875v5.371093zm0 0"/><path d="m148.988281 158.515625 4.652344-2.6875v5.371094zm0 0"/><path d="m144.339844 171.941406 4.648437-2.683594v5.371094zm0 0"/><path d="m144.339844 182.6875 4.648437-2.6875v5.371094zm0 0"/><path d="m144.339844 188.058594 4.648437-2.6875v5.371094zm0 0"/><path d="m144.339844 193.429688 4.648437-2.6875v5.371093zm0 0"/><path d="m144.339844 198.800781 4.648437-2.6875v5.371094zm0 0"/><path d="m148.988281 201.484375 4.652344-2.683594v5.371094zm0 0"/><path d="m153.640625 204.171875 4.652344-2.6875v5.371094zm0 0"/><path d="m162.945312 209.542969 4.652344-2.6875v5.371093zm0 0"/><path d="m167.597656 212.226562 4.648438-2.683593v5.371093zm0 0"/><path d="m172.246094 214.914062 4.652344-2.6875v5.371094zm0 0"/><path d="m176.898438 217.597656 4.652343-2.683594v5.371094zm0 0"/><path d="m181.550781 214.914062 4.652344-2.6875v5.371094zm0 0"/><path d="m186.203125 212.226562 4.648437-2.683593v5.371093zm0 0"/><path d="m190.851562 209.542969 4.652344-2.6875v5.371093zm0 0"/><path d="m195.503906 206.855469 4.652344-2.683594v5.371094zm0 0"/><path d="m204.808594 201.484375 4.652344-2.683594v5.371094zm0 0"/><path d="m214.109375 190.742188 4.652344-2.683594v5.371094zm0 0"/><path d="m214.109375 180 4.652344-2.6875v5.375zm0 0"/><path d="m214.109375 174.628906 4.652344-2.6875v5.371094zm0 0"/><path d="m214.109375 169.257812 4.652344-2.6875v5.371094zm0 0"/><path d="m214.109375 163.886719 4.652344-2.6875v5.371093zm0 0"/><path d="m214.109375 158.515625 4.652344-2.6875v5.371094zm0 0"/><path d="m200.15625 150.457031 4.652344-2.683593v5.371093zm0 0"/><path d="m195.503906 147.773438 4.652344-2.6875v5.371093zm0 0"/><path d="m172.246094 139.714844 4.652344-2.683594v5.371094zm0 0"/><path d="m139.6875 196.113281 4.652344-2.683593v5.371093zm0 0"/><path d="m144.339844 204.171875 4.648437-2.6875v5.371094zm0 0"/><path d="m148.988281 206.855469 4.652344-2.683594v5.371094zm0 0"/><path d="m162.945312 214.914062 4.652344-2.6875v5.371094zm0 0"/><path d="m167.597656 217.597656 4.648438-2.683594v5.371094zm0 0"/><path d="m172.246094 220.285156 4.652344-2.6875v5.371094zm0 0"/><path d="m176.898438 222.96875 4.652343-2.683594v5.371094zm0 0"/><path d="m181.550781 220.285156 4.652344-2.6875v5.371094zm0 0"/><path d="m186.203125 217.597656 4.648437-2.683594v5.371094zm0 0"/><path d="m190.851562 214.914062 4.652344-2.6875v5.371094zm0 0"/><path d="m195.503906 212.226562 4.652344-2.683593v5.371093zm0 0"/><path d="m209.460938 204.171875 4.648437-2.6875v5.371094zm0 0"/><path d="m218.761719 204.171875 4.652343-2.6875v5.371094zm0 0"/><path d="m218.761719 198.800781 4.652343-2.6875v5.371094zm0 0"/><path d="m218.761719 188.058594 4.652343-2.6875v5.371094zm0 0"/><path d="m218.761719 171.941406 4.652343-2.683594v5.371094zm0 0"/><path d="m218.761719 166.570312 4.652343-2.683593v5.371093zm0 0"/><path d="m218.761719 161.199219 4.652343-2.683594v5.371094zm0 0"/><path d="m218.761719 155.828125 4.652343-2.683594v5.371094zm0 0"/><path d="m204.808594 147.773438 4.652344-2.6875v5.371093zm0 0"/><path d="m200.15625 145.085938 4.652344-2.683594v5.371094zm0 0"/><path d="m186.203125 137.03125 4.648437-2.6875v5.371094zm0 0"/><path d="m181.550781 134.34375 4.652344-2.683594v5.371094zm0 0"/><path d="m176.898438 131.660156 4.652343-2.6875v5.371094zm0 0"/><path d="m135.035156 193.429688 4.652344-2.6875v5.371093zm0 0"/><path d="m139.6875 206.855469 4.652344-2.683594v5.371094zm0 0"/><path d="m158.292969 217.597656 4.652343-2.683594v5.371094zm0 0"/><path d="m162.945312 220.285156 4.652344-2.6875v5.371094zm0 0"/><path d="m167.597656 222.96875 4.648438-2.683594v5.371094zm0 0"/><path d="m172.246094 225.65625 4.652344-2.6875v5.371094zm0 0"/><path d="m176.898438 228.339844 4.652343-2.683594v5.371094zm0 0"/><path d="m181.550781 225.65625 4.652344-2.6875v5.371094zm0 0"/><path d="m186.203125 222.96875 4.648437-2.683594v5.371094zm0 0"/><path d="m190.851562 220.285156 4.652344-2.6875v5.371094zm0 0"/><path d="m195.503906 217.597656 4.652344-2.683594v5.371094zm0 0"/><path d="m223.414062 206.855469 4.652344-2.683594v5.371094zm0 0"/><path d="m223.414062 201.484375 4.652344-2.683594v5.371094zm0 0"/><path d="m223.414062 174.628906 4.652344-2.6875v5.371094zm0 0"/><path d="m223.414062 169.257812 4.652344-2.6875v5.371094zm0 0"/><path d="m223.414062 163.886719 4.652344-2.6875v5.371093zm0 0"/><path d="m223.414062 158.515625 4.652344-2.6875v5.371094zm0 0"/><path d="m223.414062 153.144531 4.652344-2.6875v5.371094zm0 0"/><path d="m218.761719 150.457031 4.652343-2.683593v5.371093zm0 0"/><path d="m209.460938 145.085938 4.648437-2.683594v5.371094zm0 0"/><path d="m204.808594 142.402344 4.652344-2.6875v5.371094zm0 0"/><path d="m190.851562 134.34375 4.652344-2.683594v5.371094zm0 0"/><path d="m186.203125 131.660156 4.648437-2.6875v5.371094zm0 0"/><path d="m181.550781 128.972656 4.652344-2.683594v5.371094zm0 0"/><path d="m176.898438 233.710938 4.652343-2.683594v5.371094zm0 0"/><path d="m181.550781 231.027344 4.652344-2.6875v5.371094zm0 0"/><path d="m186.203125 228.339844 4.648437-2.683594v5.371094zm0 0"/><path d="m190.851562 225.65625 4.652344-2.6875v5.371094zm0 0"/><path d="m195.503906 222.96875 4.652344-2.683594v5.371094zm0 0"/><path d="m209.460938 214.914062 4.648437-2.6875v5.371094zm0 0"/><path d="m218.761719 209.542969 4.652343-2.6875v5.371093zm0 0"/><path d="m228.066406 177.3125 4.652344-2.683594v5.371094zm0 0"/><path d="m228.066406 171.941406 4.652344-2.683594v5.371094zm0 0"/><path d="m228.066406 166.570312 4.652344-2.683593v5.371093zm0 0"/><path d="m228.066406 161.199219 4.652344-2.683594v5.371094zm0 0"/><path d="m228.066406 155.828125 4.652344-2.683594v5.371094zm0 0"/><path d="m228.066406 150.457031 4.652344-2.683593v5.371093zm0 0"/><path d="m223.414062 147.773438 4.652344-2.6875v5.371093zm0 0"/><path d="m214.109375 142.402344 4.652344-2.6875v5.371094zm0 0"/><path d="m209.460938 139.714844 4.648437-2.683594v5.371094zm0 0"/><path d="m200.15625 134.34375 4.652344-2.683594v5.371094zm0 0"/><path d="m190.851562 128.972656 4.652344-2.683594v5.371094zm0 0"/><path d="m125.734375 193.429688 4.648437-2.6875v5.371093zm0 0"/><path d="m125.734375 198.800781 4.648437-2.6875v5.371094zm0 0"/><path d="m125.734375 204.171875 4.648437-2.6875v5.371094zm0 0"/><path d="m172.246094 236.398438 4.652344-2.6875v5.371093zm0 0"/><path d="m176.898438 239.082031 4.652343-2.683593v5.371093zm0 0"/><path d="m181.550781 236.398438 4.652344-2.6875v5.371093zm0 0"/><path d="m186.203125 233.710938 4.648437-2.683594v5.371094zm0 0"/><path d="m190.851562 231.027344 4.652344-2.6875v5.371094zm0 0"/><path d="m209.460938 220.285156 4.648437-2.6875v5.371094zm0 0"/><path d="m232.71875 174.628906 4.648438-2.6875v5.371094zm0 0"/><path d="m232.71875 169.257812 4.648438-2.6875v5.371094zm0 0"/><path d="m232.71875 163.886719 4.648438-2.6875v5.371093zm0 0"/><path d="m228.066406 145.085938 4.652344-2.683594v5.371094zm0 0"/><path d="m223.414062 142.402344 4.652344-2.6875v5.371094zm0 0"/><path d="m200.15625 128.972656 4.652344-2.683594v5.371094zm0 0"/><path d="m167.597656 239.082031 4.648438-2.683593v5.371093zm0 0"/><path d="m172.246094 241.769531 4.652344-2.6875v5.371094zm0 0"/><path d="m176.898438 244.453125 4.652343-2.683594v5.371094zm0 0"/><path d="m181.550781 241.769531 4.652344-2.6875v5.371094zm0 0"/><path d="m186.203125 239.082031 4.648437-2.683593v5.371093zm0 0"/><path d="m214.109375 222.96875 4.652344-2.683594v5.371094zm0 0"/><path d="m218.761719 220.285156 4.652343-2.6875v5.371094zm0 0"/><path d="m223.414062 217.597656 4.652344-2.683594v5.371094zm0 0"/><path d="m237.367188 171.941406 4.652343-2.683594v5.371094zm0 0"/><path d="m237.367188 145.085938 4.652343-2.683594v5.371094zm0 0"/><path d="m232.71875 142.402344 4.648438-2.6875v5.371094zm0 0"/><path d="m228.066406 139.714844 4.652344-2.683594v5.371094zm0 0"/><path d="m223.414062 137.03125 4.652344-2.6875v5.371094zm0 0"/><path d="m167.597656 244.453125 4.648438-2.683594v5.371094zm0 0"/><path d="m172.246094 247.140625 4.652344-2.6875v5.371094zm0 0"/><path d="m186.203125 244.453125 4.648437-2.683594v5.371094zm0 0"/><path d="m190.851562 241.769531 4.652344-2.6875v5.371094zm0 0"/><path d="m232.71875 137.03125 4.648438-2.6875v5.371094zm0 0"/><path d="m223.414062 131.660156 4.652344-2.6875v5.371094zm0 0"/><path d="m218.761719 128.972656 4.652343-2.683594v5.371094zm0 0"/><path d="m167.597656 249.824219 4.648438-2.683594v5.371094zm0 0"/><path d="m246.671875 198.800781 4.652344-2.6875v5.371094zm0 0"/><path d="m246.671875 155.828125 4.652344-2.683594v5.371094zm0 0"/><path d="m246.671875 139.714844 4.652344-2.683594v5.371094zm0 0"/><path d="m237.367188 134.34375 4.652343-2.683594v5.371094zm0 0"/><path d="m232.71875 131.660156 4.648438-2.6875v5.371094zm0 0"/><path d="m228.066406 128.972656 4.652344-2.683594v5.371094zm0 0"/><path d="m223.414062 126.289062 4.652344-2.6875v5.371094zm0 0"/><path d="m251.324219 206.855469 4.648437-2.683594v5.371094zm0 0"/><path d="m251.324219 163.886719 4.648437-2.6875v5.371093zm0 0"/><path d="m251.324219 147.773438 4.648437-2.6875v5.371093zm0 0"/><path d="m251.324219 137.03125 4.648437-2.6875v5.371094zm0 0"/><path d="m246.671875 134.34375 4.652344-2.683594v5.371094zm0 0"/><path d="m242.019531 131.660156 4.652344-2.6875v5.371094zm0 0"/><path d="m255.972656 198.800781 4.652344-2.6875v5.371094zm0 0"/><path d="m255.972656 182.6875 4.652344-2.6875v5.371094zm0 0"/><path d="m255.972656 177.3125 4.652344-2.683594v5.371094zm0 0"/><path d="m255.972656 155.828125 4.652344-2.683594v5.371094zm0 0"/><path d="m255.972656 145.085938 4.652344-2.683594v5.371094zm0 0"/><path d="m255.972656 134.34375 4.652344-2.683594v5.371094zm0 0"/><path d="m251.324219 131.660156 4.648437-2.6875v5.371094zm0 0"/><path d="m246.671875 128.972656 4.652344-2.683594v5.371094zm0 0"/><path d="m242.019531 126.289062 4.652344-2.6875v5.371094zm0 0"/><path d="m260.625 201.484375 4.652344-2.683594v5.371094zm0 0"/><path d="m260.625 196.113281 4.652344-2.683593v5.371093zm0 0"/><path d="m260.625 190.742188 4.652344-2.683594v5.371094zm0 0"/><path d="m260.625 180 4.652344-2.6875v5.375zm0 0"/><path d="m260.625 169.257812 4.652344-2.6875v5.371094zm0 0"/><path d="m260.625 163.886719 4.652344-2.6875v5.371093zm0 0"/><path d="m260.625 158.515625 4.652344-2.6875v5.371094zm0 0"/><path d="m260.625 147.773438 4.652344-2.6875v5.371093zm0 0"/><path d="m260.625 142.402344 4.652344-2.6875v5.371094zm0 0"/><path d="m260.625 137.03125 4.652344-2.6875v5.371094zm0 0"/><path d="m260.625 131.660156 4.652344-2.6875v5.371094zm0 0"/><path d="m265.277344 220.285156 4.652344-2.6875v5.371094zm0 0"/><path d="m265.277344 214.914062 4.652344-2.6875v5.371094zm0 0"/><path d="m265.277344 198.800781 4.652344-2.6875v5.371094zm0 0"/><path d="m265.277344 193.429688 4.652344-2.6875v5.371093zm0 0"/><path d="m265.277344 182.6875 4.652344-2.6875v5.371094zm0 0"/><path d="m265.277344 171.941406 4.652344-2.683594v5.371094zm0 0"/><path d="m265.277344 155.828125 4.652344-2.683594v5.371094zm0 0"/><path d="m265.277344 150.457031 4.652344-2.683593v5.371093zm0 0"/><path d="m265.277344 145.085938 4.652344-2.683594v5.371094zm0 0"/><path d="m265.277344 139.714844 4.652344-2.683594v5.371094zm0 0"/><path d="m265.277344 134.34375 4.652344-2.683594v5.371094zm0 0"/><path d="m251.324219 120.917969 4.648437-2.6875v5.371093zm0 0"/><path d="m246.671875 118.230469 4.652344-2.683594v5.371094zm0 0"/><path d="m242.019531 115.546875 4.652344-2.6875v5.371094zm0 0"/><path d="m269.929688 222.96875 4.652343-2.683594v5.371094zm0 0"/><path d="m269.929688 217.597656 4.652343-2.683594v5.371094zm0 0"/><path d="m269.929688 212.226562 4.652343-2.683593v5.371093zm0 0"/><path d="m269.929688 190.742188 4.652343-2.683594v5.371094zm0 0"/><path d="m269.929688 174.628906 4.652343-2.6875v5.371094zm0 0"/><path d="m269.929688 158.515625 4.652343-2.6875v5.371094zm0 0"/><path d="m269.929688 153.144531 4.652343-2.6875v5.371094zm0 0"/><path d="m269.929688 137.03125 4.652343-2.6875v5.371094zm0 0"/><path d="m269.929688 131.660156 4.652343-2.6875v5.371094zm0 0"/><path d="m251.324219 115.546875 4.648437-2.6875v5.371094zm0 0"/><path d="m246.671875 112.859375 4.652344-2.683594v5.371094zm0 0"/><path d="m274.582031 220.285156 4.648438-2.6875v5.371094zm0 0"/><path d="m274.582031 214.914062 4.648438-2.6875v5.371094zm0 0"/><path d="m274.582031 209.542969 4.648438-2.6875v5.371093zm0 0"/><path d="m274.582031 204.171875 4.648438-2.6875v5.371094zm0 0"/><path d="m274.582031 198.800781 4.648438-2.6875v5.371094zm0 0"/><path d="m274.582031 193.429688 4.648438-2.6875v5.371093zm0 0"/><path d="m274.582031 188.058594 4.648438-2.6875v5.371094zm0 0"/><path d="m274.582031 177.3125 4.648438-2.683594v5.371094zm0 0"/><path d="m274.582031 171.941406 4.648438-2.683594v5.371094zm0 0"/><path d="m274.582031 150.457031 4.648438-2.683593v5.371093zm0 0"/><path d="m274.582031 139.714844 4.648438-2.683594v5.371094zm0 0"/><path d="m274.582031 134.34375 4.648438-2.683594v5.371094zm0 0"/><path d="m246.671875 107.488281 4.652344-2.683593v5.371093zm0 0"/><path d="m279.230469 217.597656 4.652343-2.683594v5.371094zm0 0"/><path d="m279.230469 212.226562 4.652343-2.683593v5.371093zm0 0"/><path d="m279.230469 206.855469 4.652343-2.683594v5.371094zm0 0"/><path d="m279.230469 185.371094 4.652343-2.683594v5.371094zm0 0"/><path d="m279.230469 153.144531 4.652343-2.6875v5.371094zm0 0"/><path d="m279.230469 137.03125 4.652343-2.6875v5.371094zm0 0"/><path d="m283.882812 209.542969 4.652344-2.6875v5.371093zm0 0"/><path d="m283.882812 198.800781 4.652344-2.6875v5.371094zm0 0"/><path d="m283.882812 150.457031 4.652344-2.683593v5.371093zm0 0"/><path d="m288.535156 212.226562 4.652344-2.683593v5.371093zm0 0"/><path d="m293.1875 220.285156 4.652344-2.6875v5.371094zm0 0"/><path d="m293.1875 214.914062 4.652344-2.6875v5.371094zm0 0"/><path d="m293.1875 209.542969 4.652344-2.6875v5.371093zm0 0"/><path d="m297.839844 217.597656 4.648437-2.683594v5.371094zm0 0"/><path d="m297.839844 212.226562 4.648437-2.683593v5.371093zm0 0"/><path d="m297.839844 206.855469 4.648437-2.683594v5.371094zm0 0"/><path d="m307.140625 217.597656 4.652344-2.683594v5.371094zm0 0"/><path d="m307.140625 212.226562 4.652344-2.683593v5.371093zm0 0"/><path d="m181.550781 177.3125-4.652343-2.683594v5.371094zm0 0"/><path d="m176.898438 174.628906-4.652344-2.6875v5.371094zm0 0"/><path d="m176.898438 185.371094-4.652344-2.683594v5.371094zm0 0"/><path d="m181.550781 166.570312-4.652343-2.683593v5.371093zm0 0"/><path d="m176.898438 169.257812-4.652344-2.6875v5.371094zm0 0"/><path d="m172.246094 171.941406-4.648438-2.683594v5.371094zm0 0"/><path d="m172.246094 177.3125-4.648438-2.683594v5.371094zm0 0"/><path d="m172.246094 182.6875-4.648438-2.6875v5.371094zm0 0"/><path d="m172.246094 188.058594-4.648438-2.6875v5.371094zm0 0"/><path d="m181.550781 161.199219-4.652343-2.683594v5.371094zm0 0"/><path d="m176.898438 163.886719-4.652344-2.6875v5.371093zm0 0"/><path d="m172.246094 166.570312-4.648438-2.683593v5.371093zm0 0"/><path d="m167.597656 169.257812-4.652344-2.6875v5.371094zm0 0"/><path d="m167.597656 174.628906-4.652344-2.6875v5.371094zm0 0"/><path d="m167.597656 180-4.652344-2.6875v5.375zm0 0"/><path d="m190.851562 161.199219-4.648437-2.683594v5.371094zm0 0"/><path d="m162.945312 171.941406-4.652343-2.683594v5.371094zm0 0"/><path d="m162.945312 177.3125-4.652343-2.683594v5.371094zm0 0"/><path d="m162.945312 188.058594-4.652343-2.6875v5.371094zm0 0"/><path d="m162.945312 193.429688-4.652343-2.6875v5.371093zm0 0"/><path d="m195.503906 158.515625-4.652344-2.6875v5.371094zm0 0"/><path d="m190.851562 155.828125-4.648437-2.683594v5.371094zm0 0"/><path d="m186.203125 153.144531-4.652344-2.6875v5.371094zm0 0"/><path d="m181.550781 150.457031-4.652343-2.683593v5.371093zm0 0"/><path d="m176.898438 153.144531-4.652344-2.6875v5.371094zm0 0"/><path d="m162.945312 161.199219-4.652343-2.683594v5.371094zm0 0"/><path d="m158.292969 185.371094-4.652344-2.683594v5.371094zm0 0"/><path d="m158.292969 190.742188-4.652344-2.683594v5.371094zm0 0"/><path d="m200.15625 155.828125-4.652344-2.683594v5.371094zm0 0"/><path d="m190.851562 150.457031-4.648437-2.683593v5.371093zm0 0"/><path d="m186.203125 147.773438-4.652344-2.6875v5.371093zm0 0"/><path d="m181.550781 145.085938-4.652343-2.683594v5.371094zm0 0"/><path d="m176.898438 147.773438-4.652344-2.6875v5.371093zm0 0"/><path d="m172.246094 150.457031-4.648438-2.683593v5.371093zm0 0"/><path d="m167.597656 153.144531-4.652344-2.6875v5.371094zm0 0"/><path d="m158.292969 158.515625-4.652344-2.6875v5.371094zm0 0"/><path d="m153.640625 182.6875-4.652344-2.6875v5.371094zm0 0"/><path d="m153.640625 188.058594-4.652344-2.6875v5.371094zm0 0"/><path d="m153.640625 193.429688-4.652344-2.6875v5.371093zm0 0"/><path d="m153.640625 198.800781-4.652344-2.6875v5.371094zm0 0"/><path d="m200.15625 150.457031-4.652344-2.683593v5.371093zm0 0"/><path d="m195.503906 147.773438-4.652344-2.6875v5.371093zm0 0"/><path d="m190.851562 145.085938-4.648437-2.683594v5.371094zm0 0"/><path d="m186.203125 142.402344-4.652344-2.6875v5.371094zm0 0"/><path d="m181.550781 139.714844-4.652343-2.683594v5.371094zm0 0"/><path d="m176.898438 142.402344-4.652344-2.6875v5.371094zm0 0"/><path d="m153.640625 155.828125-4.652344-2.683594v5.371094zm0 0"/><path d="m148.988281 185.371094-4.648437-2.683594v5.371094zm0 0"/><path d="m148.988281 201.484375-4.648437-2.683594v5.371094zm0 0"/><path d="m223.414062 201.484375-4.652343-2.683594v5.371094zm0 0"/><path d="m204.808594 147.773438-4.652344-2.6875v5.371093zm0 0"/><path d="m200.15625 145.085938-4.652344-2.683594v5.371094zm0 0"/><path d="m195.503906 142.402344-4.652344-2.6875v5.371094zm0 0"/><path d="m190.851562 139.714844-4.648437-2.683594v5.371094zm0 0"/><path d="m181.550781 134.34375-4.652343-2.683594v5.371094zm0 0"/><path d="m153.640625 150.457031-4.652344-2.683593v5.371093zm0 0"/><path d="m148.988281 153.144531-4.648437-2.6875v5.371094zm0 0"/><path d="m144.339844 193.429688-4.652344-2.6875v5.371093zm0 0"/><path d="m144.339844 198.800781-4.652344-2.6875v5.371094zm0 0"/><path d="m144.339844 204.171875-4.652344-2.6875v5.371094zm0 0"/><path d="m153.640625 209.542969-4.652344-2.6875v5.371093zm0 0"/><path d="m204.808594 212.226562-4.652344-2.683593v5.371093zm0 0"/><path d="m209.460938 209.542969-4.652344-2.6875v5.371093zm0 0"/><path d="m228.066406 198.800781-4.652344-2.6875v5.371094zm0 0"/><path d="m228.066406 193.429688-4.652344-2.6875v5.371093zm0 0"/><path d="m209.460938 145.085938-4.652344-2.683594v5.371094zm0 0"/><path d="m204.808594 142.402344-4.652344-2.6875v5.371094zm0 0"/><path d="m200.15625 139.714844-4.652344-2.683594v5.371094zm0 0"/><path d="m195.503906 137.03125-4.652344-2.6875v5.371094zm0 0"/><path d="m186.203125 131.660156-4.652344-2.6875v5.371094zm0 0"/><path d="m139.6875 190.742188-4.652344-2.683594v5.371094zm0 0"/><path d="m139.6875 196.113281-4.652344-2.683593v5.371093zm0 0"/><path d="m139.6875 201.484375-4.652344-2.683594v5.371094zm0 0"/><path d="m139.6875 206.855469-4.652344-2.683594v5.371094zm0 0"/><path d="m144.339844 209.542969-4.652344-2.6875v5.371093zm0 0"/><path d="m200.15625 220.285156-4.652344-2.6875v5.371094zm0 0"/><path d="m209.460938 214.914062-4.652344-2.6875v5.371094zm0 0"/><path d="m214.109375 212.226562-4.648437-2.683593v5.371093zm0 0"/><path d="m232.71875 153.144531-4.652344-2.6875v5.371094zm0 0"/><path d="m228.066406 150.457031-4.652344-2.683593v5.371093zm0 0"/><path d="m214.109375 142.402344-4.648437-2.6875v5.371094zm0 0"/><path d="m209.460938 139.714844-4.652344-2.683594v5.371094zm0 0"/><path d="m204.808594 137.03125-4.652344-2.6875v5.371094zm0 0"/><path d="m200.15625 134.34375-4.652344-2.683594v5.371094zm0 0"/><path d="m190.851562 128.972656-4.648437-2.683594v5.371094zm0 0"/><path d="m135.035156 188.058594-4.652344-2.6875v5.371094zm0 0"/><path d="m135.035156 193.429688-4.652344-2.6875v5.371093zm0 0"/><path d="m135.035156 204.171875-4.652344-2.6875v5.371094zm0 0"/><path d="m200.15625 225.65625-4.652344-2.6875v5.371094zm0 0"/><path d="m204.808594 222.96875-4.652344-2.683594v5.371094zm0 0"/><path d="m214.109375 217.597656-4.648437-2.683594v5.371094zm0 0"/><path d="m218.761719 214.914062-4.652344-2.6875v5.371094zm0 0"/><path d="m237.367188 198.800781-4.648438-2.6875v5.371094zm0 0"/><path d="m237.367188 193.429688-4.648438-2.6875v5.371093zm0 0"/><path d="m237.367188 188.058594-4.648438-2.6875v5.371094zm0 0"/><path d="m237.367188 150.457031-4.648438-2.683593v5.371093zm0 0"/><path d="m232.71875 147.773438-4.652344-2.6875v5.371093zm0 0"/><path d="m228.066406 145.085938-4.652344-2.683594v5.371094zm0 0"/><path d="m214.109375 137.03125-4.648437-2.6875v5.371094zm0 0"/><path d="m209.460938 134.34375-4.652344-2.683594v5.371094zm0 0"/><path d="m204.808594 131.660156-4.652344-2.6875v5.371094zm0 0"/><path d="m200.15625 128.972656-4.652344-2.683594v5.371094zm0 0"/><path d="m130.382812 185.371094-4.648437-2.683594v5.371094zm0 0"/><path d="m130.382812 190.742188-4.648437-2.683594v5.371094zm0 0"/><path d="m130.382812 196.113281-4.648437-2.683593v5.371093zm0 0"/><path d="m130.382812 201.484375-4.648437-2.683594v5.371094zm0 0"/><path d="m195.503906 233.710938-4.652344-2.683594v5.371094zm0 0"/><path d="m218.761719 220.285156-4.652344-2.6875v5.371094zm0 0"/><path d="m223.414062 217.597656-4.652343-2.683594v5.371094zm0 0"/><path d="m242.019531 201.484375-4.652343-2.683594v5.371094zm0 0"/><path d="m242.019531 196.113281-4.652343-2.683593v5.371093zm0 0"/><path d="m242.019531 190.742188-4.652343-2.683594v5.371094zm0 0"/><path d="m242.019531 185.371094-4.652343-2.683594v5.371094zm0 0"/><path d="m228.066406 139.714844-4.652344-2.683594v5.371094zm0 0"/><path d="m214.109375 131.660156-4.648437-2.6875v5.371094zm0 0"/><path d="m209.460938 128.972656-4.652344-2.683594v5.371094zm0 0"/><path d="m209.460938 231.027344-4.652344-2.6875v5.371094zm0 0"/><path d="m246.671875 198.800781-4.652344-2.6875v5.371094zm0 0"/><path d="m246.671875 193.429688-4.652344-2.6875v5.371093zm0 0"/><path d="m246.671875 188.058594-4.652344-2.6875v5.371094zm0 0"/><path d="m246.671875 182.6875-4.652344-2.6875v5.371094zm0 0"/><path d="m246.671875 145.085938-4.652344-2.683594v5.371094zm0 0"/><path d="m242.019531 142.402344-4.652343-2.6875v5.371094zm0 0"/><path d="m232.71875 137.03125-4.652344-2.6875v5.371094zm0 0"/><path d="m214.109375 126.289062-4.648437-2.6875v5.371094zm0 0"/><path d="m214.109375 233.710938-4.648437-2.683594v5.371094zm0 0"/><path d="m251.324219 201.484375-4.652344-2.683594v5.371094zm0 0"/><path d="m251.324219 196.113281-4.652344-2.683593v5.371093zm0 0"/><path d="m251.324219 190.742188-4.652344-2.683594v5.371094zm0 0"/><path d="m251.324219 185.371094-4.652344-2.683594v5.371094zm0 0"/><path d="m251.324219 180-4.652344-2.6875v5.375zm0 0"/><path d="m251.324219 174.628906-4.652344-2.6875v5.371094zm0 0"/><path d="m251.324219 153.144531-4.652344-2.6875v5.371094zm0 0"/><path d="m251.324219 147.773438-4.652344-2.6875v5.371093zm0 0"/><path d="m232.71875 131.660156-4.652344-2.6875v5.371094zm0 0"/><path d="m214.109375 239.082031-4.648437-2.683593v5.371093zm0 0"/><path d="m218.761719 236.398438-4.652344-2.6875v5.371093zm0 0"/><path d="m255.972656 209.542969-4.648437-2.6875v5.371093zm0 0"/><path d="m255.972656 193.429688-4.648437-2.6875v5.371093zm0 0"/><path d="m255.972656 188.058594-4.648437-2.6875v5.371094zm0 0"/><path d="m255.972656 182.6875-4.648437-2.6875v5.371094zm0 0"/><path d="m255.972656 177.3125-4.648437-2.683594v5.371094zm0 0"/><path d="m255.972656 171.941406-4.648437-2.683594v5.371094zm0 0"/><path d="m255.972656 150.457031-4.648437-2.683593v5.371093zm0 0"/><path d="m255.972656 145.085938-4.648437-2.683594v5.371094zm0 0"/><path d="m255.972656 139.714844-4.648437-2.683594v5.371094zm0 0"/><path d="m251.324219 137.03125-4.652344-2.6875v5.371094zm0 0"/><path d="m246.671875 134.34375-4.652344-2.683594v5.371094zm0 0"/><path d="m242.019531 131.660156-4.652343-2.6875v5.371094zm0 0"/><path d="m237.367188 128.972656-4.648438-2.683594v5.371094zm0 0"/><path d="m232.71875 126.289062-4.652344-2.6875v5.371094zm0 0"/><path d="m218.761719 241.769531-4.652344-2.6875v5.371094zm0 0"/><path d="m260.625 206.855469-4.652344-2.683594v5.371094zm0 0"/><path d="m260.625 190.742188-4.652344-2.683594v5.371094zm0 0"/><path d="m260.625 185.371094-4.652344-2.683594v5.371094zm0 0"/><path d="m260.625 180-4.652344-2.6875v5.375zm0 0"/><path d="m260.625 174.628906-4.652344-2.6875v5.371094zm0 0"/><path d="m260.625 169.257812-4.652344-2.6875v5.371094zm0 0"/><path d="m260.625 163.886719-4.652344-2.6875v5.371093zm0 0"/><path d="m260.625 158.515625-4.652344-2.6875v5.371094zm0 0"/><path d="m260.625 153.144531-4.652344-2.6875v5.371094zm0 0"/><path d="m260.625 147.773438-4.652344-2.6875v5.371093zm0 0"/><path d="m260.625 142.402344-4.652344-2.6875v5.371094zm0 0"/><path d="m260.625 137.03125-4.652344-2.6875v5.371094zm0 0"/><path d="m255.972656 134.34375-4.648437-2.683594v5.371094zm0 0"/><path d="m251.324219 131.660156-4.652344-2.6875v5.371094zm0 0"/><path d="m246.671875 128.972656-4.652344-2.683594v5.371094zm0 0"/><path d="m265.277344 188.058594-4.652344-2.6875v5.371094zm0 0"/><path d="m265.277344 182.6875-4.652344-2.6875v5.371094zm0 0"/><path d="m265.277344 177.3125-4.652344-2.683594v5.371094zm0 0"/><path d="m265.277344 171.941406-4.652344-2.683594v5.371094zm0 0"/><path d="m265.277344 155.828125-4.652344-2.683594v5.371094zm0 0"/><path d="m265.277344 145.085938-4.652344-2.683594v5.371094zm0 0"/><path d="m260.625 131.660156-4.652344-2.6875v5.371094zm0 0"/><path d="m251.324219 126.289062-4.652344-2.6875v5.371094zm0 0"/><path d="m269.929688 196.113281-4.652344-2.683593v5.371093zm0 0"/><path d="m269.929688 190.742188-4.652344-2.683594v5.371094zm0 0"/><path d="m269.929688 185.371094-4.652344-2.683594v5.371094zm0 0"/><path d="m269.929688 180-4.652344-2.6875v5.375zm0 0"/><path d="m269.929688 174.628906-4.652344-2.6875v5.371094zm0 0"/><path d="m269.929688 163.886719-4.652344-2.6875v5.371093zm0 0"/><path d="m269.929688 153.144531-4.652344-2.6875v5.371094zm0 0"/><path d="m269.929688 147.773438-4.652344-2.6875v5.371093zm0 0"/><path d="m274.582031 182.6875-4.652343-2.6875v5.371094zm0 0"/><path d="m274.582031 177.3125-4.652343-2.683594v5.371094zm0 0"/><path d="m274.582031 171.941406-4.652343-2.683594v5.371094zm0 0"/><path d="m274.582031 166.570312-4.652343-2.683593v5.371093zm0 0"/><path d="m274.582031 161.199219-4.652343-2.683594v5.371094zm0 0"/><path d="m274.582031 155.828125-4.652343-2.683594v5.371094zm0 0"/><path d="m274.582031 139.714844-4.652343-2.683594v5.371094zm0 0"/><path d="m251.324219 115.546875-4.652344-2.6875v5.371094zm0 0"/><path d="m246.671875 112.859375-4.652344-2.683594v5.371094zm0 0"/><path d="m279.230469 174.628906-4.648438-2.6875v5.371094zm0 0"/><path d="m279.230469 158.515625-4.648438-2.6875v5.371094zm0 0"/><path d="m279.230469 153.144531-4.648438-2.6875v5.371094zm0 0"/><path d="m279.230469 142.402344-4.648438-2.6875v5.371094zm0 0"/><path d="m246.671875 107.488281-4.652344-2.683593v5.371093zm0 0"/><path d="m283.882812 198.800781-4.652343-2.6875v5.371094zm0 0"/><path d="m283.882812 188.058594-4.652343-2.6875v5.371094zm0 0"/><path d="m283.882812 182.6875-4.652343-2.6875v5.371094zm0 0"/><path d="m283.882812 177.3125-4.652343-2.683594v5.371094zm0 0"/><path d="m283.882812 155.828125-4.652343-2.683594v5.371094zm0 0"/><path d="m288.535156 206.855469-4.652344-2.683594v5.371094zm0 0"/><path d="m288.535156 185.371094-4.652344-2.683594v5.371094zm0 0"/><path d="m288.535156 180-4.652344-2.6875v5.375zm0 0"/><path d="m297.839844 185.371094-4.652344-2.683594v5.371094zm0 0"/><path d="m302.488281 209.542969-4.648437-2.6875v5.371093zm0 0"/><path d="m302.488281 204.171875-4.648437-2.6875v5.371094zm0 0"/><path d="m302.488281 198.800781-4.648437-2.6875v5.371094zm0 0"/><path d="m302.488281 188.058594-4.648437-2.6875v5.371094zm0 0"/><path d="m302.488281 182.6875-4.648437-2.6875v5.371094zm0 0"/><path d="m307.140625 206.855469-4.652344-2.683594v5.371094zm0 0"/><path d="m307.140625 201.484375-4.652344-2.683594v5.371094zm0 0"/><path d="m307.140625 196.113281-4.652344-2.683593v5.371093zm0 0"/><path d="m311.792969 214.914062-4.652344-2.6875v5.371094zm0 0"/><path d="m311.792969 204.171875-4.652344-2.6875v5.371094zm0 0"/><path d="m311.792969 198.800781-4.652344-2.6875v5.371094zm0 0"/><path d="m316.445312 212.226562-4.652343-2.683593v5.371093zm0 0"/></g></svg>