<svg height="176" viewBox="0 0 700 132" width="700pt" xmlns="http://www.w3.org/2000/svg" xmlns:xlink="http://www.w3.org/1999/xlink"><symbol id="a" overflow="visible"><path d="m10.070312-1.6875v1.6875h-9.464843c-.011719-.421875.054687-.828125.207031-1.21875.238281-.644531.625-1.28125 1.15625-1.90625s1.296875-1.347656 2.296875-2.167969c1.558594-1.277343 2.609375-2.285156 3.15625-3.03125.546875-.746093.820313-1.449219.820313-2.113281 0-.699219-.25-1.285156-.746094-1.765625-.5-.476563-1.148438-.71875-1.949219-.71875-.847656 0-1.523437.257813-2.03125.765625s-.765625 1.210938-.773437 2.109375l-1.804688-.1875c.125-1.347656.589844-2.375 1.398438-3.082031.804687-.707032 1.890624-1.058594 3.25-1.058594 1.375 0 2.460937.382812 3.261718 1.140625.800782.761719 1.199219 1.707031 1.199219 2.835937 0 .570313-.117187 1.132813-.351563 1.6875-.234374.554688-.621093 1.136719-1.164062 1.75-.542969.609376-1.449219 1.449219-2.710938 2.515626-1.054687.886718-1.730468 1.488281-2.03125 1.804687-.300781.316406-.546874.632813-.742187.953125zm0 0"/></symbol><symbol id="b" overflow="visible"><path d="m.828125-7.0625c0-1.691406.175781-3.054688.523437-4.085938.347657-1.03125.867188-1.828124 1.554688-2.386718s1.550781-.839844 2.59375-.839844c.765625 0 1.441406.15625 2.019531.464844s1.058594.753906 1.433594 1.335937c.378906.582031.675781 1.292969.890625 2.128907.214844.835937.320312 1.964843.320312 3.382812 0 1.679688-.171874 3.039062-.515624 4.070312s-.859376 1.828126-1.546876 2.390626c-.6875.5624995-1.554687.84375-2.601562.84375-1.382812 0-2.464844-.492188-3.253906-1.484376-.945313-1.191406-1.417969-3.128906-1.417969-5.820312zm1.808594 0c0 2.351562.273437 3.917969.824219 4.695312.550781.777344 1.230468 1.164063 2.039062 1.164063.804688 0 1.484375-.390625 2.035156-1.171875.550782-.78125.824219-2.34375.824219-4.6875 0-2.355469-.273437-3.921875-.824219-4.695312-.550781-.773438-1.238281-1.164063-2.058594-1.164063-.804687 0-1.449218.34375-1.929687 1.027344-.605469.871093-.910156 2.484375-.910156 4.832031zm0 0"/></symbol><symbol id="c" overflow="visible"><path d="m7.453125 0h-1.757813v-11.203125c-.425781.40625-.980468.808594-1.667968 1.210937-.6875.40625-1.300782.707032-1.847656.910157v-1.699219c.980468-.460938 1.839843-1.023438 2.578124-1.679688.734376-.65625 1.253907-1.296874 1.5625-1.914062h1.132813zm0 0"/></symbol><symbol id="d" overflow="visible"><path d="m.945312-12.441406v-1.691406h9.269532v1.367187c-.910156.972656-1.816406 2.261719-2.710938 3.867187-.894531 1.609376-1.585937 3.265626-2.074218 4.960938-.351563 1.199219-.578126 2.511719-.671876 3.9375h-1.808593c.019531-1.125.242187-2.488281.664062-4.082031s1.03125-3.132813 1.820313-4.613281c.792968-1.480469 1.632812-2.730469 2.527344-3.746094zm0 0"/></symbol><g stroke="#000" stroke-linecap="square" stroke-miterlimit="3.25"><path d="m181.257812 30.582031c-5.070312-10.53125-14.664062-18.175781-26.058593-20.777343-11.394531-2.601563-23.351563.128906-32.492188 7.414062-9.136719 7.289062-14.460937 18.339844-14.460937 30.027344" fill="none" stroke-width="1.2" transform="translate(-66 -5)"/><path d="m182.132812 32.402344.523438-6.972656-6.300781 3.035156zm0 0" fill="#fff" fill-rule="evenodd" stroke-width="1.2" transform="translate(-66 -5)"/><path d="m258.070312 30.582031c-5.070312-10.53125-14.660156-18.175781-26.058593-20.777343-11.394531-2.601563-23.351563.128906-32.492188 7.414062-9.136719 7.289062-14.460937 18.339844-14.460937 30.027344" fill="none" stroke-width="1.2" transform="translate(-66 -5)"/><path d="m258.945312 32.402344.523438-6.972656-6.296875 3.035156zm0 0" fill="#fff" fill-rule="evenodd" stroke-width="1.2" transform="translate(-66 -5)"/><path d="m334.882812 30.582031c-5.070312-10.53125-14.660156-18.175781-26.054687-20.777343-11.398437-2.601563-23.355469.128906-32.492187 7.414062-9.140626 7.289062-14.460938 18.339844-14.460938 30.027344" fill="none" stroke-width="1.2" transform="translate(-66 -5)"/><path d="m335.757812 32.402344.523438-6.972656-6.296875 3.035156zm0 0" fill="#fff" fill-rule="evenodd" stroke-width="1.2" transform="translate(-66 -5)"/><path d="m411.695312 30.582031c-5.070312-10.53125-14.660156-18.175781-26.054687-20.777343-11.394531-2.601563-23.355469.128906-32.492187 7.414062-9.140626 7.289062-14.460938 18.339844-14.460938 30.027344" fill="none" stroke-width="1.2" transform="translate(-66 -5)"/><path d="m412.570312 32.402344.523438-6.972656-6.296875 3.035156zm0 0" fill="#fff" fill-rule="evenodd" stroke-width="1.2" transform="translate(-66 -5)"/><path d="m488.507812 30.582031c-5.070312-10.53125-14.660156-18.175781-26.054687-20.777343-11.394531-2.601563-23.355469.128906-32.492187 7.414062-9.136719 7.289062-14.460938 18.339844-14.460938 30.027344" fill="none" stroke-width="1.2" transform="translate(-66 -5)"/><path d="m489.386719 32.402344.519531-6.972656-6.296875 3.035156zm0 0" fill="#fff" fill-rule="evenodd" stroke-width="1.2" transform="translate(-66 -5)"/><path d="m565.324219 30.582031c-5.074219-10.53125-14.664063-18.175781-26.058594-20.777343-11.394531-2.601563-23.355469.128906-32.492187 7.414062-9.136719 7.289062-14.460938 18.339844-14.460938 30.027344" fill="none" stroke-width="1.2" transform="translate(-66 -5)"/><path d="m566.199219 32.402344.523437-6.972656-6.300781 3.035156zm0 0" fill="#fff" fill-rule="evenodd" stroke-width="1.2" transform="translate(-66 -5)"/><path d="m642.136719 30.582031c-5.070313-10.53125-14.664063-18.175781-26.058594-20.777343-11.394531-2.601563-23.351563.128906-32.492187 7.414062-9.136719 7.289062-14.460938 18.339844-14.460938 30.027344" fill="none" stroke-width="1.2" transform="translate(-66 -5)"/><path d="m643.011719 32.402344.523437-6.972656-6.300781 3.035156zm0 0" fill="#fff" fill-rule="evenodd" stroke-width="1.2" transform="translate(-66 -5)"/><path d="m722.753906 47.246094c0-10.183594-4.046875-19.953125-11.25-27.15625s-16.972656-11.25-27.15625-11.25c-10.1875 0-19.957031 4.046875-27.160156 11.25s-11.246094 16.972656-11.246094 27.15625" fill="none" stroke-width="1.2" transform="translate(-66 -5)"/><path d="m722.753906 49.265625 3.492188-6.054687h-6.988282zm0 0" fill="#fff" fill-rule="evenodd" stroke-width="1.2" transform="translate(-66 -5)"/></g><use x="63.969" xlink:href="#a" y="36.379"/><use x="75.092" xlink:href="#b" y="36.379"/><use x="86.215" xlink:href="#a" y="36.379"/><use x="140.782" xlink:href="#c" y="36.379"/><use x="151.906" xlink:href="#d" y="36.379"/><use x="163.029" xlink:href="#a" y="36.379"/><use x="217.596" xlink:href="#a" y="36.379"/><use x="228.719" xlink:href="#b" y="36.379"/><use x="239.842" xlink:href="#a" y="36.379"/><use x="294.409" xlink:href="#c" y="36.379"/><use x="305.532" xlink:href="#d" y="36.379"/><use x="316.655" xlink:href="#a" y="36.379"/><use x="371.222" xlink:href="#a" y="36.379"/><use x="382.345" xlink:href="#b" y="36.379"/><use x="393.468" xlink:href="#a" y="36.379"/><use x="448.035" xlink:href="#c" y="36.379"/><use x="459.158" xlink:href="#d" y="36.379"/><use x="470.281" xlink:href="#a" y="36.379"/><use x="524.848" xlink:href="#a" y="36.379"/><use x="535.971" xlink:href="#b" y="36.379"/><use x="547.094" xlink:href="#a" y="36.379"/><use x="601.662" xlink:href="#c" y="36.379"/><use x="612.785" xlink:href="#d" y="36.379"/><use x="623.908" xlink:href="#a" y="36.379"/><g fill-rule="evenodd"><path d="m3.839844 126.960938h77.039062v-77.039063h-77.039062zm0 0" fill="#fff"/><path d="m31.824219 88.335938 10.421875-6.019532v12.035156zm0 0" fill="purple"/><path d="m42.246094 94.351562 10.421875-6.015624v12.035156zm0 0" fill="purple"/><path d="m52.667969 88.335938-10.421875-6.019532v12.035156zm0 0" fill="purple"/><path d="m42.246094 94.351562-10.421875-6.015624v12.035156zm0 0" fill="purple"/><path d="m31.824219 100.371094-10.421875-6.019532v12.035157zm0 0" fill="purple"/><path d="m42.246094 106.386719-10.421875-6.015625v12.03125zm0 0" fill="purple"/><path d="m80.640625 126.960938h77.039063v-77.039063h-77.039063zm0 0" fill="#fff"/><g fill="purple"><path d="m108.636719 88.335938 10.421875-6.019532v12.035156zm0 0"/><path d="m119.058594 82.316406 10.421875-6.015625v12.035157zm0 0"/><path d="m87.796875 100.371094 10.421875-6.019532v12.035157zm0 0"/><path d="m108.636719 112.402344 10.421875-6.015625v12.035156zm0 0"/><path d="m129.480469 88.335938-10.421875-6.019532v12.035156zm0 0"/><path d="m119.058594 82.316406-10.421875-6.015625v12.035157zm0 0"/><path d="m139.902344 94.351562-10.421875-6.015624v12.035156zm0 0"/><path d="m129.480469 100.371094-10.421875-6.019532v12.035157zm0 0"/></g><path d="m157.441406 126.960938h77.039063v-77.039063h-77.039063zm0 0" fill="#fff"/><path d="m195.875 94.351562 10.421875-6.015624v12.035156zm0 0" fill="purple"/><path d="m195.875 82.316406 10.421875-6.015625v12.035157zm0 0" fill="purple"/><path d="m195.875 82.316406-10.421875-6.015625v12.035157zm0 0" fill="purple"/><path d="m234.238281 126.960938h77.042969v-77.039063h-77.042969zm0 0" fill="#fff"/><path d="m262.265625 88.335938 10.421875-6.019532v12.035156zm0 0" fill="purple"/><path d="m262.265625 76.300781 10.421875-6.015625v12.03125zm0 0" fill="purple"/><path d="m251.84375 82.316406 10.421875-6.015625v12.035157zm0 0" fill="purple"/><path d="m293.53125 94.351562-10.421875-6.015624v12.035156zm0 0" fill="purple"/><path d="m293.53125 82.316406-10.421875-6.015625v12.035157zm0 0" fill="purple"/><path d="m283.109375 76.300781-10.421875-6.015625v12.03125zm0 0" fill="purple"/><path d="m283.109375 100.371094-10.421875-6.019532v12.035157zm0 0" fill="purple"/><path d="m311.039062 126.960938h77.039063v-77.039063h-77.039063zm0 0" fill="#fff"/><path d="m349.5 94.351562 10.421875-6.015624v12.035156zm0 0" fill="purple"/><path d="m349.5 82.316406 10.421875-6.015625v12.035157zm0 0" fill="purple"/><path d="m339.078125 76.300781 10.421875-6.015625v12.03125zm0 0" fill="purple"/><path d="m359.921875 88.335938 10.421875-6.019532v12.035156zm0 0" fill="purple"/><path d="m349.5 82.316406-10.421875-6.015625v12.035157zm0 0" fill="purple"/><path d="m359.921875 76.300781-10.421875-6.015625v12.03125zm0 0" fill="purple"/><path d="m387.839844 126.960938h77.039062v-77.039063h-77.039062zm0 0" fill="#fff"/><path d="m415.890625 88.335938 10.421875-6.019532v12.035156zm0 0" fill="purple"/><path d="m415.890625 76.300781 10.421875-6.015625v12.03125zm0 0" fill="purple"/><path d="m405.46875 82.316406 10.421875-6.015625v12.035157zm0 0" fill="purple"/><path d="m426.3125 70.285156 10.421875-6.019531v12.035156zm0 0" fill="purple"/><path d="m436.734375 76.300781-10.421875-6.015625v12.03125zm0 0" fill="purple"/><path d="m426.3125 70.285156-10.421875-6.019531v12.035156zm0 0" fill="purple"/><path d="m436.734375 100.371094-10.421875-6.019532v12.035157zm0 0" fill="purple"/><path d="m457.578125 88.335938-10.421875-6.019532v12.035156zm0 0" fill="purple"/><path d="m464.640625 126.960938h77.039063v-77.039063h-77.039063zm0 0" fill="#fff"/><path d="m503.125 70.285156 10.421875-6.019531v12.035156zm0 0" fill="purple"/><path d="m503.125 82.316406-10.421875-6.015625v12.035157zm0 0" fill="purple"/><path d="m503.125 70.285156-10.421875-6.019531v12.035156zm0 0" fill="purple"/><path d="m541.441406 126.960938h77.039063v-77.039063h-77.039063zm0 0" fill="#fff"/><path d="m569.519531 88.335938 10.421875-6.019532v12.035156zm0 0" fill="purple"/><path d="m559.097656 82.316406 10.421875-6.015625v12.035157zm0 0" fill="purple"/><path d="m569.519531 64.265625 10.421875-6.015625v12.035156zm0 0" fill="purple"/><path d="m559.097656 70.285156 10.421875-6.019531v12.035156zm0 0" fill="purple"/><path d="m590.363281 76.300781-10.421875-6.015625v12.03125zm0 0" fill="purple"/><path d="m600.78125 70.285156-10.417969-6.019531v12.035156zm0 0" fill="purple"/><path d="m590.363281 64.265625-10.421875-6.015625v12.035156zm0 0" fill="purple"/><path d="m618.238281 126.960938h77.042969v-77.039063h-77.042969zm0 0" fill="#fff"/><path d="m656.753906 70.285156 10.421875-6.019531v12.035156zm0 0" fill="purple"/><path d="m646.332031 64.265625 10.421875-6.015625v12.035156zm0 0" fill="purple"/><path d="m656.753906 82.316406-10.421875-6.015625v12.035157zm0 0" fill="purple"/><path d="m656.753906 70.285156-10.421875-6.019531v12.035156zm0 0" fill="purple"/><path d="m646.332031 76.300781-10.421875-6.015625v12.03125zm0 0" fill="purple"/><path d="m667.175781 64.265625-10.421875-6.015625v12.035156zm0 0" fill="purple"/></g><path d="m69.839844 54.929688v76.8125h76.8125v-76.8125zm0 0" fill="none" stroke="#000" stroke-linecap="square" stroke-miterlimit="3.25" transform="translate(-66 -5)"/><path d="m146.652344 54.929688v76.8125h76.816406v-76.8125zm0 0" fill="none" stroke="#000" stroke-linecap="square" stroke-miterlimit="3.25" transform="translate(-66 -5)"/><path d="m223.46875 54.929688v76.8125h76.8125v-76.8125zm0 0" fill="none" stroke="#000" stroke-linecap="square" stroke-miterlimit="3.25" transform="translate(-66 -5)"/><path d="m300.28125 54.929688v76.8125h76.8125v-76.8125zm0 0" fill="none" stroke="#000" stroke-linecap="square" stroke-miterlimit="3.25" transform="translate(-66 -5)"/><path d="m377.09375 54.929688v76.8125h76.8125v-76.8125zm0 0" fill="none" stroke="#000" stroke-linecap="square" stroke-miterlimit="3.25" transform="translate(-66 -5)"/><path d="m453.90625 54.929688v76.8125h76.8125v-76.8125zm0 0" fill="none" stroke="#000" stroke-linecap="square" stroke-miterlimit="3.25" transform="translate(-66 -5)"/><path d="m530.71875 54.929688v76.8125h76.8125v-76.8125zm0 0" fill="none" stroke="#000" stroke-linecap="square" stroke-miterlimit="3.25" transform="translate(-66 -5)"/><path d="m607.53125 54.929688v76.8125h76.816406v-76.8125zm0 0" fill="none" stroke="#000" stroke-linecap="square" stroke-miterlimit="3.25" transform="translate(-66 -5)"/><path d="m684.347656 54.929688v76.8125h76.8125v-76.8125zm0 0" fill="none" stroke="#000" stroke-linecap="square" stroke-miterlimit="3.25" transform="translate(-66 -5)"/></svg>