<svg height="81pt" viewBox="0 0 1201 81" width="1201pt" xmlns="http://www.w3.org/2000/svg"><g fill-rule="evenodd"><path d="m.480469 80.640625h80.160156v-80.160156h-80.160156zm0 0" fill="#fff"/><path d="m17.648438 40.5 8.570312 4.949219v-9.898438zm0 0" fill="#800080"/><path d="m26.21875 45.449219 8.570312 4.945312v-9.894531zm0 0" fill="#800080"/><path d="m26.21875 35.550781 8.570312 4.949219v-9.894531zm0 0" fill="#800080"/><path d="m34.789062 50.394531 8.566407 4.949219v-9.894531zm0 0" fill="#800080"/><path d="m34.789062 40.5 8.566407 4.949219v-9.898438zm0 0" fill="#800080"/><path d="m34.789062 30.605469 8.566407 4.945312v-9.894531zm0 0" fill="#800080"/><path d="m80.398438 80.640625h80.160156v-80.160156h-80.160156zm0 0" fill="#800080"/><g fill="#fff"><path d="m114.789062 40.5-8.570312 4.949219v-9.898438zm0 0"/><path d="m106.21875 35.550781-8.570312 4.949219v-9.894531zm0 0"/><path d="m106.21875 45.449219-8.570312 4.945312v-9.894531zm0 0"/><path d="m114.789062 50.394531-8.570312 4.949219v-9.894531zm0 0"/><path d="m123.355469 45.449219-8.566407 4.945312v-9.894531zm0 0"/><path d="m123.355469 35.550781-8.566407 4.949219v-9.894531zm0 0"/><path d="m114.789062 30.605469-8.570312 4.945312v-9.894531zm0 0"/><path d="m123.355469 55.34375-8.566407 4.945312v-9.894531zm0 0"/><path d="m131.925781 50.394531-8.570312 4.949219v-9.894531zm0 0"/><path d="m131.925781 40.5-8.570312 4.949219v-9.898438zm0 0"/><path d="m131.925781 30.605469-8.570312 4.945312v-9.894531zm0 0"/><path d="m123.355469 25.65625-8.566407 4.949219v-9.894531zm0 0"/><path d="m160.320312 80.640625h80.398438v-80.160156h-80.398438zm0 0"/></g><path d="m177.648438 40.5 8.570312 4.949219v-9.898438zm0 0" fill="#800080"/><path d="m186.21875 45.449219 8.570312 4.945312v-9.894531zm0 0" fill="#800080"/><path d="m186.21875 35.550781 8.570312 4.949219v-9.894531zm0 0" fill="#800080"/><path d="m177.648438 50.394531 8.570312 4.949219v-9.894531zm0 0" fill="#800080"/><path d="m186.21875 55.34375 8.570312 4.945312v-9.894531zm0 0" fill="#800080"/><path d="m194.789062 50.394531 8.566407 4.949219v-9.894531zm0 0" fill="#800080"/><path d="m194.789062 40.5 8.566407 4.949219v-9.898438zm0 0" fill="#800080"/><path d="m194.789062 30.605469 8.566407 4.945312v-9.894531zm0 0" fill="#800080"/><path d="m186.21875 25.65625 8.570312 4.949219v-9.894531zm0 0" fill="#800080"/><path d="m177.648438 30.605469 8.570312 4.945312v-9.894531zm0 0" fill="#800080"/><path d="m203.355469 45.449219 8.570312 4.945312v-9.894531zm0 0" fill="#800080"/><path d="m203.355469 35.550781 8.570312 4.949219v-9.894531zm0 0" fill="#800080"/><path d="m240.480469 80.640625h80.160156v-80.160156h-80.160156zm0 0" fill="#800080"/><path d="m274.789062 40.5-8.570312 4.949219v-9.898438zm0 0" fill="#fff"/><path d="m274.789062 50.394531-8.570312 4.949219v-9.894531zm0 0" fill="#fff"/><path d="m283.355469 45.449219-8.566407 4.945312v-9.894531zm0 0" fill="#fff"/><path d="m283.355469 35.550781-8.566407 4.949219v-9.894531zm0 0" fill="#fff"/><path d="m274.789062 30.605469-8.570312 4.945312v-9.894531zm0 0" fill="#fff"/><path d="m266.21875 55.34375-8.570312 4.945312v-9.894531zm0 0" fill="#fff"/><path d="m274.789062 60.289062-8.570312 4.949219v-9.894531zm0 0" fill="#fff"/><path d="m291.925781 40.5-8.570312 4.949219v-9.898438zm0 0" fill="#fff"/><path d="m274.789062 20.710938-8.570312 4.945312v-9.894531zm0 0" fill="#fff"/><path d="m266.21875 25.65625-8.570312 4.949219v-9.894531zm0 0" fill="#fff"/><path d="m300.496094 45.449219-8.570313 4.945312v-9.894531zm0 0" fill="#fff"/><path d="m300.496094 35.550781-8.570313 4.949219v-9.894531zm0 0" fill="#fff"/><path d="m320.398438 80.640625h80.160156v-80.160156h-80.160156zm0 0" fill="#fff"/><path d="m346.21875 45.449219 8.570312 4.945312v-9.894531zm0 0" fill="#800080"/><path d="m346.21875 35.550781 8.570312 4.949219v-9.894531zm0 0" fill="#800080"/><path d="m337.648438 50.394531 8.570312 4.949219v-9.894531zm0 0" fill="#800080"/><path d="m346.21875 55.34375 8.570312 4.945312v-9.894531zm0 0" fill="#800080"/><path d="m354.789062 40.5 8.566407 4.949219v-9.898438zm0 0" fill="#800080"/><path d="m346.21875 25.65625 8.570312 4.949219v-9.894531zm0 0" fill="#800080"/><path d="m337.648438 30.605469 8.570312 4.945312v-9.894531zm0 0" fill="#800080"/><path d="m337.648438 60.289062 8.570312 4.949219v-9.894531zm0 0" fill="#800080"/><path d="m363.355469 45.449219 8.570312 4.945312v-9.894531zm0 0" fill="#800080"/><path d="m363.355469 35.550781 8.570312 4.949219v-9.894531zm0 0" fill="#800080"/><path d="m337.648438 20.710938 8.570312 4.945312v-9.894531zm0 0" fill="#800080"/><path d="m371.925781 40.5 8.570313 4.949219v-9.898438zm0 0" fill="#800080"/><path d="m400.320312 80.640625h80.398438v-80.160156h-80.398438zm0 0" fill="#800080"/><path d="m426.21875 35.550781-8.570312 4.949219v-9.894531zm0 0" fill="#fff"/><path d="m426.21875 45.449219-8.570312 4.945312v-9.894531zm0 0" fill="#fff"/><path d="m434.789062 50.394531-8.570312 4.949219v-9.894531zm0 0" fill="#fff"/><path d="m434.789062 30.605469-8.570312 4.945312v-9.894531zm0 0" fill="#fff"/><path d="m443.355469 55.34375-8.566407 4.945312v-9.894531zm0 0" fill="#fff"/><path d="m451.925781 50.394531-8.570312 4.949219v-9.894531zm0 0" fill="#fff"/><path d="m451.925781 40.5-8.570312 4.949219v-9.898438zm0 0" fill="#fff"/><path d="m451.925781 30.605469-8.570312 4.945312v-9.894531zm0 0" fill="#fff"/><path d="m443.355469 25.65625-8.566407 4.949219v-9.894531zm0 0" fill="#fff"/><path d="m426.21875 65.238281-8.570312 4.945313v-9.894532zm0 0" fill="#fff"/><path d="m426.21875 15.761719-8.570312 4.949219v-9.894532zm0 0" fill="#fff"/><path d="m469.0625 40.5-8.566406 4.949219v-9.898438zm0 0" fill="#fff"/><path d="m480.480469 80.640625h80.160156v-80.160156h-80.160156zm0 0" fill="#fff"/><path d="m497.648438 40.5 8.570312 4.949219v-9.898438zm0 0" fill="#800080"/><path d="m497.648438 50.394531 8.570312 4.949219v-9.894531zm0 0" fill="#800080"/><path d="m506.21875 55.34375 8.570312 4.945312v-9.894531zm0 0" fill="#800080"/><path d="m514.789062 50.394531 8.566407 4.949219v-9.894531zm0 0" fill="#800080"/><path d="m514.789062 30.605469 8.566407 4.945312v-9.894531zm0 0" fill="#800080"/><path d="m506.21875 25.65625 8.570312 4.949219v-9.894531zm0 0" fill="#800080"/><path d="m497.648438 30.605469 8.570312 4.945312v-9.894531zm0 0" fill="#800080"/><path d="m523.355469 45.449219 8.570312 4.945312v-9.894531zm0 0" fill="#800080"/><path d="m523.355469 35.550781 8.570312 4.949219v-9.894531zm0 0" fill="#800080"/><path d="m560.398438 80.640625h80.160156v-80.160156h-80.160156zm0 0" fill="#800080"/><path d="m594.789062 40.5-8.570312 4.949219v-9.898438zm0 0" fill="#fff"/><path d="m603.355469 45.449219-8.566407 4.945312v-9.894531zm0 0" fill="#fff"/><path d="m603.355469 35.550781-8.566407 4.949219v-9.894531zm0 0" fill="#fff"/><path d="m586.21875 55.34375-8.570312 4.945312v-9.894531zm0 0" fill="#fff"/><path d="m594.789062 60.289062-8.570312 4.949219v-9.894531zm0 0" fill="#fff"/><path d="m594.789062 20.710938-8.570312 4.945312v-9.894531zm0 0" fill="#fff"/><path d="m586.21875 25.65625-8.570312 4.949219v-9.894531zm0 0" fill="#fff"/><path d="m620.496094 45.449219-8.570313 4.945312v-9.894531zm0 0" fill="#fff"/><path d="m620.496094 35.550781-8.570313 4.949219v-9.894531zm0 0" fill="#fff"/><path d="m640.320312 80.640625h80.398438v-80.160156h-80.398438zm0 0" fill="#fff"/><path d="m666.21875 45.449219 8.570312 4.945312v-9.894531zm0 0" fill="#800080"/><path d="m666.21875 35.550781 8.570312 4.949219v-9.894531zm0 0" fill="#800080"/><path d="m674.789062 40.5 8.566407 4.949219v-9.898438zm0 0" fill="#800080"/><path d="m657.648438 60.289062 8.570312 4.949219v-9.894531zm0 0" fill="#800080"/><path d="m657.648438 20.710938 8.570312 4.945312v-9.894531zm0 0" fill="#800080"/><path d="m691.925781 40.5 8.570313 4.949219v-9.898438zm0 0" fill="#800080"/><path d="m720.480469 80.640625h80.160156v-80.160156h-80.160156zm0 0" fill="#800080"/><path d="m754.789062 50.394531-8.570312 4.949219v-9.894531zm0 0" fill="#fff"/><path d="m754.789062 30.605469-8.570312 4.945312v-9.894531zm0 0" fill="#fff"/><path d="m746.21875 55.34375-8.570312 4.945312v-9.894531zm0 0" fill="#fff"/><path d="m754.789062 60.289062-8.570312 4.949219v-9.894531zm0 0" fill="#fff"/><path d="m771.925781 40.5-8.570312 4.949219v-9.898438zm0 0" fill="#fff"/><path d="m754.789062 20.710938-8.570312 4.945312v-9.894531zm0 0" fill="#fff"/><path d="m746.21875 25.65625-8.570312 4.949219v-9.894531zm0 0" fill="#fff"/><path d="m746.21875 65.238281-8.570312 4.945313v-9.894532zm0 0" fill="#fff"/><path d="m780.496094 45.449219-8.570313 4.945312v-9.894531zm0 0" fill="#fff"/><path d="m780.496094 35.550781-8.570313 4.949219v-9.894531zm0 0" fill="#fff"/><path d="m746.21875 15.761719-8.570312 4.949219v-9.894532zm0 0" fill="#fff"/><path d="m789.0625 40.5-8.566406 4.949219v-9.898438zm0 0" fill="#fff"/><path d="m800.398438 80.640625h80.160156v-80.160156h-80.160156zm0 0" fill="#fff"/><path d="m817.648438 50.394531 8.570312 4.949219v-9.894531zm0 0" fill="#800080"/><path d="m826.21875 55.34375 8.570312 4.945312v-9.894531zm0 0" fill="#800080"/><path d="m826.21875 25.65625 8.570312 4.949219v-9.894531zm0 0" fill="#800080"/><path d="m817.648438 30.605469 8.570312 4.945312v-9.894531zm0 0" fill="#800080"/><path d="m817.648438 60.289062 8.570312 4.949219v-9.894531zm0 0" fill="#800080"/><path d="m843.355469 45.449219 8.570312 4.945312v-9.894531zm0 0" fill="#800080"/><path d="m843.355469 35.550781 8.570312 4.949219v-9.894531zm0 0" fill="#800080"/><path d="m817.648438 20.710938 8.570312 4.945312v-9.894531zm0 0" fill="#800080"/><path d="m851.925781 40.5 8.570313 4.949219v-9.898438zm0 0" fill="#800080"/><path d="m880.320312 80.640625h80.398438v-80.160156h-80.398438zm0 0" fill="#800080"/><path d="m906.21875 35.550781-8.570312 4.949219v-9.894531zm0 0" fill="#fff"/><path d="m906.21875 45.449219-8.570312 4.945312v-9.894531zm0 0" fill="#fff"/><path d="m923.355469 55.34375-8.566407 4.945312v-9.894531zm0 0" fill="#fff"/><path d="m931.925781 50.394531-8.570312 4.949219v-9.894531zm0 0" fill="#fff"/><path d="m931.925781 30.605469-8.570312 4.945312v-9.894531zm0 0" fill="#fff"/><path d="m923.355469 25.65625-8.566407 4.949219v-9.894531zm0 0" fill="#fff"/><path d="m906.21875 65.238281-8.570312 4.945313v-9.894532zm0 0" fill="#fff"/><path d="m906.21875 15.761719-8.570312 4.949219v-9.894532zm0 0" fill="#fff"/><path d="m949.0625 40.5-8.566406 4.949219v-9.898438zm0 0" fill="#fff"/><path d="m960.480469 80.640625h80.160156v-80.160156h-80.160156zm0 0" fill="#fff"/><path d="m977.648438 40.5 8.570312 4.949219v-9.898438zm0 0" fill="#800080"/><path d="m994.789062 50.394531 8.566407 4.949219v-9.894531zm0 0" fill="#800080"/><path d="m994.789062 30.605469 8.566407 4.945312v-9.894531zm0 0" fill="#800080"/><path d="m1040.398438 80.640625h80.160156v-80.160156h-80.160156zm0 0" fill="#800080"/><path d="m1074.789062 40.5-8.570312 4.949219v-9.898438zm0 0" fill="#fff"/><path d="m1066.21875 35.550781-8.570312 4.949219v-9.894531zm0 0" fill="#fff"/><path d="m1066.21875 45.449219-8.570312 4.945312v-9.894531zm0 0" fill="#fff"/><path d="m1083.355469 45.449219-8.566407 4.945312v-9.894531zm0 0" fill="#fff"/><path d="m1083.355469 35.550781-8.566407 4.949219v-9.894531zm0 0" fill="#fff"/><path d="m1083.355469 55.34375-8.566407 4.945312v-9.894531zm0 0" fill="#fff"/><path d="m1091.925781 50.394531-8.570312 4.949219v-9.894531zm0 0" fill="#fff"/><path d="m1091.925781 30.605469-8.570312 4.945312v-9.894531zm0 0" fill="#fff"/><path d="m1083.355469 25.65625-8.566407 4.949219v-9.894531zm0 0" fill="#fff"/><path d="m1120.320312 80.640625h80.398438v-80.160156h-80.398438zm0 0" fill="#fff"/><path d="m1137.648438 40.5 8.570312 4.949219v-9.898438zm0 0" fill="#800080"/><path d="m1146.21875 45.449219 8.570312 4.945312v-9.894531zm0 0" fill="#800080"/><path d="m1146.21875 35.550781 8.570312 4.949219v-9.894531zm0 0" fill="#800080"/><path d="m1154.789062 50.394531 8.566407 4.949219v-9.894531zm0 0" fill="#800080"/><path d="m1154.789062 40.5 8.566407 4.949219v-9.898438zm0 0" fill="#800080"/><path d="m1154.789062 30.605469 8.566407 4.945312v-9.894531zm0 0" fill="#800080"/><path d="m0 0h1201v1h-1201zm0 0"/><path d="m0 80h1201v1h-1201zm0 0"/><path d="m1 1v79h-1v-79zm0 0"/><path d="m1201 1v79h-1v-79zm0 0"/></g></svg>