<svg height="81pt" viewBox="0 0 721 81" width="721pt" xmlns="http://www.w3.org/2000/svg"><g fill-rule="evenodd"><path d="m.480469 80.640625h80.160156v-80.160156h-80.160156zm0 0" fill="#fff"/><path d="m12.589844 29.757812 9.304687-5.371093v10.742187zm0 0" fill="#800080"/><path d="m12.589844 40.5 9.304687-5.371094v10.742188zm0 0" fill="#800080"/><path d="m12.589844 51.242188 9.304687-5.371094v10.742187zm0 0" fill="#800080"/><path d="m68.410156 40.5-9.304687-5.371094v10.742188zm0 0" fill="#800080"/><path d="m68.410156 29.757812-9.304687-5.371093v10.742187zm0 0" fill="#800080"/><path d="m68.410156 51.242188-9.304687-5.371094v10.742187zm0 0" fill="#800080"/><path d="m80.398438 80.640625h80.160156v-80.160156h-80.160156zm0 0" fill="#800080"/><path d="m129.804688 40.5 9.300781-5.371094v10.742188zm0 0" fill="#fff"/><path d="m129.804688 29.757812 9.300781-5.371093v10.742187zm0 0" fill="#fff"/><path d="m139.105469 24.386719 9.304687-5.371094v10.742187zm0 0" fill="#fff"/><path d="m129.804688 51.242188 9.300781-5.371094v10.742187zm0 0" fill="#fff"/><path d="m139.105469 56.613281 9.304687-5.371093v10.742187zm0 0" fill="#fff"/><path d="m111.195312 29.757812-9.300781-5.371093v10.742187zm0 0" fill="#fff"/><path d="m111.195312 40.5-9.300781-5.371094v10.742188zm0 0" fill="#fff"/><path d="m111.195312 51.242188-9.300781-5.371094v10.742187zm0 0" fill="#fff"/><path d="m101.894531 24.386719-9.304687-5.371094v10.742187zm0 0" fill="#fff"/><path d="m101.894531 56.613281-9.304687-5.371093v10.742187zm0 0" fill="#fff"/><path d="m160.320312 80.640625h80.398438v-80.160156h-80.398438zm0 0" fill="#fff"/><path d="m181.894531 35.128906 9.300781-5.371094v10.742188zm0 0" fill="#800080"/><path d="m181.894531 45.871094 9.300781-5.371094v10.742188zm0 0" fill="#800080"/><path d="m172.589844 29.757812 9.304687-5.371093v10.742187zm0 0" fill="#800080"/><path d="m172.589844 51.242188 9.304687-5.371094v10.742187zm0 0" fill="#800080"/><path d="m219.105469 35.128906-9.300781-5.371094v10.742188zm0 0" fill="#800080"/><path d="m228.410156 29.757812-9.304687-5.371093v10.742187zm0 0" fill="#800080"/><path d="m219.105469 45.871094-9.300781-5.371094v10.742188zm0 0" fill="#800080"/><path d="m228.410156 51.242188-9.304687-5.371094v10.742187zm0 0" fill="#800080"/><path d="m240.480469 80.640625h80.160156v-80.160156h-80.160156zm0 0" fill="#800080"/><path d="m280.5 35.128906 9.304688-5.371094v10.742188zm0 0" fill="#fff"/><path d="m280.5 45.871094 9.304688-5.371094v10.742188zm0 0" fill="#fff"/><path d="m299.105469 45.871094 9.304687-5.371094v10.742188zm0 0" fill="#fff"/><path d="m299.105469 35.128906 9.304687-5.371094v10.742188zm0 0" fill="#fff"/><path d="m299.105469 24.386719 9.304687-5.371094v10.742187zm0 0" fill="#fff"/><path d="m299.105469 56.613281 9.304687-5.371093v10.742187zm0 0" fill="#fff"/><path d="m280.5 35.128906-9.304688-5.371094v10.742188zm0 0" fill="#fff"/><path d="m280.5 45.871094-9.304688-5.371094v10.742188zm0 0" fill="#fff"/><path d="m261.894531 24.386719-9.304687-5.371094v10.742187zm0 0" fill="#fff"/><path d="m261.894531 35.128906-9.304687-5.371094v10.742188zm0 0" fill="#fff"/><path d="m261.894531 45.871094-9.304687-5.371094v10.742188zm0 0" fill="#fff"/><path d="m261.894531 56.613281-9.304687-5.371093v10.742187zm0 0" fill="#fff"/><path d="m320.398438 80.640625h80.160156v-80.160156h-80.160156zm0 0" fill="#fff"/><path d="m351.195312 40.5 9.304688-5.371094v10.742188zm0 0" fill="#800080"/><path d="m332.589844 29.757812 9.304687-5.371093v10.742187zm0 0" fill="#800080"/><path d="m332.589844 40.5 9.304687-5.371094v10.742188zm0 0" fill="#800080"/><path d="m332.589844 51.242188 9.304687-5.371094v10.742187zm0 0" fill="#800080"/><path d="m369.804688 40.5-9.304688-5.371094v10.742188zm0 0" fill="#800080"/><path d="m388.410156 40.5-9.304687-5.371094v10.742188zm0 0" fill="#800080"/><path d="m388.410156 29.757812-9.304687-5.371093v10.742187zm0 0" fill="#800080"/><path d="m388.410156 51.242188-9.304687-5.371094v10.742187zm0 0" fill="#800080"/><path d="m400.320312 80.640625h80.398438v-80.160156h-80.398438zm0 0" fill="#800080"/><g fill="#fff"><path d="m440.5 35.128906 9.304688-5.371094v10.742188zm0 0"/><path d="m449.804688 40.5 9.300781-5.371094v10.742188zm0 0"/><path d="m449.804688 29.757812 9.300781-5.371093v10.742187zm0 0"/><path d="m440.5 45.871094 9.304688-5.371094v10.742188zm0 0"/><path d="m459.105469 24.386719 9.304687-5.371094v10.742187zm0 0"/><path d="m449.804688 51.242188 9.300781-5.371094v10.742187zm0 0"/><path d="m459.105469 56.613281 9.304687-5.371093v10.742187zm0 0"/><path d="m440.5 35.128906-9.304688-5.371094v10.742188zm0 0"/><path d="m440.5 45.871094-9.304688-5.371094v10.742188zm0 0"/><path d="m431.195312 29.757812-9.300781-5.371093v10.742187zm0 0"/><path d="m431.195312 40.5-9.300781-5.371094v10.742188zm0 0"/><path d="m431.195312 51.242188-9.300781-5.371094v10.742187zm0 0"/><path d="m421.894531 24.386719-9.304687-5.371094v10.742187zm0 0"/><path d="m421.894531 56.613281-9.304687-5.371093v10.742187zm0 0"/><path d="m480.480469 80.640625h80.160156v-80.160156h-80.160156zm0 0"/></g><path d="m511.195312 40.5 9.304688-5.371094v10.742188zm0 0" fill="#800080"/><path d="m501.894531 35.128906 9.300781-5.371094v10.742188zm0 0" fill="#800080"/><path d="m501.894531 45.871094 9.300781-5.371094v10.742188zm0 0" fill="#800080"/><path d="m492.589844 29.757812 9.304687-5.371093v10.742187zm0 0" fill="#800080"/><path d="m492.589844 51.242188 9.304687-5.371094v10.742187zm0 0" fill="#800080"/><path d="m539.105469 35.128906-9.300781-5.371094v10.742188zm0 0" fill="#800080"/><path d="m529.804688 40.5-9.304688-5.371094v10.742188zm0 0" fill="#800080"/><path d="m548.410156 29.757812-9.304687-5.371093v10.742187zm0 0" fill="#800080"/><path d="m539.105469 45.871094-9.300781-5.371094v10.742188zm0 0" fill="#800080"/><path d="m548.410156 51.242188-9.304687-5.371094v10.742187zm0 0" fill="#800080"/><path d="m560.398438 80.640625h80.160156v-80.160156h-80.160156zm0 0" fill="#800080"/><path d="m619.105469 45.871094 9.304687-5.371094v10.742188zm0 0" fill="#fff"/><path d="m619.105469 35.128906 9.304687-5.371094v10.742188zm0 0" fill="#fff"/><path d="m619.105469 24.386719 9.304687-5.371094v10.742187zm0 0" fill="#fff"/><path d="m619.105469 56.613281 9.304687-5.371093v10.742187zm0 0" fill="#fff"/><path d="m581.894531 24.386719-9.304687-5.371094v10.742187zm0 0" fill="#fff"/><path d="m581.894531 35.128906-9.304687-5.371094v10.742188zm0 0" fill="#fff"/><path d="m581.894531 45.871094-9.304687-5.371094v10.742188zm0 0" fill="#fff"/><path d="m581.894531 56.613281-9.304687-5.371093v10.742187zm0 0" fill="#fff"/><path d="m640.320312 80.640625h80.398438v-80.160156h-80.398438zm0 0" fill="#fff"/><path d="m652.589844 29.757812 9.304687-5.371093v10.742187zm0 0" fill="#800080"/><path d="m652.589844 40.5 9.304687-5.371094v10.742188zm0 0" fill="#800080"/><path d="m652.589844 51.242188 9.304687-5.371094v10.742187zm0 0" fill="#800080"/><path d="m708.410156 40.5-9.304687-5.371094v10.742188zm0 0" fill="#800080"/><path d="m708.410156 29.757812-9.304687-5.371093v10.742187zm0 0" fill="#800080"/><path d="m708.410156 51.242188-9.304687-5.371094v10.742187zm0 0" fill="#800080"/><path d="m0 0h721v1h-721zm0 0"/><path d="m0 80h721v1h-721zm0 0"/><path d="m1 1v79h-1v-79zm0 0"/><path d="m721 1v79h-1v-79zm0 0"/></g></svg>