<svg height="81pt" viewBox="0 0 561 81" width="561pt" xmlns="http://www.w3.org/2000/svg"><g fill-rule="evenodd"><path d="m.480469 80.640625h80.160156v-80.160156h-80.160156zm0 0" fill="#fff"/><path d="m56.007812 50.570312-11.632812-6.714843v13.429687zm0 0" fill="#800080"/><path d="m44.375 57.285156-11.628906-6.714844v13.429688zm0 0" fill="#800080"/><path d="m67.636719 57.285156-11.628907-6.714844v13.429688zm0 0" fill="#800080"/><path d="m32.746094 50.570312-11.628906-6.714843v13.429687zm0 0" fill="#800080"/><path d="m56.007812 23.714844-11.632812-6.714844v13.429688zm0 0" fill="#800080"/><path d="m80.398438 80.640625h80.160156v-80.160156h-80.160156zm0 0" fill="#800080"/><g fill="#fff"><path d="m124.375 43.855469 11.632812-6.710938v13.425781zm0 0"/><path d="m101.117188 43.855469 11.628906-6.710938v13.425781zm0 0"/><path d="m112.746094 64 11.628906-6.714844v13.429688zm0 0"/><path d="m136.007812 64 11.628907-6.714844v13.429688zm0 0"/><path d="m136.007812 50.570312 11.628907-6.714843v13.429687zm0 0"/><path d="m124.375 30.429688 11.632812-6.714844v13.429687zm0 0"/><path d="m112.746094 23.714844 11.628906-6.714844v13.429688zm0 0"/><path d="m89.488281 50.570312 11.628907-6.714843v13.429687zm0 0"/><path d="m124.375 17 11.632812-6.714844v13.429688zm0 0"/><path d="m160.320312 80.640625h80.398438v-80.160156h-80.398438zm0 0"/></g><path d="m227.636719 57.285156-11.628907-6.714844v13.429688zm0 0" fill="#800080"/><path d="m227.636719 43.855469-11.628907-6.710938v13.425781zm0 0" fill="#800080"/><path d="m216.007812 37.144531-11.632812-6.714843v13.425781zm0 0" fill="#800080"/><path d="m192.746094 50.570312-11.628906-6.714843v13.429687zm0 0" fill="#800080"/><path d="m216.007812 23.714844-11.632812-6.714844v13.429688zm0 0" fill="#800080"/><path d="m240.480469 80.640625h80.160156v-80.160156h-80.160156zm0 0" fill="#800080"/><path d="m284.375 57.285156 11.632812-6.714844v13.429688zm0 0" fill="#fff"/><path d="m272.746094 37.144531 11.628906-6.714843v13.425781zm0 0" fill="#fff"/><path d="m261.117188 43.855469 11.628906-6.710938v13.425781zm0 0" fill="#fff"/><path d="m261.117188 57.285156 11.628906-6.714844v13.429688zm0 0" fill="#fff"/><path d="m296.007812 64 11.628907-6.714844v13.429688zm0 0" fill="#fff"/><path d="m296.007812 37.144531 11.628907-6.714843v13.425781zm0 0" fill="#fff"/><path d="m272.746094 23.714844 11.628906-6.714844v13.429688zm0 0" fill="#fff"/><path d="m249.488281 50.570312 11.628907-6.714843v13.429687zm0 0" fill="#fff"/><path d="m284.375 17 11.632812-6.714844v13.429688zm0 0" fill="#fff"/><path d="m320.398438 80.640625h80.160156v-80.160156h-80.160156zm0 0" fill="#fff"/><path d="m364.375 43.855469-11.628906-6.710938v13.425781zm0 0" fill="#800080"/><path d="m387.636719 57.285156-11.628907-6.714844v13.429688zm0 0" fill="#800080"/><path d="m364.375 30.429688-11.628906-6.714844v13.429687zm0 0" fill="#800080"/><path d="m352.746094 50.570312-11.628906-6.714843v13.429687zm0 0" fill="#800080"/><path d="m376.007812 23.714844-11.632812-6.714844v13.429688zm0 0" fill="#800080"/><path d="m400.320312 80.640625h80.398438v-80.160156h-80.398438zm0 0" fill="#800080"/><path d="m432.746094 50.570312 11.628906-6.714843v13.429687zm0 0" fill="#fff"/><path d="m444.375 57.285156 11.632812-6.714844v13.429688zm0 0" fill="#fff"/><path d="m421.117188 57.285156 11.628906-6.714844v13.429688zm0 0" fill="#fff"/><path d="m456.007812 64 11.628907-6.714844v13.429688zm0 0" fill="#fff"/><path d="m456.007812 50.570312 11.628907-6.714843v13.429687zm0 0" fill="#fff"/><path d="m444.375 30.429688 11.632812-6.714844v13.429687zm0 0" fill="#fff"/><path d="m421.117188 30.429688 11.628906-6.714844v13.429687zm0 0" fill="#fff"/><path d="m409.488281 50.570312 11.628907-6.714843v13.429687zm0 0" fill="#fff"/><path d="m444.375 17 11.632812-6.714844v13.429688zm0 0" fill="#fff"/><path d="m480.480469 80.640625h80.160156v-80.160156h-80.160156zm0 0" fill="#fff"/><path d="m536.007812 50.570312-11.632812-6.714843v13.429687zm0 0" fill="#800080"/><path d="m524.375 57.285156-11.628906-6.714844v13.429688zm0 0" fill="#800080"/><path d="m547.636719 57.285156-11.628907-6.714844v13.429688zm0 0" fill="#800080"/><path d="m512.746094 50.570312-11.628906-6.714843v13.429687zm0 0" fill="#800080"/><path d="m536.007812 23.714844-11.632812-6.714844v13.429688zm0 0" fill="#800080"/><path d="m0 0h561v1h-561zm0 0"/><path d="m0 80h561v1h-561zm0 0"/><path d="m1 1v79h-1v-79zm0 0"/><path d="m561 1v79h-1v-79zm0 0"/></g></svg>