<svg height="219pt" viewBox="0 0 360 219" width="360pt" xmlns="http://www.w3.org/2000/svg" xmlns:xlink="http://www.w3.org/1999/xlink"><clipPath id="a"><path d="m17.28125 132.480469h325.4375v81.597656h-325.4375zm0 0"/></clipPath><g clip-path="url(#a)"><path d="m89.929688 193.457031.097656.085938.09375.089843.191406.171876.382812.347656.765626.691406 1.53125 1.355469 3.066406 2.613281 6.640625 5.144531.195312.140625.191407.136719.390624.273437.773438.535157 1.550781 1.035156.195313.125.191406.125.386719.25.777343.484375 1.550782.933594.09375.054687.09375.058594.191406.109375.378906.214844.761719.425781 1.519531.808594.09375.050781.097656.046875.1875.097656.382813.191407.757813.371093 1.519531.695313.105469.046875.101562.046875.207031.085937.410157.175781.824218.339844.105469.039063.101563.042969.207031.082031.414062.15625.824219.304687.101562.035156.101563.039063.621094.210937.824219.269532 1.648437.484375.09375.023437.097656.027344.191407.050781.386718.097657.769532.183593.09375.023438.097656.023437.191406.042969.386719.082031.769531.152344.09375.019531.097656.015625.191406.035156.386719.066407.09375.015625.097657.015625.191406.03125.386718.058593.09375.015626.097657.011718.191406.027344.386719.050781.09375.011719.097656.011719.191406.023437.386719.042969.101563.011719.105468.007812.207032.019532.105468.011718.105469.007813.207031.019531.210938.015625.207031.015625.105469.007812.101562.007813.210938.011719.101562.003906.105469.007812.105469.003907.101562.007812.210938.007813.207031.007812.105469.003906.101562.003907.105469.003906h.105469l.105468.003906h.101563l.105469.003907h.105468l.101563.003906h.730469l.105468-.003906h.207032l.105468-.003907.101563-.003906h.105469l.210937-.007813.101563-.003906.210937-.007812.101563-.003906.210937-.007813.207031-.011719.105469-.007812.101563-.003906.210937-.015626.414063-.03125.105468-.007812.304688-.023438.410156-.039062.203125-.023438.207031-.023437.410157-.046875.101562-.011719.101563-.015625.203125-.027344.410156-.054687.820313-.128906.101562-.019531.101562-.015626.207032-.035156.40625-.078125.820312-.164062.101563-.023438.101562-.019531.207031-.046875.410157-.09375.816406-.199219.097656-.023437.09375-.027344.574219-.152344.761719-.21875 1.527343-.484375.09375-.03125.097657-.035156.574219-.199219.761718-.28125 1.527344-.601562.105469-.042969.101562-.042969.207031-.089843.414063-.175782.828125-.371094 1.65625-.789062.101562-.050781.105469-.050781.621094-.316407.828125-.433593 1.65625-.917969.097656-.058594.09375-.054687.195313-.109376.386719-.226562.773437-.464844 1.542969-.964844 3.09375-2.082031 6.0625-4.609375 6.578125-5.667968 6.136719-5.757813 6.65625-6.554687 6.53125-6.550782 6.089843-6.023437 6.605469-6.238281 6.167969-5.378907.105469-.085937.101562-.085938.210938-.171875.417968-.339843.835938-.675782 1.667968-1.3125 3.34375-2.476562.203126-.148438.207031-.144531.410156-.285156.816406-.5625 1.640625-1.082031.105469-.066407.101563-.066406.203124-.128906.410157-.257813.820312-.507812 1.640625-.96875.097656-.050782.09375-.054687.191407-.109375.382812-.214844.765625-.417968 1.527344-.792969.097656-.046875.09375-.046875.574219-.28125.765625-.359375 1.53125-.679688.101562-.046875.105469-.042969.207031-.085937.414063-.167969.828125-.328125.210938-.078125.207031-.078125.414062-.152343.828125-.292969.105469-.035157.101563-.035156.207031-.070312.414062-.132813.832031-.257812 1.65625-.457031.390626-.09375.386718-.09375.773438-.171876.097656-.019531.09375-.019531.195312-.039062.386719-.078126.773438-.140624.390625-.0625.386718-.058594.09375-.015625.097657-.015625.195312-.027344.386719-.050781.097656-.011719.09375-.011719.195313-.023437.386719-.042969.097656-.011719.097656-.007812.191406-.019532.386719-.035156.097656-.007812.09375-.007813.191407-.015625.1875-.015625.191406-.011719.09375-.003906.09375-.007812.191406-.011719.09375-.003906.097656-.003907.28125-.011718.097656-.003906.1875-.007813.097657-.003906.09375-.003907h.09375l.09375-.003906h.097656l.09375-.003906h.09375l.097656-.003906h.851563l.097656.003906h.1875l.097656.003906h.09375l.1875.007813.097656.003906h.09375l.191407.007813.1875.007812.191406.011719.1875.007812.191406.011719.09375.003906.097657.007813.1875.011719.378906.03125.105468.007812.101563.007812.207031.019532.410156.039062.101563.011719.105469.011719.207031.023437.410156.050781.101563.011719.105468.015625.203126.027344.414062.058594.824219.132812.101562.015625.101563.019531.207031.035157.414063.078125.820312.167968.105469.023438.101562.023438.207031.046874.410157.09375.824219.207032.097656.023437.09375.027344.191406.050781.386719.105469.769531.222656 1.535156.496094.097656.03125.09375.035156.191407.066407.386719.136718.769531.285156 1.535156.613282.105469.046875.101562.042969.210938.089843.414062.179688.835938.375 1.664062.800781.105469.054688.3125.15625.414063.214843.835937.441407 1.664063.933593.101562.058594.105469.058594.203125.121093.410156.242188.816406.496094 1.636719 1.035156 3.269531 2.234375 6.101563 4.707031 6.617187 5.761719 6.179688 5.832031 6.054687 5.980469 6.570313 6.589844 6.132812 6.058593 6.644532 6.265626 6.207031 5.386718 6.085937 4.695313.101563.074219.105469.074218.203124.144532.414063.292968.824219.570313 1.652344 1.101562.203124.132813.207032.132812.414062.261719.824219.515625 1.648437.984375.195313.109375.191406.109375.386719.21875.769531.425781 1.539063.808594.097656.046875.09375.050781.191406.09375.386719.191406.769531.367188 1.539063.695312.105469.042969.105468.046875.207032.085938.417968.175781.835938.332031.101562.042969.105469.039063.207031.078124.417969.15625.835937.300782.101563.035156.316406.105469.414063.136719.835937.261718 1.667969.472656.101562.023438.105469.027344.203125.050781.410156.101563.820313.183593.101563.023438.101562.019531.203125.042969.410156.082031.820313.148438.101562.019531.101563.015625.207031.035156.410156.0625.101563.015625.101562.011719.207031.03125.40625.054687.105469.011719.304688.035156.410156.046875.101563.007813.105468.011718.203125.019532.410157.035156.09375.007812.097656.007813.191406.015625.09375.003906.097656.007813.191406.011719.09375.007812.09375.003906.191407.011719.097656.003906.09375.003907.191406.007812.097657.003906.09375.003906h.097656l.1875.007813.097656.003906h.09375l.097656.003907h.191406l.09375.003906h.765626l.09375-.003906h.191406l.097656-.003907.09375-.003906h.09375l.097656-.003906.09375-.003907h.097656l.09375-.003906.097657-.003906.191406-.007812.09375-.003907.097656-.007812.1875-.007813.097657-.003906.09375-.007812.191406-.011719.097656-.007813.09375-.003906.574219-.046875.101562-.007813.105469-.011718.207031-.019532.414063-.042968.105468-.011719.101563-.011719.207031-.023437.414063-.050781.105469-.015626.101562-.015624.207031-.027344.414063-.0625.828125-.136719.105469-.019531.101562-.019532.621094-.117187.832031-.175781.101563-.023438.105468-.023437.207032-.046875.414062-.097656.828125-.210938.097656-.027344.09375-.027344.195313-.050781.386718-.109375.773438-.230468 1.546875-.507813.097656-.03125.09375-.035156.195313-.070313.386718-.140625.773438-.289062 1.546875-.628907.09375-.042968.097656-.039063.1875-.082031.378907-.167969.757812-.34375 1.519531-.730469.09375-.050781.09375-.046875.191407-.09375.378906-.195312.757812-.402344 1.515625-.839844.105469-.058594.101562-.058593.207032-.117188.410156-.242187.820312-.492188 1.648438-1.027344 3.289062-2.230468.097657-.066406.09375-.070313.195312-.136719.382813-.277344.765625-.5625 1.535156-1.15625 3.074219-2.4375.105468-.089843.105469-.085938.214844-.175781.429687-.355469.855469-.71875 1.714844-1.472656.109375-.09375.105469-.09375.644531-.5625.855469-.761719.105469-.09375.109374-.097656.214844-.191406.425782-.386719.109374-.097656.105469-.09375.214844-.195313.109375-.097656.210938-.195312.109374-.097657" fill="none" stroke="#000" stroke-linecap="square" stroke-miterlimit="3.25" stroke-width="3" transform="translate(-66 -5)"/></g><path d="m180 3.542969-18.421875 10.636719v21.269531l18.421875 10.636719 18.421875-10.636719v-21.269531zm0 0" fill-rule="evenodd"/><path d="m180 4.363281-17.710938 10.226563v20.449218l17.710938 10.226563 17.710938-10.226563v-20.449218zm0 0" fill="#fff" fill-rule="evenodd"/><path d="m180 75.132812-18.421875 10.632813v21.273437l18.421875 10.632813 18.421875-10.632813v-21.273437zm0 0" fill-rule="evenodd"/><path d="m180 75.949219-17.710938 10.226562v20.453125l17.710938 10.226563 17.710938-10.226563v-20.453125zm0 0" fill="#800080" fill-rule="evenodd"/><path d="m272.78125 99.191406c10.21875-8.152344 16.171875-20.511718 16.171875-33.582031 0-13.074219-5.953125-25.433594-16.171875-33.582031" fill="none" stroke="#000" stroke-linecap="square" stroke-miterlimit="3.25" transform="translate(-66 -5)"/><path d="m270.761719 30.414062 1.632812 4.167969 2.789063-3.5zm0 0" fill="#fff" fill-rule="evenodd" stroke="#000" stroke-linecap="square" stroke-miterlimit="3.25" transform="translate(-66 -5)"/><path d="m219.21875 32.027344c-10.21875 8.148437-16.171875 20.507812-16.171875 33.582031 0 13.070313 5.953125 25.429687 16.171875 33.582031" fill="none" stroke="#000" stroke-linecap="square" stroke-miterlimit="3.25" transform="translate(-66 -5)"/><g fill-rule="evenodd"><path d="m221.238281 100.800781-1.632812-4.164062-2.789063 3.496093zm0 0" fill="#fff" stroke="#000" stroke-linecap="square" stroke-miterlimit="3.25" transform="translate(-66 -5)"/><path d="m65.417969 139.664062-22.054688 12.734376v25.46875l22.054688 12.734374 22.058593-12.734374v-25.46875zm0 0"/><path d="m65.417969 140.644531-21.207031 12.242188v24.492187l21.207031 12.242188 21.210937-12.242188v-24.492187zm0 0" fill="#fff"/><path d="m65.417969 165.132812 7.070312-4.082031v8.164063zm0 0" fill="#800080"/><path d="m58.347656 161.050781 7.070313-4.082031v8.164062zm0 0" fill="#800080"/><path d="m58.347656 169.214844 7.070313-4.082032v8.164063zm0 0" fill="#800080"/><path d="m65.417969 173.296875 7.070312-4.082031v8.164062zm0 0" fill="#800080"/><path d="m72.488281 169.214844 7.070313-4.082032v8.164063zm0 0" fill="#800080"/><path d="m72.488281 161.050781 7.070313-4.082031v8.164062zm0 0" fill="#800080"/><path d="m65.417969 156.96875 7.070312-4.082031v8.164062zm0 0" fill="#800080"/><path d="m58.347656 152.886719 7.070313-4.082031v8.164062zm0 0" fill="#800080"/><path d="m51.28125 156.96875 7.066406-4.082031v8.164062zm0 0" fill="#800080"/><path d="m51.28125 165.132812 7.066406-4.082031v8.164063zm0 0" fill="#800080"/><path d="m51.28125 173.296875 7.066406-4.082031v8.164062zm0 0" fill="#800080"/><path d="m58.347656 177.378906 7.070313-4.082031v8.164063zm0 0" fill="#800080"/><path d="m65.417969 181.460938 7.070312-4.082032v8.164063zm0 0" fill="#800080"/><path d="m72.488281 177.378906 7.070313-4.082031v8.164063zm0 0" fill="#800080"/><path d="m79.558594 173.296875 7.070312-4.082031v8.164062zm0 0" fill="#800080"/><path d="m79.558594 165.132812 7.070312-4.082031v8.164063zm0 0" fill="#800080"/><path d="m79.558594 156.96875 7.070312-4.082031v8.164062zm0 0" fill="#800080"/><path d="m72.488281 152.886719 7.070313-4.082031v8.164062zm0 0" fill="#800080"/><path d="m65.417969 148.804688 7.070312-4.082032v8.164063zm0 0" fill="#800080"/><path d="m58.347656 144.722656 7.070313-4.078125v8.160157zm0 0" fill="#800080"/><path d="m51.28125 148.804688 7.066406-4.082032v8.164063zm0 0" fill="#800080"/><path d="m44.210938 152.886719 7.070312-4.082031v8.164062zm0 0" fill="#800080"/><path d="m44.210938 161.050781 7.070312-4.082031v8.164062zm0 0" fill="#800080"/><path d="m44.210938 169.214844 7.070312-4.082032v8.164063zm0 0" fill="#800080"/><path d="m44.210938 177.378906 7.070312-4.082031v8.164063zm0 0" fill="#800080"/><path d="m51.28125 181.460938 7.066406-4.082032v8.164063zm0 0" fill="#800080"/><path d="m58.347656 185.542969 7.070313-4.082031v8.160156zm0 0" fill="#800080"/><path d="m294.582031 139.664062-22.058593 12.734376v25.46875l22.058593 12.734374 22.054688-12.734374v-25.46875zm0 0"/><path d="m294.582031 140.644531-21.210937 12.242188v24.492187l21.210937 12.242188 21.207031-12.242188v-24.492187zm0 0" fill="#fff"/><path d="m301.652344 169.214844-7.070313-4.082032v8.164063zm0 0" fill="#800080"/><path d="m301.652344 161.050781-7.070313-4.082031v8.164062zm0 0" fill="#800080"/><path d="m294.582031 165.132812-7.070312-4.082031v8.164063zm0 0" fill="#800080"/><path d="m301.652344 177.378906-7.070313-4.082031v8.164063zm0 0" fill="#800080"/><path d="m308.71875 173.296875-7.066406-4.082031v8.164062zm0 0" fill="#800080"/><path d="m308.71875 165.132812-7.066406-4.082031v8.164063zm0 0" fill="#800080"/><path d="m308.71875 156.96875-7.066406-4.082031v8.164062zm0 0" fill="#800080"/><path d="m301.652344 152.886719-7.070313-4.082031v8.164062zm0 0" fill="#800080"/><path d="m294.582031 156.96875-7.070312-4.082031v8.164062zm0 0" fill="#800080"/><path d="m287.511719 161.050781-7.070313-4.082031v8.164062zm0 0" fill="#800080"/><path d="m287.511719 169.214844-7.070313-4.082032v8.164063zm0 0" fill="#800080"/><path d="m294.582031 173.296875-7.070312-4.082031v8.164062zm0 0" fill="#800080"/><path d="m301.652344 185.542969-7.070313-4.082031v8.160156zm0 0" fill="#800080"/><path d="m308.71875 181.460938-7.066406-4.082032v8.164063zm0 0" fill="#800080"/><path d="m315.789062 177.378906-7.070312-4.082031v8.164063zm0 0" fill="#800080"/><path d="m315.789062 169.214844-7.070312-4.082032v8.164063zm0 0" fill="#800080"/><path d="m315.789062 161.050781-7.070312-4.082031v8.164062zm0 0" fill="#800080"/><path d="m315.789062 152.886719-7.070312-4.082031v8.164062zm0 0" fill="#800080"/><path d="m308.71875 148.804688-7.066406-4.082032v8.164063zm0 0" fill="#800080"/><path d="m301.652344 144.722656-7.070313-4.078125v8.160157zm0 0" fill="#800080"/><path d="m294.582031 148.804688-7.070312-4.082032v8.164063zm0 0" fill="#800080"/><path d="m287.511719 152.886719-7.070313-4.082031v8.164062zm0 0" fill="#800080"/><path d="m280.441406 156.96875-7.070312-4.082031v8.164062zm0 0" fill="#800080"/><path d="m280.441406 165.132812-7.070312-4.082031v8.164063zm0 0" fill="#800080"/><path d="m280.441406 173.296875-7.070312-4.082031v8.164062zm0 0" fill="#800080"/><path d="m287.511719 177.378906-7.070313-4.082031v8.164063zm0 0" fill="#800080"/><path d="m294.582031 181.460938-7.070312-4.082032v8.164063zm0 0" fill="#800080"/><path d="m185.417969 129.910156c0 1.4375-.570313 2.8125-1.585938 3.832032-1.015625 1.015624-2.394531 1.585937-3.832031 1.585937s-2.816406-.570313-3.832031-1.585937c-1.015625-1.019532-1.585938-2.394532-1.585938-3.832032s.570313-2.816406 1.585938-3.832031 2.394531-1.589844 3.832031-1.589844 2.816406.574219 3.832031 1.589844 1.585938 2.394531 1.585938 3.832031zm0 0"/><path d="m70.839844 203.066406c0 1.4375-.574219 2.816406-1.589844 3.832032-1.015625 1.015624-2.394531 1.585937-3.832031 1.585937s-2.816407-.570313-3.832031-1.585937c-1.015626-1.015626-1.585938-2.394532-1.585938-3.832032s.570312-2.816406 1.585938-3.832031c1.015624-1.015625 2.394531-1.585937 3.832031-1.585937s2.816406.570312 3.832031 1.585937 1.589844 2.394531 1.589844 3.832031zm0 0"/><path d="m300 203.066406c0 1.4375-.570312 2.816406-1.585938 3.832032-1.015624 1.015624-2.394531 1.585937-3.832031 1.585937s-2.816406-.570313-3.832031-1.585937c-1.015625-1.015626-1.589844-2.394532-1.589844-3.832032s.574219-2.816406 1.589844-3.832031 2.394531-1.585937 3.832031-1.585937 2.816407.570312 3.832031 1.585937c1.015626 1.015625 1.585938 2.394531 1.585938 3.832031zm0 0"/></g></svg>