<?xml version="1.0" encoding="UTF-8"?>
<svg xmlns="http://www.w3.org/2000/svg" xmlns:xlink="http://www.w3.org/1999/xlink" width="360pt" height="216pt" viewBox="0 0 360 216" version="1.1">
<defs>
<clipPath id="clip1">
  <path d="M 15.839844 127.441406 L 344.160156 127.441406 L 344.160156 209.519531 L 15.839844 209.519531 Z M 15.839844 127.441406 "/>
</clipPath>
</defs>
<g id="surface1">
<g clip-path="url(#clip1)" clip-rule="nonzero">
<path style="fill:none;stroke-width:3;stroke-linecap:square;stroke-linejoin:miter;stroke:rgb(0%,0%,0%);stroke-opacity:1;stroke-miterlimit:3.25;" d="M 88.507812 188.796875 L 88.605469 188.882812 L 88.699219 188.972656 L 88.894531 189.148438 L 89.28125 189.5 L 90.054688 190.195312 L 91.597656 191.5625 L 94.691406 194.199219 L 101.394531 199.394531 L 101.492188 199.464844 L 101.589844 199.53125 L 101.785156 199.671875 L 102.175781 199.945312 L 102.957031 200.488281 L 104.523438 201.53125 L 104.621094 201.597656 L 105.304688 202.035156 L 106.085938 202.527344 L 107.652344 203.46875 L 107.746094 203.523438 L 107.84375 203.582031 L 108.417969 203.910156 L 109.1875 204.339844 L 110.71875 205.15625 L 110.816406 205.207031 L 110.910156 205.253906 L 111.101562 205.351562 L 111.488281 205.542969 L 112.253906 205.917969 L 113.789062 206.625 L 113.890625 206.667969 L 113.996094 206.714844 L 114.203125 206.804688 L 114.621094 206.980469 L 115.453125 207.324219 L 115.554688 207.363281 L 115.660156 207.40625 L 115.867188 207.488281 L 116.285156 207.648438 L 117.117188 207.953125 L 117.21875 207.992188 L 117.324219 208.027344 L 117.53125 208.101562 L 117.949219 208.242188 L 118.78125 208.511719 L 120.445312 209 L 120.539062 209.027344 L 120.636719 209.054688 L 120.832031 209.105469 L 121.21875 209.203125 L 121.996094 209.390625 L 122.09375 209.414062 L 122.191406 209.433594 L 122.386719 209.476562 L 122.773438 209.5625 L 123.550781 209.714844 L 123.648438 209.734375 L 123.742188 209.753906 L 123.9375 209.789062 L 124.324219 209.855469 L 124.714844 209.917969 L 125.101562 209.976562 L 125.199219 209.992188 L 125.296875 210.003906 L 125.492188 210.03125 L 125.878906 210.082031 L 126.074219 210.105469 L 126.265625 210.128906 L 126.65625 210.171875 L 126.867188 210.195312 L 127.074219 210.214844 L 127.179688 210.222656 L 127.285156 210.234375 L 127.601562 210.257812 L 127.707031 210.269531 L 127.917969 210.285156 L 128.023438 210.289062 L 128.339844 210.3125 L 128.445312 210.316406 L 128.546875 210.324219 L 128.757812 210.332031 L 128.863281 210.339844 L 129.390625 210.359375 L 129.496094 210.359375 L 129.707031 210.367188 L 129.8125 210.367188 L 129.914062 210.371094 L 130.125 210.371094 L 130.230469 210.375 L 130.757812 210.375 L 130.863281 210.371094 L 131.074219 210.371094 L 131.179688 210.367188 L 131.285156 210.367188 L 131.386719 210.363281 L 131.492188 210.363281 L 132.230469 210.335938 L 132.335938 210.328125 L 132.546875 210.316406 L 132.652344 210.3125 L 132.757812 210.304688 L 132.964844 210.292969 L 133.492188 210.253906 L 133.59375 210.246094 L 134.214844 210.1875 L 134.417969 210.164062 L 134.625 210.144531 L 135.039062 210.09375 L 135.144531 210.082031 L 135.246094 210.066406 L 135.453125 210.042969 L 135.867188 209.984375 L 136.691406 209.851562 L 136.792969 209.835938 L 136.898438 209.816406 L 137.105469 209.78125 L 137.519531 209.707031 L 138.34375 209.539062 L 138.445312 209.515625 L 138.550781 209.496094 L 139.171875 209.355469 L 139.996094 209.152344 L 140.09375 209.125 L 140.1875 209.101562 L 140.382812 209.050781 L 140.765625 208.945312 L 141.539062 208.726562 L 143.078125 208.238281 L 143.175781 208.203125 L 143.269531 208.171875 L 143.464844 208.105469 L 143.847656 207.96875 L 144.621094 207.6875 L 146.160156 207.078125 L 146.371094 206.992188 L 146.578125 206.902344 L 146.996094 206.722656 L 147.832031 206.351562 L 149.503906 205.554688 L 149.609375 205.503906 L 149.710938 205.449219 L 149.921875 205.34375 L 150.339844 205.132812 L 151.175781 204.691406 L 152.847656 203.765625 L 152.941406 203.710938 L 153.039062 203.65625 L 153.234375 203.542969 L 153.625 203.3125 L 154.40625 202.84375 L 155.964844 201.871094 L 159.085938 199.769531 L 165.203125 195.117188 L 171.84375 189.398438 L 178.035156 183.589844 L 184.75 176.972656 L 191.339844 170.367188 L 197.488281 164.289062 L 204.15625 157.988281 L 210.378906 152.566406 L 210.484375 152.476562 L 210.800781 152.21875 L 211.21875 151.871094 L 212.0625 151.191406 L 213.75 149.867188 L 217.121094 147.367188 L 217.222656 147.292969 L 217.328125 147.21875 L 217.949219 146.785156 L 218.777344 146.21875 L 220.429688 145.125 L 220.535156 145.058594 L 220.636719 144.992188 L 220.84375 144.859375 L 221.257812 144.597656 L 222.085938 144.089844 L 223.742188 143.113281 L 223.835938 143.058594 L 223.933594 143.003906 L 224.125 142.894531 L 224.511719 142.679688 L 225.285156 142.257812 L 226.828125 141.457031 L 226.925781 141.410156 L 227.019531 141.359375 L 227.214844 141.265625 L 227.601562 141.078125 L 228.371094 140.714844 L 229.917969 140.027344 L 230.019531 139.984375 L 230.125 139.9375 L 230.335938 139.851562 L 230.753906 139.679688 L 231.589844 139.351562 L 231.695312 139.308594 L 231.800781 139.269531 L 232.007812 139.191406 L 232.425781 139.039062 L 233.265625 138.742188 L 233.367188 138.707031 L 233.683594 138.601562 L 234.101562 138.46875 L 234.9375 138.207031 L 236.613281 137.746094 L 236.808594 137.699219 L 237.003906 137.648438 L 237.394531 137.558594 L 238.175781 137.382812 L 238.371094 137.34375 L 238.566406 137.300781 L 238.957031 137.226562 L 239.738281 137.085938 L 239.835938 137.066406 L 240.128906 137.019531 L 240.519531 136.960938 L 240.714844 136.929688 L 240.910156 136.902344 L 241.300781 136.851562 L 242.082031 136.757812 L 242.179688 136.75 L 242.277344 136.738281 L 242.472656 136.71875 L 242.863281 136.683594 L 242.960938 136.675781 L 243.054688 136.667969 L 243.246094 136.652344 L 243.34375 136.648438 L 243.4375 136.640625 L 243.628906 136.625 L 243.726562 136.621094 L 243.820312 136.613281 L 244.011719 136.605469 L 244.109375 136.597656 L 244.203125 136.59375 L 244.394531 136.585938 L 244.492188 136.582031 L 244.585938 136.578125 L 244.683594 136.574219 L 244.777344 136.570312 L 244.875 136.566406 L 244.972656 136.566406 L 245.066406 136.5625 L 245.164062 136.558594 L 245.257812 136.558594 L 245.355469 136.554688 L 245.546875 136.554688 L 245.640625 136.550781 L 246.40625 136.550781 L 246.503906 136.554688 L 246.597656 136.554688 L 246.695312 136.558594 L 246.789062 136.558594 L 246.886719 136.5625 L 246.980469 136.5625 L 247.078125 136.566406 L 247.171875 136.570312 L 247.269531 136.570312 L 247.460938 136.578125 L 247.554688 136.582031 L 247.652344 136.585938 L 247.84375 136.597656 L 247.941406 136.601562 L 248.035156 136.605469 L 248.226562 136.617188 L 248.324219 136.625 L 248.417969 136.628906 L 248.609375 136.644531 L 248.992188 136.671875 L 249.097656 136.679688 L 249.199219 136.691406 L 249.410156 136.707031 L 249.824219 136.75 L 249.929688 136.761719 L 250.03125 136.773438 L 250.238281 136.796875 L 250.65625 136.847656 L 250.757812 136.859375 L 250.863281 136.871094 L 251.070312 136.902344 L 251.488281 136.960938 L 252.316406 137.09375 L 252.421875 137.113281 L 252.523438 137.128906 L 252.734375 137.167969 L 253.148438 137.246094 L 253.980469 137.417969 L 254.082031 137.4375 L 254.1875 137.460938 L 254.394531 137.507812 L 254.8125 137.605469 L 255.640625 137.8125 L 255.738281 137.839844 L 255.835938 137.863281 L 256.03125 137.914062 L 256.417969 138.023438 L 257.191406 138.246094 L 258.746094 138.746094 L 258.839844 138.78125 L 258.9375 138.8125 L 259.132812 138.878906 L 259.519531 139.019531 L 260.296875 139.304688 L 261.847656 139.925781 L 261.953125 139.972656 L 262.058594 140.015625 L 262.265625 140.105469 L 262.6875 140.289062 L 263.527344 140.667969 L 265.210938 141.476562 L 265.3125 141.527344 L 265.417969 141.582031 L 265.628906 141.6875 L 266.050781 141.90625 L 266.890625 142.351562 L 268.570312 143.292969 L 268.675781 143.351562 L 268.777344 143.410156 L 268.984375 143.53125 L 269.398438 143.777344 L 270.222656 144.277344 L 271.871094 145.320312 L 275.175781 147.574219 L 281.332031 152.324219 L 288.011719 158.140625 L 294.242188 164.027344 L 300.355469 170.0625 L 306.984375 176.710938 L 313.171875 182.824219 L 319.878906 189.144531 L 326.144531 194.582031 L 332.28125 199.324219 L 332.492188 199.472656 L 332.699219 199.617188 L 333.113281 199.910156 L 333.949219 200.488281 L 335.71875 201.667969 L 335.820312 201.734375 L 336.027344 201.867188 L 336.445312 202.132812 L 337.277344 202.652344 L 338.941406 203.644531 L 339.039062 203.699219 L 339.136719 203.757812 L 339.332031 203.867188 L 339.71875 204.085938 L 340.496094 204.515625 L 342.050781 205.332031 L 342.148438 205.378906 L 342.246094 205.429688 L 342.4375 205.527344 L 342.828125 205.71875 L 343.605469 206.089844 L 345.160156 206.789062 L 345.265625 206.835938 L 345.371094 206.878906 L 345.578125 206.96875 L 346 207.144531 L 346.84375 207.480469 L 346.949219 207.523438 L 347.054688 207.5625 L 347.265625 207.644531 L 347.683594 207.800781 L 348.527344 208.101562 L 348.632812 208.136719 L 348.738281 208.175781 L 348.949219 208.246094 L 349.367188 208.386719 L 350.210938 208.648438 L 351.894531 209.125 L 352 209.148438 L 352.101562 209.175781 L 352.722656 209.328125 L 353.546875 209.515625 L 353.652344 209.539062 L 353.753906 209.558594 L 353.960938 209.601562 L 354.375 209.683594 L 355.203125 209.835938 L 355.304688 209.851562 L 355.40625 209.871094 L 355.613281 209.902344 L 356.027344 209.96875 L 356.132812 209.984375 L 356.234375 209.996094 L 356.441406 210.027344 L 356.855469 210.082031 L 356.957031 210.09375 L 357.0625 210.105469 L 357.269531 210.132812 L 357.679688 210.175781 L 357.785156 210.1875 L 357.886719 210.195312 L 358.09375 210.21875 L 358.507812 210.253906 L 358.605469 210.261719 L 358.699219 210.269531 L 358.894531 210.28125 L 358.988281 210.289062 L 359.085938 210.296875 L 359.277344 210.308594 L 359.375 210.3125 L 359.472656 210.320312 L 359.664062 210.328125 L 359.761719 210.332031 L 359.855469 210.339844 L 360.148438 210.351562 L 360.242188 210.351562 L 360.4375 210.359375 L 360.53125 210.363281 L 360.628906 210.363281 L 360.726562 210.367188 L 360.820312 210.367188 L 360.917969 210.371094 L 361.109375 210.371094 L 361.207031 210.375 L 361.785156 210.375 L 361.882812 210.371094 L 362.074219 210.371094 L 362.171875 210.367188 L 362.265625 210.367188 L 362.363281 210.363281 L 362.460938 210.363281 L 362.554688 210.359375 L 362.75 210.351562 L 362.84375 210.351562 L 362.941406 210.347656 L 363.132812 210.339844 L 363.230469 210.332031 L 363.328125 210.328125 L 363.519531 210.320312 L 363.617188 210.3125 L 363.714844 210.308594 L 363.90625 210.296875 L 364.003906 210.289062 L 364.097656 210.28125 L 364.292969 210.269531 L 364.675781 210.238281 L 364.78125 210.226562 L 364.886719 210.21875 L 365.09375 210.199219 L 365.511719 210.15625 L 365.722656 210.132812 L 365.929688 210.105469 L 366.347656 210.054688 L 366.558594 210.023438 L 366.765625 209.996094 L 367.183594 209.933594 L 368.023438 209.792969 L 368.125 209.777344 L 368.441406 209.71875 L 368.859375 209.636719 L 369.695312 209.460938 L 369.796875 209.4375 L 369.902344 209.414062 L 370.113281 209.363281 L 370.53125 209.265625 L 371.367188 209.050781 L 371.464844 209.027344 L 372.148438 208.835938 L 372.925781 208.605469 L 374.488281 208.09375 L 374.683594 208.023438 L 374.878906 207.957031 L 375.269531 207.8125 L 376.050781 207.519531 L 377.609375 206.882812 L 377.707031 206.84375 L 377.800781 206.800781 L 377.992188 206.71875 L 378.375 206.550781 L 379.140625 206.203125 L 380.671875 205.464844 L 380.769531 205.417969 L 380.863281 205.367188 L 381.054688 205.273438 L 381.4375 205.074219 L 382.203125 204.671875 L 383.734375 203.824219 L 383.835938 203.765625 L 383.941406 203.707031 L 384.5625 203.34375 L 385.394531 202.84375 L 387.054688 201.808594 L 390.375 199.558594 L 390.472656 199.488281 L 390.570312 199.421875 L 390.761719 199.28125 L 391.148438 199.003906 L 391.925781 198.433594 L 393.472656 197.265625 L 396.574219 194.808594 L 396.679688 194.71875 L 396.789062 194.628906 L 397.003906 194.453125 L 397.4375 194.09375 L 398.304688 193.367188 L 400.03125 191.882812 L 400.25 191.695312 L 400.464844 191.507812 L 400.898438 191.125 L 401.761719 190.359375 L 401.980469 190.164062 L 402.195312 189.972656 L 402.628906 189.582031 L 402.734375 189.484375 L 402.84375 189.386719 L 403.058594 189.191406 L 403.167969 189.09375 L 403.277344 188.992188 L 403.382812 188.894531 L 403.492188 188.796875 " transform="matrix(1,0,0,1,-66,-5)"/>
</g>
<path style=" stroke:none;fill-rule:evenodd;fill:rgb(0%,0%,0%);fill-opacity:1;" d="M 180 3.757812 L 161.40625 14.492188 L 161.40625 35.964844 L 180 46.699219 L 198.59375 35.964844 L 198.59375 14.492188 Z M 180 3.757812 "/>
<path style=" stroke:none;fill-rule:evenodd;fill:rgb(100%,100%,100%);fill-opacity:1;" d="M 180 4.582031 L 162.121094 14.90625 L 162.121094 35.550781 L 180 45.875 L 197.878906 35.550781 L 197.878906 14.90625 Z M 180 4.582031 "/>
<path style=" stroke:none;fill-rule:evenodd;fill:rgb(0%,0%,0%);fill-opacity:1;" d="M 180 76.003906 L 161.40625 86.738281 L 161.40625 108.210938 L 180 118.945312 L 198.59375 108.210938 L 198.59375 86.738281 Z M 180 76.003906 "/>
<path style=" stroke:none;fill-rule:evenodd;fill:rgb(50.000763%,0%,50.000763%);fill-opacity:1;" d="M 180 76.832031 L 162.121094 87.152344 L 162.121094 107.796875 L 180 118.121094 L 197.878906 107.796875 L 197.878906 87.152344 Z M 180 76.832031 "/>
<path style="fill:none;stroke-width:1;stroke-linecap:square;stroke-linejoin:miter;stroke:rgb(0%,0%,0%);stroke-opacity:1;stroke-miterlimit:3.25;" d="M 273.027344 100.242188 C 283.339844 92.015625 289.347656 79.542969 289.347656 66.351562 C 289.347656 53.160156 283.339844 40.6875 273.027344 32.460938 " transform="matrix(1,0,0,1,-66,-5)"/>
<path style="fill-rule:evenodd;fill:rgb(100%,100%,100%);fill-opacity:1;stroke-width:1;stroke-linecap:square;stroke-linejoin:miter;stroke:rgb(0%,0%,0%);stroke-opacity:1;stroke-miterlimit:3.25;" d="M 270.988281 30.835938 L 272.636719 35.039062 L 275.453125 31.507812 Z M 270.988281 30.835938 " transform="matrix(1,0,0,1,-66,-5)"/>
<path style="fill:none;stroke-width:1;stroke-linecap:square;stroke-linejoin:miter;stroke:rgb(0%,0%,0%);stroke-opacity:1;stroke-miterlimit:3.25;" d="M 218.972656 32.460938 C 208.660156 40.6875 202.652344 53.160156 202.652344 66.351562 C 202.652344 79.542969 208.660156 92.015625 218.972656 100.242188 " transform="matrix(1,0,0,1,-66,-5)"/>
<path style="fill-rule:evenodd;fill:rgb(100%,100%,100%);fill-opacity:1;stroke-width:1;stroke-linecap:square;stroke-linejoin:miter;stroke:rgb(0%,0%,0%);stroke-opacity:1;stroke-miterlimit:3.25;" d="M 221.011719 101.867188 L 219.363281 97.664062 L 216.546875 101.195312 Z M 221.011719 101.867188 " transform="matrix(1,0,0,1,-66,-5)"/>
<path style=" stroke:none;fill-rule:evenodd;fill:rgb(0%,0%,0%);fill-opacity:1;" d="M 65.46875 140.027344 L 43.210938 152.878906 L 43.210938 178.578125 L 65.46875 191.429688 L 87.726562 178.578125 L 87.726562 152.878906 Z M 65.46875 140.027344 "/>
<path style=" stroke:none;fill-rule:evenodd;fill:rgb(100%,100%,100%);fill-opacity:1;" d="M 65.46875 141.015625 L 44.066406 153.371094 L 44.066406 178.085938 L 65.46875 190.441406 L 86.871094 178.085938 L 86.871094 153.371094 Z M 65.46875 141.015625 "/>
<path style=" stroke:none;fill-rule:evenodd;fill:rgb(50.000763%,0%,50.000763%);fill-opacity:1;" d="M 65.46875 165.726562 L 72.601562 161.609375 L 72.601562 169.847656 Z M 65.46875 165.726562 "/>
<path style=" stroke:none;fill-rule:evenodd;fill:rgb(50.000763%,0%,50.000763%);fill-opacity:1;" d="M 58.335938 161.609375 L 65.46875 157.492188 L 65.46875 165.726562 Z M 58.335938 161.609375 "/>
<path style=" stroke:none;fill-rule:evenodd;fill:rgb(50.000763%,0%,50.000763%);fill-opacity:1;" d="M 58.335938 169.847656 L 65.46875 165.726562 L 65.46875 173.964844 Z M 58.335938 169.847656 "/>
<path style=" stroke:none;fill-rule:evenodd;fill:rgb(50.000763%,0%,50.000763%);fill-opacity:1;" d="M 65.46875 173.964844 L 72.601562 169.847656 L 72.601562 178.085938 Z M 65.46875 173.964844 "/>
<path style=" stroke:none;fill-rule:evenodd;fill:rgb(50.000763%,0%,50.000763%);fill-opacity:1;" d="M 72.601562 169.847656 L 79.738281 165.726562 L 79.738281 173.964844 Z M 72.601562 169.847656 "/>
<path style=" stroke:none;fill-rule:evenodd;fill:rgb(50.000763%,0%,50.000763%);fill-opacity:1;" d="M 72.601562 161.609375 L 79.738281 157.492188 L 79.738281 165.726562 Z M 72.601562 161.609375 "/>
<path style=" stroke:none;fill-rule:evenodd;fill:rgb(50.000763%,0%,50.000763%);fill-opacity:1;" d="M 65.46875 157.492188 L 72.601562 153.371094 L 72.601562 161.609375 Z M 65.46875 157.492188 "/>
<path style=" stroke:none;fill-rule:evenodd;fill:rgb(50.000763%,0%,50.000763%);fill-opacity:1;" d="M 58.335938 153.371094 L 65.46875 149.253906 L 65.46875 157.492188 Z M 58.335938 153.371094 "/>
<path style=" stroke:none;fill-rule:evenodd;fill:rgb(50.000763%,0%,50.000763%);fill-opacity:1;" d="M 51.199219 157.492188 L 58.335938 153.371094 L 58.335938 161.609375 Z M 51.199219 157.492188 "/>
<path style=" stroke:none;fill-rule:evenodd;fill:rgb(50.000763%,0%,50.000763%);fill-opacity:1;" d="M 51.199219 165.726562 L 58.335938 161.609375 L 58.335938 169.847656 Z M 51.199219 165.726562 "/>
<path style=" stroke:none;fill-rule:evenodd;fill:rgb(50.000763%,0%,50.000763%);fill-opacity:1;" d="M 51.199219 173.964844 L 58.335938 169.847656 L 58.335938 178.085938 Z M 51.199219 173.964844 "/>
<path style=" stroke:none;fill-rule:evenodd;fill:rgb(50.000763%,0%,50.000763%);fill-opacity:1;" d="M 58.335938 178.085938 L 65.46875 173.964844 L 65.46875 182.203125 Z M 58.335938 178.085938 "/>
<path style=" stroke:none;fill-rule:evenodd;fill:rgb(50.000763%,0%,50.000763%);fill-opacity:1;" d="M 65.46875 182.203125 L 72.601562 178.085938 L 72.601562 186.324219 Z M 65.46875 182.203125 "/>
<path style=" stroke:none;fill-rule:evenodd;fill:rgb(50.000763%,0%,50.000763%);fill-opacity:1;" d="M 72.601562 178.085938 L 79.738281 173.964844 L 79.738281 182.203125 Z M 72.601562 178.085938 "/>
<path style=" stroke:none;fill-rule:evenodd;fill:rgb(50.000763%,0%,50.000763%);fill-opacity:1;" d="M 79.738281 173.964844 L 86.871094 169.847656 L 86.871094 178.085938 Z M 79.738281 173.964844 "/>
<path style=" stroke:none;fill-rule:evenodd;fill:rgb(50.000763%,0%,50.000763%);fill-opacity:1;" d="M 79.738281 165.726562 L 86.871094 161.609375 L 86.871094 169.847656 Z M 79.738281 165.726562 "/>
<path style=" stroke:none;fill-rule:evenodd;fill:rgb(50.000763%,0%,50.000763%);fill-opacity:1;" d="M 79.738281 157.492188 L 86.871094 153.371094 L 86.871094 161.609375 Z M 79.738281 157.492188 "/>
<path style=" stroke:none;fill-rule:evenodd;fill:rgb(50.000763%,0%,50.000763%);fill-opacity:1;" d="M 72.601562 153.371094 L 79.738281 149.253906 L 79.738281 157.492188 Z M 72.601562 153.371094 "/>
<path style=" stroke:none;fill-rule:evenodd;fill:rgb(50.000763%,0%,50.000763%);fill-opacity:1;" d="M 65.46875 149.253906 L 72.601562 145.132812 L 72.601562 153.371094 Z M 65.46875 149.253906 "/>
<path style=" stroke:none;fill-rule:evenodd;fill:rgb(50.000763%,0%,50.000763%);fill-opacity:1;" d="M 58.335938 145.132812 L 65.46875 141.015625 L 65.46875 149.253906 Z M 58.335938 145.132812 "/>
<path style=" stroke:none;fill-rule:evenodd;fill:rgb(50.000763%,0%,50.000763%);fill-opacity:1;" d="M 51.199219 149.253906 L 58.335938 145.132812 L 58.335938 153.371094 Z M 51.199219 149.253906 "/>
<path style=" stroke:none;fill-rule:evenodd;fill:rgb(50.000763%,0%,50.000763%);fill-opacity:1;" d="M 44.066406 153.371094 L 51.199219 149.253906 L 51.199219 157.492188 Z M 44.066406 153.371094 "/>
<path style=" stroke:none;fill-rule:evenodd;fill:rgb(50.000763%,0%,50.000763%);fill-opacity:1;" d="M 44.066406 161.609375 L 51.199219 157.492188 L 51.199219 165.726562 Z M 44.066406 161.609375 "/>
<path style=" stroke:none;fill-rule:evenodd;fill:rgb(50.000763%,0%,50.000763%);fill-opacity:1;" d="M 44.066406 169.847656 L 51.199219 165.726562 L 51.199219 173.964844 Z M 44.066406 169.847656 "/>
<path style=" stroke:none;fill-rule:evenodd;fill:rgb(50.000763%,0%,50.000763%);fill-opacity:1;" d="M 44.066406 178.085938 L 51.199219 173.964844 L 51.199219 182.203125 Z M 44.066406 178.085938 "/>
<path style=" stroke:none;fill-rule:evenodd;fill:rgb(50.000763%,0%,50.000763%);fill-opacity:1;" d="M 51.199219 182.203125 L 58.335938 178.085938 L 58.335938 186.324219 Z M 51.199219 182.203125 "/>
<path style=" stroke:none;fill-rule:evenodd;fill:rgb(50.000763%,0%,50.000763%);fill-opacity:1;" d="M 58.335938 186.324219 L 65.46875 182.203125 L 65.46875 190.441406 Z M 58.335938 186.324219 "/>
<path style=" stroke:none;fill-rule:evenodd;fill:rgb(0%,0%,0%);fill-opacity:1;" d="M 294.53125 140.027344 L 272.273438 152.878906 L 272.273438 178.578125 L 294.53125 191.429688 L 316.789062 178.578125 L 316.789062 152.878906 Z M 294.53125 140.027344 "/>
<path style=" stroke:none;fill-rule:evenodd;fill:rgb(100%,100%,100%);fill-opacity:1;" d="M 294.53125 141.015625 L 273.128906 153.371094 L 273.128906 178.085938 L 294.53125 190.441406 L 315.933594 178.085938 L 315.933594 153.371094 Z M 294.53125 141.015625 "/>
<path style=" stroke:none;fill-rule:evenodd;fill:rgb(50.000763%,0%,50.000763%);fill-opacity:1;" d="M 301.664062 169.847656 L 294.53125 165.726562 L 294.53125 173.964844 Z M 301.664062 169.847656 "/>
<path style=" stroke:none;fill-rule:evenodd;fill:rgb(50.000763%,0%,50.000763%);fill-opacity:1;" d="M 301.664062 161.609375 L 294.53125 157.492188 L 294.53125 165.726562 Z M 301.664062 161.609375 "/>
<path style=" stroke:none;fill-rule:evenodd;fill:rgb(50.000763%,0%,50.000763%);fill-opacity:1;" d="M 294.53125 165.726562 L 287.398438 161.609375 L 287.398438 169.847656 Z M 294.53125 165.726562 "/>
<path style=" stroke:none;fill-rule:evenodd;fill:rgb(50.000763%,0%,50.000763%);fill-opacity:1;" d="M 301.664062 178.085938 L 294.53125 173.964844 L 294.53125 182.203125 Z M 301.664062 178.085938 "/>
<path style=" stroke:none;fill-rule:evenodd;fill:rgb(50.000763%,0%,50.000763%);fill-opacity:1;" d="M 308.800781 173.964844 L 301.664062 169.847656 L 301.664062 178.085938 Z M 308.800781 173.964844 "/>
<path style=" stroke:none;fill-rule:evenodd;fill:rgb(50.000763%,0%,50.000763%);fill-opacity:1;" d="M 308.800781 165.726562 L 301.664062 161.609375 L 301.664062 169.847656 Z M 308.800781 165.726562 "/>
<path style=" stroke:none;fill-rule:evenodd;fill:rgb(50.000763%,0%,50.000763%);fill-opacity:1;" d="M 308.800781 157.492188 L 301.664062 153.371094 L 301.664062 161.609375 Z M 308.800781 157.492188 "/>
<path style=" stroke:none;fill-rule:evenodd;fill:rgb(50.000763%,0%,50.000763%);fill-opacity:1;" d="M 301.664062 153.371094 L 294.53125 149.253906 L 294.53125 157.492188 Z M 301.664062 153.371094 "/>
<path style=" stroke:none;fill-rule:evenodd;fill:rgb(50.000763%,0%,50.000763%);fill-opacity:1;" d="M 294.53125 157.492188 L 287.398438 153.371094 L 287.398438 161.609375 Z M 294.53125 157.492188 "/>
<path style=" stroke:none;fill-rule:evenodd;fill:rgb(50.000763%,0%,50.000763%);fill-opacity:1;" d="M 287.398438 161.609375 L 280.261719 157.492188 L 280.261719 165.726562 Z M 287.398438 161.609375 "/>
<path style=" stroke:none;fill-rule:evenodd;fill:rgb(50.000763%,0%,50.000763%);fill-opacity:1;" d="M 287.398438 169.847656 L 280.261719 165.726562 L 280.261719 173.964844 Z M 287.398438 169.847656 "/>
<path style=" stroke:none;fill-rule:evenodd;fill:rgb(50.000763%,0%,50.000763%);fill-opacity:1;" d="M 294.53125 173.964844 L 287.398438 169.847656 L 287.398438 178.085938 Z M 294.53125 173.964844 "/>
<path style=" stroke:none;fill-rule:evenodd;fill:rgb(50.000763%,0%,50.000763%);fill-opacity:1;" d="M 301.664062 186.324219 L 294.53125 182.203125 L 294.53125 190.441406 Z M 301.664062 186.324219 "/>
<path style=" stroke:none;fill-rule:evenodd;fill:rgb(50.000763%,0%,50.000763%);fill-opacity:1;" d="M 308.800781 182.203125 L 301.664062 178.085938 L 301.664062 186.324219 Z M 308.800781 182.203125 "/>
<path style=" stroke:none;fill-rule:evenodd;fill:rgb(50.000763%,0%,50.000763%);fill-opacity:1;" d="M 315.933594 178.085938 L 308.800781 173.964844 L 308.800781 182.203125 Z M 315.933594 178.085938 "/>
<path style=" stroke:none;fill-rule:evenodd;fill:rgb(50.000763%,0%,50.000763%);fill-opacity:1;" d="M 315.933594 169.847656 L 308.800781 165.726562 L 308.800781 173.964844 Z M 315.933594 169.847656 "/>
<path style=" stroke:none;fill-rule:evenodd;fill:rgb(50.000763%,0%,50.000763%);fill-opacity:1;" d="M 315.933594 161.609375 L 308.800781 157.492188 L 308.800781 165.726562 Z M 315.933594 161.609375 "/>
<path style=" stroke:none;fill-rule:evenodd;fill:rgb(50.000763%,0%,50.000763%);fill-opacity:1;" d="M 315.933594 153.371094 L 308.800781 149.253906 L 308.800781 157.492188 Z M 315.933594 153.371094 "/>
<path style=" stroke:none;fill-rule:evenodd;fill:rgb(50.000763%,0%,50.000763%);fill-opacity:1;" d="M 308.800781 149.253906 L 301.664062 145.132812 L 301.664062 153.371094 Z M 308.800781 149.253906 "/>
<path style=" stroke:none;fill-rule:evenodd;fill:rgb(50.000763%,0%,50.000763%);fill-opacity:1;" d="M 301.664062 145.132812 L 294.53125 141.015625 L 294.53125 149.253906 Z M 301.664062 145.132812 "/>
<path style=" stroke:none;fill-rule:evenodd;fill:rgb(50.000763%,0%,50.000763%);fill-opacity:1;" d="M 294.53125 149.253906 L 287.398438 145.132812 L 287.398438 153.371094 Z M 294.53125 149.253906 "/>
<path style=" stroke:none;fill-rule:evenodd;fill:rgb(50.000763%,0%,50.000763%);fill-opacity:1;" d="M 287.398438 153.371094 L 280.261719 149.253906 L 280.261719 157.492188 Z M 287.398438 153.371094 "/>
<path style=" stroke:none;fill-rule:evenodd;fill:rgb(50.000763%,0%,50.000763%);fill-opacity:1;" d="M 280.261719 157.492188 L 273.128906 153.371094 L 273.128906 161.609375 Z M 280.261719 157.492188 "/>
<path style=" stroke:none;fill-rule:evenodd;fill:rgb(50.000763%,0%,50.000763%);fill-opacity:1;" d="M 280.261719 165.726562 L 273.128906 161.609375 L 273.128906 169.847656 Z M 280.261719 165.726562 "/>
<path style=" stroke:none;fill-rule:evenodd;fill:rgb(50.000763%,0%,50.000763%);fill-opacity:1;" d="M 280.261719 173.964844 L 273.128906 169.847656 L 273.128906 178.085938 Z M 280.261719 173.964844 "/>
<path style=" stroke:none;fill-rule:evenodd;fill:rgb(50.000763%,0%,50.000763%);fill-opacity:1;" d="M 287.398438 178.085938 L 280.261719 173.964844 L 280.261719 182.203125 Z M 287.398438 178.085938 "/>
<path style=" stroke:none;fill-rule:evenodd;fill:rgb(50.000763%,0%,50.000763%);fill-opacity:1;" d="M 294.53125 182.203125 L 287.398438 178.085938 L 287.398438 186.324219 Z M 294.53125 182.203125 "/>
<path style=" stroke:none;fill-rule:evenodd;fill:rgb(0%,0%,0%);fill-opacity:1;" d="M 185.46875 131.277344 C 185.46875 132.726562 184.890625 134.117188 183.867188 135.144531 C 182.839844 136.167969 181.449219 136.746094 180 136.746094 C 178.550781 136.746094 177.160156 136.167969 176.132812 135.144531 C 175.109375 134.117188 174.53125 132.726562 174.53125 131.277344 C 174.53125 129.828125 175.109375 128.4375 176.132812 127.410156 C 177.160156 126.382812 178.550781 125.808594 180 125.808594 C 181.449219 125.808594 182.839844 126.382812 183.867188 127.410156 C 184.890625 128.4375 185.46875 129.828125 185.46875 131.277344 Z M 185.46875 131.277344 "/>
<path style=" stroke:none;fill-rule:evenodd;fill:rgb(0%,0%,0%);fill-opacity:1;" d="M 70.9375 204.828125 C 70.9375 206.277344 70.359375 207.667969 69.335938 208.695312 C 68.308594 209.71875 66.917969 210.296875 65.46875 210.296875 C 64.019531 210.296875 62.628906 209.71875 61.601562 208.695312 C 60.574219 207.667969 60 206.277344 60 204.828125 C 60 203.378906 60.574219 201.988281 61.601562 200.960938 C 62.628906 199.933594 64.019531 199.359375 65.46875 199.359375 C 66.917969 199.359375 68.308594 199.933594 69.335938 200.960938 C 70.359375 201.988281 70.9375 203.378906 70.9375 204.828125 Z M 70.9375 204.828125 "/>
<path style=" stroke:none;fill-rule:evenodd;fill:rgb(0%,0%,0%);fill-opacity:1;" d="M 300 204.828125 C 300 206.277344 299.425781 207.667969 298.398438 208.695312 C 297.371094 209.71875 295.980469 210.296875 294.53125 210.296875 C 293.082031 210.296875 291.691406 209.71875 290.664062 208.695312 C 289.640625 207.667969 289.0625 206.277344 289.0625 204.828125 C 289.0625 203.378906 289.640625 201.988281 290.664062 200.960938 C 291.691406 199.933594 293.082031 199.359375 294.53125 199.359375 C 295.980469 199.359375 297.371094 199.933594 298.398438 200.960938 C 299.425781 201.988281 300 203.378906 300 204.828125 Z M 300 204.828125 "/>
</g>
</svg>
