<?xml version="1.0" encoding="UTF-8"?>
<svg xmlns="http://www.w3.org/2000/svg" xmlns:xlink="http://www.w3.org/1999/xlink" width="360pt" height="329pt" viewBox="0 0 360 329" version="1.1">
<defs>
<clipPath id="clip1">
  <path d="M 7.921875 151.679688 L 352.078125 151.679688 L 352.078125 323.761719 L 7.921875 323.761719 Z M 7.921875 151.679688 "/>
</clipPath>
</defs>
<g id="surface1">
<g clip-path="url(#clip1)" clip-rule="nonzero">
<path style="fill:none;stroke-width:4;stroke-linecap:square;stroke-linejoin:miter;stroke:rgb(0%,0%,0%);stroke-opacity:1;stroke-miterlimit:3.25;" d="M 80.988281 274.761719 L 81.089844 274.949219 L 81.394531 275.5 L 81.796875 276.234375 L 82.609375 277.691406 L 84.226562 280.558594 L 87.464844 286.085938 L 94.488281 296.96875 L 94.589844 297.113281 L 94.695312 297.261719 L 94.898438 297.550781 L 95.308594 298.128906 L 96.128906 299.261719 L 97.769531 301.453125 L 98.175781 301.984375 L 98.585938 302.507812 L 99.40625 303.535156 L 101.046875 305.507812 L 101.148438 305.625 L 101.246094 305.742188 L 101.449219 305.976562 L 101.851562 306.4375 L 102.652344 307.332031 L 104.261719 309.046875 L 104.359375 309.148438 L 104.460938 309.25 L 104.664062 309.457031 L 105.0625 309.859375 L 105.867188 310.640625 L 107.476562 312.121094 L 107.585938 312.214844 L 107.691406 312.308594 L 107.910156 312.5 L 108.347656 312.871094 L 109.21875 313.585938 L 109.65625 313.929688 L 110.089844 314.265625 L 110.960938 314.90625 L 111.179688 315.0625 L 111.398438 315.214844 L 111.832031 315.511719 L 112.707031 316.078125 L 114.449219 317.101562 L 114.652344 317.210938 L 115.261719 317.527344 L 116.074219 317.917969 L 116.277344 318.011719 L 116.484375 318.101562 L 116.890625 318.277344 L 117.703125 318.601562 L 117.804688 318.636719 L 117.90625 318.675781 L 118.109375 318.75 L 118.617188 318.925781 L 118.71875 318.957031 L 118.921875 319.023438 L 119.328125 319.144531 L 119.433594 319.175781 L 119.535156 319.207031 L 119.738281 319.261719 L 120.144531 319.367188 L 120.246094 319.394531 L 120.550781 319.464844 L 120.957031 319.554688 L 121.175781 319.601562 L 121.398438 319.644531 L 121.617188 319.683594 L 121.839844 319.722656 L 121.949219 319.738281 L 122.058594 319.757812 L 122.28125 319.789062 L 122.5 319.820312 L 122.71875 319.847656 L 122.832031 319.859375 L 123.160156 319.894531 L 123.269531 319.902344 L 123.382812 319.914062 L 123.710938 319.9375 L 123.824219 319.945312 L 123.933594 319.949219 L 124.042969 319.957031 L 124.261719 319.964844 L 124.375 319.96875 L 124.59375 319.976562 L 124.703125 319.976562 L 124.8125 319.980469 L 125.144531 319.980469 L 125.253906 319.976562 L 125.367188 319.976562 L 125.476562 319.972656 L 125.585938 319.972656 L 125.804688 319.964844 L 125.917969 319.957031 L 126.027344 319.953125 L 126.246094 319.9375 L 126.355469 319.933594 L 126.46875 319.921875 L 126.6875 319.90625 L 126.90625 319.882812 L 127.128906 319.859375 L 127.347656 319.835938 L 127.570312 319.808594 L 128.011719 319.742188 L 128.117188 319.726562 L 128.226562 319.707031 L 128.441406 319.671875 L 128.875 319.585938 L 128.984375 319.566406 L 129.09375 319.542969 L 129.308594 319.496094 L 129.742188 319.394531 L 129.847656 319.367188 L 129.957031 319.339844 L 130.175781 319.28125 L 130.605469 319.160156 L 131.472656 318.886719 L 131.582031 318.851562 L 131.6875 318.8125 L 131.90625 318.738281 L 132.339844 318.578125 L 133.203125 318.230469 L 133.421875 318.136719 L 133.636719 318.039062 L 134.070312 317.84375 L 134.933594 317.417969 L 135.035156 317.367188 L 135.136719 317.3125 L 135.339844 317.207031 L 135.742188 316.988281 L 136.550781 316.523438 L 138.164062 315.5 L 138.265625 315.433594 L 138.367188 315.363281 L 138.566406 315.226562 L 138.972656 314.941406 L 139.777344 314.351562 L 141.394531 313.074219 L 141.503906 312.980469 L 141.613281 312.890625 L 142.269531 312.328125 L 143.144531 311.546875 L 144.894531 309.878906 L 145.003906 309.773438 L 145.113281 309.664062 L 145.769531 308.996094 L 146.648438 308.074219 L 148.398438 306.132812 L 148.601562 305.898438 L 148.804688 305.660156 L 149.214844 305.183594 L 150.03125 304.203125 L 151.667969 302.160156 L 154.9375 297.757812 L 161.347656 288.011719 L 168.300781 276.023438 L 174.789062 263.851562 L 181.824219 249.988281 L 188.730469 236.140625 L 195.171875 223.40625 L 202.15625 210.207031 L 208.675781 198.839844 L 208.785156 198.65625 L 208.898438 198.476562 L 209.117188 198.113281 L 209.558594 197.390625 L 210.441406 195.964844 L 212.210938 193.183594 L 215.742188 187.945312 L 215.851562 187.792969 L 215.957031 187.640625 L 216.175781 187.332031 L 216.609375 186.726562 L 217.476562 185.539062 L 219.210938 183.25 L 219.316406 183.109375 L 219.425781 182.96875 L 219.644531 182.695312 L 220.078125 182.148438 L 220.945312 181.078125 L 222.675781 179.03125 L 222.777344 178.917969 L 222.878906 178.800781 L 223.488281 178.121094 L 224.296875 177.238281 L 225.914062 175.5625 L 226.113281 175.363281 L 226.316406 175.164062 L 226.722656 174.769531 L 227.53125 174.003906 L 229.148438 172.566406 L 229.257812 172.472656 L 229.367188 172.382812 L 229.585938 172.199219 L 230.023438 171.839844 L 230.902344 171.148438 L 231.011719 171.0625 L 231.339844 170.816406 L 231.777344 170.492188 L 232.65625 169.875 L 232.765625 169.800781 L 232.875 169.730469 L 233.09375 169.582031 L 233.53125 169.296875 L 234.410156 168.757812 L 236.164062 167.789062 L 236.367188 167.6875 L 236.574219 167.585938 L 236.984375 167.390625 L 237.800781 167.027344 L 237.902344 166.984375 L 238.007812 166.941406 L 238.210938 166.859375 L 238.621094 166.695312 L 239.4375 166.402344 L 239.542969 166.367188 L 239.644531 166.332031 L 239.847656 166.265625 L 240.257812 166.140625 L 240.460938 166.078125 L 240.667969 166.023438 L 241.078125 165.914062 L 241.179688 165.886719 L 241.28125 165.863281 L 241.484375 165.8125 L 241.894531 165.71875 L 241.996094 165.699219 L 242.101562 165.679688 L 242.304688 165.636719 L 242.714844 165.5625 L 242.816406 165.546875 L 242.914062 165.53125 L 243.117188 165.5 L 243.214844 165.484375 L 243.316406 165.46875 L 243.515625 165.441406 L 243.71875 165.417969 L 243.917969 165.394531 L 244.019531 165.382812 L 244.117188 165.375 L 244.320312 165.355469 L 244.421875 165.347656 L 244.519531 165.339844 L 244.722656 165.324219 L 244.820312 165.316406 L 244.921875 165.3125 L 245.023438 165.304688 L 245.121094 165.300781 L 245.324219 165.292969 L 245.421875 165.289062 L 245.523438 165.289062 L 245.625 165.285156 L 245.722656 165.285156 L 245.824219 165.28125 L 246.226562 165.28125 L 246.328125 165.285156 L 246.425781 165.285156 L 246.628906 165.292969 L 246.726562 165.296875 L 246.929688 165.304688 L 247.027344 165.308594 L 247.128906 165.316406 L 247.230469 165.320312 L 247.328125 165.328125 L 247.53125 165.34375 L 247.628906 165.351562 L 247.730469 165.359375 L 247.933594 165.378906 L 248.03125 165.390625 L 248.132812 165.398438 L 248.332031 165.421875 L 248.433594 165.4375 L 248.535156 165.449219 L 248.734375 165.476562 L 249.136719 165.539062 L 249.246094 165.554688 L 249.355469 165.574219 L 249.570312 165.613281 L 250.007812 165.699219 L 250.117188 165.722656 L 250.222656 165.746094 L 250.441406 165.796875 L 250.878906 165.902344 L 250.988281 165.929688 L 251.09375 165.957031 L 251.3125 166.015625 L 251.75 166.140625 L 252.617188 166.421875 L 252.726562 166.457031 L 253.054688 166.574219 L 253.488281 166.738281 L 254.359375 167.097656 L 254.578125 167.191406 L 254.796875 167.289062 L 255.230469 167.492188 L 256.101562 167.925781 L 256.304688 168.035156 L 256.507812 168.140625 L 256.914062 168.367188 L 257.726562 168.839844 L 259.351562 169.882812 L 259.757812 170.164062 L 260.164062 170.453125 L 260.976562 171.054688 L 262.601562 172.355469 L 262.714844 172.449219 L 263.042969 172.730469 L 263.484375 173.113281 L 264.363281 173.90625 L 266.125 175.601562 L 266.347656 175.824219 L 266.566406 176.046875 L 267.007812 176.503906 L 267.886719 177.4375 L 269.648438 179.410156 L 269.867188 179.660156 L 270.082031 179.914062 L 270.515625 180.425781 L 271.378906 181.472656 L 273.109375 183.660156 L 276.566406 188.386719 L 283.019531 198.335938 L 290.015625 210.523438 L 296.546875 222.859375 L 302.949219 235.503906 L 309.898438 249.4375 L 316.378906 262.246094 L 323.40625 275.496094 L 329.96875 286.890625 L 336.402344 296.820312 L 336.621094 297.132812 L 336.839844 297.441406 L 337.273438 298.054688 L 338.148438 299.261719 L 339.890625 301.589844 L 340 301.730469 L 340.109375 301.875 L 340.328125 302.152344 L 340.765625 302.710938 L 341.636719 303.796875 L 343.378906 305.878906 L 343.480469 305.996094 L 343.585938 306.113281 L 344.195312 306.804688 L 345.007812 307.703125 L 346.636719 309.410156 L 346.738281 309.515625 L 347.042969 309.820312 L 347.449219 310.222656 L 348.265625 311 L 349.894531 312.46875 L 350.003906 312.5625 L 350.113281 312.660156 L 350.335938 312.84375 L 350.777344 313.210938 L 351.65625 313.917969 L 351.769531 314.003906 L 351.878906 314.089844 L 352.097656 314.257812 L 352.539062 314.585938 L 353.421875 315.21875 L 353.53125 315.292969 L 353.640625 315.371094 L 353.863281 315.519531 L 354.304688 315.8125 L 355.1875 316.367188 L 356.949219 317.359375 L 357.167969 317.46875 L 357.382812 317.578125 L 357.816406 317.789062 L 358.683594 318.179688 L 358.792969 318.226562 L 358.898438 318.273438 L 359.117188 318.363281 L 359.550781 318.535156 L 360.414062 318.851562 L 360.632812 318.921875 L 360.847656 318.992188 L 361.28125 319.125 L 361.390625 319.160156 L 361.496094 319.191406 L 361.714844 319.25 L 362.148438 319.363281 L 362.253906 319.390625 L 362.363281 319.417969 L 362.582031 319.46875 L 363.015625 319.566406 L 363.121094 319.585938 L 363.230469 319.609375 L 363.445312 319.648438 L 363.878906 319.726562 L 364.082031 319.757812 L 364.285156 319.785156 L 364.382812 319.800781 L 364.484375 319.8125 L 364.6875 319.839844 L 364.890625 319.863281 L 365.089844 319.882812 L 365.191406 319.894531 L 365.292969 319.902344 L 365.496094 319.921875 L 365.597656 319.929688 L 365.699219 319.933594 L 365.796875 319.941406 L 365.898438 319.949219 L 366.101562 319.957031 L 366.203125 319.964844 L 366.40625 319.972656 L 366.503906 319.972656 L 366.605469 319.976562 L 366.707031 319.976562 L 366.808594 319.980469 L 367.210938 319.980469 L 367.3125 319.976562 L 367.414062 319.976562 L 367.617188 319.96875 L 367.71875 319.96875 L 367.820312 319.964844 L 367.917969 319.957031 L 368.121094 319.949219 L 368.324219 319.933594 L 368.425781 319.929688 L 368.527344 319.921875 L 368.726562 319.902344 L 368.828125 319.894531 L 368.929688 319.882812 L 369.132812 319.863281 L 369.234375 319.851562 L 369.332031 319.839844 L 369.535156 319.8125 L 369.636719 319.800781 L 369.738281 319.785156 L 369.9375 319.757812 L 370.34375 319.691406 L 370.5625 319.652344 L 370.78125 319.609375 L 371.21875 319.519531 L 371.328125 319.496094 L 371.4375 319.46875 L 371.65625 319.417969 L 372.09375 319.308594 L 372.203125 319.277344 L 372.316406 319.246094 L 372.535156 319.1875 L 372.972656 319.054688 L 373.847656 318.765625 L 373.957031 318.726562 L 374.066406 318.683594 L 374.285156 318.605469 L 374.722656 318.433594 L 375.601562 318.0625 L 375.710938 318.015625 L 376.039062 317.863281 L 376.476562 317.65625 L 377.351562 317.207031 L 377.554688 317.097656 L 377.761719 316.984375 L 378.167969 316.753906 L 378.988281 316.269531 L 380.625 315.199219 L 380.726562 315.128906 L 380.828125 315.054688 L 381.03125 314.910156 L 381.441406 314.613281 L 382.257812 313.996094 L 383.894531 312.664062 L 383.996094 312.578125 L 384.09375 312.492188 L 384.296875 312.320312 L 384.695312 311.96875 L 385.5 311.238281 L 387.101562 309.691406 L 387.503906 309.289062 L 387.902344 308.875 L 388.707031 308.03125 L 390.308594 306.253906 L 390.746094 305.753906 L 391.179688 305.246094 L 392.050781 304.203125 L 393.789062 302.027344 L 397.269531 297.3125 L 397.675781 296.734375 L 398.082031 296.148438 L 398.890625 294.960938 L 400.515625 292.515625 L 403.761719 287.359375 L 403.875 287.171875 L 403.988281 286.988281 L 404.667969 285.863281 L 405.574219 284.34375 L 407.386719 281.230469 L 407.5 281.035156 L 407.613281 280.835938 L 407.839844 280.441406 L 408.292969 279.644531 L 409.199219 278.035156 L 409.3125 277.835938 L 409.652344 277.226562 L 410.105469 276.410156 L 410.21875 276.203125 L 410.332031 276 L 410.558594 275.589844 L 411.011719 274.761719 " transform="matrix(1,0,0,1,-66,-5)"/>
</g>
<path style=" stroke:none;fill-rule:evenodd;fill:rgb(0%,0%,0%);fill-opacity:1;" d="M 180 8.613281 L 157.472656 21.617188 L 157.472656 47.628906 L 180 60.632812 L 202.527344 47.628906 L 202.527344 21.617188 Z M 180 8.613281 "/>
<path style=" stroke:none;fill-rule:evenodd;fill:rgb(100%,100%,100%);fill-opacity:1;" d="M 180 9.613281 L 158.339844 22.117188 L 158.339844 47.128906 L 180 59.632812 L 201.660156 47.128906 L 201.660156 22.117188 Z M 180 9.613281 "/>
<path style=" stroke:none;fill-rule:evenodd;fill:rgb(0%,0%,0%);fill-opacity:1;" d="M 180 95.800781 L 157.472656 108.804688 L 157.472656 134.816406 L 180 147.820312 L 202.527344 134.816406 L 202.527344 108.804688 Z M 180 95.800781 "/>
<path style=" stroke:none;fill-rule:evenodd;fill:rgb(50.000763%,0%,50.000763%);fill-opacity:1;" d="M 180 96.800781 L 158.339844 109.304688 L 158.339844 134.316406 L 180 146.820312 L 201.660156 134.316406 L 201.660156 109.304688 Z M 180 96.800781 "/>
<path style="fill:none;stroke-width:1;stroke-linecap:square;stroke-linejoin:miter;stroke:rgb(0%,0%,0%);stroke-opacity:1;stroke-miterlimit:3.25;" d="M 278.617188 124.117188 C 291.0625 114.191406 298.3125 99.136719 298.3125 83.214844 C 298.3125 67.296875 291.0625 52.242188 278.617188 42.316406 " transform="matrix(1,0,0,1,-66,-5)"/>
<path style="fill-rule:evenodd;fill:rgb(100%,100%,100%);fill-opacity:1;stroke-width:1;stroke-linecap:square;stroke-linejoin:miter;stroke:rgb(0%,0%,0%);stroke-opacity:1;stroke-miterlimit:3.25;" d="M 276.15625 40.355469 L 278.148438 45.429688 L 281.542969 41.167969 Z M 276.15625 40.355469 " transform="matrix(1,0,0,1,-66,-5)"/>
<path style="fill:none;stroke-width:1;stroke-linecap:square;stroke-linejoin:miter;stroke:rgb(0%,0%,0%);stroke-opacity:1;stroke-miterlimit:3.25;" d="M 213.382812 42.316406 C 200.9375 52.242188 193.6875 67.296875 193.6875 83.214844 C 193.6875 99.136719 200.9375 114.191406 213.382812 124.117188 " transform="matrix(1,0,0,1,-66,-5)"/>
<path style="fill-rule:evenodd;fill:rgb(100%,100%,100%);fill-opacity:1;stroke-width:1;stroke-linecap:square;stroke-linejoin:miter;stroke:rgb(0%,0%,0%);stroke-opacity:1;stroke-miterlimit:3.25;" d="M 215.84375 126.078125 L 213.851562 121.003906 L 210.457031 125.265625 Z M 215.84375 126.078125 " transform="matrix(1,0,0,1,-66,-5)"/>
<path style=" stroke:none;fill-rule:evenodd;fill:rgb(0%,0%,0%);fill-opacity:1;" d="M 60 228.234375 L 32.015625 244.390625 L 32.015625 276.707031 L 60 292.863281 L 87.984375 276.707031 L 87.984375 244.390625 Z M 60 228.234375 "/>
<path style=" stroke:none;fill-rule:evenodd;fill:rgb(100%,100%,100%);fill-opacity:1;" d="M 60 229.476562 L 33.089844 245.011719 L 33.089844 276.085938 L 60 291.621094 L 86.910156 276.085938 L 86.910156 245.011719 Z M 60 229.476562 "/>
<path style=" stroke:none;fill-rule:evenodd;fill:rgb(50.000763%,0%,50.000763%);fill-opacity:1;" d="M 60 260.550781 L 68.96875 255.371094 L 68.96875 265.726562 Z M 60 260.550781 "/>
<path style=" stroke:none;fill-rule:evenodd;fill:rgb(50.000763%,0%,50.000763%);fill-opacity:1;" d="M 51.03125 255.371094 L 60 250.191406 L 60 260.550781 Z M 51.03125 255.371094 "/>
<path style=" stroke:none;fill-rule:evenodd;fill:rgb(50.000763%,0%,50.000763%);fill-opacity:1;" d="M 51.03125 265.726562 L 60 260.550781 L 60 270.90625 Z M 51.03125 265.726562 "/>
<path style=" stroke:none;fill-rule:evenodd;fill:rgb(50.000763%,0%,50.000763%);fill-opacity:1;" d="M 60 270.90625 L 68.96875 265.726562 L 68.96875 276.085938 Z M 60 270.90625 "/>
<path style=" stroke:none;fill-rule:evenodd;fill:rgb(50.000763%,0%,50.000763%);fill-opacity:1;" d="M 68.96875 265.726562 L 77.9375 260.550781 L 77.9375 270.90625 Z M 68.96875 265.726562 "/>
<path style=" stroke:none;fill-rule:evenodd;fill:rgb(50.000763%,0%,50.000763%);fill-opacity:1;" d="M 68.96875 255.371094 L 77.9375 250.191406 L 77.9375 260.550781 Z M 68.96875 255.371094 "/>
<path style=" stroke:none;fill-rule:evenodd;fill:rgb(50.000763%,0%,50.000763%);fill-opacity:1;" d="M 60 250.191406 L 68.96875 245.011719 L 68.96875 255.371094 Z M 60 250.191406 "/>
<path style=" stroke:none;fill-rule:evenodd;fill:rgb(50.000763%,0%,50.000763%);fill-opacity:1;" d="M 51.03125 245.011719 L 60 239.835938 L 60 250.191406 Z M 51.03125 245.011719 "/>
<path style=" stroke:none;fill-rule:evenodd;fill:rgb(50.000763%,0%,50.000763%);fill-opacity:1;" d="M 42.0625 250.191406 L 51.03125 245.011719 L 51.03125 255.371094 Z M 42.0625 250.191406 "/>
<path style=" stroke:none;fill-rule:evenodd;fill:rgb(50.000763%,0%,50.000763%);fill-opacity:1;" d="M 42.0625 260.550781 L 51.03125 255.371094 L 51.03125 265.726562 Z M 42.0625 260.550781 "/>
<path style=" stroke:none;fill-rule:evenodd;fill:rgb(50.000763%,0%,50.000763%);fill-opacity:1;" d="M 42.0625 270.90625 L 51.03125 265.726562 L 51.03125 276.085938 Z M 42.0625 270.90625 "/>
<path style=" stroke:none;fill-rule:evenodd;fill:rgb(50.000763%,0%,50.000763%);fill-opacity:1;" d="M 51.03125 276.085938 L 60 270.90625 L 60 281.265625 Z M 51.03125 276.085938 "/>
<path style=" stroke:none;fill-rule:evenodd;fill:rgb(50.000763%,0%,50.000763%);fill-opacity:1;" d="M 60 281.265625 L 68.96875 276.085938 L 68.96875 286.441406 Z M 60 281.265625 "/>
<path style=" stroke:none;fill-rule:evenodd;fill:rgb(50.000763%,0%,50.000763%);fill-opacity:1;" d="M 68.96875 276.085938 L 77.9375 270.90625 L 77.9375 281.265625 Z M 68.96875 276.085938 "/>
<path style=" stroke:none;fill-rule:evenodd;fill:rgb(50.000763%,0%,50.000763%);fill-opacity:1;" d="M 77.9375 270.90625 L 86.910156 265.726562 L 86.910156 276.085938 Z M 77.9375 270.90625 "/>
<path style=" stroke:none;fill-rule:evenodd;fill:rgb(50.000763%,0%,50.000763%);fill-opacity:1;" d="M 77.9375 260.550781 L 86.910156 255.371094 L 86.910156 265.726562 Z M 77.9375 260.550781 "/>
<path style=" stroke:none;fill-rule:evenodd;fill:rgb(50.000763%,0%,50.000763%);fill-opacity:1;" d="M 77.9375 250.191406 L 86.910156 245.011719 L 86.910156 255.371094 Z M 77.9375 250.191406 "/>
<path style=" stroke:none;fill-rule:evenodd;fill:rgb(50.000763%,0%,50.000763%);fill-opacity:1;" d="M 68.96875 245.011719 L 77.9375 239.835938 L 77.9375 250.191406 Z M 68.96875 245.011719 "/>
<path style=" stroke:none;fill-rule:evenodd;fill:rgb(50.000763%,0%,50.000763%);fill-opacity:1;" d="M 60 239.835938 L 68.96875 234.65625 L 68.96875 245.011719 Z M 60 239.835938 "/>
<path style=" stroke:none;fill-rule:evenodd;fill:rgb(50.000763%,0%,50.000763%);fill-opacity:1;" d="M 51.03125 234.65625 L 60 229.476562 L 60 239.835938 Z M 51.03125 234.65625 "/>
<path style=" stroke:none;fill-rule:evenodd;fill:rgb(50.000763%,0%,50.000763%);fill-opacity:1;" d="M 42.0625 239.835938 L 51.03125 234.65625 L 51.03125 245.011719 Z M 42.0625 239.835938 "/>
<path style=" stroke:none;fill-rule:evenodd;fill:rgb(50.000763%,0%,50.000763%);fill-opacity:1;" d="M 33.089844 245.011719 L 42.0625 239.835938 L 42.0625 250.191406 Z M 33.089844 245.011719 "/>
<path style=" stroke:none;fill-rule:evenodd;fill:rgb(50.000763%,0%,50.000763%);fill-opacity:1;" d="M 33.089844 255.371094 L 42.0625 250.191406 L 42.0625 260.550781 Z M 33.089844 255.371094 "/>
<path style=" stroke:none;fill-rule:evenodd;fill:rgb(50.000763%,0%,50.000763%);fill-opacity:1;" d="M 33.089844 265.726562 L 42.0625 260.550781 L 42.0625 270.90625 Z M 33.089844 265.726562 "/>
<path style=" stroke:none;fill-rule:evenodd;fill:rgb(50.000763%,0%,50.000763%);fill-opacity:1;" d="M 33.089844 276.085938 L 42.0625 270.90625 L 42.0625 281.265625 Z M 33.089844 276.085938 "/>
<path style=" stroke:none;fill-rule:evenodd;fill:rgb(50.000763%,0%,50.000763%);fill-opacity:1;" d="M 42.0625 281.265625 L 51.03125 276.085938 L 51.03125 286.441406 Z M 42.0625 281.265625 "/>
<path style=" stroke:none;fill-rule:evenodd;fill:rgb(50.000763%,0%,50.000763%);fill-opacity:1;" d="M 51.03125 286.441406 L 60 281.265625 L 60 291.621094 Z M 51.03125 286.441406 "/>
<path style=" stroke:none;fill-rule:evenodd;fill:rgb(0%,0%,0%);fill-opacity:1;" d="M 300 228.234375 L 272.015625 244.390625 L 272.015625 276.707031 L 300 292.863281 L 327.984375 276.707031 L 327.984375 244.390625 Z M 300 228.234375 "/>
<path style=" stroke:none;fill-rule:evenodd;fill:rgb(100%,100%,100%);fill-opacity:1;" d="M 300 229.476562 L 273.089844 245.011719 L 273.089844 276.085938 L 300 291.621094 L 326.910156 276.085938 L 326.910156 245.011719 Z M 300 229.476562 "/>
<path style=" stroke:none;fill-rule:evenodd;fill:rgb(50.000763%,0%,50.000763%);fill-opacity:1;" d="M 308.96875 265.726562 L 300 260.550781 L 300 270.90625 Z M 308.96875 265.726562 "/>
<path style=" stroke:none;fill-rule:evenodd;fill:rgb(50.000763%,0%,50.000763%);fill-opacity:1;" d="M 308.96875 255.371094 L 300 250.191406 L 300 260.550781 Z M 308.96875 255.371094 "/>
<path style=" stroke:none;fill-rule:evenodd;fill:rgb(50.000763%,0%,50.000763%);fill-opacity:1;" d="M 300 260.550781 L 291.03125 255.371094 L 291.03125 265.726562 Z M 300 260.550781 "/>
<path style=" stroke:none;fill-rule:evenodd;fill:rgb(50.000763%,0%,50.000763%);fill-opacity:1;" d="M 308.96875 276.085938 L 300 270.90625 L 300 281.265625 Z M 308.96875 276.085938 "/>
<path style=" stroke:none;fill-rule:evenodd;fill:rgb(50.000763%,0%,50.000763%);fill-opacity:1;" d="M 317.9375 270.90625 L 308.96875 265.726562 L 308.96875 276.085938 Z M 317.9375 270.90625 "/>
<path style=" stroke:none;fill-rule:evenodd;fill:rgb(50.000763%,0%,50.000763%);fill-opacity:1;" d="M 317.9375 260.550781 L 308.96875 255.371094 L 308.96875 265.726562 Z M 317.9375 260.550781 "/>
<path style=" stroke:none;fill-rule:evenodd;fill:rgb(50.000763%,0%,50.000763%);fill-opacity:1;" d="M 317.9375 250.191406 L 308.96875 245.011719 L 308.96875 255.371094 Z M 317.9375 250.191406 "/>
<path style=" stroke:none;fill-rule:evenodd;fill:rgb(50.000763%,0%,50.000763%);fill-opacity:1;" d="M 308.96875 245.011719 L 300 239.835938 L 300 250.191406 Z M 308.96875 245.011719 "/>
<path style=" stroke:none;fill-rule:evenodd;fill:rgb(50.000763%,0%,50.000763%);fill-opacity:1;" d="M 300 250.191406 L 291.03125 245.011719 L 291.03125 255.371094 Z M 300 250.191406 "/>
<path style=" stroke:none;fill-rule:evenodd;fill:rgb(50.000763%,0%,50.000763%);fill-opacity:1;" d="M 291.03125 255.371094 L 282.0625 250.191406 L 282.0625 260.550781 Z M 291.03125 255.371094 "/>
<path style=" stroke:none;fill-rule:evenodd;fill:rgb(50.000763%,0%,50.000763%);fill-opacity:1;" d="M 291.03125 265.726562 L 282.0625 260.550781 L 282.0625 270.90625 Z M 291.03125 265.726562 "/>
<path style=" stroke:none;fill-rule:evenodd;fill:rgb(50.000763%,0%,50.000763%);fill-opacity:1;" d="M 300 270.90625 L 291.03125 265.726562 L 291.03125 276.085938 Z M 300 270.90625 "/>
<path style=" stroke:none;fill-rule:evenodd;fill:rgb(50.000763%,0%,50.000763%);fill-opacity:1;" d="M 308.96875 286.441406 L 300 281.265625 L 300 291.621094 Z M 308.96875 286.441406 "/>
<path style=" stroke:none;fill-rule:evenodd;fill:rgb(50.000763%,0%,50.000763%);fill-opacity:1;" d="M 317.9375 281.265625 L 308.96875 276.085938 L 308.96875 286.441406 Z M 317.9375 281.265625 "/>
<path style=" stroke:none;fill-rule:evenodd;fill:rgb(50.000763%,0%,50.000763%);fill-opacity:1;" d="M 326.910156 276.085938 L 317.9375 270.90625 L 317.9375 281.265625 Z M 326.910156 276.085938 "/>
<path style=" stroke:none;fill-rule:evenodd;fill:rgb(50.000763%,0%,50.000763%);fill-opacity:1;" d="M 326.910156 265.726562 L 317.9375 260.550781 L 317.9375 270.90625 Z M 326.910156 265.726562 "/>
<path style=" stroke:none;fill-rule:evenodd;fill:rgb(50.000763%,0%,50.000763%);fill-opacity:1;" d="M 326.910156 255.371094 L 317.9375 250.191406 L 317.9375 260.550781 Z M 326.910156 255.371094 "/>
<path style=" stroke:none;fill-rule:evenodd;fill:rgb(50.000763%,0%,50.000763%);fill-opacity:1;" d="M 326.910156 245.011719 L 317.9375 239.835938 L 317.9375 250.191406 Z M 326.910156 245.011719 "/>
<path style=" stroke:none;fill-rule:evenodd;fill:rgb(50.000763%,0%,50.000763%);fill-opacity:1;" d="M 317.9375 239.835938 L 308.96875 234.65625 L 308.96875 245.011719 Z M 317.9375 239.835938 "/>
<path style=" stroke:none;fill-rule:evenodd;fill:rgb(50.000763%,0%,50.000763%);fill-opacity:1;" d="M 308.96875 234.65625 L 300 229.476562 L 300 239.835938 Z M 308.96875 234.65625 "/>
<path style=" stroke:none;fill-rule:evenodd;fill:rgb(50.000763%,0%,50.000763%);fill-opacity:1;" d="M 300 239.835938 L 291.03125 234.65625 L 291.03125 245.011719 Z M 300 239.835938 "/>
<path style=" stroke:none;fill-rule:evenodd;fill:rgb(50.000763%,0%,50.000763%);fill-opacity:1;" d="M 291.03125 245.011719 L 282.0625 239.835938 L 282.0625 250.191406 Z M 291.03125 245.011719 "/>
<path style=" stroke:none;fill-rule:evenodd;fill:rgb(50.000763%,0%,50.000763%);fill-opacity:1;" d="M 282.0625 250.191406 L 273.089844 245.011719 L 273.089844 255.371094 Z M 282.0625 250.191406 "/>
<path style=" stroke:none;fill-rule:evenodd;fill:rgb(50.000763%,0%,50.000763%);fill-opacity:1;" d="M 282.0625 260.550781 L 273.089844 255.371094 L 273.089844 265.726562 Z M 282.0625 260.550781 "/>
<path style=" stroke:none;fill-rule:evenodd;fill:rgb(50.000763%,0%,50.000763%);fill-opacity:1;" d="M 282.0625 270.90625 L 273.089844 265.726562 L 273.089844 276.085938 Z M 282.0625 270.90625 "/>
<path style=" stroke:none;fill-rule:evenodd;fill:rgb(50.000763%,0%,50.000763%);fill-opacity:1;" d="M 291.03125 276.085938 L 282.0625 270.90625 L 282.0625 281.265625 Z M 291.03125 276.085938 "/>
<path style=" stroke:none;fill-rule:evenodd;fill:rgb(50.000763%,0%,50.000763%);fill-opacity:1;" d="M 300 281.265625 L 291.03125 276.085938 L 291.03125 286.441406 Z M 300 281.265625 "/>
</g>
</svg>
