<?xml version="1.0" encoding="UTF-8"?>
<svg xmlns="http://www.w3.org/2000/svg" xmlns:xlink="http://www.w3.org/1999/xlink" width="576pt" height="101pt" viewBox="0 0 576 101" version="1.1">
<defs>
<clipPath id="clip1">
  <path d="M 0 0 L 576 0 L 576 100.800781 L 0 100.800781 Z M 0 0 "/>
</clipPath>
<clipPath id="clip2">
  <path d="M 80 0 L 265 0 L 265 100.800781 L 80 100.800781 Z M 80 0 "/>
</clipPath>
<clipPath id="clip3">
  <path d="M 23 0 L 208 0 L 208 100.800781 L 23 100.800781 Z M 23 0 "/>
</clipPath>
<clipPath id="clip4">
  <path d="M 138 0 L 323 0 L 323 100.800781 L 138 100.800781 Z M 138 0 "/>
</clipPath>
<clipPath id="clip5">
  <path d="M 196 0 L 380 0 L 380 100.800781 L 196 100.800781 Z M 196 0 "/>
</clipPath>
<clipPath id="clip6">
  <path d="M 311 0 L 496 0 L 496 100.800781 L 311 100.800781 Z M 311 0 "/>
</clipPath>
<clipPath id="clip7">
  <path d="M 368 0 L 553 0 L 553 100.800781 L 368 100.800781 Z M 368 0 "/>
</clipPath>
<clipPath id="clip8">
  <path d="M 484 45 L 576 45 L 576 100.800781 L 484 100.800781 Z M 484 45 "/>
</clipPath>
<clipPath id="clip9">
  <path d="M 541 79 L 576 79 L 576 100.800781 L 541 100.800781 Z M 541 79 "/>
</clipPath>
<clipPath id="clip10">
  <path d="M 253 0 L 438 0 L 438 100.800781 L 253 100.800781 Z M 253 0 "/>
</clipPath>
<clipPath id="clip11">
  <path d="M 426 12 L 576 12 L 576 100.800781 L 426 100.800781 Z M 426 12 "/>
</clipPath>
<clipPath id="clip12">
  <path d="M 80 0 L 265 0 L 265 100.800781 L 80 100.800781 Z M 80 0 "/>
</clipPath>
<clipPath id="clip13">
  <path d="M 0 79 L 35 79 L 35 100.800781 L 0 100.800781 Z M 0 79 "/>
</clipPath>
<clipPath id="clip14">
  <path d="M 0 12 L 150 12 L 150 100.800781 L 0 100.800781 Z M 0 12 "/>
</clipPath>
<clipPath id="clip15">
  <path d="M 23 0 L 208 0 L 208 100.800781 L 23 100.800781 Z M 23 0 "/>
</clipPath>
<clipPath id="clip16">
  <path d="M 138 0 L 323 0 L 323 100.800781 L 138 100.800781 Z M 138 0 "/>
</clipPath>
<clipPath id="clip17">
  <path d="M 196 0 L 380 0 L 380 100.800781 L 196 100.800781 Z M 196 0 "/>
</clipPath>
<clipPath id="clip18">
  <path d="M 311 0 L 496 0 L 496 100.800781 L 311 100.800781 Z M 311 0 "/>
</clipPath>
<clipPath id="clip19">
  <path d="M 368 0 L 553 0 L 553 100.800781 L 368 100.800781 Z M 368 0 "/>
</clipPath>
<clipPath id="clip20">
  <path d="M 0 45 L 92 45 L 92 100.800781 L 0 100.800781 Z M 0 45 "/>
</clipPath>
<clipPath id="clip21">
  <path d="M 253 0 L 438 0 L 438 100.800781 L 253 100.800781 Z M 253 0 "/>
</clipPath>
<clipPath id="clip22">
  <path d="M 258 0 L 260 0 L 260 100.800781 L 258 100.800781 Z M 258 0 "/>
</clipPath>
<clipPath id="clip23">
  <path d="M 28 0 L 30 0 L 30 100.800781 L 28 100.800781 Z M 28 0 "/>
</clipPath>
<clipPath id="clip24">
  <path d="M 56 0 L 59 0 L 59 100.800781 L 56 100.800781 Z M 56 0 "/>
</clipPath>
<clipPath id="clip25">
  <path d="M 114 0 L 116 0 L 116 100.800781 L 114 100.800781 Z M 114 0 "/>
</clipPath>
<clipPath id="clip26">
  <path d="M 143 0 L 145 0 L 145 100.800781 L 143 100.800781 Z M 143 0 "/>
</clipPath>
<clipPath id="clip27">
  <path d="M 200 0 L 203 0 L 203 100.800781 L 200 100.800781 Z M 200 0 "/>
</clipPath>
<clipPath id="clip28">
  <path d="M 229 0 L 232 0 L 232 100.800781 L 229 100.800781 Z M 229 0 "/>
</clipPath>
<clipPath id="clip29">
  <path d="M 287 0 L 289 0 L 289 100.800781 L 287 100.800781 Z M 287 0 "/>
</clipPath>
<clipPath id="clip30">
  <path d="M 316 0 L 318 0 L 318 100.800781 L 316 100.800781 Z M 316 0 "/>
</clipPath>
<clipPath id="clip31">
  <path d="M 373 0 L 376 0 L 376 100.800781 L 373 100.800781 Z M 373 0 "/>
</clipPath>
<clipPath id="clip32">
  <path d="M 402 0 L 404 0 L 404 100.800781 L 402 100.800781 Z M 402 0 "/>
</clipPath>
<clipPath id="clip33">
  <path d="M 460 0 L 462 0 L 462 100.800781 L 460 100.800781 Z M 460 0 "/>
</clipPath>
<clipPath id="clip34">
  <path d="M 488 0 L 491 0 L 491 100.800781 L 488 100.800781 Z M 488 0 "/>
</clipPath>
<clipPath id="clip35">
  <path d="M 546 0 L 548 0 L 548 100.800781 L 546 100.800781 Z M 546 0 "/>
</clipPath>
<clipPath id="clip36">
  <path d="M 575 0 L 576 0 L 576 100.800781 L 575 100.800781 Z M 575 0 "/>
</clipPath>
<clipPath id="clip37">
  <path d="M 0 0 L 1 0 L 1 100.800781 L 0 100.800781 Z M 0 0 "/>
</clipPath>
<clipPath id="clip38">
  <path d="M 85 0 L 88 0 L 88 100.800781 L 85 100.800781 Z M 85 0 "/>
</clipPath>
<clipPath id="clip39">
  <path d="M 172 0 L 174 0 L 174 100.800781 L 172 100.800781 Z M 172 0 "/>
</clipPath>
<clipPath id="clip40">
  <path d="M 344 0 L 347 0 L 347 100.800781 L 344 100.800781 Z M 344 0 "/>
</clipPath>
<clipPath id="clip41">
  <path d="M 431 0 L 433 0 L 433 100.800781 L 431 100.800781 Z M 431 0 "/>
</clipPath>
<clipPath id="clip42">
  <path d="M 517 0 L 520 0 L 520 100.800781 L 517 100.800781 Z M 517 0 "/>
</clipPath>
</defs>
<g id="surface25536">
<g clip-path="url(#clip1)" clip-rule="nonzero">
<path style="fill:none;stroke-width:2;stroke-linecap:square;stroke-linejoin:miter;stroke:rgb(0%,0%,0%);stroke-opacity:1;stroke-miterlimit:3.25;" d="M 0 100.765625 L 0 0 L 576 0 L 576 100.765625 Z M 0 100.765625 "/>
</g>
<g clip-path="url(#clip2)" clip-rule="nonzero">
<path style="fill:none;stroke-width:1;stroke-linecap:square;stroke-linejoin:miter;stroke:rgb(0%,0%,0%);stroke-opacity:1;stroke-miterlimit:3.25;" d="M 85.535156 100.765625 L 260.0625 0 "/>
</g>
<path style="fill:none;stroke-width:1;stroke-linecap:square;stroke-linejoin:miter;stroke:rgb(0%,0%,0%);stroke-opacity:1;stroke-miterlimit:3.25;" d="M 0 17.125 L 29.664062 0 "/>
<path style="fill:none;stroke-width:1;stroke-linecap:square;stroke-linejoin:miter;stroke:rgb(0%,0%,0%);stroke-opacity:1;stroke-miterlimit:3.25;" d="M 0 83.636719 L 144.863281 0 "/>
<g clip-path="url(#clip3)" clip-rule="nonzero">
<path style="fill:none;stroke-width:1;stroke-linecap:square;stroke-linejoin:miter;stroke:rgb(0%,0%,0%);stroke-opacity:1;stroke-miterlimit:3.25;" d="M 27.9375 100.765625 L 202.464844 0 "/>
</g>
<g clip-path="url(#clip4)" clip-rule="nonzero">
<path style="fill:none;stroke-width:1;stroke-linecap:square;stroke-linejoin:miter;stroke:rgb(0%,0%,0%);stroke-opacity:1;stroke-miterlimit:3.25;" d="M 143.136719 100.765625 L 317.664062 0 "/>
</g>
<g clip-path="url(#clip5)" clip-rule="nonzero">
<path style="fill:none;stroke-width:1;stroke-linecap:square;stroke-linejoin:miter;stroke:rgb(0%,0%,0%);stroke-opacity:1;stroke-miterlimit:3.25;" d="M 200.734375 100.765625 L 375.265625 0 "/>
</g>
<g clip-path="url(#clip6)" clip-rule="nonzero">
<path style="fill:none;stroke-width:1;stroke-linecap:square;stroke-linejoin:miter;stroke:rgb(0%,0%,0%);stroke-opacity:1;stroke-miterlimit:3.25;" d="M 315.9375 100.765625 L 490.464844 0 "/>
</g>
<g clip-path="url(#clip7)" clip-rule="nonzero">
<path style="fill:none;stroke-width:1;stroke-linecap:square;stroke-linejoin:miter;stroke:rgb(0%,0%,0%);stroke-opacity:1;stroke-miterlimit:3.25;" d="M 373.535156 100.765625 L 548.0625 0 "/>
</g>
<g clip-path="url(#clip8)" clip-rule="nonzero">
<path style="fill:none;stroke-width:1;stroke-linecap:square;stroke-linejoin:miter;stroke:rgb(0%,0%,0%);stroke-opacity:1;stroke-miterlimit:3.25;" d="M 576 50.382812 L 488.734375 100.765625 "/>
</g>
<g clip-path="url(#clip9)" clip-rule="nonzero">
<path style="fill:none;stroke-width:1;stroke-linecap:square;stroke-linejoin:miter;stroke:rgb(0%,0%,0%);stroke-opacity:1;stroke-miterlimit:3.25;" d="M 576 83.636719 L 546.335938 100.765625 "/>
</g>
<path style="fill:none;stroke-width:1;stroke-linecap:square;stroke-linejoin:miter;stroke:rgb(0%,0%,0%);stroke-opacity:1;stroke-miterlimit:3.25;" d="M 0 50.382812 L 87.265625 0 "/>
<g clip-path="url(#clip10)" clip-rule="nonzero">
<path style="fill:none;stroke-width:1;stroke-linecap:square;stroke-linejoin:miter;stroke:rgb(0%,0%,0%);stroke-opacity:1;stroke-miterlimit:3.25;" d="M 258.335938 100.765625 L 432.863281 0 "/>
</g>
<g clip-path="url(#clip11)" clip-rule="nonzero">
<path style="fill:none;stroke-width:1;stroke-linecap:square;stroke-linejoin:miter;stroke:rgb(0%,0%,0%);stroke-opacity:1;stroke-miterlimit:3.25;" d="M 576 17.125 L 431.136719 100.765625 "/>
</g>
<g clip-path="url(#clip12)" clip-rule="nonzero">
<path style="fill:none;stroke-width:1;stroke-linecap:square;stroke-linejoin:miter;stroke:rgb(0%,0%,0%);stroke-opacity:1;stroke-miterlimit:3.25;" d="M 260.0625 100.765625 L 85.535156 0 "/>
</g>
<g clip-path="url(#clip13)" clip-rule="nonzero">
<path style="fill:none;stroke-width:1;stroke-linecap:square;stroke-linejoin:miter;stroke:rgb(0%,0%,0%);stroke-opacity:1;stroke-miterlimit:3.25;" d="M 0 83.636719 L 29.664062 100.765625 "/>
</g>
<g clip-path="url(#clip14)" clip-rule="nonzero">
<path style="fill:none;stroke-width:1;stroke-linecap:square;stroke-linejoin:miter;stroke:rgb(0%,0%,0%);stroke-opacity:1;stroke-miterlimit:3.25;" d="M 0 17.125 L 144.863281 100.765625 "/>
</g>
<g clip-path="url(#clip15)" clip-rule="nonzero">
<path style="fill:none;stroke-width:1;stroke-linecap:square;stroke-linejoin:miter;stroke:rgb(0%,0%,0%);stroke-opacity:1;stroke-miterlimit:3.25;" d="M 202.464844 100.765625 L 27.9375 0 "/>
</g>
<g clip-path="url(#clip16)" clip-rule="nonzero">
<path style="fill:none;stroke-width:1;stroke-linecap:square;stroke-linejoin:miter;stroke:rgb(0%,0%,0%);stroke-opacity:1;stroke-miterlimit:3.25;" d="M 317.664062 100.765625 L 143.136719 0 "/>
</g>
<g clip-path="url(#clip17)" clip-rule="nonzero">
<path style="fill:none;stroke-width:1;stroke-linecap:square;stroke-linejoin:miter;stroke:rgb(0%,0%,0%);stroke-opacity:1;stroke-miterlimit:3.25;" d="M 375.265625 100.765625 L 200.734375 0 "/>
</g>
<g clip-path="url(#clip18)" clip-rule="nonzero">
<path style="fill:none;stroke-width:1;stroke-linecap:square;stroke-linejoin:miter;stroke:rgb(0%,0%,0%);stroke-opacity:1;stroke-miterlimit:3.25;" d="M 490.464844 100.765625 L 315.9375 0 "/>
</g>
<g clip-path="url(#clip19)" clip-rule="nonzero">
<path style="fill:none;stroke-width:1;stroke-linecap:square;stroke-linejoin:miter;stroke:rgb(0%,0%,0%);stroke-opacity:1;stroke-miterlimit:3.25;" d="M 548.0625 100.765625 L 373.535156 0 "/>
</g>
<path style="fill:none;stroke-width:1;stroke-linecap:square;stroke-linejoin:miter;stroke:rgb(0%,0%,0%);stroke-opacity:1;stroke-miterlimit:3.25;" d="M 576 50.382812 L 488.734375 0 "/>
<path style="fill:none;stroke-width:1;stroke-linecap:square;stroke-linejoin:miter;stroke:rgb(0%,0%,0%);stroke-opacity:1;stroke-miterlimit:3.25;" d="M 576 17.125 L 546.335938 0 "/>
<g clip-path="url(#clip20)" clip-rule="nonzero">
<path style="fill:none;stroke-width:1;stroke-linecap:square;stroke-linejoin:miter;stroke:rgb(0%,0%,0%);stroke-opacity:1;stroke-miterlimit:3.25;" d="M 0 50.382812 L 87.265625 100.765625 "/>
</g>
<g clip-path="url(#clip21)" clip-rule="nonzero">
<path style="fill:none;stroke-width:1;stroke-linecap:square;stroke-linejoin:miter;stroke:rgb(0%,0%,0%);stroke-opacity:1;stroke-miterlimit:3.25;" d="M 432.863281 100.765625 L 258.335938 0 "/>
</g>
<path style="fill:none;stroke-width:1;stroke-linecap:square;stroke-linejoin:miter;stroke:rgb(0%,0%,0%);stroke-opacity:1;stroke-miterlimit:3.25;" d="M 576 83.636719 L 431.136719 0 "/>
<g clip-path="url(#clip22)" clip-rule="nonzero">
<path style="fill:none;stroke-width:1;stroke-linecap:square;stroke-linejoin:miter;stroke:rgb(0%,0%,0%);stroke-opacity:1;stroke-miterlimit:3.25;" d="M 259.199219 100.765625 L 259.199219 0 "/>
</g>
<g clip-path="url(#clip23)" clip-rule="nonzero">
<path style="fill:none;stroke-width:1;stroke-linecap:square;stroke-linejoin:miter;stroke:rgb(0%,0%,0%);stroke-opacity:1;stroke-miterlimit:3.25;" d="M 28.800781 100.765625 L 28.800781 0 "/>
</g>
<g clip-path="url(#clip24)" clip-rule="nonzero">
<path style="fill:none;stroke-width:1;stroke-linecap:square;stroke-linejoin:miter;stroke:rgb(0%,0%,0%);stroke-opacity:1;stroke-miterlimit:3.25;" d="M 57.601562 100.765625 L 57.601562 0 "/>
</g>
<g clip-path="url(#clip25)" clip-rule="nonzero">
<path style="fill:none;stroke-width:1;stroke-linecap:square;stroke-linejoin:miter;stroke:rgb(0%,0%,0%);stroke-opacity:1;stroke-miterlimit:3.25;" d="M 115.199219 100.765625 L 115.199219 0 "/>
</g>
<g clip-path="url(#clip26)" clip-rule="nonzero">
<path style="fill:none;stroke-width:1;stroke-linecap:square;stroke-linejoin:miter;stroke:rgb(0%,0%,0%);stroke-opacity:1;stroke-miterlimit:3.25;" d="M 144 100.765625 L 144 0 "/>
</g>
<g clip-path="url(#clip27)" clip-rule="nonzero">
<path style="fill:none;stroke-width:1;stroke-linecap:square;stroke-linejoin:miter;stroke:rgb(0%,0%,0%);stroke-opacity:1;stroke-miterlimit:3.25;" d="M 201.601562 100.765625 L 201.601562 0 "/>
</g>
<g clip-path="url(#clip28)" clip-rule="nonzero">
<path style="fill:none;stroke-width:1;stroke-linecap:square;stroke-linejoin:miter;stroke:rgb(0%,0%,0%);stroke-opacity:1;stroke-miterlimit:3.25;" d="M 230.398438 100.765625 L 230.398438 0 "/>
</g>
<g clip-path="url(#clip29)" clip-rule="nonzero">
<path style="fill:none;stroke-width:1;stroke-linecap:square;stroke-linejoin:miter;stroke:rgb(0%,0%,0%);stroke-opacity:1;stroke-miterlimit:3.25;" d="M 288 100.765625 L 288 0 "/>
</g>
<g clip-path="url(#clip30)" clip-rule="nonzero">
<path style="fill:none;stroke-width:1;stroke-linecap:square;stroke-linejoin:miter;stroke:rgb(0%,0%,0%);stroke-opacity:1;stroke-miterlimit:3.25;" d="M 316.800781 100.765625 L 316.800781 0 "/>
</g>
<g clip-path="url(#clip31)" clip-rule="nonzero">
<path style="fill:none;stroke-width:1;stroke-linecap:square;stroke-linejoin:miter;stroke:rgb(0%,0%,0%);stroke-opacity:1;stroke-miterlimit:3.25;" d="M 374.398438 100.765625 L 374.398438 0 "/>
</g>
<g clip-path="url(#clip32)" clip-rule="nonzero">
<path style="fill:none;stroke-width:1;stroke-linecap:square;stroke-linejoin:miter;stroke:rgb(0%,0%,0%);stroke-opacity:1;stroke-miterlimit:3.25;" d="M 403.199219 100.765625 L 403.199219 0 "/>
</g>
<g clip-path="url(#clip33)" clip-rule="nonzero">
<path style="fill:none;stroke-width:1;stroke-linecap:square;stroke-linejoin:miter;stroke:rgb(0%,0%,0%);stroke-opacity:1;stroke-miterlimit:3.25;" d="M 460.800781 100.765625 L 460.800781 0 "/>
</g>
<g clip-path="url(#clip34)" clip-rule="nonzero">
<path style="fill:none;stroke-width:1;stroke-linecap:square;stroke-linejoin:miter;stroke:rgb(0%,0%,0%);stroke-opacity:1;stroke-miterlimit:3.25;" d="M 489.601562 100.765625 L 489.601562 0 "/>
</g>
<g clip-path="url(#clip35)" clip-rule="nonzero">
<path style="fill:none;stroke-width:1;stroke-linecap:square;stroke-linejoin:miter;stroke:rgb(0%,0%,0%);stroke-opacity:1;stroke-miterlimit:3.25;" d="M 547.199219 100.765625 L 547.199219 0 "/>
</g>
<g clip-path="url(#clip36)" clip-rule="nonzero">
<path style="fill:none;stroke-width:1;stroke-linecap:square;stroke-linejoin:miter;stroke:rgb(0%,0%,0%);stroke-opacity:1;stroke-miterlimit:3.25;" d="M 576 100.765625 L 576 0 "/>
</g>
<g clip-path="url(#clip37)" clip-rule="nonzero">
<path style="fill:none;stroke-width:1;stroke-linecap:square;stroke-linejoin:miter;stroke:rgb(0%,0%,0%);stroke-opacity:1;stroke-miterlimit:3.25;" d="M 0 100.765625 L 0 0 "/>
</g>
<g clip-path="url(#clip38)" clip-rule="nonzero">
<path style="fill:none;stroke-width:1;stroke-linecap:square;stroke-linejoin:miter;stroke:rgb(0%,0%,0%);stroke-opacity:1;stroke-miterlimit:3.25;" d="M 86.398438 100.765625 L 86.398438 0 "/>
</g>
<g clip-path="url(#clip39)" clip-rule="nonzero">
<path style="fill:none;stroke-width:1;stroke-linecap:square;stroke-linejoin:miter;stroke:rgb(0%,0%,0%);stroke-opacity:1;stroke-miterlimit:3.25;" d="M 172.800781 100.765625 L 172.800781 0 "/>
</g>
<g clip-path="url(#clip40)" clip-rule="nonzero">
<path style="fill:none;stroke-width:1;stroke-linecap:square;stroke-linejoin:miter;stroke:rgb(0%,0%,0%);stroke-opacity:1;stroke-miterlimit:3.25;" d="M 345.601562 100.765625 L 345.601562 0 "/>
</g>
<g clip-path="url(#clip41)" clip-rule="nonzero">
<path style="fill:none;stroke-width:1;stroke-linecap:square;stroke-linejoin:miter;stroke:rgb(0%,0%,0%);stroke-opacity:1;stroke-miterlimit:3.25;" d="M 432 100.765625 L 432 0 "/>
</g>
<g clip-path="url(#clip42)" clip-rule="nonzero">
<path style="fill:none;stroke-width:1;stroke-linecap:square;stroke-linejoin:miter;stroke:rgb(0%,0%,0%);stroke-opacity:1;stroke-miterlimit:3.25;" d="M 518.398438 100.765625 L 518.398438 0 "/>
</g>
</g>
</svg>
