<?xml version="1.0" encoding="UTF-8"?>
<svg xmlns="http://www.w3.org/2000/svg" xmlns:xlink="http://www.w3.org/1999/xlink" width="360pt" height="312pt" viewBox="0 0 360 312" version="1.1">
<g id="surface1">
<rect x="0" y="0" width="360" height="312" style="fill:rgb(100%,100%,100%);fill-opacity:1;stroke:none;"/>
<path style=" stroke:none;fill-rule:evenodd;fill:rgb(50.000763%,0%,50.000763%);fill-opacity:1;" d="M 179.5 155.453125 L 194.457031 146.816406 L 194.457031 164.085938 Z M 179.5 155.453125 "/>
<path style=" stroke:none;fill-rule:evenodd;fill:rgb(50.000763%,0%,50.000763%);fill-opacity:1;" d="M 194.457031 164.085938 L 209.417969 155.453125 L 209.417969 172.722656 Z M 194.457031 164.085938 "/>
<path style=" stroke:none;fill-rule:evenodd;fill:rgb(50.000763%,0%,50.000763%);fill-opacity:1;" d="M 194.457031 146.816406 L 209.417969 138.179688 L 209.417969 155.453125 Z M 194.457031 146.816406 "/>
<path style=" stroke:none;fill-rule:evenodd;fill:rgb(50.000763%,0%,50.000763%);fill-opacity:1;" d="M 179.5 138.179688 L 194.457031 129.542969 L 194.457031 146.816406 Z M 179.5 138.179688 "/>
<path style=" stroke:none;fill-rule:evenodd;fill:rgb(50.000763%,0%,50.000763%);fill-opacity:1;" d="M 164.542969 146.816406 L 179.5 138.179688 L 179.5 155.453125 Z M 164.542969 146.816406 "/>
<path style=" stroke:none;fill-rule:evenodd;fill:rgb(50.000763%,0%,50.000763%);fill-opacity:1;" d="M 164.542969 164.085938 L 179.5 155.453125 L 179.5 172.722656 Z M 164.542969 164.085938 "/>
<path style=" stroke:none;fill-rule:evenodd;fill:rgb(50.000763%,0%,50.000763%);fill-opacity:1;" d="M 179.5 172.722656 L 194.457031 164.085938 L 194.457031 181.359375 Z M 179.5 172.722656 "/>
<path style=" stroke:none;fill-rule:evenodd;fill:rgb(50.000763%,0%,50.000763%);fill-opacity:1;" d="M 209.417969 155.453125 L 224.375 146.816406 L 224.375 164.085938 Z M 209.417969 155.453125 "/>
<path style=" stroke:none;fill-rule:evenodd;fill:rgb(50.000763%,0%,50.000763%);fill-opacity:1;" d="M 194.457031 129.542969 L 209.417969 120.90625 L 209.417969 138.179688 Z M 194.457031 129.542969 "/>
<path style=" stroke:none;fill-rule:evenodd;fill:rgb(50.000763%,0%,50.000763%);fill-opacity:1;" d="M 179.5 120.90625 L 194.457031 112.269531 L 194.457031 129.542969 Z M 179.5 120.90625 "/>
<path style=" stroke:none;fill-rule:evenodd;fill:rgb(50.000763%,0%,50.000763%);fill-opacity:1;" d="M 164.542969 129.542969 L 179.5 120.90625 L 179.5 138.179688 Z M 164.542969 129.542969 "/>
<path style=" stroke:none;fill-rule:evenodd;fill:rgb(50.000763%,0%,50.000763%);fill-opacity:1;" d="M 149.582031 138.179688 L 164.542969 129.542969 L 164.542969 146.816406 Z M 149.582031 138.179688 "/>
<path style=" stroke:none;fill-rule:evenodd;fill:rgb(50.000763%,0%,50.000763%);fill-opacity:1;" d="M 149.582031 155.453125 L 164.542969 146.816406 L 164.542969 164.085938 Z M 149.582031 155.453125 "/>
<path style=" stroke:none;fill-rule:evenodd;fill:rgb(50.000763%,0%,50.000763%);fill-opacity:1;" d="M 149.582031 172.722656 L 164.542969 164.085938 L 164.542969 181.359375 Z M 149.582031 172.722656 "/>
<path style=" stroke:none;fill-rule:evenodd;fill:rgb(50.000763%,0%,50.000763%);fill-opacity:1;" d="M 164.542969 181.359375 L 179.5 172.722656 L 179.5 189.996094 Z M 164.542969 181.359375 "/>
<path style=" stroke:none;fill-rule:evenodd;fill:rgb(50.000763%,0%,50.000763%);fill-opacity:1;" d="M 179.5 189.996094 L 194.457031 181.359375 L 194.457031 198.632812 Z M 179.5 189.996094 "/>
<path style=" stroke:none;fill-rule:evenodd;fill:rgb(50.000763%,0%,50.000763%);fill-opacity:1;" d="M 194.457031 181.359375 L 209.417969 172.722656 L 209.417969 189.996094 Z M 194.457031 181.359375 "/>
<path style=" stroke:none;fill-rule:evenodd;fill:rgb(50.000763%,0%,50.000763%);fill-opacity:1;" d="M 194.457031 112.269531 L 209.417969 103.632812 L 209.417969 120.90625 Z M 194.457031 112.269531 "/>
<path style=" stroke:none;fill-rule:evenodd;fill:rgb(50.000763%,0%,50.000763%);fill-opacity:1;" d="M 149.582031 120.90625 L 164.542969 112.269531 L 164.542969 129.542969 Z M 149.582031 120.90625 "/>
<path style=" stroke:none;fill-rule:evenodd;fill:rgb(50.000763%,0%,50.000763%);fill-opacity:1;" d="M 134.625 146.816406 L 149.582031 138.179688 L 149.582031 155.453125 Z M 134.625 146.816406 "/>
<path style=" stroke:none;fill-rule:evenodd;fill:rgb(50.000763%,0%,50.000763%);fill-opacity:1;" d="M 134.625 164.085938 L 149.582031 155.453125 L 149.582031 172.722656 Z M 134.625 164.085938 "/>
<path style=" stroke:none;fill-rule:evenodd;fill:rgb(50.000763%,0%,50.000763%);fill-opacity:1;" d="M 149.582031 189.996094 L 164.542969 181.359375 L 164.542969 198.632812 Z M 149.582031 189.996094 "/>
<path style=" stroke:none;fill-rule:evenodd;fill:rgb(50.000763%,0%,50.000763%);fill-opacity:1;" d="M 194.457031 198.632812 L 209.417969 189.996094 L 209.417969 207.269531 Z M 194.457031 198.632812 "/>
<path style=" stroke:none;fill-rule:evenodd;fill:rgb(50.000763%,0%,50.000763%);fill-opacity:1;" d="M 239.332031 189.996094 L 254.292969 181.359375 L 254.292969 198.632812 Z M 239.332031 189.996094 "/>
<path style=" stroke:none;fill-rule:evenodd;fill:rgb(50.000763%,0%,50.000763%);fill-opacity:1;" d="M 239.332031 155.453125 L 254.292969 146.816406 L 254.292969 164.085938 Z M 239.332031 155.453125 "/>
<path style=" stroke:none;fill-rule:evenodd;fill:rgb(50.000763%,0%,50.000763%);fill-opacity:1;" d="M 239.332031 120.90625 L 254.292969 112.269531 L 254.292969 129.542969 Z M 239.332031 120.90625 "/>
<path style=" stroke:none;fill-rule:evenodd;fill:rgb(50.000763%,0%,50.000763%);fill-opacity:1;" d="M 119.667969 155.453125 L 134.625 146.816406 L 134.625 164.085938 Z M 119.667969 155.453125 "/>
<path style=" stroke:none;fill-rule:evenodd;fill:rgb(50.000763%,0%,50.000763%);fill-opacity:1;" d="M 254.292969 198.632812 L 269.25 189.996094 L 269.25 207.269531 Z M 254.292969 198.632812 "/>
<path style=" stroke:none;fill-rule:evenodd;fill:rgb(50.000763%,0%,50.000763%);fill-opacity:1;" d="M 254.292969 181.359375 L 269.25 172.722656 L 269.25 189.996094 Z M 254.292969 181.359375 "/>
<path style=" stroke:none;fill-rule:evenodd;fill:rgb(50.000763%,0%,50.000763%);fill-opacity:1;" d="M 254.292969 164.085938 L 269.25 155.453125 L 269.25 172.722656 Z M 254.292969 164.085938 "/>
<path style=" stroke:none;fill-rule:evenodd;fill:rgb(50.000763%,0%,50.000763%);fill-opacity:1;" d="M 254.292969 146.816406 L 269.25 138.179688 L 269.25 155.453125 Z M 254.292969 146.816406 "/>
<path style=" stroke:none;fill-rule:evenodd;fill:rgb(50.000763%,0%,50.000763%);fill-opacity:1;" d="M 254.292969 129.542969 L 269.25 120.90625 L 269.25 138.179688 Z M 254.292969 129.542969 "/>
<path style=" stroke:none;fill-rule:evenodd;fill:rgb(50.000763%,0%,50.000763%);fill-opacity:1;" d="M 254.292969 112.269531 L 269.25 103.632812 L 269.25 120.90625 Z M 254.292969 112.269531 "/>
<path style=" stroke:none;fill-rule:evenodd;fill:rgb(50.000763%,0%,50.000763%);fill-opacity:1;" d="M 239.332031 103.632812 L 254.292969 95 L 254.292969 112.269531 Z M 239.332031 103.632812 "/>
<path style=" stroke:none;fill-rule:evenodd;fill:rgb(50.000763%,0%,50.000763%);fill-opacity:1;" d="M 209.417969 86.363281 L 224.375 77.726562 L 224.375 95 Z M 209.417969 86.363281 "/>
<path style=" stroke:none;fill-rule:evenodd;fill:rgb(50.000763%,0%,50.000763%);fill-opacity:1;" d="M 179.5 69.089844 L 194.457031 60.453125 L 194.457031 77.726562 Z M 179.5 69.089844 "/>
<path style=" stroke:none;fill-rule:evenodd;fill:rgb(50.000763%,0%,50.000763%);fill-opacity:1;" d="M 164.542969 77.726562 L 179.5 69.089844 L 179.5 86.363281 Z M 164.542969 77.726562 "/>
<path style=" stroke:none;fill-rule:evenodd;fill:rgb(50.000763%,0%,50.000763%);fill-opacity:1;" d="M 134.625 95 L 149.582031 86.363281 L 149.582031 103.632812 Z M 134.625 95 "/>
<path style=" stroke:none;fill-rule:evenodd;fill:rgb(50.000763%,0%,50.000763%);fill-opacity:1;" d="M 104.707031 112.269531 L 119.667969 103.632812 L 119.667969 120.90625 Z M 104.707031 112.269531 "/>
<path style=" stroke:none;fill-rule:evenodd;fill:rgb(50.000763%,0%,50.000763%);fill-opacity:1;" d="M 104.707031 198.632812 L 119.667969 189.996094 L 119.667969 207.269531 Z M 104.707031 198.632812 "/>
<path style=" stroke:none;fill-rule:evenodd;fill:rgb(50.000763%,0%,50.000763%);fill-opacity:1;" d="M 134.625 215.90625 L 149.582031 207.269531 L 149.582031 224.542969 Z M 134.625 215.90625 "/>
<path style=" stroke:none;fill-rule:evenodd;fill:rgb(50.000763%,0%,50.000763%);fill-opacity:1;" d="M 164.542969 233.175781 L 179.5 224.542969 L 179.5 241.8125 Z M 164.542969 233.175781 "/>
<path style=" stroke:none;fill-rule:evenodd;fill:rgb(50.000763%,0%,50.000763%);fill-opacity:1;" d="M 179.5 241.8125 L 194.457031 233.175781 L 194.457031 250.449219 Z M 179.5 241.8125 "/>
<path style=" stroke:none;fill-rule:evenodd;fill:rgb(50.000763%,0%,50.000763%);fill-opacity:1;" d="M 209.417969 224.542969 L 224.375 215.90625 L 224.375 233.175781 Z M 209.417969 224.542969 "/>
<path style=" stroke:none;fill-rule:evenodd;fill:rgb(50.000763%,0%,50.000763%);fill-opacity:1;" d="M 239.332031 207.269531 L 254.292969 198.632812 L 254.292969 215.90625 Z M 239.332031 207.269531 "/>
<path style=" stroke:none;fill-rule:evenodd;fill:rgb(50.000763%,0%,50.000763%);fill-opacity:1;" d="M 269.25 172.722656 L 284.207031 164.085938 L 284.207031 181.359375 Z M 269.25 172.722656 "/>
<path style=" stroke:none;fill-rule:evenodd;fill:rgb(50.000763%,0%,50.000763%);fill-opacity:1;" d="M 269.25 155.453125 L 284.207031 146.816406 L 284.207031 164.085938 Z M 269.25 155.453125 "/>
<path style=" stroke:none;fill-rule:evenodd;fill:rgb(50.000763%,0%,50.000763%);fill-opacity:1;" d="M 269.25 138.179688 L 284.207031 129.542969 L 284.207031 146.816406 Z M 269.25 138.179688 "/>
<path style=" stroke:none;fill-rule:evenodd;fill:rgb(50.000763%,0%,50.000763%);fill-opacity:1;" d="M 254.292969 95 L 269.25 86.363281 L 269.25 103.632812 Z M 254.292969 95 "/>
<path style=" stroke:none;fill-rule:evenodd;fill:rgb(50.000763%,0%,50.000763%);fill-opacity:1;" d="M 239.332031 86.363281 L 254.292969 77.726562 L 254.292969 95 Z M 239.332031 86.363281 "/>
<path style=" stroke:none;fill-rule:evenodd;fill:rgb(50.000763%,0%,50.000763%);fill-opacity:1;" d="M 224.375 77.726562 L 239.332031 69.089844 L 239.332031 86.363281 Z M 224.375 77.726562 "/>
<path style=" stroke:none;fill-rule:evenodd;fill:rgb(50.000763%,0%,50.000763%);fill-opacity:1;" d="M 209.417969 69.089844 L 224.375 60.453125 L 224.375 77.726562 Z M 209.417969 69.089844 "/>
<path style=" stroke:none;fill-rule:evenodd;fill:rgb(50.000763%,0%,50.000763%);fill-opacity:1;" d="M 194.457031 60.453125 L 209.417969 51.816406 L 209.417969 69.089844 Z M 194.457031 60.453125 "/>
<path style=" stroke:none;fill-rule:evenodd;fill:rgb(50.000763%,0%,50.000763%);fill-opacity:1;" d="M 179.5 51.816406 L 194.457031 43.179688 L 194.457031 60.453125 Z M 179.5 51.816406 "/>
<path style=" stroke:none;fill-rule:evenodd;fill:rgb(50.000763%,0%,50.000763%);fill-opacity:1;" d="M 164.542969 60.453125 L 179.5 51.816406 L 179.5 69.089844 Z M 164.542969 60.453125 "/>
<path style=" stroke:none;fill-rule:evenodd;fill:rgb(50.000763%,0%,50.000763%);fill-opacity:1;" d="M 149.582031 69.089844 L 164.542969 60.453125 L 164.542969 77.726562 Z M 149.582031 69.089844 "/>
<path style=" stroke:none;fill-rule:evenodd;fill:rgb(50.000763%,0%,50.000763%);fill-opacity:1;" d="M 134.625 77.726562 L 149.582031 69.089844 L 149.582031 86.363281 Z M 134.625 77.726562 "/>
<path style=" stroke:none;fill-rule:evenodd;fill:rgb(50.000763%,0%,50.000763%);fill-opacity:1;" d="M 119.667969 86.363281 L 134.625 77.726562 L 134.625 95 Z M 119.667969 86.363281 "/>
<path style=" stroke:none;fill-rule:evenodd;fill:rgb(50.000763%,0%,50.000763%);fill-opacity:1;" d="M 104.707031 95 L 119.667969 86.363281 L 119.667969 103.632812 Z M 104.707031 95 "/>
<path style=" stroke:none;fill-rule:evenodd;fill:rgb(50.000763%,0%,50.000763%);fill-opacity:1;" d="M 89.75 103.632812 L 104.707031 95 L 104.707031 112.269531 Z M 89.75 103.632812 "/>
<path style=" stroke:none;fill-rule:evenodd;fill:rgb(50.000763%,0%,50.000763%);fill-opacity:1;" d="M 89.75 120.90625 L 104.707031 112.269531 L 104.707031 129.542969 Z M 89.75 120.90625 "/>
<path style=" stroke:none;fill-rule:evenodd;fill:rgb(50.000763%,0%,50.000763%);fill-opacity:1;" d="M 89.75 155.453125 L 104.707031 146.816406 L 104.707031 164.085938 Z M 89.75 155.453125 "/>
<path style=" stroke:none;fill-rule:evenodd;fill:rgb(50.000763%,0%,50.000763%);fill-opacity:1;" d="M 89.75 189.996094 L 104.707031 181.359375 L 104.707031 198.632812 Z M 89.75 189.996094 "/>
<path style=" stroke:none;fill-rule:evenodd;fill:rgb(50.000763%,0%,50.000763%);fill-opacity:1;" d="M 89.75 207.269531 L 104.707031 198.632812 L 104.707031 215.90625 Z M 89.75 207.269531 "/>
<path style=" stroke:none;fill-rule:evenodd;fill:rgb(50.000763%,0%,50.000763%);fill-opacity:1;" d="M 104.707031 215.90625 L 119.667969 207.269531 L 119.667969 224.542969 Z M 104.707031 215.90625 "/>
<path style=" stroke:none;fill-rule:evenodd;fill:rgb(50.000763%,0%,50.000763%);fill-opacity:1;" d="M 119.667969 224.542969 L 134.625 215.90625 L 134.625 233.175781 Z M 119.667969 224.542969 "/>
<path style=" stroke:none;fill-rule:evenodd;fill:rgb(50.000763%,0%,50.000763%);fill-opacity:1;" d="M 134.625 233.175781 L 149.582031 224.542969 L 149.582031 241.8125 Z M 134.625 233.175781 "/>
<path style=" stroke:none;fill-rule:evenodd;fill:rgb(50.000763%,0%,50.000763%);fill-opacity:1;" d="M 149.582031 241.8125 L 164.542969 233.175781 L 164.542969 250.449219 Z M 149.582031 241.8125 "/>
<path style=" stroke:none;fill-rule:evenodd;fill:rgb(50.000763%,0%,50.000763%);fill-opacity:1;" d="M 164.542969 250.449219 L 179.5 241.8125 L 179.5 259.085938 Z M 164.542969 250.449219 "/>
<path style=" stroke:none;fill-rule:evenodd;fill:rgb(50.000763%,0%,50.000763%);fill-opacity:1;" d="M 179.5 259.085938 L 194.457031 250.449219 L 194.457031 267.722656 Z M 179.5 259.085938 "/>
<path style=" stroke:none;fill-rule:evenodd;fill:rgb(50.000763%,0%,50.000763%);fill-opacity:1;" d="M 194.457031 250.449219 L 209.417969 241.8125 L 209.417969 259.085938 Z M 194.457031 250.449219 "/>
<path style=" stroke:none;fill-rule:evenodd;fill:rgb(50.000763%,0%,50.000763%);fill-opacity:1;" d="M 209.417969 241.8125 L 224.375 233.175781 L 224.375 250.449219 Z M 209.417969 241.8125 "/>
<path style=" stroke:none;fill-rule:evenodd;fill:rgb(50.000763%,0%,50.000763%);fill-opacity:1;" d="M 224.375 233.175781 L 239.332031 224.542969 L 239.332031 241.8125 Z M 224.375 233.175781 "/>
<path style=" stroke:none;fill-rule:evenodd;fill:rgb(50.000763%,0%,50.000763%);fill-opacity:1;" d="M 239.332031 224.542969 L 254.292969 215.90625 L 254.292969 233.175781 Z M 239.332031 224.542969 "/>
<path style=" stroke:none;fill-rule:evenodd;fill:rgb(50.000763%,0%,50.000763%);fill-opacity:1;" d="M 254.292969 215.90625 L 269.25 207.269531 L 269.25 224.542969 Z M 254.292969 215.90625 "/>
<path style=" stroke:none;fill-rule:evenodd;fill:rgb(50.000763%,0%,50.000763%);fill-opacity:1;" d="M 284.207031 215.90625 L 299.167969 207.269531 L 299.167969 224.542969 Z M 284.207031 215.90625 "/>
<path style=" stroke:none;fill-rule:evenodd;fill:rgb(50.000763%,0%,50.000763%);fill-opacity:1;" d="M 284.207031 181.359375 L 299.167969 172.722656 L 299.167969 189.996094 Z M 284.207031 181.359375 "/>
<path style=" stroke:none;fill-rule:evenodd;fill:rgb(50.000763%,0%,50.000763%);fill-opacity:1;" d="M 284.207031 129.542969 L 299.167969 120.90625 L 299.167969 138.179688 Z M 284.207031 129.542969 "/>
<path style=" stroke:none;fill-rule:evenodd;fill:rgb(50.000763%,0%,50.000763%);fill-opacity:1;" d="M 284.207031 95 L 299.167969 86.363281 L 299.167969 103.632812 Z M 284.207031 95 "/>
<path style=" stroke:none;fill-rule:evenodd;fill:rgb(50.000763%,0%,50.000763%);fill-opacity:1;" d="M 269.25 86.363281 L 284.207031 77.726562 L 284.207031 95 Z M 269.25 86.363281 "/>
<path style=" stroke:none;fill-rule:evenodd;fill:rgb(50.000763%,0%,50.000763%);fill-opacity:1;" d="M 254.292969 77.726562 L 269.25 69.089844 L 269.25 86.363281 Z M 254.292969 77.726562 "/>
<path style=" stroke:none;fill-rule:evenodd;fill:rgb(50.000763%,0%,50.000763%);fill-opacity:1;" d="M 194.457031 43.179688 L 209.417969 34.542969 L 209.417969 51.816406 Z M 194.457031 43.179688 "/>
<path style=" stroke:none;fill-rule:evenodd;fill:rgb(50.000763%,0%,50.000763%);fill-opacity:1;" d="M 179.5 34.542969 L 194.457031 25.910156 L 194.457031 43.179688 Z M 179.5 34.542969 "/>
<path style=" stroke:none;fill-rule:evenodd;fill:rgb(50.000763%,0%,50.000763%);fill-opacity:1;" d="M 134.625 60.453125 L 149.582031 51.816406 L 149.582031 69.089844 Z M 134.625 60.453125 "/>
<path style=" stroke:none;fill-rule:evenodd;fill:rgb(50.000763%,0%,50.000763%);fill-opacity:1;" d="M 119.667969 69.089844 L 134.625 60.453125 L 134.625 77.726562 Z M 119.667969 69.089844 "/>
<path style=" stroke:none;fill-rule:evenodd;fill:rgb(50.000763%,0%,50.000763%);fill-opacity:1;" d="M 104.707031 77.726562 L 119.667969 69.089844 L 119.667969 86.363281 Z M 104.707031 77.726562 "/>
<path style=" stroke:none;fill-rule:evenodd;fill:rgb(50.000763%,0%,50.000763%);fill-opacity:1;" d="M 74.792969 112.269531 L 89.75 103.632812 L 89.75 120.90625 Z M 74.792969 112.269531 "/>
<path style=" stroke:none;fill-rule:evenodd;fill:rgb(50.000763%,0%,50.000763%);fill-opacity:1;" d="M 74.792969 129.542969 L 89.75 120.90625 L 89.75 138.179688 Z M 74.792969 129.542969 "/>
<path style=" stroke:none;fill-rule:evenodd;fill:rgb(50.000763%,0%,50.000763%);fill-opacity:1;" d="M 74.792969 146.816406 L 89.75 138.179688 L 89.75 155.453125 Z M 74.792969 146.816406 "/>
<path style=" stroke:none;fill-rule:evenodd;fill:rgb(50.000763%,0%,50.000763%);fill-opacity:1;" d="M 74.792969 164.085938 L 89.75 155.453125 L 89.75 172.722656 Z M 74.792969 164.085938 "/>
<path style=" stroke:none;fill-rule:evenodd;fill:rgb(50.000763%,0%,50.000763%);fill-opacity:1;" d="M 74.792969 181.359375 L 89.75 172.722656 L 89.75 189.996094 Z M 74.792969 181.359375 "/>
<path style=" stroke:none;fill-rule:evenodd;fill:rgb(50.000763%,0%,50.000763%);fill-opacity:1;" d="M 74.792969 198.632812 L 89.75 189.996094 L 89.75 207.269531 Z M 74.792969 198.632812 "/>
<path style=" stroke:none;fill-rule:evenodd;fill:rgb(50.000763%,0%,50.000763%);fill-opacity:1;" d="M 104.707031 233.175781 L 119.667969 224.542969 L 119.667969 241.8125 Z M 104.707031 233.175781 "/>
<path style=" stroke:none;fill-rule:evenodd;fill:rgb(50.000763%,0%,50.000763%);fill-opacity:1;" d="M 119.667969 241.8125 L 134.625 233.175781 L 134.625 250.449219 Z M 119.667969 241.8125 "/>
<path style=" stroke:none;fill-rule:evenodd;fill:rgb(50.000763%,0%,50.000763%);fill-opacity:1;" d="M 134.625 250.449219 L 149.582031 241.8125 L 149.582031 259.085938 Z M 134.625 250.449219 "/>
<path style=" stroke:none;fill-rule:evenodd;fill:rgb(50.000763%,0%,50.000763%);fill-opacity:1;" d="M 179.5 276.359375 L 194.457031 267.722656 L 194.457031 284.996094 Z M 179.5 276.359375 "/>
<path style=" stroke:none;fill-rule:evenodd;fill:rgb(50.000763%,0%,50.000763%);fill-opacity:1;" d="M 194.457031 267.722656 L 209.417969 259.085938 L 209.417969 276.359375 Z M 194.457031 267.722656 "/>
<path style=" stroke:none;fill-rule:evenodd;fill:rgb(50.000763%,0%,50.000763%);fill-opacity:1;" d="M 254.292969 233.175781 L 269.25 224.542969 L 269.25 241.8125 Z M 254.292969 233.175781 "/>
<path style=" stroke:none;fill-rule:evenodd;fill:rgb(50.000763%,0%,50.000763%);fill-opacity:1;" d="M 269.25 224.542969 L 284.207031 215.90625 L 284.207031 233.175781 Z M 269.25 224.542969 "/>
<path style=" stroke:none;fill-rule:evenodd;fill:rgb(50.000763%,0%,50.000763%);fill-opacity:1;" d="M 299.167969 207.269531 L 314.125 198.632812 L 314.125 215.90625 Z M 299.167969 207.269531 "/>
<path style=" stroke:none;fill-rule:evenodd;fill:rgb(50.000763%,0%,50.000763%);fill-opacity:1;" d="M 299.167969 172.722656 L 314.125 164.085938 L 314.125 181.359375 Z M 299.167969 172.722656 "/>
<path style=" stroke:none;fill-rule:evenodd;fill:rgb(50.000763%,0%,50.000763%);fill-opacity:1;" d="M 299.167969 155.453125 L 314.125 146.816406 L 314.125 164.085938 Z M 299.167969 155.453125 "/>
<path style=" stroke:none;fill-rule:evenodd;fill:rgb(50.000763%,0%,50.000763%);fill-opacity:1;" d="M 299.167969 138.179688 L 314.125 129.542969 L 314.125 146.816406 Z M 299.167969 138.179688 "/>
<path style=" stroke:none;fill-rule:evenodd;fill:rgb(50.000763%,0%,50.000763%);fill-opacity:1;" d="M 299.167969 103.632812 L 314.125 95 L 314.125 112.269531 Z M 299.167969 103.632812 "/>
<path style=" stroke:none;fill-rule:evenodd;fill:rgb(50.000763%,0%,50.000763%);fill-opacity:1;" d="M 284.207031 77.726562 L 299.167969 69.089844 L 299.167969 86.363281 Z M 284.207031 77.726562 "/>
<path style=" stroke:none;fill-rule:evenodd;fill:rgb(50.000763%,0%,50.000763%);fill-opacity:1;" d="M 269.25 69.089844 L 284.207031 60.453125 L 284.207031 77.726562 Z M 269.25 69.089844 "/>
<path style=" stroke:none;fill-rule:evenodd;fill:rgb(50.000763%,0%,50.000763%);fill-opacity:1;" d="M 239.332031 51.816406 L 254.292969 43.179688 L 254.292969 60.453125 Z M 239.332031 51.816406 "/>
<path style=" stroke:none;fill-rule:evenodd;fill:rgb(50.000763%,0%,50.000763%);fill-opacity:1;" d="M 224.375 43.179688 L 239.332031 34.542969 L 239.332031 51.816406 Z M 224.375 43.179688 "/>
<path style=" stroke:none;fill-rule:evenodd;fill:rgb(50.000763%,0%,50.000763%);fill-opacity:1;" d="M 194.457031 25.910156 L 209.417969 17.273438 L 209.417969 34.542969 Z M 194.457031 25.910156 "/>
<path style=" stroke:none;fill-rule:evenodd;fill:rgb(50.000763%,0%,50.000763%);fill-opacity:1;" d="M 179.5 17.273438 L 194.457031 8.636719 L 194.457031 25.910156 Z M 179.5 17.273438 "/>
<path style=" stroke:none;fill-rule:evenodd;fill:rgb(50.000763%,0%,50.000763%);fill-opacity:1;" d="M 164.542969 25.910156 L 179.5 17.273438 L 179.5 34.542969 Z M 164.542969 25.910156 "/>
<path style=" stroke:none;fill-rule:evenodd;fill:rgb(50.000763%,0%,50.000763%);fill-opacity:1;" d="M 134.625 43.179688 L 149.582031 34.542969 L 149.582031 51.816406 Z M 134.625 43.179688 "/>
<path style=" stroke:none;fill-rule:evenodd;fill:rgb(50.000763%,0%,50.000763%);fill-opacity:1;" d="M 89.75 69.089844 L 104.707031 60.453125 L 104.707031 77.726562 Z M 89.75 69.089844 "/>
<path style=" stroke:none;fill-rule:evenodd;fill:rgb(50.000763%,0%,50.000763%);fill-opacity:1;" d="M 59.832031 86.363281 L 74.792969 77.726562 L 74.792969 95 Z M 59.832031 86.363281 "/>
<path style=" stroke:none;fill-rule:evenodd;fill:rgb(50.000763%,0%,50.000763%);fill-opacity:1;" d="M 59.832031 103.632812 L 74.792969 95 L 74.792969 112.269531 Z M 59.832031 103.632812 "/>
<path style=" stroke:none;fill-rule:evenodd;fill:rgb(50.000763%,0%,50.000763%);fill-opacity:1;" d="M 59.832031 120.90625 L 74.792969 112.269531 L 74.792969 129.542969 Z M 59.832031 120.90625 "/>
<path style=" stroke:none;fill-rule:evenodd;fill:rgb(50.000763%,0%,50.000763%);fill-opacity:1;" d="M 59.832031 189.996094 L 74.792969 181.359375 L 74.792969 198.632812 Z M 59.832031 189.996094 "/>
<path style=" stroke:none;fill-rule:evenodd;fill:rgb(50.000763%,0%,50.000763%);fill-opacity:1;" d="M 59.832031 207.269531 L 74.792969 198.632812 L 74.792969 215.90625 Z M 59.832031 207.269531 "/>
<path style=" stroke:none;fill-rule:evenodd;fill:rgb(50.000763%,0%,50.000763%);fill-opacity:1;" d="M 59.832031 224.542969 L 74.792969 215.90625 L 74.792969 233.175781 Z M 59.832031 224.542969 "/>
<path style=" stroke:none;fill-rule:evenodd;fill:rgb(50.000763%,0%,50.000763%);fill-opacity:1;" d="M 89.75 241.8125 L 104.707031 233.175781 L 104.707031 250.449219 Z M 89.75 241.8125 "/>
<path style=" stroke:none;fill-rule:evenodd;fill:rgb(50.000763%,0%,50.000763%);fill-opacity:1;" d="M 134.625 267.722656 L 149.582031 259.085938 L 149.582031 276.359375 Z M 134.625 267.722656 "/>
<path style=" stroke:none;fill-rule:evenodd;fill:rgb(50.000763%,0%,50.000763%);fill-opacity:1;" d="M 164.542969 284.996094 L 179.5 276.359375 L 179.5 293.628906 Z M 164.542969 284.996094 "/>
<path style=" stroke:none;fill-rule:evenodd;fill:rgb(50.000763%,0%,50.000763%);fill-opacity:1;" d="M 179.5 293.628906 L 194.457031 284.996094 L 194.457031 302.265625 Z M 179.5 293.628906 "/>
<path style=" stroke:none;fill-rule:evenodd;fill:rgb(50.000763%,0%,50.000763%);fill-opacity:1;" d="M 194.457031 284.996094 L 209.417969 276.359375 L 209.417969 293.628906 Z M 194.457031 284.996094 "/>
<path style=" stroke:none;fill-rule:evenodd;fill:rgb(50.000763%,0%,50.000763%);fill-opacity:1;" d="M 224.375 267.722656 L 239.332031 259.085938 L 239.332031 276.359375 Z M 224.375 267.722656 "/>
<path style=" stroke:none;fill-rule:evenodd;fill:rgb(50.000763%,0%,50.000763%);fill-opacity:1;" d="M 239.332031 259.085938 L 254.292969 250.449219 L 254.292969 267.722656 Z M 239.332031 259.085938 "/>
<path style=" stroke:none;fill-rule:evenodd;fill:rgb(50.000763%,0%,50.000763%);fill-opacity:1;" d="M 269.25 241.8125 L 284.207031 233.175781 L 284.207031 250.449219 Z M 269.25 241.8125 "/>
<path style=" stroke:none;fill-rule:evenodd;fill:rgb(50.000763%,0%,50.000763%);fill-opacity:1;" d="M 284.207031 233.175781 L 299.167969 224.542969 L 299.167969 241.8125 Z M 284.207031 233.175781 "/>
<path style=" stroke:none;fill-rule:evenodd;fill:rgb(50.000763%,0%,50.000763%);fill-opacity:1;" d="M 314.125 198.632812 L 329.082031 189.996094 L 329.082031 207.269531 Z M 314.125 198.632812 "/>
<path style=" stroke:none;fill-rule:evenodd;fill:rgb(50.000763%,0%,50.000763%);fill-opacity:1;" d="M 314.125 164.085938 L 329.082031 155.453125 L 329.082031 172.722656 Z M 314.125 164.085938 "/>
<path style=" stroke:none;fill-rule:evenodd;fill:rgb(50.000763%,0%,50.000763%);fill-opacity:1;" d="M 314.125 146.816406 L 329.082031 138.179688 L 329.082031 155.453125 Z M 314.125 146.816406 "/>
<path style=" stroke:none;fill-rule:evenodd;fill:rgb(50.000763%,0%,50.000763%);fill-opacity:1;" d="M 314.125 112.269531 L 329.082031 103.632812 L 329.082031 120.90625 Z M 314.125 112.269531 "/>
<path style=" stroke:none;fill-rule:evenodd;fill:rgb(50.000763%,0%,50.000763%);fill-opacity:1;" d="M 284.207031 60.453125 L 299.167969 51.816406 L 299.167969 69.089844 Z M 284.207031 60.453125 "/>
<path style=" stroke:none;fill-rule:evenodd;fill:rgb(50.000763%,0%,50.000763%);fill-opacity:1;" d="M 269.25 51.816406 L 284.207031 43.179688 L 284.207031 60.453125 Z M 269.25 51.816406 "/>
<path style=" stroke:none;fill-rule:evenodd;fill:rgb(50.000763%,0%,50.000763%);fill-opacity:1;" d="M 209.417969 17.273438 L 224.375 8.636719 L 224.375 25.910156 Z M 209.417969 17.273438 "/>
<path style=" stroke:none;fill-rule:evenodd;fill:rgb(50.000763%,0%,50.000763%);fill-opacity:1;" d="M 194.457031 8.636719 L 209.417969 0 L 209.417969 17.273438 Z M 194.457031 8.636719 "/>
<path style=" stroke:none;fill-rule:evenodd;fill:rgb(50.000763%,0%,50.000763%);fill-opacity:1;" d="M 149.582031 17.273438 L 164.542969 8.636719 L 164.542969 25.910156 Z M 149.582031 17.273438 "/>
<path style=" stroke:none;fill-rule:evenodd;fill:rgb(50.000763%,0%,50.000763%);fill-opacity:1;" d="M 119.667969 34.542969 L 134.625 25.910156 L 134.625 43.179688 Z M 119.667969 34.542969 "/>
<path style=" stroke:none;fill-rule:evenodd;fill:rgb(50.000763%,0%,50.000763%);fill-opacity:1;" d="M 104.707031 43.179688 L 119.667969 34.542969 L 119.667969 51.816406 Z M 104.707031 43.179688 "/>
<path style=" stroke:none;fill-rule:evenodd;fill:rgb(50.000763%,0%,50.000763%);fill-opacity:1;" d="M 89.75 51.816406 L 104.707031 43.179688 L 104.707031 60.453125 Z M 89.75 51.816406 "/>
<path style=" stroke:none;fill-rule:evenodd;fill:rgb(50.000763%,0%,50.000763%);fill-opacity:1;" d="M 59.832031 69.089844 L 74.792969 60.453125 L 74.792969 77.726562 Z M 59.832031 69.089844 "/>
<path style=" stroke:none;fill-rule:evenodd;fill:rgb(50.000763%,0%,50.000763%);fill-opacity:1;" d="M 44.875 95 L 59.832031 86.363281 L 59.832031 103.632812 Z M 44.875 95 "/>
<path style=" stroke:none;fill-rule:evenodd;fill:rgb(50.000763%,0%,50.000763%);fill-opacity:1;" d="M 44.875 112.269531 L 59.832031 103.632812 L 59.832031 120.90625 Z M 44.875 112.269531 "/>
<path style=" stroke:none;fill-rule:evenodd;fill:rgb(50.000763%,0%,50.000763%);fill-opacity:1;" d="M 44.875 146.816406 L 59.832031 138.179688 L 59.832031 155.453125 Z M 44.875 146.816406 "/>
<path style=" stroke:none;fill-rule:evenodd;fill:rgb(50.000763%,0%,50.000763%);fill-opacity:1;" d="M 44.875 164.085938 L 59.832031 155.453125 L 59.832031 172.722656 Z M 44.875 164.085938 "/>
<path style=" stroke:none;fill-rule:evenodd;fill:rgb(50.000763%,0%,50.000763%);fill-opacity:1;" d="M 44.875 198.632812 L 59.832031 189.996094 L 59.832031 207.269531 Z M 44.875 198.632812 "/>
<path style=" stroke:none;fill-rule:evenodd;fill:rgb(50.000763%,0%,50.000763%);fill-opacity:1;" d="M 44.875 215.90625 L 59.832031 207.269531 L 59.832031 224.542969 Z M 44.875 215.90625 "/>
<path style=" stroke:none;fill-rule:evenodd;fill:rgb(50.000763%,0%,50.000763%);fill-opacity:1;" d="M 59.832031 241.8125 L 74.792969 233.175781 L 74.792969 250.449219 Z M 59.832031 241.8125 "/>
<path style=" stroke:none;fill-rule:evenodd;fill:rgb(50.000763%,0%,50.000763%);fill-opacity:1;" d="M 89.75 259.085938 L 104.707031 250.449219 L 104.707031 267.722656 Z M 89.75 259.085938 "/>
<path style=" stroke:none;fill-rule:evenodd;fill:rgb(50.000763%,0%,50.000763%);fill-opacity:1;" d="M 104.707031 267.722656 L 119.667969 259.085938 L 119.667969 276.359375 Z M 104.707031 267.722656 "/>
<path style=" stroke:none;fill-rule:evenodd;fill:rgb(50.000763%,0%,50.000763%);fill-opacity:1;" d="M 119.667969 276.359375 L 134.625 267.722656 L 134.625 284.996094 Z M 119.667969 276.359375 "/>
<path style=" stroke:none;fill-rule:evenodd;fill:rgb(50.000763%,0%,50.000763%);fill-opacity:1;" d="M 149.582031 293.628906 L 164.542969 284.996094 L 164.542969 302.265625 Z M 149.582031 293.628906 "/>
<path style=" stroke:none;fill-rule:evenodd;fill:rgb(50.000763%,0%,50.000763%);fill-opacity:1;" d="M 194.457031 302.265625 L 209.417969 293.628906 L 209.417969 310.902344 Z M 194.457031 302.265625 "/>
<path style=" stroke:none;fill-rule:evenodd;fill:rgb(50.000763%,0%,50.000763%);fill-opacity:1;" d="M 209.417969 293.628906 L 224.375 284.996094 L 224.375 302.265625 Z M 209.417969 293.628906 "/>
<path style=" stroke:none;fill-rule:evenodd;fill:rgb(50.000763%,0%,50.000763%);fill-opacity:1;" d="M 269.25 259.085938 L 284.207031 250.449219 L 284.207031 267.722656 Z M 269.25 259.085938 "/>
<path style=" stroke:none;fill-rule:evenodd;fill:rgb(50.000763%,0%,50.000763%);fill-opacity:1;" d="M 284.207031 250.449219 L 299.167969 241.8125 L 299.167969 259.085938 Z M 284.207031 250.449219 "/>
<path style=" stroke:none;fill-rule:evenodd;fill:rgb(50.000763%,0%,50.000763%);fill-opacity:1;" d="M 329.082031 155.453125 L 344.042969 146.816406 L 344.042969 164.085938 Z M 329.082031 155.453125 "/>
<path style=" stroke:none;fill-rule:evenodd;fill:rgb(50.000763%,0%,50.000763%);fill-opacity:1;" d="M 254.292969 25.910156 L 269.25 17.273438 L 269.25 34.542969 Z M 254.292969 25.910156 "/>
<path style=" stroke:none;fill-rule:evenodd;fill:rgb(50.000763%,0%,50.000763%);fill-opacity:1;" d="M 239.332031 17.273438 L 254.292969 8.636719 L 254.292969 25.910156 Z M 239.332031 17.273438 "/>
<path style=" stroke:none;fill-rule:evenodd;fill:rgb(50.000763%,0%,50.000763%);fill-opacity:1;" d="M 134.625 8.636719 L 149.582031 0 L 149.582031 17.273438 Z M 134.625 8.636719 "/>
<path style=" stroke:none;fill-rule:evenodd;fill:rgb(50.000763%,0%,50.000763%);fill-opacity:1;" d="M 104.707031 25.910156 L 119.667969 17.273438 L 119.667969 34.542969 Z M 104.707031 25.910156 "/>
<path style=" stroke:none;fill-rule:evenodd;fill:rgb(50.000763%,0%,50.000763%);fill-opacity:1;" d="M 89.75 34.542969 L 104.707031 25.910156 L 104.707031 43.179688 Z M 89.75 34.542969 "/>
<path style=" stroke:none;fill-rule:evenodd;fill:rgb(50.000763%,0%,50.000763%);fill-opacity:1;" d="M 59.832031 51.816406 L 74.792969 43.179688 L 74.792969 60.453125 Z M 59.832031 51.816406 "/>
<path style=" stroke:none;fill-rule:evenodd;fill:rgb(50.000763%,0%,50.000763%);fill-opacity:1;" d="M 29.917969 103.632812 L 44.875 95 L 44.875 112.269531 Z M 29.917969 103.632812 "/>
<path style=" stroke:none;fill-rule:evenodd;fill:rgb(50.000763%,0%,50.000763%);fill-opacity:1;" d="M 29.917969 120.90625 L 44.875 112.269531 L 44.875 129.542969 Z M 29.917969 120.90625 "/>
<path style=" stroke:none;fill-rule:evenodd;fill:rgb(50.000763%,0%,50.000763%);fill-opacity:1;" d="M 29.917969 189.996094 L 44.875 181.359375 L 44.875 198.632812 Z M 29.917969 189.996094 "/>
<path style=" stroke:none;fill-rule:evenodd;fill:rgb(50.000763%,0%,50.000763%);fill-opacity:1;" d="M 29.917969 207.269531 L 44.875 198.632812 L 44.875 215.90625 Z M 29.917969 207.269531 "/>
<path style=" stroke:none;fill-rule:evenodd;fill:rgb(50.000763%,0%,50.000763%);fill-opacity:1;" d="M 59.832031 259.085938 L 74.792969 250.449219 L 74.792969 267.722656 Z M 59.832031 259.085938 "/>
<path style=" stroke:none;fill-rule:evenodd;fill:rgb(50.000763%,0%,50.000763%);fill-opacity:1;" d="M 89.75 276.359375 L 104.707031 267.722656 L 104.707031 284.996094 Z M 89.75 276.359375 "/>
<path style=" stroke:none;fill-rule:evenodd;fill:rgb(50.000763%,0%,50.000763%);fill-opacity:1;" d="M 104.707031 284.996094 L 119.667969 276.359375 L 119.667969 293.628906 Z M 104.707031 284.996094 "/>
<path style=" stroke:none;fill-rule:evenodd;fill:rgb(50.000763%,0%,50.000763%);fill-opacity:1;" d="M 134.625 302.265625 L 149.582031 293.628906 L 149.582031 310.902344 Z M 134.625 302.265625 "/>
<path style=" stroke:none;fill-rule:evenodd;fill:rgb(50.000763%,0%,50.000763%);fill-opacity:1;" d="M 239.332031 293.628906 L 254.292969 284.996094 L 254.292969 302.265625 Z M 239.332031 293.628906 "/>
<path style=" stroke:none;fill-rule:evenodd;fill:rgb(50.000763%,0%,50.000763%);fill-opacity:1;" d="M 254.292969 284.996094 L 269.25 276.359375 L 269.25 293.628906 Z M 254.292969 284.996094 "/>
<path style=" stroke:none;fill-rule:evenodd;fill:rgb(50.000763%,0%,50.000763%);fill-opacity:1;" d="M 254.292969 8.636719 L 269.25 0 L 269.25 17.273438 Z M 254.292969 8.636719 "/>
<path style=" stroke:none;fill-rule:evenodd;fill:rgb(50.000763%,0%,50.000763%);fill-opacity:1;" d="M 89.75 17.273438 L 104.707031 8.636719 L 104.707031 25.910156 Z M 89.75 17.273438 "/>
<path style=" stroke:none;fill-rule:evenodd;fill:rgb(50.000763%,0%,50.000763%);fill-opacity:1;" d="M 14.957031 146.816406 L 29.917969 138.179688 L 29.917969 155.453125 Z M 14.957031 146.816406 "/>
<path style=" stroke:none;fill-rule:evenodd;fill:rgb(50.000763%,0%,50.000763%);fill-opacity:1;" d="M 14.957031 164.085938 L 29.917969 155.453125 L 29.917969 172.722656 Z M 14.957031 164.085938 "/>
<path style=" stroke:none;fill-rule:evenodd;fill:rgb(50.000763%,0%,50.000763%);fill-opacity:1;" d="M 89.75 293.628906 L 104.707031 284.996094 L 104.707031 302.265625 Z M 89.75 293.628906 "/>
<path style=" stroke:none;fill-rule:evenodd;fill:rgb(50.000763%,0%,50.000763%);fill-opacity:1;" d="M 254.292969 302.265625 L 269.25 293.628906 L 269.25 310.902344 Z M 254.292969 302.265625 "/>
<path style=" stroke:none;fill-rule:evenodd;fill:rgb(50.000763%,0%,50.000763%);fill-opacity:1;" d="M 0 155.453125 L 14.957031 146.816406 L 14.957031 164.085938 Z M 0 155.453125 "/>
<path style=" stroke:none;fill-rule:evenodd;fill:rgb(50.000763%,0%,50.000763%);fill-opacity:1;" d="M 209.417969 155.453125 L 194.457031 146.816406 L 194.457031 164.085938 Z M 209.417969 155.453125 "/>
<path style=" stroke:none;fill-rule:evenodd;fill:rgb(50.000763%,0%,50.000763%);fill-opacity:1;" d="M 194.457031 146.816406 L 179.5 138.179688 L 179.5 155.453125 Z M 194.457031 146.816406 "/>
<path style=" stroke:none;fill-rule:evenodd;fill:rgb(50.000763%,0%,50.000763%);fill-opacity:1;" d="M 194.457031 164.085938 L 179.5 155.453125 L 179.5 172.722656 Z M 194.457031 164.085938 "/>
<path style=" stroke:none;fill-rule:evenodd;fill:rgb(50.000763%,0%,50.000763%);fill-opacity:1;" d="M 224.375 164.085938 L 209.417969 155.453125 L 209.417969 172.722656 Z M 224.375 164.085938 "/>
<path style=" stroke:none;fill-rule:evenodd;fill:rgb(50.000763%,0%,50.000763%);fill-opacity:1;" d="M 224.375 146.816406 L 209.417969 138.179688 L 209.417969 155.453125 Z M 224.375 146.816406 "/>
<path style=" stroke:none;fill-rule:evenodd;fill:rgb(50.000763%,0%,50.000763%);fill-opacity:1;" d="M 209.417969 138.179688 L 194.457031 129.542969 L 194.457031 146.816406 Z M 209.417969 138.179688 "/>
<path style=" stroke:none;fill-rule:evenodd;fill:rgb(50.000763%,0%,50.000763%);fill-opacity:1;" d="M 194.457031 129.542969 L 179.5 120.90625 L 179.5 138.179688 Z M 194.457031 129.542969 "/>
<path style=" stroke:none;fill-rule:evenodd;fill:rgb(50.000763%,0%,50.000763%);fill-opacity:1;" d="M 179.5 138.179688 L 164.542969 129.542969 L 164.542969 146.816406 Z M 179.5 138.179688 "/>
<path style=" stroke:none;fill-rule:evenodd;fill:rgb(50.000763%,0%,50.000763%);fill-opacity:1;" d="M 179.5 155.453125 L 164.542969 146.816406 L 164.542969 164.085938 Z M 179.5 155.453125 "/>
<path style=" stroke:none;fill-rule:evenodd;fill:rgb(50.000763%,0%,50.000763%);fill-opacity:1;" d="M 179.5 172.722656 L 164.542969 164.085938 L 164.542969 181.359375 Z M 179.5 172.722656 "/>
<path style=" stroke:none;fill-rule:evenodd;fill:rgb(50.000763%,0%,50.000763%);fill-opacity:1;" d="M 194.457031 181.359375 L 179.5 172.722656 L 179.5 189.996094 Z M 194.457031 181.359375 "/>
<path style=" stroke:none;fill-rule:evenodd;fill:rgb(50.000763%,0%,50.000763%);fill-opacity:1;" d="M 209.417969 172.722656 L 194.457031 164.085938 L 194.457031 181.359375 Z M 209.417969 172.722656 "/>
<path style=" stroke:none;fill-rule:evenodd;fill:rgb(50.000763%,0%,50.000763%);fill-opacity:1;" d="M 239.332031 155.453125 L 224.375 146.816406 L 224.375 164.085938 Z M 239.332031 155.453125 "/>
<path style=" stroke:none;fill-rule:evenodd;fill:rgb(50.000763%,0%,50.000763%);fill-opacity:1;" d="M 209.417969 120.90625 L 194.457031 112.269531 L 194.457031 129.542969 Z M 209.417969 120.90625 "/>
<path style=" stroke:none;fill-rule:evenodd;fill:rgb(50.000763%,0%,50.000763%);fill-opacity:1;" d="M 179.5 120.90625 L 164.542969 112.269531 L 164.542969 129.542969 Z M 179.5 120.90625 "/>
<path style=" stroke:none;fill-rule:evenodd;fill:rgb(50.000763%,0%,50.000763%);fill-opacity:1;" d="M 164.542969 129.542969 L 149.582031 120.90625 L 149.582031 138.179688 Z M 164.542969 129.542969 "/>
<path style=" stroke:none;fill-rule:evenodd;fill:rgb(50.000763%,0%,50.000763%);fill-opacity:1;" d="M 164.542969 146.816406 L 149.582031 138.179688 L 149.582031 155.453125 Z M 164.542969 146.816406 "/>
<path style=" stroke:none;fill-rule:evenodd;fill:rgb(50.000763%,0%,50.000763%);fill-opacity:1;" d="M 164.542969 164.085938 L 149.582031 155.453125 L 149.582031 172.722656 Z M 164.542969 164.085938 "/>
<path style=" stroke:none;fill-rule:evenodd;fill:rgb(50.000763%,0%,50.000763%);fill-opacity:1;" d="M 164.542969 181.359375 L 149.582031 172.722656 L 149.582031 189.996094 Z M 164.542969 181.359375 "/>
<path style=" stroke:none;fill-rule:evenodd;fill:rgb(50.000763%,0%,50.000763%);fill-opacity:1;" d="M 179.5 189.996094 L 164.542969 181.359375 L 164.542969 198.632812 Z M 179.5 189.996094 "/>
<path style=" stroke:none;fill-rule:evenodd;fill:rgb(50.000763%,0%,50.000763%);fill-opacity:1;" d="M 209.417969 189.996094 L 194.457031 181.359375 L 194.457031 198.632812 Z M 209.417969 189.996094 "/>
<path style=" stroke:none;fill-rule:evenodd;fill:rgb(50.000763%,0%,50.000763%);fill-opacity:1;" d="M 164.542969 112.269531 L 149.582031 103.632812 L 149.582031 120.90625 Z M 164.542969 112.269531 "/>
<path style=" stroke:none;fill-rule:evenodd;fill:rgb(50.000763%,0%,50.000763%);fill-opacity:1;" d="M 149.582031 155.453125 L 134.625 146.816406 L 134.625 164.085938 Z M 149.582031 155.453125 "/>
<path style=" stroke:none;fill-rule:evenodd;fill:rgb(50.000763%,0%,50.000763%);fill-opacity:1;" d="M 164.542969 198.632812 L 149.582031 189.996094 L 149.582031 207.269531 Z M 164.542969 198.632812 "/>
<path style=" stroke:none;fill-rule:evenodd;fill:rgb(50.000763%,0%,50.000763%);fill-opacity:1;" d="M 269.25 189.996094 L 254.292969 181.359375 L 254.292969 198.632812 Z M 269.25 189.996094 "/>
<path style=" stroke:none;fill-rule:evenodd;fill:rgb(50.000763%,0%,50.000763%);fill-opacity:1;" d="M 269.25 155.453125 L 254.292969 146.816406 L 254.292969 164.085938 Z M 269.25 155.453125 "/>
<path style=" stroke:none;fill-rule:evenodd;fill:rgb(50.000763%,0%,50.000763%);fill-opacity:1;" d="M 269.25 120.90625 L 254.292969 112.269531 L 254.292969 129.542969 Z M 269.25 120.90625 "/>
<path style=" stroke:none;fill-rule:evenodd;fill:rgb(50.000763%,0%,50.000763%);fill-opacity:1;" d="M 254.292969 112.269531 L 239.332031 103.632812 L 239.332031 120.90625 Z M 254.292969 112.269531 "/>
<path style=" stroke:none;fill-rule:evenodd;fill:rgb(50.000763%,0%,50.000763%);fill-opacity:1;" d="M 224.375 95 L 209.417969 86.363281 L 209.417969 103.632812 Z M 224.375 95 "/>
<path style=" stroke:none;fill-rule:evenodd;fill:rgb(50.000763%,0%,50.000763%);fill-opacity:1;" d="M 194.457031 77.726562 L 179.5 69.089844 L 179.5 86.363281 Z M 194.457031 77.726562 "/>
<path style=" stroke:none;fill-rule:evenodd;fill:rgb(50.000763%,0%,50.000763%);fill-opacity:1;" d="M 194.457031 233.175781 L 179.5 224.542969 L 179.5 241.8125 Z M 194.457031 233.175781 "/>
<path style=" stroke:none;fill-rule:evenodd;fill:rgb(50.000763%,0%,50.000763%);fill-opacity:1;" d="M 224.375 215.90625 L 209.417969 207.269531 L 209.417969 224.542969 Z M 224.375 215.90625 "/>
<path style=" stroke:none;fill-rule:evenodd;fill:rgb(50.000763%,0%,50.000763%);fill-opacity:1;" d="M 254.292969 198.632812 L 239.332031 189.996094 L 239.332031 207.269531 Z M 254.292969 198.632812 "/>
<path style=" stroke:none;fill-rule:evenodd;fill:rgb(50.000763%,0%,50.000763%);fill-opacity:1;" d="M 284.207031 198.632812 L 269.25 189.996094 L 269.25 207.269531 Z M 284.207031 198.632812 "/>
<path style=" stroke:none;fill-rule:evenodd;fill:rgb(50.000763%,0%,50.000763%);fill-opacity:1;" d="M 284.207031 181.359375 L 269.25 172.722656 L 269.25 189.996094 Z M 284.207031 181.359375 "/>
<path style=" stroke:none;fill-rule:evenodd;fill:rgb(50.000763%,0%,50.000763%);fill-opacity:1;" d="M 284.207031 164.085938 L 269.25 155.453125 L 269.25 172.722656 Z M 284.207031 164.085938 "/>
<path style=" stroke:none;fill-rule:evenodd;fill:rgb(50.000763%,0%,50.000763%);fill-opacity:1;" d="M 284.207031 146.816406 L 269.25 138.179688 L 269.25 155.453125 Z M 284.207031 146.816406 "/>
<path style=" stroke:none;fill-rule:evenodd;fill:rgb(50.000763%,0%,50.000763%);fill-opacity:1;" d="M 284.207031 129.542969 L 269.25 120.90625 L 269.25 138.179688 Z M 284.207031 129.542969 "/>
<path style=" stroke:none;fill-rule:evenodd;fill:rgb(50.000763%,0%,50.000763%);fill-opacity:1;" d="M 284.207031 112.269531 L 269.25 103.632812 L 269.25 120.90625 Z M 284.207031 112.269531 "/>
<path style=" stroke:none;fill-rule:evenodd;fill:rgb(50.000763%,0%,50.000763%);fill-opacity:1;" d="M 269.25 103.632812 L 254.292969 95 L 254.292969 112.269531 Z M 269.25 103.632812 "/>
<path style=" stroke:none;fill-rule:evenodd;fill:rgb(50.000763%,0%,50.000763%);fill-opacity:1;" d="M 254.292969 95 L 239.332031 86.363281 L 239.332031 103.632812 Z M 254.292969 95 "/>
<path style=" stroke:none;fill-rule:evenodd;fill:rgb(50.000763%,0%,50.000763%);fill-opacity:1;" d="M 239.332031 86.363281 L 224.375 77.726562 L 224.375 95 Z M 239.332031 86.363281 "/>
<path style=" stroke:none;fill-rule:evenodd;fill:rgb(50.000763%,0%,50.000763%);fill-opacity:1;" d="M 224.375 77.726562 L 209.417969 69.089844 L 209.417969 86.363281 Z M 224.375 77.726562 "/>
<path style=" stroke:none;fill-rule:evenodd;fill:rgb(50.000763%,0%,50.000763%);fill-opacity:1;" d="M 209.417969 69.089844 L 194.457031 60.453125 L 194.457031 77.726562 Z M 209.417969 69.089844 "/>
<path style=" stroke:none;fill-rule:evenodd;fill:rgb(50.000763%,0%,50.000763%);fill-opacity:1;" d="M 194.457031 60.453125 L 179.5 51.816406 L 179.5 69.089844 Z M 194.457031 60.453125 "/>
<path style=" stroke:none;fill-rule:evenodd;fill:rgb(50.000763%,0%,50.000763%);fill-opacity:1;" d="M 179.5 69.089844 L 164.542969 60.453125 L 164.542969 77.726562 Z M 179.5 69.089844 "/>
<path style=" stroke:none;fill-rule:evenodd;fill:rgb(50.000763%,0%,50.000763%);fill-opacity:1;" d="M 149.582031 86.363281 L 134.625 77.726562 L 134.625 95 Z M 149.582031 86.363281 "/>
<path style=" stroke:none;fill-rule:evenodd;fill:rgb(50.000763%,0%,50.000763%);fill-opacity:1;" d="M 119.667969 103.632812 L 104.707031 95 L 104.707031 112.269531 Z M 119.667969 103.632812 "/>
<path style=" stroke:none;fill-rule:evenodd;fill:rgb(50.000763%,0%,50.000763%);fill-opacity:1;" d="M 119.667969 120.90625 L 104.707031 112.269531 L 104.707031 129.542969 Z M 119.667969 120.90625 "/>
<path style=" stroke:none;fill-rule:evenodd;fill:rgb(50.000763%,0%,50.000763%);fill-opacity:1;" d="M 119.667969 155.453125 L 104.707031 146.816406 L 104.707031 164.085938 Z M 119.667969 155.453125 "/>
<path style=" stroke:none;fill-rule:evenodd;fill:rgb(50.000763%,0%,50.000763%);fill-opacity:1;" d="M 119.667969 189.996094 L 104.707031 181.359375 L 104.707031 198.632812 Z M 119.667969 189.996094 "/>
<path style=" stroke:none;fill-rule:evenodd;fill:rgb(50.000763%,0%,50.000763%);fill-opacity:1;" d="M 119.667969 207.269531 L 104.707031 198.632812 L 104.707031 215.90625 Z M 119.667969 207.269531 "/>
<path style=" stroke:none;fill-rule:evenodd;fill:rgb(50.000763%,0%,50.000763%);fill-opacity:1;" d="M 149.582031 224.542969 L 134.625 215.90625 L 134.625 233.175781 Z M 149.582031 224.542969 "/>
<path style=" stroke:none;fill-rule:evenodd;fill:rgb(50.000763%,0%,50.000763%);fill-opacity:1;" d="M 179.5 241.8125 L 164.542969 233.175781 L 164.542969 250.449219 Z M 179.5 241.8125 "/>
<path style=" stroke:none;fill-rule:evenodd;fill:rgb(50.000763%,0%,50.000763%);fill-opacity:1;" d="M 194.457031 250.449219 L 179.5 241.8125 L 179.5 259.085938 Z M 194.457031 250.449219 "/>
<path style=" stroke:none;fill-rule:evenodd;fill:rgb(50.000763%,0%,50.000763%);fill-opacity:1;" d="M 209.417969 241.8125 L 194.457031 233.175781 L 194.457031 250.449219 Z M 209.417969 241.8125 "/>
<path style=" stroke:none;fill-rule:evenodd;fill:rgb(50.000763%,0%,50.000763%);fill-opacity:1;" d="M 224.375 233.175781 L 209.417969 224.542969 L 209.417969 241.8125 Z M 224.375 233.175781 "/>
<path style=" stroke:none;fill-rule:evenodd;fill:rgb(50.000763%,0%,50.000763%);fill-opacity:1;" d="M 239.332031 224.542969 L 224.375 215.90625 L 224.375 233.175781 Z M 239.332031 224.542969 "/>
<path style=" stroke:none;fill-rule:evenodd;fill:rgb(50.000763%,0%,50.000763%);fill-opacity:1;" d="M 254.292969 215.90625 L 239.332031 207.269531 L 239.332031 224.542969 Z M 254.292969 215.90625 "/>
<path style=" stroke:none;fill-rule:evenodd;fill:rgb(50.000763%,0%,50.000763%);fill-opacity:1;" d="M 269.25 207.269531 L 254.292969 198.632812 L 254.292969 215.90625 Z M 269.25 207.269531 "/>
<path style=" stroke:none;fill-rule:evenodd;fill:rgb(50.000763%,0%,50.000763%);fill-opacity:1;" d="M 299.167969 207.269531 L 284.207031 198.632812 L 284.207031 215.90625 Z M 299.167969 207.269531 "/>
<path style=" stroke:none;fill-rule:evenodd;fill:rgb(50.000763%,0%,50.000763%);fill-opacity:1;" d="M 299.167969 189.996094 L 284.207031 181.359375 L 284.207031 198.632812 Z M 299.167969 189.996094 "/>
<path style=" stroke:none;fill-rule:evenodd;fill:rgb(50.000763%,0%,50.000763%);fill-opacity:1;" d="M 299.167969 120.90625 L 284.207031 112.269531 L 284.207031 129.542969 Z M 299.167969 120.90625 "/>
<path style=" stroke:none;fill-rule:evenodd;fill:rgb(50.000763%,0%,50.000763%);fill-opacity:1;" d="M 299.167969 103.632812 L 284.207031 95 L 284.207031 112.269531 Z M 299.167969 103.632812 "/>
<path style=" stroke:none;fill-rule:evenodd;fill:rgb(50.000763%,0%,50.000763%);fill-opacity:1;" d="M 254.292969 77.726562 L 239.332031 69.089844 L 239.332031 86.363281 Z M 254.292969 77.726562 "/>
<path style=" stroke:none;fill-rule:evenodd;fill:rgb(50.000763%,0%,50.000763%);fill-opacity:1;" d="M 239.332031 69.089844 L 224.375 60.453125 L 224.375 77.726562 Z M 239.332031 69.089844 "/>
<path style=" stroke:none;fill-rule:evenodd;fill:rgb(50.000763%,0%,50.000763%);fill-opacity:1;" d="M 224.375 60.453125 L 209.417969 51.816406 L 209.417969 69.089844 Z M 224.375 60.453125 "/>
<path style=" stroke:none;fill-rule:evenodd;fill:rgb(50.000763%,0%,50.000763%);fill-opacity:1;" d="M 179.5 51.816406 L 164.542969 43.179688 L 164.542969 60.453125 Z M 179.5 51.816406 "/>
<path style=" stroke:none;fill-rule:evenodd;fill:rgb(50.000763%,0%,50.000763%);fill-opacity:1;" d="M 164.542969 60.453125 L 149.582031 51.816406 L 149.582031 69.089844 Z M 164.542969 60.453125 "/>
<path style=" stroke:none;fill-rule:evenodd;fill:rgb(50.000763%,0%,50.000763%);fill-opacity:1;" d="M 149.582031 69.089844 L 134.625 60.453125 L 134.625 77.726562 Z M 149.582031 69.089844 "/>
<path style=" stroke:none;fill-rule:evenodd;fill:rgb(50.000763%,0%,50.000763%);fill-opacity:1;" d="M 134.625 77.726562 L 119.667969 69.089844 L 119.667969 86.363281 Z M 134.625 77.726562 "/>
<path style=" stroke:none;fill-rule:evenodd;fill:rgb(50.000763%,0%,50.000763%);fill-opacity:1;" d="M 119.667969 86.363281 L 104.707031 77.726562 L 104.707031 95 Z M 119.667969 86.363281 "/>
<path style=" stroke:none;fill-rule:evenodd;fill:rgb(50.000763%,0%,50.000763%);fill-opacity:1;" d="M 104.707031 95 L 89.75 86.363281 L 89.75 103.632812 Z M 104.707031 95 "/>
<path style=" stroke:none;fill-rule:evenodd;fill:rgb(50.000763%,0%,50.000763%);fill-opacity:1;" d="M 104.707031 112.269531 L 89.75 103.632812 L 89.75 120.90625 Z M 104.707031 112.269531 "/>
<path style=" stroke:none;fill-rule:evenodd;fill:rgb(50.000763%,0%,50.000763%);fill-opacity:1;" d="M 104.707031 129.542969 L 89.75 120.90625 L 89.75 138.179688 Z M 104.707031 129.542969 "/>
<path style=" stroke:none;fill-rule:evenodd;fill:rgb(50.000763%,0%,50.000763%);fill-opacity:1;" d="M 104.707031 146.816406 L 89.75 138.179688 L 89.75 155.453125 Z M 104.707031 146.816406 "/>
<path style=" stroke:none;fill-rule:evenodd;fill:rgb(50.000763%,0%,50.000763%);fill-opacity:1;" d="M 104.707031 164.085938 L 89.75 155.453125 L 89.75 172.722656 Z M 104.707031 164.085938 "/>
<path style=" stroke:none;fill-rule:evenodd;fill:rgb(50.000763%,0%,50.000763%);fill-opacity:1;" d="M 104.707031 181.359375 L 89.75 172.722656 L 89.75 189.996094 Z M 104.707031 181.359375 "/>
<path style=" stroke:none;fill-rule:evenodd;fill:rgb(50.000763%,0%,50.000763%);fill-opacity:1;" d="M 104.707031 198.632812 L 89.75 189.996094 L 89.75 207.269531 Z M 104.707031 198.632812 "/>
<path style=" stroke:none;fill-rule:evenodd;fill:rgb(50.000763%,0%,50.000763%);fill-opacity:1;" d="M 104.707031 215.90625 L 89.75 207.269531 L 89.75 224.542969 Z M 104.707031 215.90625 "/>
<path style=" stroke:none;fill-rule:evenodd;fill:rgb(50.000763%,0%,50.000763%);fill-opacity:1;" d="M 119.667969 224.542969 L 104.707031 215.90625 L 104.707031 233.175781 Z M 119.667969 224.542969 "/>
<path style=" stroke:none;fill-rule:evenodd;fill:rgb(50.000763%,0%,50.000763%);fill-opacity:1;" d="M 134.625 233.175781 L 119.667969 224.542969 L 119.667969 241.8125 Z M 134.625 233.175781 "/>
<path style=" stroke:none;fill-rule:evenodd;fill:rgb(50.000763%,0%,50.000763%);fill-opacity:1;" d="M 149.582031 241.8125 L 134.625 233.175781 L 134.625 250.449219 Z M 149.582031 241.8125 "/>
<path style=" stroke:none;fill-rule:evenodd;fill:rgb(50.000763%,0%,50.000763%);fill-opacity:1;" d="M 164.542969 250.449219 L 149.582031 241.8125 L 149.582031 259.085938 Z M 164.542969 250.449219 "/>
<path style=" stroke:none;fill-rule:evenodd;fill:rgb(50.000763%,0%,50.000763%);fill-opacity:1;" d="M 179.5 259.085938 L 164.542969 250.449219 L 164.542969 267.722656 Z M 179.5 259.085938 "/>
<path style=" stroke:none;fill-rule:evenodd;fill:rgb(50.000763%,0%,50.000763%);fill-opacity:1;" d="M 224.375 250.449219 L 209.417969 241.8125 L 209.417969 259.085938 Z M 224.375 250.449219 "/>
<path style=" stroke:none;fill-rule:evenodd;fill:rgb(50.000763%,0%,50.000763%);fill-opacity:1;" d="M 239.332031 241.8125 L 224.375 233.175781 L 224.375 250.449219 Z M 239.332031 241.8125 "/>
<path style=" stroke:none;fill-rule:evenodd;fill:rgb(50.000763%,0%,50.000763%);fill-opacity:1;" d="M 254.292969 233.175781 L 239.332031 224.542969 L 239.332031 241.8125 Z M 254.292969 233.175781 "/>
<path style=" stroke:none;fill-rule:evenodd;fill:rgb(50.000763%,0%,50.000763%);fill-opacity:1;" d="M 314.125 215.90625 L 299.167969 207.269531 L 299.167969 224.542969 Z M 314.125 215.90625 "/>
<path style=" stroke:none;fill-rule:evenodd;fill:rgb(50.000763%,0%,50.000763%);fill-opacity:1;" d="M 314.125 198.632812 L 299.167969 189.996094 L 299.167969 207.269531 Z M 314.125 198.632812 "/>
<path style=" stroke:none;fill-rule:evenodd;fill:rgb(50.000763%,0%,50.000763%);fill-opacity:1;" d="M 314.125 164.085938 L 299.167969 155.453125 L 299.167969 172.722656 Z M 314.125 164.085938 "/>
<path style=" stroke:none;fill-rule:evenodd;fill:rgb(50.000763%,0%,50.000763%);fill-opacity:1;" d="M 314.125 146.816406 L 299.167969 138.179688 L 299.167969 155.453125 Z M 314.125 146.816406 "/>
<path style=" stroke:none;fill-rule:evenodd;fill:rgb(50.000763%,0%,50.000763%);fill-opacity:1;" d="M 314.125 112.269531 L 299.167969 103.632812 L 299.167969 120.90625 Z M 314.125 112.269531 "/>
<path style=" stroke:none;fill-rule:evenodd;fill:rgb(50.000763%,0%,50.000763%);fill-opacity:1;" d="M 314.125 95 L 299.167969 86.363281 L 299.167969 103.632812 Z M 314.125 95 "/>
<path style=" stroke:none;fill-rule:evenodd;fill:rgb(50.000763%,0%,50.000763%);fill-opacity:1;" d="M 299.167969 86.363281 L 284.207031 77.726562 L 284.207031 95 Z M 299.167969 86.363281 "/>
<path style=" stroke:none;fill-rule:evenodd;fill:rgb(50.000763%,0%,50.000763%);fill-opacity:1;" d="M 269.25 69.089844 L 254.292969 60.453125 L 254.292969 77.726562 Z M 269.25 69.089844 "/>
<path style=" stroke:none;fill-rule:evenodd;fill:rgb(50.000763%,0%,50.000763%);fill-opacity:1;" d="M 224.375 43.179688 L 209.417969 34.542969 L 209.417969 51.816406 Z M 224.375 43.179688 "/>
<path style=" stroke:none;fill-rule:evenodd;fill:rgb(50.000763%,0%,50.000763%);fill-opacity:1;" d="M 194.457031 25.910156 L 179.5 17.273438 L 179.5 34.542969 Z M 194.457031 25.910156 "/>
<path style=" stroke:none;fill-rule:evenodd;fill:rgb(50.000763%,0%,50.000763%);fill-opacity:1;" d="M 179.5 34.542969 L 164.542969 25.910156 L 164.542969 43.179688 Z M 179.5 34.542969 "/>
<path style=" stroke:none;fill-rule:evenodd;fill:rgb(50.000763%,0%,50.000763%);fill-opacity:1;" d="M 164.542969 43.179688 L 149.582031 34.542969 L 149.582031 51.816406 Z M 164.542969 43.179688 "/>
<path style=" stroke:none;fill-rule:evenodd;fill:rgb(50.000763%,0%,50.000763%);fill-opacity:1;" d="M 104.707031 77.726562 L 89.75 69.089844 L 89.75 86.363281 Z M 104.707031 77.726562 "/>
<path style=" stroke:none;fill-rule:evenodd;fill:rgb(50.000763%,0%,50.000763%);fill-opacity:1;" d="M 89.75 86.363281 L 74.792969 77.726562 L 74.792969 95 Z M 89.75 86.363281 "/>
<path style=" stroke:none;fill-rule:evenodd;fill:rgb(50.000763%,0%,50.000763%);fill-opacity:1;" d="M 89.75 138.179688 L 74.792969 129.542969 L 74.792969 146.816406 Z M 89.75 138.179688 "/>
<path style=" stroke:none;fill-rule:evenodd;fill:rgb(50.000763%,0%,50.000763%);fill-opacity:1;" d="M 89.75 155.453125 L 74.792969 146.816406 L 74.792969 164.085938 Z M 89.75 155.453125 "/>
<path style=" stroke:none;fill-rule:evenodd;fill:rgb(50.000763%,0%,50.000763%);fill-opacity:1;" d="M 89.75 172.722656 L 74.792969 164.085938 L 74.792969 181.359375 Z M 89.75 172.722656 "/>
<path style=" stroke:none;fill-rule:evenodd;fill:rgb(50.000763%,0%,50.000763%);fill-opacity:1;" d="M 89.75 224.542969 L 74.792969 215.90625 L 74.792969 233.175781 Z M 89.75 224.542969 "/>
<path style=" stroke:none;fill-rule:evenodd;fill:rgb(50.000763%,0%,50.000763%);fill-opacity:1;" d="M 104.707031 233.175781 L 89.75 224.542969 L 89.75 241.8125 Z M 104.707031 233.175781 "/>
<path style=" stroke:none;fill-rule:evenodd;fill:rgb(50.000763%,0%,50.000763%);fill-opacity:1;" d="M 164.542969 267.722656 L 149.582031 259.085938 L 149.582031 276.359375 Z M 164.542969 267.722656 "/>
<path style=" stroke:none;fill-rule:evenodd;fill:rgb(50.000763%,0%,50.000763%);fill-opacity:1;" d="M 179.5 276.359375 L 164.542969 267.722656 L 164.542969 284.996094 Z M 179.5 276.359375 "/>
<path style=" stroke:none;fill-rule:evenodd;fill:rgb(50.000763%,0%,50.000763%);fill-opacity:1;" d="M 194.457031 284.996094 L 179.5 276.359375 L 179.5 293.628906 Z M 194.457031 284.996094 "/>
<path style=" stroke:none;fill-rule:evenodd;fill:rgb(50.000763%,0%,50.000763%);fill-opacity:1;" d="M 224.375 267.722656 L 209.417969 259.085938 L 209.417969 276.359375 Z M 224.375 267.722656 "/>
<path style=" stroke:none;fill-rule:evenodd;fill:rgb(50.000763%,0%,50.000763%);fill-opacity:1;" d="M 269.25 241.8125 L 254.292969 233.175781 L 254.292969 250.449219 Z M 269.25 241.8125 "/>
<path style=" stroke:none;fill-rule:evenodd;fill:rgb(50.000763%,0%,50.000763%);fill-opacity:1;" d="M 299.167969 224.542969 L 284.207031 215.90625 L 284.207031 233.175781 Z M 299.167969 224.542969 "/>
<path style=" stroke:none;fill-rule:evenodd;fill:rgb(50.000763%,0%,50.000763%);fill-opacity:1;" d="M 329.082031 207.269531 L 314.125 198.632812 L 314.125 215.90625 Z M 329.082031 207.269531 "/>
<path style=" stroke:none;fill-rule:evenodd;fill:rgb(50.000763%,0%,50.000763%);fill-opacity:1;" d="M 329.082031 189.996094 L 314.125 181.359375 L 314.125 198.632812 Z M 329.082031 189.996094 "/>
<path style=" stroke:none;fill-rule:evenodd;fill:rgb(50.000763%,0%,50.000763%);fill-opacity:1;" d="M 329.082031 120.90625 L 314.125 112.269531 L 314.125 129.542969 Z M 329.082031 120.90625 "/>
<path style=" stroke:none;fill-rule:evenodd;fill:rgb(50.000763%,0%,50.000763%);fill-opacity:1;" d="M 329.082031 103.632812 L 314.125 95 L 314.125 112.269531 Z M 329.082031 103.632812 "/>
<path style=" stroke:none;fill-rule:evenodd;fill:rgb(50.000763%,0%,50.000763%);fill-opacity:1;" d="M 299.167969 69.089844 L 284.207031 60.453125 L 284.207031 77.726562 Z M 299.167969 69.089844 "/>
<path style=" stroke:none;fill-rule:evenodd;fill:rgb(50.000763%,0%,50.000763%);fill-opacity:1;" d="M 269.25 51.816406 L 254.292969 43.179688 L 254.292969 60.453125 Z M 269.25 51.816406 "/>
<path style=" stroke:none;fill-rule:evenodd;fill:rgb(50.000763%,0%,50.000763%);fill-opacity:1;" d="M 254.292969 43.179688 L 239.332031 34.542969 L 239.332031 51.816406 Z M 254.292969 43.179688 "/>
<path style=" stroke:none;fill-rule:evenodd;fill:rgb(50.000763%,0%,50.000763%);fill-opacity:1;" d="M 239.332031 34.542969 L 224.375 25.910156 L 224.375 43.179688 Z M 239.332031 34.542969 "/>
<path style=" stroke:none;fill-rule:evenodd;fill:rgb(50.000763%,0%,50.000763%);fill-opacity:1;" d="M 209.417969 17.273438 L 194.457031 8.636719 L 194.457031 25.910156 Z M 209.417969 17.273438 "/>
<path style=" stroke:none;fill-rule:evenodd;fill:rgb(50.000763%,0%,50.000763%);fill-opacity:1;" d="M 179.5 17.273438 L 164.542969 8.636719 L 164.542969 25.910156 Z M 179.5 17.273438 "/>
<path style=" stroke:none;fill-rule:evenodd;fill:rgb(50.000763%,0%,50.000763%);fill-opacity:1;" d="M 164.542969 25.910156 L 149.582031 17.273438 L 149.582031 34.542969 Z M 164.542969 25.910156 "/>
<path style=" stroke:none;fill-rule:evenodd;fill:rgb(50.000763%,0%,50.000763%);fill-opacity:1;" d="M 134.625 43.179688 L 119.667969 34.542969 L 119.667969 51.816406 Z M 134.625 43.179688 "/>
<path style=" stroke:none;fill-rule:evenodd;fill:rgb(50.000763%,0%,50.000763%);fill-opacity:1;" d="M 119.667969 51.816406 L 104.707031 43.179688 L 104.707031 60.453125 Z M 119.667969 51.816406 "/>
<path style=" stroke:none;fill-rule:evenodd;fill:rgb(50.000763%,0%,50.000763%);fill-opacity:1;" d="M 89.75 69.089844 L 74.792969 60.453125 L 74.792969 77.726562 Z M 89.75 69.089844 "/>
<path style=" stroke:none;fill-rule:evenodd;fill:rgb(50.000763%,0%,50.000763%);fill-opacity:1;" d="M 74.792969 77.726562 L 59.832031 69.089844 L 59.832031 86.363281 Z M 74.792969 77.726562 "/>
<path style=" stroke:none;fill-rule:evenodd;fill:rgb(50.000763%,0%,50.000763%);fill-opacity:1;" d="M 74.792969 95 L 59.832031 86.363281 L 59.832031 103.632812 Z M 74.792969 95 "/>
<path style=" stroke:none;fill-rule:evenodd;fill:rgb(50.000763%,0%,50.000763%);fill-opacity:1;" d="M 74.792969 129.542969 L 59.832031 120.90625 L 59.832031 138.179688 Z M 74.792969 129.542969 "/>
<path style=" stroke:none;fill-rule:evenodd;fill:rgb(50.000763%,0%,50.000763%);fill-opacity:1;" d="M 74.792969 181.359375 L 59.832031 172.722656 L 59.832031 189.996094 Z M 74.792969 181.359375 "/>
<path style=" stroke:none;fill-rule:evenodd;fill:rgb(50.000763%,0%,50.000763%);fill-opacity:1;" d="M 74.792969 215.90625 L 59.832031 207.269531 L 59.832031 224.542969 Z M 74.792969 215.90625 "/>
<path style=" stroke:none;fill-rule:evenodd;fill:rgb(50.000763%,0%,50.000763%);fill-opacity:1;" d="M 74.792969 233.175781 L 59.832031 224.542969 L 59.832031 241.8125 Z M 74.792969 233.175781 "/>
<path style=" stroke:none;fill-rule:evenodd;fill:rgb(50.000763%,0%,50.000763%);fill-opacity:1;" d="M 89.75 241.8125 L 74.792969 233.175781 L 74.792969 250.449219 Z M 89.75 241.8125 "/>
<path style=" stroke:none;fill-rule:evenodd;fill:rgb(50.000763%,0%,50.000763%);fill-opacity:1;" d="M 119.667969 259.085938 L 104.707031 250.449219 L 104.707031 267.722656 Z M 119.667969 259.085938 "/>
<path style=" stroke:none;fill-rule:evenodd;fill:rgb(50.000763%,0%,50.000763%);fill-opacity:1;" d="M 134.625 267.722656 L 119.667969 259.085938 L 119.667969 276.359375 Z M 134.625 267.722656 "/>
<path style=" stroke:none;fill-rule:evenodd;fill:rgb(50.000763%,0%,50.000763%);fill-opacity:1;" d="M 164.542969 284.996094 L 149.582031 276.359375 L 149.582031 293.628906 Z M 164.542969 284.996094 "/>
<path style=" stroke:none;fill-rule:evenodd;fill:rgb(50.000763%,0%,50.000763%);fill-opacity:1;" d="M 179.5 293.628906 L 164.542969 284.996094 L 164.542969 302.265625 Z M 179.5 293.628906 "/>
<path style=" stroke:none;fill-rule:evenodd;fill:rgb(50.000763%,0%,50.000763%);fill-opacity:1;" d="M 209.417969 293.628906 L 194.457031 284.996094 L 194.457031 302.265625 Z M 209.417969 293.628906 "/>
<path style=" stroke:none;fill-rule:evenodd;fill:rgb(50.000763%,0%,50.000763%);fill-opacity:1;" d="M 239.332031 276.359375 L 224.375 267.722656 L 224.375 284.996094 Z M 239.332031 276.359375 "/>
<path style=" stroke:none;fill-rule:evenodd;fill:rgb(50.000763%,0%,50.000763%);fill-opacity:1;" d="M 254.292969 267.722656 L 239.332031 259.085938 L 239.332031 276.359375 Z M 254.292969 267.722656 "/>
<path style=" stroke:none;fill-rule:evenodd;fill:rgb(50.000763%,0%,50.000763%);fill-opacity:1;" d="M 269.25 259.085938 L 254.292969 250.449219 L 254.292969 267.722656 Z M 269.25 259.085938 "/>
<path style=" stroke:none;fill-rule:evenodd;fill:rgb(50.000763%,0%,50.000763%);fill-opacity:1;" d="M 299.167969 241.8125 L 284.207031 233.175781 L 284.207031 250.449219 Z M 299.167969 241.8125 "/>
<path style=" stroke:none;fill-rule:evenodd;fill:rgb(50.000763%,0%,50.000763%);fill-opacity:1;" d="M 344.042969 164.085938 L 329.082031 155.453125 L 329.082031 172.722656 Z M 344.042969 164.085938 "/>
<path style=" stroke:none;fill-rule:evenodd;fill:rgb(50.000763%,0%,50.000763%);fill-opacity:1;" d="M 344.042969 146.816406 L 329.082031 138.179688 L 329.082031 155.453125 Z M 344.042969 146.816406 "/>
<path style=" stroke:none;fill-rule:evenodd;fill:rgb(50.000763%,0%,50.000763%);fill-opacity:1;" d="M 299.167969 51.816406 L 284.207031 43.179688 L 284.207031 60.453125 Z M 299.167969 51.816406 "/>
<path style=" stroke:none;fill-rule:evenodd;fill:rgb(50.000763%,0%,50.000763%);fill-opacity:1;" d="M 269.25 34.542969 L 254.292969 25.910156 L 254.292969 43.179688 Z M 269.25 34.542969 "/>
<path style=" stroke:none;fill-rule:evenodd;fill:rgb(50.000763%,0%,50.000763%);fill-opacity:1;" d="M 254.292969 25.910156 L 239.332031 17.273438 L 239.332031 34.542969 Z M 254.292969 25.910156 "/>
<path style=" stroke:none;fill-rule:evenodd;fill:rgb(50.000763%,0%,50.000763%);fill-opacity:1;" d="M 224.375 8.636719 L 209.417969 0 L 209.417969 17.273438 Z M 224.375 8.636719 "/>
<path style=" stroke:none;fill-rule:evenodd;fill:rgb(50.000763%,0%,50.000763%);fill-opacity:1;" d="M 164.542969 8.636719 L 149.582031 0 L 149.582031 17.273438 Z M 164.542969 8.636719 "/>
<path style=" stroke:none;fill-rule:evenodd;fill:rgb(50.000763%,0%,50.000763%);fill-opacity:1;" d="M 149.582031 17.273438 L 134.625 8.636719 L 134.625 25.910156 Z M 149.582031 17.273438 "/>
<path style=" stroke:none;fill-rule:evenodd;fill:rgb(50.000763%,0%,50.000763%);fill-opacity:1;" d="M 89.75 51.816406 L 74.792969 43.179688 L 74.792969 60.453125 Z M 89.75 51.816406 "/>
<path style=" stroke:none;fill-rule:evenodd;fill:rgb(50.000763%,0%,50.000763%);fill-opacity:1;" d="M 74.792969 60.453125 L 59.832031 51.816406 L 59.832031 69.089844 Z M 74.792969 60.453125 "/>
<path style=" stroke:none;fill-rule:evenodd;fill:rgb(50.000763%,0%,50.000763%);fill-opacity:1;" d="M 59.832031 103.632812 L 44.875 95 L 44.875 112.269531 Z M 59.832031 103.632812 "/>
<path style=" stroke:none;fill-rule:evenodd;fill:rgb(50.000763%,0%,50.000763%);fill-opacity:1;" d="M 59.832031 138.179688 L 44.875 129.542969 L 44.875 146.816406 Z M 59.832031 138.179688 "/>
<path style=" stroke:none;fill-rule:evenodd;fill:rgb(50.000763%,0%,50.000763%);fill-opacity:1;" d="M 59.832031 155.453125 L 44.875 146.816406 L 44.875 164.085938 Z M 59.832031 155.453125 "/>
<path style=" stroke:none;fill-rule:evenodd;fill:rgb(50.000763%,0%,50.000763%);fill-opacity:1;" d="M 59.832031 172.722656 L 44.875 164.085938 L 44.875 181.359375 Z M 59.832031 172.722656 "/>
<path style=" stroke:none;fill-rule:evenodd;fill:rgb(50.000763%,0%,50.000763%);fill-opacity:1;" d="M 59.832031 207.269531 L 44.875 198.632812 L 44.875 215.90625 Z M 59.832031 207.269531 "/>
<path style=" stroke:none;fill-rule:evenodd;fill:rgb(50.000763%,0%,50.000763%);fill-opacity:1;" d="M 74.792969 250.449219 L 59.832031 241.8125 L 59.832031 259.085938 Z M 74.792969 250.449219 "/>
<path style=" stroke:none;fill-rule:evenodd;fill:rgb(50.000763%,0%,50.000763%);fill-opacity:1;" d="M 89.75 259.085938 L 74.792969 250.449219 L 74.792969 267.722656 Z M 89.75 259.085938 "/>
<path style=" stroke:none;fill-rule:evenodd;fill:rgb(50.000763%,0%,50.000763%);fill-opacity:1;" d="M 149.582031 293.628906 L 134.625 284.996094 L 134.625 302.265625 Z M 149.582031 293.628906 "/>
<path style=" stroke:none;fill-rule:evenodd;fill:rgb(50.000763%,0%,50.000763%);fill-opacity:1;" d="M 164.542969 302.265625 L 149.582031 293.628906 L 149.582031 310.902344 Z M 164.542969 302.265625 "/>
<path style=" stroke:none;fill-rule:evenodd;fill:rgb(50.000763%,0%,50.000763%);fill-opacity:1;" d="M 224.375 302.265625 L 209.417969 293.628906 L 209.417969 310.902344 Z M 224.375 302.265625 "/>
<path style=" stroke:none;fill-rule:evenodd;fill:rgb(50.000763%,0%,50.000763%);fill-opacity:1;" d="M 254.292969 284.996094 L 239.332031 276.359375 L 239.332031 293.628906 Z M 254.292969 284.996094 "/>
<path style=" stroke:none;fill-rule:evenodd;fill:rgb(50.000763%,0%,50.000763%);fill-opacity:1;" d="M 269.25 276.359375 L 254.292969 267.722656 L 254.292969 284.996094 Z M 269.25 276.359375 "/>
<path style=" stroke:none;fill-rule:evenodd;fill:rgb(50.000763%,0%,50.000763%);fill-opacity:1;" d="M 299.167969 259.085938 L 284.207031 250.449219 L 284.207031 267.722656 Z M 299.167969 259.085938 "/>
<path style=" stroke:none;fill-rule:evenodd;fill:rgb(50.000763%,0%,50.000763%);fill-opacity:1;" d="M 359 155.453125 L 344.042969 146.816406 L 344.042969 164.085938 Z M 359 155.453125 "/>
<path style=" stroke:none;fill-rule:evenodd;fill:rgb(50.000763%,0%,50.000763%);fill-opacity:1;" d="M 269.25 17.273438 L 254.292969 8.636719 L 254.292969 25.910156 Z M 269.25 17.273438 "/>
<path style=" stroke:none;fill-rule:evenodd;fill:rgb(50.000763%,0%,50.000763%);fill-opacity:1;" d="M 119.667969 17.273438 L 104.707031 8.636719 L 104.707031 25.910156 Z M 119.667969 17.273438 "/>
<path style=" stroke:none;fill-rule:evenodd;fill:rgb(50.000763%,0%,50.000763%);fill-opacity:1;" d="M 104.707031 25.910156 L 89.75 17.273438 L 89.75 34.542969 Z M 104.707031 25.910156 "/>
<path style=" stroke:none;fill-rule:evenodd;fill:rgb(50.000763%,0%,50.000763%);fill-opacity:1;" d="M 44.875 112.269531 L 29.917969 103.632812 L 29.917969 120.90625 Z M 44.875 112.269531 "/>
<path style=" stroke:none;fill-rule:evenodd;fill:rgb(50.000763%,0%,50.000763%);fill-opacity:1;" d="M 44.875 146.816406 L 29.917969 138.179688 L 29.917969 155.453125 Z M 44.875 146.816406 "/>
<path style=" stroke:none;fill-rule:evenodd;fill:rgb(50.000763%,0%,50.000763%);fill-opacity:1;" d="M 44.875 164.085938 L 29.917969 155.453125 L 29.917969 172.722656 Z M 44.875 164.085938 "/>
<path style=" stroke:none;fill-rule:evenodd;fill:rgb(50.000763%,0%,50.000763%);fill-opacity:1;" d="M 44.875 198.632812 L 29.917969 189.996094 L 29.917969 207.269531 Z M 44.875 198.632812 "/>
<path style=" stroke:none;fill-rule:evenodd;fill:rgb(50.000763%,0%,50.000763%);fill-opacity:1;" d="M 104.707031 284.996094 L 89.75 276.359375 L 89.75 293.628906 Z M 104.707031 284.996094 "/>
<path style=" stroke:none;fill-rule:evenodd;fill:rgb(50.000763%,0%,50.000763%);fill-opacity:1;" d="M 119.667969 293.628906 L 104.707031 284.996094 L 104.707031 302.265625 Z M 119.667969 293.628906 "/>
<path style=" stroke:none;fill-rule:evenodd;fill:rgb(50.000763%,0%,50.000763%);fill-opacity:1;" d="M 269.25 293.628906 L 254.292969 284.996094 L 254.292969 302.265625 Z M 269.25 293.628906 "/>
<path style=" stroke:none;fill-rule:evenodd;fill:rgb(50.000763%,0%,50.000763%);fill-opacity:1;" d="M 104.707031 8.636719 L 89.75 0 L 89.75 17.273438 Z M 104.707031 8.636719 "/>
<path style=" stroke:none;fill-rule:evenodd;fill:rgb(50.000763%,0%,50.000763%);fill-opacity:1;" d="M 29.917969 155.453125 L 14.957031 146.816406 L 14.957031 164.085938 Z M 29.917969 155.453125 "/>
<path style=" stroke:none;fill-rule:evenodd;fill:rgb(50.000763%,0%,50.000763%);fill-opacity:1;" d="M 104.707031 302.265625 L 89.75 293.628906 L 89.75 310.902344 Z M 104.707031 302.265625 "/>
</g>
</svg>
