<?xml version="1.0" encoding="UTF-8"?>
<svg xmlns="http://www.w3.org/2000/svg" xmlns:xlink="http://www.w3.org/1999/xlink" width="360pt" height="416pt" viewBox="0 0 360 416" version="1.1">
<g id="surface21">
<path style=" stroke:none;fill-rule:evenodd;fill:rgb(100%,100%,100%);fill-opacity:1;" d="M 0 415.679688 L 360 415.679688 L 360 0 L 0 0 Z M 0 415.679688 "/>
<path style=" stroke:none;fill-rule:evenodd;fill:rgb(50.000763%,0%,50.000763%);fill-opacity:1;" d="M 179.5 207.269531 L 239.332031 172.722656 L 239.332031 241.8125 Z M 179.5 207.269531 "/>
<path style=" stroke:none;fill-rule:evenodd;fill:rgb(50.000763%,0%,50.000763%);fill-opacity:1;" d="M 239.332031 241.8125 L 299.167969 207.269531 L 299.167969 276.359375 Z M 239.332031 241.8125 "/>
<path style=" stroke:none;fill-rule:evenodd;fill:rgb(50.000763%,0%,50.000763%);fill-opacity:1;" d="M 239.332031 172.722656 L 299.167969 138.179688 L 299.167969 207.269531 Z M 239.332031 172.722656 "/>
<path style=" stroke:none;fill-rule:evenodd;fill:rgb(50.000763%,0%,50.000763%);fill-opacity:1;" d="M 119.667969 172.722656 L 179.5 138.179688 L 179.5 207.269531 Z M 119.667969 172.722656 "/>
<path style=" stroke:none;fill-rule:evenodd;fill:rgb(50.000763%,0%,50.000763%);fill-opacity:1;" d="M 119.667969 241.8125 L 179.5 207.269531 L 179.5 276.359375 Z M 119.667969 241.8125 "/>
<path style=" stroke:none;fill-rule:evenodd;fill:rgb(50.000763%,0%,50.000763%);fill-opacity:1;" d="M 299.167969 276.359375 L 359 241.8125 L 359 310.902344 Z M 299.167969 276.359375 "/>
<path style=" stroke:none;fill-rule:evenodd;fill:rgb(50.000763%,0%,50.000763%);fill-opacity:1;" d="M 299.167969 138.179688 L 359 103.632812 L 359 172.722656 Z M 299.167969 138.179688 "/>
<path style=" stroke:none;fill-rule:evenodd;fill:rgb(50.000763%,0%,50.000763%);fill-opacity:1;" d="M 239.332031 103.632812 L 299.167969 69.089844 L 299.167969 138.179688 Z M 239.332031 103.632812 "/>
<path style=" stroke:none;fill-rule:evenodd;fill:rgb(50.000763%,0%,50.000763%);fill-opacity:1;" d="M 179.5 69.089844 L 239.332031 34.542969 L 239.332031 103.632812 Z M 179.5 69.089844 "/>
<path style=" stroke:none;fill-rule:evenodd;fill:rgb(50.000763%,0%,50.000763%);fill-opacity:1;" d="M 119.667969 103.632812 L 179.5 69.089844 L 179.5 138.179688 Z M 119.667969 103.632812 "/>
<path style=" stroke:none;fill-rule:evenodd;fill:rgb(50.000763%,0%,50.000763%);fill-opacity:1;" d="M 59.832031 138.179688 L 119.667969 103.632812 L 119.667969 172.722656 Z M 59.832031 138.179688 "/>
<path style=" stroke:none;fill-rule:evenodd;fill:rgb(50.000763%,0%,50.000763%);fill-opacity:1;" d="M 59.832031 276.359375 L 119.667969 241.8125 L 119.667969 310.902344 Z M 59.832031 276.359375 "/>
<path style=" stroke:none;fill-rule:evenodd;fill:rgb(50.000763%,0%,50.000763%);fill-opacity:1;" d="M 119.667969 310.902344 L 179.5 276.359375 L 179.5 345.449219 Z M 119.667969 310.902344 "/>
<path style=" stroke:none;fill-rule:evenodd;fill:rgb(50.000763%,0%,50.000763%);fill-opacity:1;" d="M 179.5 345.449219 L 239.332031 310.902344 L 239.332031 379.992188 Z M 179.5 345.449219 "/>
<path style=" stroke:none;fill-rule:evenodd;fill:rgb(50.000763%,0%,50.000763%);fill-opacity:1;" d="M 239.332031 310.902344 L 299.167969 276.359375 L 299.167969 345.449219 Z M 239.332031 310.902344 "/>
<path style=" stroke:none;fill-rule:evenodd;fill:rgb(50.000763%,0%,50.000763%);fill-opacity:1;" d="M 119.667969 34.542969 L 179.5 0 L 179.5 69.089844 Z M 119.667969 34.542969 "/>
<path style=" stroke:none;fill-rule:evenodd;fill:rgb(50.000763%,0%,50.000763%);fill-opacity:1;" d="M 0 103.632812 L 59.832031 69.089844 L 59.832031 138.179688 Z M 0 103.632812 "/>
<path style=" stroke:none;fill-rule:evenodd;fill:rgb(50.000763%,0%,50.000763%);fill-opacity:1;" d="M 0 172.722656 L 59.832031 138.179688 L 59.832031 207.269531 Z M 0 172.722656 "/>
<path style=" stroke:none;fill-rule:evenodd;fill:rgb(50.000763%,0%,50.000763%);fill-opacity:1;" d="M 0 241.8125 L 59.832031 207.269531 L 59.832031 276.359375 Z M 0 241.8125 "/>
<path style=" stroke:none;fill-rule:evenodd;fill:rgb(50.000763%,0%,50.000763%);fill-opacity:1;" d="M 0 310.902344 L 59.832031 276.359375 L 59.832031 345.449219 Z M 0 310.902344 "/>
<path style=" stroke:none;fill-rule:evenodd;fill:rgb(50.000763%,0%,50.000763%);fill-opacity:1;" d="M 119.667969 379.992188 L 179.5 345.449219 L 179.5 414.539062 Z M 119.667969 379.992188 "/>
<path style=" stroke:none;fill-rule:evenodd;fill:rgb(50.000763%,0%,50.000763%);fill-opacity:1;" d="M 239.332031 172.722656 L 179.5 138.179688 L 179.5 207.269531 Z M 239.332031 172.722656 "/>
<path style=" stroke:none;fill-rule:evenodd;fill:rgb(50.000763%,0%,50.000763%);fill-opacity:1;" d="M 239.332031 241.8125 L 179.5 207.269531 L 179.5 276.359375 Z M 239.332031 241.8125 "/>
<path style=" stroke:none;fill-rule:evenodd;fill:rgb(50.000763%,0%,50.000763%);fill-opacity:1;" d="M 359 241.8125 L 299.167969 207.269531 L 299.167969 276.359375 Z M 359 241.8125 "/>
<path style=" stroke:none;fill-rule:evenodd;fill:rgb(50.000763%,0%,50.000763%);fill-opacity:1;" d="M 359 172.722656 L 299.167969 138.179688 L 299.167969 207.269531 Z M 359 172.722656 "/>
<path style=" stroke:none;fill-rule:evenodd;fill:rgb(50.000763%,0%,50.000763%);fill-opacity:1;" d="M 299.167969 138.179688 L 239.332031 103.632812 L 239.332031 172.722656 Z M 299.167969 138.179688 "/>
<path style=" stroke:none;fill-rule:evenodd;fill:rgb(50.000763%,0%,50.000763%);fill-opacity:1;" d="M 239.332031 103.632812 L 179.5 69.089844 L 179.5 138.179688 Z M 239.332031 103.632812 "/>
<path style=" stroke:none;fill-rule:evenodd;fill:rgb(50.000763%,0%,50.000763%);fill-opacity:1;" d="M 179.5 207.269531 L 119.667969 172.722656 L 119.667969 241.8125 Z M 179.5 207.269531 "/>
<path style=" stroke:none;fill-rule:evenodd;fill:rgb(50.000763%,0%,50.000763%);fill-opacity:1;" d="M 239.332031 310.902344 L 179.5 276.359375 L 179.5 345.449219 Z M 239.332031 310.902344 "/>
<path style=" stroke:none;fill-rule:evenodd;fill:rgb(50.000763%,0%,50.000763%);fill-opacity:1;" d="M 299.167969 276.359375 L 239.332031 241.8125 L 239.332031 310.902344 Z M 299.167969 276.359375 "/>
<path style=" stroke:none;fill-rule:evenodd;fill:rgb(50.000763%,0%,50.000763%);fill-opacity:1;" d="M 359 103.632812 L 299.167969 69.089844 L 299.167969 138.179688 Z M 359 103.632812 "/>
<path style=" stroke:none;fill-rule:evenodd;fill:rgb(50.000763%,0%,50.000763%);fill-opacity:1;" d="M 239.332031 34.542969 L 179.5 0 L 179.5 69.089844 Z M 239.332031 34.542969 "/>
<path style=" stroke:none;fill-rule:evenodd;fill:rgb(50.000763%,0%,50.000763%);fill-opacity:1;" d="M 179.5 69.089844 L 119.667969 34.542969 L 119.667969 103.632812 Z M 179.5 69.089844 "/>
<path style=" stroke:none;fill-rule:evenodd;fill:rgb(50.000763%,0%,50.000763%);fill-opacity:1;" d="M 119.667969 103.632812 L 59.832031 69.089844 L 59.832031 138.179688 Z M 119.667969 103.632812 "/>
<path style=" stroke:none;fill-rule:evenodd;fill:rgb(50.000763%,0%,50.000763%);fill-opacity:1;" d="M 119.667969 172.722656 L 59.832031 138.179688 L 59.832031 207.269531 Z M 119.667969 172.722656 "/>
<path style=" stroke:none;fill-rule:evenodd;fill:rgb(50.000763%,0%,50.000763%);fill-opacity:1;" d="M 119.667969 241.8125 L 59.832031 207.269531 L 59.832031 276.359375 Z M 119.667969 241.8125 "/>
<path style=" stroke:none;fill-rule:evenodd;fill:rgb(50.000763%,0%,50.000763%);fill-opacity:1;" d="M 119.667969 310.902344 L 59.832031 276.359375 L 59.832031 345.449219 Z M 119.667969 310.902344 "/>
<path style=" stroke:none;fill-rule:evenodd;fill:rgb(50.000763%,0%,50.000763%);fill-opacity:1;" d="M 179.5 345.449219 L 119.667969 310.902344 L 119.667969 379.992188 Z M 179.5 345.449219 "/>
<path style=" stroke:none;fill-rule:evenodd;fill:rgb(50.000763%,0%,50.000763%);fill-opacity:1;" d="M 239.332031 379.992188 L 179.5 345.449219 L 179.5 414.539062 Z M 239.332031 379.992188 "/>
<path style=" stroke:none;fill-rule:evenodd;fill:rgb(50.000763%,0%,50.000763%);fill-opacity:1;" d="M 359 310.902344 L 299.167969 276.359375 L 299.167969 345.449219 Z M 359 310.902344 "/>
<path style=" stroke:none;fill-rule:evenodd;fill:rgb(50.000763%,0%,50.000763%);fill-opacity:1;" d="M 59.832031 138.179688 L 0 103.632812 L 0 172.722656 Z M 59.832031 138.179688 "/>
<path style=" stroke:none;fill-rule:evenodd;fill:rgb(50.000763%,0%,50.000763%);fill-opacity:1;" d="M 59.832031 276.359375 L 0 241.8125 L 0 310.902344 Z M 59.832031 276.359375 "/>
</g>
</svg>
