<svg height="416pt" viewBox="0 0 360 416" width="360pt" xmlns="http://www.w3.org/2000/svg"><g fill-rule="evenodd"><path d="m0 415.679688h360v-415.679688h-360zm0 0" fill="#fff"/><g fill="#800080"><path d="m179.5 207.269531 19.945312-11.515625v23.03125zm0 0"/><path d="m199.445312 218.785156 19.945313-11.515625v23.027344zm0 0"/><path d="m199.445312 195.753906 19.945313-11.515625v23.03125zm0 0"/><path d="m159.554688 195.753906 19.945312-11.515625v23.03125zm0 0"/><path d="m159.554688 218.785156 19.945312-11.515625v23.027344zm0 0"/><path d="m219.390625 230.296875 19.941406-11.511719v23.027344zm0 0"/><path d="m219.390625 184.238281 19.941406-11.515625v23.03125zm0 0"/><path d="m159.554688 172.722656 19.945312-11.511718v23.027343zm0 0"/><path d="m139.609375 184.238281 19.945313-11.515625v23.03125zm0 0"/><path d="m139.609375 230.296875 19.945313-11.511719v23.027344zm0 0"/><path d="m159.554688 241.8125 19.945312-11.515625v23.03125zm0 0"/><path d="m239.332031 218.785156 19.945313-11.515625v23.027344zm0 0"/><path d="m239.332031 195.753906 19.945313-11.515625v23.03125zm0 0"/><path d="m159.554688 149.695312 19.945312-11.515624v23.03125zm0 0"/><path d="m119.667969 172.722656 19.941406-11.511718v23.027343zm0 0"/><path d="m119.667969 241.8125 19.941406-11.515625v23.03125zm0 0"/><path d="m159.554688 264.84375 19.945312-11.515625v23.03125zm0 0"/><path d="m259.277344 253.328125 19.945312-11.515625v23.03125zm0 0"/><path d="m259.277344 230.296875 19.945312-11.511719v23.027344zm0 0"/><path d="m259.277344 184.238281 19.945312-11.515625v23.03125zm0 0"/><path d="m259.277344 161.210938 19.945312-11.515626v23.027344zm0 0"/><path d="m139.609375 138.179688 19.945313-11.515626v23.03125zm0 0"/><path d="m119.667969 149.695312 19.941406-11.515624v23.03125zm0 0"/><path d="m119.667969 264.84375 19.941406-11.515625v23.03125zm0 0"/><path d="m139.609375 276.359375 19.945313-11.515625v23.03125zm0 0"/><path d="m279.222656 241.8125 19.945313-11.515625v23.03125zm0 0"/><path d="m279.222656 172.722656 19.945313-11.511718v23.027343zm0 0"/><path d="m159.554688 103.632812 19.945312-11.511718v23.027344zm0 0"/><path d="m139.609375 115.148438 19.945313-11.515626v23.03125zm0 0"/><path d="m99.722656 138.179688 19.945313-11.515626v23.03125zm0 0"/><path d="m79.777344 149.695312 19.945312-11.515624v23.03125zm0 0"/><path d="m79.777344 264.84375 19.945312-11.515625v23.03125zm0 0"/><path d="m99.722656 276.359375 19.945313-11.515625v23.03125zm0 0"/><path d="m139.609375 299.386719 19.945313-11.511719v23.027344zm0 0"/><path d="m159.554688 310.902344 19.945312-11.515625v23.03125zm0 0"/><path d="m299.167969 253.328125 19.941406-11.515625v23.03125zm0 0"/><path d="m299.167969 161.210938 19.941406-11.515626v23.027344zm0 0"/><path d="m139.609375 92.121094 19.945313-11.515625v23.027343zm0 0"/><path d="m79.777344 126.664062 19.945312-11.515624v23.03125zm0 0"/><path d="m79.777344 287.875 19.945312-11.515625v23.027344zm0 0"/><path d="m139.609375 322.417969 19.945313-11.515625v23.03125zm0 0"/><path d="m319.109375 287.875 19.945313-11.515625v23.027344zm0 0"/><path d="m319.109375 264.84375 19.945313-11.515625v23.03125zm0 0"/><path d="m319.109375 149.695312 19.945313-11.515624v23.03125zm0 0"/><path d="m319.109375 126.664062 19.945313-11.515624v23.03125zm0 0"/><path d="m139.609375 69.089844 19.945313-11.515625v23.03125zm0 0"/><path d="m59.832031 115.148438 19.945313-11.515626v23.03125zm0 0"/><path d="m59.832031 299.386719 19.945313-11.511719v23.027344zm0 0"/><path d="m139.609375 345.449219 19.945313-11.515625v23.027344zm0 0"/><path d="m339.054688 299.386719 19.945312-11.511719v23.027344zm0 0"/><path d="m339.054688 115.148438 19.945312-11.515626v23.03125zm0 0"/><path d="m159.554688 34.542969 19.945312-11.511719v23.027344zm0 0"/><path d="m139.609375 46.058594 19.945313-11.515625v23.03125zm0 0"/><path d="m39.890625 103.632812 19.941406-11.511718v23.027344zm0 0"/><path d="m19.945312 115.148438 19.945313-11.515626v23.03125zm0 0"/><path d="m19.945312 299.386719 19.945313-11.511719v23.027344zm0 0"/><path d="m39.890625 310.902344 19.941406-11.515625v23.03125zm0 0"/><path d="m139.609375 368.476562 19.945313-11.515624v23.03125zm0 0"/><path d="m159.554688 379.992188 19.945312-11.515626v23.03125zm0 0"/><path d="m159.554688 11.515625 19.945312-11.515625v23.03125zm0 0"/><path d="m0 103.632812 19.945312-11.511718v23.027344zm0 0"/><path d="m0 310.902344 19.945312-11.515625v23.03125zm0 0"/><path d="m159.554688 403.023438 19.945312-11.515626v23.03125zm0 0"/><path d="m199.445312 195.753906-19.945312-11.515625v23.03125zm0 0"/><path d="m199.445312 218.785156-19.945312-11.515625v23.027344zm0 0"/><path d="m219.390625 184.238281-19.945313-11.515625v23.03125zm0 0"/><path d="m199.445312 172.722656-19.945312-11.511718v23.027343zm0 0"/><path d="m179.5 207.269531-19.945312-11.515625v23.03125zm0 0"/><path d="m199.445312 241.8125-19.945312-11.515625v23.03125zm0 0"/><path d="m219.390625 230.296875-19.945313-11.511719v23.027344zm0 0"/><path d="m239.332031 172.722656-19.941406-11.511718v23.027343zm0 0"/><path d="m199.445312 149.695312-19.945312-11.515624v23.03125zm0 0"/><path d="m159.554688 195.753906-19.945313-11.515625v23.03125zm0 0"/><path d="m159.554688 218.785156-19.945313-11.515625v23.027344zm0 0"/><path d="m199.445312 264.84375-19.945312-11.515625v23.03125zm0 0"/><path d="m239.332031 241.8125-19.941406-11.515625v23.03125zm0 0"/><path d="m239.332031 149.695312-19.941406-11.515624v23.03125zm0 0"/><path d="m219.390625 138.179688-19.945313-11.515626v23.03125zm0 0"/><path d="m139.609375 184.238281-19.941406-11.515625v23.03125zm0 0"/><path d="m139.609375 230.296875-19.941406-11.511719v23.027344zm0 0"/><path d="m219.390625 276.359375-19.945313-11.515625v23.03125zm0 0"/><path d="m239.332031 264.84375-19.941406-11.515625v23.03125zm0 0"/><path d="m279.222656 149.695312-19.945312-11.515624v23.03125zm0 0"/><path d="m259.277344 138.179688-19.945313-11.515626v23.03125zm0 0"/><path d="m219.390625 115.148438-19.945313-11.515626v23.03125zm0 0"/><path d="m199.445312 103.632812-19.945312-11.511718v23.027344zm0 0"/><path d="m119.667969 195.753906-19.945313-11.515625v23.03125zm0 0"/><path d="m119.667969 218.785156-19.945313-11.515625v23.027344zm0 0"/><path d="m199.445312 310.902344-19.945312-11.515625v23.03125zm0 0"/><path d="m219.390625 299.386719-19.945313-11.511719v23.027344zm0 0"/><path d="m259.277344 276.359375-19.945313-11.515625v23.03125zm0 0"/><path d="m279.222656 264.84375-19.945312-11.515625v23.03125zm0 0"/><path d="m279.222656 126.664062-19.945312-11.515624v23.03125zm0 0"/><path d="m219.390625 92.121094-19.945313-11.515625v23.027343zm0 0"/><path d="m99.722656 161.210938-19.945312-11.515626v23.027344zm0 0"/><path d="m99.722656 184.238281-19.945312-11.515625v23.03125zm0 0"/><path d="m99.722656 230.296875-19.945312-11.511719v23.027344zm0 0"/><path d="m99.722656 253.328125-19.945312-11.515625v23.03125zm0 0"/><path d="m219.390625 322.417969-19.945313-11.515625v23.03125zm0 0"/><path d="m279.222656 287.875-19.945312-11.515625v23.027344zm0 0"/><path d="m299.167969 115.148438-19.945313-11.515626v23.03125zm0 0"/><path d="m219.390625 69.089844-19.945313-11.515625v23.03125zm0 0"/><path d="m79.777344 172.722656-19.945313-11.511718v23.027343zm0 0"/><path d="m79.777344 241.8125-19.945313-11.515625v23.03125zm0 0"/><path d="m219.390625 345.449219-19.945313-11.515625v23.027344zm0 0"/><path d="m299.167969 299.386719-19.945313-11.511719v23.027344zm0 0"/><path d="m339.054688 115.148438-19.945313-11.515626v23.03125zm0 0"/><path d="m319.109375 103.632812-19.941406-11.511718v23.027344zm0 0"/><path d="m219.390625 46.058594-19.945313-11.515625v23.03125zm0 0"/><path d="m199.445312 34.542969-19.945312-11.511719v23.027344zm0 0"/><path d="m59.832031 161.210938-19.941406-11.515626v23.027344zm0 0"/><path d="m59.832031 253.328125-19.941406-11.515625v23.03125zm0 0"/><path d="m199.445312 379.992188-19.945312-11.515626v23.03125zm0 0"/><path d="m219.390625 368.476562-19.945313-11.515624v23.03125zm0 0"/><path d="m319.109375 310.902344-19.941406-11.515625v23.03125zm0 0"/><path d="m339.054688 299.386719-19.945313-11.511719v23.027344zm0 0"/><path d="m359 103.632812-19.945312-11.511718v23.027344zm0 0"/><path d="m199.445312 11.515625-19.945312-11.515625v23.03125zm0 0"/><path d="m39.890625 126.664062-19.945313-11.515624v23.03125zm0 0"/><path d="m39.890625 149.695312-19.945313-11.515624v23.03125zm0 0"/><path d="m39.890625 264.84375-19.945313-11.515625v23.03125zm0 0"/><path d="m39.890625 287.875-19.945313-11.515625v23.027344zm0 0"/><path d="m199.445312 403.023438-19.945312-11.515626v23.03125zm0 0"/><path d="m359 310.902344-19.945312-11.515625v23.03125zm0 0"/><path d="m19.945312 115.148438-19.945312-11.515626v23.03125zm0 0"/><path d="m19.945312 299.386719-19.945312-11.511719v23.027344zm0 0"/></g></g></svg>