<svg height="201pt" viewBox="0 0 432 201" width="432pt" xmlns="http://www.w3.org/2000/svg"><g fill-rule="evenodd"><path d="m0 0v200.160156h432v-200.160156zm0 0" fill="#fff"/><g fill="#800080"><path d="m392.0625 99.535156 27.007812 46.78125h-54.019531zm0 0"/><path d="m338.042969 99.535156 27.007812 46.78125h-54.019531zm0 0"/><path d="m311.03125 52.753906 27.011719 46.78125h-54.019531zm0 0"/><path d="m311.03125 146.316406 27.011719 46.78125h-54.019531zm0 0"/><path d="m284.023438 99.535156 27.007812 46.78125h-54.015625zm0 0"/><path d="m257.015625 52.753906 27.007813 46.78125h-54.019532zm0 0"/><path d="m257.015625 146.316406 27.007813 46.78125h-54.019532zm0 0"/><path d="m230.003906 99.535156 27.011719 46.78125h-54.019531zm0 0"/><path d="m148.976562 52.753906 27.007813 46.78125h-54.015625zm0 0"/><path d="m121.96875 99.535156 27.007812 46.78125h-54.019531zm0 0"/><path d="m94.957031 52.753906 27.011719 46.78125h-54.019531zm0 0"/><path d="m392.0625 99.535156 27.007812-46.78125h-54.019531zm0 0"/><path d="m338.042969 99.535156 27.007812-46.78125h-54.019531zm0 0"/><path d="m311.03125 52.753906 27.011719-46.78125h-54.019531zm0 0"/><path d="m311.03125 146.316406 27.011719-46.78125h-54.019531zm0 0"/><path d="m284.023438 99.535156 27.007812-46.78125h-54.015625zm0 0"/><path d="m257.015625 52.753906 27.007813-46.78125h-54.019532zm0 0"/><path d="m257.015625 146.316406 27.007813-46.78125h-54.019532zm0 0"/><path d="m230.003906 99.535156 27.011719-46.78125h-54.019531zm0 0"/><path d="m40.9375 52.753906 27.011719-46.78125h-54.019531zm0 0"/></g></g></svg>