<svg height="101pt" viewBox="0 0 901 101" width="901pt" xmlns="http://www.w3.org/2000/svg"><g fill-rule="evenodd"><path d="m.480469 100.558594h100.078125v-100.078125h-100.078125zm0 0" fill="#fff"/><path d="m36.933594 50.5 13.566406-7.832031v15.664062zm0 0" fill="#800080"/><path d="m50.5 58.332031 13.566406-7.832031v15.667969zm0 0" fill="#800080"/><path d="m64.066406 50.5-13.566406-7.832031v15.664062zm0 0" fill="#800080"/><path d="m50.5 58.332031-13.566406-7.832031v15.667969zm0 0" fill="#800080"/><path d="m36.933594 66.167969-13.570313-7.835938v15.667969zm0 0" fill="#800080"/><path d="m50.5 74-13.566406-7.832031v15.664062zm0 0" fill="#800080"/><path d="m100.320312 100.558594h100.320313v-100.078125h-100.320313zm0 0" fill="#800080"/><g fill="#fff"><path d="m136.933594 50.5 13.566406-7.832031v15.664062zm0 0"/><path d="m150.5 42.667969 13.566406-7.835938v15.667969zm0 0"/><path d="m109.796875 66.167969 13.566406-7.835938v15.667969zm0 0"/><path d="m136.933594 81.832031 13.566406-7.832031v15.667969zm0 0"/><path d="m164.066406 50.5-13.566406-7.832031v15.664062zm0 0"/><path d="m150.5 42.667969-13.566406-7.835938v15.667969zm0 0"/><path d="m177.636719 58.332031-13.570313-7.832031v15.667969zm0 0"/><path d="m164.066406 66.167969-13.566406-7.835938v15.667969zm0 0"/><path d="m200.398438 100.558594h100.320312v-100.078125h-100.320312zm0 0"/></g><path d="m250.5 58.332031 13.566406-7.832031v15.667969zm0 0" fill="#800080"/><path d="m250.5 42.667969 13.566406-7.835938v15.667969zm0 0" fill="#800080"/><path d="m250.5 42.667969-13.566406-7.835938v15.667969zm0 0" fill="#800080"/><path d="m300.480469 100.558594h100.078125v-100.078125h-100.078125zm0 0" fill="#800080"/><path d="m336.933594 50.5 13.566406-7.832031v15.664062zm0 0" fill="#fff"/><path d="m336.933594 34.832031 13.566406-7.832031v15.667969zm0 0" fill="#fff"/><path d="m323.363281 42.667969 13.570313-7.835938v15.667969zm0 0" fill="#fff"/><path d="m377.636719 58.332031-13.570313-7.832031v15.667969zm0 0" fill="#fff"/><path d="m377.636719 42.667969-13.570313-7.835938v15.667969zm0 0" fill="#fff"/><path d="m364.066406 34.832031-13.566406-7.832031v15.667969zm0 0" fill="#fff"/><path d="m364.066406 66.167969-13.566406-7.835938v15.667969zm0 0" fill="#fff"/><path d="m400.320312 100.558594h100.320313v-100.078125h-100.320313zm0 0" fill="#fff"/><path d="m450.5 58.332031 13.566406-7.832031v15.667969zm0 0" fill="#800080"/><path d="m450.5 42.667969 13.566406-7.835938v15.667969zm0 0" fill="#800080"/><path d="m436.933594 34.832031 13.566406-7.832031v15.667969zm0 0" fill="#800080"/><path d="m464.066406 50.5 13.570313-7.832031v15.664062zm0 0" fill="#800080"/><path d="m450.5 42.667969-13.566406-7.835938v15.667969zm0 0" fill="#800080"/><path d="m464.066406 34.832031-13.566406-7.832031v15.667969zm0 0" fill="#800080"/><path d="m500.398438 100.558594h100.320312v-100.078125h-100.320312zm0 0" fill="#800080"/><g fill="#fff"><path d="m536.933594 50.5 13.566406-7.832031v15.664062zm0 0"/><path d="m536.933594 34.832031 13.566406-7.832031v15.667969zm0 0"/><path d="m523.363281 42.667969 13.570313-7.835938v15.667969zm0 0"/><path d="m550.5 27 13.566406-7.832031v15.664062zm0 0"/><path d="m564.066406 34.832031-13.566406-7.832031v15.667969zm0 0"/><path d="m550.5 27-13.566406-7.832031v15.664062zm0 0"/><path d="m564.066406 66.167969-13.566406-7.835938v15.667969zm0 0"/><path d="m591.203125 50.5-13.566406-7.832031v15.664062zm0 0"/><path d="m600.480469 100.558594h100.078125v-100.078125h-100.078125zm0 0"/></g><path d="m650.5 27 13.566406-7.832031v15.664062zm0 0" fill="#800080"/><path d="m650.5 42.667969-13.566406-7.835938v15.667969zm0 0" fill="#800080"/><path d="m650.5 27-13.566406-7.832031v15.664062zm0 0" fill="#800080"/><path d="m700.320312 100.558594h100.320313v-100.078125h-100.320313zm0 0" fill="#800080"/><path d="m736.933594 50.5 13.566406-7.832031v15.664062zm0 0" fill="#fff"/><path d="m723.363281 42.667969 13.570313-7.835938v15.667969zm0 0" fill="#fff"/><path d="m736.933594 19.167969 13.566406-7.835938v15.667969zm0 0" fill="#fff"/><path d="m723.363281 27 13.570313-7.832031v15.664062zm0 0" fill="#fff"/><path d="m764.066406 34.832031-13.566406-7.832031v15.667969zm0 0" fill="#fff"/><path d="m777.636719 27-13.570313-7.832031v15.664062zm0 0" fill="#fff"/><path d="m764.066406 19.167969-13.566406-7.835938v15.667969zm0 0" fill="#fff"/><path d="m800.398438 100.558594h100.320312v-100.078125h-100.320312zm0 0" fill="#fff"/><path d="m850.5 27 13.566406-7.832031v15.664062zm0 0" fill="#800080"/><path d="m836.933594 19.167969 13.566406-7.835938v15.667969zm0 0" fill="#800080"/><path d="m850.5 42.667969-13.566406-7.835938v15.667969zm0 0" fill="#800080"/><path d="m850.5 27-13.566406-7.832031v15.664062zm0 0" fill="#800080"/><path d="m836.933594 34.832031-13.570313-7.832031v15.667969zm0 0" fill="#800080"/><path d="m864.066406 19.167969-13.566406-7.835938v15.667969zm0 0" fill="#800080"/><path d="m0 0h901v1h-901zm0 0"/><path d="m0 100h901v1h-901zm0 0"/><path d="m1 1v99h-1v-99zm0 0"/><path d="m901 1v99h-1v-99zm0 0"/></g></svg>