<svg height="81pt" viewBox="0 0 721 81" width="721pt" xmlns="http://www.w3.org/2000/svg"><g fill-rule="evenodd"><path d="m.480469 80.640625h80.160156v-80.160156h-80.160156zm0 0" fill="#fff"/><path d="m40.5 46.4375 6.855469-3.957031v7.914062zm0 0" fill="#800080"/><path d="m26.789062 46.4375 6.855469-3.957031v7.914062zm0 0" fill="#800080"/><path d="m47.355469 50.394531 6.855469-3.957031v7.914062zm0 0" fill="#800080"/><path d="m47.355469 42.480469 6.855469-3.960938v7.917969zm0 0" fill="#800080"/><path d="m40.5 30.605469 6.855469-3.957031v7.914062zm0 0" fill="#800080"/><path d="m33.644531 26.648438 6.855469-3.957032v7.914063zm0 0" fill="#800080"/><path d="m33.644531 58.308594 6.855469-3.957032v7.917969zm0 0" fill="#800080"/><path d="m40.5 54.351562 6.855469-3.957031v7.914063zm0 0" fill="#800080"/><path d="m54.210938 46.4375 6.855468-3.957031v7.914062zm0 0" fill="#800080"/><path d="m40.5 62.269531 6.855469-3.960937v7.917968zm0 0" fill="#800080"/><path d="m40.5 46.4375-6.855469-3.957031v7.914062zm0 0" fill="#800080"/><path d="m54.210938 46.4375-6.855469-3.957031v7.914062zm0 0" fill="#800080"/><path d="m40.5 30.605469-6.855469-3.957031v7.914062zm0 0" fill="#800080"/><path d="m33.644531 42.480469-6.855469-3.960938v7.917969zm0 0" fill="#800080"/><path d="m33.644531 50.394531-6.855469-3.957031v7.914062zm0 0" fill="#800080"/><path d="m40.5 54.351562-6.855469-3.957031v7.914063zm0 0" fill="#800080"/><path d="m47.355469 26.648438-6.855469-3.957032v7.914063zm0 0" fill="#800080"/><path d="m26.789062 46.4375-6.855468-3.957031v7.914062zm0 0" fill="#800080"/><path d="m80.398438 80.640625h80.160156v-80.160156h-80.160156zm0 0" fill="#800080"/><path d="m113.644531 42.480469 6.855469-3.960938v7.917969zm0 0" fill="#fff"/><path d="m113.644531 34.5625 6.855469-3.957031v7.914062zm0 0" fill="#fff"/><path d="m106.789062 38.519531 6.855469-3.957031v7.917969zm0 0" fill="#fff"/><path d="m106.789062 46.4375 6.855469-3.957031v7.914062zm0 0" fill="#fff"/><path d="m113.644531 26.648438 6.855469-3.957032v7.914063zm0 0" fill="#fff"/><path d="m106.789062 30.605469 6.855469-3.957031v7.914062zm0 0" fill="#fff"/><path d="m120.5 22.691406 6.855469-3.960937v7.917969zm0 0" fill="#fff"/><path d="m93.078125 46.4375 6.855469-3.957031v7.914062zm0 0" fill="#fff"/><path d="m127.355469 42.480469-6.855469-3.960938v7.917969zm0 0" fill="#fff"/><path d="m134.210938 46.4375-6.855469-3.957031v7.914062zm0 0" fill="#fff"/><path d="m134.210938 38.519531-6.855469-3.957031v7.917969zm0 0" fill="#fff"/><path d="m127.355469 34.5625-6.855469-3.957031v7.914062zm0 0" fill="#fff"/><path d="m134.210938 30.605469-6.855469-3.957031v7.914062zm0 0" fill="#fff"/><path d="m127.355469 26.648438-6.855469-3.957032v7.914063zm0 0" fill="#fff"/><path d="m120.5 22.691406-6.855469-3.960937v7.917969zm0 0" fill="#fff"/><path d="m120.5 62.269531-6.855469-3.960937v7.917968zm0 0" fill="#fff"/><path d="m127.355469 58.308594-6.855469-3.957032v7.917969zm0 0" fill="#fff"/><path d="m147.921875 46.4375-6.855469-3.957031v7.914062zm0 0" fill="#fff"/><path d="m127.355469 66.226562-6.855469-3.957031v7.914063zm0 0" fill="#fff"/><path d="m134.210938 62.269531-6.855469-3.960937v7.917968zm0 0" fill="#fff"/><path d="m160.320312 80.640625h80.398438v-80.160156h-80.398438zm0 0" fill="#fff"/><path d="m193.644531 42.480469 6.855469-3.960938v7.917969zm0 0" fill="#800080"/><path d="m200.5 46.4375 6.855469-3.957031v7.914062zm0 0" fill="#800080"/><path d="m200.5 38.519531 6.855469-3.957031v7.917969zm0 0" fill="#800080"/><path d="m193.644531 34.5625 6.855469-3.957031v7.914062zm0 0" fill="#800080"/><path d="m207.355469 42.480469 6.855469-3.960938v7.917969zm0 0" fill="#800080"/><path d="m207.355469 34.5625 6.855469-3.957031v7.914062zm0 0" fill="#800080"/><path d="m200.5 30.605469 6.855469-3.957031v7.914062zm0 0" fill="#800080"/><path d="m193.644531 58.308594 6.855469-3.957032v7.917969zm0 0" fill="#800080"/><path d="m200.5 22.691406 6.855469-3.960937v7.917969zm0 0" fill="#800080"/><path d="m193.644531 66.226562 6.855469-3.957031v7.914063zm0 0" fill="#800080"/><path d="m200.5 62.269531 6.855469-3.960937v7.917968zm0 0" fill="#800080"/><path d="m207.355469 42.480469-6.855469-3.960938v7.917969zm0 0" fill="#800080"/><path d="m200.5 38.519531-6.855469-3.957031v7.917969zm0 0" fill="#800080"/><path d="m200.5 46.4375-6.855469-3.957031v7.914062zm0 0" fill="#800080"/><path d="m207.355469 34.5625-6.855469-3.957031v7.914062zm0 0" fill="#800080"/><path d="m200.5 30.605469-6.855469-3.957031v7.914062zm0 0" fill="#800080"/><path d="m193.644531 34.5625-6.855469-3.957031v7.914062zm0 0" fill="#800080"/><path d="m193.644531 42.480469-6.855469-3.960938v7.917969zm0 0" fill="#800080"/><path d="m200.5 22.691406-6.855469-3.960937v7.917969zm0 0" fill="#800080"/><path d="m240.480469 80.640625h80.160156v-80.160156h-80.160156zm0 0" fill="#800080"/><g fill="#fff"><path d="m273.644531 42.480469 6.855469-3.960938v7.917969zm0 0"/><path d="m280.5 38.519531 6.855469-3.957031v7.917969zm0 0"/><path d="m273.644531 34.5625 6.855469-3.957031v7.914062zm0 0"/><path d="m266.789062 38.519531 6.855469-3.957031v7.917969zm0 0"/><path d="m273.644531 50.394531 6.855469-3.957031v7.914062zm0 0"/><path d="m259.933594 34.5625 6.855468-3.957031v7.914062zm0 0"/><path d="m259.933594 42.480469 6.855468-3.960938v7.917969zm0 0"/><path d="m273.644531 18.730469 6.855469-3.957031v7.917968zm0 0"/><path d="m266.789062 22.691406 6.855469-3.960937v7.917969zm0 0"/><path d="m287.355469 42.480469-6.855469-3.960938v7.917969zm0 0"/><path d="m280.5 38.519531-6.855469-3.957031v7.917969zm0 0"/><path d="m294.210938 38.519531-6.855469-3.957031v7.917969zm0 0"/><path d="m287.355469 34.5625-6.855469-3.957031v7.914062zm0 0"/><path d="m280.5 54.351562-6.855469-3.957031v7.914063zm0 0"/><path d="m287.355469 50.394531-6.855469-3.957031v7.914062zm0 0"/><path d="m301.066406 42.480469-6.855468-3.960938v7.917969zm0 0"/><path d="m301.066406 34.5625-6.855468-3.957031v7.914062zm0 0"/><path d="m294.210938 22.691406-6.855469-3.960937v7.917969zm0 0"/><path d="m287.355469 18.730469-6.855469-3.957031v7.917968zm0 0"/><path d="m280.5 70.183594-6.855469-3.957032v7.914063zm0 0"/><path d="m294.210938 62.269531-6.855469-3.960937v7.917968zm0 0"/><path d="m320.398438 80.640625h80.160156v-80.160156h-80.160156zm0 0"/></g><path d="m360.5 46.4375 6.855469-3.957031v7.914062zm0 0" fill="#800080"/><path d="m360.5 38.519531 6.855469-3.957031v7.917969zm0 0" fill="#800080"/><path d="m346.789062 38.519531 6.855469-3.957031v7.917969zm0 0" fill="#800080"/><path d="m367.355469 42.480469 6.855469-3.960938v7.917969zm0 0" fill="#800080"/><path d="m367.355469 34.5625 6.855469-3.957031v7.914062zm0 0" fill="#800080"/><path d="m374.210938 38.519531 6.855468-3.957031v7.917969zm0 0" fill="#800080"/><path d="m360.5 22.691406 6.855469-3.960937v7.917969zm0 0" fill="#800080"/><path d="m353.644531 18.730469 6.855469-3.957031v7.917968zm0 0" fill="#800080"/><path d="m360.5 38.519531-6.855469-3.957031v7.917969zm0 0" fill="#800080"/><path d="m360.5 46.4375-6.855469-3.957031v7.914062zm0 0" fill="#800080"/><path d="m374.210938 38.519531-6.855469-3.957031v7.917969zm0 0" fill="#800080"/><path d="m353.644531 34.5625-6.855469-3.957031v7.914062zm0 0" fill="#800080"/><path d="m353.644531 42.480469-6.855469-3.960938v7.917969zm0 0" fill="#800080"/><path d="m360.5 54.351562-6.855469-3.957031v7.914063zm0 0" fill="#800080"/><path d="m367.355469 50.394531-6.855469-3.957031v7.914062zm0 0" fill="#800080"/><path d="m360.5 22.691406-6.855469-3.960937v7.917969zm0 0" fill="#800080"/><path d="m346.789062 38.519531-6.855468-3.957031v7.917969zm0 0" fill="#800080"/><path d="m367.355469 18.730469-6.855469-3.957031v7.917968zm0 0" fill="#800080"/><path d="m400.320312 80.640625h80.398438v-80.160156h-80.398438zm0 0" fill="#800080"/><path d="m433.644531 34.5625 6.855469-3.957031v7.914062zm0 0" fill="#fff"/><path d="m426.789062 38.519531 6.855469-3.957031v7.917969zm0 0" fill="#fff"/><path d="m433.644531 50.394531 6.855469-3.957031v7.914062zm0 0" fill="#fff"/><path d="m433.644531 26.648438 6.855469-3.957032v7.914063zm0 0" fill="#fff"/><path d="m426.789062 30.605469 6.855469-3.957031v7.914062zm0 0" fill="#fff"/><path d="m426.789062 54.351562 6.855469-3.957031v7.914063zm0 0" fill="#fff"/><path d="m433.644531 58.308594 6.855469-3.957032v7.917969zm0 0" fill="#fff"/><path d="m440.5 54.351562 6.855469-3.957031v7.914063zm0 0" fill="#fff"/><path d="m433.644531 18.730469 6.855469-3.957031v7.917968zm0 0" fill="#fff"/><path d="m426.789062 22.691406 6.855469-3.960937v7.917969zm0 0" fill="#fff"/><path d="m413.078125 38.519531 6.855469-3.957031v7.917969zm0 0" fill="#fff"/><path d="m440.5 14.773438 6.855469-3.957032v7.914063zm0 0" fill="#fff"/><path d="m454.210938 38.519531-6.855469-3.957031v7.917969zm0 0" fill="#fff"/><path d="m447.355469 34.5625-6.855469-3.957031v7.914062zm0 0" fill="#fff"/><path d="m454.210938 30.605469-6.855469-3.957031v7.914062zm0 0" fill="#fff"/><path d="m447.355469 26.648438-6.855469-3.957032v7.914063zm0 0" fill="#fff"/><path d="m467.921875 38.519531-6.855469-3.957031v7.917969zm0 0" fill="#fff"/><path d="m454.210938 22.691406-6.855469-3.960937v7.917969zm0 0" fill="#fff"/><path d="m447.355469 18.730469-6.855469-3.957031v7.917968zm0 0" fill="#fff"/><path d="m440.5 14.773438-6.855469-3.957032v7.914063zm0 0" fill="#fff"/><path d="m480.480469 80.640625h80.160156v-80.160156h-80.160156zm0 0" fill="#fff"/><path d="m520.5 38.519531 6.855469-3.957031v7.917969zm0 0" fill="#800080"/><path d="m513.644531 34.5625 6.855469-3.957031v7.914062zm0 0" fill="#800080"/><path d="m527.355469 34.5625 6.855469-3.957031v7.914062zm0 0" fill="#800080"/><path d="m520.5 30.605469 6.855469-3.957031v7.914062zm0 0" fill="#800080"/><path d="m513.644531 26.648438 6.855469-3.957032v7.914063zm0 0" fill="#800080"/><path d="m527.355469 26.648438 6.855469-3.957032v7.914063zm0 0" fill="#800080"/><path d="m520.5 22.691406 6.855469-3.960937v7.917969zm0 0" fill="#800080"/><path d="m520.5 14.773438 6.855469-3.957032v7.914063zm0 0" fill="#800080"/><path d="m520.5 38.519531-6.855469-3.957031v7.917969zm0 0" fill="#800080"/><path d="m527.355469 34.5625-6.855469-3.957031v7.914062zm0 0" fill="#800080"/><path d="m520.5 30.605469-6.855469-3.957031v7.914062zm0 0" fill="#800080"/><path d="m513.644531 34.5625-6.855469-3.957031v7.914062zm0 0" fill="#800080"/><path d="m520.5 54.351562-6.855469-3.957031v7.914063zm0 0" fill="#800080"/><path d="m527.355469 50.394531-6.855469-3.957031v7.914062zm0 0" fill="#800080"/><path d="m527.355469 26.648438-6.855469-3.957032v7.914063zm0 0" fill="#800080"/><path d="m520.5 22.691406-6.855469-3.960937v7.917969zm0 0" fill="#800080"/><path d="m513.644531 26.648438-6.855469-3.957032v7.914063zm0 0" fill="#800080"/><path d="m527.355469 58.308594-6.855469-3.957032v7.917969zm0 0" fill="#800080"/><path d="m520.5 14.773438-6.855469-3.957032v7.914063zm0 0" fill="#800080"/><path d="m560.398438 80.640625h80.160156v-80.160156h-80.160156zm0 0" fill="#800080"/><path d="m593.644531 42.480469 6.855469-3.960938v7.917969zm0 0" fill="#fff"/><path d="m600.5 46.4375 6.855469-3.957031v7.914062zm0 0" fill="#fff"/><path d="m593.644531 34.5625 6.855469-3.957031v7.914062zm0 0" fill="#fff"/><path d="m600.5 30.605469 6.855469-3.957031v7.914062zm0 0" fill="#fff"/><path d="m593.644531 26.648438 6.855469-3.957032v7.914063zm0 0" fill="#fff"/><path d="m586.789062 30.605469 6.855469-3.957031v7.914062zm0 0" fill="#fff"/><path d="m579.933594 34.5625 6.855468-3.957031v7.914062zm0 0" fill="#fff"/><path d="m586.789062 54.351562 6.855469-3.957031v7.914063zm0 0" fill="#fff"/><path d="m579.933594 26.648438 6.855468-3.957032v7.914063zm0 0" fill="#fff"/><path d="m600.5 62.269531 6.855469-3.960937v7.917968zm0 0" fill="#fff"/><path d="m593.644531 10.816406 6.855469-3.957031v7.914063zm0 0" fill="#fff"/><path d="m586.789062 14.773438 6.855469-3.957032v7.914063zm0 0" fill="#fff"/><path d="m607.355469 42.480469-6.855469-3.960938v7.917969zm0 0" fill="#fff"/><path d="m607.355469 34.5625-6.855469-3.957031v7.914062zm0 0" fill="#fff"/><path d="m600.5 30.605469-6.855469-3.957031v7.914062zm0 0" fill="#fff"/><path d="m621.066406 34.5625-6.855468-3.957031v7.914062zm0 0" fill="#fff"/><path d="m614.210938 30.605469-6.855469-3.957031v7.914062zm0 0" fill="#fff"/><path d="m607.355469 26.648438-6.855469-3.957032v7.914063zm0 0" fill="#fff"/><path d="m621.066406 26.648438-6.855468-3.957032v7.914063zm0 0" fill="#fff"/><path d="m614.210938 14.773438-6.855469-3.957032v7.914063zm0 0" fill="#fff"/><path d="m607.355469 10.816406-6.855469-3.957031v7.914063zm0 0" fill="#fff"/><path d="m640.320312 80.640625h80.398438v-80.160156h-80.398438zm0 0" fill="#fff"/><path d="m673.644531 42.480469 6.855469-3.960938v7.917969zm0 0" fill="#800080"/><path d="m680.5 46.4375 6.855469-3.957031v7.914062zm0 0" fill="#800080"/><path d="m680.5 38.519531 6.855469-3.957031v7.917969zm0 0" fill="#800080"/><path d="m687.355469 34.5625 6.855469-3.957031v7.914062zm0 0" fill="#800080"/><path d="m680.5 30.605469 6.855469-3.957031v7.914062zm0 0" fill="#800080"/><path d="m666.789062 30.605469 6.855469-3.957031v7.914062zm0 0" fill="#800080"/><path d="m694.210938 30.605469 6.855468-3.957031v7.914062zm0 0" fill="#800080"/><path d="m687.355469 26.648438 6.855469-3.957032v7.914063zm0 0" fill="#800080"/><path d="m680.5 14.773438 6.855469-3.957032v7.914063zm0 0" fill="#800080"/><path d="m673.644531 10.816406 6.855469-3.957031v7.914063zm0 0" fill="#800080"/><path d="m680.5 38.519531-6.855469-3.957031v7.917969zm0 0" fill="#800080"/><path d="m680.5 30.605469-6.855469-3.957031v7.914062zm0 0" fill="#800080"/><path d="m673.644531 34.5625-6.855469-3.957031v7.914062zm0 0" fill="#800080"/><path d="m694.210938 30.605469-6.855469-3.957031v7.914062zm0 0" fill="#800080"/><path d="m673.644531 26.648438-6.855469-3.957032v7.914063zm0 0" fill="#800080"/><path d="m666.789062 30.605469-6.855468-3.957031v7.914062zm0 0" fill="#800080"/><path d="m680.5 14.773438-6.855469-3.957032v7.914063zm0 0" fill="#800080"/><path d="m687.355469 10.816406-6.855469-3.957031v7.914063zm0 0" fill="#800080"/><path d="m0 0h721v1h-721zm0 0"/><path d="m0 80h721v1h-721zm0 0"/><path d="m1 1v79h-1v-79zm0 0"/><path d="m721 1v79h-1v-79zm0 0"/></g></svg>