<svg height="360pt" viewBox="0 0 360 360" width="360pt" xmlns="http://www.w3.org/2000/svg"><path d="m0 0h360v360h-360z" fill="#fff"/><g fill="#800080" fill-rule="evenodd"><path d="m179.636719 180 4.058593-2.339844v4.679688zm0 0"/><path d="m183.695312 182.339844 4.054688-2.339844v4.683594zm0 0"/><path d="m183.695312 177.660156 4.054688-2.34375v4.683594zm0 0"/><path d="m175.582031 177.660156 4.054688-2.34375v4.683594zm0 0"/><path d="m175.582031 182.339844 4.054688-2.339844v4.683594zm0 0"/><path d="m187.75 184.683594 4.054688-2.34375v4.683594zm0 0"/><path d="m187.75 175.316406 4.054688-2.339844v4.683594zm0 0"/><path d="m175.582031 172.976562 4.054688-2.34375v4.683594zm0 0"/><path d="m171.527344 175.316406 4.054687-2.339844v4.683594zm0 0"/><path d="m171.527344 184.683594 4.054687-2.34375v4.683594zm0 0"/><path d="m175.582031 187.023438 4.054688-2.339844v4.683594zm0 0"/><path d="m191.804688 182.339844 4.054687-2.339844v4.683594zm0 0"/><path d="m191.804688 177.660156 4.054687-2.34375v4.683594zm0 0"/><path d="m175.582031 168.292969 4.054688-2.34375v4.683593zm0 0"/><path d="m167.46875 172.976562 4.058594-2.34375v4.683594zm0 0"/><path d="m167.46875 187.023438 4.058594-2.339844v4.683594zm0 0"/><path d="m175.582031 191.707031 4.054688-2.339843v4.683593zm0 0"/><path d="m195.859375 189.367188 4.058594-2.34375v4.683593zm0 0"/><path d="m195.859375 184.683594 4.058594-2.34375v4.683594zm0 0"/><path d="m195.859375 175.316406 4.058594-2.339844v4.683594zm0 0"/><path d="m195.859375 170.632812 4.058594-2.339843v4.683593zm0 0"/><path d="m171.527344 165.949219 4.054687-2.339844v4.683594zm0 0"/><path d="m167.46875 168.292969 4.058594-2.34375v4.683593zm0 0"/><path d="m167.46875 191.707031 4.058594-2.339843v4.683593zm0 0"/><path d="m171.527344 194.050781 4.054687-2.34375v4.683594zm0 0"/><path d="m199.917969 187.023438 4.054687-2.339844v4.683594zm0 0"/><path d="m199.917969 172.976562 4.054687-2.34375v4.683594zm0 0"/><path d="m175.582031 158.925781 4.054688-2.34375v4.683594zm0 0"/><path d="m171.527344 161.265625 4.054687-2.339844v4.683594zm0 0"/><path d="m163.414062 165.949219 4.054688-2.339844v4.683594zm0 0"/><path d="m159.359375 168.292969 4.054687-2.34375v4.683593zm0 0"/><path d="m159.359375 191.707031 4.054687-2.339843v4.683593zm0 0"/><path d="m163.414062 194.050781 4.054688-2.34375v4.683594zm0 0"/><path d="m171.527344 198.734375 4.054687-2.34375v4.683594zm0 0"/><path d="m175.582031 201.074219 4.054688-2.339844v4.683594zm0 0"/><path d="m203.972656 194.050781 4.054688-2.34375v4.683594zm0 0"/><path d="m203.972656 189.367188 4.054688-2.34375v4.683593zm0 0"/><path d="m203.972656 170.632812 4.054688-2.339843v4.683593zm0 0"/><path d="m203.972656 165.949219 4.054688-2.339844v4.683594zm0 0"/><path d="m171.527344 156.582031 4.054687-2.339843v4.683593zm0 0"/><path d="m159.359375 163.609375 4.054687-2.34375v4.683594zm0 0"/><path d="m159.359375 196.390625 4.054687-2.339844v4.683594zm0 0"/><path d="m171.527344 203.417969 4.054687-2.34375v4.683593zm0 0"/><path d="m208.027344 191.707031 4.058594-2.339843v4.683593zm0 0"/><path d="m208.027344 168.292969 4.058594-2.34375v4.683593zm0 0"/><path d="m175.582031 149.558594 4.054688-2.339844v4.679688zm0 0"/><path d="m171.527344 151.898438 4.054687-2.339844v4.683594zm0 0"/><path d="m155.300781 161.265625 4.058594-2.339844v4.683594zm0 0"/><path d="m151.246094 163.609375 4.054687-2.34375v4.683594zm0 0"/><path d="m151.246094 196.390625 4.054687-2.339844v4.683594zm0 0"/><path d="m155.300781 198.734375 4.058594-2.34375v4.683594zm0 0"/><path d="m171.527344 208.101562 4.054687-2.34375v4.683594zm0 0"/><path d="m175.582031 210.441406 4.054688-2.339844v4.679688zm0 0"/><path d="m212.085938 198.734375 4.054687-2.34375v4.683594zm0 0"/><path d="m212.085938 194.050781 4.054687-2.34375v4.683594zm0 0"/><path d="m212.085938 165.949219 4.054687-2.339844v4.683594zm0 0"/><path d="m212.085938 161.265625 4.054687-2.339844v4.683594zm0 0"/><path d="m171.527344 147.21875 4.054687-2.34375v4.683594zm0 0"/><path d="m151.246094 158.925781 4.054687-2.34375v4.683594zm0 0"/><path d="m151.246094 201.074219 4.054687-2.339844v4.683594zm0 0"/><path d="m171.527344 212.78125 4.054687-2.339844v4.683594zm0 0"/><path d="m216.140625 196.390625 4.054687-2.339844v4.683594zm0 0"/><path d="m216.140625 163.609375 4.054687-2.34375v4.683594zm0 0"/><path d="m175.582031 140.191406 4.054688-2.339844v4.683594zm0 0"/><path d="m171.527344 142.535156 4.054687-2.34375v4.683594zm0 0"/><path d="m147.191406 156.582031 4.054688-2.339843v4.683593zm0 0"/><path d="m143.136719 158.925781 4.054687-2.34375v4.683594zm0 0"/><path d="m143.136719 201.074219 4.054687-2.339844v4.683594zm0 0"/><path d="m147.191406 203.417969 4.054688-2.34375v4.683593zm0 0"/><path d="m171.527344 217.464844 4.054687-2.339844v4.683594zm0 0"/><path d="m175.582031 219.808594 4.054688-2.34375v4.683594zm0 0"/><path d="m220.195312 203.417969 4.058594-2.34375v4.683593zm0 0"/><path d="m220.195312 198.734375 4.058594-2.34375v4.683594zm0 0"/><path d="m220.195312 161.265625 4.058594-2.339844v4.683594zm0 0"/><path d="m220.195312 156.582031 4.058594-2.339843v4.683593zm0 0"/><path d="m171.527344 137.851562 4.054687-2.34375v4.683594zm0 0"/><path d="m143.136719 154.242188 4.054687-2.34375v4.683593zm0 0"/><path d="m143.136719 205.757812 4.054687-2.339843v4.683593zm0 0"/><path d="m171.527344 222.148438 4.054687-2.339844v4.683594zm0 0"/><path d="m224.253906 201.074219 4.054688-2.339844v4.683594zm0 0"/><path d="m224.253906 158.925781 4.054688-2.34375v4.683594zm0 0"/><path d="m175.582031 130.824219 4.054688-2.339844v4.683594zm0 0"/><path d="m171.527344 133.167969 4.054687-2.34375v4.683593zm0 0"/><path d="m139.078125 151.898438 4.058594-2.339844v4.683594zm0 0"/><path d="m135.023438 154.242188 4.054687-2.34375v4.683593zm0 0"/><path d="m135.023438 205.757812 4.054687-2.339843v4.683593zm0 0"/><path d="m139.078125 208.101562 4.058594-2.34375v4.683594zm0 0"/><path d="m171.527344 226.832031 4.054687-2.339843v4.683593zm0 0"/><path d="m175.582031 229.175781 4.054688-2.34375v4.683594zm0 0"/><path d="m228.308594 208.101562 4.054687-2.34375v4.683594zm0 0"/><path d="m228.308594 203.417969 4.054687-2.34375v4.683593zm0 0"/><path d="m228.308594 156.582031 4.054687-2.339843v4.683593zm0 0"/><path d="m228.308594 151.898438 4.054687-2.339844v4.683594zm0 0"/><path d="m171.527344 128.484375 4.054687-2.34375v4.683594zm0 0"/><path d="m135.023438 149.558594 4.054687-2.339844v4.679688zm0 0"/><path d="m135.023438 210.441406 4.054687-2.339844v4.679688zm0 0"/><path d="m171.527344 231.515625 4.054687-2.339844v4.683594zm0 0"/><path d="m232.363281 205.757812 4.054688-2.339843v4.683593zm0 0"/><path d="m232.363281 154.242188 4.054688-2.34375v4.683593zm0 0"/><path d="m175.582031 121.457031 4.054688-2.339843v4.683593zm0 0"/><path d="m171.527344 123.800781 4.054687-2.34375v4.683594zm0 0"/><path d="m130.96875 147.21875 4.054688-2.34375v4.683594zm0 0"/><path d="m126.910156 149.558594 4.058594-2.339844v4.679688zm0 0"/><path d="m126.910156 210.441406 4.058594-2.339844v4.679688zm0 0"/><path d="m130.96875 212.78125 4.054688-2.339844v4.683594zm0 0"/><path d="m171.527344 236.199219 4.054687-2.339844v4.683594zm0 0"/><path d="m175.582031 238.542969 4.054688-2.34375v4.683593zm0 0"/><path d="m236.417969 212.78125 4.058593-2.339844v4.683594zm0 0"/><path d="m236.417969 208.101562 4.058593-2.34375v4.683594zm0 0"/><path d="m236.417969 151.898438 4.058593-2.339844v4.683594zm0 0"/><path d="m236.417969 147.21875 4.058593-2.34375v4.683594zm0 0"/><path d="m171.527344 119.117188 4.054687-2.339844v4.679687zm0 0"/><path d="m126.910156 144.875 4.058594-2.339844v4.683594zm0 0"/><path d="m126.910156 215.125 4.058594-2.34375v4.683594zm0 0"/><path d="m171.527344 240.882812 4.054687-2.339843v4.679687zm0 0"/><path d="m240.476562 210.441406 4.054688-2.339844v4.679688zm0 0"/><path d="m240.476562 149.558594 4.054688-2.339844v4.679688zm0 0"/><path d="m175.582031 112.09375 4.054688-2.34375v4.683594zm0 0"/><path d="m171.527344 114.433594 4.054687-2.339844v4.683594zm0 0"/><path d="m122.855469 142.535156 4.054687-2.34375v4.683594zm0 0"/><path d="m118.800781 144.875 4.054688-2.339844v4.683594zm0 0"/><path d="m118.800781 215.125 4.054688-2.34375v4.683594zm0 0"/><path d="m122.855469 217.464844 4.054687-2.339844v4.683594zm0 0"/><path d="m171.527344 245.566406 4.054687-2.34375v4.683594zm0 0"/><path d="m175.582031 247.90625 4.054688-2.339844v4.683594zm0 0"/><path d="m244.53125 217.464844 4.054688-2.339844v4.683594zm0 0"/><path d="m244.53125 212.78125 4.054688-2.339844v4.683594zm0 0"/><path d="m244.53125 147.21875 4.054688-2.34375v4.683594zm0 0"/><path d="m244.53125 142.535156 4.054688-2.34375v4.683594zm0 0"/><path d="m171.527344 109.75 4.054687-2.339844v4.683594zm0 0"/><path d="m118.800781 140.191406 4.054688-2.339844v4.683594zm0 0"/><path d="m118.800781 219.808594 4.054688-2.34375v4.683594zm0 0"/><path d="m171.527344 250.25 4.054687-2.34375v4.683594zm0 0"/><path d="m248.585938 215.125 4.058593-2.34375v4.683594zm0 0"/><path d="m248.585938 144.875 4.058593-2.339844v4.683594zm0 0"/><path d="m175.582031 102.726562 4.054688-2.34375v4.683594zm0 0"/><path d="m171.527344 105.066406 4.054687-2.339844v4.683594zm0 0"/><path d="m114.746094 137.851562 4.054687-2.34375v4.683594zm0 0"/><path d="m110.6875 140.191406 4.058594-2.339844v4.683594zm0 0"/><path d="m110.6875 219.808594 4.058594-2.34375v4.683594zm0 0"/><path d="m114.746094 222.148438 4.054687-2.339844v4.683594zm0 0"/><path d="m171.527344 254.933594 4.054687-2.34375v4.683594zm0 0"/><path d="m175.582031 257.273438 4.054688-2.339844v4.683594zm0 0"/><path d="m252.644531 222.148438 4.054688-2.339844v4.683594zm0 0"/><path d="m252.644531 217.464844 4.054688-2.339844v4.683594zm0 0"/><path d="m252.644531 142.535156 4.054688-2.34375v4.683594zm0 0"/><path d="m252.644531 137.851562 4.054688-2.34375v4.683594zm0 0"/><path d="m171.527344 100.382812 4.054687-2.339843v4.683593zm0 0"/><path d="m110.6875 135.507812 4.058594-2.339843v4.683593zm0 0"/><path d="m110.6875 224.492188 4.058594-2.34375v4.683593zm0 0"/><path d="m171.527344 259.617188 4.054687-2.34375v4.683593zm0 0"/><path d="m256.699219 219.808594 4.054687-2.34375v4.683594zm0 0"/><path d="m256.699219 140.191406 4.054687-2.339844v4.683594zm0 0"/><path d="m175.582031 93.359375 4.054688-2.339844v4.679688zm0 0"/><path d="m171.527344 95.699219 4.054687-2.339844v4.683594zm0 0"/><path d="m106.632812 133.167969 4.054688-2.34375v4.683593zm0 0"/><path d="m102.578125 135.507812 4.054687-2.339843v4.683593zm0 0"/><path d="m102.578125 224.492188 4.054687-2.34375v4.683593zm0 0"/><path d="m106.632812 226.832031 4.054688-2.339843v4.683593zm0 0"/><path d="m171.527344 264.300781 4.054687-2.34375v4.683594zm0 0"/><path d="m175.582031 266.640625 4.054688-2.339844v4.679688zm0 0"/><path d="m260.753906 226.832031 4.054688-2.339843v4.683593zm0 0"/><path d="m260.753906 222.148438 4.054688-2.339844v4.683594zm0 0"/><path d="m260.753906 137.851562 4.054688-2.34375v4.683594zm0 0"/><path d="m260.753906 133.167969 4.054688-2.34375v4.683593zm0 0"/><path d="m171.527344 91.019531 4.054687-2.34375v4.683594zm0 0"/><path d="m102.578125 130.824219 4.054687-2.339844v4.683594zm0 0"/><path d="m102.578125 229.175781 4.054687-2.34375v4.683594zm0 0"/><path d="m171.527344 268.980469 4.054687-2.339844v4.683594zm0 0"/><path d="m264.808594 224.492188 4.058594-2.34375v4.683593zm0 0"/><path d="m264.808594 135.507812 4.058594-2.339843v4.683593zm0 0"/><path d="m175.582031 83.992188 4.054688-2.339844v4.683594zm0 0"/><path d="m171.527344 86.335938 4.054687-2.34375v4.683593zm0 0"/><path d="m98.519531 128.484375 4.058594-2.34375v4.683594zm0 0"/><path d="m94.464844 130.824219 4.054687-2.339844v4.683594zm0 0"/><path d="m94.464844 229.175781 4.054687-2.34375v4.683594zm0 0"/><path d="m98.519531 231.515625 4.058594-2.339844v4.683594zm0 0"/><path d="m171.527344 273.664062 4.054687-2.339843v4.683593zm0 0"/><path d="m175.582031 276.007812 4.054688-2.34375v4.683594zm0 0"/><path d="m268.867188 231.515625 4.054687-2.339844v4.683594zm0 0"/><path d="m268.867188 226.832031 4.054687-2.339843v4.683593zm0 0"/><path d="m268.867188 133.167969 4.054687-2.34375v4.683593zm0 0"/><path d="m268.867188 128.484375 4.054687-2.34375v4.683594zm0 0"/><path d="m171.527344 81.652344 4.054687-2.34375v4.683594zm0 0"/><path d="m94.464844 126.140625 4.054687-2.339844v4.683594zm0 0"/><path d="m94.464844 233.859375 4.054687-2.34375v4.683594zm0 0"/><path d="m171.527344 278.347656 4.054687-2.339844v4.683594zm0 0"/><path d="m272.921875 229.175781 4.054687-2.34375v4.683594zm0 0"/><path d="m272.921875 130.824219 4.054687-2.339844v4.683594zm0 0"/><path d="m175.582031 74.625 4.054688-2.339844v4.683594zm0 0"/><path d="m171.527344 76.96875 4.054687-2.34375v4.683594zm0 0"/><path d="m90.410156 123.800781 4.054688-2.34375v4.683594zm0 0"/><path d="m86.351562 126.140625 4.058594-2.339844v4.683594zm0 0"/><path d="m86.351562 233.859375 4.058594-2.34375v4.683594zm0 0"/><path d="m90.410156 236.199219 4.054688-2.339844v4.683594zm0 0"/><path d="m171.527344 283.03125 4.054687-2.339844v4.683594zm0 0"/><path d="m175.582031 285.375 4.054688-2.34375v4.683594zm0 0"/><path d="m276.976562 236.199219 4.058594-2.339844v4.683594zm0 0"/><path d="m276.976562 231.515625 4.058594-2.339844v4.683594zm0 0"/><path d="m276.976562 128.484375 4.058594-2.34375v4.683594zm0 0"/><path d="m276.976562 123.800781 4.058594-2.34375v4.683594zm0 0"/><path d="m171.527344 72.285156 4.054687-2.34375v4.683594zm0 0"/><path d="m86.351562 121.457031 4.058594-2.339843v4.683593zm0 0"/><path d="m86.351562 238.542969 4.058594-2.34375v4.683593zm0 0"/><path d="m171.527344 287.714844 4.054687-2.339844v4.683594zm0 0"/><path d="m281.035156 233.859375 4.054688-2.34375v4.683594zm0 0"/><path d="m281.035156 126.140625 4.054688-2.339844v4.683594zm0 0"/><path d="m175.582031 65.257812 4.054688-2.339843v4.683593zm0 0"/><path d="m171.527344 67.601562 4.054687-2.34375v4.683594zm0 0"/><path d="m82.296875 119.117188 4.054687-2.339844v4.679687zm0 0"/><path d="m78.242188 121.457031 4.054687-2.339843v4.683593zm0 0"/><path d="m78.242188 238.542969 4.054687-2.34375v4.683593zm0 0"/><path d="m82.296875 240.882812 4.054687-2.339843v4.679687zm0 0"/><path d="m171.527344 292.398438 4.054687-2.339844v4.683594zm0 0"/><path d="m175.582031 294.742188 4.054688-2.34375v4.683593zm0 0"/><path d="m285.089844 240.882812 4.054687-2.339843v4.679687zm0 0"/><path d="m285.089844 236.199219 4.054687-2.339844v4.683594zm0 0"/><path d="m285.089844 123.800781 4.054687-2.34375v4.683594zm0 0"/><path d="m285.089844 119.117188 4.054687-2.339844v4.679687zm0 0"/><path d="m171.527344 62.917969 4.054687-2.339844v4.679687zm0 0"/><path d="m78.242188 116.777344 4.054687-2.34375v4.683594zm0 0"/><path d="m78.242188 243.222656 4.054687-2.339844v4.683594zm0 0"/><path d="m171.527344 297.082031 4.054687-2.339843v4.679687zm0 0"/><path d="m289.144531 238.542969 4.058594-2.34375v4.683593zm0 0"/><path d="m289.144531 121.457031 4.058594-2.339843v4.683593zm0 0"/><path d="m175.582031 55.894531 4.054688-2.34375v4.683594zm0 0"/><path d="m171.527344 58.234375 4.054687-2.339844v4.683594zm0 0"/><path d="m74.1875 114.433594 4.054688-2.339844v4.683594zm0 0"/><path d="m70.128906 116.777344 4.058594-2.34375v4.683594zm0 0"/><path d="m70.128906 243.222656 4.058594-2.339844v4.683594zm0 0"/><path d="m74.1875 245.566406 4.054688-2.34375v4.683594zm0 0"/><path d="m171.527344 301.765625 4.054687-2.34375v4.683594zm0 0"/><path d="m175.582031 304.105469 4.054688-2.339844v4.683594zm0 0"/><path d="m293.203125 245.566406 4.054687-2.34375v4.683594zm0 0"/><path d="m293.203125 240.882812 4.054687-2.339843v4.679687zm0 0"/><path d="m293.203125 119.117188 4.054687-2.339844v4.679687zm0 0"/><path d="m293.203125 114.433594 4.054687-2.339844v4.683594zm0 0"/><path d="m171.527344 53.550781 4.054687-2.339843v4.683593zm0 0"/><path d="m70.128906 112.09375 4.058594-2.34375v4.683594zm0 0"/><path d="m70.128906 247.90625 4.058594-2.339844v4.683594zm0 0"/><path d="m171.527344 306.449219 4.054687-2.34375v4.683593zm0 0"/><path d="m297.257812 243.222656 4.054688-2.339844v4.683594zm0 0"/><path d="m297.257812 116.777344 4.054688-2.34375v4.683594zm0 0"/><path d="m175.582031 46.527344 4.054688-2.34375v4.683594zm0 0"/><path d="m171.527344 48.867188 4.054687-2.339844v4.683594zm0 0"/><path d="m66.074219 109.75 4.054687-2.339844v4.683594zm0 0"/><path d="m62.019531 112.09375 4.054688-2.34375v4.683594zm0 0"/><path d="m62.019531 247.90625 4.054688-2.339844v4.683594zm0 0"/><path d="m66.074219 250.25 4.054687-2.34375v4.683594zm0 0"/><path d="m171.527344 311.132812 4.054687-2.34375v4.683594zm0 0"/><path d="m175.582031 313.472656 4.054688-2.339844v4.683594zm0 0"/><path d="m301.3125 245.566406 4.054688-2.34375v4.683594zm0 0"/><path d="m301.3125 114.433594 4.054688-2.339844v4.683594zm0 0"/><path d="m171.527344 44.183594 4.054687-2.339844v4.683594zm0 0"/><path d="m62.019531 107.410156 4.054688-2.34375v4.683594zm0 0"/><path d="m62.019531 252.589844 4.054688-2.339844v4.683594zm0 0"/><path d="m171.527344 315.816406 4.054687-2.34375v4.683594zm0 0"/><path d="m305.367188 252.589844 4.058593-2.339844v4.683594zm0 0"/><path d="m305.367188 247.90625 4.058593-2.339844v4.683594zm0 0"/><path d="m305.367188 112.09375 4.058593-2.34375v4.683594zm0 0"/><path d="m305.367188 107.410156 4.058593-2.34375v4.683594zm0 0"/><path d="m171.527344 39.5 4.054687-2.339844v4.683594zm0 0"/><path d="m57.960938 105.066406 4.058593-2.339844v4.683594zm0 0"/><path d="m57.960938 254.933594 4.058593-2.34375v4.683594zm0 0"/><path d="m171.527344 320.5 4.054687-2.34375v4.683594zm0 0"/><path d="m309.425781 254.933594 4.054688-2.34375v4.683594zm0 0"/><path d="m309.425781 105.066406 4.054688-2.339844v4.683594zm0 0"/><path d="m175.582031 32.476562 4.054688-2.339843v4.679687zm0 0"/><path d="m171.527344 34.816406 4.054687-2.339844v4.683594zm0 0"/><path d="m53.90625 102.726562 4.054688-2.34375v4.683594zm0 0"/><path d="m49.851562 105.066406 4.054688-2.339844v4.683594zm0 0"/><path d="m49.851562 254.933594 4.054688-2.34375v4.683594zm0 0"/><path d="m53.90625 257.273438 4.054688-2.339844v4.683594zm0 0"/><path d="m171.527344 325.183594 4.054687-2.34375v4.683594zm0 0"/><path d="m175.582031 327.523438 4.054688-2.339844v4.679687zm0 0"/><path d="m175.582031 27.792969 4.054688-2.339844v4.683594zm0 0"/><path d="m45.796875 102.726562 4.054687-2.34375v4.683594zm0 0"/><path d="m45.796875 257.273438 4.054687-2.339844v4.683594zm0 0"/><path d="m175.582031 332.207031 4.054688-2.34375v4.683594zm0 0"/><path d="m183.695312 177.660156-4.058593-2.34375v4.683594zm0 0"/><path d="m183.695312 182.339844-4.058593-2.339844v4.683594zm0 0"/><path d="m187.75 175.316406-4.054688-2.339844v4.683594zm0 0"/><path d="m183.695312 172.976562-4.058593-2.34375v4.683594zm0 0"/><path d="m179.636719 180-4.054688-2.339844v4.679688zm0 0"/><path d="m183.695312 187.023438-4.058593-2.339844v4.683594zm0 0"/><path d="m187.75 184.683594-4.054688-2.34375v4.683594zm0 0"/><path d="m191.804688 172.976562-4.054688-2.34375v4.683594zm0 0"/><path d="m183.695312 168.292969-4.058593-2.34375v4.683593zm0 0"/><path d="m175.582031 177.660156-4.054687-2.34375v4.683594zm0 0"/><path d="m175.582031 182.339844-4.054687-2.339844v4.683594zm0 0"/><path d="m183.695312 191.707031-4.058593-2.339843v4.683593zm0 0"/><path d="m191.804688 187.023438-4.054688-2.339844v4.683594zm0 0"/><path d="m191.804688 168.292969-4.054688-2.34375v4.683593zm0 0"/><path d="m187.75 165.949219-4.054688-2.339844v4.683594zm0 0"/><path d="m171.527344 175.316406-4.058594-2.339844v4.683594zm0 0"/><path d="m171.527344 184.683594-4.058594-2.34375v4.683594zm0 0"/><path d="m187.75 194.050781-4.054688-2.34375v4.683594zm0 0"/><path d="m191.804688 191.707031-4.054688-2.339843v4.683593zm0 0"/><path d="m199.917969 168.292969-4.058594-2.34375v4.683593zm0 0"/><path d="m195.859375 165.949219-4.054687-2.339844v4.683594zm0 0"/><path d="m187.75 161.265625-4.054688-2.339844v4.683594zm0 0"/><path d="m183.695312 158.925781-4.058593-2.34375v4.683594zm0 0"/><path d="m167.46875 177.660156-4.054688-2.34375v4.683594zm0 0"/><path d="m167.46875 182.339844-4.054688-2.339844v4.683594zm0 0"/><path d="m183.695312 201.074219-4.058593-2.339844v4.683594zm0 0"/><path d="m187.75 198.734375-4.054688-2.34375v4.683594zm0 0"/><path d="m195.859375 194.050781-4.054687-2.34375v4.683594zm0 0"/><path d="m199.917969 191.707031-4.058594-2.339843v4.683593zm0 0"/><path d="m199.917969 163.609375-4.058594-2.34375v4.683594zm0 0"/><path d="m187.75 156.582031-4.054688-2.339843v4.683593zm0 0"/><path d="m163.414062 170.632812-4.054687-2.339843v4.683593zm0 0"/><path d="m163.414062 175.316406-4.054687-2.339844v4.683594zm0 0"/><path d="m163.414062 184.683594-4.054687-2.34375v4.683594zm0 0"/><path d="m163.414062 189.367188-4.054687-2.34375v4.683593zm0 0"/><path d="m187.75 203.417969-4.054688-2.34375v4.683593zm0 0"/><path d="m199.917969 196.390625-4.058594-2.339844v4.683594zm0 0"/><path d="m208.027344 163.609375-4.054688-2.34375v4.683594zm0 0"/><path d="m203.972656 161.265625-4.054687-2.339844v4.683594zm0 0"/><path d="m187.75 151.898438-4.054688-2.339844v4.683594zm0 0"/><path d="m183.695312 149.558594-4.058593-2.339844v4.679688zm0 0"/><path d="m159.359375 172.976562-4.058594-2.34375v4.683594zm0 0"/><path d="m159.359375 187.023438-4.058594-2.339844v4.683594zm0 0"/><path d="m183.695312 210.441406-4.058593-2.339844v4.679688zm0 0"/><path d="m187.75 208.101562-4.054688-2.34375v4.683594zm0 0"/><path d="m203.972656 198.734375-4.054687-2.34375v4.683594zm0 0"/><path d="m208.027344 196.390625-4.054688-2.339844v4.683594zm0 0"/><path d="m208.027344 158.925781-4.054688-2.34375v4.683594zm0 0"/><path d="m187.75 147.21875-4.054688-2.34375v4.683594zm0 0"/><path d="m155.300781 165.949219-4.054687-2.339844v4.683594zm0 0"/><path d="m155.300781 170.632812-4.054687-2.339843v4.683593zm0 0"/><path d="m155.300781 189.367188-4.054687-2.34375v4.683593zm0 0"/><path d="m155.300781 194.050781-4.054687-2.34375v4.683594zm0 0"/><path d="m187.75 212.78125-4.054688-2.339844v4.683594zm0 0"/><path d="m208.027344 201.074219-4.054688-2.339844v4.683594zm0 0"/><path d="m216.140625 158.925781-4.054687-2.34375v4.683594zm0 0"/><path d="m212.085938 156.582031-4.058594-2.339843v4.683593zm0 0"/><path d="m187.75 142.535156-4.054688-2.34375v4.683594zm0 0"/><path d="m183.695312 140.191406-4.058593-2.339844v4.683594zm0 0"/><path d="m151.246094 168.292969-4.054688-2.34375v4.683593zm0 0"/><path d="m151.246094 191.707031-4.054688-2.339843v4.683593zm0 0"/><path d="m183.695312 219.808594-4.058593-2.34375v4.683594zm0 0"/><path d="m187.75 217.464844-4.054688-2.339844v4.683594zm0 0"/><path d="m212.085938 203.417969-4.058594-2.34375v4.683593zm0 0"/><path d="m216.140625 201.074219-4.054687-2.339844v4.683594zm0 0"/><path d="m216.140625 154.242188-4.054687-2.34375v4.683593zm0 0"/><path d="m187.75 137.851562-4.054688-2.34375v4.683594zm0 0"/><path d="m147.191406 161.265625-4.054687-2.339844v4.683594zm0 0"/><path d="m147.191406 165.949219-4.054687-2.339844v4.683594zm0 0"/><path d="m147.191406 194.050781-4.054687-2.34375v4.683594zm0 0"/><path d="m147.191406 198.734375-4.054687-2.34375v4.683594zm0 0"/><path d="m187.75 222.148438-4.054688-2.339844v4.683594zm0 0"/><path d="m216.140625 205.757812-4.054687-2.339843v4.683593zm0 0"/><path d="m224.253906 154.242188-4.058594-2.34375v4.683593zm0 0"/><path d="m220.195312 151.898438-4.054687-2.339844v4.683594zm0 0"/><path d="m187.75 133.167969-4.054688-2.34375v4.683593zm0 0"/><path d="m183.695312 130.824219-4.058593-2.339844v4.683594zm0 0"/><path d="m143.136719 163.609375-4.058594-2.34375v4.683594zm0 0"/><path d="m143.136719 196.390625-4.058594-2.339844v4.683594zm0 0"/><path d="m183.695312 229.175781-4.058593-2.34375v4.683594zm0 0"/><path d="m187.75 226.832031-4.054688-2.339843v4.683593zm0 0"/><path d="m220.195312 208.101562-4.054687-2.34375v4.683594zm0 0"/><path d="m224.253906 205.757812-4.058594-2.339843v4.683593zm0 0"/><path d="m224.253906 149.558594-4.058594-2.339844v4.679688zm0 0"/><path d="m187.75 128.484375-4.054688-2.34375v4.683594zm0 0"/><path d="m139.078125 156.582031-4.054687-2.339843v4.683593zm0 0"/><path d="m139.078125 161.265625-4.054687-2.339844v4.683594zm0 0"/><path d="m139.078125 198.734375-4.054687-2.34375v4.683594zm0 0"/><path d="m139.078125 203.417969-4.054687-2.34375v4.683593zm0 0"/><path d="m187.75 231.515625-4.054688-2.339844v4.683594zm0 0"/><path d="m224.253906 210.441406-4.058594-2.339844v4.679688zm0 0"/><path d="m232.363281 149.558594-4.054687-2.339844v4.679688zm0 0"/><path d="m228.308594 147.21875-4.054688-2.34375v4.683594zm0 0"/><path d="m187.75 123.800781-4.054688-2.34375v4.683594zm0 0"/><path d="m183.695312 121.457031-4.058593-2.339843v4.683593zm0 0"/><path d="m135.023438 158.925781-4.054688-2.34375v4.683594zm0 0"/><path d="m135.023438 201.074219-4.054688-2.339844v4.683594zm0 0"/><path d="m183.695312 238.542969-4.058593-2.34375v4.683593zm0 0"/><path d="m187.75 236.199219-4.054688-2.339844v4.683594zm0 0"/><path d="m228.308594 212.78125-4.054688-2.339844v4.683594zm0 0"/><path d="m232.363281 210.441406-4.054687-2.339844v4.679688zm0 0"/><path d="m232.363281 144.875-4.054687-2.339844v4.683594zm0 0"/><path d="m187.75 119.117188-4.054688-2.339844v4.679687zm0 0"/><path d="m130.96875 151.898438-4.058594-2.339844v4.683594zm0 0"/><path d="m130.96875 156.582031-4.058594-2.339843v4.683593zm0 0"/><path d="m130.96875 203.417969-4.058594-2.34375v4.683593zm0 0"/><path d="m130.96875 208.101562-4.058594-2.34375v4.683594zm0 0"/><path d="m187.75 240.882812-4.054688-2.339843v4.679687zm0 0"/><path d="m232.363281 215.125-4.054687-2.34375v4.683594zm0 0"/><path d="m240.476562 144.875-4.058593-2.339844v4.683594zm0 0"/><path d="m236.417969 142.535156-4.054688-2.34375v4.683594zm0 0"/><path d="m187.75 114.433594-4.054688-2.339844v4.683594zm0 0"/><path d="m183.695312 112.09375-4.058593-2.34375v4.683594zm0 0"/><path d="m126.910156 154.242188-4.054687-2.34375v4.683593zm0 0"/><path d="m126.910156 205.757812-4.054687-2.339843v4.683593zm0 0"/><path d="m183.695312 247.90625-4.058593-2.339844v4.683594zm0 0"/><path d="m187.75 245.566406-4.054688-2.34375v4.683594zm0 0"/><path d="m236.417969 217.464844-4.054688-2.339844v4.683594zm0 0"/><path d="m240.476562 215.125-4.058593-2.34375v4.683594zm0 0"/><path d="m240.476562 140.191406-4.058593-2.339844v4.683594zm0 0"/><path d="m187.75 109.75-4.054688-2.339844v4.683594zm0 0"/><path d="m122.855469 147.21875-4.054688-2.34375v4.683594zm0 0"/><path d="m122.855469 151.898438-4.054688-2.339844v4.683594zm0 0"/><path d="m122.855469 208.101562-4.054688-2.34375v4.683594zm0 0"/><path d="m122.855469 212.78125-4.054688-2.339844v4.683594zm0 0"/><path d="m187.75 250.25-4.054688-2.34375v4.683594zm0 0"/><path d="m240.476562 219.808594-4.058593-2.34375v4.683594zm0 0"/><path d="m248.585938 140.191406-4.054688-2.339844v4.683594zm0 0"/><path d="m244.53125 137.851562-4.054688-2.34375v4.683594zm0 0"/><path d="m187.75 105.066406-4.054688-2.339844v4.683594zm0 0"/><path d="m183.695312 102.726562-4.058593-2.34375v4.683594zm0 0"/><path d="m118.800781 149.558594-4.054687-2.339844v4.679688zm0 0"/><path d="m118.800781 210.441406-4.054687-2.339844v4.679688zm0 0"/><path d="m183.695312 257.273438-4.058593-2.339844v4.683594zm0 0"/><path d="m187.75 254.933594-4.054688-2.34375v4.683594zm0 0"/><path d="m244.53125 222.148438-4.054688-2.339844v4.683594zm0 0"/><path d="m248.585938 219.808594-4.054688-2.34375v4.683594zm0 0"/><path d="m248.585938 135.507812-4.054688-2.339843v4.683593zm0 0"/><path d="m187.75 100.382812-4.054688-2.339843v4.683593zm0 0"/><path d="m114.746094 142.535156-4.058594-2.34375v4.683594zm0 0"/><path d="m114.746094 147.21875-4.058594-2.34375v4.683594zm0 0"/><path d="m114.746094 212.78125-4.058594-2.339844v4.683594zm0 0"/><path d="m114.746094 217.464844-4.058594-2.339844v4.683594zm0 0"/><path d="m187.75 259.617188-4.054688-2.34375v4.683593zm0 0"/><path d="m248.585938 224.492188-4.054688-2.34375v4.683593zm0 0"/><path d="m256.699219 135.507812-4.054688-2.339843v4.683593zm0 0"/><path d="m252.644531 133.167969-4.058593-2.34375v4.683593zm0 0"/><path d="m187.75 95.699219-4.054688-2.339844v4.683594zm0 0"/><path d="m183.695312 93.359375-4.058593-2.339844v4.679688zm0 0"/><path d="m110.6875 144.875-4.054688-2.339844v4.683594zm0 0"/><path d="m110.6875 215.125-4.054688-2.34375v4.683594zm0 0"/><path d="m183.695312 266.640625-4.058593-2.339844v4.679688zm0 0"/><path d="m187.75 264.300781-4.054688-2.34375v4.683594zm0 0"/><path d="m252.644531 226.832031-4.058593-2.339843v4.683593zm0 0"/><path d="m256.699219 224.492188-4.054688-2.34375v4.683593zm0 0"/><path d="m256.699219 130.824219-4.054688-2.339844v4.683594zm0 0"/><path d="m187.75 91.019531-4.054688-2.34375v4.683594zm0 0"/><path d="m106.632812 137.851562-4.054687-2.34375v4.683594zm0 0"/><path d="m106.632812 142.535156-4.054687-2.34375v4.683594zm0 0"/><path d="m106.632812 217.464844-4.054687-2.339844v4.683594zm0 0"/><path d="m106.632812 222.148438-4.054687-2.339844v4.683594zm0 0"/><path d="m187.75 268.980469-4.054688-2.339844v4.683594zm0 0"/><path d="m256.699219 229.175781-4.054688-2.34375v4.683594zm0 0"/><path d="m264.808594 130.824219-4.054688-2.339844v4.683594zm0 0"/><path d="m260.753906 128.484375-4.054687-2.34375v4.683594zm0 0"/><path d="m187.75 86.335938-4.054688-2.34375v4.683593zm0 0"/><path d="m183.695312 83.992188-4.058593-2.339844v4.683594zm0 0"/><path d="m102.578125 140.191406-4.058594-2.339844v4.683594zm0 0"/><path d="m102.578125 219.808594-4.058594-2.34375v4.683594zm0 0"/><path d="m183.695312 276.007812-4.058593-2.34375v4.683594zm0 0"/><path d="m187.75 273.664062-4.054688-2.339843v4.683593zm0 0"/><path d="m260.753906 231.515625-4.054687-2.339844v4.683594zm0 0"/><path d="m264.808594 229.175781-4.054688-2.34375v4.683594zm0 0"/><path d="m264.808594 126.140625-4.054688-2.339844v4.683594zm0 0"/><path d="m187.75 81.652344-4.054688-2.34375v4.683594zm0 0"/><path d="m98.519531 133.167969-4.054687-2.34375v4.683593zm0 0"/><path d="m98.519531 137.851562-4.054687-2.34375v4.683594zm0 0"/><path d="m98.519531 222.148438-4.054687-2.339844v4.683594zm0 0"/><path d="m98.519531 226.832031-4.054687-2.339843v4.683593zm0 0"/><path d="m187.75 278.347656-4.054688-2.339844v4.683594zm0 0"/><path d="m264.808594 233.859375-4.054688-2.34375v4.683594zm0 0"/><path d="m272.921875 126.140625-4.054687-2.339844v4.683594zm0 0"/><path d="m268.867188 123.800781-4.058594-2.34375v4.683594zm0 0"/><path d="m187.75 76.96875-4.054688-2.34375v4.683594zm0 0"/><path d="m183.695312 74.625-4.058593-2.339844v4.683594zm0 0"/><path d="m94.464844 135.507812-4.054688-2.339843v4.683593zm0 0"/><path d="m94.464844 224.492188-4.054688-2.34375v4.683593zm0 0"/><path d="m183.695312 285.375-4.058593-2.34375v4.683594zm0 0"/><path d="m187.75 283.03125-4.054688-2.339844v4.683594zm0 0"/><path d="m268.867188 236.199219-4.058594-2.339844v4.683594zm0 0"/><path d="m272.921875 233.859375-4.054687-2.34375v4.683594zm0 0"/><path d="m272.921875 121.457031-4.054687-2.339843v4.683593zm0 0"/><path d="m187.75 72.285156-4.054688-2.34375v4.683594zm0 0"/><path d="m90.410156 128.484375-4.058594-2.34375v4.683594zm0 0"/><path d="m90.410156 133.167969-4.058594-2.34375v4.683593zm0 0"/><path d="m90.410156 226.832031-4.058594-2.339843v4.683593zm0 0"/><path d="m90.410156 231.515625-4.058594-2.339844v4.683594zm0 0"/><path d="m187.75 287.714844-4.054688-2.339844v4.683594zm0 0"/><path d="m272.921875 238.542969-4.054687-2.34375v4.683593zm0 0"/><path d="m281.035156 121.457031-4.058594-2.339843v4.683593zm0 0"/><path d="m276.976562 119.117188-4.054687-2.339844v4.679687zm0 0"/><path d="m187.75 67.601562-4.054688-2.34375v4.683594zm0 0"/><path d="m183.695312 65.257812-4.058593-2.339843v4.683593zm0 0"/><path d="m86.351562 130.824219-4.054687-2.339844v4.683594zm0 0"/><path d="m86.351562 229.175781-4.054687-2.34375v4.683594zm0 0"/><path d="m183.695312 294.742188-4.058593-2.34375v4.683593zm0 0"/><path d="m187.75 292.398438-4.054688-2.339844v4.683594zm0 0"/><path d="m276.976562 240.882812-4.054687-2.339843v4.679687zm0 0"/><path d="m281.035156 238.542969-4.058594-2.34375v4.683593zm0 0"/><path d="m281.035156 116.777344-4.058594-2.34375v4.683594zm0 0"/><path d="m187.75 62.917969-4.054688-2.339844v4.679687zm0 0"/><path d="m82.296875 123.800781-4.054687-2.34375v4.683594zm0 0"/><path d="m82.296875 128.484375-4.054687-2.34375v4.683594zm0 0"/><path d="m82.296875 231.515625-4.054687-2.339844v4.683594zm0 0"/><path d="m82.296875 236.199219-4.054687-2.339844v4.683594zm0 0"/><path d="m187.75 297.082031-4.054688-2.339843v4.679687zm0 0"/><path d="m281.035156 243.222656-4.058594-2.339844v4.683594zm0 0"/><path d="m289.144531 116.777344-4.054687-2.34375v4.683594zm0 0"/><path d="m285.089844 114.433594-4.054688-2.339844v4.683594zm0 0"/><path d="m187.75 58.234375-4.054688-2.339844v4.683594zm0 0"/><path d="m183.695312 55.894531-4.058593-2.34375v4.683594zm0 0"/><path d="m78.242188 126.140625-4.054688-2.339844v4.683594zm0 0"/><path d="m78.242188 233.859375-4.054688-2.34375v4.683594zm0 0"/><path d="m183.695312 304.105469-4.058593-2.339844v4.683594zm0 0"/><path d="m187.75 301.765625-4.054688-2.34375v4.683594zm0 0"/><path d="m285.089844 245.566406-4.054688-2.34375v4.683594zm0 0"/><path d="m289.144531 243.222656-4.054687-2.339844v4.683594zm0 0"/><path d="m289.144531 112.09375-4.054687-2.34375v4.683594zm0 0"/><path d="m187.75 53.550781-4.054688-2.339843v4.683593zm0 0"/><path d="m74.1875 119.117188-4.058594-2.339844v4.679687zm0 0"/><path d="m74.1875 123.800781-4.058594-2.34375v4.683594zm0 0"/><path d="m74.1875 236.199219-4.058594-2.339844v4.683594zm0 0"/><path d="m74.1875 240.882812-4.058594-2.339843v4.679687zm0 0"/><path d="m187.75 306.449219-4.054688-2.34375v4.683593zm0 0"/><path d="m289.144531 247.90625-4.054687-2.339844v4.683594zm0 0"/><path d="m297.257812 112.09375-4.054687-2.34375v4.683594zm0 0"/><path d="m293.203125 109.75-4.058594-2.339844v4.683594zm0 0"/><path d="m187.75 48.867188-4.054688-2.339844v4.683594zm0 0"/><path d="m183.695312 46.527344-4.058593-2.34375v4.683594zm0 0"/><path d="m70.128906 121.457031-4.054687-2.339843v4.683593zm0 0"/><path d="m70.128906 238.542969-4.054687-2.34375v4.683593zm0 0"/><path d="m183.695312 313.472656-4.058593-2.339844v4.683594zm0 0"/><path d="m187.75 311.132812-4.054688-2.34375v4.683594zm0 0"/><path d="m293.203125 250.25-4.058594-2.34375v4.683594zm0 0"/><path d="m297.257812 247.90625-4.054687-2.339844v4.683594zm0 0"/><path d="m297.257812 107.410156-4.054687-2.34375v4.683594zm0 0"/><path d="m187.75 44.183594-4.054688-2.339844v4.683594zm0 0"/><path d="m66.074219 114.433594-4.054688-2.339844v4.683594zm0 0"/><path d="m66.074219 119.117188-4.054688-2.339844v4.679687zm0 0"/><path d="m66.074219 240.882812-4.054688-2.339843v4.679687zm0 0"/><path d="m66.074219 245.566406-4.054688-2.34375v4.683594zm0 0"/><path d="m187.75 315.816406-4.054688-2.34375v4.683594zm0 0"/><path d="m297.257812 252.589844-4.054687-2.339844v4.683594zm0 0"/><path d="m301.3125 105.066406-4.054688-2.339844v4.683594zm0 0"/><path d="m187.75 39.5-4.054688-2.339844v4.683594zm0 0"/><path d="m62.019531 116.777344-4.058593-2.34375v4.683594zm0 0"/><path d="m62.019531 243.222656-4.058593-2.339844v4.683594zm0 0"/><path d="m187.75 320.5-4.054688-2.34375v4.683594zm0 0"/><path d="m301.3125 254.933594-4.054688-2.34375v4.683594zm0 0"/><path d="m309.425781 105.066406-4.058593-2.339844v4.683594zm0 0"/><path d="m305.367188 102.726562-4.054688-2.34375v4.683594zm0 0"/><path d="m187.75 34.816406-4.054688-2.339844v4.683594zm0 0"/><path d="m183.695312 32.476562-4.058593-2.339843v4.679687zm0 0"/><path d="m57.960938 114.433594-4.054688-2.339844v4.683594zm0 0"/><path d="m57.960938 245.566406-4.054688-2.34375v4.683594zm0 0"/><path d="m183.695312 327.523438-4.058593-2.339844v4.679687zm0 0"/><path d="m187.75 325.183594-4.054688-2.34375v4.683594zm0 0"/><path d="m305.367188 257.273438-4.054688-2.339844v4.683594zm0 0"/><path d="m309.425781 254.933594-4.058593-2.34375v4.683594zm0 0"/><path d="m313.480469 102.726562-4.054688-2.34375v4.683594zm0 0"/><path d="m183.695312 27.792969-4.058593-2.339844v4.683594zm0 0"/><path d="m53.90625 107.410156-4.054688-2.34375v4.683594zm0 0"/><path d="m53.90625 112.09375-4.054688-2.34375v4.683594zm0 0"/><path d="m53.90625 247.90625-4.054688-2.339844v4.683594zm0 0"/><path d="m53.90625 252.589844-4.054688-2.339844v4.683594zm0 0"/><path d="m183.695312 332.207031-4.058593-2.34375v4.683594zm0 0"/><path d="m313.480469 257.273438-4.054688-2.339844v4.683594zm0 0"/><path d="m49.851562 105.066406-4.054687-2.339844v4.683594zm0 0"/><path d="m49.851562 254.933594-4.054687-2.34375v4.683594zm0 0"/></g></svg>