<svg height="360pt" viewBox="0 0 360 360" width="360pt" xmlns="http://www.w3.org/2000/svg"><path d="m0 0h360v360h-360z" fill="#800080"/><g fill="#fff" fill-rule="evenodd"><path d="m184.589844 171.273438 5.035156-2.910157v5.820313zm0 0"/><path d="m179.550781 168.363281 5.039063-2.90625v5.816407zm0 0"/><path d="m179.550781 191.636719 5.039063-2.910157v5.816407zm0 0"/><path d="m184.589844 188.726562 5.035156-2.910156v5.820313zm0 0"/><path d="m189.625 168.363281 5.039062-2.90625v5.816407zm0 0"/><path d="m179.550781 162.546875 5.039063-2.910156v5.820312zm0 0"/><path d="m164.433594 177.089844 5.039062-2.90625v5.816406zm0 0"/><path d="m164.433594 182.910156 5.039062-2.910156v5.816406zm0 0"/><path d="m179.550781 197.453125 5.039063-2.910156v5.820312zm0 0"/><path d="m189.625 191.636719 5.039062-2.910157v5.816407zm0 0"/><path d="m194.664062 165.457031 5.039063-2.910156v5.816406zm0 0"/><path d="m189.625 162.546875 5.039062-2.910156v5.820312zm0 0"/><path d="m184.589844 159.636719 5.035156-2.90625v5.816406zm0 0"/><path d="m179.550781 156.730469 5.039063-2.910157v5.816407zm0 0"/><path d="m159.398438 174.183594 5.035156-2.910156v5.816406zm0 0"/><path d="m159.398438 185.816406 5.035156-2.90625v5.816406zm0 0"/><path d="m179.550781 203.269531 5.039063-2.90625v5.816407zm0 0"/><path d="m184.589844 200.363281 5.035156-2.910156v5.816406zm0 0"/><path d="m189.625 197.453125 5.039062-2.910156v5.820312zm0 0"/><path d="m194.664062 194.542969 5.039063-2.90625v5.816406zm0 0"/><path d="m199.703125 162.546875 5.039063-2.910156v5.820312zm0 0"/><path d="m194.664062 159.636719 5.039063-2.90625v5.816406zm0 0"/><path d="m184.589844 153.820312 5.035156-2.910156v5.820313zm0 0"/><path d="m179.550781 150.910156 5.039063-2.90625v5.816406zm0 0"/><path d="m154.359375 171.273438 5.039063-2.910157v5.820313zm0 0"/><path d="m154.359375 177.089844 5.039063-2.90625v5.816406zm0 0"/><path d="m154.359375 182.910156 5.039063-2.910156v5.816406zm0 0"/><path d="m154.359375 188.726562 5.039063-2.910156v5.820313zm0 0"/><path d="m179.550781 209.089844 5.039063-2.910156v5.816406zm0 0"/><path d="m184.589844 206.179688 5.035156-2.910157v5.820313zm0 0"/><path d="m194.664062 200.363281 5.039063-2.910156v5.816406zm0 0"/><path d="m199.703125 197.453125 5.039063-2.910156v5.820312zm0 0"/><path d="m209.78125 191.636719 5.035156-2.910157v5.816407zm0 0"/><path d="m209.78125 185.816406 5.035156-2.90625v5.816406zm0 0"/><path d="m209.78125 174.183594 5.035156-2.910156v5.816406zm0 0"/><path d="m209.78125 168.363281 5.035156-2.90625v5.816407zm0 0"/><path d="m204.742188 159.636719 5.039062-2.90625v5.816406zm0 0"/><path d="m194.664062 153.820312 5.039063-2.910156v5.820313zm0 0"/><path d="m189.625 150.910156 5.039062-2.90625v5.816406zm0 0"/><path d="m179.550781 145.09375 5.039063-2.910156v5.820312zm0 0"/><path d="m149.320312 168.363281 5.039063-2.90625v5.816407zm0 0"/><path d="m149.320312 174.183594 5.039063-2.910156v5.816406zm0 0"/><path d="m149.320312 185.816406 5.039063-2.90625v5.816406zm0 0"/><path d="m149.320312 191.636719 5.039063-2.910157v5.816407zm0 0"/><path d="m179.550781 214.90625 5.039063-2.910156v5.820312zm0 0"/><path d="m189.625 209.089844 5.039062-2.910156v5.816406zm0 0"/><path d="m194.664062 206.179688 5.039063-2.910157v5.820313zm0 0"/><path d="m204.742188 200.363281 5.039062-2.910156v5.816406zm0 0"/><path d="m214.816406 194.542969 5.039063-2.90625v5.816406zm0 0"/><path d="m214.816406 188.726562 5.039063-2.910156v5.820313zm0 0"/><path d="m214.816406 182.910156 5.039063-2.910156v5.816406zm0 0"/><path d="m214.816406 177.089844 5.039063-2.90625v5.816406zm0 0"/><path d="m214.816406 171.273438 5.039063-2.910157v5.820313zm0 0"/><path d="m214.816406 165.457031 5.039063-2.910156v5.816406zm0 0"/><path d="m209.78125 156.730469 5.035156-2.910157v5.816407zm0 0"/><path d="m199.703125 150.910156 5.039063-2.90625v5.816406zm0 0"/><path d="m189.625 145.09375 5.039062-2.910156v5.820312zm0 0"/><path d="m179.550781 139.277344 5.039063-2.910156v5.816406zm0 0"/><path d="m169.472656 145.09375 5.039063-2.910156v5.820312zm0 0"/><path d="m164.433594 148.003906 5.039062-2.910156v5.816406zm0 0"/><path d="m154.359375 153.820312 5.039063-2.910156v5.820313zm0 0"/><path d="m149.320312 156.730469 5.039063-2.910157v5.816407zm0 0"/><path d="m144.28125 165.457031 5.039062-2.910156v5.816406zm0 0"/><path d="m144.28125 177.089844 5.039062-2.90625v5.816406zm0 0"/><path d="m144.28125 182.910156 5.039062-2.910156v5.816406zm0 0"/><path d="m144.28125 194.542969 5.039062-2.90625v5.816406zm0 0"/><path d="m149.320312 203.269531 5.039063-2.90625v5.816407zm0 0"/><path d="m154.359375 206.179688 5.039063-2.910157v5.820313zm0 0"/><path d="m164.433594 211.996094 5.039062-2.90625v5.816406zm0 0"/><path d="m169.472656 214.90625 5.039063-2.910156v5.820312zm0 0"/><path d="m179.550781 220.722656 5.039063-2.90625v5.816406zm0 0"/><path d="m189.625 214.90625 5.039062-2.910156v5.820312zm0 0"/><path d="m199.703125 209.089844 5.039063-2.910156v5.816406zm0 0"/><path d="m209.78125 203.269531 5.035156-2.90625v5.816407zm0 0"/><path d="m219.855469 197.453125 5.039062-2.910156v5.820312zm0 0"/><path d="m219.855469 191.636719 5.039062-2.910157v5.816407zm0 0"/><path d="m219.855469 168.363281 5.039062-2.90625v5.816407zm0 0"/><path d="m219.855469 162.546875 5.039062-2.910156v5.820312zm0 0"/><path d="m214.816406 153.820312 5.039063-2.910156v5.820313zm0 0"/><path d="m209.78125 150.910156 5.035156-2.90625v5.816406zm0 0"/><path d="m204.742188 148.003906 5.039062-2.910156v5.816406zm0 0"/><path d="m199.703125 145.09375 5.039063-2.910156v5.820312zm0 0"/><path d="m194.664062 142.183594 5.039063-2.90625v5.816406zm0 0"/><path d="m189.625 139.277344 5.039062-2.910156v5.816406zm0 0"/><path d="m184.589844 136.367188 5.035156-2.910157v5.820313zm0 0"/><path d="m179.550781 133.457031 5.039063-2.90625v5.816407zm0 0"/><path d="m169.472656 139.277344 5.039063-2.910156v5.816406zm0 0"/><path d="m164.433594 142.183594 5.039062-2.90625v5.816406zm0 0"/><path d="m159.398438 145.09375 5.035156-2.910156v5.820312zm0 0"/><path d="m154.359375 148.003906 5.039063-2.910156v5.816406zm0 0"/><path d="m149.320312 150.910156 5.039063-2.90625v5.816406zm0 0"/><path d="m144.28125 153.820312 5.039062-2.910156v5.820313zm0 0"/><path d="m139.242188 162.546875 5.039062-2.910156v5.820312zm0 0"/><path d="m139.242188 174.183594 5.039062-2.910156v5.816406zm0 0"/><path d="m139.242188 185.816406 5.039062-2.90625v5.816406zm0 0"/><path d="m139.242188 197.453125 5.039062-2.910156v5.820312zm0 0"/><path d="m144.28125 206.179688 5.039062-2.910157v5.820313zm0 0"/><path d="m149.320312 209.089844 5.039063-2.910156v5.816406zm0 0"/><path d="m154.359375 211.996094 5.039063-2.90625v5.816406zm0 0"/><path d="m159.398438 214.90625 5.035156-2.910156v5.820312zm0 0"/><path d="m164.433594 217.816406 5.039062-2.910156v5.816406zm0 0"/><path d="m169.472656 220.722656 5.039063-2.90625v5.816406zm0 0"/><path d="m179.550781 226.542969 5.039063-2.910157v5.816407zm0 0"/><path d="m184.589844 223.632812 5.035156-2.910156v5.820313zm0 0"/><path d="m189.625 220.722656 5.039062-2.90625v5.816406zm0 0"/><path d="m194.664062 217.816406 5.039063-2.910156v5.816406zm0 0"/><path d="m199.703125 214.90625 5.039063-2.910156v5.820312zm0 0"/><path d="m204.742188 211.996094 5.039062-2.90625v5.816406zm0 0"/><path d="m209.78125 209.089844 5.035156-2.910156v5.816406zm0 0"/><path d="m214.816406 206.179688 5.039063-2.910157v5.820313zm0 0"/><path d="m224.894531 200.363281 5.039063-2.910156v5.816406zm0 0"/><path d="m224.894531 188.726562 5.039063-2.910156v5.820313zm0 0"/><path d="m224.894531 182.910156 5.039063-2.910156v5.816406zm0 0"/><path d="m224.894531 177.089844 5.039063-2.90625v5.816406zm0 0"/><path d="m224.894531 171.273438 5.039063-2.910157v5.820313zm0 0"/><path d="m224.894531 159.636719 5.039063-2.90625v5.816406zm0 0"/><path d="m169.472656 133.457031 5.039063-2.90625v5.816407zm0 0"/><path d="m164.433594 136.367188 5.039062-2.910157v5.820313zm0 0"/><path d="m144.28125 148.003906 5.039062-2.910156v5.816406zm0 0"/><path d="m139.242188 150.910156 5.039062-2.90625v5.816406zm0 0"/><path d="m134.207031 159.636719 5.035157-2.90625v5.816406zm0 0"/><path d="m134.207031 165.457031 5.035157-2.910156v5.816406zm0 0"/><path d="m134.207031 171.273438 5.035157-2.910157v5.820313zm0 0"/><path d="m134.207031 177.089844 5.035157-2.90625v5.816406zm0 0"/><path d="m134.207031 182.910156 5.035157-2.910156v5.816406zm0 0"/><path d="m134.207031 188.726562 5.035157-2.910156v5.820313zm0 0"/><path d="m134.207031 194.542969 5.035157-2.90625v5.816406zm0 0"/><path d="m134.207031 200.363281 5.035157-2.910156v5.816406zm0 0"/><path d="m139.242188 209.089844 5.039062-2.910156v5.816406zm0 0"/><path d="m144.28125 211.996094 5.039062-2.90625v5.816406zm0 0"/><path d="m164.433594 223.632812 5.039062-2.910156v5.820313zm0 0"/><path d="m169.472656 226.542969 5.039063-2.910157v5.816407zm0 0"/><path d="m229.933594 209.089844 5.039062-2.910156v5.816406zm0 0"/><path d="m229.933594 203.269531 5.039062-2.90625v5.816407zm0 0"/><path d="m229.933594 156.730469 5.039062-2.910157v5.816407zm0 0"/><path d="m229.933594 150.910156 5.039062-2.90625v5.816406zm0 0"/><path d="m169.472656 127.640625 5.039063-2.910156v5.820312zm0 0"/><path d="m159.398438 133.457031 5.035156-2.90625v5.816407zm0 0"/><path d="m154.359375 136.367188 5.039063-2.910157v5.820313zm0 0"/><path d="m149.320312 139.277344 5.039063-2.910156v5.816406zm0 0"/><path d="m144.28125 142.183594 5.039062-2.90625v5.816406zm0 0"/><path d="m134.207031 148.003906 5.035157-2.910156v5.816406zm0 0"/><path d="m134.207031 211.996094 5.035157-2.90625v5.816406zm0 0"/><path d="m144.28125 217.816406 5.039062-2.910156v5.816406zm0 0"/><path d="m149.320312 220.722656 5.039063-2.90625v5.816406zm0 0"/><path d="m154.359375 223.632812 5.039063-2.910156v5.820313zm0 0"/><path d="m159.398438 226.542969 5.035156-2.910157v5.816407zm0 0"/><path d="m169.472656 232.359375 5.039063-2.910156v5.820312zm0 0"/><path d="m234.972656 200.363281 5.035156-2.910156v5.816406zm0 0"/><path d="m234.972656 194.542969 5.035156-2.90625v5.816406zm0 0"/><path d="m234.972656 182.910156 5.035156-2.910156v5.816406zm0 0"/><path d="m234.972656 177.089844 5.035156-2.90625v5.816406zm0 0"/><path d="m234.972656 165.457031 5.035156-2.910156v5.816406zm0 0"/><path d="m234.972656 159.636719 5.035156-2.90625v5.816406zm0 0"/><path d="m229.933594 145.09375 5.039062-2.910156v5.820312zm0 0"/><path d="m219.855469 139.277344 5.039062-2.910156v5.816406zm0 0"/><path d="m214.816406 136.367188 5.039063-2.910157v5.820313zm0 0"/><path d="m194.664062 124.730469 5.039063-2.90625v5.816406zm0 0"/><path d="m189.625 121.824219 5.039062-2.910157v5.816407zm0 0"/><path d="m179.550781 116.003906 5.039063-2.90625v5.816406zm0 0"/><path d="m174.511719 118.914062 5.039062-2.910156v5.820313zm0 0"/><path d="m169.472656 121.824219 5.039063-2.910157v5.816407zm0 0"/><path d="m129.167969 145.09375 5.039062-2.910156v5.820312zm0 0"/><path d="m124.128906 148.003906 5.039063-2.910156v5.816406zm0 0"/><path d="m124.128906 211.996094 5.039063-2.90625v5.816406zm0 0"/><path d="m129.167969 214.90625 5.039062-2.910156v5.820312zm0 0"/><path d="m169.472656 238.175781 5.039063-2.90625v5.816407zm0 0"/><path d="m174.511719 241.085938 5.039062-2.910157v5.820313zm0 0"/><path d="m179.550781 243.996094 5.039063-2.910156v5.816406zm0 0"/><path d="m189.625 238.175781 5.039062-2.90625v5.816407zm0 0"/><path d="m194.664062 235.269531 5.039063-2.910156v5.816406zm0 0"/><path d="m214.816406 223.632812 5.039063-2.910156v5.820313zm0 0"/><path d="m219.855469 220.722656 5.039062-2.90625v5.816406zm0 0"/><path d="m229.933594 214.90625 5.039062-2.910156v5.820312zm0 0"/><path d="m240.007812 209.089844 5.039063-2.910156v5.816406zm0 0"/><path d="m240.007812 197.453125 5.039063-2.910156v5.820312zm0 0"/><path d="m240.007812 162.546875 5.039063-2.910156v5.820312zm0 0"/><path d="m240.007812 150.910156 5.039063-2.90625v5.816406zm0 0"/><path d="m234.972656 142.183594 5.035156-2.90625v5.816406zm0 0"/><path d="m224.894531 136.367188 5.039063-2.910157v5.820313zm0 0"/><path d="m219.855469 133.457031 5.039062-2.90625v5.816407zm0 0"/><path d="m194.664062 118.914062 5.039063-2.910156v5.820313zm0 0"/><path d="m189.625 116.003906 5.039062-2.90625v5.816406zm0 0"/><path d="m179.550781 110.1875 5.039063-2.910156v5.820312zm0 0"/><path d="m164.433594 118.914062 5.039062-2.910156v5.820313zm0 0"/><path d="m159.398438 121.824219 5.035156-2.910157v5.816407zm0 0"/><path d="m149.320312 127.640625 5.039063-2.910156v5.820312zm0 0"/><path d="m144.28125 130.550781 5.039062-2.910156v5.816406zm0 0"/><path d="m134.207031 136.367188 5.035157-2.910157v5.820313zm0 0"/><path d="m129.167969 139.277344 5.039062-2.910156v5.816406zm0 0"/><path d="m119.089844 150.910156 5.039062-2.90625v5.816406zm0 0"/><path d="m119.089844 162.546875 5.039062-2.910156v5.820312zm0 0"/><path d="m119.089844 168.363281 5.039062-2.90625v5.816407zm0 0"/><path d="m119.089844 191.636719 5.039062-2.910157v5.816407zm0 0"/><path d="m119.089844 197.453125 5.039062-2.910156v5.820312zm0 0"/><path d="m119.089844 209.089844 5.039062-2.910156v5.816406zm0 0"/><path d="m129.167969 220.722656 5.039062-2.90625v5.816406zm0 0"/><path d="m134.207031 223.632812 5.035157-2.910156v5.820313zm0 0"/><path d="m144.28125 229.449219 5.039062-2.90625v5.816406zm0 0"/><path d="m149.320312 232.359375 5.039063-2.910156v5.820312zm0 0"/><path d="m159.398438 238.175781 5.035156-2.90625v5.816407zm0 0"/><path d="m164.433594 241.085938 5.039062-2.910157v5.820313zm0 0"/><path d="m179.550781 249.8125 5.039063-2.910156v5.820312zm0 0"/><path d="m189.625 243.996094 5.039062-2.910156v5.816406zm0 0"/><path d="m194.664062 241.085938 5.039063-2.910157v5.820313zm0 0"/><path d="m219.855469 226.542969 5.039062-2.910157v5.816407zm0 0"/><path d="m224.894531 223.632812 5.039063-2.910156v5.820313zm0 0"/><path d="m234.972656 217.816406 5.035156-2.910156v5.816406zm0 0"/><path d="m245.046875 194.542969 5.039063-2.90625v5.816406zm0 0"/><path d="m245.046875 188.726562 5.039063-2.910156v5.820313zm0 0"/><path d="m245.046875 171.273438 5.039063-2.910157v5.820313zm0 0"/><path d="m245.046875 165.457031 5.039063-2.910156v5.816406zm0 0"/><path d="m234.972656 136.367188 5.035156-2.910157v5.820313zm0 0"/><path d="m224.894531 130.550781 5.039063-2.910156v5.816406zm0 0"/><path d="m219.855469 127.640625 5.039062-2.910156v5.820312zm0 0"/><path d="m214.816406 124.730469 5.039063-2.90625v5.816406zm0 0"/><path d="m204.742188 118.914062 5.039062-2.910156v5.820313zm0 0"/><path d="m199.703125 116.003906 5.039063-2.90625v5.816406zm0 0"/><path d="m194.664062 113.097656 5.039063-2.910156v5.816406zm0 0"/><path d="m184.589844 107.277344 5.035156-2.90625v5.816406zm0 0"/><path d="m169.472656 110.1875 5.039063-2.910156v5.820312zm0 0"/><path d="m159.398438 116.003906 5.035156-2.90625v5.816406zm0 0"/><path d="m129.167969 133.457031 5.039062-2.90625v5.816407zm0 0"/><path d="m119.089844 139.277344 5.039062-2.910156v5.816406zm0 0"/><path d="m114.050781 148.003906 5.039063-2.910156v5.816406zm0 0"/><path d="m114.050781 159.636719 5.039063-2.90625v5.816406zm0 0"/><path d="m114.050781 165.457031 5.039063-2.910156v5.816406zm0 0"/><path d="m114.050781 194.542969 5.039063-2.90625v5.816406zm0 0"/><path d="m114.050781 200.363281 5.039063-2.910156v5.816406zm0 0"/><path d="m114.050781 211.996094 5.039063-2.90625v5.816406zm0 0"/><path d="m119.089844 220.722656 5.039062-2.90625v5.816406zm0 0"/><path d="m129.167969 226.542969 5.039062-2.910157v5.816407zm0 0"/><path d="m159.398438 243.996094 5.035156-2.910156v5.816406zm0 0"/><path d="m169.472656 249.8125 5.039063-2.910156v5.820312zm0 0"/><path d="m184.589844 252.722656 5.035156-2.910156v5.816406zm0 0"/><path d="m194.664062 246.902344 5.039063-2.90625v5.816406zm0 0"/><path d="m199.703125 243.996094 5.039063-2.910156v5.816406zm0 0"/><path d="m204.742188 241.085938 5.039062-2.910157v5.820313zm0 0"/><path d="m214.816406 235.269531 5.039063-2.910156v5.816406zm0 0"/><path d="m219.855469 232.359375 5.039062-2.910156v5.820312zm0 0"/><path d="m224.894531 229.449219 5.039063-2.90625v5.816406zm0 0"/><path d="m234.972656 223.632812 5.035156-2.910156v5.820313zm0 0"/><path d="m250.085938 209.089844 5.039062-2.910156v5.816406zm0 0"/><path d="m250.085938 203.269531 5.039062-2.90625v5.816407zm0 0"/><path d="m250.085938 156.730469 5.039062-2.910157v5.816407zm0 0"/><path d="m250.085938 150.910156 5.039062-2.90625v5.816406zm0 0"/><path d="m240.007812 133.457031 5.039063-2.90625v5.816407zm0 0"/><path d="m229.933594 127.640625 5.039062-2.910156v5.820312zm0 0"/><path d="m224.894531 124.730469 5.039063-2.90625v5.816406zm0 0"/><path d="m214.816406 118.914062 5.039063-2.910156v5.820313zm0 0"/><path d="m209.78125 116.003906 5.035156-2.90625v5.816406zm0 0"/><path d="m199.703125 110.1875 5.039063-2.910156v5.820312zm0 0"/><path d="m194.664062 107.277344 5.039063-2.90625v5.816406zm0 0"/><path d="m184.589844 101.460938 5.035156-2.910157v5.820313zm0 0"/><path d="m154.359375 113.097656 5.039063-2.910156v5.816406zm0 0"/><path d="m149.320312 116.003906 5.039063-2.90625v5.816406zm0 0"/><path d="m134.207031 124.730469 5.035157-2.90625v5.816406zm0 0"/><path d="m129.167969 127.640625 5.039062-2.910156v5.820312zm0 0"/><path d="m109.015625 150.910156 5.035156-2.90625v5.816406zm0 0"/><path d="m109.015625 162.546875 5.035156-2.910156v5.820312zm0 0"/><path d="m109.015625 168.363281 5.035156-2.90625v5.816407zm0 0"/><path d="m109.015625 174.183594 5.035156-2.910156v5.816406zm0 0"/><path d="m109.015625 185.816406 5.035156-2.90625v5.816406zm0 0"/><path d="m109.015625 191.636719 5.035156-2.910157v5.816407zm0 0"/><path d="m109.015625 197.453125 5.035156-2.910156v5.820312zm0 0"/><path d="m109.015625 209.089844 5.035156-2.910156v5.816406zm0 0"/><path d="m129.167969 232.359375 5.039062-2.910156v5.820312zm0 0"/><path d="m134.207031 235.269531 5.035157-2.910156v5.816406zm0 0"/><path d="m149.320312 243.996094 5.039063-2.910156v5.816406zm0 0"/><path d="m154.359375 246.902344 5.039063-2.90625v5.816406zm0 0"/><path d="m184.589844 258.539062 5.035156-2.910156v5.820313zm0 0"/><path d="m194.664062 252.722656 5.039063-2.910156v5.816406zm0 0"/><path d="m199.703125 249.8125 5.039063-2.910156v5.820312zm0 0"/><path d="m209.78125 243.996094 5.035156-2.910156v5.816406zm0 0"/><path d="m214.816406 241.085938 5.039063-2.910157v5.820313zm0 0"/><path d="m224.894531 235.269531 5.039063-2.910156v5.816406zm0 0"/><path d="m229.933594 232.359375 5.039062-2.910156v5.820312zm0 0"/><path d="m240.007812 226.542969 5.039063-2.910157v5.816407zm0 0"/><path d="m255.125 211.996094 5.039062-2.90625v5.816406zm0 0"/><path d="m255.125 206.179688 5.039062-2.910157v5.820313zm0 0"/><path d="m255.125 200.363281 5.039062-2.910156v5.816406zm0 0"/><path d="m255.125 194.542969 5.039062-2.90625v5.816406zm0 0"/><path d="m255.125 165.457031 5.039062-2.910156v5.816406zm0 0"/><path d="m255.125 159.636719 5.039062-2.90625v5.816406zm0 0"/><path d="m255.125 153.820312 5.039062-2.910156v5.820313zm0 0"/><path d="m255.125 148.003906 5.039062-2.910156v5.816406zm0 0"/><path d="m245.046875 130.550781 5.039063-2.910156v5.816406zm0 0"/><path d="m219.855469 116.003906 5.039062-2.90625v5.816406zm0 0"/><path d="m209.78125 110.1875 5.035156-2.910156v5.820312zm0 0"/><path d="m184.589844 95.644531 5.035156-2.910156v5.816406zm0 0"/><path d="m164.433594 101.460938 5.039062-2.910157v5.820313zm0 0"/><path d="m159.398438 104.371094 5.035156-2.910156v5.816406zm0 0"/><path d="m119.089844 127.640625 5.039062-2.910156v5.820312zm0 0"/><path d="m114.050781 130.550781 5.039063-2.910156v5.816406zm0 0"/><path d="m103.976562 148.003906 5.039063-2.910156v5.816406zm0 0"/><path d="m103.976562 159.636719 5.039063-2.90625v5.816406zm0 0"/><path d="m103.976562 165.457031 5.039063-2.910156v5.816406zm0 0"/><path d="m103.976562 177.089844 5.039063-2.90625v5.816406zm0 0"/><path d="m103.976562 182.910156 5.039063-2.910156v5.816406zm0 0"/><path d="m103.976562 194.542969 5.039063-2.90625v5.816406zm0 0"/><path d="m103.976562 200.363281 5.039063-2.910156v5.816406zm0 0"/><path d="m103.976562 211.996094 5.039063-2.90625v5.816406zm0 0"/><path d="m114.050781 229.449219 5.039063-2.90625v5.816406zm0 0"/><path d="m119.089844 232.359375 5.039062-2.910156v5.820312zm0 0"/><path d="m159.398438 255.628906 5.035156-2.90625v5.816406zm0 0"/><path d="m164.433594 258.539062 5.039062-2.910156v5.820313zm0 0"/><path d="m184.589844 264.355469 5.035156-2.90625v5.816406zm0 0"/><path d="m209.78125 249.8125 5.035156-2.910156v5.820312zm0 0"/><path d="m219.855469 243.996094 5.039062-2.910156v5.816406zm0 0"/><path d="m245.046875 229.449219 5.039063-2.90625v5.816406zm0 0"/><path d="m260.164062 203.269531 5.035157-2.90625v5.816407zm0 0"/><path d="m260.164062 191.636719 5.035157-2.910157v5.816407zm0 0"/><path d="m260.164062 168.363281 5.035157-2.90625v5.816407zm0 0"/><path d="m260.164062 156.730469 5.035157-2.910157v5.816407zm0 0"/><path d="m234.972656 118.914062 5.035156-2.910156v5.820313zm0 0"/><path d="m224.894531 113.097656 5.039063-2.910156v5.816406zm0 0"/><path d="m219.855469 110.1875 5.039062-2.910156v5.820312zm0 0"/><path d="m214.816406 107.277344 5.039063-2.90625v5.816406zm0 0"/><path d="m209.78125 104.371094 5.035156-2.910156v5.816406zm0 0"/><path d="m199.703125 98.550781 5.039063-2.90625v5.816407zm0 0"/><path d="m164.433594 95.644531 5.039062-2.910156v5.816406zm0 0"/><path d="m159.398438 98.550781 5.035156-2.90625v5.816407zm0 0"/><path d="m154.359375 101.460938 5.039063-2.910157v5.820313zm0 0"/><path d="m149.320312 104.371094 5.039063-2.910156v5.816406zm0 0"/><path d="m124.128906 118.914062 5.039063-2.910156v5.820313zm0 0"/><path d="m119.089844 121.824219 5.039062-2.910157v5.816407zm0 0"/><path d="m114.050781 124.730469 5.039063-2.90625v5.816406zm0 0"/><path d="m109.015625 127.640625 5.035156-2.910156v5.820312zm0 0"/><path d="m98.9375 145.09375 5.039062-2.910156v5.820312zm0 0"/><path d="m98.9375 174.183594 5.039062-2.910156v5.816406zm0 0"/><path d="m98.9375 185.816406 5.039062-2.90625v5.816406zm0 0"/><path d="m98.9375 214.90625 5.039062-2.910156v5.820312zm0 0"/><path d="m109.015625 232.359375 5.035156-2.910156v5.820312zm0 0"/><path d="m114.050781 235.269531 5.039063-2.910156v5.816406zm0 0"/><path d="m119.089844 238.175781 5.039062-2.90625v5.816407zm0 0"/><path d="m124.128906 241.085938 5.039063-2.910157v5.820313zm0 0"/><path d="m149.320312 255.628906 5.039063-2.90625v5.816406zm0 0"/><path d="m154.359375 258.539062 5.039063-2.910156v5.820313zm0 0"/><path d="m159.398438 261.449219 5.035156-2.910157v5.816407zm0 0"/><path d="m164.433594 264.355469 5.039062-2.90625v5.816406zm0 0"/><path d="m199.703125 261.449219 5.039063-2.910157v5.816407zm0 0"/><path d="m209.78125 255.628906 5.035156-2.90625v5.816406zm0 0"/><path d="m214.816406 252.722656 5.039063-2.910156v5.816406zm0 0"/><path d="m219.855469 249.8125 5.039062-2.910156v5.820312zm0 0"/><path d="m224.894531 246.902344 5.039063-2.90625v5.816406zm0 0"/><path d="m234.972656 241.085938 5.035156-2.910157v5.820313zm0 0"/><path d="m265.199219 217.816406 5.039062-2.910156v5.816406zm0 0"/><path d="m265.199219 182.910156 5.039062-2.910156v5.816406zm0 0"/><path d="m265.199219 177.089844 5.039062-2.90625v5.816406zm0 0"/><path d="m265.199219 142.183594 5.039062-2.90625v5.816406zm0 0"/><path d="m250.085938 121.824219 5.039062-2.910157v5.816407zm0 0"/><path d="m245.046875 118.914062 5.039063-2.910156v5.820313zm0 0"/><path d="m194.664062 89.824219 5.039063-2.90625v5.816406zm0 0"/><path d="m189.625 86.917969 5.039062-2.910157v5.816407zm0 0"/><path d="m154.359375 95.644531 5.039063-2.910156v5.816406zm0 0"/><path d="m144.28125 101.460938 5.039062-2.910157v5.820313zm0 0"/><path d="m124.128906 113.097656 5.039063-2.910156v5.816406zm0 0"/><path d="m114.050781 118.914062 5.039063-2.910156v5.820313zm0 0"/><path d="m93.898438 159.636719 5.039062-2.90625v5.816406zm0 0"/><path d="m93.898438 171.273438 5.039062-2.910157v5.820313zm0 0"/><path d="m93.898438 177.089844 5.039062-2.90625v5.816406zm0 0"/><path d="m93.898438 182.910156 5.039062-2.910156v5.816406zm0 0"/><path d="m93.898438 188.726562 5.039062-2.910156v5.820313zm0 0"/><path d="m93.898438 200.363281 5.039062-2.910156v5.816406zm0 0"/><path d="m114.050781 241.085938 5.039063-2.910157v5.820313zm0 0"/><path d="m124.128906 246.902344 5.039063-2.90625v5.816406zm0 0"/><path d="m144.28125 258.539062 5.039062-2.910156v5.820313zm0 0"/><path d="m154.359375 264.355469 5.039063-2.90625v5.816406zm0 0"/><path d="m189.625 273.082031 5.039062-2.90625v5.816407zm0 0"/><path d="m194.664062 270.175781 5.039063-2.910156v5.816406zm0 0"/><path d="m245.046875 241.085938 5.039063-2.910157v5.820313zm0 0"/><path d="m250.085938 238.175781 5.039062-2.90625v5.816407zm0 0"/><path d="m270.238281 232.359375 5.039063-2.910156v5.820312zm0 0"/><path d="m270.238281 214.90625 5.039063-2.910156v5.820312zm0 0"/><path d="m270.238281 191.636719 5.039063-2.910157v5.816407zm0 0"/><path d="m270.238281 168.363281 5.039063-2.90625v5.816407zm0 0"/><path d="m270.238281 145.09375 5.039063-2.910156v5.820312zm0 0"/><path d="m270.238281 127.640625 5.039063-2.910156v5.820312zm0 0"/><path d="m245.046875 113.097656 5.039063-2.910156v5.816406zm0 0"/><path d="m224.894531 101.460938 5.039063-2.910157v5.820313zm0 0"/><path d="m219.855469 98.550781 5.039062-2.90625v5.816407zm0 0"/><path d="m199.703125 86.917969 5.039063-2.910157v5.816407zm0 0"/><path d="m164.433594 84.007812 5.039062-2.910156v5.820313zm0 0"/><path d="m134.207031 101.460938 5.035157-2.910157v5.820313zm0 0"/><path d="m129.167969 104.371094 5.039062-2.910156v5.816406zm0 0"/><path d="m98.9375 121.824219 5.039062-2.910157v5.816407zm0 0"/><path d="m88.859375 145.09375 5.039063-2.910156v5.820312zm0 0"/><path d="m88.859375 150.910156 5.039063-2.90625v5.816406zm0 0"/><path d="m88.859375 209.089844 5.039063-2.910156v5.816406zm0 0"/><path d="m88.859375 214.90625 5.039063-2.910156v5.820312zm0 0"/><path d="m98.9375 238.175781 5.039062-2.90625v5.816407zm0 0"/><path d="m129.167969 255.628906 5.039062-2.90625v5.816406zm0 0"/><path d="m134.207031 258.539062 5.035157-2.910156v5.820313zm0 0"/><path d="m164.433594 275.992188 5.039062-2.910157v5.820313zm0 0"/><path d="m199.703125 273.082031 5.039063-2.90625v5.816407zm0 0"/><path d="m219.855469 261.449219 5.039062-2.910157v5.816407zm0 0"/><path d="m224.894531 258.539062 5.039063-2.910156v5.820313zm0 0"/><path d="m245.046875 246.902344 5.039063-2.90625v5.816406zm0 0"/><path d="m275.277344 235.269531 5.039062-2.910156v5.816406zm0 0"/><path d="m275.277344 229.449219 5.039062-2.90625v5.816406zm0 0"/><path d="m275.277344 223.632812 5.039062-2.910156v5.820313zm0 0"/><path d="m275.277344 217.816406 5.039062-2.910156v5.816406zm0 0"/><path d="m275.277344 206.179688 5.039062-2.910157v5.820313zm0 0"/><path d="m275.277344 200.363281 5.039062-2.910156v5.816406zm0 0"/><path d="m275.277344 194.542969 5.039062-2.90625v5.816406zm0 0"/><path d="m275.277344 165.457031 5.039062-2.910156v5.816406zm0 0"/><path d="m275.277344 159.636719 5.039062-2.90625v5.816406zm0 0"/><path d="m275.277344 153.820312 5.039062-2.910156v5.820313zm0 0"/><path d="m275.277344 142.183594 5.039062-2.90625v5.816406zm0 0"/><path d="m275.277344 136.367188 5.039062-2.910157v5.820313zm0 0"/><path d="m275.277344 130.550781 5.039062-2.910156v5.816406zm0 0"/><path d="m275.277344 124.730469 5.039062-2.90625v5.816406zm0 0"/><path d="m265.199219 118.914062 5.039062-2.910156v5.820313zm0 0"/><path d="m260.164062 116.003906 5.035157-2.90625v5.816406zm0 0"/><path d="m189.625 75.28125 5.039062-2.910156v5.820312zm0 0"/><path d="m184.589844 72.371094 5.035156-2.90625v5.816406zm0 0"/><path d="m174.511719 72.371094 5.039062-2.90625v5.816406zm0 0"/><path d="m159.398438 81.097656 5.035156-2.90625v5.816406zm0 0"/><path d="m139.242188 92.734375 5.039062-2.910156v5.820312zm0 0"/><path d="m119.089844 104.371094 5.039062-2.910156v5.816406zm0 0"/><path d="m98.9375 116.003906 5.039062-2.90625v5.816406zm0 0"/><path d="m83.824219 124.730469 5.035156-2.90625v5.816406zm0 0"/><path d="m83.824219 153.820312 5.035156-2.910156v5.820313zm0 0"/><path d="m83.824219 177.089844 5.035156-2.90625v5.816406zm0 0"/><path d="m83.824219 182.910156 5.035156-2.910156v5.816406zm0 0"/><path d="m83.824219 206.179688 5.035156-2.910157v5.820313zm0 0"/><path d="m83.824219 235.269531 5.035156-2.910156v5.816406zm0 0"/><path d="m98.9375 243.996094 5.039062-2.910156v5.816406zm0 0"/><path d="m119.089844 255.628906 5.039062-2.90625v5.816406zm0 0"/><path d="m139.242188 267.265625 5.039062-2.910156v5.820312zm0 0"/><path d="m159.398438 278.902344 5.035156-2.910156v5.816406zm0 0"/><path d="m174.511719 287.628906 5.039062-2.910156v5.816406zm0 0"/><path d="m184.589844 287.628906 5.035156-2.910156v5.816406zm0 0"/><path d="m189.625 284.71875 5.039062-2.910156v5.820312zm0 0"/><path d="m260.164062 243.996094 5.035157-2.910156v5.816406zm0 0"/><path d="m265.199219 241.085938 5.039062-2.910157v5.820313zm0 0"/><path d="m280.316406 232.359375 5.039063-2.910156v5.820312zm0 0"/><path d="m280.316406 226.542969 5.039063-2.910157v5.816407zm0 0"/><path d="m280.316406 220.722656 5.039063-2.90625v5.816406zm0 0"/><path d="m280.316406 209.089844 5.039063-2.910156v5.816406zm0 0"/><path d="m280.316406 203.269531 5.039063-2.90625v5.816407zm0 0"/><path d="m280.316406 191.636719 5.039063-2.910157v5.816407zm0 0"/><path d="m280.316406 168.363281 5.039063-2.90625v5.816407zm0 0"/><path d="m280.316406 156.730469 5.039063-2.910157v5.816407zm0 0"/><path d="m280.316406 150.910156 5.039063-2.90625v5.816406zm0 0"/><path d="m280.316406 139.277344 5.039063-2.910156v5.816406zm0 0"/><path d="m280.316406 133.457031 5.039063-2.90625v5.816407zm0 0"/><path d="m280.316406 127.640625 5.039063-2.910156v5.820312zm0 0"/><path d="m275.277344 118.914062 5.039062-2.910156v5.820313zm0 0"/><path d="m270.238281 116.003906 5.039063-2.90625v5.816406zm0 0"/><path d="m260.164062 110.1875 5.035157-2.910156v5.820312zm0 0"/><path d="m234.972656 95.644531 5.035156-2.910156v5.816406zm0 0"/><path d="m219.855469 86.917969 5.039062-2.910157v5.816407zm0 0"/><path d="m194.664062 72.371094 5.039063-2.90625v5.816406zm0 0"/><path d="m184.589844 66.554688 5.035156-2.910157v5.820313zm0 0"/><path d="m179.550781 63.644531 5.039063-2.90625v5.816407zm0 0"/><path d="m174.511719 66.554688 5.039062-2.910157v5.820313zm0 0"/><path d="m169.472656 69.464844 5.039063-2.910156v5.816406zm0 0"/><path d="m164.433594 72.371094 5.039062-2.90625v5.816406zm0 0"/><path d="m159.398438 75.28125 5.035156-2.910156v5.820312zm0 0"/><path d="m149.320312 81.097656 5.039063-2.90625v5.816406zm0 0"/><path d="m144.28125 84.007812 5.039062-2.910156v5.820313zm0 0"/><path d="m139.242188 86.917969 5.039062-2.910157v5.816407zm0 0"/><path d="m114.050781 101.460938 5.039063-2.910157v5.820313zm0 0"/><path d="m109.015625 104.371094 5.035156-2.910156v5.816406zm0 0"/><path d="m103.976562 107.277344 5.039063-2.90625v5.816406zm0 0"/><path d="m93.898438 113.097656 5.039062-2.910156v5.816406zm0 0"/><path d="m88.859375 116.003906 5.039063-2.90625v5.816406zm0 0"/><path d="m83.824219 118.914062 5.035156-2.910156v5.820313zm0 0"/><path d="m78.785156 121.824219 5.039063-2.910157v5.816407zm0 0"/><path d="m78.785156 133.457031 5.039063-2.90625v5.816407zm0 0"/><path d="m78.785156 139.277344 5.039063-2.910156v5.816406zm0 0"/><path d="m78.785156 220.722656 5.039063-2.90625v5.816406zm0 0"/><path d="m78.785156 226.542969 5.039063-2.910157v5.816407zm0 0"/><path d="m78.785156 238.175781 5.039063-2.90625v5.816407zm0 0"/><path d="m83.824219 241.085938 5.035156-2.910157v5.820313zm0 0"/><path d="m88.859375 243.996094 5.039063-2.910156v5.816406zm0 0"/><path d="m93.898438 246.902344 5.039062-2.90625v5.816406zm0 0"/><path d="m103.976562 252.722656 5.039063-2.910156v5.816406zm0 0"/><path d="m109.015625 255.628906 5.035156-2.90625v5.816406zm0 0"/><path d="m114.050781 258.539062 5.039063-2.910156v5.820313zm0 0"/><path d="m139.242188 273.082031 5.039062-2.90625v5.816407zm0 0"/><path d="m144.28125 275.992188 5.039062-2.910157v5.820313zm0 0"/><path d="m149.320312 278.902344 5.039063-2.910156v5.816406zm0 0"/><path d="m159.398438 284.71875 5.035156-2.910156v5.820312zm0 0"/><path d="m164.433594 287.628906 5.039062-2.910156v5.816406zm0 0"/><path d="m169.472656 290.535156 5.039063-2.90625v5.816406zm0 0"/><path d="m174.511719 293.445312 5.039062-2.910156v5.820313zm0 0"/><path d="m179.550781 296.355469 5.039063-2.910157v5.816407zm0 0"/><path d="m184.589844 293.445312 5.035156-2.910156v5.820313zm0 0"/><path d="m194.664062 287.628906 5.039063-2.910156v5.816406zm0 0"/><path d="m219.855469 273.082031 5.039062-2.90625v5.816407zm0 0"/><path d="m234.972656 264.355469 5.035156-2.90625v5.816406zm0 0"/><path d="m260.164062 249.8125 5.035157-2.910156v5.820312zm0 0"/><path d="m270.238281 243.996094 5.039063-2.910156v5.816406zm0 0"/><path d="m275.277344 241.085938 5.039062-2.910157v5.820313zm0 0"/><path d="m285.355469 235.269531 5.035156-2.910156v5.816406zm0 0"/><path d="m285.355469 229.449219 5.035156-2.90625v5.816406zm0 0"/><path d="m285.355469 223.632812 5.035156-2.910156v5.820313zm0 0"/><path d="m285.355469 211.996094 5.035156-2.90625v5.816406zm0 0"/><path d="m285.355469 206.179688 5.035156-2.910157v5.820313zm0 0"/><path d="m285.355469 194.542969 5.035156-2.90625v5.816406zm0 0"/><path d="m285.355469 165.457031 5.035156-2.910156v5.816406zm0 0"/><path d="m285.355469 153.820312 5.035156-2.910156v5.820313zm0 0"/><path d="m285.355469 148.003906 5.035156-2.910156v5.816406zm0 0"/><path d="m285.355469 136.367188 5.035156-2.910157v5.820313zm0 0"/><path d="m285.355469 130.550781 5.035156-2.910156v5.816406zm0 0"/><path d="m285.355469 124.730469 5.035156-2.90625v5.816406zm0 0"/><path d="m270.238281 110.1875 5.039063-2.910156v5.820312zm0 0"/><path d="m260.164062 104.371094 5.035157-2.910156v5.816406zm0 0"/><path d="m199.703125 69.464844 5.039063-2.910156v5.816406zm0 0"/><path d="m189.625 63.644531 5.039062-2.90625v5.816407zm0 0"/><path d="m169.472656 63.644531 5.039063-2.90625v5.816407zm0 0"/><path d="m164.433594 66.554688 5.039062-2.910157v5.820313zm0 0"/><path d="m159.398438 69.464844 5.035156-2.910156v5.816406zm0 0"/><path d="m149.320312 75.28125 5.039063-2.910156v5.820312zm0 0"/><path d="m144.28125 78.191406 5.039062-2.910156v5.816406zm0 0"/><path d="m134.207031 84.007812 5.035157-2.910156v5.820313zm0 0"/><path d="m114.050781 95.644531 5.039063-2.910156v5.816406zm0 0"/><path d="m103.976562 101.460938 5.039063-2.910157v5.820313zm0 0"/><path d="m98.9375 104.371094 5.039062-2.910156v5.816406zm0 0"/><path d="m88.859375 110.1875 5.039063-2.910156v5.820312zm0 0"/><path d="m83.824219 113.097656 5.035156-2.910156v5.816406zm0 0"/><path d="m78.785156 116.003906 5.039063-2.90625v5.816406zm0 0"/><path d="m73.746094 124.730469 5.039062-2.90625v5.816406zm0 0"/><path d="m73.746094 130.550781 5.039062-2.910156v5.816406zm0 0"/><path d="m73.746094 142.183594 5.039062-2.90625v5.816406zm0 0"/><path d="m73.746094 171.273438 5.039062-2.910157v5.820313zm0 0"/><path d="m73.746094 188.726562 5.039062-2.910156v5.820313zm0 0"/><path d="m73.746094 217.816406 5.039062-2.910156v5.816406zm0 0"/><path d="m73.746094 229.449219 5.039062-2.90625v5.816406zm0 0"/><path d="m73.746094 235.269531 5.039062-2.910156v5.816406zm0 0"/><path d="m78.785156 243.996094 5.039063-2.910156v5.816406zm0 0"/><path d="m83.824219 246.902344 5.035156-2.90625v5.816406zm0 0"/><path d="m88.859375 249.8125 5.039063-2.910156v5.820312zm0 0"/><path d="m98.9375 255.628906 5.039062-2.90625v5.816406zm0 0"/><path d="m103.976562 258.539062 5.039063-2.910156v5.820313zm0 0"/><path d="m114.050781 264.355469 5.039063-2.90625v5.816406zm0 0"/><path d="m134.207031 275.992188 5.035157-2.910157v5.820313zm0 0"/><path d="m144.28125 281.808594 5.039062-2.90625v5.816406zm0 0"/><path d="m149.320312 284.71875 5.039063-2.910156v5.820312zm0 0"/><path d="m159.398438 290.535156 5.035156-2.90625v5.816406zm0 0"/><path d="m164.433594 293.445312 5.039062-2.910156v5.820313zm0 0"/><path d="m169.472656 296.355469 5.039063-2.910157v5.816407zm0 0"/><path d="m189.625 296.355469 5.039062-2.910157v5.816407zm0 0"/><path d="m199.703125 290.535156 5.039063-2.90625v5.816406zm0 0"/><path d="m260.164062 255.628906 5.035157-2.90625v5.816406zm0 0"/><path d="m270.238281 249.8125 5.039063-2.910156v5.820312zm0 0"/><path d="m290.390625 232.359375 5.039063-2.910156v5.820312zm0 0"/><path d="m290.390625 226.542969 5.039063-2.910157v5.816407zm0 0"/><path d="m290.390625 220.722656 5.039063-2.90625v5.816406zm0 0"/><path d="m290.390625 214.90625 5.039063-2.910156v5.820312zm0 0"/><path d="m290.390625 209.089844 5.039063-2.910156v5.816406zm0 0"/><path d="m290.390625 203.269531 5.039063-2.90625v5.816407zm0 0"/><path d="m290.390625 156.730469 5.039063-2.910157v5.816407zm0 0"/><path d="m290.390625 150.910156 5.039063-2.90625v5.816406zm0 0"/><path d="m290.390625 145.09375 5.039063-2.910156v5.820312zm0 0"/><path d="m290.390625 139.277344 5.039063-2.910156v5.816406zm0 0"/><path d="m290.390625 133.457031 5.039063-2.90625v5.816407zm0 0"/><path d="m290.390625 127.640625 5.039063-2.910156v5.820312zm0 0"/><path d="m280.316406 110.1875 5.039063-2.910156v5.820312zm0 0"/><path d="m275.277344 107.277344 5.039062-2.90625v5.816406zm0 0"/><path d="m270.238281 104.371094 5.039063-2.910156v5.816406zm0 0"/><path d="m265.199219 101.460938 5.039062-2.910157v5.820313zm0 0"/><path d="m255.125 95.644531 5.039062-2.910156v5.816406zm0 0"/><path d="m245.046875 89.824219 5.039063-2.90625v5.816406zm0 0"/><path d="m219.855469 75.28125 5.039062-2.910156v5.820312zm0 0"/><path d="m209.78125 69.464844 5.035156-2.910156v5.816406zm0 0"/><path d="m199.703125 63.644531 5.039063-2.90625v5.816407zm0 0"/><path d="m194.664062 60.738281 5.039063-2.910156v5.816406zm0 0"/><path d="m189.625 57.828125 5.039062-2.910156v5.820312zm0 0"/><path d="m184.589844 54.917969 5.035156-2.90625v5.816406zm0 0"/><path d="m169.472656 57.828125 5.039063-2.910156v5.820312zm0 0"/><path d="m164.433594 60.738281 5.039062-2.910156v5.816406zm0 0"/><path d="m159.398438 63.644531 5.035156-2.90625v5.816407zm0 0"/><path d="m149.320312 69.464844 5.039063-2.910156v5.816406zm0 0"/><path d="m144.28125 72.371094 5.039062-2.90625v5.816406zm0 0"/><path d="m134.207031 78.191406 5.035157-2.910156v5.816406zm0 0"/><path d="m109.015625 92.734375 5.035156-2.910156v5.820312zm0 0"/><path d="m98.9375 98.550781 5.039062-2.90625v5.816407zm0 0"/><path d="m93.898438 101.460938 5.039062-2.910157v5.820313zm0 0"/><path d="m83.824219 107.277344 5.035156-2.90625v5.816406zm0 0"/><path d="m78.785156 110.1875 5.039063-2.910156v5.820312zm0 0"/><path d="m73.746094 113.097656 5.039062-2.910156v5.816406zm0 0"/><path d="m68.707031 133.457031 5.039063-2.90625v5.816407zm0 0"/><path d="m68.707031 145.09375 5.039063-2.910156v5.820312zm0 0"/><path d="m68.707031 214.90625 5.039063-2.910156v5.820312zm0 0"/><path d="m68.707031 226.542969 5.039063-2.910157v5.816407zm0 0"/><path d="m73.746094 246.902344 5.039062-2.90625v5.816406zm0 0"/><path d="m78.785156 249.8125 5.039063-2.910156v5.820312zm0 0"/><path d="m83.824219 252.722656 5.035156-2.910156v5.816406zm0 0"/><path d="m93.898438 258.539062 5.039062-2.910156v5.820313zm0 0"/><path d="m98.9375 261.449219 5.039062-2.910157v5.816407zm0 0"/><path d="m109.015625 267.265625 5.035156-2.910156v5.820312zm0 0"/><path d="m134.207031 281.808594 5.035157-2.90625v5.816406zm0 0"/><path d="m144.28125 287.628906 5.039062-2.910156v5.816406zm0 0"/><path d="m149.320312 290.535156 5.039063-2.90625v5.816406zm0 0"/><path d="m159.398438 296.355469 5.035156-2.910157v5.816407zm0 0"/><path d="m164.433594 299.261719 5.039062-2.90625v5.816406zm0 0"/><path d="m169.472656 302.171875 5.039063-2.910156v5.820312zm0 0"/><path d="m184.589844 305.082031 5.035156-2.910156v5.816406zm0 0"/><path d="m189.625 302.171875 5.039062-2.910156v5.820312zm0 0"/><path d="m194.664062 299.261719 5.039063-2.90625v5.816406zm0 0"/><path d="m199.703125 296.355469 5.039063-2.910157v5.816407zm0 0"/><path d="m209.78125 290.535156 5.035156-2.90625v5.816406zm0 0"/><path d="m219.855469 284.71875 5.039062-2.910156v5.820312zm0 0"/><path d="m245.046875 270.175781 5.039063-2.910156v5.816406zm0 0"/><path d="m255.125 264.355469 5.039062-2.90625v5.816406zm0 0"/><path d="m265.199219 258.539062 5.039062-2.910156v5.820313zm0 0"/><path d="m270.238281 255.628906 5.039063-2.90625v5.816406zm0 0"/><path d="m275.277344 252.722656 5.039062-2.910156v5.816406zm0 0"/><path d="m280.316406 249.8125 5.039063-2.910156v5.820312zm0 0"/><path d="m295.429688 217.816406 5.039062-2.910156v5.816406zm0 0"/><path d="m295.429688 142.183594 5.039062-2.90625v5.816406zm0 0"/><path d="m164.433594 54.917969 5.039062-2.90625v5.816406zm0 0"/><path d="m159.398438 57.828125 5.035156-2.910156v5.820312zm0 0"/><path d="m154.359375 60.738281 5.039063-2.910156v5.816406zm0 0"/><path d="m149.320312 63.644531 5.039063-2.90625v5.816407zm0 0"/><path d="m144.28125 66.554688 5.039062-2.910157v5.820313zm0 0"/><path d="m139.242188 69.464844 5.039062-2.910156v5.816406zm0 0"/><path d="m98.9375 92.734375 5.039062-2.910156v5.820312zm0 0"/><path d="m93.898438 95.644531 5.039062-2.910156v5.816406zm0 0"/><path d="m88.859375 98.550781 5.039063-2.90625v5.816407zm0 0"/><path d="m83.824219 101.460938 5.035156-2.910157v5.820313zm0 0"/><path d="m78.785156 104.371094 5.039063-2.910156v5.816406zm0 0"/><path d="m73.746094 107.277344 5.039062-2.90625v5.816406zm0 0"/><path d="m63.667969 124.730469 5.039062-2.90625v5.816406zm0 0"/><path d="m63.667969 130.550781 5.039062-2.910156v5.816406zm0 0"/><path d="m63.667969 136.367188 5.039062-2.910157v5.820313zm0 0"/><path d="m63.667969 142.183594 5.039062-2.90625v5.816406zm0 0"/><path d="m63.667969 153.820312 5.039062-2.910156v5.820313zm0 0"/><path d="m63.667969 165.457031 5.039062-2.910156v5.816406zm0 0"/><path d="m63.667969 194.542969 5.039062-2.90625v5.816406zm0 0"/><path d="m63.667969 206.179688 5.039062-2.910157v5.820313zm0 0"/><path d="m63.667969 217.816406 5.039062-2.910156v5.816406zm0 0"/><path d="m63.667969 223.632812 5.039062-2.910156v5.820313zm0 0"/><path d="m63.667969 229.449219 5.039062-2.90625v5.816406zm0 0"/><path d="m63.667969 235.269531 5.039062-2.910156v5.816406zm0 0"/><path d="m73.746094 252.722656 5.039062-2.910156v5.816406zm0 0"/><path d="m78.785156 255.628906 5.039063-2.90625v5.816406zm0 0"/><path d="m83.824219 258.539062 5.035156-2.910156v5.820313zm0 0"/><path d="m88.859375 261.449219 5.039063-2.910157v5.816407zm0 0"/><path d="m93.898438 264.355469 5.039062-2.90625v5.816406zm0 0"/><path d="m98.9375 267.265625 5.039062-2.910156v5.820312zm0 0"/><path d="m139.242188 290.535156 5.039062-2.90625v5.816406zm0 0"/><path d="m144.28125 293.445312 5.039062-2.910156v5.820313zm0 0"/><path d="m149.320312 296.355469 5.039063-2.910157v5.816407zm0 0"/><path d="m154.359375 299.261719 5.039063-2.90625v5.816406zm0 0"/><path d="m159.398438 302.171875 5.035156-2.910156v5.820312zm0 0"/><path d="m164.433594 305.082031 5.039062-2.910156v5.816406zm0 0"/><path d="m300.46875 203.269531 5.039062-2.90625v5.816407zm0 0"/><path d="m300.46875 156.730469 5.039062-2.910157v5.816407zm0 0"/><path d="m290.390625 104.371094 5.039063-2.910156v5.816406zm0 0"/><path d="m285.355469 101.460938 5.035156-2.910157v5.820313zm0 0"/><path d="m280.316406 98.550781 5.039063-2.90625v5.816407zm0 0"/><path d="m275.277344 95.644531 5.039062-2.910156v5.816406zm0 0"/><path d="m270.238281 92.734375 5.039063-2.910156v5.820312zm0 0"/><path d="m265.199219 89.824219 5.039062-2.90625v5.816406zm0 0"/><path d="m255.125 84.007812 5.039062-2.910156v5.820313zm0 0"/><path d="m219.855469 63.644531 5.039062-2.90625v5.816407zm0 0"/><path d="m209.78125 57.828125 5.035156-2.910156v5.820312zm0 0"/><path d="m204.742188 54.917969 5.039062-2.90625v5.816406zm0 0"/><path d="m199.703125 52.011719 5.039063-2.910157v5.816407zm0 0"/><path d="m194.664062 49.101562 5.039063-2.910156v5.820313zm0 0"/><path d="m189.625 46.191406 5.039062-2.90625v5.816406zm0 0"/><path d="m184.589844 43.285156 5.035156-2.910156v5.816406zm0 0"/><path d="m149.320312 57.828125 5.039063-2.910156v5.820312zm0 0"/><path d="m83.824219 95.644531 5.035156-2.910156v5.816406zm0 0"/><path d="m83.824219 264.355469 5.035156-2.90625v5.816406zm0 0"/><path d="m149.320312 302.171875 5.039063-2.910156v5.820312zm0 0"/><path d="m184.589844 316.714844 5.035156-2.90625v5.816406zm0 0"/><path d="m189.625 313.808594 5.039062-2.910156v5.816406zm0 0"/><path d="m194.664062 310.898438 5.039063-2.910157v5.820313zm0 0"/><path d="m199.703125 307.988281 5.039063-2.90625v5.816407zm0 0"/><path d="m204.742188 305.082031 5.039062-2.910156v5.816406zm0 0"/><path d="m209.78125 302.171875 5.035156-2.910156v5.820312zm0 0"/><path d="m219.855469 296.355469 5.039062-2.910157v5.816407zm0 0"/><path d="m255.125 275.992188 5.039062-2.910157v5.820313zm0 0"/><path d="m265.199219 270.175781 5.039062-2.910156v5.816406zm0 0"/><path d="m270.238281 267.265625 5.039063-2.910156v5.820312zm0 0"/><path d="m275.277344 264.355469 5.039062-2.90625v5.816406zm0 0"/><path d="m280.316406 261.449219 5.039063-2.910157v5.816407zm0 0"/><path d="m285.355469 258.539062 5.035156-2.910156v5.820313zm0 0"/><path d="m290.390625 255.628906 5.039063-2.90625v5.816406zm0 0"/><path d="m300.46875 104.371094 5.039062-2.910156v5.816406zm0 0"/><path d="m260.164062 81.097656 5.035157-2.90625v5.816406zm0 0"/><path d="m219.855469 57.828125 5.039062-2.910156v5.820312zm0 0"/><path d="m179.550781 34.558594 5.039063-2.910156v5.816406zm0 0"/><path d="m134.207031 60.738281 5.035157-2.910156v5.816406zm0 0"/><path d="m93.898438 84.007812 5.039062-2.910156v5.820313zm0 0"/><path d="m53.59375 118.914062 5.039062-2.910156v5.820313zm0 0"/><path d="m53.59375 124.730469 5.039062-2.90625v5.816406zm0 0"/><path d="m53.59375 130.550781 5.039062-2.910156v5.816406zm0 0"/><path d="m53.59375 136.367188 5.039062-2.910157v5.820313zm0 0"/><path d="m53.59375 142.183594 5.039062-2.90625v5.816406zm0 0"/><path d="m53.59375 148.003906 5.039062-2.910156v5.816406zm0 0"/><path d="m53.59375 159.636719 5.039062-2.90625v5.816406zm0 0"/><path d="m53.59375 200.363281 5.039062-2.910156v5.816406zm0 0"/><path d="m53.59375 211.996094 5.039062-2.90625v5.816406zm0 0"/><path d="m53.59375 217.816406 5.039062-2.910156v5.816406zm0 0"/><path d="m53.59375 223.632812 5.039062-2.910156v5.820313zm0 0"/><path d="m53.59375 229.449219 5.039062-2.90625v5.816406zm0 0"/><path d="m53.59375 235.269531 5.039062-2.910156v5.816406zm0 0"/><path d="m53.59375 241.085938 5.039062-2.910157v5.820313zm0 0"/><path d="m93.898438 275.992188 5.039062-2.910157v5.820313zm0 0"/><path d="m134.207031 299.261719 5.035157-2.90625v5.816406zm0 0"/><path d="m179.550781 325.441406 5.039063-2.90625v5.816406zm0 0"/><path d="m219.855469 302.171875 5.039062-2.910156v5.820312zm0 0"/><path d="m260.164062 278.902344 5.035157-2.910156v5.816406zm0 0"/><path d="m300.46875 255.628906 5.039062-2.90625v5.816406zm0 0"/><path d="m48.554688 110.1875 5.039062-2.910156v5.820312zm0 0"/><path d="m48.554688 156.730469 5.039062-2.910157v5.816407zm0 0"/><path d="m48.554688 203.269531 5.039062-2.90625v5.816407zm0 0"/><path d="m48.554688 249.8125 5.039062-2.910156v5.820312zm0 0"/><path d="m194.664062 182.910156-5.039062-2.910156v5.816406zm0 0"/><path d="m194.664062 177.089844-5.039062-2.90625v5.816406zm0 0"/><path d="m199.703125 185.816406-5.039063-2.90625v5.816406zm0 0"/><path d="m199.703125 174.183594-5.039063-2.910156v5.816406zm0 0"/><path d="m179.550781 168.363281-5.039062-2.90625v5.816407zm0 0"/><path d="m174.511719 171.273438-5.039063-2.910157v5.820313zm0 0"/><path d="m174.511719 188.726562-5.039063-2.910156v5.820313zm0 0"/><path d="m179.550781 191.636719-5.039062-2.910157v5.816407zm0 0"/><path d="m204.742188 188.726562-5.039063-2.910156v5.820313zm0 0"/><path d="m204.742188 182.910156-5.039063-2.910156v5.816406zm0 0"/><path d="m204.742188 177.089844-5.039063-2.90625v5.816406zm0 0"/><path d="m204.742188 171.273438-5.039063-2.910157v5.820313zm0 0"/><path d="m179.550781 162.546875-5.039062-2.910156v5.820312zm0 0"/><path d="m169.472656 168.363281-5.039062-2.90625v5.816407zm0 0"/><path d="m169.472656 191.636719-5.039062-2.910157v5.816407zm0 0"/><path d="m179.550781 197.453125-5.039062-2.910156v5.820312zm0 0"/><path d="m209.78125 191.636719-5.039062-2.910157v5.816407zm0 0"/><path d="m209.78125 185.816406-5.039062-2.90625v5.816406zm0 0"/><path d="m209.78125 174.183594-5.039062-2.910156v5.816406zm0 0"/><path d="m209.78125 168.363281-5.039062-2.90625v5.816407zm0 0"/><path d="m179.550781 156.730469-5.039062-2.910157v5.816407zm0 0"/><path d="m174.511719 159.636719-5.039063-2.90625v5.816406zm0 0"/><path d="m169.472656 162.546875-5.039062-2.910156v5.820312zm0 0"/><path d="m164.433594 165.457031-5.035156-2.910156v5.816406zm0 0"/><path d="m164.433594 194.542969-5.035156-2.90625v5.816406zm0 0"/><path d="m169.472656 197.453125-5.039062-2.910156v5.820312zm0 0"/><path d="m174.511719 200.363281-5.039063-2.910156v5.816406zm0 0"/><path d="m179.550781 203.269531-5.039062-2.90625v5.816407zm0 0"/><path d="m214.816406 194.542969-5.035156-2.90625v5.816406zm0 0"/><path d="m214.816406 182.910156-5.035156-2.910156v5.816406zm0 0"/><path d="m214.816406 177.089844-5.035156-2.90625v5.816406zm0 0"/><path d="m214.816406 165.457031-5.035156-2.910156v5.816406zm0 0"/><path d="m179.550781 150.910156-5.039062-2.90625v5.816406zm0 0"/><path d="m174.511719 153.820312-5.039063-2.910156v5.820313zm0 0"/><path d="m164.433594 159.636719-5.035156-2.90625v5.816406zm0 0"/><path d="m159.398438 162.546875-5.039063-2.910156v5.820312zm0 0"/><path d="m159.398438 197.453125-5.039063-2.910156v5.820312zm0 0"/><path d="m164.433594 200.363281-5.035156-2.910156v5.816406zm0 0"/><path d="m174.511719 206.179688-5.039063-2.910157v5.820313zm0 0"/><path d="m179.550781 209.089844-5.039062-2.910156v5.816406zm0 0"/><path d="m219.855469 197.453125-5.039063-2.910156v5.820312zm0 0"/><path d="m219.855469 185.816406-5.039063-2.90625v5.816406zm0 0"/><path d="m219.855469 174.183594-5.039063-2.910156v5.816406zm0 0"/><path d="m219.855469 162.546875-5.039063-2.910156v5.820312zm0 0"/><path d="m209.78125 156.730469-5.039062-2.910157v5.816407zm0 0"/><path d="m204.742188 153.820312-5.039063-2.910156v5.820313zm0 0"/><path d="m194.664062 148.003906-5.039062-2.910156v5.816406zm0 0"/><path d="m189.625 145.09375-5.035156-2.910156v5.820312zm0 0"/><path d="m179.550781 145.09375-5.039062-2.910156v5.820312zm0 0"/><path d="m169.472656 150.910156-5.039062-2.90625v5.816406zm0 0"/><path d="m164.433594 153.820312-5.035156-2.910156v5.820313zm0 0"/><path d="m154.359375 159.636719-5.039063-2.90625v5.816406zm0 0"/><path d="m154.359375 200.363281-5.039063-2.910156v5.816406zm0 0"/><path d="m164.433594 206.179688-5.035156-2.910157v5.820313zm0 0"/><path d="m169.472656 209.089844-5.039062-2.910156v5.816406zm0 0"/><path d="m179.550781 214.90625-5.039062-2.910156v5.820312zm0 0"/><path d="m189.625 214.90625-5.035156-2.910156v5.820312zm0 0"/><path d="m194.664062 211.996094-5.039062-2.90625v5.816406zm0 0"/><path d="m204.742188 206.179688-5.039063-2.910157v5.820313zm0 0"/><path d="m209.78125 203.269531-5.039062-2.90625v5.816407zm0 0"/><path d="m224.894531 200.363281-5.039062-2.910156v5.816406zm0 0"/><path d="m224.894531 194.542969-5.039062-2.90625v5.816406zm0 0"/><path d="m224.894531 188.726562-5.039062-2.910156v5.820313zm0 0"/><path d="m224.894531 182.910156-5.039062-2.910156v5.816406zm0 0"/><path d="m224.894531 177.089844-5.039062-2.90625v5.816406zm0 0"/><path d="m224.894531 171.273438-5.039062-2.910157v5.820313zm0 0"/><path d="m224.894531 165.457031-5.039062-2.910156v5.816406zm0 0"/><path d="m224.894531 159.636719-5.039062-2.90625v5.816406zm0 0"/><path d="m214.816406 153.820312-5.035156-2.910156v5.820313zm0 0"/><path d="m209.78125 150.910156-5.039062-2.90625v5.816406zm0 0"/><path d="m204.742188 148.003906-5.039063-2.910156v5.816406zm0 0"/><path d="m199.703125 145.09375-5.039063-2.910156v5.820312zm0 0"/><path d="m194.664062 142.183594-5.039062-2.90625v5.816406zm0 0"/><path d="m189.625 139.277344-5.035156-2.910156v5.816406zm0 0"/><path d="m179.550781 139.277344-5.039062-2.910156v5.816406zm0 0"/><path d="m169.472656 145.09375-5.039062-2.910156v5.820312zm0 0"/><path d="m159.398438 150.910156-5.039063-2.90625v5.816406zm0 0"/><path d="m149.320312 156.730469-5.039062-2.910157v5.816407zm0 0"/><path d="m149.320312 168.363281-5.039062-2.90625v5.816407zm0 0"/><path d="m149.320312 174.183594-5.039062-2.910156v5.816406zm0 0"/><path d="m149.320312 185.816406-5.039062-2.90625v5.816406zm0 0"/><path d="m149.320312 191.636719-5.039062-2.910157v5.816407zm0 0"/><path d="m149.320312 203.269531-5.039062-2.90625v5.816407zm0 0"/><path d="m159.398438 209.089844-5.039063-2.910156v5.816406zm0 0"/><path d="m169.472656 214.90625-5.039062-2.910156v5.820312zm0 0"/><path d="m179.550781 220.722656-5.039062-2.90625v5.816406zm0 0"/><path d="m189.625 220.722656-5.035156-2.90625v5.816406zm0 0"/><path d="m194.664062 217.816406-5.039062-2.910156v5.816406zm0 0"/><path d="m199.703125 214.90625-5.039063-2.910156v5.820312zm0 0"/><path d="m204.742188 211.996094-5.039063-2.90625v5.816406zm0 0"/><path d="m209.78125 209.089844-5.039062-2.910156v5.816406zm0 0"/><path d="m214.816406 206.179688-5.035156-2.910157v5.820313zm0 0"/><path d="m219.855469 150.910156-5.039063-2.90625v5.816406zm0 0"/><path d="m214.816406 148.003906-5.035156-2.910156v5.816406zm0 0"/><path d="m194.664062 136.367188-5.039062-2.910157v5.820313zm0 0"/><path d="m189.625 133.457031-5.035156-2.90625v5.816407zm0 0"/><path d="m179.550781 133.457031-5.039062-2.90625v5.816407zm0 0"/><path d="m174.511719 136.367188-5.039063-2.910157v5.820313zm0 0"/><path d="m169.472656 139.277344-5.039062-2.910156v5.816406zm0 0"/><path d="m164.433594 142.183594-5.035156-2.90625v5.816406zm0 0"/><path d="m159.398438 145.09375-5.039063-2.910156v5.820312zm0 0"/><path d="m154.359375 148.003906-5.039063-2.910156v5.816406zm0 0"/><path d="m149.320312 150.910156-5.039062-2.90625v5.816406zm0 0"/><path d="m144.28125 153.820312-5.039062-2.910156v5.820313zm0 0"/><path d="m144.28125 165.457031-5.039062-2.910156v5.816406zm0 0"/><path d="m144.28125 171.273438-5.039062-2.910157v5.820313zm0 0"/><path d="m144.28125 177.089844-5.039062-2.90625v5.816406zm0 0"/><path d="m144.28125 182.910156-5.039062-2.910156v5.816406zm0 0"/><path d="m144.28125 188.726562-5.039062-2.910156v5.820313zm0 0"/><path d="m144.28125 194.542969-5.039062-2.90625v5.816406zm0 0"/><path d="m144.28125 206.179688-5.039062-2.910157v5.820313zm0 0"/><path d="m149.320312 209.089844-5.039062-2.910156v5.816406zm0 0"/><path d="m154.359375 211.996094-5.039063-2.90625v5.816406zm0 0"/><path d="m159.398438 214.90625-5.039063-2.910156v5.820312zm0 0"/><path d="m164.433594 217.816406-5.035156-2.910156v5.816406zm0 0"/><path d="m169.472656 220.722656-5.039062-2.90625v5.816406zm0 0"/><path d="m174.511719 223.632812-5.039063-2.910156v5.820313zm0 0"/><path d="m179.550781 226.542969-5.039062-2.910157v5.816407zm0 0"/><path d="m189.625 226.542969-5.035156-2.910157v5.816407zm0 0"/><path d="m194.664062 223.632812-5.039062-2.910156v5.820313zm0 0"/><path d="m214.816406 211.996094-5.035156-2.90625v5.816406zm0 0"/><path d="m219.855469 209.089844-5.039063-2.910156v5.816406zm0 0"/><path d="m224.894531 148.003906-5.039062-2.910156v5.816406zm0 0"/><path d="m214.816406 142.183594-5.035156-2.90625v5.816406zm0 0"/><path d="m209.78125 139.277344-5.039062-2.910156v5.816406zm0 0"/><path d="m204.742188 136.367188-5.039063-2.910157v5.820313zm0 0"/><path d="m199.703125 133.457031-5.039063-2.90625v5.816407zm0 0"/><path d="m189.625 127.640625-5.035156-2.910156v5.820312zm0 0"/><path d="m139.242188 162.546875-5.035157-2.910156v5.820312zm0 0"/><path d="m139.242188 168.363281-5.035157-2.90625v5.816407zm0 0"/><path d="m139.242188 191.636719-5.035157-2.910157v5.816407zm0 0"/><path d="m139.242188 197.453125-5.035157-2.910156v5.820312zm0 0"/><path d="m189.625 232.359375-5.035156-2.910156v5.820312zm0 0"/><path d="m199.703125 226.542969-5.039063-2.910157v5.816407zm0 0"/><path d="m204.742188 223.632812-5.039063-2.910156v5.820313zm0 0"/><path d="m209.78125 220.722656-5.039062-2.90625v5.816406zm0 0"/><path d="m214.816406 217.816406-5.035156-2.910156v5.816406zm0 0"/><path d="m224.894531 211.996094-5.039062-2.90625v5.816406zm0 0"/><path d="m240.007812 209.089844-5.035156-2.910156v5.816406zm0 0"/><path d="m240.007812 197.453125-5.035156-2.910156v5.820312zm0 0"/><path d="m240.007812 191.636719-5.035156-2.910157v5.816407zm0 0"/><path d="m240.007812 168.363281-5.035156-2.90625v5.816407zm0 0"/><path d="m240.007812 162.546875-5.035156-2.910156v5.820312zm0 0"/><path d="m240.007812 150.910156-5.035156-2.90625v5.816406zm0 0"/><path d="m234.972656 148.003906-5.039062-2.910156v5.816406zm0 0"/><path d="m229.933594 145.09375-5.039063-2.910156v5.820312zm0 0"/><path d="m189.625 121.824219-5.035156-2.910157v5.816407zm0 0"/><path d="m184.589844 118.914062-5.039063-2.910156v5.820313zm0 0"/><path d="m134.207031 159.636719-5.039062-2.90625v5.816406zm0 0"/><path d="m134.207031 171.273438-5.039062-2.910157v5.820313zm0 0"/><path d="m134.207031 177.089844-5.039062-2.90625v5.816406zm0 0"/><path d="m134.207031 182.910156-5.039062-2.910156v5.816406zm0 0"/><path d="m134.207031 188.726562-5.039062-2.910156v5.820313zm0 0"/><path d="m134.207031 200.363281-5.039062-2.910156v5.816406zm0 0"/><path d="m184.589844 241.085938-5.039063-2.910157v5.820313zm0 0"/><path d="m189.625 238.175781-5.035156-2.90625v5.816407zm0 0"/><path d="m229.933594 214.90625-5.039063-2.910156v5.820312zm0 0"/><path d="m234.972656 211.996094-5.039062-2.90625v5.816406zm0 0"/><path d="m245.046875 211.996094-5.039063-2.90625v5.816406zm0 0"/><path d="m245.046875 200.363281-5.039063-2.910156v5.816406zm0 0"/><path d="m245.046875 194.542969-5.039063-2.90625v5.816406zm0 0"/><path d="m245.046875 165.457031-5.039063-2.910156v5.816406zm0 0"/><path d="m245.046875 159.636719-5.039063-2.90625v5.816406zm0 0"/><path d="m245.046875 148.003906-5.039063-2.910156v5.816406zm0 0"/><path d="m229.933594 139.277344-5.039063-2.910156v5.816406zm0 0"/><path d="m224.894531 136.367188-5.039062-2.910157v5.820313zm0 0"/><path d="m214.816406 130.550781-5.035156-2.910156v5.816406zm0 0"/><path d="m209.78125 127.640625-5.039062-2.910156v5.820312zm0 0"/><path d="m199.703125 121.824219-5.039063-2.910157v5.816407zm0 0"/><path d="m194.664062 118.914062-5.039062-2.910156v5.820313zm0 0"/><path d="m179.550781 116.003906-5.039062-2.90625v5.816406zm0 0"/><path d="m169.472656 121.824219-5.039062-2.910157v5.816407zm0 0"/><path d="m164.433594 124.730469-5.035156-2.90625v5.816406zm0 0"/><path d="m144.28125 136.367188-5.039062-2.910157v5.820313zm0 0"/><path d="m139.242188 139.277344-5.035157-2.910156v5.816406zm0 0"/><path d="m129.167969 145.09375-5.039063-2.910156v5.820312zm0 0"/><path d="m129.167969 150.910156-5.039063-2.90625v5.816406zm0 0"/><path d="m129.167969 156.730469-5.039063-2.910157v5.816407zm0 0"/><path d="m129.167969 203.269531-5.039063-2.90625v5.816407zm0 0"/><path d="m129.167969 209.089844-5.039063-2.910156v5.816406zm0 0"/><path d="m129.167969 214.90625-5.039063-2.910156v5.820312zm0 0"/><path d="m139.242188 220.722656-5.035157-2.90625v5.816406zm0 0"/><path d="m144.28125 223.632812-5.039062-2.910156v5.820313zm0 0"/><path d="m164.433594 235.269531-5.035156-2.910156v5.816406zm0 0"/><path d="m169.472656 238.175781-5.039062-2.90625v5.816407zm0 0"/><path d="m179.550781 243.996094-5.039062-2.910156v5.816406zm0 0"/><path d="m194.664062 241.085938-5.039062-2.910157v5.820313zm0 0"/><path d="m199.703125 238.175781-5.039063-2.90625v5.816407zm0 0"/><path d="m209.78125 232.359375-5.039062-2.910156v5.820312zm0 0"/><path d="m214.816406 229.449219-5.035156-2.90625v5.816406zm0 0"/><path d="m224.894531 223.632812-5.039062-2.910156v5.820313zm0 0"/><path d="m229.933594 220.722656-5.039063-2.90625v5.816406zm0 0"/><path d="m250.085938 209.089844-5.039063-2.910156v5.816406zm0 0"/><path d="m250.085938 197.453125-5.039063-2.910156v5.820312zm0 0"/><path d="m250.085938 191.636719-5.039063-2.910157v5.816407zm0 0"/><path d="m250.085938 185.816406-5.039063-2.90625v5.816406zm0 0"/><path d="m250.085938 174.183594-5.039063-2.910156v5.816406zm0 0"/><path d="m250.085938 168.363281-5.039063-2.90625v5.816407zm0 0"/><path d="m250.085938 162.546875-5.039063-2.910156v5.820312zm0 0"/><path d="m250.085938 150.910156-5.039063-2.90625v5.816406zm0 0"/><path d="m240.007812 139.277344-5.035156-2.910156v5.816406zm0 0"/><path d="m229.933594 133.457031-5.039063-2.90625v5.816407zm0 0"/><path d="m199.703125 116.003906-5.039063-2.90625v5.816406zm0 0"/><path d="m189.625 110.1875-5.035156-2.910156v5.820312zm0 0"/><path d="m179.550781 110.1875-5.039062-2.910156v5.820312zm0 0"/><path d="m169.472656 116.003906-5.039062-2.90625v5.816406zm0 0"/><path d="m164.433594 118.914062-5.035156-2.910156v5.820313zm0 0"/><path d="m139.242188 133.457031-5.035157-2.90625v5.816407zm0 0"/><path d="m134.207031 136.367188-5.039062-2.910157v5.820313zm0 0"/><path d="m124.128906 142.183594-5.039062-2.90625v5.816406zm0 0"/><path d="m124.128906 159.636719-5.039062-2.90625v5.816406zm0 0"/><path d="m124.128906 165.457031-5.039062-2.910156v5.816406zm0 0"/><path d="m124.128906 177.089844-5.039062-2.90625v5.816406zm0 0"/><path d="m124.128906 182.910156-5.039062-2.910156v5.816406zm0 0"/><path d="m124.128906 194.542969-5.039062-2.90625v5.816406zm0 0"/><path d="m124.128906 200.363281-5.039062-2.910156v5.816406zm0 0"/><path d="m124.128906 217.816406-5.039062-2.910156v5.816406zm0 0"/><path d="m134.207031 223.632812-5.039062-2.910156v5.820313zm0 0"/><path d="m139.242188 226.542969-5.035157-2.910157v5.816407zm0 0"/><path d="m164.433594 241.085938-5.035156-2.910157v5.820313zm0 0"/><path d="m169.472656 243.996094-5.039062-2.910156v5.816406zm0 0"/><path d="m179.550781 249.8125-5.039062-2.910156v5.820312zm0 0"/><path d="m189.625 249.8125-5.035156-2.910156v5.820312zm0 0"/><path d="m199.703125 243.996094-5.039063-2.910156v5.816406zm0 0"/><path d="m229.933594 226.542969-5.039063-2.910157v5.816407zm0 0"/><path d="m240.007812 220.722656-5.035156-2.90625v5.816406zm0 0"/><path d="m255.125 211.996094-5.039062-2.90625v5.816406zm0 0"/><path d="m255.125 200.363281-5.039062-2.910156v5.816406zm0 0"/><path d="m255.125 194.542969-5.039062-2.90625v5.816406zm0 0"/><path d="m255.125 182.910156-5.039062-2.910156v5.816406zm0 0"/><path d="m255.125 177.089844-5.039062-2.90625v5.816406zm0 0"/><path d="m255.125 165.457031-5.039062-2.910156v5.816406zm0 0"/><path d="m255.125 159.636719-5.039062-2.90625v5.816406zm0 0"/><path d="m255.125 148.003906-5.039062-2.910156v5.816406zm0 0"/><path d="m229.933594 127.640625-5.039063-2.910156v5.820312zm0 0"/><path d="m224.894531 124.730469-5.039062-2.90625v5.816406zm0 0"/><path d="m209.78125 116.003906-5.039062-2.90625v5.816406zm0 0"/><path d="m204.742188 113.097656-5.039063-2.910156v5.816406zm0 0"/><path d="m174.511719 107.277344-5.039063-2.90625v5.816406zm0 0"/><path d="m164.433594 113.097656-5.035156-2.910156v5.816406zm0 0"/><path d="m159.398438 116.003906-5.039063-2.90625v5.816406zm0 0"/><path d="m154.359375 118.914062-5.039063-2.910156v5.820313zm0 0"/><path d="m144.28125 124.730469-5.039062-2.90625v5.816406zm0 0"/><path d="m139.242188 127.640625-5.035157-2.910156v5.820312zm0 0"/><path d="m134.207031 130.550781-5.039062-2.910156v5.816406zm0 0"/><path d="m124.128906 136.367188-5.039062-2.910157v5.820313zm0 0"/><path d="m119.089844 150.910156-5.039063-2.90625v5.816406zm0 0"/><path d="m119.089844 162.546875-5.039063-2.910156v5.820312zm0 0"/><path d="m119.089844 197.453125-5.039063-2.910156v5.820312zm0 0"/><path d="m119.089844 209.089844-5.039063-2.910156v5.816406zm0 0"/><path d="m124.128906 223.632812-5.039062-2.910156v5.820313zm0 0"/><path d="m134.207031 229.449219-5.039062-2.90625v5.816406zm0 0"/><path d="m139.242188 232.359375-5.035157-2.910156v5.820312zm0 0"/><path d="m144.28125 235.269531-5.039062-2.910156v5.816406zm0 0"/><path d="m154.359375 241.085938-5.039063-2.910157v5.820313zm0 0"/><path d="m159.398438 243.996094-5.039063-2.910156v5.816406zm0 0"/><path d="m164.433594 246.902344-5.035156-2.90625v5.816406zm0 0"/><path d="m174.511719 252.722656-5.039063-2.910156v5.816406zm0 0"/><path d="m204.742188 246.902344-5.039063-2.90625v5.816406zm0 0"/><path d="m209.78125 243.996094-5.039062-2.910156v5.816406zm0 0"/><path d="m224.894531 235.269531-5.039062-2.910156v5.816406zm0 0"/><path d="m229.933594 232.359375-5.039063-2.910156v5.820312zm0 0"/><path d="m260.164062 214.90625-5.039062-2.910156v5.820312zm0 0"/><path d="m260.164062 185.816406-5.039062-2.90625v5.816406zm0 0"/><path d="m260.164062 174.183594-5.039062-2.910156v5.816406zm0 0"/><path d="m260.164062 145.09375-5.039062-2.910156v5.820312zm0 0"/><path d="m245.046875 130.550781-5.039063-2.910156v5.816406zm0 0"/><path d="m240.007812 127.640625-5.035156-2.910156v5.820312zm0 0"/><path d="m199.703125 104.371094-5.039063-2.910156v5.816406zm0 0"/><path d="m194.664062 101.460938-5.039062-2.910157v5.820313zm0 0"/><path d="m174.511719 101.460938-5.039063-2.910157v5.820313zm0 0"/><path d="m164.433594 107.277344-5.035156-2.90625v5.816406zm0 0"/><path d="m159.398438 110.1875-5.039063-2.910156v5.820312zm0 0"/><path d="m149.320312 116.003906-5.039062-2.90625v5.816406zm0 0"/><path d="m144.28125 118.914062-5.039062-2.910156v5.820313zm0 0"/><path d="m134.207031 124.730469-5.039062-2.90625v5.816406zm0 0"/><path d="m129.167969 127.640625-5.039063-2.910156v5.820312zm0 0"/><path d="m119.089844 133.457031-5.039063-2.90625v5.816407zm0 0"/><path d="m114.050781 165.457031-5.035156-2.910156v5.816406zm0 0"/><path d="m114.050781 171.273438-5.035156-2.910157v5.820313zm0 0"/><path d="m114.050781 188.726562-5.035156-2.910156v5.820313zm0 0"/><path d="m114.050781 194.542969-5.035156-2.90625v5.816406zm0 0"/><path d="m119.089844 226.542969-5.039063-2.910157v5.816407zm0 0"/><path d="m129.167969 232.359375-5.039063-2.910156v5.820312zm0 0"/><path d="m134.207031 235.269531-5.039062-2.910156v5.816406zm0 0"/><path d="m144.28125 241.085938-5.039062-2.910157v5.820313zm0 0"/><path d="m149.320312 243.996094-5.039062-2.910156v5.816406zm0 0"/><path d="m159.398438 249.8125-5.039063-2.910156v5.820312zm0 0"/><path d="m164.433594 252.722656-5.035156-2.910156v5.816406zm0 0"/><path d="m174.511719 258.539062-5.039063-2.910156v5.820313zm0 0"/><path d="m194.664062 258.539062-5.039062-2.910156v5.820313zm0 0"/><path d="m199.703125 255.628906-5.039063-2.90625v5.816406zm0 0"/><path d="m240.007812 232.359375-5.035156-2.910156v5.820312zm0 0"/><path d="m245.046875 229.449219-5.039063-2.90625v5.816406zm0 0"/><path d="m265.199219 200.363281-5.035157-2.910156v5.816406zm0 0"/><path d="m265.199219 188.726562-5.035157-2.910156v5.820313zm0 0"/><path d="m265.199219 182.910156-5.035157-2.910156v5.816406zm0 0"/><path d="m265.199219 177.089844-5.035157-2.90625v5.816406zm0 0"/><path d="m265.199219 171.273438-5.035157-2.910157v5.820313zm0 0"/><path d="m265.199219 159.636719-5.035157-2.90625v5.816406zm0 0"/><path d="m250.085938 127.640625-5.039063-2.910156v5.820312zm0 0"/><path d="m245.046875 124.730469-5.039063-2.90625v5.816406zm0 0"/><path d="m240.007812 121.824219-5.035156-2.910157v5.816407zm0 0"/><path d="m234.972656 118.914062-5.039062-2.910156v5.820313zm0 0"/><path d="m209.78125 104.371094-5.039062-2.910156v5.816406zm0 0"/><path d="m204.742188 101.460938-5.039063-2.910157v5.820313zm0 0"/><path d="m199.703125 98.550781-5.039063-2.90625v5.816407zm0 0"/><path d="m194.664062 95.644531-5.039062-2.910156v5.816406zm0 0"/><path d="m174.511719 95.644531-5.039063-2.910156v5.816406zm0 0"/><path d="m149.320312 110.1875-5.039062-2.910156v5.820312zm0 0"/><path d="m139.242188 116.003906-5.035157-2.90625v5.816406zm0 0"/><path d="m114.050781 130.550781-5.035156-2.910156v5.816406zm0 0"/><path d="m109.015625 150.910156-5.039063-2.90625v5.816406zm0 0"/><path d="m109.015625 156.730469-5.039063-2.910157v5.816407zm0 0"/><path d="m109.015625 203.269531-5.039063-2.90625v5.816407zm0 0"/><path d="m109.015625 209.089844-5.039063-2.910156v5.816406zm0 0"/><path d="m114.050781 229.449219-5.035156-2.90625v5.816406zm0 0"/><path d="m139.242188 243.996094-5.035157-2.910156v5.816406zm0 0"/><path d="m149.320312 249.8125-5.039062-2.910156v5.820312zm0 0"/><path d="m174.511719 264.355469-5.039063-2.90625v5.816406zm0 0"/><path d="m194.664062 264.355469-5.039062-2.90625v5.816406zm0 0"/><path d="m199.703125 261.449219-5.039063-2.910157v5.816407zm0 0"/><path d="m204.742188 258.539062-5.039063-2.910156v5.820313zm0 0"/><path d="m209.78125 255.628906-5.039062-2.90625v5.816406zm0 0"/><path d="m234.972656 241.085938-5.039062-2.910157v5.820313zm0 0"/><path d="m240.007812 238.175781-5.035156-2.90625v5.816407zm0 0"/><path d="m245.046875 235.269531-5.039063-2.910156v5.816406zm0 0"/><path d="m250.085938 232.359375-5.039063-2.910156v5.820312zm0 0"/><path d="m270.238281 214.90625-5.039062-2.910156v5.820312zm0 0"/><path d="m270.238281 209.089844-5.039062-2.910156v5.816406zm0 0"/><path d="m270.238281 150.910156-5.039062-2.90625v5.816406zm0 0"/><path d="m270.238281 145.09375-5.039062-2.910156v5.820312zm0 0"/><path d="m245.046875 118.914062-5.039063-2.910156v5.820313zm0 0"/><path d="m234.972656 113.097656-5.039062-2.910156v5.816406zm0 0"/><path d="m214.816406 101.460938-5.035156-2.910157v5.820313zm0 0"/><path d="m204.742188 95.644531-5.039063-2.910156v5.816406zm0 0"/><path d="m159.398438 98.550781-5.039063-2.90625v5.816407zm0 0"/><path d="m149.320312 104.371094-5.039062-2.910156v5.816406zm0 0"/><path d="m144.28125 107.277344-5.039062-2.90625v5.816406zm0 0"/><path d="m139.242188 110.1875-5.035157-2.910156v5.820312zm0 0"/><path d="m134.207031 113.097656-5.039062-2.910156v5.816406zm0 0"/><path d="m124.128906 118.914062-5.039062-2.910156v5.820313zm0 0"/><path d="m103.976562 148.003906-5.039062-2.910156v5.816406zm0 0"/><path d="m103.976562 153.820312-5.039062-2.910156v5.820313zm0 0"/><path d="m103.976562 159.636719-5.039062-2.90625v5.816406zm0 0"/><path d="m103.976562 165.457031-5.039062-2.910156v5.816406zm0 0"/><path d="m103.976562 194.542969-5.039062-2.90625v5.816406zm0 0"/><path d="m103.976562 200.363281-5.039062-2.910156v5.816406zm0 0"/><path d="m103.976562 206.179688-5.039062-2.910157v5.820313zm0 0"/><path d="m103.976562 211.996094-5.039062-2.90625v5.816406zm0 0"/><path d="m124.128906 241.085938-5.039062-2.910157v5.820313zm0 0"/><path d="m134.207031 246.902344-5.039062-2.90625v5.816406zm0 0"/><path d="m139.242188 249.8125-5.035157-2.910156v5.820312zm0 0"/><path d="m144.28125 252.722656-5.039062-2.910156v5.816406zm0 0"/><path d="m149.320312 255.628906-5.039062-2.90625v5.816406zm0 0"/><path d="m159.398438 261.449219-5.039063-2.910157v5.816407zm0 0"/><path d="m204.742188 264.355469-5.039063-2.90625v5.816406zm0 0"/><path d="m214.816406 258.539062-5.035156-2.910156v5.820313zm0 0"/><path d="m234.972656 246.902344-5.039062-2.90625v5.816406zm0 0"/><path d="m245.046875 241.085938-5.039063-2.910157v5.820313zm0 0"/><path d="m275.277344 206.179688-5.039063-2.910157v5.820313zm0 0"/><path d="m275.277344 182.910156-5.039063-2.910156v5.816406zm0 0"/><path d="m275.277344 177.089844-5.039063-2.90625v5.816406zm0 0"/><path d="m275.277344 153.820312-5.039063-2.910156v5.820313zm0 0"/><path d="m260.164062 121.824219-5.039062-2.910157v5.816407zm0 0"/><path d="m229.933594 104.371094-5.039063-2.910156v5.816406zm0 0"/><path d="m224.894531 101.460938-5.039062-2.910157v5.820313zm0 0"/><path d="m194.664062 84.007812-5.039062-2.910156v5.820313zm0 0"/><path d="m169.472656 86.917969-5.039062-2.910157v5.816407zm0 0"/><path d="m164.433594 89.824219-5.035156-2.90625v5.816406zm0 0"/><path d="m114.050781 118.914062-5.035156-2.910156v5.820313zm0 0"/><path d="m109.015625 121.824219-5.039063-2.910157v5.816407zm0 0"/><path d="m98.9375 156.730469-5.039062-2.910157v5.816407zm0 0"/><path d="m98.9375 168.363281-5.039062-2.90625v5.816407zm0 0"/><path d="m98.9375 191.636719-5.039062-2.910157v5.816407zm0 0"/><path d="m98.9375 203.269531-5.039062-2.90625v5.816407zm0 0"/><path d="m109.015625 238.175781-5.039063-2.90625v5.816407zm0 0"/><path d="m114.050781 241.085938-5.035156-2.910157v5.820313zm0 0"/><path d="m164.433594 270.175781-5.035156-2.910156v5.816406zm0 0"/><path d="m169.472656 273.082031-5.039062-2.90625v5.816407zm0 0"/><path d="m194.664062 275.992188-5.039062-2.910157v5.820313zm0 0"/><path d="m224.894531 258.539062-5.039062-2.910156v5.820313zm0 0"/><path d="m229.933594 255.628906-5.039063-2.90625v5.816406zm0 0"/><path d="m260.164062 238.175781-5.039062-2.90625v5.816407zm0 0"/><path d="m280.316406 226.542969-5.039062-2.910157v5.816407zm0 0"/><path d="m280.316406 220.722656-5.039062-2.90625v5.816406zm0 0"/><path d="m280.316406 139.277344-5.039062-2.910156v5.816406zm0 0"/><path d="m280.316406 133.457031-5.039062-2.90625v5.816407zm0 0"/><path d="m275.277344 124.730469-5.039063-2.90625v5.816406zm0 0"/><path d="m260.164062 116.003906-5.039062-2.90625v5.816406zm0 0"/><path d="m240.007812 104.371094-5.035156-2.910156v5.816406zm0 0"/><path d="m219.855469 92.734375-5.039063-2.910156v5.820312zm0 0"/><path d="m199.703125 81.097656-5.039063-2.90625v5.816406zm0 0"/><path d="m184.589844 72.371094-5.039063-2.90625v5.816406zm0 0"/><path d="m159.398438 86.917969-5.039063-2.910157v5.816407zm0 0"/><path d="m139.242188 98.550781-5.035157-2.90625v5.816407zm0 0"/><path d="m134.207031 101.460938-5.039062-2.910157v5.820313zm0 0"/><path d="m114.050781 113.097656-5.035156-2.910156v5.816406zm0 0"/><path d="m93.898438 142.183594-5.039063-2.90625v5.816406zm0 0"/><path d="m93.898438 177.089844-5.039063-2.90625v5.816406zm0 0"/><path d="m93.898438 182.910156-5.039063-2.910156v5.816406zm0 0"/><path d="m93.898438 217.816406-5.039063-2.910156v5.816406zm0 0"/><path d="m114.050781 246.902344-5.035156-2.90625v5.816406zm0 0"/><path d="m134.207031 258.539062-5.039062-2.910156v5.820313zm0 0"/><path d="m139.242188 261.449219-5.035157-2.910157v5.816407zm0 0"/><path d="m159.398438 273.082031-5.039063-2.90625v5.816407zm0 0"/><path d="m184.589844 287.628906-5.039063-2.910156v5.816406zm0 0"/><path d="m199.703125 278.902344-5.039063-2.910156v5.816406zm0 0"/><path d="m219.855469 267.265625-5.039063-2.910156v5.820312zm0 0"/><path d="m240.007812 255.628906-5.035156-2.90625v5.816406zm0 0"/><path d="m260.164062 243.996094-5.039062-2.910156v5.816406zm0 0"/><path d="m275.277344 235.269531-5.039063-2.910156v5.816406zm0 0"/><path d="m285.355469 235.269531-5.039063-2.910156v5.816406zm0 0"/><path d="m285.355469 229.449219-5.039063-2.90625v5.816406zm0 0"/><path d="m285.355469 217.816406-5.039063-2.910156v5.816406zm0 0"/><path d="m285.355469 188.726562-5.039063-2.910156v5.820313zm0 0"/><path d="m285.355469 171.273438-5.039063-2.910157v5.820313zm0 0"/><path d="m285.355469 142.183594-5.039063-2.90625v5.816406zm0 0"/><path d="m285.355469 130.550781-5.039063-2.910156v5.816406zm0 0"/><path d="m285.355469 124.730469-5.039063-2.90625v5.816406zm0 0"/><path d="m280.316406 121.824219-5.039062-2.910157v5.816407zm0 0"/><path d="m275.277344 118.914062-5.039063-2.910156v5.820313zm0 0"/><path d="m270.238281 116.003906-5.039062-2.90625v5.816406zm0 0"/><path d="m265.199219 113.097656-5.035157-2.910156v5.816406zm0 0"/><path d="m255.125 107.277344-5.039062-2.90625v5.816406zm0 0"/><path d="m250.085938 104.371094-5.039063-2.910156v5.816406zm0 0"/><path d="m245.046875 101.460938-5.039063-2.910157v5.820313zm0 0"/><path d="m219.855469 86.917969-5.039063-2.910157v5.816407zm0 0"/><path d="m214.816406 84.007812-5.035156-2.910156v5.820313zm0 0"/><path d="m209.78125 81.097656-5.039062-2.90625v5.816406zm0 0"/><path d="m199.703125 75.28125-5.039063-2.910156v5.820312zm0 0"/><path d="m194.664062 72.371094-5.039062-2.90625v5.816406zm0 0"/><path d="m189.625 69.464844-5.035156-2.910156v5.816406zm0 0"/><path d="m184.589844 66.554688-5.039063-2.910157v5.820313zm0 0"/><path d="m174.511719 72.371094-5.039063-2.90625v5.816406zm0 0"/><path d="m169.472656 75.28125-5.039062-2.910156v5.820312zm0 0"/><path d="m98.9375 116.003906-5.039062-2.90625v5.816406zm0 0"/><path d="m93.898438 118.914062-5.039063-2.910156v5.820313zm0 0"/><path d="m88.859375 127.640625-5.035156-2.910156v5.820312zm0 0"/><path d="m88.859375 145.09375-5.035156-2.910156v5.820312zm0 0"/><path d="m88.859375 168.363281-5.035156-2.90625v5.816407zm0 0"/><path d="m88.859375 191.636719-5.035156-2.910157v5.816407zm0 0"/><path d="m88.859375 214.90625-5.035156-2.910156v5.820312zm0 0"/><path d="m88.859375 232.359375-5.035156-2.910156v5.820312zm0 0"/><path d="m93.898438 241.085938-5.039063-2.910157v5.820313zm0 0"/><path d="m98.9375 243.996094-5.039062-2.910156v5.816406zm0 0"/><path d="m169.472656 284.71875-5.039062-2.910156v5.820312zm0 0"/><path d="m174.511719 287.628906-5.039063-2.910156v5.816406zm0 0"/><path d="m184.589844 293.445312-5.039063-2.910156v5.820313zm0 0"/><path d="m189.625 290.535156-5.035156-2.90625v5.816406zm0 0"/><path d="m194.664062 287.628906-5.039062-2.910156v5.816406zm0 0"/><path d="m199.703125 284.71875-5.039063-2.910156v5.820312zm0 0"/><path d="m209.78125 278.902344-5.039062-2.910156v5.816406zm0 0"/><path d="m214.816406 275.992188-5.035156-2.910157v5.820313zm0 0"/><path d="m219.855469 273.082031-5.039063-2.90625v5.816407zm0 0"/><path d="m245.046875 258.539062-5.039063-2.910156v5.820313zm0 0"/><path d="m250.085938 255.628906-5.039063-2.90625v5.816406zm0 0"/><path d="m255.125 252.722656-5.039062-2.910156v5.816406zm0 0"/><path d="m265.199219 246.902344-5.035157-2.90625v5.816406zm0 0"/><path d="m270.238281 243.996094-5.039062-2.910156v5.816406zm0 0"/><path d="m275.277344 241.085938-5.039063-2.910157v5.820313zm0 0"/><path d="m280.316406 238.175781-5.039062-2.90625v5.816407zm0 0"/><path d="m290.390625 226.542969-5.035156-2.910157v5.816407zm0 0"/><path d="m290.390625 214.90625-5.035156-2.910156v5.820312zm0 0"/><path d="m290.390625 145.09375-5.035156-2.910156v5.820312zm0 0"/><path d="m290.390625 133.457031-5.035156-2.90625v5.816407zm0 0"/><path d="m280.316406 116.003906-5.039062-2.90625v5.816406zm0 0"/><path d="m275.277344 113.097656-5.039063-2.910156v5.816406zm0 0"/><path d="m270.238281 110.1875-5.039062-2.910156v5.820312zm0 0"/><path d="m260.164062 104.371094-5.039062-2.910156v5.816406zm0 0"/><path d="m255.125 101.460938-5.039062-2.910157v5.820313zm0 0"/><path d="m245.046875 95.644531-5.039063-2.910156v5.816406zm0 0"/><path d="m224.894531 84.007812-5.039062-2.910156v5.820313zm0 0"/><path d="m214.816406 78.191406-5.035156-2.910156v5.816406zm0 0"/><path d="m209.78125 75.28125-5.039062-2.910156v5.820312zm0 0"/><path d="m199.703125 69.464844-5.039063-2.910156v5.816406zm0 0"/><path d="m194.664062 66.554688-5.039062-2.910157v5.820313zm0 0"/><path d="m189.625 63.644531-5.035156-2.90625v5.816407zm0 0"/><path d="m179.550781 63.644531-5.039062-2.90625v5.816407zm0 0"/><path d="m174.511719 66.554688-5.039063-2.910157v5.820313zm0 0"/><path d="m164.433594 72.371094-5.035156-2.90625v5.816406zm0 0"/><path d="m139.242188 86.917969-5.035157-2.910157v5.816407zm0 0"/><path d="m124.128906 95.644531-5.039062-2.910156v5.816406zm0 0"/><path d="m98.9375 110.1875-5.039062-2.910156v5.820312zm0 0"/><path d="m88.859375 116.003906-5.035156-2.90625v5.816406zm0 0"/><path d="m83.824219 118.914062-5.039063-2.910156v5.820313zm0 0"/><path d="m83.824219 124.730469-5.039063-2.90625v5.816406zm0 0"/><path d="m83.824219 130.550781-5.039063-2.910156v5.816406zm0 0"/><path d="m83.824219 136.367188-5.039063-2.910157v5.820313zm0 0"/><path d="m83.824219 142.183594-5.039063-2.90625v5.816406zm0 0"/><path d="m83.824219 153.820312-5.039063-2.910156v5.820313zm0 0"/><path d="m83.824219 159.636719-5.039063-2.90625v5.816406zm0 0"/><path d="m83.824219 165.457031-5.039063-2.910156v5.816406zm0 0"/><path d="m83.824219 194.542969-5.039063-2.90625v5.816406zm0 0"/><path d="m83.824219 200.363281-5.039063-2.910156v5.816406zm0 0"/><path d="m83.824219 206.179688-5.039063-2.910157v5.820313zm0 0"/><path d="m83.824219 217.816406-5.039063-2.910156v5.816406zm0 0"/><path d="m83.824219 223.632812-5.039063-2.910156v5.820313zm0 0"/><path d="m83.824219 229.449219-5.039063-2.90625v5.816406zm0 0"/><path d="m83.824219 235.269531-5.039063-2.910156v5.816406zm0 0"/><path d="m83.824219 241.085938-5.039063-2.910157v5.820313zm0 0"/><path d="m88.859375 243.996094-5.035156-2.910156v5.816406zm0 0"/><path d="m98.9375 249.8125-5.039062-2.910156v5.820312zm0 0"/><path d="m124.128906 264.355469-5.039062-2.90625v5.816406zm0 0"/><path d="m139.242188 273.082031-5.035157-2.90625v5.816407zm0 0"/><path d="m164.433594 287.628906-5.035156-2.910156v5.816406zm0 0"/><path d="m174.511719 293.445312-5.039063-2.910156v5.820313zm0 0"/><path d="m179.550781 296.355469-5.039062-2.910157v5.816407zm0 0"/><path d="m189.625 296.355469-5.035156-2.910157v5.816407zm0 0"/><path d="m194.664062 293.445312-5.039062-2.910156v5.820313zm0 0"/><path d="m199.703125 290.535156-5.039063-2.90625v5.816406zm0 0"/><path d="m209.78125 284.71875-5.039062-2.910156v5.820312zm0 0"/><path d="m214.816406 281.808594-5.035156-2.90625v5.816406zm0 0"/><path d="m224.894531 275.992188-5.039062-2.910157v5.820313zm0 0"/><path d="m245.046875 264.355469-5.039063-2.90625v5.816406zm0 0"/><path d="m255.125 258.539062-5.039062-2.910156v5.820313zm0 0"/><path d="m260.164062 255.628906-5.039062-2.90625v5.816406zm0 0"/><path d="m270.238281 249.8125-5.039062-2.910156v5.820312zm0 0"/><path d="m275.277344 246.902344-5.039063-2.90625v5.816406zm0 0"/><path d="m280.316406 243.996094-5.039062-2.910156v5.816406zm0 0"/><path d="m295.429688 235.269531-5.039063-2.910156v5.816406zm0 0"/><path d="m295.429688 229.449219-5.039063-2.90625v5.816406zm0 0"/><path d="m295.429688 223.632812-5.039063-2.910156v5.820313zm0 0"/><path d="m295.429688 217.816406-5.039063-2.910156v5.816406zm0 0"/><path d="m295.429688 206.179688-5.039063-2.910157v5.820313zm0 0"/><path d="m295.429688 194.542969-5.039063-2.90625v5.816406zm0 0"/><path d="m295.429688 165.457031-5.039063-2.910156v5.816406zm0 0"/><path d="m295.429688 153.820312-5.039063-2.910156v5.820313zm0 0"/><path d="m295.429688 142.183594-5.039063-2.90625v5.816406zm0 0"/><path d="m295.429688 136.367188-5.039063-2.910157v5.820313zm0 0"/><path d="m295.429688 130.550781-5.039063-2.910156v5.816406zm0 0"/><path d="m295.429688 124.730469-5.039063-2.90625v5.816406zm0 0"/><path d="m285.355469 113.097656-5.039063-2.910156v5.816406zm0 0"/><path d="m280.316406 110.1875-5.039062-2.910156v5.820312zm0 0"/><path d="m275.277344 107.277344-5.039063-2.90625v5.816406zm0 0"/><path d="m265.199219 101.460938-5.035157-2.910157v5.820313zm0 0"/><path d="m260.164062 98.550781-5.039062-2.90625v5.816407zm0 0"/><path d="m250.085938 92.734375-5.039063-2.910156v5.820312zm0 0"/><path d="m224.894531 78.191406-5.039062-2.910156v5.816406zm0 0"/><path d="m214.816406 72.371094-5.035156-2.90625v5.816406zm0 0"/><path d="m209.78125 69.464844-5.039062-2.910156v5.816406zm0 0"/><path d="m199.703125 63.644531-5.039063-2.90625v5.816407zm0 0"/><path d="m194.664062 60.738281-5.039062-2.910156v5.816406zm0 0"/><path d="m189.625 57.828125-5.035156-2.910156v5.820312zm0 0"/><path d="m169.472656 63.644531-5.039062-2.90625v5.816407zm0 0"/><path d="m159.398438 69.464844-5.039063-2.910156v5.816406zm0 0"/><path d="m98.9375 104.371094-5.039062-2.910156v5.816406zm0 0"/><path d="m88.859375 110.1875-5.035156-2.910156v5.820312zm0 0"/><path d="m78.785156 127.640625-5.039062-2.910156v5.820312zm0 0"/><path d="m78.785156 133.457031-5.039062-2.90625v5.816407zm0 0"/><path d="m78.785156 139.277344-5.039062-2.910156v5.816406zm0 0"/><path d="m78.785156 150.910156-5.039062-2.90625v5.816406zm0 0"/><path d="m78.785156 156.730469-5.039062-2.910157v5.816407zm0 0"/><path d="m78.785156 168.363281-5.039062-2.90625v5.816407zm0 0"/><path d="m78.785156 191.636719-5.039062-2.910157v5.816407zm0 0"/><path d="m78.785156 203.269531-5.039062-2.90625v5.816407zm0 0"/><path d="m78.785156 209.089844-5.039062-2.910156v5.816406zm0 0"/><path d="m78.785156 220.722656-5.039062-2.90625v5.816406zm0 0"/><path d="m78.785156 226.542969-5.039062-2.910157v5.816407zm0 0"/><path d="m78.785156 232.359375-5.039062-2.910156v5.820312zm0 0"/><path d="m88.859375 249.8125-5.035156-2.910156v5.820312zm0 0"/><path d="m98.9375 255.628906-5.039062-2.90625v5.816406zm0 0"/><path d="m159.398438 290.535156-5.039063-2.90625v5.816406zm0 0"/><path d="m169.472656 296.355469-5.039062-2.910157v5.816407zm0 0"/><path d="m189.625 302.171875-5.035156-2.910156v5.820312zm0 0"/><path d="m194.664062 299.261719-5.039062-2.90625v5.816406zm0 0"/><path d="m199.703125 296.355469-5.039063-2.910157v5.816407zm0 0"/><path d="m209.78125 290.535156-5.039062-2.90625v5.816406zm0 0"/><path d="m214.816406 287.628906-5.035156-2.910156v5.816406zm0 0"/><path d="m224.894531 281.808594-5.039062-2.90625v5.816406zm0 0"/><path d="m250.085938 267.265625-5.039063-2.910156v5.820312zm0 0"/><path d="m260.164062 261.449219-5.039062-2.910157v5.816407zm0 0"/><path d="m265.199219 258.539062-5.035157-2.910156v5.820313zm0 0"/><path d="m275.277344 252.722656-5.039063-2.910156v5.816406zm0 0"/><path d="m280.316406 249.8125-5.039062-2.910156v5.820312zm0 0"/><path d="m285.355469 246.902344-5.039063-2.90625v5.816406zm0 0"/><path d="m285.355469 107.277344-5.039063-2.90625v5.816406zm0 0"/><path d="m280.316406 104.371094-5.039062-2.910156v5.816406zm0 0"/><path d="m275.277344 101.460938-5.039063-2.910157v5.820313zm0 0"/><path d="m270.238281 98.550781-5.039062-2.90625v5.816407zm0 0"/><path d="m265.199219 95.644531-5.035157-2.910156v5.816406zm0 0"/><path d="m260.164062 92.734375-5.039062-2.910156v5.820312zm0 0"/><path d="m219.855469 69.464844-5.039063-2.910156v5.816406zm0 0"/><path d="m214.816406 66.554688-5.035156-2.910157v5.820313zm0 0"/><path d="m209.78125 63.644531-5.039062-2.90625v5.816407zm0 0"/><path d="m204.742188 60.738281-5.039063-2.910156v5.816406zm0 0"/><path d="m199.703125 57.828125-5.039063-2.910156v5.820312zm0 0"/><path d="m194.664062 54.917969-5.039062-2.90625v5.816406zm0 0"/><path d="m174.511719 54.917969-5.039063-2.90625v5.816406zm0 0"/><path d="m169.472656 57.828125-5.039062-2.910156v5.820312zm0 0"/><path d="m164.433594 60.738281-5.035156-2.910156v5.816406zm0 0"/><path d="m159.398438 63.644531-5.039063-2.90625v5.816407zm0 0"/><path d="m149.320312 69.464844-5.039062-2.910156v5.816406zm0 0"/><path d="m139.242188 75.28125-5.035157-2.910156v5.820312zm0 0"/><path d="m114.050781 89.824219-5.035156-2.90625v5.816406zm0 0"/><path d="m103.976562 95.644531-5.039062-2.910156v5.816406zm0 0"/><path d="m93.898438 101.460938-5.039063-2.910157v5.820313zm0 0"/><path d="m88.859375 104.371094-5.035156-2.910156v5.816406zm0 0"/><path d="m83.824219 107.277344-5.039063-2.90625v5.816406zm0 0"/><path d="m78.785156 110.1875-5.039062-2.910156v5.820312zm0 0"/><path d="m73.746094 124.730469-5.039063-2.90625v5.816406zm0 0"/><path d="m73.746094 130.550781-5.039063-2.910156v5.816406zm0 0"/><path d="m73.746094 136.367188-5.039063-2.910157v5.820313zm0 0"/><path d="m73.746094 148.003906-5.039063-2.910156v5.816406zm0 0"/><path d="m73.746094 153.820312-5.039063-2.910156v5.820313zm0 0"/><path d="m73.746094 165.457031-5.039063-2.910156v5.816406zm0 0"/><path d="m73.746094 194.542969-5.039063-2.90625v5.816406zm0 0"/><path d="m73.746094 206.179688-5.039063-2.910157v5.820313zm0 0"/><path d="m73.746094 211.996094-5.039063-2.90625v5.816406zm0 0"/><path d="m73.746094 223.632812-5.039063-2.910156v5.820313zm0 0"/><path d="m73.746094 229.449219-5.039063-2.90625v5.816406zm0 0"/><path d="m73.746094 235.269531-5.039063-2.910156v5.816406zm0 0"/><path d="m78.785156 249.8125-5.039062-2.910156v5.820312zm0 0"/><path d="m83.824219 252.722656-5.039063-2.910156v5.816406zm0 0"/><path d="m88.859375 255.628906-5.035156-2.90625v5.816406zm0 0"/><path d="m93.898438 258.539062-5.039063-2.910156v5.820313zm0 0"/><path d="m103.976562 264.355469-5.039062-2.90625v5.816406zm0 0"/><path d="m114.050781 270.175781-5.035156-2.910156v5.816406zm0 0"/><path d="m139.242188 284.71875-5.035157-2.910156v5.820312zm0 0"/><path d="m149.320312 290.535156-5.039062-2.90625v5.816406zm0 0"/><path d="m159.398438 296.355469-5.039063-2.910157v5.816407zm0 0"/><path d="m164.433594 299.261719-5.035156-2.90625v5.816406zm0 0"/><path d="m169.472656 302.171875-5.039062-2.910156v5.820312zm0 0"/><path d="m174.511719 305.082031-5.039063-2.910156v5.816406zm0 0"/><path d="m194.664062 305.082031-5.039062-2.910156v5.816406zm0 0"/><path d="m199.703125 302.171875-5.039063-2.910156v5.820312zm0 0"/><path d="m204.742188 299.261719-5.039063-2.90625v5.816406zm0 0"/><path d="m209.78125 296.355469-5.039062-2.910157v5.816407zm0 0"/><path d="m214.816406 293.445312-5.035156-2.910156v5.820313zm0 0"/><path d="m219.855469 290.535156-5.039063-2.90625v5.816406zm0 0"/><path d="m260.164062 267.265625-5.039062-2.910156v5.820312zm0 0"/><path d="m265.199219 264.355469-5.035157-2.90625v5.816406zm0 0"/><path d="m270.238281 261.449219-5.039062-2.910157v5.816407zm0 0"/><path d="m275.277344 258.539062-5.039063-2.910156v5.820313zm0 0"/><path d="m280.316406 255.628906-5.039062-2.90625v5.816406zm0 0"/><path d="m285.355469 252.722656-5.039063-2.910156v5.816406zm0 0"/><path d="m305.507812 241.085938-5.039062-2.910157v5.820313zm0 0"/><path d="m305.507812 235.269531-5.039062-2.910156v5.816406zm0 0"/><path d="m305.507812 229.449219-5.039062-2.90625v5.816406zm0 0"/><path d="m305.507812 223.632812-5.039062-2.910156v5.820313zm0 0"/><path d="m305.507812 217.816406-5.039062-2.910156v5.816406zm0 0"/><path d="m305.507812 211.996094-5.039062-2.90625v5.816406zm0 0"/><path d="m305.507812 200.363281-5.039062-2.910156v5.816406zm0 0"/><path d="m305.507812 159.636719-5.039062-2.90625v5.816406zm0 0"/><path d="m305.507812 148.003906-5.039062-2.910156v5.816406zm0 0"/><path d="m305.507812 142.183594-5.039062-2.90625v5.816406zm0 0"/><path d="m305.507812 136.367188-5.039062-2.910157v5.820313zm0 0"/><path d="m305.507812 130.550781-5.039062-2.910156v5.816406zm0 0"/><path d="m305.507812 124.730469-5.039062-2.90625v5.816406zm0 0"/><path d="m305.507812 118.914062-5.039062-2.910156v5.820313zm0 0"/><path d="m275.277344 95.644531-5.039063-2.910156v5.816406zm0 0"/><path d="m209.78125 57.828125-5.039062-2.910156v5.820312zm0 0"/><path d="m68.707031 127.640625-5.039062-2.910156v5.820312zm0 0"/><path d="m68.707031 133.457031-5.039062-2.90625v5.816407zm0 0"/><path d="m68.707031 139.277344-5.039062-2.910156v5.816406zm0 0"/><path d="m68.707031 145.09375-5.039062-2.910156v5.820312zm0 0"/><path d="m68.707031 150.910156-5.039062-2.90625v5.816406zm0 0"/><path d="m68.707031 156.730469-5.039062-2.910157v5.816407zm0 0"/><path d="m68.707031 203.269531-5.039062-2.90625v5.816407zm0 0"/><path d="m68.707031 209.089844-5.039062-2.910156v5.816406zm0 0"/><path d="m68.707031 214.90625-5.039062-2.910156v5.820312zm0 0"/><path d="m68.707031 220.722656-5.039062-2.90625v5.816406zm0 0"/><path d="m68.707031 226.542969-5.039062-2.910157v5.816407zm0 0"/><path d="m68.707031 232.359375-5.039062-2.910156v5.820312zm0 0"/><path d="m209.78125 302.171875-5.039062-2.910156v5.820312zm0 0"/><path d="m275.277344 264.355469-5.039063-2.90625v5.816406zm0 0"/><path d="m310.546875 249.8125-5.039063-2.910156v5.820312zm0 0"/><path d="m310.546875 203.269531-5.039063-2.90625v5.816407zm0 0"/><path d="m310.546875 156.730469-5.039063-2.910157v5.816407zm0 0"/><path d="m310.546875 110.1875-5.039063-2.910156v5.820312zm0 0"/><path d="m265.199219 84.007812-5.035157-2.910156v5.820313zm0 0"/><path d="m224.894531 60.738281-5.039062-2.910156v5.816406zm0 0"/><path d="m174.511719 43.285156-5.039063-2.910156v5.816406zm0 0"/><path d="m169.472656 46.191406-5.039062-2.90625v5.816406zm0 0"/><path d="m164.433594 49.101562-5.035156-2.910156v5.820313zm0 0"/><path d="m159.398438 52.011719-5.039063-2.910157v5.816407zm0 0"/><path d="m154.359375 54.917969-5.039063-2.90625v5.816406zm0 0"/><path d="m149.320312 57.828125-5.039062-2.910156v5.820312zm0 0"/><path d="m139.242188 63.644531-5.035157-2.90625v5.816407zm0 0"/><path d="m103.976562 84.007812-5.039062-2.910156v5.820313zm0 0"/><path d="m93.898438 89.824219-5.039063-2.90625v5.816406zm0 0"/><path d="m88.859375 92.734375-5.035156-2.910156v5.820312zm0 0"/><path d="m83.824219 95.644531-5.039063-2.910156v5.816406zm0 0"/><path d="m78.785156 98.550781-5.039062-2.90625v5.816407zm0 0"/><path d="m73.746094 101.460938-5.039063-2.910157v5.820313zm0 0"/><path d="m68.707031 104.371094-5.039062-2.910156v5.816406zm0 0"/><path d="m63.667969 142.183594-5.035157-2.90625v5.816406zm0 0"/><path d="m63.667969 217.816406-5.035157-2.910156v5.816406zm0 0"/><path d="m68.707031 255.628906-5.039062-2.90625v5.816406zm0 0"/><path d="m73.746094 258.539062-5.039063-2.910156v5.820313zm0 0"/><path d="m78.785156 261.449219-5.039062-2.910157v5.816407zm0 0"/><path d="m83.824219 264.355469-5.039063-2.90625v5.816406zm0 0"/><path d="m88.859375 267.265625-5.035156-2.910156v5.820312zm0 0"/><path d="m93.898438 270.175781-5.039063-2.910156v5.816406zm0 0"/><path d="m103.976562 275.992188-5.039062-2.910157v5.820313zm0 0"/><path d="m139.242188 296.355469-5.035157-2.910157v5.816407zm0 0"/><path d="m149.320312 302.171875-5.039062-2.910156v5.820312zm0 0"/><path d="m154.359375 305.082031-5.039063-2.910156v5.816406zm0 0"/><path d="m159.398438 307.988281-5.039063-2.90625v5.816407zm0 0"/><path d="m164.433594 310.898438-5.035156-2.910157v5.820313zm0 0"/><path d="m169.472656 313.808594-5.039062-2.910156v5.816406zm0 0"/><path d="m174.511719 316.714844-5.039063-2.90625v5.816406zm0 0"/><path d="m224.894531 299.261719-5.039062-2.90625v5.816406zm0 0"/><path d="m265.199219 275.992188-5.035157-2.910157v5.820313zm0 0"/><path d="m179.550781 34.558594-5.039062-2.910156v5.816406zm0 0"/><path d="m139.242188 57.828125-5.035157-2.910156v5.820312zm0 0"/><path d="m98.9375 81.097656-5.039062-2.90625v5.816406zm0 0"/><path d="m58.632812 104.371094-5.039062-2.910156v5.816406zm0 0"/><path d="m58.632812 156.730469-5.039062-2.910157v5.816407zm0 0"/><path d="m58.632812 203.269531-5.039062-2.90625v5.816407zm0 0"/><path d="m58.632812 255.628906-5.039062-2.90625v5.816406zm0 0"/><path d="m98.9375 278.902344-5.039062-2.910156v5.816406zm0 0"/><path d="m139.242188 302.171875-5.035157-2.910156v5.820312zm0 0"/><path d="m179.550781 325.441406-5.039062-2.90625v5.816406zm0 0"/></g></svg>