<svg height="360pt" viewBox="0 0 360 360" width="360pt" xmlns="http://www.w3.org/2000/svg"><path d="m0 0h360v360h-360z" fill="#800080"/><g fill="#fff"><path d="m170.011719 183.460938 5.992187-3.460938v6.921875zm0 0"/><path d="m181.996094 169.617188 5.996094-3.460938v6.921875zm0 0"/><path d="m170.011719 169.617188 5.992187-3.460938v6.921875zm0 0"/><path d="m164.015625 180 5.996094-3.460938v6.921876zm0 0"/><path d="m176.003906 193.84375 5.992188-3.460938v6.917969zm0 0"/><path d="m181.996094 190.382812 5.996094-3.460937v6.921875zm0 0"/><path d="m193.984375 183.460938 5.996094-3.460938v6.921875zm0 0"/><path d="m187.992188 166.15625 5.992187-3.457031v6.917969zm0 0"/><path d="m170.011719 162.699219 5.992187-3.460938v6.917969zm0 0"/><path d="m164.015625 166.15625 5.996094-3.457031v6.917969zm0 0"/><path d="m158.023438 169.617188 5.992187-3.460938v6.921875zm0 0"/><path d="m158.023438 176.539062 5.992187-3.460937v6.921875zm0 0"/><path d="m170.011719 197.300781 5.992187-3.457031v6.917969zm0 0"/><path d="m199.980469 193.84375 5.992187-3.460938v6.917969zm0 0"/><path d="m176.003906 152.316406 5.992188-3.460937v6.921875zm0 0"/><path d="m170.011719 155.777344 5.992187-3.460938v6.921875zm0 0"/><path d="m152.027344 166.15625 5.996094-3.457031v6.917969zm0 0"/><path d="m187.992188 200.761719 5.992187-3.460938v6.921875zm0 0"/><path d="m193.984375 197.300781 5.996094-3.457031v6.917969zm0 0"/><path d="m205.972656 197.300781 5.996094-3.457031v6.917969zm0 0"/><path d="m205.972656 190.382812 5.996094-3.460937v6.921875zm0 0"/><path d="m205.972656 183.460938 5.996094-3.460938v6.921875zm0 0"/><path d="m205.972656 176.539062 5.996094-3.460937v6.921875zm0 0"/><path d="m199.980469 159.238281 5.992187-3.460937v6.921875zm0 0"/><path d="m193.984375 155.777344 5.996094-3.460938v6.921875zm0 0"/><path d="m181.996094 148.855469 5.996094-3.460938v6.921875zm0 0"/><path d="m170.011719 148.855469 5.992187-3.460938v6.921875zm0 0"/><path d="m152.027344 159.238281 5.996094-3.460937v6.921875zm0 0"/><path d="m146.035156 169.617188 5.992188-3.460938v6.921875zm0 0"/><path d="m146.035156 176.539062 5.992188-3.460937v6.921875zm0 0"/><path d="m181.996094 211.144531 5.996094-3.460937v6.921875zm0 0"/><path d="m187.992188 207.683594 5.992187-3.460938v6.921875zm0 0"/><path d="m199.980469 200.761719 5.992187-3.460938v6.921875zm0 0"/><path d="m211.96875 186.921875 5.992188-3.460937v6.921874zm0 0"/><path d="m211.96875 180 5.992188-3.460938v6.921876zm0 0"/><path d="m211.96875 166.15625 5.992188-3.457031v6.917969zm0 0"/><path d="m187.992188 145.394531 5.992187-3.460937v6.921875zm0 0"/><path d="m181.996094 141.933594 5.996094-3.460938v6.921875zm0 0"/><path d="m176.003906 138.472656 5.992188-3.460937v6.921875zm0 0"/><path d="m170.011719 141.933594 5.992187-3.460938v6.921875zm0 0"/><path d="m158.023438 148.855469 5.992187-3.460938v6.921875zm0 0"/><path d="m146.035156 155.777344 5.992188-3.460938v6.921875zm0 0"/><path d="m140.042969 159.238281 5.992187-3.460937v6.921875zm0 0"/><path d="m140.042969 166.15625 5.992187-3.457031v6.917969zm0 0"/><path d="m140.042969 173.078125 5.992187-3.460937v6.921874zm0 0"/><path d="m140.042969 180 5.992187-3.460938v6.921876zm0 0"/><path d="m140.042969 186.921875 5.992187-3.460937v6.921874zm0 0"/><path d="m181.996094 218.066406 5.996094-3.460937v6.921875zm0 0"/><path d="m199.980469 207.683594 5.992187-3.460938v6.921875zm0 0"/><path d="m205.972656 204.222656 5.996094-3.460937v6.921875zm0 0"/><path d="m217.960938 204.222656 5.992187-3.460937v6.921875zm0 0"/><path d="m217.960938 190.382812 5.992187-3.460937v6.921875zm0 0"/><path d="m211.96875 152.316406 5.992188-3.460937v6.921875zm0 0"/><path d="m199.980469 145.394531 5.992187-3.460937v6.921875zm0 0"/><path d="m193.984375 141.933594 5.996094-3.460938v6.921875zm0 0"/><path d="m187.992188 138.472656 5.992187-3.460937v6.921875zm0 0"/><path d="m134.046875 155.777344 5.996094-3.460938v6.921875zm0 0"/><path d="m134.046875 176.539062 5.996094-3.460937v6.921875zm0 0"/><path d="m134.046875 183.460938 5.996094-3.460938v6.921875zm0 0"/><path d="m146.035156 211.144531 5.992188-3.460937v6.921875zm0 0"/><path d="m152.027344 214.605469 5.996094-3.460938v6.921875zm0 0"/><path d="m158.023438 218.066406 5.992187-3.460937v6.921875zm0 0"/><path d="m176.003906 228.449219 5.992188-3.460938v6.917969zm0 0"/><path d="m187.992188 221.527344 5.992187-3.460938v6.921875zm0 0"/><path d="m205.972656 211.144531 5.996094-3.460937v6.921875zm0 0"/><path d="m211.96875 207.683594 5.992188-3.460938v6.921875zm0 0"/><path d="m223.953125 207.683594 5.996094-3.460938v6.921875zm0 0"/><path d="m223.953125 200.761719 5.996094-3.460938v6.921875zm0 0"/><path d="m223.953125 173.078125 5.996094-3.460937v6.921874zm0 0"/><path d="m211.96875 145.394531 5.992188-3.460937v6.921875zm0 0"/><path d="m205.972656 141.933594 5.996094-3.460938v6.921875zm0 0"/><path d="m193.984375 135.011719 5.996094-3.460938v6.921875zm0 0"/><path d="m181.996094 128.09375 5.996094-3.460938v6.917969zm0 0"/><path d="m164.015625 131.550781 5.996094-3.457031v6.917969zm0 0"/><path d="m128.054688 173.078125 5.992187-3.460937v6.921874zm0 0"/><path d="m128.054688 186.921875 5.992187-3.460937v6.921874zm0 0"/><path d="m128.054688 200.761719 5.992187-3.460938v6.921875zm0 0"/><path d="m170.011719 231.90625 5.992187-3.457031v6.917969zm0 0"/><path d="m187.992188 228.449219 5.992187-3.460938v6.917969zm0 0"/><path d="m193.984375 224.988281 5.996094-3.460937v6.921875zm0 0"/><path d="m199.980469 221.527344 5.992187-3.460938v6.921875zm0 0"/><path d="m205.972656 218.066406 5.996094-3.460937v6.921875zm0 0"/><path d="m229.949219 197.300781 5.992187-3.457031v6.917969zm0 0"/><path d="m229.949219 155.777344 5.992187-3.460938v6.921875zm0 0"/><path d="m223.953125 145.394531 5.996094-3.460937v6.921875zm0 0"/><path d="m211.96875 138.472656 5.992188-3.460937v6.921875zm0 0"/><path d="m205.972656 135.011719 5.996094-3.460938v6.921875zm0 0"/><path d="m199.980469 131.550781 5.992187-3.457031v6.917969zm0 0"/><path d="m193.984375 128.09375 5.996094-3.460938v6.917969zm0 0"/><path d="m176.003906 117.710938 5.992188-3.460938v6.921875zm0 0"/><path d="m164.015625 124.632812 5.996094-3.460937v6.921875zm0 0"/><path d="m140.042969 138.472656 5.992187-3.460937v6.921875zm0 0"/><path d="m122.058594 176.539062 5.996094-3.460937v6.921875zm0 0"/><path d="m122.058594 190.382812 5.996094-3.460937v6.921875zm0 0"/><path d="m122.058594 197.300781 5.996094-3.457031v6.917969zm0 0"/><path d="m122.058594 211.144531 5.996094-3.460937v6.921875zm0 0"/><path d="m164.015625 235.367188 5.996094-3.460938v6.921875zm0 0"/><path d="m170.011719 238.828125 5.992187-3.460937v6.921874zm0 0"/><path d="m187.992188 235.367188 5.992187-3.460938v6.921875zm0 0"/><path d="m193.984375 231.90625 5.996094-3.457031v6.917969zm0 0"/><path d="m211.96875 221.527344 5.992188-3.460938v6.921875zm0 0"/><path d="m217.960938 218.066406 5.992187-3.460937v6.921875zm0 0"/><path d="m235.941406 207.683594 5.996094-3.460938v6.921875zm0 0"/><path d="m235.941406 180 5.996094-3.460938v6.921876zm0 0"/><path d="m235.941406 166.15625 5.996094-3.457031v6.917969zm0 0"/><path d="m235.941406 152.316406 5.996094-3.460937v6.921875zm0 0"/><path d="m229.949219 141.933594 5.992187-3.460938v6.921875zm0 0"/><path d="m187.992188 117.710938 5.992187-3.460938v6.921875zm0 0"/><path d="m181.996094 114.25 5.996094-3.460938v6.921876zm0 0"/><path d="m152.027344 124.632812 5.996094-3.460937v6.921875zm0 0"/><path d="m140.042969 131.550781 5.992187-3.457031v6.917969zm0 0"/><path d="m134.046875 135.011719 5.996094-3.460938v6.921875zm0 0"/><path d="m116.066406 145.394531 5.992188-3.460937v6.921875zm0 0"/><path d="m116.066406 159.238281 5.992188-3.460937v6.921875zm0 0"/><path d="m116.066406 173.078125 5.992188-3.460937v6.921874zm0 0"/><path d="m116.066406 180 5.992188-3.460938v6.921876zm0 0"/><path d="m116.066406 200.761719 5.992188-3.460938v6.921875zm0 0"/><path d="m116.066406 214.605469 5.992188-3.460938v6.921875zm0 0"/><path d="m128.054688 221.527344 5.992187-3.460938v6.921875zm0 0"/><path d="m146.035156 231.90625 5.992188-3.457031v6.917969zm0 0"/><path d="m152.027344 235.367188 5.996094-3.460938v6.921875zm0 0"/><path d="m158.023438 238.828125 5.992187-3.460937v6.921874zm0 0"/><path d="m176.003906 249.210938 5.992188-3.460938v6.921875zm0 0"/><path d="m223.953125 221.527344 5.996094-3.460938v6.921875zm0 0"/><path d="m229.949219 218.066406 5.992187-3.460937v6.921875zm0 0"/><path d="m241.9375 218.066406 5.992188-3.460937v6.921875zm0 0"/><path d="m241.9375 204.222656 5.992188-3.460937v6.921875zm0 0"/><path d="m241.9375 197.300781 5.992188-3.457031v6.917969zm0 0"/><path d="m241.9375 155.777344 5.992188-3.460938v6.921875zm0 0"/><path d="m241.9375 141.933594 5.992188-3.460938v6.921875zm0 0"/><path d="m223.953125 131.550781 5.996094-3.457031v6.917969zm0 0"/><path d="m217.960938 128.09375 5.992187-3.460938v6.917969zm0 0"/><path d="m211.96875 124.632812 5.992188-3.460937v6.921875zm0 0"/><path d="m164.015625 110.789062 5.996094-3.460937v6.921875zm0 0"/><path d="m122.058594 135.011719 5.996094-3.460938v6.921875zm0 0"/><path d="m110.070312 141.933594 5.996094-3.460938v6.921875zm0 0"/><path d="m110.070312 155.777344 5.996094-3.460938v6.921875zm0 0"/><path d="m110.070312 162.699219 5.996094-3.460938v6.917969zm0 0"/><path d="m110.070312 176.539062 5.996094-3.460937v6.921875zm0 0"/><path d="m110.070312 197.300781 5.996094-3.457031v6.917969zm0 0"/><path d="m110.070312 211.144531 5.996094-3.460937v6.921875zm0 0"/><path d="m116.066406 221.527344 5.992188-3.460938v6.921875zm0 0"/><path d="m134.046875 231.90625 5.996094-3.457031v6.917969zm0 0"/><path d="m164.015625 249.210938 5.996094-3.460938v6.921875zm0 0"/><path d="m181.996094 252.671875 5.996094-3.460937v6.921874zm0 0"/><path d="m199.980469 242.289062 5.992187-3.460937v6.921875zm0 0"/><path d="m217.960938 231.90625 5.992187-3.457031v6.917969zm0 0"/><path d="m247.929688 214.605469 5.992187-3.460938v6.921875zm0 0"/><path d="m247.929688 207.683594 5.992187-3.460938v6.921875zm0 0"/><path d="m247.929688 180 5.992187-3.460938v6.921876zm0 0"/><path d="m247.929688 173.078125 5.992187-3.460937v6.921874zm0 0"/><path d="m229.949219 128.09375 5.992187-3.460938v6.917969zm0 0"/><path d="m223.953125 124.632812 5.996094-3.460937v6.921875zm0 0"/><path d="m217.960938 121.171875 5.992187-3.460937v6.921874zm0 0"/><path d="m199.980469 110.789062 5.992187-3.460937v6.921875zm0 0"/><path d="m181.996094 100.40625 5.996094-3.457031v6.917969zm0 0"/><path d="m158.023438 107.328125 5.992187-3.460937v6.921874zm0 0"/><path d="m146.035156 114.25 5.992188-3.460938v6.921876zm0 0"/><path d="m134.046875 121.171875 5.996094-3.460937v6.921874zm0 0"/><path d="m104.078125 145.394531 5.992187-3.460937v6.921875zm0 0"/><path d="m104.078125 159.238281 5.992187-3.460937v6.921875zm0 0"/><path d="m104.078125 173.078125 5.992187-3.460937v6.921874zm0 0"/><path d="m104.078125 193.84375 5.992187-3.460938v6.917969zm0 0"/><path d="m104.078125 214.605469 5.992187-3.460938v6.921875zm0 0"/><path d="m110.070312 224.988281 5.996094-3.460937v6.921875zm0 0"/><path d="m116.066406 228.449219 5.992188-3.460938v6.917969zm0 0"/><path d="m187.992188 256.132812 5.992187-3.460937v6.921875zm0 0"/><path d="m199.980469 249.210938 5.992187-3.460938v6.921875zm0 0"/><path d="m223.953125 235.367188 5.996094-3.460938v6.921875zm0 0"/><path d="m241.9375 224.988281 5.992188-3.460937v6.921875zm0 0"/><path d="m253.921875 224.988281 5.996094-3.460937v6.921875zm0 0"/><path d="m253.921875 211.144531 5.996094-3.460937v6.921875zm0 0"/><path d="m253.921875 197.300781 5.996094-3.457031v6.917969zm0 0"/><path d="m235.941406 124.632812 5.996094-3.460937v6.921875zm0 0"/><path d="m229.949219 121.171875 5.992187-3.460937v6.921874zm0 0"/><path d="m217.960938 114.25 5.992187-3.460938v6.921876zm0 0"/><path d="m199.980469 103.867188 5.992187-3.460938v6.921875zm0 0"/><path d="m193.984375 100.40625 5.996094-3.457031v6.917969zm0 0"/><path d="m187.992188 96.949219 5.992187-3.460938v6.917969zm0 0"/><path d="m176.003906 90.027344 5.992188-3.460938v6.921875zm0 0"/><path d="m170.011719 93.488281 5.992187-3.460937v6.921875zm0 0"/><path d="m152.027344 103.867188 5.996094-3.460938v6.921875zm0 0"/><path d="m140.042969 110.789062 5.992187-3.460937v6.921875zm0 0"/><path d="m134.046875 114.25 5.996094-3.460938v6.921876zm0 0"/><path d="m110.070312 128.09375 5.996094-3.460938v6.917969zm0 0"/><path d="m98.085938 135.011719 5.992187-3.460938v6.921875zm0 0"/><path d="m98.085938 141.933594 5.992187-3.460938v6.921875zm0 0"/><path d="m98.085938 155.777344 5.992187-3.460938v6.921875zm0 0"/><path d="m98.085938 169.617188 5.992187-3.460938v6.921875zm0 0"/><path d="m98.085938 176.539062 5.992187-3.460937v6.921875zm0 0"/><path d="m98.085938 224.988281 5.992187-3.460937v6.921875zm0 0"/><path d="m116.066406 235.367188 5.992188-3.460938v6.921875zm0 0"/><path d="m128.054688 242.289062 5.992187-3.460937v6.921875zm0 0"/><path d="m205.972656 252.671875 5.996094-3.460937v6.921874zm0 0"/><path d="m223.953125 242.289062 5.996094-3.460937v6.921875zm0 0"/><path d="m235.941406 235.367188 5.996094-3.460938v6.921875zm0 0"/><path d="m259.917969 214.605469 5.992187-3.460938v6.921875zm0 0"/><path d="m259.917969 180 5.992187-3.460938v6.921876zm0 0"/><path d="m259.917969 166.15625 5.992187-3.457031v6.917969zm0 0"/><path d="m259.917969 159.238281 5.992187-3.460937v6.921875zm0 0"/><path d="m259.917969 145.394531 5.992187-3.460937v6.921875zm0 0"/><path d="m241.9375 121.171875 5.992188-3.460937v6.921874zm0 0"/><path d="m217.960938 107.328125 5.992187-3.460937v6.921874zm0 0"/><path d="m199.980469 96.949219 5.992187-3.460938v6.917969zm0 0"/><path d="m187.992188 90.027344 5.992187-3.460938v6.921875zm0 0"/><path d="m134.046875 107.328125 5.996094-3.460937v6.921874zm0 0"/><path d="m116.066406 117.710938 5.992188-3.460938v6.921875zm0 0"/><path d="m110.070312 121.171875 5.996094-3.460937v6.921874zm0 0"/><path d="m98.085938 128.09375 5.992187-3.460938v6.917969zm0 0"/><path d="m92.089844 159.238281 5.996094-3.460937v6.921875zm0 0"/><path d="m92.089844 166.15625 5.996094-3.457031v6.917969zm0 0"/><path d="m92.089844 186.921875 5.996094-3.460937v6.921874zm0 0"/><path d="m92.089844 200.761719 5.996094-3.460938v6.921875zm0 0"/><path d="m92.089844 221.527344 5.996094-3.460938v6.921875zm0 0"/><path d="m122.058594 245.75 5.996094-3.460938v6.921876zm0 0"/><path d="m128.054688 249.210938 5.992187-3.460938v6.921875zm0 0"/><path d="m205.972656 259.59375 5.996094-3.460938v6.917969zm0 0"/><path d="m217.960938 252.671875 5.992187-3.460937v6.921874zm0 0"/><path d="m223.953125 249.210938 5.996094-3.460938v6.921875zm0 0"/><path d="m247.929688 235.367188 5.992187-3.460938v6.921875zm0 0"/><path d="m265.910156 231.90625 5.996094-3.457031v6.917969zm0 0"/><path d="m265.910156 211.144531 5.996094-3.460937v6.921875zm0 0"/><path d="m265.910156 183.460938 5.996094-3.460938v6.921875zm0 0"/><path d="m265.910156 169.617188 5.996094-3.460938v6.921875zm0 0"/><path d="m265.910156 155.777344 5.996094-3.460938v6.921875zm0 0"/><path d="m265.910156 148.855469 5.996094-3.460938v6.921875zm0 0"/><path d="m241.9375 114.25 5.992188-3.460938v6.921876zm0 0"/><path d="m235.941406 110.789062 5.996094-3.460937v6.921875zm0 0"/><path d="m211.96875 96.949219 5.992188-3.460938v6.917969zm0 0"/><path d="m205.972656 93.488281 5.996094-3.460937v6.921875zm0 0"/><path d="m181.996094 79.644531 5.996094-3.460937v6.921875zm0 0"/><path d="m176.003906 76.183594 5.992188-3.460938v6.921875zm0 0"/><path d="m170.011719 79.644531 5.992187-3.460937v6.921875zm0 0"/><path d="m158.023438 86.566406 5.992187-3.460937v6.921875zm0 0"/><path d="m122.058594 107.328125 5.996094-3.460937v6.921874zm0 0"/><path d="m116.066406 110.789062 5.992188-3.460937v6.921875zm0 0"/><path d="m110.070312 114.25 5.996094-3.460938v6.921876zm0 0"/><path d="m86.097656 135.011719 5.992188-3.460938v6.921875zm0 0"/><path d="m86.097656 148.855469 5.992188-3.460938v6.921875zm0 0"/><path d="m86.097656 204.222656 5.992188-3.460937v6.921875zm0 0"/><path d="m86.097656 211.144531 5.992188-3.460937v6.921875zm0 0"/><path d="m140.042969 263.050781 5.992187-3.457031v6.917969zm0 0"/><path d="m259.917969 235.367188 5.992187-3.460938v6.921875zm0 0"/><path d="m271.90625 214.605469 5.992188-3.460938v6.921875zm0 0"/><path d="m271.90625 207.683594 5.992188-3.460938v6.921875zm0 0"/><path d="m241.9375 107.328125 5.992188-3.460937v6.921874zm0 0"/><path d="m229.949219 100.40625 5.992187-3.457031v6.917969zm0 0"/><path d="m122.058594 100.40625 5.996094-3.457031v6.917969zm0 0"/><path d="m110.070312 107.328125 5.996094-3.460937v6.921874zm0 0"/><path d="m80.101562 145.394531 5.996094-3.460937v6.921875zm0 0"/><path d="m80.101562 152.316406 5.996094-3.460937v6.921875zm0 0"/><path d="m80.101562 186.921875 5.996094-3.460937v6.921874zm0 0"/><path d="m80.101562 193.84375 5.996094-3.460938v6.917969zm0 0"/><path d="m80.101562 200.761719 5.996094-3.460938v6.921875zm0 0"/><path d="m229.949219 259.59375 5.992187-3.460938v6.917969zm0 0"/><path d="m235.941406 256.132812 5.996094-3.460937v6.921875zm0 0"/><path d="m277.898438 169.617188 5.996093-3.460938v6.921875zm0 0"/><path d="m277.898438 162.699219 5.996093-3.460938v6.917969zm0 0"/><path d="m277.898438 155.777344 5.996093-3.460938v6.921875zm0 0"/><path d="m277.898438 148.855469 5.996093-3.460938v6.921875zm0 0"/><path d="m211.96875 83.105469 5.992188-3.460938v6.921875zm0 0"/><path d="m205.972656 79.644531 5.996094-3.460937v6.921875zm0 0"/><path d="m193.984375 72.722656 5.996094-3.460937v6.921875zm0 0"/><path d="m187.992188 69.261719 5.992187-3.460938v6.921875zm0 0"/><path d="m122.058594 93.488281 5.996094-3.460937v6.921875zm0 0"/><path d="m74.109375 141.933594 5.992187-3.460938v6.921875zm0 0"/><path d="m74.109375 148.855469 5.992187-3.460938v6.921875zm0 0"/><path d="m74.109375 155.777344 5.992187-3.460938v6.921875zm0 0"/><path d="m74.109375 162.699219 5.992187-3.460938v6.917969zm0 0"/><path d="m74.109375 176.539062 5.992187-3.460937v6.921875zm0 0"/><path d="m74.109375 183.460938 5.992187-3.460938v6.921875zm0 0"/><path d="m74.109375 190.382812 5.992187-3.460937v6.921875zm0 0"/><path d="m229.949219 266.511719 5.992187-3.460938v6.921875zm0 0"/><path d="m235.941406 263.050781 5.996094-3.457031v6.917969zm0 0"/><path d="m241.9375 259.59375 5.992188-3.460938v6.917969zm0 0"/><path d="m259.917969 249.210938 5.992187-3.460938v6.921875zm0 0"/><path d="m283.894531 159.238281 5.992188-3.460937v6.921875zm0 0"/><path d="m283.894531 152.316406 5.992188-3.460937v6.921875zm0 0"/><path d="m247.929688 96.949219 5.992187-3.460938v6.917969zm0 0"/><path d="m229.949219 86.566406 5.992187-3.460937v6.921875zm0 0"/><path d="m110.070312 93.488281 5.996094-3.460937v6.921875zm0 0"/><path d="m68.117188 131.550781 5.992187-3.457031v6.917969zm0 0"/><path d="m68.117188 138.472656 5.992187-3.460937v6.921875zm0 0"/><path d="m68.117188 159.238281 5.992187-3.460937v6.921875zm0 0"/><path d="m68.117188 166.15625 5.992187-3.457031v6.917969zm0 0"/><path d="m68.117188 180 5.992187-3.460938v6.921876zm0 0"/><path d="m68.117188 186.921875 5.992187-3.460937v6.921874zm0 0"/><path d="m253.921875 259.59375 5.996094-3.460938v6.917969zm0 0"/><path d="m259.917969 256.132812 5.992187-3.460937v6.921875zm0 0"/><path d="m247.929688 90.027344 5.992187-3.460938v6.921875zm0 0"/><path d="m235.941406 83.105469 5.996094-3.460938v6.921875zm0 0"/><path d="m229.949219 79.644531 5.992187-3.460937v6.921875zm0 0"/><path d="m217.960938 72.722656 5.992187-3.460937v6.921875zm0 0"/><path d="m205.972656 65.800781 5.996094-3.457031v6.917969zm0 0"/><path d="m193.984375 58.882812 5.996094-3.460937v6.921875zm0 0"/><path d="m110.070312 86.566406 5.996094-3.460937v6.921875zm0 0"/><path d="m62.121094 176.539062 5.996094-3.460937v6.921875zm0 0"/><path d="m62.121094 197.300781 5.996094-3.457031v6.917969zm0 0"/><path d="m247.929688 83.105469 5.992187-3.460938v6.921875zm0 0"/><path d="m217.960938 65.800781 5.992187-3.457031v6.917969zm0 0"/><path d="m199.980469 55.421875 5.992187-3.460937v6.921874zm0 0"/><path d="m241.9375 72.722656 5.992188-3.460937v6.921875zm0 0"/><path d="m193.984375 183.460938-5.992187-3.460938v6.921875zm0 0"/><path d="m187.992188 173.078125-5.996094-3.460937v6.921874zm0 0"/><path d="m181.996094 190.382812-5.992188-3.460937v6.921875zm0 0"/><path d="m187.992188 186.921875-5.996094-3.460937v6.921874zm0 0"/><path d="m199.980469 186.921875-5.996094-3.460937v6.921874zm0 0"/><path d="m199.980469 180-5.996094-3.460938v6.921876zm0 0"/><path d="m193.984375 169.617188-5.992187-3.460938v6.921875zm0 0"/><path d="m187.992188 166.15625-5.996094-3.457031v6.917969zm0 0"/><path d="m181.996094 162.699219-5.992188-3.460938v6.917969zm0 0"/><path d="m170.011719 169.617188-5.996094-3.460938v6.921875zm0 0"/><path d="m176.003906 193.84375-5.992187-3.460938v6.917969zm0 0"/><path d="m187.992188 193.84375-5.996094-3.460938v6.917969zm0 0"/><path d="m193.984375 190.382812-5.992187-3.460937v6.921875zm0 0"/><path d="m199.980469 166.15625-5.996094-3.457031v6.917969zm0 0"/><path d="m193.984375 162.699219-5.992187-3.460938v6.917969zm0 0"/><path d="m187.992188 159.238281-5.996094-3.460937v6.921875zm0 0"/><path d="m164.015625 166.15625-5.992187-3.457031v6.917969zm0 0"/><path d="m164.015625 186.921875-5.992187-3.460937v6.921874zm0 0"/><path d="m164.015625 193.84375-5.992187-3.460938v6.917969zm0 0"/><path d="m170.011719 197.300781-5.996094-3.457031v6.917969zm0 0"/><path d="m193.984375 197.300781-5.992187-3.457031v6.917969zm0 0"/><path d="m211.96875 186.921875-5.996094-3.460937v6.921874zm0 0"/><path d="m211.96875 180-5.996094-3.460938v6.921876zm0 0"/><path d="m193.984375 155.777344-5.992187-3.460938v6.921875zm0 0"/><path d="m164.015625 159.238281-5.992187-3.460937v6.921875zm0 0"/><path d="m158.023438 183.460938-5.996094-3.460938v6.921875zm0 0"/><path d="m158.023438 190.382812-5.996094-3.460937v6.921875zm0 0"/><path d="m158.023438 197.300781-5.996094-3.457031v6.917969zm0 0"/><path d="m170.011719 204.222656-5.996094-3.460937v6.921875zm0 0"/><path d="m181.996094 211.144531-5.992188-3.460937v6.921875zm0 0"/><path d="m187.992188 207.683594-5.996094-3.460938v6.921875zm0 0"/><path d="m193.984375 204.222656-5.992187-3.460937v6.921875zm0 0"/><path d="m217.960938 183.460938-5.992188-3.460938v6.921875zm0 0"/><path d="m193.984375 148.855469-5.992187-3.460938v6.921875zm0 0"/><path d="m187.992188 145.394531-5.996094-3.460937v6.921875zm0 0"/><path d="m181.996094 141.933594-5.992188-3.460938v6.921875zm0 0"/><path d="m170.011719 148.855469-5.996094-3.460938v6.921875zm0 0"/><path d="m152.027344 173.078125-5.992188-3.460937v6.921874zm0 0"/><path d="m152.027344 180-5.992188-3.460938v6.921876zm0 0"/><path d="m152.027344 186.921875-5.992188-3.460937v6.921874zm0 0"/><path d="m158.023438 204.222656-5.996094-3.460937v6.921875zm0 0"/><path d="m170.011719 211.144531-5.996094-3.460937v6.921875zm0 0"/><path d="m176.003906 214.605469-5.992187-3.460938v6.921875zm0 0"/><path d="m187.992188 214.605469-5.996094-3.460938v6.921875zm0 0"/><path d="m193.984375 211.144531-5.992187-3.460937v6.921875zm0 0"/><path d="m223.953125 200.761719-5.992187-3.460938v6.921875zm0 0"/><path d="m199.980469 145.394531-5.996094-3.460937v6.921875zm0 0"/><path d="m181.996094 135.011719-5.992188-3.460938v6.921875zm0 0"/><path d="m176.003906 138.472656-5.992187-3.460937v6.921875zm0 0"/><path d="m152.027344 152.316406-5.992188-3.460937v6.921875zm0 0"/><path d="m146.035156 162.699219-5.992187-3.460938v6.917969zm0 0"/><path d="m146.035156 169.617188-5.992187-3.460938v6.921875zm0 0"/><path d="m146.035156 176.539062-5.992187-3.460937v6.921875zm0 0"/><path d="m146.035156 183.460938-5.992187-3.460938v6.921875zm0 0"/><path d="m146.035156 190.382812-5.992187-3.460937v6.921875zm0 0"/><path d="m152.027344 207.683594-5.992188-3.460938v6.921875zm0 0"/><path d="m164.015625 214.605469-5.992187-3.460938v6.921875zm0 0"/><path d="m170.011719 218.066406-5.996094-3.460937v6.921875zm0 0"/><path d="m176.003906 221.527344-5.992187-3.460938v6.921875zm0 0"/><path d="m193.984375 218.066406-5.992187-3.460937v6.921875zm0 0"/><path d="m211.96875 207.683594-5.996094-3.460938v6.921875zm0 0"/><path d="m217.960938 204.222656-5.992188-3.460937v6.921875zm0 0"/><path d="m229.949219 204.222656-5.996094-3.460937v6.921875zm0 0"/><path d="m229.949219 190.382812-5.996094-3.460937v6.921875zm0 0"/><path d="m181.996094 128.09375-5.992188-3.460938v6.917969zm0 0"/><path d="m158.023438 141.933594-5.996094-3.460938v6.921875zm0 0"/><path d="m152.027344 145.394531-5.992188-3.460937v6.921875zm0 0"/><path d="m146.035156 148.855469-5.992187-3.460938v6.921875zm0 0"/><path d="m140.042969 173.078125-5.996094-3.460937v6.921874zm0 0"/><path d="m140.042969 186.921875-5.996094-3.460937v6.921874zm0 0"/><path d="m146.035156 211.144531-5.992187-3.460937v6.921875zm0 0"/><path d="m164.015625 221.527344-5.992187-3.460938v6.921875zm0 0"/><path d="m170.011719 224.988281-5.996094-3.460937v6.921875zm0 0"/><path d="m199.980469 221.527344-5.996094-3.460938v6.921875zm0 0"/><path d="m217.960938 211.144531-5.992188-3.460937v6.921875zm0 0"/><path d="m223.953125 207.683594-5.992187-3.460938v6.921875zm0 0"/><path d="m235.941406 207.683594-5.992187-3.460938v6.921875zm0 0"/><path d="m235.941406 200.761719-5.992187-3.460938v6.921875zm0 0"/><path d="m235.941406 180-5.992187-3.460938v6.921876zm0 0"/><path d="m229.949219 148.855469-5.996094-3.460938v6.921875zm0 0"/><path d="m187.992188 124.632812-5.996094-3.460937v6.921875zm0 0"/><path d="m170.011719 128.09375-5.996094-3.460938v6.917969zm0 0"/><path d="m158.023438 135.011719-5.996094-3.460938v6.921875zm0 0"/><path d="m152.027344 138.472656-5.992188-3.460937v6.921875zm0 0"/><path d="m146.035156 141.933594-5.992187-3.460938v6.921875zm0 0"/><path d="m140.042969 145.394531-5.996094-3.460937v6.921875zm0 0"/><path d="m134.046875 148.855469-5.992187-3.460938v6.921875zm0 0"/><path d="m134.046875 162.699219-5.992187-3.460938v6.917969zm0 0"/><path d="m134.046875 169.617188-5.992187-3.460938v6.921875zm0 0"/><path d="m134.046875 204.222656-5.992187-3.460937v6.921875zm0 0"/><path d="m134.046875 211.144531-5.992187-3.460937v6.921875zm0 0"/><path d="m164.015625 228.449219-5.992187-3.460938v6.917969zm0 0"/><path d="m176.003906 235.367188-5.992187-3.460938v6.921875zm0 0"/><path d="m181.996094 238.828125-5.992188-3.460937v6.921874zm0 0"/><path d="m199.980469 228.449219-5.996094-3.460938v6.917969zm0 0"/><path d="m217.960938 218.066406-5.992188-3.460937v6.921875zm0 0"/><path d="m223.953125 214.605469-5.992187-3.460938v6.921875zm0 0"/><path d="m241.9375 197.300781-5.996094-3.457031v6.917969zm0 0"/><path d="m241.9375 183.460938-5.996094-3.460938v6.921875zm0 0"/><path d="m241.9375 169.617188-5.996094-3.460938v6.921875zm0 0"/><path d="m241.9375 162.699219-5.996094-3.460938v6.917969zm0 0"/><path d="m241.9375 155.777344-5.996094-3.460938v6.921875zm0 0"/><path d="m235.941406 145.394531-5.992187-3.460937v6.921875zm0 0"/><path d="m164.015625 124.632812-5.992187-3.460937v6.921875zm0 0"/><path d="m140.042969 138.472656-5.996094-3.460937v6.921875zm0 0"/><path d="m134.046875 141.933594-5.992187-3.460938v6.921875zm0 0"/><path d="m128.054688 145.394531-5.996094-3.460937v6.921875zm0 0"/><path d="m128.054688 159.238281-5.996094-3.460937v6.921875zm0 0"/><path d="m128.054688 173.078125-5.996094-3.460937v6.921874zm0 0"/><path d="m134.046875 218.066406-5.992187-3.460937v6.921875zm0 0"/><path d="m140.042969 221.527344-5.996094-3.460938v6.921875zm0 0"/><path d="m164.015625 235.367188-5.992187-3.460938v6.921875zm0 0"/><path d="m176.003906 242.289062-5.992187-3.460937v6.921875zm0 0"/><path d="m199.980469 235.367188-5.996094-3.460938v6.921875zm0 0"/><path d="m247.929688 159.238281-5.992188-3.460937v6.921875zm0 0"/><path d="m247.929688 145.394531-5.992188-3.460937v6.921875zm0 0"/><path d="m241.9375 141.933594-5.996094-3.460938v6.921875zm0 0"/><path d="m205.972656 121.171875-5.992187-3.460937v6.921874zm0 0"/><path d="m199.980469 117.710938-5.996094-3.460938v6.921875zm0 0"/><path d="m193.984375 114.25-5.992187-3.460938v6.921876zm0 0"/><path d="m187.992188 110.789062-5.996094-3.460937v6.921875zm0 0"/><path d="m176.003906 110.789062-5.992187-3.460937v6.921875zm0 0"/><path d="m170.011719 114.25-5.996094-3.460938v6.921876zm0 0"/><path d="m164.015625 117.710938-5.992187-3.460938v6.921875zm0 0"/><path d="m146.035156 128.09375-5.992187-3.460938v6.917969zm0 0"/><path d="m134.046875 135.011719-5.992187-3.460938v6.921875zm0 0"/><path d="m122.058594 155.777344-5.992188-3.460938v6.921875zm0 0"/><path d="m122.058594 169.617188-5.992188-3.460938v6.921875zm0 0"/><path d="m122.058594 183.460938-5.992188-3.460938v6.921875zm0 0"/><path d="m122.058594 197.300781-5.992188-3.457031v6.917969zm0 0"/><path d="m122.058594 218.066406-5.992188-3.460937v6.921875zm0 0"/><path d="m146.035156 231.90625-5.992187-3.457031v6.917969zm0 0"/><path d="m152.027344 235.367188-5.992188-3.460938v6.921875zm0 0"/><path d="m199.980469 242.289062-5.996094-3.460937v6.921875zm0 0"/><path d="m205.972656 238.828125-5.992187-3.460937v6.921874zm0 0"/><path d="m217.960938 231.90625-5.992188-3.457031v6.917969zm0 0"/><path d="m229.949219 224.988281-5.996094-3.460937v6.921875zm0 0"/><path d="m235.941406 221.527344-5.992187-3.460938v6.921875zm0 0"/><path d="m241.9375 218.066406-5.996094-3.460937v6.921875zm0 0"/><path d="m253.921875 190.382812-5.992187-3.460937v6.921875zm0 0"/><path d="m253.921875 183.460938-5.992187-3.460938v6.921875zm0 0"/><path d="m253.921875 162.699219-5.992187-3.460938v6.917969zm0 0"/><path d="m253.921875 155.777344-5.992187-3.460938v6.921875zm0 0"/><path d="m253.921875 148.855469-5.992187-3.460938v6.921875zm0 0"/><path d="m235.941406 131.550781-5.992187-3.457031v6.917969zm0 0"/><path d="m211.96875 117.710938-5.996094-3.460938v6.921875zm0 0"/><path d="m199.980469 110.789062-5.996094-3.460937v6.921875zm0 0"/><path d="m187.992188 103.867188-5.996094-3.460938v6.921875zm0 0"/><path d="m181.996094 100.40625-5.992188-3.457031v6.917969zm0 0"/><path d="m164.015625 110.789062-5.992187-3.460937v6.921875zm0 0"/><path d="m158.023438 114.25-5.996094-3.460938v6.921876zm0 0"/><path d="m152.027344 117.710938-5.992188-3.460938v6.921875zm0 0"/><path d="m146.035156 121.171875-5.992187-3.460937v6.921874zm0 0"/><path d="m140.042969 124.632812-5.996094-3.460937v6.921875zm0 0"/><path d="m134.046875 128.09375-5.992187-3.460938v6.917969zm0 0"/><path d="m122.058594 135.011719-5.992188-3.460938v6.921875zm0 0"/><path d="m116.066406 138.472656-5.996094-3.460937v6.921875zm0 0"/><path d="m116.066406 152.316406-5.996094-3.460937v6.921875zm0 0"/><path d="m116.066406 159.238281-5.996094-3.460937v6.921875zm0 0"/><path d="m116.066406 180-5.996094-3.460938v6.921876zm0 0"/><path d="m116.066406 221.527344-5.996094-3.460938v6.921875zm0 0"/><path d="m152.027344 242.289062-5.992188-3.460937v6.921875zm0 0"/><path d="m259.917969 221.527344-5.996094-3.460938v6.921875zm0 0"/><path d="m259.917969 200.761719-5.996094-3.460938v6.921875zm0 0"/><path d="m259.917969 193.84375-5.996094-3.460938v6.917969zm0 0"/><path d="m259.917969 180-5.996094-3.460938v6.921876zm0 0"/><path d="m259.917969 173.078125-5.996094-3.460937v6.921874zm0 0"/><path d="m259.917969 152.316406-5.996094-3.460937v6.921875zm0 0"/><path d="m259.917969 145.394531-5.996094-3.460937v6.921875zm0 0"/><path d="m259.917969 138.472656-5.996094-3.460937v6.921875zm0 0"/><path d="m253.921875 135.011719-5.992187-3.460938v6.921875zm0 0"/><path d="m229.949219 121.171875-5.996094-3.460937v6.921874zm0 0"/><path d="m223.953125 117.710938-5.992187-3.460938v6.921875zm0 0"/><path d="m211.96875 110.789062-5.996094-3.460937v6.921875zm0 0"/><path d="m193.984375 100.40625-5.992187-3.457031v6.917969zm0 0"/><path d="m181.996094 93.488281-5.992188-3.460937v6.921875zm0 0"/><path d="m164.015625 103.867188-5.992187-3.460938v6.921875zm0 0"/><path d="m152.027344 110.789062-5.992188-3.460937v6.921875zm0 0"/><path d="m146.035156 114.25-5.992187-3.460938v6.921876zm0 0"/><path d="m134.046875 121.171875-5.992187-3.460937v6.921874zm0 0"/><path d="m128.054688 124.632812-5.996094-3.460937v6.921875zm0 0"/><path d="m110.070312 141.933594-5.992187-3.460938v6.921875zm0 0"/><path d="m110.070312 176.539062-5.992187-3.460937v6.921875zm0 0"/><path d="m110.070312 190.382812-5.992187-3.460937v6.921875zm0 0"/><path d="m110.070312 224.988281-5.992187-3.460937v6.921875zm0 0"/><path d="m122.058594 231.90625-5.992188-3.457031v6.917969zm0 0"/><path d="m235.941406 235.367188-5.992187-3.460938v6.921875zm0 0"/><path d="m247.929688 228.449219-5.992188-3.460938v6.917969zm0 0"/><path d="m265.910156 204.222656-5.992187-3.460937v6.921875zm0 0"/><path d="m265.910156 176.539062-5.992187-3.460937v6.921875zm0 0"/><path d="m265.910156 169.617188-5.992187-3.460938v6.921875zm0 0"/><path d="m265.910156 162.699219-5.992187-3.460938v6.917969zm0 0"/><path d="m265.910156 135.011719-5.992187-3.460938v6.921875zm0 0"/><path d="m241.9375 121.171875-5.996094-3.460937v6.921874zm0 0"/><path d="m235.941406 117.710938-5.992187-3.460938v6.921875zm0 0"/><path d="m229.949219 114.25-5.996094-3.460938v6.921876zm0 0"/><path d="m217.960938 107.328125-5.992188-3.460937v6.921874zm0 0"/><path d="m211.96875 103.867188-5.996094-3.460938v6.921875zm0 0"/><path d="m170.011719 93.488281-5.996094-3.460937v6.921875zm0 0"/><path d="m146.035156 107.328125-5.992187-3.460937v6.921874zm0 0"/><path d="m134.046875 114.25-5.992187-3.460938v6.921876zm0 0"/><path d="m104.078125 131.550781-5.992187-3.457031v6.917969zm0 0"/><path d="m104.078125 152.316406-5.992187-3.460937v6.921875zm0 0"/><path d="m104.078125 159.238281-5.992187-3.460937v6.921875zm0 0"/><path d="m104.078125 166.15625-5.992187-3.457031v6.917969zm0 0"/><path d="m104.078125 180-5.992187-3.460938v6.921876zm0 0"/><path d="m140.042969 249.210938-5.996094-3.460938v6.921875zm0 0"/><path d="m211.96875 256.132812-5.996094-3.460937v6.921875zm0 0"/><path d="m217.960938 252.671875-5.992188-3.460937v6.921874zm0 0"/><path d="m235.941406 242.289062-5.992187-3.460937v6.921875zm0 0"/><path d="m241.9375 238.828125-5.996094-3.460937v6.921874zm0 0"/><path d="m253.921875 231.90625-5.992187-3.457031v6.917969zm0 0"/><path d="m259.917969 228.449219-5.996094-3.460938v6.917969zm0 0"/><path d="m271.90625 200.761719-5.996094-3.460938v6.921875zm0 0"/><path d="m271.90625 159.238281-5.996094-3.460937v6.921875zm0 0"/><path d="m271.90625 145.394531-5.996094-3.460937v6.921875zm0 0"/><path d="m265.910156 128.09375-5.992187-3.460938v6.917969zm0 0"/><path d="m235.941406 110.789062-5.992187-3.460937v6.921875zm0 0"/><path d="m229.949219 107.328125-5.996094-3.460937v6.921874zm0 0"/><path d="m217.960938 100.40625-5.992188-3.457031v6.917969zm0 0"/><path d="m205.972656 93.488281-5.992187-3.460937v6.921875zm0 0"/><path d="m187.992188 83.105469-5.996094-3.460938v6.921875zm0 0"/><path d="m181.996094 79.644531-5.992188-3.460937v6.921875zm0 0"/><path d="m164.015625 90.027344-5.992187-3.460938v6.921875zm0 0"/><path d="m134.046875 107.328125-5.992187-3.460937v6.921874zm0 0"/><path d="m98.085938 141.933594-5.996094-3.460938v6.921875zm0 0"/><path d="m98.085938 148.855469-5.996094-3.460938v6.921875zm0 0"/><path d="m98.085938 155.777344-5.996094-3.460938v6.921875zm0 0"/><path d="m98.085938 183.460938-5.996094-3.460938v6.921875zm0 0"/><path d="m98.085938 197.300781-5.996094-3.457031v6.917969zm0 0"/><path d="m211.96875 263.050781-5.996094-3.457031v6.917969zm0 0"/><path d="m223.953125 256.132812-5.992187-3.460937v6.921875zm0 0"/><path d="m229.949219 252.671875-5.996094-3.460937v6.921874zm0 0"/><path d="m235.941406 249.210938-5.992187-3.460938v6.921875zm0 0"/><path d="m265.910156 231.90625-5.992187-3.457031v6.917969zm0 0"/><path d="m277.898438 183.460938-5.992188-3.460938v6.921875zm0 0"/><path d="m277.898438 162.699219-5.992188-3.460938v6.917969zm0 0"/><path d="m277.898438 155.777344-5.992188-3.460938v6.921875zm0 0"/><path d="m253.921875 114.25-5.992187-3.460938v6.921876zm0 0"/><path d="m241.9375 107.328125-5.996094-3.460937v6.921874zm0 0"/><path d="m235.941406 103.867188-5.992187-3.460938v6.921875zm0 0"/><path d="m223.953125 96.949219-5.992187-3.460938v6.917969zm0 0"/><path d="m205.972656 86.566406-5.992187-3.460937v6.921875zm0 0"/><path d="m199.980469 83.105469-5.996094-3.460938v6.921875zm0 0"/><path d="m193.984375 79.644531-5.992187-3.460937v6.921875zm0 0"/><path d="m176.003906 76.183594-5.992187-3.460938v6.921875zm0 0"/><path d="m164.015625 83.105469-5.992187-3.460938v6.921875zm0 0"/><path d="m152.027344 90.027344-5.992188-3.460938v6.921875zm0 0"/><path d="m128.054688 103.867188-5.996094-3.460938v6.921875zm0 0"/><path d="m122.058594 107.328125-5.992188-3.460937v6.921874zm0 0"/><path d="m110.070312 114.25-5.992187-3.460938v6.921876zm0 0"/><path d="m104.078125 117.710938-5.992187-3.460938v6.921875zm0 0"/><path d="m92.089844 138.472656-5.992188-3.460937v6.921875zm0 0"/><path d="m92.089844 159.238281-5.992188-3.460937v6.921875zm0 0"/><path d="m92.089844 186.921875-5.992188-3.460937v6.921874zm0 0"/><path d="m92.089844 193.84375-5.992188-3.460938v6.917969zm0 0"/><path d="m235.941406 256.132812-5.992187-3.460937v6.921875zm0 0"/><path d="m265.910156 238.828125-5.992187-3.460937v6.921874zm0 0"/><path d="m283.894531 221.527344-5.996093-3.460938v6.921875zm0 0"/><path d="m283.894531 186.921875-5.996093-3.460937v6.921874zm0 0"/><path d="m283.894531 159.238281-5.996093-3.460937v6.921875zm0 0"/><path d="m241.9375 100.40625-5.996094-3.457031v6.917969zm0 0"/><path d="m235.941406 96.949219-5.992187-3.460938v6.917969zm0 0"/><path d="m205.972656 79.644531-5.992187-3.460937v6.921875zm0 0"/><path d="m199.980469 76.183594-5.996094-3.460938v6.921875zm0 0"/><path d="m193.984375 72.722656-5.992187-3.460937v6.921875zm0 0"/><path d="m181.996094 65.800781-5.992188-3.457031v6.917969zm0 0"/><path d="m134.046875 93.488281-5.992187-3.460937v6.921875zm0 0"/><path d="m116.066406 103.867188-5.996094-3.460938v6.921875zm0 0"/><path d="m86.097656 155.777344-5.996094-3.460938v6.921875zm0 0"/><path d="m86.097656 162.699219-5.996094-3.460938v6.917969zm0 0"/><path d="m86.097656 169.617188-5.996094-3.460938v6.921875zm0 0"/><path d="m86.097656 176.539062-5.996094-3.460937v6.921875zm0 0"/><path d="m86.097656 197.300781-5.996094-3.457031v6.917969zm0 0"/><path d="m229.949219 266.511719-5.996094-3.460938v6.921875zm0 0"/><path d="m235.941406 263.050781-5.992187-3.457031v6.917969zm0 0"/><path d="m253.921875 100.40625-5.992187-3.457031v6.917969zm0 0"/><path d="m235.941406 90.027344-5.992187-3.460938v6.921875zm0 0"/><path d="m229.949219 86.566406-5.996094-3.460937v6.921875zm0 0"/><path d="m223.953125 83.105469-5.992187-3.460938v6.921875zm0 0"/><path d="m211.96875 76.183594-5.996094-3.460938v6.921875zm0 0"/><path d="m205.972656 72.722656-5.992187-3.460937v6.921875zm0 0"/><path d="m199.980469 69.261719-5.996094-3.460938v6.921875zm0 0"/><path d="m122.058594 93.488281-5.992188-3.460937v6.921875zm0 0"/><path d="m80.101562 124.632812-5.992187-3.460937v6.921875zm0 0"/><path d="m80.101562 159.238281-5.992187-3.460937v6.921875zm0 0"/><path d="m80.101562 166.15625-5.992187-3.457031v6.917969zm0 0"/><path d="m80.101562 173.078125-5.992187-3.460937v6.921874zm0 0"/><path d="m80.101562 186.921875-5.992187-3.460937v6.921874zm0 0"/><path d="m235.941406 269.972656-5.992187-3.460937v6.921875zm0 0"/><path d="m265.910156 252.671875-5.992187-3.460937v6.921874zm0 0"/><path d="m271.90625 249.210938-5.996094-3.460938v6.921875zm0 0"/><path d="m116.066406 90.027344-5.996094-3.460938v6.921875zm0 0"/><path d="m74.109375 162.699219-5.992187-3.460938v6.917969zm0 0"/><path d="m74.109375 169.617188-5.992187-3.460938v6.921875zm0 0"/><path d="m74.109375 176.539062-5.992187-3.460937v6.921875zm0 0"/><path d="m265.910156 259.59375-5.992187-3.460938v6.917969zm0 0"/><path d="m235.941406 76.183594-5.992187-3.460938v6.921875zm0 0"/><path d="m229.949219 72.722656-5.996094-3.460937v6.921875zm0 0"/><path d="m211.96875 62.34375-5.996094-3.460938v6.917969zm0 0"/><path d="m68.117188 166.15625-5.996094-3.457031v6.917969zm0 0"/><path d="m68.117188 173.078125-5.996094-3.460937v6.921874zm0 0"/><path d="m253.921875 79.644531-5.992187-3.460937v6.921875zm0 0"/><path d="m247.929688 76.183594-5.992188-3.460938v6.921875zm0 0"/></g></svg>