<svg height="360pt" viewBox="0 0 360 360" width="360pt" xmlns="http://www.w3.org/2000/svg"><path d="m0 0h360v360h-360z" fill="#fff"/><g fill="#800080"><path d="m178.160156 176.816406 2.757813-1.59375v3.183594zm0 0"/><path d="m175.402344 178.40625 2.757812-1.589844v3.183594zm0 0"/><path d="m183.679688 183.183594 2.757812-1.589844v3.183594zm0 0"/><path d="m183.679688 176.816406 2.757812-1.59375v3.183594zm0 0"/><path d="m180.917969 175.222656 2.761719-1.59375v3.1875zm0 0"/><path d="m172.644531 180 2.757813-1.59375v3.1875zm0 0"/><path d="m180.917969 184.777344 2.761719-1.59375v3.1875zm0 0"/><path d="m186.4375 184.777344 2.757812-1.59375v3.1875zm0 0"/><path d="m186.4375 181.59375 2.757812-1.59375v3.183594zm0 0"/><path d="m186.4375 175.222656 2.757812-1.59375v3.1875zm0 0"/><path d="m183.679688 173.628906 2.757812-1.59375v3.1875zm0 0"/><path d="m180.917969 172.035156 2.761719-1.589844v3.183594zm0 0"/><path d="m178.160156 170.445312 2.757813-1.59375v3.183594zm0 0"/><path d="m169.886719 178.40625 2.757812-1.589844v3.183594zm0 0"/><path d="m169.886719 181.59375 2.757812-1.59375v3.183594zm0 0"/><path d="m175.402344 187.964844 2.757812-1.59375v3.183594zm0 0"/><path d="m178.160156 189.554688 2.757813-1.589844v3.183594zm0 0"/><path d="m183.679688 186.371094 2.757812-1.59375v3.1875zm0 0"/><path d="m189.195312 186.371094 2.757813-1.59375v3.1875zm0 0"/><path d="m189.195312 176.816406 2.757813-1.59375v3.183594zm0 0"/><path d="m189.195312 173.628906 2.757813-1.59375v3.1875zm0 0"/><path d="m180.917969 168.851562 2.761719-1.59375v3.1875zm0 0"/><path d="m175.402344 168.851562 2.757812-1.59375v3.1875zm0 0"/><path d="m172.644531 170.445312 2.757813-1.59375v3.183594zm0 0"/><path d="m167.125 173.628906 2.761719-1.59375v3.1875zm0 0"/><path d="m167.125 176.816406 2.761719-1.59375v3.183594zm0 0"/><path d="m167.125 183.183594 2.761719-1.589844v3.183594zm0 0"/><path d="m167.125 186.371094 2.761719-1.59375v3.1875zm0 0"/><path d="m169.886719 187.964844 2.757812-1.59375v3.183594zm0 0"/><path d="m175.402344 191.148438 2.757812-1.59375v3.1875zm0 0"/><path d="m180.917969 191.148438 2.761719-1.59375v3.1875zm0 0"/><path d="m183.679688 189.554688 2.757812-1.589844v3.183594zm0 0"/><path d="m255.402344 224.597656 2.761718-1.59375v3.183594zm0 0"/><path d="m255.402344 135.402344 2.761718-1.589844v3.183594zm0 0"/><path d="m100.917969 135.402344 2.757812-1.589844v3.183594zm0 0"/><path d="m100.917969 224.597656 2.757812-1.59375v3.183594zm0 0"/><path d="m258.164062 136.996094 2.757813-1.59375v3.1875zm0 0"/><path d="m255.402344 132.21875 2.761718-1.59375v3.1875zm0 0"/><path d="m180.917969 89.214844 2.761719-1.59375v3.1875zm0 0"/><path d="m178.160156 87.621094 2.757813-1.589844v3.183594zm0 0"/><path d="m175.402344 89.214844 2.757812-1.59375v3.1875zm0 0"/><path d="m98.160156 133.8125 2.757813-1.59375v3.183594zm0 0"/><path d="m98.160156 226.1875 2.757813-1.589844v3.183594zm0 0"/><path d="m100.917969 227.78125 2.757812-1.59375v3.1875zm0 0"/><path d="m175.402344 270.785156 2.757812-1.59375v3.1875zm0 0"/><path d="m178.160156 272.378906 2.757813-1.59375v3.183594zm0 0"/><path d="m180.917969 270.785156 2.761719-1.59375v3.1875zm0 0"/><path d="m255.402344 227.78125 2.761718-1.59375v3.1875zm0 0"/><path d="m260.921875 221.410156 2.757813-1.59375v3.1875zm0 0"/><path d="m258.164062 130.625 2.757813-1.59375v3.1875zm0 0"/><path d="m183.679688 87.621094 2.757812-1.589844v3.183594zm0 0"/><path d="m175.402344 86.03125 2.757812-1.59375v3.183594zm0 0"/><path d="m98.160156 130.625 2.757813-1.59375v3.1875zm0 0"/><path d="m95.402344 132.21875 2.757812-1.59375v3.1875zm0 0"/><path d="m95.402344 135.402344 2.757812-1.589844v3.183594zm0 0"/><path d="m95.402344 138.589844 2.757812-1.59375v3.1875zm0 0"/><path d="m95.402344 224.597656 2.757812-1.59375v3.183594zm0 0"/><path d="m95.402344 227.78125 2.757812-1.59375v3.1875zm0 0"/><path d="m172.644531 272.378906 2.757813-1.59375v3.183594zm0 0"/><path d="m180.917969 273.96875 2.761719-1.589844v3.183594zm0 0"/><path d="m258.164062 229.375 2.757813-1.59375v3.1875zm0 0"/><path d="m263.679688 229.375 2.757812-1.59375v3.1875zm0 0"/><path d="m263.679688 219.816406 2.757812-1.589844v3.183594zm0 0"/><path d="m263.679688 140.183594 2.757812-1.59375v3.183594zm0 0"/><path d="m263.679688 136.996094 2.757812-1.59375v3.1875zm0 0"/><path d="m260.921875 129.03125 2.757813-1.589844v3.183594zm0 0"/><path d="m258.164062 127.441406 2.757813-1.59375v3.183594zm0 0"/><path d="m255.402344 125.847656 2.761718-1.59375v3.1875zm0 0"/><path d="m183.679688 84.4375 2.757812-1.59375v3.1875zm0 0"/><path d="m180.917969 82.84375 2.761719-1.59375v3.1875zm0 0"/><path d="m169.886719 86.03125 2.757812-1.59375v3.183594zm0 0"/><path d="m100.917969 125.847656 2.757812-1.59375v3.1875zm0 0"/><path d="m92.640625 133.8125 2.761719-1.59375v3.183594zm0 0"/><path d="m92.640625 140.183594 2.761719-1.59375v3.183594zm0 0"/><path d="m92.640625 219.816406 2.761719-1.589844v3.183594zm0 0"/><path d="m92.640625 223.003906 2.761719-1.59375v3.1875zm0 0"/><path d="m92.640625 226.1875 2.761719-1.589844v3.183594zm0 0"/><path d="m98.160156 232.558594 2.757813-1.589844v3.183594zm0 0"/><path d="m178.160156 278.75 2.757813-1.59375v3.183594zm0 0"/><path d="m180.917969 277.15625 2.761719-1.59375v3.1875zm0 0"/><path d="m183.679688 275.5625 2.757812-1.59375v3.1875zm0 0"/><path d="m255.402344 234.152344 2.761718-1.59375v3.1875zm0 0"/><path d="m258.164062 232.558594 2.757813-1.589844v3.183594zm0 0"/><path d="m260.921875 230.96875 2.757813-1.59375v3.183594zm0 0"/><path d="m266.4375 227.78125 2.757812-1.59375v3.1875zm0 0"/><path d="m266.4375 221.410156 2.757812-1.59375v3.1875zm0 0"/><path d="m266.4375 138.589844 2.757812-1.59375v3.1875zm0 0"/><path d="m263.679688 127.441406 2.757812-1.59375v3.183594zm0 0"/><path d="m255.402344 122.664062 2.761718-1.59375v3.183594zm0 0"/><path d="m189.195312 84.4375 2.757813-1.59375v3.1875zm0 0"/><path d="m186.4375 82.84375 2.757812-1.59375v3.1875zm0 0"/><path d="m183.679688 81.25 2.757812-1.589844v3.183594zm0 0"/><path d="m167.125 84.4375 2.761719-1.59375v3.1875zm0 0"/><path d="m100.917969 122.664062 2.757812-1.59375v3.183594zm0 0"/><path d="m98.160156 124.253906 2.757813-1.589844v3.183594zm0 0"/><path d="m95.402344 125.847656 2.757812-1.59375v3.1875zm0 0"/><path d="m89.882812 138.589844 2.757813-1.59375v3.1875zm0 0"/><path d="m89.882812 221.410156 2.757813-1.59375v3.1875zm0 0"/><path d="m89.882812 227.78125 2.757813-1.59375v3.1875zm0 0"/><path d="m95.402344 234.152344 2.757812-1.59375v3.1875zm0 0"/><path d="m98.160156 235.746094 2.757813-1.59375v3.183594zm0 0"/><path d="m100.917969 237.335938 2.757812-1.589844v3.183594zm0 0"/><path d="m167.125 275.5625 2.761719-1.59375v3.1875zm0 0"/><path d="m175.402344 280.339844 2.757812-1.589844v3.183594zm0 0"/><path d="m183.679688 278.75 2.757812-1.59375v3.183594zm0 0"/><path d="m186.4375 277.15625 2.757812-1.59375v3.1875zm0 0"/><path d="m189.195312 275.5625 2.757813-1.59375v3.1875zm0 0"/><path d="m255.402344 237.335938 2.761718-1.589844v3.183594zm0 0"/><path d="m269.195312 226.1875 2.761719-1.589844v3.183594zm0 0"/><path d="m269.195312 223.003906 2.761719-1.59375v3.1875zm0 0"/><path d="m269.195312 219.816406 2.761719-1.589844v3.183594zm0 0"/><path d="m269.195312 140.183594 2.761719-1.59375v3.183594zm0 0"/><path d="m269.195312 133.8125 2.761719-1.59375v3.183594zm0 0"/><path d="m266.4375 125.847656 2.757812-1.59375v3.1875zm0 0"/><path d="m186.4375 79.660156 2.757812-1.59375v3.183594zm0 0"/><path d="m178.160156 74.878906 2.757813-1.589844v3.183594zm0 0"/><path d="m175.402344 76.472656 2.757812-1.59375v3.1875zm0 0"/><path d="m172.644531 78.066406 2.757813-1.59375v3.1875zm0 0"/><path d="m169.886719 79.660156 2.757812-1.59375v3.183594zm0 0"/><path d="m167.125 81.25 2.761719-1.589844v3.183594zm0 0"/><path d="m95.402344 122.664062 2.757812-1.59375v3.183594zm0 0"/><path d="m92.640625 124.253906 2.761719-1.589844v3.183594zm0 0"/><path d="m89.882812 125.847656 2.757813-1.59375v3.1875zm0 0"/><path d="m87.125 127.441406 2.757812-1.59375v3.183594zm0 0"/><path d="m87.125 136.996094 2.757812-1.59375v3.1875zm0 0"/><path d="m87.125 140.183594 2.757812-1.59375v3.183594zm0 0"/><path d="m87.125 219.816406 2.757812-1.589844v3.183594zm0 0"/><path d="m87.125 229.375 2.757812-1.59375v3.1875zm0 0"/><path d="m92.640625 235.746094 2.761719-1.59375v3.183594zm0 0"/><path d="m95.402344 237.335938 2.757812-1.589844v3.183594zm0 0"/><path d="m167.125 278.75 2.761719-1.59375v3.183594zm0 0"/><path d="m169.886719 280.339844 2.757812-1.589844v3.183594zm0 0"/><path d="m172.644531 281.933594 2.757813-1.59375v3.1875zm0 0"/><path d="m189.195312 278.75 2.757813-1.59375v3.183594zm0 0"/><path d="m258.164062 238.929688 2.757813-1.59375v3.1875zm0 0"/><path d="m271.957031 234.152344 2.757813-1.59375v3.1875zm0 0"/><path d="m271.957031 227.78125 2.757813-1.59375v3.1875zm0 0"/><path d="m271.957031 224.597656 2.757813-1.59375v3.183594zm0 0"/><path d="m271.957031 138.589844 2.757813-1.59375v3.1875zm0 0"/><path d="m271.957031 135.402344 2.757813-1.589844v3.183594zm0 0"/><path d="m271.957031 132.21875 2.757813-1.59375v3.1875zm0 0"/><path d="m271.957031 125.847656 2.757813-1.59375v3.1875zm0 0"/><path d="m269.195312 124.253906 2.761719-1.589844v3.183594zm0 0"/><path d="m260.921875 119.476562 2.757813-1.59375v3.1875zm0 0"/><path d="m183.679688 74.878906 2.757812-1.589844v3.183594zm0 0"/><path d="m180.917969 73.289062 2.761719-1.59375v3.183594zm0 0"/><path d="m169.886719 76.472656 2.757812-1.59375v3.1875zm0 0"/><path d="m92.640625 121.070312 2.761719-1.59375v3.1875zm0 0"/><path d="m84.367188 129.03125 2.757812-1.589844v3.183594zm0 0"/><path d="m84.367188 221.410156 2.757812-1.59375v3.1875zm0 0"/><path d="m84.367188 230.96875 2.757812-1.59375v3.183594zm0 0"/><path d="m95.402344 240.523438 2.757812-1.59375v3.1875zm0 0"/><path d="m169.886719 283.527344 2.757812-1.59375v3.1875zm0 0"/><path d="m180.917969 286.710938 2.761719-1.589844v3.183594zm0 0"/><path d="m183.679688 285.121094 2.757812-1.59375v3.183594zm0 0"/><path d="m186.4375 283.527344 2.757812-1.59375v3.1875zm0 0"/><path d="m263.679688 238.929688 2.757812-1.59375v3.1875zm0 0"/><path d="m269.195312 235.746094 2.761719-1.59375v3.183594zm0 0"/><path d="m274.714844 235.746094 2.757812-1.59375v3.183594zm0 0"/><path d="m274.714844 232.558594 2.757812-1.589844v3.183594zm0 0"/><path d="m274.714844 226.1875 2.757812-1.589844v3.183594zm0 0"/><path d="m274.714844 133.8125 2.757812-1.59375v3.183594zm0 0"/><path d="m274.714844 130.625 2.757812-1.59375v3.1875zm0 0"/><path d="m274.714844 124.253906 2.757812-1.589844v3.183594zm0 0"/><path d="m271.957031 122.664062 2.757813-1.59375v3.183594zm0 0"/><path d="m269.195312 121.070312 2.761719-1.59375v3.1875zm0 0"/><path d="m266.4375 119.476562 2.757812-1.59375v3.1875zm0 0"/><path d="m263.679688 117.882812 2.757812-1.589843v3.183593zm0 0"/><path d="m189.195312 74.878906 2.757813-1.589844v3.183594zm0 0"/><path d="m186.4375 73.289062 2.757812-1.59375v3.183594zm0 0"/><path d="m183.679688 71.695312 2.757812-1.59375v3.1875zm0 0"/><path d="m180.917969 70.101562 2.761719-1.59375v3.1875zm0 0"/><path d="m178.160156 68.507812 2.757813-1.589843v3.183593zm0 0"/><path d="m167.125 74.878906 2.761719-1.589844v3.183594zm0 0"/><path d="m92.640625 117.882812 2.761719-1.589843v3.183593zm0 0"/><path d="m89.882812 119.476562 2.757813-1.59375v3.1875zm0 0"/><path d="m81.609375 127.441406 2.757813-1.59375v3.183594zm0 0"/><path d="m81.609375 130.625 2.757813-1.59375v3.1875zm0 0"/><path d="m81.609375 136.996094 2.757813-1.59375v3.1875zm0 0"/><path d="m81.609375 229.375 2.757813-1.59375v3.1875zm0 0"/><path d="m81.609375 232.558594 2.757813-1.589844v3.183594zm0 0"/><path d="m87.125 238.929688 2.757812-1.59375v3.1875zm0 0"/><path d="m89.882812 240.523438 2.757813-1.59375v3.1875zm0 0"/><path d="m92.640625 242.117188 2.761719-1.59375v3.183593zm0 0"/><path d="m167.125 285.121094 2.761719-1.59375v3.183594zm0 0"/><path d="m175.402344 289.898438 2.757812-1.59375v3.1875zm0 0"/><path d="m178.160156 291.492188 2.757813-1.59375v3.183593zm0 0"/><path d="m183.679688 288.304688 2.757812-1.59375v3.1875zm0 0"/><path d="m186.4375 286.710938 2.757812-1.589844v3.183594zm0 0"/><path d="m263.679688 242.117188 2.757812-1.59375v3.183593zm0 0"/><path d="m266.4375 240.523438 2.757812-1.59375v3.1875zm0 0"/><path d="m271.957031 237.335938 2.757813-1.589844v3.183594zm0 0"/><path d="m277.472656 237.335938 2.757813-1.589844v3.183594zm0 0"/><path d="m277.472656 227.78125 2.757813-1.59375v3.1875zm0 0"/><path d="m277.472656 224.597656 2.757813-1.59375v3.183594zm0 0"/><path d="m277.472656 135.402344 2.757813-1.589844v3.183594zm0 0"/><path d="m277.472656 125.847656 2.757813-1.59375v3.1875zm0 0"/><path d="m277.472656 122.664062 2.757813-1.59375v3.183594zm0 0"/><path d="m269.195312 117.882812 2.761719-1.589843v3.183593zm0 0"/><path d="m189.195312 71.695312 2.757813-1.59375v3.1875zm0 0"/><path d="m180.917969 66.917969 2.761719-1.59375v3.183593zm0 0"/><path d="m175.402344 66.917969 2.757812-1.59375v3.183593zm0 0"/><path d="m172.644531 68.507812 2.757813-1.589843v3.183593zm0 0"/><path d="m167.125 71.695312 2.761719-1.59375v3.1875zm0 0"/><path d="m87.125 117.882812 2.757812-1.589843v3.183593zm0 0"/><path d="m84.367188 119.476562 2.757812-1.59375v3.1875zm0 0"/><path d="m78.847656 122.664062 2.761719-1.59375v3.183594zm0 0"/><path d="m78.847656 125.847656 2.761719-1.59375v3.1875zm0 0"/><path d="m78.847656 132.21875 2.761719-1.59375v3.1875zm0 0"/><path d="m78.847656 135.402344 2.761719-1.589844v3.183594zm0 0"/><path d="m78.847656 224.597656 2.761719-1.59375v3.183594zm0 0"/><path d="m78.847656 227.78125 2.761719-1.59375v3.1875zm0 0"/><path d="m78.847656 234.152344 2.761719-1.59375v3.1875zm0 0"/><path d="m78.847656 237.335938 2.761719-1.589844v3.183594zm0 0"/><path d="m81.609375 238.929688 2.757813-1.59375v3.1875zm0 0"/><path d="m87.125 242.117188 2.757812-1.59375v3.183593zm0 0"/><path d="m167.125 288.304688 2.761719-1.59375v3.1875zm0 0"/><path d="m169.886719 289.898438 2.757812-1.59375v3.1875zm0 0"/><path d="m175.402344 293.082031 2.757812-1.589843v3.183593zm0 0"/><path d="m180.917969 293.082031 2.761719-1.589843v3.183593zm0 0"/><path d="m183.679688 291.492188 2.757812-1.59375v3.183593zm0 0"/><path d="m189.195312 288.304688 2.757813-1.59375v3.1875zm0 0"/><path d="m269.195312 242.117188 2.761719-1.59375v3.183593zm0 0"/><path d="m271.957031 240.523438 2.757813-1.59375v3.1875zm0 0"/><path d="m299.542969 250.078125 2.757812-1.589844v3.183594zm0 0"/><path d="m299.542969 211.855469 2.757812-1.59375v3.183593zm0 0"/><path d="m299.542969 208.667969 2.757812-1.589844v3.183594zm0 0"/><path d="m299.542969 202.296875 2.757812-1.589844v3.183594zm0 0"/><path d="m299.542969 199.113281 2.757812-1.59375v3.1875zm0 0"/><path d="m299.542969 160.886719 2.757812-1.59375v3.1875zm0 0"/><path d="m299.542969 157.703125 2.757812-1.59375v3.183594zm0 0"/><path d="m299.542969 151.332031 2.757812-1.59375v3.183594zm0 0"/><path d="m299.542969 148.144531 2.757812-1.589843v3.183593zm0 0"/><path d="m299.542969 109.921875 2.757812-1.59375v3.183594zm0 0"/><path d="m263.679688 89.214844 2.757812-1.59375v3.1875zm0 0"/><path d="m258.164062 86.03125 2.757813-1.59375v3.183594zm0 0"/><path d="m255.402344 84.4375 2.761718-1.59375v3.1875zm0 0"/><path d="m219.539062 63.730469 2.761719-1.589844v3.183594zm0 0"/><path d="m214.023438 60.546875 2.757812-1.59375v3.1875zm0 0"/><path d="m211.265625 58.953125 2.757813-1.59375v3.1875zm0 0"/><path d="m145.058594 58.953125 2.757812-1.59375v3.1875zm0 0"/><path d="m139.539062 62.140625 2.757813-1.59375v3.183594zm0 0"/><path d="m136.78125 63.730469 2.757812-1.589844v3.183594zm0 0"/><path d="m100.917969 84.4375 2.757812-1.59375v3.1875zm0 0"/><path d="m95.402344 87.621094 2.757812-1.589844v3.183594zm0 0"/><path d="m92.640625 89.214844 2.761719-1.59375v3.1875zm0 0"/><path d="m56.78125 109.921875 2.757812-1.59375v3.183594zm0 0"/><path d="m56.78125 148.144531 2.757812-1.589843v3.183593zm0 0"/><path d="m56.78125 151.332031 2.757812-1.59375v3.183594zm0 0"/><path d="m56.78125 160.886719 2.757812-1.59375v3.1875zm0 0"/><path d="m56.78125 199.113281 2.757812-1.59375v3.1875zm0 0"/><path d="m56.78125 202.296875 2.757812-1.589844v3.183594zm0 0"/><path d="m56.78125 211.855469 2.757812-1.59375v3.183593zm0 0"/><path d="m56.78125 250.078125 2.757812-1.589844v3.183594zm0 0"/><path d="m92.640625 270.785156 2.761719-1.59375v3.1875zm0 0"/><path d="m100.917969 275.5625 2.757812-1.59375v3.1875zm0 0"/><path d="m136.78125 296.269531 2.757812-1.59375v3.183594zm0 0"/><path d="m145.058594 301.046875 2.757812-1.59375v3.1875zm0 0"/><path d="m211.265625 301.046875 2.757813-1.59375v3.1875zm0 0"/><path d="m216.78125 297.859375 2.757812-1.589844v3.183594zm0 0"/><path d="m219.539062 296.269531 2.761719-1.59375v3.183594zm0 0"/><path d="m255.402344 275.5625 2.761718-1.59375v3.1875zm0 0"/><path d="m260.921875 272.378906 2.757813-1.59375v3.183594zm0 0"/><path d="m263.679688 270.785156 2.757812-1.59375v3.1875zm0 0"/><path d="m302.300781 213.445312 2.757813-1.589843v3.183593zm0 0"/><path d="m302.300781 207.078125 2.757813-1.59375v3.183594zm0 0"/><path d="m302.300781 203.890625 2.757813-1.59375v3.1875zm0 0"/><path d="m302.300781 162.480469 2.757813-1.59375v3.1875zm0 0"/><path d="m302.300781 156.109375 2.757813-1.59375v3.1875zm0 0"/><path d="m302.300781 152.921875 2.757813-1.589844v3.183594zm0 0"/><path d="m302.300781 111.511719 2.757813-1.589844v3.183594zm0 0"/><path d="m299.542969 106.734375 2.757812-1.59375v3.1875zm0 0"/><path d="m269.195312 89.214844 2.761719-1.59375v3.1875zm0 0"/><path d="m266.4375 87.621094 2.757812-1.589844v3.183594zm0 0"/><path d="m263.679688 86.03125 2.757812-1.59375v3.183594zm0 0"/><path d="m255.402344 81.25 2.761718-1.589844v3.183594zm0 0"/><path d="m225.058594 63.730469 2.757812-1.589844v3.183594zm0 0"/><path d="m222.300781 62.140625 2.757813-1.59375v3.183594zm0 0"/><path d="m219.539062 60.546875 2.761719-1.59375v3.1875zm0 0"/><path d="m211.265625 55.769531 2.757813-1.59375v3.183594zm0 0"/><path d="m180.917969 38.246094 2.761719-1.589844v3.183594zm0 0"/><path d="m178.160156 36.65625 2.757813-1.59375v3.183594zm0 0"/><path d="m175.402344 38.246094 2.757812-1.589844v3.183594zm0 0"/><path d="m142.296875 57.359375 2.761719-1.589844v3.183594zm0 0"/><path d="m139.539062 58.953125 2.757813-1.59375v3.1875zm0 0"/><path d="m134.023438 62.140625 2.757812-1.59375v3.183594zm0 0"/><path d="m131.261719 63.730469 2.761719-1.589844v3.183594zm0 0"/><path d="m98.160156 82.84375 2.757813-1.59375v3.1875zm0 0"/><path d="m95.402344 84.4375 2.757812-1.59375v3.1875zm0 0"/><path d="m89.882812 87.621094 2.757813-1.589844v3.183594zm0 0"/><path d="m87.125 89.214844 2.757812-1.59375v3.1875zm0 0"/><path d="m54.019531 108.328125 2.761719-1.59375v3.1875zm0 0"/><path d="m54.019531 149.738281 2.761719-1.59375v3.1875zm0 0"/><path d="m54.019531 156.109375 2.761719-1.59375v3.1875zm0 0"/><path d="m54.019531 159.292969 2.761719-1.589844v3.183594zm0 0"/><path d="m54.019531 200.707031 2.761719-1.59375v3.183594zm0 0"/><path d="m54.019531 207.078125 2.761719-1.59375v3.183594zm0 0"/><path d="m54.019531 210.261719 2.761719-1.59375v3.1875zm0 0"/><path d="m54.019531 251.671875 2.761719-1.59375v3.1875zm0 0"/><path d="m56.78125 253.265625 2.757812-1.59375v3.1875zm0 0"/><path d="m87.125 270.785156 2.757812-1.59375v3.1875zm0 0"/><path d="m89.882812 272.378906 2.757813-1.59375v3.183594zm0 0"/><path d="m92.640625 273.96875 2.761719-1.589844v3.183594zm0 0"/><path d="m95.402344 275.5625 2.757812-1.59375v3.1875zm0 0"/><path d="m98.160156 277.15625 2.757813-1.59375v3.1875zm0 0"/><path d="m100.917969 278.75 2.757812-1.59375v3.183594zm0 0"/><path d="m131.261719 296.269531 2.761719-1.59375v3.183594zm0 0"/><path d="m134.023438 297.859375 2.757812-1.589844v3.183594zm0 0"/><path d="m136.78125 299.453125 2.757812-1.59375v3.1875zm0 0"/><path d="m139.539062 301.046875 2.757813-1.59375v3.1875zm0 0"/><path d="m142.296875 302.640625 2.761719-1.59375v3.183594zm0 0"/><path d="m145.058594 304.230469 2.757812-1.589844v3.183594zm0 0"/><path d="m175.402344 321.753906 2.757812-1.59375v3.183594zm0 0"/><path d="m178.160156 323.34375 2.757813-1.589844v3.183594zm0 0"/><path d="m180.917969 321.753906 2.761719-1.59375v3.183594zm0 0"/><path d="m211.265625 304.230469 2.757813-1.589844v3.183594zm0 0"/><path d="m222.300781 297.859375 2.757813-1.589844v3.183594zm0 0"/><path d="m225.058594 296.269531 2.757812-1.59375v3.183594zm0 0"/><path d="m255.402344 278.75 2.761718-1.59375v3.183594zm0 0"/><path d="m266.4375 272.378906 2.757812-1.59375v3.183594zm0 0"/><path d="m269.195312 270.785156 2.761719-1.59375v3.1875zm0 0"/><path d="m299.542969 253.265625 2.757812-1.59375v3.1875zm0 0"/><path d="m305.058594 246.894531 2.761718-1.59375v3.1875zm0 0"/><path d="m305.058594 205.484375 2.761718-1.59375v3.1875zm0 0"/><path d="m305.058594 195.925781 2.761718-1.589843v3.183593zm0 0"/><path d="m305.058594 154.515625 2.761718-1.59375v3.1875zm0 0"/><path d="m305.058594 144.960938 2.761718-1.59375v3.1875zm0 0"/><path d="m302.300781 105.140625 2.757813-1.589844v3.183594zm0 0"/><path d="m271.957031 87.621094 2.757813-1.589844v3.183594zm0 0"/><path d="m258.164062 79.660156 2.757813-1.59375v3.183594zm0 0"/><path d="m227.816406 62.140625 2.757813-1.59375v3.183594zm0 0"/><path d="m214.023438 54.175781 2.757812-1.59375v3.1875zm0 0"/><path d="m183.679688 36.65625 2.757812-1.59375v3.183594zm0 0"/><path d="m175.402344 35.0625 2.757812-1.59375v3.1875zm0 0"/><path d="m142.296875 54.175781 2.761719-1.59375v3.1875zm0 0"/><path d="m139.539062 55.769531 2.757813-1.59375v3.183594zm0 0"/><path d="m136.78125 57.359375 2.757812-1.589844v3.183594zm0 0"/><path d="m131.261719 60.546875 2.761719-1.59375v3.1875zm0 0"/><path d="m98.160156 79.660156 2.757813-1.59375v3.183594zm0 0"/><path d="m95.402344 81.25 2.757812-1.589844v3.183594zm0 0"/><path d="m92.640625 82.84375 2.761719-1.59375v3.1875zm0 0"/><path d="m87.125 86.03125 2.757812-1.59375v3.183594zm0 0"/><path d="m54.019531 105.140625 2.761719-1.589844v3.183594zm0 0"/><path d="m51.261719 106.734375 2.757812-1.59375v3.1875zm0 0"/><path d="m51.261719 109.921875 2.757812-1.59375v3.183594zm0 0"/><path d="m51.261719 113.105469 2.757812-1.59375v3.1875zm0 0"/><path d="m51.261719 148.144531 2.757812-1.589843v3.183593zm0 0"/><path d="m51.261719 151.332031 2.757812-1.59375v3.183594zm0 0"/><path d="m51.261719 157.703125 2.757812-1.59375v3.183594zm0 0"/><path d="m51.261719 160.886719 2.757812-1.59375v3.1875zm0 0"/><path d="m51.261719 164.074219 2.757812-1.59375v3.183593zm0 0"/><path d="m51.261719 199.113281 2.757812-1.59375v3.1875zm0 0"/><path d="m51.261719 202.296875 2.757812-1.589844v3.183594zm0 0"/><path d="m51.261719 208.667969 2.757812-1.589844v3.183594zm0 0"/><path d="m51.261719 211.855469 2.757812-1.59375v3.183593zm0 0"/><path d="m51.261719 215.039062 2.757812-1.59375v3.1875zm0 0"/><path d="m51.261719 250.078125 2.757812-1.589844v3.183594zm0 0"/><path d="m51.261719 253.265625 2.757812-1.59375v3.1875zm0 0"/><path d="m84.367188 272.378906 2.757812-1.59375v3.183594zm0 0"/><path d="m92.640625 277.15625 2.761719-1.59375v3.1875zm0 0"/><path d="m95.402344 278.75 2.757812-1.59375v3.183594zm0 0"/><path d="m128.503906 297.859375 2.757813-1.589844v3.183594zm0 0"/><path d="m136.78125 302.640625 2.757812-1.59375v3.183594zm0 0"/><path d="m139.539062 304.230469 2.757813-1.589844v3.183594zm0 0"/><path d="m172.644531 323.34375 2.757813-1.589844v3.183594zm0 0"/><path d="m180.917969 324.9375 2.761719-1.59375v3.1875zm0 0"/><path d="m214.023438 305.824219 2.757812-1.59375v3.1875zm0 0"/><path d="m225.058594 299.453125 2.757812-1.59375v3.1875zm0 0"/><path d="m258.164062 280.339844 2.757813-1.589844v3.183594zm0 0"/><path d="m269.195312 273.96875 2.761719-1.589844v3.183594zm0 0"/><path d="m302.300781 254.859375 2.757813-1.59375v3.183594zm0 0"/><path d="m307.820312 254.859375 2.757813-1.59375v3.183594zm0 0"/><path d="m307.820312 245.300781 2.757813-1.59375v3.1875zm0 0"/><path d="m307.820312 216.632812 2.757813-1.59375v3.1875zm0 0"/><path d="m307.820312 213.445312 2.757813-1.589843v3.183593zm0 0"/><path d="m307.820312 203.890625 2.757813-1.59375v3.1875zm0 0"/><path d="m307.820312 194.335938 2.757813-1.59375v3.183593zm0 0"/><path d="m307.820312 165.664062 2.757813-1.589843v3.183593zm0 0"/><path d="m307.820312 162.480469 2.757813-1.59375v3.1875zm0 0"/><path d="m307.820312 152.921875 2.757813-1.589844v3.183594zm0 0"/><path d="m307.820312 143.367188 2.757813-1.59375v3.1875zm0 0"/><path d="m307.820312 114.699219 2.757813-1.59375v3.1875zm0 0"/><path d="m307.820312 111.511719 2.757813-1.589844v3.183594zm0 0"/><path d="m305.058594 103.550781 2.761718-1.59375v3.183594zm0 0"/><path d="m302.300781 101.957031 2.757813-1.59375v3.1875zm0 0"/><path d="m299.542969 100.363281 2.757812-1.59375v3.1875zm0 0"/><path d="m271.957031 84.4375 2.757813-1.59375v3.1875zm0 0"/><path d="m269.195312 82.84375 2.761719-1.59375v3.1875zm0 0"/><path d="m260.921875 78.066406 2.757813-1.59375v3.1875zm0 0"/><path d="m258.164062 76.472656 2.757813-1.59375v3.1875zm0 0"/><path d="m255.402344 74.878906 2.761718-1.589844v3.183594zm0 0"/><path d="m227.816406 58.953125 2.757813-1.59375v3.1875zm0 0"/><path d="m225.058594 57.359375 2.757812-1.589844v3.183594zm0 0"/><path d="m216.78125 52.582031 2.757812-1.59375v3.1875zm0 0"/><path d="m214.023438 50.988281 2.757812-1.589843v3.183593zm0 0"/><path d="m211.265625 49.398438 2.757813-1.59375v3.183593zm0 0"/><path d="m183.679688 33.46875 2.757812-1.589844v3.183594zm0 0"/><path d="m180.917969 31.878906 2.761719-1.59375v3.183594zm0 0"/><path d="m169.886719 35.0625 2.757812-1.59375v3.1875zm0 0"/><path d="m145.058594 49.398438 2.757812-1.59375v3.183593zm0 0"/><path d="m125.746094 60.546875 2.757812-1.59375v3.1875zm0 0"/><path d="m100.917969 74.878906 2.757812-1.589844v3.183594zm0 0"/><path d="m81.609375 86.03125 2.757813-1.59375v3.183594zm0 0"/><path d="m56.78125 100.363281 2.757812-1.59375v3.1875zm0 0"/><path d="m48.503906 108.328125 2.757813-1.59375v3.1875zm0 0"/><path d="m48.503906 114.699219 2.757813-1.59375v3.1875zm0 0"/><path d="m48.503906 143.367188 2.757813-1.59375v3.1875zm0 0"/><path d="m48.503906 146.554688 2.757813-1.59375v3.183593zm0 0"/><path d="m48.503906 149.738281 2.757813-1.59375v3.1875zm0 0"/><path d="m48.503906 159.292969 2.757813-1.589844v3.183594zm0 0"/><path d="m48.503906 165.664062 2.757813-1.589843v3.183593zm0 0"/><path d="m48.503906 194.335938 2.757813-1.59375v3.183593zm0 0"/><path d="m48.503906 197.519531 2.757813-1.59375v3.1875zm0 0"/><path d="m48.503906 200.707031 2.757813-1.59375v3.183594zm0 0"/><path d="m48.503906 210.261719 2.757813-1.59375v3.1875zm0 0"/><path d="m48.503906 216.632812 2.757813-1.59375v3.1875zm0 0"/><path d="m48.503906 245.300781 2.757813-1.59375v3.1875zm0 0"/><path d="m48.503906 248.488281 2.757813-1.59375v3.183594zm0 0"/><path d="m48.503906 251.671875 2.757813-1.59375v3.1875zm0 0"/><path d="m54.019531 258.042969 2.761719-1.59375v3.1875zm0 0"/><path d="m89.882812 278.75 2.757813-1.59375v3.183594zm0 0"/><path d="m98.160156 283.527344 2.757813-1.59375v3.1875zm0 0"/><path d="m134.023438 304.230469 2.757812-1.589844v3.183594zm0 0"/><path d="m142.296875 309.011719 2.761719-1.59375v3.183593zm0 0"/><path d="m178.160156 329.714844 2.757813-1.59375v3.1875zm0 0"/><path d="m180.917969 328.121094 2.761719-1.589844v3.183594zm0 0"/><path d="m183.679688 326.53125 2.757812-1.59375v3.183594zm0 0"/><path d="m211.265625 310.601562 2.757813-1.589843v3.183593zm0 0"/><path d="m214.023438 309.011719 2.757812-1.59375v3.183593zm0 0"/><path d="m216.78125 307.417969 2.757812-1.59375v3.1875zm0 0"/><path d="m219.539062 305.824219 2.761719-1.59375v3.1875zm0 0"/><path d="m222.300781 304.230469 2.757813-1.589844v3.183594zm0 0"/><path d="m225.058594 302.640625 2.757812-1.59375v3.183594zm0 0"/><path d="m227.816406 301.046875 2.757813-1.59375v3.1875zm0 0"/><path d="m255.402344 285.121094 2.761718-1.59375v3.183594zm0 0"/><path d="m258.164062 283.527344 2.757813-1.59375v3.1875zm0 0"/><path d="m260.921875 281.933594 2.757813-1.59375v3.1875zm0 0"/><path d="m263.679688 280.339844 2.757812-1.589844v3.183594zm0 0"/><path d="m266.4375 278.75 2.757812-1.59375v3.183594zm0 0"/><path d="m269.195312 277.15625 2.761719-1.59375v3.1875zm0 0"/><path d="m271.957031 275.5625 2.757813-1.59375v3.1875zm0 0"/><path d="m299.542969 259.636719 2.757812-1.59375v3.1875zm0 0"/><path d="m302.300781 258.042969 2.757813-1.59375v3.1875zm0 0"/><path d="m305.058594 256.449219 2.761718-1.589844v3.183594zm0 0"/><path d="m310.578125 253.265625 2.757813-1.59375v3.1875zm0 0"/><path d="m310.578125 246.894531 2.757813-1.59375v3.1875zm0 0"/><path d="m310.578125 215.039062 2.757813-1.59375v3.1875zm0 0"/><path d="m310.578125 202.296875 2.757813-1.589844v3.183594zm0 0"/><path d="m310.578125 195.925781 2.757813-1.589843v3.183593zm0 0"/><path d="m310.578125 164.074219 2.757813-1.59375v3.183593zm0 0"/><path d="m310.578125 151.332031 2.757813-1.59375v3.183594zm0 0"/><path d="m310.578125 144.960938 2.757813-1.59375v3.1875zm0 0"/><path d="m310.578125 113.105469 2.757813-1.59375v3.1875zm0 0"/><path d="m307.820312 101.957031 2.757813-1.59375v3.1875zm0 0"/><path d="m299.542969 97.179688 2.757812-1.59375v3.183593zm0 0"/><path d="m277.472656 84.4375 2.757813-1.59375v3.1875zm0 0"/><path d="m274.714844 82.84375 2.757812-1.59375v3.1875zm0 0"/><path d="m271.957031 81.25 2.757813-1.589844v3.183594zm0 0"/><path d="m263.679688 76.472656 2.757812-1.59375v3.1875zm0 0"/><path d="m255.402344 71.695312 2.761718-1.59375v3.1875zm0 0"/><path d="m233.335938 58.953125 2.757812-1.59375v3.1875zm0 0"/><path d="m230.574219 57.359375 2.761719-1.589844v3.183594zm0 0"/><path d="m227.816406 55.769531 2.757813-1.59375v3.183594zm0 0"/><path d="m219.539062 50.988281 2.761719-1.589843v3.183593zm0 0"/><path d="m211.265625 46.210938 2.757813-1.59375v3.1875zm0 0"/><path d="m189.195312 33.46875 2.757813-1.589844v3.183594zm0 0"/><path d="m186.4375 31.878906 2.757812-1.59375v3.183594zm0 0"/><path d="m183.679688 30.285156 2.757812-1.59375v3.1875zm0 0"/><path d="m167.125 33.46875 2.761719-1.589844v3.183594zm0 0"/><path d="m145.058594 46.210938 2.757812-1.59375v3.1875zm0 0"/><path d="m142.296875 47.804688 2.761719-1.59375v3.1875zm0 0"/><path d="m139.539062 49.398438 2.757813-1.59375v3.183593zm0 0"/><path d="m122.988281 58.953125 2.757813-1.59375v3.1875zm0 0"/><path d="m100.917969 71.695312 2.757812-1.59375v3.1875zm0 0"/><path d="m98.160156 73.289062 2.757813-1.59375v3.183594zm0 0"/><path d="m95.402344 74.878906 2.757812-1.589844v3.183594zm0 0"/><path d="m78.847656 84.4375 2.761719-1.59375v3.1875zm0 0"/><path d="m56.78125 97.179688 2.757812-1.59375v3.183593zm0 0"/><path d="m54.019531 98.769531 2.761719-1.589843v3.183593zm0 0"/><path d="m51.261719 100.363281 2.757812-1.59375v3.1875zm0 0"/><path d="m45.746094 113.105469 2.757812-1.59375v3.1875zm0 0"/><path d="m45.746094 144.960938 2.757812-1.59375v3.1875zm0 0"/><path d="m45.746094 151.332031 2.757812-1.59375v3.183594zm0 0"/><path d="m45.746094 164.074219 2.757812-1.59375v3.183593zm0 0"/><path d="m45.746094 195.925781 2.757812-1.589843v3.183593zm0 0"/><path d="m45.746094 202.296875 2.757812-1.589844v3.183594zm0 0"/><path d="m45.746094 215.039062 2.757812-1.59375v3.1875zm0 0"/><path d="m45.746094 246.894531 2.757812-1.59375v3.1875zm0 0"/><path d="m45.746094 253.265625 2.757812-1.59375v3.1875zm0 0"/><path d="m51.261719 259.636719 2.757812-1.59375v3.1875zm0 0"/><path d="m54.019531 261.230469 2.761719-1.59375v3.183593zm0 0"/><path d="m56.78125 262.820312 2.757812-1.589843v3.183593zm0 0"/><path d="m78.847656 275.5625 2.761719-1.59375v3.1875zm0 0"/><path d="m87.125 280.339844 2.757812-1.589844v3.183594zm0 0"/><path d="m95.402344 285.121094 2.757812-1.59375v3.183594zm0 0"/><path d="m98.160156 286.710938 2.757813-1.589844v3.183594zm0 0"/><path d="m100.917969 288.304688 2.757812-1.59375v3.1875zm0 0"/><path d="m122.988281 301.046875 2.757813-1.59375v3.1875zm0 0"/><path d="m131.261719 305.824219 2.761719-1.59375v3.1875zm0 0"/><path d="m139.539062 310.601562 2.757813-1.589843v3.183593zm0 0"/><path d="m142.296875 312.195312 2.761719-1.59375v3.1875zm0 0"/><path d="m145.058594 313.789062 2.757812-1.59375v3.1875zm0 0"/><path d="m167.125 326.53125 2.761719-1.59375v3.183594zm0 0"/><path d="m175.402344 331.308594 2.757812-1.59375v3.1875zm0 0"/><path d="m183.679688 329.714844 2.757812-1.59375v3.1875zm0 0"/><path d="m186.4375 328.121094 2.757812-1.589844v3.183594zm0 0"/><path d="m189.195312 326.53125 2.757813-1.59375v3.183594zm0 0"/><path d="m211.265625 313.789062 2.757813-1.59375v3.1875zm0 0"/><path d="m227.816406 304.230469 2.757813-1.589844v3.183594zm0 0"/><path d="m230.574219 302.640625 2.761719-1.59375v3.183594zm0 0"/><path d="m233.335938 301.046875 2.757812-1.59375v3.1875zm0 0"/><path d="m255.402344 288.304688 2.761718-1.59375v3.1875zm0 0"/><path d="m271.957031 278.75 2.757813-1.59375v3.183594zm0 0"/><path d="m274.714844 277.15625 2.757812-1.59375v3.1875zm0 0"/><path d="m277.472656 275.5625 2.757813-1.59375v3.1875zm0 0"/><path d="m299.542969 262.820312 2.757812-1.589843v3.183593zm0 0"/><path d="m313.335938 251.671875 2.757812-1.59375v3.1875zm0 0"/><path d="m313.335938 248.488281 2.757812-1.59375v3.183594zm0 0"/><path d="m313.335938 245.300781 2.757812-1.59375v3.1875zm0 0"/><path d="m313.335938 216.632812 2.757812-1.59375v3.1875zm0 0"/><path d="m313.335938 210.261719 2.757812-1.59375v3.1875zm0 0"/><path d="m313.335938 200.707031 2.757812-1.59375v3.183594zm0 0"/><path d="m313.335938 197.519531 2.757812-1.59375v3.1875zm0 0"/><path d="m313.335938 194.335938 2.757812-1.59375v3.183593zm0 0"/><path d="m313.335938 165.664062 2.757812-1.589843v3.183593zm0 0"/><path d="m313.335938 159.292969 2.757812-1.589844v3.183594zm0 0"/><path d="m313.335938 149.738281 2.757812-1.59375v3.1875zm0 0"/><path d="m313.335938 146.554688 2.757812-1.59375v3.183593zm0 0"/><path d="m313.335938 143.367188 2.757812-1.59375v3.1875zm0 0"/><path d="m313.335938 114.699219 2.757812-1.59375v3.1875zm0 0"/><path d="m313.335938 108.328125 2.757812-1.59375v3.1875zm0 0"/><path d="m310.578125 100.363281 2.757813-1.59375v3.1875zm0 0"/><path d="m274.714844 79.660156 2.757812-1.59375v3.183594zm0 0"/><path d="m266.4375 74.878906 2.757812-1.589844v3.183594zm0 0"/><path d="m230.574219 54.175781 2.761719-1.59375v3.1875zm0 0"/><path d="m222.300781 49.398438 2.757813-1.59375v3.183593zm0 0"/><path d="m186.4375 28.691406 2.757812-1.59375v3.1875zm0 0"/><path d="m178.160156 23.914062 2.757813-1.59375v3.1875zm0 0"/><path d="m175.402344 25.507812 2.757812-1.59375v3.183594zm0 0"/><path d="m172.644531 27.097656 2.757813-1.589844v3.183594zm0 0"/><path d="m169.886719 28.691406 2.757812-1.59375v3.1875zm0 0"/><path d="m167.125 30.285156 2.761719-1.59375v3.1875zm0 0"/><path d="m139.539062 46.210938 2.757813-1.59375v3.1875zm0 0"/><path d="m136.78125 47.804688 2.757812-1.59375v3.1875zm0 0"/><path d="m134.023438 49.398438 2.757812-1.59375v3.183593zm0 0"/><path d="m131.261719 50.988281 2.761719-1.589843v3.183593zm0 0"/><path d="m128.503906 52.582031 2.757813-1.59375v3.1875zm0 0"/><path d="m125.746094 54.175781 2.757812-1.59375v3.1875zm0 0"/><path d="m122.988281 55.769531 2.757813-1.59375v3.183594zm0 0"/><path d="m95.402344 71.695312 2.757812-1.59375v3.1875zm0 0"/><path d="m92.640625 73.289062 2.761719-1.59375v3.183594zm0 0"/><path d="m89.882812 74.878906 2.757813-1.589844v3.183594zm0 0"/><path d="m87.125 76.472656 2.757812-1.59375v3.1875zm0 0"/><path d="m84.367188 78.066406 2.757812-1.59375v3.1875zm0 0"/><path d="m81.609375 79.660156 2.757813-1.59375v3.183594zm0 0"/><path d="m78.847656 81.25 2.761719-1.589844v3.183594zm0 0"/><path d="m51.261719 97.179688 2.757812-1.59375v3.183593zm0 0"/><path d="m48.503906 98.769531 2.757813-1.589843v3.183593zm0 0"/><path d="m45.746094 100.363281 2.757812-1.59375v3.1875zm0 0"/><path d="m42.984375 101.957031 2.761719-1.59375v3.1875zm0 0"/><path d="m42.984375 111.511719 2.761719-1.589844v3.183594zm0 0"/><path d="m42.984375 114.699219 2.761719-1.59375v3.1875zm0 0"/><path d="m42.984375 143.367188 2.761719-1.59375v3.1875zm0 0"/><path d="m42.984375 152.921875 2.761719-1.589844v3.183594zm0 0"/><path d="m42.984375 162.480469 2.761719-1.59375v3.1875zm0 0"/><path d="m42.984375 165.664062 2.761719-1.589843v3.183593zm0 0"/><path d="m42.984375 194.335938 2.761719-1.59375v3.183593zm0 0"/><path d="m42.984375 203.890625 2.761719-1.59375v3.1875zm0 0"/><path d="m42.984375 213.445312 2.761719-1.589843v3.183593zm0 0"/><path d="m42.984375 216.632812 2.761719-1.59375v3.1875zm0 0"/><path d="m42.984375 245.300781 2.761719-1.59375v3.1875zm0 0"/><path d="m42.984375 254.859375 2.761719-1.59375v3.183594zm0 0"/><path d="m48.503906 261.230469 2.757813-1.59375v3.183593zm0 0"/><path d="m51.261719 262.820312 2.757812-1.589843v3.183593zm0 0"/><path d="m78.847656 278.75 2.761719-1.59375v3.183594zm0 0"/><path d="m81.609375 280.339844 2.757813-1.589844v3.183594zm0 0"/><path d="m84.367188 281.933594 2.757812-1.59375v3.1875zm0 0"/><path d="m92.640625 286.710938 2.761719-1.589844v3.183594zm0 0"/><path d="m95.402344 288.304688 2.757812-1.59375v3.1875zm0 0"/><path d="m122.988281 304.230469 2.757813-1.589844v3.183594zm0 0"/><path d="m125.746094 305.824219 2.757812-1.59375v3.1875zm0 0"/><path d="m128.503906 307.417969 2.757813-1.59375v3.1875zm0 0"/><path d="m136.78125 312.195312 2.757812-1.59375v3.1875zm0 0"/><path d="m139.539062 313.789062 2.757813-1.59375v3.1875zm0 0"/><path d="m167.125 329.714844 2.761719-1.59375v3.1875zm0 0"/><path d="m169.886719 331.308594 2.757812-1.59375v3.1875zm0 0"/><path d="m172.644531 332.902344 2.757813-1.59375v3.183594zm0 0"/><path d="m189.195312 329.714844 2.757813-1.59375v3.1875zm0 0"/><path d="m214.023438 315.382812 2.757812-1.59375v3.183594zm0 0"/><path d="m233.335938 304.230469 2.757812-1.589844v3.183594zm0 0"/><path d="m258.164062 289.898438 2.757813-1.59375v3.1875zm0 0"/><path d="m277.472656 278.75 2.757813-1.59375v3.183594zm0 0"/><path d="m302.300781 264.414062 2.757813-1.59375v3.1875zm0 0"/><path d="m316.09375 259.636719 2.757812-1.59375v3.1875zm0 0"/><path d="m316.09375 253.265625 2.757812-1.59375v3.1875zm0 0"/><path d="m316.09375 250.078125 2.757812-1.589844v3.183594zm0 0"/><path d="m316.09375 215.039062 2.757812-1.59375v3.1875zm0 0"/><path d="m316.09375 211.855469 2.757812-1.59375v3.183593zm0 0"/><path d="m316.09375 208.667969 2.757812-1.589844v3.183594zm0 0"/><path d="m316.09375 202.296875 2.757812-1.589844v3.183594zm0 0"/><path d="m316.09375 199.113281 2.757812-1.59375v3.1875zm0 0"/><path d="m316.09375 164.074219 2.757812-1.59375v3.183593zm0 0"/><path d="m316.09375 160.886719 2.757812-1.59375v3.1875zm0 0"/><path d="m316.09375 157.703125 2.757812-1.59375v3.183594zm0 0"/><path d="m316.09375 151.332031 2.757812-1.59375v3.183594zm0 0"/><path d="m316.09375 148.144531 2.757812-1.589843v3.183593zm0 0"/><path d="m316.09375 113.105469 2.757812-1.59375v3.1875zm0 0"/><path d="m316.09375 109.921875 2.757812-1.59375v3.183594zm0 0"/><path d="m316.09375 106.734375 2.757812-1.59375v3.1875zm0 0"/><path d="m316.09375 100.363281 2.757812-1.59375v3.1875zm0 0"/><path d="m313.335938 98.769531 2.757812-1.589843v3.183593zm0 0"/><path d="m305.058594 93.992188 2.761718-1.589844v3.183594zm0 0"/><path d="m271.957031 74.878906 2.757813-1.589844v3.183594zm0 0"/><path d="m269.195312 73.289062 2.761719-1.59375v3.183594zm0 0"/><path d="m260.921875 68.507812 2.757813-1.589843v3.183593zm0 0"/><path d="m227.816406 49.398438 2.757813-1.59375v3.183593zm0 0"/><path d="m225.058594 47.804688 2.757812-1.59375v3.1875zm0 0"/><path d="m216.78125 43.027344 2.757812-1.59375v3.183594zm0 0"/><path d="m183.679688 23.914062 2.757812-1.59375v3.1875zm0 0"/><path d="m180.917969 22.320312 2.761719-1.59375v3.1875zm0 0"/><path d="m169.886719 25.507812 2.757812-1.59375v3.183594zm0 0"/><path d="m136.78125 44.617188 2.757812-1.589844v3.183594zm0 0"/><path d="m125.746094 50.988281 2.757812-1.589843v3.183593zm0 0"/><path d="m92.640625 70.101562 2.761719-1.59375v3.1875zm0 0"/><path d="m81.609375 76.472656 2.757813-1.59375v3.1875zm0 0"/><path d="m48.503906 95.585938 2.757813-1.59375v3.1875zm0 0"/><path d="m40.226562 103.550781 2.757813-1.59375v3.183594zm0 0"/><path d="m40.226562 144.960938 2.757813-1.59375v3.1875zm0 0"/><path d="m40.226562 154.515625 2.757813-1.59375v3.1875zm0 0"/><path d="m40.226562 195.925781 2.757813-1.589843v3.183593zm0 0"/><path d="m40.226562 205.484375 2.757813-1.59375v3.1875zm0 0"/><path d="m40.226562 246.894531 2.757813-1.59375v3.1875zm0 0"/><path d="m40.226562 256.449219 2.757813-1.589844v3.183594zm0 0"/><path d="m51.261719 266.007812 2.757812-1.59375v3.183594zm0 0"/><path d="m81.609375 283.527344 2.757813-1.59375v3.1875zm0 0"/><path d="m95.402344 291.492188 2.757812-1.59375v3.183593zm0 0"/><path d="m125.746094 309.011719 2.757812-1.59375v3.183593zm0 0"/><path d="m139.539062 316.972656 2.757813-1.589844v3.183594zm0 0"/><path d="m169.886719 334.492188 2.757812-1.589844v3.183594zm0 0"/><path d="m180.917969 337.679688 2.761719-1.59375v3.1875zm0 0"/><path d="m183.679688 336.085938 2.757812-1.59375v3.1875zm0 0"/><path d="m186.4375 334.492188 2.757812-1.589844v3.183594zm0 0"/><path d="m219.539062 315.382812 2.761719-1.59375v3.183594zm0 0"/><path d="m225.058594 312.195312 2.757812-1.59375v3.1875zm0 0"/><path d="m227.816406 310.601562 2.757813-1.589843v3.183593zm0 0"/><path d="m230.574219 309.011719 2.761719-1.59375v3.183593zm0 0"/><path d="m263.679688 289.898438 2.757812-1.59375v3.1875zm0 0"/><path d="m269.195312 286.710938 2.761719-1.589844v3.183594zm0 0"/><path d="m271.957031 285.121094 2.757813-1.59375v3.183594zm0 0"/><path d="m274.714844 283.527344 2.757812-1.59375v3.1875zm0 0"/><path d="m307.820312 264.414062 2.757813-1.59375v3.1875zm0 0"/><path d="m313.335938 261.230469 2.757812-1.59375v3.183593zm0 0"/><path d="m318.851562 261.230469 2.761719-1.59375v3.183593zm0 0"/><path d="m318.851562 258.042969 2.761719-1.59375v3.1875zm0 0"/><path d="m318.851562 251.671875 2.761719-1.59375v3.1875zm0 0"/><path d="m318.851562 210.261719 2.761719-1.59375v3.1875zm0 0"/><path d="m318.851562 207.078125 2.761719-1.59375v3.183594zm0 0"/><path d="m318.851562 200.707031 2.761719-1.59375v3.183594zm0 0"/><path d="m318.851562 159.292969 2.761719-1.589844v3.183594zm0 0"/><path d="m318.851562 156.109375 2.761719-1.59375v3.1875zm0 0"/><path d="m318.851562 149.738281 2.761719-1.59375v3.1875zm0 0"/><path d="m318.851562 108.328125 2.761719-1.59375v3.1875zm0 0"/><path d="m318.851562 105.140625 2.761719-1.589844v3.183594zm0 0"/><path d="m318.851562 98.769531 2.761719-1.589843v3.183593zm0 0"/><path d="m316.09375 97.179688 2.757812-1.59375v3.183593zm0 0"/><path d="m313.335938 95.585938 2.757812-1.59375v3.1875zm0 0"/><path d="m310.578125 93.992188 2.757813-1.589844v3.183594zm0 0"/><path d="m307.820312 92.402344 2.757813-1.59375v3.183594zm0 0"/><path d="m277.472656 74.878906 2.757813-1.589844v3.183594zm0 0"/><path d="m274.714844 73.289062 2.757812-1.59375v3.183594zm0 0"/><path d="m271.957031 71.695312 2.757813-1.59375v3.1875zm0 0"/><path d="m269.195312 70.101562 2.761719-1.59375v3.1875zm0 0"/><path d="m266.4375 68.507812 2.757812-1.589843v3.183593zm0 0"/><path d="m263.679688 66.917969 2.757812-1.59375v3.183593zm0 0"/><path d="m233.335938 49.398438 2.757812-1.59375v3.183593zm0 0"/><path d="m230.574219 47.804688 2.761719-1.59375v3.1875zm0 0"/><path d="m227.816406 46.210938 2.757813-1.59375v3.1875zm0 0"/><path d="m225.058594 44.617188 2.757812-1.589844v3.183594zm0 0"/><path d="m222.300781 43.027344 2.757813-1.59375v3.183594zm0 0"/><path d="m219.539062 41.433594 2.761719-1.59375v3.1875zm0 0"/><path d="m189.195312 23.914062 2.757813-1.59375v3.1875zm0 0"/><path d="m186.4375 22.320312 2.757812-1.59375v3.1875zm0 0"/><path d="m183.679688 20.726562 2.757812-1.589843v3.183593zm0 0"/><path d="m180.917969 19.136719 2.761719-1.59375v3.183593zm0 0"/><path d="m178.160156 17.542969 2.757813-1.59375v3.1875zm0 0"/><path d="m167.125 23.914062 2.761719-1.59375v3.1875zm0 0"/><path d="m136.78125 41.433594 2.757812-1.59375v3.1875zm0 0"/><path d="m134.023438 43.027344 2.757812-1.59375v3.183594zm0 0"/><path d="m122.988281 49.398438 2.757813-1.59375v3.183593zm0 0"/><path d="m92.640625 66.917969 2.761719-1.59375v3.183593zm0 0"/><path d="m89.882812 68.507812 2.757813-1.589843v3.183593zm0 0"/><path d="m78.847656 74.878906 2.761719-1.589844v3.183594zm0 0"/><path d="m48.503906 92.402344 2.757813-1.59375v3.183594zm0 0"/><path d="m45.746094 93.992188 2.757812-1.589844v3.183594zm0 0"/><path d="m37.46875 101.957031 2.757812-1.59375v3.1875zm0 0"/><path d="m37.46875 105.140625 2.757812-1.589844v3.183594zm0 0"/><path d="m37.46875 111.511719 2.757812-1.589844v3.183594zm0 0"/><path d="m37.46875 152.921875 2.757812-1.589844v3.183594zm0 0"/><path d="m37.46875 156.109375 2.757812-1.59375v3.1875zm0 0"/><path d="m37.46875 162.480469 2.757812-1.59375v3.1875zm0 0"/><path d="m37.46875 203.890625 2.757812-1.59375v3.1875zm0 0"/><path d="m37.46875 207.078125 2.757812-1.59375v3.183594zm0 0"/><path d="m37.46875 213.445312 2.757812-1.589843v3.183593zm0 0"/><path d="m37.46875 254.859375 2.757812-1.59375v3.183594zm0 0"/><path d="m37.46875 258.042969 2.757812-1.59375v3.1875zm0 0"/><path d="m42.984375 264.414062 2.761719-1.59375v3.1875zm0 0"/><path d="m45.746094 266.007812 2.757812-1.59375v3.183594zm0 0"/><path d="m48.503906 267.597656 2.757813-1.589844v3.183594zm0 0"/><path d="m78.847656 285.121094 2.761719-1.59375v3.183594zm0 0"/><path d="m87.125 289.898438 2.757812-1.59375v3.1875zm0 0"/><path d="m89.882812 291.492188 2.757813-1.59375v3.183593zm0 0"/><path d="m92.640625 293.082031 2.761719-1.589843v3.183593zm0 0"/><path d="m122.988281 310.601562 2.757813-1.589843v3.183593zm0 0"/><path d="m131.261719 315.382812 2.761719-1.59375v3.183594zm0 0"/><path d="m134.023438 316.972656 2.757812-1.589844v3.183594zm0 0"/><path d="m136.78125 318.566406 2.757812-1.59375v3.1875zm0 0"/><path d="m167.125 336.085938 2.761719-1.59375v3.1875zm0 0"/><path d="m175.402344 340.863281 2.757812-1.589843v3.183593zm0 0"/><path d="m178.160156 342.457031 2.757813-1.59375v3.1875zm0 0"/><path d="m183.679688 339.273438 2.757812-1.59375v3.183593zm0 0"/><path d="m186.4375 337.679688 2.757812-1.59375v3.1875zm0 0"/><path d="m219.539062 318.566406 2.761719-1.59375v3.1875zm0 0"/><path d="m222.300781 316.972656 2.757813-1.589844v3.183594zm0 0"/><path d="m227.816406 313.789062 2.757813-1.59375v3.1875zm0 0"/><path d="m230.574219 312.195312 2.761719-1.59375v3.1875zm0 0"/><path d="m263.679688 293.082031 2.757812-1.589843v3.183593zm0 0"/><path d="m266.4375 291.492188 2.757812-1.59375v3.183593zm0 0"/><path d="m271.957031 288.304688 2.757813-1.59375v3.1875zm0 0"/><path d="m274.714844 286.710938 2.757812-1.589844v3.183594zm0 0"/><path d="m307.820312 267.597656 2.757813-1.589844v3.183594zm0 0"/><path d="m310.578125 266.007812 2.757813-1.59375v3.183594zm0 0"/><path d="m316.09375 262.820312 2.757812-1.589843v3.183593zm0 0"/><path d="m321.613281 262.820312 2.757813-1.589843v3.183593zm0 0"/><path d="m321.613281 253.265625 2.757813-1.59375v3.1875zm0 0"/><path d="m321.613281 250.078125 2.757813-1.589844v3.183594zm0 0"/><path d="m321.613281 211.855469 2.757813-1.59375v3.183593zm0 0"/><path d="m321.613281 202.296875 2.757813-1.589844v3.183594zm0 0"/><path d="m321.613281 199.113281 2.757813-1.59375v3.1875zm0 0"/><path d="m321.613281 160.886719 2.757813-1.59375v3.1875zm0 0"/><path d="m321.613281 151.332031 2.757813-1.59375v3.183594zm0 0"/><path d="m321.613281 148.144531 2.757813-1.589843v3.183593zm0 0"/><path d="m321.613281 109.921875 2.757813-1.59375v3.183594zm0 0"/><path d="m321.613281 100.363281 2.757813-1.59375v3.1875zm0 0"/><path d="m321.613281 97.179688 2.757813-1.59375v3.183593zm0 0"/><path d="m313.335938 92.402344 2.757812-1.59375v3.183594zm0 0"/><path d="m277.472656 71.695312 2.757813-1.59375v3.1875zm0 0"/><path d="m269.195312 66.917969 2.761719-1.59375v3.183593zm0 0"/><path d="m233.335938 46.210938 2.757812-1.59375v3.1875zm0 0"/><path d="m225.058594 41.433594 2.757812-1.59375v3.1875zm0 0"/><path d="m189.195312 20.726562 2.757813-1.589843v3.183593zm0 0"/><path d="m180.917969 15.949219 2.761719-1.59375v3.1875zm0 0"/><path d="m175.402344 15.949219 2.757812-1.59375v3.1875zm0 0"/><path d="m172.644531 17.542969 2.757813-1.59375v3.1875zm0 0"/><path d="m167.125 20.726562 2.761719-1.589843v3.183593zm0 0"/><path d="m131.261719 41.433594 2.761719-1.59375v3.1875zm0 0"/><path d="m128.503906 43.027344 2.757813-1.59375v3.183594zm0 0"/><path d="m122.988281 46.210938 2.757813-1.59375v3.1875zm0 0"/><path d="m87.125 66.917969 2.757812-1.59375v3.183593zm0 0"/><path d="m84.367188 68.507812 2.757812-1.589843v3.183593zm0 0"/><path d="m78.847656 71.695312 2.761719-1.59375v3.1875zm0 0"/><path d="m42.984375 92.402344 2.761719-1.59375v3.183594zm0 0"/><path d="m40.226562 93.992188 2.757813-1.589844v3.183594zm0 0"/><path d="m34.710938 97.179688 2.757812-1.59375v3.183593zm0 0"/><path d="m34.710938 100.363281 2.757812-1.59375v3.1875zm0 0"/><path d="m34.710938 106.734375 2.757812-1.59375v3.1875zm0 0"/><path d="m34.710938 109.921875 2.757812-1.59375v3.183594zm0 0"/><path d="m34.710938 148.144531 2.757812-1.589843v3.183593zm0 0"/><path d="m34.710938 151.332031 2.757812-1.59375v3.183594zm0 0"/><path d="m34.710938 157.703125 2.757812-1.59375v3.183594zm0 0"/><path d="m34.710938 160.886719 2.757812-1.59375v3.1875zm0 0"/><path d="m34.710938 199.113281 2.757812-1.59375v3.1875zm0 0"/><path d="m34.710938 202.296875 2.757812-1.589844v3.183594zm0 0"/><path d="m34.710938 208.667969 2.757812-1.589844v3.183594zm0 0"/><path d="m34.710938 211.855469 2.757812-1.59375v3.183593zm0 0"/><path d="m34.710938 250.078125 2.757812-1.589844v3.183594zm0 0"/><path d="m34.710938 253.265625 2.757812-1.59375v3.1875zm0 0"/><path d="m34.710938 259.636719 2.757812-1.59375v3.1875zm0 0"/><path d="m34.710938 262.820312 2.757812-1.589843v3.183593zm0 0"/><path d="m37.46875 264.414062 2.757812-1.59375v3.1875zm0 0"/><path d="m42.984375 267.597656 2.761719-1.589844v3.183594zm0 0"/><path d="m78.847656 288.304688 2.761719-1.59375v3.1875zm0 0"/><path d="m81.609375 289.898438 2.757813-1.59375v3.1875zm0 0"/><path d="m87.125 293.082031 2.757812-1.589843v3.183593zm0 0"/><path d="m122.988281 313.789062 2.757813-1.59375v3.1875zm0 0"/><path d="m125.746094 315.382812 2.757812-1.59375v3.183594zm0 0"/><path d="m131.261719 318.566406 2.761719-1.59375v3.1875zm0 0"/><path d="m167.125 339.273438 2.761719-1.59375v3.183593zm0 0"/><path d="m169.886719 340.863281 2.757812-1.589843v3.183593zm0 0"/><path d="m175.402344 344.050781 2.757812-1.59375v3.1875zm0 0"/><path d="m180.917969 344.050781 2.761719-1.59375v3.1875zm0 0"/><path d="m183.679688 342.457031 2.757812-1.59375v3.1875zm0 0"/><path d="m189.195312 339.273438 2.757813-1.59375v3.183593zm0 0"/><path d="m225.058594 318.566406 2.757812-1.59375v3.1875zm0 0"/><path d="m227.816406 316.972656 2.757813-1.589844v3.183594zm0 0"/><path d="m233.335938 313.789062 2.757812-1.59375v3.1875zm0 0"/><path d="m269.195312 293.082031 2.761719-1.589843v3.183593zm0 0"/><path d="m271.957031 291.492188 2.757813-1.59375v3.183593zm0 0"/><path d="m277.472656 288.304688 2.757813-1.59375v3.1875zm0 0"/><path d="m313.335938 267.597656 2.757812-1.589844v3.183594zm0 0"/><path d="m316.09375 266.007812 2.757812-1.59375v3.183594zm0 0"/><path d="m180.917969 178.40625-2.757813-1.589844v3.183594zm0 0"/><path d="m180.917969 181.59375-2.757813-1.59375v3.183594zm0 0"/><path d="m186.4375 178.40625-2.757812-1.589844v3.183594zm0 0"/><path d="m183.679688 176.816406-2.761719-1.59375v3.183594zm0 0"/><path d="m180.917969 175.222656-2.757813-1.59375v3.1875zm0 0"/><path d="m178.160156 176.816406-2.757812-1.59375v3.183594zm0 0"/><path d="m178.160156 180-2.757812-1.59375v3.1875zm0 0"/><path d="m178.160156 183.183594-2.757812-1.589844v3.183594zm0 0"/><path d="m183.679688 183.183594-2.761719-1.589844v3.183594zm0 0"/><path d="m186.4375 175.222656-2.757812-1.59375v3.1875zm0 0"/><path d="m175.402344 181.59375-2.757813-1.59375v3.183594zm0 0"/><path d="m180.917969 187.964844-2.757813-1.59375v3.183594zm0 0"/><path d="m183.679688 186.371094-2.761719-1.59375v3.1875zm0 0"/><path d="m186.4375 184.777344-2.757812-1.59375v3.1875zm0 0"/><path d="m191.953125 181.59375-2.757813-1.59375v3.183594zm0 0"/><path d="m189.195312 173.628906-2.757812-1.59375v3.1875zm0 0"/><path d="m186.4375 172.035156-2.757812-1.589844v3.183594zm0 0"/><path d="m183.679688 170.445312-2.761719-1.59375v3.183594zm0 0"/><path d="m172.644531 183.183594-2.757812-1.589844v3.183594zm0 0"/><path d="m180.917969 191.148438-2.757813-1.59375v3.1875zm0 0"/><path d="m189.195312 186.371094-2.757812-1.59375v3.1875zm0 0"/><path d="m180.917969 89.214844-2.757813-1.59375v3.1875zm0 0"/><path d="m260.921875 132.21875-2.757813-1.59375v3.1875zm0 0"/><path d="m180.917969 86.03125-2.757813-1.59375v3.183594zm0 0"/><path d="m103.675781 130.625-2.757812-1.59375v3.1875zm0 0"/><path d="m100.917969 135.402344-2.757813-1.589844v3.183594zm0 0"/><path d="m100.917969 224.597656-2.757813-1.59375v3.183594zm0 0"/><path d="m183.679688 272.378906-2.761719-1.59375v3.183594zm0 0"/><path d="m266.4375 227.78125-2.757812-1.59375v3.1875zm0 0"/><path d="m266.4375 132.21875-2.757812-1.59375v3.1875zm0 0"/><path d="m263.679688 130.625-2.757813-1.59375v3.1875zm0 0"/><path d="m183.679688 84.4375-2.761719-1.59375v3.1875zm0 0"/><path d="m98.160156 133.8125-2.757812-1.59375v3.183594zm0 0"/><path d="m98.160156 223.003906-2.757812-1.59375v3.1875zm0 0"/><path d="m98.160156 226.1875-2.757812-1.589844v3.183594zm0 0"/><path d="m98.160156 229.375-2.757812-1.59375v3.1875zm0 0"/><path d="m103.675781 232.558594-2.757812-1.589844v3.183594zm0 0"/><path d="m180.917969 277.15625-2.757813-1.59375v3.1875zm0 0"/><path d="m186.4375 273.96875-2.757812-1.589844v3.183594zm0 0"/><path d="m269.195312 229.375-2.757812-1.59375v3.1875zm0 0"/><path d="m269.195312 226.1875-2.757812-1.589844v3.183594zm0 0"/><path d="m269.195312 140.183594-2.757812-1.59375v3.183594zm0 0"/><path d="m269.195312 136.996094-2.757812-1.59375v3.1875zm0 0"/><path d="m269.195312 130.625-2.757812-1.59375v3.1875zm0 0"/><path d="m266.4375 129.03125-2.757812-1.589844v3.183594zm0 0"/><path d="m189.195312 84.4375-2.757812-1.59375v3.1875zm0 0"/><path d="m186.4375 82.84375-2.757812-1.59375v3.1875zm0 0"/><path d="m183.679688 81.25-2.761719-1.589844v3.183594zm0 0"/><path d="m180.917969 79.660156-2.757813-1.59375v3.183594zm0 0"/><path d="m178.160156 81.25-2.757812-1.589844v3.183594zm0 0"/><path d="m98.160156 127.441406-2.757812-1.59375v3.183594zm0 0"/><path d="m95.402344 132.21875-2.761719-1.59375v3.1875zm0 0"/><path d="m95.402344 135.402344-2.761719-1.589844v3.183594zm0 0"/><path d="m95.402344 221.410156-2.761719-1.59375v3.1875zm0 0"/><path d="m95.402344 227.78125-2.761719-1.59375v3.1875zm0 0"/><path d="m178.160156 278.75-2.757812-1.59375v3.183594zm0 0"/><path d="m180.917969 280.339844-2.757813-1.589844v3.183594zm0 0"/><path d="m183.679688 278.75-2.761719-1.59375v3.183594zm0 0"/><path d="m186.4375 277.15625-2.757812-1.59375v3.1875zm0 0"/><path d="m189.195312 275.5625-2.757812-1.59375v3.1875zm0 0"/><path d="m260.921875 234.152344-2.757813-1.59375v3.1875zm0 0"/><path d="m263.679688 232.558594-2.757813-1.589844v3.183594zm0 0"/><path d="m266.4375 230.96875-2.757812-1.59375v3.183594zm0 0"/><path d="m271.957031 227.78125-2.761719-1.59375v3.1875zm0 0"/><path d="m271.957031 221.410156-2.761719-1.59375v3.1875zm0 0"/><path d="m271.957031 135.402344-2.761719-1.589844v3.183594zm0 0"/><path d="m271.957031 132.21875-2.761719-1.59375v3.1875zm0 0"/><path d="m269.195312 127.441406-2.757812-1.59375v3.183594zm0 0"/><path d="m266.4375 125.847656-2.757812-1.59375v3.1875zm0 0"/><path d="m180.917969 76.472656-2.757813-1.59375v3.1875zm0 0"/><path d="m178.160156 78.066406-2.757812-1.59375v3.1875zm0 0"/><path d="m175.402344 79.660156-2.757813-1.59375v3.183594zm0 0"/><path d="m172.644531 81.25-2.757812-1.589844v3.183594zm0 0"/><path d="m100.917969 122.664062-2.757813-1.59375v3.183594zm0 0"/><path d="m98.160156 124.253906-2.757812-1.589844v3.183594zm0 0"/><path d="m95.402344 125.847656-2.761719-1.59375v3.1875zm0 0"/><path d="m92.640625 127.441406-2.757813-1.59375v3.183594zm0 0"/><path d="m92.640625 130.625-2.757813-1.59375v3.1875zm0 0"/><path d="m92.640625 136.996094-2.757813-1.59375v3.1875zm0 0"/><path d="m92.640625 140.183594-2.757813-1.59375v3.183594zm0 0"/><path d="m92.640625 226.1875-2.757813-1.589844v3.183594zm0 0"/><path d="m92.640625 229.375-2.757813-1.59375v3.1875zm0 0"/><path d="m92.640625 232.558594-2.757813-1.589844v3.183594zm0 0"/><path d="m95.402344 234.152344-2.761719-1.59375v3.1875zm0 0"/><path d="m98.160156 235.746094-2.757812-1.59375v3.183594zm0 0"/><path d="m100.917969 237.335938-2.757813-1.589844v3.183594zm0 0"/><path d="m178.160156 281.933594-2.757812-1.59375v3.1875zm0 0"/><path d="m180.917969 283.527344-2.757813-1.59375v3.1875zm0 0"/><path d="m186.4375 280.339844-2.757812-1.589844v3.183594zm0 0"/><path d="m266.4375 234.152344-2.757812-1.59375v3.1875zm0 0"/><path d="m269.195312 232.558594-2.757812-1.589844v3.183594zm0 0"/><path d="m274.714844 229.375-2.757813-1.59375v3.1875zm0 0"/><path d="m274.714844 226.1875-2.757813-1.589844v3.183594zm0 0"/><path d="m274.714844 223.003906-2.757813-1.59375v3.1875zm0 0"/><path d="m274.714844 133.8125-2.757813-1.59375v3.183594zm0 0"/><path d="m274.714844 127.441406-2.757813-1.59375v3.183594zm0 0"/><path d="m271.957031 125.847656-2.761719-1.59375v3.1875zm0 0"/><path d="m269.195312 124.253906-2.757812-1.589844v3.183594zm0 0"/><path d="m191.953125 79.660156-2.757813-1.59375v3.183594zm0 0"/><path d="m186.4375 76.472656-2.757812-1.59375v3.1875zm0 0"/><path d="m183.679688 74.878906-2.761719-1.589844v3.183594zm0 0"/><path d="m180.917969 73.289062-2.757813-1.59375v3.183594zm0 0"/><path d="m178.160156 74.878906-2.757812-1.589844v3.183594zm0 0"/><path d="m98.160156 121.070312-2.757812-1.59375v3.1875zm0 0"/><path d="m92.640625 124.253906-2.757813-1.589844v3.183594zm0 0"/><path d="m89.882812 125.847656-2.757812-1.59375v3.1875zm0 0"/><path d="m89.882812 129.03125-2.757812-1.589844v3.183594zm0 0"/><path d="m89.882812 132.21875-2.757812-1.59375v3.1875zm0 0"/><path d="m89.882812 227.78125-2.757812-1.59375v3.1875zm0 0"/><path d="m89.882812 230.96875-2.757812-1.59375v3.183594zm0 0"/><path d="m89.882812 234.152344-2.757812-1.59375v3.1875zm0 0"/><path d="m95.402344 237.335938-2.761719-1.589844v3.183594zm0 0"/><path d="m175.402344 283.527344-2.757813-1.59375v3.1875zm0 0"/><path d="m178.160156 285.121094-2.757812-1.59375v3.183594zm0 0"/><path d="m183.679688 285.121094-2.761719-1.59375v3.183594zm0 0"/><path d="m271.957031 234.152344-2.761719-1.59375v3.1875zm0 0"/><path d="m277.472656 224.597656-2.757812-1.59375v3.183594zm0 0"/><path d="m277.472656 135.402344-2.757812-1.589844v3.183594zm0 0"/><path d="m274.714844 124.253906-2.757813-1.589844v3.183594zm0 0"/><path d="m186.4375 73.289062-2.757812-1.59375v3.183594zm0 0"/><path d="m95.402344 119.476562-2.761719-1.59375v3.1875zm0 0"/><path d="m87.125 130.625-2.757812-1.59375v3.1875zm0 0"/><path d="m87.125 232.558594-2.757812-1.589844v3.183594zm0 0"/><path d="m92.640625 238.929688-2.757813-1.59375v3.1875zm0 0"/><path d="m172.644531 285.121094-2.757812-1.59375v3.183594zm0 0"/><path d="m180.917969 289.898438-2.757813-1.59375v3.1875zm0 0"/><path d="m183.679688 288.304688-2.761719-1.59375v3.1875zm0 0"/><path d="m186.4375 286.710938-2.757812-1.589844v3.183594zm0 0"/><path d="m191.953125 283.527344-2.757813-1.59375v3.1875zm0 0"/><path d="m269.195312 238.929688-2.757812-1.59375v3.1875zm0 0"/><path d="m271.957031 237.335938-2.761719-1.589844v3.183594zm0 0"/><path d="m274.714844 235.746094-2.757813-1.59375v3.183594zm0 0"/><path d="m280.230469 232.558594-2.757813-1.589844v3.183594zm0 0"/><path d="m280.230469 130.625-2.757813-1.59375v3.1875zm0 0"/><path d="m277.472656 122.664062-2.757812-1.59375v3.183594zm0 0"/><path d="m274.714844 121.070312-2.757813-1.59375v3.1875zm0 0"/><path d="m271.957031 119.476562-2.761719-1.59375v3.1875zm0 0"/><path d="m189.195312 71.695312-2.757812-1.59375v3.1875zm0 0"/><path d="m186.4375 70.101562-2.757812-1.59375v3.1875zm0 0"/><path d="m183.679688 68.507812-2.761719-1.589843v3.183593zm0 0"/><path d="m84.367188 132.21875-2.757813-1.59375v3.1875zm0 0"/><path d="m84.367188 234.152344-2.757813-1.59375v3.1875zm0 0"/><path d="m92.640625 242.117188-2.757813-1.59375v3.183593zm0 0"/><path d="m180.917969 293.082031-2.757813-1.589843v3.183593zm0 0"/><path d="m189.195312 288.304688-2.757812-1.59375v3.1875zm0 0"/><path d="m269.195312 242.117188-2.757812-1.59375v3.183593zm0 0"/><path d="m277.472656 237.335938-2.757812-1.589844v3.183594zm0 0"/><path d="m305.058594 208.667969-2.757813-1.589844v3.183594zm0 0"/><path d="m305.058594 157.703125-2.757813-1.59375v3.183594zm0 0"/><path d="m269.195312 89.214844-2.757812-1.59375v3.1875zm0 0"/><path d="m225.058594 63.730469-2.757813-1.589844v3.183594zm0 0"/><path d="m180.917969 38.246094-2.757813-1.589844v3.183594zm0 0"/><path d="m145.058594 58.953125-2.761719-1.59375v3.1875zm0 0"/><path d="m136.78125 63.730469-2.757812-1.589844v3.183594zm0 0"/><path d="m100.917969 84.4375-2.757813-1.59375v3.1875zm0 0"/><path d="m92.640625 89.214844-2.757813-1.59375v3.1875zm0 0"/><path d="m59.539062 156.109375-2.757812-1.59375v3.1875zm0 0"/><path d="m59.539062 207.078125-2.757812-1.59375v3.183594zm0 0"/><path d="m95.402344 272.378906-2.761719-1.59375v3.183594zm0 0"/><path d="m98.160156 273.96875-2.757812-1.589844v3.183594zm0 0"/><path d="m100.917969 275.5625-2.757813-1.59375v3.1875zm0 0"/><path d="m139.539062 297.859375-2.757812-1.589844v3.183594zm0 0"/><path d="m142.296875 299.453125-2.757813-1.59375v3.1875zm0 0"/><path d="m145.058594 301.046875-2.761719-1.59375v3.1875zm0 0"/><path d="m307.820312 207.078125-2.761718-1.59375v3.183594zm0 0"/><path d="m307.820312 156.109375-2.761718-1.59375v3.1875zm0 0"/><path d="m305.058594 106.734375-2.757813-1.59375v3.1875zm0 0"/><path d="m269.195312 86.03125-2.757812-1.59375v3.183594zm0 0"/><path d="m260.921875 81.25-2.757813-1.589844v3.183594zm0 0"/><path d="m225.058594 60.546875-2.757813-1.59375v3.1875zm0 0"/><path d="m216.78125 55.769531-2.757812-1.59375v3.183594zm0 0"/><path d="m180.917969 35.0625-2.757813-1.59375v3.1875zm0 0"/><path d="m147.816406 54.175781-2.757812-1.59375v3.1875zm0 0"/><path d="m142.296875 57.359375-2.757813-1.589844v3.183594zm0 0"/><path d="m139.539062 58.953125-2.757812-1.59375v3.1875zm0 0"/><path d="m136.78125 60.546875-2.757812-1.59375v3.1875zm0 0"/><path d="m103.675781 79.660156-2.757812-1.59375v3.183594zm0 0"/><path d="m98.160156 82.84375-2.757812-1.59375v3.1875zm0 0"/><path d="m95.402344 84.4375-2.761719-1.59375v3.1875zm0 0"/><path d="m92.640625 86.03125-2.757813-1.59375v3.183594zm0 0"/><path d="m59.539062 105.140625-2.757812-1.589844v3.183594zm0 0"/><path d="m56.78125 109.921875-2.761719-1.59375v3.183594zm0 0"/><path d="m56.78125 148.144531-2.761719-1.589843v3.183593zm0 0"/><path d="m56.78125 160.886719-2.761719-1.59375v3.1875zm0 0"/><path d="m56.78125 199.113281-2.761719-1.59375v3.1875zm0 0"/><path d="m56.78125 211.855469-2.761719-1.59375v3.183593zm0 0"/><path d="m56.78125 250.078125-2.761719-1.589844v3.183594zm0 0"/><path d="m98.160156 277.15625-2.757812-1.59375v3.1875zm0 0"/><path d="m142.296875 302.640625-2.757813-1.59375v3.183594zm0 0"/><path d="m183.679688 323.34375-2.761719-1.589844v3.183594zm0 0"/><path d="m227.816406 297.859375-2.757812-1.589844v3.183594zm0 0"/><path d="m271.957031 272.378906-2.761719-1.59375v3.183594zm0 0"/><path d="m310.578125 253.265625-2.757813-1.59375v3.1875zm0 0"/><path d="m310.578125 208.667969-2.757813-1.589844v3.183594zm0 0"/><path d="m310.578125 205.484375-2.757813-1.59375v3.1875zm0 0"/><path d="m310.578125 202.296875-2.757813-1.589844v3.183594zm0 0"/><path d="m310.578125 157.703125-2.757813-1.59375v3.183594zm0 0"/><path d="m310.578125 154.515625-2.757813-1.59375v3.1875zm0 0"/><path d="m310.578125 151.332031-2.757813-1.59375v3.183594zm0 0"/><path d="m310.578125 106.734375-2.757813-1.59375v3.1875zm0 0"/><path d="m307.820312 105.140625-2.761718-1.589844v3.183594zm0 0"/><path d="m271.957031 84.4375-2.761719-1.59375v3.1875zm0 0"/><path d="m266.4375 81.25-2.757812-1.589844v3.183594zm0 0"/><path d="m263.679688 79.660156-2.757813-1.59375v3.183594zm0 0"/><path d="m227.816406 58.953125-2.757812-1.59375v3.1875zm0 0"/><path d="m222.300781 55.769531-2.761719-1.59375v3.183594zm0 0"/><path d="m219.539062 54.175781-2.757812-1.59375v3.1875zm0 0"/><path d="m183.679688 33.46875-2.761719-1.589844v3.183594zm0 0"/><path d="m139.539062 55.769531-2.757812-1.59375v3.183594zm0 0"/><path d="m95.402344 81.25-2.761719-1.589844v3.183594zm0 0"/><path d="m54.019531 108.328125-2.757812-1.59375v3.1875zm0 0"/><path d="m54.019531 146.554688-2.757812-1.59375v3.183593zm0 0"/><path d="m54.019531 149.738281-2.757812-1.59375v3.1875zm0 0"/><path d="m54.019531 152.921875-2.757812-1.589844v3.183594zm0 0"/><path d="m54.019531 159.292969-2.757812-1.589844v3.183594zm0 0"/><path d="m54.019531 197.519531-2.757812-1.59375v3.1875zm0 0"/><path d="m54.019531 200.707031-2.757812-1.59375v3.183594zm0 0"/><path d="m54.019531 203.890625-2.757812-1.59375v3.1875zm0 0"/><path d="m54.019531 210.261719-2.757812-1.59375v3.1875zm0 0"/><path d="m54.019531 248.488281-2.757812-1.59375v3.183594zm0 0"/><path d="m54.019531 251.671875-2.757812-1.59375v3.1875zm0 0"/><path d="m54.019531 254.859375-2.757812-1.59375v3.183594zm0 0"/><path d="m59.539062 258.042969-2.757812-1.59375v3.1875zm0 0"/><path d="m92.640625 277.15625-2.757813-1.59375v3.1875zm0 0"/><path d="m95.402344 278.75-2.761719-1.59375v3.183594zm0 0"/><path d="m98.160156 280.339844-2.757812-1.589844v3.183594zm0 0"/><path d="m103.675781 283.527344-2.757812-1.59375v3.1875zm0 0"/><path d="m136.78125 302.640625-2.757812-1.59375v3.183594zm0 0"/><path d="m139.539062 304.230469-2.757812-1.589844v3.183594zm0 0"/><path d="m142.296875 305.824219-2.757813-1.59375v3.1875zm0 0"/><path d="m147.816406 309.011719-2.757812-1.59375v3.183593zm0 0"/><path d="m180.917969 328.121094-2.757813-1.589844v3.183594zm0 0"/><path d="m186.4375 324.9375-2.757812-1.59375v3.1875zm0 0"/><path d="m222.300781 304.230469-2.761719-1.589844v3.183594zm0 0"/><path d="m225.058594 302.640625-2.757813-1.59375v3.183594zm0 0"/><path d="m230.574219 299.453125-2.757813-1.59375v3.1875zm0 0"/><path d="m266.4375 278.75-2.757812-1.59375v3.183594zm0 0"/><path d="m269.195312 277.15625-2.757812-1.59375v3.1875zm0 0"/><path d="m274.714844 273.96875-2.757813-1.589844v3.183594zm0 0"/><path d="m313.335938 254.859375-2.757813-1.59375v3.183594zm0 0"/><path d="m313.335938 251.671875-2.757813-1.59375v3.1875zm0 0"/><path d="m313.335938 216.632812-2.757813-1.59375v3.1875zm0 0"/><path d="m313.335938 213.445312-2.757813-1.589843v3.183593zm0 0"/><path d="m313.335938 207.078125-2.757813-1.59375v3.183594zm0 0"/><path d="m313.335938 203.890625-2.757813-1.59375v3.1875zm0 0"/><path d="m313.335938 200.707031-2.757813-1.59375v3.183594zm0 0"/><path d="m313.335938 165.664062-2.757813-1.589843v3.183593zm0 0"/><path d="m313.335938 162.480469-2.757813-1.59375v3.1875zm0 0"/><path d="m313.335938 156.109375-2.757813-1.59375v3.1875zm0 0"/><path d="m313.335938 152.921875-2.757813-1.589844v3.183594zm0 0"/><path d="m313.335938 149.738281-2.757813-1.59375v3.1875zm0 0"/><path d="m313.335938 114.699219-2.757813-1.59375v3.1875zm0 0"/><path d="m313.335938 111.511719-2.757813-1.589844v3.183594zm0 0"/><path d="m313.335938 105.140625-2.757813-1.589844v3.183594zm0 0"/><path d="m310.578125 103.550781-2.757813-1.59375v3.183594zm0 0"/><path d="m277.472656 84.4375-2.757812-1.59375v3.1875zm0 0"/><path d="m274.714844 82.84375-2.757813-1.59375v3.1875zm0 0"/><path d="m271.957031 81.25-2.761719-1.589844v3.183594zm0 0"/><path d="m269.195312 79.660156-2.757812-1.59375v3.183594zm0 0"/><path d="m266.4375 78.066406-2.757812-1.59375v3.1875zm0 0"/><path d="m233.335938 58.953125-2.761719-1.59375v3.1875zm0 0"/><path d="m230.574219 57.359375-2.757813-1.589844v3.183594zm0 0"/><path d="m227.816406 55.769531-2.757812-1.59375v3.183594zm0 0"/><path d="m225.058594 54.175781-2.757813-1.59375v3.1875zm0 0"/><path d="m222.300781 52.582031-2.761719-1.59375v3.1875zm0 0"/><path d="m189.195312 33.46875-2.757812-1.589844v3.183594zm0 0"/><path d="m186.4375 31.878906-2.757812-1.59375v3.183594zm0 0"/><path d="m183.679688 30.285156-2.761719-1.59375v3.1875zm0 0"/><path d="m180.917969 28.691406-2.757813-1.59375v3.1875zm0 0"/><path d="m178.160156 30.285156-2.757812-1.59375v3.1875zm0 0"/><path d="m142.296875 50.988281-2.757813-1.589843v3.183593zm0 0"/><path d="m136.78125 54.175781-2.757812-1.59375v3.1875zm0 0"/><path d="m134.023438 55.769531-2.761719-1.59375v3.183594zm0 0"/><path d="m98.160156 76.472656-2.757812-1.59375v3.1875zm0 0"/><path d="m92.640625 79.660156-2.757813-1.59375v3.183594zm0 0"/><path d="m89.882812 81.25-2.757812-1.589844v3.183594zm0 0"/><path d="m54.019531 101.957031-2.757812-1.59375v3.1875zm0 0"/><path d="m51.261719 106.734375-2.757813-1.59375v3.1875zm0 0"/><path d="m51.261719 109.921875-2.757813-1.59375v3.183594zm0 0"/><path d="m51.261719 144.960938-2.757813-1.59375v3.1875zm0 0"/><path d="m51.261719 151.332031-2.757813-1.59375v3.183594zm0 0"/><path d="m51.261719 157.703125-2.757813-1.59375v3.183594zm0 0"/><path d="m51.261719 160.886719-2.757813-1.59375v3.1875zm0 0"/><path d="m51.261719 195.925781-2.757813-1.589843v3.183593zm0 0"/><path d="m51.261719 202.296875-2.757813-1.589844v3.183594zm0 0"/><path d="m51.261719 208.667969-2.757813-1.589844v3.183594zm0 0"/><path d="m51.261719 211.855469-2.757813-1.59375v3.183593zm0 0"/><path d="m51.261719 246.894531-2.757813-1.59375v3.1875zm0 0"/><path d="m51.261719 253.265625-2.757813-1.59375v3.1875zm0 0"/><path d="m89.882812 278.75-2.757812-1.59375v3.183594zm0 0"/><path d="m92.640625 280.339844-2.757813-1.589844v3.183594zm0 0"/><path d="m134.023438 304.230469-2.761719-1.589844v3.183594zm0 0"/><path d="m136.78125 305.824219-2.757812-1.59375v3.1875zm0 0"/><path d="m178.160156 329.714844-2.757812-1.59375v3.1875zm0 0"/><path d="m180.917969 331.308594-2.757813-1.59375v3.1875zm0 0"/><path d="m183.679688 329.714844-2.761719-1.59375v3.1875zm0 0"/><path d="m186.4375 328.121094-2.757812-1.589844v3.183594zm0 0"/><path d="m189.195312 326.53125-2.757812-1.59375v3.183594zm0 0"/><path d="m216.78125 310.601562-2.757812-1.589843v3.183593zm0 0"/><path d="m219.539062 309.011719-2.757812-1.59375v3.183593zm0 0"/><path d="m222.300781 307.417969-2.761719-1.59375v3.1875zm0 0"/><path d="m225.058594 305.824219-2.757813-1.59375v3.1875zm0 0"/><path d="m227.816406 304.230469-2.757812-1.589844v3.183594zm0 0"/><path d="m230.574219 302.640625-2.757813-1.59375v3.183594zm0 0"/><path d="m233.335938 301.046875-2.761719-1.59375v3.1875zm0 0"/><path d="m260.921875 285.121094-2.757813-1.59375v3.183594zm0 0"/><path d="m263.679688 283.527344-2.757813-1.59375v3.1875zm0 0"/><path d="m266.4375 281.933594-2.757812-1.59375v3.1875zm0 0"/><path d="m269.195312 280.339844-2.757812-1.589844v3.183594zm0 0"/><path d="m271.957031 278.75-2.761719-1.59375v3.183594zm0 0"/><path d="m274.714844 277.15625-2.757813-1.59375v3.1875zm0 0"/><path d="m277.472656 275.5625-2.757812-1.59375v3.1875zm0 0"/><path d="m305.058594 259.636719-2.757813-1.59375v3.1875zm0 0"/><path d="m307.820312 258.042969-2.761718-1.59375v3.1875zm0 0"/><path d="m310.578125 256.449219-2.757813-1.589844v3.183594zm0 0"/><path d="m316.09375 253.265625-2.757812-1.59375v3.1875zm0 0"/><path d="m316.09375 246.894531-2.757812-1.59375v3.1875zm0 0"/><path d="m316.09375 211.855469-2.757812-1.59375v3.183593zm0 0"/><path d="m316.09375 208.667969-2.757812-1.589844v3.183594zm0 0"/><path d="m316.09375 202.296875-2.757812-1.589844v3.183594zm0 0"/><path d="m316.09375 195.925781-2.757812-1.589843v3.183593zm0 0"/><path d="m316.09375 160.886719-2.757812-1.59375v3.1875zm0 0"/><path d="m316.09375 157.703125-2.757812-1.59375v3.183594zm0 0"/><path d="m316.09375 151.332031-2.757812-1.59375v3.183594zm0 0"/><path d="m316.09375 144.960938-2.757812-1.59375v3.1875zm0 0"/><path d="m316.09375 109.921875-2.757812-1.59375v3.183594zm0 0"/><path d="m316.09375 106.734375-2.757812-1.59375v3.1875zm0 0"/><path d="m313.335938 101.957031-2.757813-1.59375v3.1875zm0 0"/><path d="m310.578125 100.363281-2.757813-1.59375v3.1875zm0 0"/><path d="m269.195312 76.472656-2.757812-1.59375v3.1875zm0 0"/><path d="m266.4375 74.878906-2.757812-1.589844v3.183594zm0 0"/><path d="m225.058594 50.988281-2.757813-1.589843v3.183593zm0 0"/><path d="m222.300781 49.398438-2.761719-1.59375v3.183593zm0 0"/><path d="m180.917969 25.507812-2.757813-1.59375v3.183594zm0 0"/><path d="m178.160156 27.097656-2.757812-1.589844v3.183594zm0 0"/><path d="m175.402344 28.691406-2.757813-1.59375v3.1875zm0 0"/><path d="m172.644531 30.285156-2.757812-1.59375v3.1875zm0 0"/><path d="m145.058594 46.210938-2.761719-1.59375v3.1875zm0 0"/><path d="m142.296875 47.804688-2.757813-1.59375v3.1875zm0 0"/><path d="m139.539062 49.398438-2.757812-1.59375v3.183593zm0 0"/><path d="m136.78125 50.988281-2.757812-1.589843v3.183593zm0 0"/><path d="m134.023438 52.582031-2.761719-1.59375v3.1875zm0 0"/><path d="m131.261719 54.175781-2.757813-1.59375v3.1875zm0 0"/><path d="m128.503906 55.769531-2.757812-1.59375v3.183594zm0 0"/><path d="m100.917969 71.695312-2.757813-1.59375v3.1875zm0 0"/><path d="m98.160156 73.289062-2.757812-1.59375v3.183594zm0 0"/><path d="m95.402344 74.878906-2.761719-1.589844v3.183594zm0 0"/><path d="m92.640625 76.472656-2.757813-1.59375v3.1875zm0 0"/><path d="m89.882812 78.066406-2.757812-1.59375v3.1875zm0 0"/><path d="m87.125 79.660156-2.757812-1.59375v3.183594zm0 0"/><path d="m84.367188 81.25-2.757813-1.589844v3.183594zm0 0"/><path d="m56.78125 97.179688-2.761719-1.59375v3.183593zm0 0"/><path d="m54.019531 98.769531-2.757812-1.589843v3.183593zm0 0"/><path d="m51.261719 100.363281-2.757813-1.59375v3.1875zm0 0"/><path d="m48.503906 101.957031-2.757812-1.59375v3.1875zm0 0"/><path d="m48.503906 105.140625-2.757812-1.589844v3.183594zm0 0"/><path d="m48.503906 111.511719-2.757812-1.589844v3.183594zm0 0"/><path d="m48.503906 114.699219-2.757812-1.59375v3.1875zm0 0"/><path d="m48.503906 149.738281-2.757812-1.59375v3.1875zm0 0"/><path d="m48.503906 152.921875-2.757812-1.589844v3.183594zm0 0"/><path d="m48.503906 156.109375-2.757812-1.59375v3.1875zm0 0"/><path d="m48.503906 162.480469-2.757812-1.59375v3.1875zm0 0"/><path d="m48.503906 165.664062-2.757812-1.589843v3.183593zm0 0"/><path d="m48.503906 200.707031-2.757812-1.59375v3.183594zm0 0"/><path d="m48.503906 203.890625-2.757812-1.59375v3.1875zm0 0"/><path d="m48.503906 207.078125-2.757812-1.59375v3.183594zm0 0"/><path d="m48.503906 213.445312-2.757812-1.589843v3.183593zm0 0"/><path d="m48.503906 216.632812-2.757812-1.59375v3.1875zm0 0"/><path d="m48.503906 251.671875-2.757812-1.59375v3.1875zm0 0"/><path d="m48.503906 254.859375-2.757812-1.59375v3.183594zm0 0"/><path d="m48.503906 258.042969-2.757812-1.59375v3.1875zm0 0"/><path d="m51.261719 259.636719-2.757813-1.59375v3.1875zm0 0"/><path d="m54.019531 261.230469-2.757812-1.59375v3.183593zm0 0"/><path d="m56.78125 262.820312-2.761719-1.589843v3.183593zm0 0"/><path d="m89.882812 281.933594-2.757812-1.59375v3.1875zm0 0"/><path d="m92.640625 283.527344-2.757813-1.59375v3.1875zm0 0"/><path d="m95.402344 285.121094-2.761719-1.59375v3.183594zm0 0"/><path d="m98.160156 286.710938-2.757812-1.589844v3.183594zm0 0"/><path d="m100.917969 288.304688-2.757813-1.59375v3.1875zm0 0"/><path d="m134.023438 307.417969-2.761719-1.59375v3.1875zm0 0"/><path d="m136.78125 309.011719-2.757812-1.59375v3.183593zm0 0"/><path d="m139.539062 310.601562-2.757812-1.589843v3.183593zm0 0"/><path d="m142.296875 312.195312-2.757813-1.59375v3.1875zm0 0"/><path d="m145.058594 313.789062-2.761719-1.59375v3.1875zm0 0"/><path d="m178.160156 332.902344-2.757812-1.59375v3.183594zm0 0"/><path d="m180.917969 334.492188-2.757813-1.589844v3.183594zm0 0"/><path d="m186.4375 331.308594-2.757812-1.59375v3.1875zm0 0"/><path d="m222.300781 310.601562-2.761719-1.589843v3.183593zm0 0"/><path d="m225.058594 309.011719-2.757813-1.59375v3.183593zm0 0"/><path d="m230.574219 305.824219-2.757813-1.59375v3.1875zm0 0"/><path d="m266.4375 285.121094-2.757812-1.59375v3.183594zm0 0"/><path d="m269.195312 283.527344-2.757812-1.59375v3.1875zm0 0"/><path d="m274.714844 280.339844-2.757813-1.589844v3.183594zm0 0"/><path d="m310.578125 259.636719-2.757813-1.59375v3.1875zm0 0"/><path d="m313.335938 258.042969-2.757813-1.59375v3.1875zm0 0"/><path d="m318.851562 254.859375-2.757812-1.59375v3.183594zm0 0"/><path d="m318.851562 251.671875-2.757812-1.59375v3.1875zm0 0"/><path d="m318.851562 248.488281-2.757812-1.59375v3.183594zm0 0"/><path d="m318.851562 210.261719-2.757812-1.59375v3.1875zm0 0"/><path d="m318.851562 203.890625-2.757812-1.59375v3.1875zm0 0"/><path d="m318.851562 200.707031-2.757812-1.59375v3.183594zm0 0"/><path d="m318.851562 197.519531-2.757812-1.59375v3.1875zm0 0"/><path d="m318.851562 159.292969-2.757812-1.589844v3.183594zm0 0"/><path d="m318.851562 152.921875-2.757812-1.589844v3.183594zm0 0"/><path d="m318.851562 149.738281-2.757812-1.59375v3.1875zm0 0"/><path d="m318.851562 146.554688-2.757812-1.59375v3.183593zm0 0"/><path d="m318.851562 108.328125-2.757812-1.59375v3.1875zm0 0"/><path d="m318.851562 101.957031-2.757812-1.59375v3.1875zm0 0"/><path d="m316.09375 100.363281-2.757812-1.59375v3.1875zm0 0"/><path d="m313.335938 98.769531-2.757813-1.589843v3.183593zm0 0"/><path d="m280.230469 79.660156-2.757813-1.59375v3.183594zm0 0"/><path d="m274.714844 76.472656-2.757813-1.59375v3.1875zm0 0"/><path d="m271.957031 74.878906-2.761719-1.589844v3.183594zm0 0"/><path d="m269.195312 73.289062-2.757812-1.59375v3.183594zm0 0"/><path d="m236.09375 54.175781-2.757812-1.59375v3.1875zm0 0"/><path d="m230.574219 50.988281-2.757813-1.589843v3.183593zm0 0"/><path d="m227.816406 49.398438-2.757812-1.59375v3.183593zm0 0"/><path d="m225.058594 47.804688-2.757813-1.59375v3.1875zm0 0"/><path d="m191.953125 28.691406-2.757813-1.59375v3.1875zm0 0"/><path d="m186.4375 25.507812-2.757812-1.59375v3.183594zm0 0"/><path d="m183.679688 23.914062-2.761719-1.59375v3.1875zm0 0"/><path d="m180.917969 22.320312-2.757813-1.59375v3.1875zm0 0"/><path d="m178.160156 23.914062-2.757812-1.59375v3.1875zm0 0"/><path d="m142.296875 44.617188-2.757813-1.589844v3.183594zm0 0"/><path d="m136.78125 47.804688-2.757812-1.59375v3.1875zm0 0"/><path d="m134.023438 49.398438-2.761719-1.59375v3.183593zm0 0"/><path d="m98.160156 70.101562-2.757812-1.59375v3.1875zm0 0"/><path d="m92.640625 73.289062-2.757813-1.59375v3.183594zm0 0"/><path d="m89.882812 74.878906-2.757812-1.589844v3.183594zm0 0"/><path d="m54.019531 95.585938-2.757812-1.59375v3.1875zm0 0"/><path d="m48.503906 98.769531-2.757812-1.589843v3.183593zm0 0"/><path d="m45.746094 100.363281-2.761719-1.59375v3.1875zm0 0"/><path d="m45.746094 103.550781-2.761719-1.59375v3.183594zm0 0"/><path d="m45.746094 106.734375-2.761719-1.59375v3.1875zm0 0"/><path d="m45.746094 151.332031-2.761719-1.59375v3.183594zm0 0"/><path d="m45.746094 154.515625-2.761719-1.59375v3.1875zm0 0"/><path d="m45.746094 157.703125-2.761719-1.59375v3.183594zm0 0"/><path d="m45.746094 202.296875-2.761719-1.589844v3.183594zm0 0"/><path d="m45.746094 205.484375-2.761719-1.59375v3.1875zm0 0"/><path d="m45.746094 208.667969-2.761719-1.589844v3.183594zm0 0"/><path d="m45.746094 253.265625-2.761719-1.59375v3.1875zm0 0"/><path d="m45.746094 256.449219-2.761719-1.589844v3.183594zm0 0"/><path d="m45.746094 259.636719-2.761719-1.59375v3.1875zm0 0"/><path d="m51.261719 262.820312-2.757813-1.589843v3.183593zm0 0"/><path d="m87.125 283.527344-2.757812-1.59375v3.1875zm0 0"/><path d="m89.882812 285.121094-2.757812-1.59375v3.183594zm0 0"/><path d="m95.402344 288.304688-2.761719-1.59375v3.1875zm0 0"/><path d="m131.261719 309.011719-2.757813-1.59375v3.183593zm0 0"/><path d="m134.023438 310.601562-2.761719-1.589843v3.183593zm0 0"/><path d="m139.539062 313.789062-2.757812-1.59375v3.1875zm0 0"/><path d="m175.402344 334.492188-2.757813-1.589844v3.183594zm0 0"/><path d="m178.160156 336.085938-2.757812-1.59375v3.1875zm0 0"/><path d="m183.679688 336.085938-2.761719-1.59375v3.1875zm0 0"/><path d="m227.816406 310.601562-2.757812-1.589843v3.183593zm0 0"/><path d="m271.957031 285.121094-2.761719-1.59375v3.183594zm0 0"/><path d="m316.09375 259.636719-2.757812-1.59375v3.1875zm0 0"/><path d="m321.613281 250.078125-2.761719-1.589844v3.183594zm0 0"/><path d="m321.613281 211.855469-2.761719-1.59375v3.183593zm0 0"/><path d="m321.613281 199.113281-2.761719-1.59375v3.1875zm0 0"/><path d="m321.613281 160.886719-2.761719-1.59375v3.1875zm0 0"/><path d="m321.613281 148.144531-2.761719-1.589843v3.183593zm0 0"/><path d="m321.613281 109.921875-2.761719-1.59375v3.183594zm0 0"/><path d="m318.851562 98.769531-2.757812-1.589843v3.183593zm0 0"/><path d="m274.714844 73.289062-2.757813-1.59375v3.183594zm0 0"/><path d="m230.574219 47.804688-2.757813-1.59375v3.1875zm0 0"/><path d="m186.4375 22.320312-2.757812-1.59375v3.1875zm0 0"/><path d="m139.539062 43.027344-2.757812-1.59375v3.183594zm0 0"/><path d="m95.402344 68.507812-2.761719-1.589843v3.183593zm0 0"/><path d="m51.261719 93.992188-2.757813-1.589844v3.183594zm0 0"/><path d="m42.984375 105.140625-2.757813-1.589844v3.183594zm0 0"/><path d="m42.984375 156.109375-2.757813-1.59375v3.1875zm0 0"/><path d="m42.984375 207.078125-2.757813-1.59375v3.183594zm0 0"/><path d="m42.984375 258.042969-2.757813-1.59375v3.1875zm0 0"/><path d="m48.503906 264.414062-2.757812-1.59375v3.1875zm0 0"/><path d="m84.367188 285.121094-2.757813-1.59375v3.183594zm0 0"/><path d="m92.640625 289.898438-2.757813-1.59375v3.1875zm0 0"/><path d="m128.503906 310.601562-2.757812-1.589843v3.183593zm0 0"/><path d="m136.78125 315.382812-2.757812-1.59375v3.183594zm0 0"/><path d="m172.644531 336.085938-2.757812-1.59375v3.1875zm0 0"/><path d="m180.917969 340.863281-2.757813-1.589843v3.183593zm0 0"/><path d="m183.679688 339.273438-2.761719-1.59375v3.183593zm0 0"/><path d="m186.4375 337.679688-2.757812-1.59375v3.1875zm0 0"/><path d="m191.953125 334.492188-2.757813-1.589844v3.183594zm0 0"/><path d="m225.058594 315.382812-2.757813-1.59375v3.183594zm0 0"/><path d="m227.816406 313.789062-2.757812-1.59375v3.1875zm0 0"/><path d="m230.574219 312.195312-2.757813-1.59375v3.1875zm0 0"/><path d="m236.09375 309.011719-2.757812-1.59375v3.183593zm0 0"/><path d="m269.195312 289.898438-2.757812-1.59375v3.1875zm0 0"/><path d="m271.957031 288.304688-2.761719-1.59375v3.1875zm0 0"/><path d="m274.714844 286.710938-2.757813-1.589844v3.183594zm0 0"/><path d="m280.230469 283.527344-2.757813-1.59375v3.1875zm0 0"/><path d="m313.335938 264.414062-2.757813-1.59375v3.1875zm0 0"/><path d="m316.09375 262.820312-2.757812-1.589843v3.183593zm0 0"/><path d="m318.851562 261.230469-2.757812-1.59375v3.183593zm0 0"/><path d="m324.371094 258.042969-2.757813-1.59375v3.1875zm0 0"/><path d="m324.371094 207.078125-2.757813-1.59375v3.183594zm0 0"/><path d="m324.371094 156.109375-2.757813-1.59375v3.1875zm0 0"/><path d="m324.371094 105.140625-2.757813-1.589844v3.183594zm0 0"/><path d="m321.613281 97.179688-2.761719-1.59375v3.183593zm0 0"/><path d="m318.851562 95.585938-2.757812-1.59375v3.1875zm0 0"/><path d="m316.09375 93.992188-2.757812-1.589844v3.183594zm0 0"/><path d="m277.472656 71.695312-2.757812-1.59375v3.1875zm0 0"/><path d="m274.714844 70.101562-2.757813-1.59375v3.1875zm0 0"/><path d="m271.957031 68.507812-2.761719-1.589843v3.183593zm0 0"/><path d="m233.335938 46.210938-2.761719-1.59375v3.1875zm0 0"/><path d="m230.574219 44.617188-2.757813-1.589844v3.183594zm0 0"/><path d="m227.816406 43.027344-2.757812-1.59375v3.183594zm0 0"/><path d="m189.195312 20.726562-2.757812-1.589843v3.183593zm0 0"/><path d="m186.4375 19.136719-2.757812-1.59375v3.183593zm0 0"/><path d="m183.679688 17.542969-2.761719-1.59375v3.1875zm0 0"/><path d="m40.226562 106.734375-2.757812-1.59375v3.1875zm0 0"/><path d="m40.226562 157.703125-2.757812-1.59375v3.183594zm0 0"/><path d="m40.226562 208.667969-2.757812-1.589844v3.183594zm0 0"/><path d="m40.226562 259.636719-2.757812-1.59375v3.1875zm0 0"/><path d="m48.503906 267.597656-2.757812-1.589844v3.183594zm0 0"/><path d="m92.640625 293.082031-2.757813-1.589843v3.183593zm0 0"/><path d="m136.78125 318.566406-2.757812-1.59375v3.1875zm0 0"/><path d="m180.917969 344.050781-2.757813-1.59375v3.1875zm0 0"/><path d="m189.195312 339.273438-2.757812-1.59375v3.183593zm0 0"/><path d="m225.058594 318.566406-2.757813-1.59375v3.1875zm0 0"/><path d="m233.335938 313.789062-2.761719-1.59375v3.1875zm0 0"/><path d="m269.195312 293.082031-2.757812-1.589843v3.183593zm0 0"/><path d="m277.472656 288.304688-2.757812-1.59375v3.1875zm0 0"/><path d="m313.335938 267.597656-2.757813-1.589844v3.183594zm0 0"/><path d="m321.613281 262.820312-2.761719-1.589843v3.183593zm0 0"/></g></svg>