<svg height="360pt" viewBox="0 0 360 360" width="360pt" xmlns="http://www.w3.org/2000/svg"><path d="m0 0h360v360h-360z" fill="#800080"/><g fill="#fff" fill-rule="evenodd"><path d="m179.367188 171.796875 7.101562-4.101563v8.203126zm0 0"/><path d="m179.367188 188.203125 7.101562-4.101563v8.203126zm0 0"/><path d="m165.15625 180 7.105469-4.101562v8.203124zm0 0"/><path d="m193.574219 163.59375 7.101562-4.101562v8.203124zm0 0"/><path d="m179.367188 155.390625 7.101562-4.101563v8.203126zm0 0"/><path d="m179.367188 204.609375 7.101562-4.101563v8.203126zm0 0"/><path d="m193.574219 196.40625 7.101562-4.101562v8.203124zm0 0"/><path d="m200.675781 159.492188 7.105469-4.101563v8.203125zm0 0"/><path d="m179.367188 147.1875 7.101562-4.101562v8.203124zm0 0"/><path d="m150.949219 171.796875 7.105469-4.101563v8.203126zm0 0"/><path d="m150.949219 188.203125 7.105469-4.101563v8.203126zm0 0"/><path d="m179.367188 212.8125 7.101562-4.101562v8.203124zm0 0"/><path d="m200.675781 200.507812 7.105469-4.101562v8.203125zm0 0"/><path d="m143.847656 167.695312 7.101563-4.101562v8.203125zm0 0"/><path d="m143.847656 192.304688 7.101563-4.101563v8.203125zm0 0"/><path d="m207.78125 147.1875 7.105469-4.101562v8.203124zm0 0"/><path d="m186.46875 134.882812 7.105469-4.101562v8.203125zm0 0"/><path d="m186.46875 225.117188 7.105469-4.101563v8.203125zm0 0"/><path d="m207.78125 212.8125 7.105469-4.101562v8.203124zm0 0"/><path d="m221.988281 147.1875 7.105469-4.101562v8.203124zm0 0"/><path d="m207.78125 138.984375 7.105469-4.101563v8.203126zm0 0"/><path d="m193.574219 130.78125 7.101562-4.101562v8.203124zm0 0"/><path d="m179.367188 122.578125 7.101562-4.097656v8.199219zm0 0"/><path d="m129.636719 167.695312 7.105469-4.101562v8.203125zm0 0"/><path d="m129.636719 192.304688 7.105469-4.101563v8.203125zm0 0"/><path d="m179.367188 237.421875 7.101562-4.101563v8.199219zm0 0"/><path d="m193.574219 229.21875 7.101562-4.101562v8.203124zm0 0"/><path d="m207.78125 221.015625 7.105469-4.101563v8.203126zm0 0"/><path d="m221.988281 212.8125 7.105469-4.101562v8.203124zm0 0"/><path d="m229.09375 143.085938 7.101562-4.101563v8.203125zm0 0"/><path d="m214.886719 134.882812 7.101562-4.101562v8.203125zm0 0"/><path d="m207.78125 130.78125 7.105469-4.101562v8.203124zm0 0"/><path d="m200.675781 126.679688 7.105469-4.101563v8.203125zm0 0"/><path d="m193.574219 122.578125 7.101562-4.097656v8.199219zm0 0"/><path d="m179.367188 114.378906 7.101562-4.101562v8.203125zm0 0"/><path d="m122.535156 155.390625 7.101563-4.101563v8.203126zm0 0"/><path d="m122.535156 171.796875 7.101563-4.101563v8.203126zm0 0"/><path d="m122.535156 188.203125 7.101563-4.101563v8.203126zm0 0"/><path d="m122.535156 204.609375 7.101563-4.101563v8.203126zm0 0"/><path d="m179.367188 245.621094 7.101562-4.101563v8.203125zm0 0"/><path d="m193.574219 237.421875 7.101562-4.101563v8.199219zm0 0"/><path d="m200.675781 233.320312 7.105469-4.101562v8.203125zm0 0"/><path d="m207.78125 229.21875 7.105469-4.101562v8.203124zm0 0"/><path d="m214.886719 225.117188 7.101562-4.101563v8.203125zm0 0"/><path d="m229.09375 216.914062 7.101562-4.101562v8.203125zm0 0"/><path d="m221.988281 130.78125 7.105469-4.101562v8.203124zm0 0"/><path d="m193.574219 114.378906 7.101562-4.101562v8.203125zm0 0"/><path d="m115.429688 151.289062 7.105468-4.101562v8.203125zm0 0"/><path d="m115.429688 167.695312 7.105468-4.101562v8.203125zm0 0"/><path d="m115.429688 175.898438 7.105468-4.101563v8.203125zm0 0"/><path d="m115.429688 184.101562 7.105468-4.101562v8.203125zm0 0"/><path d="m115.429688 192.304688 7.105468-4.101563v8.203125zm0 0"/><path d="m115.429688 208.710938 7.105468-4.101563v8.203125zm0 0"/><path d="m193.574219 245.621094 7.101562-4.101563v8.203125zm0 0"/><path d="m221.988281 229.21875 7.105469-4.101562v8.203124zm0 0"/><path d="m236.195312 130.78125 7.105469-4.101562v8.203124zm0 0"/><path d="m229.09375 126.679688 7.101562-4.101563v8.203125zm0 0"/><path d="m221.988281 122.578125 7.105469-4.097656v8.199219zm0 0"/><path d="m200.675781 110.277344 7.105469-4.101563v8.203125zm0 0"/><path d="m193.574219 106.175781 7.101562-4.101562v8.203125zm0 0"/><path d="m186.46875 102.074219 7.105469-4.101563v8.203125zm0 0"/><path d="m108.328125 163.59375 7.101563-4.101562v8.203124zm0 0"/><path d="m108.328125 196.40625 7.101563-4.101562v8.203124zm0 0"/><path d="m186.46875 257.925781 7.105469-4.101562v8.203125zm0 0"/><path d="m193.574219 253.824219 7.101562-4.101563v8.203125zm0 0"/><path d="m200.675781 249.722656 7.105469-4.101562v8.203125zm0 0"/><path d="m221.988281 237.421875 7.105469-4.101563v8.199219zm0 0"/><path d="m229.09375 233.320312 7.101562-4.101562v8.203125zm0 0"/><path d="m236.195312 229.21875 7.105469-4.101562v8.203124zm0 0"/><path d="m250.402344 130.78125 7.105468-4.101562v8.203124zm0 0"/><path d="m221.988281 114.378906 7.105469-4.101562v8.203125zm0 0"/><path d="m207.78125 106.175781 7.105469-4.101562v8.203125zm0 0"/><path d="m179.367188 89.769531 7.101562-4.101562v8.203125zm0 0"/><path d="m101.222656 151.289062 7.105469-4.101562v8.203125zm0 0"/><path d="m101.222656 159.492188 7.105469-4.101563v8.203125zm0 0"/><path d="m101.222656 167.695312 7.105469-4.101562v8.203125zm0 0"/><path d="m101.222656 192.304688 7.105469-4.101563v8.203125zm0 0"/><path d="m101.222656 200.507812 7.105469-4.101562v8.203125zm0 0"/><path d="m101.222656 208.710938 7.105469-4.101563v8.203125zm0 0"/><path d="m179.367188 270.230469 7.101562-4.101563v8.203125zm0 0"/><path d="m207.78125 253.824219 7.105469-4.101563v8.203125zm0 0"/><path d="m221.988281 245.621094 7.105469-4.101563v8.203125zm0 0"/><path d="m250.402344 229.21875 7.105468-4.101562v8.203124zm0 0"/><path d="m257.507812 126.679688 7.105469-4.101563v8.203125zm0 0"/><path d="m229.09375 110.277344 7.101562-4.101563v8.203125zm0 0"/><path d="m221.988281 106.175781 7.105469-4.101562v8.203125zm0 0"/><path d="m214.886719 102.074219 7.101562-4.101563v8.203125zm0 0"/><path d="m207.78125 97.972656 7.105469-4.101562v8.203125zm0 0"/><path d="m179.367188 81.566406 7.101562-4.101562v8.203125zm0 0"/><path d="m94.117188 138.984375 7.105468-4.101563v8.203126zm0 0"/><path d="m94.117188 171.796875 7.105468-4.101563v8.203126zm0 0"/><path d="m94.117188 188.203125 7.105468-4.101563v8.203126zm0 0"/><path d="m94.117188 221.015625 7.105468-4.101563v8.203126zm0 0"/><path d="m179.367188 278.433594 7.101562-4.101563v8.203125zm0 0"/><path d="m207.78125 262.027344 7.105469-4.101563v8.203125zm0 0"/><path d="m214.886719 257.925781 7.101562-4.101562v8.203125zm0 0"/><path d="m221.988281 253.824219 7.105469-4.101563v8.203125zm0 0"/><path d="m229.09375 249.722656 7.101562-4.101562v8.203125zm0 0"/><path d="m257.507812 233.320312 7.105469-4.101562v8.203125zm0 0"/><path d="m236.195312 106.175781 7.105469-4.101562v8.203125zm0 0"/><path d="m207.78125 89.769531 7.105469-4.101562v8.203125zm0 0"/><path d="m87.015625 134.882812 7.101563-4.101562v8.203125zm0 0"/><path d="m87.015625 167.695312 7.101563-4.101562v8.203125zm0 0"/><path d="m87.015625 175.898438 7.101563-4.101563v8.203125zm0 0"/><path d="m87.015625 184.101562 7.101563-4.101562v8.203125zm0 0"/><path d="m87.015625 192.304688 7.101563-4.101563v8.203125zm0 0"/><path d="m87.015625 225.117188 7.101563-4.101563v8.203125zm0 0"/><path d="m207.78125 270.230469 7.105469-4.101563v8.203125zm0 0"/><path d="m236.195312 253.824219 7.105469-4.101563v8.203125zm0 0"/><path d="m264.613281 114.378906 7.101563-4.101562v8.203125zm0 0"/><path d="m243.300781 102.074219 7.101563-4.101563v8.203125zm0 0"/><path d="m236.195312 97.972656 7.105469-4.101562v8.203125zm0 0"/><path d="m214.886719 85.667969 7.101562-4.101563v8.203125zm0 0"/><path d="m207.78125 81.566406 7.105469-4.101562v8.203125zm0 0"/><path d="m186.46875 69.261719 7.105469-4.101563v8.203125zm0 0"/><path d="m79.910156 163.59375 7.105469-4.101562v8.203124zm0 0"/><path d="m79.910156 196.40625 7.105469-4.101562v8.203124zm0 0"/><path d="m186.46875 290.738281 7.105469-4.101562v8.203125zm0 0"/><path d="m207.78125 278.433594 7.105469-4.101563v8.203125zm0 0"/><path d="m214.886719 274.332031 7.101562-4.101562v8.203125zm0 0"/><path d="m236.195312 262.027344 7.105469-4.101563v8.203125zm0 0"/><path d="m243.300781 257.925781 7.101563-4.101562v8.203125zm0 0"/><path d="m264.613281 245.621094 7.101563-4.101563v8.203125zm0 0"/><path d="m264.613281 106.175781 7.101563-4.101562v8.203125zm0 0"/><path d="m250.402344 97.972656 7.105468-4.101562v8.203125zm0 0"/><path d="m236.195312 89.769531 7.105469-4.101562v8.203125zm0 0"/><path d="m221.988281 81.566406 7.105469-4.101562v8.203125zm0 0"/><path d="m207.78125 73.363281 7.105469-4.101562v8.203125zm0 0"/><path d="m193.574219 65.160156 7.101562-4.101562v8.203125zm0 0"/><path d="m72.808594 134.882812 7.101562-4.101562v8.203125zm0 0"/><path d="m72.808594 159.492188 7.101562-4.101563v8.203125zm0 0"/><path d="m72.808594 167.695312 7.101562-4.101562v8.203125zm0 0"/><path d="m72.808594 192.304688 7.101562-4.101563v8.203125zm0 0"/><path d="m72.808594 200.507812 7.101562-4.101562v8.203125zm0 0"/><path d="m72.808594 225.117188 7.101562-4.101563v8.203125zm0 0"/><path d="m193.574219 294.839844 7.101562-4.101563v8.203125zm0 0"/><path d="m207.78125 286.636719 7.105469-4.101563v8.203125zm0 0"/><path d="m221.988281 278.433594 7.105469-4.101563v8.203125zm0 0"/><path d="m236.195312 270.230469 7.105469-4.101563v8.203125zm0 0"/><path d="m250.402344 262.027344 7.105468-4.101563v8.203125zm0 0"/><path d="m264.613281 253.824219 7.101563-4.101563v8.203125zm0 0"/><path d="m285.921875 110.277344 7.105469-4.101563v8.203125zm0 0"/><path d="m278.820312 106.175781 7.101563-4.101562v8.203125zm0 0"/><path d="m271.714844 102.074219 7.105468-4.101563v8.203125zm0 0"/><path d="m264.613281 97.972656 7.101563-4.101562v8.203125zm0 0"/><path d="m257.507812 93.871094 7.105469-4.101563v8.203125zm0 0"/><path d="m250.402344 89.769531 7.105468-4.101562v8.203125zm0 0"/><path d="m243.300781 85.667969 7.101563-4.101563v8.203125zm0 0"/><path d="m236.195312 81.566406 7.105469-4.101562v8.203125zm0 0"/><path d="m229.09375 77.464844 7.101562-4.101563v8.203125zm0 0"/><path d="m221.988281 73.363281 7.105469-4.101562v8.203125zm0 0"/><path d="m214.886719 69.261719 7.101562-4.101563v8.203125zm0 0"/><path d="m207.78125 65.160156 7.105469-4.101562v8.203125zm0 0"/><path d="m200.675781 61.058594 7.105469-4.101563v8.203125zm0 0"/><path d="m193.574219 56.957031 7.101562-4.101562v8.203125zm0 0"/><path d="m186.46875 52.855469 7.105469-4.101563v8.203125zm0 0"/><path d="m179.367188 48.753906 7.101562-4.101562v8.203125zm0 0"/><path d="m65.703125 138.984375 7.105469-4.101563v8.203126zm0 0"/><path d="m65.703125 155.390625 7.105469-4.101563v8.203126zm0 0"/><path d="m65.703125 171.796875 7.105469-4.101563v8.203126zm0 0"/><path d="m65.703125 188.203125 7.105469-4.101563v8.203126zm0 0"/><path d="m65.703125 204.609375 7.105469-4.101563v8.203126zm0 0"/><path d="m65.703125 221.015625 7.105469-4.101563v8.203126zm0 0"/><path d="m179.367188 311.246094 7.101562-4.101563v8.203125zm0 0"/><path d="m186.46875 307.144531 7.105469-4.101562v8.203125zm0 0"/><path d="m193.574219 303.042969 7.101562-4.101563v8.203125zm0 0"/><path d="m200.675781 298.941406 7.105469-4.101562v8.203125zm0 0"/><path d="m207.78125 294.839844 7.105469-4.101563v8.203125zm0 0"/><path d="m214.886719 290.738281 7.101562-4.101562v8.203125zm0 0"/><path d="m221.988281 286.636719 7.105469-4.101563v8.203125zm0 0"/><path d="m229.09375 282.535156 7.101562-4.101562v8.203125zm0 0"/><path d="m236.195312 278.433594 7.105469-4.101563v8.203125zm0 0"/><path d="m243.300781 274.332031 7.101563-4.101562v8.203125zm0 0"/><path d="m250.402344 270.230469 7.105468-4.101563v8.203125zm0 0"/><path d="m257.507812 266.128906 7.105469-4.101562v8.203125zm0 0"/><path d="m264.613281 262.027344 7.101563-4.101563v8.203125zm0 0"/><path d="m271.714844 257.925781 7.105468-4.101562v8.203125zm0 0"/><path d="m278.820312 253.824219 7.101563-4.101563v8.203125zm0 0"/><path d="m285.921875 249.722656 7.105469-4.101562v8.203125zm0 0"/><path d="m58.597656 118.480469 7.105469-4.101563v8.199219zm0 0"/><path d="m58.597656 126.679688 7.105469-4.101563v8.203125zm0 0"/><path d="m58.597656 134.882812 7.105469-4.101562v8.203125zm0 0"/><path d="m58.597656 143.085938 7.105469-4.101563v8.203125zm0 0"/><path d="m58.597656 151.289062 7.105469-4.101562v8.203125zm0 0"/><path d="m58.597656 159.492188 7.105469-4.101563v8.203125zm0 0"/><path d="m58.597656 167.695312 7.105469-4.101562v8.203125zm0 0"/><path d="m58.597656 175.898438 7.105469-4.101563v8.203125zm0 0"/><path d="m58.597656 184.101562 7.105469-4.101562v8.203125zm0 0"/><path d="m58.597656 192.304688 7.105469-4.101563v8.203125zm0 0"/><path d="m58.597656 200.507812 7.105469-4.101562v8.203125zm0 0"/><path d="m58.597656 208.710938 7.105469-4.101563v8.203125zm0 0"/><path d="m58.597656 216.914062 7.105469-4.101562v8.203125zm0 0"/><path d="m58.597656 225.117188 7.105469-4.101563v8.203125zm0 0"/><path d="m58.597656 233.320312 7.105469-4.101562v8.203125zm0 0"/><path d="m58.597656 241.519531 7.105469-4.097656v8.199219zm0 0"/><path d="m193.574219 180-7.105469-4.101562v8.203124zm0 0"/><path d="m179.367188 171.796875-7.105469-4.101563v8.203126zm0 0"/><path d="m179.367188 188.203125-7.105469-4.101563v8.203126zm0 0"/><path d="m207.78125 188.203125-7.105469-4.101563v8.203126zm0 0"/><path d="m207.78125 171.796875-7.105469-4.101563v8.203126zm0 0"/><path d="m214.886719 192.304688-7.105469-4.101563v8.203125zm0 0"/><path d="m214.886719 167.695312-7.105469-4.101562v8.203125zm0 0"/><path d="m179.367188 155.390625-7.105469-4.101563v8.203126zm0 0"/><path d="m165.15625 163.59375-7.101562-4.101562v8.203124zm0 0"/><path d="m165.15625 196.40625-7.101562-4.101562v8.203124zm0 0"/><path d="m179.367188 204.609375-7.105469-4.101563v8.203126zm0 0"/><path d="m179.367188 147.1875-7.105469-4.101562v8.203124zm0 0"/><path d="m158.054688 159.492188-7.105469-4.101563v8.203125zm0 0"/><path d="m158.054688 200.507812-7.105469-4.101562v8.203125zm0 0"/><path d="m179.367188 212.8125-7.105469-4.101562v8.203124zm0 0"/><path d="m229.09375 192.304688-7.105469-4.101563v8.203125zm0 0"/><path d="m229.09375 167.695312-7.105469-4.101562v8.203125zm0 0"/><path d="m236.195312 204.609375-7.101562-4.101563v8.203126zm0 0"/><path d="m236.195312 188.203125-7.101562-4.101563v8.203126zm0 0"/><path d="m236.195312 171.796875-7.101562-4.101563v8.203126zm0 0"/><path d="m236.195312 155.390625-7.101562-4.101563v8.203126zm0 0"/><path d="m172.261719 134.882812-7.105469-4.101562v8.203125zm0 0"/><path d="m150.949219 147.1875-7.101563-4.101562v8.203124zm0 0"/><path d="m150.949219 212.8125-7.101563-4.101562v8.203124zm0 0"/><path d="m172.261719 225.117188-7.105469-4.101563v8.203125zm0 0"/><path d="m243.300781 208.710938-7.105469-4.101563v8.203125zm0 0"/><path d="m243.300781 192.304688-7.105469-4.101563v8.203125zm0 0"/><path d="m243.300781 184.101562-7.105469-4.101562v8.203125zm0 0"/><path d="m243.300781 175.898438-7.105469-4.101563v8.203125zm0 0"/><path d="m243.300781 167.695312-7.105469-4.101562v8.203125zm0 0"/><path d="m243.300781 151.289062-7.105469-4.101562v8.203125zm0 0"/><path d="m179.367188 122.578125-7.105469-4.097656v8.199219zm0 0"/><path d="m165.15625 130.78125-7.101562-4.101562v8.203124zm0 0"/><path d="m150.949219 138.984375-7.101563-4.101563v8.203126zm0 0"/><path d="m136.742188 147.1875-7.105469-4.101562v8.203124zm0 0"/><path d="m136.742188 212.8125-7.105469-4.101562v8.203124zm0 0"/><path d="m150.949219 221.015625-7.101563-4.101563v8.203126zm0 0"/><path d="m165.15625 229.21875-7.101562-4.101562v8.203124zm0 0"/><path d="m179.367188 237.421875-7.105469-4.101563v8.199219zm0 0"/><path d="m250.402344 196.40625-7.101563-4.101562v8.203124zm0 0"/><path d="m250.402344 163.59375-7.101563-4.101562v8.203124zm0 0"/><path d="m179.367188 114.378906-7.105469-4.101562v8.203125zm0 0"/><path d="m165.15625 122.578125-7.101562-4.097656v8.199219zm0 0"/><path d="m158.054688 126.679688-7.105469-4.101563v8.203125zm0 0"/><path d="m150.949219 130.78125-7.101563-4.101562v8.203124zm0 0"/><path d="m143.847656 134.882812-7.105468-4.101562v8.203125zm0 0"/><path d="m129.636719 143.085938-7.101563-4.101563v8.203125zm0 0"/><path d="m129.636719 216.914062-7.101563-4.101562v8.203125zm0 0"/><path d="m143.847656 225.117188-7.105468-4.101563v8.203125zm0 0"/><path d="m150.949219 229.21875-7.101563-4.101562v8.203124zm0 0"/><path d="m158.054688 233.320312-7.105469-4.101562v8.203125zm0 0"/><path d="m165.15625 237.421875-7.101562-4.101563v8.199219zm0 0"/><path d="m179.367188 245.621094-7.105469-4.101563v8.203125zm0 0"/><path d="m257.507812 208.710938-7.105468-4.101563v8.203125zm0 0"/><path d="m257.507812 200.507812-7.105468-4.101562v8.203125zm0 0"/><path d="m257.507812 192.304688-7.105468-4.101563v8.203125zm0 0"/><path d="m257.507812 167.695312-7.105468-4.101562v8.203125zm0 0"/><path d="m257.507812 159.492188-7.105468-4.101563v8.203125zm0 0"/><path d="m257.507812 151.289062-7.105468-4.101562v8.203125zm0 0"/><path d="m165.15625 114.378906-7.101562-4.101562v8.203125zm0 0"/><path d="m136.742188 130.78125-7.105469-4.101562v8.203124zm0 0"/><path d="m136.742188 229.21875-7.105469-4.101562v8.203124zm0 0"/><path d="m165.15625 245.621094-7.101562-4.101563v8.203125zm0 0"/><path d="m264.613281 221.015625-7.105469-4.101563v8.203126zm0 0"/><path d="m264.613281 188.203125-7.105469-4.101563v8.203126zm0 0"/><path d="m264.613281 171.796875-7.105469-4.101563v8.203126zm0 0"/><path d="m264.613281 138.984375-7.105469-4.101563v8.203126zm0 0"/><path d="m172.261719 102.074219-7.105469-4.101563v8.203125zm0 0"/><path d="m165.15625 106.175781-7.101562-4.101562v8.203125zm0 0"/><path d="m158.054688 110.277344-7.105469-4.101563v8.203125zm0 0"/><path d="m136.742188 122.578125-7.105469-4.097656v8.199219zm0 0"/><path d="m129.636719 126.679688-7.101563-4.101563v8.203125zm0 0"/><path d="m122.535156 130.78125-7.105468-4.101562v8.203124zm0 0"/><path d="m122.535156 229.21875-7.105468-4.101562v8.203124zm0 0"/><path d="m129.636719 233.320312-7.101563-4.101562v8.203125zm0 0"/><path d="m136.742188 237.421875-7.105469-4.101563v8.199219zm0 0"/><path d="m158.054688 249.722656-7.105469-4.101562v8.203125zm0 0"/><path d="m165.15625 253.824219-7.101562-4.101563v8.203125zm0 0"/><path d="m172.261719 257.925781-7.105469-4.101562v8.203125zm0 0"/><path d="m271.714844 225.117188-7.101563-4.101563v8.203125zm0 0"/><path d="m271.714844 192.304688-7.101563-4.101563v8.203125zm0 0"/><path d="m271.714844 184.101562-7.101563-4.101562v8.203125zm0 0"/><path d="m271.714844 175.898438-7.101563-4.101563v8.203125zm0 0"/><path d="m271.714844 167.695312-7.101563-4.101562v8.203125zm0 0"/><path d="m271.714844 134.882812-7.101563-4.101562v8.203125zm0 0"/><path d="m179.367188 89.769531-7.105469-4.101562v8.203125zm0 0"/><path d="m150.949219 106.175781-7.101563-4.101562v8.203125zm0 0"/><path d="m136.742188 114.378906-7.105469-4.101562v8.203125zm0 0"/><path d="m108.328125 130.78125-7.105469-4.101562v8.203124zm0 0"/><path d="m108.328125 229.21875-7.105469-4.101562v8.203124zm0 0"/><path d="m136.742188 245.621094-7.105469-4.101563v8.203125zm0 0"/><path d="m150.949219 253.824219-7.101563-4.101563v8.203125zm0 0"/><path d="m179.367188 270.230469-7.105469-4.101563v8.203125zm0 0"/><path d="m278.820312 196.40625-7.105468-4.101562v8.203124zm0 0"/><path d="m278.820312 163.59375-7.105468-4.101562v8.203124zm0 0"/><path d="m179.367188 81.566406-7.105469-4.101562v8.203125zm0 0"/><path d="m150.949219 97.972656-7.101563-4.101562v8.203125zm0 0"/><path d="m143.847656 102.074219-7.105468-4.101563v8.203125zm0 0"/><path d="m136.742188 106.175781-7.105469-4.101562v8.203125zm0 0"/><path d="m129.636719 110.277344-7.101563-4.101563v8.203125zm0 0"/><path d="m101.222656 126.679688-7.105468-4.101563v8.203125zm0 0"/><path d="m101.222656 233.320312-7.105468-4.101562v8.203125zm0 0"/><path d="m129.636719 249.722656-7.101563-4.101562v8.203125zm0 0"/><path d="m136.742188 253.824219-7.105469-4.101563v8.203125zm0 0"/><path d="m143.847656 257.925781-7.105468-4.101562v8.203125zm0 0"/><path d="m150.949219 262.027344-7.101563-4.101563v8.203125zm0 0"/><path d="m179.367188 278.433594-7.105469-4.101563v8.203125zm0 0"/><path d="m285.921875 225.117188-7.101563-4.101563v8.203125zm0 0"/><path d="m285.921875 200.507812-7.101563-4.101562v8.203125zm0 0"/><path d="m285.921875 192.304688-7.101563-4.101563v8.203125zm0 0"/><path d="m285.921875 167.695312-7.101563-4.101562v8.203125zm0 0"/><path d="m285.921875 159.492188-7.101563-4.101563v8.203125zm0 0"/><path d="m285.921875 134.882812-7.101563-4.101562v8.203125zm0 0"/><path d="m150.949219 89.769531-7.101563-4.101562v8.203125zm0 0"/><path d="m122.535156 106.175781-7.105468-4.101562v8.203125zm0 0"/><path d="m122.535156 253.824219-7.105468-4.101563v8.203125zm0 0"/><path d="m150.949219 270.230469-7.101563-4.101563v8.203125zm0 0"/><path d="m293.027344 221.015625-7.105469-4.101563v8.203126zm0 0"/><path d="m293.027344 204.609375-7.105469-4.101563v8.203126zm0 0"/><path d="m293.027344 188.203125-7.105469-4.101563v8.203126zm0 0"/><path d="m293.027344 171.796875-7.105469-4.101563v8.203126zm0 0"/><path d="m293.027344 155.390625-7.105469-4.101563v8.203126zm0 0"/><path d="m293.027344 138.984375-7.105469-4.101563v8.203126zm0 0"/><path d="m172.261719 69.261719-7.105469-4.101563v8.203125zm0 0"/><path d="m150.949219 81.566406-7.101563-4.101562v8.203125zm0 0"/><path d="m143.847656 85.667969-7.105468-4.101563v8.203125zm0 0"/><path d="m122.535156 97.972656-7.105468-4.101562v8.203125zm0 0"/><path d="m115.429688 102.074219-7.101563-4.101563v8.203125zm0 0"/><path d="m94.117188 114.378906-7.101563-4.101562v8.203125zm0 0"/><path d="m94.117188 245.621094-7.101563-4.101563v8.203125zm0 0"/><path d="m115.429688 257.925781-7.101563-4.101562v8.203125zm0 0"/><path d="m122.535156 262.027344-7.105468-4.101563v8.203125zm0 0"/><path d="m143.847656 274.332031-7.105468-4.101562v8.203125zm0 0"/><path d="m150.949219 278.433594-7.101563-4.101563v8.203125zm0 0"/><path d="m172.261719 290.738281-7.105469-4.101562v8.203125zm0 0"/><path d="m300.132812 241.519531-7.105468-4.097656v8.199219zm0 0"/><path d="m300.132812 233.320312-7.105468-4.101562v8.203125zm0 0"/><path d="m300.132812 225.117188-7.105468-4.101563v8.203125zm0 0"/><path d="m300.132812 216.914062-7.105468-4.101562v8.203125zm0 0"/><path d="m300.132812 208.710938-7.105468-4.101563v8.203125zm0 0"/><path d="m300.132812 200.507812-7.105468-4.101562v8.203125zm0 0"/><path d="m300.132812 192.304688-7.105468-4.101563v8.203125zm0 0"/><path d="m300.132812 184.101562-7.105468-4.101562v8.203125zm0 0"/><path d="m300.132812 175.898438-7.105468-4.101563v8.203125zm0 0"/><path d="m300.132812 167.695312-7.105468-4.101562v8.203125zm0 0"/><path d="m300.132812 159.492188-7.105468-4.101563v8.203125zm0 0"/><path d="m300.132812 151.289062-7.105468-4.101562v8.203125zm0 0"/><path d="m300.132812 143.085938-7.105468-4.101563v8.203125zm0 0"/><path d="m300.132812 134.882812-7.105468-4.101562v8.203125zm0 0"/><path d="m300.132812 126.679688-7.105468-4.101563v8.203125zm0 0"/><path d="m300.132812 118.480469-7.105468-4.101563v8.199219zm0 0"/><path d="m165.15625 65.160156-7.101562-4.101562v8.203125zm0 0"/><path d="m150.949219 73.363281-7.101563-4.101562v8.203125zm0 0"/><path d="m136.742188 81.566406-7.105469-4.101562v8.203125zm0 0"/><path d="m122.535156 89.769531-7.105468-4.101562v8.203125zm0 0"/><path d="m108.328125 97.972656-7.105469-4.101562v8.203125zm0 0"/><path d="m94.117188 106.175781-7.101563-4.101562v8.203125zm0 0"/><path d="m94.117188 253.824219-7.101563-4.101563v8.203125zm0 0"/><path d="m108.328125 262.027344-7.105469-4.101563v8.203125zm0 0"/><path d="m122.535156 270.230469-7.105468-4.101563v8.203125zm0 0"/><path d="m136.742188 278.433594-7.105469-4.101563v8.203125zm0 0"/><path d="m150.949219 286.636719-7.101563-4.101563v8.203125zm0 0"/><path d="m165.15625 294.839844-7.101562-4.101563v8.203125zm0 0"/><path d="m179.367188 48.753906-7.105469-4.101562v8.203125zm0 0"/><path d="m172.261719 52.855469-7.105469-4.101563v8.203125zm0 0"/><path d="m165.15625 56.957031-7.101562-4.101562v8.203125zm0 0"/><path d="m158.054688 61.058594-7.105469-4.101563v8.203125zm0 0"/><path d="m150.949219 65.160156-7.101563-4.101562v8.203125zm0 0"/><path d="m143.847656 69.261719-7.105468-4.101563v8.203125zm0 0"/><path d="m136.742188 73.363281-7.105469-4.101562v8.203125zm0 0"/><path d="m129.636719 77.464844-7.101563-4.101563v8.203125zm0 0"/><path d="m122.535156 81.566406-7.105468-4.101562v8.203125zm0 0"/><path d="m115.429688 85.667969-7.101563-4.101563v8.203125zm0 0"/><path d="m108.328125 89.769531-7.105469-4.101562v8.203125zm0 0"/><path d="m101.222656 93.871094-7.105468-4.101563v8.203125zm0 0"/><path d="m94.117188 97.972656-7.101563-4.101562v8.203125zm0 0"/><path d="m87.015625 102.074219-7.105469-4.101563v8.203125zm0 0"/><path d="m79.910156 106.175781-7.101562-4.101562v8.203125zm0 0"/><path d="m72.808594 110.277344-7.105469-4.101563v8.203125zm0 0"/><path d="m72.808594 249.722656-7.105469-4.101562v8.203125zm0 0"/><path d="m79.910156 253.824219-7.101562-4.101563v8.203125zm0 0"/><path d="m87.015625 257.925781-7.105469-4.101562v8.203125zm0 0"/><path d="m94.117188 262.027344-7.101563-4.101563v8.203125zm0 0"/><path d="m101.222656 266.128906-7.105468-4.101562v8.203125zm0 0"/><path d="m108.328125 270.230469-7.105469-4.101563v8.203125zm0 0"/><path d="m115.429688 274.332031-7.101563-4.101562v8.203125zm0 0"/><path d="m122.535156 278.433594-7.105468-4.101563v8.203125zm0 0"/><path d="m129.636719 282.535156-7.101563-4.101562v8.203125zm0 0"/><path d="m136.742188 286.636719-7.105469-4.101563v8.203125zm0 0"/><path d="m143.847656 290.738281-7.105468-4.101562v8.203125zm0 0"/><path d="m150.949219 294.839844-7.101563-4.101563v8.203125zm0 0"/><path d="m158.054688 298.941406-7.105469-4.101562v8.203125zm0 0"/><path d="m165.15625 303.042969-7.101562-4.101563v8.203125zm0 0"/><path d="m172.261719 307.144531-7.105469-4.101562v8.203125zm0 0"/><path d="m179.367188 311.246094-7.105469-4.101563v8.203125zm0 0"/></g></svg>