<svg height="360pt" viewBox="0 0 360 360" width="360pt" xmlns="http://www.w3.org/2000/svg"><path d="m0 0h360v360h-360z" fill="#fff"/><g fill="#800080" fill-rule="evenodd"><path d="m283.597656 240.171875 6.949219-4.011719v8.023438zm0 0"/><path d="m283.597656 232.148438 6.949219-4.011719v8.023437zm0 0"/><path d="m283.597656 224.125 6.949219-4.011719v8.023438zm0 0"/><path d="m283.597656 216.101562 6.949219-4.011718v8.023437zm0 0"/><path d="m283.597656 208.078125 6.949219-4.007813v8.019532zm0 0"/><path d="m283.597656 200.058594 6.949219-4.011719v8.023437zm0 0"/><path d="m283.597656 192.035156 6.949219-4.011718v8.023437zm0 0"/><path d="m283.597656 184.011719 6.949219-4.011719v8.023438zm0 0"/><path d="m283.597656 175.988281 6.949219-4.011719v8.023438zm0 0"/><path d="m283.597656 167.964844 6.949219-4.011719v8.023437zm0 0"/><path d="m283.597656 159.941406 6.949219-4.011718v8.023437zm0 0"/><path d="m283.597656 151.921875 6.949219-4.011719v8.019532zm0 0"/><path d="m283.597656 143.898438 6.949219-4.011719v8.023437zm0 0"/><path d="m283.597656 135.875 6.949219-4.011719v8.023438zm0 0"/><path d="m283.597656 127.851562 6.949219-4.011718v8.023437zm0 0"/><path d="m283.597656 119.828125 6.949219-4.011719v8.023438zm0 0"/><path d="m290.546875 244.183594 6.949219-4.011719v8.023437zm0 0"/><path d="m290.546875 236.160156 6.949219-4.011718v8.023437zm0 0"/><path d="m290.546875 228.136719 6.949219-4.011719v8.023438zm0 0"/><path d="m290.546875 220.113281 6.949219-4.011719v8.023438zm0 0"/><path d="m290.546875 212.089844 6.949219-4.011719v8.023437zm0 0"/><path d="m290.546875 204.070312 6.949219-4.011718v8.019531zm0 0"/><path d="m290.546875 196.046875 6.949219-4.011719v8.023438zm0 0"/><path d="m290.546875 188.023438 6.949219-4.011719v8.023437zm0 0"/><path d="m290.546875 180 6.949219-4.011719v8.023438zm0 0"/><path d="m290.546875 171.976562 6.949219-4.011718v8.023437zm0 0"/><path d="m290.546875 163.953125 6.949219-4.011719v8.023438zm0 0"/><path d="m290.546875 155.929688 6.949219-4.007813v8.019531zm0 0"/><path d="m290.546875 147.910156 6.949219-4.011718v8.023437zm0 0"/><path d="m290.546875 139.886719 6.949219-4.011719v8.023438zm0 0"/><path d="m290.546875 131.863281 6.949219-4.011719v8.023438zm0 0"/><path d="m290.546875 123.839844 6.949219-4.011719v8.023437zm0 0"/><path d="m290.546875 115.816406 6.949219-4.011718v8.023437zm0 0"/><path d="m283.597656 111.804688 6.949219-4.011719v8.023437zm0 0"/><path d="m276.652344 107.792969 6.945312-4.011719v8.023438zm0 0"/><path d="m269.703125 103.78125 6.949219-4.007812v8.019531zm0 0"/><path d="m262.753906 99.773438 6.949219-4.011719v8.019531zm0 0"/><path d="m255.808594 95.761719 6.945312-4.011719v8.023438zm0 0"/><path d="m248.859375 91.75 6.949219-4.011719v8.023438zm0 0"/><path d="m241.910156 87.738281 6.949219-4.011719v8.023438zm0 0"/><path d="m234.964844 83.726562 6.945312-4.011718v8.023437zm0 0"/><path d="m228.015625 79.714844 6.949219-4.011719v8.023437zm0 0"/><path d="m221.066406 75.703125 6.949219-4.011719v8.023438zm0 0"/><path d="m214.121094 71.691406 6.945312-4.011718v8.023437zm0 0"/><path d="m207.171875 67.679688 6.949219-4.011719v8.023437zm0 0"/><path d="m200.222656 63.667969 6.949219-4.011719v8.023438zm0 0"/><path d="m193.277344 59.65625 6.945312-4.011719v8.023438zm0 0"/><path d="m186.328125 55.644531 6.949219-4.011719v8.023438zm0 0"/><path d="m179.378906 51.632812 6.949219-4.011718v8.023437zm0 0"/><path d="m172.429688 55.644531 6.949218-4.011719v8.023438zm0 0"/><path d="m165.484375 59.65625 6.945313-4.011719v8.023438zm0 0"/><path d="m158.535156 63.667969 6.949219-4.011719v8.023438zm0 0"/><path d="m151.585938 67.679688 6.949218-4.011719v8.023437zm0 0"/><path d="m144.640625 71.691406 6.945313-4.011718v8.023437zm0 0"/><path d="m137.691406 75.703125 6.949219-4.011719v8.023438zm0 0"/><path d="m130.742188 79.714844 6.949218-4.011719v8.023437zm0 0"/><path d="m123.796875 83.726562 6.945313-4.011718v8.023437zm0 0"/><path d="m116.847656 87.738281 6.949219-4.011719v8.023438zm0 0"/><path d="m109.898438 91.75 6.949218-4.011719v8.023438zm0 0"/><path d="m102.953125 95.761719 6.945313-4.011719v8.023438zm0 0"/><path d="m96.003906 99.773438 6.949219-4.011719v8.019531zm0 0"/><path d="m89.054688 103.78125 6.949218-4.007812v8.019531zm0 0"/><path d="m82.109375 107.792969 6.945313-4.011719v8.023438zm0 0"/><path d="m75.160156 111.804688 6.949219-4.011719v8.023437zm0 0"/><path d="m68.210938 115.816406 6.949218-4.011718v8.023437zm0 0"/><path d="m68.210938 244.183594 6.949218-4.011719v8.023437zm0 0"/><path d="m75.160156 248.195312 6.949219-4.011718v8.023437zm0 0"/><path d="m82.109375 252.207031 6.945313-4.011719v8.023438zm0 0"/><path d="m89.054688 256.21875 6.949218-4.011719v8.019531zm0 0"/><path d="m96.003906 260.226562 6.949219-4.007812v8.019531zm0 0"/><path d="m102.953125 264.238281 6.945313-4.011719v8.023438zm0 0"/><path d="m109.898438 268.25 6.949218-4.011719v8.023438zm0 0"/><path d="m116.847656 272.261719 6.949219-4.011719v8.023438zm0 0"/><path d="m123.796875 276.273438 6.945313-4.011719v8.023437zm0 0"/><path d="m130.742188 280.285156 6.949218-4.011718v8.023437zm0 0"/><path d="m137.691406 284.296875 6.949219-4.011719v8.023438zm0 0"/><path d="m144.640625 288.308594 6.945313-4.011719v8.023437zm0 0"/><path d="m151.585938 292.320312 6.949218-4.011718v8.023437zm0 0"/><path d="m158.535156 296.332031 6.949219-4.011719v8.023438zm0 0"/><path d="m165.484375 300.34375 6.945313-4.011719v8.023438zm0 0"/><path d="m172.429688 304.355469 6.949218-4.011719v8.023438zm0 0"/><path d="m179.378906 308.367188 6.949219-4.011719v8.023437zm0 0"/><path d="m186.328125 304.355469 6.949219-4.011719v8.023438zm0 0"/><path d="m193.277344 300.34375 6.945312-4.011719v8.023438zm0 0"/><path d="m200.222656 296.332031 6.949219-4.011719v8.023438zm0 0"/><path d="m207.171875 292.320312 6.949219-4.011718v8.023437zm0 0"/><path d="m214.121094 288.308594 6.945312-4.011719v8.023437zm0 0"/><path d="m221.066406 284.296875 6.949219-4.011719v8.023438zm0 0"/><path d="m228.015625 280.285156 6.949219-4.011718v8.023437zm0 0"/><path d="m234.964844 276.273438 6.945312-4.011719v8.023437zm0 0"/><path d="m241.910156 272.261719 6.949219-4.011719v8.023438zm0 0"/><path d="m248.859375 268.25 6.949219-4.011719v8.023438zm0 0"/><path d="m255.808594 264.238281 6.945312-4.011719v8.023438zm0 0"/><path d="m262.753906 260.226562 6.949219-4.007812v8.019531zm0 0"/><path d="m269.703125 256.21875 6.949219-4.011719v8.019531zm0 0"/><path d="m276.652344 252.207031 6.945312-4.011719v8.023438zm0 0"/><path d="m283.597656 248.195312 6.949219-4.011718v8.023437zm0 0"/><path d="m172.429688 47.621094 6.949218-4.007813v8.019531zm0 0"/><path d="m165.484375 51.632812 6.945313-4.011718v8.023437zm0 0"/><path d="m158.535156 55.644531 6.949219-4.011719v8.023438zm0 0"/><path d="m151.585938 59.65625 6.949218-4.011719v8.023438zm0 0"/><path d="m144.640625 63.667969 6.945313-4.011719v8.023438zm0 0"/><path d="m137.691406 67.679688 6.949219-4.011719v8.023437zm0 0"/><path d="m130.742188 71.691406 6.949218-4.011718v8.023437zm0 0"/><path d="m123.796875 75.703125 6.945313-4.011719v8.023438zm0 0"/><path d="m116.847656 79.714844 6.949219-4.011719v8.023437zm0 0"/><path d="m109.898438 83.726562 6.949218-4.011718v8.023437zm0 0"/><path d="m102.953125 87.738281 6.945313-4.011719v8.023438zm0 0"/><path d="m96.003906 91.75 6.949219-4.011719v8.023438zm0 0"/><path d="m89.054688 95.761719 6.949218-4.011719v8.023438zm0 0"/><path d="m82.109375 99.773438 6.945313-4.011719v8.019531zm0 0"/><path d="m75.160156 103.78125 6.949219-4.007812v8.019531zm0 0"/><path d="m68.210938 107.792969 6.949218-4.011719v8.023438zm0 0"/><path d="m61.261719 111.804688 6.949219-4.011719v8.023437zm0 0"/><path d="m61.261719 119.828125 6.949219-4.011719v8.023438zm0 0"/><path d="m61.261719 127.851562 6.949219-4.011718v8.023437zm0 0"/><path d="m61.261719 135.875 6.949219-4.011719v8.023438zm0 0"/><path d="m61.261719 143.898438 6.949219-4.011719v8.023437zm0 0"/><path d="m61.261719 151.921875 6.949219-4.011719v8.019532zm0 0"/><path d="m61.261719 159.941406 6.949219-4.011718v8.023437zm0 0"/><path d="m61.261719 167.964844 6.949219-4.011719v8.023437zm0 0"/><path d="m61.261719 175.988281 6.949219-4.011719v8.023438zm0 0"/><path d="m61.261719 184.011719 6.949219-4.011719v8.023438zm0 0"/><path d="m61.261719 192.035156 6.949219-4.011718v8.023437zm0 0"/><path d="m61.261719 200.058594 6.949219-4.011719v8.023437zm0 0"/><path d="m61.261719 208.078125 6.949219-4.007813v8.019532zm0 0"/><path d="m61.261719 216.101562 6.949219-4.011718v8.023437zm0 0"/><path d="m61.261719 224.125 6.949219-4.011719v8.023438zm0 0"/><path d="m61.261719 232.148438 6.949219-4.011719v8.023437zm0 0"/><path d="m61.261719 240.171875 6.949219-4.011719v8.023438zm0 0"/><path d="m61.261719 248.195312 6.949219-4.011718v8.023437zm0 0"/><path d="m68.210938 252.207031 6.949218-4.011719v8.023438zm0 0"/><path d="m75.160156 256.21875 6.949219-4.011719v8.019531zm0 0"/><path d="m82.109375 260.226562 6.945313-4.007812v8.019531zm0 0"/><path d="m89.054688 264.238281 6.949218-4.011719v8.023438zm0 0"/><path d="m96.003906 268.25 6.949219-4.011719v8.023438zm0 0"/><path d="m102.953125 272.261719 6.945313-4.011719v8.023438zm0 0"/><path d="m109.898438 276.273438 6.949218-4.011719v8.023437zm0 0"/><path d="m116.847656 280.285156 6.949219-4.011718v8.023437zm0 0"/><path d="m123.796875 284.296875 6.945313-4.011719v8.023438zm0 0"/><path d="m130.742188 288.308594 6.949218-4.011719v8.023437zm0 0"/><path d="m137.691406 292.320312 6.949219-4.011718v8.023437zm0 0"/><path d="m144.640625 296.332031 6.945313-4.011719v8.023438zm0 0"/><path d="m151.585938 300.34375 6.949218-4.011719v8.023438zm0 0"/><path d="m158.535156 304.355469 6.949219-4.011719v8.023438zm0 0"/><path d="m165.484375 308.367188 6.945313-4.011719v8.023437zm0 0"/><path d="m172.429688 312.378906 6.949218-4.011718v8.019531zm0 0"/><path d="m297.496094 240.171875-6.949219-4.011719v8.023438zm0 0"/><path d="m297.496094 232.148438-6.949219-4.011719v8.023437zm0 0"/><path d="m297.496094 224.125-6.949219-4.011719v8.023438zm0 0"/><path d="m297.496094 216.101562-6.949219-4.011718v8.023437zm0 0"/><path d="m297.496094 208.078125-6.949219-4.007813v8.019532zm0 0"/><path d="m297.496094 200.058594-6.949219-4.011719v8.023437zm0 0"/><path d="m297.496094 192.035156-6.949219-4.011718v8.023437zm0 0"/><path d="m297.496094 184.011719-6.949219-4.011719v8.023438zm0 0"/><path d="m297.496094 175.988281-6.949219-4.011719v8.023438zm0 0"/><path d="m297.496094 167.964844-6.949219-4.011719v8.023437zm0 0"/><path d="m297.496094 159.941406-6.949219-4.011718v8.023437zm0 0"/><path d="m297.496094 151.921875-6.949219-4.011719v8.019532zm0 0"/><path d="m297.496094 143.898438-6.949219-4.011719v8.023437zm0 0"/><path d="m297.496094 135.875-6.949219-4.011719v8.023438zm0 0"/><path d="m297.496094 127.851562-6.949219-4.011718v8.023437zm0 0"/><path d="m297.496094 119.828125-6.949219-4.011719v8.023438zm0 0"/><path d="m290.546875 115.816406-6.949219-4.011718v8.023437zm0 0"/><path d="m283.597656 111.804688-6.945312-4.011719v8.023437zm0 0"/><path d="m276.652344 107.792969-6.949219-4.011719v8.023438zm0 0"/><path d="m269.703125 103.78125-6.949219-4.007812v8.019531zm0 0"/><path d="m262.753906 99.773438-6.945312-4.011719v8.019531zm0 0"/><path d="m255.808594 95.761719-6.949219-4.011719v8.023438zm0 0"/><path d="m248.859375 91.75-6.949219-4.011719v8.023438zm0 0"/><path d="m241.910156 87.738281-6.945312-4.011719v8.023438zm0 0"/><path d="m234.964844 83.726562-6.949219-4.011718v8.023437zm0 0"/><path d="m228.015625 79.714844-6.949219-4.011719v8.023437zm0 0"/><path d="m221.066406 75.703125-6.945312-4.011719v8.023438zm0 0"/><path d="m214.121094 71.691406-6.949219-4.011718v8.023437zm0 0"/><path d="m207.171875 67.679688-6.949219-4.011719v8.023437zm0 0"/><path d="m200.222656 63.667969-6.945312-4.011719v8.023438zm0 0"/><path d="m193.277344 59.65625-6.949219-4.011719v8.023438zm0 0"/><path d="m186.328125 55.644531-6.949219-4.011719v8.023438zm0 0"/><path d="m186.328125 304.355469-6.949219-4.011719v8.023438zm0 0"/><path d="m193.277344 300.34375-6.949219-4.011719v8.023438zm0 0"/><path d="m200.222656 296.332031-6.945312-4.011719v8.023438zm0 0"/><path d="m207.171875 292.320312-6.949219-4.011718v8.023437zm0 0"/><path d="m214.121094 288.308594-6.949219-4.011719v8.023437zm0 0"/><path d="m221.066406 284.296875-6.945312-4.011719v8.023438zm0 0"/><path d="m228.015625 280.285156-6.949219-4.011718v8.023437zm0 0"/><path d="m234.964844 276.273438-6.949219-4.011719v8.023437zm0 0"/><path d="m241.910156 272.261719-6.945312-4.011719v8.023438zm0 0"/><path d="m248.859375 268.25-6.949219-4.011719v8.023438zm0 0"/><path d="m255.808594 264.238281-6.949219-4.011719v8.023438zm0 0"/><path d="m262.753906 260.226562-6.945312-4.007812v8.019531zm0 0"/><path d="m269.703125 256.21875-6.949219-4.011719v8.019531zm0 0"/><path d="m276.652344 252.207031-6.949219-4.011719v8.023438zm0 0"/><path d="m283.597656 248.195312-6.945312-4.011718v8.023437zm0 0"/><path d="m290.546875 244.183594-6.949219-4.011719v8.023437zm0 0"/><path d="m297.496094 111.804688-6.949219-4.011719v8.023437zm0 0"/><path d="m290.546875 107.792969-6.949219-4.011719v8.023438zm0 0"/><path d="m283.597656 103.78125-6.945312-4.007812v8.019531zm0 0"/><path d="m276.652344 99.773438-6.949219-4.011719v8.019531zm0 0"/><path d="m269.703125 95.761719-6.949219-4.011719v8.023438zm0 0"/><path d="m262.753906 91.75-6.945312-4.011719v8.023438zm0 0"/><path d="m255.808594 87.738281-6.949219-4.011719v8.023438zm0 0"/><path d="m248.859375 83.726562-6.949219-4.011718v8.023437zm0 0"/><path d="m241.910156 79.714844-6.945312-4.011719v8.023437zm0 0"/><path d="m234.964844 75.703125-6.949219-4.011719v8.023438zm0 0"/><path d="m228.015625 71.691406-6.949219-4.011718v8.023437zm0 0"/><path d="m221.066406 67.679688-6.945312-4.011719v8.023437zm0 0"/><path d="m214.121094 63.667969-6.949219-4.011719v8.023438zm0 0"/><path d="m207.171875 59.65625-6.949219-4.011719v8.023438zm0 0"/><path d="m200.222656 55.644531-6.945312-4.011719v8.023438zm0 0"/><path d="m193.277344 51.632812-6.949219-4.011718v8.023437zm0 0"/><path d="m186.328125 47.621094-6.949219-4.007813v8.019531zm0 0"/><path d="m179.378906 51.632812-6.949218-4.011718v8.023437zm0 0"/><path d="m172.429688 55.644531-6.945313-4.011719v8.023438zm0 0"/><path d="m165.484375 59.65625-6.949219-4.011719v8.023438zm0 0"/><path d="m158.535156 63.667969-6.949218-4.011719v8.023438zm0 0"/><path d="m151.585938 67.679688-6.945313-4.011719v8.023437zm0 0"/><path d="m144.640625 71.691406-6.949219-4.011718v8.023437zm0 0"/><path d="m137.691406 75.703125-6.949218-4.011719v8.023438zm0 0"/><path d="m130.742188 79.714844-6.945313-4.011719v8.023437zm0 0"/><path d="m123.796875 83.726562-6.949219-4.011718v8.023437zm0 0"/><path d="m116.847656 87.738281-6.949218-4.011719v8.023438zm0 0"/><path d="m109.898438 91.75-6.945313-4.011719v8.023438zm0 0"/><path d="m102.953125 95.761719-6.949219-4.011719v8.023438zm0 0"/><path d="m96.003906 99.773438-6.949218-4.011719v8.019531zm0 0"/><path d="m89.054688 103.78125-6.945313-4.007812v8.019531zm0 0"/><path d="m82.109375 107.792969-6.949219-4.011719v8.023438zm0 0"/><path d="m75.160156 111.804688-6.949218-4.011719v8.023437zm0 0"/><path d="m75.160156 119.828125-6.949218-4.011719v8.023438zm0 0"/><path d="m75.160156 127.851562-6.949218-4.011718v8.023437zm0 0"/><path d="m75.160156 135.875-6.949218-4.011719v8.023438zm0 0"/><path d="m75.160156 143.898438-6.949218-4.011719v8.023437zm0 0"/><path d="m75.160156 151.921875-6.949218-4.011719v8.019532zm0 0"/><path d="m75.160156 159.941406-6.949218-4.011718v8.023437zm0 0"/><path d="m75.160156 167.964844-6.949218-4.011719v8.023437zm0 0"/><path d="m75.160156 175.988281-6.949218-4.011719v8.023438zm0 0"/><path d="m75.160156 184.011719-6.949218-4.011719v8.023438zm0 0"/><path d="m75.160156 192.035156-6.949218-4.011718v8.023437zm0 0"/><path d="m75.160156 200.058594-6.949218-4.011719v8.023437zm0 0"/><path d="m75.160156 208.078125-6.949218-4.007813v8.019532zm0 0"/><path d="m75.160156 216.101562-6.949218-4.011718v8.023437zm0 0"/><path d="m75.160156 224.125-6.949218-4.011719v8.023438zm0 0"/><path d="m75.160156 232.148438-6.949218-4.011719v8.023437zm0 0"/><path d="m75.160156 240.171875-6.949218-4.011719v8.023438zm0 0"/><path d="m75.160156 248.195312-6.949218-4.011718v8.023437zm0 0"/><path d="m82.109375 252.207031-6.949219-4.011719v8.023438zm0 0"/><path d="m89.054688 256.21875-6.945313-4.011719v8.019531zm0 0"/><path d="m96.003906 260.226562-6.949218-4.007812v8.019531zm0 0"/><path d="m102.953125 264.238281-6.949219-4.011719v8.023438zm0 0"/><path d="m109.898438 268.25-6.945313-4.011719v8.023438zm0 0"/><path d="m116.847656 272.261719-6.949218-4.011719v8.023438zm0 0"/><path d="m123.796875 276.273438-6.949219-4.011719v8.023437zm0 0"/><path d="m130.742188 280.285156-6.945313-4.011718v8.023437zm0 0"/><path d="m137.691406 284.296875-6.949218-4.011719v8.023438zm0 0"/><path d="m144.640625 288.308594-6.949219-4.011719v8.023437zm0 0"/><path d="m151.585938 292.320312-6.945313-4.011718v8.023437zm0 0"/><path d="m158.535156 296.332031-6.949218-4.011719v8.023438zm0 0"/><path d="m165.484375 300.34375-6.949219-4.011719v8.023438zm0 0"/><path d="m172.429688 304.355469-6.945313-4.011719v8.023438zm0 0"/><path d="m179.378906 308.367188-6.949218-4.011719v8.023437zm0 0"/><path d="m186.328125 312.378906-6.949219-4.011718v8.019531zm0 0"/><path d="m193.277344 308.367188-6.949219-4.011719v8.023437zm0 0"/><path d="m200.222656 304.355469-6.945312-4.011719v8.023438zm0 0"/><path d="m207.171875 300.34375-6.949219-4.011719v8.023438zm0 0"/><path d="m214.121094 296.332031-6.949219-4.011719v8.023438zm0 0"/><path d="m221.066406 292.320312-6.945312-4.011718v8.023437zm0 0"/><path d="m228.015625 288.308594-6.949219-4.011719v8.023437zm0 0"/><path d="m234.964844 284.296875-6.949219-4.011719v8.023438zm0 0"/><path d="m241.910156 280.285156-6.945312-4.011718v8.023437zm0 0"/><path d="m248.859375 276.273438-6.949219-4.011719v8.023437zm0 0"/><path d="m255.808594 272.261719-6.949219-4.011719v8.023438zm0 0"/><path d="m262.753906 268.25-6.945312-4.011719v8.023438zm0 0"/><path d="m269.703125 264.238281-6.949219-4.011719v8.023438zm0 0"/><path d="m276.652344 260.226562-6.949219-4.007812v8.019531zm0 0"/><path d="m283.597656 256.21875-6.945312-4.011719v8.019531zm0 0"/><path d="m290.546875 252.207031-6.949219-4.011719v8.023438zm0 0"/><path d="m297.496094 248.195312-6.949219-4.011718v8.023437zm0 0"/><path d="m68.210938 115.816406-6.949219-4.011718v8.023437zm0 0"/><path d="m68.210938 123.839844-6.949219-4.011719v8.023437zm0 0"/><path d="m68.210938 131.863281-6.949219-4.011719v8.023438zm0 0"/><path d="m68.210938 139.886719-6.949219-4.011719v8.023438zm0 0"/><path d="m68.210938 147.910156-6.949219-4.011718v8.023437zm0 0"/><path d="m68.210938 155.929688-6.949219-4.007813v8.019531zm0 0"/><path d="m68.210938 163.953125-6.949219-4.011719v8.023438zm0 0"/><path d="m68.210938 171.976562-6.949219-4.011718v8.023437zm0 0"/><path d="m68.210938 180-6.949219-4.011719v8.023438zm0 0"/><path d="m68.210938 188.023438-6.949219-4.011719v8.023437zm0 0"/><path d="m68.210938 196.046875-6.949219-4.011719v8.023438zm0 0"/><path d="m68.210938 204.070312-6.949219-4.011718v8.019531zm0 0"/><path d="m68.210938 212.089844-6.949219-4.011719v8.023437zm0 0"/><path d="m68.210938 220.113281-6.949219-4.011719v8.023438zm0 0"/><path d="m68.210938 228.136719-6.949219-4.011719v8.023438zm0 0"/><path d="m68.210938 236.160156-6.949219-4.011718v8.023437zm0 0"/><path d="m68.210938 244.183594-6.949219-4.011719v8.023437zm0 0"/></g></svg>