<svg height="360pt" viewBox="0 0 360 360" width="360pt" xmlns="http://www.w3.org/2000/svg"><path d="m0 0h360v360h-360z" fill="#800080"/><g fill="#fff"><path d="m175.671875 172.503906 6.492187-3.75v7.496094zm0 0"/><path d="m169.179688 183.75 6.492187-3.75v7.496094zm0 0"/><path d="m188.65625 172.503906 6.492188-3.75v7.496094zm0 0"/><path d="m175.671875 165.003906 6.492187-3.746094v7.496094zm0 0"/><path d="m162.683594 172.503906 6.496094-3.75v7.496094zm0 0"/><path d="m162.683594 180 6.496094-3.75v7.5zm0 0"/><path d="m162.683594 187.496094 6.496094-3.746094v7.496094zm0 0"/><path d="m169.179688 191.246094 6.492187-3.75v7.5zm0 0"/><path d="m195.148438 183.75 6.496093-3.75v7.496094zm0 0"/><path d="m195.148438 176.25 6.496093-3.746094v7.496094zm0 0"/><path d="m175.671875 157.507812 6.492187-3.75v7.5zm0 0"/><path d="m156.191406 168.753906 6.492188-3.75v7.5zm0 0"/><path d="m156.191406 183.75 6.492188-3.75v7.496094zm0 0"/><path d="m169.179688 198.742188 6.492187-3.746094v7.496094zm0 0"/><path d="m201.644531 194.996094 6.492188-3.75v7.496094zm0 0"/><path d="m201.644531 187.496094 6.492188-3.746094v7.496094zm0 0"/><path d="m201.644531 172.503906 6.492188-3.75v7.496094zm0 0"/><path d="m182.164062 153.757812 6.492188-3.746093v7.496093zm0 0"/><path d="m175.671875 150.011719 6.492187-3.75v7.496093zm0 0"/><path d="m169.179688 153.757812 6.492187-3.746093v7.496093zm0 0"/><path d="m162.683594 157.507812 6.496094-3.75v7.5zm0 0"/><path d="m149.699219 165.003906 6.492187-3.746094v7.496094zm0 0"/><path d="m149.699219 194.996094 6.492187-3.75v7.496094zm0 0"/><path d="m156.191406 198.742188 6.492188-3.746094v7.496094zm0 0"/><path d="m208.136719 198.742188 6.492187-3.746094v7.496094zm0 0"/><path d="m208.136719 168.753906 6.492187-3.75v7.5zm0 0"/><path d="m182.164062 146.261719 6.492188-3.75v7.5zm0 0"/><path d="m162.683594 150.011719 6.496094-3.75v7.496093zm0 0"/><path d="m156.191406 153.757812 6.492188-3.746093v7.496093zm0 0"/><path d="m162.683594 209.988281 6.496094-3.746093v7.496093zm0 0"/><path d="m214.628906 194.996094 6.492188-3.75v7.496094zm0 0"/><path d="m214.628906 180 6.492188-3.75v7.5zm0 0"/><path d="m182.164062 138.765625 6.492188-3.75v7.496094zm0 0"/><path d="m169.179688 138.765625 6.492187-3.75v7.496094zm0 0"/><path d="m162.683594 142.511719 6.496094-3.746094v7.496094zm0 0"/><path d="m162.683594 217.488281 6.496094-3.75v7.496094zm0 0"/><path d="m195.148438 213.738281 6.496093-3.75v7.5zm0 0"/><path d="m221.121094 183.75 6.492187-3.75v7.496094zm0 0"/><path d="m169.179688 131.265625 6.492187-3.746094v7.496094zm0 0"/><path d="m162.683594 135.015625 6.496094-3.75v7.5zm0 0"/><path d="m162.683594 224.984375 6.496094-3.75v7.5zm0 0"/><path d="m208.136719 213.738281 6.492187-3.75v7.5zm0 0"/><path d="m214.628906 209.988281 6.492188-3.746093v7.496093zm0 0"/><path d="m227.613281 202.492188 6.496094-3.75v7.5zm0 0"/><path d="m188.65625 127.519531 6.492188-3.75v7.496094zm0 0"/><path d="m182.164062 123.769531 6.492188-3.75v7.5zm0 0"/><path d="m175.671875 120.019531 6.492187-3.746093v7.496093zm0 0"/><path d="m169.179688 123.769531 6.492187-3.75v7.5zm0 0"/><path d="m162.683594 232.480469 6.496094-3.746094v7.496094zm0 0"/><path d="m234.109375 213.738281 6.492187-3.75v7.5zm0 0"/><path d="m234.109375 191.246094 6.492187-3.75v7.5zm0 0"/><path d="m188.65625 120.019531 6.492188-3.746093v7.496093zm0 0"/><path d="m182.164062 116.273438 6.492188-3.75v7.496093zm0 0"/><path d="m169.179688 116.273438 6.492187-3.75v7.496093zm0 0"/><path d="m162.683594 120.019531 6.496094-3.746093v7.496093zm0 0"/><path d="m156.191406 123.769531 6.492188-3.75v7.5zm0 0"/><path d="m162.683594 239.980469 6.496094-3.75v7.496093zm0 0"/><path d="m214.628906 224.984375 6.492188-3.75v7.5zm0 0"/><path d="m221.121094 221.234375 6.492187-3.746094v7.496094zm0 0"/><path d="m227.613281 217.488281 6.496094-3.75v7.496094zm0 0"/><path d="m240.601562 209.988281 6.492188-3.746093v7.496093zm0 0"/><path d="m240.601562 202.492188 6.492188-3.75v7.5zm0 0"/><path d="m182.164062 108.773438 6.492188-3.746094v7.496094zm0 0"/><path d="m169.179688 108.773438 6.492187-3.746094v7.496094zm0 0"/><path d="m162.683594 247.476562 6.496094-3.75v7.5zm0 0"/><path d="m234.109375 221.234375 6.492187-3.746094v7.496094zm0 0"/><path d="m247.09375 221.234375 6.492188-3.746094v7.496094zm0 0"/><path d="m182.164062 101.277344 6.492188-3.75v7.5zm0 0"/><path d="m169.179688 101.277344 6.492187-3.75v7.5zm0 0"/><path d="m162.683594 105.027344 6.496094-3.75v7.496094zm0 0"/><path d="m156.191406 108.773438 6.492188-3.746094v7.496094zm0 0"/><path d="m162.683594 254.972656 6.496094-3.746094v7.496094zm0 0"/><path d="m234.109375 228.734375 6.492187-3.75v7.496094zm0 0"/><path d="m253.585938 217.488281 6.492187-3.75v7.496094zm0 0"/><path d="m182.164062 93.78125 6.492188-3.75v7.496094zm0 0"/><path d="m175.671875 90.03125 6.492187-3.75v7.5zm0 0"/><path d="m169.179688 93.78125 6.492187-3.75v7.496094zm0 0"/><path d="m162.683594 262.472656 6.496094-3.75v7.496094zm0 0"/><path d="m247.09375 228.734375 6.492188-3.75v7.496094zm0 0"/><path d="m182.164062 86.28125 6.492188-3.746094v7.496094zm0 0"/><path d="m169.179688 86.28125 6.492187-3.746094v7.496094zm0 0"/><path d="m162.683594 90.03125 6.496094-3.75v7.5zm0 0"/><path d="m156.191406 93.78125 6.492188-3.75v7.496094zm0 0"/><path d="m162.683594 269.96875 6.496094-3.75v7.5zm0 0"/><path d="m240.601562 239.980469 6.492188-3.75v7.496093zm0 0"/><path d="m247.09375 236.230469 6.492188-3.75v7.5zm0 0"/><path d="m266.574219 224.984375 6.492187-3.75v7.5zm0 0"/><path d="m182.164062 78.785156 6.492188-3.75v7.5zm0 0"/><path d="m175.671875 75.035156 6.492187-3.746094v7.496094zm0 0"/><path d="m162.683594 82.535156 6.496094-3.75v7.496094zm0 0"/><path d="m273.066406 236.230469 6.492188-3.75v7.5zm0 0"/><path d="m175.671875 67.539062 6.492187-3.75v7.5zm0 0"/><path d="m162.683594 284.964844 6.496094-3.75v7.496094zm0 0"/><path d="m260.078125 243.726562 6.496094-3.746093v7.496093zm0 0"/><path d="m266.574219 239.980469 6.492187-3.75v7.496093zm0 0"/><path d="m279.558594 239.980469 6.492187-3.75v7.496093zm0 0"/><path d="m279.558594 232.480469 6.492187-3.746094v7.496094zm0 0"/><path d="m169.179688 63.789062 6.492187-3.746093v7.496093zm0 0"/><path d="m162.683594 292.460938 6.496094-3.75v7.5zm0 0"/><path d="m266.574219 247.476562 6.492187-3.75v7.5zm0 0"/><path d="m273.066406 243.726562 6.492188-3.746093v7.496093zm0 0"/><path d="m286.050781 243.726562 6.492188-3.746093v7.496093zm0 0"/><path d="m175.671875 52.542969 6.492187-3.746094v7.496094zm0 0"/><path d="m169.179688 56.292969 6.492187-3.75v7.5zm0 0"/><path d="m156.191406 296.210938 6.492188-3.75v7.496093zm0 0"/><path d="m162.683594 299.957031 6.496094-3.746093v7.496093zm0 0"/><path d="m273.066406 251.226562 6.492188-3.75v7.496094zm0 0"/><path d="m279.558594 247.476562 6.492187-3.75v7.5zm0 0"/><path d="m182.164062 48.796875 6.492188-3.75v7.496094zm0 0"/><path d="m175.671875 45.046875 6.492187-3.75v7.5zm0 0"/><path d="m169.179688 48.796875 6.492187-3.75v7.496094zm0 0"/><path d="m162.683594 307.457031 6.496094-3.75v7.496094zm0 0"/><path d="m279.558594 254.972656 6.492187-3.746094v7.496094zm0 0"/><path d="m299.039062 251.226562 6.492188-3.75v7.496094zm0 0"/><path d="m182.164062 41.296875 6.492188-3.746094v7.496094zm0 0"/><path d="m162.683594 45.046875 6.496094-3.75v7.5zm0 0"/><path d="m162.683594 314.953125 6.496094-3.75v7.5zm0 0"/><path d="m286.050781 258.722656 6.492188-3.75v7.5zm0 0"/><path d="m292.542969 254.972656 6.496093-3.746094v7.496094zm0 0"/><path d="m182.164062 176.25-6.492187-3.746094v7.496094zm0 0"/><path d="m182.164062 183.75-6.492187-3.75v7.496094zm0 0"/><path d="m195.148438 176.25-6.492188-3.746094v7.496094zm0 0"/><path d="m188.65625 172.503906-6.492188-3.75v7.496094zm0 0"/><path d="m175.671875 172.503906-6.492187-3.75v7.496094zm0 0"/><path d="m188.65625 187.496094-6.492188-3.746094v7.496094zm0 0"/><path d="m201.644531 187.496094-6.496093-3.746094v7.496094zm0 0"/><path d="m195.148438 168.753906-6.492188-3.75v7.5zm0 0"/><path d="m188.65625 165.003906-6.492188-3.746094v7.496094zm0 0"/><path d="m175.671875 165.003906-6.492187-3.746094v7.496094zm0 0"/><path d="m182.164062 198.742188-6.492187-3.746094v7.496094zm0 0"/><path d="m188.65625 194.996094-6.492188-3.75v7.496094zm0 0"/><path d="m195.148438 191.246094-6.492188-3.75v7.5zm0 0"/><path d="m208.136719 176.25-6.492188-3.746094v7.496094zm0 0"/><path d="m201.644531 165.003906-6.496093-3.746094v7.496094zm0 0"/><path d="m169.179688 161.257812-6.496094-3.75v7.496094zm0 0"/><path d="m162.683594 172.503906-6.492188-3.75v7.496094zm0 0"/><path d="m162.683594 180-6.492188-3.75v7.5zm0 0"/><path d="m188.65625 202.492188-6.492188-3.75v7.5zm0 0"/><path d="m214.628906 194.996094-6.492187-3.75v7.496094zm0 0"/><path d="m214.628906 187.496094-6.492187-3.746094v7.496094zm0 0"/><path d="m214.628906 165.003906-6.492187-3.746094v7.496094zm0 0"/><path d="m208.136719 161.257812-6.492188-3.75v7.496094zm0 0"/><path d="m201.644531 157.507812-6.496093-3.75v7.5zm0 0"/><path d="m195.148438 153.757812-6.492188-3.746093v7.496093zm0 0"/><path d="m162.683594 157.507812-6.492188-3.75v7.5zm0 0"/><path d="m156.191406 161.257812-6.492187-3.75v7.496094zm0 0"/><path d="m156.191406 168.753906-6.492187-3.75v7.5zm0 0"/><path d="m156.191406 176.25-6.492187-3.746094v7.496094zm0 0"/><path d="m156.191406 183.75-6.492187-3.75v7.496094zm0 0"/><path d="m156.191406 191.246094-6.492187-3.75v7.5zm0 0"/><path d="m156.191406 198.742188-6.492187-3.746094v7.496094zm0 0"/><path d="m162.683594 202.492188-6.492188-3.75v7.5zm0 0"/><path d="m175.671875 209.988281-6.492187-3.746093v7.496093zm0 0"/><path d="m188.65625 209.988281-6.492188-3.746093v7.496093zm0 0"/><path d="m195.148438 206.242188-6.492188-3.75v7.496093zm0 0"/><path d="m221.121094 176.25-6.492188-3.746094v7.496094zm0 0"/><path d="m221.121094 168.753906-6.492188-3.75v7.5zm0 0"/><path d="m214.628906 157.507812-6.492187-3.75v7.5zm0 0"/><path d="m201.644531 150.011719-6.496093-3.75v7.496093zm0 0"/><path d="m169.179688 146.261719-6.496094-3.75v7.5zm0 0"/><path d="m162.683594 150.011719-6.492188-3.75v7.496093zm0 0"/><path d="m149.699219 157.507812-6.492188-3.75v7.5zm0 0"/><path d="m149.699219 194.996094-6.492188-3.75v7.496094zm0 0"/><path d="m175.671875 217.488281-6.492187-3.75v7.496094zm0 0"/><path d="m188.65625 217.488281-6.492188-3.75v7.496094zm0 0"/><path d="m201.644531 209.988281-6.496093-3.746093v7.496093zm0 0"/><path d="m227.613281 194.996094-6.492187-3.75v7.496094zm0 0"/><path d="m227.613281 172.503906-6.492187-3.75v7.496094zm0 0"/><path d="m227.613281 165.003906-6.492187-3.746094v7.496094zm0 0"/><path d="m227.613281 157.507812-6.492187-3.75v7.5zm0 0"/><path d="m221.121094 153.757812-6.492188-3.746093v7.496093zm0 0"/><path d="m214.628906 150.011719-6.492187-3.75v7.496093zm0 0"/><path d="m208.136719 146.261719-6.492188-3.75v7.5zm0 0"/><path d="m201.644531 142.511719-6.496093-3.746094v7.496094zm0 0"/><path d="m195.148438 138.765625-6.492188-3.75v7.496094zm0 0"/><path d="m156.191406 146.261719-6.492187-3.75v7.5zm0 0"/><path d="m149.699219 150.011719-6.492188-3.75v7.496093zm0 0"/><path d="m143.207031 153.757812-6.492187-3.746093v7.496093zm0 0"/><path d="m143.207031 161.257812-6.492187-3.75v7.496094zm0 0"/><path d="m143.207031 168.753906-6.492187-3.75v7.5zm0 0"/><path d="m143.207031 183.75-6.492187-3.75v7.496094zm0 0"/><path d="m143.207031 191.246094-6.492187-3.75v7.5zm0 0"/><path d="m143.207031 198.742188-6.492187-3.746094v7.496094zm0 0"/><path d="m143.207031 206.242188-6.492187-3.75v7.496093zm0 0"/><path d="m149.699219 209.988281-6.492188-3.746093v7.496093zm0 0"/><path d="m156.191406 213.738281-6.492187-3.75v7.5zm0 0"/><path d="m162.683594 217.488281-6.492188-3.75v7.496094zm0 0"/><path d="m175.671875 224.984375-6.492187-3.75v7.5zm0 0"/><path d="m182.164062 228.734375-6.492187-3.75v7.496094zm0 0"/><path d="m188.65625 224.984375-6.492188-3.75v7.5zm0 0"/><path d="m195.148438 221.234375-6.492188-3.746094v7.496094zm0 0"/><path d="m201.644531 217.488281-6.496093-3.75v7.496094zm0 0"/><path d="m221.121094 206.242188-6.492188-3.75v7.496093zm0 0"/><path d="m234.109375 183.75-6.496094-3.75v7.496094zm0 0"/><path d="m234.109375 176.25-6.496094-3.746094v7.496094zm0 0"/><path d="m234.109375 168.753906-6.496094-3.75v7.5zm0 0"/><path d="m234.109375 161.257812-6.496094-3.75v7.496094zm0 0"/><path d="m227.613281 150.011719-6.492187-3.75v7.496093zm0 0"/><path d="m214.628906 142.511719-6.492187-3.746094v7.496094zm0 0"/><path d="m149.699219 142.511719-6.492188-3.746094v7.496094zm0 0"/><path d="m136.714844 150.011719-6.492188-3.75v7.496093zm0 0"/><path d="m136.714844 165.003906-6.492188-3.746094v7.496094zm0 0"/><path d="m136.714844 172.503906-6.492188-3.75v7.496094zm0 0"/><path d="m136.714844 180-6.492188-3.75v7.5zm0 0"/><path d="m136.714844 187.496094-6.492188-3.746094v7.496094zm0 0"/><path d="m136.714844 202.492188-6.492188-3.75v7.5zm0 0"/><path d="m143.207031 213.738281-6.492187-3.75v7.5zm0 0"/><path d="m156.191406 221.234375-6.492187-3.746094v7.496094zm0 0"/><path d="m182.164062 236.230469-6.492187-3.75v7.5zm0 0"/><path d="m188.65625 232.480469-6.492188-3.746094v7.496094zm0 0"/><path d="m195.148438 228.734375-6.492188-3.75v7.496094zm0 0"/><path d="m208.136719 221.234375-6.492188-3.746094v7.496094zm0 0"/><path d="m214.628906 217.488281-6.492187-3.75v7.496094zm0 0"/><path d="m240.601562 209.988281-6.492187-3.746093v7.496093zm0 0"/><path d="m240.601562 202.492188-6.492187-3.75v7.5zm0 0"/><path d="m240.601562 187.496094-6.492187-3.746094v7.496094zm0 0"/><path d="m240.601562 172.503906-6.492187-3.75v7.496094zm0 0"/><path d="m240.601562 157.507812-6.492187-3.75v7.5zm0 0"/><path d="m240.601562 150.011719-6.492187-3.75v7.496093zm0 0"/><path d="m234.109375 146.261719-6.496094-3.75v7.5zm0 0"/><path d="m227.613281 142.511719-6.492187-3.746094v7.496094zm0 0"/><path d="m221.121094 138.765625-6.492188-3.75v7.496094zm0 0"/><path d="m214.628906 135.015625-6.492187-3.75v7.5zm0 0"/><path d="m201.644531 127.519531-6.496093-3.75v7.496094zm0 0"/><path d="m162.683594 127.519531-6.492188-3.75v7.496094zm0 0"/><path d="m156.191406 131.265625-6.492187-3.746094v7.496094zm0 0"/><path d="m149.699219 135.015625-6.492188-3.75v7.5zm0 0"/><path d="m143.207031 138.765625-6.492187-3.75v7.496094zm0 0"/><path d="m136.714844 142.511719-6.492188-3.746094v7.496094zm0 0"/><path d="m130.222656 146.261719-6.496094-3.75v7.5zm0 0"/><path d="m130.222656 153.757812-6.496094-3.746093v7.496093zm0 0"/><path d="m130.222656 161.257812-6.496094-3.75v7.496094zm0 0"/><path d="m130.222656 176.25-6.496094-3.746094v7.496094zm0 0"/><path d="m130.222656 191.246094-6.496094-3.75v7.5zm0 0"/><path d="m130.222656 198.742188-6.496094-3.746094v7.496094zm0 0"/><path d="m130.222656 206.242188-6.496094-3.75v7.496093zm0 0"/><path d="m130.222656 213.738281-6.496094-3.75v7.5zm0 0"/><path d="m136.714844 217.488281-6.492188-3.75v7.496094zm0 0"/><path d="m143.207031 221.234375-6.492187-3.746094v7.496094zm0 0"/><path d="m149.699219 224.984375-6.492188-3.75v7.5zm0 0"/><path d="m156.191406 228.734375-6.492187-3.75v7.496094zm0 0"/><path d="m162.683594 232.480469-6.492188-3.746094v7.496094zm0 0"/><path d="m175.671875 239.980469-6.492187-3.75v7.496093zm0 0"/><path d="m182.164062 243.726562-6.492187-3.746093v7.496093zm0 0"/><path d="m195.148438 236.230469-6.492188-3.75v7.5zm0 0"/><path d="m201.644531 232.480469-6.496093-3.746094v7.496094zm0 0"/><path d="m208.136719 228.734375-6.492188-3.75v7.496094zm0 0"/><path d="m214.628906 224.984375-6.492187-3.75v7.5zm0 0"/><path d="m221.121094 221.234375-6.492188-3.746094v7.496094zm0 0"/><path d="m227.613281 217.488281-6.492187-3.75v7.496094zm0 0"/><path d="m234.109375 213.738281-6.496094-3.75v7.5zm0 0"/><path d="m247.09375 198.742188-6.492188-3.746094v7.496094zm0 0"/><path d="m247.09375 191.246094-6.492188-3.75v7.5zm0 0"/><path d="m247.09375 183.75-6.492188-3.75v7.496094zm0 0"/><path d="m247.09375 176.25-6.492188-3.746094v7.496094zm0 0"/><path d="m247.09375 168.753906-6.492188-3.75v7.5zm0 0"/><path d="m247.09375 161.257812-6.492188-3.75v7.496094zm0 0"/><path d="m247.09375 153.757812-6.492188-3.746093v7.496093zm0 0"/><path d="m240.601562 142.511719-6.492187-3.746094v7.496094zm0 0"/><path d="m227.613281 135.015625-6.492187-3.75v7.5zm0 0"/><path d="m221.121094 131.265625-6.492188-3.746094v7.496094zm0 0"/><path d="m214.628906 127.519531-6.492187-3.75v7.496094zm0 0"/><path d="m208.136719 123.769531-6.492188-3.75v7.5zm0 0"/><path d="m162.683594 120.019531-6.492188-3.746093v7.496093zm0 0"/><path d="m156.191406 123.769531-6.492187-3.75v7.5zm0 0"/><path d="m149.699219 127.519531-6.492188-3.75v7.496094zm0 0"/><path d="m136.714844 135.015625-6.492188-3.75v7.5zm0 0"/><path d="m123.726562 142.511719-6.492187-3.746094v7.496094zm0 0"/><path d="m123.726562 157.507812-6.492187-3.75v7.5zm0 0"/><path d="m123.726562 165.003906-6.492187-3.746094v7.496094zm0 0"/><path d="m123.726562 172.503906-6.492187-3.75v7.496094zm0 0"/><path d="m123.726562 180-6.492187-3.75v7.5zm0 0"/><path d="m123.726562 187.496094-6.492187-3.746094v7.496094zm0 0"/><path d="m123.726562 194.996094-6.492187-3.75v7.496094zm0 0"/><path d="m123.726562 209.988281-6.492187-3.746093v7.496093zm0 0"/><path d="m130.222656 221.234375-6.496094-3.746094v7.496094zm0 0"/><path d="m143.207031 228.734375-6.492187-3.75v7.496094zm0 0"/><path d="m156.191406 236.230469-6.492187-3.75v7.5zm0 0"/><path d="m175.671875 247.476562-6.492187-3.75v7.5zm0 0"/><path d="m182.164062 251.226562-6.492187-3.75v7.496094zm0 0"/><path d="m188.65625 247.476562-6.492188-3.75v7.5zm0 0"/><path d="m195.148438 243.726562-6.492188-3.746093v7.496093zm0 0"/><path d="m208.136719 236.230469-6.492188-3.75v7.5zm0 0"/><path d="m221.121094 228.734375-6.492188-3.75v7.496094zm0 0"/><path d="m253.585938 217.488281-6.492188-3.75v7.496094zm0 0"/><path d="m253.585938 209.988281-6.492188-3.746093v7.496093zm0 0"/><path d="m253.585938 187.496094-6.492188-3.746094v7.496094zm0 0"/><path d="m253.585938 180-6.492188-3.75v7.5zm0 0"/><path d="m253.585938 165.003906-6.492188-3.746094v7.496094zm0 0"/><path d="m253.585938 150.011719-6.492188-3.75v7.496093zm0 0"/><path d="m253.585938 142.511719-6.492188-3.746094v7.496094zm0 0"/><path d="m247.09375 138.765625-6.492188-3.75v7.496094zm0 0"/><path d="m240.601562 135.015625-6.492187-3.75v7.5zm0 0"/><path d="m234.109375 131.265625-6.496094-3.746094v7.496094zm0 0"/><path d="m214.628906 120.019531-6.492187-3.746093v7.496093zm0 0"/><path d="m208.136719 116.273438-6.492188-3.75v7.496093zm0 0"/><path d="m201.644531 112.523438-6.496093-3.75v7.5zm0 0"/><path d="m195.148438 108.773438-6.492188-3.746094v7.496094zm0 0"/><path d="m162.683594 112.523438-6.492188-3.75v7.5zm0 0"/><path d="m149.699219 120.019531-6.492188-3.746093v7.496093zm0 0"/><path d="m143.207031 123.769531-6.492187-3.75v7.5zm0 0"/><path d="m130.222656 131.265625-6.496094-3.746094v7.496094zm0 0"/><path d="m123.726562 135.015625-6.492187-3.75v7.5zm0 0"/><path d="m117.234375 138.765625-6.492187-3.75v7.496094zm0 0"/><path d="m117.234375 146.261719-6.492187-3.75v7.5zm0 0"/><path d="m117.234375 153.757812-6.492187-3.746093v7.496093zm0 0"/><path d="m117.234375 168.753906-6.492187-3.75v7.5zm0 0"/><path d="m117.234375 183.75-6.492187-3.75v7.496094zm0 0"/><path d="m117.234375 198.742188-6.492187-3.746094v7.496094zm0 0"/><path d="m117.234375 206.242188-6.492187-3.75v7.496093zm0 0"/><path d="m117.234375 213.738281-6.492187-3.75v7.5zm0 0"/><path d="m117.234375 221.234375-6.492187-3.746094v7.496094zm0 0"/><path d="m123.726562 224.984375-6.492187-3.75v7.5zm0 0"/><path d="m156.191406 243.726562-6.492187-3.746093v7.496093zm0 0"/><path d="m162.683594 247.476562-6.492188-3.75v7.5zm0 0"/><path d="m175.671875 254.972656-6.492187-3.746094v7.496094zm0 0"/><path d="m182.164062 258.722656-6.492187-3.75v7.5zm0 0"/><path d="m195.148438 251.226562-6.492188-3.75v7.496094zm0 0"/><path d="m201.644531 247.476562-6.496093-3.75v7.5zm0 0"/><path d="m208.136719 243.726562-6.492188-3.746093v7.496093zm0 0"/><path d="m214.628906 239.980469-6.492187-3.75v7.496093zm0 0"/><path d="m221.121094 236.230469-6.492188-3.75v7.5zm0 0"/><path d="m227.613281 232.480469-6.492187-3.746094v7.496094zm0 0"/><path d="m260.078125 206.242188-6.492187-3.75v7.496093zm0 0"/><path d="m260.078125 198.742188-6.492187-3.746094v7.496094zm0 0"/><path d="m260.078125 176.25-6.492187-3.746094v7.496094zm0 0"/><path d="m260.078125 161.257812-6.492187-3.75v7.496094zm0 0"/><path d="m260.078125 153.757812-6.492187-3.746093v7.496093zm0 0"/><path d="m260.078125 146.261719-6.492187-3.75v7.5zm0 0"/><path d="m253.585938 135.015625-6.492188-3.75v7.5zm0 0"/><path d="m240.601562 127.519531-6.492187-3.75v7.496094zm0 0"/><path d="m234.109375 123.769531-6.496094-3.75v7.5zm0 0"/><path d="m227.613281 120.019531-6.492187-3.746093v7.496093zm0 0"/><path d="m221.121094 116.273438-6.492188-3.75v7.496093zm0 0"/><path d="m208.136719 108.773438-6.492188-3.746094v7.496094zm0 0"/><path d="m201.644531 105.027344-6.496093-3.75v7.496094zm0 0"/><path d="m195.148438 101.277344-6.492188-3.75v7.5zm0 0"/><path d="m162.683594 105.027344-6.492188-3.75v7.496094zm0 0"/><path d="m143.207031 116.273438-6.492187-3.75v7.496093zm0 0"/><path d="m123.726562 127.519531-6.492187-3.75v7.496094zm0 0"/><path d="m110.742188 135.015625-6.492188-3.75v7.5zm0 0"/><path d="m110.742188 150.011719-6.492188-3.75v7.496093zm0 0"/><path d="m110.742188 157.507812-6.492188-3.75v7.5zm0 0"/><path d="m110.742188 165.003906-6.492188-3.746094v7.496094zm0 0"/><path d="m110.742188 172.503906-6.492188-3.75v7.496094zm0 0"/><path d="m110.742188 180-6.492188-3.75v7.5zm0 0"/><path d="m110.742188 187.496094-6.492188-3.746094v7.496094zm0 0"/><path d="m110.742188 194.996094-6.492188-3.75v7.496094zm0 0"/><path d="m110.742188 202.492188-6.492188-3.75v7.5zm0 0"/><path d="m110.742188 217.488281-6.492188-3.75v7.496094zm0 0"/><path d="m117.234375 228.734375-6.492187-3.75v7.496094zm0 0"/><path d="m123.726562 232.480469-6.492187-3.746094v7.496094zm0 0"/><path d="m130.222656 236.230469-6.496094-3.75v7.5zm0 0"/><path d="m136.714844 239.980469-6.492188-3.75v7.496093zm0 0"/><path d="m143.207031 243.726562-6.492187-3.746093v7.496093zm0 0"/><path d="m149.699219 247.476562-6.492188-3.75v7.5zm0 0"/><path d="m156.191406 251.226562-6.492187-3.75v7.496094zm0 0"/><path d="m182.164062 266.21875-6.492187-3.746094v7.496094zm0 0"/><path d="m188.65625 262.472656-6.492188-3.75v7.496094zm0 0"/><path d="m195.148438 258.722656-6.492188-3.75v7.5zm0 0"/><path d="m208.136719 251.226562-6.492188-3.75v7.496094zm0 0"/><path d="m221.121094 243.726562-6.492188-3.746093v7.496093zm0 0"/><path d="m234.109375 236.230469-6.496094-3.75v7.5zm0 0"/><path d="m266.574219 217.488281-6.496094-3.75v7.496094zm0 0"/><path d="m266.574219 202.492188-6.496094-3.75v7.5zm0 0"/><path d="m266.574219 172.503906-6.496094-3.75v7.496094zm0 0"/><path d="m266.574219 165.003906-6.496094-3.746094v7.496094zm0 0"/><path d="m266.574219 157.507812-6.496094-3.75v7.5zm0 0"/><path d="m266.574219 142.511719-6.496094-3.746094v7.496094zm0 0"/><path d="m266.574219 135.015625-6.496094-3.75v7.5zm0 0"/><path d="m260.078125 131.265625-6.492187-3.746094v7.496094zm0 0"/><path d="m253.585938 127.519531-6.492188-3.75v7.496094zm0 0"/><path d="m247.09375 123.769531-6.492188-3.75v7.5zm0 0"/><path d="m240.601562 120.019531-6.492187-3.746093v7.496093zm0 0"/><path d="m234.109375 116.273438-6.496094-3.75v7.496093zm0 0"/><path d="m227.613281 112.523438-6.492187-3.75v7.5zm0 0"/><path d="m221.121094 108.773438-6.492188-3.746094v7.496094zm0 0"/><path d="m214.628906 105.027344-6.492187-3.75v7.496094zm0 0"/><path d="m201.644531 97.527344-6.496093-3.746094v7.496094zm0 0"/><path d="m195.148438 93.78125-6.492188-3.75v7.496094zm0 0"/><path d="m162.683594 97.527344-6.492188-3.746094v7.496094zm0 0"/><path d="m149.699219 105.027344-6.492188-3.75v7.496094zm0 0"/><path d="m143.207031 108.773438-6.492187-3.746094v7.496094zm0 0"/><path d="m104.25 131.265625-6.492188-3.746094v7.496094zm0 0"/><path d="m104.25 138.765625-6.492188-3.75v7.496094zm0 0"/><path d="m104.25 146.261719-6.492188-3.75v7.5zm0 0"/><path d="m104.25 161.257812-6.492188-3.75v7.496094zm0 0"/><path d="m104.25 168.753906-6.492188-3.75v7.5zm0 0"/><path d="m104.25 176.25-6.492188-3.746094v7.496094zm0 0"/><path d="m104.25 183.75-6.492188-3.75v7.496094zm0 0"/><path d="m104.25 191.246094-6.492188-3.75v7.5zm0 0"/><path d="m104.25 206.242188-6.492188-3.75v7.496093zm0 0"/><path d="m104.25 213.738281-6.492188-3.75v7.5zm0 0"/><path d="m104.25 221.234375-6.492188-3.746094v7.496094zm0 0"/><path d="m104.25 228.734375-6.492188-3.75v7.496094zm0 0"/><path d="m110.742188 232.480469-6.492188-3.746094v7.496094zm0 0"/><path d="m123.726562 239.980469-6.492187-3.75v7.496093zm0 0"/><path d="m130.222656 243.726562-6.496094-3.746093v7.496093zm0 0"/><path d="m136.714844 247.476562-6.492188-3.75v7.5zm0 0"/><path d="m143.207031 251.226562-6.492187-3.75v7.496094zm0 0"/><path d="m156.191406 258.722656-6.492187-3.75v7.5zm0 0"/><path d="m162.683594 262.472656-6.492188-3.75v7.496094zm0 0"/><path d="m175.671875 269.96875-6.492187-3.75v7.5zm0 0"/><path d="m182.164062 273.71875-6.492187-3.75v7.496094zm0 0"/><path d="m195.148438 266.21875-6.492188-3.746094v7.496094zm0 0"/><path d="m201.644531 262.472656-6.496093-3.75v7.496094zm0 0"/><path d="m208.136719 258.722656-6.492188-3.75v7.5zm0 0"/><path d="m214.628906 254.972656-6.492187-3.746094v7.496094zm0 0"/><path d="m221.121094 251.226562-6.492188-3.75v7.496094zm0 0"/><path d="m227.613281 247.476562-6.492187-3.75v7.5zm0 0"/><path d="m234.109375 243.726562-6.496094-3.746093v7.496093zm0 0"/><path d="m240.601562 239.980469-6.492187-3.75v7.496093zm0 0"/><path d="m247.09375 236.230469-6.492188-3.75v7.5zm0 0"/><path d="m273.066406 213.738281-6.492187-3.75v7.5zm0 0"/><path d="m273.066406 206.242188-6.492187-3.75v7.496093zm0 0"/><path d="m273.066406 198.742188-6.492187-3.746094v7.496094zm0 0"/><path d="m273.066406 191.246094-6.492187-3.75v7.5zm0 0"/><path d="m273.066406 183.75-6.492187-3.75v7.496094zm0 0"/><path d="m273.066406 138.765625-6.492187-3.75v7.496094zm0 0"/><path d="m266.574219 127.519531-6.496094-3.75v7.496094zm0 0"/><path d="m253.585938 120.019531-6.492188-3.746093v7.496093zm0 0"/><path d="m247.09375 116.273438-6.492188-3.75v7.496093zm0 0"/><path d="m240.601562 112.523438-6.492187-3.75v7.5zm0 0"/><path d="m234.109375 108.773438-6.496094-3.746094v7.496094zm0 0"/><path d="m227.613281 105.027344-6.492187-3.75v7.496094zm0 0"/><path d="m221.121094 101.277344-6.492188-3.75v7.5zm0 0"/><path d="m214.628906 97.527344-6.492187-3.746094v7.496094zm0 0"/><path d="m208.136719 93.78125-6.492188-3.75v7.496094zm0 0"/><path d="m201.644531 90.03125-6.496093-3.75v7.5zm0 0"/><path d="m195.148438 86.28125-6.492188-3.746094v7.496094zm0 0"/><path d="m149.699219 97.527344-6.492188-3.746094v7.496094zm0 0"/><path d="m136.714844 105.027344-6.492188-3.75v7.496094zm0 0"/><path d="m130.222656 108.773438-6.496094-3.746094v7.496094zm0 0"/><path d="m123.726562 112.523438-6.492187-3.75v7.5zm0 0"/><path d="m117.234375 116.273438-6.492187-3.75v7.496093zm0 0"/><path d="m110.742188 120.019531-6.492188-3.746093v7.496093zm0 0"/><path d="m104.25 123.769531-6.492188-3.75v7.5zm0 0"/><path d="m97.757812 127.519531-6.496093-3.75v7.496094zm0 0"/><path d="m97.757812 142.511719-6.496093-3.746094v7.496094zm0 0"/><path d="m97.757812 150.011719-6.496093-3.75v7.496093zm0 0"/><path d="m97.757812 157.507812-6.496093-3.75v7.5zm0 0"/><path d="m97.757812 194.996094-6.496093-3.75v7.496094zm0 0"/><path d="m97.757812 202.492188-6.496093-3.75v7.5zm0 0"/><path d="m97.757812 209.988281-6.496093-3.746093v7.496093zm0 0"/><path d="m97.757812 224.984375-6.496093-3.75v7.5zm0 0"/><path d="m104.25 236.230469-6.492188-3.75v7.5zm0 0"/><path d="m156.191406 266.21875-6.492187-3.746094v7.496094zm0 0"/><path d="m182.164062 281.214844-6.492187-3.75v7.5zm0 0"/><path d="m188.65625 277.464844-6.492188-3.746094v7.496094zm0 0"/><path d="m195.148438 273.71875-6.492188-3.75v7.496094zm0 0"/><path d="m208.136719 266.21875-6.492188-3.746094v7.496094zm0 0"/><path d="m221.121094 258.722656-6.492188-3.75v7.5zm0 0"/><path d="m227.613281 254.972656-6.492187-3.746094v7.496094zm0 0"/><path d="m234.109375 251.226562-6.496094-3.75v7.496094zm0 0"/><path d="m240.601562 247.476562-6.492187-3.75v7.5zm0 0"/><path d="m247.09375 243.726562-6.492188-3.746093v7.496093zm0 0"/><path d="m279.558594 232.480469-6.492188-3.746094v7.496094zm0 0"/><path d="m279.558594 224.984375-6.492188-3.75v7.5zm0 0"/><path d="m279.558594 209.988281-6.492188-3.746093v7.496093zm0 0"/><path d="m279.558594 180-6.492188-3.75v7.5zm0 0"/><path d="m279.558594 172.503906-6.492188-3.75v7.496094zm0 0"/><path d="m279.558594 165.003906-6.492188-3.746094v7.496094zm0 0"/><path d="m279.558594 157.507812-6.492188-3.75v7.5zm0 0"/><path d="m279.558594 150.011719-6.492188-3.75v7.496093zm0 0"/><path d="m279.558594 142.511719-6.492188-3.746094v7.496094zm0 0"/><path d="m279.558594 135.015625-6.492188-3.75v7.5zm0 0"/><path d="m279.558594 127.519531-6.492188-3.75v7.496094zm0 0"/><path d="m273.066406 123.769531-6.492187-3.75v7.5zm0 0"/><path d="m266.574219 120.019531-6.496094-3.746093v7.496093zm0 0"/><path d="m260.078125 116.273438-6.492187-3.75v7.496093zm0 0"/><path d="m227.613281 97.527344-6.492187-3.746094v7.496094zm0 0"/><path d="m221.121094 93.78125-6.492188-3.75v7.496094zm0 0"/><path d="m214.628906 90.03125-6.492187-3.75v7.5zm0 0"/><path d="m208.136719 86.28125-6.492188-3.746094v7.496094zm0 0"/><path d="m201.644531 82.535156-6.496093-3.75v7.496094zm0 0"/><path d="m195.148438 78.785156-6.492188-3.75v7.5zm0 0"/><path d="m162.683594 82.535156-6.492188-3.75v7.496094zm0 0"/><path d="m156.191406 86.28125-6.492187-3.746094v7.496094zm0 0"/><path d="m149.699219 90.03125-6.492188-3.75v7.5zm0 0"/><path d="m136.714844 97.527344-6.492188-3.746094v7.496094zm0 0"/><path d="m91.261719 123.769531-6.492188-3.75v7.5zm0 0"/><path d="m91.261719 131.265625-6.492188-3.746094v7.496094zm0 0"/><path d="m91.261719 138.765625-6.492188-3.75v7.496094zm0 0"/><path d="m91.261719 153.757812-6.492188-3.746093v7.496093zm0 0"/><path d="m91.261719 161.257812-6.492188-3.75v7.496094zm0 0"/><path d="m91.261719 168.753906-6.492188-3.75v7.5zm0 0"/><path d="m91.261719 176.25-6.492188-3.746094v7.496094zm0 0"/><path d="m91.261719 183.75-6.492188-3.75v7.496094zm0 0"/><path d="m91.261719 191.246094-6.492188-3.75v7.5zm0 0"/><path d="m91.261719 198.742188-6.492188-3.746094v7.496094zm0 0"/><path d="m91.261719 213.738281-6.492188-3.75v7.5zm0 0"/><path d="m91.261719 221.234375-6.492188-3.746094v7.496094zm0 0"/><path d="m91.261719 228.734375-6.492188-3.75v7.496094zm0 0"/><path d="m91.261719 236.230469-6.492188-3.75v7.5zm0 0"/><path d="m97.757812 239.980469-6.496093-3.75v7.496093zm0 0"/><path d="m104.25 243.726562-6.492188-3.746093v7.496093zm0 0"/><path d="m110.742188 247.476562-6.492188-3.75v7.5zm0 0"/><path d="m117.234375 251.226562-6.492187-3.75v7.496094zm0 0"/><path d="m123.726562 254.972656-6.492187-3.746094v7.496094zm0 0"/><path d="m130.222656 258.722656-6.496094-3.75v7.5zm0 0"/><path d="m136.714844 262.472656-6.492188-3.75v7.496094zm0 0"/><path d="m143.207031 266.21875-6.492187-3.746094v7.496094zm0 0"/><path d="m149.699219 269.96875-6.492188-3.75v7.5zm0 0"/><path d="m156.191406 273.71875-6.492187-3.75v7.496094zm0 0"/><path d="m162.683594 277.464844-6.492188-3.746094v7.496094zm0 0"/><path d="m175.671875 284.964844-6.492187-3.75v7.496094zm0 0"/><path d="m182.164062 288.710938-6.492187-3.746094v7.496094zm0 0"/><path d="m195.148438 281.214844-6.492188-3.75v7.5zm0 0"/><path d="m201.644531 277.464844-6.496093-3.746094v7.496094zm0 0"/><path d="m208.136719 273.71875-6.492188-3.75v7.496094zm0 0"/><path d="m214.628906 269.96875-6.492187-3.75v7.5zm0 0"/><path d="m221.121094 266.21875-6.492188-3.746094v7.496094zm0 0"/><path d="m247.09375 251.226562-6.492188-3.75v7.496094zm0 0"/><path d="m253.585938 247.476562-6.492188-3.75v7.5zm0 0"/><path d="m286.050781 221.234375-6.492187-3.746094v7.496094zm0 0"/><path d="m286.050781 213.738281-6.492187-3.75v7.5zm0 0"/><path d="m286.050781 183.75-6.492187-3.75v7.496094zm0 0"/><path d="m286.050781 176.25-6.492187-3.746094v7.496094zm0 0"/><path d="m286.050781 168.753906-6.492187-3.75v7.5zm0 0"/><path d="m286.050781 161.257812-6.492187-3.75v7.496094zm0 0"/><path d="m286.050781 153.757812-6.492187-3.746093v7.496093zm0 0"/><path d="m286.050781 146.261719-6.492187-3.75v7.5zm0 0"/><path d="m286.050781 138.765625-6.492187-3.75v7.496094zm0 0"/><path d="m286.050781 131.265625-6.492187-3.746094v7.496094zm0 0"/><path d="m279.558594 120.019531-6.492188-3.746093v7.496093zm0 0"/><path d="m266.574219 112.523438-6.496094-3.75v7.5zm0 0"/><path d="m260.078125 108.773438-6.492187-3.746094v7.496094zm0 0"/><path d="m253.585938 105.027344-6.492188-3.75v7.496094zm0 0"/><path d="m247.09375 101.277344-6.492188-3.75v7.5zm0 0"/><path d="m240.601562 97.527344-6.492187-3.746094v7.496094zm0 0"/><path d="m234.109375 93.78125-6.496094-3.75v7.496094zm0 0"/><path d="m227.613281 90.03125-6.492187-3.75v7.5zm0 0"/><path d="m130.222656 93.78125-6.496094-3.75v7.496094zm0 0"/><path d="m84.769531 120.019531-6.492187-3.746093v7.496093zm0 0"/><path d="m84.769531 135.015625-6.492187-3.75v7.5zm0 0"/><path d="m84.769531 142.511719-6.492187-3.746094v7.496094zm0 0"/><path d="m84.769531 150.011719-6.492187-3.75v7.496093zm0 0"/><path d="m84.769531 157.507812-6.492187-3.75v7.5zm0 0"/><path d="m84.769531 165.003906-6.492187-3.746094v7.496094zm0 0"/><path d="m84.769531 172.503906-6.492187-3.75v7.496094zm0 0"/><path d="m84.769531 180-6.492187-3.75v7.5zm0 0"/><path d="m84.769531 187.496094-6.492187-3.746094v7.496094zm0 0"/><path d="m84.769531 194.996094-6.492187-3.75v7.496094zm0 0"/><path d="m84.769531 202.492188-6.492187-3.75v7.5zm0 0"/><path d="m84.769531 209.988281-6.492187-3.746093v7.496093zm0 0"/><path d="m84.769531 217.488281-6.492187-3.75v7.496094zm0 0"/><path d="m84.769531 232.480469-6.492187-3.746094v7.496094zm0 0"/><path d="m91.261719 243.726562-6.492188-3.746093v7.496093zm0 0"/><path d="m97.757812 247.476562-6.496093-3.75v7.5zm0 0"/><path d="m104.25 251.226562-6.492188-3.75v7.496094zm0 0"/><path d="m110.742188 254.972656-6.492188-3.746094v7.496094zm0 0"/><path d="m117.234375 258.722656-6.492187-3.75v7.5zm0 0"/><path d="m123.726562 262.472656-6.492187-3.75v7.496094zm0 0"/><path d="m130.222656 266.21875-6.496094-3.746094v7.496094zm0 0"/><path d="m136.714844 269.96875-6.492188-3.75v7.5zm0 0"/><path d="m143.207031 273.71875-6.492187-3.75v7.496094zm0 0"/><path d="m149.699219 277.464844-6.492188-3.746094v7.496094zm0 0"/><path d="m156.191406 281.214844-6.492187-3.75v7.5zm0 0"/><path d="m182.164062 296.210938-6.492187-3.75v7.496093zm0 0"/><path d="m188.65625 292.460938-6.492188-3.75v7.5zm0 0"/><path d="m195.148438 288.710938-6.492188-3.746094v7.496094zm0 0"/><path d="m208.136719 281.214844-6.492188-3.75v7.5zm0 0"/><path d="m221.121094 273.71875-6.492188-3.75v7.496094zm0 0"/><path d="m227.613281 269.96875-6.492187-3.75v7.5zm0 0"/><path d="m234.109375 266.21875-6.496094-3.746094v7.496094zm0 0"/><path d="m240.601562 262.472656-6.492187-3.75v7.496094zm0 0"/><path d="m247.09375 258.722656-6.492188-3.75v7.5zm0 0"/><path d="m253.585938 254.972656-6.492188-3.746094v7.496094zm0 0"/><path d="m260.078125 251.226562-6.492187-3.75v7.496094zm0 0"/><path d="m292.542969 239.980469-6.492188-3.75v7.496093zm0 0"/><path d="m292.542969 232.480469-6.492188-3.746094v7.496094zm0 0"/><path d="m292.542969 224.984375-6.492188-3.75v7.5zm0 0"/><path d="m292.542969 217.488281-6.492188-3.75v7.496094zm0 0"/><path d="m292.542969 209.988281-6.492188-3.746093v7.496093zm0 0"/><path d="m292.542969 202.492188-6.492188-3.75v7.5zm0 0"/><path d="m292.542969 194.996094-6.492188-3.75v7.496094zm0 0"/><path d="m292.542969 187.496094-6.492188-3.746094v7.496094zm0 0"/><path d="m292.542969 180-6.492188-3.75v7.5zm0 0"/><path d="m292.542969 172.503906-6.492188-3.75v7.496094zm0 0"/><path d="m292.542969 165.003906-6.492188-3.746094v7.496094zm0 0"/><path d="m292.542969 157.507812-6.492188-3.75v7.5zm0 0"/><path d="m292.542969 150.011719-6.492188-3.75v7.496093zm0 0"/><path d="m292.542969 142.511719-6.492188-3.746094v7.496094zm0 0"/><path d="m292.542969 135.015625-6.492188-3.75v7.5zm0 0"/><path d="m292.542969 127.519531-6.492188-3.75v7.496094zm0 0"/><path d="m292.542969 120.019531-6.492188-3.746093v7.496093zm0 0"/><path d="m286.050781 116.273438-6.492187-3.75v7.496093zm0 0"/><path d="m279.558594 112.523438-6.492188-3.75v7.5zm0 0"/><path d="m273.066406 108.773438-6.492187-3.746094v7.496094zm0 0"/><path d="m266.574219 105.027344-6.496094-3.75v7.496094zm0 0"/><path d="m260.078125 101.277344-6.492187-3.75v7.5zm0 0"/><path d="m253.585938 97.527344-6.492188-3.746094v7.496094zm0 0"/><path d="m247.09375 93.78125-6.492188-3.75v7.496094zm0 0"/><path d="m240.601562 90.03125-6.492187-3.75v7.5zm0 0"/><path d="m234.109375 86.28125-6.496094-3.746094v7.496094zm0 0"/><path d="m123.726562 90.03125-6.492187-3.75v7.5zm0 0"/><path d="m117.234375 93.78125-6.492187-3.75v7.496094zm0 0"/><path d="m110.742188 97.527344-6.492188-3.746094v7.496094zm0 0"/><path d="m104.25 101.277344-6.492188-3.75v7.5zm0 0"/><path d="m97.757812 105.027344-6.496093-3.75v7.496094zm0 0"/><path d="m91.261719 108.773438-6.492188-3.746094v7.496094zm0 0"/><path d="m84.769531 112.523438-6.492187-3.75v7.5zm0 0"/><path d="m78.277344 116.273438-6.492188-3.75v7.496093zm0 0"/><path d="m78.277344 123.769531-6.492188-3.75v7.5zm0 0"/><path d="m78.277344 131.265625-6.492188-3.746094v7.496094zm0 0"/><path d="m78.277344 221.234375-6.492188-3.746094v7.496094zm0 0"/><path d="m78.277344 228.734375-6.492188-3.75v7.496094zm0 0"/><path d="m78.277344 236.230469-6.492188-3.75v7.5zm0 0"/><path d="m78.277344 243.726562-6.492188-3.746093v7.496093zm0 0"/><path d="m84.769531 247.476562-6.492187-3.75v7.5zm0 0"/><path d="m91.261719 251.226562-6.492188-3.75v7.496094zm0 0"/><path d="m97.757812 254.972656-6.496093-3.746094v7.496094zm0 0"/><path d="m104.25 258.722656-6.492188-3.75v7.5zm0 0"/><path d="m110.742188 262.472656-6.492188-3.75v7.496094zm0 0"/><path d="m117.234375 266.21875-6.492187-3.746094v7.496094zm0 0"/><path d="m123.726562 269.96875-6.492187-3.75v7.5zm0 0"/><path d="m130.222656 273.71875-6.496094-3.75v7.496094zm0 0"/><path d="m136.714844 277.464844-6.492188-3.746094v7.496094zm0 0"/><path d="m143.207031 281.214844-6.492187-3.75v7.5zm0 0"/><path d="m149.699219 284.964844-6.492188-3.75v7.496094zm0 0"/><path d="m156.191406 288.710938-6.492187-3.746094v7.496094zm0 0"/><path d="m162.683594 292.460938-6.492188-3.75v7.5zm0 0"/><path d="m175.671875 299.957031-6.492187-3.746093v7.496093zm0 0"/><path d="m188.65625 299.957031-6.492188-3.746093v7.496093zm0 0"/><path d="m195.148438 296.210938-6.492188-3.75v7.496093zm0 0"/><path d="m201.644531 292.460938-6.496093-3.75v7.5zm0 0"/><path d="m208.136719 288.710938-6.492188-3.746094v7.496094zm0 0"/><path d="m214.628906 284.964844-6.492187-3.75v7.496094zm0 0"/><path d="m221.121094 281.214844-6.492188-3.75v7.5zm0 0"/><path d="m227.613281 277.464844-6.492187-3.746094v7.496094zm0 0"/><path d="m234.109375 273.71875-6.496094-3.75v7.496094zm0 0"/><path d="m240.601562 269.96875-6.492187-3.75v7.5zm0 0"/><path d="m247.09375 266.21875-6.492188-3.746094v7.496094zm0 0"/><path d="m253.585938 262.472656-6.492188-3.75v7.496094zm0 0"/><path d="m260.078125 258.722656-6.492187-3.75v7.5zm0 0"/><path d="m266.574219 254.972656-6.496094-3.746094v7.496094zm0 0"/><path d="m273.066406 251.226562-6.492187-3.75v7.496094zm0 0"/><path d="m299.039062 176.25-6.496093-3.746094v7.496094zm0 0"/><path d="m299.039062 168.753906-6.496093-3.75v7.5zm0 0"/><path d="m299.039062 161.257812-6.496093-3.75v7.496094zm0 0"/><path d="m299.039062 153.757812-6.496093-3.746093v7.496093zm0 0"/><path d="m299.039062 146.261719-6.496093-3.75v7.5zm0 0"/><path d="m299.039062 138.765625-6.496093-3.75v7.496094zm0 0"/><path d="m299.039062 131.265625-6.496093-3.746094v7.496094zm0 0"/><path d="m299.039062 123.769531-6.496093-3.75v7.5zm0 0"/><path d="m292.542969 112.523438-6.492188-3.75v7.5zm0 0"/><path d="m71.785156 127.519531-6.492187-3.75v7.496094zm0 0"/><path d="m71.785156 135.015625-6.492187-3.75v7.5zm0 0"/><path d="m71.785156 142.511719-6.492187-3.746094v7.496094zm0 0"/><path d="m71.785156 150.011719-6.492187-3.75v7.496093zm0 0"/><path d="m71.785156 157.507812-6.492187-3.75v7.5zm0 0"/><path d="m71.785156 165.003906-6.492187-3.746094v7.496094zm0 0"/><path d="m71.785156 172.503906-6.492187-3.75v7.496094zm0 0"/><path d="m71.785156 180-6.492187-3.75v7.5zm0 0"/><path d="m71.785156 187.496094-6.492187-3.746094v7.496094zm0 0"/><path d="m71.785156 194.996094-6.492187-3.75v7.496094zm0 0"/><path d="m71.785156 202.492188-6.492187-3.75v7.5zm0 0"/><path d="m71.785156 209.988281-6.492187-3.746093v7.496093zm0 0"/><path d="m71.785156 217.488281-6.492187-3.75v7.496094zm0 0"/><path d="m71.785156 224.984375-6.492187-3.75v7.5zm0 0"/><path d="m78.277344 251.226562-6.492188-3.75v7.496094zm0 0"/><path d="m84.769531 254.972656-6.492187-3.746094v7.496094zm0 0"/><path d="m91.261719 258.722656-6.492188-3.75v7.5zm0 0"/><path d="m97.757812 262.472656-6.496093-3.75v7.496094zm0 0"/><path d="m104.25 266.21875-6.492188-3.746094v7.496094zm0 0"/><path d="m110.742188 269.96875-6.492188-3.75v7.5zm0 0"/><path d="m117.234375 273.71875-6.492187-3.75v7.496094zm0 0"/><path d="m123.726562 277.464844-6.492187-3.746094v7.496094zm0 0"/><path d="m130.222656 281.214844-6.496094-3.75v7.5zm0 0"/><path d="m136.714844 284.964844-6.492188-3.75v7.496094zm0 0"/><path d="m143.207031 288.710938-6.492187-3.746094v7.496094zm0 0"/><path d="m149.699219 292.460938-6.492188-3.75v7.5zm0 0"/><path d="m156.191406 296.210938-6.492187-3.75v7.496093zm0 0"/><path d="m162.683594 299.957031-6.492188-3.746093v7.496093zm0 0"/><path d="m175.671875 307.457031-6.492187-3.75v7.496094zm0 0"/><path d="m208.136719 296.210938-6.492188-3.75v7.496093zm0 0"/><path d="m299.039062 108.773438-6.496093-3.746094v7.496094zm0 0"/><path d="m292.542969 105.027344-6.492188-3.75v7.496094zm0 0"/><path d="m286.050781 101.277344-6.492187-3.75v7.5zm0 0"/><path d="m279.558594 97.527344-6.492188-3.746094v7.496094zm0 0"/><path d="m273.066406 93.78125-6.492187-3.75v7.496094zm0 0"/><path d="m266.574219 90.03125-6.496094-3.75v7.5zm0 0"/><path d="m260.078125 86.28125-6.492187-3.746094v7.496094zm0 0"/><path d="m253.585938 82.535156-6.492188-3.75v7.496094zm0 0"/><path d="m247.09375 78.785156-6.492188-3.75v7.5zm0 0"/><path d="m240.601562 75.035156-6.492187-3.746094v7.496094zm0 0"/><path d="m234.109375 71.289062-6.496094-3.75v7.496094zm0 0"/><path d="m227.613281 67.539062-6.492187-3.75v7.5zm0 0"/><path d="m221.121094 63.789062-6.492188-3.746093v7.496093zm0 0"/><path d="m214.628906 60.042969-6.492187-3.75v7.496093zm0 0"/><path d="m208.136719 56.292969-6.492188-3.75v7.5zm0 0"/><path d="m201.644531 52.542969-6.496093-3.746094v7.496094zm0 0"/><path d="m195.148438 48.796875-6.492188-3.75v7.496094zm0 0"/><path d="m65.292969 123.769531-6.496094-3.75v7.5zm0 0"/><path d="m65.292969 131.265625-6.496094-3.746094v7.496094zm0 0"/><path d="m65.292969 138.765625-6.496094-3.75v7.496094zm0 0"/><path d="m65.292969 146.261719-6.496094-3.75v7.5zm0 0"/><path d="m65.292969 153.757812-6.496094-3.746093v7.496093zm0 0"/><path d="m65.292969 161.257812-6.496094-3.75v7.496094zm0 0"/><path d="m65.292969 168.753906-6.496094-3.75v7.5zm0 0"/><path d="m65.292969 176.25-6.496094-3.746094v7.496094zm0 0"/><path d="m65.292969 183.75-6.496094-3.75v7.496094zm0 0"/><path d="m65.292969 191.246094-6.496094-3.75v7.5zm0 0"/><path d="m65.292969 198.742188-6.496094-3.746094v7.496094zm0 0"/><path d="m65.292969 206.242188-6.496094-3.75v7.496093zm0 0"/><path d="m65.292969 213.738281-6.496094-3.75v7.5zm0 0"/><path d="m65.292969 221.234375-6.496094-3.746094v7.496094zm0 0"/><path d="m65.292969 228.734375-6.496094-3.75v7.496094zm0 0"/><path d="m65.292969 251.226562-6.496094-3.75v7.496094zm0 0"/><path d="m175.671875 314.953125-6.492187-3.75v7.5zm0 0"/><path d="m182.164062 318.703125-6.492187-3.75v7.496094zm0 0"/><path d="m208.136719 303.707031-6.492188-3.75v7.5zm0 0"/><path d="m214.628906 299.957031-6.492187-3.746093v7.496093zm0 0"/><path d="m221.121094 296.210938-6.492188-3.75v7.496093zm0 0"/><path d="m227.613281 292.460938-6.492187-3.75v7.5zm0 0"/><path d="m234.109375 288.710938-6.496094-3.746094v7.496094zm0 0"/><path d="m240.601562 284.964844-6.492187-3.75v7.496094zm0 0"/><path d="m247.09375 281.214844-6.492188-3.75v7.5zm0 0"/><path d="m253.585938 277.464844-6.492188-3.746094v7.496094zm0 0"/><path d="m260.078125 273.71875-6.492187-3.75v7.496094zm0 0"/><path d="m266.574219 269.96875-6.496094-3.75v7.5zm0 0"/><path d="m273.066406 266.21875-6.492187-3.746094v7.496094zm0 0"/><path d="m279.558594 262.472656-6.492188-3.75v7.496094zm0 0"/><path d="m286.050781 258.722656-6.492187-3.75v7.5zm0 0"/><path d="m312.023438 243.726562-6.492188-3.746093v7.496093zm0 0"/><path d="m312.023438 236.230469-6.492188-3.75v7.5zm0 0"/><path d="m312.023438 228.734375-6.492188-3.75v7.496094zm0 0"/><path d="m312.023438 221.234375-6.492188-3.746094v7.496094zm0 0"/><path d="m312.023438 213.738281-6.492188-3.75v7.5zm0 0"/><path d="m312.023438 206.242188-6.492188-3.75v7.496093zm0 0"/><path d="m312.023438 198.742188-6.492188-3.746094v7.496094zm0 0"/><path d="m312.023438 191.246094-6.492188-3.75v7.5zm0 0"/><path d="m312.023438 183.75-6.492188-3.75v7.496094zm0 0"/><path d="m312.023438 176.25-6.492188-3.746094v7.496094zm0 0"/><path d="m312.023438 168.753906-6.492188-3.75v7.5zm0 0"/><path d="m312.023438 161.257812-6.492188-3.75v7.496094zm0 0"/><path d="m312.023438 153.757812-6.492188-3.746093v7.496093zm0 0"/><path d="m312.023438 146.261719-6.492188-3.75v7.5zm0 0"/><path d="m312.023438 138.765625-6.492188-3.75v7.496094zm0 0"/><path d="m312.023438 131.265625-6.492188-3.746094v7.496094zm0 0"/><path d="m312.023438 123.769531-6.492188-3.75v7.5zm0 0"/><path d="m312.023438 116.273438-6.492188-3.75v7.496093zm0 0"/><path d="m312.023438 108.773438-6.492188-3.746094v7.496094zm0 0"/><path d="m305.53125 105.027344-6.492188-3.75v7.496094zm0 0"/><path d="m299.039062 101.277344-6.496093-3.75v7.5zm0 0"/><path d="m292.542969 97.527344-6.492188-3.746094v7.496094zm0 0"/><path d="m286.050781 93.78125-6.492187-3.75v7.496094zm0 0"/><path d="m279.558594 90.03125-6.492188-3.75v7.5zm0 0"/><path d="m273.066406 86.28125-6.492187-3.746094v7.496094zm0 0"/><path d="m266.574219 82.535156-6.496094-3.75v7.496094zm0 0"/><path d="m260.078125 78.785156-6.492187-3.75v7.5zm0 0"/><path d="m253.585938 75.035156-6.492188-3.746094v7.496094zm0 0"/><path d="m247.09375 71.289062-6.492188-3.75v7.496094zm0 0"/><path d="m240.601562 67.539062-6.492187-3.75v7.5zm0 0"/><path d="m234.109375 63.789062-6.496094-3.746093v7.496093zm0 0"/><path d="m227.613281 60.042969-6.492187-3.75v7.496093zm0 0"/><path d="m221.121094 56.292969-6.492188-3.75v7.5zm0 0"/><path d="m214.628906 52.542969-6.492187-3.746094v7.496094zm0 0"/><path d="m208.136719 48.796875-6.492188-3.75v7.496094zm0 0"/><path d="m201.644531 45.046875-6.496093-3.75v7.5zm0 0"/><path d="m195.148438 41.296875-6.492188-3.746094v7.496094zm0 0"/><path d="m162.683594 45.046875-6.492188-3.75v7.5zm0 0"/><path d="m156.191406 48.796875-6.492187-3.75v7.496094zm0 0"/><path d="m149.699219 52.542969-6.492188-3.746094v7.496094zm0 0"/><path d="m143.207031 56.292969-6.492187-3.75v7.5zm0 0"/><path d="m136.714844 60.042969-6.492188-3.75v7.496093zm0 0"/><path d="m130.222656 63.789062-6.496094-3.746093v7.496093zm0 0"/><path d="m123.726562 67.539062-6.492187-3.75v7.5zm0 0"/><path d="m117.234375 71.289062-6.492187-3.75v7.496094zm0 0"/><path d="m110.742188 75.035156-6.492188-3.746094v7.496094zm0 0"/><path d="m104.25 78.785156-6.492188-3.75v7.5zm0 0"/><path d="m97.757812 82.535156-6.496093-3.75v7.496094zm0 0"/><path d="m91.261719 86.28125-6.492188-3.746094v7.496094zm0 0"/><path d="m84.769531 90.03125-6.492187-3.75v7.5zm0 0"/><path d="m78.277344 93.78125-6.492188-3.75v7.496094zm0 0"/><path d="m71.785156 97.527344-6.492187-3.746094v7.496094zm0 0"/><path d="m65.292969 101.277344-6.496094-3.75v7.5zm0 0"/><path d="m58.796875 105.027344-6.492187-3.75v7.496094zm0 0"/><path d="m58.796875 112.523438-6.492187-3.75v7.5zm0 0"/><path d="m58.796875 120.019531-6.492187-3.746093v7.496093zm0 0"/><path d="m58.796875 127.519531-6.492187-3.75v7.496094zm0 0"/><path d="m58.796875 135.015625-6.492187-3.75v7.5zm0 0"/><path d="m58.796875 142.511719-6.492187-3.746094v7.496094zm0 0"/><path d="m58.796875 150.011719-6.492187-3.75v7.496093zm0 0"/><path d="m58.796875 157.507812-6.492187-3.75v7.5zm0 0"/><path d="m58.796875 165.003906-6.492187-3.746094v7.496094zm0 0"/><path d="m58.796875 172.503906-6.492187-3.75v7.496094zm0 0"/><path d="m58.796875 180-6.492187-3.75v7.5zm0 0"/><path d="m58.796875 187.496094-6.492187-3.746094v7.496094zm0 0"/><path d="m58.796875 194.996094-6.492187-3.75v7.496094zm0 0"/><path d="m58.796875 202.492188-6.492187-3.75v7.5zm0 0"/><path d="m58.796875 209.988281-6.492187-3.746093v7.496093zm0 0"/><path d="m58.796875 217.488281-6.492187-3.75v7.496094zm0 0"/><path d="m58.796875 224.984375-6.492187-3.75v7.5zm0 0"/><path d="m58.796875 232.480469-6.492187-3.746094v7.496094zm0 0"/><path d="m58.796875 239.980469-6.492187-3.75v7.496093zm0 0"/><path d="m58.796875 247.476562-6.492187-3.75v7.5zm0 0"/><path d="m65.292969 258.722656-6.496094-3.75v7.5zm0 0"/><path d="m71.785156 262.472656-6.492187-3.75v7.496094zm0 0"/><path d="m78.277344 266.21875-6.492188-3.746094v7.496094zm0 0"/><path d="m84.769531 269.96875-6.492187-3.75v7.5zm0 0"/><path d="m91.261719 273.71875-6.492188-3.75v7.496094zm0 0"/><path d="m97.757812 277.464844-6.496093-3.746094v7.496094zm0 0"/><path d="m104.25 281.214844-6.492188-3.75v7.5zm0 0"/><path d="m110.742188 284.964844-6.492188-3.75v7.496094zm0 0"/><path d="m117.234375 288.710938-6.492187-3.746094v7.496094zm0 0"/><path d="m123.726562 292.460938-6.492187-3.75v7.5zm0 0"/><path d="m130.222656 296.210938-6.496094-3.75v7.496093zm0 0"/><path d="m136.714844 299.957031-6.492188-3.746093v7.496093zm0 0"/><path d="m143.207031 303.707031-6.492187-3.75v7.5zm0 0"/><path d="m149.699219 307.457031-6.492188-3.75v7.496094zm0 0"/><path d="m156.191406 311.203125-6.492187-3.746094v7.496094zm0 0"/><path d="m162.683594 314.953125-6.492188-3.75v7.5zm0 0"/><path d="m188.65625 322.449219-6.492188-3.746094v7.496094zm0 0"/><path d="m195.148438 318.703125-6.492188-3.75v7.496094zm0 0"/><path d="m201.644531 314.953125-6.496093-3.75v7.5zm0 0"/><path d="m208.136719 311.203125-6.492188-3.746094v7.496094zm0 0"/><path d="m214.628906 307.457031-6.492187-3.75v7.496094zm0 0"/><path d="m221.121094 303.707031-6.492188-3.75v7.5zm0 0"/><path d="m227.613281 299.957031-6.492187-3.746093v7.496093zm0 0"/><path d="m234.109375 296.210938-6.496094-3.75v7.496093zm0 0"/><path d="m240.601562 292.460938-6.492187-3.75v7.5zm0 0"/><path d="m247.09375 288.710938-6.492188-3.746094v7.496094zm0 0"/><path d="m253.585938 284.964844-6.492188-3.75v7.496094zm0 0"/><path d="m260.078125 281.214844-6.492187-3.75v7.5zm0 0"/><path d="m266.574219 277.464844-6.496094-3.746094v7.496094zm0 0"/><path d="m273.066406 273.71875-6.492187-3.75v7.496094zm0 0"/><path d="m279.558594 269.96875-6.492188-3.75v7.5zm0 0"/><path d="m286.050781 266.21875-6.492187-3.746094v7.496094zm0 0"/><path d="m292.542969 262.472656-6.492188-3.75v7.496094zm0 0"/></g></svg>