<svg xmlns="http://www.w3.org/2000/svg" xmlns:xlink="http://www.w3.org/1999/xlink" width="480" height="480" viewBox="0 0 360 360" version="1.1"><g id="surface19436"><rect x="0" y="0" width="360" height="360" fill="rgb(100%,100%,100%)" fill-opacity="1" stroke="none"/><path d="M 178.667969 180 L 193.597656 171.378906 L 193.597656 188.621094 Z M 178.667969 180" stroke="none" fill-rule="evenodd" fill="rgb(50.000763%,0%,50.000763%)" fill-opacity="1"/><path d="M 193.597656 188.621094 L 208.527344 180 L 208.527344 197.238281 Z M 193.597656 188.621094" stroke="none" fill-rule="evenodd" fill="rgb(50.000763%,0%,50.000763%)" fill-opacity="1"/><path d="M 193.597656 171.378906 L 208.527344 162.761719 L 208.527344 180 Z M 193.597656 171.378906" stroke="none" fill-rule="evenodd" fill="rgb(50.000763%,0%,50.000763%)" fill-opacity="1"/><path d="M 178.667969 162.761719 L 193.597656 154.140625 L 193.597656 171.378906 Z M 178.667969 162.761719" stroke="none" fill-rule="evenodd" fill="rgb(50.000763%,0%,50.000763%)" fill-opacity="1"/><path d="M 163.738281 171.378906 L 178.667969 162.761719 L 178.667969 180 Z M 163.738281 171.378906" stroke="none" fill-rule="evenodd" fill="rgb(50.000763%,0%,50.000763%)" fill-opacity="1"/><path d="M 163.738281 188.621094 L 178.667969 180 L 178.667969 197.238281 Z M 163.738281 188.621094" stroke="none" fill-rule="evenodd" fill="rgb(50.000763%,0%,50.000763%)" fill-opacity="1"/><path d="M 178.667969 197.238281 L 193.597656 188.621094 L 193.597656 205.859375 Z M 178.667969 197.238281" stroke="none" fill-rule="evenodd" fill="rgb(50.000763%,0%,50.000763%)" fill-opacity="1"/><path d="M 208.527344 197.238281 L 223.457031 188.621094 L 223.457031 205.859375 Z M 208.527344 197.238281" stroke="none" fill-rule="evenodd" fill="rgb(50.000763%,0%,50.000763%)" fill-opacity="1"/><path d="M 208.527344 180 L 223.457031 171.378906 L 223.457031 188.621094 Z M 208.527344 180" stroke="none" fill-rule="evenodd" fill="rgb(50.000763%,0%,50.000763%)" fill-opacity="1"/><path d="M 208.527344 162.761719 L 223.457031 154.140625 L 223.457031 171.378906 Z M 208.527344 162.761719" stroke="none" fill-rule="evenodd" fill="rgb(50.000763%,0%,50.000763%)" fill-opacity="1"/><path d="M 193.597656 154.140625 L 208.527344 145.523438 L 208.527344 162.761719 Z M 193.597656 154.140625" stroke="none" fill-rule="evenodd" fill="rgb(50.000763%,0%,50.000763%)" fill-opacity="1"/><path d="M 178.667969 145.523438 L 193.597656 136.902344 L 193.597656 154.140625 Z M 178.667969 145.523438" stroke="none" fill-rule="evenodd" fill="rgb(50.000763%,0%,50.000763%)" fill-opacity="1"/><path d="M 163.738281 154.140625 L 178.667969 145.523438 L 178.667969 162.761719 Z M 163.738281 154.140625" stroke="none" fill-rule="evenodd" fill="rgb(50.000763%,0%,50.000763%)" fill-opacity="1"/><path d="M 148.808594 162.761719 L 163.738281 154.140625 L 163.738281 171.378906 Z M 148.808594 162.761719" stroke="none" fill-rule="evenodd" fill="rgb(50.000763%,0%,50.000763%)" fill-opacity="1"/><path d="M 148.808594 180 L 163.738281 171.378906 L 163.738281 188.621094 Z M 148.808594 180" stroke="none" fill-rule="evenodd" fill="rgb(50.000763%,0%,50.000763%)" fill-opacity="1"/><path d="M 148.808594 197.238281 L 163.738281 188.621094 L 163.738281 205.859375 Z M 148.808594 197.238281" stroke="none" fill-rule="evenodd" fill="rgb(50.000763%,0%,50.000763%)" fill-opacity="1"/><path d="M 163.738281 205.859375 L 178.667969 197.238281 L 178.667969 214.476562 Z M 163.738281 205.859375" stroke="none" fill-rule="evenodd" fill="rgb(50.000763%,0%,50.000763%)" fill-opacity="1"/><path d="M 178.667969 214.476562 L 193.597656 205.859375 L 193.597656 223.097656 Z M 178.667969 214.476562" stroke="none" fill-rule="evenodd" fill="rgb(50.000763%,0%,50.000763%)" fill-opacity="1"/><path d="M 193.597656 205.859375 L 208.527344 197.238281 L 208.527344 214.476562 Z M 193.597656 205.859375" stroke="none" fill-rule="evenodd" fill="rgb(50.000763%,0%,50.000763%)" fill-opacity="1"/><path d="M 223.457031 205.859375 L 238.386719 197.238281 L 238.386719 214.476562 Z M 223.457031 205.859375" stroke="none" fill-rule="evenodd" fill="rgb(50.000763%,0%,50.000763%)" fill-opacity="1"/><path d="M 223.457031 188.621094 L 238.386719 180 L 238.386719 197.238281 Z M 223.457031 188.621094" stroke="none" fill-rule="evenodd" fill="rgb(50.000763%,0%,50.000763%)" fill-opacity="1"/><path d="M 223.457031 171.378906 L 238.386719 162.761719 L 238.386719 180 Z M 223.457031 171.378906" stroke="none" fill-rule="evenodd" fill="rgb(50.000763%,0%,50.000763%)" fill-opacity="1"/><path d="M 223.457031 154.140625 L 238.386719 145.523438 L 238.386719 162.761719 Z M 223.457031 154.140625" stroke="none" fill-rule="evenodd" fill="rgb(50.000763%,0%,50.000763%)" fill-opacity="1"/><path d="M 208.527344 145.523438 L 223.457031 136.902344 L 223.457031 154.140625 Z M 208.527344 145.523438" stroke="none" fill-rule="evenodd" fill="rgb(50.000763%,0%,50.000763%)" fill-opacity="1"/><path d="M 193.597656 136.902344 L 208.527344 128.28125 L 208.527344 145.523438 Z M 193.597656 136.902344" stroke="none" fill-rule="evenodd" fill="rgb(50.000763%,0%,50.000763%)" fill-opacity="1"/><path d="M 178.667969 128.28125 L 193.597656 119.664062 L 193.597656 136.902344 Z M 178.667969 128.28125" stroke="none" fill-rule="evenodd" fill="rgb(50.000763%,0%,50.000763%)" fill-opacity="1"/><path d="M 163.738281 136.902344 L 178.667969 128.28125 L 178.667969 145.523438 Z M 163.738281 136.902344" stroke="none" fill-rule="evenodd" fill="rgb(50.000763%,0%,50.000763%)" fill-opacity="1"/><path d="M 148.808594 145.523438 L 163.738281 136.902344 L 163.738281 154.140625 Z M 148.808594 145.523438" stroke="none" fill-rule="evenodd" fill="rgb(50.000763%,0%,50.000763%)" fill-opacity="1"/><path d="M 133.878906 154.140625 L 148.808594 145.523438 L 148.808594 162.761719 Z M 133.878906 154.140625" stroke="none" fill-rule="evenodd" fill="rgb(50.000763%,0%,50.000763%)" fill-opacity="1"/><path d="M 133.878906 171.378906 L 148.808594 162.761719 L 148.808594 180 Z M 133.878906 171.378906" stroke="none" fill-rule="evenodd" fill="rgb(50.000763%,0%,50.000763%)" fill-opacity="1"/><path d="M 133.878906 188.621094 L 148.808594 180 L 148.808594 197.238281 Z M 133.878906 188.621094" stroke="none" fill-rule="evenodd" fill="rgb(50.000763%,0%,50.000763%)" fill-opacity="1"/><path d="M 133.878906 205.859375 L 148.808594 197.238281 L 148.808594 214.476562 Z M 133.878906 205.859375" stroke="none" fill-rule="evenodd" fill="rgb(50.000763%,0%,50.000763%)" fill-opacity="1"/><path d="M 148.808594 214.476562 L 163.738281 205.859375 L 163.738281 223.097656 Z M 148.808594 214.476562" stroke="none" fill-rule="evenodd" fill="rgb(50.000763%,0%,50.000763%)" fill-opacity="1"/><path d="M 163.738281 223.097656 L 178.667969 214.476562 L 178.667969 231.71875 Z M 163.738281 223.097656" stroke="none" fill-rule="evenodd" fill="rgb(50.000763%,0%,50.000763%)" fill-opacity="1"/><path d="M 178.667969 231.71875 L 193.597656 223.097656 L 193.597656 240.335938 Z M 178.667969 231.71875" stroke="none" fill-rule="evenodd" fill="rgb(50.000763%,0%,50.000763%)" fill-opacity="1"/><path d="M 193.597656 223.097656 L 208.527344 214.476562 L 208.527344 231.71875 Z M 193.597656 223.097656" stroke="none" fill-rule="evenodd" fill="rgb(50.000763%,0%,50.000763%)" fill-opacity="1"/><path d="M 208.527344 214.476562 L 223.457031 205.859375 L 223.457031 223.097656 Z M 208.527344 214.476562" stroke="none" fill-rule="evenodd" fill="rgb(50.000763%,0%,50.000763%)" fill-opacity="1"/><path d="M 238.386719 214.476562 L 253.3125 205.859375 L 253.3125 223.097656 Z M 238.386719 214.476562" stroke="none" fill-rule="evenodd" fill="rgb(50.000763%,0%,50.000763%)" fill-opacity="1"/><path d="M 238.386719 197.238281 L 253.3125 188.621094 L 253.3125 205.859375 Z M 238.386719 197.238281" stroke="none" fill-rule="evenodd" fill="rgb(50.000763%,0%,50.000763%)" fill-opacity="1"/><path d="M 238.386719 180 L 253.3125 171.378906 L 253.3125 188.621094 Z M 238.386719 180" stroke="none" fill-rule="evenodd" fill="rgb(50.000763%,0%,50.000763%)" fill-opacity="1"/><path d="M 238.386719 162.761719 L 253.3125 154.140625 L 253.3125 171.378906 Z M 238.386719 162.761719" stroke="none" fill-rule="evenodd" fill="rgb(50.000763%,0%,50.000763%)" fill-opacity="1"/><path d="M 238.386719 145.523438 L 253.3125 136.902344 L 253.3125 154.140625 Z M 238.386719 145.523438" stroke="none" fill-rule="evenodd" fill="rgb(50.000763%,0%,50.000763%)" fill-opacity="1"/><path d="M 223.457031 136.902344 L 238.386719 128.28125 L 238.386719 145.523438 Z M 223.457031 136.902344" stroke="none" fill-rule="evenodd" fill="rgb(50.000763%,0%,50.000763%)" fill-opacity="1"/><path d="M 208.527344 128.28125 L 223.457031 119.664062 L 223.457031 136.902344 Z M 208.527344 128.28125" stroke="none" fill-rule="evenodd" fill="rgb(50.000763%,0%,50.000763%)" fill-opacity="1"/><path d="M 193.597656 119.664062 L 208.527344 111.042969 L 208.527344 128.28125 Z M 193.597656 119.664062" stroke="none" fill-rule="evenodd" fill="rgb(50.000763%,0%,50.000763%)" fill-opacity="1"/><path d="M 178.667969 111.042969 L 193.597656 102.421875 L 193.597656 119.664062 Z M 178.667969 111.042969" stroke="none" fill-rule="evenodd" fill="rgb(50.000763%,0%,50.000763%)" fill-opacity="1"/><path d="M 163.738281 119.664062 L 178.667969 111.042969 L 178.667969 128.28125 Z M 163.738281 119.664062" stroke="none" fill-rule="evenodd" fill="rgb(50.000763%,0%,50.000763%)" fill-opacity="1"/><path d="M 148.808594 128.28125 L 163.738281 119.664062 L 163.738281 136.902344 Z M 148.808594 128.28125" stroke="none" fill-rule="evenodd" fill="rgb(50.000763%,0%,50.000763%)" fill-opacity="1"/><path d="M 133.878906 136.902344 L 148.808594 128.28125 L 148.808594 145.523438 Z M 133.878906 136.902344" stroke="none" fill-rule="evenodd" fill="rgb(50.000763%,0%,50.000763%)" fill-opacity="1"/><path d="M 118.949219 145.523438 L 133.878906 136.902344 L 133.878906 154.140625 Z M 118.949219 145.523438" stroke="none" fill-rule="evenodd" fill="rgb(50.000763%,0%,50.000763%)" fill-opacity="1"/><path d="M 118.949219 162.761719 L 133.878906 154.140625 L 133.878906 171.378906 Z M 118.949219 162.761719" stroke="none" fill-rule="evenodd" fill="rgb(50.000763%,0%,50.000763%)" fill-opacity="1"/><path d="M 118.949219 180 L 133.878906 171.378906 L 133.878906 188.621094 Z M 118.949219 180" stroke="none" fill-rule="evenodd" fill="rgb(50.000763%,0%,50.000763%)" fill-opacity="1"/><path d="M 118.949219 197.238281 L 133.878906 188.621094 L 133.878906 205.859375 Z M 118.949219 197.238281" stroke="none" fill-rule="evenodd" fill="rgb(50.000763%,0%,50.000763%)" fill-opacity="1"/><path d="M 118.949219 214.476562 L 133.878906 205.859375 L 133.878906 223.097656 Z M 118.949219 214.476562" stroke="none" fill-rule="evenodd" fill="rgb(50.000763%,0%,50.000763%)" fill-opacity="1"/><path d="M 133.878906 223.097656 L 148.808594 214.476562 L 148.808594 231.71875 Z M 133.878906 223.097656" stroke="none" fill-rule="evenodd" fill="rgb(50.000763%,0%,50.000763%)" fill-opacity="1"/><path d="M 148.808594 231.71875 L 163.738281 223.097656 L 163.738281 240.335938 Z M 148.808594 231.71875" stroke="none" fill-rule="evenodd" fill="rgb(50.000763%,0%,50.000763%)" fill-opacity="1"/><path d="M 163.738281 240.335938 L 178.667969 231.71875 L 178.667969 248.957031 Z M 163.738281 240.335938" stroke="none" fill-rule="evenodd" fill="rgb(50.000763%,0%,50.000763%)" fill-opacity="1"/><path d="M 178.667969 248.957031 L 193.597656 240.335938 L 193.597656 257.578125 Z M 178.667969 248.957031" stroke="none" fill-rule="evenodd" fill="rgb(50.000763%,0%,50.000763%)" fill-opacity="1"/><path d="M 193.597656 240.335938 L 208.527344 231.71875 L 208.527344 248.957031 Z M 193.597656 240.335938" stroke="none" fill-rule="evenodd" fill="rgb(50.000763%,0%,50.000763%)" fill-opacity="1"/><path d="M 208.527344 231.71875 L 223.457031 223.097656 L 223.457031 240.335938 Z M 208.527344 231.71875" stroke="none" fill-rule="evenodd" fill="rgb(50.000763%,0%,50.000763%)" fill-opacity="1"/><path d="M 223.457031 223.097656 L 238.386719 214.476562 L 238.386719 231.71875 Z M 223.457031 223.097656" stroke="none" fill-rule="evenodd" fill="rgb(50.000763%,0%,50.000763%)" fill-opacity="1"/><path d="M 163.738281 102.421875 L 178.667969 93.804688 L 178.667969 111.042969 Z M 163.738281 102.421875" stroke="none" fill-rule="evenodd" fill="rgb(50.000763%,0%,50.000763%)" fill-opacity="1"/><path d="M 148.808594 111.042969 L 163.738281 102.421875 L 163.738281 119.664062 Z M 148.808594 111.042969" stroke="none" fill-rule="evenodd" fill="rgb(50.000763%,0%,50.000763%)" fill-opacity="1"/><path d="M 133.878906 119.664062 L 148.808594 111.042969 L 148.808594 128.28125 Z M 133.878906 119.664062" stroke="none" fill-rule="evenodd" fill="rgb(50.000763%,0%,50.000763%)" fill-opacity="1"/><path d="M 118.949219 128.28125 L 133.878906 119.664062 L 133.878906 136.902344 Z M 118.949219 128.28125" stroke="none" fill-rule="evenodd" fill="rgb(50.000763%,0%,50.000763%)" fill-opacity="1"/><path d="M 104.019531 136.902344 L 118.949219 128.28125 L 118.949219 145.523438 Z M 104.019531 136.902344" stroke="none" fill-rule="evenodd" fill="rgb(50.000763%,0%,50.000763%)" fill-opacity="1"/><path d="M 104.019531 154.140625 L 118.949219 145.523438 L 118.949219 162.761719 Z M 104.019531 154.140625" stroke="none" fill-rule="evenodd" fill="rgb(50.000763%,0%,50.000763%)" fill-opacity="1"/><path d="M 104.019531 171.378906 L 118.949219 162.761719 L 118.949219 180 Z M 104.019531 171.378906" stroke="none" fill-rule="evenodd" fill="rgb(50.000763%,0%,50.000763%)" fill-opacity="1"/><path d="M 104.019531 188.621094 L 118.949219 180 L 118.949219 197.238281 Z M 104.019531 188.621094" stroke="none" fill-rule="evenodd" fill="rgb(50.000763%,0%,50.000763%)" fill-opacity="1"/><path d="M 104.019531 205.859375 L 118.949219 197.238281 L 118.949219 214.476562 Z M 104.019531 205.859375" stroke="none" fill-rule="evenodd" fill="rgb(50.000763%,0%,50.000763%)" fill-opacity="1"/><path d="M 104.019531 223.097656 L 118.949219 214.476562 L 118.949219 231.71875 Z M 104.019531 223.097656" stroke="none" fill-rule="evenodd" fill="rgb(50.000763%,0%,50.000763%)" fill-opacity="1"/><path d="M 118.949219 231.71875 L 133.878906 223.097656 L 133.878906 240.335938 Z M 118.949219 231.71875" stroke="none" fill-rule="evenodd" fill="rgb(50.000763%,0%,50.000763%)" fill-opacity="1"/><path d="M 133.878906 240.335938 L 148.808594 231.71875 L 148.808594 248.957031 Z M 133.878906 240.335938" stroke="none" fill-rule="evenodd" fill="rgb(50.000763%,0%,50.000763%)" fill-opacity="1"/><path d="M 148.808594 248.957031 L 163.738281 240.335938 L 163.738281 257.578125 Z M 148.808594 248.957031" stroke="none" fill-rule="evenodd" fill="rgb(50.000763%,0%,50.000763%)" fill-opacity="1"/><path d="M 163.738281 257.578125 L 178.667969 248.957031 L 178.667969 266.195312 Z M 163.738281 257.578125" stroke="none" fill-rule="evenodd" fill="rgb(50.000763%,0%,50.000763%)" fill-opacity="1"/><path d="M 208.527344 180 L 193.597656 171.378906 L 193.597656 188.621094 Z M 208.527344 180" stroke="none" fill-rule="evenodd" fill="rgb(50.000763%,0%,50.000763%)" fill-opacity="1"/><path d="M 193.597656 171.378906 L 178.667969 162.761719 L 178.667969 180 Z M 193.597656 171.378906" stroke="none" fill-rule="evenodd" fill="rgb(50.000763%,0%,50.000763%)" fill-opacity="1"/><path d="M 193.597656 188.621094 L 178.667969 180 L 178.667969 197.238281 Z M 193.597656 188.621094" stroke="none" fill-rule="evenodd" fill="rgb(50.000763%,0%,50.000763%)" fill-opacity="1"/><path d="M 223.457031 188.621094 L 208.527344 180 L 208.527344 197.238281 Z M 223.457031 188.621094" stroke="none" fill-rule="evenodd" fill="rgb(50.000763%,0%,50.000763%)" fill-opacity="1"/><path d="M 223.457031 171.378906 L 208.527344 162.761719 L 208.527344 180 Z M 223.457031 171.378906" stroke="none" fill-rule="evenodd" fill="rgb(50.000763%,0%,50.000763%)" fill-opacity="1"/><path d="M 208.527344 162.761719 L 193.597656 154.140625 L 193.597656 171.378906 Z M 208.527344 162.761719" stroke="none" fill-rule="evenodd" fill="rgb(50.000763%,0%,50.000763%)" fill-opacity="1"/><path d="M 193.597656 154.140625 L 178.667969 145.523438 L 178.667969 162.761719 Z M 193.597656 154.140625" stroke="none" fill-rule="evenodd" fill="rgb(50.000763%,0%,50.000763%)" fill-opacity="1"/><path d="M 178.667969 162.761719 L 163.738281 154.140625 L 163.738281 171.378906 Z M 178.667969 162.761719" stroke="none" fill-rule="evenodd" fill="rgb(50.000763%,0%,50.000763%)" fill-opacity="1"/><path d="M 178.667969 180 L 163.738281 171.378906 L 163.738281 188.621094 Z M 178.667969 180" stroke="none" fill-rule="evenodd" fill="rgb(50.000763%,0%,50.000763%)" fill-opacity="1"/><path d="M 178.667969 197.238281 L 163.738281 188.621094 L 163.738281 205.859375 Z M 178.667969 197.238281" stroke="none" fill-rule="evenodd" fill="rgb(50.000763%,0%,50.000763%)" fill-opacity="1"/><path d="M 193.597656 205.859375 L 178.667969 197.238281 L 178.667969 214.476562 Z M 193.597656 205.859375" stroke="none" fill-rule="evenodd" fill="rgb(50.000763%,0%,50.000763%)" fill-opacity="1"/><path d="M 208.527344 197.238281 L 193.597656 188.621094 L 193.597656 205.859375 Z M 208.527344 197.238281" stroke="none" fill-rule="evenodd" fill="rgb(50.000763%,0%,50.000763%)" fill-opacity="1"/><path d="M 238.386719 197.238281 L 223.457031 188.621094 L 223.457031 205.859375 Z M 238.386719 197.238281" stroke="none" fill-rule="evenodd" fill="rgb(50.000763%,0%,50.000763%)" fill-opacity="1"/><path d="M 238.386719 180 L 223.457031 171.378906 L 223.457031 188.621094 Z M 238.386719 180" stroke="none" fill-rule="evenodd" fill="rgb(50.000763%,0%,50.000763%)" fill-opacity="1"/><path d="M 238.386719 162.761719 L 223.457031 154.140625 L 223.457031 171.378906 Z M 238.386719 162.761719" stroke="none" fill-rule="evenodd" fill="rgb(50.000763%,0%,50.000763%)" fill-opacity="1"/><path d="M 223.457031 154.140625 L 208.527344 145.523438 L 208.527344 162.761719 Z M 223.457031 154.140625" stroke="none" fill-rule="evenodd" fill="rgb(50.000763%,0%,50.000763%)" fill-opacity="1"/><path d="M 208.527344 145.523438 L 193.597656 136.902344 L 193.597656 154.140625 Z M 208.527344 145.523438" stroke="none" fill-rule="evenodd" fill="rgb(50.000763%,0%,50.000763%)" fill-opacity="1"/><path d="M 193.597656 136.902344 L 178.667969 128.28125 L 178.667969 145.523438 Z M 193.597656 136.902344" stroke="none" fill-rule="evenodd" fill="rgb(50.000763%,0%,50.000763%)" fill-opacity="1"/><path d="M 178.667969 145.523438 L 163.738281 136.902344 L 163.738281 154.140625 Z M 178.667969 145.523438" stroke="none" fill-rule="evenodd" fill="rgb(50.000763%,0%,50.000763%)" fill-opacity="1"/><path d="M 163.738281 154.140625 L 148.808594 145.523438 L 148.808594 162.761719 Z M 163.738281 154.140625" stroke="none" fill-rule="evenodd" fill="rgb(50.000763%,0%,50.000763%)" fill-opacity="1"/><path d="M 163.738281 171.378906 L 148.808594 162.761719 L 148.808594 180 Z M 163.738281 171.378906" stroke="none" fill-rule="evenodd" fill="rgb(50.000763%,0%,50.000763%)" fill-opacity="1"/><path d="M 163.738281 188.621094 L 148.808594 180 L 148.808594 197.238281 Z M 163.738281 188.621094" stroke="none" fill-rule="evenodd" fill="rgb(50.000763%,0%,50.000763%)" fill-opacity="1"/><path d="M 163.738281 205.859375 L 148.808594 197.238281 L 148.808594 214.476562 Z M 163.738281 205.859375" stroke="none" fill-rule="evenodd" fill="rgb(50.000763%,0%,50.000763%)" fill-opacity="1"/><path d="M 178.667969 214.476562 L 163.738281 205.859375 L 163.738281 223.097656 Z M 178.667969 214.476562" stroke="none" fill-rule="evenodd" fill="rgb(50.000763%,0%,50.000763%)" fill-opacity="1"/><path d="M 193.597656 223.097656 L 178.667969 214.476562 L 178.667969 231.71875 Z M 193.597656 223.097656" stroke="none" fill-rule="evenodd" fill="rgb(50.000763%,0%,50.000763%)" fill-opacity="1"/><path d="M 208.527344 214.476562 L 193.597656 205.859375 L 193.597656 223.097656 Z M 208.527344 214.476562" stroke="none" fill-rule="evenodd" fill="rgb(50.000763%,0%,50.000763%)" fill-opacity="1"/><path d="M 223.457031 205.859375 L 208.527344 197.238281 L 208.527344 214.476562 Z M 223.457031 205.859375" stroke="none" fill-rule="evenodd" fill="rgb(50.000763%,0%,50.000763%)" fill-opacity="1"/><path d="M 253.3125 205.859375 L 238.386719 197.238281 L 238.386719 214.476562 Z M 253.3125 205.859375" stroke="none" fill-rule="evenodd" fill="rgb(50.000763%,0%,50.000763%)" fill-opacity="1"/><path d="M 253.3125 188.621094 L 238.386719 180 L 238.386719 197.238281 Z M 253.3125 188.621094" stroke="none" fill-rule="evenodd" fill="rgb(50.000763%,0%,50.000763%)" fill-opacity="1"/><path d="M 253.3125 171.378906 L 238.386719 162.761719 L 238.386719 180 Z M 253.3125 171.378906" stroke="none" fill-rule="evenodd" fill="rgb(50.000763%,0%,50.000763%)" fill-opacity="1"/><path d="M 253.3125 154.140625 L 238.386719 145.523438 L 238.386719 162.761719 Z M 253.3125 154.140625" stroke="none" fill-rule="evenodd" fill="rgb(50.000763%,0%,50.000763%)" fill-opacity="1"/><path d="M 238.386719 145.523438 L 223.457031 136.902344 L 223.457031 154.140625 Z M 238.386719 145.523438" stroke="none" fill-rule="evenodd" fill="rgb(50.000763%,0%,50.000763%)" fill-opacity="1"/><path d="M 223.457031 136.902344 L 208.527344 128.28125 L 208.527344 145.523438 Z M 223.457031 136.902344" stroke="none" fill-rule="evenodd" fill="rgb(50.000763%,0%,50.000763%)" fill-opacity="1"/><path d="M 208.527344 128.28125 L 193.597656 119.664062 L 193.597656 136.902344 Z M 208.527344 128.28125" stroke="none" fill-rule="evenodd" fill="rgb(50.000763%,0%,50.000763%)" fill-opacity="1"/><path d="M 193.597656 119.664062 L 178.667969 111.042969 L 178.667969 128.28125 Z M 193.597656 119.664062" stroke="none" fill-rule="evenodd" fill="rgb(50.000763%,0%,50.000763%)" fill-opacity="1"/><path d="M 178.667969 128.28125 L 163.738281 119.664062 L 163.738281 136.902344 Z M 178.667969 128.28125" stroke="none" fill-rule="evenodd" fill="rgb(50.000763%,0%,50.000763%)" fill-opacity="1"/><path d="M 163.738281 136.902344 L 148.808594 128.28125 L 148.808594 145.523438 Z M 163.738281 136.902344" stroke="none" fill-rule="evenodd" fill="rgb(50.000763%,0%,50.000763%)" fill-opacity="1"/><path d="M 148.808594 145.523438 L 133.878906 136.902344 L 133.878906 154.140625 Z M 148.808594 145.523438" stroke="none" fill-rule="evenodd" fill="rgb(50.000763%,0%,50.000763%)" fill-opacity="1"/><path d="M 148.808594 162.761719 L 133.878906 154.140625 L 133.878906 171.378906 Z M 148.808594 162.761719" stroke="none" fill-rule="evenodd" fill="rgb(50.000763%,0%,50.000763%)" fill-opacity="1"/><path d="M 148.808594 180 L 133.878906 171.378906 L 133.878906 188.621094 Z M 148.808594 180" stroke="none" fill-rule="evenodd" fill="rgb(50.000763%,0%,50.000763%)" fill-opacity="1"/><path d="M 148.808594 197.238281 L 133.878906 188.621094 L 133.878906 205.859375 Z M 148.808594 197.238281" stroke="none" fill-rule="evenodd" fill="rgb(50.000763%,0%,50.000763%)" fill-opacity="1"/><path d="M 148.808594 214.476562 L 133.878906 205.859375 L 133.878906 223.097656 Z M 148.808594 214.476562" stroke="none" fill-rule="evenodd" fill="rgb(50.000763%,0%,50.000763%)" fill-opacity="1"/><path d="M 163.738281 223.097656 L 148.808594 214.476562 L 148.808594 231.71875 Z M 163.738281 223.097656" stroke="none" fill-rule="evenodd" fill="rgb(50.000763%,0%,50.000763%)" fill-opacity="1"/><path d="M 178.667969 231.71875 L 163.738281 223.097656 L 163.738281 240.335938 Z M 178.667969 231.71875" stroke="none" fill-rule="evenodd" fill="rgb(50.000763%,0%,50.000763%)" fill-opacity="1"/><path d="M 193.597656 240.335938 L 178.667969 231.71875 L 178.667969 248.957031 Z M 193.597656 240.335938" stroke="none" fill-rule="evenodd" fill="rgb(50.000763%,0%,50.000763%)" fill-opacity="1"/><path d="M 208.527344 231.71875 L 193.597656 223.097656 L 193.597656 240.335938 Z M 208.527344 231.71875" stroke="none" fill-rule="evenodd" fill="rgb(50.000763%,0%,50.000763%)" fill-opacity="1"/><path d="M 223.457031 223.097656 L 208.527344 214.476562 L 208.527344 231.71875 Z M 223.457031 223.097656" stroke="none" fill-rule="evenodd" fill="rgb(50.000763%,0%,50.000763%)" fill-opacity="1"/><path d="M 238.386719 214.476562 L 223.457031 205.859375 L 223.457031 223.097656 Z M 238.386719 214.476562" stroke="none" fill-rule="evenodd" fill="rgb(50.000763%,0%,50.000763%)" fill-opacity="1"/><path d="M 253.3125 136.902344 L 238.386719 128.28125 L 238.386719 145.523438 Z M 253.3125 136.902344" stroke="none" fill-rule="evenodd" fill="rgb(50.000763%,0%,50.000763%)" fill-opacity="1"/><path d="M 238.386719 128.28125 L 223.457031 119.664062 L 223.457031 136.902344 Z M 238.386719 128.28125" stroke="none" fill-rule="evenodd" fill="rgb(50.000763%,0%,50.000763%)" fill-opacity="1"/><path d="M 223.457031 119.664062 L 208.527344 111.042969 L 208.527344 128.28125 Z M 223.457031 119.664062" stroke="none" fill-rule="evenodd" fill="rgb(50.000763%,0%,50.000763%)" fill-opacity="1"/><path d="M 208.527344 111.042969 L 193.597656 102.421875 L 193.597656 119.664062 Z M 208.527344 111.042969" stroke="none" fill-rule="evenodd" fill="rgb(50.000763%,0%,50.000763%)" fill-opacity="1"/><path d="M 193.597656 102.421875 L 178.667969 93.804688 L 178.667969 111.042969 Z M 193.597656 102.421875" stroke="none" fill-rule="evenodd" fill="rgb(50.000763%,0%,50.000763%)" fill-opacity="1"/><path d="M 178.667969 111.042969 L 163.738281 102.421875 L 163.738281 119.664062 Z M 178.667969 111.042969" stroke="none" fill-rule="evenodd" fill="rgb(50.000763%,0%,50.000763%)" fill-opacity="1"/><path d="M 163.738281 119.664062 L 148.808594 111.042969 L 148.808594 128.28125 Z M 163.738281 119.664062" stroke="none" fill-rule="evenodd" fill="rgb(50.000763%,0%,50.000763%)" fill-opacity="1"/><path d="M 148.808594 128.28125 L 133.878906 119.664062 L 133.878906 136.902344 Z M 148.808594 128.28125" stroke="none" fill-rule="evenodd" fill="rgb(50.000763%,0%,50.000763%)" fill-opacity="1"/><path d="M 133.878906 136.902344 L 118.949219 128.28125 L 118.949219 145.523438 Z M 133.878906 136.902344" stroke="none" fill-rule="evenodd" fill="rgb(50.000763%,0%,50.000763%)" fill-opacity="1"/><path d="M 133.878906 154.140625 L 118.949219 145.523438 L 118.949219 162.761719 Z M 133.878906 154.140625" stroke="none" fill-rule="evenodd" fill="rgb(50.000763%,0%,50.000763%)" fill-opacity="1"/><path d="M 133.878906 171.378906 L 118.949219 162.761719 L 118.949219 180 Z M 133.878906 171.378906" stroke="none" fill-rule="evenodd" fill="rgb(50.000763%,0%,50.000763%)" fill-opacity="1"/><path d="M 133.878906 188.621094 L 118.949219 180 L 118.949219 197.238281 Z M 133.878906 188.621094" stroke="none" fill-rule="evenodd" fill="rgb(50.000763%,0%,50.000763%)" fill-opacity="1"/><path d="M 133.878906 205.859375 L 118.949219 197.238281 L 118.949219 214.476562 Z M 133.878906 205.859375" stroke="none" fill-rule="evenodd" fill="rgb(50.000763%,0%,50.000763%)" fill-opacity="1"/><path d="M 133.878906 223.097656 L 118.949219 214.476562 L 118.949219 231.71875 Z M 133.878906 223.097656" stroke="none" fill-rule="evenodd" fill="rgb(50.000763%,0%,50.000763%)" fill-opacity="1"/><path d="M 148.808594 231.71875 L 133.878906 223.097656 L 133.878906 240.335938 Z M 148.808594 231.71875" stroke="none" fill-rule="evenodd" fill="rgb(50.000763%,0%,50.000763%)" fill-opacity="1"/><path d="M 163.738281 240.335938 L 148.808594 231.71875 L 148.808594 248.957031 Z M 163.738281 240.335938" stroke="none" fill-rule="evenodd" fill="rgb(50.000763%,0%,50.000763%)" fill-opacity="1"/><path d="M 178.667969 248.957031 L 163.738281 240.335938 L 163.738281 257.578125 Z M 178.667969 248.957031" stroke="none" fill-rule="evenodd" fill="rgb(50.000763%,0%,50.000763%)" fill-opacity="1"/><path d="M 193.597656 257.578125 L 178.667969 248.957031 L 178.667969 266.195312 Z M 193.597656 257.578125" stroke="none" fill-rule="evenodd" fill="rgb(50.000763%,0%,50.000763%)" fill-opacity="1"/><path d="M 208.527344 248.957031 L 193.597656 240.335938 L 193.597656 257.578125 Z M 208.527344 248.957031" stroke="none" fill-rule="evenodd" fill="rgb(50.000763%,0%,50.000763%)" fill-opacity="1"/><path d="M 223.457031 240.335938 L 208.527344 231.71875 L 208.527344 248.957031 Z M 223.457031 240.335938" stroke="none" fill-rule="evenodd" fill="rgb(50.000763%,0%,50.000763%)" fill-opacity="1"/><path d="M 238.386719 231.71875 L 223.457031 223.097656 L 223.457031 240.335938 Z M 238.386719 231.71875" stroke="none" fill-rule="evenodd" fill="rgb(50.000763%,0%,50.000763%)" fill-opacity="1"/><path d="M 253.3125 223.097656 L 238.386719 214.476562 L 238.386719 231.71875 Z M 253.3125 223.097656" stroke="none" fill-rule="evenodd" fill="rgb(50.000763%,0%,50.000763%)" fill-opacity="1"/><path d="M 118.949219 145.523438 L 104.019531 136.902344 L 104.019531 154.140625 Z M 118.949219 145.523438" stroke="none" fill-rule="evenodd" fill="rgb(50.000763%,0%,50.000763%)" fill-opacity="1"/><path d="M 118.949219 162.761719 L 104.019531 154.140625 L 104.019531 171.378906 Z M 118.949219 162.761719" stroke="none" fill-rule="evenodd" fill="rgb(50.000763%,0%,50.000763%)" fill-opacity="1"/><path d="M 118.949219 180 L 104.019531 171.378906 L 104.019531 188.621094 Z M 118.949219 180" stroke="none" fill-rule="evenodd" fill="rgb(50.000763%,0%,50.000763%)" fill-opacity="1"/><path d="M 118.949219 197.238281 L 104.019531 188.621094 L 104.019531 205.859375 Z M 118.949219 197.238281" stroke="none" fill-rule="evenodd" fill="rgb(50.000763%,0%,50.000763%)" fill-opacity="1"/><path d="M 118.949219 214.476562 L 104.019531 205.859375 L 104.019531 223.097656 Z M 118.949219 214.476562" stroke="none" fill-rule="evenodd" fill="rgb(50.000763%,0%,50.000763%)" fill-opacity="1"/></g></svg>