<svg height="360pt" viewBox="0 0 360 360" width="360pt" xmlns="http://www.w3.org/2000/svg"><path d="m0 0h360v360h-360z" fill="#800080"/><g fill="#fff"><path d="m173.308594 180 10.035156-5.792969v11.585938zm0 0"/><path d="m173.308594 168.410156 10.035156-5.792968v11.589843zm0 0"/><path d="m163.273438 174.207031 10.035156-5.796875v11.589844zm0 0"/><path d="m163.273438 185.792969 10.035156-5.792969v11.589844zm0 0"/><path d="m173.308594 191.589844 10.035156-5.796875v11.589843zm0 0"/><path d="m193.382812 191.589844 10.035157-5.796875v11.589843zm0 0"/><path d="m163.273438 162.617188 10.035156-5.792969v11.585937zm0 0"/><path d="m153.238281 180 10.035157-5.792969v11.585938zm0 0"/><path d="m153.238281 191.589844 10.035157-5.796875v11.589843zm0 0"/><path d="m183.34375 197.382812 10.039062-5.792968v11.585937zm0 0"/><path d="m203.417969 185.792969 10.035156-5.792969v11.589844zm0 0"/><path d="m203.417969 162.617188 10.035156-5.792969v11.585937zm0 0"/><path d="m143.203125 185.792969 10.035156-5.792969v11.589844zm0 0"/><path d="m143.203125 197.382812 10.035156-5.792968v11.585937zm0 0"/><path d="m153.238281 203.175781 10.035157-5.792969v11.589844zm0 0"/><path d="m183.34375 208.972656 10.039062-5.796875v11.589844zm0 0"/><path d="m193.382812 203.175781 10.035157-5.792969v11.589844zm0 0"/><path d="m213.453125 203.175781 10.035156-5.792969v11.589844zm0 0"/><path d="m213.453125 191.589844 10.035156-5.796875v11.589843zm0 0"/><path d="m213.453125 180 10.035156-5.792969v11.585938zm0 0"/><path d="m213.453125 168.410156 10.035156-5.792968v11.589843zm0 0"/><path d="m213.453125 156.824219 10.035156-5.796875v11.589844zm0 0"/><path d="m193.382812 145.234375 10.035157-5.792969v11.585938zm0 0"/><path d="m183.34375 139.441406 10.039062-5.796875v11.589844zm0 0"/><path d="m173.308594 133.644531 10.035156-5.792969v11.589844zm0 0"/><path d="m133.164062 191.589844 10.039063-5.796875v11.589843zm0 0"/><path d="m133.164062 203.175781 10.039063-5.792969v11.589844zm0 0"/><path d="m143.203125 208.972656 10.035156-5.796875v11.589844zm0 0"/><path d="m153.238281 214.765625 10.035157-5.792969v11.585938zm0 0"/><path d="m163.273438 220.558594 10.035156-5.792969v11.589844zm0 0"/><path d="m193.382812 214.765625 10.035157-5.792969v11.585938zm0 0"/><path d="m203.417969 208.972656 10.035156-5.796875v11.589844zm0 0"/><path d="m223.488281 208.972656 10.035157-5.796875v11.589844zm0 0"/><path d="m223.488281 197.382812 10.035157-5.792968v11.585937zm0 0"/><path d="m223.488281 185.792969 10.035157-5.792969v11.589844zm0 0"/><path d="m223.488281 162.617188 10.035157-5.792969v11.585937zm0 0"/><path d="m223.488281 151.027344 10.035157-5.792969v11.589844zm0 0"/><path d="m203.417969 139.441406 10.035156-5.796875v11.589844zm0 0"/><path d="m193.382812 133.644531 10.035157-5.792969v11.589844zm0 0"/><path d="m183.34375 127.851562 10.039062-5.792968v11.585937zm0 0"/><path d="m173.308594 122.058594 10.035156-5.796875v11.589843zm0 0"/><path d="m153.238281 133.644531 10.035157-5.792969v11.589844zm0 0"/><path d="m143.203125 139.441406 10.035156-5.796875v11.589844zm0 0"/><path d="m133.164062 214.765625 10.039063-5.792969v11.585938zm0 0"/><path d="m143.203125 220.558594 10.035156-5.792969v11.589844zm0 0"/><path d="m153.238281 226.355469 10.035157-5.796875v11.589844zm0 0"/><path d="m233.523438 214.765625 10.039062-5.792969v11.585938zm0 0"/><path d="m233.523438 203.175781 10.039062-5.792969v11.589844zm0 0"/><path d="m233.523438 191.589844 10.039062-5.796875v11.589843zm0 0"/><path d="m233.523438 180 10.039062-5.792969v11.585938zm0 0"/><path d="m233.523438 168.410156 10.039062-5.792968v11.589843zm0 0"/><path d="m233.523438 156.824219 10.039062-5.796875v11.589844zm0 0"/><path d="m233.523438 145.234375 10.039062-5.792969v11.585938zm0 0"/><path d="m223.488281 139.441406 10.035157-5.796875v11.589844zm0 0"/><path d="m183.34375 116.261719 10.039062-5.792969v11.589844zm0 0"/><path d="m153.238281 122.058594 10.035157-5.796875v11.589843zm0 0"/><path d="m143.203125 127.851562 10.035156-5.792968v11.585937zm0 0"/><path d="m123.128906 220.558594 10.035156-5.792969v11.589844zm0 0"/><path d="m133.164062 226.355469 10.039063-5.796875v11.589844zm0 0"/><path d="m143.203125 232.148438 10.035156-5.792969v11.585937zm0 0"/><path d="m163.273438 243.738281 10.035156-5.796875v11.589844zm0 0"/><path d="m193.382812 237.941406 10.035157-5.792968v11.589843zm0 0"/><path d="m203.417969 232.148438 10.035156-5.792969v11.585937zm0 0"/><path d="m213.453125 226.355469 10.035156-5.796875v11.589844zm0 0"/><path d="m223.488281 220.558594 10.035157-5.792969v11.589844zm0 0"/><path d="m243.5625 220.558594 10.035156-5.792969v11.589844zm0 0"/><path d="m243.5625 208.972656 10.035156-5.796875v11.589844zm0 0"/><path d="m243.5625 197.382812 10.035156-5.792968v11.585937zm0 0"/><path d="m243.5625 185.792969 10.035156-5.792969v11.589844zm0 0"/><path d="m243.5625 162.617188 10.035156-5.792969v11.585937zm0 0"/><path d="m243.5625 151.027344 10.035156-5.792969v11.589844zm0 0"/><path d="m243.5625 139.441406 10.035156-5.796875v11.589844zm0 0"/><path d="m233.523438 133.644531 10.039062-5.792969v11.589844zm0 0"/><path d="m223.488281 127.851562 10.035157-5.792968v11.585937zm0 0"/><path d="m213.453125 122.058594 10.035156-5.796875v11.589843zm0 0"/><path d="m193.382812 110.46875 10.035157-5.792969v11.585938zm0 0"/><path d="m143.203125 116.261719 10.035156-5.792969v11.589844zm0 0"/><path d="m133.164062 122.058594 10.039063-5.796875v11.589843zm0 0"/><path d="m113.09375 133.644531 10.035156-5.792969v11.589844zm0 0"/><path d="m103.058594 139.441406 10.035156-5.796875v11.589844zm0 0"/><path d="m113.09375 226.355469 10.035156-5.796875v11.589844zm0 0"/><path d="m123.128906 232.148438 10.035156-5.792969v11.585937zm0 0"/><path d="m133.164062 237.941406 10.039063-5.792968v11.589843zm0 0"/><path d="m143.203125 243.738281 10.035156-5.796875v11.589844zm0 0"/><path d="m173.308594 261.121094 10.035156-5.796875v11.589843zm0 0"/><path d="m183.34375 255.324219 10.039062-5.792969v11.589844zm0 0"/><path d="m193.382812 249.53125 10.035157-5.792969v11.585938zm0 0"/><path d="m203.417969 243.738281 10.035156-5.796875v11.589844zm0 0"/><path d="m253.597656 214.765625 10.035156-5.792969v11.585938zm0 0"/><path d="m253.597656 203.175781 10.035156-5.792969v11.589844zm0 0"/><path d="m253.597656 191.589844 10.035156-5.796875v11.589843zm0 0"/><path d="m253.597656 180 10.035156-5.792969v11.585938zm0 0"/><path d="m253.597656 168.410156 10.035156-5.792968v11.589843zm0 0"/><path d="m253.597656 156.824219 10.035156-5.796875v11.589844zm0 0"/><path d="m253.597656 145.234375 10.035156-5.792969v11.585938zm0 0"/><path d="m253.597656 133.644531 10.035156-5.792969v11.589844zm0 0"/><path d="m243.5625 127.851562 10.035156-5.792968v11.585937zm0 0"/><path d="m233.523438 122.058594 10.039062-5.796875v11.589843zm0 0"/><path d="m213.453125 110.46875 10.035156-5.792969v11.585938zm0 0"/><path d="m163.273438 93.085938 10.035156-5.792969v11.585937zm0 0"/><path d="m143.203125 104.675781 10.035156-5.796875v11.589844zm0 0"/><path d="m133.164062 110.46875 10.039063-5.792969v11.585938zm0 0"/><path d="m123.128906 116.261719 10.035156-5.792969v11.589844zm0 0"/><path d="m113.09375 122.058594 10.035156-5.796875v11.589843zm0 0"/><path d="m93.019531 133.644531 10.039063-5.792969v11.589844zm0 0"/><path d="m93.019531 156.824219 10.039063-5.796875v11.589844zm0 0"/><path d="m93.019531 168.410156 10.039063-5.792968v11.589843zm0 0"/><path d="m93.019531 180 10.039063-5.792969v11.585938zm0 0"/><path d="m93.019531 191.589844 10.039063-5.796875v11.589843zm0 0"/><path d="m93.019531 203.175781 10.039063-5.792969v11.589844zm0 0"/><path d="m93.019531 214.765625 10.039063-5.792969v11.585938zm0 0"/><path d="m93.019531 226.355469 10.039063-5.796875v11.589844zm0 0"/><path d="m103.058594 232.148438 10.035156-5.792969v11.585937zm0 0"/><path d="m113.09375 237.941406 10.035156-5.792968v11.589843zm0 0"/><path d="m123.128906 243.738281 10.035156-5.796875v11.589844zm0 0"/><path d="m133.164062 249.53125 10.039063-5.792969v11.585938zm0 0"/><path d="m143.203125 255.324219 10.035156-5.792969v11.589844zm0 0"/><path d="m153.238281 261.121094 10.035157-5.796875v11.589843zm0 0"/><path d="m163.273438 266.914062 10.035156-5.792968v11.585937zm0 0"/><path d="m183.34375 266.914062 10.039062-5.792968v11.585937zm0 0"/><path d="m193.382812 261.121094 10.035157-5.796875v11.589843zm0 0"/><path d="m263.632812 232.148438 10.035157-5.792969v11.585937zm0 0"/><path d="m263.632812 220.558594 10.035157-5.792969v11.589844zm0 0"/><path d="m263.632812 208.972656 10.035157-5.796875v11.589844zm0 0"/><path d="m263.632812 139.441406 10.035157-5.796875v11.589844zm0 0"/><path d="m263.632812 127.851562 10.035157-5.792968v11.585937zm0 0"/><path d="m153.238281 272.707031 10.035157-5.792969v11.589844zm0 0"/><path d="m183.34375 278.503906 10.039062-5.796875v11.589844zm0 0"/><path d="m203.417969 266.914062 10.035156-5.792968v11.585937zm0 0"/><path d="m273.667969 214.765625 10.039062-5.792969v11.585938zm0 0"/><path d="m273.667969 203.175781 10.039062-5.792969v11.589844zm0 0"/><path d="m273.667969 191.589844 10.039062-5.796875v11.589843zm0 0"/><path d="m273.667969 180 10.039062-5.792969v11.585938zm0 0"/><path d="m273.667969 168.410156 10.039062-5.792968v11.589843zm0 0"/><path d="m273.667969 156.824219 10.039062-5.796875v11.589844zm0 0"/><path d="m273.667969 145.234375 10.039062-5.792969v11.585938zm0 0"/><path d="m273.667969 133.644531 10.039062-5.792969v11.589844zm0 0"/><path d="m263.632812 116.261719 10.035157-5.792969v11.589844zm0 0"/><path d="m253.597656 110.46875 10.035156-5.792969v11.585938zm0 0"/><path d="m243.5625 104.675781 10.035156-5.796875v11.589844zm0 0"/><path d="m233.523438 98.878906 10.039062-5.792968v11.589843zm0 0"/><path d="m223.488281 93.085938 10.035157-5.792969v11.585937zm0 0"/><path d="m213.453125 87.292969 10.035156-5.796875v11.589844zm0 0"/><path d="m193.382812 75.703125 10.035157-5.792969v11.585938zm0 0"/><path d="m72.949219 145.234375 10.035156-5.792969v11.585938zm0 0"/><path d="m72.949219 156.824219 10.035156-5.796875v11.589844zm0 0"/><path d="m72.949219 168.410156 10.035156-5.792968v11.589843zm0 0"/><path d="m72.949219 180 10.035156-5.792969v11.585938zm0 0"/><path d="m72.949219 191.589844 10.035156-5.796875v11.589843zm0 0"/><path d="m72.949219 203.175781 10.035156-5.792969v11.589844zm0 0"/><path d="m72.949219 214.765625 10.035156-5.792969v11.585938zm0 0"/><path d="m72.949219 226.355469 10.035156-5.796875v11.589844zm0 0"/><path d="m283.707031 220.558594 10.035157-5.792969v11.589844zm0 0"/><path d="m283.707031 127.851562 10.035157-5.792968v11.585937zm0 0"/><path d="m193.382812 180-10.039062-5.792969v11.585938zm0 0"/><path d="m203.417969 185.792969-10.035157-5.792969v11.589844zm0 0"/><path d="m203.417969 174.207031-10.035157-5.796875v11.589844zm0 0"/><path d="m193.382812 168.410156-10.039062-5.792968v11.589843zm0 0"/><path d="m183.34375 197.382812-10.035156-5.792968v11.585937zm0 0"/><path d="m213.453125 180-10.035156-5.792969v11.585938zm0 0"/><path d="m203.417969 162.617188-10.035157-5.792969v11.585937zm0 0"/><path d="m193.382812 156.824219-10.039062-5.796875v11.589844zm0 0"/><path d="m183.34375 151.027344-10.035156-5.792969v11.589844zm0 0"/><path d="m173.308594 156.824219-10.035156-5.796875v11.589844zm0 0"/><path d="m163.273438 162.617188-10.035157-5.792969v11.585937zm0 0"/><path d="m163.273438 174.207031-10.035157-5.796875v11.589844zm0 0"/><path d="m173.308594 203.175781-10.035156-5.792969v11.589844zm0 0"/><path d="m183.34375 208.972656-10.035156-5.796875v11.589844zm0 0"/><path d="m213.453125 156.824219-10.035156-5.796875v11.589844zm0 0"/><path d="m203.417969 151.027344-10.035157-5.792969v11.589844zm0 0"/><path d="m193.382812 145.234375-10.039062-5.792969v11.585938zm0 0"/><path d="m183.34375 139.441406-10.035156-5.796875v11.589844zm0 0"/><path d="m173.308594 145.234375-10.035156-5.792969v11.585938zm0 0"/><path d="m163.273438 151.027344-10.035157-5.792969v11.589844zm0 0"/><path d="m153.238281 156.824219-10.035156-5.796875v11.589844zm0 0"/><path d="m153.238281 168.410156-10.035156-5.792968v11.589843zm0 0"/><path d="m153.238281 180-10.035156-5.792969v11.585938zm0 0"/><path d="m173.308594 214.765625-10.035156-5.792969v11.585938zm0 0"/><path d="m183.34375 220.558594-10.035156-5.792969v11.589844zm0 0"/><path d="m193.382812 214.765625-10.039062-5.792969v11.585938zm0 0"/><path d="m223.488281 151.027344-10.035156-5.792969v11.589844zm0 0"/><path d="m183.34375 127.851562-10.035156-5.792968v11.585937zm0 0"/><path d="m173.308594 133.644531-10.035156-5.792969v11.589844zm0 0"/><path d="m153.238281 145.234375-10.035156-5.792969v11.585938zm0 0"/><path d="m143.203125 151.027344-10.039063-5.792969v11.589844zm0 0"/><path d="m143.203125 162.617188-10.039063-5.792969v11.585937zm0 0"/><path d="m143.203125 174.207031-10.039063-5.796875v11.589844zm0 0"/><path d="m143.203125 185.792969-10.039063-5.792969v11.589844zm0 0"/><path d="m173.308594 226.355469-10.035156-5.796875v11.589844zm0 0"/><path d="m183.34375 232.148438-10.035156-5.792969v11.585937zm0 0"/><path d="m193.382812 226.355469-10.039062-5.796875v11.589844zm0 0"/><path d="m203.417969 220.558594-10.035157-5.792969v11.589844zm0 0"/><path d="m223.488281 139.441406-10.035156-5.796875v11.589844zm0 0"/><path d="m203.417969 127.851562-10.035157-5.792968v11.585937zm0 0"/><path d="m183.34375 116.261719-10.035156-5.792969v11.589844zm0 0"/><path d="m173.308594 122.058594-10.035156-5.796875v11.589843zm0 0"/><path d="m143.203125 139.441406-10.039063-5.796875v11.589844zm0 0"/><path d="m133.164062 145.234375-10.035156-5.792969v11.585938zm0 0"/><path d="m133.164062 156.824219-10.035156-5.796875v11.589844zm0 0"/><path d="m133.164062 168.410156-10.035156-5.792968v11.589843zm0 0"/><path d="m133.164062 180-10.035156-5.792969v11.585938zm0 0"/><path d="m133.164062 191.589844-10.035156-5.796875v11.589843zm0 0"/><path d="m133.164062 203.175781-10.035156-5.792969v11.589844zm0 0"/><path d="m133.164062 214.765625-10.035156-5.792969v11.585938zm0 0"/><path d="m183.34375 243.738281-10.035156-5.796875v11.589844zm0 0"/><path d="m193.382812 237.941406-10.039062-5.792968v11.589843zm0 0"/><path d="m203.417969 232.148438-10.035157-5.792969v11.585937zm0 0"/><path d="m213.453125 226.355469-10.035156-5.796875v11.589844zm0 0"/><path d="m223.488281 220.558594-10.035156-5.792969v11.589844zm0 0"/><path d="m233.523438 214.765625-10.035157-5.792969v11.585938zm0 0"/><path d="m223.488281 127.851562-10.035156-5.792968v11.585937zm0 0"/><path d="m203.417969 116.261719-10.035157-5.792969v11.589844zm0 0"/><path d="m193.382812 110.46875-10.039062-5.792969v11.585938zm0 0"/><path d="m143.203125 127.851562-10.039063-5.792968v11.585937zm0 0"/><path d="m133.164062 133.644531-10.035156-5.792969v11.589844zm0 0"/><path d="m123.128906 151.027344-10.035156-5.792969v11.589844zm0 0"/><path d="m123.128906 162.617188-10.035156-5.792969v11.585937zm0 0"/><path d="m123.128906 174.207031-10.035156-5.796875v11.589844zm0 0"/><path d="m123.128906 197.382812-10.035156-5.792968v11.585937zm0 0"/><path d="m123.128906 220.558594-10.035156-5.792969v11.589844zm0 0"/><path d="m193.382812 249.53125-10.039062-5.792969v11.585938zm0 0"/><path d="m213.453125 237.941406-10.035156-5.792968v11.589843zm0 0"/><path d="m263.632812 220.558594-10.035156-5.792969v11.589844zm0 0"/><path d="m173.308594 98.878906-10.035156-5.792968v11.589843zm0 0"/><path d="m163.273438 104.675781-10.035157-5.796875v11.589844zm0 0"/><path d="m113.09375 145.234375-10.035156-5.792969v11.585938zm0 0"/><path d="m113.09375 156.824219-10.035156-5.796875v11.589844zm0 0"/><path d="m113.09375 168.410156-10.035156-5.792968v11.589843zm0 0"/><path d="m113.09375 180-10.035156-5.792969v11.585938zm0 0"/><path d="m113.09375 191.589844-10.035156-5.796875v11.589843zm0 0"/><path d="m113.09375 203.175781-10.035156-5.792969v11.589844zm0 0"/><path d="m113.09375 214.765625-10.035156-5.792969v11.585938zm0 0"/><path d="m173.308594 261.121094-10.035156-5.796875v11.589843zm0 0"/><path d="m183.34375 266.914062-10.035156-5.792968v11.585937zm0 0"/><path d="m193.382812 261.121094-10.039062-5.796875v11.589843zm0 0"/><path d="m203.417969 255.324219-10.035157-5.792969v11.589844zm0 0"/><path d="m213.453125 249.53125-10.035156-5.792969v11.585938zm0 0"/><path d="m273.667969 226.355469-10.035157-5.796875v11.589844zm0 0"/><path d="m273.667969 203.175781-10.035157-5.792969v11.589844zm0 0"/><path d="m273.667969 191.589844-10.035157-5.796875v11.589843zm0 0"/><path d="m273.667969 180-10.035157-5.792969v11.585938zm0 0"/><path d="m273.667969 168.410156-10.035157-5.792968v11.589843zm0 0"/><path d="m273.667969 156.824219-10.035157-5.796875v11.589844zm0 0"/><path d="m273.667969 145.234375-10.035157-5.792969v11.585938zm0 0"/><path d="m223.488281 104.675781-10.035156-5.796875v11.589844zm0 0"/><path d="m173.308594 87.292969-10.035156-5.796875v11.589844zm0 0"/><path d="m153.238281 98.878906-10.035156-5.792968v11.589843zm0 0"/><path d="m143.203125 104.675781-10.039063-5.796875v11.589844zm0 0"/><path d="m133.164062 110.46875-10.035156-5.792969v11.585938zm0 0"/><path d="m123.128906 116.261719-10.035156-5.792969v11.589844zm0 0"/><path d="m103.058594 127.851562-10.039063-5.792968v11.585937zm0 0"/><path d="m103.058594 139.441406-10.039063-5.796875v11.589844zm0 0"/><path d="m103.058594 151.027344-10.039063-5.792969v11.589844zm0 0"/><path d="m103.058594 232.148438-10.039063-5.792969v11.585937zm0 0"/><path d="m113.09375 237.941406-10.035156-5.792968v11.589843zm0 0"/><path d="m123.128906 243.738281-10.035156-5.796875v11.589844zm0 0"/><path d="m133.164062 249.53125-10.035156-5.792969v11.585938zm0 0"/><path d="m143.203125 255.324219-10.039063-5.792969v11.589844zm0 0"/><path d="m153.238281 261.121094-10.035156-5.796875v11.589843zm0 0"/><path d="m173.308594 272.707031-10.035156-5.792969v11.589844zm0 0"/><path d="m193.382812 272.707031-10.039062-5.792969v11.589844zm0 0"/><path d="m213.453125 261.121094-10.035156-5.796875v11.589843zm0 0"/><path d="m273.667969 122.058594-10.035157-5.796875v11.589843zm0 0"/><path d="m263.632812 116.261719-10.035156-5.792969v11.589844zm0 0"/><path d="m253.597656 110.46875-10.035156-5.792969v11.585938zm0 0"/><path d="m243.5625 104.675781-10.039062-5.796875v11.589844zm0 0"/><path d="m233.523438 98.878906-10.035157-5.792968v11.589843zm0 0"/><path d="m223.488281 93.085938-10.035156-5.792969v11.585937zm0 0"/><path d="m193.382812 75.703125-10.039062-5.792969v11.585938zm0 0"/><path d="m93.019531 145.234375-10.035156-5.792969v11.585938zm0 0"/><path d="m93.019531 156.824219-10.035156-5.796875v11.589844zm0 0"/><path d="m93.019531 168.410156-10.035156-5.792968v11.589843zm0 0"/><path d="m93.019531 180-10.035156-5.792969v11.585938zm0 0"/><path d="m93.019531 191.589844-10.035156-5.796875v11.589843zm0 0"/><path d="m93.019531 203.175781-10.035156-5.792969v11.589844zm0 0"/><path d="m93.019531 214.765625-10.035156-5.792969v11.585938zm0 0"/><path d="m93.019531 226.355469-10.035156-5.796875v11.589844zm0 0"/><path d="m163.273438 278.503906-10.035157-5.796875v11.589844zm0 0"/><path d="m293.742188 214.765625-10.035157-5.792969v11.585938zm0 0"/><path d="m293.742188 203.175781-10.035157-5.792969v11.589844zm0 0"/><path d="m293.742188 191.589844-10.035157-5.796875v11.589843zm0 0"/><path d="m293.742188 180-10.035157-5.792969v11.585938zm0 0"/><path d="m293.742188 168.410156-10.035157-5.792968v11.589843zm0 0"/><path d="m293.742188 156.824219-10.035157-5.796875v11.589844zm0 0"/><path d="m293.742188 145.234375-10.035157-5.792969v11.585938zm0 0"/><path d="m293.742188 133.644531-10.035157-5.792969v11.589844zm0 0"/><path d="m82.984375 139.441406-10.035156-5.796875v11.589844zm0 0"/><path d="m82.984375 232.148438-10.035156-5.792969v11.585937zm0 0"/></g></svg>