<svg height="360pt" viewBox="0 0 360 360" width="360pt" xmlns="http://www.w3.org/2000/svg"><path d="m0 0h360v360h-360z" fill="#fff"/><g fill="#800080" fill-rule="evenodd"><path d="m200.628906 192.46875 10.796875-6.234375v12.464844zm0 0"/><path d="m200.628906 167.53125 10.796875-6.230469v12.464844zm0 0"/><path d="m189.832031 161.300781 10.796875-6.234375v12.464844zm0 0"/><path d="m179.035156 155.066406 10.796875-6.234375v12.46875zm0 0"/><path d="m179.035156 204.933594 10.796875-6.234375v12.46875zm0 0"/><path d="m189.832031 198.699219 10.796875-6.230469v12.464844zm0 0"/><path d="m211.425781 198.699219 10.796875-6.230469v12.464844zm0 0"/><path d="m211.425781 161.300781 10.796875-6.234375v12.464844zm0 0"/><path d="m200.628906 155.066406 10.796875-6.234375v12.46875zm0 0"/><path d="m189.832031 148.832031 10.796875-6.234375v12.46875zm0 0"/><path d="m179.035156 142.597656 10.796875-6.230468v12.464843zm0 0"/><path d="m168.238281 148.832031 10.796875-6.234375v12.46875zm0 0"/><path d="m146.644531 161.300781 10.796875-6.234375v12.464844zm0 0"/><path d="m146.644531 173.765625 10.796875-6.234375v12.46875zm0 0"/><path d="m146.644531 186.234375 10.796875-6.234375v12.46875zm0 0"/><path d="m146.644531 198.699219 10.796875-6.230469v12.464844zm0 0"/><path d="m168.238281 211.167969 10.796875-6.234375v12.46875zm0 0"/><path d="m179.035156 217.402344 10.796875-6.234375v12.464843zm0 0"/><path d="m189.832031 211.167969 10.796875-6.234375v12.46875zm0 0"/><path d="m200.628906 204.933594 10.796875-6.234375v12.46875zm0 0"/><path d="m222.222656 204.933594 10.796875-6.234375v12.46875zm0 0"/><path d="m222.222656 155.066406 10.796875-6.234375v12.46875zm0 0"/><path d="m211.425781 148.832031 10.796875-6.234375v12.46875zm0 0"/><path d="m200.628906 142.597656 10.796875-6.230468v12.464843zm0 0"/><path d="m189.832031 136.367188 10.796875-6.234376v12.464844zm0 0"/><path d="m179.035156 130.132812 10.796875-6.234374v12.46875zm0 0"/><path d="m168.238281 136.367188 10.796875-6.234376v12.464844zm0 0"/><path d="m135.847656 155.066406 10.796875-6.234375v12.46875zm0 0"/><path d="m135.847656 167.53125 10.796875-6.230469v12.464844zm0 0"/><path d="m135.847656 180 10.796875-6.234375v12.46875zm0 0"/><path d="m135.847656 192.46875 10.796875-6.234375v12.464844zm0 0"/><path d="m135.847656 204.933594 10.796875-6.234375v12.46875zm0 0"/><path d="m168.238281 223.632812 10.796875-6.230468v12.464844zm0 0"/><path d="m179.035156 229.867188 10.796875-6.234376v12.46875zm0 0"/><path d="m189.832031 223.632812 10.796875-6.230468v12.464844zm0 0"/><path d="m200.628906 217.402344 10.796875-6.234375v12.464843zm0 0"/><path d="m211.425781 211.167969 10.796875-6.234375v12.46875zm0 0"/><path d="m233.019531 211.167969 10.796875-6.234375v12.46875zm0 0"/><path d="m233.019531 148.832031 10.796875-6.234375v12.46875zm0 0"/><path d="m222.222656 142.597656 10.796875-6.230468v12.464843zm0 0"/><path d="m179.035156 117.664062 10.796875-6.230468v12.464844zm0 0"/><path d="m168.238281 123.898438 10.796875-6.234376v12.46875zm0 0"/><path d="m125.050781 148.832031 10.796875-6.234375v12.46875zm0 0"/><path d="m125.050781 161.300781 10.796875-6.234375v12.464844zm0 0"/><path d="m125.050781 173.765625 10.796875-6.234375v12.46875zm0 0"/><path d="m125.050781 186.234375 10.796875-6.234375v12.46875zm0 0"/><path d="m125.050781 198.699219 10.796875-6.230469v12.464844zm0 0"/><path d="m125.050781 211.167969 10.796875-6.234375v12.46875zm0 0"/><path d="m168.238281 236.101562 10.796875-6.234374v12.46875zm0 0"/><path d="m179.035156 242.335938 10.796875-6.234376v12.464844zm0 0"/><path d="m222.222656 217.402344 10.796875-6.234375v12.464843zm0 0"/><path d="m243.816406 204.933594 10.796875-6.234375v12.46875zm0 0"/><path d="m243.816406 155.066406 10.796875-6.234375v12.46875zm0 0"/><path d="m233.019531 136.367188 10.796875-6.234376v12.464844zm0 0"/><path d="m222.222656 130.132812 10.796875-6.234374v12.46875zm0 0"/><path d="m189.832031 111.433594 10.796875-6.234375v12.464843zm0 0"/><path d="m179.035156 105.199219 10.796875-6.234375v12.46875zm0 0"/><path d="m168.238281 111.433594 10.796875-6.234375v12.464843zm0 0"/><path d="m114.253906 142.597656 10.796875-6.230468v12.464843zm0 0"/><path d="m114.253906 155.066406 10.796875-6.234375v12.46875zm0 0"/><path d="m114.253906 204.933594 10.796875-6.234375v12.46875zm0 0"/><path d="m114.253906 217.402344 10.796875-6.234375v12.464843zm0 0"/><path d="m168.238281 248.566406 10.796875-6.230468v12.464843zm0 0"/><path d="m179.035156 254.800781 10.796875-6.234375v12.46875zm0 0"/><path d="m189.832031 248.566406 10.796875-6.230468v12.464843zm0 0"/><path d="m222.222656 229.867188 10.796875-6.234376v12.46875zm0 0"/><path d="m233.019531 223.632812 10.796875-6.230468v12.464844zm0 0"/><path d="m254.613281 223.632812 10.796875-6.230468v12.464844zm0 0"/><path d="m254.613281 211.167969 10.796875-6.234375v12.46875zm0 0"/><path d="m254.613281 198.699219 10.796875-6.230469v12.464844zm0 0"/><path d="m254.613281 161.300781 10.796875-6.234375v12.464844zm0 0"/><path d="m254.613281 148.832031 10.796875-6.234375v12.46875zm0 0"/><path d="m254.613281 136.367188 10.796875-6.234376v12.464844zm0 0"/><path d="m243.816406 130.132812 10.796875-6.234374v12.46875zm0 0"/><path d="m233.019531 123.898438 10.796875-6.234376v12.46875zm0 0"/><path d="m222.222656 117.664062 10.796875-6.230468v12.464844zm0 0"/><path d="m200.628906 105.199219 10.796875-6.234375v12.46875zm0 0"/><path d="m189.832031 98.964844 10.796875-6.234375v12.46875zm0 0"/><path d="m179.035156 92.730469 10.796875-6.234375v12.46875zm0 0"/><path d="m157.441406 105.199219 10.796875-6.234375v12.46875zm0 0"/><path d="m114.253906 130.132812 10.796875-6.234374v12.46875zm0 0"/><path d="m103.457031 148.832031 10.796875-6.234375v12.46875zm0 0"/><path d="m103.457031 161.300781 10.796875-6.234375v12.464844zm0 0"/><path d="m103.457031 198.699219 10.796875-6.230469v12.464844zm0 0"/><path d="m103.457031 211.167969 10.796875-6.234375v12.46875zm0 0"/><path d="m114.253906 229.867188 10.796875-6.234376v12.46875zm0 0"/><path d="m157.441406 254.800781 10.796875-6.234375v12.46875zm0 0"/><path d="m179.035156 267.269531 10.796875-6.234375v12.46875zm0 0"/><path d="m189.832031 261.035156 10.796875-6.234375v12.46875zm0 0"/><path d="m200.628906 254.800781 10.796875-6.234375v12.46875zm0 0"/><path d="m222.222656 242.335938 10.796875-6.234376v12.464844zm0 0"/><path d="m233.019531 236.101562 10.796875-6.234374v12.46875zm0 0"/><path d="m243.816406 229.867188 10.796875-6.234376v12.46875zm0 0"/><path d="m265.410156 217.402344 10.796875-6.234375v12.464843zm0 0"/><path d="m265.410156 142.597656 10.796875-6.230468v12.464843zm0 0"/><path d="m254.613281 123.898438 10.796875-6.234376v12.46875zm0 0"/><path d="m243.816406 117.664062 10.796875-6.230468v12.464844zm0 0"/><path d="m189.832031 86.496094 10.796875-6.230469v12.464844zm0 0"/><path d="m179.035156 80.265625 10.796875-6.234375v12.464844zm0 0"/><path d="m168.238281 86.496094 10.796875-6.230469v12.464844zm0 0"/><path d="m157.441406 92.730469 10.796875-6.234375v12.46875zm0 0"/><path d="m146.644531 98.964844 10.796875-6.234375v12.46875zm0 0"/><path d="m114.253906 117.664062 10.796875-6.230468v12.464844zm0 0"/><path d="m103.457031 123.898438 10.796875-6.234376v12.46875zm0 0"/><path d="m92.660156 130.132812 10.796875-6.234374v12.46875zm0 0"/><path d="m92.660156 142.597656 10.796875-6.230468v12.464843zm0 0"/><path d="m92.660156 155.066406 10.796875-6.234375v12.46875zm0 0"/><path d="m92.660156 167.53125 10.796875-6.230469v12.464844zm0 0"/><path d="m92.660156 192.46875 10.796875-6.234375v12.464844zm0 0"/><path d="m92.660156 204.933594 10.796875-6.234375v12.46875zm0 0"/><path d="m92.660156 217.402344 10.796875-6.234375v12.464843zm0 0"/><path d="m92.660156 229.867188 10.796875-6.234376v12.46875zm0 0"/><path d="m103.457031 236.101562 10.796875-6.234374v12.46875zm0 0"/><path d="m114.253906 242.335938 10.796875-6.234376v12.464844zm0 0"/><path d="m146.644531 261.035156 10.796875-6.234375v12.46875zm0 0"/><path d="m157.441406 267.269531 10.796875-6.234375v12.46875zm0 0"/><path d="m168.238281 273.503906 10.796875-6.234375v12.464844zm0 0"/><path d="m179.035156 279.734375 10.796875-6.230469v12.464844zm0 0"/><path d="m189.832031 273.503906 10.796875-6.234375v12.464844zm0 0"/><path d="m243.816406 242.335938 10.796875-6.234376v12.464844zm0 0"/><path d="m254.613281 236.101562 10.796875-6.234374v12.46875zm0 0"/><path d="m157.441406 80.265625 10.796875-6.234375v12.464844zm0 0"/><path d="m92.660156 117.664062 10.796875-6.230468v12.464844zm0 0"/><path d="m81.863281 136.367188 10.796875-6.234376v12.464844zm0 0"/><path d="m81.863281 148.832031 10.796875-6.234375v12.46875zm0 0"/><path d="m81.863281 211.167969 10.796875-6.234375v12.46875zm0 0"/><path d="m81.863281 223.632812 10.796875-6.230468v12.464844zm0 0"/><path d="m92.660156 242.335938 10.796875-6.234376v12.464844zm0 0"/><path d="m157.441406 279.734375 10.796875-6.230469v12.464844zm0 0"/><path d="m211.425781 186.234375-10.796875-6.234375v12.46875zm0 0"/><path d="m211.425781 173.765625-10.796875-6.234375v12.46875zm0 0"/><path d="m222.222656 192.46875-10.796875-6.234375v12.464844zm0 0"/><path d="m222.222656 180-10.796875-6.234375v12.46875zm0 0"/><path d="m222.222656 167.53125-10.796875-6.230469v12.464844zm0 0"/><path d="m211.425781 161.300781-10.796875-6.234375v12.464844zm0 0"/><path d="m189.832031 148.832031-10.796875-6.234375v12.46875zm0 0"/><path d="m179.035156 155.066406-10.796875-6.234375v12.46875zm0 0"/><path d="m168.238281 161.300781-10.796875-6.234375v12.464844zm0 0"/><path d="m168.238281 198.699219-10.796875-6.230469v12.464844zm0 0"/><path d="m179.035156 204.933594-10.796875-6.234375v12.46875zm0 0"/><path d="m189.832031 211.167969-10.796875-6.234375v12.46875zm0 0"/><path d="m211.425781 198.699219-10.796875-6.230469v12.464844zm0 0"/><path d="m233.019531 198.699219-10.796875-6.230469v12.464844zm0 0"/><path d="m233.019531 186.234375-10.796875-6.234375v12.46875zm0 0"/><path d="m233.019531 173.765625-10.796875-6.234375v12.46875zm0 0"/><path d="m233.019531 161.300781-10.796875-6.234375v12.464844zm0 0"/><path d="m222.222656 155.066406-10.796875-6.234375v12.46875zm0 0"/><path d="m189.832031 136.367188-10.796875-6.234376v12.464844zm0 0"/><path d="m179.035156 142.597656-10.796875-6.230468v12.464843zm0 0"/><path d="m168.238281 148.832031-10.796875-6.234375v12.46875zm0 0"/><path d="m157.441406 155.066406-10.796875-6.234375v12.46875zm0 0"/><path d="m157.441406 167.53125-10.796875-6.230469v12.464844zm0 0"/><path d="m157.441406 192.46875-10.796875-6.234375v12.464844zm0 0"/><path d="m157.441406 204.933594-10.796875-6.234375v12.46875zm0 0"/><path d="m168.238281 211.167969-10.796875-6.234375v12.46875zm0 0"/><path d="m179.035156 217.402344-10.796875-6.234375v12.464843zm0 0"/><path d="m189.832031 223.632812-10.796875-6.230468v12.464844zm0 0"/><path d="m222.222656 204.933594-10.796875-6.234375v12.46875zm0 0"/><path d="m243.816406 204.933594-10.796875-6.234375v12.46875zm0 0"/><path d="m243.816406 155.066406-10.796875-6.234375v12.46875zm0 0"/><path d="m233.019531 148.832031-10.796875-6.234375v12.46875zm0 0"/><path d="m189.832031 123.898438-10.796875-6.234376v12.46875zm0 0"/><path d="m179.035156 130.132812-10.796875-6.234374v12.46875zm0 0"/><path d="m168.238281 136.367188-10.796875-6.234376v12.464844zm0 0"/><path d="m157.441406 142.597656-10.796875-6.230468v12.464843zm0 0"/><path d="m146.644531 148.832031-10.796875-6.234375v12.46875zm0 0"/><path d="m146.644531 161.300781-10.796875-6.234375v12.464844zm0 0"/><path d="m146.644531 198.699219-10.796875-6.230469v12.464844zm0 0"/><path d="m146.644531 211.167969-10.796875-6.234375v12.46875zm0 0"/><path d="m157.441406 217.402344-10.796875-6.234375v12.464843zm0 0"/><path d="m168.238281 223.632812-10.796875-6.230468v12.464844zm0 0"/><path d="m179.035156 229.867188-10.796875-6.234376v12.46875zm0 0"/><path d="m189.832031 236.101562-10.796875-6.234374v12.46875zm0 0"/><path d="m233.019531 211.167969-10.796875-6.234375v12.46875zm0 0"/><path d="m254.613281 211.167969-10.796875-6.234375v12.46875zm0 0"/><path d="m254.613281 198.699219-10.796875-6.230469v12.464844zm0 0"/><path d="m254.613281 161.300781-10.796875-6.234375v12.464844zm0 0"/><path d="m254.613281 148.832031-10.796875-6.234375v12.46875zm0 0"/><path d="m243.816406 142.597656-10.796875-6.230468v12.464843zm0 0"/><path d="m189.832031 111.433594-10.796875-6.234375v12.464843zm0 0"/><path d="m179.035156 117.664062-10.796875-6.230468v12.464844zm0 0"/><path d="m135.847656 142.597656-10.796875-6.230468v12.464843zm0 0"/><path d="m135.847656 155.066406-10.796875-6.234375v12.46875zm0 0"/><path d="m135.847656 204.933594-10.796875-6.234375v12.46875zm0 0"/><path d="m135.847656 217.402344-10.796875-6.234375v12.464843zm0 0"/><path d="m179.035156 242.335938-10.796875-6.234376v12.464844zm0 0"/><path d="m189.832031 248.566406-10.796875-6.230468v12.464843zm0 0"/><path d="m243.816406 217.402344-10.796875-6.234375v12.464843zm0 0"/><path d="m265.410156 217.402344-10.796875-6.234375v12.464843zm0 0"/><path d="m265.410156 204.933594-10.796875-6.234375v12.46875zm0 0"/><path d="m265.410156 192.46875-10.796875-6.234375v12.464844zm0 0"/><path d="m265.410156 167.53125-10.796875-6.230469v12.464844zm0 0"/><path d="m265.410156 155.066406-10.796875-6.234375v12.46875zm0 0"/><path d="m265.410156 142.597656-10.796875-6.230468v12.464843zm0 0"/><path d="m243.816406 130.132812-10.796875-6.234374v12.46875zm0 0"/><path d="m200.628906 105.199219-10.796875-6.234375v12.46875zm0 0"/><path d="m179.035156 105.199219-10.796875-6.234375v12.46875zm0 0"/><path d="m168.238281 111.433594-10.796875-6.234375v12.464843zm0 0"/><path d="m135.847656 130.132812-10.796875-6.234374v12.46875zm0 0"/><path d="m125.050781 136.367188-10.796875-6.234376v12.464844zm0 0"/><path d="m125.050781 148.832031-10.796875-6.234375v12.46875zm0 0"/><path d="m125.050781 211.167969-10.796875-6.234375v12.46875zm0 0"/><path d="m125.050781 223.632812-10.796875-6.230468v12.464844zm0 0"/><path d="m135.847656 229.867188-10.796875-6.234376v12.46875zm0 0"/><path d="m168.238281 248.566406-10.796875-6.230468v12.464843zm0 0"/><path d="m179.035156 254.800781-10.796875-6.234375v12.46875zm0 0"/><path d="m200.628906 254.800781-10.796875-6.234375v12.46875zm0 0"/><path d="m243.816406 229.867188-10.796875-6.234376v12.46875zm0 0"/><path d="m276.207031 223.632812-10.796875-6.230468v12.464844zm0 0"/><path d="m276.207031 211.167969-10.796875-6.234375v12.46875zm0 0"/><path d="m276.207031 148.832031-10.796875-6.234375v12.46875zm0 0"/><path d="m276.207031 136.367188-10.796875-6.234376v12.464844zm0 0"/><path d="m265.410156 130.132812-10.796875-6.234374v12.46875zm0 0"/><path d="m254.613281 123.898438-10.796875-6.234376v12.46875zm0 0"/><path d="m243.816406 117.664062-10.796875-6.230468v12.464844zm0 0"/><path d="m211.425781 98.964844-10.796875-6.234375v12.46875zm0 0"/><path d="m200.628906 92.730469-10.796875-6.234375v12.46875zm0 0"/><path d="m189.832031 86.496094-10.796875-6.230469v12.464844zm0 0"/><path d="m179.035156 92.730469-10.796875-6.234375v12.46875zm0 0"/><path d="m168.238281 98.964844-10.796875-6.234375v12.46875zm0 0"/><path d="m157.441406 105.199219-10.796875-6.234375v12.46875zm0 0"/><path d="m135.847656 117.664062-10.796875-6.230468v12.464844zm0 0"/><path d="m125.050781 123.898438-10.796875-6.234376v12.46875zm0 0"/><path d="m114.253906 130.132812-10.796875-6.234374v12.46875zm0 0"/><path d="m114.253906 155.066406-10.796875-6.234375v12.46875zm0 0"/><path d="m114.253906 204.933594-10.796875-6.234375v12.46875zm0 0"/><path d="m114.253906 229.867188-10.796875-6.234376v12.46875zm0 0"/><path d="m125.050781 236.101562-10.796875-6.234374v12.46875zm0 0"/><path d="m135.847656 242.335938-10.796875-6.234376v12.464844zm0 0"/><path d="m157.441406 254.800781-10.796875-6.234375v12.46875zm0 0"/><path d="m168.238281 261.035156-10.796875-6.234375v12.46875zm0 0"/><path d="m179.035156 267.269531-10.796875-6.234375v12.46875zm0 0"/><path d="m189.832031 273.503906-10.796875-6.234375v12.464844zm0 0"/><path d="m200.628906 267.269531-10.796875-6.234375v12.46875zm0 0"/><path d="m211.425781 261.035156-10.796875-6.234375v12.46875zm0 0"/><path d="m243.816406 242.335938-10.796875-6.234376v12.464844zm0 0"/><path d="m254.613281 236.101562-10.796875-6.234374v12.46875zm0 0"/><path d="m265.410156 229.867188-10.796875-6.234376v12.46875zm0 0"/><path d="m265.410156 117.664062-10.796875-6.230468v12.464844zm0 0"/><path d="m200.628906 80.265625-10.796875-6.234375v12.464844zm0 0"/><path d="m179.035156 80.265625-10.796875-6.234375v12.464844zm0 0"/><path d="m168.238281 86.496094-10.796875-6.230469v12.464844zm0 0"/><path d="m114.253906 117.664062-10.796875-6.230468v12.464844zm0 0"/><path d="m103.457031 123.898438-10.796875-6.234376v12.46875zm0 0"/><path d="m103.457031 136.367188-10.796875-6.234376v12.464844zm0 0"/><path d="m103.457031 148.832031-10.796875-6.234375v12.46875zm0 0"/><path d="m103.457031 161.300781-10.796875-6.234375v12.464844zm0 0"/><path d="m103.457031 198.699219-10.796875-6.230469v12.464844zm0 0"/><path d="m103.457031 211.167969-10.796875-6.234375v12.46875zm0 0"/><path d="m103.457031 223.632812-10.796875-6.230468v12.464844zm0 0"/><path d="m103.457031 236.101562-10.796875-6.234374v12.46875zm0 0"/><path d="m114.253906 242.335938-10.796875-6.234376v12.464844zm0 0"/><path d="m168.238281 273.503906-10.796875-6.234375v12.464844zm0 0"/><path d="m179.035156 279.734375-10.796875-6.230469v12.464844zm0 0"/><path d="m200.628906 279.734375-10.796875-6.230469v12.464844zm0 0"/><path d="m265.410156 242.335938-10.796875-6.234376v12.464844zm0 0"/><path d="m92.660156 142.597656-10.796875-6.230468v12.464843zm0 0"/><path d="m92.660156 217.402344-10.796875-6.234375v12.464843zm0 0"/></g></svg>