<svg xmlns="http://www.w3.org/2000/svg" xmlns:xlink="http://www.w3.org/1999/xlink" width="480" height="480" viewBox="0 0 360 360" version="1.1"><g id="surface3391"><rect x="0" y="0" width="360" height="360" fill="rgb(100%,100%,100%)" fill-opacity="1" stroke="none"/><path d="M 178.253906 180 L 197.789062 168.722656 L 197.789062 191.277344 Z M 178.253906 180" stroke="none" fill-rule="evenodd" fill="rgb(50.000763%,0%,50.000763%)" fill-opacity="1"/><path d="M 178.253906 157.445312 L 197.789062 146.167969 L 197.789062 168.722656 Z M 178.253906 157.445312" stroke="none" fill-rule="evenodd" fill="rgb(50.000763%,0%,50.000763%)" fill-opacity="1"/><path d="M 158.722656 168.722656 L 178.253906 157.445312 L 178.253906 180 Z M 158.722656 168.722656" stroke="none" fill-rule="evenodd" fill="rgb(50.000763%,0%,50.000763%)" fill-opacity="1"/><path d="M 158.722656 191.277344 L 178.253906 180 L 178.253906 202.554688 Z M 158.722656 191.277344" stroke="none" fill-rule="evenodd" fill="rgb(50.000763%,0%,50.000763%)" fill-opacity="1"/><path d="M 178.253906 202.554688 L 197.789062 191.277344 L 197.789062 213.832031 Z M 178.253906 202.554688" stroke="none" fill-rule="evenodd" fill="rgb(50.000763%,0%,50.000763%)" fill-opacity="1"/><path d="M 139.191406 180 L 158.722656 168.722656 L 158.722656 191.277344 Z M 139.191406 180" stroke="none" fill-rule="evenodd" fill="rgb(50.000763%,0%,50.000763%)" fill-opacity="1"/><path d="M 217.320312 180 L 197.789062 168.722656 L 197.789062 191.277344 Z M 217.320312 180" stroke="none" fill-rule="evenodd" fill="rgb(50.000763%,0%,50.000763%)" fill-opacity="1"/><path d="M 197.789062 168.722656 L 178.253906 157.445312 L 178.253906 180 Z M 197.789062 168.722656" stroke="none" fill-rule="evenodd" fill="rgb(50.000763%,0%,50.000763%)" fill-opacity="1"/><path d="M 197.789062 191.277344 L 178.253906 180 L 178.253906 202.554688 Z M 197.789062 191.277344" stroke="none" fill-rule="evenodd" fill="rgb(50.000763%,0%,50.000763%)" fill-opacity="1"/><path d="M 178.253906 157.445312 L 158.722656 146.167969 L 158.722656 168.722656 Z M 178.253906 157.445312" stroke="none" fill-rule="evenodd" fill="rgb(50.000763%,0%,50.000763%)" fill-opacity="1"/><path d="M 178.253906 180 L 158.722656 168.722656 L 158.722656 191.277344 Z M 178.253906 180" stroke="none" fill-rule="evenodd" fill="rgb(50.000763%,0%,50.000763%)" fill-opacity="1"/><path d="M 178.253906 202.554688 L 158.722656 191.277344 L 158.722656 213.832031 Z M 178.253906 202.554688" stroke="none" fill-rule="evenodd" fill="rgb(50.000763%,0%,50.000763%)" fill-opacity="1"/></g></svg>