<svg height="361pt" viewBox="0 0 360 361" width="360pt" xmlns="http://www.w3.org/2000/svg"><g fill-rule="evenodd"><path d="m0 360h360v-360h-360zm0 0" fill="#800080"/><g fill="#fff"><path d="m183.230469 182.046875 3.546875-2.046875v4.097656zm0 0"/><path d="m183.230469 177.953125 3.546875-2.050781v4.097656zm0 0"/><path d="m179.683594 175.902344 3.546875-2.046875v4.097656zm0 0"/><path d="m179.683594 184.097656 3.546875-2.050781v4.097656zm0 0"/><path d="m186.777344 184.097656 3.550781-2.050781v4.097656zm0 0"/><path d="m186.777344 175.902344 3.550781-2.046875v4.097656zm0 0"/><path d="m176.136719 173.855469 3.546875-2.050781v4.097656zm0 0"/><path d="m172.585938 175.902344 3.550781-2.046875v4.097656zm0 0"/><path d="m172.585938 180 3.550781-2.046875v4.09375zm0 0"/><path d="m172.585938 184.097656 3.550781-2.050781v4.097656zm0 0"/><path d="m176.136719 186.144531 3.546875-2.046875v4.097656zm0 0"/><path d="m190.328125 182.046875 3.546875-2.046875v4.097656zm0 0"/><path d="m190.328125 177.953125 3.546875-2.050781v4.097656zm0 0"/><path d="m186.777344 171.804688 3.550781-2.046876v4.097657zm0 0"/><path d="m179.683594 167.710938 3.546875-2.050782v4.097656zm0 0"/><path d="m176.136719 169.757812 3.546875-2.046874v4.09375zm0 0"/><path d="m169.039062 173.855469 3.546876-2.050781v4.097656zm0 0"/><path d="m169.039062 186.144531 3.546876-2.046875v4.097656zm0 0"/><path d="m176.136719 190.242188 3.546875-2.046876v4.09375zm0 0"/><path d="m179.683594 192.289062 3.546875-2.046874v4.097656zm0 0"/><path d="m186.777344 188.195312 3.550781-2.050781v4.097657zm0 0"/><path d="m193.875 184.097656 3.546875-2.050781v4.097656zm0 0"/><path d="m193.875 175.902344 3.546875-2.046875v4.097656zm0 0"/><path d="m186.777344 167.710938 3.550781-2.050782v4.097656zm0 0"/><path d="m183.230469 165.660156 3.546875-2.046875v4.097657zm0 0"/><path d="m172.585938 167.710938 3.550781-2.050782v4.097656zm0 0"/><path d="m169.039062 169.757812 3.546876-2.046874v4.09375zm0 0"/><path d="m165.492188 175.902344 3.546874-2.046875v4.097656zm0 0"/><path d="m165.492188 184.097656 3.546874-2.050781v4.097656zm0 0"/><path d="m169.039062 190.242188 3.546876-2.046876v4.09375zm0 0"/><path d="m172.585938 192.289062 3.550781-2.046874v4.097656zm0 0"/><path d="m183.230469 194.339844 3.546875-2.050782v4.097657zm0 0"/><path d="m186.777344 192.289062 3.550781-2.046874v4.097656zm0 0"/><path d="m197.421875 190.242188 3.546875-2.046876v4.09375zm0 0"/><path d="m197.421875 186.144531 3.546875-2.046875v4.097656zm0 0"/><path d="m197.421875 182.046875 3.546875-2.046875v4.097656zm0 0"/><path d="m197.421875 177.953125 3.546875-2.050781v4.097656zm0 0"/><path d="m197.421875 173.855469 3.546875-2.050781v4.097656zm0 0"/><path d="m197.421875 169.757812 3.546875-2.046874v4.09375zm0 0"/><path d="m193.875 167.710938 3.546875-2.050782v4.097656zm0 0"/><path d="m190.328125 165.660156 3.546875-2.046875v4.097657zm0 0"/><path d="m183.230469 161.566406 3.546875-2.050781v4.097656zm0 0"/><path d="m179.683594 159.515625 3.546875-2.046875v4.097656zm0 0"/><path d="m172.585938 163.613281 3.550781-2.046875v4.09375zm0 0"/><path d="m165.492188 167.710938 3.546874-2.050782v4.097656zm0 0"/><path d="m161.945312 177.953125 3.546876-2.050781v4.097656zm0 0"/><path d="m161.945312 182.046875 3.546876-2.046875v4.097656zm0 0"/><path d="m165.492188 192.289062 3.546874-2.046874v4.097656zm0 0"/><path d="m172.585938 196.386719 3.550781-2.046875v4.09375zm0 0"/><path d="m179.683594 200.484375 3.546875-2.050781v4.097656zm0 0"/><path d="m183.230469 198.433594 3.546875-2.046875v4.097656zm0 0"/><path d="m190.328125 194.339844 3.546875-2.050782v4.097657zm0 0"/><path d="m193.875 192.289062 3.546875-2.046874v4.097656zm0 0"/><path d="m197.421875 165.660156 3.546875-2.046875v4.097657zm0 0"/><path d="m193.875 163.613281 3.546875-2.046875v4.09375zm0 0"/><path d="m183.230469 157.46875 3.546875-2.050781v4.097656zm0 0"/><path d="m179.683594 155.417969 3.546875-2.046875v4.097656zm0 0"/><path d="m176.136719 157.46875 3.546875-2.050781v4.097656zm0 0"/><path d="m172.585938 159.515625 3.550781-2.046875v4.097656zm0 0"/><path d="m169.039062 161.566406 3.546876-2.050781v4.097656zm0 0"/><path d="m165.492188 163.613281 3.546874-2.046875v4.09375zm0 0"/><path d="m161.945312 165.660156 3.546876-2.046875v4.097657zm0 0"/><path d="m158.394531 167.710938 3.550781-2.050782v4.097656zm0 0"/><path d="m158.394531 171.804688 3.550781-2.046876v4.097657zm0 0"/><path d="m158.394531 175.902344 3.550781-2.046875v4.097656zm0 0"/><path d="m158.394531 184.097656 3.550781-2.050781v4.097656zm0 0"/><path d="m158.394531 188.195312 3.550781-2.050781v4.097657zm0 0"/><path d="m158.394531 192.289062 3.550781-2.046874v4.097656zm0 0"/><path d="m161.945312 194.339844 3.546876-2.050782v4.097657zm0 0"/><path d="m165.492188 196.386719 3.546874-2.046875v4.09375zm0 0"/><path d="m169.039062 198.433594 3.546876-2.046875v4.097656zm0 0"/><path d="m172.585938 200.484375 3.550781-2.050781v4.097656zm0 0"/><path d="m176.136719 202.53125 3.546875-2.046875v4.097656zm0 0"/><path d="m179.683594 204.582031 3.546875-2.050781v4.097656zm0 0"/><path d="m183.230469 202.53125 3.546875-2.046875v4.097656zm0 0"/><path d="m193.875 196.386719 3.546875-2.046875v4.09375zm0 0"/><path d="m197.421875 194.339844 3.546875-2.050782v4.097657zm0 0"/><path d="m154.847656 169.757812 3.546875-2.046874v4.09375zm0 0"/><path d="m154.847656 173.855469 3.546875-2.050781v4.097656zm0 0"/><path d="m154.847656 186.144531 3.546875-2.046875v4.097656zm0 0"/><path d="m154.847656 190.242188 3.546875-2.046876v4.09375zm0 0"/><path d="m271.925781 233.257812 3.550781-2.050781v4.097657zm0 0"/><path d="m271.925781 126.742188 3.550781-2.046876v4.097657zm0 0"/><path d="m268.378906 124.695312 3.546875-2.050781v4.097657zm0 0"/><path d="m179.683594 73.484375 3.546875-2.046875v4.097656zm0 0"/><path d="m179.683594 286.515625 3.546875-2.050781v4.097656zm0 0"/><path d="m268.378906 235.304688 3.546875-2.046876v4.097657zm0 0"/><path d="m275.476562 231.207031 3.546876-2.046875v4.097656zm0 0"/><path d="m275.476562 128.792969 3.546876-2.050781v4.097656zm0 0"/><path d="m271.925781 122.644531 3.550781-2.046875v4.097656zm0 0"/><path d="m268.378906 120.597656 3.546875-2.046875v4.09375zm0 0"/><path d="m183.230469 71.4375 3.546875-2.046875v4.09375zm0 0"/><path d="m179.683594 69.390625 3.546875-2.050781v4.097656zm0 0"/><path d="m176.136719 71.4375 3.546875-2.046875v4.09375zm0 0"/><path d="m83.890625 124.695312 3.546875-2.050781v4.097657zm0 0"/><path d="m83.890625 128.792969 3.546875-2.050781v4.097656zm0 0"/><path d="m83.890625 231.207031 3.546875-2.046875v4.097656zm0 0"/><path d="m83.890625 235.304688 3.546875-2.046876v4.097657zm0 0"/><path d="m176.136719 288.5625 3.546875-2.046875v4.09375zm0 0"/><path d="m179.683594 290.609375 3.546875-2.046875v4.097656zm0 0"/><path d="m183.230469 288.5625 3.546875-2.046875v4.09375zm0 0"/><path d="m268.378906 239.402344 3.546875-2.046875v4.09375zm0 0"/><path d="m271.925781 237.355469 3.550781-2.050781v4.097656zm0 0"/><path d="m279.023438 233.257812 3.546874-2.050781v4.097657zm0 0"/><path d="m279.023438 229.160156 3.546874-2.046875v4.09375zm0 0"/><path d="m279.023438 130.839844 3.546874-2.046875v4.09375zm0 0"/><path d="m279.023438 126.742188 3.546874-2.046876v4.097657zm0 0"/><path d="m271.925781 118.550781 3.550781-2.050781v4.097656zm0 0"/><path d="m183.230469 67.339844 3.546875-2.046875v4.097656zm0 0"/><path d="m172.585938 69.390625 3.550781-2.050781v4.097656zm0 0"/><path d="m83.890625 120.597656 3.546875-2.046875v4.09375zm0 0"/><path d="m80.34375 126.742188 3.546875-2.046876v4.097657zm0 0"/><path d="m80.34375 130.839844 3.546875-2.046875v4.09375zm0 0"/><path d="m80.34375 229.160156 3.546875-2.046875v4.09375zm0 0"/><path d="m80.34375 233.257812 3.546875-2.050781v4.097657zm0 0"/><path d="m83.890625 239.402344 3.546875-2.046875v4.09375zm0 0"/><path d="m172.585938 290.609375 3.550781-2.046875v4.097656zm0 0"/><path d="m183.230469 292.660156 3.546875-2.050781v4.097656zm0 0"/><path d="m271.925781 241.449219 3.550781-2.046875v4.097656zm0 0"/><path d="m282.570312 239.402344 3.546876-2.046875v4.09375zm0 0"/><path d="m282.570312 235.304688 3.546876-2.046876v4.097657zm0 0"/><path d="m282.570312 227.113281 3.546876-2.050781v4.097656zm0 0"/><path d="m282.570312 132.886719 3.546876-2.046875v4.097656zm0 0"/><path d="m282.570312 124.695312 3.546876-2.050781v4.097657zm0 0"/><path d="m282.570312 120.597656 3.546876-2.046875v4.09375zm0 0"/><path d="m279.023438 118.550781 3.546874-2.050781v4.097656zm0 0"/><path d="m275.476562 116.5 3.546876-2.046875v4.097656zm0 0"/><path d="m183.230469 63.242188 3.546875-2.046876v4.097657zm0 0"/><path d="m179.683594 61.195312 3.546875-2.046874v4.09375zm0 0"/><path d="m172.585938 65.292969 3.550781-2.050781v4.097656zm0 0"/><path d="m169.039062 67.339844 3.546876-2.046875v4.097656zm0 0"/><path d="m83.890625 116.5 3.546875-2.046875v4.097656zm0 0"/><path d="m80.34375 118.550781 3.546875-2.050781v4.097656zm0 0"/><path d="m76.796875 128.792969 3.546875-2.050781v4.097656zm0 0"/><path d="m76.796875 231.207031 3.546875-2.046875v4.097656zm0 0"/><path d="m80.34375 241.449219 3.546875-2.046875v4.097656zm0 0"/><path d="m83.890625 243.5 3.546875-2.050781v4.097656zm0 0"/><path d="m169.039062 292.660156 3.546876-2.050781v4.097656zm0 0"/><path d="m172.585938 294.707031 3.550781-2.046875v4.097656zm0 0"/><path d="m179.683594 298.804688 3.546875-2.046876v4.09375zm0 0"/><path d="m183.230469 296.757812 3.546875-2.050781v4.097657zm0 0"/><path d="m275.476562 243.5 3.546876-2.050781v4.097656zm0 0"/><path d="m279.023438 241.449219 3.546874-2.046875v4.097656zm0 0"/><path d="m286.117188 241.449219 3.550781-2.046875v4.097656zm0 0"/><path d="m286.117188 233.257812 3.550781-2.050781v4.097657zm0 0"/><path d="m286.117188 229.160156 3.550781-2.046875v4.09375zm0 0"/><path d="m286.117188 225.0625 3.550781-2.046875v4.097656zm0 0"/><path d="m286.117188 134.9375 3.550781-2.050781v4.097656zm0 0"/><path d="m286.117188 130.839844 3.550781-2.046875v4.09375zm0 0"/><path d="m286.117188 126.742188 3.550781-2.046876v4.097657zm0 0"/><path d="m286.117188 118.550781 3.550781-2.050781v4.097656zm0 0"/><path d="m275.476562 112.40625 3.546876-2.050781v4.097656zm0 0"/><path d="m271.925781 110.355469 3.550781-2.046875v4.097656zm0 0"/><path d="m268.378906 108.308594 3.546875-2.050782v4.097657zm0 0"/><path d="m193.875 65.292969 3.546875-2.050781v4.097656zm0 0"/><path d="m190.328125 63.242188 3.546875-2.046876v4.097657zm0 0"/><path d="m186.777344 61.195312 3.550781-2.046874v4.09375zm0 0"/><path d="m176.136719 59.148438 3.546875-2.050782v4.097656zm0 0"/><path d="m172.585938 61.195312 3.550781-2.046874v4.09375zm0 0"/><path d="m165.492188 65.292969 3.546874-2.050781v4.097656zm0 0"/><path d="m83.890625 112.40625 3.546875-2.050781v4.097656zm0 0"/><path d="m76.796875 116.5 3.546875-2.046875v4.097656zm0 0"/><path d="m73.246094 118.550781 3.550781-2.050781v4.097656zm0 0"/><path d="m73.246094 122.644531 3.550781-2.046875v4.097656zm0 0"/><path d="m73.246094 126.742188 3.550781-2.046876v4.097657zm0 0"/><path d="m73.246094 233.257812 3.550781-2.050781v4.097657zm0 0"/><path d="m73.246094 237.355469 3.550781-2.050781v4.097656zm0 0"/><path d="m73.246094 241.449219 3.550781-2.046875v4.097656zm0 0"/><path d="m76.796875 243.5 3.546875-2.050781v4.097656zm0 0"/><path d="m83.890625 247.59375 3.546875-2.046875v4.097656zm0 0"/><path d="m165.492188 294.707031 3.546874-2.046875v4.097656zm0 0"/><path d="m172.585938 298.804688 3.550781-2.046876v4.09375zm0 0"/><path d="m176.136719 300.851562 3.546875-2.046874v4.097656zm0 0"/><path d="m186.777344 298.804688 3.550781-2.046876v4.09375zm0 0"/><path d="m190.328125 296.757812 3.546875-2.050781v4.097657zm0 0"/><path d="m193.875 294.707031 3.546875-2.046875v4.097656zm0 0"/><path d="m268.378906 251.691406 3.546875-2.046875v4.097657zm0 0"/><path d="m271.925781 249.644531 3.550781-2.050781v4.097656zm0 0"/><path d="m275.476562 247.59375 3.546876-2.046875v4.097656zm0 0"/><path d="m289.667969 239.402344 3.546875-2.046875v4.09375zm0 0"/><path d="m289.667969 235.304688 3.546875-2.046876v4.097657zm0 0"/><path d="m289.667969 223.015625 3.546875-2.046875v4.09375zm0 0"/><path d="m289.667969 136.984375 3.546875-2.046875v4.09375zm0 0"/><path d="m289.667969 124.695312 3.546875-2.050781v4.097657zm0 0"/><path d="m289.667969 120.597656 3.546875-2.046875v4.09375zm0 0"/><path d="m286.117188 114.453125 3.550781-2.046875v4.09375zm0 0"/><path d="m279.023438 110.355469 3.546874-2.046875v4.097656zm0 0"/><path d="m271.925781 106.257812 3.550781-2.046874v4.097656zm0 0"/><path d="m268.378906 104.210938 3.546875-2.046876v4.09375zm0 0"/><path d="m197.421875 63.242188 3.546875-2.046876v4.097657zm0 0"/><path d="m193.875 61.195312 3.546875-2.046874v4.09375zm0 0"/><path d="m186.777344 57.097656 3.550781-2.046875v4.097657zm0 0"/><path d="m179.683594 53.003906 3.546875-2.050781v4.097656zm0 0"/><path d="m176.136719 55.050781 3.546875-2.046875v4.09375zm0 0"/><path d="m169.039062 59.148438 3.546876-2.050782v4.097656zm0 0"/><path d="m165.492188 61.195312 3.546874-2.046874v4.09375zm0 0"/><path d="m161.945312 63.242188 3.546876-2.046876v4.097657zm0 0"/><path d="m83.890625 108.308594 3.546875-2.050782v4.097657zm0 0"/><path d="m80.34375 110.355469 3.546875-2.046875v4.097656zm0 0"/><path d="m76.796875 112.40625 3.546875-2.050781v4.097656zm0 0"/><path d="m69.699219 116.5 3.546875-2.046875v4.097656zm0 0"/><path d="m69.699219 128.792969 3.546875-2.050781v4.097656zm0 0"/><path d="m69.699219 132.886719 3.546875-2.046875v4.097656zm0 0"/><path d="m69.699219 136.984375 3.546875-2.046875v4.09375zm0 0"/><path d="m69.699219 223.015625 3.546875-2.046875v4.09375zm0 0"/><path d="m69.699219 227.113281 3.546875-2.050781v4.097656zm0 0"/><path d="m69.699219 231.207031 3.546875-2.046875v4.097656zm0 0"/><path d="m69.699219 243.5 3.546875-2.050781v4.097656zm0 0"/><path d="m76.796875 247.59375 3.546875-2.046875v4.097656zm0 0"/><path d="m80.34375 249.644531 3.546875-2.050781v4.097656zm0 0"/><path d="m83.890625 251.691406 3.546875-2.046875v4.097657zm0 0"/><path d="m161.945312 296.757812 3.546876-2.050781v4.097657zm0 0"/><path d="m165.492188 298.804688 3.546874-2.046876v4.09375zm0 0"/><path d="m169.039062 300.851562 3.546876-2.046874v4.097656zm0 0"/><path d="m176.136719 304.949219 3.546875-2.046875v4.09375zm0 0"/><path d="m179.683594 306.996094 3.546875-2.046875v4.097656zm0 0"/><path d="m186.777344 302.902344 3.550781-2.050782v4.097657zm0 0"/><path d="m193.875 298.804688 3.546875-2.046876v4.09375zm0 0"/><path d="m197.421875 296.757812 3.546875-2.050781v4.097657zm0 0"/><path d="m268.378906 255.789062 3.546875-2.046874v4.09375zm0 0"/><path d="m271.925781 253.742188 3.550781-2.050782v4.097656zm0 0"/><path d="m279.023438 249.644531 3.546874-2.050781v4.097656zm0 0"/><path d="m286.117188 245.546875 3.550781-2.046875v4.09375zm0 0"/><path d="m293.214844 241.449219 3.546875-2.046875v4.097656zm0 0"/><path d="m293.214844 233.257812 3.546875-2.050781v4.097657zm0 0"/><path d="m293.214844 225.0625 3.546875-2.046875v4.097656zm0 0"/><path d="m293.214844 220.96875 3.546875-2.050781v4.097656zm0 0"/><path d="m293.214844 139.03125 3.546875-2.046875v4.097656zm0 0"/><path d="m293.214844 134.9375 3.546875-2.050781v4.097656zm0 0"/><path d="m293.214844 126.742188 3.546875-2.046876v4.097657zm0 0"/><path d="m293.214844 118.550781 3.546875-2.050781v4.097656zm0 0"/><path d="m286.117188 110.355469 3.550781-2.046875v4.097656zm0 0"/><path d="m282.570312 108.308594 3.546876-2.050782v4.097657zm0 0"/><path d="m271.925781 102.164062 3.550781-2.050781v4.097657zm0 0"/><path d="m197.421875 59.148438 3.546875-2.050782v4.097656zm0 0"/><path d="m186.777344 53.003906 3.550781-2.050781v4.097656zm0 0"/><path d="m183.230469 50.953125 3.546875-2.046875v4.097656zm0 0"/><path d="m172.585938 53.003906 3.550781-2.050781v4.097656zm0 0"/><path d="m169.039062 55.050781 3.546876-2.046875v4.09375zm0 0"/><path d="m158.394531 61.195312 3.550781-2.046874v4.09375zm0 0"/><path d="m83.890625 104.210938 3.546875-2.046876v4.09375zm0 0"/><path d="m73.246094 110.355469 3.550781-2.046875v4.097656zm0 0"/><path d="m69.699219 112.40625 3.546875-2.050781v4.097656zm0 0"/><path d="m66.152344 118.550781 3.546875-2.050781v4.097656zm0 0"/><path d="m66.152344 126.742188 3.546875-2.046876v4.097657zm0 0"/><path d="m66.152344 134.9375 3.546875-2.050781v4.097656zm0 0"/><path d="m66.152344 139.03125 3.546875-2.046875v4.097656zm0 0"/><path d="m66.152344 220.96875 3.546875-2.050781v4.097656zm0 0"/><path d="m66.152344 225.0625 3.546875-2.046875v4.097656zm0 0"/><path d="m66.152344 233.257812 3.546875-2.050781v4.097657zm0 0"/><path d="m66.152344 241.449219 3.546875-2.046875v4.097656zm0 0"/><path d="m69.699219 247.59375 3.546875-2.046875v4.097656zm0 0"/><path d="m73.246094 249.644531 3.550781-2.050781v4.097656zm0 0"/><path d="m83.890625 255.789062 3.546875-2.046874v4.09375zm0 0"/><path d="m158.394531 298.804688 3.550781-2.046876v4.09375zm0 0"/><path d="m169.039062 304.949219 3.546876-2.046875v4.09375zm0 0"/><path d="m172.585938 306.996094 3.550781-2.046875v4.097656zm0 0"/><path d="m183.230469 309.046875 3.546875-2.050781v4.097656zm0 0"/><path d="m186.777344 306.996094 3.550781-2.046875v4.097656zm0 0"/><path d="m197.421875 300.851562 3.546875-2.046874v4.097656zm0 0"/><path d="m271.925781 257.835938 3.550781-2.046876v4.097657zm0 0"/><path d="m282.570312 251.691406 3.546876-2.046875v4.097657zm0 0"/><path d="m286.117188 249.644531 3.550781-2.050781v4.097656zm0 0"/><path d="m296.761719 247.59375 3.546875-2.046875v4.097656zm0 0"/><path d="m296.761719 243.5 3.546875-2.050781v4.097656zm0 0"/><path d="m296.761719 231.207031 3.546875-2.046875v4.097656zm0 0"/><path d="m296.761719 227.113281 3.546875-2.050781v4.097656zm0 0"/><path d="m296.761719 223.015625 3.546875-2.046875v4.09375zm0 0"/><path d="m296.761719 136.984375 3.546875-2.046875v4.09375zm0 0"/><path d="m296.761719 132.886719 3.546875-2.046875v4.097656zm0 0"/><path d="m296.761719 128.792969 3.546875-2.050781v4.097656zm0 0"/><path d="m296.761719 116.5 3.546875-2.046875v4.097656zm0 0"/><path d="m296.761719 112.40625 3.546875-2.050781v4.097656zm0 0"/><path d="m293.214844 110.355469 3.546875-2.046875v4.097656zm0 0"/><path d="m289.667969 108.308594 3.546875-2.050782v4.097657zm0 0"/><path d="m282.570312 104.210938 3.546876-2.046876v4.09375zm0 0"/><path d="m279.023438 102.164062 3.546874-2.050781v4.097657zm0 0"/><path d="m275.476562 100.113281 3.546876-2.046875v4.097656zm0 0"/><path d="m197.421875 55.050781 3.546875-2.046875v4.09375zm0 0"/><path d="m193.875 53.003906 3.546875-2.050781v4.097656zm0 0"/><path d="m190.328125 50.953125 3.546875-2.046875v4.097656zm0 0"/><path d="m183.230469 46.855469 3.546875-2.046875v4.097656zm0 0"/><path d="m179.683594 44.808594 3.546875-2.046875v4.09375zm0 0"/><path d="m172.585938 48.90625 3.550781-2.050781v4.097656zm0 0"/><path d="m165.492188 53.003906 3.546874-2.050781v4.097656zm0 0"/><path d="m158.394531 57.097656 3.550781-2.046875v4.097657zm0 0"/><path d="m154.847656 59.148438 3.546875-2.050782v4.097656zm0 0"/><path d="m83.890625 100.113281 3.546875-2.046875v4.097656zm0 0"/><path d="m80.34375 102.164062 3.546875-2.050781v4.097657zm0 0"/><path d="m73.246094 106.257812 3.550781-2.046874v4.097656zm0 0"/><path d="m66.152344 110.355469 3.546875-2.046875v4.097656zm0 0"/><path d="m62.605469 120.597656 3.546875-2.046875v4.09375zm0 0"/><path d="m62.605469 124.695312 3.546875-2.050781v4.097657zm0 0"/><path d="m62.605469 136.984375 3.546875-2.046875v4.09375zm0 0"/><path d="m62.605469 223.015625 3.546875-2.046875v4.09375zm0 0"/><path d="m62.605469 235.304688 3.546875-2.046876v4.097657zm0 0"/><path d="m62.605469 239.402344 3.546875-2.046875v4.09375zm0 0"/><path d="m66.152344 249.644531 3.546875-2.050781v4.097656zm0 0"/><path d="m73.246094 253.742188 3.550781-2.050782v4.097656zm0 0"/><path d="m80.34375 257.835938 3.546875-2.046876v4.097657zm0 0"/><path d="m83.890625 259.886719 3.546875-2.050781v4.097656zm0 0"/><path d="m154.847656 300.851562 3.546875-2.046874v4.097656zm0 0"/><path d="m158.394531 302.902344 3.550781-2.050782v4.097657zm0 0"/><path d="m165.492188 306.996094 3.546874-2.046875v4.097656zm0 0"/><path d="m172.585938 311.09375 3.550781-2.046875v4.097656zm0 0"/><path d="m179.683594 315.191406 3.546875-2.046875v4.09375zm0 0"/><path d="m183.230469 313.144531 3.546875-2.050781v4.097656zm0 0"/><path d="m190.328125 309.046875 3.546875-2.050781v4.097656zm0 0"/><path d="m193.875 306.996094 3.546875-2.046875v4.097656zm0 0"/><path d="m197.421875 304.949219 3.546875-2.046875v4.09375zm0 0"/><path d="m275.476562 259.886719 3.546876-2.050781v4.097656zm0 0"/><path d="m279.023438 257.835938 3.546874-2.046876v4.097657zm0 0"/><path d="m282.570312 255.789062 3.546876-2.046874v4.09375zm0 0"/><path d="m289.667969 251.691406 3.546875-2.046875v4.097657zm0 0"/><path d="m293.214844 249.644531 3.546875-2.050781v4.097656zm0 0"/><path d="m300.308594 249.644531 3.550781-2.050781v4.097656zm0 0"/><path d="m300.308594 241.449219 3.550781-2.046875v4.097656zm0 0"/><path d="m300.308594 237.355469 3.550781-2.050781v4.097656zm0 0"/><path d="m300.308594 233.257812 3.550781-2.050781v4.097657zm0 0"/><path d="m300.308594 126.742188 3.550781-2.046876v4.097657zm0 0"/><path d="m300.308594 122.644531 3.550781-2.046875v4.097656zm0 0"/><path d="m300.308594 118.550781 3.550781-2.050781v4.097656zm0 0"/><path d="m300.308594 110.355469 3.550781-2.046875v4.097656zm0 0"/><path d="m289.667969 104.210938 3.546875-2.046876v4.09375zm0 0"/><path d="m286.117188 102.164062 3.550781-2.050781v4.097657zm0 0"/><path d="m279.023438 98.066406 3.546874-2.050781v4.097656zm0 0"/><path d="m197.421875 50.953125 3.546875-2.046875v4.097656zm0 0"/><path d="m190.328125 46.855469 3.546875-2.046875v4.097656zm0 0"/><path d="m186.777344 44.808594 3.550781-2.046875v4.09375zm0 0"/><path d="m176.136719 42.761719 3.546875-2.050781v4.097656zm0 0"/><path d="m172.585938 44.808594 3.550781-2.046875v4.09375zm0 0"/><path d="m161.945312 50.953125 3.546876-2.046875v4.097656zm0 0"/><path d="m158.394531 53.003906 3.550781-2.050781v4.097656zm0 0"/><path d="m154.847656 55.050781 3.546875-2.046875v4.09375zm0 0"/><path d="m80.34375 98.066406 3.546875-2.050781v4.097656zm0 0"/><path d="m76.796875 100.113281 3.546875-2.046875v4.097656zm0 0"/><path d="m73.246094 102.164062 3.550781-2.050781v4.097657zm0 0"/><path d="m62.605469 108.308594 3.546875-2.050782v4.097657zm0 0"/><path d="m59.054688 110.355469 3.550781-2.046875v4.097656zm0 0"/><path d="m59.054688 114.453125 3.550781-2.046875v4.09375zm0 0"/><path d="m59.054688 118.550781 3.550781-2.050781v4.097656zm0 0"/><path d="m59.054688 126.742188 3.550781-2.046876v4.097657zm0 0"/><path d="m59.054688 130.839844 3.550781-2.046875v4.09375zm0 0"/><path d="m59.054688 134.9375 3.550781-2.050781v4.097656zm0 0"/><path d="m59.054688 225.0625 3.550781-2.046875v4.097656zm0 0"/><path d="m59.054688 229.160156 3.550781-2.046875v4.09375zm0 0"/><path d="m59.054688 233.257812 3.550781-2.050781v4.097657zm0 0"/><path d="m59.054688 241.449219 3.550781-2.046875v4.097656zm0 0"/><path d="m59.054688 245.546875 3.550781-2.046875v4.09375zm0 0"/><path d="m59.054688 249.644531 3.550781-2.050781v4.097656zm0 0"/><path d="m62.605469 251.691406 3.546875-2.046875v4.097657zm0 0"/><path d="m73.246094 257.835938 3.550781-2.046876v4.097657zm0 0"/><path d="m76.796875 259.886719 3.546875-2.050781v4.097656zm0 0"/><path d="m80.34375 261.933594 3.546875-2.046875v4.097656zm0 0"/><path d="m154.847656 304.949219 3.546875-2.046875v4.09375zm0 0"/><path d="m158.394531 306.996094 3.550781-2.046875v4.097656zm0 0"/><path d="m161.945312 309.046875 3.546876-2.050781v4.097656zm0 0"/><path d="m172.585938 315.191406 3.550781-2.046875v4.09375zm0 0"/><path d="m176.136719 317.238281 3.546875-2.046875v4.097656zm0 0"/><path d="m186.777344 315.191406 3.550781-2.046875v4.09375zm0 0"/><path d="m190.328125 313.144531 3.546875-2.050781v4.097656zm0 0"/><path d="m197.421875 309.046875 3.546875-2.050781v4.097656zm0 0"/><path d="m279.023438 261.933594 3.546874-2.046875v4.097656zm0 0"/><path d="m286.117188 257.835938 3.550781-2.046876v4.097657zm0 0"/><path d="m289.667969 255.789062 3.546875-2.046874v4.09375zm0 0"/><path d="m303.859375 247.59375 3.546875-2.046875v4.097656zm0 0"/><path d="m303.859375 243.5 3.546875-2.050781v4.097656zm0 0"/><path d="m303.859375 231.207031 3.546875-2.046875v4.097656zm0 0"/><path d="m303.859375 128.792969 3.546875-2.050781v4.097656zm0 0"/><path d="m303.859375 116.5 3.546875-2.046875v4.097656zm0 0"/><path d="m303.859375 112.40625 3.546875-2.050781v4.097656zm0 0"/><path d="m300.308594 106.257812 3.550781-2.046874v4.097656zm0 0"/><path d="m293.214844 102.164062 3.546875-2.050781v4.097657zm0 0"/><path d="m286.117188 98.066406 3.550781-2.050781v4.097656zm0 0"/><path d="m282.570312 96.015625 3.546876-2.046875v4.097656zm0 0"/><path d="m197.421875 46.855469 3.546875-2.046875v4.097656zm0 0"/><path d="m193.875 44.808594 3.546875-2.046875v4.09375zm0 0"/><path d="m186.777344 40.710938 3.550781-2.046876v4.097657zm0 0"/><path d="m179.683594 36.617188 3.546875-2.050782v4.097656zm0 0"/><path d="m176.136719 38.664062 3.546875-2.046874v4.09375zm0 0"/><path d="m169.039062 42.761719 3.546876-2.050781v4.097656zm0 0"/><path d="m165.492188 44.808594 3.546874-2.046875v4.09375zm0 0"/><path d="m161.945312 46.855469 3.546876-2.046875v4.097656zm0 0"/><path d="m69.699219 100.113281 3.546875-2.046875v4.097656zm0 0"/><path d="m66.152344 102.164062 3.546875-2.050781v4.097657zm0 0"/><path d="m62.605469 104.210938 3.546875-2.046876v4.09375zm0 0"/><path d="m55.507812 108.308594 3.546876-2.050782v4.097657zm0 0"/><path d="m55.507812 120.597656 3.546876-2.046875v4.09375zm0 0"/><path d="m55.507812 124.695312 3.546876-2.050781v4.097657zm0 0"/><path d="m55.507812 132.886719 3.546876-2.046875v4.097656zm0 0"/><path d="m55.507812 227.113281 3.546876-2.050781v4.097656zm0 0"/><path d="m55.507812 235.304688 3.546876-2.046876v4.097657zm0 0"/><path d="m55.507812 239.402344 3.546876-2.046875v4.09375zm0 0"/><path d="m55.507812 251.691406 3.546876-2.046875v4.097657zm0 0"/><path d="m62.605469 255.789062 3.546875-2.046874v4.09375zm0 0"/><path d="m66.152344 257.835938 3.546875-2.046876v4.097657zm0 0"/><path d="m69.699219 259.886719 3.546875-2.050781v4.097656zm0 0"/><path d="m161.945312 313.144531 3.546876-2.050781v4.097656zm0 0"/><path d="m165.492188 315.191406 3.546874-2.046875v4.09375zm0 0"/><path d="m169.039062 317.238281 3.546876-2.046875v4.097656zm0 0"/><path d="m176.136719 321.335938 3.546875-2.046876v4.09375zm0 0"/><path d="m179.683594 323.382812 3.546875-2.046874v4.097656zm0 0"/><path d="m186.777344 319.289062 3.550781-2.050781v4.097657zm0 0"/><path d="m193.875 315.191406 3.546875-2.046875v4.09375zm0 0"/><path d="m197.421875 313.144531 3.546875-2.050781v4.097656zm0 0"/><path d="m282.570312 263.984375 3.546876-2.050781v4.097656zm0 0"/><path d="m286.117188 261.933594 3.550781-2.046875v4.097656zm0 0"/><path d="m293.214844 257.835938 3.546875-2.046876v4.097657zm0 0"/><path d="m300.308594 253.742188 3.550781-2.050782v4.097656zm0 0"/><path d="m307.40625 249.644531 3.546875-2.050781v4.097656zm0 0"/><path d="m307.40625 241.449219 3.546875-2.046875v4.097656zm0 0"/><path d="m307.40625 233.257812 3.546875-2.050781v4.097657zm0 0"/><path d="m307.40625 229.160156 3.546875-2.046875v4.09375zm0 0"/><path d="m307.40625 130.839844 3.546875-2.046875v4.09375zm0 0"/><path d="m307.40625 126.742188 3.546875-2.046876v4.097657zm0 0"/><path d="m307.40625 118.550781 3.546875-2.050781v4.097656zm0 0"/><path d="m307.40625 110.355469 3.546875-2.046875v4.097656zm0 0"/><path d="m300.308594 102.164062 3.550781-2.050781v4.097657zm0 0"/><path d="m296.761719 100.113281 3.546875-2.046875v4.097656zm0 0"/><path d="m286.117188 93.96875 3.550781-2.046875v4.09375zm0 0"/><path d="m197.421875 42.761719 3.546875-2.050781v4.097656zm0 0"/><path d="m186.777344 36.617188 3.550781-2.050782v4.097656zm0 0"/><path d="m183.230469 34.566406 3.546875-2.046875v4.097657zm0 0"/><path d="m172.585938 36.617188 3.550781-2.050782v4.097656zm0 0"/><path d="m169.039062 38.664062 3.546876-2.046874v4.09375zm0 0"/><path d="m158.394531 44.808594 3.550781-2.046875v4.09375zm0 0"/><path d="m69.699219 96.015625 3.546875-2.046875v4.097656zm0 0"/><path d="m59.054688 102.164062 3.550781-2.050781v4.097657zm0 0"/><path d="m55.507812 104.210938 3.546876-2.046876v4.09375zm0 0"/><path d="m51.960938 110.355469 3.546874-2.046875v4.097656zm0 0"/><path d="m51.960938 118.550781 3.546874-2.050781v4.097656zm0 0"/><path d="m51.960938 126.742188 3.546874-2.046876v4.097657zm0 0"/><path d="m51.960938 130.839844 3.546874-2.046875v4.09375zm0 0"/><path d="m51.960938 229.160156 3.546874-2.046875v4.09375zm0 0"/><path d="m51.960938 233.257812 3.546874-2.050781v4.097657zm0 0"/><path d="m51.960938 241.449219 3.546874-2.046875v4.097656zm0 0"/><path d="m51.960938 249.644531 3.546874-2.050781v4.097656zm0 0"/><path d="m55.507812 255.789062 3.546876-2.046874v4.09375zm0 0"/><path d="m59.054688 257.835938 3.550781-2.046876v4.097657zm0 0"/><path d="m69.699219 263.984375 3.546875-2.050781v4.097656zm0 0"/><path d="m158.394531 315.191406 3.550781-2.046875v4.09375zm0 0"/><path d="m169.039062 321.335938 3.546876-2.046876v4.09375zm0 0"/><path d="m172.585938 323.382812 3.550781-2.046874v4.097656zm0 0"/><path d="m183.230469 325.433594 3.546875-2.050782v4.097657zm0 0"/><path d="m186.777344 323.382812 3.550781-2.046874v4.097656zm0 0"/><path d="m197.421875 317.238281 3.546875-2.046875v4.097656zm0 0"/><path d="m286.117188 266.03125 3.550781-2.046875v4.09375zm0 0"/><path d="m296.761719 259.886719 3.546875-2.050781v4.097656zm0 0"/><path d="m300.308594 257.835938 3.550781-2.046876v4.097657zm0 0"/><path d="m310.953125 255.789062 3.546875-2.046874v4.09375zm0 0"/><path d="m310.953125 251.691406 3.546875-2.046875v4.097657zm0 0"/><path d="m310.953125 247.59375 3.546875-2.046875v4.097656zm0 0"/><path d="m310.953125 243.5 3.546875-2.050781v4.097656zm0 0"/><path d="m310.953125 239.402344 3.546875-2.046875v4.09375zm0 0"/><path d="m310.953125 235.304688 3.546875-2.046876v4.097657zm0 0"/><path d="m310.953125 231.207031 3.546875-2.046875v4.097656zm0 0"/><path d="m310.953125 128.792969 3.546875-2.050781v4.097656zm0 0"/><path d="m310.953125 124.695312 3.546875-2.050781v4.097657zm0 0"/><path d="m310.953125 120.597656 3.546875-2.046875v4.09375zm0 0"/><path d="m310.953125 116.5 3.546875-2.046875v4.097656zm0 0"/><path d="m310.953125 112.40625 3.546875-2.050781v4.097656zm0 0"/><path d="m310.953125 108.308594 3.546875-2.050782v4.097657zm0 0"/><path d="m310.953125 104.210938 3.546875-2.046876v4.09375zm0 0"/><path d="m307.40625 102.164062 3.546875-2.050781v4.097657zm0 0"/><path d="m303.859375 100.113281 3.546875-2.046875v4.097656zm0 0"/><path d="m296.761719 96.015625 3.546875-2.046875v4.097656zm0 0"/><path d="m293.214844 93.96875 3.546875-2.046875v4.09375zm0 0"/><path d="m289.667969 91.921875 3.546875-2.050781v4.097656zm0 0"/><path d="m197.421875 38.664062 3.546875-2.046874v4.09375zm0 0"/><path d="m193.875 36.617188 3.546875-2.050782v4.097656zm0 0"/><path d="m190.328125 34.566406 3.546875-2.046875v4.097657zm0 0"/><path d="m183.230469 30.46875 3.546875-2.046875v4.097656zm0 0"/><path d="m179.683594 28.421875 3.546875-2.046875v4.09375zm0 0"/><path d="m172.585938 32.519531 3.550781-2.050781v4.097656zm0 0"/><path d="m165.492188 36.617188 3.546874-2.050782v4.097656zm0 0"/><path d="m158.394531 40.710938 3.550781-2.046876v4.097657zm0 0"/><path d="m154.847656 42.761719 3.546875-2.050781v4.097656zm0 0"/><path d="m69.699219 91.921875 3.546875-2.050781v4.097656zm0 0"/><path d="m66.152344 93.96875 3.546875-2.046875v4.09375zm0 0"/><path d="m59.054688 98.066406 3.550781-2.050781v4.097656zm0 0"/><path d="m51.960938 102.164062 3.546874-2.050781v4.097657zm0 0"/><path d="m48.414062 112.40625 3.546876-2.050781v4.097656zm0 0"/><path d="m48.414062 116.5 3.546876-2.046875v4.097656zm0 0"/><path d="m48.414062 128.792969 3.546876-2.050781v4.097656zm0 0"/><path d="m48.414062 231.207031 3.546876-2.046875v4.097656zm0 0"/><path d="m48.414062 243.5 3.546876-2.050781v4.097656zm0 0"/><path d="m48.414062 247.59375 3.546876-2.046875v4.097656zm0 0"/><path d="m51.960938 257.835938 3.546874-2.046876v4.097657zm0 0"/><path d="m59.054688 261.933594 3.550781-2.046875v4.097656zm0 0"/><path d="m66.152344 266.03125 3.546875-2.046875v4.09375zm0 0"/><path d="m69.699219 268.078125 3.546875-2.046875v4.097656zm0 0"/><path d="m154.847656 317.238281 3.546875-2.046875v4.097656zm0 0"/><path d="m158.394531 319.289062 3.550781-2.050781v4.097657zm0 0"/><path d="m165.492188 323.382812 3.546874-2.046874v4.097656zm0 0"/><path d="m172.585938 327.480469 3.550781-2.046875v4.097656zm0 0"/><path d="m179.683594 331.578125 3.546875-2.046875v4.09375zm0 0"/><path d="m183.230469 329.53125 3.546875-2.050781v4.097656zm0 0"/><path d="m190.328125 325.433594 3.546875-2.050782v4.097657zm0 0"/><path d="m193.875 323.382812 3.546875-2.046874v4.097656zm0 0"/><path d="m197.421875 321.335938 3.546875-2.046876v4.09375zm0 0"/><path d="m289.667969 268.078125 3.546875-2.046875v4.097656zm0 0"/><path d="m293.214844 266.03125 3.546875-2.046875v4.09375zm0 0"/><path d="m296.761719 263.984375 3.546875-2.050781v4.097656zm0 0"/><path d="m303.859375 259.886719 3.546875-2.050781v4.097656zm0 0"/><path d="m307.40625 257.835938 3.546875-2.046876v4.097657zm0 0"/><path d="m310.953125 100.113281 3.546875-2.046875v4.097656zm0 0"/><path d="m307.40625 98.066406 3.546875-2.050781v4.097656zm0 0"/><path d="m296.761719 91.921875 3.546875-2.050781v4.097656zm0 0"/><path d="m293.214844 89.871094 3.546875-2.046875v4.097656zm0 0"/><path d="m197.421875 34.566406 3.546875-2.046875v4.097657zm0 0"/><path d="m193.875 32.519531 3.546875-2.050781v4.097656zm0 0"/><path d="m183.230469 26.375 3.546875-2.050781v4.097656zm0 0"/><path d="m179.683594 24.324219 3.546875-2.046875v4.097656zm0 0"/><path d="m176.136719 26.375 3.546875-2.050781v4.097656zm0 0"/><path d="m172.585938 28.421875 3.550781-2.046875v4.09375zm0 0"/><path d="m169.039062 30.46875 3.546876-2.046875v4.097656zm0 0"/><path d="m165.492188 32.519531 3.546874-2.050781v4.097656zm0 0"/><path d="m161.945312 34.566406 3.546876-2.046875v4.097657zm0 0"/><path d="m158.394531 36.617188 3.550781-2.050782v4.097656zm0 0"/><path d="m154.847656 38.664062 3.546875-2.046874v4.09375zm0 0"/><path d="m66.152344 89.871094 3.546875-2.046875v4.097656zm0 0"/><path d="m62.605469 91.921875 3.546875-2.050781v4.097656zm0 0"/><path d="m59.054688 93.96875 3.550781-2.046875v4.09375zm0 0"/><path d="m55.507812 96.015625 3.546876-2.046875v4.097656zm0 0"/><path d="m51.960938 98.066406 3.546874-2.050781v4.097656zm0 0"/><path d="m48.414062 100.113281 3.546876-2.046875v4.097656zm0 0"/><path d="m44.863281 102.164062 3.550781-2.050781v4.097657zm0 0"/><path d="m44.863281 106.257812 3.550781-2.046874v4.097656zm0 0"/><path d="m44.863281 110.355469 3.550781-2.046875v4.097656zm0 0"/><path d="m44.863281 118.550781 3.550781-2.050781v4.097656zm0 0"/><path d="m44.863281 122.644531 3.550781-2.046875v4.097656zm0 0"/><path d="m44.863281 126.742188 3.550781-2.046876v4.097657zm0 0"/><path d="m44.863281 233.257812 3.550781-2.050781v4.097657zm0 0"/><path d="m44.863281 237.355469 3.550781-2.050781v4.097656zm0 0"/><path d="m44.863281 241.449219 3.550781-2.046875v4.097656zm0 0"/><path d="m44.863281 249.644531 3.550781-2.050781v4.097656zm0 0"/><path d="m44.863281 253.742188 3.550781-2.050782v4.097656zm0 0"/><path d="m44.863281 257.835938 3.550781-2.046876v4.097657zm0 0"/><path d="m48.414062 259.886719 3.546876-2.050781v4.097656zm0 0"/><path d="m51.960938 261.933594 3.546874-2.046875v4.097656zm0 0"/><path d="m55.507812 263.984375 3.546876-2.050781v4.097656zm0 0"/><path d="m59.054688 266.03125 3.550781-2.046875v4.09375zm0 0"/><path d="m62.605469 268.078125 3.546875-2.046875v4.097656zm0 0"/><path d="m66.152344 270.128906 3.546875-2.050781v4.097656zm0 0"/><path d="m154.847656 321.335938 3.546875-2.046876v4.09375zm0 0"/><path d="m158.394531 323.382812 3.550781-2.046874v4.097656zm0 0"/><path d="m161.945312 325.433594 3.546876-2.050782v4.097657zm0 0"/><path d="m165.492188 327.480469 3.546874-2.046875v4.097656zm0 0"/><path d="m169.039062 329.53125 3.546876-2.050781v4.097656zm0 0"/><path d="m172.585938 331.578125 3.550781-2.046875v4.09375zm0 0"/><path d="m176.136719 333.625 3.546875-2.046875v4.097656zm0 0"/><path d="m179.683594 335.675781 3.546875-2.050781v4.097656zm0 0"/><path d="m183.230469 333.625 3.546875-2.046875v4.097656zm0 0"/><path d="m193.875 327.480469 3.546875-2.046875v4.097656zm0 0"/><path d="m197.421875 325.433594 3.546875-2.050782v4.097657zm0 0"/><path d="m293.214844 270.128906 3.546875-2.050781v4.097656zm0 0"/><path d="m296.761719 268.078125 3.546875-2.046875v4.097656zm0 0"/><path d="m307.40625 261.933594 3.546875-2.046875v4.097656zm0 0"/><path d="m310.953125 259.886719 3.546875-2.050781v4.097656zm0 0"/><path d="m41.316406 104.210938 3.546875-2.046876v4.09375zm0 0"/><path d="m41.316406 108.308594 3.546875-2.050782v4.097657zm0 0"/><path d="m41.316406 120.597656 3.546875-2.046875v4.09375zm0 0"/><path d="m41.316406 124.695312 3.546875-2.050781v4.097657zm0 0"/><path d="m41.316406 235.304688 3.546875-2.046876v4.097657zm0 0"/><path d="m41.316406 239.402344 3.546875-2.046875v4.09375zm0 0"/><path d="m41.316406 251.691406 3.546875-2.046875v4.097657zm0 0"/><path d="m41.316406 255.789062 3.546875-2.046874v4.09375zm0 0"/><path d="m186.777344 180-3.546875-2.046875v4.09375zm0 0"/><path d="m186.777344 175.902344-3.546875-2.046875v4.097656zm0 0"/><path d="m183.230469 173.855469-3.546875-2.050781v4.097656zm0 0"/><path d="m179.683594 175.902344-3.546875-2.046875v4.097656zm0 0"/><path d="m179.683594 184.097656-3.546875-2.050781v4.097656zm0 0"/><path d="m183.230469 186.144531-3.546875-2.046875v4.097656zm0 0"/><path d="m186.777344 184.097656-3.546875-2.050781v4.097656zm0 0"/><path d="m193.875 184.097656-3.546875-2.050781v4.097656zm0 0"/><path d="m193.875 175.902344-3.546875-2.046875v4.097656zm0 0"/><path d="m190.328125 173.855469-3.550781-2.050781v4.097656zm0 0"/><path d="m183.230469 169.757812-3.546875-2.046874v4.09375zm0 0"/><path d="m176.136719 177.953125-3.550781-2.050781v4.097656zm0 0"/><path d="m176.136719 182.046875-3.550781-2.046875v4.097656zm0 0"/><path d="m183.230469 190.242188-3.546875-2.046876v4.09375zm0 0"/><path d="m190.328125 186.144531-3.550781-2.046875v4.097656zm0 0"/><path d="m197.421875 182.046875-3.546875-2.046875v4.097656zm0 0"/><path d="m197.421875 177.953125-3.546875-2.050781v4.097656zm0 0"/><path d="m190.328125 169.757812-3.550781-2.046874v4.09375zm0 0"/><path d="m186.777344 167.710938-3.546875-2.050782v4.097656zm0 0"/><path d="m179.683594 167.710938-3.546875-2.050782v4.097656zm0 0"/><path d="m172.585938 171.804688-3.546876-2.046876v4.097657zm0 0"/><path d="m172.585938 175.902344-3.546876-2.046875v4.097656zm0 0"/><path d="m172.585938 184.097656-3.546876-2.050781v4.097656zm0 0"/><path d="m172.585938 188.195312-3.546876-2.050781v4.097657zm0 0"/><path d="m179.683594 192.289062-3.546875-2.046874v4.097656zm0 0"/><path d="m186.777344 192.289062-3.546875-2.046874v4.097656zm0 0"/><path d="m190.328125 190.242188-3.550781-2.046876v4.09375zm0 0"/><path d="m200.96875 188.195312-3.546875-2.050781v4.097657zm0 0"/><path d="m200.96875 184.097656-3.546875-2.050781v4.097656zm0 0"/><path d="m200.96875 175.902344-3.546875-2.046875v4.097656zm0 0"/><path d="m200.96875 171.804688-3.546875-2.046876v4.097657zm0 0"/><path d="m193.875 167.710938-3.546875-2.050782v4.097656zm0 0"/><path d="m186.777344 163.613281-3.546875-2.046875v4.09375zm0 0"/><path d="m176.136719 165.660156-3.550781-2.046875v4.097657zm0 0"/><path d="m172.585938 167.710938-3.546876-2.050782v4.097656zm0 0"/><path d="m169.039062 177.953125-3.546874-2.050781v4.097656zm0 0"/><path d="m169.039062 182.046875-3.546874-2.046875v4.097656zm0 0"/><path d="m172.585938 192.289062-3.546876-2.046874v4.097656zm0 0"/><path d="m176.136719 194.339844-3.550781-2.050782v4.097657zm0 0"/><path d="m186.777344 196.386719-3.546875-2.046875v4.09375zm0 0"/><path d="m193.875 192.289062-3.546875-2.046874v4.097656zm0 0"/><path d="m204.519531 190.242188-3.550781-2.046876v4.09375zm0 0"/><path d="m204.519531 186.144531-3.550781-2.046875v4.097656zm0 0"/><path d="m204.519531 173.855469-3.550781-2.050781v4.097656zm0 0"/><path d="m204.519531 169.757812-3.550781-2.046874v4.09375zm0 0"/><path d="m200.96875 167.710938-3.546875-2.050782v4.097656zm0 0"/><path d="m197.421875 165.660156-3.546875-2.046875v4.097657zm0 0"/><path d="m193.875 163.613281-3.546875-2.046875v4.09375zm0 0"/><path d="m190.328125 161.566406-3.550781-2.050781v4.097656zm0 0"/><path d="m186.777344 159.515625-3.546875-2.046875v4.097656zm0 0"/><path d="m183.230469 157.46875-3.546875-2.050781v4.097656zm0 0"/><path d="m179.683594 159.515625-3.546875-2.046875v4.097656zm0 0"/><path d="m176.136719 161.566406-3.550781-2.050781v4.097656zm0 0"/><path d="m169.039062 165.660156-3.546874-2.046875v4.097657zm0 0"/><path d="m165.492188 167.710938-3.546876-2.050782v4.097656zm0 0"/><path d="m165.492188 175.902344-3.546876-2.046875v4.097656zm0 0"/><path d="m165.492188 184.097656-3.546876-2.050781v4.097656zm0 0"/><path d="m165.492188 192.289062-3.546876-2.046874v4.097656zm0 0"/><path d="m169.039062 194.339844-3.546874-2.050782v4.097657zm0 0"/><path d="m176.136719 198.433594-3.550781-2.046875v4.097656zm0 0"/><path d="m179.683594 200.484375-3.546875-2.050781v4.097656zm0 0"/><path d="m183.230469 202.53125-3.546875-2.046875v4.097656zm0 0"/><path d="m186.777344 200.484375-3.546875-2.050781v4.097656zm0 0"/><path d="m190.328125 198.433594-3.550781-2.046875v4.097656zm0 0"/><path d="m193.875 196.386719-3.546875-2.046875v4.09375zm0 0"/><path d="m197.421875 194.339844-3.546875-2.050782v4.097657zm0 0"/><path d="m200.96875 192.289062-3.546875-2.046874v4.097656zm0 0"/><path d="m179.683594 155.417969-3.546875-2.046875v4.097656zm0 0"/><path d="m176.136719 157.46875-3.550781-2.050781v4.097656zm0 0"/><path d="m165.492188 163.613281-3.546876-2.046875v4.09375zm0 0"/><path d="m161.945312 165.660156-3.550781-2.046875v4.097657zm0 0"/><path d="m161.945312 169.757812-3.550781-2.046874v4.09375zm0 0"/><path d="m161.945312 173.855469-3.550781-2.050781v4.097656zm0 0"/><path d="m161.945312 177.953125-3.550781-2.050781v4.097656zm0 0"/><path d="m161.945312 182.046875-3.550781-2.046875v4.097656zm0 0"/><path d="m161.945312 186.144531-3.550781-2.046875v4.097656zm0 0"/><path d="m161.945312 190.242188-3.550781-2.046876v4.09375zm0 0"/><path d="m161.945312 194.339844-3.550781-2.050782v4.097657zm0 0"/><path d="m165.492188 196.386719-3.546876-2.046875v4.09375zm0 0"/><path d="m176.136719 202.53125-3.550781-2.046875v4.097656zm0 0"/><path d="m179.683594 204.582031-3.546875-2.050781v4.097656zm0 0"/><path d="m275.476562 231.207031-3.550781-2.046875v4.097656zm0 0"/><path d="m275.476562 128.792969-3.550781-2.050781v4.097656zm0 0"/><path d="m279.023438 233.257812-3.546876-2.050781v4.097657zm0 0"/><path d="m279.023438 229.160156-3.546876-2.046875v4.09375zm0 0"/><path d="m279.023438 130.839844-3.546876-2.046875v4.09375zm0 0"/><path d="m279.023438 126.742188-3.546876-2.046876v4.097657zm0 0"/><path d="m275.476562 124.695312-3.550781-2.050781v4.097657zm0 0"/><path d="m183.230469 71.4375-3.546875-2.046875v4.09375zm0 0"/><path d="m179.683594 73.484375-3.546875-2.046875v4.097656zm0 0"/><path d="m90.988281 124.695312-3.550781-2.050781v4.097657zm0 0"/><path d="m90.988281 235.304688-3.550781-2.046876v4.097657zm0 0"/><path d="m179.683594 286.515625-3.546875-2.050781v4.097656zm0 0"/><path d="m183.230469 288.5625-3.546875-2.046875v4.09375zm0 0"/><path d="m275.476562 235.304688-3.550781-2.046876v4.097657zm0 0"/><path d="m282.570312 231.207031-3.546874-2.046875v4.097656zm0 0"/><path d="m282.570312 128.792969-3.546874-2.050781v4.097656zm0 0"/><path d="m275.476562 120.597656-3.550781-2.046875v4.09375zm0 0"/><path d="m186.777344 69.390625-3.546875-2.050781v4.097656zm0 0"/><path d="m179.683594 69.390625-3.546875-2.050781v4.097656zm0 0"/><path d="m176.136719 71.4375-3.550781-2.046875v4.09375zm0 0"/><path d="m90.988281 120.597656-3.550781-2.046875v4.09375zm0 0"/><path d="m87.4375 122.644531-3.546875-2.046875v4.097656zm0 0"/><path d="m87.4375 126.742188-3.546875-2.046876v4.097657zm0 0"/><path d="m87.4375 233.257812-3.546875-2.050781v4.097657zm0 0"/><path d="m87.4375 237.355469-3.546875-2.050781v4.097656zm0 0"/><path d="m90.988281 239.402344-3.550781-2.046875v4.09375zm0 0"/><path d="m176.136719 288.5625-3.550781-2.046875v4.09375zm0 0"/><path d="m179.683594 290.609375-3.546875-2.046875v4.097656zm0 0"/><path d="m186.777344 290.609375-3.546875-2.046875v4.097656zm0 0"/><path d="m275.476562 239.402344-3.550781-2.046875v4.09375zm0 0"/><path d="m286.117188 237.355469-3.546876-2.050781v4.097656zm0 0"/><path d="m286.117188 233.257812-3.546876-2.050781v4.097657zm0 0"/><path d="m286.117188 126.742188-3.546876-2.046876v4.097657zm0 0"/><path d="m286.117188 122.644531-3.546876-2.046875v4.097656zm0 0"/><path d="m279.023438 118.550781-3.546876-2.050781v4.097656zm0 0"/><path d="m275.476562 116.5-3.550781-2.046875v4.097656zm0 0"/><path d="m190.328125 67.339844-3.550781-2.046875v4.097656zm0 0"/><path d="m186.777344 65.292969-3.546875-2.050781v4.097656zm0 0"/><path d="m176.136719 67.339844-3.550781-2.046875v4.097656zm0 0"/><path d="m87.4375 118.550781-3.546875-2.050781v4.097656zm0 0"/><path d="m83.890625 128.792969-3.546875-2.050781v4.097656zm0 0"/><path d="m83.890625 231.207031-3.546875-2.046875v4.097656zm0 0"/><path d="m87.4375 241.449219-3.546875-2.046875v4.097656zm0 0"/><path d="m176.136719 292.660156-3.550781-2.050781v4.097656zm0 0"/><path d="m186.777344 294.707031-3.546875-2.046875v4.097656zm0 0"/><path d="m190.328125 292.660156-3.550781-2.050781v4.097656zm0 0"/><path d="m275.476562 243.5-3.550781-2.050781v4.097656zm0 0"/><path d="m279.023438 241.449219-3.546876-2.046875v4.097656zm0 0"/><path d="m289.667969 231.207031-3.550781-2.046875v4.097656zm0 0"/><path d="m289.667969 227.113281-3.550781-2.050781v4.097656zm0 0"/><path d="m289.667969 223.015625-3.550781-2.046875v4.09375zm0 0"/><path d="m289.667969 136.984375-3.550781-2.046875v4.09375zm0 0"/><path d="m289.667969 132.886719-3.550781-2.046875v4.097656zm0 0"/><path d="m289.667969 128.792969-3.550781-2.050781v4.097656zm0 0"/><path d="m286.117188 118.550781-3.546876-2.050781v4.097656zm0 0"/><path d="m282.570312 116.5-3.546874-2.046875v4.097656zm0 0"/><path d="m275.476562 112.40625-3.550781-2.050781v4.097656zm0 0"/><path d="m193.875 65.292969-3.546875-2.050781v4.097656zm0 0"/><path d="m186.777344 61.195312-3.546875-2.046874v4.09375zm0 0"/><path d="m183.230469 59.148438-3.546875-2.050782v4.097656zm0 0"/><path d="m179.683594 61.195312-3.546875-2.046874v4.09375zm0 0"/><path d="m176.136719 63.242188-3.550781-2.046876v4.097657zm0 0"/><path d="m83.890625 116.5-3.546875-2.046875v4.097656zm0 0"/><path d="m80.34375 118.550781-3.546875-2.050781v4.097656zm0 0"/><path d="m80.34375 126.742188-3.546875-2.046876v4.097657zm0 0"/><path d="m80.34375 130.839844-3.546875-2.046875v4.09375zm0 0"/><path d="m80.34375 229.160156-3.546875-2.046875v4.09375zm0 0"/><path d="m80.34375 233.257812-3.546875-2.050781v4.097657zm0 0"/><path d="m80.34375 241.449219-3.546875-2.046875v4.097656zm0 0"/><path d="m83.890625 243.5-3.546875-2.050781v4.097656zm0 0"/><path d="m176.136719 296.757812-3.550781-2.050781v4.097657zm0 0"/><path d="m179.683594 298.804688-3.546875-2.046876v4.09375zm0 0"/><path d="m183.230469 300.851562-3.546875-2.046874v4.097656zm0 0"/><path d="m186.777344 298.804688-3.546875-2.046876v4.09375zm0 0"/><path d="m193.875 294.707031-3.546875-2.046875v4.097656zm0 0"/><path d="m275.476562 247.59375-3.550781-2.046875v4.097656zm0 0"/><path d="m282.570312 243.5-3.546874-2.050781v4.097656zm0 0"/><path d="m286.117188 241.449219-3.546876-2.046875v4.097656zm0 0"/><path d="m293.214844 241.449219-3.546875-2.046875v4.097656zm0 0"/><path d="m293.214844 233.257812-3.546875-2.050781v4.097657zm0 0"/><path d="m293.214844 225.0625-3.546875-2.046875v4.097656zm0 0"/><path d="m293.214844 220.96875-3.546875-2.050781v4.097656zm0 0"/><path d="m293.214844 139.03125-3.546875-2.046875v4.097656zm0 0"/><path d="m293.214844 134.9375-3.546875-2.050781v4.097656zm0 0"/><path d="m293.214844 126.742188-3.546875-2.046876v4.097657zm0 0"/><path d="m293.214844 118.550781-3.546875-2.050781v4.097656zm0 0"/><path d="m289.667969 116.5-3.550781-2.046875v4.097656zm0 0"/><path d="m282.570312 112.40625-3.546874-2.050781v4.097656zm0 0"/><path d="m279.023438 110.355469-3.546876-2.046875v4.097656zm0 0"/><path d="m275.476562 108.308594-3.550781-2.050782v4.097657zm0 0"/><path d="m197.421875 63.242188-3.546875-2.046876v4.097657zm0 0"/><path d="m193.875 61.195312-3.546875-2.046874v4.09375zm0 0"/><path d="m190.328125 59.148438-3.550781-2.050782v4.097656zm0 0"/><path d="m183.230469 55.050781-3.546875-2.046875v4.09375zm0 0"/><path d="m172.585938 61.195312-3.546876-2.046874v4.09375zm0 0"/><path d="m169.039062 63.242188-3.546874-2.046876v4.097657zm0 0"/><path d="m165.492188 65.292969-3.546876-2.050781v4.097656zm0 0"/><path d="m90.988281 108.308594-3.550781-2.050782v4.097657zm0 0"/><path d="m87.4375 110.355469-3.546875-2.046875v4.097656zm0 0"/><path d="m83.890625 112.40625-3.546875-2.050781v4.097656zm0 0"/><path d="m76.796875 120.597656-3.550781-2.046875v4.09375zm0 0"/><path d="m76.796875 124.695312-3.550781-2.050781v4.097657zm0 0"/><path d="m76.796875 132.886719-3.550781-2.046875v4.097656zm0 0"/><path d="m76.796875 227.113281-3.550781-2.050781v4.097656zm0 0"/><path d="m76.796875 235.304688-3.550781-2.046876v4.097657zm0 0"/><path d="m76.796875 239.402344-3.550781-2.046875v4.09375zm0 0"/><path d="m83.890625 247.59375-3.546875-2.046875v4.097656zm0 0"/><path d="m87.4375 249.644531-3.546875-2.050781v4.097656zm0 0"/><path d="m90.988281 251.691406-3.550781-2.046875v4.097657zm0 0"/><path d="m165.492188 294.707031-3.546876-2.046875v4.097656zm0 0"/><path d="m169.039062 296.757812-3.546874-2.050781v4.097657zm0 0"/><path d="m172.585938 298.804688-3.546876-2.046876v4.09375zm0 0"/><path d="m183.230469 304.949219-3.546875-2.046875v4.09375zm0 0"/><path d="m190.328125 300.851562-3.550781-2.046874v4.097656zm0 0"/><path d="m193.875 298.804688-3.546875-2.046876v4.09375zm0 0"/><path d="m197.421875 296.757812-3.546875-2.050781v4.097657zm0 0"/><path d="m275.476562 251.691406-3.550781-2.046875v4.097657zm0 0"/><path d="m279.023438 249.644531-3.546876-2.050781v4.097656zm0 0"/><path d="m282.570312 247.59375-3.546874-2.046875v4.097656zm0 0"/><path d="m289.667969 243.5-3.550781-2.050781v4.097656zm0 0"/><path d="m296.761719 239.402344-3.546875-2.046875v4.09375zm0 0"/><path d="m296.761719 235.304688-3.546875-2.046876v4.097657zm0 0"/><path d="m296.761719 223.015625-3.546875-2.046875v4.09375zm0 0"/><path d="m296.761719 136.984375-3.546875-2.046875v4.09375zm0 0"/><path d="m296.761719 124.695312-3.546875-2.050781v4.097657zm0 0"/><path d="m296.761719 120.597656-3.546875-2.046875v4.09375zm0 0"/><path d="m289.667969 112.40625-3.550781-2.050781v4.097656zm0 0"/><path d="m286.117188 110.355469-3.546876-2.046875v4.097656zm0 0"/><path d="m275.476562 104.210938-3.550781-2.046876v4.09375zm0 0"/><path d="m200.96875 61.195312-3.546875-2.046874v4.09375zm0 0"/><path d="m190.328125 55.050781-3.550781-2.046875v4.09375zm0 0"/><path d="m186.777344 53.003906-3.546875-2.050781v4.097656zm0 0"/><path d="m179.683594 53.003906-3.546875-2.050781v4.097656zm0 0"/><path d="m172.585938 57.097656-3.546876-2.046875v4.097657zm0 0"/><path d="m165.492188 61.195312-3.546876-2.046874v4.09375zm0 0"/><path d="m161.945312 63.242188-3.550781-2.046876v4.097657zm0 0"/><path d="m90.988281 104.210938-3.550781-2.046876v4.09375zm0 0"/><path d="m87.4375 106.257812-3.546875-2.046874v4.097656zm0 0"/><path d="m80.34375 110.355469-3.546875-2.046875v4.097656zm0 0"/><path d="m73.246094 114.453125-3.546875-2.046875v4.09375zm0 0"/><path d="m73.246094 118.550781-3.546875-2.050781v4.097656zm0 0"/><path d="m73.246094 126.742188-3.546875-2.046876v4.097657zm0 0"/><path d="m73.246094 130.839844-3.546875-2.046875v4.09375zm0 0"/><path d="m73.246094 134.9375-3.546875-2.050781v4.097656zm0 0"/><path d="m73.246094 225.0625-3.546875-2.046875v4.097656zm0 0"/><path d="m73.246094 229.160156-3.546875-2.046875v4.09375zm0 0"/><path d="m73.246094 233.257812-3.546875-2.050781v4.097657zm0 0"/><path d="m73.246094 241.449219-3.546875-2.046875v4.097656zm0 0"/><path d="m73.246094 245.546875-3.546875-2.046875v4.09375zm0 0"/><path d="m80.34375 249.644531-3.546875-2.050781v4.097656zm0 0"/><path d="m87.4375 253.742188-3.546875-2.050782v4.097656zm0 0"/><path d="m90.988281 255.789062-3.550781-2.046874v4.09375zm0 0"/><path d="m161.945312 296.757812-3.550781-2.050781v4.097657zm0 0"/><path d="m165.492188 298.804688-3.546876-2.046876v4.09375zm0 0"/><path d="m172.585938 302.902344-3.546876-2.050782v4.097657zm0 0"/><path d="m179.683594 306.996094-3.546875-2.046875v4.097656zm0 0"/><path d="m186.777344 306.996094-3.546875-2.046875v4.097656zm0 0"/><path d="m190.328125 304.949219-3.550781-2.046875v4.09375zm0 0"/><path d="m200.96875 298.804688-3.546875-2.046876v4.09375zm0 0"/><path d="m275.476562 255.789062-3.550781-2.046874v4.09375zm0 0"/><path d="m286.117188 249.644531-3.546876-2.050781v4.097656zm0 0"/><path d="m289.667969 247.59375-3.550781-2.046875v4.097656zm0 0"/><path d="m300.308594 245.546875-3.546875-2.046875v4.09375zm0 0"/><path d="m300.308594 241.449219-3.546875-2.046875v4.097656zm0 0"/><path d="m300.308594 233.257812-3.546875-2.050781v4.097657zm0 0"/><path d="m300.308594 229.160156-3.546875-2.046875v4.09375zm0 0"/><path d="m300.308594 225.0625-3.546875-2.046875v4.097656zm0 0"/><path d="m300.308594 134.9375-3.546875-2.050781v4.097656zm0 0"/><path d="m300.308594 130.839844-3.546875-2.046875v4.09375zm0 0"/><path d="m300.308594 126.742188-3.546875-2.046876v4.097657zm0 0"/><path d="m300.308594 118.550781-3.546875-2.050781v4.097656zm0 0"/><path d="m300.308594 114.453125-3.546875-2.046875v4.09375zm0 0"/><path d="m293.214844 110.355469-3.546875-2.046875v4.097656zm0 0"/><path d="m286.117188 106.257812-3.546876-2.046874v4.097656zm0 0"/><path d="m279.023438 102.164062-3.546876-2.050781v4.097657zm0 0"/><path d="m275.476562 100.113281-3.550781-2.046875v4.097656zm0 0"/><path d="m204.519531 59.148438-3.550781-2.050782v4.097656zm0 0"/><path d="m200.96875 57.097656-3.546875-2.046875v4.097657zm0 0"/><path d="m193.875 53.003906-3.546875-2.050781v4.097656zm0 0"/><path d="m186.777344 48.90625-3.546875-2.050781v4.097656zm0 0"/><path d="m176.136719 50.953125-3.550781-2.046875v4.097656zm0 0"/><path d="m172.585938 53.003906-3.546876-2.050781v4.097656zm0 0"/><path d="m161.945312 59.148438-3.550781-2.050782v4.097656zm0 0"/><path d="m87.4375 102.164062-3.546875-2.050781v4.097657zm0 0"/><path d="m76.796875 108.308594-3.550781-2.050782v4.097657zm0 0"/><path d="m73.246094 110.355469-3.546875-2.046875v4.097656zm0 0"/><path d="m69.699219 120.597656-3.546875-2.046875v4.09375zm0 0"/><path d="m69.699219 124.695312-3.546875-2.050781v4.097657zm0 0"/><path d="m69.699219 136.984375-3.546875-2.046875v4.09375zm0 0"/><path d="m69.699219 223.015625-3.546875-2.046875v4.09375zm0 0"/><path d="m69.699219 235.304688-3.546875-2.046876v4.097657zm0 0"/><path d="m69.699219 239.402344-3.546875-2.046875v4.09375zm0 0"/><path d="m73.246094 249.644531-3.546875-2.050781v4.097656zm0 0"/><path d="m76.796875 251.691406-3.550781-2.046875v4.097657zm0 0"/><path d="m87.4375 257.835938-3.546875-2.046876v4.097657zm0 0"/><path d="m161.945312 300.851562-3.550781-2.046874v4.097656zm0 0"/><path d="m172.585938 306.996094-3.546876-2.046875v4.097656zm0 0"/><path d="m176.136719 309.046875-3.550781-2.050781v4.097656zm0 0"/><path d="m186.777344 311.09375-3.546875-2.046875v4.097656zm0 0"/><path d="m193.875 306.996094-3.546875-2.046875v4.097656zm0 0"/><path d="m200.96875 302.902344-3.546875-2.050782v4.097657zm0 0"/><path d="m204.519531 300.851562-3.550781-2.046874v4.097656zm0 0"/><path d="m275.476562 259.886719-3.550781-2.050781v4.097656zm0 0"/><path d="m279.023438 257.835938-3.546876-2.046876v4.097657zm0 0"/><path d="m286.117188 253.742188-3.546876-2.050782v4.097656zm0 0"/><path d="m293.214844 249.644531-3.546875-2.050781v4.097656zm0 0"/><path d="m303.859375 239.402344-3.550781-2.046875v4.09375zm0 0"/><path d="m303.859375 235.304688-3.550781-2.046876v4.097657zm0 0"/><path d="m303.859375 227.113281-3.550781-2.050781v4.097656zm0 0"/><path d="m303.859375 132.886719-3.550781-2.046875v4.097656zm0 0"/><path d="m303.859375 124.695312-3.550781-2.050781v4.097657zm0 0"/><path d="m303.859375 120.597656-3.550781-2.046875v4.09375zm0 0"/><path d="m300.308594 110.355469-3.546875-2.046875v4.097656zm0 0"/><path d="m296.761719 108.308594-3.546875-2.050782v4.097657zm0 0"/><path d="m286.117188 102.164062-3.546876-2.050781v4.097657zm0 0"/><path d="m282.570312 100.113281-3.546874-2.046875v4.097656zm0 0"/><path d="m279.023438 98.066406-3.546876-2.050781v4.097656zm0 0"/><path d="m204.519531 55.050781-3.550781-2.046875v4.09375zm0 0"/><path d="m200.96875 53.003906-3.546875-2.050781v4.097656zm0 0"/><path d="m197.421875 50.953125-3.546875-2.046875v4.097656zm0 0"/><path d="m186.777344 44.808594-3.546875-2.046875v4.09375zm0 0"/><path d="m183.230469 42.761719-3.546875-2.050781v4.097656zm0 0"/><path d="m179.683594 44.808594-3.546875-2.046875v4.09375zm0 0"/><path d="m176.136719 46.855469-3.550781-2.046875v4.097656zm0 0"/><path d="m169.039062 50.953125-3.546874-2.046875v4.097656zm0 0"/><path d="m165.492188 53.003906-3.546876-2.050781v4.097656zm0 0"/><path d="m161.945312 55.050781-3.550781-2.046875v4.09375zm0 0"/><path d="m83.890625 100.113281-3.546875-2.046875v4.097656zm0 0"/><path d="m80.34375 102.164062-3.546875-2.050781v4.097657zm0 0"/><path d="m76.796875 104.210938-3.550781-2.046876v4.09375zm0 0"/><path d="m69.699219 108.308594-3.546875-2.050782v4.097657zm0 0"/><path d="m66.152344 110.355469-3.546875-2.046875v4.097656zm0 0"/><path d="m66.152344 118.550781-3.546875-2.050781v4.097656zm0 0"/><path d="m66.152344 126.742188-3.546875-2.046876v4.097657zm0 0"/><path d="m66.152344 134.9375-3.546875-2.050781v4.097656zm0 0"/><path d="m66.152344 139.03125-3.546875-2.046875v4.097656zm0 0"/><path d="m66.152344 220.96875-3.546875-2.050781v4.097656zm0 0"/><path d="m66.152344 225.0625-3.546875-2.046875v4.097656zm0 0"/><path d="m66.152344 233.257812-3.546875-2.050781v4.097657zm0 0"/><path d="m66.152344 241.449219-3.546875-2.046875v4.097656zm0 0"/><path d="m66.152344 249.644531-3.546875-2.050781v4.097656zm0 0"/><path d="m69.699219 251.691406-3.546875-2.046875v4.097657zm0 0"/><path d="m76.796875 255.789062-3.550781-2.046874v4.09375zm0 0"/><path d="m80.34375 257.835938-3.546875-2.046876v4.097657zm0 0"/><path d="m83.890625 259.886719-3.546875-2.050781v4.097656zm0 0"/><path d="m161.945312 304.949219-3.550781-2.046875v4.09375zm0 0"/><path d="m165.492188 306.996094-3.546876-2.046875v4.097656zm0 0"/><path d="m169.039062 309.046875-3.546874-2.050781v4.097656zm0 0"/><path d="m176.136719 313.144531-3.550781-2.050781v4.097656zm0 0"/><path d="m179.683594 315.191406-3.546875-2.046875v4.09375zm0 0"/><path d="m183.230469 317.238281-3.546875-2.046875v4.097656zm0 0"/><path d="m186.777344 315.191406-3.546875-2.046875v4.09375zm0 0"/><path d="m197.421875 309.046875-3.546875-2.050781v4.097656zm0 0"/><path d="m200.96875 306.996094-3.546875-2.046875v4.097656zm0 0"/><path d="m204.519531 304.949219-3.550781-2.046875v4.09375zm0 0"/><path d="m279.023438 261.933594-3.546876-2.046875v4.097656zm0 0"/><path d="m282.570312 259.886719-3.546874-2.050781v4.097656zm0 0"/><path d="m286.117188 257.835938-3.546876-2.046876v4.097657zm0 0"/><path d="m296.761719 251.691406-3.546875-2.046875v4.097657zm0 0"/><path d="m300.308594 249.644531-3.546875-2.050781v4.097656zm0 0"/><path d="m307.40625 249.644531-3.546875-2.050781v4.097656zm0 0"/><path d="m307.40625 241.449219-3.546875-2.046875v4.097656zm0 0"/><path d="m307.40625 233.257812-3.546875-2.050781v4.097657zm0 0"/><path d="m307.40625 229.160156-3.546875-2.046875v4.09375zm0 0"/><path d="m307.40625 130.839844-3.546875-2.046875v4.09375zm0 0"/><path d="m307.40625 126.742188-3.546875-2.046876v4.097657zm0 0"/><path d="m307.40625 118.550781-3.546875-2.050781v4.097656zm0 0"/><path d="m307.40625 110.355469-3.546875-2.046875v4.097656zm0 0"/><path d="m303.859375 108.308594-3.550781-2.050782v4.097657zm0 0"/><path d="m296.761719 104.210938-3.546875-2.046876v4.09375zm0 0"/><path d="m293.214844 102.164062-3.546875-2.050781v4.097657zm0 0"/><path d="m289.667969 100.113281-3.550781-2.046875v4.097656zm0 0"/><path d="m197.421875 46.855469-3.546875-2.046875v4.097656zm0 0"/><path d="m193.875 44.808594-3.546875-2.046875v4.09375zm0 0"/><path d="m190.328125 42.761719-3.550781-2.050781v4.097656zm0 0"/><path d="m183.230469 38.664062-3.546875-2.046874v4.09375zm0 0"/><path d="m172.585938 44.808594-3.546876-2.046875v4.09375zm0 0"/><path d="m169.039062 46.855469-3.546874-2.046875v4.097656zm0 0"/><path d="m161.945312 50.953125-3.550781-2.046875v4.097656zm0 0"/><path d="m80.34375 98.066406-3.546875-2.050781v4.097656zm0 0"/><path d="m73.246094 102.164062-3.546875-2.050781v4.097657zm0 0"/><path d="m69.699219 104.210938-3.546875-2.046876v4.09375zm0 0"/><path d="m62.605469 112.40625-3.550781-2.050781v4.097656zm0 0"/><path d="m62.605469 116.5-3.550781-2.046875v4.097656zm0 0"/><path d="m62.605469 128.792969-3.550781-2.050781v4.097656zm0 0"/><path d="m62.605469 132.886719-3.550781-2.046875v4.097656zm0 0"/><path d="m62.605469 136.984375-3.550781-2.046875v4.09375zm0 0"/><path d="m62.605469 223.015625-3.550781-2.046875v4.09375zm0 0"/><path d="m62.605469 227.113281-3.550781-2.050781v4.097656zm0 0"/><path d="m62.605469 231.207031-3.550781-2.046875v4.097656zm0 0"/><path d="m62.605469 243.5-3.550781-2.050781v4.097656zm0 0"/><path d="m62.605469 247.59375-3.550781-2.046875v4.097656zm0 0"/><path d="m69.699219 255.789062-3.546875-2.046874v4.09375zm0 0"/><path d="m73.246094 257.835938-3.546875-2.046876v4.097657zm0 0"/><path d="m80.34375 261.933594-3.546875-2.046875v4.097656zm0 0"/><path d="m161.945312 309.046875-3.550781-2.050781v4.097656zm0 0"/><path d="m169.039062 313.144531-3.546874-2.050781v4.097656zm0 0"/><path d="m172.585938 315.191406-3.546876-2.046875v4.09375zm0 0"/><path d="m183.230469 321.335938-3.546875-2.046876v4.09375zm0 0"/><path d="m190.328125 317.238281-3.550781-2.046875v4.097656zm0 0"/><path d="m193.875 315.191406-3.546875-2.046875v4.09375zm0 0"/><path d="m197.421875 313.144531-3.546875-2.050781v4.097656zm0 0"/><path d="m289.667969 259.886719-3.550781-2.050781v4.097656zm0 0"/><path d="m293.214844 257.835938-3.546875-2.046876v4.097657zm0 0"/><path d="m296.761719 255.789062-3.546875-2.046874v4.09375zm0 0"/><path d="m303.859375 251.691406-3.550781-2.046875v4.097657zm0 0"/><path d="m310.953125 247.59375-3.546875-2.046875v4.097656zm0 0"/><path d="m310.953125 243.5-3.546875-2.050781v4.097656zm0 0"/><path d="m310.953125 231.207031-3.546875-2.046875v4.097656zm0 0"/><path d="m310.953125 128.792969-3.546875-2.050781v4.097656zm0 0"/><path d="m310.953125 116.5-3.546875-2.046875v4.097656zm0 0"/><path d="m310.953125 112.40625-3.546875-2.050781v4.097656zm0 0"/><path d="m303.859375 104.210938-3.550781-2.046876v4.09375zm0 0"/><path d="m300.308594 102.164062-3.546875-2.050781v4.097657zm0 0"/><path d="m289.667969 96.015625-3.550781-2.046875v4.097656zm0 0"/><path d="m200.96875 44.808594-3.546875-2.046875v4.09375zm0 0"/><path d="m190.328125 38.664062-3.550781-2.046874v4.09375zm0 0"/><path d="m186.777344 36.617188-3.546875-2.050782v4.097656zm0 0"/><path d="m179.683594 36.617188-3.546875-2.050782v4.097656zm0 0"/><path d="m172.585938 40.710938-3.546876-2.046876v4.097657zm0 0"/><path d="m165.492188 44.808594-3.546876-2.046875v4.09375zm0 0"/><path d="m161.945312 46.855469-3.550781-2.046875v4.097656zm0 0"/><path d="m76.796875 96.015625-3.550781-2.046875v4.097656zm0 0"/><path d="m73.246094 98.066406-3.546875-2.050781v4.097656zm0 0"/><path d="m66.152344 102.164062-3.546875-2.050781v4.097657zm0 0"/><path d="m59.054688 106.257812-3.546876-2.046874v4.097656zm0 0"/><path d="m59.054688 110.355469-3.546876-2.046875v4.097656zm0 0"/><path d="m59.054688 118.550781-3.546876-2.050781v4.097656zm0 0"/><path d="m59.054688 122.644531-3.546876-2.046875v4.097656zm0 0"/><path d="m59.054688 126.742188-3.546876-2.046876v4.097657zm0 0"/><path d="m59.054688 233.257812-3.546876-2.050781v4.097657zm0 0"/><path d="m59.054688 237.355469-3.546876-2.050781v4.097656zm0 0"/><path d="m59.054688 241.449219-3.546876-2.046875v4.097656zm0 0"/><path d="m59.054688 249.644531-3.546876-2.050781v4.097656zm0 0"/><path d="m59.054688 253.742188-3.546876-2.050782v4.097656zm0 0"/><path d="m66.152344 257.835938-3.546875-2.046876v4.097657zm0 0"/><path d="m73.246094 261.933594-3.546875-2.046875v4.097656zm0 0"/><path d="m76.796875 263.984375-3.550781-2.050781v4.097656zm0 0"/><path d="m161.945312 313.144531-3.550781-2.050781v4.097656zm0 0"/><path d="m165.492188 315.191406-3.546876-2.046875v4.09375zm0 0"/><path d="m172.585938 319.289062-3.546876-2.050781v4.097657zm0 0"/><path d="m179.683594 323.382812-3.546875-2.046874v4.097656zm0 0"/><path d="m186.777344 323.382812-3.546875-2.046874v4.097656zm0 0"/><path d="m190.328125 321.335938-3.550781-2.046876v4.09375zm0 0"/><path d="m200.96875 315.191406-3.546875-2.046875v4.09375zm0 0"/><path d="m289.667969 263.984375-3.550781-2.050781v4.097656zm0 0"/><path d="m300.308594 257.835938-3.546875-2.046876v4.097657zm0 0"/><path d="m303.859375 255.789062-3.550781-2.046874v4.09375zm0 0"/><path d="m314.5 253.742188-3.546875-2.050782v4.097656zm0 0"/><path d="m314.5 249.644531-3.546875-2.050781v4.097656zm0 0"/><path d="m314.5 241.449219-3.546875-2.046875v4.097656zm0 0"/><path d="m314.5 237.355469-3.546875-2.050781v4.097656zm0 0"/><path d="m314.5 233.257812-3.546875-2.050781v4.097657zm0 0"/><path d="m314.5 126.742188-3.546875-2.046876v4.097657zm0 0"/><path d="m314.5 122.644531-3.546875-2.046875v4.097656zm0 0"/><path d="m314.5 118.550781-3.546875-2.050781v4.097656zm0 0"/><path d="m314.5 110.355469-3.546875-2.046875v4.097656zm0 0"/><path d="m314.5 106.257812-3.546875-2.046874v4.097656zm0 0"/><path d="m307.40625 102.164062-3.546875-2.050781v4.097657zm0 0"/><path d="m300.308594 98.066406-3.546875-2.050781v4.097656zm0 0"/><path d="m293.214844 93.96875-3.546875-2.046875v4.09375zm0 0"/><path d="m289.667969 91.921875-3.550781-2.050781v4.097656zm0 0"/><path d="m204.519531 42.761719-3.550781-2.050781v4.097656zm0 0"/><path d="m200.96875 40.710938-3.546875-2.046876v4.097657zm0 0"/><path d="m193.875 36.617188-3.546875-2.050782v4.097656zm0 0"/><path d="m186.777344 32.519531-3.546875-2.050781v4.097656zm0 0"/><path d="m176.136719 34.566406-3.550781-2.046875v4.097657zm0 0"/><path d="m172.585938 36.617188-3.546876-2.050782v4.097656zm0 0"/><path d="m161.945312 42.761719-3.550781-2.050781v4.097656zm0 0"/><path d="m73.246094 93.96875-3.546875-2.046875v4.09375zm0 0"/><path d="m62.605469 100.113281-3.550781-2.046875v4.097656zm0 0"/><path d="m59.054688 102.164062-3.546876-2.050781v4.097657zm0 0"/><path d="m55.507812 112.40625-3.546874-2.050781v4.097656zm0 0"/><path d="m55.507812 116.5-3.546874-2.046875v4.097656zm0 0"/><path d="m55.507812 128.792969-3.546874-2.050781v4.097656zm0 0"/><path d="m55.507812 231.207031-3.546874-2.046875v4.097656zm0 0"/><path d="m55.507812 243.5-3.546874-2.050781v4.097656zm0 0"/><path d="m55.507812 247.59375-3.546874-2.046875v4.097656zm0 0"/><path d="m59.054688 257.835938-3.546876-2.046876v4.097657zm0 0"/><path d="m62.605469 259.886719-3.550781-2.050781v4.097656zm0 0"/><path d="m73.246094 266.03125-3.546875-2.046875v4.09375zm0 0"/><path d="m161.945312 317.238281-3.550781-2.046875v4.097656zm0 0"/><path d="m172.585938 323.382812-3.546876-2.046874v4.097656zm0 0"/><path d="m176.136719 325.433594-3.550781-2.050782v4.097657zm0 0"/><path d="m186.777344 327.480469-3.546875-2.046875v4.097656zm0 0"/><path d="m193.875 323.382812-3.546875-2.046874v4.097656zm0 0"/><path d="m200.96875 319.289062-3.546875-2.050781v4.097657zm0 0"/><path d="m204.519531 317.238281-3.550781-2.046875v4.097656zm0 0"/><path d="m289.667969 268.078125-3.550781-2.046875v4.097656zm0 0"/><path d="m293.214844 266.03125-3.546875-2.046875v4.09375zm0 0"/><path d="m300.308594 261.933594-3.546875-2.046875v4.097656zm0 0"/><path d="m307.40625 257.835938-3.546875-2.046876v4.097657zm0 0"/><path d="m318.050781 255.789062-3.550781-2.046874v4.09375zm0 0"/><path d="m318.050781 251.691406-3.550781-2.046875v4.097657zm0 0"/><path d="m318.050781 239.402344-3.550781-2.046875v4.09375zm0 0"/><path d="m318.050781 235.304688-3.550781-2.046876v4.097657zm0 0"/><path d="m318.050781 124.695312-3.550781-2.050781v4.097657zm0 0"/><path d="m318.050781 120.597656-3.550781-2.046875v4.09375zm0 0"/><path d="m318.050781 108.308594-3.550781-2.050782v4.097657zm0 0"/><path d="m318.050781 104.210938-3.550781-2.046876v4.09375zm0 0"/><path d="m314.5 102.164062-3.546875-2.050781v4.097657zm0 0"/><path d="m310.953125 100.113281-3.546875-2.046875v4.097656zm0 0"/><path d="m307.40625 98.066406-3.546875-2.050781v4.097656zm0 0"/><path d="m303.859375 96.015625-3.550781-2.046875v4.097656zm0 0"/><path d="m300.308594 93.96875-3.546875-2.046875v4.09375zm0 0"/><path d="m296.761719 91.921875-3.546875-2.050781v4.097656zm0 0"/><path d="m293.214844 89.871094-3.546875-2.046875v4.097656zm0 0"/><path d="m204.519531 38.664062-3.550781-2.046874v4.09375zm0 0"/><path d="m200.96875 36.617188-3.546875-2.050782v4.097656zm0 0"/><path d="m197.421875 34.566406-3.546875-2.046875v4.097657zm0 0"/><path d="m193.875 32.519531-3.546875-2.050781v4.097656zm0 0"/><path d="m190.328125 30.46875-3.550781-2.046875v4.097656zm0 0"/><path d="m186.777344 28.421875-3.546875-2.046875v4.09375zm0 0"/><path d="m183.230469 26.375-3.546875-2.050781v4.097656zm0 0"/><path d="m179.683594 28.421875-3.546875-2.046875v4.09375zm0 0"/><path d="m176.136719 30.46875-3.550781-2.046875v4.097656zm0 0"/><path d="m169.039062 34.566406-3.546874-2.046875v4.097657zm0 0"/><path d="m165.492188 36.617188-3.546876-2.050782v4.097656zm0 0"/><path d="m161.945312 38.664062-3.550781-2.046874v4.09375zm0 0"/><path d="m69.699219 91.921875-3.546875-2.050781v4.097656zm0 0"/><path d="m66.152344 93.96875-3.546875-2.046875v4.09375zm0 0"/><path d="m62.605469 96.015625-3.550781-2.046875v4.097656zm0 0"/><path d="m55.507812 100.113281-3.546874-2.046875v4.097656zm0 0"/><path d="m51.960938 102.164062-3.546876-2.050781v4.097657zm0 0"/><path d="m51.960938 110.355469-3.546876-2.046875v4.097656zm0 0"/><path d="m51.960938 118.550781-3.546876-2.050781v4.097656zm0 0"/><path d="m51.960938 126.742188-3.546876-2.046876v4.097657zm0 0"/><path d="m51.960938 130.839844-3.546876-2.046875v4.09375zm0 0"/><path d="m51.960938 229.160156-3.546876-2.046875v4.09375zm0 0"/><path d="m51.960938 233.257812-3.546876-2.050781v4.097657zm0 0"/><path d="m51.960938 241.449219-3.546876-2.046875v4.097656zm0 0"/><path d="m51.960938 249.644531-3.546876-2.050781v4.097656zm0 0"/><path d="m51.960938 257.835938-3.546876-2.046876v4.097657zm0 0"/><path d="m55.507812 259.886719-3.546874-2.050781v4.097656zm0 0"/><path d="m62.605469 263.984375-3.550781-2.050781v4.097656zm0 0"/><path d="m66.152344 266.03125-3.546875-2.046875v4.09375zm0 0"/><path d="m69.699219 268.078125-3.546875-2.046875v4.097656zm0 0"/><path d="m161.945312 321.335938-3.550781-2.046876v4.09375zm0 0"/><path d="m165.492188 323.382812-3.546876-2.046874v4.097656zm0 0"/><path d="m169.039062 325.433594-3.546874-2.050782v4.097657zm0 0"/><path d="m176.136719 329.53125-3.550781-2.050781v4.097656zm0 0"/><path d="m179.683594 331.578125-3.546875-2.046875v4.09375zm0 0"/><path d="m183.230469 333.625-3.546875-2.046875v4.097656zm0 0"/><path d="m186.777344 331.578125-3.546875-2.046875v4.09375zm0 0"/><path d="m190.328125 329.53125-3.550781-2.050781v4.097656zm0 0"/><path d="m193.875 327.480469-3.546875-2.046875v4.097656zm0 0"/><path d="m197.421875 325.433594-3.546875-2.050782v4.097657zm0 0"/><path d="m200.96875 323.382812-3.546875-2.046874v4.097656zm0 0"/><path d="m204.519531 321.335938-3.550781-2.046876v4.09375zm0 0"/><path d="m293.214844 270.128906-3.546875-2.050781v4.097656zm0 0"/><path d="m296.761719 268.078125-3.546875-2.046875v4.097656zm0 0"/><path d="m300.308594 266.03125-3.546875-2.046875v4.09375zm0 0"/><path d="m303.859375 263.984375-3.550781-2.050781v4.097656zm0 0"/><path d="m307.40625 261.933594-3.546875-2.046875v4.097656zm0 0"/><path d="m310.953125 259.886719-3.546875-2.050781v4.097656zm0 0"/><path d="m314.5 257.835938-3.546875-2.046876v4.097657zm0 0"/><path d="m179.683594 24.324219-3.546875-2.046875v4.097656zm0 0"/><path d="m176.136719 26.375-3.550781-2.050781v4.097656zm0 0"/><path d="m165.492188 32.519531-3.546876-2.050781v4.097656zm0 0"/><path d="m161.945312 34.566406-3.550781-2.046875v4.097657zm0 0"/><path d="m66.152344 89.871094-3.546875-2.046875v4.097656zm0 0"/><path d="m62.605469 91.921875-3.550781-2.050781v4.097656zm0 0"/><path d="m51.960938 98.066406-3.546876-2.050781v4.097656zm0 0"/><path d="m48.414062 100.113281-3.550781-2.046875v4.097656zm0 0"/><path d="m48.414062 104.210938-3.550781-2.046876v4.09375zm0 0"/><path d="m48.414062 108.308594-3.550781-2.050782v4.097657zm0 0"/><path d="m48.414062 112.40625-3.550781-2.050781v4.097656zm0 0"/><path d="m48.414062 116.5-3.550781-2.046875v4.097656zm0 0"/><path d="m48.414062 120.597656-3.550781-2.046875v4.09375zm0 0"/><path d="m48.414062 124.695312-3.550781-2.050781v4.097657zm0 0"/><path d="m48.414062 128.792969-3.550781-2.050781v4.097656zm0 0"/><path d="m48.414062 231.207031-3.550781-2.046875v4.097656zm0 0"/><path d="m48.414062 235.304688-3.550781-2.046876v4.097657zm0 0"/><path d="m48.414062 239.402344-3.550781-2.046875v4.09375zm0 0"/><path d="m48.414062 243.5-3.550781-2.050781v4.097656zm0 0"/><path d="m48.414062 247.59375-3.550781-2.046875v4.097656zm0 0"/><path d="m48.414062 251.691406-3.550781-2.046875v4.097657zm0 0"/><path d="m48.414062 255.789062-3.550781-2.046874v4.09375zm0 0"/><path d="m48.414062 259.886719-3.550781-2.050781v4.097656zm0 0"/><path d="m51.960938 261.933594-3.546876-2.046875v4.097656zm0 0"/><path d="m62.605469 268.078125-3.550781-2.046875v4.097656zm0 0"/><path d="m66.152344 270.128906-3.546875-2.050781v4.097656zm0 0"/><path d="m161.945312 325.433594-3.550781-2.050782v4.097657zm0 0"/><path d="m165.492188 327.480469-3.546876-2.046875v4.097656zm0 0"/><path d="m176.136719 333.625-3.550781-2.046875v4.097656zm0 0"/><path d="m179.683594 335.675781-3.546875-2.050781v4.097656zm0 0"/></g></g></svg>