<svg height="360pt" viewBox="0 0 360 360" width="360pt" xmlns="http://www.w3.org/2000/svg"><path d="m0 0h360v360h-360z" fill="#fff"/><g fill="#800080"><path d="m169.136719 180 16.292969-9.40625v18.8125zm0 0"/><path d="m185.429688 189.40625 16.292968-9.40625v18.8125zm0 0"/><path d="m169.136719 161.1875 16.292969-9.40625v18.8125zm0 0"/><path d="m152.84375 170.59375 16.292969-9.40625v18.8125zm0 0"/><path d="m152.84375 189.40625 16.292969-9.40625v18.8125zm0 0"/><path d="m169.136719 198.8125 16.292969-9.40625v18.8125zm0 0"/><path d="m201.722656 161.1875 16.292969-9.40625v18.8125zm0 0"/><path d="m136.554688 198.8125 16.289062-9.40625v18.8125zm0 0"/><path d="m152.84375 208.21875 16.292969-9.40625v18.8125zm0 0"/><path d="m218.015625 151.78125 16.292969-9.40625v18.8125zm0 0"/><path d="m120.261719 189.40625 16.292969-9.40625v18.8125zm0 0"/><path d="m120.261719 208.21875 16.292969-9.40625v18.8125zm0 0"/><path d="m136.554688 217.625 16.289062-9.40625v18.8125zm0 0"/><path d="m152.84375 227.03125 16.292969-9.40625v18.816406zm0 0"/><path d="m185.429688 227.03125 16.292968-9.40625v18.816406zm0 0"/><path d="m201.722656 217.625 16.292969-9.40625v18.8125zm0 0"/><path d="m234.308594 198.8125 16.292968-9.40625v18.8125zm0 0"/><path d="m103.96875 198.8125 16.292969-9.40625v18.8125zm0 0"/><path d="m250.601562 189.40625 16.292969-9.40625v18.8125zm0 0"/><path d="m250.601562 170.59375 16.292969-9.40625v18.8125zm0 0"/><path d="m185.429688 170.59375-16.292969-9.40625v18.8125zm0 0"/><path d="m185.429688 189.40625-16.292969-9.40625v18.8125zm0 0"/><path d="m218.015625 189.40625-16.292969-9.40625v18.8125zm0 0"/><path d="m201.722656 161.1875-16.292968-9.40625v18.8125zm0 0"/><path d="m185.429688 151.78125-16.292969-9.40625v18.8125zm0 0"/><path d="m169.136719 161.1875-16.292969-9.40625v18.8125zm0 0"/><path d="m169.136719 198.8125-16.292969-9.40625v18.8125zm0 0"/><path d="m185.429688 208.21875-16.292969-9.40625v18.8125zm0 0"/><path d="m234.308594 180-16.292969-9.40625v18.8125zm0 0"/><path d="m234.308594 161.1875-16.292969-9.40625v18.8125zm0 0"/><path d="m169.136719 217.625-16.292969-9.40625v18.8125zm0 0"/><path d="m201.722656 217.625-16.292968-9.40625v18.8125zm0 0"/><path d="m218.015625 208.21875-16.292969-9.40625v18.8125zm0 0"/><path d="m250.601562 189.40625-16.292968-9.40625v18.8125zm0 0"/><path d="m136.554688 180-16.292969-9.40625v18.8125zm0 0"/><path d="m136.554688 198.8125-16.292969-9.40625v18.8125zm0 0"/><path d="m136.554688 217.625-16.292969-9.40625v18.8125zm0 0"/><path d="m266.894531 180-16.292969-9.40625v18.8125zm0 0"/><path d="m120.261719 189.40625-16.292969-9.40625v18.8125zm0 0"/><path d="m120.261719 208.21875-16.292969-9.40625v18.8125zm0 0"/></g></svg>