<svg height="360pt" viewBox="0 0 360 360" width="360pt" xmlns="http://www.w3.org/2000/svg"><path d="m0 0h360v360h-360z" fill="#800080"/><g fill="#fff" fill-rule="evenodd"><path d="m182.515625 181.59375 2.761719-1.59375v3.191406zm0 0"/><path d="m182.515625 178.40625 2.761719-1.597656v3.191406zm0 0"/><path d="m185.277344 183.191406 2.761718-1.597656v3.191406zm0 0"/><path d="m185.277344 176.808594 2.761718-1.59375v3.191406zm0 0"/><path d="m176.992188 175.214844 2.761718-1.59375v3.1875zm0 0"/><path d="m174.230469 176.808594 2.761719-1.59375v3.191406zm0 0"/><path d="m174.230469 183.191406 2.761719-1.597656v3.191406zm0 0"/><path d="m176.992188 184.785156 2.761718-1.59375v3.1875zm0 0"/><path d="m176.992188 172.027344 2.761718-1.597656v3.191406zm0 0"/><path d="m171.464844 175.214844 2.765625-1.59375v3.1875zm0 0"/><path d="m171.464844 184.785156 2.765625-1.59375v3.1875zm0 0"/><path d="m176.992188 187.972656 2.761718-1.59375v3.191406zm0 0"/><path d="m257.097656 224.652344 2.761719-1.59375v3.191406zm0 0"/><path d="m257.097656 135.347656 2.761719-1.597656v3.191406zm0 0"/><path d="m259.859375 226.25 2.761719-1.597656v3.191406zm0 0"/><path d="m259.859375 133.75 2.761719-1.59375v3.191406zm0 0"/><path d="m176.992188 89.097656 2.761718-1.59375v3.1875zm0 0"/><path d="m99.648438 133.75 2.761718-1.59375v3.191406zm0 0"/><path d="m99.648438 226.25 2.761718-1.597656v3.191406zm0 0"/><path d="m176.992188 270.902344 2.761718-1.59375v3.1875zm0 0"/><path d="m262.621094 224.652344 2.761718-1.59375v3.191406zm0 0"/><path d="m262.621094 221.464844 2.761718-1.59375v3.1875zm0 0"/><path d="m262.621094 138.535156 2.761718-1.59375v3.1875zm0 0"/><path d="m262.621094 135.347656 2.761718-1.597656v3.191406zm0 0"/><path d="m176.992188 85.90625 2.761718-1.59375v3.191406zm0 0"/><path d="m96.886719 132.15625 2.761719-1.59375v3.1875zm0 0"/><path d="m96.886719 227.84375 2.761719-1.59375v3.1875zm0 0"/><path d="m176.992188 274.09375 2.761718-1.597656v3.191406zm0 0"/><path d="m265.382812 223.058594 2.761719-1.59375v3.1875zm0 0"/><path d="m265.382812 136.941406 2.761719-1.59375v3.1875zm0 0"/><path d="m174.230469 84.3125 2.761719-1.59375v3.1875zm0 0"/><path d="m171.464844 85.90625 2.765625-1.59375v3.191406zm0 0"/><path d="m99.648438 127.371094 2.761718-1.59375v3.191406zm0 0"/><path d="m96.886719 128.96875 2.761719-1.597656v3.191406zm0 0"/><path d="m96.886719 231.03125 2.761719-1.59375v3.191406zm0 0"/><path d="m99.648438 232.628906 2.761718-1.597656v3.191406zm0 0"/><path d="m171.464844 274.09375 2.765625-1.597656v3.191406zm0 0"/><path d="m174.230469 275.6875 2.761719-1.59375v3.1875zm0 0"/><path d="m268.144531 221.464844 2.761719-1.59375v3.1875zm0 0"/><path d="m268.144531 138.535156 2.761719-1.59375v3.1875zm0 0"/><path d="m171.464844 82.71875 2.765625-1.59375v3.1875zm0 0"/><path d="m96.886719 125.777344 2.761719-1.59375v3.1875zm0 0"/><path d="m96.886719 234.222656 2.761719-1.59375v3.1875zm0 0"/><path d="m171.464844 277.28125 2.765625-1.59375v3.1875zm0 0"/><path d="m270.90625 232.628906 2.761719-1.597656v3.191406zm0 0"/><path d="m270.90625 229.4375 2.761719-1.59375v3.1875zm0 0"/><path d="m270.90625 226.25 2.761719-1.597656v3.191406zm0 0"/><path d="m270.90625 223.058594 2.761719-1.59375v3.1875zm0 0"/><path d="m270.90625 136.941406 2.761719-1.59375v3.1875zm0 0"/><path d="m270.90625 133.75 2.761719-1.59375v3.191406zm0 0"/><path d="m270.90625 130.5625 2.761719-1.59375v3.1875zm0 0"/><path d="m270.90625 127.371094 2.761719-1.59375v3.191406zm0 0"/><path d="m168.703125 81.125 2.761719-1.597656v3.191406zm0 0"/><path d="m96.886719 122.585938 2.761719-1.59375v3.191406zm0 0"/><path d="m96.886719 237.414062 2.761719-1.597656v3.191406zm0 0"/><path d="m168.703125 278.875 2.761719-1.59375v3.191406zm0 0"/><path d="m273.667969 234.222656 2.765625-1.59375v3.1875zm0 0"/><path d="m273.667969 227.84375 2.765625-1.59375v3.1875zm0 0"/><path d="m273.667969 132.15625 2.765625-1.59375v3.1875zm0 0"/><path d="m273.667969 125.777344 2.765625-1.59375v3.1875zm0 0"/><path d="m176.992188 73.148438 2.761718-1.59375v3.191406zm0 0"/><path d="m174.230469 74.746094 2.761719-1.597656v3.191406zm0 0"/><path d="m171.464844 76.339844 2.765625-1.59375v3.1875zm0 0"/><path d="m168.703125 77.933594 2.761719-1.59375v3.1875zm0 0"/><path d="m94.125 120.992188 2.761719-1.59375v3.1875zm0 0"/><path d="m91.363281 122.585938 2.761719-1.59375v3.191406zm0 0"/><path d="m88.597656 124.183594 2.765625-1.597656v3.191406zm0 0"/><path d="m85.835938 125.777344 2.761718-1.59375v3.1875zm0 0"/><path d="m85.835938 234.222656 2.761718-1.59375v3.1875zm0 0"/><path d="m88.597656 235.816406 2.765625-1.59375v3.191406zm0 0"/><path d="m91.363281 237.414062 2.761719-1.597656v3.191406zm0 0"/><path d="m94.125 239.007812 2.761719-1.59375v3.1875zm0 0"/><path d="m168.703125 282.066406 2.761719-1.59375v3.1875zm0 0"/><path d="m171.464844 283.660156 2.765625-1.59375v3.1875zm0 0"/><path d="m174.230469 285.253906 2.761719-1.59375v3.191406zm0 0"/><path d="m176.992188 286.851562 2.761718-1.597656v3.191406zm0 0"/><path d="m176.992188 69.960938 2.761718-1.59375v3.1875zm0 0"/><path d="m171.464844 73.148438 2.765625-1.59375v3.191406zm0 0"/><path d="m88.597656 120.992188 2.765625-1.59375v3.1875zm0 0"/><path d="m83.074219 124.183594 2.761719-1.597656v3.191406zm0 0"/><path d="m83.074219 235.816406 2.761719-1.59375v3.191406zm0 0"/><path d="m88.597656 239.007812 2.765625-1.59375v3.1875zm0 0"/><path d="m171.464844 286.851562 2.765625-1.597656v3.191406zm0 0"/><path d="m176.992188 290.039062 2.761718-1.59375v3.1875zm0 0"/><path d="m298.53125 207.109375 2.761719-1.59375v3.191406zm0 0"/><path d="m298.53125 203.921875 2.761719-1.59375v3.1875zm0 0"/><path d="m298.53125 156.078125 2.761719-1.59375v3.1875zm0 0"/><path d="m298.53125 152.890625 2.761719-1.597656v3.191406zm0 0"/><path d="m301.292969 250.171875 2.761719-1.597656v3.191406zm0 0"/><path d="m301.292969 211.894531 2.761719-1.59375v3.191407zm0 0"/><path d="m301.292969 208.707031 2.761719-1.597656v3.191406zm0 0"/><path d="m301.292969 202.328125 2.761719-1.597656v3.191406zm0 0"/><path d="m301.292969 199.136719 2.761719-1.59375v3.1875zm0 0"/><path d="m301.292969 160.863281 2.761719-1.59375v3.1875zm0 0"/><path d="m301.292969 157.671875 2.761719-1.59375v3.191406zm0 0"/><path d="m301.292969 151.292969 2.761719-1.59375v3.191406zm0 0"/><path d="m301.292969 148.105469 2.761719-1.597657v3.191407zm0 0"/><path d="m301.292969 109.828125 2.761719-1.59375v3.191406zm0 0"/><path d="m141.082031 61.984375 2.761719-1.59375v3.191406zm0 0"/><path d="m138.320312 63.582031 2.761719-1.597656v3.191406zm0 0"/><path d="m96.886719 87.503906 2.761719-1.597656v3.191406zm0 0"/><path d="m94.125 89.097656 2.761719-1.59375v3.1875zm0 0"/><path d="m94.125 270.902344 2.761719-1.59375v3.1875zm0 0"/><path d="m96.886719 272.496094 2.761719-1.59375v3.191406zm0 0"/><path d="m138.320312 296.417969 2.761719-1.59375v3.191406zm0 0"/><path d="m141.082031 298.015625 2.761719-1.597656v3.191406zm0 0"/><path d="m304.054688 251.765625 2.761718-1.59375v3.1875zm0 0"/><path d="m304.054688 210.300781 2.761718-1.59375v3.1875zm0 0"/><path d="m304.054688 200.730469 2.761718-1.59375v3.191406zm0 0"/><path d="m304.054688 159.269531 2.761718-1.597656v3.191406zm0 0"/><path d="m304.054688 149.699219 2.761718-1.59375v3.1875zm0 0"/><path d="m304.054688 108.234375 2.761718-1.59375v3.1875zm0 0"/><path d="m176.992188 38.0625 2.761718-1.59375v3.191406zm0 0"/><path d="m143.84375 57.203125 2.761719-1.597656v3.191406zm0 0"/><path d="m141.082031 58.796875 2.761719-1.59375v3.1875zm0 0"/><path d="m135.558594 61.984375 2.761718-1.59375v3.191406zm0 0"/><path d="m132.796875 63.582031 2.761719-1.597656v3.191406zm0 0"/><path d="m99.648438 82.71875 2.761718-1.59375v3.1875zm0 0"/><path d="m96.886719 84.3125 2.761719-1.59375v3.1875zm0 0"/><path d="m91.363281 87.503906 2.761719-1.597656v3.191406zm0 0"/><path d="m88.597656 89.097656 2.765625-1.59375v3.1875zm0 0"/><path d="m55.453125 108.234375 2.761719-1.59375v3.1875zm0 0"/><path d="m55.453125 251.765625 2.761719-1.59375v3.1875zm0 0"/><path d="m88.597656 270.902344 2.765625-1.59375v3.1875zm0 0"/><path d="m91.363281 272.496094 2.761719-1.59375v3.191406zm0 0"/><path d="m96.886719 275.6875 2.761719-1.59375v3.1875zm0 0"/><path d="m99.648438 277.28125 2.761718-1.59375v3.1875zm0 0"/><path d="m132.796875 296.417969 2.761719-1.59375v3.191406zm0 0"/><path d="m135.558594 298.015625 2.761718-1.597656v3.191406zm0 0"/><path d="m141.082031 301.203125 2.761719-1.59375v3.1875zm0 0"/><path d="m143.84375 302.796875 2.761719-1.59375v3.191406zm0 0"/><path d="m176.992188 321.9375 2.761718-1.597656v3.191406zm0 0"/><path d="m306.816406 250.171875 2.761719-1.597656v3.191406zm0 0"/><path d="m306.816406 246.980469 2.761719-1.59375v3.1875zm0 0"/><path d="m306.816406 215.085938 2.761719-1.59375v3.1875zm0 0"/><path d="m306.816406 211.894531 2.761719-1.59375v3.191407zm0 0"/><path d="m306.816406 199.136719 2.761719-1.59375v3.1875zm0 0"/><path d="m306.816406 195.949219 2.761719-1.597657v3.191407zm0 0"/><path d="m306.816406 164.050781 2.761719-1.59375v3.191407zm0 0"/><path d="m306.816406 160.863281 2.761719-1.59375v3.1875zm0 0"/><path d="m306.816406 148.105469 2.761719-1.597657v3.191407zm0 0"/><path d="m306.816406 144.914062 2.761719-1.59375v3.1875zm0 0"/><path d="m306.816406 113.019531 2.761719-1.59375v3.1875zm0 0"/><path d="m306.816406 109.828125 2.761719-1.59375v3.191406zm0 0"/><path d="m176.992188 34.875 2.761718-1.59375v3.1875zm0 0"/><path d="m141.082031 55.605469 2.761719-1.59375v3.191406zm0 0"/><path d="m132.796875 60.390625 2.761719-1.59375v3.1875zm0 0"/><path d="m96.886719 81.125 2.761719-1.597656v3.191406zm0 0"/><path d="m88.597656 85.90625 2.765625-1.59375v3.191406zm0 0"/><path d="m52.691406 106.640625 2.761719-1.59375v3.1875zm0 0"/><path d="m52.691406 253.359375 2.761719-1.59375v3.1875zm0 0"/><path d="m88.597656 274.09375 2.765625-1.597656v3.191406zm0 0"/><path d="m96.886719 278.875 2.761719-1.59375v3.191406zm0 0"/><path d="m132.796875 299.609375 2.761719-1.59375v3.1875zm0 0"/><path d="m141.082031 304.394531 2.761719-1.597656v3.191406zm0 0"/><path d="m176.992188 325.125 2.761718-1.59375v3.1875zm0 0"/><path d="m309.578125 248.574219 2.761719-1.59375v3.191406zm0 0"/><path d="m309.578125 213.492188 2.761719-1.597657v3.191407zm0 0"/><path d="m309.578125 197.542969 2.761719-1.59375v3.1875zm0 0"/><path d="m309.578125 162.457031 2.761719-1.59375v3.1875zm0 0"/><path d="m309.578125 146.507812 2.761719-1.59375v3.191407zm0 0"/><path d="m309.578125 111.425781 2.761719-1.597656v3.191406zm0 0"/><path d="m174.230469 33.28125 2.761719-1.597656v3.191406zm0 0"/><path d="m171.464844 34.875 2.765625-1.59375v3.1875zm0 0"/><path d="m143.84375 50.824219 2.761719-1.597657v3.191407zm0 0"/><path d="m141.082031 52.417969 2.761719-1.59375v3.1875zm0 0"/><path d="m130.03125 58.796875 2.765625-1.59375v3.1875zm0 0"/><path d="m127.269531 60.390625 2.761719-1.59375v3.1875zm0 0"/><path d="m99.648438 76.339844 2.761718-1.59375v3.1875zm0 0"/><path d="m96.886719 77.933594 2.761719-1.59375v3.1875zm0 0"/><path d="m85.835938 84.3125 2.761718-1.59375v3.1875zm0 0"/><path d="m83.074219 85.90625 2.761719-1.59375v3.191406zm0 0"/><path d="m55.453125 101.855469 2.761719-1.59375v3.1875zm0 0"/><path d="m52.691406 103.449219 2.761719-1.59375v3.191406zm0 0"/><path d="m52.691406 256.550781 2.761719-1.597656v3.191406zm0 0"/><path d="m55.453125 258.144531 2.761719-1.59375v3.1875zm0 0"/><path d="m83.074219 274.09375 2.761719-1.597656v3.191406zm0 0"/><path d="m85.835938 275.6875 2.761718-1.59375v3.1875zm0 0"/><path d="m96.886719 282.066406 2.761719-1.59375v3.1875zm0 0"/><path d="m99.648438 283.660156 2.761718-1.59375v3.1875zm0 0"/><path d="m127.269531 299.609375 2.761719-1.59375v3.1875zm0 0"/><path d="m130.03125 301.203125 2.765625-1.59375v3.1875zm0 0"/><path d="m141.082031 307.582031 2.761719-1.59375v3.1875zm0 0"/><path d="m143.84375 309.175781 2.761719-1.59375v3.191407zm0 0"/><path d="m171.464844 325.125 2.765625-1.59375v3.1875zm0 0"/><path d="m174.230469 326.71875 2.761719-1.59375v3.191406zm0 0"/><path d="m312.339844 246.980469 2.761718-1.59375v3.1875zm0 0"/><path d="m312.339844 215.085938 2.761718-1.59375v3.1875zm0 0"/><path d="m312.339844 195.949219 2.761718-1.597657v3.191407zm0 0"/><path d="m312.339844 164.050781 2.761718-1.59375v3.191407zm0 0"/><path d="m312.339844 144.914062 2.761718-1.59375v3.1875zm0 0"/><path d="m312.339844 113.019531 2.761718-1.59375v3.1875zm0 0"/><path d="m171.464844 31.683594 2.765625-1.59375v3.191406zm0 0"/><path d="m141.082031 49.226562 2.761719-1.59375v3.191407zm0 0"/><path d="m127.269531 57.203125 2.761719-1.597656v3.191406zm0 0"/><path d="m96.886719 74.746094 2.761719-1.597656v3.191406zm0 0"/><path d="m83.074219 82.71875 2.761719-1.59375v3.1875zm0 0"/><path d="m52.691406 100.261719 2.761719-1.59375v3.1875zm0 0"/><path d="m52.691406 259.738281 2.761719-1.59375v3.1875zm0 0"/><path d="m83.074219 277.28125 2.761719-1.59375v3.1875zm0 0"/><path d="m96.886719 285.253906 2.761719-1.59375v3.191406zm0 0"/><path d="m127.269531 302.796875 2.761719-1.59375v3.191406zm0 0"/><path d="m141.082031 310.773438 2.761719-1.597657v3.191407zm0 0"/><path d="m171.464844 328.316406 2.765625-1.597656v3.191406zm0 0"/><path d="m315.101562 258.144531 2.765626-1.59375v3.1875zm0 0"/><path d="m315.101562 254.953125 2.765626-1.59375v3.191406zm0 0"/><path d="m315.101562 251.765625 2.765626-1.59375v3.1875zm0 0"/><path d="m315.101562 248.574219 2.765626-1.59375v3.191406zm0 0"/><path d="m315.101562 213.492188 2.765626-1.597657v3.191407zm0 0"/><path d="m315.101562 210.300781 2.765626-1.59375v3.1875zm0 0"/><path d="m315.101562 207.109375 2.765626-1.59375v3.191406zm0 0"/><path d="m315.101562 203.921875 2.765626-1.59375v3.1875zm0 0"/><path d="m315.101562 200.730469 2.765626-1.59375v3.191406zm0 0"/><path d="m315.101562 197.542969 2.765626-1.59375v3.1875zm0 0"/><path d="m315.101562 162.457031 2.765626-1.59375v3.1875zm0 0"/><path d="m315.101562 159.269531 2.765626-1.597656v3.191406zm0 0"/><path d="m315.101562 156.078125 2.765626-1.59375v3.1875zm0 0"/><path d="m315.101562 152.890625 2.765626-1.597656v3.191406zm0 0"/><path d="m315.101562 149.699219 2.765626-1.59375v3.1875zm0 0"/><path d="m315.101562 146.507812 2.765626-1.59375v3.191407zm0 0"/><path d="m315.101562 111.425781 2.765626-1.597656v3.191406zm0 0"/><path d="m315.101562 108.234375 2.765626-1.59375v3.1875zm0 0"/><path d="m315.101562 105.046875 2.765626-1.597656v3.191406zm0 0"/><path d="m315.101562 101.855469 2.765626-1.59375v3.1875zm0 0"/><path d="m168.703125 30.089844 2.761719-1.59375v3.1875zm0 0"/><path d="m141.082031 46.039062 2.761719-1.59375v3.1875zm0 0"/><path d="m124.507812 55.605469 2.761719-1.59375v3.191406zm0 0"/><path d="m96.886719 71.554688 2.761719-1.59375v3.1875zm0 0"/><path d="m80.3125 81.125 2.761719-1.597656v3.191406zm0 0"/><path d="m52.691406 97.070312 2.761719-1.59375v3.191407zm0 0"/><path d="m52.691406 262.929688 2.761719-1.597657v3.191407zm0 0"/><path d="m80.3125 278.875 2.761719-1.59375v3.191406zm0 0"/><path d="m96.886719 288.445312 2.761719-1.59375v3.1875zm0 0"/><path d="m124.507812 304.394531 2.761719-1.597656v3.191406zm0 0"/><path d="m141.082031 313.960938 2.761719-1.59375v3.1875zm0 0"/><path d="m168.703125 329.910156 2.761719-1.59375v3.1875zm0 0"/><path d="m317.867188 259.738281 2.761718-1.59375v3.1875zm0 0"/><path d="m317.867188 253.359375 2.761718-1.59375v3.1875zm0 0"/><path d="m317.867188 208.707031 2.761718-1.597656v3.191406zm0 0"/><path d="m317.867188 202.328125 2.761718-1.597656v3.191406zm0 0"/><path d="m317.867188 157.671875 2.761718-1.59375v3.191406zm0 0"/><path d="m317.867188 151.292969 2.761718-1.59375v3.191406zm0 0"/><path d="m317.867188 106.640625 2.761718-1.59375v3.1875zm0 0"/><path d="m317.867188 100.261719 2.761718-1.59375v3.1875zm0 0"/><path d="m176.992188 22.117188 2.761718-1.59375v3.1875zm0 0"/><path d="m174.230469 23.710938 2.761719-1.59375v3.1875zm0 0"/><path d="m171.464844 25.304688 2.765625-1.59375v3.191406zm0 0"/><path d="m168.703125 26.902344 2.761719-1.597656v3.191406zm0 0"/><path d="m138.320312 44.445312 2.761719-1.597656v3.191406zm0 0"/><path d="m135.558594 46.039062 2.761718-1.59375v3.1875zm0 0"/><path d="m132.796875 47.632812 2.761719-1.59375v3.1875zm0 0"/><path d="m130.03125 49.226562 2.765625-1.59375v3.191407zm0 0"/><path d="m127.269531 50.824219 2.761719-1.597657v3.191407zm0 0"/><path d="m124.507812 52.417969 2.761719-1.59375v3.1875zm0 0"/><path d="m94.125 69.960938 2.761719-1.59375v3.1875zm0 0"/><path d="m91.363281 71.554688 2.761719-1.59375v3.1875zm0 0"/><path d="m88.597656 73.148438 2.765625-1.59375v3.191406zm0 0"/><path d="m85.835938 74.746094 2.761718-1.597656v3.191406zm0 0"/><path d="m83.074219 76.339844 2.761719-1.59375v3.1875zm0 0"/><path d="m80.3125 77.933594 2.761719-1.59375v3.1875zm0 0"/><path d="m49.929688 95.476562 2.761718-1.59375v3.1875zm0 0"/><path d="m47.164062 97.070312 2.765626-1.59375v3.191407zm0 0"/><path d="m44.402344 98.667969 2.761718-1.597657v3.191407zm0 0"/><path d="m41.640625 100.261719 2.761719-1.59375v3.1875zm0 0"/><path d="m41.640625 259.738281 2.761719-1.59375v3.1875zm0 0"/><path d="m44.402344 261.332031 2.761718-1.59375v3.191407zm0 0"/><path d="m47.164062 262.929688 2.765626-1.597657v3.191407zm0 0"/><path d="m49.929688 264.523438 2.761718-1.59375v3.1875zm0 0"/><path d="m80.3125 282.066406 2.761719-1.59375v3.1875zm0 0"/><path d="m83.074219 283.660156 2.761719-1.59375v3.1875zm0 0"/><path d="m85.835938 285.253906 2.761718-1.59375v3.191406zm0 0"/><path d="m88.597656 286.851562 2.765625-1.597656v3.191406zm0 0"/><path d="m91.363281 288.445312 2.761719-1.59375v3.1875zm0 0"/><path d="m94.125 290.039062 2.761719-1.59375v3.1875zm0 0"/><path d="m124.507812 307.582031 2.761719-1.59375v3.1875zm0 0"/><path d="m127.269531 309.175781 2.761719-1.59375v3.191407zm0 0"/><path d="m130.03125 310.773438 2.765625-1.597657v3.191407zm0 0"/><path d="m132.796875 312.367188 2.761719-1.59375v3.1875zm0 0"/><path d="m135.558594 313.960938 2.761718-1.59375v3.1875zm0 0"/><path d="m138.320312 315.554688 2.761719-1.59375v3.191406zm0 0"/><path d="m168.703125 333.097656 2.761719-1.59375v3.191406zm0 0"/><path d="m171.464844 334.695312 2.765625-1.597656v3.191406zm0 0"/><path d="m174.230469 336.289062 2.761719-1.59375v3.1875zm0 0"/><path d="m176.992188 337.882812 2.761718-1.59375v3.1875zm0 0"/><path d="m176.992188 18.925781 2.761718-1.59375v3.191407zm0 0"/><path d="m171.464844 22.117188 2.765625-1.59375v3.1875zm0 0"/><path d="m132.796875 44.445312 2.761719-1.597656v3.191406zm0 0"/><path d="m127.269531 47.632812 2.761719-1.59375v3.1875zm0 0"/><path d="m88.597656 69.960938 2.765625-1.59375v3.1875zm0 0"/><path d="m83.074219 73.148438 2.761719-1.59375v3.191406zm0 0"/><path d="m44.402344 95.476562 2.761718-1.59375v3.1875zm0 0"/><path d="m38.878906 98.667969 2.761719-1.597657v3.191407zm0 0"/><path d="m38.878906 261.332031 2.761719-1.59375v3.191407zm0 0"/><path d="m44.402344 264.523438 2.761718-1.59375v3.1875zm0 0"/><path d="m83.074219 286.851562 2.761719-1.597656v3.191406zm0 0"/><path d="m88.597656 290.039062 2.765625-1.59375v3.1875zm0 0"/><path d="m127.269531 312.367188 2.761719-1.59375v3.1875zm0 0"/><path d="m132.796875 315.554688 2.761719-1.59375v3.191406zm0 0"/><path d="m171.464844 337.882812 2.765625-1.59375v3.1875zm0 0"/><path d="m176.992188 341.074219 2.761718-1.597657v3.191407zm0 0"/><path d="m185.277344 176.808594-2.761719-1.59375v3.191406zm0 0"/><path d="m182.515625 175.214844-2.761719-1.59375v3.1875zm0 0"/><path d="m182.515625 184.785156-2.761719-1.59375v3.1875zm0 0"/><path d="m185.277344 183.191406-2.761719-1.597656v3.191406zm0 0"/><path d="m188.039062 175.214844-2.761718-1.59375v3.1875zm0 0"/><path d="m182.515625 172.027344-2.761719-1.597656v3.191406zm0 0"/><path d="m176.992188 178.40625-2.761719-1.597656v3.191406zm0 0"/><path d="m176.992188 181.59375-2.761719-1.59375v3.191406zm0 0"/><path d="m182.515625 187.972656-2.761719-1.59375v3.191406zm0 0"/><path d="m188.039062 184.785156-2.761718-1.59375v3.1875zm0 0"/><path d="m174.230469 176.808594-2.765625-1.59375v3.191406zm0 0"/><path d="m174.230469 183.191406-2.765625-1.597656v3.191406zm0 0"/><path d="m259.859375 133.75-2.761719-1.59375v3.191406zm0 0"/><path d="m182.515625 89.097656-2.761719-1.59375v3.1875zm0 0"/><path d="m182.515625 270.902344-2.761719-1.59375v3.1875zm0 0"/><path d="m259.859375 226.25-2.761719-1.597656v3.191406zm0 0"/><path d="m262.621094 132.15625-2.761719-1.59375v3.1875zm0 0"/><path d="m182.515625 85.90625-2.761719-1.59375v3.191406zm0 0"/><path d="m102.410156 135.347656-2.761718-1.597656v3.191406zm0 0"/><path d="m102.410156 224.652344-2.761718-1.59375v3.191406zm0 0"/><path d="m182.515625 274.09375-2.761719-1.597656v3.191406zm0 0"/><path d="m262.621094 227.84375-2.761719-1.59375v3.1875zm0 0"/><path d="m262.621094 128.96875-2.761719-1.597656v3.191406zm0 0"/><path d="m259.859375 127.371094-2.761719-1.59375v3.191406zm0 0"/><path d="m188.039062 85.90625-2.761718-1.59375v3.191406zm0 0"/><path d="m185.277344 84.3125-2.761719-1.59375v3.1875zm0 0"/><path d="m99.648438 133.75-2.761719-1.59375v3.191406zm0 0"/><path d="m99.648438 226.25-2.761719-1.597656v3.191406zm0 0"/><path d="m185.277344 275.6875-2.761719-1.59375v3.1875zm0 0"/><path d="m188.039062 274.09375-2.761718-1.597656v3.191406zm0 0"/><path d="m259.859375 232.628906-2.761719-1.597656v3.191406zm0 0"/><path d="m262.621094 231.03125-2.761719-1.59375v3.191406zm0 0"/><path d="m262.621094 125.777344-2.761719-1.59375v3.1875zm0 0"/><path d="m188.039062 82.71875-2.761718-1.59375v3.1875zm0 0"/><path d="m96.886719 135.347656-2.761719-1.597656v3.191406zm0 0"/><path d="m96.886719 138.535156-2.761719-1.59375v3.1875zm0 0"/><path d="m96.886719 221.464844-2.761719-1.59375v3.1875zm0 0"/><path d="m96.886719 224.652344-2.761719-1.59375v3.191406zm0 0"/><path d="m188.039062 277.28125-2.761718-1.59375v3.1875zm0 0"/><path d="m262.621094 234.222656-2.761719-1.59375v3.1875zm0 0"/><path d="m262.621094 122.585938-2.761719-1.59375v3.191406zm0 0"/><path d="m190.800781 81.125-2.761719-1.597656v3.191406zm0 0"/><path d="m94.125 136.941406-2.761719-1.59375v3.1875zm0 0"/><path d="m94.125 223.058594-2.761719-1.59375v3.1875zm0 0"/><path d="m190.800781 278.875-2.761719-1.59375v3.191406zm0 0"/><path d="m262.621094 237.414062-2.761719-1.597656v3.191406zm0 0"/><path d="m273.667969 125.777344-2.761719-1.59375v3.1875zm0 0"/><path d="m270.90625 124.183594-2.761719-1.597656v3.191406zm0 0"/><path d="m268.144531 122.585938-2.761719-1.59375v3.191406zm0 0"/><path d="m265.382812 120.992188-2.761718-1.59375v3.1875zm0 0"/><path d="m190.800781 77.933594-2.761719-1.59375v3.1875zm0 0"/><path d="m188.039062 76.339844-2.761718-1.59375v3.1875zm0 0"/><path d="m185.277344 74.746094-2.761719-1.597656v3.191406zm0 0"/><path d="m182.515625 73.148438-2.761719-1.59375v3.191406zm0 0"/><path d="m91.363281 138.535156-2.765625-1.59375v3.1875zm0 0"/><path d="m91.363281 221.464844-2.765625-1.59375v3.1875zm0 0"/><path d="m182.515625 286.851562-2.761719-1.597656v3.191406zm0 0"/><path d="m185.277344 285.253906-2.761719-1.59375v3.191406zm0 0"/><path d="m188.039062 283.660156-2.761718-1.59375v3.1875zm0 0"/><path d="m190.800781 282.066406-2.761719-1.59375v3.1875zm0 0"/><path d="m265.382812 239.007812-2.761718-1.59375v3.1875zm0 0"/><path d="m268.144531 237.414062-2.761719-1.597656v3.191406zm0 0"/><path d="m270.90625 235.816406-2.761719-1.59375v3.191406zm0 0"/><path d="m273.667969 234.222656-2.761719-1.59375v3.1875zm0 0"/><path d="m276.433594 124.183594-2.765625-1.597656v3.191406zm0 0"/><path d="m270.90625 120.992188-2.761719-1.59375v3.1875zm0 0"/><path d="m188.039062 73.148438-2.761718-1.59375v3.191406zm0 0"/><path d="m182.515625 69.960938-2.761719-1.59375v3.1875zm0 0"/><path d="m88.597656 127.371094-2.761718-1.59375v3.191406zm0 0"/><path d="m88.597656 130.5625-2.761718-1.59375v3.1875zm0 0"/><path d="m88.597656 133.75-2.761718-1.59375v3.191406zm0 0"/><path d="m88.597656 136.941406-2.761718-1.59375v3.1875zm0 0"/><path d="m88.597656 223.058594-2.761718-1.59375v3.1875zm0 0"/><path d="m88.597656 226.25-2.761718-1.597656v3.191406zm0 0"/><path d="m88.597656 229.4375-2.761718-1.59375v3.1875zm0 0"/><path d="m88.597656 232.628906-2.761718-1.597656v3.191406zm0 0"/><path d="m182.515625 290.039062-2.761719-1.59375v3.1875zm0 0"/><path d="m188.039062 286.851562-2.761718-1.597656v3.191406zm0 0"/><path d="m270.90625 239.007812-2.761719-1.59375v3.1875zm0 0"/><path d="m276.433594 235.816406-2.765625-1.59375v3.191406zm0 0"/><path d="m85.835938 125.777344-2.761719-1.59375v3.1875zm0 0"/><path d="m85.835938 132.15625-2.761719-1.59375v3.1875zm0 0"/><path d="m85.835938 227.84375-2.761719-1.59375v3.1875zm0 0"/><path d="m85.835938 234.222656-2.761719-1.59375v3.1875zm0 0"/><path d="m265.382812 89.097656-2.761718-1.59375v3.1875zm0 0"/><path d="m262.621094 87.503906-2.761719-1.597656v3.191406zm0 0"/><path d="m221.1875 63.582031-2.761719-1.597656v3.191406zm0 0"/><path d="m218.425781 61.984375-2.761719-1.59375v3.191406zm0 0"/><path d="m218.425781 298.015625-2.761719-1.597656v3.191406zm0 0"/><path d="m221.1875 296.417969-2.761719-1.59375v3.191406zm0 0"/><path d="m262.621094 272.496094-2.761719-1.59375v3.191406zm0 0"/><path d="m265.382812 270.902344-2.761718-1.59375v3.1875zm0 0"/><path d="m304.054688 108.234375-2.761719-1.59375v3.1875zm0 0"/><path d="m270.90625 89.097656-2.761719-1.59375v3.1875zm0 0"/><path d="m268.144531 87.503906-2.761719-1.597656v3.191406zm0 0"/><path d="m262.621094 84.3125-2.761719-1.59375v3.1875zm0 0"/><path d="m259.859375 82.71875-2.761719-1.59375v3.1875zm0 0"/><path d="m226.710938 63.582031-2.761719-1.597656v3.191406zm0 0"/><path d="m223.949219 61.984375-2.761719-1.59375v3.191406zm0 0"/><path d="m218.425781 58.796875-2.761719-1.59375v3.1875zm0 0"/><path d="m215.664062 57.203125-2.765624-1.597656v3.191406zm0 0"/><path d="m182.515625 38.0625-2.761719-1.59375v3.191406zm0 0"/><path d="m60.976562 152.890625-2.761718-1.597656v3.191406zm0 0"/><path d="m60.976562 156.078125-2.761718-1.59375v3.1875zm0 0"/><path d="m60.976562 203.921875-2.761718-1.59375v3.1875zm0 0"/><path d="m60.976562 207.109375-2.761718-1.59375v3.191406zm0 0"/><path d="m182.515625 321.9375-2.761719-1.597656v3.191406zm0 0"/><path d="m215.664062 302.796875-2.765624-1.59375v3.191406zm0 0"/><path d="m218.425781 301.203125-2.761719-1.59375v3.1875zm0 0"/><path d="m223.949219 298.015625-2.761719-1.597656v3.191406zm0 0"/><path d="m226.710938 296.417969-2.761719-1.59375v3.191406zm0 0"/><path d="m259.859375 277.28125-2.761719-1.59375v3.1875zm0 0"/><path d="m262.621094 275.6875-2.761719-1.59375v3.1875zm0 0"/><path d="m268.144531 272.496094-2.761719-1.59375v3.191406zm0 0"/><path d="m270.90625 270.902344-2.761719-1.59375v3.1875zm0 0"/><path d="m304.054688 251.765625-2.761719-1.59375v3.1875zm0 0"/><path d="m306.816406 106.640625-2.761718-1.59375v3.1875zm0 0"/><path d="m270.90625 85.90625-2.761719-1.59375v3.191406zm0 0"/><path d="m262.621094 81.125-2.761719-1.597656v3.191406zm0 0"/><path d="m226.710938 60.390625-2.761719-1.59375v3.1875zm0 0"/><path d="m218.425781 55.605469-2.761719-1.59375v3.191406zm0 0"/><path d="m182.515625 34.875-2.761719-1.59375v3.1875zm0 0"/><path d="m58.214844 109.828125-2.761719-1.59375v3.191406zm0 0"/><path d="m58.214844 148.105469-2.761719-1.597657v3.191407zm0 0"/><path d="m58.214844 151.292969-2.761719-1.59375v3.191406zm0 0"/><path d="m58.214844 157.671875-2.761719-1.59375v3.191406zm0 0"/><path d="m58.214844 160.863281-2.761719-1.59375v3.1875zm0 0"/><path d="m58.214844 199.136719-2.761719-1.59375v3.1875zm0 0"/><path d="m58.214844 202.328125-2.761719-1.597656v3.191406zm0 0"/><path d="m58.214844 208.707031-2.761719-1.597656v3.191406zm0 0"/><path d="m58.214844 211.894531-2.761719-1.59375v3.191407zm0 0"/><path d="m58.214844 250.171875-2.761719-1.597656v3.191406zm0 0"/><path d="m182.515625 325.125-2.761719-1.59375v3.1875zm0 0"/><path d="m218.425781 304.394531-2.761719-1.597656v3.191406zm0 0"/><path d="m226.710938 299.609375-2.761719-1.59375v3.1875zm0 0"/><path d="m262.621094 278.875-2.761719-1.59375v3.191406zm0 0"/><path d="m270.90625 274.09375-2.761719-1.597656v3.191406zm0 0"/><path d="m306.816406 253.359375-2.761718-1.59375v3.1875zm0 0"/><path d="m306.816406 103.449219-2.761718-1.59375v3.191406zm0 0"/><path d="m304.054688 101.855469-2.761719-1.59375v3.1875zm0 0"/><path d="m276.433594 85.90625-2.765625-1.59375v3.191406zm0 0"/><path d="m273.667969 84.3125-2.761719-1.59375v3.1875zm0 0"/><path d="m262.621094 77.933594-2.761719-1.59375v3.1875zm0 0"/><path d="m259.859375 76.339844-2.761719-1.59375v3.1875zm0 0"/><path d="m232.234375 60.390625-2.761719-1.59375v3.1875zm0 0"/><path d="m229.472656 58.796875-2.761718-1.59375v3.1875zm0 0"/><path d="m218.425781 52.417969-2.761719-1.59375v3.1875zm0 0"/><path d="m215.664062 50.824219-2.765624-1.597657v3.191407zm0 0"/><path d="m188.039062 34.875-2.761718-1.59375v3.1875zm0 0"/><path d="m185.277344 33.28125-2.761719-1.597656v3.191406zm0 0"/><path d="m55.453125 108.234375-2.761719-1.59375v3.1875zm0 0"/><path d="m55.453125 149.699219-2.761719-1.59375v3.1875zm0 0"/><path d="m55.453125 159.269531-2.761719-1.597656v3.191406zm0 0"/><path d="m55.453125 200.730469-2.761719-1.59375v3.191406zm0 0"/><path d="m55.453125 210.300781-2.761719-1.59375v3.1875zm0 0"/><path d="m55.453125 251.765625-2.761719-1.59375v3.1875zm0 0"/><path d="m185.277344 326.71875-2.761719-1.59375v3.191406zm0 0"/><path d="m188.039062 325.125-2.761718-1.59375v3.1875zm0 0"/><path d="m215.664062 309.175781-2.765624-1.59375v3.191407zm0 0"/><path d="m218.425781 307.582031-2.761719-1.59375v3.1875zm0 0"/><path d="m229.472656 301.203125-2.761718-1.59375v3.1875zm0 0"/><path d="m232.234375 299.609375-2.761719-1.59375v3.1875zm0 0"/><path d="m259.859375 283.660156-2.761719-1.59375v3.1875zm0 0"/><path d="m262.621094 282.066406-2.761719-1.59375v3.1875zm0 0"/><path d="m273.667969 275.6875-2.761719-1.59375v3.1875zm0 0"/><path d="m276.433594 274.09375-2.765625-1.597656v3.191406zm0 0"/><path d="m304.054688 258.144531-2.761719-1.59375v3.1875zm0 0"/><path d="m306.816406 256.550781-2.761718-1.597656v3.191406zm0 0"/><path d="m306.816406 100.261719-2.761718-1.59375v3.1875zm0 0"/><path d="m276.433594 82.71875-2.765625-1.59375v3.1875zm0 0"/><path d="m262.621094 74.746094-2.761719-1.597656v3.191406zm0 0"/><path d="m232.234375 57.203125-2.761719-1.597656v3.191406zm0 0"/><path d="m218.425781 49.226562-2.761719-1.59375v3.191407zm0 0"/><path d="m188.039062 31.683594-2.761718-1.59375v3.191406zm0 0"/><path d="m52.691406 109.828125-2.761718-1.59375v3.191406zm0 0"/><path d="m52.691406 113.019531-2.761718-1.59375v3.1875zm0 0"/><path d="m52.691406 144.914062-2.761718-1.59375v3.1875zm0 0"/><path d="m52.691406 148.105469-2.761718-1.597657v3.191407zm0 0"/><path d="m52.691406 160.863281-2.761718-1.59375v3.1875zm0 0"/><path d="m52.691406 164.050781-2.761718-1.59375v3.191407zm0 0"/><path d="m52.691406 195.949219-2.761718-1.597657v3.191407zm0 0"/><path d="m52.691406 199.136719-2.761718-1.59375v3.1875zm0 0"/><path d="m52.691406 211.894531-2.761718-1.59375v3.191407zm0 0"/><path d="m52.691406 215.085938-2.761718-1.59375v3.1875zm0 0"/><path d="m52.691406 246.980469-2.761718-1.59375v3.1875zm0 0"/><path d="m52.691406 250.171875-2.761718-1.597656v3.191406zm0 0"/><path d="m188.039062 328.316406-2.761718-1.597656v3.191406zm0 0"/><path d="m218.425781 310.773438-2.761719-1.597657v3.191407zm0 0"/><path d="m232.234375 302.796875-2.761719-1.59375v3.191406zm0 0"/><path d="m262.621094 285.253906-2.761719-1.59375v3.191406zm0 0"/><path d="m276.433594 277.28125-2.765625-1.59375v3.1875zm0 0"/><path d="m306.816406 259.738281-2.761718-1.59375v3.1875zm0 0"/><path d="m306.816406 97.070312-2.761718-1.59375v3.191407zm0 0"/><path d="m279.195312 81.125-2.761718-1.597656v3.191406zm0 0"/><path d="m262.621094 71.554688-2.761719-1.59375v3.1875zm0 0"/><path d="m235 55.605469-2.765625-1.59375v3.191406zm0 0"/><path d="m218.425781 46.039062-2.761719-1.59375v3.1875zm0 0"/><path d="m190.800781 30.089844-2.761719-1.59375v3.1875zm0 0"/><path d="m49.929688 111.425781-2.765626-1.597656v3.191406zm0 0"/><path d="m49.929688 146.507812-2.765626-1.59375v3.191407zm0 0"/><path d="m49.929688 162.457031-2.765626-1.59375v3.1875zm0 0"/><path d="m49.929688 197.542969-2.765626-1.59375v3.1875zm0 0"/><path d="m49.929688 213.492188-2.765626-1.597657v3.191407zm0 0"/><path d="m49.929688 248.574219-2.765626-1.59375v3.191406zm0 0"/><path d="m190.800781 329.910156-2.761719-1.59375v3.1875zm0 0"/><path d="m218.425781 313.960938-2.761719-1.59375v3.1875zm0 0"/><path d="m235 304.394531-2.765625-1.597656v3.191406zm0 0"/><path d="m262.621094 288.445312-2.761719-1.59375v3.1875zm0 0"/><path d="m279.195312 278.875-2.761718-1.59375v3.191406zm0 0"/><path d="m306.816406 262.929688-2.761718-1.597657v3.191407zm0 0"/><path d="m317.867188 100.261719-2.765626-1.59375v3.1875zm0 0"/><path d="m315.101562 98.667969-2.761718-1.597657v3.191407zm0 0"/><path d="m312.339844 97.070312-2.761719-1.59375v3.191407zm0 0"/><path d="m309.578125 95.476562-2.761719-1.59375v3.1875zm0 0"/><path d="m279.195312 77.933594-2.761718-1.59375v3.1875zm0 0"/><path d="m276.433594 76.339844-2.765625-1.59375v3.1875zm0 0"/><path d="m273.667969 74.746094-2.761719-1.597656v3.191406zm0 0"/><path d="m270.90625 73.148438-2.761719-1.59375v3.191406zm0 0"/><path d="m268.144531 71.554688-2.761719-1.59375v3.1875zm0 0"/><path d="m265.382812 69.960938-2.761718-1.59375v3.1875zm0 0"/><path d="m235 52.417969-2.765625-1.59375v3.1875zm0 0"/><path d="m232.234375 50.824219-2.761719-1.597657v3.191407zm0 0"/><path d="m229.472656 49.226562-2.761718-1.59375v3.191407zm0 0"/><path d="m226.710938 47.632812-2.761719-1.59375v3.1875zm0 0"/><path d="m223.949219 46.039062-2.761719-1.59375v3.1875zm0 0"/><path d="m221.1875 44.445312-2.761719-1.597656v3.191406zm0 0"/><path d="m190.800781 26.902344-2.761719-1.597656v3.191406zm0 0"/><path d="m188.039062 25.304688-2.761718-1.59375v3.191406zm0 0"/><path d="m185.277344 23.710938-2.761719-1.59375v3.1875zm0 0"/><path d="m182.515625 22.117188-2.761719-1.59375v3.1875zm0 0"/><path d="m47.164062 113.019531-2.761718-1.59375v3.1875zm0 0"/><path d="m47.164062 144.914062-2.761718-1.59375v3.1875zm0 0"/><path d="m47.164062 164.050781-2.761718-1.59375v3.191407zm0 0"/><path d="m47.164062 195.949219-2.761718-1.597657v3.191407zm0 0"/><path d="m47.164062 215.085938-2.761718-1.59375v3.1875zm0 0"/><path d="m47.164062 246.980469-2.761718-1.59375v3.1875zm0 0"/><path d="m182.515625 337.882812-2.761719-1.59375v3.1875zm0 0"/><path d="m185.277344 336.289062-2.761719-1.59375v3.1875zm0 0"/><path d="m188.039062 334.695312-2.761718-1.597656v3.191406zm0 0"/><path d="m190.800781 333.097656-2.761719-1.59375v3.191406zm0 0"/><path d="m221.1875 315.554688-2.761719-1.59375v3.191406zm0 0"/><path d="m223.949219 313.960938-2.761719-1.59375v3.1875zm0 0"/><path d="m226.710938 312.367188-2.761719-1.59375v3.1875zm0 0"/><path d="m229.472656 310.773438-2.761718-1.597657v3.191407zm0 0"/><path d="m232.234375 309.175781-2.761719-1.59375v3.191407zm0 0"/><path d="m235 307.582031-2.765625-1.59375v3.1875zm0 0"/><path d="m265.382812 290.039062-2.761718-1.59375v3.1875zm0 0"/><path d="m268.144531 288.445312-2.761719-1.59375v3.1875zm0 0"/><path d="m270.90625 286.851562-2.761719-1.597656v3.191406zm0 0"/><path d="m273.667969 285.253906-2.761719-1.59375v3.191406zm0 0"/><path d="m276.433594 283.660156-2.765625-1.59375v3.1875zm0 0"/><path d="m279.195312 282.066406-2.761718-1.59375v3.1875zm0 0"/><path d="m309.578125 264.523438-2.761719-1.59375v3.1875zm0 0"/><path d="m312.339844 262.929688-2.761719-1.597657v3.191407zm0 0"/><path d="m315.101562 261.332031-2.761718-1.59375v3.191407zm0 0"/><path d="m317.867188 259.738281-2.765626-1.59375v3.1875zm0 0"/><path d="m320.628906 98.667969-2.761718-1.597657v3.191407zm0 0"/><path d="m315.101562 95.476562-2.761718-1.59375v3.1875zm0 0"/><path d="m276.433594 73.148438-2.765625-1.59375v3.191406zm0 0"/><path d="m270.90625 69.960938-2.761719-1.59375v3.1875zm0 0"/><path d="m232.234375 47.632812-2.761719-1.59375v3.1875zm0 0"/><path d="m226.710938 44.445312-2.761719-1.597656v3.191406zm0 0"/><path d="m188.039062 22.117188-2.761718-1.59375v3.1875zm0 0"/><path d="m182.515625 18.925781-2.761719-1.59375v3.191407zm0 0"/><path d="m44.402344 101.855469-2.761719-1.59375v3.1875zm0 0"/><path d="m44.402344 105.046875-2.761719-1.597656v3.191406zm0 0"/><path d="m44.402344 108.234375-2.761719-1.59375v3.1875zm0 0"/><path d="m44.402344 111.425781-2.761719-1.597656v3.191406zm0 0"/><path d="m44.402344 146.507812-2.761719-1.59375v3.191407zm0 0"/><path d="m44.402344 149.699219-2.761719-1.59375v3.1875zm0 0"/><path d="m44.402344 152.890625-2.761719-1.597656v3.191406zm0 0"/><path d="m44.402344 156.078125-2.761719-1.59375v3.1875zm0 0"/><path d="m44.402344 159.269531-2.761719-1.597656v3.191406zm0 0"/><path d="m44.402344 162.457031-2.761719-1.59375v3.1875zm0 0"/><path d="m44.402344 197.542969-2.761719-1.59375v3.1875zm0 0"/><path d="m44.402344 200.730469-2.761719-1.59375v3.191406zm0 0"/><path d="m44.402344 203.921875-2.761719-1.59375v3.1875zm0 0"/><path d="m44.402344 207.109375-2.761719-1.59375v3.191406zm0 0"/><path d="m44.402344 210.300781-2.761719-1.59375v3.1875zm0 0"/><path d="m44.402344 213.492188-2.761719-1.597657v3.191407zm0 0"/><path d="m44.402344 248.574219-2.761719-1.59375v3.191406zm0 0"/><path d="m44.402344 251.765625-2.761719-1.59375v3.1875zm0 0"/><path d="m44.402344 254.953125-2.761719-1.59375v3.191406zm0 0"/><path d="m44.402344 258.144531-2.761719-1.59375v3.1875zm0 0"/><path d="m182.515625 341.074219-2.761719-1.597657v3.191407zm0 0"/><path d="m188.039062 337.882812-2.761718-1.59375v3.1875zm0 0"/><path d="m226.710938 315.554688-2.761719-1.59375v3.191406zm0 0"/><path d="m232.234375 312.367188-2.761719-1.59375v3.1875zm0 0"/><path d="m270.90625 290.039062-2.761719-1.59375v3.1875zm0 0"/><path d="m276.433594 286.851562-2.765625-1.597656v3.191406zm0 0"/><path d="m315.101562 264.523438-2.761718-1.59375v3.1875zm0 0"/><path d="m320.628906 261.332031-2.761718-1.59375v3.191407zm0 0"/><path d="m41.640625 100.261719-2.761719-1.59375v3.1875zm0 0"/><path d="m41.640625 106.640625-2.761719-1.59375v3.1875zm0 0"/><path d="m41.640625 151.292969-2.761719-1.59375v3.191406zm0 0"/><path d="m41.640625 157.671875-2.761719-1.59375v3.191406zm0 0"/><path d="m41.640625 202.328125-2.761719-1.597656v3.191406zm0 0"/><path d="m41.640625 208.707031-2.761719-1.597656v3.191406zm0 0"/><path d="m41.640625 253.359375-2.761719-1.59375v3.1875zm0 0"/><path d="m41.640625 259.738281-2.761719-1.59375v3.1875zm0 0"/></g></svg>