<svg height="360pt" viewBox="0 0 360 360" width="360pt" xmlns="http://www.w3.org/2000/svg"><path d="m0 0h360v360h-360z" fill="#800080"/><g fill="#fff" fill-rule="evenodd"><path d="m179.003906 167.097656 11.171875-6.449218v12.902343zm0 0"/><path d="m179.003906 192.902344 11.171875-6.453125v12.902343zm0 0"/><path d="m156.65625 180 11.171875-6.449219v12.898438zm0 0"/><path d="m201.347656 154.199219 11.171875-6.453125v12.902344zm0 0"/><path d="m179.003906 141.296875 11.171875-6.453125v12.902344zm0 0"/><path d="m179.003906 218.703125 11.171875-6.449219v12.902344zm0 0"/><path d="m201.347656 205.800781 11.171875-6.449219v12.902344zm0 0"/><path d="m212.519531 147.746094 11.175781-6.449219v12.902344zm0 0"/><path d="m179.003906 128.394531 11.171875-6.449219v12.898438zm0 0"/><path d="m134.3125 167.097656 11.171875-6.449218v12.902343zm0 0"/><path d="m134.3125 192.902344 11.171875-6.453125v12.902343zm0 0"/><path d="m179.003906 231.605469 11.171875-6.449219v12.898438zm0 0"/><path d="m212.519531 212.253906 11.175781-6.453125v12.902344zm0 0"/><path d="m123.136719 160.648438 11.175781-6.449219v12.898437zm0 0"/><path d="m123.136719 199.351562 11.175781-6.449218v12.898437zm0 0"/><path d="m223.695312 128.394531 11.171876-6.449219v12.898438zm0 0"/><path d="m190.175781 109.042969 11.171875-6.449219v12.898438zm0 0"/><path d="m190.175781 250.957031 11.171875-6.449219v12.898438zm0 0"/><path d="m223.695312 231.605469 11.171876-6.449219v12.898438zm0 0"/><path d="m223.695312 115.492188 11.171876-6.449219v12.902343zm0 0"/><path d="m201.347656 102.59375 11.171875-6.453125v12.902344zm0 0"/><path d="m100.792969 160.648438 11.171875-6.449219v12.898437zm0 0"/><path d="m100.792969 199.351562 11.171875-6.449218v12.898437zm0 0"/><path d="m201.347656 257.40625 11.171875-6.449219v12.902344zm0 0"/><path d="m223.695312 244.507812 11.171876-6.453124v12.902343zm0 0"/><path d="m257.210938 121.945312 11.175781-6.453124v12.902343zm0 0"/><path d="m246.039062 115.492188 11.171876-6.449219v12.902343zm0 0"/><path d="m234.867188 109.042969 11.171874-6.449219v12.898438zm0 0"/><path d="m223.695312 102.59375 11.171876-6.453125v12.902344zm0 0"/><path d="m212.519531 96.140625 11.175781-6.449219v12.902344zm0 0"/><path d="m201.347656 89.691406 11.171875-6.449218v12.898437zm0 0"/><path d="m190.175781 83.242188 11.171875-6.453126v12.902344zm0 0"/><path d="m179.003906 76.789062 11.171875-6.449218v12.902344zm0 0"/><path d="m89.621094 167.097656 11.171875-6.449218v12.902343zm0 0"/><path d="m89.621094 192.902344 11.171875-6.453125v12.902343zm0 0"/><path d="m179.003906 283.210938 11.171875-6.453126v12.902344zm0 0"/><path d="m190.175781 276.757812 11.171875-6.449218v12.902344zm0 0"/><path d="m201.347656 270.308594 11.171875-6.449219v12.898437zm0 0"/><path d="m212.519531 263.859375 11.175781-6.453125v12.902344zm0 0"/><path d="m223.695312 257.40625 11.171876-6.449219v12.902344zm0 0"/><path d="m234.867188 250.957031 11.171874-6.449219v12.898438zm0 0"/><path d="m246.039062 244.507812 11.171876-6.453124v12.902343zm0 0"/><path d="m257.210938 238.054688 11.175781-6.449219v12.902343zm0 0"/><path d="m78.445312 134.84375 11.175782-6.449219v12.902344zm0 0"/><path d="m78.445312 147.746094 11.175782-6.449219v12.902344zm0 0"/><path d="m78.445312 160.648438 11.175782-6.449219v12.898437zm0 0"/><path d="m78.445312 173.550781 11.175782-6.453125v12.902344zm0 0"/><path d="m78.445312 186.449219 11.175782-6.449219v12.902344zm0 0"/><path d="m78.445312 199.351562 11.175782-6.449218v12.898437zm0 0"/><path d="m78.445312 212.253906 11.175782-6.453125v12.902344zm0 0"/><path d="m78.445312 225.15625 11.175782-6.453125v12.902344zm0 0"/><path d="m201.347656 180-11.171875-6.449219v12.898438zm0 0"/><path d="m179.003906 167.097656-11.175781-6.449218v12.902343zm0 0"/><path d="m179.003906 192.902344-11.175781-6.453125v12.902343zm0 0"/><path d="m223.695312 192.902344-11.175781-6.453125v12.902343zm0 0"/><path d="m223.695312 167.097656-11.175781-6.449218v12.902343zm0 0"/><path d="m234.867188 199.351562-11.171876-6.449218v12.898437zm0 0"/><path d="m234.867188 160.648438-11.171876-6.449219v12.898437zm0 0"/><path d="m179.003906 141.296875-11.175781-6.453125v12.902344zm0 0"/><path d="m156.65625 154.199219-11.171875-6.453125v12.902344zm0 0"/><path d="m156.65625 205.800781-11.171875-6.449219v12.902344zm0 0"/><path d="m179.003906 218.703125-11.175781-6.449219v12.902344zm0 0"/><path d="m179.003906 128.394531-11.175781-6.449219v12.898438zm0 0"/><path d="m145.484375 147.746094-11.171875-6.449219v12.902344zm0 0"/><path d="m145.484375 212.253906-11.171875-6.453125v12.902344zm0 0"/><path d="m179.003906 231.605469-11.175781-6.449219v12.898438zm0 0"/><path d="m257.210938 199.351562-11.171876-6.449218v12.898437zm0 0"/><path d="m257.210938 160.648438-11.171876-6.449219v12.898437zm0 0"/><path d="m268.386719 192.902344-11.175781-6.453125v12.902343zm0 0"/><path d="m268.386719 167.097656-11.175781-6.449218v12.902343zm0 0"/><path d="m167.828125 109.042969-11.171875-6.449219v12.898438zm0 0"/><path d="m134.3125 128.394531-11.175781-6.449219v12.898438zm0 0"/><path d="m134.3125 231.605469-11.175781-6.449219v12.898438zm0 0"/><path d="m167.828125 250.957031-11.171875-6.449219v12.898438zm0 0"/><path d="m279.558594 225.15625-11.171875-6.453125v12.902344zm0 0"/><path d="m279.558594 212.253906-11.171875-6.453125v12.902344zm0 0"/><path d="m279.558594 199.351562-11.171875-6.449218v12.898437zm0 0"/><path d="m279.558594 186.449219-11.171875-6.449219v12.902344zm0 0"/><path d="m279.558594 173.550781-11.171875-6.453125v12.902344zm0 0"/><path d="m279.558594 160.648438-11.171875-6.449219v12.898437zm0 0"/><path d="m279.558594 147.746094-11.171875-6.449219v12.902344zm0 0"/><path d="m279.558594 134.84375-11.171875-6.449219v12.902344zm0 0"/><path d="m156.65625 102.59375-11.171875-6.453125v12.902344zm0 0"/><path d="m134.3125 115.492188-11.175781-6.449219v12.902343zm0 0"/><path d="m134.3125 244.507812-11.175781-6.453124v12.902343zm0 0"/><path d="m156.65625 257.40625-11.171875-6.449219v12.902344zm0 0"/><path d="m179.003906 76.789062-11.175781-6.449218v12.902344zm0 0"/><path d="m167.828125 83.242188-11.171875-6.453126v12.902344zm0 0"/><path d="m156.65625 89.691406-11.171875-6.449218v12.898437zm0 0"/><path d="m145.484375 96.140625-11.171875-6.449219v12.902344zm0 0"/><path d="m134.3125 102.59375-11.175781-6.453125v12.902344zm0 0"/><path d="m123.136719 109.042969-11.171875-6.449219v12.898438zm0 0"/><path d="m111.964844 115.492188-11.171875-6.449219v12.902343zm0 0"/><path d="m100.792969 121.945312-11.171875-6.453124v12.902343zm0 0"/><path d="m100.792969 238.054688-11.171875-6.449219v12.902343zm0 0"/><path d="m111.964844 244.507812-11.171875-6.453124v12.902343zm0 0"/><path d="m123.136719 250.957031-11.171875-6.449219v12.898438zm0 0"/><path d="m134.3125 257.40625-11.175781-6.449219v12.902344zm0 0"/><path d="m145.484375 263.859375-11.171875-6.453125v12.902344zm0 0"/><path d="m156.65625 270.308594-11.171875-6.449219v12.898437zm0 0"/><path d="m167.828125 276.757812-11.171875-6.449218v12.902344zm0 0"/><path d="m179.003906 283.210938-11.175781-6.453126v12.902344zm0 0"/></g></svg>