<svg height="360pt" viewBox="0 0 360 360" width="360pt" xmlns="http://www.w3.org/2000/svg"><path d="m0 0h360v360h-360z" fill="#fff"/><g fill="#800080"><path d="m182.597656 184.496094 7.789063-4.496094v8.996094zm0 0"/><path d="m182.597656 175.503906 7.789063-4.5v8.996094zm0 0"/><path d="m174.804688 171.003906 7.792968-4.496094v8.996094zm0 0"/><path d="m167.015625 175.503906 7.789063-4.5v8.996094zm0 0"/><path d="m190.386719 180 7.789062-4.496094v8.992188zm0 0"/><path d="m190.386719 171.003906 7.789062-4.496094v8.996094zm0 0"/><path d="m167.015625 193.492188 7.789063-4.496094v8.996094zm0 0"/><path d="m182.597656 193.492188 7.789063-4.496094v8.996094zm0 0"/><path d="m198.175781 193.492188 7.792969-4.496094v8.996094zm0 0"/><path d="m198.175781 175.503906 7.792969-4.5v8.996094zm0 0"/><path d="m190.386719 162.007812 7.789062-4.496093v8.996093zm0 0"/><path d="m174.804688 153.015625 7.792968-4.5v8.996094zm0 0"/><path d="m167.015625 157.511719 7.789063-4.496094v8.992187zm0 0"/><path d="m151.4375 166.507812 7.789062-4.5v8.996094zm0 0"/><path d="m151.4375 175.503906 7.789062-4.5v8.996094zm0 0"/><path d="m151.4375 184.496094 7.789062-4.496094v8.996094zm0 0"/><path d="m174.804688 206.984375 7.792968-4.496094v8.996094zm0 0"/><path d="m190.386719 197.992188 7.789062-4.5v8.996093zm0 0"/><path d="m205.96875 180 7.789062-4.496094v8.992188zm0 0"/><path d="m205.96875 171.003906 7.789062-4.496094v8.996094zm0 0"/><path d="m205.96875 162.007812 7.789062-4.496093v8.996093zm0 0"/><path d="m190.386719 153.015625 7.789062-4.5v8.996094zm0 0"/><path d="m174.804688 144.019531 7.792968-4.5v8.996094zm0 0"/><path d="m167.015625 148.515625 7.789063-4.496094v8.996094zm0 0"/><path d="m159.226562 206.984375 7.789063-4.496094v8.996094zm0 0"/><path d="m167.015625 211.484375 7.789063-4.5v8.996094zm0 0"/><path d="m182.597656 211.484375 7.789063-4.5v8.996094zm0 0"/><path d="m190.386719 206.984375 7.789062-4.496094v8.996094zm0 0"/><path d="m198.175781 202.488281 7.792969-4.496093v8.992187zm0 0"/><path d="m213.757812 202.488281 7.789063-4.496093v8.992187zm0 0"/><path d="m213.757812 184.496094 7.789063-4.496094v8.996094zm0 0"/><path d="m213.757812 175.503906 7.789063-4.5v8.996094zm0 0"/><path d="m213.757812 157.511719 7.789063-4.496094v8.992187zm0 0"/><path d="m198.175781 148.515625 7.792969-4.496094v8.996094zm0 0"/><path d="m190.386719 144.019531 7.789062-4.5v8.996094zm0 0"/><path d="m182.597656 139.519531 7.789063-4.496093v8.996093zm0 0"/><path d="m167.015625 139.519531 7.789063-4.496093v8.996093zm0 0"/><path d="m159.226562 144.019531 7.789063-4.5v8.996094zm0 0"/><path d="m143.644531 153.015625 7.792969-4.5v8.996094zm0 0"/><path d="m135.855469 193.492188 7.789062-4.496094v8.996094zm0 0"/><path d="m151.4375 211.484375 7.789062-4.5v8.996094zm0 0"/><path d="m174.804688 224.976562 7.792968-4.496093v8.992187zm0 0"/><path d="m221.546875 206.984375 7.789063-4.496094v8.996094zm0 0"/><path d="m221.546875 180 7.789063-4.496094v8.992188zm0 0"/><path d="m221.546875 171.003906 7.789063-4.496094v8.996094zm0 0"/><path d="m221.546875 162.007812 7.789063-4.496093v8.996093zm0 0"/><path d="m221.546875 153.015625 7.789063-4.5v8.996094zm0 0"/><path d="m182.597656 130.527344 7.789063-4.5v8.996094zm0 0"/><path d="m174.804688 126.027344 7.792968-4.496094v8.996094zm0 0"/><path d="m167.015625 130.527344 7.789063-4.5v8.996094zm0 0"/><path d="m159.226562 135.023438 7.789063-4.496094v8.992187zm0 0"/><path d="m151.4375 139.519531 7.789062-4.496093v8.996093zm0 0"/><path d="m128.066406 188.996094 7.789063-4.5v8.996094zm0 0"/><path d="m135.855469 211.484375 7.789062-4.5v8.996094zm0 0"/><path d="m143.644531 215.980469 7.792969-4.496094v8.996094zm0 0"/><path d="m167.015625 229.472656 7.789063-4.496094v8.996094zm0 0"/><path d="m174.804688 233.972656 7.792968-4.5v8.996094zm0 0"/><path d="m182.597656 229.472656 7.789063-4.496094v8.996094zm0 0"/><path d="m190.386719 224.976562 7.789062-4.496093v8.992187zm0 0"/><path d="m229.335938 193.492188 7.792968-4.496094v8.996094zm0 0"/><path d="m229.335938 166.507812 7.792968-4.5v8.996094zm0 0"/><path d="m229.335938 148.515625 7.792968-4.496094v8.996094zm0 0"/><path d="m213.757812 139.519531 7.789063-4.496093v8.996093zm0 0"/><path d="m205.96875 135.023438 7.789062-4.496094v8.992187zm0 0"/><path d="m174.804688 117.03125 7.792968-4.496094v8.996094zm0 0"/><path d="m143.644531 135.023438 7.792969-4.496094v8.992187zm0 0"/><path d="m135.855469 139.519531 7.789062-4.496093v8.996093zm0 0"/><path d="m120.273438 148.515625 7.792968-4.496094v8.996094zm0 0"/><path d="m120.273438 166.507812 7.792968-4.5v8.996094zm0 0"/><path d="m120.273438 211.484375 7.792968-4.5v8.996094zm0 0"/><path d="m159.226562 233.972656 7.789063-4.5v8.996094zm0 0"/><path d="m167.015625 238.46875 7.789063-4.496094v8.996094zm0 0"/><path d="m174.804688 242.96875 7.792968-4.5v8.996094zm0 0"/><path d="m190.386719 233.972656 7.789062-4.5v8.996094zm0 0"/><path d="m198.175781 229.472656 7.792969-4.496094v8.996094zm0 0"/><path d="m205.96875 224.976562 7.789062-4.496093v8.992187zm0 0"/><path d="m221.546875 215.980469 7.789063-4.496094v8.996094zm0 0"/><path d="m237.128906 206.984375 7.789063-4.496094v8.996094zm0 0"/><path d="m237.128906 180 7.789063-4.496094v8.992188zm0 0"/><path d="m213.757812 130.527344 7.789063-4.5v8.996094zm0 0"/><path d="m198.175781 121.53125 7.792969-4.5v8.996094zm0 0"/><path d="m190.386719 117.03125 7.789062-4.496094v8.996094zm0 0"/><path d="m151.4375 121.53125 7.789062-4.5v8.996094zm0 0"/><path d="m143.644531 126.027344 7.792969-4.496094v8.996094zm0 0"/><path d="m135.855469 130.527344 7.789062-4.5v8.996094zm0 0"/><path d="m120.273438 139.519531 7.792968-4.496093v8.996093zm0 0"/><path d="m112.484375 171.003906 7.789063-4.496094v8.996094zm0 0"/><path d="m112.484375 180 7.789063-4.496094v8.992188zm0 0"/><path d="m112.484375 206.984375 7.789063-4.496094v8.996094zm0 0"/><path d="m120.273438 220.480469 7.792968-4.5v8.996093zm0 0"/><path d="m128.066406 224.976562 7.789063-4.496093v8.992187zm0 0"/><path d="m151.4375 238.46875 7.789062-4.496094v8.996094zm0 0"/><path d="m213.757812 229.472656 7.789063-4.496094v8.996094zm0 0"/><path d="m221.546875 224.976562 7.789063-4.496093v8.992187zm0 0"/><path d="m229.335938 220.480469 7.792968-4.5v8.996093zm0 0"/><path d="m244.917969 211.484375 7.789062-4.5v8.996094zm0 0"/><path d="m244.917969 202.488281 7.789062-4.496093v8.992187zm0 0"/><path d="m244.917969 193.492188 7.789062-4.496094v8.996094zm0 0"/><path d="m244.917969 175.503906 7.789062-4.5v8.996094zm0 0"/><path d="m244.917969 166.507812 7.789062-4.5v8.996094zm0 0"/><path d="m244.917969 157.511719 7.789062-4.496094v8.992187zm0 0"/><path d="m244.917969 148.515625 7.789062-4.496094v8.996094zm0 0"/><path d="m237.128906 135.023438 7.789063-4.496094v8.992187zm0 0"/><path d="m229.335938 130.527344 7.792968-4.5v8.996094zm0 0"/><path d="m221.546875 126.027344 7.789063-4.496094v8.996094zm0 0"/><path d="m190.386719 108.039062 7.789062-4.5v8.996094zm0 0"/><path d="m182.597656 103.539062 7.789063-4.496093v8.996093zm0 0"/><path d="m167.015625 103.539062 7.789063-4.496093v8.996093zm0 0"/><path d="m120.273438 130.527344 7.792968-4.5v8.996094zm0 0"/><path d="m112.484375 135.023438 7.789063-4.496094v8.992187zm0 0"/><path d="m104.695312 148.515625 7.789063-4.496094v8.996094zm0 0"/><path d="m104.695312 157.511719 7.789063-4.496094v8.992187zm0 0"/><path d="m104.695312 175.503906 7.789063-4.5v8.996094zm0 0"/><path d="m104.695312 184.496094 7.789063-4.496094v8.996094zm0 0"/><path d="m104.695312 193.492188 7.789063-4.496094v8.996094zm0 0"/><path d="m104.695312 211.484375 7.789063-4.5v8.996094zm0 0"/><path d="m104.695312 220.480469 7.789063-4.5v8.996093zm0 0"/><path d="m112.484375 224.976562 7.789063-4.496093v8.992187zm0 0"/><path d="m128.066406 233.972656 7.789063-4.5v8.996094zm0 0"/><path d="m143.644531 242.96875 7.792969-4.5v8.996094zm0 0"/><path d="m159.226562 251.960938 7.789063-4.496094v8.996094zm0 0"/><path d="m167.015625 256.460938 7.789063-4.5v8.996093zm0 0"/><path d="m174.804688 260.957031 7.792968-4.496093v8.996093zm0 0"/><path d="m205.96875 242.96875 7.789062-4.5v8.996094zm0 0"/><path d="m221.546875 233.972656 7.789063-4.5v8.996094zm0 0"/><path d="m252.707031 224.976562 7.792969-4.496093v8.992187zm0 0"/><path d="m252.707031 215.980469 7.792969-4.496094v8.996094zm0 0"/><path d="m252.707031 188.996094 7.792969-4.5v8.996094zm0 0"/><path d="m252.707031 180 7.792969-4.496094v8.992188zm0 0"/><path d="m252.707031 171.003906 7.792969-4.496094v8.996094zm0 0"/><path d="m252.707031 144.019531 7.792969-4.5v8.996094zm0 0"/><path d="m252.707031 135.023438 7.792969-4.496094v8.992187zm0 0"/><path d="m244.917969 130.527344 7.789062-4.5v8.996094zm0 0"/><path d="m221.546875 117.03125 7.789063-4.496094v8.996094zm0 0"/><path d="m213.757812 112.535156 7.789063-4.496094v8.992188zm0 0"/><path d="m205.96875 108.039062 7.789062-4.5v8.996094zm0 0"/><path d="m174.804688 90.046875 7.792968-4.496094v8.992188zm0 0"/><path d="m159.226562 99.042969 7.789063-4.5v8.996093zm0 0"/><path d="m151.4375 103.539062 7.789062-4.496093v8.996093zm0 0"/><path d="m135.855469 112.535156 7.789062-4.496094v8.992188zm0 0"/><path d="m120.273438 121.53125 7.792968-4.5v8.996094zm0 0"/><path d="m112.484375 126.027344 7.789063-4.496094v8.996094zm0 0"/><path d="m96.90625 135.023438 7.789062-4.496094v8.992187zm0 0"/><path d="m96.90625 144.019531 7.789062-4.5v8.996094zm0 0"/><path d="m96.90625 171.003906 7.789062-4.496094v8.996094zm0 0"/><path d="m96.90625 188.996094 7.789062-4.5v8.996094zm0 0"/><path d="m96.90625 197.992188 7.789062-4.5v8.996093zm0 0"/><path d="m96.90625 224.976562 7.789062-4.496093v8.992187zm0 0"/><path d="m112.484375 233.972656 7.789063-4.5v8.996094zm0 0"/><path d="m120.273438 238.46875 7.792968-4.496094v8.996094zm0 0"/><path d="m143.644531 251.960938 7.792969-4.496094v8.996094zm0 0"/><path d="m159.226562 260.957031 7.789063-4.496093v8.996093zm0 0"/><path d="m167.015625 265.457031 7.789063-4.5v8.996094zm0 0"/><path d="m205.96875 251.960938 7.789062-4.496094v8.996094zm0 0"/><path d="m213.757812 247.464844 7.789063-4.496094v8.992188zm0 0"/><path d="m244.917969 229.472656 7.789062-4.496094v8.996094zm0 0"/><path d="m260.5 229.472656 7.789062-4.496094v8.996094zm0 0"/><path d="m260.5 211.484375 7.789062-4.5v8.996094zm0 0"/><path d="m260.5 193.492188 7.789062-4.496094v8.996094zm0 0"/><path d="m260.5 184.496094 7.789062-4.496094v8.996094zm0 0"/><path d="m260.5 175.503906 7.789062-4.5v8.996094zm0 0"/><path d="m260.5 157.511719 7.789062-4.496094v8.992187zm0 0"/><path d="m260.5 148.515625 7.789062-4.496094v8.996094zm0 0"/><path d="m252.707031 126.027344 7.792969-4.496094v8.996094zm0 0"/><path d="m221.546875 108.039062 7.789063-4.5v8.996094zm0 0"/><path d="m190.386719 90.046875 7.789062-4.496094v8.992188zm0 0"/><path d="m182.597656 85.550781 7.789063-4.5v8.996094zm0 0"/><path d="m174.804688 81.050781 7.792968-4.496093v8.996093zm0 0"/><path d="m167.015625 85.550781 7.789063-4.5v8.996094zm0 0"/><path d="m159.226562 90.046875 7.789063-4.496094v8.992188zm0 0"/><path d="m135.855469 103.539062 7.789062-4.496093v8.996093zm0 0"/><path d="m112.484375 117.03125 7.789063-4.496094v8.996094zm0 0"/><path d="m89.113281 130.527344 7.792969-4.5v8.996094zm0 0"/><path d="m89.113281 148.515625 7.792969-4.496094v8.996094zm0 0"/><path d="m89.113281 157.511719 7.792969-4.496094v8.992187zm0 0"/><path d="m89.113281 166.507812 7.792969-4.5v8.996094zm0 0"/><path d="m89.113281 184.496094 7.792969-4.496094v8.996094zm0 0"/><path d="m89.113281 193.492188 7.792969-4.496094v8.996094zm0 0"/><path d="m89.113281 229.472656 7.792969-4.496094v8.996094zm0 0"/><path d="m112.484375 242.96875 7.789063-4.5v8.996094zm0 0"/><path d="m128.066406 251.960938 7.789063-4.496094v8.996094zm0 0"/><path d="m143.644531 260.957031 7.792969-4.496093v8.996093zm0 0"/><path d="m151.4375 265.457031 7.789062-4.5v8.996094zm0 0"/><path d="m174.804688 278.949219 7.792968-4.5v8.996093zm0 0"/><path d="m182.597656 274.449219 7.789063-4.496094v8.996094zm0 0"/><path d="m198.175781 265.457031 7.792969-4.5v8.996094zm0 0"/><path d="m205.96875 260.957031 7.789062-4.496093v8.996093zm0 0"/><path d="m229.335938 247.464844 7.792968-4.496094v8.992188zm0 0"/><path d="m237.128906 242.96875 7.789063-4.5v8.996094zm0 0"/><path d="m268.289062 206.984375 7.789063-4.496094v8.996094zm0 0"/><path d="m268.289062 188.996094 7.789063-4.5v8.996094zm0 0"/><path d="m268.289062 180 7.789063-4.496094v8.992188zm0 0"/><path d="m268.289062 171.003906 7.789063-4.496094v8.996094zm0 0"/><path d="m268.289062 162.007812 7.789063-4.496093v8.996093zm0 0"/><path d="m268.289062 153.015625 7.789063-4.5v8.996094zm0 0"/><path d="m268.289062 144.019531 7.789063-4.5v8.996094zm0 0"/><path d="m260.5 121.53125 7.789062-4.5v8.996094zm0 0"/><path d="m252.707031 117.03125 7.792969-4.496094v8.996094zm0 0"/><path d="m190.386719 81.050781 7.789062-4.496093v8.996093zm0 0"/><path d="m174.804688 72.054688 7.792968-4.496094v8.996094zm0 0"/><path d="m167.015625 76.554688 7.789063-4.5v8.996093zm0 0"/><path d="m143.644531 90.046875 7.792969-4.496094v8.992188zm0 0"/><path d="m128.066406 99.042969 7.789063-4.5v8.996093zm0 0"/><path d="m104.695312 112.535156 7.789063-4.496094v8.992188zm0 0"/><path d="m89.113281 121.53125 7.792969-4.5v8.996094zm0 0"/><path d="m81.324219 171.003906 7.789062-4.496094v8.996094zm0 0"/><path d="m81.324219 215.980469 7.789062-4.496094v8.996094zm0 0"/><path d="m81.324219 224.976562 7.789062-4.496093v8.992187zm0 0"/><path d="m96.90625 242.96875 7.789062-4.5v8.996094zm0 0"/><path d="m104.695312 247.464844 7.789063-4.496094v8.992188zm0 0"/><path d="m120.273438 256.460938 7.792968-4.5v8.996093zm0 0"/><path d="m128.066406 260.957031 7.789063-4.496093v8.996093zm0 0"/><path d="m143.644531 269.953125 7.792969-4.496094v8.992188zm0 0"/><path d="m151.4375 274.449219 7.789062-4.496094v8.996094zm0 0"/><path d="m159.226562 278.949219 7.789063-4.5v8.996093zm0 0"/><path d="m182.597656 283.445312 7.789063-4.496093v8.996093zm0 0"/><path d="m190.386719 278.949219 7.789062-4.5v8.996093zm0 0"/><path d="m198.175781 274.449219 7.792969-4.496094v8.996094zm0 0"/><path d="m229.335938 256.460938 7.792968-4.5v8.996093zm0 0"/><path d="m252.707031 242.96875 7.792969-4.5v8.996094zm0 0"/><path d="m260.5 238.46875 7.789062-4.496094v8.996094zm0 0"/><path d="m276.078125 220.480469 7.789063-4.5v8.996093zm0 0"/><path d="m276.078125 175.503906 7.789063-4.5v8.996094zm0 0"/><path d="m229.335938 94.542969 7.792968-4.496094v8.996094zm0 0"/><path d="m221.546875 90.046875 7.789063-4.496094v8.992188zm0 0"/><path d="m151.4375 76.554688 7.789062-4.5v8.996093zm0 0"/><path d="m143.644531 81.050781 7.792969-4.496093v8.996093zm0 0"/><path d="m104.695312 103.539062 7.789063-4.496093v8.996093zm0 0"/><path d="m96.90625 108.039062 7.789062-4.5v8.996094zm0 0"/><path d="m73.535156 157.511719 7.789063-4.496094v8.992187zm0 0"/><path d="m73.535156 175.503906 7.789063-4.5v8.996094zm0 0"/><path d="m73.535156 184.496094 7.789063-4.496094v8.996094zm0 0"/><path d="m73.535156 193.492188 7.789063-4.496094v8.996094zm0 0"/><path d="m73.535156 211.484375 7.789063-4.5v8.996094zm0 0"/><path d="m120.273438 265.457031 7.792968-4.5v8.996094zm0 0"/><path d="m135.855469 274.449219 7.789062-4.496094v8.996094zm0 0"/><path d="m143.644531 278.949219 7.792969-4.5v8.996093zm0 0"/><path d="m205.96875 278.949219 7.789062-4.5v8.996093zm0 0"/><path d="m237.128906 260.957031 7.789063-4.496093v8.996093zm0 0"/><path d="m260.5 247.464844 7.789062-4.496094v8.992188zm0 0"/><path d="m283.867188 180 7.792968-4.496094v8.992188zm0 0"/><path d="m213.757812 76.554688 7.789063-4.5v8.996093zm0 0"/><path d="m205.96875 72.054688 7.789062-4.496094v8.996094zm0 0"/><path d="m128.066406 81.050781 7.789063-4.496093v8.996093zm0 0"/><path d="m120.273438 85.550781 7.792968-4.5v8.996094zm0 0"/><path d="m112.484375 90.046875 7.789063-4.496094v8.992188zm0 0"/><path d="m65.742188 162.007812 7.792968-4.496093v8.996093zm0 0"/><path d="m65.742188 171.003906 7.792968-4.496094v8.996094zm0 0"/><path d="m65.742188 180 7.792968-4.496094v8.992188zm0 0"/><path d="m65.742188 188.996094 7.792968-4.5v8.996094zm0 0"/><path d="m65.742188 197.992188 7.792968-4.5v8.996093zm0 0"/><path d="m128.066406 278.949219 7.789063-4.5v8.996093zm0 0"/><path d="m135.855469 283.445312 7.789062-4.496093v8.996093zm0 0"/><path d="m143.644531 287.945312 7.792969-4.5v8.996094zm0 0"/><path d="m252.707031 260.957031 7.792969-4.496093v8.996093zm0 0"/><path d="m57.953125 166.507812 7.789063-4.5v8.996094zm0 0"/><path d="m57.953125 175.503906 7.789063-4.5v8.996094zm0 0"/><path d="m57.953125 184.496094 7.789063-4.496094v8.996094zm0 0"/><path d="m57.953125 193.492188 7.789063-4.496094v8.996094zm0 0"/><path d="m190.386719 180-7.789063-4.496094v8.992188zm0 0"/><path d="m198.175781 184.496094-7.789062-4.496094v8.996094zm0 0"/><path d="m198.175781 175.503906-7.789062-4.5v8.996094zm0 0"/><path d="m182.597656 166.507812-7.792968-4.5v8.996094zm0 0"/><path d="m174.804688 188.996094-7.789063-4.5v8.996094zm0 0"/><path d="m205.96875 188.996094-7.792969-4.5v8.996094zm0 0"/><path d="m205.96875 180-7.792969-4.496094v8.992188zm0 0"/><path d="m205.96875 171.003906-7.792969-4.496094v8.996094zm0 0"/><path d="m198.175781 166.507812-7.789062-4.5v8.996094zm0 0"/><path d="m174.804688 162.007812-7.789063-4.496093v8.996093zm0 0"/><path d="m167.015625 166.507812-7.789063-4.5v8.996094zm0 0"/><path d="m167.015625 175.503906-7.789063-4.5v8.996094zm0 0"/><path d="m167.015625 184.496094-7.789063-4.496094v8.996094zm0 0"/><path d="m167.015625 193.492188-7.789063-4.496094v8.996094zm0 0"/><path d="m174.804688 197.992188-7.789063-4.5v8.996093zm0 0"/><path d="m190.386719 197.992188-7.789063-4.5v8.996093zm0 0"/><path d="m198.175781 193.492188-7.789062-4.496094v8.996094zm0 0"/><path d="m213.757812 175.503906-7.789062-4.5v8.996094zm0 0"/><path d="m205.96875 162.007812-7.792969-4.496093v8.996093zm0 0"/><path d="m182.597656 148.515625-7.792968-4.496094v8.996094zm0 0"/><path d="m159.226562 188.996094-7.789062-4.5v8.996094zm0 0"/><path d="m167.015625 202.488281-7.789063-4.496093v8.992187zm0 0"/><path d="m182.597656 211.484375-7.792968-4.5v8.996094zm0 0"/><path d="m190.386719 206.984375-7.789063-4.496094v8.996094zm0 0"/><path d="m198.175781 202.488281-7.789062-4.496093v8.992187zm0 0"/><path d="m205.96875 197.992188-7.792969-4.5v8.996093zm0 0"/><path d="m221.546875 188.996094-7.789063-4.5v8.996094zm0 0"/><path d="m221.546875 180-7.789063-4.496094v8.992188zm0 0"/><path d="m221.546875 171.003906-7.789063-4.496094v8.996094zm0 0"/><path d="m213.757812 157.511719-7.789062-4.496094v8.992187zm0 0"/><path d="m205.96875 153.015625-7.792969-4.5v8.996094zm0 0"/><path d="m190.386719 144.019531-7.789063-4.5v8.996094zm0 0"/><path d="m182.597656 139.519531-7.792968-4.496093v8.996093zm0 0"/><path d="m151.4375 157.511719-7.792969-4.496094v8.992187zm0 0"/><path d="m151.4375 175.503906-7.792969-4.5v8.996094zm0 0"/><path d="m151.4375 184.496094-7.792969-4.496094v8.996094zm0 0"/><path d="m151.4375 193.492188-7.792969-4.496094v8.996094zm0 0"/><path d="m159.226562 206.984375-7.789062-4.496094v8.996094zm0 0"/><path d="m174.804688 215.980469-7.789063-4.496094v8.996094zm0 0"/><path d="m198.175781 211.484375-7.789062-4.5v8.996094zm0 0"/><path d="m205.96875 206.984375-7.792969-4.496094v8.996094zm0 0"/><path d="m229.335938 202.488281-7.789063-4.496093v8.992187zm0 0"/><path d="m229.335938 184.496094-7.789063-4.496094v8.996094zm0 0"/><path d="m229.335938 175.503906-7.789063-4.5v8.996094zm0 0"/><path d="m229.335938 157.511719-7.789063-4.496094v8.992187zm0 0"/><path d="m221.546875 153.015625-7.789063-4.5v8.996094zm0 0"/><path d="m205.96875 144.019531-7.792969-4.5v8.996094zm0 0"/><path d="m159.226562 144.019531-7.789062-4.5v8.996094zm0 0"/><path d="m151.4375 148.515625-7.792969-4.496094v8.996094zm0 0"/><path d="m143.644531 162.007812-7.789062-4.496093v8.996093zm0 0"/><path d="m143.644531 171.003906-7.789062-4.496094v8.996094zm0 0"/><path d="m143.644531 197.992188-7.789062-4.5v8.996093zm0 0"/><path d="m159.226562 215.980469-7.789062-4.496094v8.996094zm0 0"/><path d="m182.597656 229.472656-7.792968-4.496094v8.996094zm0 0"/><path d="m190.386719 224.976562-7.789063-4.496093v8.992187zm0 0"/><path d="m237.128906 188.996094-7.792968-4.5v8.996094zm0 0"/><path d="m237.128906 180-7.792968-4.496094v8.992188zm0 0"/><path d="m237.128906 171.003906-7.792968-4.496094v8.996094zm0 0"/><path d="m237.128906 162.007812-7.792968-4.496093v8.996093zm0 0"/><path d="m237.128906 153.015625-7.792968-4.5v8.996094zm0 0"/><path d="m221.546875 144.019531-7.789063-4.5v8.996094zm0 0"/><path d="m174.804688 126.027344-7.789063-4.496094v8.996094zm0 0"/><path d="m167.015625 130.527344-7.789063-4.5v8.996094zm0 0"/><path d="m159.226562 135.023438-7.789062-4.496094v8.992187zm0 0"/><path d="m135.855469 157.511719-7.789063-4.496094v8.992187zm0 0"/><path d="m135.855469 166.507812-7.789063-4.5v8.996094zm0 0"/><path d="m135.855469 175.503906-7.789063-4.5v8.996094zm0 0"/><path d="m167.015625 229.472656-7.789063-4.496094v8.996094zm0 0"/><path d="m174.804688 233.972656-7.789063-4.5v8.996094zm0 0"/><path d="m190.386719 233.972656-7.789063-4.5v8.996094zm0 0"/><path d="m198.175781 229.472656-7.789062-4.496094v8.996094zm0 0"/><path d="m244.917969 211.484375-7.789063-4.5v8.996094zm0 0"/><path d="m244.917969 184.496094-7.789063-4.496094v8.996094zm0 0"/><path d="m237.128906 144.019531-7.792968-4.5v8.996094zm0 0"/><path d="m221.546875 135.023438-7.789063-4.496094v8.992187zm0 0"/><path d="m213.757812 130.527344-7.789062-4.5v8.996094zm0 0"/><path d="m159.226562 126.027344-7.789062-4.496094v8.996094zm0 0"/><path d="m135.855469 139.519531-7.789063-4.496093v8.996093zm0 0"/><path d="m128.066406 144.019531-7.792968-4.5v8.996094zm0 0"/><path d="m128.066406 153.015625-7.792968-4.5v8.996094zm0 0"/><path d="m128.066406 162.007812-7.792968-4.496093v8.996093zm0 0"/><path d="m128.066406 197.992188-7.792968-4.5v8.996093zm0 0"/><path d="m128.066406 206.984375-7.792968-4.496094v8.996094zm0 0"/><path d="m151.4375 229.472656-7.792969-4.496094v8.996094zm0 0"/><path d="m174.804688 242.96875-7.789063-4.5v8.996094zm0 0"/><path d="m213.757812 229.472656-7.789062-4.496094v8.996094zm0 0"/><path d="m221.546875 224.976562-7.789063-4.496093v8.992187zm0 0"/><path d="m229.335938 220.480469-7.789063-4.5v8.996093zm0 0"/><path d="m237.128906 215.980469-7.792968-4.496094v8.996094zm0 0"/><path d="m252.707031 215.980469-7.789062-4.496094v8.996094zm0 0"/><path d="m252.707031 206.984375-7.789062-4.496094v8.996094zm0 0"/><path d="m252.707031 180-7.789062-4.496094v8.992188zm0 0"/><path d="m252.707031 162.007812-7.789062-4.496093v8.996093zm0 0"/><path d="m252.707031 144.019531-7.789062-4.5v8.996094zm0 0"/><path d="m237.128906 135.023438-7.792968-4.496094v8.992187zm0 0"/><path d="m221.546875 126.027344-7.789063-4.496094v8.996094zm0 0"/><path d="m198.175781 112.535156-7.789062-4.496094v8.992188zm0 0"/><path d="m174.804688 108.039062-7.789063-4.5v8.996094zm0 0"/><path d="m167.015625 112.535156-7.789063-4.496094v8.992188zm0 0"/><path d="m159.226562 117.03125-7.789062-4.496094v8.996094zm0 0"/><path d="m151.4375 121.53125-7.792969-4.5v8.996094zm0 0"/><path d="m135.855469 130.527344-7.789063-4.5v8.996094zm0 0"/><path d="m128.066406 135.023438-7.792968-4.496094v8.992187zm0 0"/><path d="m120.273438 139.519531-7.789063-4.496093v8.996093zm0 0"/><path d="m120.273438 148.515625-7.789063-4.496094v8.996094zm0 0"/><path d="m120.273438 175.503906-7.789063-4.5v8.996094zm0 0"/><path d="m120.273438 184.496094-7.789063-4.496094v8.996094zm0 0"/><path d="m120.273438 193.492188-7.789063-4.496094v8.996094zm0 0"/><path d="m120.273438 211.484375-7.789063-4.5v8.996094zm0 0"/><path d="m120.273438 220.480469-7.789063-4.5v8.996093zm0 0"/><path d="m135.855469 229.472656-7.789063-4.496094v8.996094zm0 0"/><path d="m143.644531 233.972656-7.789062-4.5v8.996094zm0 0"/><path d="m151.4375 238.46875-7.792969-4.496094v8.996094zm0 0"/><path d="m174.804688 251.960938-7.789063-4.496094v8.996094zm0 0"/><path d="m182.597656 256.460938-7.792968-4.5v8.996093zm0 0"/><path d="m213.757812 238.46875-7.789062-4.496094v8.996094zm0 0"/><path d="m221.546875 233.972656-7.789063-4.5v8.996094zm0 0"/><path d="m229.335938 229.472656-7.789063-4.496094v8.996094zm0 0"/><path d="m237.128906 224.976562-7.792968-4.496093v8.992187zm0 0"/><path d="m260.5 211.484375-7.792969-4.5v8.996094zm0 0"/><path d="m260.5 202.488281-7.792969-4.496093v8.992187zm0 0"/><path d="m260.5 184.496094-7.792969-4.496094v8.996094zm0 0"/><path d="m260.5 157.511719-7.792969-4.496094v8.992187zm0 0"/><path d="m252.707031 135.023438-7.789062-4.496094v8.992187zm0 0"/><path d="m244.917969 130.527344-7.789063-4.5v8.996094zm0 0"/><path d="m237.128906 126.027344-7.792968-4.496094v8.996094zm0 0"/><path d="m229.335938 121.53125-7.789063-4.5v8.996094zm0 0"/><path d="m190.386719 99.042969-7.789063-4.5v8.996093zm0 0"/><path d="m174.804688 99.042969-7.789063-4.5v8.996093zm0 0"/><path d="m151.4375 112.535156-7.792969-4.496094v8.992188zm0 0"/><path d="m143.644531 117.03125-7.789062-4.496094v8.996094zm0 0"/><path d="m120.273438 130.527344-7.789063-4.5v8.996094zm0 0"/><path d="m112.484375 144.019531-7.789063-4.5v8.996094zm0 0"/><path d="m112.484375 162.007812-7.789063-4.496093v8.996093zm0 0"/><path d="m112.484375 171.003906-7.789063-4.496094v8.996094zm0 0"/><path d="m112.484375 180-7.789063-4.496094v8.992188zm0 0"/><path d="m112.484375 197.992188-7.789063-4.5v8.996093zm0 0"/><path d="m112.484375 206.984375-7.789063-4.496094v8.996094zm0 0"/><path d="m112.484375 215.980469-7.789063-4.496094v8.996094zm0 0"/><path d="m112.484375 224.976562-7.789063-4.496093v8.992187zm0 0"/><path d="m120.273438 229.472656-7.789063-4.496094v8.996094zm0 0"/><path d="m128.066406 233.972656-7.792968-4.5v8.996094zm0 0"/><path d="m151.4375 247.464844-7.792969-4.496094v8.992188zm0 0"/><path d="m167.015625 256.460938-7.789063-4.5v8.996093zm0 0"/><path d="m174.804688 260.957031-7.789063-4.496093v8.996093zm0 0"/><path d="m182.597656 265.457031-7.792968-4.5v8.996094zm0 0"/><path d="m198.175781 256.460938-7.789062-4.5v8.996093zm0 0"/><path d="m229.335938 238.46875-7.789063-4.496094v8.996094zm0 0"/><path d="m268.289062 224.976562-7.789062-4.496093v8.992187zm0 0"/><path d="m268.289062 215.980469-7.789062-4.496094v8.996094zm0 0"/><path d="m268.289062 188.996094-7.789062-4.5v8.996094zm0 0"/><path d="m268.289062 180-7.789062-4.496094v8.992188zm0 0"/><path d="m268.289062 171.003906-7.789062-4.496094v8.996094zm0 0"/><path d="m252.707031 126.027344-7.789062-4.496094v8.996094zm0 0"/><path d="m244.917969 121.53125-7.789063-4.5v8.996094zm0 0"/><path d="m221.546875 108.039062-7.789063-4.5v8.996094zm0 0"/><path d="m205.96875 99.042969-7.792969-4.5v8.996093zm0 0"/><path d="m190.386719 90.046875-7.789063-4.496094v8.992188zm0 0"/><path d="m182.597656 85.550781-7.792968-4.5v8.996094zm0 0"/><path d="m174.804688 90.046875-7.789063-4.496094v8.992188zm0 0"/><path d="m159.226562 99.042969-7.789062-4.5v8.996093zm0 0"/><path d="m151.4375 103.539062-7.792969-4.496093v8.996093zm0 0"/><path d="m128.066406 117.03125-7.792968-4.496094v8.996094zm0 0"/><path d="m104.695312 148.515625-7.789062-4.496094v8.996094zm0 0"/><path d="m104.695312 157.511719-7.789062-4.496094v8.992187zm0 0"/><path d="m104.695312 184.496094-7.789062-4.496094v8.996094zm0 0"/><path d="m104.695312 193.492188-7.789062-4.496094v8.996094zm0 0"/><path d="m104.695312 202.488281-7.789062-4.496093v8.992187zm0 0"/><path d="m104.695312 211.484375-7.789062-4.5v8.996094zm0 0"/><path d="m104.695312 229.472656-7.789062-4.496094v8.996094zm0 0"/><path d="m120.273438 238.46875-7.789063-4.496094v8.996094zm0 0"/><path d="m151.4375 256.460938-7.792969-4.5v8.996093zm0 0"/><path d="m167.015625 265.457031-7.789063-4.5v8.996094zm0 0"/><path d="m198.175781 265.457031-7.789062-4.5v8.996094zm0 0"/><path d="m205.96875 260.957031-7.792969-4.496093v8.996093zm0 0"/><path d="m213.757812 256.460938-7.789062-4.5v8.996093zm0 0"/><path d="m221.546875 251.960938-7.789063-4.496094v8.996094zm0 0"/><path d="m237.128906 242.96875-7.792968-4.5v8.996094zm0 0"/><path d="m276.078125 202.488281-7.789063-4.496093v8.992187zm0 0"/><path d="m276.078125 184.496094-7.789063-4.496094v8.996094zm0 0"/><path d="m276.078125 175.503906-7.789063-4.5v8.996094zm0 0"/><path d="m276.078125 166.507812-7.789063-4.5v8.996094zm0 0"/><path d="m276.078125 148.515625-7.789063-4.496094v8.996094zm0 0"/><path d="m276.078125 139.519531-7.789063-4.496093v8.996093zm0 0"/><path d="m268.289062 126.027344-7.789062-4.496094v8.996094zm0 0"/><path d="m205.96875 90.046875-7.792969-4.496094v8.992188zm0 0"/><path d="m190.386719 81.050781-7.789063-4.496093v8.996093zm0 0"/><path d="m182.597656 76.554688-7.792968-4.5v8.996093zm0 0"/><path d="m174.804688 81.050781-7.789063-4.496093v8.996093zm0 0"/><path d="m128.066406 108.039062-7.792968-4.5v8.996094zm0 0"/><path d="m120.273438 112.535156-7.789063-4.496094v8.992188zm0 0"/><path d="m96.90625 126.027344-7.792969-4.496094v8.996094zm0 0"/><path d="m96.90625 135.023438-7.792969-4.496094v8.992187zm0 0"/><path d="m96.90625 180-7.792969-4.496094v8.992188zm0 0"/><path d="m96.90625 188.996094-7.792969-4.5v8.996094zm0 0"/><path d="m112.484375 242.96875-7.789063-4.5v8.996094zm0 0"/><path d="m120.273438 247.464844-7.789063-4.496094v8.992188zm0 0"/><path d="m151.4375 265.457031-7.792969-4.5v8.996094zm0 0"/><path d="m159.226562 269.953125-7.789062-4.496094v8.992188zm0 0"/><path d="m182.597656 283.445312-7.792968-4.496093v8.996093zm0 0"/><path d="m205.96875 269.953125-7.792969-4.496094v8.992188zm0 0"/><path d="m213.757812 265.457031-7.789062-4.5v8.996094zm0 0"/><path d="m221.546875 260.957031-7.789063-4.496093v8.996093zm0 0"/><path d="m237.128906 251.960938-7.792968-4.496094v8.996094zm0 0"/><path d="m244.917969 247.464844-7.789063-4.496094v8.992188zm0 0"/><path d="m283.867188 215.980469-7.789063-4.496094v8.996094zm0 0"/><path d="m283.867188 206.984375-7.789063-4.496094v8.996094zm0 0"/><path d="m283.867188 188.996094-7.789063-4.5v8.996094zm0 0"/><path d="m283.867188 180-7.789063-4.496094v8.992188zm0 0"/><path d="m268.289062 117.03125-7.789062-4.496094v8.996094zm0 0"/><path d="m244.917969 103.539062-7.789063-4.496093v8.996093zm0 0"/><path d="m205.96875 81.050781-7.792969-4.496093v8.996093zm0 0"/><path d="m174.804688 72.054688-7.789063-4.496094v8.996094zm0 0"/><path d="m167.015625 76.554688-7.789063-4.5v8.996093zm0 0"/><path d="m159.226562 81.050781-7.789062-4.496093v8.996093zm0 0"/><path d="m151.4375 85.550781-7.792969-4.5v8.996094zm0 0"/><path d="m135.855469 94.542969-7.789063-4.496094v8.996094zm0 0"/><path d="m120.273438 103.539062-7.789063-4.496093v8.996093zm0 0"/><path d="m96.90625 117.03125-7.792969-4.496094v8.996094zm0 0"/><path d="m89.113281 148.515625-7.789062-4.496094v8.996094zm0 0"/><path d="m89.113281 157.511719-7.789062-4.496094v8.992187zm0 0"/><path d="m89.113281 175.503906-7.789062-4.5v8.996094zm0 0"/><path d="m89.113281 202.488281-7.789062-4.496093v8.992187zm0 0"/><path d="m89.113281 220.480469-7.789062-4.5v8.996093zm0 0"/><path d="m112.484375 251.960938-7.789063-4.496094v8.996094zm0 0"/><path d="m128.066406 260.957031-7.792968-4.496093v8.996093zm0 0"/><path d="m135.855469 265.457031-7.789063-4.5v8.996094zm0 0"/><path d="m159.226562 278.949219-7.789062-4.5v8.996093zm0 0"/><path d="m167.015625 283.445312-7.789063-4.496093v8.996093zm0 0"/><path d="m198.175781 283.445312-7.789062-4.496093v8.996093zm0 0"/><path d="m205.96875 278.949219-7.792969-4.5v8.996093zm0 0"/><path d="m221.546875 269.953125-7.789063-4.496094v8.992188zm0 0"/><path d="m237.128906 260.957031-7.792968-4.496093v8.996093zm0 0"/><path d="m244.917969 256.460938-7.789063-4.5v8.996093zm0 0"/><path d="m260.5 247.464844-7.792969-4.496094v8.992188zm0 0"/><path d="m268.289062 242.96875-7.789062-4.5v8.996094zm0 0"/><path d="m276.078125 238.46875-7.789063-4.496094v8.996094zm0 0"/><path d="m291.660156 211.484375-7.792968-4.5v8.996094zm0 0"/><path d="m291.660156 193.492188-7.792968-4.496094v8.996094zm0 0"/><path d="m291.660156 184.496094-7.792968-4.496094v8.996094zm0 0"/><path d="m291.660156 175.503906-7.792968-4.5v8.996094zm0 0"/><path d="m237.128906 90.046875-7.792968-4.496094v8.992188zm0 0"/><path d="m229.335938 85.550781-7.789063-4.5v8.996094zm0 0"/><path d="m213.757812 76.554688-7.789062-4.5v8.996093zm0 0"/><path d="m205.96875 72.054688-7.792969-4.496094v8.996094zm0 0"/><path d="m81.324219 171.003906-7.789063-4.496094v8.996094zm0 0"/><path d="m81.324219 180-7.789063-4.496094v8.992188zm0 0"/><path d="m81.324219 188.996094-7.789063-4.5v8.996094zm0 0"/><path d="m81.324219 197.992188-7.789063-4.5v8.996093zm0 0"/><path d="m81.324219 215.980469-7.789063-4.496094v8.996094zm0 0"/><path d="m120.273438 265.457031-7.789063-4.5v8.996094zm0 0"/><path d="m135.855469 274.449219-7.789063-4.496094v8.996094zm0 0"/><path d="m143.644531 278.949219-7.789062-4.5v8.996093zm0 0"/><path d="m151.4375 283.445312-7.792969-4.496093v8.996093zm0 0"/><path d="m159.226562 287.945312-7.789062-4.5v8.996094zm0 0"/><path d="m221.546875 278.949219-7.789063-4.5v8.996093zm0 0"/><path d="m229.335938 274.449219-7.789063-4.496094v8.996094zm0 0"/><path d="m237.128906 269.953125-7.792968-4.496094v8.992188zm0 0"/><path d="m244.917969 265.457031-7.789063-4.5v8.996094zm0 0"/><path d="m260.5 256.460938-7.792969-4.5v8.996093zm0 0"/><path d="m268.289062 251.960938-7.789062-4.496094v8.996094zm0 0"/><path d="m299.449219 188.996094-7.789063-4.5v8.996094zm0 0"/><path d="m221.546875 72.054688-7.789063-4.496094v8.996094zm0 0"/><path d="m128.066406 81.050781-7.792968-4.496093v8.996093zm0 0"/><path d="m73.535156 157.511719-7.792968-4.496094v8.992187zm0 0"/><path d="m73.535156 175.503906-7.792968-4.5v8.996094zm0 0"/><path d="m73.535156 184.496094-7.792968-4.496094v8.996094zm0 0"/><path d="m73.535156 202.488281-7.792968-4.496093v8.992187zm0 0"/><path d="m65.742188 171.003906-7.789063-4.496094v8.996094zm0 0"/><path d="m65.742188 180-7.789063-4.496094v8.992188zm0 0"/><path d="m65.742188 188.996094-7.789063-4.5v8.996094zm0 0"/></g></svg>