<svg height="360pt" viewBox="0 0 360 360" width="360pt" xmlns="http://www.w3.org/2000/svg"><path d="m0 0h360v360h-360z" fill="#fff"/><g fill="#800080"><path d="m171.355469 180 12.96875-7.488281v14.976562zm0 0"/><path d="m197.289062 180 12.96875-7.488281v14.976562zm0 0"/><path d="m197.289062 165.027344 12.96875-7.488282v14.972657zm0 0"/><path d="m184.324219 157.539062 12.964843-7.488281v14.976563zm0 0"/><path d="m171.355469 150.050781 12.96875-7.484375v14.972656zm0 0"/><path d="m171.355469 209.949219 12.96875-7.488281v14.972656zm0 0"/><path d="m184.324219 202.460938 12.964843-7.488282v14.976563zm0 0"/><path d="m210.257812 172.511719 12.96875-7.484375v14.972656zm0 0"/><path d="m210.257812 157.539062 12.96875-7.488281v14.976563zm0 0"/><path d="m197.289062 150.050781 12.96875-7.484375v14.972656zm0 0"/><path d="m184.324219 142.566406 12.964843-7.488281v14.972656zm0 0"/><path d="m132.449219 202.460938 12.96875-7.488282v14.976563zm0 0"/><path d="m171.355469 224.921875 12.96875-7.488281v14.976562zm0 0"/><path d="m197.289062 209.949219 12.96875-7.488281v14.972656zm0 0"/><path d="m223.226562 209.949219 12.96875-7.488281v14.972656zm0 0"/><path d="m223.226562 194.972656 12.96875-7.484375v14.972657zm0 0"/><path d="m223.226562 180 12.96875-7.488281v14.976562zm0 0"/><path d="m210.257812 142.566406 12.96875-7.488281v14.972656zm0 0"/><path d="m132.449219 142.566406 12.96875-7.488281v14.972656zm0 0"/><path d="m145.417969 224.921875 12.96875-7.488281v14.976562zm0 0"/><path d="m158.386719 232.410156 12.96875-7.488281v14.972656zm0 0"/><path d="m197.289062 224.921875 12.96875-7.488281v14.976562zm0 0"/><path d="m236.195312 217.433594 12.96875-7.484375v14.972656zm0 0"/><path d="m236.195312 202.460938 12.96875-7.488282v14.976563zm0 0"/><path d="m249.164062 194.972656 12.964844-7.484375v14.972657zm0 0"/><path d="m197.289062 180-12.964843-7.488281v14.976562zm0 0"/><path d="m184.324219 172.511719-12.96875-7.484375v14.972656zm0 0"/><path d="m210.257812 187.488281-12.96875-7.488281v14.972656zm0 0"/><path d="m210.257812 172.511719-12.96875-7.484375v14.972656zm0 0"/><path d="m197.289062 165.027344-12.964843-7.488282v14.972657zm0 0"/><path d="m184.324219 157.539062-12.96875-7.488281v14.976563zm0 0"/><path d="m171.355469 180-12.96875-7.488281v14.976562zm0 0"/><path d="m223.226562 194.972656-12.96875-7.484375v14.972657zm0 0"/><path d="m223.226562 180-12.96875-7.488281v14.976562zm0 0"/><path d="m223.226562 165.027344-12.96875-7.488282v14.972657zm0 0"/><path d="m210.257812 157.539062-12.96875-7.488281v14.976563zm0 0"/><path d="m197.289062 209.949219-12.964843-7.488281v14.972656zm0 0"/><path d="m210.257812 202.460938-12.96875-7.488282v14.976563zm0 0"/><path d="m236.195312 172.511719-12.96875-7.484375v14.972656zm0 0"/><path d="m223.226562 150.050781-12.96875-7.484375v14.972656zm0 0"/><path d="m210.257812 142.566406-12.96875-7.488281v14.972656zm0 0"/><path d="m145.417969 150.050781-12.96875-7.484375v14.972656zm0 0"/><path d="m145.417969 165.027344-12.96875-7.488282v14.972657zm0 0"/><path d="m145.417969 209.949219-12.96875-7.488281v14.972656zm0 0"/><path d="m210.257812 217.433594-12.96875-7.484375v14.972656zm0 0"/><path d="m223.226562 209.949219-12.96875-7.488281v14.972656zm0 0"/><path d="m249.164062 209.949219-12.96875-7.488281v14.972656zm0 0"/><path d="m249.164062 194.972656-12.96875-7.484375v14.972657zm0 0"/><path d="m249.164062 180-12.96875-7.488281v14.976562zm0 0"/><path d="m132.449219 172.511719-12.964844-7.484375v14.972656zm0 0"/><path d="m132.449219 217.433594-12.964844-7.484375v14.972656zm0 0"/><path d="m171.355469 239.894531-12.96875-7.484375v14.972656zm0 0"/><path d="m262.128906 202.460938-12.964844-7.488282v14.976563zm0 0"/><path d="m119.484375 165.027344-12.96875-7.488282v14.972657zm0 0"/><path d="m119.484375 209.949219-12.96875-7.488281v14.972656zm0 0"/><path d="m249.164062 224.921875-12.96875-7.488281v14.976562zm0 0"/></g></svg>