<svg height="360pt" viewBox="0 0 360 360" width="360pt" xmlns="http://www.w3.org/2000/svg"><path d="m0 0h360v360h-360z" fill="#fff"/><g fill="#800080"><path d="m181.792969 176.898438 5.371093-3.105469v6.207031zm0 0"/><path d="m171.042969 176.898438 5.375-3.105469v6.207031zm0 0"/><path d="m171.042969 170.691406 5.375-3.101562v6.203125zm0 0"/><path d="m165.667969 173.792969 5.375-3.101563v6.207032zm0 0"/><path d="m165.667969 186.207031 5.375-3.105469v6.207032zm0 0"/><path d="m187.164062 167.589844 5.375-3.105469v6.207031zm0 0"/><path d="m176.417969 161.382812 5.375-3.101562v6.203125zm0 0"/><path d="m160.296875 170.691406 5.371094-3.101562v6.203125zm0 0"/><path d="m160.296875 183.101562 5.371094-3.101562v6.207031zm0 0"/><path d="m160.296875 189.308594 5.371094-3.101563v6.203125zm0 0"/><path d="m176.417969 198.617188 5.375-3.101563v6.203125zm0 0"/><path d="m197.914062 192.410156 5.375-3.101562v6.207031zm0 0"/><path d="m197.914062 186.207031 5.375-3.105469v6.207032zm0 0"/><path d="m197.914062 180 5.375-3.101562v6.203124zm0 0"/><path d="m197.914062 167.589844 5.375-3.105469v6.207031zm0 0"/><path d="m181.792969 158.28125 5.371093-3.101562v6.203124zm0 0"/><path d="m171.042969 158.28125 5.375-3.101562v6.203124zm0 0"/><path d="m165.667969 161.382812 5.375-3.101562v6.203125zm0 0"/><path d="m176.417969 204.820312 5.375-3.101562v6.207031zm0 0"/><path d="m181.792969 201.71875 5.371093-3.101562v6.203124zm0 0"/><path d="m203.289062 189.308594 5.371094-3.101563v6.203125zm0 0"/><path d="m203.289062 164.484375 5.371094-3.101563v6.207032zm0 0"/><path d="m197.914062 161.382812 5.375-3.101562v6.203125zm0 0"/><path d="m176.417969 148.972656 5.375-3.101562v6.203125zm0 0"/><path d="m165.667969 155.179688 5.375-3.105469v6.207031zm0 0"/><path d="m154.921875 161.382812 5.375-3.101562v6.203125zm0 0"/><path d="m149.546875 176.898438 5.375-3.105469v6.207031zm0 0"/><path d="m208.660156 167.589844 5.375-3.105469v6.207031zm0 0"/><path d="m197.914062 155.179688 5.375-3.105469v6.207031zm0 0"/><path d="m181.792969 145.871094 5.371093-3.105469v6.207031zm0 0"/><path d="m160.296875 152.074219 5.371094-3.101563v6.207032zm0 0"/><path d="m149.546875 158.28125 5.375-3.101562v6.203124zm0 0"/><path d="m144.171875 161.382812 5.375-3.101562v6.203125zm0 0"/><path d="m144.171875 180 5.375-3.101562v6.203124zm0 0"/><path d="m144.171875 198.617188 5.375-3.101563v6.203125zm0 0"/><path d="m149.546875 201.71875 5.375-3.101562v6.203124zm0 0"/><path d="m154.921875 204.820312 5.375-3.101562v6.207031zm0 0"/><path d="m160.296875 207.925781 5.371094-3.105469v6.207032zm0 0"/><path d="m165.667969 211.027344 5.375-3.101563v6.203125zm0 0"/><path d="m171.042969 214.128906 5.375-3.101562v6.207031zm0 0"/><path d="m176.417969 217.234375 5.375-3.105469v6.207032zm0 0"/><path d="m214.035156 201.71875 5.375-3.101562v6.203124zm0 0"/><path d="m214.035156 195.515625 5.375-3.105469v6.207032zm0 0"/><path d="m214.035156 189.308594 5.375-3.101563v6.203125zm0 0"/><path d="m203.289062 152.074219 5.371094-3.101563v6.207032zm0 0"/><path d="m197.914062 148.972656 5.375-3.101562v6.203125zm0 0"/><path d="m192.539062 145.871094 5.375-3.105469v6.207031zm0 0"/><path d="m181.792969 139.664062 5.371093-3.101562v6.203125zm0 0"/><path d="m171.042969 139.664062 5.375-3.101562v6.203125zm0 0"/><path d="m144.171875 155.179688 5.375-3.105469v6.207031zm0 0"/><path d="m138.796875 158.28125 5.375-3.101562v6.203124zm0 0"/><path d="m138.796875 164.484375 5.375-3.101563v6.207032zm0 0"/><path d="m138.796875 176.898438 5.375-3.105469v6.207031zm0 0"/><path d="m138.796875 183.101562 5.375-3.101562v6.207031zm0 0"/><path d="m138.796875 195.515625 5.375-3.105469v6.207032zm0 0"/><path d="m138.796875 201.71875 5.375-3.101562v6.203124zm0 0"/><path d="m154.921875 211.027344 5.375-3.101563v6.203125zm0 0"/><path d="m160.296875 214.128906 5.371094-3.101562v6.207031zm0 0"/><path d="m165.667969 217.234375 5.375-3.105469v6.207032zm0 0"/><path d="m171.042969 220.335938 5.375-3.101563v6.203125zm0 0"/><path d="m192.539062 214.128906 5.375-3.101562v6.207031zm0 0"/><path d="m197.914062 211.027344 5.375-3.101563v6.203125zm0 0"/><path d="m219.410156 204.820312 5.375-3.101562v6.207031zm0 0"/><path d="m219.410156 192.410156 5.375-3.101562v6.207031zm0 0"/><path d="m219.410156 186.207031 5.375-3.105469v6.207032zm0 0"/><path d="m219.410156 180 5.375-3.101562v6.203124zm0 0"/><path d="m219.410156 173.792969 5.375-3.101563v6.207032zm0 0"/><path d="m219.410156 167.589844 5.375-3.105469v6.207031zm0 0"/><path d="m219.410156 161.382812 5.375-3.101562v6.203125zm0 0"/><path d="m208.660156 148.972656 5.375-3.101562v6.203125zm0 0"/><path d="m192.539062 139.664062 5.375-3.101562v6.203125zm0 0"/><path d="m176.417969 130.355469 5.375-3.101563v6.203125zm0 0"/><path d="m171.042969 133.457031 5.375-3.101562v6.207031zm0 0"/><path d="m138.796875 152.074219 5.375-3.101563v6.207032zm0 0"/><path d="m133.425781 167.589844 5.371094-3.105469v6.207031zm0 0"/><path d="m133.425781 173.792969 5.371094-3.101563v6.207032zm0 0"/><path d="m133.425781 180 5.371094-3.101562v6.203124zm0 0"/><path d="m133.425781 186.207031 5.371094-3.105469v6.207032zm0 0"/><path d="m133.425781 192.410156 5.371094-3.101562v6.207031zm0 0"/><path d="m144.171875 211.027344 5.375-3.101563v6.203125zm0 0"/><path d="m154.921875 217.234375 5.375-3.105469v6.207032zm0 0"/><path d="m160.296875 220.335938 5.371094-3.101563v6.203125zm0 0"/><path d="m192.539062 220.335938 5.375-3.101563v6.203125zm0 0"/><path d="m197.914062 217.234375 5.375-3.105469v6.207032zm0 0"/><path d="m203.289062 214.128906 5.371094-3.101562v6.207031zm0 0"/><path d="m214.035156 207.925781 5.375-3.105469v6.207032zm0 0"/><path d="m224.785156 207.925781 5.375-3.105469v6.207032zm0 0"/><path d="m224.785156 189.308594 5.375-3.101563v6.203125zm0 0"/><path d="m224.785156 183.101562 5.375-3.101562v6.207031zm0 0"/><path d="m224.785156 170.691406 5.375-3.101562v6.203125zm0 0"/><path d="m224.785156 164.484375 5.375-3.101563v6.207032zm0 0"/><path d="m214.035156 145.871094 5.375-3.105469v6.207031zm0 0"/><path d="m208.660156 142.765625 5.375-3.101563v6.207032zm0 0"/><path d="m197.914062 136.5625 5.375-3.105469v6.207031zm0 0"/><path d="m192.539062 133.457031 5.375-3.101562v6.207031zm0 0"/><path d="m181.792969 127.253906 5.371093-3.101562v6.203125zm0 0"/><path d="m176.417969 124.152344 5.375-3.105469v6.207031zm0 0"/><path d="m171.042969 127.253906 5.375-3.101562v6.203125zm0 0"/><path d="m128.050781 164.484375 5.375-3.101563v6.207032zm0 0"/><path d="m128.050781 201.71875 5.375-3.101562v6.203124zm0 0"/><path d="m154.921875 223.4375 5.375-3.101562v6.207031zm0 0"/><path d="m181.792969 232.746094 5.371093-3.101563v6.203125zm0 0"/><path d="m187.164062 229.644531 5.375-3.101562v6.203125zm0 0"/><path d="m214.035156 214.128906 5.375-3.101562v6.207031zm0 0"/><path d="m219.410156 211.027344 5.375-3.101563v6.203125zm0 0"/><path d="m230.160156 204.820312 5.371094-3.101562v6.207031zm0 0"/><path d="m230.160156 198.617188 5.371094-3.101563v6.203125zm0 0"/><path d="m230.160156 192.410156 5.371094-3.101562v6.207031zm0 0"/><path d="m230.160156 167.589844 5.371094-3.105469v6.207031zm0 0"/><path d="m224.785156 145.871094 5.375-3.105469v6.207031zm0 0"/><path d="m219.410156 142.765625 5.375-3.101563v6.207032zm0 0"/><path d="m214.035156 139.664062 5.375-3.101562v6.203125zm0 0"/><path d="m208.660156 136.5625 5.375-3.105469v6.207031zm0 0"/><path d="m203.289062 133.457031 5.371094-3.101562v6.207031zm0 0"/><path d="m171.042969 121.046875 5.375-3.101563v6.207032zm0 0"/><path d="m154.921875 130.355469 5.375-3.101563v6.203125zm0 0"/><path d="m149.546875 133.457031 5.375-3.101562v6.207031zm0 0"/><path d="m144.171875 136.5625 5.375-3.105469v6.207031zm0 0"/><path d="m138.796875 139.664062 5.375-3.101562v6.203125zm0 0"/><path d="m122.675781 148.972656 5.375-3.101562v6.203125zm0 0"/><path d="m122.675781 167.589844 5.375-3.105469v6.207031zm0 0"/><path d="m122.675781 180 5.375-3.101562v6.203124zm0 0"/><path d="m122.675781 198.617188 5.375-3.101563v6.203125zm0 0"/><path d="m122.675781 211.027344 5.375-3.101563v6.203125zm0 0"/><path d="m128.050781 214.128906 5.375-3.101562v6.207031zm0 0"/><path d="m133.425781 217.234375 5.371094-3.105469v6.207032zm0 0"/><path d="m138.796875 220.335938 5.375-3.101563v6.203125zm0 0"/><path d="m144.171875 223.4375 5.375-3.101562v6.207031zm0 0"/><path d="m149.546875 226.542969 5.375-3.105469v6.207031zm0 0"/><path d="m165.667969 235.847656 5.375-3.101562v6.207031zm0 0"/><path d="m171.042969 238.953125 5.375-3.105469v6.207032zm0 0"/><path d="m181.792969 238.953125 5.371093-3.105469v6.207032zm0 0"/><path d="m203.289062 226.542969 5.371094-3.105469v6.207031zm0 0"/><path d="m214.035156 220.335938 5.375-3.101563v6.203125zm0 0"/><path d="m219.410156 217.234375 5.375-3.105469v6.207032zm0 0"/><path d="m224.785156 214.128906 5.375-3.101562v6.207031zm0 0"/><path d="m235.53125 201.71875 5.375-3.101562v6.203124zm0 0"/><path d="m235.53125 195.515625 5.375-3.105469v6.207032zm0 0"/><path d="m235.53125 158.28125 5.375-3.101562v6.203124zm0 0"/><path d="m230.160156 142.765625 5.371094-3.101563v6.207032zm0 0"/><path d="m224.785156 139.664062 5.375-3.101562v6.203125zm0 0"/><path d="m203.289062 127.253906 5.371094-3.101562v6.203125zm0 0"/><path d="m149.546875 127.253906 5.375-3.101562v6.203125zm0 0"/><path d="m133.425781 136.5625 5.371094-3.105469v6.207031zm0 0"/><path d="m128.050781 139.664062 5.375-3.101562v6.203125zm0 0"/><path d="m117.300781 152.074219 5.375-3.101563v6.207032zm0 0"/><path d="m117.300781 170.691406 5.375-3.101562v6.203125zm0 0"/><path d="m117.300781 189.308594 5.375-3.101563v6.203125zm0 0"/><path d="m117.300781 207.925781 5.375-3.105469v6.207032zm0 0"/><path d="m117.300781 214.128906 5.375-3.101562v6.207031zm0 0"/><path d="m122.675781 217.234375 5.375-3.105469v6.207032zm0 0"/><path d="m133.425781 223.4375 5.371094-3.101562v6.207031zm0 0"/><path d="m138.796875 226.542969 5.375-3.105469v6.207031zm0 0"/><path d="m144.171875 229.644531 5.375-3.101562v6.203125zm0 0"/><path d="m165.667969 242.054688 5.375-3.101563v6.203125zm0 0"/><path d="m181.792969 245.15625 5.371093-3.101562v6.207031zm0 0"/><path d="m192.539062 238.953125 5.375-3.105469v6.207032zm0 0"/><path d="m203.289062 232.746094 5.371094-3.101563v6.203125zm0 0"/><path d="m208.660156 229.644531 5.375-3.101562v6.203125zm0 0"/><path d="m230.160156 217.234375 5.371094-3.105469v6.207032zm0 0"/><path d="m240.90625 217.234375 5.375-3.105469v6.207032zm0 0"/><path d="m240.90625 211.027344 5.375-3.101563v6.203125zm0 0"/><path d="m240.90625 192.410156 5.375-3.101562v6.207031zm0 0"/><path d="m240.90625 186.207031 5.375-3.105469v6.207032zm0 0"/><path d="m240.90625 180 5.375-3.101562v6.203124zm0 0"/><path d="m240.90625 173.792969 5.375-3.101563v6.207032zm0 0"/><path d="m240.90625 155.179688 5.375-3.105469v6.207031zm0 0"/><path d="m240.90625 148.972656 5.375-3.101562v6.203125zm0 0"/><path d="m224.785156 133.457031 5.375-3.101562v6.207031zm0 0"/><path d="m208.660156 124.152344 5.375-3.105469v6.207031zm0 0"/><path d="m203.289062 121.046875 5.371094-3.101563v6.207032zm0 0"/><path d="m187.164062 111.738281 5.375-3.101562v6.207031zm0 0"/><path d="m122.675781 136.5625 5.375-3.105469v6.207031zm0 0"/><path d="m111.929688 148.972656 5.371093-3.101562v6.203125zm0 0"/><path d="m111.929688 167.589844 5.371093-3.105469v6.207031zm0 0"/><path d="m111.929688 173.792969 5.371093-3.101563v6.207032zm0 0"/><path d="m111.929688 186.207031 5.371093-3.105469v6.207032zm0 0"/><path d="m111.929688 192.410156 5.371093-3.101562v6.207031zm0 0"/><path d="m117.300781 220.335938 5.375-3.101563v6.203125zm0 0"/><path d="m138.796875 232.746094 5.375-3.101563v6.203125zm0 0"/><path d="m144.171875 235.847656 5.375-3.101562v6.207031zm0 0"/><path d="m149.546875 238.953125 5.375-3.105469v6.207032zm0 0"/><path d="m154.921875 242.054688 5.375-3.101563v6.203125zm0 0"/><path d="m160.296875 245.15625 5.371094-3.101562v6.207031zm0 0"/><path d="m171.042969 251.363281 5.375-3.101562v6.203125zm0 0"/><path d="m181.792969 251.363281 5.371093-3.101562v6.203125zm0 0"/><path d="m187.164062 248.261719 5.375-3.105469v6.207031zm0 0"/><path d="m214.035156 232.746094 5.375-3.101563v6.203125zm0 0"/><path d="m230.160156 223.4375 5.371094-3.101562v6.207031zm0 0"/><path d="m235.53125 220.335938 5.375-3.101563v6.203125zm0 0"/><path d="m246.28125 214.128906 5.375-3.101562v6.207031zm0 0"/><path d="m246.28125 201.71875 5.375-3.101562v6.203124zm0 0"/><path d="m246.28125 189.308594 5.375-3.101563v6.203125zm0 0"/><path d="m246.28125 176.898438 5.375-3.105469v6.207031zm0 0"/><path d="m246.28125 158.28125 5.375-3.101562v6.203124zm0 0"/><path d="m230.160156 130.355469 5.371094-3.101563v6.203125zm0 0"/><path d="m224.785156 127.253906 5.375-3.101562v6.203125zm0 0"/><path d="m219.410156 124.152344 5.375-3.105469v6.207031zm0 0"/><path d="m214.035156 121.046875 5.375-3.101563v6.207032zm0 0"/><path d="m208.660156 117.945312 5.375-3.101562v6.203125zm0 0"/><path d="m203.289062 114.84375 5.371094-3.105469v6.207031zm0 0"/><path d="m181.792969 102.429688 5.371093-3.101563v6.207031zm0 0"/><path d="m171.042969 102.429688 5.375-3.101563v6.207031zm0 0"/><path d="m165.667969 105.535156 5.375-3.105468v6.207031zm0 0"/><path d="m138.796875 121.046875 5.375-3.101563v6.207032zm0 0"/><path d="m133.425781 124.152344 5.371094-3.105469v6.207031zm0 0"/><path d="m117.300781 133.457031 5.375-3.101562v6.207031zm0 0"/><path d="m106.554688 139.664062 5.375-3.101562v6.203125zm0 0"/><path d="m106.554688 145.871094 5.375-3.105469v6.207031zm0 0"/><path d="m106.554688 152.074219 5.375-3.101563v6.207032zm0 0"/><path d="m106.554688 164.484375 5.375-3.101563v6.207032zm0 0"/><path d="m138.796875 238.953125 5.375-3.105469v6.207032zm0 0"/><path d="m154.921875 248.261719 5.375-3.105469v6.207031zm0 0"/><path d="m165.667969 254.464844 5.375-3.101563v6.207031zm0 0"/><path d="m192.539062 251.363281 5.375-3.101562v6.203125zm0 0"/><path d="m203.289062 245.15625 5.371094-3.101562v6.207031zm0 0"/><path d="m214.035156 238.953125 5.375-3.105469v6.207032zm0 0"/><path d="m219.410156 235.847656 5.375-3.101562v6.207031zm0 0"/><path d="m251.65625 223.4375 5.371094-3.101562v6.207031zm0 0"/><path d="m251.65625 217.234375 5.371094-3.105469v6.207032zm0 0"/><path d="m251.65625 198.617188 5.371094-3.101563v6.203125zm0 0"/><path d="m251.65625 180 5.371094-3.101562v6.203124zm0 0"/><path d="m251.65625 155.179688 5.371094-3.105469v6.207031zm0 0"/><path d="m251.65625 148.972656 5.371094-3.101562v6.203125zm0 0"/><path d="m251.65625 142.765625 5.371094-3.101563v6.207032zm0 0"/><path d="m251.65625 136.5625 5.371094-3.105469v6.207031zm0 0"/><path d="m235.53125 127.253906 5.375-3.101562v6.203125zm0 0"/><path d="m208.660156 111.738281 5.375-3.101562v6.207031zm0 0"/><path d="m203.289062 108.636719 5.371094-3.101563v6.203125zm0 0"/><path d="m187.164062 99.328125 5.375-3.101563v6.203126zm0 0"/><path d="m181.792969 96.226562 5.371093-3.101562v6.203125zm0 0"/><path d="m165.667969 99.328125 5.375-3.101563v6.203126zm0 0"/><path d="m160.296875 102.429688 5.371094-3.101563v6.207031zm0 0"/><path d="m154.921875 105.535156 5.375-3.105468v6.207031zm0 0"/><path d="m149.546875 108.636719 5.375-3.101563v6.203125zm0 0"/><path d="m144.171875 111.738281 5.375-3.101562v6.207031zm0 0"/><path d="m138.796875 114.84375 5.375-3.105469v6.207031zm0 0"/><path d="m101.179688 136.5625 5.375-3.105469v6.207031zm0 0"/><path d="m101.179688 167.589844 5.375-3.105469v6.207031zm0 0"/><path d="m101.179688 180 5.375-3.101562v6.203124zm0 0"/><path d="m101.179688 204.820312 5.375-3.101562v6.207031zm0 0"/><path d="m101.179688 223.4375 5.375-3.101562v6.207031zm0 0"/><path d="m106.554688 226.542969 5.375-3.105469v6.207031zm0 0"/><path d="m117.300781 232.746094 5.375-3.101563v6.203125zm0 0"/><path d="m122.675781 235.847656 5.375-3.101562v6.207031zm0 0"/><path d="m138.796875 245.15625 5.375-3.101562v6.207031zm0 0"/><path d="m149.546875 251.363281 5.375-3.101562v6.203125zm0 0"/><path d="m160.296875 257.570312 5.371094-3.105468v6.207031zm0 0"/><path d="m171.042969 263.773438 5.375-3.101563v6.203125zm0 0"/><path d="m176.417969 266.875 5.375-3.101562v6.207031zm0 0"/><path d="m192.539062 257.570312 5.375-3.105468v6.207031zm0 0"/><path d="m208.660156 248.261719 5.375-3.105469v6.207031zm0 0"/><path d="m214.035156 245.15625 5.375-3.101562v6.207031zm0 0"/><path d="m219.410156 242.054688 5.375-3.101563v6.203125zm0 0"/><path d="m224.785156 238.953125 5.375-3.105469v6.207032zm0 0"/><path d="m257.027344 220.335938 5.375-3.101563v6.203125zm0 0"/><path d="m257.027344 207.925781 5.375-3.105469v6.207032zm0 0"/><path d="m257.027344 176.898438 5.375-3.105469v6.207031zm0 0"/><path d="m257.027344 170.691406 5.375-3.101562v6.203125zm0 0"/><path d="m257.027344 164.484375 5.375-3.101563v6.207032zm0 0"/><path d="m257.027344 158.28125 5.375-3.101562v6.203124zm0 0"/><path d="m257.027344 139.664062 5.375-3.101562v6.203125zm0 0"/><path d="m240.90625 124.152344 5.375-3.105469v6.207031zm0 0"/><path d="m235.53125 121.046875 5.375-3.101563v6.207032zm0 0"/><path d="m214.035156 108.636719 5.375-3.101563v6.203125zm0 0"/><path d="m203.289062 102.429688 5.371094-3.101563v6.207031zm0 0"/><path d="m192.539062 96.226562 5.375-3.101562v6.203125zm0 0"/><path d="m187.164062 93.125 5.375-3.105469v6.207031zm0 0"/><path d="m181.792969 90.019531 5.371093-3.101562v6.207031zm0 0"/><path d="m160.296875 96.226562 5.371094-3.101562v6.203125zm0 0"/><path d="m149.546875 102.429688 5.375-3.101563v6.207031zm0 0"/><path d="m138.796875 108.636719 5.375-3.101563v6.203125zm0 0"/><path d="m117.300781 121.046875 5.375-3.101563v6.207032zm0 0"/><path d="m111.929688 124.152344 5.371093-3.105469v6.207031zm0 0"/><path d="m95.804688 133.457031 5.375-3.101562v6.207031zm0 0"/><path d="m95.804688 139.664062 5.375-3.101562v6.203125zm0 0"/><path d="m95.804688 164.484375 5.375-3.101563v6.207032zm0 0"/><path d="m95.804688 170.691406 5.375-3.101562v6.203125zm0 0"/><path d="m95.804688 189.308594 5.375-3.101563v6.203125zm0 0"/><path d="m95.804688 207.925781 5.375-3.105469v6.207032zm0 0"/><path d="m95.804688 226.542969 5.375-3.105469v6.207031zm0 0"/><path d="m101.179688 229.644531 5.375-3.101562v6.203125zm0 0"/><path d="m117.300781 238.953125 5.375-3.105469v6.207032zm0 0"/><path d="m133.425781 248.261719 5.371094-3.105469v6.207031zm0 0"/><path d="m171.042969 269.980469 5.375-3.105469v6.207031zm0 0"/><path d="m176.417969 273.082031 5.375-3.101562v6.203125zm0 0"/><path d="m192.539062 263.773438 5.375-3.101563v6.203125zm0 0"/><path d="m197.914062 260.671875 5.375-3.101563v6.203126zm0 0"/><path d="m240.90625 235.847656 5.375-3.101562v6.207031zm0 0"/><path d="m262.402344 211.027344 5.375-3.101563v6.203125zm0 0"/><path d="m262.402344 173.792969 5.375-3.101563v6.207032zm0 0"/><path d="m262.402344 167.589844 5.375-3.105469v6.207031zm0 0"/><path d="m262.402344 161.382812 5.375-3.101562v6.203125zm0 0"/><path d="m246.28125 121.046875 5.375-3.101563v6.207032zm0 0"/><path d="m240.90625 117.945312 5.375-3.101562v6.203125zm0 0"/><path d="m235.53125 114.84375 5.375-3.105469v6.207031zm0 0"/><path d="m219.410156 105.535156 5.375-3.105468v6.207031zm0 0"/><path d="m214.035156 102.429688 5.375-3.101563v6.207031zm0 0"/><path d="m171.042969 83.816406 5.375-3.105468v6.207031zm0 0"/><path d="m165.667969 86.917969 5.375-3.101563v6.203125zm0 0"/><path d="m160.296875 90.019531 5.371094-3.101562v6.207031zm0 0"/><path d="m144.171875 99.328125 5.375-3.101563v6.203126zm0 0"/><path d="m111.929688 117.945312 5.371093-3.101562v6.203125zm0 0"/><path d="m90.433594 130.355469 5.371094-3.101563v6.203125zm0 0"/><path d="m90.433594 136.5625 5.371094-3.105469v6.207031zm0 0"/><path d="m90.433594 142.765625 5.371094-3.101563v6.207032zm0 0"/><path d="m90.433594 155.179688 5.371094-3.105469v6.207031zm0 0"/><path d="m90.433594 161.382812 5.371094-3.101562v6.203125zm0 0"/><path d="m90.433594 167.589844 5.371094-3.105469v6.207031zm0 0"/><path d="m90.433594 173.792969 5.371094-3.101563v6.207032zm0 0"/><path d="m90.433594 180 5.371094-3.101562v6.203124zm0 0"/><path d="m90.433594 186.207031 5.371094-3.105469v6.207032zm0 0"/><path d="m90.433594 192.410156 5.371094-3.101562v6.207031zm0 0"/><path d="m90.433594 204.820312 5.371094-3.101562v6.207031zm0 0"/><path d="m90.433594 217.234375 5.371094-3.105469v6.207032zm0 0"/><path d="m95.804688 232.746094 5.375-3.101563v6.203125zm0 0"/><path d="m117.300781 245.15625 5.375-3.101562v6.207031zm0 0"/><path d="m144.171875 260.671875 5.375-3.101563v6.203126zm0 0"/><path d="m149.546875 263.773438 5.375-3.101563v6.203125zm0 0"/><path d="m154.921875 266.875 5.375-3.101562v6.207031zm0 0"/><path d="m160.296875 269.980469 5.371094-3.105469v6.207031zm0 0"/><path d="m165.667969 273.082031 5.375-3.101562v6.203125zm0 0"/><path d="m171.042969 276.183594 5.375-3.101563v6.207031zm0 0"/><path d="m192.539062 269.980469 5.375-3.105469v6.207031zm0 0"/><path d="m197.914062 266.875 5.375-3.101562v6.207031zm0 0"/><path d="m203.289062 263.773438 5.371094-3.101563v6.203125zm0 0"/><path d="m240.90625 242.054688 5.375-3.101563v6.203125zm0 0"/><path d="m246.28125 238.953125 5.375-3.105469v6.207032zm0 0"/><path d="m267.777344 232.746094 5.375-3.101563v6.203125zm0 0"/><path d="m267.777344 195.515625 5.375-3.105469v6.207032zm0 0"/><path d="m267.777344 189.308594 5.375-3.101563v6.203125zm0 0"/><path d="m267.777344 183.101562 5.375-3.101562v6.207031zm0 0"/><path d="m267.777344 170.691406 5.375-3.101562v6.203125zm0 0"/><path d="m267.777344 164.484375 5.375-3.101563v6.207032zm0 0"/><path d="m267.777344 152.074219 5.375-3.101563v6.207032zm0 0"/><path d="m267.777344 145.871094 5.375-3.105469v6.207031zm0 0"/><path d="m267.777344 139.664062 5.375-3.101562v6.203125zm0 0"/><path d="m267.777344 133.457031 5.375-3.101562v6.207031zm0 0"/><path d="m267.777344 127.253906 5.375-3.101562v6.203125zm0 0"/><path d="m251.65625 117.945312 5.371094-3.101562v6.203125zm0 0"/><path d="m235.53125 108.636719 5.375-3.101563v6.203125zm0 0"/><path d="m214.035156 96.226562 5.375-3.101562v6.203125zm0 0"/><path d="m176.417969 74.507812 5.375-3.105468v6.207031zm0 0"/><path d="m165.667969 80.710938 5.375-3.101563v6.207031zm0 0"/><path d="m160.296875 83.816406 5.371094-3.105468v6.207031zm0 0"/><path d="m144.171875 93.125 5.375-3.105469v6.207031zm0 0"/><path d="m90.433594 124.152344 5.371094-3.105469v6.207031zm0 0"/><path d="m85.058594 201.71875 5.375-3.101562v6.203124zm0 0"/><path d="m85.058594 207.925781 5.375-3.105469v6.207032zm0 0"/><path d="m128.050781 257.570312 5.375-3.105468v6.207031zm0 0"/><path d="m144.171875 266.875 5.375-3.101562v6.207031zm0 0"/><path d="m149.546875 269.980469 5.375-3.105469v6.207031zm0 0"/><path d="m154.921875 273.082031 5.375-3.101562v6.203125zm0 0"/><path d="m160.296875 276.183594 5.371094-3.101563v6.207031zm0 0"/><path d="m165.667969 279.289062 5.375-3.105468v6.207031zm0 0"/><path d="m176.417969 285.492188 5.375-3.101563v6.207031zm0 0"/><path d="m181.792969 282.390625 5.371093-3.101563v6.203126zm0 0"/><path d="m208.660156 266.875 5.375-3.101562v6.207031zm0 0"/><path d="m230.160156 254.464844 5.371094-3.101563v6.207031zm0 0"/><path d="m257.027344 238.953125 5.375-3.105469v6.207032zm0 0"/><path d="m273.152344 235.847656 5.371094-3.101562v6.207031zm0 0"/><path d="m273.152344 229.644531 5.371094-3.101562v6.203125zm0 0"/><path d="m273.152344 192.410156 5.371094-3.101562v6.207031zm0 0"/><path d="m273.152344 186.207031 5.371094-3.105469v6.207032zm0 0"/><path d="m273.152344 167.589844 5.371094-3.105469v6.207031zm0 0"/><path d="m273.152344 148.972656 5.371094-3.101562v6.203125zm0 0"/><path d="m273.152344 130.355469 5.371094-3.101563v6.203125zm0 0"/><path d="m273.152344 124.152344 5.371094-3.105469v6.207031zm0 0"/><path d="m267.777344 121.046875 5.375-3.101563v6.207032zm0 0"/><path d="m262.402344 117.945312 5.375-3.101562v6.203125zm0 0"/><path d="m257.027344 114.84375 5.375-3.105469v6.207031zm0 0"/><path d="m251.65625 111.738281 5.371094-3.101562v6.207031zm0 0"/><path d="m240.90625 105.535156 5.375-3.105468v6.207031zm0 0"/><path d="m235.53125 102.429688 5.375-3.101563v6.207031zm0 0"/><path d="m219.410156 93.125 5.375-3.105469v6.207031zm0 0"/><path d="m214.035156 90.019531 5.375-3.101562v6.207031zm0 0"/><path d="m197.914062 80.710938 5.375-3.101563v6.207031zm0 0"/><path d="m192.539062 77.609375 5.375-3.101563v6.203126zm0 0"/><path d="m181.792969 71.402344 5.371093-3.101563v6.207031zm0 0"/><path d="m165.667969 74.507812 5.375-3.105468v6.207031zm0 0"/><path d="m122.675781 99.328125 5.375-3.101563v6.203126zm0 0"/><path d="m117.300781 102.429688 5.375-3.101563v6.207031zm0 0"/><path d="m111.929688 105.535156 5.371093-3.105468v6.207031zm0 0"/><path d="m106.554688 108.636719 5.375-3.101563v6.203125zm0 0"/><path d="m101.179688 111.738281 5.375-3.101562v6.207031zm0 0"/><path d="m95.804688 114.84375 5.375-3.105469v6.207031zm0 0"/><path d="m90.433594 117.945312 5.371094-3.101562v6.203125zm0 0"/><path d="m79.683594 124.152344 5.375-3.105469v6.207031zm0 0"/><path d="m79.683594 180 5.375-3.101562v6.203124zm0 0"/><path d="m79.683594 198.617188 5.375-3.101563v6.203125zm0 0"/><path d="m79.683594 204.820312 5.375-3.101562v6.207031zm0 0"/><path d="m79.683594 211.027344 5.375-3.101563v6.203125zm0 0"/><path d="m79.683594 223.4375 5.375-3.101562v6.207031zm0 0"/><path d="m85.058594 238.953125 5.375-3.105469v6.207032zm0 0"/><path d="m90.433594 242.054688 5.371094-3.101563v6.203125zm0 0"/><path d="m95.804688 245.15625 5.375-3.101562v6.207031zm0 0"/><path d="m101.179688 248.261719 5.375-3.105469v6.207031zm0 0"/><path d="m106.554688 251.363281 5.375-3.101562v6.203125zm0 0"/><path d="m111.929688 254.464844 5.371093-3.101563v6.207031zm0 0"/><path d="m144.171875 273.082031 5.375-3.101562v6.203125zm0 0"/><path d="m149.546875 276.183594 5.375-3.101563v6.207031zm0 0"/><path d="m160.296875 282.390625 5.371094-3.101563v6.203126zm0 0"/><path d="m187.164062 285.492188 5.375-3.101563v6.207031zm0 0"/><path d="m219.410156 266.875 5.375-3.101562v6.207031zm0 0"/><path d="m230.160156 260.671875 5.371094-3.101563v6.203126zm0 0"/><path d="m235.53125 257.570312 5.375-3.105468v6.207031zm0 0"/><path d="m267.777344 238.953125 5.375-3.105469v6.207032zm0 0"/><path d="m278.523438 226.542969 5.375-3.105469v6.207031zm0 0"/><path d="m278.523438 220.335938 5.375-3.101563v6.203125zm0 0"/><path d="m278.523438 214.128906 5.375-3.101562v6.207031zm0 0"/><path d="m278.523438 207.925781 5.375-3.105469v6.207032zm0 0"/><path d="m278.523438 189.308594 5.375-3.101563v6.203125zm0 0"/><path d="m278.523438 145.871094 5.375-3.105469v6.207031zm0 0"/><path d="m278.523438 127.253906 5.375-3.101562v6.203125zm0 0"/><path d="m230.160156 93.125 5.371094-3.105469v6.207031zm0 0"/><path d="m208.660156 80.710938 5.375-3.101563v6.207031zm0 0"/><path d="m197.914062 74.507812 5.375-3.105468v6.207031zm0 0"/><path d="m160.296875 71.402344 5.371094-3.101563v6.207031zm0 0"/><path d="m149.546875 77.609375 5.375-3.101563v6.203126zm0 0"/><path d="m144.171875 80.710938 5.375-3.101563v6.207031zm0 0"/><path d="m138.796875 83.816406 5.375-3.105468v6.207031zm0 0"/><path d="m133.425781 86.917969 5.371094-3.101563v6.203125zm0 0"/><path d="m117.300781 96.226562 5.375-3.101562v6.203125zm0 0"/><path d="m111.929688 99.328125 5.371093-3.101563v6.203126zm0 0"/><path d="m95.804688 108.636719 5.375-3.101563v6.203125zm0 0"/><path d="m90.433594 111.738281 5.371094-3.101562v6.207031zm0 0"/><path d="m74.308594 145.871094 5.375-3.105469v6.207031zm0 0"/><path d="m74.308594 158.28125 5.375-3.101562v6.203124zm0 0"/><path d="m74.308594 164.484375 5.375-3.101563v6.207032zm0 0"/><path d="m74.308594 176.898438 5.375-3.105469v6.207031zm0 0"/><path d="m74.308594 183.101562 5.375-3.101562v6.207031zm0 0"/><path d="m74.308594 195.515625 5.375-3.105469v6.207032zm0 0"/><path d="m74.308594 214.128906 5.375-3.101562v6.207031zm0 0"/><path d="m74.308594 220.335938 5.375-3.101563v6.203125zm0 0"/><path d="m74.308594 226.542969 5.375-3.105469v6.207031zm0 0"/><path d="m74.308594 232.746094 5.375-3.101563v6.203125zm0 0"/><path d="m95.804688 251.363281 5.375-3.101562v6.203125zm0 0"/><path d="m106.554688 257.570312 5.375-3.105468v6.207031zm0 0"/><path d="m122.675781 266.875 5.375-3.101562v6.207031zm0 0"/><path d="m128.050781 269.980469 5.375-3.105469v6.207031zm0 0"/><path d="m144.171875 279.289062 5.375-3.105468v6.207031zm0 0"/><path d="m197.914062 285.492188 5.375-3.101563v6.207031zm0 0"/><path d="m203.289062 282.390625 5.371094-3.101563v6.203126zm0 0"/><path d="m224.785156 269.980469 5.375-3.105469v6.207031zm0 0"/><path d="m251.65625 254.464844 5.371094-3.101563v6.207031zm0 0"/><path d="m267.777344 245.15625 5.375-3.101562v6.207031zm0 0"/><path d="m283.898438 223.4375 5.375-3.101562v6.207031zm0 0"/><path d="m283.898438 173.792969 5.375-3.101563v6.207032zm0 0"/><path d="m283.898438 167.589844 5.375-3.105469v6.207031zm0 0"/><path d="m283.898438 161.382812 5.375-3.101562v6.203125zm0 0"/><path d="m267.777344 108.636719 5.375-3.101563v6.203125zm0 0"/><path d="m154.921875 68.300781 5.375-3.101562v6.203125zm0 0"/><path d="m149.546875 71.402344 5.375-3.101563v6.207031zm0 0"/><path d="m138.796875 77.609375 5.375-3.101563v6.203126zm0 0"/><path d="m133.425781 80.710938 5.371094-3.101563v6.207031zm0 0"/><path d="m111.929688 93.125 5.371093-3.105469v6.207031zm0 0"/><path d="m101.179688 99.328125 5.375-3.101563v6.203126zm0 0"/><path d="m68.933594 142.765625 5.375-3.101563v6.207032zm0 0"/><path d="m68.933594 155.179688 5.375-3.105469v6.207031zm0 0"/><path d="m68.933594 161.382812 5.375-3.101562v6.203125zm0 0"/><path d="m68.933594 167.589844 5.375-3.105469v6.207031zm0 0"/><path d="m68.933594 173.792969 5.375-3.101563v6.207032zm0 0"/><path d="m68.933594 211.027344 5.375-3.101563v6.203125zm0 0"/><path d="m68.933594 229.644531 5.375-3.101562v6.203125zm0 0"/><path d="m79.683594 248.261719 5.375-3.105469v6.207031zm0 0"/><path d="m85.058594 251.363281 5.375-3.101562v6.203125zm0 0"/><path d="m106.554688 263.773438 5.375-3.101563v6.203125zm0 0"/><path d="m122.675781 273.082031 5.375-3.101562v6.203125zm0 0"/><path d="m160.296875 294.800781 5.371094-3.101562v6.203125zm0 0"/><path d="m235.53125 269.980469 5.375-3.105469v6.207031zm0 0"/><path d="m251.65625 260.671875 5.371094-3.101563v6.203126zm0 0"/><path d="m257.027344 257.570312 5.375-3.105468v6.207031zm0 0"/><path d="m289.273438 195.515625 5.375-3.105469v6.207032zm0 0"/><path d="m289.273438 139.664062 5.375-3.101562v6.203125zm0 0"/><path d="m133.425781 74.507812 5.371094-3.105468v6.207031zm0 0"/><path d="m122.675781 80.710938 5.375-3.101563v6.207031zm0 0"/><path d="m117.300781 83.816406 5.375-3.105468v6.207031zm0 0"/><path d="m101.179688 93.125 5.375-3.105469v6.207031zm0 0"/><path d="m90.433594 99.328125 5.371094-3.101563v6.203126zm0 0"/><path d="m85.058594 102.429688 5.375-3.101563v6.207031zm0 0"/><path d="m63.5625 145.871094 5.371094-3.105469v6.207031zm0 0"/><path d="m63.5625 189.308594 5.371094-3.101563v6.203125zm0 0"/><path d="m63.5625 207.925781 5.371094-3.105469v6.207032zm0 0"/><path d="m63.5625 220.335938 5.371094-3.101563v6.203125zm0 0"/><path d="m95.804688 263.773438 5.375-3.101563v6.203125zm0 0"/><path d="m133.425781 285.492188 5.371094-3.101563v6.207031zm0 0"/><path d="m138.796875 288.597656 5.375-3.105468v6.207031zm0 0"/><path d="m144.171875 291.699219 5.375-3.101563v6.203125zm0 0"/><path d="m149.546875 294.800781 5.375-3.101562v6.203125zm0 0"/><path d="m154.921875 297.902344 5.375-3.101563v6.207031zm0 0"/><path d="m235.53125 276.183594 5.375-3.101563v6.207031zm0 0"/><path d="m240.90625 273.082031 5.375-3.101562v6.203125zm0 0"/><path d="m294.648438 186.207031 5.371093-3.105469v6.207032zm0 0"/><path d="m294.648438 148.972656 5.371093-3.101562v6.203125zm0 0"/><path d="m144.171875 62.097656 5.375-3.105468v6.207031zm0 0"/><path d="m138.796875 65.199219 5.375-3.101563v6.203125zm0 0"/><path d="m133.425781 68.300781 5.371094-3.101562v6.203125zm0 0"/><path d="m128.050781 71.402344 5.375-3.101563v6.207031zm0 0"/><path d="m106.554688 83.816406 5.375-3.105468v6.207031zm0 0"/><path d="m58.1875 148.972656 5.375-3.101562v6.203125zm0 0"/><path d="m58.1875 186.207031 5.375-3.105469v6.207032zm0 0"/><path d="m58.1875 192.410156 5.375-3.101562v6.207031zm0 0"/><path d="m101.179688 273.082031 5.375-3.101562v6.203125zm0 0"/><path d="m106.554688 276.183594 5.375-3.101563v6.207031zm0 0"/><path d="m111.929688 279.289062 5.371093-3.105468v6.207031zm0 0"/><path d="m117.300781 282.390625 5.375-3.101563v6.203126zm0 0"/><path d="m144.171875 297.902344 5.375-3.101563v6.207031zm0 0"/><path d="m246.28125 276.183594 5.375-3.101563v6.207031zm0 0"/><path d="m52.8125 164.484375 5.375-3.101563v6.207032zm0 0"/><path d="m52.8125 176.898438 5.375-3.105469v6.207031zm0 0"/><path d="m52.8125 201.71875 5.375-3.101562v6.203124zm0 0"/><path d="m95.804688 276.183594 5.375-3.101563v6.207031zm0 0"/><path d="m262.402344 273.082031 5.375-3.101562v6.203125zm0 0"/><path d="m47.4375 167.589844 5.375-3.105469v6.207031zm0 0"/><path d="m257.027344 282.390625 5.375-3.101563v6.203126zm0 0"/><path d="m181.792969 176.898438-5.375-3.105469v6.207031zm0 0"/><path d="m181.792969 183.101562-5.375-3.101562v6.207031zm0 0"/><path d="m192.539062 183.101562-5.375-3.101562v6.207031zm0 0"/><path d="m181.792969 170.691406-5.375-3.101562v6.203125zm0 0"/><path d="m176.417969 173.792969-5.375-3.101563v6.207032zm0 0"/><path d="m176.417969 180-5.375-3.101562v6.203124zm0 0"/><path d="m181.792969 189.308594-5.375-3.101563v6.203125zm0 0"/><path d="m187.164062 186.207031-5.371093-3.105469v6.207032zm0 0"/><path d="m197.914062 186.207031-5.375-3.105469v6.207032zm0 0"/><path d="m197.914062 180-5.375-3.101562v6.203124zm0 0"/><path d="m197.914062 173.792969-5.375-3.101563v6.207032zm0 0"/><path d="m192.539062 170.691406-5.375-3.101562v6.203125zm0 0"/><path d="m187.164062 167.589844-5.371093-3.105469v6.207031zm0 0"/><path d="m176.417969 167.589844-5.375-3.105469v6.207031zm0 0"/><path d="m171.042969 170.691406-5.375-3.101562v6.203125zm0 0"/><path d="m171.042969 176.898438-5.375-3.105469v6.207031zm0 0"/><path d="m176.417969 192.410156-5.375-3.101562v6.207031zm0 0"/><path d="m187.164062 192.410156-5.371093-3.101562v6.207031zm0 0"/><path d="m192.539062 189.308594-5.375-3.101563v6.203125zm0 0"/><path d="m197.914062 167.589844-5.375-3.105469v6.207031zm0 0"/><path d="m192.539062 164.484375-5.375-3.101563v6.207032zm0 0"/><path d="m165.667969 167.589844-5.371094-3.105469v6.207031zm0 0"/><path d="m165.667969 173.792969-5.371094-3.101563v6.207032zm0 0"/><path d="m171.042969 195.515625-5.375-3.105469v6.207032zm0 0"/><path d="m176.417969 198.617188-5.375-3.101563v6.203125zm0 0"/><path d="m192.539062 195.515625-5.375-3.105469v6.207032zm0 0"/><path d="m197.914062 192.410156-5.375-3.101562v6.207031zm0 0"/><path d="m208.660156 173.792969-5.371094-3.101563v6.207032zm0 0"/><path d="m197.914062 161.382812-5.375-3.101562v6.203125zm0 0"/><path d="m181.792969 152.074219-5.375-3.101563v6.207032zm0 0"/><path d="m160.296875 170.691406-5.375-3.101562v6.203125zm0 0"/><path d="m160.296875 183.101562-5.375-3.101562v6.207031zm0 0"/><path d="m160.296875 189.308594-5.375-3.101563v6.203125zm0 0"/><path d="m160.296875 195.515625-5.375-3.105469v6.207032zm0 0"/><path d="m165.667969 198.617188-5.371094-3.101563v6.203125zm0 0"/><path d="m171.042969 201.71875-5.375-3.101562v6.203124zm0 0"/><path d="m176.417969 204.820312-5.375-3.101562v6.207031zm0 0"/><path d="m197.914062 198.617188-5.375-3.101563v6.203125zm0 0"/><path d="m214.035156 195.515625-5.375-3.105469v6.207032zm0 0"/><path d="m214.035156 183.101562-5.375-3.101562v6.207031zm0 0"/><path d="m214.035156 176.898438-5.375-3.105469v6.207031zm0 0"/><path d="m197.914062 155.179688-5.375-3.105469v6.207031zm0 0"/><path d="m192.539062 152.074219-5.375-3.101563v6.207032zm0 0"/><path d="m187.164062 148.972656-5.371093-3.101562v6.203125zm0 0"/><path d="m181.792969 145.871094-5.375-3.105469v6.207031zm0 0"/><path d="m176.417969 148.972656-5.375-3.101562v6.203125zm0 0"/><path d="m154.921875 167.589844-5.375-3.105469v6.207031zm0 0"/><path d="m154.921875 186.207031-5.375-3.105469v6.207032zm0 0"/><path d="m154.921875 192.410156-5.375-3.101562v6.207031zm0 0"/><path d="m187.164062 211.027344-5.371093-3.101563v6.203125zm0 0"/><path d="m192.539062 207.925781-5.375-3.105469v6.207032zm0 0"/><path d="m197.914062 204.820312-5.375-3.101562v6.207031zm0 0"/><path d="m203.289062 201.71875-5.375-3.101562v6.203124zm0 0"/><path d="m208.660156 198.617188-5.371094-3.101563v6.203125zm0 0"/><path d="m219.410156 180-5.375-3.101562v6.203124zm0 0"/><path d="m219.410156 173.792969-5.375-3.101563v6.207032zm0 0"/><path d="m219.410156 161.382812-5.375-3.101562v6.203125zm0 0"/><path d="m214.035156 158.28125-5.375-3.101562v6.203124zm0 0"/><path d="m192.539062 145.871094-5.375-3.105469v6.207031zm0 0"/><path d="m187.164062 142.765625-5.371093-3.101563v6.207032zm0 0"/><path d="m171.042969 145.871094-5.375-3.105469v6.207031zm0 0"/><path d="m149.546875 170.691406-5.375-3.101562v6.203125zm0 0"/><path d="m149.546875 189.308594-5.375-3.101563v6.203125zm0 0"/><path d="m154.921875 204.820312-5.375-3.101562v6.207031zm0 0"/><path d="m192.539062 214.128906-5.375-3.101562v6.207031zm0 0"/><path d="m208.660156 204.820312-5.371094-3.101562v6.207031zm0 0"/><path d="m214.035156 201.71875-5.375-3.101562v6.203124zm0 0"/><path d="m219.410156 155.179688-5.375-3.105469v6.207031zm0 0"/><path d="m192.539062 139.664062-5.375-3.101562v6.203125zm0 0"/><path d="m187.164062 136.5625-5.371093-3.105469v6.207031zm0 0"/><path d="m171.042969 139.664062-5.375-3.101562v6.203125zm0 0"/><path d="m154.921875 148.972656-5.375-3.101562v6.203125zm0 0"/><path d="m149.546875 207.925781-5.375-3.105469v6.207032zm0 0"/><path d="m154.921875 211.027344-5.375-3.101563v6.203125zm0 0"/><path d="m181.792969 226.542969-5.375-3.105469v6.207031zm0 0"/><path d="m187.164062 223.4375-5.371093-3.101562v6.207031zm0 0"/><path d="m192.539062 220.335938-5.375-3.101563v6.203125zm0 0"/><path d="m203.289062 214.128906-5.375-3.101562v6.207031zm0 0"/><path d="m214.035156 207.925781-5.375-3.105469v6.207032zm0 0"/><path d="m230.160156 198.617188-5.375-3.101563v6.203125zm0 0"/><path d="m230.160156 155.179688-5.375-3.105469v6.207031zm0 0"/><path d="m224.785156 152.074219-5.375-3.101563v6.207032zm0 0"/><path d="m208.660156 142.765625-5.371094-3.101563v6.207032zm0 0"/><path d="m192.539062 133.457031-5.375-3.101562v6.207031zm0 0"/><path d="m171.042969 133.457031-5.375-3.101562v6.207031zm0 0"/><path d="m165.667969 136.5625-5.371094-3.105469v6.207031zm0 0"/><path d="m160.296875 139.664062-5.375-3.101562v6.203125zm0 0"/><path d="m154.921875 142.765625-5.375-3.101563v6.207032zm0 0"/><path d="m149.546875 145.871094-5.375-3.105469v6.207031zm0 0"/><path d="m138.796875 152.074219-5.371094-3.101563v6.207032zm0 0"/><path d="m138.796875 158.28125-5.371094-3.101562v6.203124zm0 0"/><path d="m138.796875 201.71875-5.371094-3.101562v6.203124zm0 0"/><path d="m138.796875 207.925781-5.371094-3.105469v6.207032zm0 0"/><path d="m144.171875 211.027344-5.375-3.101563v6.203125zm0 0"/><path d="m149.546875 214.128906-5.375-3.101562v6.207031zm0 0"/><path d="m154.921875 217.234375-5.375-3.105469v6.207032zm0 0"/><path d="m171.042969 226.542969-5.375-3.105469v6.207031zm0 0"/><path d="m176.417969 229.644531-5.375-3.101562v6.203125zm0 0"/><path d="m181.792969 232.746094-5.375-3.101563v6.203125zm0 0"/><path d="m235.53125 176.898438-5.371094-3.105469v6.207031zm0 0"/><path d="m235.53125 158.28125-5.371094-3.101562v6.203124zm0 0"/><path d="m235.53125 152.074219-5.371094-3.101563v6.207032zm0 0"/><path d="m219.410156 142.765625-5.375-3.101563v6.207032zm0 0"/><path d="m171.042969 127.253906-5.375-3.101562v6.203125zm0 0"/><path d="m138.796875 145.871094-5.371094-3.105469v6.207031zm0 0"/><path d="m133.425781 155.179688-5.375-3.105469v6.207031zm0 0"/><path d="m133.425781 173.792969-5.375-3.101563v6.207032zm0 0"/><path d="m133.425781 180-5.375-3.101562v6.203124zm0 0"/><path d="m133.425781 186.207031-5.375-3.105469v6.207032zm0 0"/><path d="m133.425781 192.410156-5.375-3.101562v6.207031zm0 0"/><path d="m133.425781 198.617188-5.375-3.101563v6.203125zm0 0"/><path d="m133.425781 204.820312-5.375-3.101562v6.207031zm0 0"/><path d="m165.667969 229.644531-5.371094-3.101562v6.203125zm0 0"/><path d="m203.289062 226.542969-5.375-3.105469v6.207031zm0 0"/><path d="m208.660156 223.4375-5.371094-3.101562v6.207031zm0 0"/><path d="m214.035156 220.335938-5.375-3.101563v6.203125zm0 0"/><path d="m240.90625 211.027344-5.375-3.101563v6.203125zm0 0"/><path d="m240.90625 186.207031-5.375-3.105469v6.207032zm0 0"/><path d="m240.90625 180-5.375-3.101562v6.203124zm0 0"/><path d="m240.90625 173.792969-5.375-3.101563v6.207032zm0 0"/><path d="m240.90625 148.972656-5.375-3.101562v6.203125zm0 0"/><path d="m203.289062 127.253906-5.375-3.101562v6.203125zm0 0"/><path d="m197.914062 124.152344-5.375-3.105469v6.207031zm0 0"/><path d="m192.539062 121.046875-5.375-3.101563v6.207032zm0 0"/><path d="m187.164062 117.945312-5.371093-3.101562v6.203125zm0 0"/><path d="m181.792969 114.84375-5.375-3.105469v6.207031zm0 0"/><path d="m171.042969 121.046875-5.375-3.101563v6.207032zm0 0"/><path d="m165.667969 124.152344-5.371094-3.105469v6.207031zm0 0"/><path d="m149.546875 133.457031-5.375-3.101562v6.207031zm0 0"/><path d="m133.425781 142.765625-5.375-3.101563v6.207032zm0 0"/><path d="m128.050781 158.28125-5.375-3.101562v6.203124zm0 0"/><path d="m128.050781 176.898438-5.375-3.105469v6.207031zm0 0"/><path d="m128.050781 183.101562-5.375-3.101562v6.207031zm0 0"/><path d="m128.050781 195.515625-5.375-3.105469v6.207032zm0 0"/><path d="m128.050781 201.71875-5.375-3.101562v6.203124zm0 0"/><path d="m128.050781 214.128906-5.375-3.101562v6.207031zm0 0"/><path d="m160.296875 232.746094-5.375-3.101563v6.203125zm0 0"/><path d="m165.667969 235.847656-5.371094-3.101562v6.207031zm0 0"/><path d="m181.792969 245.15625-5.375-3.101562v6.207031zm0 0"/><path d="m197.914062 235.847656-5.375-3.101562v6.207031zm0 0"/><path d="m203.289062 232.746094-5.375-3.101563v6.203125zm0 0"/><path d="m246.28125 207.925781-5.375-3.105469v6.207032zm0 0"/><path d="m246.28125 164.484375-5.375-3.101563v6.207032zm0 0"/><path d="m224.785156 133.457031-5.375-3.101562v6.207031zm0 0"/><path d="m219.410156 130.355469-5.375-3.101563v6.203125zm0 0"/><path d="m203.289062 121.046875-5.375-3.101563v6.207032zm0 0"/><path d="m197.914062 117.945312-5.375-3.101562v6.203125zm0 0"/><path d="m187.164062 111.738281-5.371093-3.101562v6.207031zm0 0"/><path d="m181.792969 108.636719-5.375-3.101563v6.203125zm0 0"/><path d="m176.417969 111.738281-5.375-3.101562v6.207031zm0 0"/><path d="m171.042969 114.84375-5.375-3.105469v6.207031zm0 0"/><path d="m160.296875 121.046875-5.375-3.101563v6.207032zm0 0"/><path d="m149.546875 127.253906-5.375-3.101562v6.203125zm0 0"/><path d="m144.171875 130.355469-5.375-3.101563v6.203125zm0 0"/><path d="m122.675781 142.765625-5.375-3.101563v6.207032zm0 0"/><path d="m122.675781 161.382812-5.375-3.101562v6.203125zm0 0"/><path d="m122.675781 180-5.375-3.101562v6.203124zm0 0"/><path d="m122.675781 198.617188-5.375-3.101563v6.203125zm0 0"/><path d="m133.425781 223.4375-5.375-3.101562v6.207031zm0 0"/><path d="m176.417969 248.261719-5.375-3.105469v6.207031zm0 0"/><path d="m181.792969 251.363281-5.375-3.101562v6.203125zm0 0"/><path d="m197.914062 242.054688-5.375-3.101563v6.203125zm0 0"/><path d="m203.289062 238.953125-5.375-3.105469v6.207032zm0 0"/><path d="m224.785156 226.542969-5.375-3.105469v6.207031zm0 0"/><path d="m230.160156 223.4375-5.375-3.101562v6.207031zm0 0"/><path d="m251.65625 204.820312-5.375-3.101562v6.207031zm0 0"/><path d="m251.65625 198.617188-5.375-3.101563v6.203125zm0 0"/><path d="m251.65625 167.589844-5.375-3.105469v6.207031zm0 0"/><path d="m251.65625 142.765625-5.375-3.101563v6.207032zm0 0"/><path d="m246.28125 139.664062-5.375-3.101562v6.203125zm0 0"/><path d="m240.90625 136.5625-5.375-3.105469v6.207031zm0 0"/><path d="m224.785156 127.253906-5.375-3.101562v6.203125zm0 0"/><path d="m203.289062 114.84375-5.375-3.105469v6.207031zm0 0"/><path d="m165.667969 111.738281-5.371094-3.101562v6.207031zm0 0"/><path d="m160.296875 114.84375-5.375-3.105469v6.207031zm0 0"/><path d="m154.921875 117.945312-5.375-3.101562v6.203125zm0 0"/><path d="m133.425781 130.355469-5.375-3.101563v6.203125zm0 0"/><path d="m117.300781 158.28125-5.371093-3.101562v6.203124zm0 0"/><path d="m117.300781 201.71875-5.371093-3.101562v6.203124zm0 0"/><path d="m117.300781 207.925781-5.371093-3.105469v6.207032zm0 0"/><path d="m117.300781 214.128906-5.371093-3.101562v6.207031zm0 0"/><path d="m117.300781 220.335938-5.371093-3.101563v6.203125zm0 0"/><path d="m128.050781 226.542969-5.375-3.105469v6.207031zm0 0"/><path d="m133.425781 229.644531-5.375-3.101562v6.203125zm0 0"/><path d="m138.796875 232.746094-5.371094-3.101563v6.203125zm0 0"/><path d="m171.042969 251.363281-5.375-3.101562v6.203125zm0 0"/><path d="m176.417969 254.464844-5.375-3.101563v6.207031zm0 0"/><path d="m181.792969 257.570312-5.375-3.105468v6.207031zm0 0"/><path d="m203.289062 245.15625-5.375-3.101562v6.207031zm0 0"/><path d="m214.035156 238.953125-5.375-3.105469v6.207032zm0 0"/><path d="m230.160156 229.644531-5.375-3.101562v6.203125zm0 0"/><path d="m257.027344 207.925781-5.371094-3.105469v6.207032zm0 0"/><path d="m257.027344 201.71875-5.371094-3.101562v6.203124zm0 0"/><path d="m257.027344 195.515625-5.371094-3.105469v6.207032zm0 0"/><path d="m257.027344 170.691406-5.371094-3.101562v6.203125zm0 0"/><path d="m257.027344 164.484375-5.371094-3.101563v6.207032zm0 0"/><path d="m251.65625 136.5625-5.375-3.105469v6.207031zm0 0"/><path d="m246.28125 133.457031-5.375-3.101562v6.207031zm0 0"/><path d="m203.289062 108.636719-5.375-3.101563v6.203125zm0 0"/><path d="m197.914062 105.535156-5.375-3.105468v6.207031zm0 0"/><path d="m181.792969 96.226562-5.375-3.101562v6.203125zm0 0"/><path d="m133.425781 124.152344-5.375-3.105469v6.207031zm0 0"/><path d="m128.050781 127.253906-5.375-3.101562v6.203125zm0 0"/><path d="m117.300781 133.457031-5.371093-3.101562v6.207031zm0 0"/><path d="m111.929688 173.792969-5.375-3.101563v6.207032zm0 0"/><path d="m111.929688 180-5.375-3.101562v6.203124zm0 0"/><path d="m111.929688 186.207031-5.375-3.105469v6.207032zm0 0"/><path d="m111.929688 211.027344-5.375-3.101563v6.203125zm0 0"/><path d="m111.929688 217.234375-5.375-3.105469v6.207032zm0 0"/><path d="m138.796875 238.953125-5.371094-3.105469v6.207032zm0 0"/><path d="m165.667969 254.464844-5.371094-3.101563v6.207031zm0 0"/><path d="m171.042969 257.570312-5.375-3.105468v6.207031zm0 0"/><path d="m187.164062 260.671875-5.371093-3.101563v6.203126zm0 0"/><path d="m192.539062 257.570312-5.375-3.105468v6.207031zm0 0"/><path d="m235.53125 232.746094-5.371094-3.101563v6.203125zm0 0"/><path d="m240.90625 229.644531-5.375-3.101562v6.203125zm0 0"/><path d="m246.28125 226.542969-5.375-3.105469v6.207031zm0 0"/><path d="m251.65625 223.4375-5.375-3.101562v6.207031zm0 0"/><path d="m262.402344 198.617188-5.375-3.101563v6.203125zm0 0"/><path d="m262.402344 192.410156-5.375-3.101562v6.207031zm0 0"/><path d="m262.402344 186.207031-5.375-3.105469v6.207032zm0 0"/><path d="m251.65625 130.355469-5.375-3.101563v6.203125zm0 0"/><path d="m235.53125 121.046875-5.371094-3.101563v6.207032zm0 0"/><path d="m230.160156 117.945312-5.375-3.101562v6.203125zm0 0"/><path d="m224.785156 114.84375-5.375-3.105469v6.207031zm0 0"/><path d="m203.289062 102.429688-5.375-3.101563v6.207031zm0 0"/><path d="m181.792969 90.019531-5.375-3.101562v6.207031zm0 0"/><path d="m176.417969 93.125-5.375-3.105469v6.207031zm0 0"/><path d="m138.796875 114.84375-5.371094-3.105469v6.207031zm0 0"/><path d="m133.425781 117.945312-5.375-3.101562v6.203125zm0 0"/><path d="m111.929688 130.355469-5.375-3.101563v6.203125zm0 0"/><path d="m106.554688 145.871094-5.375-3.105469v6.207031zm0 0"/><path d="m106.554688 152.074219-5.375-3.101563v6.207032zm0 0"/><path d="m106.554688 158.28125-5.375-3.101562v6.203124zm0 0"/><path d="m106.554688 176.898438-5.375-3.105469v6.207031zm0 0"/><path d="m106.554688 183.101562-5.375-3.101562v6.207031zm0 0"/><path d="m106.554688 214.128906-5.375-3.101562v6.207031zm0 0"/><path d="m117.300781 232.746094-5.371093-3.101563v6.203125zm0 0"/><path d="m133.425781 242.054688-5.375-3.101563v6.203125zm0 0"/><path d="m149.546875 251.363281-5.375-3.101562v6.203125zm0 0"/><path d="m154.921875 254.464844-5.375-3.101563v6.207031zm0 0"/><path d="m160.296875 257.570312-5.375-3.105468v6.207031zm0 0"/><path d="m165.667969 260.671875-5.371094-3.101563v6.203126zm0 0"/><path d="m171.042969 263.773438-5.375-3.101563v6.203125zm0 0"/><path d="m187.164062 266.875-5.371093-3.101562v6.207031zm0 0"/><path d="m192.539062 263.773438-5.375-3.101563v6.203125zm0 0"/><path d="m208.660156 254.464844-5.371094-3.101563v6.207031zm0 0"/><path d="m240.90625 235.847656-5.375-3.101562v6.207031zm0 0"/><path d="m251.65625 229.644531-5.375-3.101562v6.203125zm0 0"/><path d="m267.777344 226.542969-5.375-3.105469v6.207031zm0 0"/><path d="m267.777344 201.71875-5.375-3.101562v6.203124zm0 0"/><path d="m267.777344 195.515625-5.375-3.105469v6.207032zm0 0"/><path d="m267.777344 189.308594-5.375-3.101563v6.203125zm0 0"/><path d="m267.777344 183.101562-5.375-3.101562v6.207031zm0 0"/><path d="m267.777344 170.691406-5.375-3.101562v6.203125zm0 0"/><path d="m267.777344 164.484375-5.375-3.101563v6.207032zm0 0"/><path d="m267.777344 152.074219-5.375-3.101563v6.207032zm0 0"/><path d="m267.777344 145.871094-5.375-3.105469v6.207031zm0 0"/><path d="m267.777344 139.664062-5.375-3.101562v6.203125zm0 0"/><path d="m267.777344 133.457031-5.375-3.101562v6.207031zm0 0"/><path d="m262.402344 130.355469-5.375-3.101563v6.203125zm0 0"/><path d="m257.027344 127.253906-5.371094-3.101562v6.203125zm0 0"/><path d="m246.28125 121.046875-5.375-3.101563v6.207032zm0 0"/><path d="m235.53125 114.84375-5.371094-3.105469v6.207031zm0 0"/><path d="m230.160156 111.738281-5.375-3.101562v6.207031zm0 0"/><path d="m160.296875 96.226562-5.375-3.101562v6.203125zm0 0"/><path d="m138.796875 108.636719-5.371094-3.101563v6.203125zm0 0"/><path d="m133.425781 111.738281-5.375-3.101562v6.207031zm0 0"/><path d="m128.050781 114.84375-5.375-3.105469v6.207031zm0 0"/><path d="m111.929688 124.152344-5.375-3.105469v6.207031zm0 0"/><path d="m106.554688 127.253906-5.375-3.101562v6.203125zm0 0"/><path d="m101.179688 148.972656-5.375-3.101562v6.203125zm0 0"/><path d="m101.179688 198.617188-5.375-3.101563v6.203125zm0 0"/><path d="m101.179688 217.234375-5.375-3.105469v6.207032zm0 0"/><path d="m111.929688 235.847656-5.375-3.101562v6.207031zm0 0"/><path d="m117.300781 238.953125-5.371093-3.105469v6.207032zm0 0"/><path d="m133.425781 248.261719-5.375-3.105469v6.207031zm0 0"/><path d="m144.171875 254.464844-5.375-3.101563v6.207031zm0 0"/><path d="m192.539062 269.980469-5.375-3.105469v6.207031zm0 0"/><path d="m214.035156 257.570312-5.375-3.105468v6.207031zm0 0"/><path d="m219.410156 254.464844-5.375-3.101563v6.207031zm0 0"/><path d="m224.785156 251.363281-5.375-3.101562v6.203125zm0 0"/><path d="m230.160156 248.261719-5.375-3.105469v6.207031zm0 0"/><path d="m235.53125 245.15625-5.371094-3.101562v6.207031zm0 0"/><path d="m240.90625 242.054688-5.375-3.101563v6.203125zm0 0"/><path d="m257.027344 232.746094-5.371094-3.101563v6.203125zm0 0"/><path d="m262.402344 229.644531-5.375-3.101562v6.203125zm0 0"/><path d="m273.152344 223.4375-5.375-3.101562v6.207031zm0 0"/><path d="m273.152344 204.820312-5.375-3.101562v6.207031zm0 0"/><path d="m273.152344 167.589844-5.375-3.105469v6.207031zm0 0"/><path d="m267.777344 127.253906-5.375-3.101562v6.203125zm0 0"/><path d="m262.402344 124.152344-5.375-3.105469v6.207031zm0 0"/><path d="m235.53125 108.636719-5.371094-3.101563v6.203125zm0 0"/><path d="m214.035156 96.226562-5.375-3.101562v6.203125zm0 0"/><path d="m208.660156 93.125-5.371094-3.105469v6.207031zm0 0"/><path d="m203.289062 90.019531-5.375-3.101562v6.207031zm0 0"/><path d="m197.914062 86.917969-5.375-3.101563v6.203125zm0 0"/><path d="m192.539062 83.816406-5.375-3.105468v6.207031zm0 0"/><path d="m187.164062 80.710938-5.371093-3.101563v6.207031zm0 0"/><path d="m181.792969 77.609375-5.375-3.101563v6.203126zm0 0"/><path d="m160.296875 90.019531-5.375-3.101562v6.207031zm0 0"/><path d="m144.171875 99.328125-5.375-3.101563v6.203126zm0 0"/><path d="m138.796875 102.429688-5.371094-3.101563v6.207031zm0 0"/><path d="m133.425781 105.535156-5.375-3.105468v6.207031zm0 0"/><path d="m128.050781 108.636719-5.375-3.101563v6.203125zm0 0"/><path d="m122.675781 111.738281-5.375-3.101562v6.207031zm0 0"/><path d="m111.929688 117.945312-5.375-3.101562v6.203125zm0 0"/><path d="m106.554688 121.046875-5.375-3.101563v6.207032zm0 0"/><path d="m101.179688 124.152344-5.375-3.105469v6.207031zm0 0"/><path d="m95.804688 195.515625-5.371094-3.105469v6.207032zm0 0"/><path d="m95.804688 214.128906-5.371094-3.101562v6.207031zm0 0"/><path d="m95.804688 220.335938-5.371094-3.101563v6.203125zm0 0"/><path d="m95.804688 226.542969-5.371094-3.105469v6.207031zm0 0"/><path d="m95.804688 232.746094-5.371094-3.101563v6.203125zm0 0"/><path d="m106.554688 238.953125-5.375-3.105469v6.207032zm0 0"/><path d="m111.929688 242.054688-5.375-3.101563v6.203125zm0 0"/><path d="m117.300781 245.15625-5.371093-3.101562v6.207031zm0 0"/><path d="m128.050781 251.363281-5.375-3.101562v6.203125zm0 0"/><path d="m144.171875 260.671875-5.375-3.101563v6.203126zm0 0"/><path d="m165.667969 273.082031-5.371094-3.101562v6.203125zm0 0"/><path d="m171.042969 276.183594-5.375-3.101563v6.207031zm0 0"/><path d="m181.792969 282.390625-5.375-3.101563v6.203126zm0 0"/><path d="m187.164062 279.289062-5.371093-3.105468v6.207031zm0 0"/><path d="m192.539062 276.183594-5.375-3.101563v6.207031zm0 0"/><path d="m219.410156 260.671875-5.375-3.101563v6.203126zm0 0"/><path d="m230.160156 254.464844-5.375-3.101563v6.207031zm0 0"/><path d="m240.90625 248.261719-5.375-3.105469v6.207031zm0 0"/><path d="m267.777344 232.746094-5.375-3.101563v6.203125zm0 0"/><path d="m278.523438 220.335938-5.371094-3.101563v6.203125zm0 0"/><path d="m278.523438 214.128906-5.371094-3.101562v6.207031zm0 0"/><path d="m278.523438 207.925781-5.371094-3.105469v6.207032zm0 0"/><path d="m278.523438 201.71875-5.371094-3.101562v6.203124zm0 0"/><path d="m278.523438 176.898438-5.371094-3.105469v6.207031zm0 0"/><path d="m278.523438 158.28125-5.371094-3.101562v6.203124zm0 0"/><path d="m278.523438 139.664062-5.371094-3.101562v6.203125zm0 0"/><path d="m267.777344 121.046875-5.375-3.101563v6.207032zm0 0"/><path d="m251.65625 111.738281-5.375-3.101562v6.207031zm0 0"/><path d="m235.53125 102.429688-5.371094-3.101563v6.207031zm0 0"/><path d="m230.160156 99.328125-5.375-3.101563v6.203126zm0 0"/><path d="m214.035156 90.019531-5.375-3.101562v6.207031zm0 0"/><path d="m208.660156 86.917969-5.371094-3.101563v6.203125zm0 0"/><path d="m197.914062 80.710938-5.375-3.101563v6.207031zm0 0"/><path d="m187.164062 74.507812-5.371093-3.105468v6.207031zm0 0"/><path d="m160.296875 83.816406-5.375-3.105468v6.207031zm0 0"/><path d="m154.921875 86.917969-5.375-3.101563v6.203125zm0 0"/><path d="m144.171875 93.125-5.375-3.105469v6.207031zm0 0"/><path d="m138.796875 96.226562-5.371094-3.101562v6.203125zm0 0"/><path d="m90.433594 124.152344-5.375-3.105469v6.207031zm0 0"/><path d="m90.433594 130.355469-5.375-3.101563v6.203125zm0 0"/><path d="m90.433594 136.5625-5.375-3.105469v6.207031zm0 0"/><path d="m90.433594 161.382812-5.375-3.101562v6.203125zm0 0"/><path d="m90.433594 167.589844-5.375-3.105469v6.207031zm0 0"/><path d="m90.433594 173.792969-5.375-3.101563v6.207032zm0 0"/><path d="m90.433594 180-5.375-3.101562v6.203124zm0 0"/><path d="m90.433594 186.207031-5.375-3.105469v6.207032zm0 0"/><path d="m90.433594 192.410156-5.375-3.101562v6.207031zm0 0"/><path d="m90.433594 217.234375-5.375-3.105469v6.207032zm0 0"/><path d="m90.433594 229.644531-5.375-3.101562v6.203125zm0 0"/><path d="m128.050781 257.570312-5.375-3.105468v6.207031zm0 0"/><path d="m138.796875 263.773438-5.371094-3.101563v6.203125zm0 0"/><path d="m144.171875 266.875-5.375-3.101562v6.207031zm0 0"/><path d="m176.417969 285.492188-5.375-3.101563v6.207031zm0 0"/><path d="m187.164062 285.492188-5.371093-3.101563v6.207031zm0 0"/><path d="m192.539062 282.390625-5.375-3.101563v6.203126zm0 0"/><path d="m203.289062 276.183594-5.375-3.101563v6.207031zm0 0"/><path d="m208.660156 273.082031-5.371094-3.101562v6.203125zm0 0"/><path d="m224.785156 263.773438-5.375-3.101563v6.203125zm0 0"/><path d="m230.160156 260.671875-5.375-3.101563v6.203126zm0 0"/><path d="m246.28125 251.363281-5.375-3.101562v6.203125zm0 0"/><path d="m251.65625 248.261719-5.375-3.105469v6.207031zm0 0"/><path d="m257.027344 245.15625-5.371094-3.101562v6.207031zm0 0"/><path d="m283.898438 198.617188-5.375-3.101563v6.203125zm0 0"/><path d="m283.898438 180-5.375-3.101562v6.203124zm0 0"/><path d="m283.898438 173.792969-5.375-3.101563v6.207032zm0 0"/><path d="m283.898438 167.589844-5.375-3.105469v6.207031zm0 0"/><path d="m283.898438 161.382812-5.375-3.101562v6.203125zm0 0"/><path d="m283.898438 155.179688-5.375-3.105469v6.207031zm0 0"/><path d="m283.898438 136.5625-5.375-3.105469v6.207031zm0 0"/><path d="m283.898438 124.152344-5.375-3.105469v6.207031zm0 0"/><path d="m246.28125 102.429688-5.375-3.101563v6.207031zm0 0"/><path d="m235.53125 96.226562-5.371094-3.101562v6.203125zm0 0"/><path d="m214.035156 83.816406-5.375-3.105468v6.207031zm0 0"/><path d="m203.289062 77.609375-5.375-3.101563v6.203126zm0 0"/><path d="m171.042969 71.402344-5.375-3.101563v6.207031zm0 0"/><path d="m165.667969 74.507812-5.371094-3.105468v6.207031zm0 0"/><path d="m133.425781 93.125-5.375-3.105469v6.207031zm0 0"/><path d="m122.675781 99.328125-5.375-3.101563v6.203126zm0 0"/><path d="m111.929688 105.535156-5.375-3.105468v6.207031zm0 0"/><path d="m90.433594 117.945312-5.375-3.101562v6.203125zm0 0"/><path d="m85.058594 145.871094-5.375-3.105469v6.207031zm0 0"/><path d="m85.058594 170.691406-5.375-3.101562v6.203125zm0 0"/><path d="m85.058594 189.308594-5.375-3.101563v6.203125zm0 0"/><path d="m85.058594 232.746094-5.375-3.101563v6.203125zm0 0"/><path d="m122.675781 260.671875-5.375-3.101563v6.203126zm0 0"/><path d="m144.171875 273.082031-5.375-3.101562v6.203125zm0 0"/><path d="m160.296875 282.390625-5.375-3.101563v6.203126zm0 0"/><path d="m171.042969 288.597656-5.375-3.105468v6.207031zm0 0"/><path d="m197.914062 285.492188-5.375-3.101563v6.207031zm0 0"/><path d="m230.160156 266.875-5.375-3.101562v6.207031zm0 0"/><path d="m251.65625 254.464844-5.375-3.101563v6.207031zm0 0"/><path d="m262.402344 248.261719-5.375-3.105469v6.207031zm0 0"/><path d="m267.777344 245.15625-5.375-3.101562v6.207031zm0 0"/><path d="m289.273438 226.542969-5.375-3.105469v6.207031zm0 0"/><path d="m289.273438 214.128906-5.375-3.101562v6.207031zm0 0"/><path d="m289.273438 195.515625-5.375-3.105469v6.207032zm0 0"/><path d="m289.273438 183.101562-5.375-3.101562v6.207031zm0 0"/><path d="m289.273438 152.074219-5.375-3.101563v6.207032zm0 0"/><path d="m289.273438 127.253906-5.375-3.101562v6.203125zm0 0"/><path d="m278.523438 114.84375-5.371094-3.105469v6.207031zm0 0"/><path d="m273.152344 111.738281-5.375-3.101562v6.207031zm0 0"/><path d="m267.777344 108.636719-5.375-3.101563v6.203125zm0 0"/><path d="m262.402344 105.535156-5.375-3.105468v6.207031zm0 0"/><path d="m257.027344 102.429688-5.371094-3.101563v6.207031zm0 0"/><path d="m165.667969 68.300781-5.371094-3.101562v6.203125zm0 0"/><path d="m133.425781 86.917969-5.375-3.101563v6.203125zm0 0"/><path d="m128.050781 90.019531-5.375-3.101562v6.207031zm0 0"/><path d="m111.929688 99.328125-5.375-3.101563v6.203126zm0 0"/><path d="m106.554688 102.429688-5.375-3.101563v6.207031zm0 0"/><path d="m90.433594 111.738281-5.375-3.101562v6.207031zm0 0"/><path d="m79.683594 142.765625-5.375-3.101563v6.207032zm0 0"/><path d="m79.683594 148.972656-5.375-3.101562v6.203125zm0 0"/><path d="m79.683594 204.820312-5.375-3.101562v6.207031zm0 0"/><path d="m79.683594 229.644531-5.375-3.101562v6.203125zm0 0"/><path d="m85.058594 245.15625-5.375-3.101562v6.207031zm0 0"/><path d="m90.433594 248.261719-5.375-3.105469v6.207031zm0 0"/><path d="m95.804688 251.363281-5.371094-3.101562v6.203125zm0 0"/><path d="m106.554688 257.570312-5.375-3.105468v6.207031zm0 0"/><path d="m122.675781 266.875-5.375-3.101562v6.207031zm0 0"/><path d="m138.796875 276.183594-5.371094-3.101563v6.207031zm0 0"/><path d="m144.171875 279.289062-5.375-3.105468v6.207031zm0 0"/><path d="m154.921875 285.492188-5.375-3.101563v6.207031zm0 0"/><path d="m160.296875 288.597656-5.375-3.105468v6.207031zm0 0"/><path d="m165.667969 291.699219-5.371094-3.101563v6.203125zm0 0"/><path d="m171.042969 294.800781-5.375-3.101562v6.203125zm0 0"/><path d="m203.289062 288.597656-5.375-3.105468v6.207031zm0 0"/><path d="m246.28125 263.773438-5.375-3.101563v6.203125zm0 0"/><path d="m251.65625 260.671875-5.375-3.101563v6.203126zm0 0"/><path d="m267.777344 251.363281-5.375-3.101562v6.203125zm0 0"/><path d="m294.648438 192.410156-5.375-3.101562v6.207031zm0 0"/><path d="m294.648438 186.207031-5.375-3.105469v6.207032zm0 0"/><path d="m294.648438 180-5.375-3.101562v6.203124zm0 0"/><path d="m294.648438 167.589844-5.375-3.105469v6.207031zm0 0"/><path d="m294.648438 155.179688-5.375-3.105469v6.207031zm0 0"/><path d="m294.648438 148.972656-5.375-3.101562v6.203125zm0 0"/><path d="m294.648438 142.765625-5.375-3.101563v6.207032zm0 0"/><path d="m149.546875 71.402344-5.375-3.101563v6.207031zm0 0"/><path d="m133.425781 80.710938-5.375-3.101563v6.207031zm0 0"/><path d="m128.050781 83.816406-5.375-3.105468v6.207031zm0 0"/><path d="m122.675781 86.917969-5.375-3.101563v6.203125zm0 0"/><path d="m117.300781 90.019531-5.371093-3.101562v6.207031zm0 0"/><path d="m111.929688 93.125-5.375-3.105469v6.207031zm0 0"/><path d="m106.554688 96.226562-5.375-3.101562v6.203125zm0 0"/><path d="m101.179688 99.328125-5.375-3.101563v6.203126zm0 0"/><path d="m95.804688 102.429688-5.371094-3.101563v6.207031zm0 0"/><path d="m90.433594 105.535156-5.375-3.105468v6.207031zm0 0"/><path d="m74.308594 152.074219-5.375-3.101563v6.207032zm0 0"/><path d="m74.308594 183.101562-5.375-3.101562v6.207031zm0 0"/><path d="m74.308594 189.308594-5.375-3.101563v6.203125zm0 0"/><path d="m74.308594 195.515625-5.375-3.105469v6.207032zm0 0"/><path d="m74.308594 201.71875-5.375-3.101562v6.203124zm0 0"/><path d="m74.308594 220.335938-5.375-3.101563v6.203125zm0 0"/><path d="m74.308594 226.542969-5.375-3.105469v6.207031zm0 0"/><path d="m101.179688 260.671875-5.375-3.101563v6.203126zm0 0"/><path d="m106.554688 263.773438-5.375-3.101563v6.203125zm0 0"/><path d="m117.300781 269.980469-5.371093-3.105469v6.207031zm0 0"/><path d="m122.675781 273.082031-5.375-3.101562v6.203125zm0 0"/><path d="m133.425781 279.289062-5.375-3.105468v6.207031zm0 0"/><path d="m165.667969 297.902344-5.371094-3.101563v6.207031zm0 0"/><path d="m240.90625 273.082031-5.375-3.101562v6.203125zm0 0"/><path d="m251.65625 266.875-5.375-3.101562v6.207031zm0 0"/><path d="m154.921875 62.097656-5.375-3.105468v6.207031zm0 0"/><path d="m149.546875 65.199219-5.375-3.101563v6.203125zm0 0"/><path d="m144.171875 68.300781-5.375-3.101562v6.203125zm0 0"/><path d="m138.796875 71.402344-5.371094-3.101563v6.207031zm0 0"/><path d="m133.425781 74.507812-5.375-3.105468v6.207031zm0 0"/><path d="m68.933594 142.765625-5.371094-3.101563v6.207032zm0 0"/><path d="m68.933594 155.179688-5.371094-3.105469v6.207031zm0 0"/><path d="m68.933594 161.382812-5.371094-3.101562v6.203125zm0 0"/><path d="m68.933594 167.589844-5.371094-3.105469v6.207031zm0 0"/><path d="m68.933594 173.792969-5.371094-3.101563v6.207032zm0 0"/><path d="m68.933594 180-5.371094-3.101562v6.203124zm0 0"/><path d="m68.933594 198.617188-5.371094-3.101563v6.203125zm0 0"/><path d="m144.171875 291.699219-5.375-3.101563v6.203125zm0 0"/><path d="m154.921875 297.902344-5.375-3.101563v6.207031zm0 0"/><path d="m240.90625 279.289062-5.375-3.105468v6.207031zm0 0"/><path d="m257.027344 269.980469-5.371094-3.105469v6.207031zm0 0"/><path d="m262.402344 266.875-5.375-3.101562v6.207031zm0 0"/><path d="m111.929688 80.710938-5.375-3.101563v6.207031zm0 0"/><path d="m63.5625 158.28125-5.375-3.101562v6.203124zm0 0"/><path d="m63.5625 164.484375-5.375-3.101563v6.207032zm0 0"/><path d="m63.5625 170.691406-5.375-3.101562v6.203125zm0 0"/><path d="m63.5625 189.308594-5.375-3.101563v6.203125zm0 0"/><path d="m63.5625 201.71875-5.375-3.101562v6.203124zm0 0"/><path d="m106.554688 276.183594-5.375-3.101563v6.207031zm0 0"/><path d="m262.402344 273.082031-5.375-3.101562v6.203125zm0 0"/><path d="m58.1875 161.382812-5.375-3.101562v6.203125zm0 0"/><path d="m58.1875 167.589844-5.375-3.105469v6.207031zm0 0"/><path d="m58.1875 180-5.375-3.101562v6.203124zm0 0"/><path d="m58.1875 198.617188-5.375-3.101563v6.203125zm0 0"/><path d="m262.402344 279.289062-5.375-3.105468v6.207031zm0 0"/><path d="m52.8125 170.691406-5.375-3.101562v6.203125zm0 0"/></g></svg>