<svg height="360pt" viewBox="0 0 360 360" width="360pt" xmlns="http://www.w3.org/2000/svg"><path d="m0 0h360v360h-360z" fill="#800080"/><g fill="#fff" fill-rule="evenodd"><path d="m209.890625 180 15.640625-9.03125v18.0625zm0 0"/><path d="m147.316406 143.875 15.644532-9.035156v18.066406zm0 0"/><path d="m147.316406 216.125 15.644532-9.03125v18.066406zm0 0"/><path d="m225.53125 134.839844 15.644531-9.03125v18.066406zm0 0"/><path d="m209.890625 125.808594 15.640625-9.03125v18.0625zm0 0"/><path d="m194.246094 116.777344 15.644531-9.03125v18.0625zm0 0"/><path d="m178.601562 107.746094 15.644532-9.03125v18.0625zm0 0"/><path d="m178.601562 252.253906 15.644532-9.03125v18.0625zm0 0"/><path d="m194.246094 243.222656 15.644531-9.03125v18.0625zm0 0"/><path d="m209.890625 234.191406 15.640625-9.03125v18.0625zm0 0"/><path d="m225.53125 225.160156 15.644531-9.035156v18.066406zm0 0"/><path d="m100.386719 152.90625 15.644531-9.03125v18.0625zm0 0"/><path d="m100.386719 170.96875 15.644531-9.03125v18.0625zm0 0"/><path d="m100.386719 189.03125 15.644531-9.03125v18.0625zm0 0"/><path d="m100.386719 207.09375 15.644531-9.03125v18.0625zm0 0"/><path d="m209.890625 143.875-15.644531-9.035156v18.066406zm0 0"/><path d="m209.890625 216.125-15.644531-9.03125v18.066406zm0 0"/><path d="m256.820312 207.09375-15.644531-9.03125v18.0625zm0 0"/><path d="m256.820312 189.03125-15.644531-9.03125v18.0625zm0 0"/><path d="m256.820312 170.96875-15.644531-9.03125v18.0625zm0 0"/><path d="m256.820312 152.90625-15.644531-9.03125v18.0625zm0 0"/><path d="m147.316406 180-15.644531-9.03125v18.0625zm0 0"/><path d="m178.601562 107.746094-15.640624-9.03125v18.0625zm0 0"/><path d="m162.960938 116.777344-15.644532-9.03125v18.0625zm0 0"/><path d="m147.316406 125.808594-15.644531-9.03125v18.0625zm0 0"/><path d="m131.671875 134.839844-15.640625-9.03125v18.066406zm0 0"/><path d="m131.671875 225.160156-15.640625-9.035156v18.066406zm0 0"/><path d="m147.316406 234.191406-15.644531-9.03125v18.0625zm0 0"/><path d="m162.960938 243.222656-15.644532-9.03125v18.0625zm0 0"/><path d="m178.601562 252.253906-15.640624-9.03125v18.0625zm0 0"/></g></svg>