<svg height="360pt" viewBox="0 0 360 360" width="360pt" xmlns="http://www.w3.org/2000/svg"><path d="m0 0h360v360h-360z" fill="#800080"/><g fill="#fff"><path d="m175.582031 180 6.628907-3.828125v7.65625zm0 0"/><path d="m202.09375 195.304688 6.628906-3.824219v7.652343zm0 0"/><path d="m202.09375 164.695312 6.628906-3.828124v7.652343zm0 0"/><path d="m175.582031 149.386719 6.628907-3.828125v7.65625zm0 0"/><path d="m149.070312 164.695312 6.628907-3.828124v7.652343zm0 0"/><path d="m149.070312 195.304688 6.628907-3.824219v7.652343zm0 0"/><path d="m175.582031 210.613281 6.628907-3.828125v7.65625zm0 0"/><path d="m208.722656 191.480469 6.625-3.828125v7.652344zm0 0"/><path d="m208.722656 168.519531 6.625-3.824219v7.652344zm0 0"/><path d="m168.953125 145.558594 6.628906-3.824219v7.652344zm0 0"/><path d="m149.070312 157.039062 6.628907-3.824218v7.652344zm0 0"/><path d="m149.070312 202.960938 6.628907-3.828126v7.652344zm0 0"/><path d="m168.953125 214.441406 6.628906-3.828125v7.652344zm0 0"/><path d="m215.347656 202.960938 6.628906-3.828126v7.652344zm0 0"/><path d="m215.347656 195.304688 6.628906-3.824219v7.652343zm0 0"/><path d="m215.347656 164.695312 6.628906-3.828124v7.652343zm0 0"/><path d="m215.347656 157.039062 6.628906-3.824218v7.652344zm0 0"/><path d="m175.582031 134.082031 6.628907-3.828125v7.652344zm0 0"/><path d="m168.953125 137.90625 6.628906-3.824219v7.652344zm0 0"/><path d="m142.441406 153.214844 6.628906-3.828125v7.652343zm0 0"/><path d="m135.8125 157.039062 6.628906-3.824218v7.652344zm0 0"/><path d="m135.8125 202.960938 6.628906-3.828126v7.652344zm0 0"/><path d="m142.441406 206.785156 6.628906-3.824218v7.652343zm0 0"/><path d="m168.953125 222.09375 6.628906-3.828125v7.652344zm0 0"/><path d="m175.582031 225.917969 6.628907-3.824219v7.652344zm0 0"/><path d="m221.976562 206.785156 6.628907-3.824218v7.652343zm0 0"/><path d="m221.976562 191.480469 6.628907-3.828125v7.652344zm0 0"/><path d="m221.976562 183.828125 6.628907-3.828125v7.652344zm0 0"/><path d="m221.976562 176.171875 6.628907-3.824219v7.652344zm0 0"/><path d="m221.976562 168.519531 6.628907-3.824219v7.652344zm0 0"/><path d="m221.976562 153.214844 6.628907-3.828125v7.652343zm0 0"/><path d="m208.722656 145.558594 6.625-3.824219v7.652344zm0 0"/><path d="m188.835938 134.082031 6.628906-3.828125v7.652344zm0 0"/><path d="m175.582031 126.425781 6.628907-3.824219v7.652344zm0 0"/><path d="m162.324219 134.082031 6.628906-3.828125v7.652344zm0 0"/><path d="m155.699219 137.90625 6.625-3.824219v7.652344zm0 0"/><path d="m149.070312 141.734375 6.628907-3.828125v7.652344zm0 0"/><path d="m142.441406 145.558594 6.628906-3.824219v7.652344zm0 0"/><path d="m129.1875 153.214844 6.625-3.828125v7.652343zm0 0"/><path d="m129.1875 168.519531 6.625-3.824219v7.652344zm0 0"/><path d="m129.1875 191.480469 6.625-3.828125v7.652344zm0 0"/><path d="m129.1875 206.785156 6.625-3.824218v7.652343zm0 0"/><path d="m142.441406 214.441406 6.628906-3.828125v7.652344zm0 0"/><path d="m149.070312 218.265625 6.628907-3.824219v7.652344zm0 0"/><path d="m155.699219 222.09375 6.625-3.828125v7.652344zm0 0"/><path d="m162.324219 225.917969 6.628906-3.824219v7.652344zm0 0"/><path d="m175.582031 233.574219 6.628907-3.828125v7.652344zm0 0"/><path d="m188.835938 225.917969 6.628906-3.824219v7.652344zm0 0"/><path d="m208.722656 214.441406 6.625-3.828125v7.652344zm0 0"/><path d="m228.605469 202.960938 6.628906-3.828126v7.652344zm0 0"/><path d="m228.605469 157.039062 6.628906-3.824218v7.652344zm0 0"/><path d="m215.347656 141.734375 6.628906-3.828125v7.652344zm0 0"/><path d="m188.835938 126.425781 6.628906-3.824219v7.652344zm0 0"/><path d="m168.953125 122.601562 6.628906-3.828124v7.652343zm0 0"/><path d="m129.1875 145.558594 6.625-3.824219v7.652344zm0 0"/><path d="m122.558594 164.695312 6.628906-3.828124v7.652343zm0 0"/><path d="m122.558594 195.304688 6.628906-3.824219v7.652343zm0 0"/><path d="m129.1875 214.441406 6.625-3.828125v7.652344zm0 0"/><path d="m168.953125 237.398438 6.628906-3.824219v7.652343zm0 0"/><path d="m188.835938 233.574219 6.628906-3.828125v7.652344zm0 0"/><path d="m215.347656 218.265625 6.628906-3.824219v7.652344zm0 0"/><path d="m235.234375 214.441406 6.625-3.828125v7.652344zm0 0"/><path d="m235.234375 206.785156 6.625-3.824218v7.652343zm0 0"/><path d="m235.234375 199.132812 6.625-3.828124v7.65625zm0 0"/><path d="m235.234375 160.867188 6.625-3.828126v7.65625zm0 0"/><path d="m235.234375 153.214844 6.625-3.828125v7.652343zm0 0"/><path d="m235.234375 145.558594 6.625-3.824219v7.652344zm0 0"/><path d="m228.605469 141.734375 6.628906-3.828125v7.652344zm0 0"/><path d="m221.976562 137.90625 6.628907-3.824219v7.652344zm0 0"/><path d="m215.347656 134.082031 6.628906-3.828125v7.652344zm0 0"/><path d="m208.722656 130.253906 6.625-3.828125v7.65625zm0 0"/><path d="m202.09375 126.425781 6.628906-3.824219v7.652344zm0 0"/><path d="m195.464844 122.601562 6.628906-3.828124v7.652343zm0 0"/><path d="m188.835938 118.773438 6.628906-3.828126v7.65625zm0 0"/><path d="m182.210938 114.945312 6.625-3.824218v7.652344zm0 0"/><path d="m175.582031 111.121094 6.628907-3.828125v7.652343zm0 0"/><path d="m168.953125 114.945312 6.628906-3.824218v7.652344zm0 0"/><path d="m162.324219 118.773438 6.628906-3.828126v7.65625zm0 0"/><path d="m129.1875 137.90625 6.625-3.824219v7.652344zm0 0"/><path d="m122.558594 141.734375 6.628906-3.828125v7.652344zm0 0"/><path d="m115.929688 145.558594 6.628906-3.824219v7.652344zm0 0"/><path d="m115.929688 153.214844 6.628906-3.828125v7.652343zm0 0"/><path d="m115.929688 160.867188 6.628906-3.828126v7.65625zm0 0"/><path d="m115.929688 168.519531 6.628906-3.824219v7.652344zm0 0"/><path d="m115.929688 176.171875 6.628906-3.824219v7.652344zm0 0"/><path d="m115.929688 183.828125 6.628906-3.828125v7.652344zm0 0"/><path d="m115.929688 191.480469 6.628906-3.828125v7.652344zm0 0"/><path d="m115.929688 199.132812 6.628906-3.828124v7.65625zm0 0"/><path d="m115.929688 206.785156 6.628906-3.824218v7.652343zm0 0"/><path d="m115.929688 214.441406 6.628906-3.828125v7.652344zm0 0"/><path d="m122.558594 218.265625 6.628906-3.824219v7.652344zm0 0"/><path d="m129.1875 222.09375 6.625-3.828125v7.652344zm0 0"/><path d="m162.324219 241.226562 6.628906-3.828124v7.65625zm0 0"/><path d="m168.953125 245.054688 6.628906-3.828126v7.652344zm0 0"/><path d="m175.582031 248.878906 6.628907-3.824218v7.652343zm0 0"/><path d="m182.210938 245.054688 6.625-3.828126v7.652344zm0 0"/><path d="m188.835938 241.226562 6.628906-3.828124v7.65625zm0 0"/><path d="m195.464844 237.398438 6.628906-3.824219v7.652343zm0 0"/><path d="m202.09375 233.574219 6.628906-3.828125v7.652344zm0 0"/><path d="m208.722656 229.746094 6.625-3.828125v7.65625zm0 0"/><path d="m215.347656 225.917969 6.628906-3.824219v7.652344zm0 0"/><path d="m221.976562 222.09375 6.628907-3.828125v7.652344zm0 0"/><path d="m228.605469 218.265625 6.628906-3.824219v7.652344zm0 0"/><path d="m235.234375 137.90625 6.625-3.824219v7.652344zm0 0"/><path d="m221.976562 130.253906 6.628907-3.828125v7.65625zm0 0"/><path d="m195.464844 114.945312 6.628906-3.824218v7.652344zm0 0"/><path d="m182.210938 107.292969 6.625-3.824219v7.652344zm0 0"/><path d="m109.300781 149.386719 6.628907-3.828125v7.65625zm0 0"/><path d="m109.300781 164.695312 6.628907-3.828124v7.652343zm0 0"/><path d="m109.300781 195.304688 6.628907-3.824219v7.652343zm0 0"/><path d="m109.300781 210.613281 6.628907-3.828125v7.65625zm0 0"/><path d="m182.210938 252.707031 6.625-3.828125v7.652344zm0 0"/><path d="m195.464844 245.054688 6.628906-3.828126v7.652344zm0 0"/><path d="m221.976562 229.746094 6.628907-3.828125v7.65625zm0 0"/><path d="m235.234375 222.09375 6.625-3.828125v7.652344zm0 0"/><path d="m248.488281 206.785156 6.628907-3.824218v7.652343zm0 0"/><path d="m248.488281 191.480469 6.628907-3.828125v7.652344zm0 0"/><path d="m248.488281 168.519531 6.628907-3.824219v7.652344zm0 0"/><path d="m248.488281 153.214844 6.628907-3.828125v7.652343zm0 0"/><path d="m235.234375 130.253906 6.625-3.828125v7.65625zm0 0"/><path d="m188.835938 103.46875 6.628906-3.828125v7.652344zm0 0"/><path d="m162.324219 103.46875 6.628906-3.828125v7.652344zm0 0"/><path d="m149.070312 111.121094 6.628907-3.828125v7.652343zm0 0"/><path d="m129.1875 122.601562 6.625-3.828124v7.652343zm0 0"/><path d="m115.929688 130.253906 6.628906-3.828125v7.65625zm0 0"/><path d="m102.671875 153.214844 6.628906-3.828125v7.652343zm0 0"/><path d="m102.671875 206.785156 6.628906-3.824218v7.652343zm0 0"/><path d="m115.929688 229.746094 6.628906-3.828125v7.65625zm0 0"/><path d="m129.1875 237.398438 6.625-3.824219v7.652343zm0 0"/><path d="m149.070312 248.878906 6.628907-3.824218v7.652343zm0 0"/><path d="m162.324219 256.53125 6.628906-3.824219v7.652344zm0 0"/><path d="m188.835938 256.53125 6.628906-3.824219v7.652344zm0 0"/><path d="m235.234375 229.746094 6.625-3.828125v7.65625zm0 0"/><path d="m255.117188 225.917969 6.628906-3.824219v7.652344zm0 0"/><path d="m255.117188 218.265625 6.628906-3.824219v7.652344zm0 0"/><path d="m255.117188 202.960938 6.628906-3.828126v7.652344zm0 0"/><path d="m255.117188 157.039062 6.628906-3.824218v7.652344zm0 0"/><path d="m255.117188 141.734375 6.628906-3.828125v7.652344zm0 0"/><path d="m255.117188 134.082031 6.628906-3.828125v7.652344zm0 0"/><path d="m248.488281 130.253906 6.628907-3.828125v7.65625zm0 0"/><path d="m182.210938 91.988281 6.625-3.828125v7.652344zm0 0"/><path d="m175.582031 88.160156 6.628907-3.828125v7.65625zm0 0"/><path d="m168.953125 91.988281 6.628906-3.828125v7.652344zm0 0"/><path d="m155.699219 99.640625 6.625-3.828125v7.65625zm0 0"/><path d="m115.929688 122.601562 6.628906-3.828124v7.652343zm0 0"/><path d="m102.671875 130.253906 6.628906-3.828125v7.65625zm0 0"/><path d="m96.046875 134.082031 6.625-3.828125v7.652344zm0 0"/><path d="m96.046875 141.734375 6.625-3.828125v7.652344zm0 0"/><path d="m96.046875 218.265625 6.625-3.824219v7.652344zm0 0"/><path d="m96.046875 225.917969 6.625-3.824219v7.652344zm0 0"/><path d="m102.671875 229.746094 6.628906-3.828125v7.65625zm0 0"/><path d="m115.929688 237.398438 6.628906-3.824219v7.652343zm0 0"/><path d="m155.699219 260.359375 6.625-3.828125v7.65625zm0 0"/><path d="m168.953125 268.011719 6.628906-3.824219v7.652344zm0 0"/><path d="m175.582031 271.839844 6.628907-3.828125v7.65625zm0 0"/><path d="m182.210938 268.011719 6.625-3.824219v7.652344zm0 0"/><path d="m248.488281 229.746094 6.628907-3.828125v7.65625zm0 0"/><path d="m261.746094 222.09375 6.625-3.828125v7.652344zm0 0"/><path d="m261.746094 137.90625 6.625-3.824219v7.652344zm0 0"/><path d="m228.605469 111.121094 6.628906-3.828125v7.652343zm0 0"/><path d="m208.722656 99.640625 6.625-3.828125v7.65625zm0 0"/><path d="m168.953125 84.332031 6.628906-3.824219v7.652344zm0 0"/><path d="m96.046875 126.425781 6.625-3.824219v7.652344zm0 0"/><path d="m89.417969 168.519531 6.628906-3.824219v7.652344zm0 0"/><path d="m89.417969 191.480469 6.628906-3.828125v7.652344zm0 0"/><path d="m96.046875 233.574219 6.625-3.828125v7.652344zm0 0"/><path d="m168.953125 275.667969 6.628906-3.828125v7.652344zm0 0"/><path d="m208.722656 260.359375 6.625-3.828125v7.65625zm0 0"/><path d="m228.605469 248.878906 6.628906-3.824218v7.652343zm0 0"/><path d="m268.371094 233.574219 6.628906-3.828125v7.652344zm0 0"/><path d="m268.371094 225.917969 6.628906-3.824219v7.652344zm0 0"/><path d="m268.371094 202.960938 6.628906-3.828126v7.652344zm0 0"/><path d="m268.371094 157.039062 6.628906-3.824218v7.652344zm0 0"/><path d="m268.371094 134.082031 6.628906-3.828125v7.652344zm0 0"/><path d="m268.371094 126.425781 6.628906-3.824219v7.652344zm0 0"/><path d="m261.746094 122.601562 6.625-3.828124v7.652343zm0 0"/><path d="m248.488281 114.945312 6.628907-3.824218v7.652344zm0 0"/><path d="m195.464844 84.332031 6.628906-3.824219v7.652344zm0 0"/><path d="m182.210938 76.679688 6.625-3.824219v7.652343zm0 0"/><path d="m175.582031 72.855469 6.628907-3.828125v7.652344zm0 0"/><path d="m168.953125 76.679688 6.628906-3.824219v7.652343zm0 0"/><path d="m149.070312 88.160156 6.628907-3.828125v7.65625zm0 0"/><path d="m109.300781 111.121094 6.628907-3.828125v7.652343zm0 0"/><path d="m89.417969 122.601562 6.628906-3.828124v7.652343zm0 0"/><path d="m82.789062 126.425781 6.628907-3.824219v7.652344zm0 0"/><path d="m82.789062 134.082031 6.628907-3.828125v7.652344zm0 0"/><path d="m82.789062 149.386719 6.628907-3.828125v7.65625zm0 0"/><path d="m82.789062 210.613281 6.628907-3.828125v7.65625zm0 0"/><path d="m82.789062 225.917969 6.628907-3.824219v7.652344zm0 0"/><path d="m82.789062 233.574219 6.628907-3.828125v7.652344zm0 0"/><path d="m89.417969 237.398438 6.628906-3.824219v7.652343zm0 0"/><path d="m109.300781 248.878906 6.628907-3.824218v7.652343zm0 0"/><path d="m149.070312 271.839844 6.628907-3.828125v7.65625zm0 0"/><path d="m168.953125 283.320312 6.628906-3.828124v7.652343zm0 0"/><path d="m175.582031 287.144531 6.628907-3.824219v7.652344zm0 0"/><path d="m182.210938 283.320312 6.625-3.828124v7.652343zm0 0"/><path d="m195.464844 275.667969 6.628906-3.828125v7.652344zm0 0"/><path d="m248.488281 245.054688 6.628907-3.828126v7.652344zm0 0"/><path d="m261.746094 237.398438 6.625-3.824219v7.652343zm0 0"/><path d="m275 229.746094 6.628906-3.828125v7.65625zm0 0"/><path d="m275 222.09375 6.628906-3.828125v7.652344zm0 0"/><path d="m275 214.441406 6.628906-3.828125v7.652344zm0 0"/><path d="m275 191.480469 6.628906-3.828125v7.652344zm0 0"/><path d="m275 183.828125 6.628906-3.828125v7.652344zm0 0"/><path d="m275 176.171875 6.628906-3.824219v7.652344zm0 0"/><path d="m275 168.519531 6.628906-3.824219v7.652344zm0 0"/><path d="m275 145.558594 6.628906-3.824219v7.652344zm0 0"/><path d="m275 137.90625 6.628906-3.824219v7.652344zm0 0"/><path d="m275 130.253906 6.628906-3.828125v7.65625zm0 0"/><path d="m268.371094 118.773438 6.628906-3.828126v7.65625zm0 0"/><path d="m241.859375 103.46875 6.628906-3.828125v7.652344zm0 0"/><path d="m235.234375 99.640625 6.625-3.828125v7.65625zm0 0"/><path d="m215.347656 88.160156 6.628906-3.828125v7.65625zm0 0"/><path d="m208.722656 84.332031 6.625-3.824219v7.652344zm0 0"/><path d="m182.210938 69.027344 6.625-3.828125v7.65625zm0 0"/><path d="m168.953125 69.027344 6.628906-3.828125v7.65625zm0 0"/><path d="m162.324219 72.855469 6.628906-3.828125v7.652344zm0 0"/><path d="m155.699219 76.679688 6.625-3.824219v7.652343zm0 0"/><path d="m135.8125 88.160156 6.628906-3.828125v7.65625zm0 0"/><path d="m129.1875 91.988281 6.625-3.828125v7.652344zm0 0"/><path d="m122.558594 95.8125 6.628906-3.824219v7.652344zm0 0"/><path d="m115.929688 99.640625 6.628906-3.828125v7.65625zm0 0"/><path d="m96.046875 111.121094 6.625-3.828125v7.652343zm0 0"/><path d="m89.417969 114.945312 6.628906-3.824218v7.652344zm0 0"/><path d="m82.789062 118.773438 6.628907-3.828126v7.65625zm0 0"/><path d="m76.160156 130.253906 6.628906-3.828125v7.65625zm0 0"/><path d="m76.160156 160.867188 6.628906-3.828126v7.65625zm0 0"/><path d="m76.160156 168.519531 6.628906-3.824219v7.652344zm0 0"/><path d="m76.160156 191.480469 6.628906-3.828125v7.652344zm0 0"/><path d="m76.160156 199.132812 6.628906-3.828124v7.65625zm0 0"/><path d="m76.160156 229.746094 6.628906-3.828125v7.65625zm0 0"/><path d="m82.789062 241.226562 6.628907-3.828124v7.65625zm0 0"/><path d="m89.417969 245.054688 6.628906-3.828126v7.652344zm0 0"/><path d="m96.046875 248.878906 6.625-3.824218v7.652343zm0 0"/><path d="m115.929688 260.359375 6.628906-3.828125v7.65625zm0 0"/><path d="m122.558594 264.1875 6.628906-3.828125v7.652344zm0 0"/><path d="m129.1875 268.011719 6.625-3.824219v7.652344zm0 0"/><path d="m135.8125 271.839844 6.628906-3.828125v7.65625zm0 0"/><path d="m155.699219 283.320312 6.625-3.828124v7.652343zm0 0"/><path d="m162.324219 287.144531 6.628906-3.824219v7.652344zm0 0"/><path d="m168.953125 290.972656 6.628906-3.828125v7.65625zm0 0"/><path d="m182.210938 290.972656 6.625-3.828125v7.65625zm0 0"/><path d="m208.722656 275.667969 6.625-3.828125v7.652344zm0 0"/><path d="m215.347656 271.839844 6.628906-3.828125v7.65625zm0 0"/><path d="m235.234375 260.359375 6.625-3.828125v7.65625zm0 0"/><path d="m241.859375 256.53125 6.628906-3.824219v7.652344zm0 0"/><path d="m268.371094 241.226562 6.628906-3.828124v7.65625zm0 0"/><path d="m281.628906 241.226562 6.628906-3.828124v7.65625zm0 0"/><path d="m281.628906 233.574219 6.628906-3.828125v7.652344zm0 0"/><path d="m281.628906 210.613281 6.628906-3.828125v7.65625zm0 0"/><path d="m281.628906 202.960938 6.628906-3.828126v7.652344zm0 0"/><path d="m281.628906 157.039062 6.628906-3.824218v7.652344zm0 0"/><path d="m281.628906 149.386719 6.628906-3.828125v7.65625zm0 0"/><path d="m281.628906 126.425781 6.628906-3.824219v7.652344zm0 0"/><path d="m281.628906 118.773438 6.628906-3.828126v7.65625zm0 0"/><path d="m275 114.945312 6.628906-3.824218v7.652344zm0 0"/><path d="m241.859375 95.8125 6.628906-3.824219v7.652344zm0 0"/><path d="m215.347656 80.507812 6.628906-3.828124v7.652343zm0 0"/><path d="m182.210938 61.375 6.625-3.828125v7.652344zm0 0"/><path d="m175.582031 57.546875 6.628907-3.828125v7.65625zm0 0"/><path d="m168.953125 61.375 6.628906-3.828125v7.652344zm0 0"/><path d="m149.070312 72.855469 6.628907-3.828125v7.652344zm0 0"/><path d="m142.441406 76.679688 6.628906-3.824219v7.652343zm0 0"/><path d="m102.671875 99.640625 6.628906-3.828125v7.65625zm0 0"/><path d="m96.046875 103.46875 6.625-3.828125v7.652344zm0 0"/><path d="m76.160156 114.945312 6.628906-3.824218v7.652344zm0 0"/><path d="m69.535156 118.773438 6.625-3.828126v7.65625zm0 0"/><path d="m69.535156 126.425781 6.625-3.824219v7.652344zm0 0"/><path d="m69.535156 164.695312 6.625-3.828124v7.652343zm0 0"/><path d="m69.535156 195.304688 6.625-3.824219v7.652343zm0 0"/><path d="m69.535156 233.574219 6.625-3.828125v7.652344zm0 0"/><path d="m69.535156 241.226562 6.625-3.828124v7.65625zm0 0"/><path d="m76.160156 245.054688 6.628906-3.828126v7.652344zm0 0"/><path d="m96.046875 256.53125 6.625-3.824219v7.652344zm0 0"/><path d="m102.671875 260.359375 6.628906-3.828125v7.65625zm0 0"/><path d="m142.441406 283.320312 6.628906-3.828124v7.652343zm0 0"/><path d="m149.070312 287.144531 6.628907-3.824219v7.652344zm0 0"/><path d="m168.953125 298.625 6.628906-3.824219v7.652344zm0 0"/><path d="m175.582031 302.453125 6.628907-3.828125v7.65625zm0 0"/><path d="m182.210938 298.625 6.625-3.824219v7.652344zm0 0"/><path d="m215.347656 279.492188 6.628906-3.824219v7.652343zm0 0"/><path d="m241.859375 264.1875 6.628906-3.828125v7.652344zm0 0"/><path d="m275 245.054688 6.628906-3.828126v7.652344zm0 0"/><path d="m288.257812 222.09375 6.625-3.828125v7.652344zm0 0"/><path d="m288.257812 206.785156 6.625-3.824218v7.652343zm0 0"/><path d="m288.257812 191.480469 6.625-3.828125v7.652344zm0 0"/><path d="m288.257812 183.828125 6.625-3.828125v7.652344zm0 0"/><path d="m288.257812 176.171875 6.625-3.824219v7.652344zm0 0"/><path d="m288.257812 168.519531 6.625-3.824219v7.652344zm0 0"/><path d="m288.257812 153.214844 6.625-3.828125v7.652343zm0 0"/><path d="m288.257812 137.90625 6.625-3.824219v7.652344zm0 0"/><path d="m281.628906 111.121094 6.628906-3.828125v7.652343zm0 0"/><path d="m182.210938 53.71875 6.625-3.824219v7.652344zm0 0"/><path d="m155.699219 61.375 6.625-3.828125v7.652344zm0 0"/><path d="m142.441406 69.027344 6.628906-3.828125v7.65625zm0 0"/><path d="m129.1875 76.679688 6.625-3.824219v7.652343zm0 0"/><path d="m122.558594 80.507812 6.628906-3.828124v7.652343zm0 0"/><path d="m115.929688 84.332031 6.628906-3.824219v7.652344zm0 0"/><path d="m109.300781 88.160156 6.628907-3.828125v7.65625zm0 0"/><path d="m96.046875 95.8125 6.625-3.824219v7.652344zm0 0"/><path d="m82.789062 103.46875 6.628907-3.828125v7.652344zm0 0"/><path d="m62.90625 122.601562 6.628906-3.828124v7.652343zm0 0"/><path d="m62.90625 237.398438 6.628906-3.824219v7.652343zm0 0"/><path d="m82.789062 256.53125 6.628907-3.824219v7.652344zm0 0"/><path d="m96.046875 264.1875 6.625-3.828125v7.652344zm0 0"/><path d="m109.300781 271.839844 6.628907-3.828125v7.65625zm0 0"/><path d="m115.929688 275.667969 6.628906-3.828125v7.652344zm0 0"/><path d="m122.558594 279.492188 6.628906-3.824219v7.652343zm0 0"/><path d="m129.1875 283.320312 6.625-3.828124v7.652343zm0 0"/><path d="m142.441406 290.972656 6.628906-3.828125v7.65625zm0 0"/><path d="m155.699219 298.625 6.625-3.824219v7.652344zm0 0"/><path d="m182.210938 306.28125 6.625-3.828125v7.652344zm0 0"/><path d="m281.628906 248.878906 6.628906-3.824218v7.652343zm0 0"/><path d="m294.882812 248.878906 6.628907-3.824218v7.652343zm0 0"/><path d="m294.882812 233.574219 6.628907-3.828125v7.652344zm0 0"/><path d="m294.882812 225.917969 6.628907-3.824219v7.652344zm0 0"/><path d="m294.882812 210.613281 6.628907-3.828125v7.65625zm0 0"/><path d="m294.882812 195.304688 6.628907-3.824219v7.652343zm0 0"/><path d="m294.882812 164.695312 6.628907-3.828124v7.652343zm0 0"/><path d="m294.882812 149.386719 6.628907-3.828125v7.65625zm0 0"/><path d="m294.882812 134.082031 6.628907-3.828125v7.652344zm0 0"/><path d="m294.882812 126.425781 6.628907-3.824219v7.652344zm0 0"/><path d="m294.882812 111.121094 6.628907-3.828125v7.652343zm0 0"/><path d="m175.582031 42.242188 6.628907-3.828126v7.652344zm0 0"/><path d="m162.324219 49.894531 6.628906-3.828125v7.652344zm0 0"/><path d="m155.699219 53.71875 6.625-3.824219v7.652344zm0 0"/><path d="m142.441406 61.375 6.628906-3.828125v7.652344zm0 0"/><path d="m129.1875 69.027344 6.625-3.828125v7.65625zm0 0"/><path d="m102.671875 84.332031 6.628906-3.824219v7.652344zm0 0"/><path d="m89.417969 91.988281 6.628906-3.828125v7.652344zm0 0"/><path d="m76.160156 99.640625 6.628906-3.828125v7.65625zm0 0"/><path d="m69.535156 103.46875 6.625-3.828125v7.652344zm0 0"/><path d="m56.277344 111.121094 6.628906-3.828125v7.652343zm0 0"/><path d="m56.277344 248.878906 6.628906-3.824218v7.652343zm0 0"/><path d="m69.535156 256.53125 6.625-3.824219v7.652344zm0 0"/><path d="m76.160156 260.359375 6.628906-3.828125v7.65625zm0 0"/><path d="m89.417969 268.011719 6.628906-3.824219v7.652344zm0 0"/><path d="m102.671875 275.667969 6.628906-3.828125v7.652344zm0 0"/><path d="m129.1875 290.972656 6.625-3.828125v7.65625zm0 0"/><path d="m142.441406 298.625 6.628906-3.824219v7.652344zm0 0"/><path d="m155.699219 306.28125 6.625-3.828125v7.652344zm0 0"/><path d="m162.324219 310.105469 6.628906-3.824219v7.652344zm0 0"/><path d="m175.582031 317.757812 6.628907-3.824218v7.652344zm0 0"/><path d="m188.835938 180-6.625-3.828125v7.65625zm0 0"/><path d="m182.210938 176.171875-6.628907-3.824219v7.652344zm0 0"/><path d="m182.210938 183.828125-6.628907-3.828125v7.652344zm0 0"/><path d="m195.464844 183.828125-6.628906-3.828125v7.652344zm0 0"/><path d="m195.464844 176.171875-6.628906-3.824219v7.652344zm0 0"/><path d="m182.210938 168.519531-6.628907-3.824219v7.652344zm0 0"/><path d="m175.582031 172.347656-6.628906-3.828125v7.652344zm0 0"/><path d="m175.582031 187.652344-6.628906-3.824219v7.652344zm0 0"/><path d="m182.210938 191.480469-6.628907-3.828125v7.652344zm0 0"/><path d="m202.09375 187.652344-6.628906-3.824219v7.652344zm0 0"/><path d="m202.09375 172.347656-6.628906-3.828125v7.652344zm0 0"/><path d="m182.210938 160.867188-6.628907-3.828126v7.65625zm0 0"/><path d="m168.953125 168.519531-6.628906-3.824219v7.652344zm0 0"/><path d="m168.953125 191.480469-6.628906-3.828125v7.652344zm0 0"/><path d="m182.210938 199.132812-6.628907-3.828124v7.65625zm0 0"/><path d="m202.09375 157.039062-6.628906-3.824218v7.652344zm0 0"/><path d="m195.464844 153.214844-6.628906-3.828125v7.652343zm0 0"/><path d="m155.699219 176.171875-6.628907-3.824219v7.652344zm0 0"/><path d="m155.699219 183.828125-6.628907-3.828125v7.652344zm0 0"/><path d="m195.464844 206.785156-6.628906-3.824218v7.652343zm0 0"/><path d="m202.09375 202.960938-6.628906-3.828126v7.652344zm0 0"/><path d="m215.347656 157.039062-6.625-3.824218v7.652344zm0 0"/><path d="m188.835938 141.734375-6.625-3.828125v7.652344zm0 0"/><path d="m149.070312 164.695312-6.628906-3.828124v7.652343zm0 0"/><path d="m149.070312 195.304688-6.628906-3.824219v7.652343zm0 0"/><path d="m188.835938 218.265625-6.625-3.824219v7.652344zm0 0"/><path d="m215.347656 202.960938-6.625-3.828126v7.652344zm0 0"/><path d="m228.605469 202.960938-6.628907-3.828126v7.652344zm0 0"/><path d="m228.605469 195.304688-6.628907-3.824219v7.652343zm0 0"/><path d="m228.605469 164.695312-6.628907-3.828124v7.652343zm0 0"/><path d="m228.605469 157.039062-6.628907-3.824218v7.652344zm0 0"/><path d="m182.210938 130.253906-6.628907-3.828125v7.65625zm0 0"/><path d="m175.582031 134.082031-6.628906-3.828125v7.652344zm0 0"/><path d="m149.070312 149.386719-6.628906-3.828125v7.65625zm0 0"/><path d="m142.441406 153.214844-6.628906-3.828125v7.652343zm0 0"/><path d="m142.441406 206.785156-6.628906-3.824218v7.652343zm0 0"/><path d="m149.070312 210.613281-6.628906-3.828125v7.65625zm0 0"/><path d="m175.582031 225.917969-6.628906-3.824219v7.652344zm0 0"/><path d="m182.210938 229.746094-6.628907-3.828125v7.65625zm0 0"/><path d="m235.234375 206.785156-6.628906-3.824218v7.652343zm0 0"/><path d="m235.234375 153.214844-6.628906-3.828125v7.652343zm0 0"/><path d="m228.605469 149.386719-6.628907-3.828125v7.65625zm0 0"/><path d="m188.835938 126.425781-6.625-3.824219v7.652344zm0 0"/><path d="m182.210938 122.601562-6.628907-3.828124v7.652343zm0 0"/><path d="m135.8125 149.386719-6.625-3.828125v7.65625zm0 0"/><path d="m135.8125 157.039062-6.625-3.824218v7.652344zm0 0"/><path d="m135.8125 202.960938-6.625-3.828126v7.652344zm0 0"/><path d="m135.8125 210.613281-6.625-3.828125v7.65625zm0 0"/><path d="m182.210938 237.398438-6.628907-3.824219v7.652343zm0 0"/><path d="m188.835938 233.574219-6.625-3.828125v7.652344zm0 0"/><path d="m228.605469 210.613281-6.628907-3.828125v7.65625zm0 0"/><path d="m241.859375 202.960938-6.625-3.828126v7.652344zm0 0"/><path d="m241.859375 187.652344-6.625-3.824219v7.652344zm0 0"/><path d="m241.859375 172.347656-6.625-3.828125v7.652344zm0 0"/><path d="m241.859375 157.039062-6.625-3.824218v7.652344zm0 0"/><path d="m235.234375 145.558594-6.628906-3.824219v7.652344zm0 0"/><path d="m228.605469 141.734375-6.628907-3.828125v7.652344zm0 0"/><path d="m221.976562 137.90625-6.628906-3.824219v7.652344zm0 0"/><path d="m202.09375 126.425781-6.628906-3.824219v7.652344zm0 0"/><path d="m195.464844 122.601562-6.628906-3.828124v7.652343zm0 0"/><path d="m188.835938 118.773438-6.625-3.828126v7.65625zm0 0"/><path d="m175.582031 118.773438-6.628906-3.828126v7.65625zm0 0"/><path d="m162.324219 126.425781-6.625-3.824219v7.652344zm0 0"/><path d="m149.070312 134.082031-6.628906-3.828125v7.652344zm0 0"/><path d="m135.8125 141.734375-6.625-3.828125v7.652344zm0 0"/><path d="m129.1875 153.214844-6.628906-3.828125v7.652343zm0 0"/><path d="m129.1875 160.867188-6.628906-3.828126v7.65625zm0 0"/><path d="m129.1875 168.519531-6.628906-3.824219v7.652344zm0 0"/><path d="m129.1875 191.480469-6.628906-3.828125v7.652344zm0 0"/><path d="m129.1875 199.132812-6.628906-3.828124v7.65625zm0 0"/><path d="m129.1875 206.785156-6.628906-3.824218v7.652343zm0 0"/><path d="m135.8125 218.265625-6.625-3.824219v7.652344zm0 0"/><path d="m149.070312 225.917969-6.628906-3.824219v7.652344zm0 0"/><path d="m162.324219 233.574219-6.625-3.828125v7.652344zm0 0"/><path d="m175.582031 241.226562-6.628906-3.828124v7.65625zm0 0"/><path d="m188.835938 241.226562-6.625-3.828124v7.65625zm0 0"/><path d="m195.464844 237.398438-6.628906-3.824219v7.652343zm0 0"/><path d="m202.09375 233.574219-6.628906-3.828125v7.652344zm0 0"/><path d="m221.976562 222.09375-6.628906-3.828125v7.652344zm0 0"/><path d="m228.605469 218.265625-6.628907-3.824219v7.652344zm0 0"/><path d="m235.234375 214.441406-6.628906-3.828125v7.652344zm0 0"/><path d="m248.488281 214.441406-6.628906-3.828125v7.652344zm0 0"/><path d="m248.488281 191.480469-6.628906-3.828125v7.652344zm0 0"/><path d="m248.488281 168.519531-6.628906-3.824219v7.652344zm0 0"/><path d="m248.488281 145.558594-6.628906-3.824219v7.652344zm0 0"/><path d="m182.210938 107.292969-6.628907-3.824219v7.652344zm0 0"/><path d="m162.324219 118.773438-6.625-3.828126v7.65625zm0 0"/><path d="m142.441406 130.253906-6.628906-3.828125v7.65625zm0 0"/><path d="m122.558594 141.734375-6.628906-3.828125v7.652344zm0 0"/><path d="m122.558594 218.265625-6.628906-3.824219v7.652344zm0 0"/><path d="m142.441406 229.746094-6.628906-3.828125v7.65625zm0 0"/><path d="m162.324219 241.226562-6.625-3.828124v7.65625zm0 0"/><path d="m182.210938 252.707031-6.628907-3.828125v7.652344zm0 0"/><path d="m255.117188 195.304688-6.628907-3.824219v7.652343zm0 0"/><path d="m255.117188 187.652344-6.628907-3.824219v7.652344zm0 0"/><path d="m255.117188 172.347656-6.628907-3.828125v7.652344zm0 0"/><path d="m255.117188 164.695312-6.628907-3.828124v7.652343zm0 0"/><path d="m241.859375 134.082031-6.625-3.828125v7.652344zm0 0"/><path d="m221.976562 122.601562-6.628906-3.828124v7.652343zm0 0"/><path d="m215.347656 118.773438-6.625-3.828126v7.65625zm0 0"/><path d="m195.464844 107.292969-6.628906-3.824219v7.652344zm0 0"/><path d="m162.324219 111.121094-6.625-3.828125v7.652343zm0 0"/><path d="m155.699219 114.945312-6.628907-3.824218v7.652344zm0 0"/><path d="m142.441406 122.601562-6.628906-3.828124v7.652343zm0 0"/><path d="m135.8125 126.425781-6.625-3.824219v7.652344zm0 0"/><path d="m115.929688 153.214844-6.628907-3.828125v7.652343zm0 0"/><path d="m115.929688 176.171875-6.628907-3.824219v7.652344zm0 0"/><path d="m115.929688 183.828125-6.628907-3.828125v7.652344zm0 0"/><path d="m115.929688 206.785156-6.628907-3.824218v7.652343zm0 0"/><path d="m135.8125 233.574219-6.625-3.828125v7.652344zm0 0"/><path d="m142.441406 237.398438-6.628906-3.824219v7.652343zm0 0"/><path d="m155.699219 245.054688-6.628907-3.828126v7.652344zm0 0"/><path d="m162.324219 248.878906-6.625-3.824218v7.652343zm0 0"/><path d="m195.464844 252.707031-6.628906-3.828125v7.652344zm0 0"/><path d="m215.347656 241.226562-6.625-3.828124v7.65625zm0 0"/><path d="m221.976562 237.398438-6.628906-3.824219v7.652343zm0 0"/><path d="m241.859375 225.917969-6.625-3.824219v7.652344zm0 0"/><path d="m261.746094 206.785156-6.628906-3.824218v7.652343zm0 0"/><path d="m261.746094 191.480469-6.628906-3.828125v7.652344zm0 0"/><path d="m261.746094 183.828125-6.628906-3.828125v7.652344zm0 0"/><path d="m261.746094 176.171875-6.628906-3.824219v7.652344zm0 0"/><path d="m261.746094 168.519531-6.628906-3.824219v7.652344zm0 0"/><path d="m261.746094 153.214844-6.628906-3.828125v7.652343zm0 0"/><path d="m168.953125 99.640625-6.628906-3.828125v7.65625zm0 0"/><path d="m155.699219 107.292969-6.628907-3.824219v7.652344zm0 0"/><path d="m149.070312 111.121094-6.628906-3.828125v7.652343zm0 0"/><path d="m142.441406 114.945312-6.628906-3.824218v7.652344zm0 0"/><path d="m135.8125 118.773438-6.625-3.828126v7.65625zm0 0"/><path d="m122.558594 126.425781-6.628906-3.824219v7.652344zm0 0"/><path d="m122.558594 233.574219-6.628906-3.828125v7.652344zm0 0"/><path d="m135.8125 241.226562-6.625-3.828124v7.65625zm0 0"/><path d="m142.441406 245.054688-6.628906-3.828126v7.652344zm0 0"/><path d="m149.070312 248.878906-6.628906-3.824218v7.652343zm0 0"/><path d="m155.699219 252.707031-6.628907-3.828125v7.652344zm0 0"/><path d="m168.953125 260.359375-6.628906-3.828125v7.65625zm0 0"/><path d="m261.746094 130.253906-6.628906-3.828125v7.65625zm0 0"/><path d="m255.117188 126.425781-6.628907-3.824219v7.652344zm0 0"/><path d="m248.488281 122.601562-6.628906-3.828124v7.652343zm0 0"/><path d="m241.859375 118.773438-6.625-3.828126v7.65625zm0 0"/><path d="m228.605469 111.121094-6.628907-3.828125v7.652343zm0 0"/><path d="m221.976562 107.292969-6.628906-3.824219v7.652344zm0 0"/><path d="m208.722656 99.640625-6.628906-3.828125v7.65625zm0 0"/><path d="m202.09375 95.8125-6.628906-3.824219v7.652344zm0 0"/><path d="m195.464844 91.988281-6.628906-3.828125v7.652344zm0 0"/><path d="m188.835938 88.160156-6.625-3.828125v7.65625zm0 0"/><path d="m102.671875 137.90625-6.625-3.824219v7.652344zm0 0"/><path d="m102.671875 145.558594-6.625-3.824219v7.652344zm0 0"/><path d="m102.671875 153.214844-6.625-3.828125v7.652343zm0 0"/><path d="m102.671875 160.867188-6.625-3.828126v7.65625zm0 0"/><path d="m102.671875 176.171875-6.625-3.824219v7.652344zm0 0"/><path d="m102.671875 183.828125-6.625-3.828125v7.652344zm0 0"/><path d="m102.671875 199.132812-6.625-3.828124v7.65625zm0 0"/><path d="m102.671875 206.785156-6.625-3.824218v7.652343zm0 0"/><path d="m102.671875 214.441406-6.625-3.828125v7.652344zm0 0"/><path d="m102.671875 222.09375-6.625-3.828125v7.652344zm0 0"/><path d="m188.835938 271.839844-6.625-3.828125v7.65625zm0 0"/><path d="m195.464844 268.011719-6.628906-3.824219v7.652344zm0 0"/><path d="m202.09375 264.1875-6.628906-3.828125v7.652344zm0 0"/><path d="m208.722656 260.359375-6.628906-3.828125v7.65625zm0 0"/><path d="m221.976562 252.707031-6.628906-3.828125v7.652344zm0 0"/><path d="m228.605469 248.878906-6.628907-3.824218v7.652343zm0 0"/><path d="m241.859375 241.226562-6.625-3.828124v7.65625zm0 0"/><path d="m248.488281 237.398438-6.628906-3.824219v7.652343zm0 0"/><path d="m255.117188 233.574219-6.628907-3.828125v7.652344zm0 0"/><path d="m261.746094 229.746094-6.628906-3.828125v7.65625zm0 0"/><path d="m275 199.132812-6.628906-3.828124v7.65625zm0 0"/><path d="m275 183.828125-6.628906-3.828125v7.652344zm0 0"/><path d="m275 176.171875-6.628906-3.824219v7.652344zm0 0"/><path d="m275 160.867188-6.628906-3.828126v7.65625zm0 0"/><path d="m235.234375 107.292969-6.628906-3.824219v7.652344zm0 0"/><path d="m221.976562 99.640625-6.628906-3.828125v7.65625zm0 0"/><path d="m155.699219 91.988281-6.628907-3.828125v7.652344zm0 0"/><path d="m142.441406 99.640625-6.628906-3.828125v7.65625zm0 0"/><path d="m135.8125 103.46875-6.625-3.828125v7.652344zm0 0"/><path d="m122.558594 111.121094-6.628906-3.828125v7.652343zm0 0"/><path d="m96.046875 172.347656-6.628906-3.828125v7.652344zm0 0"/><path d="m96.046875 187.652344-6.628906-3.824219v7.652344zm0 0"/><path d="m122.558594 248.878906-6.628906-3.824218v7.652343zm0 0"/><path d="m135.8125 256.53125-6.625-3.824219v7.652344zm0 0"/><path d="m142.441406 260.359375-6.628906-3.828125v7.65625zm0 0"/><path d="m155.699219 268.011719-6.628907-3.824219v7.652344zm0 0"/><path d="m221.976562 260.359375-6.628906-3.828125v7.65625zm0 0"/><path d="m235.234375 252.707031-6.628906-3.828125v7.652344zm0 0"/><path d="m281.628906 225.917969-6.628906-3.824219v7.652344zm0 0"/><path d="m281.628906 210.613281-6.628906-3.828125v7.65625zm0 0"/><path d="m281.628906 195.304688-6.628906-3.824219v7.652343zm0 0"/><path d="m281.628906 164.695312-6.628906-3.828124v7.652343zm0 0"/><path d="m281.628906 149.386719-6.628906-3.828125v7.65625zm0 0"/><path d="m281.628906 134.082031-6.628906-3.828125v7.652344zm0 0"/><path d="m275 122.601562-6.628906-3.828124v7.652343zm0 0"/><path d="m261.746094 114.945312-6.628906-3.824218v7.652344zm0 0"/><path d="m241.859375 103.46875-6.625-3.828125v7.652344zm0 0"/><path d="m221.976562 91.988281-6.628906-3.828125v7.652344zm0 0"/><path d="m202.09375 80.507812-6.628906-3.828124v7.652343zm0 0"/><path d="m188.835938 72.855469-6.625-3.828125v7.652344zm0 0"/><path d="m175.582031 72.855469-6.628906-3.828125v7.652344zm0 0"/><path d="m162.324219 80.507812-6.625-3.828124v7.652343zm0 0"/><path d="m149.070312 88.160156-6.628906-3.828125v7.65625zm0 0"/><path d="m122.558594 103.46875-6.628906-3.828125v7.652344zm0 0"/><path d="m109.300781 111.121094-6.628906-3.828125v7.652343zm0 0"/><path d="m96.046875 118.773438-6.628906-3.828126v7.65625zm0 0"/><path d="m89.417969 130.253906-6.628907-3.828125v7.65625zm0 0"/><path d="m89.417969 145.558594-6.628907-3.824219v7.652344zm0 0"/><path d="m89.417969 168.519531-6.628907-3.824219v7.652344zm0 0"/><path d="m89.417969 191.480469-6.628907-3.828125v7.652344zm0 0"/><path d="m89.417969 214.441406-6.628907-3.828125v7.652344zm0 0"/><path d="m89.417969 229.746094-6.628907-3.828125v7.65625zm0 0"/><path d="m96.046875 241.226562-6.628906-3.828124v7.65625zm0 0"/><path d="m109.300781 248.878906-6.628906-3.824218v7.652343zm0 0"/><path d="m122.558594 256.53125-6.628906-3.824219v7.652344zm0 0"/><path d="m149.070312 271.839844-6.628906-3.828125v7.65625zm0 0"/><path d="m162.324219 279.492188-6.625-3.824219v7.652343zm0 0"/><path d="m175.582031 287.144531-6.628906-3.824219v7.652344zm0 0"/><path d="m188.835938 287.144531-6.625-3.824219v7.652344zm0 0"/><path d="m202.09375 279.492188-6.628906-3.824219v7.652343zm0 0"/><path d="m221.976562 268.011719-6.628906-3.824219v7.652344zm0 0"/><path d="m241.859375 256.53125-6.625-3.824219v7.652344zm0 0"/><path d="m261.746094 245.054688-6.628906-3.828126v7.652344zm0 0"/><path d="m275 237.398438-6.628906-3.824219v7.652343zm0 0"/><path d="m288.257812 206.785156-6.628906-3.824218v7.652343zm0 0"/><path d="m288.257812 191.480469-6.628906-3.828125v7.652344zm0 0"/><path d="m288.257812 168.519531-6.628906-3.824219v7.652344zm0 0"/><path d="m288.257812 153.214844-6.628906-3.828125v7.652343zm0 0"/><path d="m275 114.945312-6.628906-3.824218v7.652344zm0 0"/><path d="m241.859375 95.8125-6.625-3.824219v7.652344zm0 0"/><path d="m228.605469 88.160156-6.628907-3.828125v7.65625zm0 0"/><path d="m195.464844 69.027344-6.628906-3.828125v7.65625zm0 0"/><path d="m155.699219 76.679688-6.628907-3.824219v7.652343zm0 0"/><path d="m142.441406 84.332031-6.628906-3.824219v7.652344zm0 0"/><path d="m122.558594 95.8125-6.628906-3.824219v7.652344zm0 0"/><path d="m109.300781 103.46875-6.628906-3.828125v7.652344zm0 0"/><path d="m82.789062 134.082031-6.628906-3.828125v7.652344zm0 0"/><path d="m82.789062 172.347656-6.628906-3.828125v7.652344zm0 0"/><path d="m82.789062 187.652344-6.628906-3.824219v7.652344zm0 0"/><path d="m82.789062 225.917969-6.628906-3.824219v7.652344zm0 0"/><path d="m109.300781 256.53125-6.628906-3.824219v7.652344zm0 0"/><path d="m122.558594 264.1875-6.628906-3.828125v7.652344zm0 0"/><path d="m142.441406 275.667969-6.628906-3.828125v7.652344zm0 0"/><path d="m155.699219 283.320312-6.628907-3.828124v7.652343zm0 0"/><path d="m195.464844 290.972656-6.628906-3.828125v7.65625zm0 0"/><path d="m228.605469 271.839844-6.628907-3.828125v7.65625zm0 0"/><path d="m241.859375 264.1875-6.625-3.828125v7.652344zm0 0"/><path d="m275 245.054688-6.628906-3.828126v7.652344zm0 0"/><path d="m294.882812 202.960938-6.625-3.828126v7.652344zm0 0"/><path d="m294.882812 157.039062-6.625-3.824218v7.652344zm0 0"/><path d="m288.257812 114.945312-6.628906-3.824218v7.652344zm0 0"/><path d="m281.628906 111.121094-6.628906-3.828125v7.652343zm0 0"/><path d="m268.371094 103.46875-6.625-3.828125v7.652344zm0 0"/><path d="m261.746094 99.640625-6.628906-3.828125v7.65625zm0 0"/><path d="m241.859375 88.160156-6.625-3.828125v7.65625zm0 0"/><path d="m235.234375 84.332031-6.628906-3.824219v7.652344zm0 0"/><path d="m215.347656 72.855469-6.625-3.828125v7.652344zm0 0"/><path d="m208.722656 69.027344-6.628906-3.828125v7.65625zm0 0"/><path d="m195.464844 61.375-6.628906-3.828125v7.652344zm0 0"/><path d="m188.835938 57.546875-6.625-3.828125v7.65625zm0 0"/><path d="m149.070312 72.855469-6.628906-3.828125v7.652344zm0 0"/><path d="m109.300781 95.8125-6.628906-3.824219v7.652344zm0 0"/><path d="m76.160156 122.601562-6.625-3.828124v7.652343zm0 0"/><path d="m76.160156 130.253906-6.625-3.828125v7.65625zm0 0"/><path d="m76.160156 145.558594-6.625-3.824219v7.652344zm0 0"/><path d="m76.160156 153.214844-6.625-3.828125v7.652343zm0 0"/><path d="m76.160156 176.171875-6.625-3.824219v7.652344zm0 0"/><path d="m76.160156 183.828125-6.625-3.828125v7.652344zm0 0"/><path d="m76.160156 206.785156-6.625-3.824218v7.652343zm0 0"/><path d="m76.160156 214.441406-6.625-3.828125v7.652344zm0 0"/><path d="m76.160156 229.746094-6.625-3.828125v7.65625zm0 0"/><path d="m76.160156 237.398438-6.625-3.824219v7.652343zm0 0"/><path d="m109.300781 264.1875-6.628906-3.828125v7.652344zm0 0"/><path d="m149.070312 287.144531-6.628906-3.824219v7.652344zm0 0"/><path d="m188.835938 302.453125-6.625-3.828125v7.65625zm0 0"/><path d="m195.464844 298.625-6.628906-3.824219v7.652344zm0 0"/><path d="m208.722656 290.972656-6.628906-3.828125v7.65625zm0 0"/><path d="m215.347656 287.144531-6.625-3.824219v7.652344zm0 0"/><path d="m235.234375 275.667969-6.628906-3.828125v7.652344zm0 0"/><path d="m241.859375 271.839844-6.625-3.828125v7.65625zm0 0"/><path d="m261.746094 260.359375-6.628906-3.828125v7.65625zm0 0"/><path d="m268.371094 256.53125-6.625-3.824219v7.652344zm0 0"/><path d="m281.628906 248.878906-6.628906-3.824218v7.652343zm0 0"/><path d="m288.257812 245.054688-6.628906-3.828126v7.652344zm0 0"/><path d="m301.511719 245.054688-6.628907-3.828126v7.652344zm0 0"/><path d="m301.511719 237.398438-6.628907-3.824219v7.652343zm0 0"/><path d="m301.511719 229.746094-6.628907-3.828125v7.65625zm0 0"/><path d="m301.511719 130.253906-6.628907-3.828125v7.65625zm0 0"/><path d="m301.511719 122.601562-6.628907-3.828124v7.652343zm0 0"/><path d="m301.511719 114.945312-6.628907-3.824218v7.652344zm0 0"/><path d="m275 99.640625-6.628906-3.828125v7.65625zm0 0"/><path d="m261.746094 91.988281-6.628906-3.828125v7.652344zm0 0"/><path d="m248.488281 84.332031-6.628906-3.824219v7.652344zm0 0"/><path d="m235.234375 76.679688-6.628906-3.824219v7.652343zm0 0"/><path d="m221.976562 69.027344-6.628906-3.828125v7.65625zm0 0"/><path d="m208.722656 61.375-6.628906-3.828125v7.652344zm0 0"/><path d="m182.210938 46.066406-6.628907-3.824218v7.652343zm0 0"/><path d="m175.582031 49.894531-6.628906-3.828125v7.652344zm0 0"/><path d="m168.953125 53.71875-6.628906-3.824219v7.652344zm0 0"/><path d="m82.789062 103.46875-6.628906-3.828125v7.652344zm0 0"/><path d="m76.160156 107.292969-6.625-3.824219v7.652344zm0 0"/><path d="m69.535156 111.121094-6.628906-3.828125v7.652343zm0 0"/><path d="m69.535156 141.734375-6.628906-3.828125v7.652344zm0 0"/><path d="m69.535156 157.039062-6.628906-3.824218v7.652344zm0 0"/><path d="m69.535156 172.347656-6.628906-3.828125v7.652344zm0 0"/><path d="m69.535156 187.652344-6.628906-3.824219v7.652344zm0 0"/><path d="m69.535156 202.960938-6.628906-3.828126v7.652344zm0 0"/><path d="m69.535156 218.265625-6.628906-3.824219v7.652344zm0 0"/><path d="m69.535156 248.878906-6.628906-3.824218v7.652343zm0 0"/><path d="m76.160156 252.707031-6.625-3.828125v7.652344zm0 0"/><path d="m82.789062 256.53125-6.628906-3.824219v7.652344zm0 0"/><path d="m168.953125 306.28125-6.628906-3.828125v7.652344zm0 0"/><path d="m175.582031 310.105469-6.628906-3.824219v7.652344zm0 0"/><path d="m182.210938 313.933594-6.628907-3.828125v7.652343zm0 0"/><path d="m208.722656 298.625-6.628906-3.824219v7.652344zm0 0"/><path d="m221.976562 290.972656-6.628906-3.828125v7.65625zm0 0"/><path d="m235.234375 283.320312-6.628906-3.828124v7.652343zm0 0"/><path d="m248.488281 275.667969-6.628906-3.828125v7.652344zm0 0"/><path d="m261.746094 268.011719-6.628906-3.824219v7.652344zm0 0"/><path d="m275 260.359375-6.628906-3.828125v7.65625zm0 0"/><path d="m308.140625 248.878906-6.628906-3.824218v7.652343zm0 0"/><path d="m308.140625 233.574219-6.628906-3.828125v7.652344zm0 0"/><path d="m308.140625 126.425781-6.628906-3.824219v7.652344zm0 0"/><path d="m308.140625 111.121094-6.628906-3.828125v7.652343zm0 0"/><path d="m301.511719 107.292969-6.628907-3.824219v7.652344zm0 0"/><path d="m294.882812 103.46875-6.625-3.828125v7.652344zm0 0"/><path d="m288.257812 99.640625-6.628906-3.828125v7.65625zm0 0"/><path d="m202.09375 49.894531-6.628906-3.828125v7.652344zm0 0"/><path d="m195.464844 46.066406-6.628906-3.824218v7.652343zm0 0"/><path d="m188.835938 42.242188-6.625-3.828126v7.652344zm0 0"/><path d="m182.210938 38.414062-6.628907-3.828124v7.65625zm0 0"/><path d="m168.953125 46.066406-6.628906-3.824218v7.652343zm0 0"/><path d="m76.160156 99.640625-6.625-3.828125v7.65625zm0 0"/><path d="m62.90625 107.292969-6.628906-3.824219v7.652344zm0 0"/><path d="m62.90625 114.945312-6.628906-3.824218v7.652344zm0 0"/><path d="m62.90625 122.601562-6.628906-3.828124v7.652343zm0 0"/><path d="m62.90625 130.253906-6.628906-3.828125v7.65625zm0 0"/><path d="m62.90625 229.746094-6.628906-3.828125v7.65625zm0 0"/><path d="m62.90625 237.398438-6.628906-3.824219v7.652343zm0 0"/><path d="m62.90625 245.054688-6.628906-3.828126v7.652344zm0 0"/><path d="m62.90625 252.707031-6.628906-3.828125v7.652344zm0 0"/><path d="m76.160156 260.359375-6.625-3.828125v7.65625zm0 0"/><path d="m168.953125 313.933594-6.628906-3.828125v7.652343zm0 0"/><path d="m182.210938 321.585938-6.628907-3.828126v7.65625zm0 0"/><path d="m188.835938 317.757812-6.625-3.824218v7.652344zm0 0"/><path d="m195.464844 313.933594-6.628906-3.828125v7.652343zm0 0"/><path d="m202.09375 310.105469-6.628906-3.824219v7.652344zm0 0"/><path d="m288.257812 260.359375-6.628906-3.828125v7.65625zm0 0"/><path d="m294.882812 256.53125-6.625-3.824219v7.652344zm0 0"/><path d="m301.511719 252.707031-6.628907-3.828125v7.652344zm0 0"/></g></svg>