<svg height="361pt" viewBox="0 0 360 361" width="360pt" xmlns="http://www.w3.org/2000/svg"><g fill-rule="evenodd"><path d="m0 360h360v-360h-360zm0 0" fill="#fff"/><g fill="#800080"><path d="m186.777344 167.710938 3.550781-2.050782v4.097656zm0 0"/><path d="m183.230469 165.660156 3.546875-2.046875v4.097657zm0 0"/><path d="m183.230469 194.339844 3.546875-2.050782v4.097657zm0 0"/><path d="m186.777344 192.289062 3.550781-2.046874v4.097656zm0 0"/><path d="m161.945312 177.953125 3.546876-2.050781v4.097656zm0 0"/><path d="m161.945312 182.046875 3.546876-2.046875v4.097656zm0 0"/><path d="m197.421875 165.660156 3.546875-2.046875v4.097657zm0 0"/><path d="m193.875 163.613281 3.546875-2.046875v4.09375zm0 0"/><path d="m183.230469 157.46875 3.546875-2.050781v4.097656zm0 0"/><path d="m179.683594 155.417969 3.546875-2.046875v4.097656zm0 0"/><path d="m179.683594 204.582031 3.546875-2.050781v4.097656zm0 0"/><path d="m183.230469 202.53125 3.546875-2.046875v4.097656zm0 0"/><path d="m193.875 196.386719 3.546875-2.046875v4.09375zm0 0"/><path d="m197.421875 194.339844 3.546875-2.050782v4.097657zm0 0"/><path d="m154.847656 169.757812 3.546875-2.046874v4.09375zm0 0"/><path d="m154.847656 173.855469 3.546875-2.050781v4.097656zm0 0"/><path d="m154.847656 186.144531 3.546875-2.046875v4.097656zm0 0"/><path d="m154.847656 190.242188 3.546875-2.046876v4.09375zm0 0"/><path d="m264.832031 126.742188 3.546875-2.046876v4.097657zm0 0"/><path d="m179.683594 77.582031 3.546875-2.046875v4.09375zm0 0"/><path d="m179.683594 282.417969 3.546875-2.046875v4.09375zm0 0"/><path d="m264.832031 233.257812 3.546875-2.050781v4.097657zm0 0"/><path d="m264.832031 122.644531 3.546875-2.046875v4.097656zm0 0"/><path d="m183.230469 75.535156 3.546875-2.050781v4.097656zm0 0"/><path d="m87.4375 130.839844 3.550781-2.046875v4.09375zm0 0"/><path d="m87.4375 229.160156 3.550781-2.046875v4.09375zm0 0"/><path d="m183.230469 284.464844 3.546875-2.046875v4.097656zm0 0"/><path d="m264.832031 237.355469 3.546875-2.050781v4.097656zm0 0"/><path d="m83.890625 132.886719 3.546875-2.046875v4.097656zm0 0"/><path d="m83.890625 227.113281 3.546875-2.050781v4.097656zm0 0"/><path d="m271.925781 118.550781 3.550781-2.050781v4.097656zm0 0"/><path d="m183.230469 67.339844 3.546875-2.046875v4.097656zm0 0"/><path d="m183.230469 292.660156 3.546875-2.050781v4.097656zm0 0"/><path d="m271.925781 241.449219 3.550781-2.046875v4.097656zm0 0"/><path d="m271.925781 114.453125 3.550781-2.046875v4.09375zm0 0"/><path d="m264.832031 110.355469 3.546875-2.046875v4.097656zm0 0"/><path d="m193.875 69.390625 3.546875-2.050781v4.097656zm0 0"/><path d="m186.777344 65.292969 3.550781-2.050781v4.097656zm0 0"/><path d="m76.796875 128.792969 3.546875-2.050781v4.097656zm0 0"/><path d="m76.796875 231.207031 3.546875-2.046875v4.097656zm0 0"/><path d="m186.777344 294.707031 3.550781-2.046875v4.097656zm0 0"/><path d="m193.875 290.609375 3.546875-2.046875v4.097656zm0 0"/><path d="m264.832031 249.644531 3.546875-2.050781v4.097656zm0 0"/><path d="m271.925781 245.546875 3.550781-2.046875v4.09375zm0 0"/><path d="m264.832031 106.257812 3.546875-2.046874v4.097656zm0 0"/><path d="m197.421875 67.339844 3.546875-2.046875v4.097656zm0 0"/><path d="m73.246094 130.839844 3.550781-2.046875v4.09375zm0 0"/><path d="m73.246094 139.03125 3.550781-2.046875v4.097656zm0 0"/><path d="m73.246094 220.96875 3.550781-2.050781v4.097656zm0 0"/><path d="m73.246094 229.160156 3.550781-2.046875v4.09375zm0 0"/><path d="m197.421875 292.660156 3.546875-2.050781v4.097656zm0 0"/><path d="m264.832031 253.742188 3.546875-2.050782v4.097656zm0 0"/><path d="m69.699219 141.082031 3.546875-2.050781v4.097656zm0 0"/><path d="m69.699219 218.917969 3.546875-2.046875v4.097656zm0 0"/><path d="m268.378906 100.113281 3.546875-2.046875v4.097656zm0 0"/><path d="m200.96875 61.195312 3.550781-2.046874v4.09375zm0 0"/><path d="m200.96875 298.804688 3.550781-2.046876v4.09375zm0 0"/><path d="m268.378906 259.886719 3.546875-2.050781v4.097656zm0 0"/><path d="m279.023438 102.164062 3.546874-2.050781v4.097657zm0 0"/><path d="m271.925781 98.066406 3.550781-2.050781v4.097656zm0 0"/><path d="m200.96875 57.097656 3.550781-2.046875v4.097657zm0 0"/><path d="m193.875 53.003906 3.546875-2.050781v4.097656zm0 0"/><path d="m62.605469 141.082031 3.546875-2.050781v4.097656zm0 0"/><path d="m62.605469 218.917969 3.546875-2.046875v4.097656zm0 0"/><path d="m193.875 306.996094 3.546875-2.046875v4.097656zm0 0"/><path d="m200.96875 302.902344 3.550781-2.050782v4.097657zm0 0"/><path d="m271.925781 261.933594 3.550781-2.046875v4.097656zm0 0"/><path d="m279.023438 257.835938 3.546874-2.046876v4.097657zm0 0"/><path d="m282.570312 100.113281 3.546876-2.046875v4.097656zm0 0"/><path d="m193.875 48.90625 3.546875-2.050781v4.097656zm0 0"/><path d="m59.054688 130.839844 3.550781-2.046875v4.09375zm0 0"/><path d="m59.054688 139.03125 3.550781-2.046875v4.097656zm0 0"/><path d="m59.054688 220.96875 3.550781-2.050781v4.097656zm0 0"/><path d="m59.054688 229.160156 3.550781-2.046875v4.09375zm0 0"/><path d="m193.875 311.09375 3.546875-2.046875v4.097656zm0 0"/><path d="m282.570312 259.886719 3.546876-2.050781v4.097656zm0 0"/><path d="m55.507812 128.792969 3.546876-2.050781v4.097656zm0 0"/><path d="m55.507812 231.207031 3.546876-2.046875v4.097656zm0 0"/><path d="m300.308594 102.164062 3.550781-2.050781v4.097657zm0 0"/><path d="m296.761719 100.113281 3.546875-2.046875v4.097656zm0 0"/><path d="m282.570312 91.921875 3.546876-2.050781v4.097656zm0 0"/><path d="m200.96875 44.808594 3.550781-2.046875v4.09375zm0 0"/><path d="m186.777344 36.617188 3.550781-2.050782v4.097656zm0 0"/><path d="m183.230469 34.566406 3.546875-2.046875v4.097657zm0 0"/><path d="m183.230469 325.433594 3.546875-2.050782v4.097657zm0 0"/><path d="m186.777344 323.382812 3.550781-2.046874v4.097656zm0 0"/><path d="m200.96875 315.191406 3.550781-2.046875v4.09375zm0 0"/><path d="m282.570312 268.078125 3.546876-2.046875v4.097656zm0 0"/><path d="m296.761719 259.886719 3.546875-2.050781v4.097656zm0 0"/><path d="m300.308594 257.835938 3.550781-2.046876v4.097657zm0 0"/><path d="m286.117188 89.871094 3.550781-2.046875v4.097656zm0 0"/><path d="m200.96875 40.710938 3.550781-2.046876v4.097657zm0 0"/><path d="m48.414062 112.40625 3.546876-2.050781v4.097656zm0 0"/><path d="m48.414062 116.5 3.546876-2.046875v4.097656zm0 0"/><path d="m48.414062 132.886719 3.546876-2.046875v4.097656zm0 0"/><path d="m48.414062 227.113281 3.546876-2.050781v4.097656zm0 0"/><path d="m48.414062 243.5 3.546876-2.050781v4.097656zm0 0"/><path d="m48.414062 247.59375 3.546876-2.046875v4.097656zm0 0"/><path d="m200.96875 319.289062 3.550781-2.050781v4.097657zm0 0"/><path d="m286.117188 270.128906 3.550781-2.050781v4.097656zm0 0"/><path d="m310.953125 100.113281 3.546875-2.046875v4.097656zm0 0"/><path d="m307.40625 98.066406 3.546875-2.050781v4.097656zm0 0"/><path d="m296.761719 91.921875 3.546875-2.050781v4.097656zm0 0"/><path d="m293.214844 89.871094 3.546875-2.046875v4.097656zm0 0"/><path d="m197.421875 34.566406 3.546875-2.046875v4.097657zm0 0"/><path d="m193.875 32.519531 3.546875-2.050781v4.097656zm0 0"/><path d="m183.230469 26.375 3.546875-2.050781v4.097656zm0 0"/><path d="m179.683594 24.324219 3.546875-2.046875v4.097656zm0 0"/><path d="m44.863281 130.839844 3.550781-2.046875v4.09375zm0 0"/><path d="m44.863281 229.160156 3.550781-2.046875v4.09375zm0 0"/><path d="m179.683594 335.675781 3.546875-2.050781v4.097656zm0 0"/><path d="m183.230469 333.625 3.546875-2.046875v4.097656zm0 0"/><path d="m193.875 327.480469 3.546875-2.046875v4.097656zm0 0"/><path d="m197.421875 325.433594 3.546875-2.050782v4.097657zm0 0"/><path d="m293.214844 270.128906 3.546875-2.050781v4.097656zm0 0"/><path d="m296.761719 268.078125 3.546875-2.046875v4.097656zm0 0"/><path d="m307.40625 261.933594 3.546875-2.046875v4.097656zm0 0"/><path d="m310.953125 259.886719 3.546875-2.050781v4.097656zm0 0"/><path d="m41.316406 104.210938 3.546875-2.046876v4.09375zm0 0"/><path d="m41.316406 108.308594 3.546875-2.050782v4.097657zm0 0"/><path d="m41.316406 120.597656 3.546875-2.046875v4.09375zm0 0"/><path d="m41.316406 124.695312 3.546875-2.050781v4.097657zm0 0"/><path d="m41.316406 235.304688 3.546875-2.046876v4.097657zm0 0"/><path d="m41.316406 239.402344 3.546875-2.046875v4.09375zm0 0"/><path d="m41.316406 251.691406 3.546875-2.046875v4.097657zm0 0"/><path d="m41.316406 255.789062 3.546875-2.046874v4.09375zm0 0"/><path d="m197.421875 182.046875-3.546875-2.046875v4.097656zm0 0"/><path d="m197.421875 177.953125-3.546875-2.050781v4.097656zm0 0"/><path d="m176.136719 165.660156-3.550781-2.046875v4.097657zm0 0"/><path d="m172.585938 167.710938-3.546876-2.050782v4.097656zm0 0"/><path d="m172.585938 192.289062-3.546876-2.046874v4.097656zm0 0"/><path d="m176.136719 194.339844-3.550781-2.050782v4.097657zm0 0"/><path d="m204.519531 190.242188-3.550781-2.046876v4.09375zm0 0"/><path d="m204.519531 186.144531-3.550781-2.046875v4.097656zm0 0"/><path d="m204.519531 173.855469-3.550781-2.050781v4.097656zm0 0"/><path d="m204.519531 169.757812-3.550781-2.046874v4.09375zm0 0"/><path d="m179.683594 155.417969-3.546875-2.046875v4.097656zm0 0"/><path d="m176.136719 157.46875-3.550781-2.050781v4.097656zm0 0"/><path d="m165.492188 163.613281-3.546876-2.046875v4.09375zm0 0"/><path d="m161.945312 165.660156-3.550781-2.046875v4.097657zm0 0"/><path d="m161.945312 194.339844-3.550781-2.050782v4.097657zm0 0"/><path d="m165.492188 196.386719-3.546876-2.046875v4.09375zm0 0"/><path d="m176.136719 202.53125-3.550781-2.046875v4.097656zm0 0"/><path d="m179.683594 204.582031-3.546875-2.050781v4.097656zm0 0"/><path d="m271.925781 229.160156-3.546875-2.046875v4.09375zm0 0"/><path d="m271.925781 130.839844-3.546875-2.046875v4.09375zm0 0"/><path d="m275.476562 227.113281-3.550781-2.050781v4.097656zm0 0"/><path d="m275.476562 132.886719-3.550781-2.046875v4.097656zm0 0"/><path d="m179.683594 77.582031-3.546875-2.046875v4.09375zm0 0"/><path d="m94.535156 126.742188-3.546875-2.046876v4.097657zm0 0"/><path d="m94.535156 233.257812-3.546875-2.050781v4.097657zm0 0"/><path d="m179.683594 282.417969-3.546875-2.046875v4.09375zm0 0"/><path d="m176.136719 75.535156-3.550781-2.050781v4.097656zm0 0"/><path d="m94.535156 122.644531-3.546875-2.046875v4.097656zm0 0"/><path d="m94.535156 237.355469-3.546875-2.050781v4.097656zm0 0"/><path d="m176.136719 284.464844-3.550781-2.046875v4.097656zm0 0"/><path d="m282.570312 231.207031-3.546874-2.046875v4.097656zm0 0"/><path d="m282.570312 128.792969-3.546874-2.050781v4.097656zm0 0"/><path d="m286.117188 229.160156-3.546876-2.046875v4.09375zm0 0"/><path d="m286.117188 220.96875-3.546876-2.050781v4.097656zm0 0"/><path d="m286.117188 139.03125-3.546876-2.046875v4.097656zm0 0"/><path d="m286.117188 130.839844-3.546876-2.046875v4.09375zm0 0"/><path d="m176.136719 67.339844-3.550781-2.046875v4.097656zm0 0"/><path d="m87.4375 118.550781-3.546875-2.050781v4.097656zm0 0"/><path d="m87.4375 241.449219-3.546875-2.046875v4.097656zm0 0"/><path d="m176.136719 292.660156-3.550781-2.050781v4.097656zm0 0"/><path d="m289.667969 218.917969-3.550781-2.046875v4.097656zm0 0"/><path d="m289.667969 141.082031-3.550781-2.050781v4.097656zm0 0"/><path d="m172.585938 65.292969-3.546876-2.050781v4.097656zm0 0"/><path d="m165.492188 69.390625-3.546876-2.050781v4.097656zm0 0"/><path d="m94.535156 110.355469-3.546875-2.046875v4.097656zm0 0"/><path d="m87.4375 114.453125-3.546875-2.046875v4.09375zm0 0"/><path d="m87.4375 245.546875-3.546875-2.046875v4.09375zm0 0"/><path d="m94.535156 249.644531-3.546875-2.050781v4.097656zm0 0"/><path d="m165.492188 290.609375-3.546876-2.046875v4.097656zm0 0"/><path d="m172.585938 294.707031-3.546876-2.046875v4.097656zm0 0"/><path d="m161.945312 67.339844-3.550781-2.046875v4.097656zm0 0"/><path d="m94.535156 106.257812-3.546875-2.046874v4.097656zm0 0"/><path d="m94.535156 253.742188-3.546875-2.050782v4.097656zm0 0"/><path d="m161.945312 292.660156-3.550781-2.050781v4.097656zm0 0"/><path d="m296.761719 218.917969-3.546875-2.046875v4.097656zm0 0"/><path d="m296.761719 141.082031-3.546875-2.050781v4.097656zm0 0"/><path d="m300.308594 229.160156-3.546875-2.046875v4.09375zm0 0"/><path d="m300.308594 220.96875-3.546875-2.050781v4.097656zm0 0"/><path d="m300.308594 139.03125-3.546875-2.046875v4.097656zm0 0"/><path d="m300.308594 130.839844-3.546875-2.046875v4.09375zm0 0"/><path d="m158.394531 61.195312-3.546875-2.046874v4.09375zm0 0"/><path d="m90.988281 100.113281-3.550781-2.046875v4.097656zm0 0"/><path d="m90.988281 259.886719-3.550781-2.050781v4.097656zm0 0"/><path d="m158.394531 298.804688-3.546875-2.046876v4.09375zm0 0"/><path d="m303.859375 231.207031-3.550781-2.046875v4.097656zm0 0"/><path d="m303.859375 128.792969-3.550781-2.050781v4.097656zm0 0"/><path d="m165.492188 53.003906-3.546876-2.050781v4.097656zm0 0"/><path d="m158.394531 57.097656-3.546875-2.046875v4.097657zm0 0"/><path d="m87.4375 98.066406-3.546875-2.050781v4.097656zm0 0"/><path d="m80.34375 102.164062-3.546875-2.050781v4.097657zm0 0"/><path d="m80.34375 257.835938-3.546875-2.046876v4.097657zm0 0"/><path d="m87.4375 261.933594-3.546875-2.046875v4.097656zm0 0"/><path d="m158.394531 302.902344-3.546875-2.050782v4.097657zm0 0"/><path d="m165.492188 306.996094-3.546876-2.046875v4.097656zm0 0"/><path d="m165.492188 48.90625-3.546876-2.050781v4.097656zm0 0"/><path d="m76.796875 100.113281-3.550781-2.046875v4.097656zm0 0"/><path d="m76.796875 259.886719-3.550781-2.050781v4.097656zm0 0"/><path d="m165.492188 311.09375-3.546876-2.046875v4.097656zm0 0"/><path d="m310.953125 247.59375-3.546875-2.046875v4.097656zm0 0"/><path d="m310.953125 243.5-3.546875-2.050781v4.097656zm0 0"/><path d="m310.953125 227.113281-3.546875-2.050781v4.097656zm0 0"/><path d="m310.953125 132.886719-3.546875-2.046875v4.097656zm0 0"/><path d="m310.953125 116.5-3.546875-2.046875v4.097656zm0 0"/><path d="m310.953125 112.40625-3.546875-2.050781v4.097656zm0 0"/><path d="m314.5 229.160156-3.546875-2.046875v4.09375zm0 0"/><path d="m314.5 130.839844-3.546875-2.046875v4.09375zm0 0"/><path d="m176.136719 34.566406-3.550781-2.046875v4.097657zm0 0"/><path d="m172.585938 36.617188-3.546876-2.050782v4.097656zm0 0"/><path d="m158.394531 44.808594-3.546875-2.046875v4.09375zm0 0"/><path d="m76.796875 91.921875-3.550781-2.050781v4.097656zm0 0"/><path d="m62.605469 100.113281-3.550781-2.046875v4.097656zm0 0"/><path d="m59.054688 102.164062-3.546876-2.050781v4.097657zm0 0"/><path d="m59.054688 257.835938-3.546876-2.046876v4.097657zm0 0"/><path d="m62.605469 259.886719-3.550781-2.050781v4.097656zm0 0"/><path d="m76.796875 268.078125-3.550781-2.046875v4.097656zm0 0"/><path d="m158.394531 315.191406-3.546875-2.046875v4.09375zm0 0"/><path d="m172.585938 323.382812-3.546876-2.046874v4.097656zm0 0"/><path d="m176.136719 325.433594-3.550781-2.050782v4.097657zm0 0"/><path d="m318.050781 255.789062-3.550781-2.046874v4.09375zm0 0"/><path d="m318.050781 251.691406-3.550781-2.046875v4.097657zm0 0"/><path d="m318.050781 239.402344-3.550781-2.046875v4.09375zm0 0"/><path d="m318.050781 235.304688-3.550781-2.046876v4.097657zm0 0"/><path d="m318.050781 124.695312-3.550781-2.050781v4.097657zm0 0"/><path d="m318.050781 120.597656-3.550781-2.046875v4.09375zm0 0"/><path d="m318.050781 108.308594-3.550781-2.050782v4.097657zm0 0"/><path d="m318.050781 104.210938-3.550781-2.046876v4.09375zm0 0"/><path d="m158.394531 40.710938-3.546875-2.046876v4.097657zm0 0"/><path d="m73.246094 89.871094-3.546875-2.046875v4.097656zm0 0"/><path d="m73.246094 270.128906-3.546875-2.050781v4.097656zm0 0"/><path d="m158.394531 319.289062-3.546875-2.050781v4.097657zm0 0"/><path d="m179.683594 24.324219-3.546875-2.046875v4.097656zm0 0"/><path d="m176.136719 26.375-3.550781-2.050781v4.097656zm0 0"/><path d="m165.492188 32.519531-3.546876-2.050781v4.097656zm0 0"/><path d="m161.945312 34.566406-3.550781-2.046875v4.097657zm0 0"/><path d="m66.152344 89.871094-3.546875-2.046875v4.097656zm0 0"/><path d="m62.605469 91.921875-3.550781-2.050781v4.097656zm0 0"/><path d="m51.960938 98.066406-3.546876-2.050781v4.097656zm0 0"/><path d="m48.414062 100.113281-3.550781-2.046875v4.097656zm0 0"/><path d="m48.414062 259.886719-3.550781-2.050781v4.097656zm0 0"/><path d="m51.960938 261.933594-3.546876-2.046875v4.097656zm0 0"/><path d="m62.605469 268.078125-3.550781-2.046875v4.097656zm0 0"/><path d="m66.152344 270.128906-3.546875-2.050781v4.097656zm0 0"/><path d="m161.945312 325.433594-3.550781-2.050782v4.097657zm0 0"/><path d="m165.492188 327.480469-3.546876-2.046875v4.097656zm0 0"/><path d="m176.136719 333.625-3.550781-2.046875v4.097656zm0 0"/><path d="m179.683594 335.675781-3.546875-2.050781v4.097656zm0 0"/></g></g></svg>