<svg height="360pt" viewBox="0 0 360 360" width="360pt" xmlns="http://www.w3.org/2000/svg"><path d="m0 0h360v360h-360z" fill="#800080"/><g fill="#fff"><path d="m173.714844 180 9.429687-5.445312v10.890624zm0 0"/><path d="m249.15625 223.558594 9.429688-5.445313v10.886719zm0 0"/><path d="m249.15625 136.441406 9.429688-5.441406v10.886719zm0 0"/><path d="m173.714844 92.886719 9.429687-5.445313v10.890625zm0 0"/><path d="m98.269531 136.441406 9.429688-5.441406v10.886719zm0 0"/><path d="m98.269531 223.558594 9.429688-5.445313v10.886719zm0 0"/><path d="m173.714844 267.113281 9.429687-5.445312v10.890625zm0 0"/><path d="m286.878906 245.335938 9.429688-5.445313v10.890625zm0 0"/><path d="m286.878906 201.777344 9.429688-5.445313v10.890625zm0 0"/><path d="m286.878906 158.222656 9.429688-5.445312v10.890625zm0 0"/><path d="m286.878906 114.664062 9.429688-5.445312v10.890625zm0 0"/><path d="m249.15625 92.886719 9.429688-5.445313v10.890625zm0 0"/><path d="m211.433594 71.105469 9.429687-5.441407v10.886719zm0 0"/><path d="m173.714844 49.328125 9.429687-5.445313v10.890626zm0 0"/><path d="m135.992188 71.105469 9.429687-5.441407v10.886719zm0 0"/><path d="m98.269531 92.886719 9.429688-5.445313v10.890625zm0 0"/><path d="m60.546875 114.664062 9.429687-5.445312v10.890625zm0 0"/><path d="m60.546875 158.222656 9.429687-5.445312v10.890625zm0 0"/><path d="m60.546875 201.777344 9.429687-5.445313v10.890625zm0 0"/><path d="m60.546875 245.335938 9.429687-5.445313v10.890625zm0 0"/><path d="m98.269531 267.113281 9.429688-5.445312v10.890625zm0 0"/><path d="m135.992188 288.894531 9.429687-5.445312v10.886719zm0 0"/><path d="m173.714844 310.671875 9.429687-5.445313v10.890626zm0 0"/><path d="m211.433594 288.894531 9.429687-5.445312v10.886719zm0 0"/><path d="m249.15625 267.113281 9.429688-5.445312v10.890625zm0 0"/></g></svg>