<svg height="360pt" viewBox="0 0 360 360" width="360pt" xmlns="http://www.w3.org/2000/svg"><path d="m0 0h360v360h-360z" fill="#fff"/><g fill="#800080"><path d="m173.890625 180 9.164063-5.289062v10.578124zm0 0"/><path d="m183.054688 174.710938 9.164062-5.292969v10.582031zm0 0"/><path d="m173.890625 169.417969 9.164063-5.289063v10.582032zm0 0"/><path d="m164.730469 174.710938 9.160156-5.292969v10.582031zm0 0"/><path d="m164.730469 185.289062 9.160156-5.289062v10.582031zm0 0"/><path d="m173.890625 190.582031 9.164063-5.292969v10.582032zm0 0"/><path d="m192.21875 190.582031 9.160156-5.292969v10.582032zm0 0"/><path d="m173.890625 158.839844 9.164063-5.289063v10.578125zm0 0"/><path d="m155.566406 169.417969 9.164063-5.289063v10.582032zm0 0"/><path d="m155.566406 180 9.164063-5.289062v10.578124zm0 0"/><path d="m155.566406 190.582031 9.164063-5.292969v10.582032zm0 0"/><path d="m164.730469 195.871094 9.160156-5.289063v10.578125zm0 0"/><path d="m164.730469 153.550781 9.160156-5.292969v10.582032zm0 0"/><path d="m155.566406 158.839844 9.164063-5.289063v10.578125zm0 0"/><path d="m146.402344 164.128906 9.164062-5.289062v10.578125zm0 0"/><path d="m146.402344 195.871094 9.164062-5.289063v10.578125zm0 0"/><path d="m155.566406 201.160156 9.164063-5.289062v10.578125zm0 0"/><path d="m173.890625 211.742188 9.164063-5.292969v10.582031zm0 0"/><path d="m183.054688 206.449219 9.164062-5.289063v10.582032zm0 0"/><path d="m164.730469 142.96875 9.160156-5.289062v10.578124zm0 0"/><path d="m155.566406 148.257812 9.164063-5.289062v10.582031zm0 0"/><path d="m146.402344 153.550781 9.164062-5.292969v10.582032zm0 0"/><path d="m137.242188 158.839844 9.160156-5.289063v10.578125zm0 0"/><path d="m137.242188 190.582031 9.160156-5.292969v10.582032zm0 0"/><path d="m137.242188 201.160156 9.160156-5.289062v10.578125zm0 0"/><path d="m146.402344 206.449219 9.164062-5.289063v10.582032zm0 0"/><path d="m155.566406 211.742188 9.164063-5.292969v10.582031zm0 0"/><path d="m173.890625 222.320312 9.164063-5.289062v10.578125zm0 0"/><path d="m183.054688 217.03125 9.164062-5.289062v10.578124zm0 0"/><path d="m192.21875 211.742188 9.160156-5.292969v10.582031zm0 0"/><path d="m146.402344 142.96875 9.164062-5.289062v10.578124zm0 0"/><path d="m128.078125 164.128906 9.164063-5.289062v10.578125zm0 0"/><path d="m128.078125 174.710938 9.164063-5.292969v10.582031zm0 0"/><path d="m128.078125 185.289062 9.164063-5.289062v10.582031zm0 0"/><path d="m128.078125 195.871094 9.164063-5.289063v10.578125zm0 0"/><path d="m128.078125 206.449219 9.164063-5.289063v10.582032zm0 0"/><path d="m137.242188 211.742188 9.160156-5.292969v10.582031zm0 0"/><path d="m146.402344 217.03125 9.164062-5.289062v10.578124zm0 0"/><path d="m155.566406 222.320312 9.164063-5.289062v10.578125zm0 0"/><path d="m164.730469 227.609375 9.160156-5.289063v10.582032zm0 0"/><path d="m183.054688 227.609375 9.164062-5.289063v10.582032zm0 0"/><path d="m192.21875 222.320312 9.160156-5.289062v10.578125zm0 0"/><path d="m210.542969 211.742188 9.164062-5.292969v10.582031zm0 0"/><path d="m228.867188 201.160156 9.164062-5.289062v10.578125zm0 0"/><path d="m146.402344 132.390625 9.164062-5.292969v10.582032zm0 0"/><path d="m137.242188 137.679688 9.160156-5.289063v10.578125zm0 0"/><path d="m128.078125 142.96875 9.164063-5.289062v10.578124zm0 0"/><path d="m118.914062 148.257812 9.164063-5.289062v10.582031zm0 0"/><path d="m118.914062 158.839844 9.164063-5.289063v10.578125zm0 0"/><path d="m118.914062 169.417969 9.164063-5.289063v10.582032zm0 0"/><path d="m118.914062 201.160156 9.164063-5.289062v10.578125zm0 0"/><path d="m118.914062 211.742188 9.164063-5.292969v10.582031zm0 0"/><path d="m128.078125 217.03125 9.164063-5.289062v10.578124zm0 0"/><path d="m137.242188 222.320312 9.160156-5.289062v10.578125zm0 0"/><path d="m183.054688 238.191406 9.164062-5.289062v10.578125zm0 0"/><path d="m155.566406 116.519531 9.164063-5.292969v10.582032zm0 0"/><path d="m128.078125 132.390625 9.164063-5.292969v10.582032zm0 0"/><path d="m118.914062 137.679688 9.164063-5.289063v10.578125zm0 0"/><path d="m109.753906 142.96875 9.160156-5.289062v10.578124zm0 0"/><path d="m109.753906 164.128906 9.160156-5.289062v10.578125zm0 0"/><path d="m109.753906 174.710938 9.160156-5.292969v10.582031zm0 0"/><path d="m118.914062 222.320312 9.164063-5.289062v10.578125zm0 0"/><path d="m137.242188 232.902344 9.160156-5.292969v10.582031zm0 0"/><path d="m173.890625 254.0625 9.164063-5.289062v10.578124zm0 0"/><path d="m183.054688 248.773438 9.164062-5.292969v10.582031zm0 0"/><path d="m201.378906 238.191406 9.164063-5.289062v10.578125zm0 0"/><path d="m228.867188 222.320312 9.164062-5.289062v10.578125zm0 0"/><path d="m118.914062 127.097656 9.164063-5.289062v10.582031zm0 0"/><path d="m109.753906 132.390625 9.160156-5.292969v10.582032zm0 0"/><path d="m100.589844 137.679688 9.164062-5.289063v10.578125zm0 0"/><path d="m100.589844 148.257812 9.164062-5.289062v10.582031zm0 0"/><path d="m100.589844 158.839844 9.164062-5.289063v10.578125zm0 0"/><path d="m100.589844 169.417969 9.164062-5.289063v10.582032zm0 0"/><path d="m100.589844 180 9.164062-5.289062v10.578124zm0 0"/><path d="m192.21875 254.0625 9.160156-5.289062v10.578124zm0 0"/><path d="m118.914062 116.519531 9.164063-5.292969v10.582032zm0 0"/><path d="m109.753906 121.808594 9.160156-5.289063v10.578125zm0 0"/><path d="m100.589844 127.097656 9.164062-5.289062v10.582031zm0 0"/><path d="m91.425781 164.128906 9.164063-5.289062v10.578125zm0 0"/><path d="m192.21875 264.640625 9.160156-5.289063v10.582032zm0 0"/><path d="m201.378906 259.351562 9.164063-5.289062v10.578125zm0 0"/><path d="m128.078125 100.648438 9.164063-5.289063v10.578125zm0 0"/><path d="m100.589844 116.519531 9.164062-5.292969v10.582032zm0 0"/><path d="m82.265625 148.257812 9.160156-5.289062v10.582031zm0 0"/><path d="m82.265625 158.839844 9.160156-5.289063v10.578125zm0 0"/><path d="m82.265625 169.417969 9.160156-5.289063v10.582032zm0 0"/><path d="m73.101562 153.550781 9.164063-5.292969v10.582032zm0 0"/><path d="m63.9375 148.257812 9.164062-5.289062v10.582031zm0 0"/><path d="m192.21875 169.417969-9.164062-5.289063v10.582032zm0 0"/><path d="m210.542969 169.417969-9.164063-5.289063v10.582032zm0 0"/><path d="m201.378906 164.128906-9.160156-5.289062v10.578125zm0 0"/><path d="m183.054688 153.550781-9.164063-5.292969v10.582032zm0 0"/><path d="m164.730469 195.871094-9.164063-5.289063v10.578125zm0 0"/><path d="m192.21875 201.160156-9.164062-5.289062v10.578125zm0 0"/><path d="m201.378906 195.871094-9.160156-5.289063v10.578125zm0 0"/><path d="m219.707031 195.871094-9.164062-5.289063v10.578125zm0 0"/><path d="m219.707031 174.710938-9.164062-5.292969v10.582031zm0 0"/><path d="m219.707031 164.128906-9.164062-5.289062v10.578125zm0 0"/><path d="m210.542969 158.839844-9.164063-5.289063v10.578125zm0 0"/><path d="m201.378906 153.550781-9.160156-5.292969v10.582032zm0 0"/><path d="m192.21875 148.257812-9.164062-5.289062v10.582031zm0 0"/><path d="m183.054688 142.96875-9.164063-5.289062v10.578124zm0 0"/><path d="m155.566406 201.160156-9.164062-5.289062v10.578125zm0 0"/><path d="m164.730469 206.449219-9.164063-5.289063v10.582032zm0 0"/><path d="m183.054688 217.03125-9.164063-5.289062v10.578124zm0 0"/><path d="m201.378906 206.449219-9.160156-5.289063v10.582032zm0 0"/><path d="m228.867188 190.582031-9.160157-5.292969v10.582032zm0 0"/><path d="m228.867188 169.417969-9.160157-5.289063v10.582032zm0 0"/><path d="m192.21875 137.679688-9.164062-5.289063v10.578125zm0 0"/><path d="m146.402344 195.871094-9.160156-5.289063v10.578125zm0 0"/><path d="m137.242188 148.257812-9.164063-5.289062v10.582031zm0 0"/><path d="m137.242188 180-9.164063-5.289062v10.578124zm0 0"/><path d="m137.242188 190.582031-9.164063-5.292969v10.582032zm0 0"/><path d="m192.21875 232.902344-9.164062-5.292969v10.582031zm0 0"/><path d="m201.378906 227.609375-9.160156-5.289063v10.582032zm0 0"/><path d="m247.195312 169.417969-9.164062-5.289063v10.582032zm0 0"/><path d="m137.242188 137.679688-9.164063-5.289063v10.578125zm0 0"/><path d="m128.078125 164.128906-9.164063-5.289062v10.578125zm0 0"/><path d="m128.078125 185.289062-9.164063-5.289062v10.582031zm0 0"/><path d="m128.078125 195.871094-9.164063-5.289063v10.578125zm0 0"/><path d="m201.378906 238.191406-9.160156-5.289062v10.578125zm0 0"/><path d="m137.242188 127.097656-9.164063-5.289062v10.582031zm0 0"/><path d="m128.078125 132.390625-9.164063-5.292969v10.582032zm0 0"/><path d="m118.914062 180-9.160156-5.289062v10.578124zm0 0"/><path d="m128.078125 121.808594-9.164063-5.289063v10.578125zm0 0"/><path d="m109.753906 195.871094-9.164062-5.289063v10.578125zm0 0"/><path d="m100.589844 180-9.164063-5.289062v10.578124zm0 0"/><path d="m100.589844 190.582031-9.164063-5.292969v10.582032zm0 0"/></g></svg>