<svg height="360pt" viewBox="0 0 360 360" width="360pt" xmlns="http://www.w3.org/2000/svg"><path d="m0 0h360v360h-360z" fill="#fff"/><g fill="#800080"><path d="m210.542969 201.160156 9.164062-5.289062v10.578125zm0 0"/><path d="m210.542969 158.839844 9.164062-5.289063v10.578125zm0 0"/><path d="m173.890625 137.679688 9.164063-5.289063v10.578125zm0 0"/><path d="m137.242188 158.839844 9.160156-5.289063v10.578125zm0 0"/><path d="m137.242188 201.160156 9.160156-5.289062v10.578125zm0 0"/><path d="m173.890625 222.320312 9.164063-5.289062v10.578125zm0 0"/><path d="m283.84375 243.480469 9.164062-5.289063v10.582032zm0 0"/><path d="m283.84375 201.160156 9.164062-5.289062v10.578125zm0 0"/><path d="m283.84375 158.839844 9.164062-5.289063v10.578125zm0 0"/><path d="m283.84375 116.519531 9.164062-5.292969v10.582032zm0 0"/><path d="m247.195312 95.359375 9.160157-5.292969v10.582032zm0 0"/><path d="m210.542969 74.199219 9.164062-5.292969v10.582031zm0 0"/><path d="m173.890625 53.035156 9.164063-5.289062v10.582031zm0 0"/><path d="m137.242188 74.199219 9.160156-5.292969v10.582031zm0 0"/><path d="m100.589844 95.359375 9.164062-5.292969v10.582032zm0 0"/><path d="m63.9375 116.519531 9.164062-5.292969v10.582032zm0 0"/><path d="m63.9375 158.839844 9.164062-5.289063v10.578125zm0 0"/><path d="m63.9375 201.160156 9.164062-5.289062v10.578125zm0 0"/><path d="m63.9375 243.480469 9.164062-5.289063v10.582032zm0 0"/><path d="m100.589844 264.640625 9.164062-5.289063v10.582032zm0 0"/><path d="m137.242188 285.800781 9.160156-5.289062v10.582031zm0 0"/><path d="m173.890625 306.964844 9.164063-5.292969v10.582031zm0 0"/><path d="m210.542969 285.800781 9.164062-5.289062v10.582031zm0 0"/><path d="m247.195312 264.640625 9.160157-5.289063v10.582032zm0 0"/><path d="m219.707031 195.871094-9.164062-5.289063v10.578125zm0 0"/><path d="m219.707031 164.128906-9.164062-5.289062v10.578125zm0 0"/><path d="m183.054688 142.96875-9.164063-5.289062v10.578124zm0 0"/><path d="m155.566406 158.839844-9.164062-5.289063v10.578125zm0 0"/><path d="m155.566406 201.160156-9.164062-5.289062v10.578125zm0 0"/><path d="m183.054688 217.03125-9.164063-5.289062v10.578124zm0 0"/><path d="m228.867188 201.160156-9.160157-5.289062v10.578125zm0 0"/><path d="m228.867188 158.839844-9.160157-5.289063v10.578125zm0 0"/><path d="m219.707031 153.550781-9.164062-5.292969v10.582032zm0 0"/><path d="m192.21875 137.679688-9.164062-5.289063v10.578125zm0 0"/><path d="m183.054688 132.390625-9.164063-5.292969v10.582032zm0 0"/><path d="m146.402344 153.550781-9.160156-5.292969v10.582032zm0 0"/><path d="m146.402344 164.128906-9.160156-5.289062v10.578125zm0 0"/><path d="m146.402344 195.871094-9.160156-5.289063v10.578125zm0 0"/><path d="m146.402344 206.449219-9.160156-5.289063v10.582032zm0 0"/><path d="m183.054688 227.609375-9.164063-5.289063v10.582032zm0 0"/><path d="m192.21875 222.320312-9.164062-5.289062v10.578125zm0 0"/><path d="m219.707031 206.449219-9.164062-5.289063v10.582032zm0 0"/><path d="m293.007812 238.191406-9.164062-5.289062v10.578125zm0 0"/><path d="m293.007812 206.449219-9.164062-5.289063v10.582032zm0 0"/><path d="m293.007812 195.871094-9.164062-5.289063v10.578125zm0 0"/><path d="m293.007812 164.128906-9.164062-5.289062v10.578125zm0 0"/><path d="m293.007812 153.550781-9.164062-5.292969v10.582032zm0 0"/><path d="m293.007812 121.808594-9.164062-5.289063v10.578125zm0 0"/><path d="m256.355469 100.648438-9.160157-5.289063v10.578125zm0 0"/><path d="m219.707031 79.488281-9.164062-5.289062v10.578125zm0 0"/><path d="m183.054688 58.328125-9.164063-5.292969v10.582032zm0 0"/><path d="m155.566406 74.199219-9.164062-5.292969v10.582031zm0 0"/><path d="m146.402344 79.488281-9.160156-5.289062v10.578125zm0 0"/><path d="m118.914062 95.359375-9.160156-5.292969v10.582032zm0 0"/><path d="m109.753906 100.648438-9.164062-5.289063v10.578125zm0 0"/><path d="m82.265625 116.519531-9.164063-5.292969v10.582032zm0 0"/><path d="m82.265625 158.839844-9.164063-5.289063v10.578125zm0 0"/><path d="m82.265625 201.160156-9.164063-5.289062v10.578125zm0 0"/><path d="m82.265625 243.480469-9.164063-5.289063v10.582032zm0 0"/><path d="m109.753906 259.351562-9.164062-5.289062v10.578125zm0 0"/><path d="m118.914062 264.640625-9.160156-5.289063v10.582032zm0 0"/><path d="m146.402344 280.511719-9.160156-5.289063v10.578125zm0 0"/><path d="m155.566406 285.800781-9.164062-5.289062v10.582031zm0 0"/><path d="m183.054688 301.671875-9.164063-5.289063v10.582032zm0 0"/><path d="m219.707031 280.511719-9.164062-5.289063v10.578125zm0 0"/><path d="m256.355469 259.351562-9.160157-5.289062v10.578125zm0 0"/><path d="m302.171875 243.480469-9.164063-5.289063v10.582032zm0 0"/><path d="m302.171875 201.160156-9.164063-5.289062v10.578125zm0 0"/><path d="m302.171875 158.839844-9.164063-5.289063v10.578125zm0 0"/><path d="m302.171875 116.519531-9.164063-5.292969v10.582032zm0 0"/><path d="m293.007812 111.226562-9.164062-5.289062v10.582031zm0 0"/><path d="m265.519531 95.359375-9.164062-5.292969v10.582032zm0 0"/><path d="m256.355469 90.066406-9.160157-5.289062v10.582031zm0 0"/><path d="m228.867188 74.199219-9.160157-5.292969v10.582031zm0 0"/><path d="m219.707031 68.90625-9.164062-5.289062v10.582031zm0 0"/><path d="m192.21875 53.035156-9.164062-5.289062v10.582031zm0 0"/><path d="m183.054688 47.746094-9.164063-5.289063v10.578125zm0 0"/><path d="m146.402344 68.90625-9.160156-5.289062v10.582031zm0 0"/><path d="m109.753906 90.066406-9.164062-5.289062v10.582031zm0 0"/><path d="m73.101562 111.226562-9.164062-5.289062v10.582031zm0 0"/><path d="m73.101562 121.808594-9.164062-5.289063v10.578125zm0 0"/><path d="m73.101562 153.550781-9.164062-5.292969v10.582032zm0 0"/><path d="m73.101562 164.128906-9.164062-5.289062v10.578125zm0 0"/><path d="m73.101562 195.871094-9.164062-5.289063v10.578125zm0 0"/><path d="m73.101562 206.449219-9.164062-5.289063v10.582032zm0 0"/><path d="m73.101562 238.191406-9.164062-5.289062v10.578125zm0 0"/><path d="m73.101562 248.773438-9.164062-5.292969v10.582031zm0 0"/><path d="m109.753906 269.933594-9.164062-5.292969v10.582031zm0 0"/><path d="m146.402344 291.09375-9.160156-5.292969v10.582031zm0 0"/><path d="m183.054688 312.253906-9.164063-5.289062v10.578125zm0 0"/><path d="m192.21875 306.964844-9.164062-5.292969v10.582031zm0 0"/><path d="m219.707031 291.09375-9.164062-5.292969v10.582031zm0 0"/><path d="m228.867188 285.800781-9.160157-5.289062v10.582031zm0 0"/><path d="m256.355469 269.933594-9.160157-5.292969v10.582031zm0 0"/><path d="m265.519531 264.640625-9.164062-5.289063v10.582032zm0 0"/><path d="m293.007812 248.773438-9.164062-5.292969v10.582031zm0 0"/></g></svg>