<svg height="360pt" viewBox="0 0 360 360" width="360pt" xmlns="http://www.w3.org/2000/svg"><path d="m0 0h360v360h-360z" fill="#fff"/><g fill="#800080" fill-rule="evenodd"><path d="m190.660156 186.441406 5.578125-3.21875v6.441406zm0 0"/><path d="m190.660156 173.558594 5.578125-3.222656v6.441406zm0 0"/><path d="m196.238281 183.222656 5.578125-3.222656v6.441406zm0 0"/><path d="m196.238281 176.777344 5.578125-3.21875v6.441406zm0 0"/><path d="m190.660156 167.117188 5.578125-3.222657v6.441407zm0 0"/><path d="m185.082031 163.894531 5.578125-3.222656v6.445313zm0 0"/><path d="m179.5 160.671875 5.582031-3.21875v6.441406zm0 0"/><path d="m173.921875 163.894531 5.578125-3.222656v6.445313zm0 0"/><path d="m162.765625 170.335938 5.578125-3.21875v6.441406zm0 0"/><path d="m162.765625 189.664062 5.578125-3.222656v6.441406zm0 0"/><path d="m173.921875 196.105469 5.578125-3.222657v6.445313zm0 0"/><path d="m179.5 199.328125 5.582031-3.222656v6.441406zm0 0"/><path d="m185.082031 196.105469 5.578125-3.222657v6.445313zm0 0"/><path d="m190.660156 192.882812 5.578125-3.21875v6.441407zm0 0"/><path d="m201.816406 192.882812 5.582032-3.21875v6.441407zm0 0"/><path d="m201.816406 186.441406 5.582032-3.21875v6.441406zm0 0"/><path d="m201.816406 180 5.582032-3.222656v6.445312zm0 0"/><path d="m201.816406 173.558594 5.582032-3.222656v6.441406zm0 0"/><path d="m201.816406 167.117188 5.582032-3.222657v6.441407zm0 0"/><path d="m190.660156 160.671875 5.578125-3.21875v6.441406zm0 0"/><path d="m185.082031 157.453125 5.578125-3.222656v6.441406zm0 0"/><path d="m168.34375 160.671875 5.578125-3.21875v6.441406zm0 0"/><path d="m162.765625 163.894531 5.578125-3.222656v6.445313zm0 0"/><path d="m157.183594 173.558594 5.582031-3.222656v6.441406zm0 0"/><path d="m157.183594 180 5.582031-3.222656v6.445312zm0 0"/><path d="m157.183594 186.441406 5.582031-3.21875v6.441406zm0 0"/><path d="m162.765625 196.105469 5.578125-3.222657v6.445313zm0 0"/><path d="m168.34375 199.328125 5.578125-3.222656v6.441406zm0 0"/><path d="m185.082031 202.546875 5.578125-3.21875v6.441406zm0 0"/><path d="m190.660156 199.328125 5.578125-3.222656v6.441406zm0 0"/><path d="m207.398438 196.105469 5.578124-3.222657v6.445313zm0 0"/><path d="m207.398438 189.664062 5.578124-3.222656v6.441406zm0 0"/><path d="m207.398438 183.222656 5.578124-3.222656v6.441406zm0 0"/><path d="m207.398438 176.777344 5.578124-3.21875v6.441406zm0 0"/><path d="m207.398438 170.335938 5.578124-3.21875v6.441406zm0 0"/><path d="m207.398438 163.894531 5.578124-3.222656v6.445313zm0 0"/><path d="m201.816406 160.671875 5.582032-3.21875v6.441406zm0 0"/><path d="m190.660156 154.230469 5.578125-3.21875v6.441406zm0 0"/><path d="m179.5 147.789062 5.582031-3.222656v6.445313zm0 0"/><path d="m173.921875 151.011719 5.578125-3.222657v6.441407zm0 0"/><path d="m168.34375 154.230469 5.578125-3.21875v6.441406zm0 0"/><path d="m162.765625 157.453125 5.578125-3.222656v6.441406zm0 0"/><path d="m157.183594 160.671875 5.582031-3.21875v6.441406zm0 0"/><path d="m151.605469 163.894531 5.578125-3.222656v6.445313zm0 0"/><path d="m151.605469 176.777344 5.578125-3.21875v6.441406zm0 0"/><path d="m151.605469 183.222656 5.578125-3.222656v6.441406zm0 0"/><path d="m151.605469 196.105469 5.578125-3.222657v6.445313zm0 0"/><path d="m157.183594 199.328125 5.582031-3.222656v6.441406zm0 0"/><path d="m162.765625 202.546875 5.578125-3.21875v6.441406zm0 0"/><path d="m168.34375 205.769531 5.578125-3.222656v6.441406zm0 0"/><path d="m173.921875 208.988281 5.578125-3.21875v6.441407zm0 0"/><path d="m179.5 212.210938 5.582031-3.222657v6.445313zm0 0"/><path d="m190.660156 205.769531 5.578125-3.222656v6.441406zm0 0"/><path d="m201.816406 199.328125 5.582032-3.222656v6.441406zm0 0"/><path d="m212.976562 199.328125 5.578126-3.222656v6.441406zm0 0"/><path d="m212.976562 192.882812 5.578126-3.21875v6.441407zm0 0"/><path d="m212.976562 186.441406 5.578126-3.21875v6.441406zm0 0"/><path d="m212.976562 180 5.578126-3.222656v6.445312zm0 0"/><path d="m212.976562 173.558594 5.578126-3.222656v6.441406zm0 0"/><path d="m212.976562 167.117188 5.578126-3.222657v6.441407zm0 0"/><path d="m212.976562 160.671875 5.578126-3.21875v6.441406zm0 0"/><path d="m201.816406 154.230469 5.582032-3.21875v6.441406zm0 0"/><path d="m196.238281 151.011719 5.578125-3.222657v6.441407zm0 0"/><path d="m190.660156 147.789062 5.578125-3.222656v6.445313zm0 0"/><path d="m185.082031 144.566406 5.578125-3.21875v6.441406zm0 0"/><path d="m173.921875 144.566406 5.578125-3.21875v6.441406zm0 0"/><path d="m168.34375 147.789062 5.578125-3.222656v6.445313zm0 0"/><path d="m162.765625 151.011719 5.578125-3.222657v6.441407zm0 0"/><path d="m157.183594 154.230469 5.582031-3.21875v6.441406zm0 0"/><path d="m151.605469 157.453125 5.578125-3.222656v6.441406zm0 0"/><path d="m146.027344 160.671875 5.578125-3.21875v6.441406zm0 0"/><path d="m146.027344 167.117188 5.578125-3.222657v6.441407zm0 0"/><path d="m146.027344 180 5.578125-3.222656v6.445312zm0 0"/><path d="m146.027344 192.882812 5.578125-3.21875v6.441407zm0 0"/><path d="m146.027344 199.328125 5.578125-3.222656v6.441406zm0 0"/><path d="m151.605469 202.546875 5.578125-3.21875v6.441406zm0 0"/><path d="m157.183594 205.769531 5.582031-3.222656v6.441406zm0 0"/><path d="m162.765625 208.988281 5.578125-3.21875v6.441407zm0 0"/><path d="m168.34375 212.210938 5.578125-3.222657v6.445313zm0 0"/><path d="m173.921875 215.433594 5.578125-3.222656v6.441406zm0 0"/><path d="m185.082031 215.433594 5.578125-3.222656v6.441406zm0 0"/><path d="m190.660156 212.210938 5.578125-3.222657v6.445313zm0 0"/><path d="m196.238281 208.988281 5.578125-3.21875v6.441407zm0 0"/><path d="m201.816406 205.769531 5.582032-3.222656v6.441406zm0 0"/><path d="m218.554688 196.105469 5.578124-3.222657v6.445313zm0 0"/><path d="m218.554688 163.894531 5.578124-3.222656v6.445313zm0 0"/><path d="m207.398438 151.011719 5.578124-3.222657v6.441407zm0 0"/><path d="m185.082031 138.125 5.578125-3.21875v6.441406zm0 0"/><path d="m173.921875 138.125 5.578125-3.21875v6.441406zm0 0"/><path d="m168.34375 141.347656 5.578125-3.222656v6.441406zm0 0"/><path d="m162.765625 144.566406 5.578125-3.21875v6.441406zm0 0"/><path d="m157.183594 147.789062 5.582031-3.222656v6.445313zm0 0"/><path d="m151.605469 151.011719 5.578125-3.222657v6.441407zm0 0"/><path d="m146.027344 154.230469 5.578125-3.21875v6.441406zm0 0"/><path d="m140.449219 157.453125 5.578125-3.222656v6.441406zm0 0"/><path d="m140.449219 170.335938 5.578125-3.21875v6.441406zm0 0"/><path d="m140.449219 176.777344 5.578125-3.21875v6.441406zm0 0"/><path d="m140.449219 183.222656 5.578125-3.222656v6.441406zm0 0"/><path d="m140.449219 189.664062 5.578125-3.222656v6.441406zm0 0"/><path d="m140.449219 202.546875 5.578125-3.21875v6.441406zm0 0"/><path d="m146.027344 205.769531 5.578125-3.222656v6.441406zm0 0"/><path d="m151.605469 208.988281 5.578125-3.21875v6.441407zm0 0"/><path d="m157.183594 212.210938 5.582031-3.222657v6.445313zm0 0"/><path d="m162.765625 215.433594 5.578125-3.222656v6.441406zm0 0"/><path d="m168.34375 218.652344 5.578125-3.21875v6.441406zm0 0"/><path d="m173.921875 221.875 5.578125-3.222656v6.441406zm0 0"/><path d="m185.082031 221.875 5.578125-3.222656v6.441406zm0 0"/><path d="m207.398438 208.988281 5.578124-3.21875v6.441407zm0 0"/><path d="m224.132812 205.769531 5.582032-3.222656v6.441406zm0 0"/><path d="m224.132812 154.230469 5.582032-3.21875v6.441406zm0 0"/><path d="m218.554688 151.011719 5.578124-3.222657v6.441407zm0 0"/><path d="m179.5 128.460938 5.582031-3.21875v6.441406zm0 0"/><path d="m168.34375 134.90625 5.578125-3.222656v6.441406zm0 0"/><path d="m140.449219 151.011719 5.578125-3.222657v6.441407zm0 0"/><path d="m134.867188 167.117188 5.582031-3.222657v6.441407zm0 0"/><path d="m134.867188 192.882812 5.582031-3.21875v6.441407zm0 0"/><path d="m140.449219 208.988281 5.578125-3.21875v6.441407zm0 0"/><path d="m168.34375 225.09375 5.578125-3.21875v6.441406zm0 0"/><path d="m179.5 231.539062 5.582031-3.222656v6.441406zm0 0"/><path d="m218.554688 208.988281 5.578124-3.21875v6.441407zm0 0"/><path d="m229.714844 208.988281 5.578125-3.21875v6.441407zm0 0"/><path d="m229.714844 202.546875 5.578125-3.21875v6.441406zm0 0"/><path d="m229.714844 157.453125 5.578125-3.222656v6.441406zm0 0"/><path d="m229.714844 151.011719 5.578125-3.222657v6.441407zm0 0"/><path d="m224.132812 147.789062 5.582032-3.222656v6.445313zm0 0"/><path d="m218.554688 144.566406 5.578124-3.21875v6.441406zm0 0"/><path d="m201.816406 134.90625 5.582032-3.222656v6.441406zm0 0"/><path d="m185.082031 125.242188 5.578125-3.222657v6.441407zm0 0"/><path d="m179.5 122.019531 5.582031-3.21875v6.441407zm0 0"/><path d="m173.921875 125.242188 5.578125-3.222657v6.441407zm0 0"/><path d="m129.289062 151.011719 5.578126-3.222657v6.441407zm0 0"/><path d="m129.289062 157.453125 5.578126-3.222656v6.441406zm0 0"/><path d="m129.289062 202.546875 5.578126-3.21875v6.441406zm0 0"/><path d="m129.289062 208.988281 5.578126-3.21875v6.441407zm0 0"/><path d="m173.921875 234.757812 5.578125-3.21875v6.441407zm0 0"/><path d="m179.5 237.980469 5.582031-3.222657v6.441407zm0 0"/><path d="m185.082031 234.757812 5.578125-3.21875v6.441407zm0 0"/><path d="m201.816406 225.09375 5.582032-3.21875v6.441406zm0 0"/><path d="m218.554688 215.433594 5.578124-3.222656v6.441406zm0 0"/><path d="m224.132812 212.210938 5.582032-3.222657v6.445313zm0 0"/><path d="m235.292969 192.882812 5.578125-3.21875v6.441407zm0 0"/><path d="m235.292969 167.117188 5.578125-3.222657v6.441407zm0 0"/><path d="m229.714844 144.566406 5.578125-3.21875v6.441406zm0 0"/><path d="m179.5 115.578125 5.582031-3.222656v6.445312zm0 0"/><path d="m173.921875 118.800781 5.578125-3.222656v6.441406zm0 0"/><path d="m168.34375 122.019531 5.578125-3.21875v6.441407zm0 0"/><path d="m129.289062 144.566406 5.578126-3.21875v6.441406zm0 0"/><path d="m123.710938 147.789062 5.578124-3.222656v6.445313zm0 0"/><path d="m123.710938 154.230469 5.578124-3.21875v6.441406zm0 0"/><path d="m123.710938 160.671875 5.578124-3.21875v6.441406zm0 0"/><path d="m123.710938 180 5.578124-3.222656v6.445312zm0 0"/><path d="m123.710938 199.328125 5.578124-3.222656v6.441406zm0 0"/><path d="m123.710938 205.769531 5.578124-3.222656v6.441406zm0 0"/><path d="m123.710938 212.210938 5.578124-3.222657v6.445313zm0 0"/><path d="m129.289062 215.433594 5.578126-3.222656v6.441406zm0 0"/><path d="m168.34375 237.980469 5.578125-3.222657v6.441407zm0 0"/><path d="m173.921875 241.199219 5.578125-3.21875v6.441406zm0 0"/><path d="m179.5 244.421875 5.582031-3.222656v6.445312zm0 0"/><path d="m229.714844 215.433594 5.578125-3.222656v6.441406zm0 0"/><path d="m240.871094 196.105469 5.578125-3.222657v6.445313zm0 0"/><path d="m240.871094 189.664062 5.578125-3.222656v6.441406zm0 0"/><path d="m240.871094 183.222656 5.578125-3.222656v6.441406zm0 0"/><path d="m240.871094 176.777344 5.578125-3.21875v6.441406zm0 0"/><path d="m240.871094 170.335938 5.578125-3.21875v6.441406zm0 0"/><path d="m240.871094 163.894531 5.578125-3.222656v6.445313zm0 0"/><path d="m235.292969 141.347656 5.578125-3.222656v6.441406zm0 0"/><path d="m218.554688 131.683594 5.578124-3.222656v6.445312zm0 0"/><path d="m212.976562 128.460938 5.578126-3.21875v6.441406zm0 0"/><path d="m207.398438 125.242188 5.578124-3.222657v6.441407zm0 0"/><path d="m201.816406 122.019531 5.582032-3.21875v6.441407zm0 0"/><path d="m196.238281 118.800781 5.578125-3.222656v6.441406zm0 0"/><path d="m179.5 109.136719 5.582031-3.222657v6.441407zm0 0"/><path d="m157.183594 122.019531 5.582031-3.21875v6.441407zm0 0"/><path d="m134.867188 134.90625 5.582031-3.222656v6.441406zm0 0"/><path d="m118.132812 151.011719 5.578126-3.222657v6.441407zm0 0"/><path d="m118.132812 208.988281 5.578126-3.21875v6.441407zm0 0"/><path d="m134.867188 225.09375 5.582031-3.21875v6.441406zm0 0"/><path d="m157.183594 237.980469 5.582031-3.222657v6.441407zm0 0"/><path d="m179.5 250.863281 5.582031-3.21875v6.441407zm0 0"/><path d="m196.238281 241.199219 5.578125-3.21875v6.441406zm0 0"/><path d="m201.816406 237.980469 5.582032-3.222657v6.441407zm0 0"/><path d="m207.398438 234.757812 5.578124-3.21875v6.441407zm0 0"/><path d="m212.976562 231.539062 5.578126-3.222656v6.441406zm0 0"/><path d="m218.554688 228.316406 5.578124-3.222656v6.445312zm0 0"/><path d="m235.292969 218.652344 5.578125-3.21875v6.441406zm0 0"/><path d="m246.449219 212.210938 5.582031-3.222657v6.445313zm0 0"/><path d="m246.449219 205.769531 5.582031-3.222656v6.441406zm0 0"/><path d="m246.449219 199.328125 5.582031-3.222656v6.441406zm0 0"/><path d="m246.449219 160.671875 5.582031-3.21875v6.441406zm0 0"/><path d="m246.449219 154.230469 5.582031-3.21875v6.441406zm0 0"/><path d="m246.449219 147.789062 5.582031-3.222656v6.445313zm0 0"/><path d="m235.292969 134.90625 5.578125-3.222656v6.441406zm0 0"/><path d="m224.132812 128.460938 5.582032-3.21875v6.441406zm0 0"/><path d="m218.554688 125.242188 5.578124-3.222657v6.441407zm0 0"/><path d="m212.976562 122.019531 5.578126-3.21875v6.441407zm0 0"/><path d="m207.398438 118.800781 5.578124-3.222656v6.441406zm0 0"/><path d="m201.816406 115.578125 5.582032-3.222656v6.445312zm0 0"/><path d="m196.238281 112.355469 5.578125-3.21875v6.441406zm0 0"/><path d="m185.082031 105.914062 5.578125-3.21875v6.441407zm0 0"/><path d="m157.183594 115.578125 5.582031-3.222656v6.445312zm0 0"/><path d="m151.605469 118.800781 5.578125-3.222656v6.441406zm0 0"/><path d="m146.027344 122.019531 5.578125-3.21875v6.441407zm0 0"/><path d="m140.449219 125.242188 5.578125-3.222657v6.441407zm0 0"/><path d="m134.867188 128.460938 5.582031-3.21875v6.441406zm0 0"/><path d="m129.289062 131.683594 5.578126-3.222656v6.445312zm0 0"/><path d="m112.554688 147.789062 5.578124-3.222656v6.445313zm0 0"/><path d="m112.554688 167.117188 5.578124-3.222657v6.441407zm0 0"/><path d="m112.554688 173.558594 5.578124-3.222656v6.441406zm0 0"/><path d="m112.554688 180 5.578124-3.222656v6.445312zm0 0"/><path d="m112.554688 186.441406 5.578124-3.21875v6.441406zm0 0"/><path d="m112.554688 192.882812 5.578124-3.21875v6.441407zm0 0"/><path d="m112.554688 212.210938 5.578124-3.222657v6.445313zm0 0"/><path d="m129.289062 228.316406 5.578126-3.222656v6.445312zm0 0"/><path d="m134.867188 231.539062 5.582031-3.222656v6.441406zm0 0"/><path d="m140.449219 234.757812 5.578125-3.21875v6.441407zm0 0"/><path d="m146.027344 237.980469 5.578125-3.222657v6.441407zm0 0"/><path d="m151.605469 241.199219 5.578125-3.21875v6.441406zm0 0"/><path d="m157.183594 244.421875 5.582031-3.222656v6.445312zm0 0"/><path d="m185.082031 254.085938 5.578125-3.222657v6.441407zm0 0"/><path d="m196.238281 247.644531 5.578125-3.222656v6.441406zm0 0"/><path d="m201.816406 244.421875 5.582032-3.222656v6.445312zm0 0"/><path d="m207.398438 241.199219 5.578124-3.21875v6.441406zm0 0"/><path d="m212.976562 237.980469 5.578126-3.222657v6.441407zm0 0"/><path d="m218.554688 234.757812 5.578124-3.21875v6.441407zm0 0"/><path d="m224.132812 231.539062 5.582032-3.222656v6.441406zm0 0"/><path d="m235.292969 225.09375 5.578125-3.21875v6.441406zm0 0"/><path d="m252.03125 221.875 5.578125-3.222656v6.441406zm0 0"/><path d="m252.03125 215.433594 5.578125-3.222656v6.441406zm0 0"/><path d="m252.03125 202.546875 5.578125-3.21875v6.441406zm0 0"/><path d="m252.03125 196.105469 5.578125-3.222657v6.445313zm0 0"/><path d="m252.03125 189.664062 5.578125-3.222656v6.441406zm0 0"/><path d="m252.03125 183.222656 5.578125-3.222656v6.441406zm0 0"/><path d="m252.03125 176.777344 5.578125-3.21875v6.441406zm0 0"/><path d="m252.03125 170.335938 5.578125-3.21875v6.441406zm0 0"/><path d="m252.03125 163.894531 5.578125-3.222656v6.445313zm0 0"/><path d="m252.03125 157.453125 5.578125-3.222656v6.441406zm0 0"/><path d="m252.03125 144.566406 5.578125-3.21875v6.441406zm0 0"/><path d="m252.03125 138.125 5.578125-3.21875v6.441406zm0 0"/><path d="m246.449219 134.90625 5.582031-3.222656v6.441406zm0 0"/><path d="m229.714844 125.242188 5.578125-3.222657v6.441407zm0 0"/><path d="m224.132812 122.019531 5.582032-3.21875v6.441407zm0 0"/><path d="m201.816406 109.136719 5.582032-3.222657v6.441407zm0 0"/><path d="m196.238281 105.914062 5.578125-3.21875v6.441407zm0 0"/><path d="m179.5 96.25 5.582031-3.21875v6.441406zm0 0"/><path d="m168.34375 102.695312 5.578125-3.222656v6.441406zm0 0"/><path d="m162.765625 105.914062 5.578125-3.21875v6.441407zm0 0"/><path d="m157.183594 109.136719 5.582031-3.222657v6.441407zm0 0"/><path d="m123.710938 128.460938 5.578124-3.21875v6.441406zm0 0"/><path d="m118.132812 131.683594 5.578126-3.222656v6.445312zm0 0"/><path d="m112.554688 134.90625 5.578124-3.222656v6.441406zm0 0"/><path d="m106.972656 151.011719 5.582032-3.222657v6.441407zm0 0"/><path d="m106.972656 163.894531 5.582032-3.222656v6.445313zm0 0"/><path d="m106.972656 170.335938 5.582032-3.21875v6.441406zm0 0"/><path d="m106.972656 176.777344 5.582032-3.21875v6.441406zm0 0"/><path d="m106.972656 183.222656 5.582032-3.222656v6.441406zm0 0"/><path d="m106.972656 189.664062 5.582032-3.222656v6.441406zm0 0"/><path d="m106.972656 196.105469 5.582032-3.222657v6.445313zm0 0"/><path d="m106.972656 208.988281 5.582032-3.21875v6.441407zm0 0"/><path d="m112.554688 225.09375 5.578124-3.21875v6.441406zm0 0"/><path d="m118.132812 228.316406 5.578126-3.222656v6.445312zm0 0"/><path d="m123.710938 231.539062 5.578124-3.222656v6.441406zm0 0"/><path d="m157.183594 250.863281 5.582031-3.21875v6.441407zm0 0"/><path d="m162.765625 254.085938 5.578125-3.222657v6.441407zm0 0"/><path d="m168.34375 257.304688 5.578125-3.21875v6.441406zm0 0"/><path d="m179.5 263.75 5.582031-3.222656v6.441406zm0 0"/><path d="m196.238281 254.085938 5.578125-3.222657v6.441407zm0 0"/><path d="m201.816406 250.863281 5.582032-3.21875v6.441407zm0 0"/><path d="m224.132812 237.980469 5.582032-3.222657v6.441407zm0 0"/><path d="m229.714844 234.757812 5.578125-3.21875v6.441407zm0 0"/><path d="m246.449219 225.09375 5.582031-3.21875v6.441406zm0 0"/><path d="m257.609375 225.09375 5.578125-3.21875v6.441406zm0 0"/><path d="m257.609375 218.652344 5.578125-3.21875v6.441406zm0 0"/><path d="m257.609375 205.769531 5.578125-3.222656v6.441406zm0 0"/><path d="m257.609375 199.328125 5.578125-3.222656v6.441406zm0 0"/><path d="m257.609375 186.441406 5.578125-3.21875v6.441406zm0 0"/><path d="m257.609375 180 5.578125-3.222656v6.445312zm0 0"/><path d="m257.609375 173.558594 5.578125-3.222656v6.441406zm0 0"/><path d="m257.609375 160.671875 5.578125-3.21875v6.441406zm0 0"/><path d="m257.609375 154.230469 5.578125-3.21875v6.441406zm0 0"/><path d="m257.609375 141.347656 5.578125-3.222656v6.441406zm0 0"/><path d="m257.609375 134.90625 5.578125-3.222656v6.441406zm0 0"/><path d="m252.03125 131.683594 5.578125-3.222656v6.445312zm0 0"/><path d="m246.449219 128.460938 5.582031-3.21875v6.441406zm0 0"/><path d="m240.871094 125.242188 5.578125-3.222657v6.441407zm0 0"/><path d="m224.132812 115.578125 5.582032-3.222656v6.445312zm0 0"/><path d="m207.398438 105.914062 5.578124-3.21875v6.441407zm0 0"/><path d="m190.660156 96.25 5.578125-3.21875v6.441406zm0 0"/><path d="m185.082031 93.03125 5.578125-3.222656v6.441406zm0 0"/><path d="m179.5 89.808594 5.582031-3.21875v6.441406zm0 0"/><path d="m173.921875 93.03125 5.578125-3.222656v6.441406zm0 0"/><path d="m168.34375 96.25 5.578125-3.21875v6.441406zm0 0"/><path d="m157.183594 102.695312 5.582031-3.222656v6.441406zm0 0"/><path d="m151.605469 105.914062 5.578125-3.21875v6.441407zm0 0"/><path d="m146.027344 109.136719 5.578125-3.222657v6.441407zm0 0"/><path d="m140.449219 112.355469 5.578125-3.21875v6.441406zm0 0"/><path d="m134.867188 115.578125 5.582031-3.222656v6.445312zm0 0"/><path d="m129.289062 118.800781 5.578126-3.222656v6.441406zm0 0"/><path d="m123.710938 122.019531 5.578124-3.21875v6.441407zm0 0"/><path d="m118.132812 125.242188 5.578126-3.222657v6.441407zm0 0"/><path d="m106.972656 131.683594 5.582032-3.222656v6.445312zm0 0"/><path d="m101.394531 134.90625 5.578125-3.222656v6.441406zm0 0"/><path d="m101.394531 141.347656 5.578125-3.222656v6.441406zm0 0"/><path d="m101.394531 160.671875 5.578125-3.21875v6.441406zm0 0"/><path d="m101.394531 167.117188 5.578125-3.222657v6.441407zm0 0"/><path d="m101.394531 192.882812 5.578125-3.21875v6.441407zm0 0"/><path d="m101.394531 199.328125 5.578125-3.222656v6.441406zm0 0"/><path d="m101.394531 218.652344 5.578125-3.21875v6.441406zm0 0"/><path d="m101.394531 225.09375 5.578125-3.21875v6.441406zm0 0"/><path d="m106.972656 228.316406 5.582032-3.222656v6.445312zm0 0"/><path d="m118.132812 234.757812 5.578126-3.21875v6.441407zm0 0"/><path d="m123.710938 237.980469 5.578124-3.222657v6.441407zm0 0"/><path d="m129.289062 241.199219 5.578126-3.21875v6.441406zm0 0"/><path d="m134.867188 244.421875 5.582031-3.222656v6.445312zm0 0"/><path d="m140.449219 247.644531 5.578125-3.222656v6.441406zm0 0"/><path d="m146.027344 250.863281 5.578125-3.21875v6.441407zm0 0"/><path d="m151.605469 254.085938 5.578125-3.222657v6.441407zm0 0"/><path d="m157.183594 257.304688 5.582031-3.21875v6.441406zm0 0"/><path d="m168.34375 263.75 5.578125-3.222656v6.441406zm0 0"/><path d="m173.921875 266.96875 5.578125-3.21875v6.441406zm0 0"/><path d="m179.5 270.191406 5.582031-3.222656v6.441406zm0 0"/><path d="m185.082031 266.96875 5.578125-3.21875v6.441406zm0 0"/><path d="m190.660156 263.75 5.578125-3.222656v6.441406zm0 0"/><path d="m207.398438 254.085938 5.578124-3.222657v6.441407zm0 0"/><path d="m224.132812 244.421875 5.582032-3.222656v6.445312zm0 0"/><path d="m240.871094 234.757812 5.578125-3.21875v6.441407zm0 0"/><path d="m246.449219 231.539062 5.582031-3.222656v6.441406zm0 0"/><path d="m252.03125 228.316406 5.578125-3.222656v6.445312zm0 0"/><path d="m263.1875 221.875 5.578125-3.222656v6.441406zm0 0"/><path d="m263.1875 183.222656 5.578125-3.222656v6.441406zm0 0"/><path d="m263.1875 176.777344 5.578125-3.21875v6.441406zm0 0"/><path d="m263.1875 138.125 5.578125-3.21875v6.441406zm0 0"/><path d="m257.609375 128.460938 5.578125-3.21875v6.441406zm0 0"/><path d="m252.03125 125.242188 5.578125-3.222657v6.441407zm0 0"/><path d="m235.292969 115.578125 5.578125-3.222656v6.445312zm0 0"/><path d="m218.554688 105.914062 5.578124-3.21875v6.441407zm0 0"/><path d="m201.816406 96.25 5.582032-3.21875v6.441406zm0 0"/><path d="m185.082031 86.589844 5.578125-3.222656v6.441406zm0 0"/><path d="m179.5 83.367188 5.582031-3.21875v6.441406zm0 0"/><path d="m173.921875 86.589844 5.578125-3.222656v6.441406zm0 0"/><path d="m168.34375 89.808594 5.578125-3.21875v6.441406zm0 0"/><path d="m157.183594 96.25 5.582031-3.21875v6.441406zm0 0"/><path d="m151.605469 99.472656 5.578125-3.222656v6.445312zm0 0"/><path d="m140.449219 105.914062 5.578125-3.21875v6.441407zm0 0"/><path d="m134.867188 109.136719 5.582031-3.222657v6.441407zm0 0"/><path d="m129.289062 112.355469 5.578126-3.21875v6.441406zm0 0"/><path d="m118.132812 118.800781 5.578126-3.222656v6.441406zm0 0"/><path d="m112.554688 122.019531 5.578124-3.21875v6.441407zm0 0"/><path d="m101.394531 128.460938 5.578125-3.21875v6.441406zm0 0"/><path d="m95.816406 131.683594 5.578125-3.222656v6.445312zm0 0"/><path d="m95.816406 138.125 5.578125-3.21875v6.441406zm0 0"/><path d="m95.816406 144.566406 5.578125-3.21875v6.441406zm0 0"/><path d="m95.816406 151.011719 5.578125-3.222657v6.441407zm0 0"/><path d="m95.816406 170.335938 5.578125-3.21875v6.441406zm0 0"/><path d="m95.816406 189.664062 5.578125-3.222656v6.441406zm0 0"/><path d="m95.816406 208.988281 5.578125-3.21875v6.441407zm0 0"/><path d="m95.816406 215.433594 5.578125-3.222656v6.441406zm0 0"/><path d="m95.816406 221.875 5.578125-3.222656v6.441406zm0 0"/><path d="m95.816406 228.316406 5.578125-3.222656v6.445312zm0 0"/><path d="m101.394531 231.539062 5.578125-3.222656v6.441406zm0 0"/><path d="m112.554688 237.980469 5.578124-3.222657v6.441407zm0 0"/><path d="m118.132812 241.199219 5.578126-3.21875v6.441406zm0 0"/><path d="m129.289062 247.644531 5.578126-3.222656v6.441406zm0 0"/><path d="m134.867188 250.863281 5.582031-3.21875v6.441407zm0 0"/><path d="m140.449219 254.085938 5.578125-3.222657v6.441407zm0 0"/><path d="m151.605469 260.527344 5.578125-3.222656v6.445312zm0 0"/><path d="m157.183594 263.75 5.582031-3.222656v6.441406zm0 0"/><path d="m168.34375 270.191406 5.578125-3.222656v6.441406zm0 0"/><path d="m173.921875 273.410156 5.578125-3.21875v6.441406zm0 0"/><path d="m179.5 276.632812 5.582031-3.222656v6.441406zm0 0"/><path d="m185.082031 273.410156 5.578125-3.21875v6.441406zm0 0"/><path d="m201.816406 263.75 5.582032-3.222656v6.441406zm0 0"/><path d="m218.554688 254.085938 5.578124-3.222657v6.441407zm0 0"/><path d="m235.292969 244.421875 5.578125-3.222656v6.445312zm0 0"/><path d="m252.03125 234.757812 5.578125-3.21875v6.441407zm0 0"/><path d="m257.609375 231.539062 5.578125-3.222656v6.441406zm0 0"/><path d="m268.765625 225.09375 5.582031-3.21875v6.441406zm0 0"/><path d="m268.765625 212.210938 5.582031-3.222657v6.445313zm0 0"/><path d="m268.765625 205.769531 5.582031-3.222656v6.441406zm0 0"/><path d="m268.765625 192.882812 5.582031-3.21875v6.441407zm0 0"/><path d="m268.765625 186.441406 5.582031-3.21875v6.441406zm0 0"/><path d="m268.765625 180 5.582031-3.222656v6.445312zm0 0"/><path d="m268.765625 173.558594 5.582031-3.222656v6.441406zm0 0"/><path d="m268.765625 167.117188 5.582031-3.222657v6.441407zm0 0"/><path d="m268.765625 154.230469 5.582031-3.21875v6.441406zm0 0"/><path d="m268.765625 147.789062 5.582031-3.222656v6.445313zm0 0"/><path d="m268.765625 134.90625 5.582031-3.222656v6.441406zm0 0"/><path d="m257.609375 122.019531 5.578125-3.21875v6.441407zm0 0"/><path d="m246.449219 115.578125 5.582031-3.222656v6.445312zm0 0"/><path d="m196.238281 86.589844 5.578125-3.222656v6.441406zm0 0"/><path d="m185.082031 80.148438 5.578125-3.222657v6.441407zm0 0"/><path d="m168.34375 83.367188 5.578125-3.21875v6.441406zm0 0"/><path d="m134.867188 102.695312 5.582031-3.222656v6.441406zm0 0"/><path d="m129.289062 105.914062 5.578126-3.21875v6.441407zm0 0"/><path d="m95.816406 125.242188 5.578125-3.222657v6.441407zm0 0"/><path d="m90.238281 134.90625 5.578125-3.222656v6.441406zm0 0"/><path d="m90.238281 141.347656 5.578125-3.222656v6.441406zm0 0"/><path d="m90.238281 160.671875 5.578125-3.21875v6.441406zm0 0"/><path d="m90.238281 180 5.578125-3.222656v6.445312zm0 0"/><path d="m90.238281 199.328125 5.578125-3.222656v6.441406zm0 0"/><path d="m90.238281 218.652344 5.578125-3.21875v6.441406zm0 0"/><path d="m90.238281 225.09375 5.578125-3.21875v6.441406zm0 0"/><path d="m95.816406 234.757812 5.578125-3.21875v6.441407zm0 0"/><path d="m129.289062 254.085938 5.578126-3.222657v6.441407zm0 0"/><path d="m134.867188 257.304688 5.582031-3.21875v6.441406zm0 0"/><path d="m168.34375 276.632812 5.578125-3.222656v6.441406zm0 0"/><path d="m185.082031 279.851562 5.578125-3.21875v6.441407zm0 0"/><path d="m196.238281 273.410156 5.578125-3.21875v6.441406zm0 0"/><path d="m246.449219 244.421875 5.582031-3.222656v6.445312zm0 0"/><path d="m257.609375 237.980469 5.578125-3.222657v6.441407zm0 0"/><path d="m274.347656 221.875 5.578125-3.222656v6.441406zm0 0"/><path d="m274.347656 215.433594 5.578125-3.222656v6.441406zm0 0"/><path d="m274.347656 208.988281 5.578125-3.21875v6.441407zm0 0"/><path d="m274.347656 196.105469 5.578125-3.222657v6.445313zm0 0"/><path d="m274.347656 189.664062 5.578125-3.222656v6.441406zm0 0"/><path d="m274.347656 183.222656 5.578125-3.222656v6.441406zm0 0"/><path d="m274.347656 176.777344 5.578125-3.21875v6.441406zm0 0"/><path d="m274.347656 170.335938 5.578125-3.21875v6.441406zm0 0"/><path d="m274.347656 163.894531 5.578125-3.222656v6.445313zm0 0"/><path d="m274.347656 151.011719 5.578125-3.222657v6.441407zm0 0"/><path d="m274.347656 144.566406 5.578125-3.21875v6.441406zm0 0"/><path d="m274.347656 138.125 5.578125-3.21875v6.441406zm0 0"/><path d="m263.1875 118.800781 5.578125-3.222656v6.441406zm0 0"/><path d="m257.609375 115.578125 5.578125-3.222656v6.445312zm0 0"/><path d="m252.03125 112.355469 5.578125-3.21875v6.441406zm0 0"/><path d="m235.292969 102.695312 5.578125-3.222656v6.441406zm0 0"/><path d="m229.714844 99.472656 5.578125-3.222656v6.445312zm0 0"/><path d="m224.132812 96.25 5.582032-3.21875v6.441406zm0 0"/><path d="m218.554688 93.03125 5.578124-3.222656v6.441406zm0 0"/><path d="m212.976562 89.808594 5.578126-3.21875v6.441406zm0 0"/><path d="m196.238281 80.148438 5.578125-3.222657v6.441407zm0 0"/><path d="m190.660156 76.925781 5.578125-3.222656v6.445313zm0 0"/><path d="m185.082031 73.703125 5.578125-3.21875v6.441406zm0 0"/><path d="m168.34375 76.925781 5.578125-3.222656v6.445313zm0 0"/><path d="m157.183594 83.367188 5.582031-3.21875v6.441406zm0 0"/><path d="m151.605469 86.589844 5.578125-3.222656v6.441406zm0 0"/><path d="m140.449219 93.03125 5.578125-3.222656v6.441406zm0 0"/><path d="m134.867188 96.25 5.582031-3.21875v6.441406zm0 0"/><path d="m129.289062 99.472656 5.578126-3.222656v6.445312zm0 0"/><path d="m123.710938 102.695312 5.578124-3.222656v6.441406zm0 0"/><path d="m118.132812 105.914062 5.578126-3.21875v6.441407zm0 0"/><path d="m106.972656 112.355469 5.582032-3.21875v6.441406zm0 0"/><path d="m101.394531 115.578125 5.578125-3.222656v6.445312zm0 0"/><path d="m90.238281 122.019531 5.578125-3.21875v6.441407zm0 0"/><path d="m84.65625 138.125 5.582031-3.21875v6.441406zm0 0"/><path d="m84.65625 151.011719 5.582031-3.222657v6.441407zm0 0"/><path d="m84.65625 208.988281 5.582031-3.21875v6.441407zm0 0"/><path d="m84.65625 221.875 5.582031-3.222656v6.441406zm0 0"/><path d="m90.238281 237.980469 5.578125-3.222657v6.441407zm0 0"/><path d="m101.394531 244.421875 5.578125-3.222656v6.445312zm0 0"/><path d="m106.972656 247.644531 5.582032-3.222656v6.441406zm0 0"/><path d="m118.132812 254.085938 5.578126-3.222657v6.441407zm0 0"/><path d="m123.710938 257.304688 5.578124-3.21875v6.441406zm0 0"/><path d="m129.289062 260.527344 5.578126-3.222656v6.445312zm0 0"/><path d="m134.867188 263.75 5.582031-3.222656v6.441406zm0 0"/><path d="m140.449219 266.96875 5.578125-3.21875v6.441406zm0 0"/><path d="m151.605469 273.410156 5.578125-3.21875v6.441406zm0 0"/><path d="m157.183594 276.632812 5.582031-3.222656v6.441406zm0 0"/><path d="m168.34375 283.074219 5.578125-3.222657v6.445313zm0 0"/><path d="m185.082031 286.296875 5.578125-3.222656v6.441406zm0 0"/><path d="m190.660156 283.074219 5.578125-3.222657v6.445313zm0 0"/><path d="m196.238281 279.851562 5.578125-3.21875v6.441407zm0 0"/><path d="m212.976562 270.191406 5.578126-3.222656v6.441406zm0 0"/><path d="m218.554688 266.96875 5.578124-3.21875v6.441406zm0 0"/><path d="m224.132812 263.75 5.582032-3.222656v6.441406zm0 0"/><path d="m229.714844 260.527344 5.578125-3.222656v6.445312zm0 0"/><path d="m235.292969 257.304688 5.578125-3.21875v6.441406zm0 0"/><path d="m252.03125 247.644531 5.578125-3.222656v6.441406zm0 0"/><path d="m257.609375 244.421875 5.578125-3.222656v6.445312zm0 0"/><path d="m263.1875 241.199219 5.578125-3.21875v6.441406zm0 0"/><path d="m279.925781 205.769531 5.578125-3.222656v6.441406zm0 0"/><path d="m279.925781 199.328125 5.578125-3.222656v6.441406zm0 0"/><path d="m279.925781 192.882812 5.578125-3.21875v6.441407zm0 0"/><path d="m279.925781 180 5.578125-3.222656v6.445312zm0 0"/><path d="m279.925781 167.117188 5.578125-3.222657v6.441407zm0 0"/><path d="m279.925781 160.671875 5.578125-3.21875v6.441406zm0 0"/><path d="m279.925781 154.230469 5.578125-3.21875v6.441406zm0 0"/><path d="m252.03125 105.914062 5.578125-3.21875v6.441407zm0 0"/><path d="m246.449219 102.695312 5.582031-3.222656v6.441406zm0 0"/><path d="m240.871094 99.472656 5.578125-3.222656v6.445312zm0 0"/><path d="m229.714844 93.03125 5.578125-3.222656v6.441406zm0 0"/><path d="m224.132812 89.808594 5.582032-3.21875v6.441406zm0 0"/><path d="m212.976562 83.367188 5.578126-3.21875v6.441406zm0 0"/><path d="m207.398438 80.148438 5.578124-3.222657v6.441407zm0 0"/><path d="m201.816406 76.925781 5.582032-3.222656v6.445313zm0 0"/><path d="m162.765625 73.703125 5.578125-3.21875v6.441406zm0 0"/><path d="m157.183594 76.925781 5.582031-3.222656v6.445313zm0 0"/><path d="m151.605469 80.148438 5.578125-3.222657v6.441407zm0 0"/><path d="m140.449219 86.589844 5.578125-3.222656v6.441406zm0 0"/><path d="m134.867188 89.808594 5.582031-3.21875v6.441406zm0 0"/><path d="m129.289062 93.03125 5.578126-3.222656v6.441406zm0 0"/><path d="m123.710938 96.25 5.578124-3.21875v6.441406zm0 0"/><path d="m118.132812 99.472656 5.578126-3.222656v6.445312zm0 0"/><path d="m112.554688 102.695312 5.578124-3.222656v6.441406zm0 0"/><path d="m101.394531 109.136719 5.578125-3.222657v6.441407zm0 0"/><path d="m95.816406 112.355469 5.578125-3.21875v6.441406zm0 0"/><path d="m90.238281 115.578125 5.578125-3.222656v6.445312zm0 0"/><path d="m79.078125 134.90625 5.578125-3.222656v6.441406zm0 0"/><path d="m79.078125 141.347656 5.578125-3.222656v6.441406zm0 0"/><path d="m79.078125 147.789062 5.578125-3.222656v6.445313zm0 0"/><path d="m79.078125 167.117188 5.578125-3.222657v6.441407zm0 0"/><path d="m79.078125 173.558594 5.578125-3.222656v6.441406zm0 0"/><path d="m79.078125 180 5.578125-3.222656v6.445312zm0 0"/><path d="m79.078125 186.441406 5.578125-3.21875v6.441406zm0 0"/><path d="m79.078125 192.882812 5.578125-3.21875v6.441407zm0 0"/><path d="m79.078125 212.210938 5.578125-3.222657v6.445313zm0 0"/><path d="m79.078125 218.652344 5.578125-3.21875v6.441406zm0 0"/><path d="m79.078125 225.09375 5.578125-3.21875v6.441406zm0 0"/><path d="m90.238281 244.421875 5.578125-3.222656v6.445312zm0 0"/><path d="m95.816406 247.644531 5.578125-3.222656v6.441406zm0 0"/><path d="m101.394531 250.863281 5.578125-3.21875v6.441407zm0 0"/><path d="m112.554688 257.304688 5.578124-3.21875v6.441406zm0 0"/><path d="m118.132812 260.527344 5.578126-3.222656v6.445312zm0 0"/><path d="m123.710938 263.75 5.578124-3.222656v6.441406zm0 0"/><path d="m129.289062 266.96875 5.578126-3.21875v6.441406zm0 0"/><path d="m134.867188 270.191406 5.582031-3.222656v6.441406zm0 0"/><path d="m140.449219 273.410156 5.578125-3.21875v6.441406zm0 0"/><path d="m151.605469 279.851562 5.578125-3.21875v6.441407zm0 0"/><path d="m157.183594 283.074219 5.582031-3.222657v6.445313zm0 0"/><path d="m162.765625 286.296875 5.578125-3.222656v6.441406zm0 0"/><path d="m201.816406 283.074219 5.582032-3.222657v6.445313zm0 0"/><path d="m207.398438 279.851562 5.578124-3.21875v6.441407zm0 0"/><path d="m212.976562 276.632812 5.578126-3.222656v6.441406zm0 0"/><path d="m224.132812 270.191406 5.582032-3.222656v6.441406zm0 0"/><path d="m229.714844 266.96875 5.578125-3.21875v6.441406zm0 0"/><path d="m240.871094 260.527344 5.578125-3.222656v6.445312zm0 0"/><path d="m246.449219 257.304688 5.582031-3.21875v6.441406zm0 0"/><path d="m252.03125 254.085938 5.578125-3.222657v6.441407zm0 0"/><path d="m285.503906 196.105469 5.578125-3.222657v6.445313zm0 0"/><path d="m285.503906 189.664062 5.578125-3.222656v6.441406zm0 0"/><path d="m285.503906 183.222656 5.578125-3.222656v6.441406zm0 0"/><path d="m285.503906 176.777344 5.578125-3.21875v6.441406zm0 0"/><path d="m285.503906 170.335938 5.578125-3.21875v6.441406zm0 0"/><path d="m285.503906 163.894531 5.578125-3.222656v6.445313zm0 0"/><path d="m246.449219 96.25 5.582031-3.21875v6.441406zm0 0"/><path d="m235.292969 89.808594 5.578125-3.21875v6.441406zm0 0"/><path d="m229.714844 86.589844 5.578125-3.222656v6.441406zm0 0"/><path d="m224.132812 83.367188 5.582032-3.21875v6.441406zm0 0"/><path d="m212.976562 76.925781 5.578126-3.222656v6.445313zm0 0"/><path d="m146.027344 76.925781 5.578125-3.222656v6.445313zm0 0"/><path d="m140.449219 80.148438 5.578125-3.222657v6.441407zm0 0"/><path d="m134.867188 83.367188 5.582031-3.21875v6.441406zm0 0"/><path d="m123.710938 89.808594 5.578124-3.21875v6.441406zm0 0"/><path d="m112.554688 96.25 5.578124-3.21875v6.441406zm0 0"/><path d="m106.972656 99.472656 5.582032-3.222656v6.445312zm0 0"/><path d="m101.394531 102.695312 5.578125-3.222656v6.441406zm0 0"/><path d="m73.5 151.011719 5.578125-3.222657v6.441407zm0 0"/><path d="m73.5 157.453125 5.578125-3.222656v6.441406zm0 0"/><path d="m73.5 163.894531 5.578125-3.222656v6.445313zm0 0"/><path d="m73.5 176.777344 5.578125-3.21875v6.441406zm0 0"/><path d="m73.5 183.222656 5.578125-3.222656v6.441406zm0 0"/><path d="m73.5 196.105469 5.578125-3.222657v6.445313zm0 0"/><path d="m73.5 202.546875 5.578125-3.21875v6.441406zm0 0"/><path d="m73.5 208.988281 5.578125-3.21875v6.441407zm0 0"/><path d="m101.394531 257.304688 5.578125-3.21875v6.441406zm0 0"/><path d="m106.972656 260.527344 5.582032-3.222656v6.445312zm0 0"/><path d="m112.554688 263.75 5.578124-3.222656v6.441406zm0 0"/><path d="m123.710938 270.191406 5.578124-3.222656v6.441406zm0 0"/><path d="m134.867188 276.632812 5.582031-3.222656v6.441406zm0 0"/><path d="m140.449219 279.851562 5.578125-3.21875v6.441407zm0 0"/><path d="m146.027344 283.074219 5.578125-3.222657v6.445313zm0 0"/><path d="m212.976562 283.074219 5.578126-3.222657v6.445313zm0 0"/><path d="m224.132812 276.632812 5.582032-3.222656v6.441406zm0 0"/><path d="m229.714844 273.410156 5.578125-3.21875v6.441406zm0 0"/><path d="m235.292969 270.191406 5.578125-3.222656v6.441406zm0 0"/><path d="m246.449219 263.75 5.582031-3.222656v6.441406zm0 0"/><path d="m291.082031 186.441406 5.582031-3.21875v6.441406zm0 0"/><path d="m291.082031 173.558594 5.582031-3.222656v6.441406zm0 0"/><path d="m240.871094 86.589844 5.578125-3.222656v6.441406zm0 0"/><path d="m235.292969 83.367188 5.578125-3.21875v6.441406zm0 0"/><path d="m229.714844 80.148438 5.578125-3.222657v6.441407zm0 0"/><path d="m224.132812 76.925781 5.582032-3.222656v6.445313zm0 0"/><path d="m134.867188 76.925781 5.582031-3.222656v6.445313zm0 0"/><path d="m129.289062 80.148438 5.578126-3.222657v6.441407zm0 0"/><path d="m123.710938 83.367188 5.578124-3.21875v6.441406zm0 0"/><path d="m118.132812 86.589844 5.578126-3.222656v6.441406zm0 0"/><path d="m112.554688 89.808594 5.578124-3.21875v6.441406zm0 0"/><path d="m106.972656 93.03125 5.582032-3.222656v6.441406zm0 0"/><path d="m67.921875 160.671875 5.578125-3.21875v6.441406zm0 0"/><path d="m67.921875 173.558594 5.578125-3.222656v6.441406zm0 0"/><path d="m67.921875 180 5.578125-3.222656v6.445312zm0 0"/><path d="m67.921875 186.441406 5.578125-3.21875v6.441406zm0 0"/><path d="m67.921875 199.328125 5.578125-3.222656v6.441406zm0 0"/><path d="m106.972656 266.96875 5.582032-3.21875v6.441406zm0 0"/><path d="m112.554688 270.191406 5.578124-3.222656v6.441406zm0 0"/><path d="m118.132812 273.410156 5.578126-3.21875v6.441406zm0 0"/><path d="m123.710938 276.632812 5.578124-3.222656v6.441406zm0 0"/><path d="m129.289062 279.851562 5.578126-3.21875v6.441407zm0 0"/><path d="m134.867188 283.074219 5.582031-3.222657v6.445313zm0 0"/><path d="m224.132812 283.074219 5.582032-3.222657v6.445313zm0 0"/><path d="m229.714844 279.851562 5.578125-3.21875v6.441407zm0 0"/><path d="m235.292969 276.632812 5.578125-3.222656v6.441406zm0 0"/><path d="m240.871094 273.410156 5.578125-3.21875v6.441406zm0 0"/><path d="m296.664062 183.222656 5.578126-3.222656v6.441406zm0 0"/><path d="m296.664062 176.777344 5.578126-3.21875v6.441406zm0 0"/><path d="m235.292969 76.925781 5.578125-3.222656v6.445313zm0 0"/><path d="m123.710938 76.925781 5.578124-3.222656v6.445313zm0 0"/><path d="m112.554688 83.367188 5.578124-3.21875v6.441406zm0 0"/><path d="m62.339844 170.335938 5.582031-3.21875v6.441406zm0 0"/><path d="m62.339844 176.777344 5.582031-3.21875v6.441406zm0 0"/><path d="m62.339844 183.222656 5.582031-3.222656v6.441406zm0 0"/><path d="m62.339844 189.664062 5.582031-3.222656v6.441406zm0 0"/><path d="m112.554688 276.632812 5.578124-3.222656v6.441406zm0 0"/><path d="m123.710938 283.074219 5.578124-3.222657v6.445313zm0 0"/><path d="m235.292969 283.074219 5.578125-3.222657v6.445313zm0 0"/><path d="m118.132812 73.703125 5.578126-3.21875v6.441406zm0 0"/><path d="m112.554688 76.925781 5.578124-3.222656v6.445313zm0 0"/><path d="m56.761719 180 5.578125-3.222656v6.445312zm0 0"/><path d="m112.554688 283.074219 5.578124-3.222657v6.445313zm0 0"/><path d="m118.132812 286.296875 5.578126-3.222656v6.441406zm0 0"/><path d="m201.816406 186.441406-5.578125-3.21875v6.441406zm0 0"/><path d="m201.816406 180-5.578125-3.222656v6.445312zm0 0"/><path d="m201.816406 173.558594-5.578125-3.222656v6.441406zm0 0"/><path d="m196.238281 170.335938-5.578125-3.21875v6.441406zm0 0"/><path d="m185.082031 163.894531-5.582031-3.222656v6.445313zm0 0"/><path d="m185.082031 196.105469-5.582031-3.222657v6.445313zm0 0"/><path d="m196.238281 189.664062-5.578125-3.222656v6.441406zm0 0"/><path d="m207.398438 183.222656-5.582032-3.222656v6.441406zm0 0"/><path d="m207.398438 176.777344-5.582032-3.21875v6.441406zm0 0"/><path d="m196.238281 163.894531-5.578125-3.222656v6.445313zm0 0"/><path d="m190.660156 160.671875-5.578125-3.21875v6.441406zm0 0"/><path d="m179.5 160.671875-5.578125-3.21875v6.441406zm0 0"/><path d="m173.921875 163.894531-5.578125-3.222656v6.445313zm0 0"/><path d="m168.34375 167.117188-5.578125-3.222657v6.441407zm0 0"/><path d="m168.34375 173.558594-5.578125-3.222656v6.441406zm0 0"/><path d="m168.34375 186.441406-5.578125-3.21875v6.441406zm0 0"/><path d="m168.34375 192.882812-5.578125-3.21875v6.441407zm0 0"/><path d="m173.921875 196.105469-5.578125-3.222657v6.445313zm0 0"/><path d="m179.5 199.328125-5.578125-3.222656v6.441406zm0 0"/><path d="m190.660156 199.328125-5.578125-3.222656v6.441406zm0 0"/><path d="m196.238281 196.105469-5.578125-3.222657v6.445313zm0 0"/><path d="m212.976562 192.882812-5.578124-3.21875v6.441407zm0 0"/><path d="m212.976562 180-5.578124-3.222656v6.445312zm0 0"/><path d="m212.976562 167.117188-5.578124-3.222657v6.441407zm0 0"/><path d="m207.398438 163.894531-5.582032-3.222656v6.445313zm0 0"/><path d="m201.816406 160.671875-5.578125-3.21875v6.441406zm0 0"/><path d="m196.238281 157.453125-5.578125-3.222656v6.441406zm0 0"/><path d="m190.660156 154.230469-5.578125-3.21875v6.441406zm0 0"/><path d="m185.082031 151.011719-5.582031-3.222657v6.441407zm0 0"/><path d="m173.921875 157.453125-5.578125-3.222656v6.441406zm0 0"/><path d="m168.34375 160.671875-5.578125-3.21875v6.441406zm0 0"/><path d="m162.765625 176.777344-5.582031-3.21875v6.441406zm0 0"/><path d="m162.765625 183.222656-5.582031-3.222656v6.441406zm0 0"/><path d="m168.34375 199.328125-5.578125-3.222656v6.441406zm0 0"/><path d="m173.921875 202.546875-5.578125-3.21875v6.441406zm0 0"/><path d="m185.082031 208.988281-5.582031-3.21875v6.441407zm0 0"/><path d="m190.660156 205.769531-5.578125-3.222656v6.441406zm0 0"/><path d="m196.238281 202.546875-5.578125-3.21875v6.441406zm0 0"/><path d="m201.816406 199.328125-5.578125-3.222656v6.441406zm0 0"/><path d="m207.398438 196.105469-5.582032-3.222657v6.445313zm0 0"/><path d="m218.554688 189.664062-5.578126-3.222656v6.441406zm0 0"/><path d="m218.554688 183.222656-5.578126-3.222656v6.441406zm0 0"/><path d="m218.554688 176.777344-5.578126-3.21875v6.441406zm0 0"/><path d="m218.554688 170.335938-5.578126-3.21875v6.441406zm0 0"/><path d="m212.976562 160.671875-5.578124-3.21875v6.441406zm0 0"/><path d="m207.398438 157.453125-5.582032-3.222656v6.441406zm0 0"/><path d="m201.816406 154.230469-5.578125-3.21875v6.441406zm0 0"/><path d="m196.238281 151.011719-5.578125-3.222657v6.441407zm0 0"/><path d="m190.660156 147.789062-5.578125-3.222656v6.445313zm0 0"/><path d="m185.082031 144.566406-5.582031-3.21875v6.441406zm0 0"/><path d="m179.5 147.789062-5.578125-3.222656v6.445313zm0 0"/><path d="m168.34375 154.230469-5.578125-3.21875v6.441406zm0 0"/><path d="m157.183594 160.671875-5.578125-3.21875v6.441406zm0 0"/><path d="m157.183594 167.117188-5.578125-3.222657v6.441407zm0 0"/><path d="m157.183594 173.558594-5.578125-3.222656v6.441406zm0 0"/><path d="m157.183594 180-5.578125-3.222656v6.445312zm0 0"/><path d="m157.183594 186.441406-5.578125-3.21875v6.441406zm0 0"/><path d="m157.183594 192.882812-5.578125-3.21875v6.441407zm0 0"/><path d="m157.183594 199.328125-5.578125-3.222656v6.441406zm0 0"/><path d="m168.34375 205.769531-5.578125-3.222656v6.441406zm0 0"/><path d="m179.5 212.210938-5.578125-3.222657v6.445313zm0 0"/><path d="m185.082031 215.433594-5.582031-3.222656v6.441406zm0 0"/><path d="m190.660156 212.210938-5.578125-3.222657v6.445313zm0 0"/><path d="m196.238281 208.988281-5.578125-3.21875v6.441407zm0 0"/><path d="m201.816406 205.769531-5.578125-3.222656v6.441406zm0 0"/><path d="m207.398438 202.546875-5.582032-3.21875v6.441406zm0 0"/><path d="m212.976562 199.328125-5.578124-3.222656v6.441406zm0 0"/><path d="m224.132812 192.882812-5.578124-3.21875v6.441407zm0 0"/><path d="m224.132812 167.117188-5.578124-3.222657v6.441407zm0 0"/><path d="m218.554688 157.453125-5.578126-3.222656v6.441406zm0 0"/><path d="m212.976562 154.230469-5.578124-3.21875v6.441406zm0 0"/><path d="m207.398438 151.011719-5.582032-3.222657v6.441407zm0 0"/><path d="m201.816406 147.789062-5.578125-3.222656v6.445313zm0 0"/><path d="m196.238281 144.566406-5.578125-3.21875v6.441406zm0 0"/><path d="m190.660156 141.347656-5.578125-3.222656v6.441406zm0 0"/><path d="m185.082031 138.125-5.582031-3.21875v6.441406zm0 0"/><path d="m173.921875 144.566406-5.578125-3.21875v6.441406zm0 0"/><path d="m168.34375 147.789062-5.578125-3.222656v6.445313zm0 0"/><path d="m162.765625 151.011719-5.582031-3.222657v6.441407zm0 0"/><path d="m157.183594 154.230469-5.578125-3.21875v6.441406zm0 0"/><path d="m151.605469 163.894531-5.578125-3.222656v6.445313zm0 0"/><path d="m151.605469 170.335938-5.578125-3.21875v6.441406zm0 0"/><path d="m151.605469 176.777344-5.578125-3.21875v6.441406zm0 0"/><path d="m151.605469 183.222656-5.578125-3.222656v6.441406zm0 0"/><path d="m151.605469 189.664062-5.578125-3.222656v6.441406zm0 0"/><path d="m151.605469 196.105469-5.578125-3.222657v6.445313zm0 0"/><path d="m157.183594 205.769531-5.578125-3.222656v6.441406zm0 0"/><path d="m162.765625 208.988281-5.582031-3.21875v6.441407zm0 0"/><path d="m168.34375 212.210938-5.578125-3.222657v6.445313zm0 0"/><path d="m173.921875 215.433594-5.578125-3.222656v6.441406zm0 0"/><path d="m185.082031 221.875-5.582031-3.222656v6.441406zm0 0"/><path d="m190.660156 218.652344-5.578125-3.21875v6.441406zm0 0"/><path d="m196.238281 215.433594-5.578125-3.222656v6.441406zm0 0"/><path d="m201.816406 212.210938-5.578125-3.222657v6.445313zm0 0"/><path d="m207.398438 208.988281-5.582032-3.21875v6.441407zm0 0"/><path d="m212.976562 205.769531-5.578124-3.222656v6.441406zm0 0"/><path d="m218.554688 202.546875-5.578126-3.21875v6.441406zm0 0"/><path d="m229.714844 202.546875-5.582032-3.21875v6.441406zm0 0"/><path d="m229.714844 157.453125-5.582032-3.222656v6.441406zm0 0"/><path d="m218.554688 151.011719-5.578126-3.222657v6.441407zm0 0"/><path d="m190.660156 134.90625-5.578125-3.222656v6.441406zm0 0"/><path d="m173.921875 138.125-5.578125-3.21875v6.441406zm0 0"/><path d="m151.605469 151.011719-5.578125-3.222657v6.441407zm0 0"/><path d="m146.027344 160.671875-5.578125-3.21875v6.441406zm0 0"/><path d="m146.027344 167.117188-5.578125-3.222657v6.441407zm0 0"/><path d="m146.027344 173.558594-5.578125-3.222656v6.441406zm0 0"/><path d="m146.027344 180-5.578125-3.222656v6.445312zm0 0"/><path d="m146.027344 186.441406-5.578125-3.21875v6.441406zm0 0"/><path d="m146.027344 192.882812-5.578125-3.21875v6.441407zm0 0"/><path d="m146.027344 199.328125-5.578125-3.222656v6.441406zm0 0"/><path d="m151.605469 208.988281-5.578125-3.21875v6.441407zm0 0"/><path d="m173.921875 221.875-5.578125-3.222656v6.441406zm0 0"/><path d="m190.660156 225.09375-5.578125-3.21875v6.441406zm0 0"/><path d="m218.554688 208.988281-5.578126-3.21875v6.441407zm0 0"/><path d="m235.292969 205.769531-5.578125-3.222656v6.441406zm0 0"/><path d="m235.292969 199.328125-5.578125-3.222656v6.441406zm0 0"/><path d="m235.292969 180-5.578125-3.222656v6.445312zm0 0"/><path d="m235.292969 160.671875-5.578125-3.21875v6.441406zm0 0"/><path d="m235.292969 154.230469-5.578125-3.21875v6.441406zm0 0"/><path d="m229.714844 151.011719-5.582032-3.222657v6.441407zm0 0"/><path d="m185.082031 125.242188-5.582031-3.222657v6.441407zm0 0"/><path d="m179.5 128.460938-5.578125-3.21875v6.441406zm0 0"/><path d="m140.449219 151.011719-5.582031-3.222657v6.441407zm0 0"/><path d="m140.449219 163.894531-5.582031-3.222656v6.445313zm0 0"/><path d="m140.449219 196.105469-5.582031-3.222657v6.445313zm0 0"/><path d="m140.449219 208.988281-5.582031-3.21875v6.441407zm0 0"/><path d="m179.5 231.539062-5.578125-3.222656v6.441406zm0 0"/><path d="m185.082031 234.757812-5.582031-3.21875v6.441407zm0 0"/><path d="m229.714844 208.988281-5.582032-3.21875v6.441407zm0 0"/><path d="m240.871094 208.988281-5.578125-3.21875v6.441407zm0 0"/><path d="m240.871094 151.011719-5.578125-3.222657v6.441407zm0 0"/><path d="m235.292969 147.789062-5.578125-3.222656v6.445313zm0 0"/><path d="m229.714844 144.566406-5.582032-3.21875v6.441406zm0 0"/><path d="m190.660156 122.019531-5.578125-3.21875v6.441407zm0 0"/><path d="m185.082031 118.800781-5.582031-3.222656v6.441406zm0 0"/><path d="m179.5 122.019531-5.578125-3.21875v6.441407zm0 0"/><path d="m173.921875 125.242188-5.578125-3.222657v6.441407zm0 0"/><path d="m157.183594 134.90625-5.578125-3.222656v6.441406zm0 0"/><path d="m140.449219 144.566406-5.582031-3.21875v6.441406zm0 0"/><path d="m134.867188 147.789062-5.578126-3.222656v6.445313zm0 0"/><path d="m134.867188 154.230469-5.578126-3.21875v6.441406zm0 0"/><path d="m134.867188 205.769531-5.578126-3.222656v6.441406zm0 0"/><path d="m134.867188 212.210938-5.578126-3.222657v6.445313zm0 0"/><path d="m140.449219 215.433594-5.582031-3.222656v6.441406zm0 0"/><path d="m157.183594 225.09375-5.578125-3.21875v6.441406zm0 0"/><path d="m173.921875 234.757812-5.578125-3.21875v6.441407zm0 0"/><path d="m179.5 237.980469-5.578125-3.222657v6.441407zm0 0"/><path d="m185.082031 241.199219-5.582031-3.21875v6.441406zm0 0"/><path d="m190.660156 237.980469-5.578125-3.222657v6.441407zm0 0"/><path d="m229.714844 215.433594-5.582032-3.222656v6.441406zm0 0"/><path d="m235.292969 212.210938-5.578125-3.222657v6.445313zm0 0"/><path d="m246.449219 212.210938-5.578125-3.222657v6.445313zm0 0"/><path d="m246.449219 192.882812-5.578125-3.21875v6.441407zm0 0"/><path d="m246.449219 186.441406-5.578125-3.21875v6.441406zm0 0"/><path d="m246.449219 180-5.578125-3.222656v6.445312zm0 0"/><path d="m246.449219 173.558594-5.578125-3.222656v6.441406zm0 0"/><path d="m246.449219 167.117188-5.578125-3.222657v6.441407zm0 0"/><path d="m246.449219 147.789062-5.578125-3.222656v6.445313zm0 0"/><path d="m224.132812 134.90625-5.578124-3.222656v6.441406zm0 0"/><path d="m201.816406 122.019531-5.578125-3.21875v6.441407zm0 0"/><path d="m179.5 115.578125-5.578125-3.222656v6.445312zm0 0"/><path d="m129.289062 144.566406-5.578124-3.21875v6.441406zm0 0"/><path d="m129.289062 151.011719-5.578124-3.222657v6.441407zm0 0"/><path d="m129.289062 157.453125-5.578124-3.222656v6.441406zm0 0"/><path d="m129.289062 202.546875-5.578124-3.21875v6.441406zm0 0"/><path d="m129.289062 208.988281-5.578124-3.21875v6.441407zm0 0"/><path d="m129.289062 215.433594-5.578124-3.222656v6.441406zm0 0"/><path d="m179.5 244.421875-5.578125-3.222656v6.445312zm0 0"/><path d="m201.816406 237.980469-5.578125-3.222657v6.441407zm0 0"/><path d="m224.132812 225.09375-5.578124-3.21875v6.441406zm0 0"/><path d="m252.03125 208.988281-5.582031-3.21875v6.441407zm0 0"/><path d="m252.03125 196.105469-5.582031-3.222657v6.445313zm0 0"/><path d="m252.03125 189.664062-5.582031-3.222656v6.441406zm0 0"/><path d="m252.03125 183.222656-5.582031-3.222656v6.441406zm0 0"/><path d="m252.03125 176.777344-5.582031-3.21875v6.441406zm0 0"/><path d="m252.03125 170.335938-5.582031-3.21875v6.441406zm0 0"/><path d="m252.03125 163.894531-5.582031-3.222656v6.445313zm0 0"/><path d="m252.03125 151.011719-5.582031-3.222657v6.441407zm0 0"/><path d="m229.714844 131.683594-5.582032-3.222656v6.445312zm0 0"/><path d="m224.132812 128.460938-5.578124-3.21875v6.441406zm0 0"/><path d="m218.554688 125.242188-5.578126-3.222657v6.441407zm0 0"/><path d="m212.976562 122.019531-5.578124-3.21875v6.441407zm0 0"/><path d="m207.398438 118.800781-5.582032-3.222656v6.441406zm0 0"/><path d="m201.816406 115.578125-5.578125-3.222656v6.445312zm0 0"/><path d="m179.5 109.136719-5.578125-3.222657v6.441407zm0 0"/><path d="m162.765625 118.800781-5.582031-3.222656v6.441406zm0 0"/><path d="m157.183594 122.019531-5.578125-3.21875v6.441407zm0 0"/><path d="m151.605469 125.242188-5.578125-3.222657v6.441407zm0 0"/><path d="m146.027344 128.460938-5.578125-3.21875v6.441406zm0 0"/><path d="m140.449219 131.683594-5.582031-3.222656v6.445312zm0 0"/><path d="m123.710938 141.347656-5.578126-3.222656v6.441406zm0 0"/><path d="m123.710938 167.117188-5.578126-3.222657v6.441407zm0 0"/><path d="m123.710938 192.882812-5.578126-3.21875v6.441407zm0 0"/><path d="m123.710938 218.652344-5.578126-3.21875v6.441406zm0 0"/><path d="m140.449219 228.316406-5.582031-3.222656v6.445312zm0 0"/><path d="m146.027344 231.539062-5.578125-3.222656v6.441406zm0 0"/><path d="m151.605469 234.757812-5.578125-3.21875v6.441407zm0 0"/><path d="m157.183594 237.980469-5.578125-3.222657v6.441407zm0 0"/><path d="m162.765625 241.199219-5.582031-3.21875v6.441406zm0 0"/><path d="m179.5 250.863281-5.578125-3.21875v6.441407zm0 0"/><path d="m201.816406 244.421875-5.578125-3.222656v6.445312zm0 0"/><path d="m207.398438 241.199219-5.582032-3.21875v6.441406zm0 0"/><path d="m212.976562 237.980469-5.578124-3.222657v6.441407zm0 0"/><path d="m218.554688 234.757812-5.578126-3.21875v6.441407zm0 0"/><path d="m224.132812 231.539062-5.578124-3.222656v6.441406zm0 0"/><path d="m229.714844 228.316406-5.582032-3.222656v6.445312zm0 0"/><path d="m257.609375 218.652344-5.578125-3.21875v6.441406zm0 0"/><path d="m257.609375 199.328125-5.578125-3.222656v6.441406zm0 0"/><path d="m257.609375 192.882812-5.578125-3.21875v6.441407zm0 0"/><path d="m257.609375 167.117188-5.578125-3.222657v6.441407zm0 0"/><path d="m257.609375 160.671875-5.578125-3.21875v6.441406zm0 0"/><path d="m257.609375 141.347656-5.578125-3.222656v6.441406zm0 0"/><path d="m246.449219 134.90625-5.578125-3.222656v6.441406zm0 0"/><path d="m240.871094 131.683594-5.578125-3.222656v6.445312zm0 0"/><path d="m235.292969 128.460938-5.578125-3.21875v6.441406zm0 0"/><path d="m201.816406 109.136719-5.578125-3.222657v6.441407zm0 0"/><path d="m196.238281 105.914062-5.578125-3.21875v6.441407zm0 0"/><path d="m190.660156 102.695312-5.578125-3.222656v6.441406zm0 0"/><path d="m173.921875 105.914062-5.578125-3.21875v6.441407zm0 0"/><path d="m162.765625 112.355469-5.582031-3.21875v6.441406zm0 0"/><path d="m157.183594 115.578125-5.578125-3.222656v6.445312zm0 0"/><path d="m151.605469 118.800781-5.578125-3.222656v6.441406zm0 0"/><path d="m146.027344 122.019531-5.578125-3.21875v6.441407zm0 0"/><path d="m140.449219 125.242188-5.582031-3.222657v6.441407zm0 0"/><path d="m134.867188 128.460938-5.578126-3.21875v6.441406zm0 0"/><path d="m123.710938 134.90625-5.578126-3.222656v6.441406zm0 0"/><path d="m118.132812 163.894531-5.578124-3.222656v6.445313zm0 0"/><path d="m118.132812 170.335938-5.578124-3.21875v6.441406zm0 0"/><path d="m118.132812 176.777344-5.578124-3.21875v6.441406zm0 0"/><path d="m118.132812 183.222656-5.578124-3.222656v6.441406zm0 0"/><path d="m118.132812 189.664062-5.578124-3.222656v6.441406zm0 0"/><path d="m118.132812 196.105469-5.578124-3.222657v6.445313zm0 0"/><path d="m123.710938 225.09375-5.578126-3.21875v6.441406zm0 0"/><path d="m134.867188 231.539062-5.578126-3.222656v6.441406zm0 0"/><path d="m140.449219 234.757812-5.582031-3.21875v6.441407zm0 0"/><path d="m146.027344 237.980469-5.578125-3.222657v6.441407zm0 0"/><path d="m151.605469 241.199219-5.578125-3.21875v6.441406zm0 0"/><path d="m157.183594 244.421875-5.578125-3.222656v6.445312zm0 0"/><path d="m162.765625 247.644531-5.582031-3.222656v6.441406zm0 0"/><path d="m173.921875 254.085938-5.578125-3.222657v6.441407zm0 0"/><path d="m190.660156 257.304688-5.578125-3.21875v6.441406zm0 0"/><path d="m196.238281 254.085938-5.578125-3.222657v6.441407zm0 0"/><path d="m201.816406 250.863281-5.578125-3.21875v6.441407zm0 0"/><path d="m235.292969 231.539062-5.578125-3.222656v6.441406zm0 0"/><path d="m240.871094 228.316406-5.578125-3.222656v6.445312zm0 0"/><path d="m246.449219 225.09375-5.578125-3.21875v6.441406zm0 0"/><path d="m263.1875 221.875-5.578125-3.222656v6.441406zm0 0"/><path d="m263.1875 215.433594-5.578125-3.222656v6.441406zm0 0"/><path d="m263.1875 208.988281-5.578125-3.21875v6.441407zm0 0"/><path d="m263.1875 189.664062-5.578125-3.222656v6.441406zm0 0"/><path d="m263.1875 170.335938-5.578125-3.21875v6.441406zm0 0"/><path d="m263.1875 151.011719-5.578125-3.222657v6.441407zm0 0"/><path d="m263.1875 144.566406-5.578125-3.21875v6.441406zm0 0"/><path d="m263.1875 138.125-5.578125-3.21875v6.441406zm0 0"/><path d="m257.609375 134.90625-5.578125-3.222656v6.441406zm0 0"/><path d="m252.03125 131.683594-5.582031-3.222656v6.445312zm0 0"/><path d="m240.871094 125.242188-5.578125-3.222657v6.441407zm0 0"/><path d="m235.292969 122.019531-5.578125-3.21875v6.441407zm0 0"/><path d="m229.714844 118.800781-5.582032-3.222656v6.441406zm0 0"/><path d="m224.132812 115.578125-5.578124-3.222656v6.445312zm0 0"/><path d="m218.554688 112.355469-5.578126-3.21875v6.441406zm0 0"/><path d="m212.976562 109.136719-5.578124-3.222657v6.441407zm0 0"/><path d="m207.398438 105.914062-5.582032-3.21875v6.441407zm0 0"/><path d="m201.816406 102.695312-5.578125-3.222656v6.441406zm0 0"/><path d="m190.660156 96.25-5.578125-3.21875v6.441406zm0 0"/><path d="m185.082031 93.03125-5.582031-3.222656v6.441406zm0 0"/><path d="m179.5 96.25-5.578125-3.21875v6.441406zm0 0"/><path d="m162.765625 105.914062-5.582031-3.21875v6.441407zm0 0"/><path d="m157.183594 109.136719-5.578125-3.222657v6.441407zm0 0"/><path d="m134.867188 122.019531-5.578126-3.21875v6.441407zm0 0"/><path d="m129.289062 125.242188-5.578124-3.222657v6.441407zm0 0"/><path d="m112.554688 134.90625-5.582032-3.222656v6.441406zm0 0"/><path d="m112.554688 147.789062-5.582032-3.222656v6.445313zm0 0"/><path d="m112.554688 154.230469-5.582032-3.21875v6.441406zm0 0"/><path d="m112.554688 160.671875-5.582032-3.21875v6.441406zm0 0"/><path d="m112.554688 199.328125-5.582032-3.222656v6.441406zm0 0"/><path d="m112.554688 205.769531-5.582032-3.222656v6.441406zm0 0"/><path d="m112.554688 212.210938-5.582032-3.222657v6.445313zm0 0"/><path d="m112.554688 225.09375-5.582032-3.21875v6.441406zm0 0"/><path d="m129.289062 234.757812-5.578124-3.21875v6.441407zm0 0"/><path d="m134.867188 237.980469-5.578126-3.222657v6.441407zm0 0"/><path d="m157.183594 250.863281-5.578125-3.21875v6.441407zm0 0"/><path d="m162.765625 254.085938-5.582031-3.222657v6.441407zm0 0"/><path d="m179.5 263.75-5.578125-3.222656v6.441406zm0 0"/><path d="m185.082031 266.96875-5.582031-3.21875v6.441406zm0 0"/><path d="m190.660156 263.75-5.578125-3.222656v6.441406zm0 0"/><path d="m201.816406 257.304688-5.578125-3.21875v6.441406zm0 0"/><path d="m207.398438 254.085938-5.582032-3.222657v6.441407zm0 0"/><path d="m212.976562 250.863281-5.578124-3.21875v6.441407zm0 0"/><path d="m218.554688 247.644531-5.578126-3.222656v6.441406zm0 0"/><path d="m224.132812 244.421875-5.578124-3.222656v6.445312zm0 0"/><path d="m229.714844 241.199219-5.582032-3.21875v6.441406zm0 0"/><path d="m235.292969 237.980469-5.578125-3.222657v6.441407zm0 0"/><path d="m240.871094 234.757812-5.578125-3.21875v6.441407zm0 0"/><path d="m252.03125 228.316406-5.582031-3.222656v6.445312zm0 0"/><path d="m257.609375 225.09375-5.578125-3.21875v6.441406zm0 0"/><path d="m268.765625 225.09375-5.578125-3.21875v6.441406zm0 0"/><path d="m268.765625 218.652344-5.578125-3.21875v6.441406zm0 0"/><path d="m268.765625 199.328125-5.578125-3.222656v6.441406zm0 0"/><path d="m268.765625 180-5.578125-3.222656v6.445312zm0 0"/><path d="m268.765625 160.671875-5.578125-3.21875v6.441406zm0 0"/><path d="m268.765625 141.347656-5.578125-3.222656v6.441406zm0 0"/><path d="m268.765625 134.90625-5.578125-3.222656v6.441406zm0 0"/><path d="m263.1875 131.683594-5.578125-3.222656v6.445312zm0 0"/><path d="m257.609375 128.460938-5.578125-3.21875v6.441406zm0 0"/><path d="m246.449219 122.019531-5.578125-3.21875v6.441407zm0 0"/><path d="m240.871094 118.800781-5.578125-3.222656v6.441406zm0 0"/><path d="m229.714844 112.355469-5.582032-3.21875v6.441406zm0 0"/><path d="m224.132812 109.136719-5.578124-3.222657v6.441407zm0 0"/><path d="m218.554688 105.914062-5.578126-3.21875v6.441407zm0 0"/><path d="m207.398438 99.472656-5.582032-3.222656v6.445312zm0 0"/><path d="m201.816406 96.25-5.578125-3.21875v6.441406zm0 0"/><path d="m190.660156 89.808594-5.578125-3.21875v6.441406zm0 0"/><path d="m185.082031 86.589844-5.582031-3.222656v6.441406zm0 0"/><path d="m179.5 89.808594-5.578125-3.21875v6.441406zm0 0"/><path d="m173.921875 93.03125-5.578125-3.222656v6.441406zm0 0"/><path d="m168.34375 96.25-5.578125-3.21875v6.441406zm0 0"/><path d="m151.605469 105.914062-5.578125-3.21875v6.441407zm0 0"/><path d="m134.867188 115.578125-5.578126-3.222656v6.445312zm0 0"/><path d="m118.132812 125.242188-5.578124-3.222657v6.441407zm0 0"/><path d="m112.554688 128.460938-5.582032-3.21875v6.441406zm0 0"/><path d="m106.972656 131.683594-5.578125-3.222656v6.445312zm0 0"/><path d="m106.972656 138.125-5.578125-3.21875v6.441406zm0 0"/><path d="m106.972656 144.566406-5.578125-3.21875v6.441406zm0 0"/><path d="m106.972656 157.453125-5.578125-3.222656v6.441406zm0 0"/><path d="m106.972656 163.894531-5.578125-3.222656v6.445313zm0 0"/><path d="m106.972656 170.335938-5.578125-3.21875v6.441406zm0 0"/><path d="m106.972656 176.777344-5.578125-3.21875v6.441406zm0 0"/><path d="m106.972656 183.222656-5.578125-3.222656v6.441406zm0 0"/><path d="m106.972656 189.664062-5.578125-3.222656v6.441406zm0 0"/><path d="m106.972656 196.105469-5.578125-3.222657v6.445313zm0 0"/><path d="m106.972656 202.546875-5.578125-3.21875v6.441406zm0 0"/><path d="m106.972656 215.433594-5.578125-3.222656v6.441406zm0 0"/><path d="m106.972656 221.875-5.578125-3.222656v6.441406zm0 0"/><path d="m106.972656 228.316406-5.578125-3.222656v6.445312zm0 0"/><path d="m112.554688 231.539062-5.582032-3.222656v6.441406zm0 0"/><path d="m118.132812 234.757812-5.578124-3.21875v6.441407zm0 0"/><path d="m134.867188 244.421875-5.578126-3.222656v6.445312zm0 0"/><path d="m151.605469 254.085938-5.578125-3.222657v6.441407zm0 0"/><path d="m168.34375 263.75-5.578125-3.222656v6.441406zm0 0"/><path d="m173.921875 266.96875-5.578125-3.21875v6.441406zm0 0"/><path d="m179.5 270.191406-5.578125-3.222656v6.441406zm0 0"/><path d="m185.082031 273.410156-5.582031-3.21875v6.441406zm0 0"/><path d="m190.660156 270.191406-5.578125-3.222656v6.441406zm0 0"/><path d="m201.816406 263.75-5.578125-3.222656v6.441406zm0 0"/><path d="m207.398438 260.527344-5.582032-3.222656v6.445312zm0 0"/><path d="m218.554688 254.085938-5.578126-3.222657v6.441407zm0 0"/><path d="m224.132812 250.863281-5.578124-3.21875v6.441407zm0 0"/><path d="m229.714844 247.644531-5.582032-3.222656v6.441406zm0 0"/><path d="m240.871094 241.199219-5.578125-3.21875v6.441406zm0 0"/><path d="m246.449219 237.980469-5.578125-3.222657v6.441407zm0 0"/><path d="m257.609375 231.539062-5.578125-3.222656v6.441406zm0 0"/><path d="m263.1875 228.316406-5.578125-3.222656v6.445312zm0 0"/><path d="m274.347656 221.875-5.582031-3.222656v6.441406zm0 0"/><path d="m274.347656 208.988281-5.582031-3.21875v6.441407zm0 0"/><path d="m274.347656 151.011719-5.582031-3.222657v6.441407zm0 0"/><path d="m274.347656 138.125-5.582031-3.21875v6.441406zm0 0"/><path d="m263.1875 125.242188-5.578125-3.222657v6.441407zm0 0"/><path d="m229.714844 105.914062-5.582032-3.21875v6.441407zm0 0"/><path d="m224.132812 102.695312-5.578124-3.222656v6.441406zm0 0"/><path d="m190.660156 83.367188-5.578125-3.21875v6.441406zm0 0"/><path d="m179.5 83.367188-5.578125-3.21875v6.441406zm0 0"/><path d="m173.921875 86.589844-5.578125-3.222656v6.441406zm0 0"/><path d="m157.183594 96.25-5.578125-3.21875v6.441406zm0 0"/><path d="m140.449219 105.914062-5.582031-3.21875v6.441407zm0 0"/><path d="m123.710938 115.578125-5.578126-3.222656v6.445312zm0 0"/><path d="m106.972656 125.242188-5.578125-3.222657v6.441407zm0 0"/><path d="m101.394531 128.460938-5.578125-3.21875v6.441406zm0 0"/><path d="m101.394531 134.90625-5.578125-3.222656v6.441406zm0 0"/><path d="m101.394531 141.347656-5.578125-3.222656v6.441406zm0 0"/><path d="m101.394531 154.230469-5.578125-3.21875v6.441406zm0 0"/><path d="m101.394531 160.671875-5.578125-3.21875v6.441406zm0 0"/><path d="m101.394531 173.558594-5.578125-3.222656v6.441406zm0 0"/><path d="m101.394531 180-5.578125-3.222656v6.445312zm0 0"/><path d="m101.394531 186.441406-5.578125-3.21875v6.441406zm0 0"/><path d="m101.394531 199.328125-5.578125-3.222656v6.441406zm0 0"/><path d="m101.394531 205.769531-5.578125-3.222656v6.441406zm0 0"/><path d="m101.394531 218.652344-5.578125-3.21875v6.441406zm0 0"/><path d="m101.394531 225.09375-5.578125-3.21875v6.441406zm0 0"/><path d="m101.394531 231.539062-5.578125-3.222656v6.441406zm0 0"/><path d="m106.972656 234.757812-5.578125-3.21875v6.441407zm0 0"/><path d="m123.710938 244.421875-5.578126-3.222656v6.445312zm0 0"/><path d="m140.449219 254.085938-5.582031-3.222657v6.441407zm0 0"/><path d="m157.183594 263.75-5.578125-3.222656v6.441406zm0 0"/><path d="m173.921875 273.410156-5.578125-3.21875v6.441406zm0 0"/><path d="m179.5 276.632812-5.578125-3.222656v6.441406zm0 0"/><path d="m190.660156 276.632812-5.578125-3.222656v6.441406zm0 0"/><path d="m224.132812 257.304688-5.578124-3.21875v6.441406zm0 0"/><path d="m229.714844 254.085938-5.582032-3.222657v6.441407zm0 0"/><path d="m263.1875 234.757812-5.578125-3.21875v6.441407zm0 0"/><path d="m279.925781 225.09375-5.578125-3.21875v6.441406zm0 0"/><path d="m279.925781 218.652344-5.578125-3.21875v6.441406zm0 0"/><path d="m279.925781 212.210938-5.578125-3.222657v6.445313zm0 0"/><path d="m279.925781 192.882812-5.578125-3.21875v6.441407zm0 0"/><path d="m279.925781 186.441406-5.578125-3.21875v6.441406zm0 0"/><path d="m279.925781 180-5.578125-3.222656v6.445312zm0 0"/><path d="m279.925781 173.558594-5.578125-3.222656v6.441406zm0 0"/><path d="m279.925781 167.117188-5.578125-3.222657v6.441407zm0 0"/><path d="m279.925781 147.789062-5.578125-3.222656v6.445313zm0 0"/><path d="m279.925781 141.347656-5.578125-3.222656v6.441406zm0 0"/><path d="m279.925781 134.90625-5.578125-3.222656v6.441406zm0 0"/><path d="m268.765625 122.019531-5.578125-3.21875v6.441407zm0 0"/><path d="m257.609375 115.578125-5.578125-3.222656v6.445312zm0 0"/><path d="m252.03125 112.355469-5.582031-3.21875v6.441406zm0 0"/><path d="m240.871094 105.914062-5.578125-3.21875v6.441407zm0 0"/><path d="m235.292969 102.695312-5.578125-3.222656v6.441406zm0 0"/><path d="m229.714844 99.472656-5.582032-3.222656v6.445312zm0 0"/><path d="m224.132812 96.25-5.578124-3.21875v6.441406zm0 0"/><path d="m218.554688 93.03125-5.578126-3.222656v6.441406zm0 0"/><path d="m207.398438 86.589844-5.582032-3.222656v6.441406zm0 0"/><path d="m201.816406 83.367188-5.578125-3.21875v6.441406zm0 0"/><path d="m190.660156 76.925781-5.578125-3.222656v6.445313zm0 0"/><path d="m173.921875 80.148438-5.578125-3.222657v6.441407zm0 0"/><path d="m162.765625 86.589844-5.582031-3.222656v6.441406zm0 0"/><path d="m112.554688 115.578125-5.582032-3.222656v6.445312zm0 0"/><path d="m101.394531 122.019531-5.578125-3.21875v6.441407zm0 0"/><path d="m95.816406 138.125-5.578125-3.21875v6.441406zm0 0"/><path d="m95.816406 176.777344-5.578125-3.21875v6.441406zm0 0"/><path d="m95.816406 183.222656-5.578125-3.222656v6.441406zm0 0"/><path d="m95.816406 221.875-5.578125-3.222656v6.441406zm0 0"/><path d="m101.394531 237.980469-5.578125-3.222657v6.441407zm0 0"/><path d="m112.554688 244.421875-5.582032-3.222656v6.445312zm0 0"/><path d="m162.765625 273.410156-5.582031-3.21875v6.441406zm0 0"/><path d="m173.921875 279.851562-5.578125-3.21875v6.441407zm0 0"/><path d="m190.660156 283.074219-5.578125-3.222657v6.445313zm0 0"/><path d="m201.816406 276.632812-5.578125-3.222656v6.441406zm0 0"/><path d="m207.398438 273.410156-5.582032-3.21875v6.441406zm0 0"/><path d="m218.554688 266.96875-5.578126-3.21875v6.441406zm0 0"/><path d="m224.132812 263.75-5.578124-3.222656v6.441406zm0 0"/><path d="m229.714844 260.527344-5.582032-3.222656v6.445312zm0 0"/><path d="m235.292969 257.304688-5.578125-3.21875v6.441406zm0 0"/><path d="m240.871094 254.085938-5.578125-3.222657v6.441407zm0 0"/><path d="m252.03125 247.644531-5.582031-3.222656v6.441406zm0 0"/><path d="m257.609375 244.421875-5.578125-3.222656v6.445312zm0 0"/><path d="m268.765625 237.980469-5.578125-3.222657v6.441407zm0 0"/><path d="m285.503906 208.988281-5.578125-3.21875v6.441407zm0 0"/><path d="m285.503906 202.546875-5.578125-3.21875v6.441406zm0 0"/><path d="m285.503906 196.105469-5.578125-3.222657v6.445313zm0 0"/><path d="m285.503906 183.222656-5.578125-3.222656v6.441406zm0 0"/><path d="m285.503906 176.777344-5.578125-3.21875v6.441406zm0 0"/><path d="m285.503906 163.894531-5.578125-3.222656v6.445313zm0 0"/><path d="m285.503906 157.453125-5.578125-3.222656v6.441406zm0 0"/><path d="m285.503906 151.011719-5.578125-3.222657v6.441407zm0 0"/><path d="m268.765625 115.578125-5.578125-3.222656v6.445312zm0 0"/><path d="m263.1875 112.355469-5.578125-3.21875v6.441406zm0 0"/><path d="m257.609375 109.136719-5.578125-3.222657v6.441407zm0 0"/><path d="m246.449219 102.695312-5.578125-3.222656v6.441406zm0 0"/><path d="m240.871094 99.472656-5.578125-3.222656v6.445312zm0 0"/><path d="m235.292969 96.25-5.578125-3.21875v6.441406zm0 0"/><path d="m229.714844 93.03125-5.582032-3.222656v6.441406zm0 0"/><path d="m224.132812 89.808594-5.578124-3.21875v6.441406zm0 0"/><path d="m218.554688 86.589844-5.578126-3.222656v6.441406zm0 0"/><path d="m207.398438 80.148438-5.582032-3.222657v6.441407zm0 0"/><path d="m201.816406 76.925781-5.578125-3.222656v6.445313zm0 0"/><path d="m196.238281 73.703125-5.578125-3.21875v6.441406zm0 0"/><path d="m173.921875 73.703125-5.578125-3.21875v6.441406zm0 0"/><path d="m168.34375 76.925781-5.578125-3.222656v6.445313zm0 0"/><path d="m162.765625 80.148438-5.582031-3.222657v6.441407zm0 0"/><path d="m146.027344 89.808594-5.578125-3.21875v6.441406zm0 0"/><path d="m140.449219 93.03125-5.582031-3.222656v6.441406zm0 0"/><path d="m134.867188 96.25-5.578126-3.21875v6.441406zm0 0"/><path d="m129.289062 99.472656-5.578124-3.222656v6.445312zm0 0"/><path d="m123.710938 102.695312-5.578126-3.222656v6.441406zm0 0"/><path d="m106.972656 112.355469-5.578125-3.21875v6.441406zm0 0"/><path d="m101.394531 115.578125-5.578125-3.222656v6.445312zm0 0"/><path d="m95.816406 118.800781-5.578125-3.222656v6.441406zm0 0"/><path d="m90.238281 134.90625-5.582031-3.222656v6.441406zm0 0"/><path d="m90.238281 147.789062-5.582031-3.222656v6.445313zm0 0"/><path d="m90.238281 154.230469-5.582031-3.21875v6.441406zm0 0"/><path d="m90.238281 167.117188-5.582031-3.222657v6.441407zm0 0"/><path d="m90.238281 173.558594-5.582031-3.222656v6.441406zm0 0"/><path d="m90.238281 180-5.582031-3.222656v6.445312zm0 0"/><path d="m90.238281 186.441406-5.582031-3.21875v6.441406zm0 0"/><path d="m90.238281 192.882812-5.582031-3.21875v6.441407zm0 0"/><path d="m90.238281 205.769531-5.582031-3.222656v6.441406zm0 0"/><path d="m90.238281 212.210938-5.582031-3.222657v6.445313zm0 0"/><path d="m90.238281 225.09375-5.582031-3.21875v6.441406zm0 0"/><path d="m95.816406 241.199219-5.578125-3.21875v6.441406zm0 0"/><path d="m101.394531 244.421875-5.578125-3.222656v6.445312zm0 0"/><path d="m106.972656 247.644531-5.578125-3.222656v6.441406zm0 0"/><path d="m123.710938 257.304688-5.578126-3.21875v6.441406zm0 0"/><path d="m129.289062 260.527344-5.578124-3.222656v6.445312zm0 0"/><path d="m134.867188 263.75-5.578126-3.222656v6.441406zm0 0"/><path d="m140.449219 266.96875-5.582031-3.21875v6.441406zm0 0"/><path d="m146.027344 270.191406-5.578125-3.222656v6.441406zm0 0"/><path d="m162.765625 279.851562-5.582031-3.21875v6.441407zm0 0"/><path d="m168.34375 283.074219-5.578125-3.222657v6.445313zm0 0"/><path d="m173.921875 286.296875-5.578125-3.222656v6.441406zm0 0"/><path d="m196.238281 286.296875-5.578125-3.222656v6.441406zm0 0"/><path d="m201.816406 283.074219-5.578125-3.222657v6.445313zm0 0"/><path d="m207.398438 279.851562-5.582032-3.21875v6.441407zm0 0"/><path d="m218.554688 273.410156-5.578126-3.21875v6.441406zm0 0"/><path d="m224.132812 270.191406-5.578124-3.222656v6.441406zm0 0"/><path d="m229.714844 266.96875-5.582032-3.21875v6.441406zm0 0"/><path d="m235.292969 263.75-5.578125-3.222656v6.441406zm0 0"/><path d="m240.871094 260.527344-5.578125-3.222656v6.445312zm0 0"/><path d="m246.449219 257.304688-5.578125-3.21875v6.441406zm0 0"/><path d="m257.609375 250.863281-5.578125-3.21875v6.441407zm0 0"/><path d="m263.1875 247.644531-5.578125-3.222656v6.441406zm0 0"/><path d="m268.765625 244.421875-5.578125-3.222656v6.445312zm0 0"/><path d="m291.082031 199.328125-5.578125-3.222656v6.441406zm0 0"/><path d="m291.082031 186.441406-5.578125-3.21875v6.441406zm0 0"/><path d="m291.082031 180-5.578125-3.222656v6.445312zm0 0"/><path d="m291.082031 173.558594-5.578125-3.222656v6.441406zm0 0"/><path d="m291.082031 160.671875-5.578125-3.21875v6.441406zm0 0"/><path d="m257.609375 102.695312-5.578125-3.222656v6.441406zm0 0"/><path d="m252.03125 99.472656-5.582031-3.222656v6.445312zm0 0"/><path d="m246.449219 96.25-5.578125-3.21875v6.441406zm0 0"/><path d="m235.292969 89.808594-5.578125-3.21875v6.441406zm0 0"/><path d="m224.132812 83.367188-5.578124-3.21875v6.441406zm0 0"/><path d="m218.554688 80.148438-5.578126-3.222657v6.441407zm0 0"/><path d="m212.976562 76.925781-5.578124-3.222656v6.445313zm0 0"/><path d="m157.183594 76.925781-5.578125-3.222656v6.445313zm0 0"/><path d="m151.605469 80.148438-5.578125-3.222657v6.441407zm0 0"/><path d="m146.027344 83.367188-5.578125-3.21875v6.441406zm0 0"/><path d="m134.867188 89.808594-5.578126-3.21875v6.441406zm0 0"/><path d="m129.289062 93.03125-5.578124-3.222656v6.441406zm0 0"/><path d="m118.132812 99.472656-5.578124-3.222656v6.445312zm0 0"/><path d="m112.554688 102.695312-5.582032-3.222656v6.441406zm0 0"/><path d="m106.972656 105.914062-5.578125-3.21875v6.441407zm0 0"/><path d="m84.65625 138.125-5.578125-3.21875v6.441406zm0 0"/><path d="m84.65625 144.566406-5.578125-3.21875v6.441406zm0 0"/><path d="m84.65625 151.011719-5.578125-3.222657v6.441407zm0 0"/><path d="m84.65625 163.894531-5.578125-3.222656v6.445313zm0 0"/><path d="m84.65625 170.335938-5.578125-3.21875v6.441406zm0 0"/><path d="m84.65625 176.777344-5.578125-3.21875v6.441406zm0 0"/><path d="m84.65625 183.222656-5.578125-3.222656v6.441406zm0 0"/><path d="m84.65625 189.664062-5.578125-3.222656v6.441406zm0 0"/><path d="m84.65625 196.105469-5.578125-3.222657v6.445313zm0 0"/><path d="m84.65625 208.988281-5.578125-3.21875v6.441407zm0 0"/><path d="m84.65625 215.433594-5.578125-3.222656v6.441406zm0 0"/><path d="m84.65625 221.875-5.578125-3.222656v6.441406zm0 0"/><path d="m106.972656 254.085938-5.578125-3.222657v6.441407zm0 0"/><path d="m112.554688 257.304688-5.582032-3.21875v6.441406zm0 0"/><path d="m118.132812 260.527344-5.578124-3.222656v6.445312zm0 0"/><path d="m129.289062 266.96875-5.578124-3.21875v6.441406zm0 0"/><path d="m134.867188 270.191406-5.578126-3.222656v6.441406zm0 0"/><path d="m146.027344 276.632812-5.578125-3.222656v6.441406zm0 0"/><path d="m151.605469 279.851562-5.578125-3.21875v6.441407zm0 0"/><path d="m157.183594 283.074219-5.578125-3.222657v6.445313zm0 0"/><path d="m212.976562 283.074219-5.578124-3.222657v6.445313zm0 0"/><path d="m218.554688 279.851562-5.578126-3.21875v6.441407zm0 0"/><path d="m224.132812 276.632812-5.578124-3.222656v6.441406zm0 0"/><path d="m235.292969 270.191406-5.578125-3.222656v6.441406zm0 0"/><path d="m246.449219 263.75-5.578125-3.222656v6.441406zm0 0"/><path d="m252.03125 260.527344-5.582031-3.222656v6.445312zm0 0"/><path d="m257.609375 257.304688-5.578125-3.21875v6.441406zm0 0"/><path d="m296.664062 189.664062-5.582031-3.222656v6.441406zm0 0"/><path d="m296.664062 183.222656-5.582031-3.222656v6.441406zm0 0"/><path d="m296.664062 176.777344-5.582031-3.21875v6.441406zm0 0"/><path d="m296.664062 170.335938-5.582031-3.21875v6.441406zm0 0"/><path d="m252.03125 93.03125-5.582031-3.222656v6.441406zm0 0"/><path d="m246.449219 89.808594-5.578125-3.21875v6.441406zm0 0"/><path d="m240.871094 86.589844-5.578125-3.222656v6.441406zm0 0"/><path d="m235.292969 83.367188-5.578125-3.21875v6.441406zm0 0"/><path d="m229.714844 80.148438-5.582032-3.222657v6.441407zm0 0"/><path d="m224.132812 76.925781-5.578124-3.222656v6.445313zm0 0"/><path d="m146.027344 76.925781-5.578125-3.222656v6.445313zm0 0"/><path d="m134.867188 83.367188-5.578126-3.21875v6.441406zm0 0"/><path d="m129.289062 86.589844-5.578124-3.222656v6.441406zm0 0"/><path d="m123.710938 89.808594-5.578126-3.21875v6.441406zm0 0"/><path d="m112.554688 96.25-5.582032-3.21875v6.441406zm0 0"/><path d="m79.078125 154.230469-5.578125-3.21875v6.441406zm0 0"/><path d="m79.078125 160.671875-5.578125-3.21875v6.441406zm0 0"/><path d="m79.078125 167.117188-5.578125-3.222657v6.441407zm0 0"/><path d="m79.078125 180-5.578125-3.222656v6.445312zm0 0"/><path d="m79.078125 192.882812-5.578125-3.21875v6.441407zm0 0"/><path d="m79.078125 199.328125-5.578125-3.222656v6.441406zm0 0"/><path d="m79.078125 205.769531-5.578125-3.222656v6.441406zm0 0"/><path d="m112.554688 263.75-5.582032-3.222656v6.441406zm0 0"/><path d="m123.710938 270.191406-5.578126-3.222656v6.441406zm0 0"/><path d="m129.289062 273.410156-5.578124-3.21875v6.441406zm0 0"/><path d="m134.867188 276.632812-5.578126-3.222656v6.441406zm0 0"/><path d="m146.027344 283.074219-5.578125-3.222657v6.445313zm0 0"/><path d="m224.132812 283.074219-5.578124-3.222657v6.445313zm0 0"/><path d="m229.714844 279.851562-5.582032-3.21875v6.441407zm0 0"/><path d="m235.292969 276.632812-5.578125-3.222656v6.441406zm0 0"/><path d="m240.871094 273.410156-5.578125-3.21875v6.441406zm0 0"/><path d="m246.449219 270.191406-5.578125-3.222656v6.441406zm0 0"/><path d="m252.03125 266.96875-5.582031-3.21875v6.441406zm0 0"/><path d="m302.242188 180-5.578126-3.222656v6.445312zm0 0"/><path d="m246.449219 83.367188-5.578125-3.21875v6.441406zm0 0"/><path d="m235.292969 76.925781-5.578125-3.222656v6.445313zm0 0"/><path d="m134.867188 76.925781-5.578126-3.222656v6.445313zm0 0"/><path d="m129.289062 80.148438-5.578124-3.222657v6.441407zm0 0"/><path d="m123.710938 83.367188-5.578126-3.21875v6.441406zm0 0"/><path d="m118.132812 86.589844-5.578124-3.222656v6.441406zm0 0"/><path d="m73.5 163.894531-5.578125-3.222656v6.445313zm0 0"/><path d="m73.5 170.335938-5.578125-3.21875v6.441406zm0 0"/><path d="m73.5 176.777344-5.578125-3.21875v6.441406zm0 0"/><path d="m73.5 183.222656-5.578125-3.222656v6.441406zm0 0"/><path d="m73.5 189.664062-5.578125-3.222656v6.441406zm0 0"/><path d="m73.5 196.105469-5.578125-3.222657v6.445313zm0 0"/><path d="m118.132812 273.410156-5.578124-3.21875v6.441406zm0 0"/><path d="m123.710938 276.632812-5.578126-3.222656v6.441406zm0 0"/><path d="m129.289062 279.851562-5.578124-3.21875v6.441407zm0 0"/><path d="m134.867188 283.074219-5.578126-3.222657v6.445313zm0 0"/><path d="m235.292969 283.074219-5.578125-3.222657v6.445313zm0 0"/><path d="m246.449219 276.632812-5.578125-3.222656v6.441406zm0 0"/><path d="m246.449219 76.925781-5.578125-3.222656v6.445313zm0 0"/><path d="m240.871094 73.703125-5.578125-3.21875v6.441406zm0 0"/><path d="m123.710938 76.925781-5.578126-3.222656v6.445313zm0 0"/><path d="m67.921875 173.558594-5.582031-3.222656v6.441406zm0 0"/><path d="m67.921875 186.441406-5.582031-3.21875v6.441406zm0 0"/><path d="m123.710938 283.074219-5.578126-3.222657v6.445313zm0 0"/><path d="m240.871094 286.296875-5.578125-3.222656v6.441406zm0 0"/><path d="m246.449219 283.074219-5.578125-3.222657v6.445313zm0 0"/><path d="m62.339844 176.777344-5.578125-3.21875v6.441406zm0 0"/><path d="m62.339844 183.222656-5.578125-3.222656v6.441406zm0 0"/></g></svg>