<svg height="360pt" viewBox="0 0 360 360" width="360pt" xmlns="http://www.w3.org/2000/svg"><path d="m0 0h360v360h-360z" fill="#fff"/><g fill="#800080" fill-rule="evenodd"><path d="m179.378906 180 6.949219-4.011719v8.023438zm0 0"/><path d="m186.328125 184.011719 6.949219-4.011719v8.023438zm0 0"/><path d="m186.328125 175.988281 6.949219-4.011719v8.023438zm0 0"/><path d="m172.429688 175.988281 6.949218-4.011719v8.023438zm0 0"/><path d="m172.429688 184.011719 6.949218-4.011719v8.023438zm0 0"/><path d="m193.277344 188.023438 6.945312-4.011719v8.023437zm0 0"/><path d="m193.277344 171.976562 6.945312-4.011718v8.023437zm0 0"/><path d="m172.429688 167.964844 6.949218-4.011719v8.023437zm0 0"/><path d="m165.484375 171.976562 6.945313-4.011718v8.023437zm0 0"/><path d="m165.484375 188.023438 6.945313-4.011719v8.023437zm0 0"/><path d="m172.429688 192.035156 6.949218-4.011718v8.023437zm0 0"/><path d="m200.222656 184.011719 6.949219-4.011719v8.023438zm0 0"/><path d="m200.222656 175.988281 6.949219-4.011719v8.023438zm0 0"/><path d="m172.429688 159.941406 6.949218-4.011718v8.023437zm0 0"/><path d="m158.535156 167.964844 6.949219-4.011719v8.023437zm0 0"/><path d="m158.535156 192.035156 6.949219-4.011718v8.023437zm0 0"/><path d="m172.429688 200.058594 6.949218-4.011719v8.023437zm0 0"/><path d="m207.171875 196.046875 6.949219-4.011719v8.023438zm0 0"/><path d="m207.171875 188.023438 6.949219-4.011719v8.023437zm0 0"/><path d="m207.171875 171.976562 6.949219-4.011718v8.023437zm0 0"/><path d="m207.171875 163.953125 6.949219-4.011719v8.023438zm0 0"/><path d="m165.484375 155.929688 6.945313-4.007813v8.019531zm0 0"/><path d="m158.535156 159.941406 6.949219-4.011718v8.023437zm0 0"/><path d="m158.535156 200.058594 6.949219-4.011719v8.023437zm0 0"/><path d="m165.484375 204.070312 6.945313-4.011718v8.019531zm0 0"/><path d="m214.121094 192.035156 6.945312-4.011718v8.023437zm0 0"/><path d="m214.121094 167.964844 6.945312-4.011719v8.023437zm0 0"/><path d="m172.429688 143.898438 6.949218-4.011719v8.023437zm0 0"/><path d="m165.484375 147.910156 6.945313-4.011718v8.023437zm0 0"/><path d="m151.585938 155.929688 6.949218-4.007813v8.019531zm0 0"/><path d="m144.640625 159.941406 6.945313-4.011718v8.023437zm0 0"/><path d="m144.640625 200.058594 6.945313-4.011719v8.023437zm0 0"/><path d="m151.585938 204.070312 6.949218-4.011718v8.019531zm0 0"/><path d="m165.484375 212.089844 6.945313-4.011719v8.023437zm0 0"/><path d="m172.429688 216.101562 6.949218-4.011718v8.023437zm0 0"/><path d="m221.066406 204.070312 6.949219-4.011718v8.019531zm0 0"/><path d="m221.066406 196.046875 6.949219-4.011719v8.023438zm0 0"/><path d="m221.066406 163.953125 6.949219-4.011719v8.023438zm0 0"/><path d="m221.066406 155.929688 6.949219-4.007813v8.019531zm0 0"/><path d="m165.484375 139.886719 6.945313-4.011719v8.023438zm0 0"/><path d="m144.640625 151.921875 6.945313-4.011719v8.019532zm0 0"/><path d="m144.640625 208.078125 6.945313-4.007813v8.019532zm0 0"/><path d="m165.484375 220.113281 6.945313-4.011719v8.023438zm0 0"/><path d="m228.015625 200.058594 6.949219-4.011719v8.023437zm0 0"/><path d="m228.015625 159.941406 6.949219-4.011718v8.023437zm0 0"/><path d="m172.429688 127.851562 6.949218-4.011718v8.023437zm0 0"/><path d="m165.484375 131.863281 6.945313-4.011719v8.023438zm0 0"/><path d="m137.691406 147.910156 6.949219-4.011718v8.023437zm0 0"/><path d="m130.742188 151.921875 6.949218-4.011719v8.019532zm0 0"/><path d="m130.742188 208.078125 6.949218-4.007813v8.019532zm0 0"/><path d="m137.691406 212.089844 6.949219-4.011719v8.023437zm0 0"/><path d="m165.484375 228.136719 6.945313-4.011719v8.023438zm0 0"/><path d="m172.429688 232.148438 6.949218-4.011719v8.023437zm0 0"/><path d="m234.964844 212.089844 6.945312-4.011719v8.023437zm0 0"/><path d="m234.964844 204.070312 6.945312-4.011718v8.019531zm0 0"/><path d="m234.964844 155.929688 6.945312-4.007813v8.019531zm0 0"/><path d="m234.964844 147.910156 6.945312-4.011718v8.023437zm0 0"/><path d="m165.484375 123.839844 6.945313-4.011719v8.023437zm0 0"/><path d="m130.742188 143.898438 6.949218-4.011719v8.023437zm0 0"/><path d="m130.742188 216.101562 6.949218-4.011718v8.023437zm0 0"/><path d="m165.484375 236.160156 6.945313-4.011718v8.023437zm0 0"/><path d="m241.910156 208.078125 6.949219-4.007813v8.019532zm0 0"/><path d="m241.910156 151.921875 6.949219-4.011719v8.019532zm0 0"/><path d="m172.429688 111.804688 6.949218-4.011719v8.023437zm0 0"/><path d="m165.484375 115.816406 6.945313-4.011718v8.023437zm0 0"/><path d="m123.796875 139.886719 6.945313-4.011719v8.023438zm0 0"/><path d="m116.847656 143.898438 6.949219-4.011719v8.023437zm0 0"/><path d="m116.847656 216.101562 6.949219-4.011718v8.023437zm0 0"/><path d="m123.796875 220.113281 6.945313-4.011719v8.023438zm0 0"/><path d="m165.484375 244.183594 6.945313-4.011719v8.023437zm0 0"/><path d="m172.429688 248.195312 6.949218-4.011718v8.023437zm0 0"/><path d="m248.859375 220.113281 6.949219-4.011719v8.023438zm0 0"/><path d="m248.859375 212.089844 6.949219-4.011719v8.023437zm0 0"/><path d="m248.859375 147.910156 6.949219-4.011718v8.023437zm0 0"/><path d="m248.859375 139.886719 6.949219-4.011719v8.023438zm0 0"/><path d="m165.484375 107.792969 6.945313-4.011719v8.023438zm0 0"/><path d="m116.847656 135.875 6.949219-4.011719v8.023438zm0 0"/><path d="m116.847656 224.125 6.949219-4.011719v8.023438zm0 0"/><path d="m165.484375 252.207031 6.945313-4.011719v8.023438zm0 0"/><path d="m255.808594 216.101562 6.945312-4.011718v8.023437zm0 0"/><path d="m255.808594 143.898438 6.945312-4.011719v8.023437zm0 0"/><path d="m172.429688 95.761719 6.949218-4.011719v8.023438zm0 0"/><path d="m165.484375 99.773438 6.945313-4.011719v8.019531zm0 0"/><path d="m109.898438 131.863281 6.949218-4.011719v8.023438zm0 0"/><path d="m102.953125 135.875 6.945313-4.011719v8.023438zm0 0"/><path d="m102.953125 224.125 6.945313-4.011719v8.023438zm0 0"/><path d="m109.898438 228.136719 6.949218-4.011719v8.023438zm0 0"/><path d="m165.484375 260.226562 6.945313-4.007812v8.019531zm0 0"/><path d="m172.429688 264.238281 6.949218-4.011719v8.023438zm0 0"/><path d="m262.753906 228.136719 6.949219-4.011719v8.023438zm0 0"/><path d="m262.753906 220.113281 6.949219-4.011719v8.023438zm0 0"/><path d="m262.753906 139.886719 6.949219-4.011719v8.023438zm0 0"/><path d="m262.753906 131.863281 6.949219-4.011719v8.023438zm0 0"/><path d="m165.484375 91.75 6.945313-4.011719v8.023438zm0 0"/><path d="m102.953125 127.851562 6.945313-4.011718v8.023437zm0 0"/><path d="m102.953125 232.148438 6.945313-4.011719v8.023437zm0 0"/><path d="m165.484375 268.25 6.945313-4.011719v8.023438zm0 0"/><path d="m269.703125 224.125 6.949219-4.011719v8.023438zm0 0"/><path d="m269.703125 135.875 6.949219-4.011719v8.023438zm0 0"/><path d="m172.429688 79.714844 6.949218-4.011719v8.023437zm0 0"/><path d="m165.484375 83.726562 6.945313-4.011718v8.023437zm0 0"/><path d="m96.003906 123.839844 6.949219-4.011719v8.023437zm0 0"/><path d="m89.054688 127.851562 6.949218-4.011718v8.023437zm0 0"/><path d="m89.054688 232.148438 6.949218-4.011719v8.023437zm0 0"/><path d="m96.003906 236.160156 6.949219-4.011718v8.023437zm0 0"/><path d="m165.484375 276.273438 6.945313-4.011719v8.023437zm0 0"/><path d="m172.429688 280.285156 6.949218-4.011718v8.023437zm0 0"/><path d="m276.652344 228.136719 6.945312-4.011719v8.023438zm0 0"/><path d="m276.652344 131.863281 6.945312-4.011719v8.023438zm0 0"/><path d="m165.484375 75.703125 6.945313-4.011719v8.023438zm0 0"/><path d="m89.054688 119.828125 6.949218-4.011719v8.023438zm0 0"/><path d="m89.054688 240.171875 6.949218-4.011719v8.023438zm0 0"/><path d="m165.484375 284.296875 6.945313-4.011719v8.023438zm0 0"/><path d="m283.597656 240.171875 6.949219-4.011719v8.023438zm0 0"/><path d="m283.597656 232.148438 6.949219-4.011719v8.023437zm0 0"/><path d="m283.597656 127.851562 6.949219-4.011718v8.023437zm0 0"/><path d="m283.597656 119.828125 6.949219-4.011719v8.023438zm0 0"/><path d="m165.484375 67.679688 6.945313-4.011719v8.023437zm0 0"/><path d="m82.109375 115.816406 6.945313-4.011718v8.023437zm0 0"/><path d="m82.109375 244.183594 6.945313-4.011719v8.023437zm0 0"/><path d="m165.484375 292.320312 6.945313-4.011718v8.023437zm0 0"/><path d="m290.546875 244.183594 6.949219-4.011719v8.023437zm0 0"/><path d="m290.546875 115.816406 6.949219-4.011718v8.023437zm0 0"/><path d="m172.429688 55.644531 6.949218-4.011719v8.023438zm0 0"/><path d="m165.484375 59.65625 6.945313-4.011719v8.023438zm0 0"/><path d="m75.160156 111.804688 6.949219-4.011719v8.023437zm0 0"/><path d="m68.210938 115.816406 6.949218-4.011718v8.023437zm0 0"/><path d="m68.210938 244.183594 6.949218-4.011719v8.023437zm0 0"/><path d="m75.160156 248.195312 6.949219-4.011718v8.023437zm0 0"/><path d="m165.484375 300.34375 6.945313-4.011719v8.023438zm0 0"/><path d="m172.429688 304.355469 6.949218-4.011719v8.023438zm0 0"/><path d="m172.429688 47.621094 6.949218-4.007813v8.019531zm0 0"/><path d="m61.261719 111.804688 6.949219-4.011719v8.023437zm0 0"/><path d="m61.261719 248.195312 6.949219-4.011718v8.023437zm0 0"/><path d="m172.429688 312.378906 6.949218-4.011718v8.019531zm0 0"/><path d="m186.328125 175.988281-6.949219-4.011719v8.023438zm0 0"/><path d="m186.328125 184.011719-6.949219-4.011719v8.023438zm0 0"/><path d="m193.277344 171.976562-6.949219-4.011718v8.023437zm0 0"/><path d="m186.328125 167.964844-6.949219-4.011719v8.023437zm0 0"/><path d="m179.378906 180-6.949218-4.011719v8.023438zm0 0"/><path d="m186.328125 192.035156-6.949219-4.011718v8.023437zm0 0"/><path d="m193.277344 188.023438-6.949219-4.011719v8.023437zm0 0"/><path d="m200.222656 167.964844-6.945312-4.011719v8.023437zm0 0"/><path d="m186.328125 159.941406-6.949219-4.011718v8.023437zm0 0"/><path d="m172.429688 175.988281-6.945313-4.011719v8.023438zm0 0"/><path d="m172.429688 184.011719-6.945313-4.011719v8.023438zm0 0"/><path d="m186.328125 200.058594-6.949219-4.011719v8.023437zm0 0"/><path d="m200.222656 192.035156-6.945312-4.011718v8.023437zm0 0"/><path d="m200.222656 159.941406-6.945312-4.011718v8.023437zm0 0"/><path d="m193.277344 155.929688-6.949219-4.007813v8.019531zm0 0"/><path d="m165.484375 171.976562-6.949219-4.011718v8.023437zm0 0"/><path d="m165.484375 188.023438-6.949219-4.011719v8.023437zm0 0"/><path d="m193.277344 204.070312-6.949219-4.011718v8.019531zm0 0"/><path d="m200.222656 200.058594-6.945312-4.011719v8.023437zm0 0"/><path d="m214.121094 159.941406-6.949219-4.011718v8.023437zm0 0"/><path d="m207.171875 155.929688-6.949219-4.007813v8.019531zm0 0"/><path d="m193.277344 147.910156-6.949219-4.011718v8.023437zm0 0"/><path d="m186.328125 143.898438-6.949219-4.011719v8.023437zm0 0"/><path d="m158.535156 175.988281-6.949218-4.011719v8.023438zm0 0"/><path d="m158.535156 184.011719-6.949218-4.011719v8.023438zm0 0"/><path d="m186.328125 216.101562-6.949219-4.011718v8.023437zm0 0"/><path d="m193.277344 212.089844-6.949219-4.011719v8.023437zm0 0"/><path d="m207.171875 204.070312-6.949219-4.011718v8.019531zm0 0"/><path d="m214.121094 200.058594-6.949219-4.011719v8.023437zm0 0"/><path d="m214.121094 151.921875-6.949219-4.011719v8.019532zm0 0"/><path d="m193.277344 139.886719-6.949219-4.011719v8.023438zm0 0"/><path d="m151.585938 163.953125-6.945313-4.011719v8.023438zm0 0"/><path d="m151.585938 171.976562-6.945313-4.011718v8.023437zm0 0"/><path d="m151.585938 188.023438-6.945313-4.011719v8.023437zm0 0"/><path d="m151.585938 196.046875-6.945313-4.011719v8.023438zm0 0"/><path d="m193.277344 220.113281-6.949219-4.011719v8.023438zm0 0"/><path d="m214.121094 208.078125-6.949219-4.007813v8.019532zm0 0"/><path d="m228.015625 151.921875-6.949219-4.011719v8.019532zm0 0"/><path d="m221.066406 147.910156-6.945312-4.011718v8.023437zm0 0"/><path d="m193.277344 131.863281-6.949219-4.011719v8.023438zm0 0"/><path d="m186.328125 127.851562-6.949219-4.011718v8.023437zm0 0"/><path d="m144.640625 167.964844-6.949219-4.011719v8.023437zm0 0"/><path d="m144.640625 192.035156-6.949219-4.011718v8.023437zm0 0"/><path d="m186.328125 232.148438-6.949219-4.011719v8.023437zm0 0"/><path d="m193.277344 228.136719-6.949219-4.011719v8.023438zm0 0"/><path d="m221.066406 212.089844-6.945312-4.011719v8.023437zm0 0"/><path d="m228.015625 208.078125-6.949219-4.007813v8.019532zm0 0"/><path d="m228.015625 143.898438-6.949219-4.011719v8.023437zm0 0"/><path d="m193.277344 123.839844-6.949219-4.011719v8.023437zm0 0"/><path d="m137.691406 155.929688-6.949218-4.007813v8.019531zm0 0"/><path d="m137.691406 163.953125-6.949218-4.011719v8.023438zm0 0"/><path d="m137.691406 196.046875-6.949218-4.011719v8.023438zm0 0"/><path d="m137.691406 204.070312-6.949218-4.011718v8.019531zm0 0"/><path d="m193.277344 236.160156-6.949219-4.011718v8.023437zm0 0"/><path d="m228.015625 216.101562-6.949219-4.011718v8.023437zm0 0"/><path d="m241.910156 143.898438-6.945312-4.011719v8.023437zm0 0"/><path d="m234.964844 139.886719-6.949219-4.011719v8.023438zm0 0"/><path d="m193.277344 115.816406-6.949219-4.011718v8.023437zm0 0"/><path d="m186.328125 111.804688-6.949219-4.011719v8.023437zm0 0"/><path d="m130.742188 159.941406-6.945313-4.011718v8.023437zm0 0"/><path d="m130.742188 200.058594-6.945313-4.011719v8.023437zm0 0"/><path d="m186.328125 248.195312-6.949219-4.011718v8.023437zm0 0"/><path d="m193.277344 244.183594-6.949219-4.011719v8.023437zm0 0"/><path d="m234.964844 220.113281-6.949219-4.011719v8.023438zm0 0"/><path d="m241.910156 216.101562-6.945312-4.011718v8.023437zm0 0"/><path d="m241.910156 135.875-6.945312-4.011719v8.023438zm0 0"/><path d="m193.277344 107.792969-6.949219-4.011719v8.023438zm0 0"/><path d="m123.796875 147.910156-6.949219-4.011718v8.023437zm0 0"/><path d="m123.796875 155.929688-6.949219-4.007813v8.019531zm0 0"/><path d="m123.796875 204.070312-6.949219-4.011718v8.019531zm0 0"/><path d="m123.796875 212.089844-6.949219-4.011719v8.023437zm0 0"/><path d="m193.277344 252.207031-6.949219-4.011719v8.023438zm0 0"/><path d="m241.910156 224.125-6.945312-4.011719v8.023438zm0 0"/><path d="m255.808594 135.875-6.949219-4.011719v8.023438zm0 0"/><path d="m248.859375 131.863281-6.949219-4.011719v8.023438zm0 0"/><path d="m193.277344 99.773438-6.949219-4.011719v8.019531zm0 0"/><path d="m186.328125 95.761719-6.949219-4.011719v8.023438zm0 0"/><path d="m116.847656 151.921875-6.949218-4.011719v8.019532zm0 0"/><path d="m116.847656 208.078125-6.949218-4.007813v8.019532zm0 0"/><path d="m186.328125 264.238281-6.949219-4.011719v8.023438zm0 0"/><path d="m193.277344 260.226562-6.949219-4.007812v8.019531zm0 0"/><path d="m248.859375 228.136719-6.949219-4.011719v8.023438zm0 0"/><path d="m255.808594 224.125-6.949219-4.011719v8.023438zm0 0"/><path d="m255.808594 127.851562-6.949219-4.011718v8.023437zm0 0"/><path d="m193.277344 91.75-6.949219-4.011719v8.023438zm0 0"/><path d="m109.898438 139.886719-6.945313-4.011719v8.023438zm0 0"/><path d="m109.898438 147.910156-6.945313-4.011718v8.023437zm0 0"/><path d="m109.898438 212.089844-6.945313-4.011719v8.023437zm0 0"/><path d="m109.898438 220.113281-6.945313-4.011719v8.023438zm0 0"/><path d="m193.277344 268.25-6.949219-4.011719v8.023438zm0 0"/><path d="m255.808594 232.148438-6.949219-4.011719v8.023437zm0 0"/><path d="m269.703125 127.851562-6.949219-4.011718v8.023437zm0 0"/><path d="m262.753906 123.839844-6.945312-4.011719v8.023437zm0 0"/><path d="m193.277344 83.726562-6.949219-4.011718v8.023437zm0 0"/><path d="m186.328125 79.714844-6.949219-4.011719v8.023437zm0 0"/><path d="m102.953125 143.898438-6.949219-4.011719v8.023437zm0 0"/><path d="m102.953125 216.101562-6.949219-4.011718v8.023437zm0 0"/><path d="m186.328125 280.285156-6.949219-4.011718v8.023437zm0 0"/><path d="m193.277344 276.273438-6.949219-4.011719v8.023437zm0 0"/><path d="m262.753906 236.160156-6.945312-4.011718v8.023437zm0 0"/><path d="m269.703125 232.148438-6.949219-4.011719v8.023437zm0 0"/><path d="m269.703125 119.828125-6.949219-4.011719v8.023438zm0 0"/><path d="m193.277344 75.703125-6.949219-4.011719v8.023438zm0 0"/><path d="m96.003906 131.863281-6.949218-4.011719v8.023438zm0 0"/><path d="m96.003906 139.886719-6.949218-4.011719v8.023438zm0 0"/><path d="m96.003906 220.113281-6.949218-4.011719v8.023438zm0 0"/><path d="m96.003906 228.136719-6.949218-4.011719v8.023438zm0 0"/><path d="m193.277344 284.296875-6.949219-4.011719v8.023438zm0 0"/><path d="m269.703125 240.171875-6.949219-4.011719v8.023438zm0 0"/><path d="m276.652344 115.816406-6.949219-4.011718v8.023437zm0 0"/><path d="m193.277344 67.679688-6.949219-4.011719v8.023437zm0 0"/><path d="m89.054688 135.875-6.945313-4.011719v8.023438zm0 0"/><path d="m89.054688 224.125-6.945313-4.011719v8.023438zm0 0"/><path d="m193.277344 292.320312-6.949219-4.011718v8.023437zm0 0"/><path d="m276.652344 244.183594-6.949219-4.011719v8.023437zm0 0"/><path d="m290.546875 115.816406-6.949219-4.011718v8.023437zm0 0"/><path d="m283.597656 111.804688-6.945312-4.011719v8.023437zm0 0"/><path d="m193.277344 59.65625-6.949219-4.011719v8.023438zm0 0"/><path d="m186.328125 55.644531-6.949219-4.011719v8.023438zm0 0"/><path d="m82.109375 131.863281-6.949219-4.011719v8.023438zm0 0"/><path d="m82.109375 228.136719-6.949219-4.011719v8.023438zm0 0"/><path d="m186.328125 304.355469-6.949219-4.011719v8.023438zm0 0"/><path d="m193.277344 300.34375-6.949219-4.011719v8.023438zm0 0"/><path d="m283.597656 248.195312-6.945312-4.011718v8.023437zm0 0"/><path d="m290.546875 244.183594-6.949219-4.011719v8.023437zm0 0"/><path d="m297.496094 111.804688-6.949219-4.011719v8.023437zm0 0"/><path d="m186.328125 47.621094-6.949219-4.007813v8.019531zm0 0"/><path d="m75.160156 119.828125-6.949218-4.011719v8.023438zm0 0"/><path d="m75.160156 127.851562-6.949218-4.011718v8.023437zm0 0"/><path d="m75.160156 232.148438-6.949218-4.011719v8.023437zm0 0"/><path d="m75.160156 240.171875-6.949218-4.011719v8.023438zm0 0"/><path d="m186.328125 312.378906-6.949219-4.011718v8.019531zm0 0"/><path d="m297.496094 248.195312-6.949219-4.011718v8.023437zm0 0"/><path d="m68.210938 115.816406-6.949219-4.011718v8.023437zm0 0"/><path d="m68.210938 244.183594-6.949219-4.011719v8.023437zm0 0"/></g></svg>