<svg height="360pt" viewBox="0 0 360 360" width="360pt" xmlns="http://www.w3.org/2000/svg"><path d="m0 0h360v360h-360z" fill="#800080"/><g fill="#fff" fill-rule="evenodd"><path d="m203.945312 194.46875 12.53125-7.234375v14.472656zm0 0"/><path d="m203.945312 180 12.53125-7.234375v14.46875zm0 0"/><path d="m203.945312 165.53125 12.53125-7.238281v14.472656zm0 0"/><path d="m191.414062 158.292969 12.53125-7.234375v14.472656zm0 0"/><path d="m178.878906 151.058594 12.535156-7.234375v14.46875zm0 0"/><path d="m178.878906 208.941406 12.535156-7.234375v14.46875zm0 0"/><path d="m191.414062 201.707031 12.53125-7.238281v14.472656zm0 0"/><path d="m216.476562 201.707031 12.53125-7.238281v14.472656zm0 0"/><path d="m216.476562 158.292969 12.53125-7.234375v14.472656zm0 0"/><path d="m166.347656 143.824219 12.53125-7.234375v14.46875zm0 0"/><path d="m153.816406 151.058594 12.53125-7.234375v14.46875zm0 0"/><path d="m141.285156 158.292969 12.53125-7.234375v14.472656zm0 0"/><path d="m141.285156 172.765625 12.53125-7.234375v14.46875zm0 0"/><path d="m141.285156 187.234375 12.53125-7.234375v14.46875zm0 0"/><path d="m141.285156 201.707031 12.53125-7.238281v14.472656zm0 0"/><path d="m153.816406 208.941406 12.53125-7.234375v14.46875zm0 0"/><path d="m166.347656 216.175781 12.53125-7.234375v14.46875zm0 0"/><path d="m229.007812 180 12.53125-7.234375v14.46875zm0 0"/><path d="m166.347656 129.355469 12.53125-7.234375v14.46875zm0 0"/><path d="m128.753906 151.058594 12.53125-7.234375v14.46875zm0 0"/><path d="m128.753906 208.941406 12.53125-7.234375v14.46875zm0 0"/><path d="m166.347656 230.644531 12.53125-7.234375v14.46875zm0 0"/><path d="m241.539062 216.175781 12.53125-7.234375v14.46875zm0 0"/><path d="m241.539062 187.234375 12.53125-7.234375v14.46875zm0 0"/><path d="m241.539062 172.765625 12.53125-7.234375v14.46875zm0 0"/><path d="m241.539062 143.824219 12.53125-7.234375v14.46875zm0 0"/><path d="m141.285156 129.355469 12.53125-7.234375v14.46875zm0 0"/><path d="m141.285156 230.644531 12.53125-7.234375v14.46875zm0 0"/><path d="m254.070312 223.410156 12.53125-7.234375v14.46875zm0 0"/><path d="m254.070312 208.941406 12.53125-7.234375v14.46875zm0 0"/><path d="m254.070312 151.058594 12.53125-7.234375v14.46875zm0 0"/><path d="m254.070312 136.589844 12.53125-7.234375v14.46875zm0 0"/><path d="m166.347656 100.414062 12.53125-7.234374v14.46875zm0 0"/><path d="m141.285156 114.882812 12.53125-7.234374v14.472656zm0 0"/><path d="m128.753906 122.121094 12.53125-7.238282v14.472657zm0 0"/><path d="m103.691406 136.589844 12.53125-7.234375v14.46875zm0 0"/><path d="m103.691406 223.410156 12.53125-7.234375v14.46875zm0 0"/><path d="m128.753906 237.878906 12.53125-7.234375v14.472657zm0 0"/><path d="m141.285156 245.117188 12.53125-7.238282v14.472656zm0 0"/><path d="m166.347656 259.585938 12.53125-7.234376v14.46875zm0 0"/><path d="m166.347656 85.945312 12.53125-7.238281v14.472657zm0 0"/><path d="m153.816406 93.179688 12.53125-7.234376v14.46875zm0 0"/><path d="m103.691406 122.121094 12.53125-7.238282v14.472657zm0 0"/><path d="m91.160156 129.355469 12.53125-7.234375v14.46875zm0 0"/><path d="m91.160156 230.644531 12.53125-7.234375v14.46875zm0 0"/><path d="m103.691406 237.878906 12.53125-7.234375v14.472657zm0 0"/><path d="m153.816406 266.820312 12.53125-7.234374v14.46875zm0 0"/><path d="m166.347656 274.054688 12.53125-7.234376v14.472657zm0 0"/><path d="m216.476562 187.234375-12.53125-7.234375v14.46875zm0 0"/><path d="m216.476562 172.765625-12.53125-7.234375v14.46875zm0 0"/><path d="m216.476562 158.292969-12.53125-7.234375v14.472656zm0 0"/><path d="m203.945312 151.058594-12.53125-7.234375v14.46875zm0 0"/><path d="m191.414062 143.824219-12.535156-7.234375v14.46875zm0 0"/><path d="m178.878906 151.058594-12.53125-7.234375v14.46875zm0 0"/><path d="m166.347656 158.292969-12.53125-7.234375v14.472656zm0 0"/><path d="m166.347656 201.707031-12.53125-7.238281v14.472656zm0 0"/><path d="m178.878906 208.941406-12.53125-7.234375v14.46875zm0 0"/><path d="m191.414062 216.175781-12.535156-7.234375v14.46875zm0 0"/><path d="m203.945312 208.941406-12.53125-7.234375v14.46875zm0 0"/><path d="m216.476562 201.707031-12.53125-7.238281v14.472656zm0 0"/><path d="m229.007812 151.058594-12.53125-7.234375v14.46875zm0 0"/><path d="m191.414062 129.355469-12.535156-7.234375v14.46875zm0 0"/><path d="m153.816406 165.53125-12.53125-7.238281v14.472656zm0 0"/><path d="m153.816406 180-12.53125-7.234375v14.46875zm0 0"/><path d="m153.816406 194.46875-12.53125-7.234375v14.472656zm0 0"/><path d="m191.414062 230.644531-12.535156-7.234375v14.46875zm0 0"/><path d="m229.007812 208.941406-12.53125-7.234375v14.46875zm0 0"/><path d="m216.476562 129.355469-12.53125-7.234375v14.46875zm0 0"/><path d="m141.285156 158.292969-12.53125-7.234375v14.472656zm0 0"/><path d="m141.285156 201.707031-12.53125-7.238281v14.472656zm0 0"/><path d="m216.476562 230.644531-12.53125-7.234375v14.46875zm0 0"/><path d="m254.070312 136.589844-12.53125-7.234375v14.46875zm0 0"/><path d="m229.007812 122.121094-12.53125-7.238282v14.472657zm0 0"/><path d="m216.476562 114.882812-12.53125-7.234374v14.472656zm0 0"/><path d="m191.414062 100.414062-12.535156-7.234374v14.46875zm0 0"/><path d="m128.753906 180-12.53125-7.234375v14.46875zm0 0"/><path d="m191.414062 259.585938-12.535156-7.234376v14.46875zm0 0"/><path d="m216.476562 245.117188-12.53125-7.238282v14.472656zm0 0"/><path d="m229.007812 237.878906-12.53125-7.234375v14.472657zm0 0"/><path d="m254.070312 223.410156-12.53125-7.234375v14.46875zm0 0"/><path d="m266.601562 129.355469-12.53125-7.234375v14.46875zm0 0"/><path d="m254.070312 122.121094-12.53125-7.238282v14.472657zm0 0"/><path d="m203.945312 93.179688-12.53125-7.234376v14.46875zm0 0"/><path d="m191.414062 85.945312-12.535156-7.238281v14.472657zm0 0"/><path d="m116.222656 143.824219-12.53125-7.234375v14.46875zm0 0"/><path d="m116.222656 172.765625-12.53125-7.234375v14.46875zm0 0"/><path d="m116.222656 187.234375-12.53125-7.234375v14.46875zm0 0"/><path d="m116.222656 216.175781-12.53125-7.234375v14.46875zm0 0"/><path d="m191.414062 274.054688-12.535156-7.234376v14.472657zm0 0"/><path d="m203.945312 266.820312-12.53125-7.234374v14.46875zm0 0"/><path d="m254.070312 237.878906-12.53125-7.234375v14.472657zm0 0"/><path d="m266.601562 230.644531-12.53125-7.234375v14.46875zm0 0"/><path d="m103.691406 136.589844-12.53125-7.234375v14.46875zm0 0"/><path d="m103.691406 151.058594-12.53125-7.234375v14.46875zm0 0"/><path d="m103.691406 208.941406-12.53125-7.234375v14.46875zm0 0"/><path d="m103.691406 223.410156-12.53125-7.234375v14.46875zm0 0"/></g></svg>