<svg height="360pt" viewBox="0 0 360 360" width="360pt" xmlns="http://www.w3.org/2000/svg"><path d="m0 0h360v360h-360z" fill="#800080"/><g fill="#fff" fill-rule="evenodd"><path d="m184.589844 171.273438 5.035156-2.910157v5.820313zm0 0"/><path d="m179.550781 168.363281 5.039063-2.90625v5.816407zm0 0"/><path d="m179.550781 191.636719 5.039063-2.910157v5.816407zm0 0"/><path d="m184.589844 188.726562 5.035156-2.910156v5.820313zm0 0"/><path d="m164.433594 177.089844 5.039062-2.90625v5.816406zm0 0"/><path d="m164.433594 182.910156 5.039062-2.910156v5.816406zm0 0"/><path d="m199.703125 191.636719 5.039063-2.910157v5.816407zm0 0"/><path d="m199.703125 168.363281 5.039063-2.90625v5.816407zm0 0"/><path d="m194.664062 165.457031 5.039063-2.910156v5.816406zm0 0"/><path d="m189.625 162.546875 5.039062-2.910156v5.820312zm0 0"/><path d="m184.589844 159.636719 5.035156-2.90625v5.816406zm0 0"/><path d="m179.550781 156.730469 5.039063-2.910157v5.816407zm0 0"/><path d="m179.550781 203.269531 5.039063-2.90625v5.816407zm0 0"/><path d="m184.589844 200.363281 5.035156-2.910156v5.816406zm0 0"/><path d="m189.625 197.453125 5.039062-2.910156v5.820312zm0 0"/><path d="m194.664062 194.542969 5.039063-2.90625v5.816406zm0 0"/><path d="m204.742188 188.726562 5.039062-2.910156v5.820313zm0 0"/><path d="m204.742188 171.273438 5.039062-2.910157v5.820313zm0 0"/><path d="m199.703125 162.546875 5.039063-2.910156v5.820312zm0 0"/><path d="m179.550781 150.910156 5.039063-2.90625v5.816406zm0 0"/><path d="m174.511719 153.820312 5.039062-2.910156v5.820313zm0 0"/><path d="m154.359375 165.457031 5.039063-2.910156v5.816406zm0 0"/><path d="m154.359375 171.273438 5.039063-2.910157v5.820313zm0 0"/><path d="m154.359375 177.089844 5.039063-2.90625v5.816406zm0 0"/><path d="m154.359375 182.910156 5.039063-2.910156v5.816406zm0 0"/><path d="m154.359375 188.726562 5.039063-2.910156v5.820313zm0 0"/><path d="m154.359375 194.542969 5.039063-2.90625v5.816406zm0 0"/><path d="m174.511719 206.179688 5.039062-2.910157v5.820313zm0 0"/><path d="m179.550781 209.089844 5.039063-2.910156v5.816406zm0 0"/><path d="m199.703125 197.453125 5.039063-2.910156v5.820312zm0 0"/><path d="m209.78125 197.453125 5.035156-2.910156v5.820312zm0 0"/><path d="m209.78125 185.816406 5.035156-2.90625v5.816406zm0 0"/><path d="m209.78125 174.183594 5.035156-2.910156v5.816406zm0 0"/><path d="m209.78125 162.546875 5.035156-2.910156v5.820312zm0 0"/><path d="m204.742188 159.636719 5.039062-2.90625v5.816406zm0 0"/><path d="m179.550781 145.09375 5.039063-2.910156v5.820312zm0 0"/><path d="m169.472656 150.910156 5.039063-2.90625v5.816406zm0 0"/><path d="m154.359375 159.636719 5.039063-2.90625v5.816406zm0 0"/><path d="m149.320312 168.363281 5.039063-2.90625v5.816407zm0 0"/><path d="m149.320312 191.636719 5.039063-2.910157v5.816407zm0 0"/><path d="m154.359375 200.363281 5.039063-2.910156v5.816406zm0 0"/><path d="m169.472656 209.089844 5.039063-2.910156v5.816406zm0 0"/><path d="m179.550781 214.90625 5.039063-2.910156v5.820312zm0 0"/><path d="m204.742188 200.363281 5.039062-2.910156v5.816406zm0 0"/><path d="m214.816406 194.542969 5.039063-2.90625v5.816406zm0 0"/><path d="m214.816406 182.910156 5.039063-2.910156v5.816406zm0 0"/><path d="m214.816406 177.089844 5.039063-2.90625v5.816406zm0 0"/><path d="m214.816406 165.457031 5.039063-2.910156v5.816406zm0 0"/><path d="m174.511719 142.183594 5.039062-2.90625v5.816406zm0 0"/><path d="m164.433594 148.003906 5.039062-2.910156v5.816406zm0 0"/><path d="m154.359375 153.820312 5.039063-2.910156v5.820313zm0 0"/><path d="m144.28125 159.636719 5.039062-2.90625v5.816406zm0 0"/><path d="m144.28125 165.457031 5.039062-2.910156v5.816406zm0 0"/><path d="m144.28125 194.542969 5.039062-2.90625v5.816406zm0 0"/><path d="m144.28125 200.363281 5.039062-2.910156v5.816406zm0 0"/><path d="m154.359375 206.179688 5.039063-2.910157v5.820313zm0 0"/><path d="m164.433594 211.996094 5.039062-2.90625v5.816406zm0 0"/><path d="m174.511719 217.816406 5.039062-2.910156v5.816406zm0 0"/><path d="m219.855469 197.453125 5.039062-2.910156v5.820312zm0 0"/><path d="m219.855469 185.816406 5.039062-2.90625v5.816406zm0 0"/><path d="m219.855469 174.183594 5.039062-2.910156v5.816406zm0 0"/><path d="m219.855469 162.546875 5.039062-2.910156v5.820312zm0 0"/><path d="m214.816406 153.820312 5.039063-2.910156v5.820313zm0 0"/><path d="m204.742188 148.003906 5.039062-2.910156v5.816406zm0 0"/><path d="m199.703125 145.09375 5.039063-2.910156v5.820312zm0 0"/><path d="m194.664062 142.183594 5.039063-2.90625v5.816406zm0 0"/><path d="m189.625 139.277344 5.039062-2.910156v5.816406zm0 0"/><path d="m179.550781 133.457031 5.039063-2.90625v5.816407zm0 0"/><path d="m169.472656 139.277344 5.039063-2.910156v5.816406zm0 0"/><path d="m159.398438 145.09375 5.035156-2.910156v5.820312zm0 0"/><path d="m154.359375 148.003906 5.039063-2.910156v5.816406zm0 0"/><path d="m144.28125 153.820312 5.039062-2.910156v5.820313zm0 0"/><path d="m144.28125 206.179688 5.039062-2.910157v5.820313zm0 0"/><path d="m154.359375 211.996094 5.039063-2.90625v5.816406zm0 0"/><path d="m159.398438 214.90625 5.035156-2.910156v5.820312zm0 0"/><path d="m169.472656 220.722656 5.039063-2.90625v5.816406zm0 0"/><path d="m179.550781 226.542969 5.039063-2.910157v5.816407zm0 0"/><path d="m189.625 220.722656 5.039062-2.90625v5.816406zm0 0"/><path d="m194.664062 217.816406 5.039063-2.910156v5.816406zm0 0"/><path d="m199.703125 214.90625 5.039063-2.910156v5.820312zm0 0"/><path d="m204.742188 211.996094 5.039062-2.90625v5.816406zm0 0"/><path d="m214.816406 206.179688 5.039063-2.910157v5.820313zm0 0"/><path d="m224.894531 200.363281 5.039063-2.910156v5.816406zm0 0"/><path d="m224.894531 194.542969 5.039063-2.90625v5.816406zm0 0"/><path d="m224.894531 165.457031 5.039063-2.910156v5.816406zm0 0"/><path d="m224.894531 159.636719 5.039063-2.90625v5.816406zm0 0"/><path d="m209.78125 145.09375 5.035156-2.910156v5.820312zm0 0"/><path d="m204.742188 142.183594 5.039062-2.90625v5.816406zm0 0"/><path d="m194.664062 136.367188 5.039063-2.910157v5.820313zm0 0"/><path d="m189.625 133.457031 5.039062-2.90625v5.816407zm0 0"/><path d="m169.472656 133.457031 5.039063-2.90625v5.816407zm0 0"/><path d="m159.398438 139.277344 5.035156-2.910156v5.816406zm0 0"/><path d="m149.320312 145.09375 5.039063-2.910156v5.820312zm0 0"/><path d="m139.242188 150.910156 5.039062-2.90625v5.816406zm0 0"/><path d="m134.207031 159.636719 5.035157-2.90625v5.816406zm0 0"/><path d="m134.207031 171.273438 5.035157-2.910157v5.820313zm0 0"/><path d="m134.207031 177.089844 5.035157-2.90625v5.816406zm0 0"/><path d="m134.207031 182.910156 5.035157-2.910156v5.816406zm0 0"/><path d="m134.207031 188.726562 5.035157-2.910156v5.820313zm0 0"/><path d="m134.207031 200.363281 5.035157-2.910156v5.816406zm0 0"/><path d="m139.242188 209.089844 5.039062-2.910156v5.816406zm0 0"/><path d="m149.320312 214.90625 5.039063-2.910156v5.820312zm0 0"/><path d="m159.398438 220.722656 5.035156-2.90625v5.816406zm0 0"/><path d="m169.472656 226.542969 5.039063-2.910157v5.816407zm0 0"/><path d="m189.625 226.542969 5.039062-2.910157v5.816407zm0 0"/><path d="m194.664062 223.632812 5.039063-2.910156v5.820313zm0 0"/><path d="m204.742188 217.816406 5.039062-2.910156v5.816406zm0 0"/><path d="m209.78125 214.90625 5.035156-2.910156v5.820312zm0 0"/><path d="m229.933594 209.089844 5.039062-2.910156v5.816406zm0 0"/><path d="m229.933594 191.636719 5.039062-2.910157v5.816407zm0 0"/><path d="m229.933594 168.363281 5.039062-2.90625v5.816407zm0 0"/><path d="m229.933594 150.910156 5.039062-2.90625v5.816406zm0 0"/><path d="m224.894531 148.003906 5.039063-2.910156v5.816406zm0 0"/><path d="m204.742188 136.367188 5.039062-2.910157v5.820313zm0 0"/><path d="m199.703125 133.457031 5.039063-2.90625v5.816407zm0 0"/><path d="m179.550781 121.824219 5.039063-2.910157v5.816407zm0 0"/><path d="m169.472656 127.640625 5.039063-2.910156v5.820312zm0 0"/><path d="m164.433594 130.550781 5.039062-2.910156v5.816406zm0 0"/><path d="m139.242188 145.09375 5.039062-2.910156v5.820312zm0 0"/><path d="m134.207031 148.003906 5.035157-2.910156v5.816406zm0 0"/><path d="m129.167969 168.363281 5.039062-2.90625v5.816407zm0 0"/><path d="m129.167969 174.183594 5.039062-2.910156v5.816406zm0 0"/><path d="m129.167969 185.816406 5.039062-2.90625v5.816406zm0 0"/><path d="m129.167969 191.636719 5.039062-2.910157v5.816407zm0 0"/><path d="m134.207031 211.996094 5.035157-2.90625v5.816406zm0 0"/><path d="m139.242188 214.90625 5.039062-2.910156v5.820312zm0 0"/><path d="m164.433594 229.449219 5.039062-2.90625v5.816406zm0 0"/><path d="m169.472656 232.359375 5.039063-2.910156v5.820312zm0 0"/><path d="m179.550781 238.175781 5.039063-2.90625v5.816407zm0 0"/><path d="m199.703125 226.542969 5.039063-2.910157v5.816407zm0 0"/><path d="m204.742188 223.632812 5.039062-2.910156v5.820313zm0 0"/><path d="m224.894531 211.996094 5.039063-2.90625v5.816406zm0 0"/><path d="m234.972656 211.996094 5.035156-2.90625v5.816406zm0 0"/><path d="m234.972656 206.179688 5.035156-2.910157v5.820313zm0 0"/><path d="m234.972656 200.363281 5.035156-2.910156v5.816406zm0 0"/><path d="m234.972656 188.726562 5.035156-2.910156v5.820313zm0 0"/><path d="m234.972656 171.273438 5.035156-2.910157v5.820313zm0 0"/><path d="m234.972656 159.636719 5.035156-2.90625v5.816406zm0 0"/><path d="m234.972656 153.820312 5.035156-2.910156v5.820313zm0 0"/><path d="m234.972656 148.003906 5.035156-2.910156v5.816406zm0 0"/><path d="m174.511719 118.914062 5.039062-2.910156v5.820313zm0 0"/><path d="m159.398438 127.640625 5.035156-2.910156v5.820312zm0 0"/><path d="m139.242188 139.277344 5.039062-2.910156v5.816406zm0 0"/><path d="m124.128906 148.003906 5.039063-2.910156v5.816406zm0 0"/><path d="m124.128906 153.820312 5.039063-2.910156v5.820313zm0 0"/><path d="m124.128906 177.089844 5.039063-2.90625v5.816406zm0 0"/><path d="m124.128906 182.910156 5.039063-2.910156v5.816406zm0 0"/><path d="m124.128906 206.179688 5.039063-2.910157v5.820313zm0 0"/><path d="m124.128906 211.996094 5.039063-2.90625v5.816406zm0 0"/><path d="m139.242188 220.722656 5.039062-2.90625v5.816406zm0 0"/><path d="m159.398438 232.359375 5.035156-2.910156v5.820312zm0 0"/><path d="m174.511719 241.085938 5.039062-2.910157v5.820313zm0 0"/><path d="m240.007812 203.269531 5.039063-2.90625v5.816407zm0 0"/><path d="m240.007812 197.453125 5.039063-2.910156v5.820312zm0 0"/><path d="m240.007812 191.636719 5.039063-2.910157v5.816407zm0 0"/><path d="m240.007812 185.816406 5.039063-2.90625v5.816406zm0 0"/><path d="m240.007812 174.183594 5.039063-2.910156v5.816406zm0 0"/><path d="m240.007812 168.363281 5.039063-2.90625v5.816407zm0 0"/><path d="m240.007812 162.546875 5.039063-2.910156v5.820312zm0 0"/><path d="m240.007812 156.730469 5.039063-2.910157v5.816407zm0 0"/><path d="m234.972656 142.183594 5.035156-2.90625v5.816406zm0 0"/><path d="m219.855469 133.457031 5.039062-2.90625v5.816407zm0 0"/><path d="m214.816406 130.550781 5.039063-2.910156v5.816406zm0 0"/><path d="m209.78125 127.640625 5.035156-2.910156v5.820312zm0 0"/><path d="m204.742188 124.730469 5.039062-2.90625v5.816406zm0 0"/><path d="m199.703125 121.824219 5.039063-2.910157v5.816407zm0 0"/><path d="m194.664062 118.914062 5.039063-2.910156v5.820313zm0 0"/><path d="m179.550781 110.1875 5.039063-2.910156v5.820312zm0 0"/><path d="m174.511719 113.097656 5.039062-2.910156v5.816406zm0 0"/><path d="m169.472656 116.003906 5.039063-2.90625v5.816406zm0 0"/><path d="m164.433594 118.914062 5.039062-2.910156v5.820313zm0 0"/><path d="m154.359375 124.730469 5.039063-2.90625v5.816406zm0 0"/><path d="m139.242188 133.457031 5.039062-2.90625v5.816407zm0 0"/><path d="m129.167969 139.277344 5.039062-2.910156v5.816406zm0 0"/><path d="m124.128906 142.183594 5.039063-2.90625v5.816406zm0 0"/><path d="m119.089844 145.09375 5.039062-2.910156v5.820312zm0 0"/><path d="m119.089844 214.90625 5.039062-2.910156v5.820312zm0 0"/><path d="m124.128906 217.816406 5.039063-2.910156v5.816406zm0 0"/><path d="m129.167969 220.722656 5.039062-2.90625v5.816406zm0 0"/><path d="m139.242188 226.542969 5.039062-2.910157v5.816407zm0 0"/><path d="m154.359375 235.269531 5.039063-2.910156v5.816406zm0 0"/><path d="m164.433594 241.085938 5.039062-2.910157v5.820313zm0 0"/><path d="m169.472656 243.996094 5.039063-2.910156v5.816406zm0 0"/><path d="m174.511719 246.902344 5.039062-2.90625v5.816406zm0 0"/><path d="m179.550781 249.8125 5.039063-2.910156v5.820312zm0 0"/><path d="m194.664062 241.085938 5.039063-2.910157v5.820313zm0 0"/><path d="m199.703125 238.175781 5.039063-2.90625v5.816407zm0 0"/><path d="m204.742188 235.269531 5.039062-2.910156v5.816406zm0 0"/><path d="m209.78125 232.359375 5.035156-2.910156v5.820312zm0 0"/><path d="m214.816406 229.449219 5.039063-2.90625v5.816406zm0 0"/><path d="m219.855469 226.542969 5.039062-2.910157v5.816407zm0 0"/><path d="m234.972656 217.816406 5.035156-2.910156v5.816406zm0 0"/><path d="m245.046875 217.816406 5.039063-2.910156v5.816406zm0 0"/><path d="m245.046875 194.542969 5.039063-2.90625v5.816406zm0 0"/><path d="m245.046875 165.457031 5.039063-2.910156v5.816406zm0 0"/><path d="m245.046875 142.183594 5.039063-2.90625v5.816406zm0 0"/><path d="m229.933594 133.457031 5.039062-2.90625v5.816407zm0 0"/><path d="m224.894531 130.550781 5.039063-2.910156v5.816406zm0 0"/><path d="m214.816406 124.730469 5.039063-2.90625v5.816406zm0 0"/><path d="m204.742188 118.914062 5.039062-2.910156v5.820313zm0 0"/><path d="m194.664062 113.097656 5.039063-2.910156v5.816406zm0 0"/><path d="m189.625 110.1875 5.039062-2.910156v5.820312zm0 0"/><path d="m164.433594 113.097656 5.039062-2.910156v5.816406zm0 0"/><path d="m159.398438 116.003906 5.035156-2.90625v5.816406zm0 0"/><path d="m154.359375 118.914062 5.039063-2.910156v5.820313zm0 0"/><path d="m149.320312 121.824219 5.039063-2.910157v5.816407zm0 0"/><path d="m139.242188 127.640625 5.039062-2.910156v5.820312zm0 0"/><path d="m134.207031 130.550781 5.035157-2.910156v5.816406zm0 0"/><path d="m129.167969 133.457031 5.039062-2.90625v5.816407zm0 0"/><path d="m124.128906 136.367188 5.039063-2.910157v5.820313zm0 0"/><path d="m114.050781 148.003906 5.039063-2.910156v5.816406zm0 0"/><path d="m114.050781 165.457031 5.039063-2.910156v5.816406zm0 0"/><path d="m114.050781 171.273438 5.039063-2.910157v5.820313zm0 0"/><path d="m114.050781 177.089844 5.039063-2.90625v5.816406zm0 0"/><path d="m114.050781 182.910156 5.039063-2.910156v5.816406zm0 0"/><path d="m114.050781 188.726562 5.039063-2.910156v5.820313zm0 0"/><path d="m114.050781 194.542969 5.039063-2.90625v5.816406zm0 0"/><path d="m114.050781 211.996094 5.039063-2.90625v5.816406zm0 0"/><path d="m124.128906 223.632812 5.039063-2.910156v5.820313zm0 0"/><path d="m129.167969 226.542969 5.039062-2.910157v5.816407zm0 0"/><path d="m134.207031 229.449219 5.035157-2.90625v5.816406zm0 0"/><path d="m139.242188 232.359375 5.039062-2.910156v5.820312zm0 0"/><path d="m149.320312 238.175781 5.039063-2.90625v5.816407zm0 0"/><path d="m154.359375 241.085938 5.039063-2.910157v5.820313zm0 0"/><path d="m159.398438 243.996094 5.035156-2.910156v5.816406zm0 0"/><path d="m164.433594 246.902344 5.039062-2.90625v5.816406zm0 0"/><path d="m189.625 249.8125 5.039062-2.910156v5.820312zm0 0"/><path d="m194.664062 246.902344 5.039063-2.90625v5.816406zm0 0"/><path d="m204.742188 241.085938 5.039062-2.910157v5.820313zm0 0"/><path d="m214.816406 235.269531 5.039063-2.910156v5.816406zm0 0"/><path d="m224.894531 229.449219 5.039063-2.90625v5.816406zm0 0"/><path d="m229.933594 226.542969 5.039062-2.910157v5.816407zm0 0"/><path d="m250.085938 220.722656 5.039062-2.90625v5.816406zm0 0"/><path d="m250.085938 203.269531 5.039062-2.90625v5.816407zm0 0"/><path d="m250.085938 191.636719 5.039062-2.910157v5.816407zm0 0"/><path d="m250.085938 185.816406 5.039062-2.90625v5.816406zm0 0"/><path d="m250.085938 174.183594 5.039062-2.910156v5.816406zm0 0"/><path d="m250.085938 168.363281 5.039062-2.90625v5.816407zm0 0"/><path d="m250.085938 156.730469 5.039062-2.910157v5.816407zm0 0"/><path d="m250.085938 139.277344 5.039062-2.910156v5.816406zm0 0"/><path d="m229.933594 127.640625 5.039062-2.910156v5.820312zm0 0"/><path d="m224.894531 124.730469 5.039063-2.90625v5.816406zm0 0"/><path d="m214.816406 118.914062 5.039063-2.910156v5.820313zm0 0"/><path d="m209.78125 116.003906 5.035156-2.90625v5.816406zm0 0"/><path d="m199.703125 110.1875 5.039063-2.910156v5.820312zm0 0"/><path d="m194.664062 107.277344 5.039063-2.90625v5.816406zm0 0"/><path d="m174.511719 101.460938 5.039062-2.910157v5.820313zm0 0"/><path d="m154.359375 113.097656 5.039063-2.910156v5.816406zm0 0"/><path d="m129.167969 127.640625 5.039062-2.910156v5.820312zm0 0"/><path d="m109.015625 139.277344 5.035156-2.910156v5.816406zm0 0"/><path d="m109.015625 156.730469 5.035156-2.910157v5.816407zm0 0"/><path d="m109.015625 162.546875 5.035156-2.910156v5.820312zm0 0"/><path d="m109.015625 174.183594 5.035156-2.910156v5.816406zm0 0"/><path d="m109.015625 185.816406 5.035156-2.90625v5.816406zm0 0"/><path d="m109.015625 197.453125 5.035156-2.910156v5.820312zm0 0"/><path d="m109.015625 203.269531 5.035156-2.90625v5.816407zm0 0"/><path d="m109.015625 220.722656 5.035156-2.90625v5.816406zm0 0"/><path d="m129.167969 232.359375 5.039062-2.910156v5.820312zm0 0"/><path d="m154.359375 246.902344 5.039063-2.90625v5.816406zm0 0"/><path d="m174.511719 258.539062 5.039062-2.910156v5.820313zm0 0"/><path d="m194.664062 252.722656 5.039063-2.910156v5.816406zm0 0"/><path d="m199.703125 249.8125 5.039063-2.910156v5.820312zm0 0"/><path d="m209.78125 243.996094 5.035156-2.910156v5.816406zm0 0"/><path d="m214.816406 241.085938 5.039063-2.910157v5.820313zm0 0"/><path d="m224.894531 235.269531 5.039063-2.910156v5.816406zm0 0"/><path d="m229.933594 232.359375 5.039062-2.910156v5.820312zm0 0"/><path d="m255.125 217.816406 5.039062-2.910156v5.816406zm0 0"/><path d="m255.125 200.363281 5.039062-2.910156v5.816406zm0 0"/><path d="m255.125 194.542969 5.039062-2.90625v5.816406zm0 0"/><path d="m255.125 165.457031 5.039062-2.910156v5.816406zm0 0"/><path d="m255.125 159.636719 5.039062-2.90625v5.816406zm0 0"/><path d="m255.125 142.183594 5.039062-2.90625v5.816406zm0 0"/><path d="m174.511719 95.644531 5.039062-2.910156v5.816406zm0 0"/><path d="m159.398438 104.371094 5.035156-2.910156v5.816406zm0 0"/><path d="m149.320312 110.1875 5.039063-2.910156v5.820312zm0 0"/><path d="m144.28125 113.097656 5.039062-2.910156v5.816406zm0 0"/><path d="m134.207031 118.914062 5.035157-2.910156v5.820313zm0 0"/><path d="m129.167969 121.824219 5.039062-2.910157v5.816407zm0 0"/><path d="m119.089844 127.640625 5.039062-2.910156v5.820312zm0 0"/><path d="m103.976562 136.367188 5.039063-2.910157v5.820313zm0 0"/><path d="m103.976562 159.636719 5.039063-2.90625v5.816406zm0 0"/><path d="m103.976562 165.457031 5.039063-2.910156v5.816406zm0 0"/><path d="m103.976562 177.089844 5.039063-2.90625v5.816406zm0 0"/><path d="m103.976562 182.910156 5.039063-2.910156v5.816406zm0 0"/><path d="m103.976562 194.542969 5.039063-2.90625v5.816406zm0 0"/><path d="m103.976562 200.363281 5.039063-2.910156v5.816406zm0 0"/><path d="m103.976562 223.632812 5.039063-2.910156v5.820313zm0 0"/><path d="m119.089844 232.359375 5.039062-2.910156v5.820312zm0 0"/><path d="m129.167969 238.175781 5.039062-2.90625v5.816407zm0 0"/><path d="m134.207031 241.085938 5.035157-2.910157v5.820313zm0 0"/><path d="m144.28125 246.902344 5.039062-2.90625v5.816406zm0 0"/><path d="m149.320312 249.8125 5.039063-2.910156v5.820312zm0 0"/><path d="m159.398438 255.628906 5.035156-2.90625v5.816406zm0 0"/><path d="m174.511719 264.355469 5.039062-2.90625v5.816406zm0 0"/><path d="m260.164062 220.722656 5.035157-2.90625v5.816406zm0 0"/><path d="m260.164062 209.089844 5.035157-2.910156v5.816406zm0 0"/><path d="m260.164062 150.910156 5.035157-2.90625v5.816406zm0 0"/><path d="m260.164062 139.277344 5.035157-2.910156v5.816406zm0 0"/><path d="m245.046875 124.730469 5.039063-2.90625v5.816406zm0 0"/><path d="m240.007812 121.824219 5.039063-2.910157v5.816407zm0 0"/><path d="m234.972656 118.914062 5.035156-2.910156v5.820313zm0 0"/><path d="m229.933594 116.003906 5.039062-2.90625v5.816406zm0 0"/><path d="m224.894531 113.097656 5.039063-2.910156v5.816406zm0 0"/><path d="m219.855469 110.1875 5.039062-2.910156v5.820312zm0 0"/><path d="m214.816406 107.277344 5.039063-2.90625v5.816406zm0 0"/><path d="m209.78125 104.371094 5.035156-2.910156v5.816406zm0 0"/><path d="m204.742188 101.460938 5.039062-2.910157v5.820313zm0 0"/><path d="m199.703125 98.550781 5.039063-2.90625v5.816407zm0 0"/><path d="m194.664062 95.644531 5.039063-2.910156v5.816406zm0 0"/><path d="m189.625 92.734375 5.039062-2.910156v5.820312zm0 0"/><path d="m169.472656 92.734375 5.039063-2.910156v5.820312zm0 0"/><path d="m154.359375 101.460938 5.039063-2.910157v5.820313zm0 0"/><path d="m149.320312 104.371094 5.039063-2.910156v5.816406zm0 0"/><path d="m124.128906 118.914062 5.039063-2.910156v5.820313zm0 0"/><path d="m119.089844 121.824219 5.039062-2.910157v5.816407zm0 0"/><path d="m103.976562 130.550781 5.039063-2.910156v5.816406zm0 0"/><path d="m103.976562 229.449219 5.039063-2.90625v5.816406zm0 0"/><path d="m119.089844 238.175781 5.039062-2.90625v5.816407zm0 0"/><path d="m124.128906 241.085938 5.039063-2.910157v5.820313zm0 0"/><path d="m149.320312 255.628906 5.039063-2.90625v5.816406zm0 0"/><path d="m154.359375 258.539062 5.039063-2.910156v5.820313zm0 0"/><path d="m169.472656 267.265625 5.039063-2.910156v5.820312zm0 0"/><path d="m189.625 267.265625 5.039062-2.910156v5.820312zm0 0"/><path d="m194.664062 264.355469 5.039063-2.90625v5.816406zm0 0"/><path d="m199.703125 261.449219 5.039063-2.910157v5.816407zm0 0"/><path d="m204.742188 258.539062 5.039062-2.910156v5.820313zm0 0"/><path d="m209.78125 255.628906 5.035156-2.90625v5.816406zm0 0"/><path d="m214.816406 252.722656 5.039063-2.910156v5.816406zm0 0"/><path d="m219.855469 249.8125 5.039062-2.910156v5.820312zm0 0"/><path d="m224.894531 246.902344 5.039063-2.90625v5.816406zm0 0"/><path d="m229.933594 243.996094 5.039062-2.910156v5.816406zm0 0"/><path d="m234.972656 241.085938 5.035156-2.910157v5.820313zm0 0"/><path d="m240.007812 238.175781 5.039063-2.90625v5.816407zm0 0"/><path d="m245.046875 235.269531 5.039063-2.910156v5.816406zm0 0"/><path d="m265.199219 211.996094 5.039062-2.90625v5.816406zm0 0"/><path d="m265.199219 206.179688 5.039062-2.910157v5.820313zm0 0"/><path d="m265.199219 188.726562 5.039062-2.910156v5.820313zm0 0"/><path d="m265.199219 182.910156 5.039062-2.910156v5.816406zm0 0"/><path d="m265.199219 177.089844 5.039062-2.90625v5.816406zm0 0"/><path d="m265.199219 171.273438 5.039062-2.910157v5.820313zm0 0"/><path d="m265.199219 153.820312 5.039062-2.910156v5.820313zm0 0"/><path d="m265.199219 148.003906 5.039062-2.910156v5.816406zm0 0"/><path d="m260.164062 127.640625 5.035157-2.910156v5.820312zm0 0"/><path d="m255.125 124.730469 5.039062-2.90625v5.816406zm0 0"/><path d="m234.972656 113.097656 5.035156-2.910156v5.816406zm0 0"/><path d="m229.933594 110.1875 5.039062-2.910156v5.820312zm0 0"/><path d="m224.894531 107.277344 5.039063-2.90625v5.816406zm0 0"/><path d="m214.816406 101.460938 5.039063-2.910157v5.820313zm0 0"/><path d="m209.78125 98.550781 5.035156-2.90625v5.816407zm0 0"/><path d="m204.742188 95.644531 5.039062-2.910156v5.816406zm0 0"/><path d="m184.589844 84.007812 5.035156-2.910156v5.820313zm0 0"/><path d="m179.550781 81.097656 5.039063-2.90625v5.816406zm0 0"/><path d="m169.472656 86.917969 5.039063-2.910157v5.816407zm0 0"/><path d="m159.398438 92.734375 5.035156-2.910156v5.820312zm0 0"/><path d="m109.015625 121.824219 5.035156-2.910157v5.816407zm0 0"/><path d="m98.9375 127.640625 5.039062-2.910156v5.820312zm0 0"/><path d="m93.898438 148.003906 5.039062-2.910156v5.816406zm0 0"/><path d="m93.898438 153.820312 5.039062-2.910156v5.820313zm0 0"/><path d="m93.898438 159.636719 5.039062-2.90625v5.816406zm0 0"/><path d="m93.898438 165.457031 5.039062-2.910156v5.816406zm0 0"/><path d="m93.898438 171.273438 5.039062-2.910157v5.820313zm0 0"/><path d="m93.898438 177.089844 5.039062-2.90625v5.816406zm0 0"/><path d="m93.898438 182.910156 5.039062-2.910156v5.816406zm0 0"/><path d="m93.898438 188.726562 5.039062-2.910156v5.820313zm0 0"/><path d="m93.898438 194.542969 5.039062-2.90625v5.816406zm0 0"/><path d="m93.898438 200.363281 5.039062-2.910156v5.816406zm0 0"/><path d="m93.898438 206.179688 5.039062-2.910157v5.820313zm0 0"/><path d="m93.898438 211.996094 5.039062-2.90625v5.816406zm0 0"/><path d="m98.9375 232.359375 5.039062-2.910156v5.820312zm0 0"/><path d="m109.015625 238.175781 5.035156-2.90625v5.816407zm0 0"/><path d="m159.398438 267.265625 5.035156-2.910156v5.820312zm0 0"/><path d="m169.472656 273.082031 5.039063-2.90625v5.816407zm0 0"/><path d="m179.550781 278.902344 5.039063-2.910156v5.816406zm0 0"/><path d="m184.589844 275.992188 5.035156-2.910157v5.820313zm0 0"/><path d="m204.742188 264.355469 5.039062-2.90625v5.816406zm0 0"/><path d="m209.78125 261.449219 5.035156-2.910157v5.816407zm0 0"/><path d="m214.816406 258.539062 5.039063-2.910156v5.820313zm0 0"/><path d="m224.894531 252.722656 5.039063-2.910156v5.816406zm0 0"/><path d="m229.933594 249.8125 5.039062-2.910156v5.820312zm0 0"/><path d="m234.972656 246.902344 5.035156-2.90625v5.816406zm0 0"/><path d="m255.125 235.269531 5.039062-2.910156v5.816406zm0 0"/><path d="m260.164062 232.359375 5.035157-2.910156v5.820312zm0 0"/><path d="m270.238281 214.90625 5.039063-2.910156v5.820312zm0 0"/><path d="m270.238281 209.089844 5.039063-2.910156v5.816406zm0 0"/><path d="m270.238281 203.269531 5.039063-2.90625v5.816407zm0 0"/><path d="m270.238281 197.453125 5.039063-2.910156v5.820312zm0 0"/><path d="m270.238281 162.546875 5.039063-2.910156v5.820312zm0 0"/><path d="m270.238281 156.730469 5.039063-2.910157v5.816407zm0 0"/><path d="m270.238281 150.910156 5.039063-2.90625v5.816406zm0 0"/><path d="m270.238281 145.09375 5.039063-2.910156v5.820312zm0 0"/><path d="m265.199219 124.730469 5.039062-2.90625v5.816406zm0 0"/><path d="m260.164062 121.824219 5.035157-2.910157v5.816407zm0 0"/><path d="m255.125 118.914062 5.039062-2.910156v5.820313zm0 0"/><path d="m245.046875 113.097656 5.039063-2.910156v5.816406zm0 0"/><path d="m229.933594 104.371094 5.039062-2.910156v5.816406zm0 0"/><path d="m214.816406 95.644531 5.039063-2.910156v5.816406zm0 0"/><path d="m199.703125 86.917969 5.039063-2.910157v5.816407zm0 0"/><path d="m189.625 81.097656 5.039062-2.90625v5.816406zm0 0"/><path d="m184.589844 78.191406 5.035156-2.910156v5.816406zm0 0"/><path d="m179.550781 75.28125 5.039063-2.910156v5.820312zm0 0"/><path d="m159.398438 86.917969 5.035156-2.910157v5.816407zm0 0"/><path d="m154.359375 89.824219 5.039063-2.90625v5.816406zm0 0"/><path d="m139.242188 98.550781 5.039062-2.90625v5.816407zm0 0"/><path d="m134.207031 101.460938 5.035157-2.910157v5.820313zm0 0"/><path d="m129.167969 104.371094 5.039062-2.910156v5.816406zm0 0"/><path d="m124.128906 107.277344 5.039063-2.90625v5.816406zm0 0"/><path d="m109.015625 116.003906 5.035156-2.90625v5.816406zm0 0"/><path d="m103.976562 118.914062 5.039063-2.910156v5.820313zm0 0"/><path d="m88.859375 133.457031 5.039063-2.90625v5.816407zm0 0"/><path d="m88.859375 139.277344 5.039063-2.910156v5.816406zm0 0"/><path d="m88.859375 162.546875 5.039063-2.910156v5.820312zm0 0"/><path d="m88.859375 168.363281 5.039063-2.90625v5.816407zm0 0"/><path d="m88.859375 174.183594 5.039063-2.910156v5.816406zm0 0"/><path d="m88.859375 185.816406 5.039063-2.90625v5.816406zm0 0"/><path d="m88.859375 191.636719 5.039063-2.910157v5.816407zm0 0"/><path d="m88.859375 197.453125 5.039063-2.910156v5.820312zm0 0"/><path d="m88.859375 220.722656 5.039063-2.90625v5.816406zm0 0"/><path d="m88.859375 226.542969 5.039063-2.910157v5.816407zm0 0"/><path d="m103.976562 241.085938 5.039063-2.910157v5.820313zm0 0"/><path d="m109.015625 243.996094 5.035156-2.910156v5.816406zm0 0"/><path d="m124.128906 252.722656 5.039063-2.910156v5.816406zm0 0"/><path d="m129.167969 255.628906 5.039062-2.90625v5.816406zm0 0"/><path d="m134.207031 258.539062 5.035157-2.910156v5.820313zm0 0"/><path d="m139.242188 261.449219 5.039062-2.910157v5.816407zm0 0"/><path d="m154.359375 270.175781 5.039063-2.910156v5.816406zm0 0"/><path d="m159.398438 273.082031 5.035156-2.90625v5.816407zm0 0"/><path d="m179.550781 284.71875 5.039063-2.910156v5.820312zm0 0"/><path d="m184.589844 281.808594 5.035156-2.90625v5.816406zm0 0"/><path d="m189.625 278.902344 5.039062-2.910156v5.816406zm0 0"/><path d="m199.703125 273.082031 5.039063-2.90625v5.816407zm0 0"/><path d="m214.816406 264.355469 5.039063-2.90625v5.816406zm0 0"/><path d="m229.933594 255.628906 5.039062-2.90625v5.816406zm0 0"/><path d="m245.046875 246.902344 5.039063-2.90625v5.816406zm0 0"/><path d="m255.125 241.085938 5.039062-2.910157v5.820313zm0 0"/><path d="m260.164062 238.175781 5.035157-2.90625v5.816407zm0 0"/><path d="m265.199219 235.269531 5.039062-2.910156v5.816406zm0 0"/><path d="m275.277344 235.269531 5.039062-2.910156v5.816406zm0 0"/><path d="m275.277344 217.816406 5.039062-2.910156v5.816406zm0 0"/><path d="m275.277344 200.363281 5.039062-2.910156v5.816406zm0 0"/><path d="m275.277344 159.636719 5.039062-2.90625v5.816406zm0 0"/><path d="m275.277344 142.183594 5.039062-2.90625v5.816406zm0 0"/><path d="m275.277344 124.730469 5.039062-2.90625v5.816406zm0 0"/><path d="m270.238281 121.824219 5.039063-2.910157v5.816407zm0 0"/><path d="m265.199219 118.914062 5.039062-2.910156v5.820313zm0 0"/><path d="m245.046875 107.277344 5.039063-2.90625v5.816406zm0 0"/><path d="m240.007812 104.371094 5.039063-2.910156v5.816406zm0 0"/><path d="m234.972656 101.460938 5.035156-2.910157v5.820313zm0 0"/><path d="m214.816406 89.824219 5.039063-2.90625v5.816406zm0 0"/><path d="m209.78125 86.917969 5.035156-2.910157v5.816407zm0 0"/><path d="m204.742188 84.007812 5.039062-2.910156v5.820313zm0 0"/><path d="m184.589844 72.371094 5.035156-2.90625v5.816406zm0 0"/><path d="m179.550781 69.464844 5.039063-2.910156v5.816406zm0 0"/><path d="m159.398438 81.097656 5.035156-2.90625v5.816406zm0 0"/><path d="m154.359375 84.007812 5.039063-2.910156v5.820313zm0 0"/><path d="m149.320312 86.917969 5.039063-2.910157v5.816407zm0 0"/><path d="m144.28125 89.824219 5.039062-2.90625v5.816406zm0 0"/><path d="m114.050781 107.277344 5.039063-2.90625v5.816406zm0 0"/><path d="m109.015625 110.1875 5.035156-2.910156v5.820312zm0 0"/><path d="m103.976562 113.097656 5.039063-2.910156v5.816406zm0 0"/><path d="m98.9375 116.003906 5.039062-2.90625v5.816406zm0 0"/><path d="m83.824219 130.550781 5.035156-2.910156v5.816406zm0 0"/><path d="m83.824219 136.367188 5.035156-2.910157v5.820313zm0 0"/><path d="m83.824219 142.183594 5.035156-2.90625v5.816406zm0 0"/><path d="m83.824219 153.820312 5.035156-2.910156v5.820313zm0 0"/><path d="m83.824219 171.273438 5.035156-2.910157v5.820313zm0 0"/><path d="m83.824219 188.726562 5.035156-2.910156v5.820313zm0 0"/><path d="m83.824219 206.179688 5.035156-2.910157v5.820313zm0 0"/><path d="m83.824219 217.816406 5.035156-2.910156v5.816406zm0 0"/><path d="m83.824219 223.632812 5.035156-2.910156v5.820313zm0 0"/><path d="m83.824219 229.449219 5.035156-2.90625v5.816406zm0 0"/><path d="m98.9375 243.996094 5.039062-2.910156v5.816406zm0 0"/><path d="m103.976562 246.902344 5.039063-2.90625v5.816406zm0 0"/><path d="m109.015625 249.8125 5.035156-2.910156v5.820312zm0 0"/><path d="m114.050781 252.722656 5.039063-2.910156v5.816406zm0 0"/><path d="m144.28125 270.175781 5.039062-2.910156v5.816406zm0 0"/><path d="m149.320312 273.082031 5.039063-2.90625v5.816407zm0 0"/><path d="m154.359375 275.992188 5.039063-2.910157v5.820313zm0 0"/><path d="m159.398438 278.902344 5.035156-2.910156v5.816406zm0 0"/><path d="m179.550781 290.535156 5.039063-2.90625v5.816406zm0 0"/><path d="m184.589844 287.628906 5.035156-2.910156v5.816406zm0 0"/><path d="m204.742188 275.992188 5.039062-2.910157v5.820313zm0 0"/><path d="m209.78125 273.082031 5.035156-2.90625v5.816407zm0 0"/><path d="m214.816406 270.175781 5.039063-2.910156v5.816406zm0 0"/><path d="m234.972656 258.539062 5.035156-2.910156v5.820313zm0 0"/><path d="m240.007812 255.628906 5.039063-2.90625v5.816406zm0 0"/><path d="m245.046875 252.722656 5.039063-2.910156v5.816406zm0 0"/><path d="m265.199219 241.085938 5.039062-2.910157v5.820313zm0 0"/><path d="m270.238281 238.175781 5.039063-2.90625v5.816407zm0 0"/><path d="m270.238281 116.003906 5.039063-2.90625v5.816406zm0 0"/><path d="m245.046875 101.460938 5.039063-2.910157v5.820313zm0 0"/><path d="m240.007812 98.550781 5.039063-2.90625v5.816407zm0 0"/><path d="m214.816406 84.007812 5.039063-2.910156v5.820313zm0 0"/><path d="m209.78125 81.097656 5.035156-2.90625v5.816406zm0 0"/><path d="m184.589844 66.554688 5.035156-2.910157v5.820313zm0 0"/><path d="m174.511719 66.554688 5.039062-2.910157v5.820313zm0 0"/><path d="m159.398438 75.28125 5.035156-2.910156v5.820312zm0 0"/><path d="m144.28125 84.007812 5.039062-2.910156v5.820313zm0 0"/><path d="m109.015625 104.371094 5.035156-2.910156v5.816406zm0 0"/><path d="m93.898438 113.097656 5.039062-2.910156v5.816406zm0 0"/><path d="m78.785156 121.824219 5.039063-2.910157v5.816407zm0 0"/><path d="m78.785156 127.640625 5.039063-2.910156v5.820312zm0 0"/><path d="m78.785156 133.457031 5.039063-2.90625v5.816407zm0 0"/><path d="m78.785156 156.730469 5.039063-2.910157v5.816407zm0 0"/><path d="m78.785156 162.546875 5.039063-2.910156v5.820312zm0 0"/><path d="m78.785156 168.363281 5.039063-2.90625v5.816407zm0 0"/><path d="m78.785156 191.636719 5.039063-2.910157v5.816407zm0 0"/><path d="m78.785156 197.453125 5.039063-2.910156v5.820312zm0 0"/><path d="m78.785156 203.269531 5.039063-2.90625v5.816407zm0 0"/><path d="m78.785156 226.542969 5.039063-2.910157v5.816407zm0 0"/><path d="m78.785156 232.359375 5.039063-2.910156v5.820312zm0 0"/><path d="m78.785156 238.175781 5.039063-2.90625v5.816407zm0 0"/><path d="m93.898438 246.902344 5.039062-2.90625v5.816406zm0 0"/><path d="m109.015625 255.628906 5.035156-2.90625v5.816406zm0 0"/><path d="m144.28125 275.992188 5.039062-2.910157v5.820313zm0 0"/><path d="m159.398438 284.71875 5.035156-2.910156v5.820312zm0 0"/><path d="m174.511719 293.445312 5.039062-2.910156v5.820313zm0 0"/><path d="m184.589844 293.445312 5.035156-2.910156v5.820313zm0 0"/><path d="m209.78125 278.902344 5.035156-2.910156v5.816406zm0 0"/><path d="m214.816406 275.992188 5.039063-2.910157v5.820313zm0 0"/><path d="m240.007812 261.449219 5.039063-2.910157v5.816407zm0 0"/><path d="m245.046875 258.539062 5.039063-2.910156v5.820313zm0 0"/><path d="m270.238281 243.996094 5.039063-2.910156v5.816406zm0 0"/><path d="m285.355469 241.085938 5.035156-2.910157v5.820313zm0 0"/><path d="m285.355469 235.269531 5.035156-2.910156v5.816406zm0 0"/><path d="m285.355469 229.449219 5.035156-2.90625v5.816406zm0 0"/><path d="m285.355469 223.632812 5.035156-2.910156v5.820313zm0 0"/><path d="m285.355469 217.816406 5.035156-2.910156v5.816406zm0 0"/><path d="m285.355469 142.183594 5.035156-2.90625v5.816406zm0 0"/><path d="m285.355469 136.367188 5.035156-2.910157v5.820313zm0 0"/><path d="m285.355469 130.550781 5.035156-2.910156v5.816406zm0 0"/><path d="m285.355469 124.730469 5.035156-2.90625v5.816406zm0 0"/><path d="m285.355469 118.914062 5.035156-2.910156v5.820313zm0 0"/><path d="m275.277344 113.097656 5.039062-2.910156v5.816406zm0 0"/><path d="m270.238281 110.1875 5.039063-2.910156v5.820312zm0 0"/><path d="m265.199219 107.277344 5.039062-2.90625v5.816406zm0 0"/><path d="m260.164062 104.371094 5.035157-2.910156v5.816406zm0 0"/><path d="m255.125 101.460938 5.039062-2.910157v5.820313zm0 0"/><path d="m250.085938 98.550781 5.039062-2.90625v5.816407zm0 0"/><path d="m245.046875 95.644531 5.039063-2.910156v5.816406zm0 0"/><path d="m214.816406 78.191406 5.039063-2.910156v5.816406zm0 0"/><path d="m209.78125 75.28125 5.035156-2.910156v5.820312zm0 0"/><path d="m204.742188 72.371094 5.039062-2.90625v5.816406zm0 0"/><path d="m199.703125 69.464844 5.039063-2.910156v5.816406zm0 0"/><path d="m194.664062 66.554688 5.039063-2.910157v5.820313zm0 0"/><path d="m189.625 63.644531 5.039062-2.90625v5.816407zm0 0"/><path d="m184.589844 60.738281 5.035156-2.910156v5.816406zm0 0"/><path d="m73.746094 130.550781 5.039062-2.910156v5.816406zm0 0"/><path d="m73.746094 159.636719 5.039062-2.90625v5.816406zm0 0"/><path d="m73.746094 165.457031 5.039062-2.910156v5.816406zm0 0"/><path d="m73.746094 194.542969 5.039062-2.90625v5.816406zm0 0"/><path d="m73.746094 200.363281 5.039062-2.910156v5.816406zm0 0"/><path d="m73.746094 229.449219 5.039062-2.90625v5.816406zm0 0"/><path d="m184.589844 299.261719 5.035156-2.90625v5.816406zm0 0"/><path d="m189.625 296.355469 5.039062-2.910157v5.816407zm0 0"/><path d="m194.664062 293.445312 5.039063-2.910156v5.820313zm0 0"/><path d="m199.703125 290.535156 5.039063-2.90625v5.816406zm0 0"/><path d="m204.742188 287.628906 5.039062-2.910156v5.816406zm0 0"/><path d="m209.78125 284.71875 5.035156-2.910156v5.820312zm0 0"/><path d="m214.816406 281.808594 5.039063-2.90625v5.816406zm0 0"/><path d="m245.046875 264.355469 5.039063-2.90625v5.816406zm0 0"/><path d="m250.085938 261.449219 5.039062-2.910157v5.816407zm0 0"/><path d="m255.125 258.539062 5.039062-2.910156v5.820313zm0 0"/><path d="m260.164062 255.628906 5.035157-2.90625v5.816406zm0 0"/><path d="m265.199219 252.722656 5.039062-2.910156v5.816406zm0 0"/><path d="m270.238281 249.8125 5.039063-2.910156v5.820312zm0 0"/><path d="m275.277344 246.902344 5.039062-2.90625v5.816406zm0 0"/><path d="m290.390625 243.996094 5.039063-2.910156v5.816406zm0 0"/><path d="m290.390625 238.175781 5.039063-2.90625v5.816407zm0 0"/><path d="m290.390625 214.90625 5.039063-2.910156v5.820312zm0 0"/><path d="m290.390625 209.089844 5.039063-2.910156v5.816406zm0 0"/><path d="m290.390625 203.269531 5.039063-2.90625v5.816407zm0 0"/><path d="m290.390625 197.453125 5.039063-2.910156v5.820312zm0 0"/><path d="m290.390625 191.636719 5.039063-2.910157v5.816407zm0 0"/><path d="m290.390625 168.363281 5.039063-2.90625v5.816407zm0 0"/><path d="m290.390625 162.546875 5.039063-2.910156v5.820312zm0 0"/><path d="m290.390625 156.730469 5.039063-2.910157v5.816407zm0 0"/><path d="m290.390625 150.910156 5.039063-2.90625v5.816406zm0 0"/><path d="m290.390625 145.09375 5.039063-2.910156v5.820312zm0 0"/><path d="m290.390625 121.824219 5.039063-2.910157v5.816407zm0 0"/><path d="m290.390625 116.003906 5.039063-2.90625v5.816406zm0 0"/><path d="m270.238281 104.371094 5.039063-2.910156v5.816406zm0 0"/><path d="m250.085938 92.734375 5.039062-2.910156v5.820312zm0 0"/><path d="m214.816406 72.371094 5.039063-2.90625v5.816406zm0 0"/><path d="m194.664062 60.738281 5.039063-2.910156v5.816406zm0 0"/><path d="m174.511719 54.917969 5.039062-2.90625v5.816406zm0 0"/><path d="m169.472656 57.828125 5.039063-2.910156v5.820312zm0 0"/><path d="m164.433594 60.738281 5.039062-2.910156v5.816406zm0 0"/><path d="m159.398438 63.644531 5.035156-2.90625v5.816407zm0 0"/><path d="m154.359375 66.554688 5.039063-2.910157v5.820313zm0 0"/><path d="m88.859375 104.371094 5.039063-2.910156v5.816406zm0 0"/><path d="m83.824219 107.277344 5.035156-2.90625v5.816406zm0 0"/><path d="m78.785156 110.1875 5.039063-2.910156v5.820312zm0 0"/><path d="m73.746094 113.097656 5.039062-2.910156v5.816406zm0 0"/><path d="m68.707031 116.003906 5.039063-2.90625v5.816406zm0 0"/><path d="m68.707031 127.640625 5.039063-2.910156v5.820312zm0 0"/><path d="m68.707031 133.457031 5.039063-2.90625v5.816407zm0 0"/><path d="m68.707031 139.277344 5.039063-2.910156v5.816406zm0 0"/><path d="m68.707031 145.09375 5.039063-2.910156v5.820312zm0 0"/><path d="m68.707031 150.910156 5.039063-2.90625v5.816406zm0 0"/><path d="m68.707031 156.730469 5.039063-2.910157v5.816407zm0 0"/><path d="m68.707031 162.546875 5.039063-2.910156v5.820312zm0 0"/><path d="m68.707031 197.453125 5.039063-2.910156v5.820312zm0 0"/><path d="m68.707031 203.269531 5.039063-2.90625v5.816407zm0 0"/><path d="m68.707031 209.089844 5.039063-2.910156v5.816406zm0 0"/><path d="m68.707031 214.90625 5.039063-2.910156v5.820312zm0 0"/><path d="m68.707031 220.722656 5.039063-2.90625v5.816406zm0 0"/><path d="m68.707031 226.542969 5.039063-2.910157v5.816407zm0 0"/><path d="m68.707031 232.359375 5.039063-2.910156v5.820312zm0 0"/><path d="m68.707031 243.996094 5.039063-2.910156v5.816406zm0 0"/><path d="m73.746094 246.902344 5.039062-2.90625v5.816406zm0 0"/><path d="m78.785156 249.8125 5.039063-2.910156v5.820312zm0 0"/><path d="m83.824219 252.722656 5.035156-2.910156v5.816406zm0 0"/><path d="m88.859375 255.628906 5.039063-2.90625v5.816406zm0 0"/><path d="m154.359375 293.445312 5.039063-2.910156v5.820313zm0 0"/><path d="m159.398438 296.355469 5.035156-2.910157v5.816407zm0 0"/><path d="m164.433594 299.261719 5.039062-2.90625v5.816406zm0 0"/><path d="m169.472656 302.171875 5.039063-2.910156v5.820312zm0 0"/><path d="m174.511719 305.082031 5.039062-2.910156v5.816406zm0 0"/><path d="m194.664062 299.261719 5.039063-2.90625v5.816406zm0 0"/><path d="m214.816406 287.628906 5.039063-2.910156v5.816406zm0 0"/><path d="m250.085938 267.265625 5.039062-2.910156v5.820312zm0 0"/><path d="m270.238281 255.628906 5.039063-2.90625v5.816406zm0 0"/><path d="m295.429688 246.902344 5.039062-2.90625v5.816406zm0 0"/><path d="m295.429688 206.179688 5.039062-2.910157v5.820313zm0 0"/><path d="m295.429688 200.363281 5.039062-2.910156v5.816406zm0 0"/><path d="m295.429688 159.636719 5.039062-2.90625v5.816406zm0 0"/><path d="m295.429688 153.820312 5.039062-2.910156v5.820313zm0 0"/><path d="m295.429688 113.097656 5.039062-2.910156v5.816406zm0 0"/><path d="m260.164062 92.734375 5.035157-2.910156v5.820312zm0 0"/><path d="m255.125 89.824219 5.039062-2.90625v5.816406zm0 0"/><path d="m214.816406 66.554688 5.039063-2.910157v5.820313zm0 0"/><path d="m209.78125 63.644531 5.035156-2.90625v5.816407zm0 0"/><path d="m174.511719 49.101562 5.039062-2.910156v5.820313zm0 0"/><path d="m169.472656 52.011719 5.039063-2.910157v5.816407zm0 0"/><path d="m149.320312 63.644531 5.039063-2.90625v5.816407zm0 0"/><path d="m144.28125 66.554688 5.039062-2.910157v5.820313zm0 0"/><path d="m139.242188 69.464844 5.039062-2.910156v5.816406zm0 0"/><path d="m134.207031 72.371094 5.035157-2.90625v5.816406zm0 0"/><path d="m129.167969 75.28125 5.039062-2.910156v5.820312zm0 0"/><path d="m109.015625 86.917969 5.035156-2.910157v5.816407zm0 0"/><path d="m103.976562 89.824219 5.039063-2.90625v5.816406zm0 0"/><path d="m98.9375 92.734375 5.039062-2.910156v5.820312zm0 0"/><path d="m93.898438 95.644531 5.039062-2.910156v5.816406zm0 0"/><path d="m88.859375 98.550781 5.039063-2.90625v5.816407zm0 0"/><path d="m68.707031 110.1875 5.039063-2.910156v5.820312zm0 0"/><path d="m63.667969 113.097656 5.039062-2.910156v5.816406zm0 0"/><path d="m63.667969 136.367188 5.039062-2.910157v5.820313zm0 0"/><path d="m63.667969 159.636719 5.039062-2.90625v5.816406zm0 0"/><path d="m63.667969 200.363281 5.039062-2.910156v5.816406zm0 0"/><path d="m63.667969 223.632812 5.039062-2.910156v5.820313zm0 0"/><path d="m63.667969 246.902344 5.039062-2.90625v5.816406zm0 0"/><path d="m68.707031 249.8125 5.039063-2.910156v5.820312zm0 0"/><path d="m88.859375 261.449219 5.039063-2.910157v5.816407zm0 0"/><path d="m93.898438 264.355469 5.039062-2.90625v5.816406zm0 0"/><path d="m98.9375 267.265625 5.039062-2.910156v5.820312zm0 0"/><path d="m103.976562 270.175781 5.039063-2.910156v5.816406zm0 0"/><path d="m109.015625 273.082031 5.035156-2.90625v5.816407zm0 0"/><path d="m129.167969 284.71875 5.039062-2.910156v5.820312zm0 0"/><path d="m134.207031 287.628906 5.035157-2.910156v5.816406zm0 0"/><path d="m139.242188 290.535156 5.039062-2.90625v5.816406zm0 0"/><path d="m144.28125 293.445312 5.039062-2.910156v5.820313zm0 0"/><path d="m149.320312 296.355469 5.039063-2.910157v5.816407zm0 0"/><path d="m169.472656 307.988281 5.039063-2.90625v5.816407zm0 0"/><path d="m174.511719 310.898438 5.039062-2.910157v5.820313zm0 0"/><path d="m209.78125 296.355469 5.035156-2.910157v5.816407zm0 0"/><path d="m214.816406 293.445312 5.039063-2.910156v5.820313zm0 0"/><path d="m255.125 270.175781 5.039062-2.910156v5.816406zm0 0"/><path d="m260.164062 267.265625 5.035157-2.910156v5.820312zm0 0"/><path d="m300.46875 243.996094 5.039062-2.910156v5.816406zm0 0"/><path d="m300.46875 209.089844 5.039062-2.910156v5.816406zm0 0"/><path d="m300.46875 197.453125 5.039062-2.910156v5.820312zm0 0"/><path d="m300.46875 162.546875 5.039062-2.910156v5.820312zm0 0"/><path d="m300.46875 150.910156 5.039062-2.90625v5.816406zm0 0"/><path d="m300.46875 116.003906 5.039062-2.90625v5.816406zm0 0"/><path d="m295.429688 107.277344 5.039062-2.90625v5.816406zm0 0"/><path d="m290.390625 104.371094 5.039063-2.910156v5.816406zm0 0"/><path d="m285.355469 101.460938 5.035156-2.910157v5.820313zm0 0"/><path d="m280.316406 98.550781 5.039063-2.90625v5.816407zm0 0"/><path d="m275.277344 95.644531 5.039062-2.910156v5.816406zm0 0"/><path d="m270.238281 92.734375 5.039063-2.910156v5.820312zm0 0"/><path d="m265.199219 89.824219 5.039062-2.90625v5.816406zm0 0"/><path d="m260.164062 86.917969 5.035157-2.910157v5.816407zm0 0"/><path d="m214.816406 60.738281 5.039063-2.910156v5.816406zm0 0"/><path d="m209.78125 57.828125 5.035156-2.910156v5.820312zm0 0"/><path d="m204.742188 54.917969 5.039062-2.90625v5.816406zm0 0"/><path d="m199.703125 52.011719 5.039063-2.910157v5.816407zm0 0"/><path d="m194.664062 49.101562 5.039063-2.910156v5.820313zm0 0"/><path d="m189.625 46.191406 5.039062-2.90625v5.816406zm0 0"/><path d="m184.589844 43.285156 5.035156-2.910156v5.816406zm0 0"/><path d="m179.550781 40.375 5.039063-2.910156v5.820312zm0 0"/><path d="m174.511719 43.285156 5.039062-2.910156v5.816406zm0 0"/><path d="m139.242188 63.644531 5.039062-2.90625v5.816407zm0 0"/><path d="m134.207031 66.554688 5.035157-2.910157v5.820313zm0 0"/><path d="m98.9375 86.917969 5.039062-2.910157v5.816407zm0 0"/><path d="m93.898438 89.824219 5.039062-2.90625v5.816406zm0 0"/><path d="m58.632812 110.1875 5.035157-2.910156v5.820312zm0 0"/><path d="m58.632812 150.910156 5.035157-2.90625v5.816406zm0 0"/><path d="m58.632812 156.730469 5.035157-2.910157v5.816407zm0 0"/><path d="m58.632812 203.269531 5.035157-2.90625v5.816407zm0 0"/><path d="m58.632812 209.089844 5.035157-2.910156v5.816406zm0 0"/><path d="m58.632812 249.8125 5.035157-2.910156v5.820312zm0 0"/><path d="m93.898438 270.175781 5.039062-2.910156v5.816406zm0 0"/><path d="m98.9375 273.082031 5.039062-2.90625v5.816407zm0 0"/><path d="m134.207031 293.445312 5.035157-2.910156v5.820313zm0 0"/><path d="m139.242188 296.355469 5.039062-2.910157v5.816407zm0 0"/><path d="m174.511719 316.714844 5.039062-2.90625v5.816406zm0 0"/><path d="m179.550781 319.625 5.039063-2.910156v5.820312zm0 0"/><path d="m184.589844 316.714844 5.035156-2.90625v5.816406zm0 0"/><path d="m189.625 313.808594 5.039062-2.910156v5.816406zm0 0"/><path d="m194.664062 310.898438 5.039063-2.910157v5.820313zm0 0"/><path d="m199.703125 307.988281 5.039063-2.90625v5.816407zm0 0"/><path d="m204.742188 305.082031 5.039062-2.910156v5.816406zm0 0"/><path d="m209.78125 302.171875 5.035156-2.910156v5.820312zm0 0"/><path d="m214.816406 299.261719 5.039063-2.90625v5.816406zm0 0"/><path d="m260.164062 273.082031 5.035157-2.90625v5.816407zm0 0"/><path d="m265.199219 270.175781 5.039062-2.910156v5.816406zm0 0"/><path d="m270.238281 267.265625 5.039063-2.910156v5.820312zm0 0"/><path d="m275.277344 264.355469 5.039062-2.90625v5.816406zm0 0"/><path d="m280.316406 261.449219 5.039063-2.910157v5.816407zm0 0"/><path d="m285.355469 258.539062 5.035156-2.910156v5.820313zm0 0"/><path d="m290.390625 255.628906 5.039063-2.90625v5.816406zm0 0"/><path d="m295.429688 252.722656 5.039062-2.910156v5.816406zm0 0"/><path d="m300.46875 104.371094 5.039062-2.910156v5.816406zm0 0"/><path d="m260.164062 81.097656 5.035157-2.90625v5.816406zm0 0"/><path d="m219.855469 57.828125 5.039062-2.910156v5.820312zm0 0"/><path d="m179.550781 34.558594 5.039063-2.910156v5.816406zm0 0"/><path d="m169.472656 40.375 5.039063-2.910156v5.820312zm0 0"/><path d="m139.242188 57.828125 5.039062-2.910156v5.820312zm0 0"/><path d="m129.167969 63.644531 5.039062-2.90625v5.816407zm0 0"/><path d="m98.9375 81.097656 5.039062-2.90625v5.816406zm0 0"/><path d="m88.859375 86.917969 5.039063-2.910157v5.816407zm0 0"/><path d="m58.632812 104.371094 5.035157-2.910156v5.816406zm0 0"/><path d="m53.59375 113.097656 5.039062-2.910156v5.816406zm0 0"/><path d="m53.59375 118.914062 5.039062-2.910156v5.820313zm0 0"/><path d="m53.59375 124.730469 5.039062-2.90625v5.816406zm0 0"/><path d="m53.59375 130.550781 5.039062-2.910156v5.816406zm0 0"/><path d="m53.59375 136.367188 5.039062-2.910157v5.820313zm0 0"/><path d="m53.59375 142.183594 5.039062-2.90625v5.816406zm0 0"/><path d="m53.59375 148.003906 5.039062-2.910156v5.816406zm0 0"/><path d="m53.59375 153.820312 5.039062-2.910156v5.820313zm0 0"/><path d="m53.59375 206.179688 5.039062-2.910157v5.820313zm0 0"/><path d="m53.59375 211.996094 5.039062-2.90625v5.816406zm0 0"/><path d="m53.59375 217.816406 5.039062-2.910156v5.816406zm0 0"/><path d="m53.59375 223.632812 5.039062-2.910156v5.820313zm0 0"/><path d="m53.59375 229.449219 5.039062-2.90625v5.816406zm0 0"/><path d="m53.59375 235.269531 5.039062-2.910156v5.816406zm0 0"/><path d="m53.59375 241.085938 5.039062-2.910157v5.820313zm0 0"/><path d="m53.59375 246.902344 5.039062-2.90625v5.816406zm0 0"/><path d="m58.632812 255.628906 5.035157-2.90625v5.816406zm0 0"/><path d="m88.859375 273.082031 5.039063-2.90625v5.816407zm0 0"/><path d="m98.9375 278.902344 5.039062-2.910156v5.816406zm0 0"/><path d="m129.167969 296.355469 5.039062-2.910157v5.816407zm0 0"/><path d="m139.242188 302.171875 5.039062-2.910156v5.820312zm0 0"/><path d="m169.472656 319.625 5.039063-2.910156v5.820312zm0 0"/><path d="m179.550781 325.441406 5.039063-2.90625v5.816406zm0 0"/><path d="m219.855469 302.171875 5.039062-2.910156v5.820312zm0 0"/><path d="m260.164062 278.902344 5.035157-2.910156v5.816406zm0 0"/><path d="m300.46875 255.628906 5.039062-2.90625v5.816406zm0 0"/><path d="m48.554688 110.1875 5.039062-2.910156v5.820312zm0 0"/><path d="m48.554688 156.730469 5.039062-2.910157v5.816407zm0 0"/><path d="m48.554688 203.269531 5.039062-2.90625v5.816407zm0 0"/><path d="m48.554688 249.8125 5.039062-2.910156v5.820312zm0 0"/><path d="m194.664062 182.910156-5.039062-2.910156v5.816406zm0 0"/><path d="m194.664062 177.089844-5.039062-2.90625v5.816406zm0 0"/><path d="m179.550781 168.363281-5.039062-2.90625v5.816407zm0 0"/><path d="m174.511719 171.273438-5.039063-2.910157v5.820313zm0 0"/><path d="m174.511719 188.726562-5.039063-2.910156v5.820313zm0 0"/><path d="m179.550781 191.636719-5.039062-2.910157v5.816407zm0 0"/><path d="m204.742188 188.726562-5.039063-2.910156v5.820313zm0 0"/><path d="m204.742188 182.910156-5.039063-2.910156v5.816406zm0 0"/><path d="m204.742188 177.089844-5.039063-2.90625v5.816406zm0 0"/><path d="m204.742188 171.273438-5.039063-2.910157v5.820313zm0 0"/><path d="m209.78125 191.636719-5.039062-2.910157v5.816407zm0 0"/><path d="m209.78125 168.363281-5.039062-2.90625v5.816407zm0 0"/><path d="m204.742188 165.457031-5.039063-2.910156v5.816406zm0 0"/><path d="m184.589844 153.820312-5.039063-2.910156v5.820313zm0 0"/><path d="m179.550781 156.730469-5.039062-2.910157v5.816407zm0 0"/><path d="m174.511719 159.636719-5.039063-2.90625v5.816406zm0 0"/><path d="m169.472656 162.546875-5.039062-2.910156v5.820312zm0 0"/><path d="m164.433594 165.457031-5.035156-2.910156v5.816406zm0 0"/><path d="m164.433594 194.542969-5.035156-2.90625v5.816406zm0 0"/><path d="m169.472656 197.453125-5.039062-2.910156v5.820312zm0 0"/><path d="m174.511719 200.363281-5.039063-2.910156v5.816406zm0 0"/><path d="m179.550781 203.269531-5.039062-2.90625v5.816407zm0 0"/><path d="m184.589844 206.179688-5.039063-2.910157v5.820313zm0 0"/><path d="m204.742188 194.542969-5.039063-2.90625v5.816406zm0 0"/><path d="m214.816406 194.542969-5.035156-2.90625v5.816406zm0 0"/><path d="m214.816406 165.457031-5.035156-2.910156v5.816406zm0 0"/><path d="m204.742188 159.636719-5.039063-2.90625v5.816406zm0 0"/><path d="m189.625 150.910156-5.035156-2.90625v5.816406zm0 0"/><path d="m179.550781 150.910156-5.039062-2.90625v5.816406zm0 0"/><path d="m159.398438 162.546875-5.039063-2.910156v5.820312zm0 0"/><path d="m159.398438 168.363281-5.039063-2.90625v5.816407zm0 0"/><path d="m159.398438 191.636719-5.039063-2.910157v5.816407zm0 0"/><path d="m159.398438 197.453125-5.039063-2.910156v5.820312zm0 0"/><path d="m179.550781 209.089844-5.039062-2.910156v5.816406zm0 0"/><path d="m189.625 209.089844-5.035156-2.910156v5.816406zm0 0"/><path d="m204.742188 200.363281-5.039063-2.910156v5.816406zm0 0"/><path d="m214.816406 159.636719-5.035156-2.90625v5.816406zm0 0"/><path d="m204.742188 153.820312-5.039063-2.910156v5.820313zm0 0"/><path d="m194.664062 148.003906-5.039062-2.910156v5.816406zm0 0"/><path d="m184.589844 142.183594-5.039063-2.90625v5.816406zm0 0"/><path d="m179.550781 145.09375-5.039062-2.910156v5.820312zm0 0"/><path d="m154.359375 159.636719-5.039063-2.90625v5.816406zm0 0"/><path d="m154.359375 171.273438-5.039063-2.910157v5.820313zm0 0"/><path d="m154.359375 188.726562-5.039063-2.910156v5.820313zm0 0"/><path d="m154.359375 200.363281-5.039063-2.910156v5.816406zm0 0"/><path d="m179.550781 214.90625-5.039062-2.910156v5.820312zm0 0"/><path d="m184.589844 217.816406-5.039063-2.910156v5.816406zm0 0"/><path d="m194.664062 211.996094-5.039062-2.90625v5.816406zm0 0"/><path d="m204.742188 206.179688-5.039063-2.910157v5.820313zm0 0"/><path d="m214.816406 200.363281-5.035156-2.910156v5.816406zm0 0"/><path d="m224.894531 200.363281-5.039062-2.910156v5.816406zm0 0"/><path d="m224.894531 188.726562-5.039062-2.910156v5.820313zm0 0"/><path d="m224.894531 182.910156-5.039062-2.910156v5.816406zm0 0"/><path d="m224.894531 177.089844-5.039062-2.90625v5.816406zm0 0"/><path d="m224.894531 171.273438-5.039062-2.910157v5.820313zm0 0"/><path d="m224.894531 159.636719-5.039062-2.90625v5.816406zm0 0"/><path d="m214.816406 153.820312-5.035156-2.910156v5.820313zm0 0"/><path d="m204.742188 148.003906-5.039063-2.910156v5.816406zm0 0"/><path d="m199.703125 145.09375-5.039063-2.910156v5.820312zm0 0"/><path d="m189.625 139.277344-5.035156-2.910156v5.816406zm0 0"/><path d="m149.320312 162.546875-5.039062-2.910156v5.820312zm0 0"/><path d="m149.320312 174.183594-5.039062-2.910156v5.816406zm0 0"/><path d="m149.320312 185.816406-5.039062-2.90625v5.816406zm0 0"/><path d="m149.320312 197.453125-5.039062-2.910156v5.820312zm0 0"/><path d="m189.625 220.722656-5.035156-2.90625v5.816406zm0 0"/><path d="m199.703125 214.90625-5.039063-2.910156v5.820312zm0 0"/><path d="m204.742188 211.996094-5.039063-2.90625v5.816406zm0 0"/><path d="m214.816406 206.179688-5.035156-2.910157v5.820313zm0 0"/><path d="m229.933594 191.636719-5.039063-2.910157v5.816407zm0 0"/><path d="m229.933594 185.816406-5.039063-2.90625v5.816406zm0 0"/><path d="m229.933594 174.183594-5.039063-2.910156v5.816406zm0 0"/><path d="m229.933594 168.363281-5.039063-2.90625v5.816407zm0 0"/><path d="m219.855469 150.910156-5.039063-2.90625v5.816406zm0 0"/><path d="m209.78125 145.09375-5.039062-2.910156v5.820312zm0 0"/><path d="m199.703125 139.277344-5.039063-2.910156v5.816406zm0 0"/><path d="m189.625 133.457031-5.035156-2.90625v5.816407zm0 0"/><path d="m179.550781 133.457031-5.039062-2.90625v5.816407zm0 0"/><path d="m169.472656 139.277344-5.039062-2.910156v5.816406zm0 0"/><path d="m164.433594 142.183594-5.035156-2.90625v5.816406zm0 0"/><path d="m159.398438 145.09375-5.039063-2.910156v5.820312zm0 0"/><path d="m154.359375 148.003906-5.039063-2.910156v5.816406zm0 0"/><path d="m144.28125 153.820312-5.039062-2.910156v5.820313zm0 0"/><path d="m144.28125 165.457031-5.039062-2.910156v5.816406zm0 0"/><path d="m144.28125 177.089844-5.039062-2.90625v5.816406zm0 0"/><path d="m144.28125 182.910156-5.039062-2.910156v5.816406zm0 0"/><path d="m144.28125 194.542969-5.039062-2.90625v5.816406zm0 0"/><path d="m144.28125 206.179688-5.039062-2.910157v5.820313zm0 0"/><path d="m154.359375 211.996094-5.039063-2.90625v5.816406zm0 0"/><path d="m159.398438 214.90625-5.039063-2.910156v5.820312zm0 0"/><path d="m164.433594 217.816406-5.035156-2.910156v5.816406zm0 0"/><path d="m169.472656 220.722656-5.039062-2.90625v5.816406zm0 0"/><path d="m179.550781 226.542969-5.039062-2.910157v5.816407zm0 0"/><path d="m189.625 226.542969-5.035156-2.910157v5.816407zm0 0"/><path d="m199.703125 220.722656-5.039063-2.90625v5.816406zm0 0"/><path d="m209.78125 214.90625-5.039062-2.910156v5.820312zm0 0"/><path d="m219.855469 209.089844-5.039063-2.910156v5.816406zm0 0"/><path d="m234.972656 206.179688-5.039062-2.910157v5.820313zm0 0"/><path d="m234.972656 182.910156-5.039062-2.910156v5.816406zm0 0"/><path d="m234.972656 177.089844-5.039062-2.90625v5.816406zm0 0"/><path d="m234.972656 153.820312-5.039062-2.910156v5.820313zm0 0"/><path d="m224.894531 148.003906-5.039062-2.910156v5.816406zm0 0"/><path d="m219.855469 145.09375-5.039063-2.910156v5.820312zm0 0"/><path d="m194.664062 130.550781-5.039062-2.910156v5.816406zm0 0"/><path d="m189.625 127.640625-5.035156-2.910156v5.820312zm0 0"/><path d="m169.472656 133.457031-5.039062-2.90625v5.816407zm0 0"/><path d="m164.433594 136.367188-5.035156-2.910157v5.820313zm0 0"/><path d="m154.359375 142.183594-5.039063-2.90625v5.816406zm0 0"/><path d="m149.320312 145.09375-5.039062-2.910156v5.820312zm0 0"/><path d="m139.242188 162.546875-5.035157-2.910156v5.820312zm0 0"/><path d="m139.242188 174.183594-5.035157-2.910156v5.816406zm0 0"/><path d="m139.242188 185.816406-5.035157-2.90625v5.816406zm0 0"/><path d="m139.242188 197.453125-5.035157-2.910156v5.820312zm0 0"/><path d="m149.320312 214.90625-5.039062-2.910156v5.820312zm0 0"/><path d="m154.359375 217.816406-5.039063-2.910156v5.816406zm0 0"/><path d="m164.433594 223.632812-5.035156-2.910156v5.820313zm0 0"/><path d="m169.472656 226.542969-5.039062-2.910157v5.816407zm0 0"/><path d="m189.625 232.359375-5.035156-2.910156v5.820312zm0 0"/><path d="m194.664062 229.449219-5.039062-2.90625v5.816406zm0 0"/><path d="m219.855469 214.90625-5.039063-2.910156v5.820312zm0 0"/><path d="m224.894531 211.996094-5.039062-2.90625v5.816406zm0 0"/><path d="m234.972656 148.003906-5.039062-2.910156v5.816406zm0 0"/><path d="m219.855469 139.277344-5.039063-2.910156v5.816406zm0 0"/><path d="m199.703125 127.640625-5.039063-2.910156v5.820312zm0 0"/><path d="m184.589844 118.914062-5.039063-2.910156v5.820313zm0 0"/><path d="m179.550781 121.824219-5.039062-2.910157v5.816407zm0 0"/><path d="m159.398438 133.457031-5.039063-2.90625v5.816407zm0 0"/><path d="m154.359375 136.367188-5.039063-2.910157v5.820313zm0 0"/><path d="m134.207031 148.003906-5.039062-2.910156v5.816406zm0 0"/><path d="m134.207031 159.636719-5.039062-2.90625v5.816406zm0 0"/><path d="m134.207031 165.457031-5.039062-2.910156v5.816406zm0 0"/><path d="m134.207031 194.542969-5.039062-2.90625v5.816406zm0 0"/><path d="m134.207031 200.363281-5.039062-2.910156v5.816406zm0 0"/><path d="m134.207031 211.996094-5.039062-2.90625v5.816406zm0 0"/><path d="m154.359375 223.632812-5.039063-2.910156v5.820313zm0 0"/><path d="m159.398438 226.542969-5.039063-2.910157v5.816407zm0 0"/><path d="m179.550781 238.175781-5.039062-2.90625v5.816407zm0 0"/><path d="m184.589844 241.085938-5.039063-2.910157v5.820313zm0 0"/><path d="m199.703125 232.359375-5.039063-2.910156v5.820312zm0 0"/><path d="m219.855469 220.722656-5.039063-2.90625v5.816406zm0 0"/><path d="m234.972656 211.996094-5.039062-2.90625v5.816406zm0 0"/><path d="m245.046875 211.996094-5.039063-2.90625v5.816406zm0 0"/><path d="m245.046875 194.542969-5.039063-2.90625v5.816406zm0 0"/><path d="m245.046875 188.726562-5.039063-2.910156v5.820313zm0 0"/><path d="m245.046875 182.910156-5.039063-2.910156v5.816406zm0 0"/><path d="m245.046875 177.089844-5.039063-2.90625v5.816406zm0 0"/><path d="m245.046875 171.273438-5.039063-2.910157v5.820313zm0 0"/><path d="m245.046875 165.457031-5.039063-2.910156v5.816406zm0 0"/><path d="m245.046875 148.003906-5.039063-2.910156v5.816406zm0 0"/><path d="m240.007812 145.09375-5.035156-2.910156v5.820312zm0 0"/><path d="m234.972656 142.183594-5.039062-2.90625v5.816406zm0 0"/><path d="m229.933594 139.277344-5.039063-2.910156v5.816406zm0 0"/><path d="m219.855469 133.457031-5.039063-2.90625v5.816407zm0 0"/><path d="m204.742188 124.730469-5.039063-2.90625v5.816406zm0 0"/><path d="m194.664062 118.914062-5.039062-2.910156v5.820313zm0 0"/><path d="m189.625 116.003906-5.035156-2.90625v5.816406zm0 0"/><path d="m184.589844 113.097656-5.039063-2.910156v5.816406zm0 0"/><path d="m129.167969 150.910156-5.039063-2.90625v5.816406zm0 0"/><path d="m129.167969 168.363281-5.039063-2.90625v5.816407zm0 0"/><path d="m129.167969 191.636719-5.039063-2.910157v5.816407zm0 0"/><path d="m129.167969 209.089844-5.039063-2.910156v5.816406zm0 0"/><path d="m184.589844 246.902344-5.039063-2.90625v5.816406zm0 0"/><path d="m189.625 243.996094-5.035156-2.910156v5.816406zm0 0"/><path d="m194.664062 241.085938-5.039062-2.910157v5.820313zm0 0"/><path d="m204.742188 235.269531-5.039063-2.910156v5.816406zm0 0"/><path d="m219.855469 226.542969-5.039063-2.910157v5.816407zm0 0"/><path d="m229.933594 220.722656-5.039063-2.90625v5.816406zm0 0"/><path d="m234.972656 217.816406-5.039062-2.910156v5.816406zm0 0"/><path d="m240.007812 214.90625-5.035156-2.910156v5.820312zm0 0"/><path d="m250.085938 203.269531-5.039063-2.90625v5.816407zm0 0"/><path d="m250.085938 197.453125-5.039063-2.910156v5.820312zm0 0"/><path d="m250.085938 185.816406-5.039063-2.90625v5.816406zm0 0"/><path d="m250.085938 174.183594-5.039063-2.910156v5.816406zm0 0"/><path d="m250.085938 162.546875-5.039063-2.910156v5.820312zm0 0"/><path d="m250.085938 156.730469-5.039063-2.910157v5.816407zm0 0"/><path d="m234.972656 136.367188-5.039062-2.910157v5.820313zm0 0"/><path d="m229.933594 133.457031-5.039063-2.90625v5.816407zm0 0"/><path d="m224.894531 130.550781-5.039062-2.910156v5.816406zm0 0"/><path d="m219.855469 127.640625-5.039063-2.910156v5.820312zm0 0"/><path d="m209.78125 121.824219-5.039062-2.910157v5.816407zm0 0"/><path d="m204.742188 118.914062-5.039063-2.910156v5.820313zm0 0"/><path d="m199.703125 116.003906-5.039063-2.90625v5.816406zm0 0"/><path d="m194.664062 113.097656-5.039062-2.910156v5.816406zm0 0"/><path d="m179.550781 110.1875-5.039062-2.910156v5.820312zm0 0"/><path d="m164.433594 118.914062-5.035156-2.910156v5.820313zm0 0"/><path d="m159.398438 121.824219-5.039063-2.910157v5.816407zm0 0"/><path d="m154.359375 124.730469-5.039063-2.90625v5.816406zm0 0"/><path d="m149.320312 127.640625-5.039062-2.910156v5.820312zm0 0"/><path d="m144.28125 130.550781-5.039062-2.910156v5.816406zm0 0"/><path d="m139.242188 133.457031-5.035157-2.90625v5.816407zm0 0"/><path d="m124.128906 142.183594-5.039062-2.90625v5.816406zm0 0"/><path d="m124.128906 148.003906-5.039062-2.910156v5.816406zm0 0"/><path d="m124.128906 153.820312-5.039062-2.910156v5.820313zm0 0"/><path d="m124.128906 159.636719-5.039062-2.90625v5.816406zm0 0"/><path d="m124.128906 171.273438-5.039062-2.910157v5.820313zm0 0"/><path d="m124.128906 188.726562-5.039062-2.910156v5.820313zm0 0"/><path d="m124.128906 200.363281-5.039062-2.910156v5.816406zm0 0"/><path d="m124.128906 206.179688-5.039062-2.910157v5.820313zm0 0"/><path d="m124.128906 211.996094-5.039062-2.90625v5.816406zm0 0"/><path d="m124.128906 217.816406-5.039062-2.910156v5.816406zm0 0"/><path d="m139.242188 226.542969-5.035157-2.910157v5.816407zm0 0"/><path d="m144.28125 229.449219-5.039062-2.90625v5.816406zm0 0"/><path d="m149.320312 232.359375-5.039062-2.910156v5.820312zm0 0"/><path d="m154.359375 235.269531-5.039063-2.910156v5.816406zm0 0"/><path d="m159.398438 238.175781-5.039063-2.90625v5.816407zm0 0"/><path d="m164.433594 241.085938-5.035156-2.910157v5.820313zm0 0"/><path d="m179.550781 249.8125-5.039062-2.910156v5.820312zm0 0"/><path d="m194.664062 246.902344-5.039062-2.90625v5.816406zm0 0"/><path d="m199.703125 243.996094-5.039063-2.910156v5.816406zm0 0"/><path d="m204.742188 241.085938-5.039063-2.910157v5.820313zm0 0"/><path d="m209.78125 238.175781-5.039062-2.90625v5.816407zm0 0"/><path d="m219.855469 232.359375-5.039063-2.910156v5.820312zm0 0"/><path d="m224.894531 229.449219-5.039062-2.90625v5.816406zm0 0"/><path d="m229.933594 226.542969-5.039063-2.910157v5.816407zm0 0"/><path d="m234.972656 223.632812-5.039062-2.910156v5.820313zm0 0"/><path d="m255.125 200.363281-5.039062-2.910156v5.816406zm0 0"/><path d="m255.125 194.542969-5.039062-2.90625v5.816406zm0 0"/><path d="m255.125 182.910156-5.039062-2.910156v5.816406zm0 0"/><path d="m255.125 177.089844-5.039062-2.90625v5.816406zm0 0"/><path d="m255.125 165.457031-5.039062-2.910156v5.816406zm0 0"/><path d="m255.125 159.636719-5.039062-2.90625v5.816406zm0 0"/><path d="m250.085938 139.277344-5.039063-2.910156v5.816406zm0 0"/><path d="m229.933594 127.640625-5.039063-2.910156v5.820312zm0 0"/><path d="m204.742188 113.097656-5.039063-2.910156v5.816406zm0 0"/><path d="m184.589844 101.460938-5.039063-2.910157v5.820313zm0 0"/><path d="m169.472656 110.1875-5.039062-2.910156v5.820312zm0 0"/><path d="m164.433594 113.097656-5.035156-2.910156v5.816406zm0 0"/><path d="m154.359375 118.914062-5.039063-2.910156v5.820313zm0 0"/><path d="m144.28125 124.730469-5.039062-2.90625v5.816406zm0 0"/><path d="m134.207031 130.550781-5.039062-2.910156v5.816406zm0 0"/><path d="m129.167969 133.457031-5.039063-2.90625v5.816407zm0 0"/><path d="m119.089844 156.730469-5.039063-2.910157v5.816407zm0 0"/><path d="m119.089844 162.546875-5.039063-2.910156v5.820312zm0 0"/><path d="m119.089844 168.363281-5.039063-2.90625v5.816407zm0 0"/><path d="m119.089844 174.183594-5.039063-2.910156v5.816406zm0 0"/><path d="m119.089844 185.816406-5.039063-2.90625v5.816406zm0 0"/><path d="m119.089844 191.636719-5.039063-2.910157v5.816407zm0 0"/><path d="m119.089844 197.453125-5.039063-2.910156v5.820312zm0 0"/><path d="m119.089844 203.269531-5.039063-2.90625v5.816407zm0 0"/><path d="m129.167969 226.542969-5.039063-2.910157v5.816407zm0 0"/><path d="m134.207031 229.449219-5.039062-2.90625v5.816406zm0 0"/><path d="m144.28125 235.269531-5.039062-2.910156v5.816406zm0 0"/><path d="m154.359375 241.085938-5.039063-2.910157v5.820313zm0 0"/><path d="m164.433594 246.902344-5.035156-2.90625v5.816406zm0 0"/><path d="m169.472656 249.8125-5.039062-2.910156v5.820312zm0 0"/><path d="m184.589844 258.539062-5.039063-2.910156v5.820313zm0 0"/><path d="m204.742188 246.902344-5.039063-2.90625v5.816406zm0 0"/><path d="m229.933594 232.359375-5.039063-2.910156v5.820312zm0 0"/><path d="m250.085938 220.722656-5.039063-2.90625v5.816406zm0 0"/><path d="m255.125 136.367188-5.039062-2.910157v5.820313zm0 0"/><path d="m240.007812 127.640625-5.035156-2.910156v5.820312zm0 0"/><path d="m229.933594 121.824219-5.039063-2.910157v5.816407zm0 0"/><path d="m224.894531 118.914062-5.039062-2.910156v5.820313zm0 0"/><path d="m214.816406 113.097656-5.035156-2.910156v5.816406zm0 0"/><path d="m209.78125 110.1875-5.039062-2.910156v5.820312zm0 0"/><path d="m199.703125 104.371094-5.039063-2.910156v5.816406zm0 0"/><path d="m184.589844 95.644531-5.039063-2.910156v5.816406zm0 0"/><path d="m164.433594 107.277344-5.035156-2.90625v5.816406zm0 0"/><path d="m159.398438 110.1875-5.039063-2.910156v5.820312zm0 0"/><path d="m149.320312 116.003906-5.039062-2.90625v5.816406zm0 0"/><path d="m144.28125 118.914062-5.039062-2.910156v5.820313zm0 0"/><path d="m134.207031 124.730469-5.039062-2.90625v5.816406zm0 0"/><path d="m129.167969 127.640625-5.039063-2.910156v5.820312zm0 0"/><path d="m114.050781 142.183594-5.035156-2.90625v5.816406zm0 0"/><path d="m114.050781 165.457031-5.035156-2.910156v5.816406zm0 0"/><path d="m114.050781 194.542969-5.035156-2.90625v5.816406zm0 0"/><path d="m114.050781 217.816406-5.035156-2.910156v5.816406zm0 0"/><path d="m129.167969 232.359375-5.039063-2.910156v5.820312zm0 0"/><path d="m134.207031 235.269531-5.039062-2.910156v5.816406zm0 0"/><path d="m144.28125 241.085938-5.039062-2.910157v5.820313zm0 0"/><path d="m149.320312 243.996094-5.039062-2.910156v5.816406zm0 0"/><path d="m159.398438 249.8125-5.039063-2.910156v5.820312zm0 0"/><path d="m164.433594 252.722656-5.035156-2.910156v5.816406zm0 0"/><path d="m184.589844 264.355469-5.039063-2.90625v5.816406zm0 0"/><path d="m199.703125 255.628906-5.039063-2.90625v5.816406zm0 0"/><path d="m209.78125 249.8125-5.039062-2.910156v5.820312zm0 0"/><path d="m214.816406 246.902344-5.035156-2.90625v5.816406zm0 0"/><path d="m224.894531 241.085938-5.039062-2.910157v5.820313zm0 0"/><path d="m229.933594 238.175781-5.039063-2.90625v5.816407zm0 0"/><path d="m240.007812 232.359375-5.035156-2.910156v5.820312zm0 0"/><path d="m255.125 223.632812-5.039062-2.910156v5.820313zm0 0"/><path d="m265.199219 211.996094-5.035157-2.90625v5.816406zm0 0"/><path d="m265.199219 206.179688-5.035157-2.910157v5.820313zm0 0"/><path d="m265.199219 200.363281-5.035157-2.910156v5.816406zm0 0"/><path d="m265.199219 194.542969-5.035157-2.90625v5.816406zm0 0"/><path d="m265.199219 188.726562-5.035157-2.910156v5.820313zm0 0"/><path d="m265.199219 182.910156-5.035157-2.910156v5.816406zm0 0"/><path d="m265.199219 177.089844-5.035157-2.90625v5.816406zm0 0"/><path d="m265.199219 171.273438-5.035157-2.910157v5.820313zm0 0"/><path d="m265.199219 165.457031-5.035157-2.910156v5.816406zm0 0"/><path d="m265.199219 159.636719-5.035157-2.90625v5.816406zm0 0"/><path d="m265.199219 153.820312-5.035157-2.910156v5.820313zm0 0"/><path d="m265.199219 148.003906-5.035157-2.910156v5.816406zm0 0"/><path d="m255.125 130.550781-5.039062-2.910156v5.816406zm0 0"/><path d="m240.007812 121.824219-5.035156-2.910157v5.816407zm0 0"/><path d="m234.972656 118.914062-5.039062-2.910156v5.820313zm0 0"/><path d="m209.78125 104.371094-5.039062-2.910156v5.816406zm0 0"/><path d="m204.742188 101.460938-5.039063-2.910157v5.820313zm0 0"/><path d="m189.625 92.734375-5.035156-2.910156v5.820312zm0 0"/><path d="m109.015625 139.277344-5.039063-2.910156v5.816406zm0 0"/><path d="m109.015625 156.730469-5.039063-2.910157v5.816407zm0 0"/><path d="m109.015625 168.363281-5.039063-2.90625v5.816407zm0 0"/><path d="m109.015625 174.183594-5.039063-2.910156v5.816406zm0 0"/><path d="m109.015625 185.816406-5.039063-2.90625v5.816406zm0 0"/><path d="m109.015625 191.636719-5.039063-2.910157v5.816407zm0 0"/><path d="m109.015625 203.269531-5.039063-2.90625v5.816407zm0 0"/><path d="m109.015625 220.722656-5.039063-2.90625v5.816406zm0 0"/><path d="m189.625 267.265625-5.035156-2.910156v5.820312zm0 0"/><path d="m204.742188 258.539062-5.039063-2.910156v5.820313zm0 0"/><path d="m209.78125 255.628906-5.039062-2.90625v5.816406zm0 0"/><path d="m234.972656 241.085938-5.039062-2.910157v5.820313zm0 0"/><path d="m240.007812 238.175781-5.035156-2.90625v5.816407zm0 0"/><path d="m255.125 229.449219-5.039062-2.90625v5.816406zm0 0"/><path d="m270.238281 226.542969-5.039062-2.910157v5.816407zm0 0"/><path d="m270.238281 220.722656-5.039062-2.90625v5.816406zm0 0"/><path d="m270.238281 197.453125-5.039062-2.910156v5.820312zm0 0"/><path d="m270.238281 191.636719-5.039062-2.910157v5.816407zm0 0"/><path d="m270.238281 185.816406-5.039062-2.90625v5.816406zm0 0"/><path d="m270.238281 174.183594-5.039062-2.910156v5.816406zm0 0"/><path d="m270.238281 168.363281-5.039062-2.90625v5.816407zm0 0"/><path d="m270.238281 162.546875-5.039062-2.910156v5.820312zm0 0"/><path d="m270.238281 139.277344-5.039062-2.910156v5.816406zm0 0"/><path d="m270.238281 133.457031-5.039062-2.90625v5.816407zm0 0"/><path d="m260.164062 127.640625-5.039062-2.910156v5.820312zm0 0"/><path d="m250.085938 121.824219-5.039063-2.910157v5.816407zm0 0"/><path d="m199.703125 92.734375-5.039063-2.910156v5.820312zm0 0"/><path d="m189.625 86.917969-5.035156-2.910157v5.816407zm0 0"/><path d="m169.472656 92.734375-5.039062-2.910156v5.820312zm0 0"/><path d="m164.433594 95.644531-5.035156-2.910156v5.816406zm0 0"/><path d="m159.398438 98.550781-5.039063-2.90625v5.816407zm0 0"/><path d="m154.359375 101.460938-5.039063-2.910157v5.820313zm0 0"/><path d="m149.320312 104.371094-5.039062-2.910156v5.816406zm0 0"/><path d="m144.28125 107.277344-5.039062-2.90625v5.816406zm0 0"/><path d="m139.242188 110.1875-5.035157-2.910156v5.820312zm0 0"/><path d="m134.207031 113.097656-5.039062-2.910156v5.816406zm0 0"/><path d="m129.167969 116.003906-5.039063-2.90625v5.816406zm0 0"/><path d="m124.128906 118.914062-5.039062-2.910156v5.820313zm0 0"/><path d="m119.089844 121.824219-5.039063-2.910157v5.816407zm0 0"/><path d="m114.050781 124.730469-5.035156-2.90625v5.816406zm0 0"/><path d="m103.976562 142.183594-5.039062-2.90625v5.816406zm0 0"/><path d="m103.976562 159.636719-5.039062-2.90625v5.816406zm0 0"/><path d="m103.976562 165.457031-5.039062-2.910156v5.816406zm0 0"/><path d="m103.976562 194.542969-5.039062-2.90625v5.816406zm0 0"/><path d="m103.976562 200.363281-5.039062-2.910156v5.816406zm0 0"/><path d="m103.976562 217.816406-5.039062-2.910156v5.816406zm0 0"/><path d="m114.050781 235.269531-5.035156-2.910156v5.816406zm0 0"/><path d="m119.089844 238.175781-5.039063-2.90625v5.816407zm0 0"/><path d="m124.128906 241.085938-5.039062-2.910157v5.820313zm0 0"/><path d="m129.167969 243.996094-5.039063-2.910156v5.816406zm0 0"/><path d="m134.207031 246.902344-5.039062-2.90625v5.816406zm0 0"/><path d="m139.242188 249.8125-5.035157-2.910156v5.820312zm0 0"/><path d="m144.28125 252.722656-5.039062-2.910156v5.816406zm0 0"/><path d="m149.320312 255.628906-5.039062-2.90625v5.816406zm0 0"/><path d="m154.359375 258.539062-5.039063-2.910156v5.820313zm0 0"/><path d="m159.398438 261.449219-5.039063-2.910157v5.816407zm0 0"/><path d="m164.433594 264.355469-5.035156-2.90625v5.816406zm0 0"/><path d="m169.472656 267.265625-5.039062-2.910156v5.820312zm0 0"/><path d="m189.625 273.082031-5.035156-2.90625v5.816407zm0 0"/><path d="m199.703125 267.265625-5.039063-2.910156v5.820312zm0 0"/><path d="m250.085938 238.175781-5.039063-2.90625v5.816407zm0 0"/><path d="m260.164062 232.359375-5.039062-2.910156v5.820312zm0 0"/><path d="m275.277344 229.449219-5.039063-2.90625v5.816406zm0 0"/><path d="m275.277344 223.632812-5.039063-2.910156v5.820313zm0 0"/><path d="m275.277344 217.816406-5.039063-2.910156v5.816406zm0 0"/><path d="m275.277344 206.179688-5.039063-2.910157v5.820313zm0 0"/><path d="m275.277344 188.726562-5.039063-2.910156v5.820313zm0 0"/><path d="m275.277344 171.273438-5.039063-2.910157v5.820313zm0 0"/><path d="m275.277344 153.820312-5.039063-2.910156v5.820313zm0 0"/><path d="m275.277344 142.183594-5.039063-2.90625v5.816406zm0 0"/><path d="m275.277344 136.367188-5.039063-2.910157v5.820313zm0 0"/><path d="m275.277344 130.550781-5.039063-2.910156v5.816406zm0 0"/><path d="m255.125 118.914062-5.039062-2.910156v5.820313zm0 0"/><path d="m250.085938 116.003906-5.039063-2.90625v5.816406zm0 0"/><path d="m234.972656 107.277344-5.039062-2.90625v5.816406zm0 0"/><path d="m229.933594 104.371094-5.039063-2.910156v5.816406zm0 0"/><path d="m224.894531 101.460938-5.039062-2.910157v5.820313zm0 0"/><path d="m219.855469 98.550781-5.039063-2.90625v5.816407zm0 0"/><path d="m204.742188 89.824219-5.039063-2.90625v5.816406zm0 0"/><path d="m199.703125 86.917969-5.039063-2.910157v5.816407zm0 0"/><path d="m179.550781 81.097656-5.039062-2.90625v5.816406zm0 0"/><path d="m174.511719 84.007812-5.039063-2.910156v5.820313zm0 0"/><path d="m154.359375 95.644531-5.039063-2.910156v5.816406zm0 0"/><path d="m149.320312 98.550781-5.039062-2.90625v5.816407zm0 0"/><path d="m144.28125 101.460938-5.039062-2.910157v5.820313zm0 0"/><path d="m134.207031 107.277344-5.039062-2.90625v5.816406zm0 0"/><path d="m129.167969 110.1875-5.039063-2.910156v5.820312zm0 0"/><path d="m124.128906 113.097656-5.039062-2.910156v5.816406zm0 0"/><path d="m103.976562 124.730469-5.039062-2.90625v5.816406zm0 0"/><path d="m98.9375 127.640625-5.039062-2.910156v5.820312zm0 0"/><path d="m98.9375 139.277344-5.039062-2.910156v5.816406zm0 0"/><path d="m98.9375 150.910156-5.039062-2.90625v5.816406zm0 0"/><path d="m98.9375 209.089844-5.039062-2.910156v5.816406zm0 0"/><path d="m98.9375 220.722656-5.039062-2.90625v5.816406zm0 0"/><path d="m98.9375 232.359375-5.039062-2.910156v5.820312zm0 0"/><path d="m103.976562 235.269531-5.039062-2.910156v5.816406zm0 0"/><path d="m124.128906 246.902344-5.039062-2.90625v5.816406zm0 0"/><path d="m129.167969 249.8125-5.039063-2.910156v5.820312zm0 0"/><path d="m134.207031 252.722656-5.039062-2.910156v5.816406zm0 0"/><path d="m144.28125 258.539062-5.039062-2.910156v5.820313zm0 0"/><path d="m149.320312 261.449219-5.039062-2.910157v5.816407zm0 0"/><path d="m154.359375 264.355469-5.039063-2.90625v5.816406zm0 0"/><path d="m174.511719 275.992188-5.039063-2.910157v5.820313zm0 0"/><path d="m179.550781 278.902344-5.039062-2.910156v5.816406zm0 0"/><path d="m199.703125 273.082031-5.039063-2.90625v5.816407zm0 0"/><path d="m204.742188 270.175781-5.039063-2.910156v5.816406zm0 0"/><path d="m219.855469 261.449219-5.039063-2.910157v5.816407zm0 0"/><path d="m224.894531 258.539062-5.039062-2.910156v5.820313zm0 0"/><path d="m229.933594 255.628906-5.039063-2.90625v5.816406zm0 0"/><path d="m234.972656 252.722656-5.039062-2.910156v5.816406zm0 0"/><path d="m250.085938 243.996094-5.039063-2.910156v5.816406zm0 0"/><path d="m255.125 241.085938-5.039062-2.910157v5.820313zm0 0"/><path d="m280.316406 232.359375-5.039062-2.910156v5.820312zm0 0"/><path d="m280.316406 226.542969-5.039062-2.910157v5.816407zm0 0"/><path d="m280.316406 203.269531-5.039062-2.90625v5.816407zm0 0"/><path d="m280.316406 197.453125-5.039062-2.910156v5.820312zm0 0"/><path d="m280.316406 191.636719-5.039062-2.910157v5.816407zm0 0"/><path d="m280.316406 168.363281-5.039062-2.90625v5.816407zm0 0"/><path d="m280.316406 162.546875-5.039062-2.910156v5.820312zm0 0"/><path d="m280.316406 156.730469-5.039062-2.910157v5.816407zm0 0"/><path d="m280.316406 133.457031-5.039062-2.90625v5.816407zm0 0"/><path d="m280.316406 127.640625-5.039062-2.910156v5.820312zm0 0"/><path d="m260.164062 116.003906-5.039062-2.90625v5.816406zm0 0"/><path d="m255.125 113.097656-5.039062-2.910156v5.816406zm0 0"/><path d="m250.085938 110.1875-5.039063-2.910156v5.820312zm0 0"/><path d="m245.046875 107.277344-5.039063-2.90625v5.816406zm0 0"/><path d="m214.816406 89.824219-5.035156-2.90625v5.816406zm0 0"/><path d="m209.78125 86.917969-5.039062-2.910157v5.816407zm0 0"/><path d="m204.742188 84.007812-5.039063-2.910156v5.820313zm0 0"/><path d="m199.703125 81.097656-5.039063-2.90625v5.816406zm0 0"/><path d="m179.550781 75.28125-5.039062-2.910156v5.820312zm0 0"/><path d="m174.511719 78.191406-5.039063-2.910156v5.816406zm0 0"/><path d="m169.472656 81.097656-5.039062-2.90625v5.816406zm0 0"/><path d="m159.398438 86.917969-5.039063-2.910157v5.816407zm0 0"/><path d="m144.28125 95.644531-5.039062-2.910156v5.816406zm0 0"/><path d="m129.167969 104.371094-5.039063-2.910156v5.816406zm0 0"/><path d="m114.050781 113.097656-5.035156-2.910156v5.816406zm0 0"/><path d="m103.976562 118.914062-5.039062-2.910156v5.820313zm0 0"/><path d="m98.9375 121.824219-5.039062-2.910157v5.816407zm0 0"/><path d="m93.898438 124.730469-5.039063-2.90625v5.816406zm0 0"/><path d="m93.898438 148.003906-5.039063-2.910156v5.816406zm0 0"/><path d="m93.898438 153.820312-5.039063-2.910156v5.820313zm0 0"/><path d="m93.898438 171.273438-5.039063-2.910157v5.820313zm0 0"/><path d="m93.898438 177.089844-5.039063-2.90625v5.816406zm0 0"/><path d="m93.898438 182.910156-5.039063-2.910156v5.816406zm0 0"/><path d="m93.898438 188.726562-5.039063-2.910156v5.820313zm0 0"/><path d="m93.898438 206.179688-5.039063-2.910157v5.820313zm0 0"/><path d="m93.898438 211.996094-5.039063-2.90625v5.816406zm0 0"/><path d="m93.898438 235.269531-5.039063-2.910156v5.816406zm0 0"/><path d="m98.9375 238.175781-5.039062-2.90625v5.816407zm0 0"/><path d="m103.976562 241.085938-5.039062-2.910157v5.820313zm0 0"/><path d="m114.050781 246.902344-5.035156-2.90625v5.816406zm0 0"/><path d="m129.167969 255.628906-5.039063-2.90625v5.816406zm0 0"/><path d="m144.28125 264.355469-5.039062-2.90625v5.816406zm0 0"/><path d="m159.398438 273.082031-5.039063-2.90625v5.816407zm0 0"/><path d="m169.472656 278.902344-5.039062-2.910156v5.816406zm0 0"/><path d="m174.511719 281.808594-5.039063-2.90625v5.816406zm0 0"/><path d="m179.550781 284.71875-5.039062-2.910156v5.820312zm0 0"/><path d="m199.703125 278.902344-5.039063-2.910156v5.816406zm0 0"/><path d="m204.742188 275.992188-5.039063-2.910157v5.820313zm0 0"/><path d="m209.78125 273.082031-5.039062-2.90625v5.816407zm0 0"/><path d="m214.816406 270.175781-5.035156-2.910156v5.816406zm0 0"/><path d="m245.046875 252.722656-5.039063-2.910156v5.816406zm0 0"/><path d="m250.085938 249.8125-5.039063-2.910156v5.820312zm0 0"/><path d="m255.125 246.902344-5.039062-2.90625v5.816406zm0 0"/><path d="m260.164062 243.996094-5.039062-2.910156v5.816406zm0 0"/><path d="m285.355469 229.449219-5.039063-2.90625v5.816406zm0 0"/><path d="m285.355469 200.363281-5.039063-2.910156v5.816406zm0 0"/><path d="m285.355469 194.542969-5.039063-2.90625v5.816406zm0 0"/><path d="m285.355469 165.457031-5.039063-2.910156v5.816406zm0 0"/><path d="m285.355469 159.636719-5.039063-2.90625v5.816406zm0 0"/><path d="m285.355469 130.550781-5.039063-2.910156v5.816406zm0 0"/><path d="m280.316406 121.824219-5.039062-2.910157v5.816407zm0 0"/><path d="m265.199219 113.097656-5.035157-2.910156v5.816406zm0 0"/><path d="m250.085938 104.371094-5.039063-2.910156v5.816406zm0 0"/><path d="m214.816406 84.007812-5.035156-2.910156v5.820313zm0 0"/><path d="m199.703125 75.28125-5.039063-2.910156v5.820312zm0 0"/><path d="m184.589844 66.554688-5.039063-2.910157v5.820313zm0 0"/><path d="m179.550781 69.464844-5.039062-2.910156v5.816406zm0 0"/><path d="m174.511719 72.371094-5.039063-2.90625v5.816406zm0 0"/><path d="m154.359375 84.007812-5.039063-2.910156v5.820313zm0 0"/><path d="m149.320312 86.917969-5.039062-2.910157v5.816407zm0 0"/><path d="m144.28125 89.824219-5.039062-2.90625v5.816406zm0 0"/><path d="m124.128906 101.460938-5.039062-2.910157v5.820313zm0 0"/><path d="m119.089844 104.371094-5.039063-2.910156v5.816406zm0 0"/><path d="m114.050781 107.277344-5.035156-2.90625v5.816406zm0 0"/><path d="m93.898438 118.914062-5.039063-2.910156v5.820313zm0 0"/><path d="m88.859375 121.824219-5.035156-2.910157v5.816407zm0 0"/><path d="m88.859375 145.09375-5.035156-2.910156v5.820312zm0 0"/><path d="m88.859375 150.910156-5.035156-2.90625v5.816406zm0 0"/><path d="m88.859375 156.730469-5.035156-2.910157v5.816407zm0 0"/><path d="m88.859375 162.546875-5.035156-2.910156v5.820312zm0 0"/><path d="m88.859375 197.453125-5.035156-2.910156v5.820312zm0 0"/><path d="m88.859375 203.269531-5.035156-2.90625v5.816407zm0 0"/><path d="m88.859375 209.089844-5.035156-2.910156v5.816406zm0 0"/><path d="m88.859375 214.90625-5.035156-2.910156v5.820312zm0 0"/><path d="m88.859375 238.175781-5.035156-2.90625v5.816407zm0 0"/><path d="m93.898438 241.085938-5.039063-2.910157v5.820313zm0 0"/><path d="m114.050781 252.722656-5.035156-2.910156v5.816406zm0 0"/><path d="m119.089844 255.628906-5.039063-2.90625v5.816406zm0 0"/><path d="m124.128906 258.539062-5.039062-2.910156v5.820313zm0 0"/><path d="m144.28125 270.175781-5.039062-2.910156v5.816406zm0 0"/><path d="m149.320312 273.082031-5.039062-2.90625v5.816407zm0 0"/><path d="m154.359375 275.992188-5.039063-2.910157v5.820313zm0 0"/><path d="m174.511719 287.628906-5.039063-2.910156v5.816406zm0 0"/><path d="m179.550781 290.535156-5.039062-2.90625v5.816406zm0 0"/><path d="m184.589844 293.445312-5.039063-2.910156v5.820313zm0 0"/><path d="m199.703125 284.71875-5.039063-2.910156v5.820312zm0 0"/><path d="m214.816406 275.992188-5.035156-2.910157v5.820313zm0 0"/><path d="m250.085938 255.628906-5.039063-2.90625v5.816406zm0 0"/><path d="m265.199219 246.902344-5.035157-2.90625v5.816406zm0 0"/><path d="m280.316406 238.175781-5.039062-2.90625v5.816407zm0 0"/><path d="m290.390625 232.359375-5.035156-2.910156v5.820312zm0 0"/><path d="m290.390625 226.542969-5.035156-2.910157v5.816407zm0 0"/><path d="m290.390625 220.722656-5.035156-2.90625v5.816406zm0 0"/><path d="m290.390625 214.90625-5.035156-2.910156v5.820312zm0 0"/><path d="m290.390625 209.089844-5.035156-2.910156v5.816406zm0 0"/><path d="m290.390625 203.269531-5.035156-2.90625v5.816407zm0 0"/><path d="m290.390625 197.453125-5.035156-2.910156v5.820312zm0 0"/><path d="m290.390625 162.546875-5.035156-2.910156v5.820312zm0 0"/><path d="m290.390625 156.730469-5.035156-2.910157v5.816407zm0 0"/><path d="m290.390625 150.910156-5.035156-2.90625v5.816406zm0 0"/><path d="m290.390625 145.09375-5.035156-2.910156v5.820312zm0 0"/><path d="m290.390625 139.277344-5.035156-2.910156v5.816406zm0 0"/><path d="m290.390625 133.457031-5.035156-2.90625v5.816407zm0 0"/><path d="m290.390625 127.640625-5.035156-2.910156v5.820312zm0 0"/><path d="m174.511719 66.554688-5.039063-2.910157v5.820313zm0 0"/><path d="m149.320312 81.097656-5.039062-2.90625v5.816406zm0 0"/><path d="m144.28125 84.007812-5.039062-2.910156v5.820313zm0 0"/><path d="m119.089844 98.550781-5.039063-2.90625v5.816407zm0 0"/><path d="m114.050781 101.460938-5.035156-2.910157v5.820313zm0 0"/><path d="m88.859375 116.003906-5.035156-2.90625v5.816406zm0 0"/><path d="m83.824219 124.730469-5.039063-2.90625v5.816406zm0 0"/><path d="m83.824219 142.183594-5.039063-2.90625v5.816406zm0 0"/><path d="m83.824219 159.636719-5.039063-2.90625v5.816406zm0 0"/><path d="m83.824219 200.363281-5.039063-2.910156v5.816406zm0 0"/><path d="m83.824219 217.816406-5.039063-2.910156v5.816406zm0 0"/><path d="m83.824219 235.269531-5.039063-2.910156v5.816406zm0 0"/><path d="m88.859375 243.996094-5.035156-2.910156v5.816406zm0 0"/><path d="m114.050781 258.539062-5.035156-2.910156v5.820313zm0 0"/><path d="m119.089844 261.449219-5.039063-2.910157v5.816407zm0 0"/><path d="m144.28125 275.992188-5.039062-2.910157v5.820313zm0 0"/><path d="m149.320312 278.902344-5.039062-2.910156v5.816406zm0 0"/><path d="m174.511719 293.445312-5.039063-2.910156v5.820313zm0 0"/><path d="m295.429688 223.632812-5.039063-2.910156v5.820313zm0 0"/><path d="m295.429688 200.363281-5.039063-2.910156v5.816406zm0 0"/><path d="m295.429688 159.636719-5.039063-2.90625v5.816406zm0 0"/><path d="m295.429688 136.367188-5.039063-2.910157v5.820313zm0 0"/><path d="m290.390625 116.003906-5.035156-2.90625v5.816406zm0 0"/><path d="m285.355469 113.097656-5.039063-2.910156v5.816406zm0 0"/><path d="m280.316406 110.1875-5.039062-2.910156v5.820312zm0 0"/><path d="m275.277344 107.277344-5.039063-2.90625v5.816406zm0 0"/><path d="m270.238281 104.371094-5.039062-2.910156v5.816406zm0 0"/><path d="m204.742188 66.554688-5.039063-2.910157v5.820313zm0 0"/><path d="m199.703125 63.644531-5.039063-2.90625v5.816407zm0 0"/><path d="m194.664062 60.738281-5.039062-2.910156v5.816406zm0 0"/><path d="m189.625 57.828125-5.035156-2.910156v5.820312zm0 0"/><path d="m184.589844 54.917969-5.039063-2.90625v5.816406zm0 0"/><path d="m174.511719 60.738281-5.039063-2.910156v5.816406zm0 0"/><path d="m169.472656 63.644531-5.039062-2.90625v5.816407zm0 0"/><path d="m164.433594 66.554688-5.035156-2.910157v5.820313zm0 0"/><path d="m159.398438 69.464844-5.039063-2.910156v5.816406zm0 0"/><path d="m154.359375 72.371094-5.039063-2.90625v5.816406zm0 0"/><path d="m149.320312 75.28125-5.039062-2.910156v5.820312zm0 0"/><path d="m144.28125 78.191406-5.039062-2.910156v5.816406zm0 0"/><path d="m114.050781 95.644531-5.035156-2.910156v5.816406zm0 0"/><path d="m109.015625 98.550781-5.039063-2.90625v5.816407zm0 0"/><path d="m103.976562 101.460938-5.039062-2.910157v5.820313zm0 0"/><path d="m98.9375 104.371094-5.039062-2.910156v5.816406zm0 0"/><path d="m93.898438 107.277344-5.039063-2.90625v5.816406zm0 0"/><path d="m88.859375 110.1875-5.035156-2.910156v5.820312zm0 0"/><path d="m83.824219 113.097656-5.039063-2.910156v5.816406zm0 0"/><path d="m83.824219 246.902344-5.039063-2.90625v5.816406zm0 0"/><path d="m88.859375 249.8125-5.035156-2.910156v5.820312zm0 0"/><path d="m93.898438 252.722656-5.039063-2.910156v5.816406zm0 0"/><path d="m98.9375 255.628906-5.039062-2.90625v5.816406zm0 0"/><path d="m103.976562 258.539062-5.039062-2.910156v5.820313zm0 0"/><path d="m109.015625 261.449219-5.039063-2.910157v5.816407zm0 0"/><path d="m114.050781 264.355469-5.035156-2.90625v5.816406zm0 0"/><path d="m144.28125 281.808594-5.039062-2.90625v5.816406zm0 0"/><path d="m149.320312 284.71875-5.039062-2.910156v5.820312zm0 0"/><path d="m154.359375 287.628906-5.039063-2.910156v5.816406zm0 0"/><path d="m159.398438 290.535156-5.039063-2.90625v5.816406zm0 0"/><path d="m164.433594 293.445312-5.035156-2.910156v5.820313zm0 0"/><path d="m169.472656 296.355469-5.039062-2.910157v5.816407zm0 0"/><path d="m174.511719 299.261719-5.039063-2.90625v5.816406zm0 0"/><path d="m184.589844 305.082031-5.039063-2.910156v5.816406zm0 0"/><path d="m189.625 302.171875-5.035156-2.910156v5.820312zm0 0"/><path d="m194.664062 299.261719-5.039062-2.90625v5.816406zm0 0"/><path d="m199.703125 296.355469-5.039063-2.910157v5.816407zm0 0"/><path d="m204.742188 293.445312-5.039063-2.910156v5.820313zm0 0"/><path d="m270.238281 255.628906-5.039062-2.90625v5.816406zm0 0"/><path d="m275.277344 252.722656-5.039063-2.910156v5.816406zm0 0"/><path d="m280.316406 249.8125-5.039062-2.910156v5.820312zm0 0"/><path d="m285.355469 246.902344-5.039063-2.90625v5.816406zm0 0"/><path d="m290.390625 243.996094-5.035156-2.910156v5.816406zm0 0"/><path d="m300.46875 209.089844-5.039062-2.910156v5.816406zm0 0"/><path d="m300.46875 203.269531-5.039062-2.90625v5.816407zm0 0"/><path d="m300.46875 156.730469-5.039062-2.910157v5.816407zm0 0"/><path d="m300.46875 150.910156-5.039062-2.90625v5.816406zm0 0"/><path d="m295.429688 113.097656-5.039063-2.910156v5.816406zm0 0"/><path d="m290.390625 110.1875-5.035156-2.910156v5.820312zm0 0"/><path d="m270.238281 98.550781-5.039062-2.90625v5.816407zm0 0"/><path d="m265.199219 95.644531-5.035157-2.910156v5.816406zm0 0"/><path d="m260.164062 92.734375-5.039062-2.910156v5.820312zm0 0"/><path d="m255.125 89.824219-5.039062-2.90625v5.816406zm0 0"/><path d="m250.085938 86.917969-5.039063-2.910157v5.816407zm0 0"/><path d="m229.933594 75.28125-5.039063-2.910156v5.820312zm0 0"/><path d="m224.894531 72.371094-5.039062-2.90625v5.816406zm0 0"/><path d="m219.855469 69.464844-5.039063-2.910156v5.816406zm0 0"/><path d="m214.816406 66.554688-5.035156-2.910157v5.820313zm0 0"/><path d="m209.78125 63.644531-5.039062-2.90625v5.816407zm0 0"/><path d="m189.625 52.011719-5.035156-2.910157v5.816407zm0 0"/><path d="m184.589844 49.101562-5.039063-2.910156v5.820313zm0 0"/><path d="m164.433594 60.738281-5.035156-2.910156v5.816406zm0 0"/><path d="m144.28125 72.371094-5.039062-2.90625v5.816406zm0 0"/><path d="m109.015625 92.734375-5.039063-2.910156v5.820312zm0 0"/><path d="m88.859375 104.371094-5.035156-2.910156v5.816406zm0 0"/><path d="m73.746094 118.914062-5.039063-2.910156v5.820313zm0 0"/><path d="m73.746094 124.730469-5.039063-2.90625v5.816406zm0 0"/><path d="m73.746094 130.550781-5.039063-2.910156v5.816406zm0 0"/><path d="m73.746094 136.367188-5.039063-2.910157v5.820313zm0 0"/><path d="m73.746094 142.183594-5.039063-2.90625v5.816406zm0 0"/><path d="m73.746094 217.816406-5.039063-2.910156v5.816406zm0 0"/><path d="m73.746094 223.632812-5.039063-2.910156v5.820313zm0 0"/><path d="m73.746094 229.449219-5.039063-2.90625v5.816406zm0 0"/><path d="m73.746094 235.269531-5.039063-2.910156v5.816406zm0 0"/><path d="m73.746094 241.085938-5.039063-2.910157v5.820313zm0 0"/><path d="m88.859375 255.628906-5.035156-2.90625v5.816406zm0 0"/><path d="m109.015625 267.265625-5.039063-2.910156v5.820312zm0 0"/><path d="m144.28125 287.628906-5.039062-2.910156v5.816406zm0 0"/><path d="m164.433594 299.261719-5.035156-2.90625v5.816406zm0 0"/><path d="m184.589844 310.898438-5.039063-2.910157v5.820313zm0 0"/><path d="m189.625 307.988281-5.035156-2.90625v5.816407zm0 0"/><path d="m209.78125 296.355469-5.039062-2.910157v5.816407zm0 0"/><path d="m214.816406 293.445312-5.035156-2.910156v5.820313zm0 0"/><path d="m219.855469 290.535156-5.039063-2.90625v5.816406zm0 0"/><path d="m224.894531 287.628906-5.039062-2.910156v5.816406zm0 0"/><path d="m229.933594 284.71875-5.039063-2.910156v5.820312zm0 0"/><path d="m250.085938 273.082031-5.039063-2.90625v5.816407zm0 0"/><path d="m255.125 270.175781-5.039062-2.910156v5.816406zm0 0"/><path d="m260.164062 267.265625-5.039062-2.910156v5.820312zm0 0"/><path d="m265.199219 264.355469-5.035157-2.90625v5.816406zm0 0"/><path d="m270.238281 261.449219-5.039062-2.910157v5.816407zm0 0"/><path d="m290.390625 249.8125-5.035156-2.910156v5.820312zm0 0"/><path d="m295.429688 246.902344-5.039063-2.90625v5.816406zm0 0"/><path d="m305.507812 246.902344-5.039062-2.90625v5.816406zm0 0"/><path d="m305.507812 241.085938-5.039062-2.910157v5.820313zm0 0"/><path d="m305.507812 235.269531-5.039062-2.910156v5.816406zm0 0"/><path d="m305.507812 229.449219-5.039062-2.90625v5.816406zm0 0"/><path d="m305.507812 223.632812-5.039062-2.910156v5.820313zm0 0"/><path d="m305.507812 217.816406-5.039062-2.910156v5.816406zm0 0"/><path d="m305.507812 211.996094-5.039062-2.90625v5.816406zm0 0"/><path d="m305.507812 206.179688-5.039062-2.910157v5.820313zm0 0"/><path d="m305.507812 153.820312-5.039062-2.910156v5.820313zm0 0"/><path d="m305.507812 148.003906-5.039062-2.910156v5.816406zm0 0"/><path d="m305.507812 142.183594-5.039062-2.90625v5.816406zm0 0"/><path d="m305.507812 136.367188-5.039062-2.910157v5.820313zm0 0"/><path d="m305.507812 130.550781-5.039062-2.910156v5.816406zm0 0"/><path d="m305.507812 124.730469-5.039062-2.90625v5.816406zm0 0"/><path d="m305.507812 118.914062-5.039062-2.910156v5.820313zm0 0"/><path d="m305.507812 113.097656-5.039062-2.910156v5.816406zm0 0"/><path d="m300.46875 110.1875-5.039062-2.910156v5.820312zm0 0"/><path d="m265.199219 89.824219-5.035157-2.90625v5.816406zm0 0"/><path d="m260.164062 86.917969-5.039062-2.910157v5.816407zm0 0"/><path d="m224.894531 66.554688-5.039062-2.910157v5.820313zm0 0"/><path d="m219.855469 63.644531-5.039063-2.90625v5.816407zm0 0"/><path d="m184.589844 43.285156-5.039063-2.910156v5.816406zm0 0"/><path d="m149.320312 63.644531-5.039062-2.90625v5.816407zm0 0"/><path d="m144.28125 66.554688-5.039062-2.910157v5.820313zm0 0"/><path d="m103.976562 89.824219-5.039062-2.90625v5.816406zm0 0"/><path d="m98.9375 92.734375-5.039062-2.910156v5.820312zm0 0"/><path d="m68.707031 116.003906-5.039062-2.90625v5.816406zm0 0"/><path d="m68.707031 121.824219-5.039062-2.910157v5.816407zm0 0"/><path d="m68.707031 145.09375-5.039062-2.910156v5.820312zm0 0"/><path d="m68.707031 150.910156-5.039062-2.90625v5.816406zm0 0"/><path d="m68.707031 156.730469-5.039062-2.910157v5.816407zm0 0"/><path d="m68.707031 162.546875-5.039062-2.910156v5.820312zm0 0"/><path d="m68.707031 168.363281-5.039062-2.90625v5.816407zm0 0"/><path d="m68.707031 191.636719-5.039062-2.910157v5.816407zm0 0"/><path d="m68.707031 197.453125-5.039062-2.910156v5.820312zm0 0"/><path d="m68.707031 203.269531-5.039062-2.90625v5.816407zm0 0"/><path d="m68.707031 209.089844-5.039062-2.910156v5.816406zm0 0"/><path d="m68.707031 214.90625-5.039062-2.910156v5.820312zm0 0"/><path d="m68.707031 238.175781-5.039062-2.90625v5.816407zm0 0"/><path d="m68.707031 243.996094-5.039062-2.910156v5.816406zm0 0"/><path d="m98.9375 267.265625-5.039062-2.910156v5.820312zm0 0"/><path d="m103.976562 270.175781-5.039062-2.910156v5.816406zm0 0"/><path d="m144.28125 293.445312-5.039062-2.910156v5.820313zm0 0"/><path d="m149.320312 296.355469-5.039062-2.910157v5.816407zm0 0"/><path d="m184.589844 316.714844-5.039063-2.90625v5.816406zm0 0"/><path d="m219.855469 296.355469-5.039063-2.910157v5.816407zm0 0"/><path d="m224.894531 293.445312-5.039062-2.910156v5.820313zm0 0"/><path d="m260.164062 273.082031-5.039062-2.90625v5.816407zm0 0"/><path d="m265.199219 270.175781-5.035157-2.910156v5.816406zm0 0"/><path d="m300.46875 249.8125-5.039062-2.910156v5.820312zm0 0"/><path d="m310.546875 249.8125-5.039063-2.910156v5.820312zm0 0"/><path d="m310.546875 203.269531-5.039063-2.90625v5.816407zm0 0"/><path d="m310.546875 156.730469-5.039063-2.910157v5.816407zm0 0"/><path d="m310.546875 110.1875-5.039063-2.910156v5.820312zm0 0"/><path d="m300.46875 104.371094-5.039062-2.910156v5.816406zm0 0"/><path d="m270.238281 86.917969-5.039062-2.910157v5.816407zm0 0"/><path d="m260.164062 81.097656-5.039062-2.90625v5.816406zm0 0"/><path d="m229.933594 63.644531-5.039063-2.90625v5.816407zm0 0"/><path d="m219.855469 57.828125-5.039063-2.910156v5.820312zm0 0"/><path d="m189.625 40.375-5.035156-2.910156v5.820312zm0 0"/><path d="m179.550781 40.375-5.039062-2.910156v5.820312zm0 0"/><path d="m174.511719 43.285156-5.039063-2.910156v5.816406zm0 0"/><path d="m169.472656 46.191406-5.039062-2.90625v5.816406zm0 0"/><path d="m164.433594 49.101562-5.035156-2.910156v5.820313zm0 0"/><path d="m159.398438 52.011719-5.039063-2.910157v5.816407zm0 0"/><path d="m154.359375 54.917969-5.039063-2.90625v5.816406zm0 0"/><path d="m149.320312 57.828125-5.039062-2.910156v5.820312zm0 0"/><path d="m144.28125 60.738281-5.039062-2.910156v5.816406zm0 0"/><path d="m98.9375 86.917969-5.039062-2.910157v5.816407zm0 0"/><path d="m93.898438 89.824219-5.039063-2.90625v5.816406zm0 0"/><path d="m88.859375 92.734375-5.035156-2.910156v5.820312zm0 0"/><path d="m83.824219 95.644531-5.039063-2.910156v5.816406zm0 0"/><path d="m78.785156 98.550781-5.039062-2.90625v5.816407zm0 0"/><path d="m73.746094 101.460938-5.039063-2.910157v5.820313zm0 0"/><path d="m68.707031 104.371094-5.039062-2.910156v5.816406zm0 0"/><path d="m63.667969 107.277344-5.035157-2.90625v5.816406zm0 0"/><path d="m63.667969 113.097656-5.035157-2.910156v5.816406zm0 0"/><path d="m63.667969 153.820312-5.035157-2.910156v5.820313zm0 0"/><path d="m63.667969 159.636719-5.035157-2.90625v5.816406zm0 0"/><path d="m63.667969 200.363281-5.035157-2.910156v5.816406zm0 0"/><path d="m63.667969 206.179688-5.035157-2.910157v5.820313zm0 0"/><path d="m63.667969 246.902344-5.035157-2.90625v5.816406zm0 0"/><path d="m63.667969 252.722656-5.035157-2.910156v5.816406zm0 0"/><path d="m68.707031 255.628906-5.039062-2.90625v5.816406zm0 0"/><path d="m73.746094 258.539062-5.039063-2.910156v5.820313zm0 0"/><path d="m78.785156 261.449219-5.039062-2.910157v5.816407zm0 0"/><path d="m83.824219 264.355469-5.039063-2.90625v5.816406zm0 0"/><path d="m88.859375 267.265625-5.035156-2.910156v5.820312zm0 0"/><path d="m93.898438 270.175781-5.039063-2.910156v5.816406zm0 0"/><path d="m98.9375 273.082031-5.039062-2.90625v5.816407zm0 0"/><path d="m144.28125 299.261719-5.039062-2.90625v5.816406zm0 0"/><path d="m149.320312 302.171875-5.039062-2.910156v5.820312zm0 0"/><path d="m154.359375 305.082031-5.039063-2.910156v5.816406zm0 0"/><path d="m159.398438 307.988281-5.039063-2.90625v5.816407zm0 0"/><path d="m164.433594 310.898438-5.035156-2.910157v5.820313zm0 0"/><path d="m169.472656 313.808594-5.039062-2.910156v5.816406zm0 0"/><path d="m174.511719 316.714844-5.039063-2.90625v5.816406zm0 0"/><path d="m179.550781 319.625-5.039062-2.910156v5.820312zm0 0"/><path d="m189.625 319.625-5.035156-2.910156v5.820312zm0 0"/><path d="m219.855469 302.171875-5.039063-2.910156v5.820312zm0 0"/><path d="m229.933594 296.355469-5.039063-2.910157v5.816407zm0 0"/><path d="m260.164062 278.902344-5.039062-2.910156v5.816406zm0 0"/><path d="m270.238281 273.082031-5.039062-2.90625v5.816407zm0 0"/><path d="m300.46875 255.628906-5.039062-2.90625v5.816406zm0 0"/><path d="m179.550781 34.558594-5.039062-2.910156v5.816406zm0 0"/><path d="m139.242188 57.828125-5.035157-2.910156v5.820312zm0 0"/><path d="m98.9375 81.097656-5.039062-2.90625v5.816406zm0 0"/><path d="m58.632812 104.371094-5.039062-2.910156v5.816406zm0 0"/><path d="m58.632812 116.003906-5.039062-2.90625v5.816406zm0 0"/><path d="m58.632812 150.910156-5.039062-2.90625v5.816406zm0 0"/><path d="m58.632812 162.546875-5.039062-2.910156v5.820312zm0 0"/><path d="m58.632812 197.453125-5.039062-2.910156v5.820312zm0 0"/><path d="m58.632812 209.089844-5.039062-2.910156v5.816406zm0 0"/><path d="m58.632812 243.996094-5.039062-2.910156v5.816406zm0 0"/><path d="m58.632812 255.628906-5.039062-2.90625v5.816406zm0 0"/><path d="m98.9375 278.902344-5.039062-2.910156v5.816406zm0 0"/><path d="m139.242188 302.171875-5.035157-2.910156v5.820312zm0 0"/><path d="m179.550781 325.441406-5.039062-2.90625v5.816406zm0 0"/></g></svg>