<svg height="360pt" viewBox="0 0 360 360" width="360pt" xmlns="http://www.w3.org/2000/svg"><path d="m0 0h360v360h-360z" fill="#fff"/><g fill="#800080"><path d="m174.9375 180 7.59375-4.386719v8.773438zm0 0"/><path d="m190.128906 188.769531 7.59375-4.382812v8.769531zm0 0"/><path d="m190.128906 180 7.59375-4.386719v8.773438zm0 0"/><path d="m190.128906 171.230469 7.59375-4.386719v8.769531zm0 0"/><path d="m182.53125 166.84375 7.597656-4.386719v8.773438zm0 0"/><path d="m174.9375 162.457031 7.59375-4.382812v8.769531zm0 0"/><path d="m167.339844 166.84375 7.597656-4.386719v8.773438zm0 0"/><path d="m159.746094 171.230469 7.59375-4.386719v8.769531zm0 0"/><path d="m159.746094 180 7.59375-4.386719v8.773438zm0 0"/><path d="m159.746094 188.769531 7.59375-4.382812v8.769531zm0 0"/><path d="m167.339844 193.15625 7.597656-4.386719v8.773438zm0 0"/><path d="m174.9375 197.542969 7.59375-4.386719v8.769531zm0 0"/><path d="m182.53125 193.15625 7.597656-4.386719v8.773438zm0 0"/><path d="m205.320312 197.542969 7.59375-4.386719v8.769531zm0 0"/><path d="m205.320312 188.769531 7.59375-4.382812v8.769531zm0 0"/><path d="m205.320312 180 7.59375-4.386719v8.773438zm0 0"/><path d="m205.320312 171.230469 7.59375-4.386719v8.769531zm0 0"/><path d="m205.320312 162.457031 7.59375-4.382812v8.769531zm0 0"/><path d="m197.722656 158.074219 7.597656-4.386719v8.769531zm0 0"/><path d="m190.128906 153.6875 7.59375-4.386719v8.773438zm0 0"/><path d="m182.53125 149.300781 7.597656-4.382812v8.769531zm0 0"/><path d="m174.9375 144.917969 7.59375-4.386719v8.769531zm0 0"/><path d="m167.339844 149.300781 7.597656-4.382812v8.769531zm0 0"/><path d="m159.746094 153.6875 7.59375-4.386719v8.773438zm0 0"/><path d="m152.148438 158.074219 7.597656-4.386719v8.769531zm0 0"/><path d="m144.554688 162.457031 7.59375-4.382812v8.769531zm0 0"/><path d="m144.554688 171.230469 7.59375-4.386719v8.769531zm0 0"/><path d="m144.554688 180 7.59375-4.386719v8.773438zm0 0"/><path d="m144.554688 188.769531 7.59375-4.382812v8.769531zm0 0"/><path d="m144.554688 197.542969 7.59375-4.386719v8.769531zm0 0"/><path d="m152.148438 201.925781 7.597656-4.382812v8.769531zm0 0"/><path d="m159.746094 206.3125 7.59375-4.386719v8.773438zm0 0"/><path d="m167.339844 210.699219 7.597656-4.386719v8.769531zm0 0"/><path d="m174.9375 215.082031 7.59375-4.382812v8.769531zm0 0"/><path d="m182.53125 210.699219 7.597656-4.386719v8.769531zm0 0"/><path d="m190.128906 206.3125 7.59375-4.386719v8.773438zm0 0"/><path d="m197.722656 201.925781 7.597656-4.382812v8.769531zm0 0"/><path d="m220.511719 206.3125 7.59375-4.386719v8.773438zm0 0"/><path d="m220.511719 197.542969 7.59375-4.386719v8.769531zm0 0"/><path d="m220.511719 188.769531 7.59375-4.382812v8.769531zm0 0"/><path d="m220.511719 180 7.59375-4.386719v8.773438zm0 0"/><path d="m220.511719 171.230469 7.59375-4.386719v8.769531zm0 0"/><path d="m220.511719 162.457031 7.59375-4.382812v8.769531zm0 0"/><path d="m220.511719 153.6875 7.59375-4.386719v8.773438zm0 0"/><path d="m212.914062 149.300781 7.597657-4.382812v8.769531zm0 0"/><path d="m205.320312 144.917969 7.59375-4.386719v8.769531zm0 0"/><path d="m197.722656 140.53125 7.597656-4.386719v8.773438zm0 0"/><path d="m190.128906 136.144531 7.59375-4.382812v8.769531zm0 0"/><path d="m182.53125 131.761719 7.597656-4.386719v8.769531zm0 0"/><path d="m174.9375 127.375 7.59375-4.386719v8.773438zm0 0"/><path d="m167.339844 131.761719 7.597656-4.386719v8.769531zm0 0"/><path d="m159.746094 136.144531 7.59375-4.382812v8.769531zm0 0"/><path d="m152.148438 140.53125 7.597656-4.386719v8.773438zm0 0"/><path d="m144.554688 144.917969 7.59375-4.386719v8.769531zm0 0"/><path d="m136.957031 149.300781 7.597657-4.382812v8.769531zm0 0"/><path d="m129.363281 153.6875 7.59375-4.386719v8.773438zm0 0"/><path d="m129.363281 162.457031 7.59375-4.382812v8.769531zm0 0"/><path d="m129.363281 171.230469 7.59375-4.386719v8.769531zm0 0"/><path d="m129.363281 180 7.59375-4.386719v8.773438zm0 0"/><path d="m129.363281 188.769531 7.59375-4.382812v8.769531zm0 0"/><path d="m129.363281 197.542969 7.59375-4.386719v8.769531zm0 0"/><path d="m129.363281 206.3125 7.59375-4.386719v8.773438zm0 0"/><path d="m136.957031 210.699219 7.597657-4.386719v8.769531zm0 0"/><path d="m144.554688 215.082031 7.59375-4.382812v8.769531zm0 0"/><path d="m152.148438 219.46875 7.597656-4.386719v8.773438zm0 0"/><path d="m159.746094 223.855469 7.59375-4.386719v8.769531zm0 0"/><path d="m167.339844 228.238281 7.597656-4.382812v8.769531zm0 0"/><path d="m174.9375 232.625 7.59375-4.386719v8.773438zm0 0"/><path d="m182.53125 228.238281 7.597656-4.382812v8.769531zm0 0"/><path d="m190.128906 223.855469 7.59375-4.386719v8.769531zm0 0"/><path d="m197.722656 219.46875 7.597656-4.386719v8.773438zm0 0"/><path d="m205.320312 215.082031 7.59375-4.382812v8.769531zm0 0"/><path d="m212.914062 210.699219 7.597657-4.386719v8.769531zm0 0"/><path d="m235.703125 215.082031 7.59375-4.382812v8.769531zm0 0"/><path d="m235.703125 206.3125 7.59375-4.386719v8.773438zm0 0"/><path d="m235.703125 197.542969 7.59375-4.386719v8.769531zm0 0"/><path d="m235.703125 188.769531 7.59375-4.382812v8.769531zm0 0"/><path d="m235.703125 180 7.59375-4.386719v8.773438zm0 0"/><path d="m235.703125 171.230469 7.59375-4.386719v8.769531zm0 0"/><path d="m235.703125 162.457031 7.59375-4.382812v8.769531zm0 0"/><path d="m235.703125 153.6875 7.59375-4.386719v8.773438zm0 0"/><path d="m235.703125 144.917969 7.59375-4.386719v8.769531zm0 0"/><path d="m228.105469 140.53125 7.597656-4.386719v8.773438zm0 0"/><path d="m220.511719 136.144531 7.59375-4.382812v8.769531zm0 0"/><path d="m212.914062 131.761719 7.597657-4.386719v8.769531zm0 0"/><path d="m205.320312 127.375 7.59375-4.386719v8.773438zm0 0"/><path d="m197.722656 122.988281 7.597656-4.382812v8.769531zm0 0"/><path d="m190.128906 118.605469 7.59375-4.386719v8.769531zm0 0"/><path d="m182.53125 114.21875 7.597656-4.386719v8.773438zm0 0"/><path d="m174.9375 109.832031 7.59375-4.382812v8.769531zm0 0"/><path d="m167.339844 114.21875 7.597656-4.386719v8.773438zm0 0"/><path d="m159.746094 118.605469 7.59375-4.386719v8.769531zm0 0"/><path d="m152.148438 122.988281 7.597656-4.382812v8.769531zm0 0"/><path d="m144.554688 127.375 7.59375-4.386719v8.773438zm0 0"/><path d="m136.957031 131.761719 7.597657-4.386719v8.769531zm0 0"/><path d="m129.363281 136.144531 7.59375-4.382812v8.769531zm0 0"/><path d="m121.765625 140.53125 7.597656-4.386719v8.773438zm0 0"/><path d="m114.171875 144.917969 7.59375-4.386719v8.769531zm0 0"/><path d="m114.171875 153.6875 7.59375-4.386719v8.773438zm0 0"/><path d="m114.171875 162.457031 7.59375-4.382812v8.769531zm0 0"/><path d="m114.171875 171.230469 7.59375-4.386719v8.769531zm0 0"/><path d="m114.171875 180 7.59375-4.386719v8.773438zm0 0"/><path d="m114.171875 188.769531 7.59375-4.382812v8.769531zm0 0"/><path d="m114.171875 197.542969 7.59375-4.386719v8.769531zm0 0"/><path d="m114.171875 206.3125 7.59375-4.386719v8.773438zm0 0"/><path d="m114.171875 215.082031 7.59375-4.382812v8.769531zm0 0"/><path d="m121.765625 219.46875 7.597656-4.386719v8.773438zm0 0"/><path d="m129.363281 223.855469 7.59375-4.386719v8.769531zm0 0"/><path d="m136.957031 228.238281 7.597657-4.382812v8.769531zm0 0"/><path d="m144.554688 232.625 7.59375-4.386719v8.773438zm0 0"/><path d="m152.148438 237.011719 7.597656-4.386719v8.769531zm0 0"/><path d="m159.746094 241.394531 7.59375-4.382812v8.769531zm0 0"/><path d="m167.339844 245.78125 7.597656-4.386719v8.773438zm0 0"/><path d="m174.9375 250.167969 7.59375-4.386719v8.769531zm0 0"/><path d="m182.53125 245.78125 7.597656-4.386719v8.773438zm0 0"/><path d="m190.128906 241.394531 7.59375-4.382812v8.769531zm0 0"/><path d="m197.722656 237.011719 7.597656-4.386719v8.769531zm0 0"/><path d="m205.320312 232.625 7.59375-4.386719v8.773438zm0 0"/><path d="m212.914062 228.238281 7.597657-4.382812v8.769531zm0 0"/><path d="m220.511719 223.855469 7.59375-4.386719v8.769531zm0 0"/><path d="m228.105469 219.46875 7.597656-4.386719v8.773438zm0 0"/><path d="m250.894531 223.855469 7.59375-4.386719v8.769531zm0 0"/><path d="m250.894531 215.082031 7.59375-4.382812v8.769531zm0 0"/><path d="m250.894531 206.3125 7.59375-4.386719v8.773438zm0 0"/><path d="m250.894531 197.542969 7.59375-4.386719v8.769531zm0 0"/><path d="m250.894531 188.769531 7.59375-4.382812v8.769531zm0 0"/><path d="m250.894531 180 7.59375-4.386719v8.773438zm0 0"/><path d="m250.894531 171.230469 7.59375-4.386719v8.769531zm0 0"/><path d="m250.894531 162.457031 7.59375-4.382812v8.769531zm0 0"/><path d="m250.894531 153.6875 7.59375-4.386719v8.773438zm0 0"/><path d="m250.894531 144.917969 7.59375-4.386719v8.769531zm0 0"/><path d="m250.894531 136.144531 7.59375-4.382812v8.769531zm0 0"/><path d="m243.296875 131.761719 7.597656-4.386719v8.769531zm0 0"/><path d="m235.703125 127.375 7.59375-4.386719v8.773438zm0 0"/><path d="m228.105469 122.988281 7.597656-4.382812v8.769531zm0 0"/><path d="m220.511719 118.605469 7.59375-4.386719v8.769531zm0 0"/><path d="m212.914062 114.21875 7.597657-4.386719v8.773438zm0 0"/><path d="m205.320312 109.832031 7.59375-4.382812v8.769531zm0 0"/><path d="m197.722656 105.449219 7.597656-4.386719v8.769531zm0 0"/><path d="m190.128906 101.0625 7.59375-4.386719v8.773438zm0 0"/><path d="m182.53125 96.675781 7.597656-4.382812v8.769531zm0 0"/><path d="m174.9375 92.292969 7.59375-4.386719v8.769531zm0 0"/><path d="m167.339844 96.675781 7.597656-4.382812v8.769531zm0 0"/><path d="m159.746094 101.0625 7.59375-4.386719v8.773438zm0 0"/><path d="m152.148438 105.449219 7.597656-4.386719v8.769531zm0 0"/><path d="m144.554688 109.832031 7.59375-4.382812v8.769531zm0 0"/><path d="m136.957031 114.21875 7.597657-4.386719v8.773438zm0 0"/><path d="m129.363281 118.605469 7.59375-4.386719v8.769531zm0 0"/><path d="m121.765625 122.988281 7.597656-4.382812v8.769531zm0 0"/><path d="m114.171875 127.375 7.59375-4.386719v8.773438zm0 0"/><path d="m106.574219 131.761719 7.597656-4.386719v8.769531zm0 0"/><path d="m98.980469 136.144531 7.59375-4.382812v8.769531zm0 0"/><path d="m98.980469 144.917969 7.59375-4.386719v8.769531zm0 0"/><path d="m98.980469 153.6875 7.59375-4.386719v8.773438zm0 0"/><path d="m98.980469 162.457031 7.59375-4.382812v8.769531zm0 0"/><path d="m98.980469 171.230469 7.59375-4.386719v8.769531zm0 0"/><path d="m98.980469 180 7.59375-4.386719v8.773438zm0 0"/><path d="m98.980469 188.769531 7.59375-4.382812v8.769531zm0 0"/><path d="m98.980469 197.542969 7.59375-4.386719v8.769531zm0 0"/><path d="m98.980469 206.3125 7.59375-4.386719v8.773438zm0 0"/><path d="m98.980469 215.082031 7.59375-4.382812v8.769531zm0 0"/><path d="m98.980469 223.855469 7.59375-4.386719v8.769531zm0 0"/><path d="m106.574219 228.238281 7.597656-4.382812v8.769531zm0 0"/><path d="m114.171875 232.625 7.59375-4.386719v8.773438zm0 0"/><path d="m121.765625 237.011719 7.597656-4.386719v8.769531zm0 0"/><path d="m129.363281 241.394531 7.59375-4.382812v8.769531zm0 0"/><path d="m136.957031 245.78125 7.597657-4.386719v8.773438zm0 0"/><path d="m144.554688 250.167969 7.59375-4.386719v8.769531zm0 0"/><path d="m152.148438 254.550781 7.597656-4.382812v8.769531zm0 0"/><path d="m159.746094 258.9375 7.59375-4.386719v8.773438zm0 0"/><path d="m167.339844 263.324219 7.597656-4.386719v8.769531zm0 0"/><path d="m174.9375 267.707031 7.59375-4.382812v8.769531zm0 0"/><path d="m182.53125 263.324219 7.597656-4.386719v8.769531zm0 0"/><path d="m190.128906 258.9375 7.59375-4.386719v8.773438zm0 0"/><path d="m197.722656 254.550781 7.597656-4.382812v8.769531zm0 0"/><path d="m205.320312 250.167969 7.59375-4.386719v8.769531zm0 0"/><path d="m212.914062 245.78125 7.597657-4.386719v8.773438zm0 0"/><path d="m220.511719 241.394531 7.59375-4.382812v8.769531zm0 0"/><path d="m228.105469 237.011719 7.597656-4.386719v8.769531zm0 0"/><path d="m235.703125 232.625 7.59375-4.386719v8.773438zm0 0"/><path d="m243.296875 228.238281 7.597656-4.382812v8.769531zm0 0"/><path d="m266.085938 232.625 7.59375-4.386719v8.773438zm0 0"/><path d="m266.085938 223.855469 7.59375-4.386719v8.769531zm0 0"/><path d="m266.085938 215.082031 7.59375-4.382812v8.769531zm0 0"/><path d="m266.085938 206.3125 7.59375-4.386719v8.773438zm0 0"/><path d="m266.085938 197.542969 7.59375-4.386719v8.769531zm0 0"/><path d="m266.085938 188.769531 7.59375-4.382812v8.769531zm0 0"/><path d="m266.085938 180 7.59375-4.386719v8.773438zm0 0"/><path d="m266.085938 171.230469 7.59375-4.386719v8.769531zm0 0"/><path d="m266.085938 162.457031 7.59375-4.382812v8.769531zm0 0"/><path d="m266.085938 153.6875 7.59375-4.386719v8.773438zm0 0"/><path d="m266.085938 144.917969 7.59375-4.386719v8.769531zm0 0"/><path d="m266.085938 136.144531 7.59375-4.382812v8.769531zm0 0"/><path d="m266.085938 127.375 7.59375-4.386719v8.773438zm0 0"/><path d="m258.488281 122.988281 7.597657-4.382812v8.769531zm0 0"/><path d="m250.894531 118.605469 7.59375-4.386719v8.769531zm0 0"/><path d="m243.296875 114.21875 7.597656-4.386719v8.773438zm0 0"/><path d="m235.703125 109.832031 7.59375-4.382812v8.769531zm0 0"/><path d="m228.105469 105.449219 7.597656-4.386719v8.769531zm0 0"/><path d="m220.511719 101.0625 7.59375-4.386719v8.773438zm0 0"/><path d="m212.914062 96.675781 7.597657-4.382812v8.769531zm0 0"/><path d="m205.320312 92.292969 7.59375-4.386719v8.769531zm0 0"/><path d="m197.722656 87.90625 7.597656-4.382812v8.769531zm0 0"/><path d="m190.128906 83.523438 7.59375-4.386719v8.769531zm0 0"/><path d="m182.53125 79.136719 7.597656-4.386719v8.773438zm0 0"/><path d="m174.9375 74.75 7.59375-4.382812v8.769531zm0 0"/><path d="m167.339844 79.136719 7.597656-4.386719v8.773438zm0 0"/><path d="m159.746094 83.523438 7.59375-4.386719v8.769531zm0 0"/><path d="m152.148438 87.90625 7.597656-4.382812v8.769531zm0 0"/><path d="m144.554688 92.292969 7.59375-4.386719v8.769531zm0 0"/><path d="m136.957031 96.675781 7.597657-4.382812v8.769531zm0 0"/><path d="m129.363281 101.0625 7.59375-4.386719v8.773438zm0 0"/><path d="m121.765625 105.449219 7.597656-4.386719v8.769531zm0 0"/><path d="m114.171875 109.832031 7.59375-4.382812v8.769531zm0 0"/><path d="m106.574219 114.21875 7.597656-4.386719v8.773438zm0 0"/><path d="m98.980469 118.605469 7.59375-4.386719v8.769531zm0 0"/><path d="m91.382812 122.988281 7.597657-4.382812v8.769531zm0 0"/><path d="m83.789062 127.375 7.59375-4.386719v8.773438zm0 0"/><path d="m83.789062 136.144531 7.59375-4.382812v8.769531zm0 0"/><path d="m83.789062 144.917969 7.59375-4.386719v8.769531zm0 0"/><path d="m83.789062 153.6875 7.59375-4.386719v8.773438zm0 0"/><path d="m83.789062 162.457031 7.59375-4.382812v8.769531zm0 0"/><path d="m83.789062 171.230469 7.59375-4.386719v8.769531zm0 0"/><path d="m83.789062 180 7.59375-4.386719v8.773438zm0 0"/><path d="m83.789062 188.769531 7.59375-4.382812v8.769531zm0 0"/><path d="m83.789062 197.542969 7.59375-4.386719v8.769531zm0 0"/><path d="m83.789062 206.3125 7.59375-4.386719v8.773438zm0 0"/><path d="m83.789062 215.082031 7.59375-4.382812v8.769531zm0 0"/><path d="m83.789062 223.855469 7.59375-4.386719v8.769531zm0 0"/><path d="m83.789062 232.625 7.59375-4.386719v8.773438zm0 0"/><path d="m91.382812 237.011719 7.597657-4.386719v8.769531zm0 0"/><path d="m98.980469 241.394531 7.59375-4.382812v8.769531zm0 0"/><path d="m106.574219 245.78125 7.597656-4.386719v8.773438zm0 0"/><path d="m114.171875 250.167969 7.59375-4.386719v8.769531zm0 0"/><path d="m121.765625 254.550781 7.597656-4.382812v8.769531zm0 0"/><path d="m129.363281 258.9375 7.59375-4.386719v8.773438zm0 0"/><path d="m136.957031 263.324219 7.597657-4.386719v8.769531zm0 0"/><path d="m144.554688 267.707031 7.59375-4.382812v8.769531zm0 0"/><path d="m152.148438 272.09375 7.597656-4.386719v8.769531zm0 0"/><path d="m159.746094 276.476562 7.59375-4.382812v8.769531zm0 0"/><path d="m167.339844 280.863281 7.597656-4.386719v8.773438zm0 0"/><path d="m174.9375 285.25 7.59375-4.386719v8.769531zm0 0"/><path d="m182.53125 280.863281 7.597656-4.386719v8.773438zm0 0"/><path d="m190.128906 276.476562 7.59375-4.382812v8.769531zm0 0"/><path d="m197.722656 272.09375 7.597656-4.386719v8.769531zm0 0"/><path d="m205.320312 267.707031 7.59375-4.382812v8.769531zm0 0"/><path d="m212.914062 263.324219 7.597657-4.386719v8.769531zm0 0"/><path d="m220.511719 258.9375 7.59375-4.386719v8.773438zm0 0"/><path d="m228.105469 254.550781 7.597656-4.382812v8.769531zm0 0"/><path d="m235.703125 250.167969 7.59375-4.386719v8.769531zm0 0"/><path d="m243.296875 245.78125 7.597656-4.386719v8.773438zm0 0"/><path d="m250.894531 241.394531 7.59375-4.382812v8.769531zm0 0"/><path d="m258.488281 237.011719 7.597657-4.386719v8.769531zm0 0"/><path d="m281.277344 241.394531 7.59375-4.382812v8.769531zm0 0"/><path d="m281.277344 232.625 7.59375-4.386719v8.773438zm0 0"/><path d="m281.277344 223.855469 7.59375-4.386719v8.769531zm0 0"/><path d="m281.277344 215.082031 7.59375-4.382812v8.769531zm0 0"/><path d="m281.277344 206.3125 7.59375-4.386719v8.773438zm0 0"/><path d="m281.277344 197.542969 7.59375-4.386719v8.769531zm0 0"/><path d="m281.277344 188.769531 7.59375-4.382812v8.769531zm0 0"/><path d="m281.277344 180 7.59375-4.386719v8.773438zm0 0"/><path d="m281.277344 171.230469 7.59375-4.386719v8.769531zm0 0"/><path d="m281.277344 162.457031 7.59375-4.382812v8.769531zm0 0"/><path d="m281.277344 153.6875 7.59375-4.386719v8.773438zm0 0"/><path d="m281.277344 144.917969 7.59375-4.386719v8.769531zm0 0"/><path d="m281.277344 136.144531 7.59375-4.382812v8.769531zm0 0"/><path d="m281.277344 127.375 7.59375-4.386719v8.773438zm0 0"/><path d="m281.277344 118.605469 7.59375-4.386719v8.769531zm0 0"/><path d="m273.679688 114.21875 7.597656-4.386719v8.773438zm0 0"/><path d="m266.085938 109.832031 7.59375-4.382812v8.769531zm0 0"/><path d="m258.488281 105.449219 7.597657-4.386719v8.769531zm0 0"/><path d="m250.894531 101.0625 7.59375-4.386719v8.773438zm0 0"/><path d="m243.296875 96.675781 7.597656-4.382812v8.769531zm0 0"/><path d="m235.703125 92.292969 7.59375-4.386719v8.769531zm0 0"/><path d="m228.105469 87.90625 7.597656-4.382812v8.769531zm0 0"/><path d="m220.511719 83.523438 7.59375-4.386719v8.769531zm0 0"/><path d="m212.914062 79.136719 7.597657-4.386719v8.773438zm0 0"/><path d="m205.320312 74.75 7.59375-4.382812v8.769531zm0 0"/><path d="m197.722656 70.367188 7.597656-4.386719v8.769531zm0 0"/><path d="m190.128906 65.980469 7.59375-4.386719v8.773438zm0 0"/><path d="m182.53125 61.59375 7.597656-4.382812v8.769531zm0 0"/><path d="m174.9375 57.210938 7.59375-4.386719v8.769531zm0 0"/><path d="m167.339844 61.59375 7.597656-4.382812v8.769531zm0 0"/><path d="m159.746094 65.980469 7.59375-4.386719v8.773438zm0 0"/><path d="m152.148438 70.367188 7.597656-4.386719v8.769531zm0 0"/><path d="m144.554688 74.75 7.59375-4.382812v8.769531zm0 0"/><path d="m136.957031 79.136719 7.597657-4.386719v8.773438zm0 0"/><path d="m129.363281 83.523438 7.59375-4.386719v8.769531zm0 0"/><path d="m121.765625 87.90625 7.597656-4.382812v8.769531zm0 0"/><path d="m114.171875 92.292969 7.59375-4.386719v8.769531zm0 0"/><path d="m106.574219 96.675781 7.597656-4.382812v8.769531zm0 0"/><path d="m98.980469 101.0625 7.59375-4.386719v8.773438zm0 0"/><path d="m91.382812 105.449219 7.597657-4.386719v8.769531zm0 0"/><path d="m83.789062 109.832031 7.59375-4.382812v8.769531zm0 0"/><path d="m76.191406 114.21875 7.597656-4.386719v8.773438zm0 0"/><path d="m68.597656 118.605469 7.59375-4.386719v8.769531zm0 0"/><path d="m68.597656 127.375 7.59375-4.386719v8.773438zm0 0"/><path d="m68.597656 136.144531 7.59375-4.382812v8.769531zm0 0"/><path d="m68.597656 144.917969 7.59375-4.386719v8.769531zm0 0"/><path d="m68.597656 153.6875 7.59375-4.386719v8.773438zm0 0"/><path d="m68.597656 162.457031 7.59375-4.382812v8.769531zm0 0"/><path d="m68.597656 171.230469 7.59375-4.386719v8.769531zm0 0"/><path d="m68.597656 180 7.59375-4.386719v8.773438zm0 0"/><path d="m68.597656 188.769531 7.59375-4.382812v8.769531zm0 0"/><path d="m68.597656 197.542969 7.59375-4.386719v8.769531zm0 0"/><path d="m68.597656 206.3125 7.59375-4.386719v8.773438zm0 0"/><path d="m68.597656 215.082031 7.59375-4.382812v8.769531zm0 0"/><path d="m68.597656 223.855469 7.59375-4.386719v8.769531zm0 0"/><path d="m68.597656 232.625 7.59375-4.386719v8.773438zm0 0"/><path d="m68.597656 241.394531 7.59375-4.382812v8.769531zm0 0"/><path d="m76.191406 245.78125 7.597656-4.386719v8.773438zm0 0"/><path d="m83.789062 250.167969 7.59375-4.386719v8.769531zm0 0"/><path d="m91.382812 254.550781 7.597657-4.382812v8.769531zm0 0"/><path d="m98.980469 258.9375 7.59375-4.386719v8.773438zm0 0"/><path d="m106.574219 263.324219 7.597656-4.386719v8.769531zm0 0"/><path d="m114.171875 267.707031 7.59375-4.382812v8.769531zm0 0"/><path d="m121.765625 272.09375 7.597656-4.386719v8.769531zm0 0"/><path d="m129.363281 276.476562 7.59375-4.382812v8.769531zm0 0"/><path d="m136.957031 280.863281 7.597657-4.386719v8.773438zm0 0"/><path d="m144.554688 285.25 7.59375-4.386719v8.769531zm0 0"/><path d="m152.148438 289.632812 7.597656-4.382812v8.769531zm0 0"/><path d="m159.746094 294.019531 7.59375-4.386719v8.773438zm0 0"/><path d="m167.339844 298.40625 7.597656-4.386719v8.769531zm0 0"/><path d="m174.9375 302.789062 7.59375-4.382812v8.769531zm0 0"/><path d="m182.53125 298.40625 7.597656-4.386719v8.769531zm0 0"/><path d="m190.128906 294.019531 7.59375-4.386719v8.773438zm0 0"/><path d="m197.722656 289.632812 7.597656-4.382812v8.769531zm0 0"/><path d="m205.320312 285.25 7.59375-4.386719v8.769531zm0 0"/><path d="m212.914062 280.863281 7.597657-4.386719v8.773438zm0 0"/><path d="m220.511719 276.476562 7.59375-4.382812v8.769531zm0 0"/><path d="m228.105469 272.09375 7.597656-4.386719v8.769531zm0 0"/><path d="m235.703125 267.707031 7.59375-4.382812v8.769531zm0 0"/><path d="m243.296875 263.324219 7.597656-4.386719v8.769531zm0 0"/><path d="m250.894531 258.9375 7.59375-4.386719v8.773438zm0 0"/><path d="m258.488281 254.550781 7.597657-4.382812v8.769531zm0 0"/><path d="m266.085938 250.167969 7.59375-4.386719v8.769531zm0 0"/><path d="m273.679688 245.78125 7.597656-4.386719v8.773438zm0 0"/><path d="m296.46875 250.167969 7.59375-4.386719v8.769531zm0 0"/><path d="m296.46875 241.394531 7.59375-4.382812v8.769531zm0 0"/><path d="m296.46875 232.625 7.59375-4.386719v8.773438zm0 0"/><path d="m296.46875 223.855469 7.59375-4.386719v8.769531zm0 0"/><path d="m296.46875 215.082031 7.59375-4.382812v8.769531zm0 0"/><path d="m296.46875 206.3125 7.59375-4.386719v8.773438zm0 0"/><path d="m296.46875 197.542969 7.59375-4.386719v8.769531zm0 0"/><path d="m296.46875 188.769531 7.59375-4.382812v8.769531zm0 0"/><path d="m296.46875 180 7.59375-4.386719v8.773438zm0 0"/><path d="m296.46875 171.230469 7.59375-4.386719v8.769531zm0 0"/><path d="m296.46875 162.457031 7.59375-4.382812v8.769531zm0 0"/><path d="m296.46875 153.6875 7.59375-4.386719v8.773438zm0 0"/><path d="m296.46875 144.917969 7.59375-4.386719v8.769531zm0 0"/><path d="m296.46875 136.144531 7.59375-4.382812v8.769531zm0 0"/><path d="m296.46875 127.375 7.59375-4.386719v8.773438zm0 0"/><path d="m296.46875 118.605469 7.59375-4.386719v8.769531zm0 0"/><path d="m296.46875 109.832031 7.59375-4.382812v8.769531zm0 0"/><path d="m288.871094 105.449219 7.597656-4.386719v8.769531zm0 0"/><path d="m281.277344 101.0625 7.59375-4.386719v8.773438zm0 0"/><path d="m273.679688 96.675781 7.597656-4.382812v8.769531zm0 0"/><path d="m266.085938 92.292969 7.59375-4.386719v8.769531zm0 0"/><path d="m258.488281 87.90625 7.597657-4.382812v8.769531zm0 0"/><path d="m250.894531 83.523438 7.59375-4.386719v8.769531zm0 0"/><path d="m243.296875 79.136719 7.597656-4.386719v8.773438zm0 0"/><path d="m235.703125 74.75 7.59375-4.382812v8.769531zm0 0"/><path d="m228.105469 70.367188 7.597656-4.386719v8.769531zm0 0"/><path d="m220.511719 65.980469 7.59375-4.386719v8.773438zm0 0"/><path d="m212.914062 61.59375 7.597657-4.382812v8.769531zm0 0"/><path d="m205.320312 57.210938 7.59375-4.386719v8.769531zm0 0"/><path d="m197.722656 52.824219 7.597656-4.386719v8.773438zm0 0"/><path d="m190.128906 48.4375 7.59375-4.382812v8.769531zm0 0"/><path d="m182.53125 44.054688 7.597656-4.386719v8.769531zm0 0"/><path d="m174.9375 39.667969 7.59375-4.386719v8.773438zm0 0"/><path d="m167.339844 44.054688 7.597656-4.386719v8.769531zm0 0"/><path d="m159.746094 48.4375 7.59375-4.382812v8.769531zm0 0"/><path d="m152.148438 52.824219 7.597656-4.386719v8.773438zm0 0"/><path d="m144.554688 57.210938 7.59375-4.386719v8.769531zm0 0"/><path d="m136.957031 61.59375 7.597657-4.382812v8.769531zm0 0"/><path d="m129.363281 65.980469 7.59375-4.386719v8.773438zm0 0"/><path d="m121.765625 70.367188 7.597656-4.386719v8.769531zm0 0"/><path d="m114.171875 74.75 7.59375-4.382812v8.769531zm0 0"/><path d="m106.574219 79.136719 7.597656-4.386719v8.773438zm0 0"/><path d="m98.980469 83.523438 7.59375-4.386719v8.769531zm0 0"/><path d="m91.382812 87.90625 7.597657-4.382812v8.769531zm0 0"/><path d="m83.789062 92.292969 7.59375-4.386719v8.769531zm0 0"/><path d="m76.191406 96.675781 7.597656-4.382812v8.769531zm0 0"/><path d="m68.597656 101.0625 7.59375-4.386719v8.773438zm0 0"/><path d="m61 105.449219 7.597656-4.386719v8.769531zm0 0"/><path d="m53.40625 109.832031 7.59375-4.382812v8.769531zm0 0"/><path d="m53.40625 118.605469 7.59375-4.386719v8.769531zm0 0"/><path d="m53.40625 127.375 7.59375-4.386719v8.773438zm0 0"/><path d="m53.40625 136.144531 7.59375-4.382812v8.769531zm0 0"/><path d="m53.40625 144.917969 7.59375-4.386719v8.769531zm0 0"/><path d="m53.40625 153.6875 7.59375-4.386719v8.773438zm0 0"/><path d="m53.40625 162.457031 7.59375-4.382812v8.769531zm0 0"/><path d="m53.40625 171.230469 7.59375-4.386719v8.769531zm0 0"/><path d="m53.40625 180 7.59375-4.386719v8.773438zm0 0"/><path d="m53.40625 188.769531 7.59375-4.382812v8.769531zm0 0"/><path d="m53.40625 197.542969 7.59375-4.386719v8.769531zm0 0"/><path d="m53.40625 206.3125 7.59375-4.386719v8.773438zm0 0"/><path d="m53.40625 215.082031 7.59375-4.382812v8.769531zm0 0"/><path d="m53.40625 223.855469 7.59375-4.386719v8.769531zm0 0"/><path d="m53.40625 232.625 7.59375-4.386719v8.773438zm0 0"/><path d="m53.40625 241.394531 7.59375-4.382812v8.769531zm0 0"/><path d="m53.40625 250.167969 7.59375-4.386719v8.769531zm0 0"/><path d="m61 254.550781 7.597656-4.382812v8.769531zm0 0"/><path d="m68.597656 258.9375 7.59375-4.386719v8.773438zm0 0"/><path d="m76.191406 263.324219 7.597656-4.386719v8.769531zm0 0"/><path d="m83.789062 267.707031 7.59375-4.382812v8.769531zm0 0"/><path d="m91.382812 272.09375 7.597657-4.386719v8.769531zm0 0"/><path d="m98.980469 276.476562 7.59375-4.382812v8.769531zm0 0"/><path d="m106.574219 280.863281 7.597656-4.386719v8.773438zm0 0"/><path d="m114.171875 285.25 7.59375-4.386719v8.769531zm0 0"/><path d="m121.765625 289.632812 7.597656-4.382812v8.769531zm0 0"/><path d="m129.363281 294.019531 7.59375-4.386719v8.773438zm0 0"/><path d="m136.957031 298.40625 7.597657-4.386719v8.769531zm0 0"/><path d="m144.554688 302.789062 7.59375-4.382812v8.769531zm0 0"/><path d="m152.148438 307.175781 7.597656-4.386719v8.773438zm0 0"/><path d="m159.746094 311.5625 7.59375-4.386719v8.769531zm0 0"/><path d="m167.339844 315.945312 7.597656-4.382812v8.769531zm0 0"/><path d="m174.9375 320.332031 7.59375-4.386719v8.773438zm0 0"/><path d="m182.53125 315.945312 7.597656-4.382812v8.769531zm0 0"/><path d="m190.128906 311.5625 7.59375-4.386719v8.769531zm0 0"/><path d="m197.722656 307.175781 7.597656-4.386719v8.773438zm0 0"/><path d="m205.320312 302.789062 7.59375-4.382812v8.769531zm0 0"/><path d="m212.914062 298.40625 7.597657-4.386719v8.769531zm0 0"/><path d="m220.511719 294.019531 7.59375-4.386719v8.773438zm0 0"/><path d="m228.105469 289.632812 7.597656-4.382812v8.769531zm0 0"/><path d="m235.703125 285.25 7.59375-4.386719v8.769531zm0 0"/><path d="m243.296875 280.863281 7.597656-4.386719v8.773438zm0 0"/><path d="m250.894531 276.476562 7.59375-4.382812v8.769531zm0 0"/><path d="m258.488281 272.09375 7.597657-4.386719v8.769531zm0 0"/><path d="m266.085938 267.707031 7.59375-4.382812v8.769531zm0 0"/><path d="m273.679688 263.324219 7.597656-4.386719v8.769531zm0 0"/><path d="m281.277344 258.9375 7.59375-4.386719v8.773438zm0 0"/><path d="m288.871094 254.550781 7.597656-4.382812v8.769531zm0 0"/></g></svg>