<svg height="360pt" viewBox="0 0 360 360" width="360pt" xmlns="http://www.w3.org/2000/svg"><path d="m0 0h360v360h-360z" fill="#fff"/><g fill="#800080" fill-rule="evenodd"><path d="m179.636719 180 4.058593-2.339844v4.679688zm0 0"/><path d="m175.582031 177.660156 4.054688-2.34375v4.683594zm0 0"/><path d="m175.582031 182.339844 4.054688-2.339844v4.683594zm0 0"/><path d="m305.367188 252.589844 4.058593-2.339844v4.683594zm0 0"/><path d="m305.367188 107.410156 4.058593-2.34375v4.683594zm0 0"/><path d="m309.425781 254.933594 4.054688-2.34375v4.683594zm0 0"/><path d="m309.425781 105.066406 4.054688-2.339844v4.683594zm0 0"/><path d="m305.367188 102.726562 4.058593-2.34375v4.683594zm0 0"/><path d="m179.636719 30.136719 4.058593-2.34375v4.683593zm0 0"/><path d="m175.582031 32.476562 4.054688-2.339843v4.679687zm0 0"/><path d="m49.851562 105.066406 4.054688-2.339844v4.683594zm0 0"/><path d="m49.851562 254.933594 4.054688-2.34375v4.683594zm0 0"/><path d="m175.582031 327.523438 4.054688-2.339844v4.679687zm0 0"/><path d="m179.636719 329.863281 4.058593-2.339843v4.683593zm0 0"/><path d="m305.367188 257.273438 4.058593-2.339844v4.683594zm0 0"/><path d="m175.582031 27.792969 4.054688-2.339844v4.683594zm0 0"/><path d="m45.796875 102.726562 4.054687-2.34375v4.683594zm0 0"/><path d="m45.796875 107.410156 4.054687-2.34375v4.683594zm0 0"/><path d="m45.796875 252.589844 4.054687-2.339844v4.683594zm0 0"/><path d="m45.796875 257.273438 4.054687-2.339844v4.683594zm0 0"/><path d="m175.582031 332.207031 4.054688-2.34375v4.683594zm0 0"/><path d="m183.695312 177.660156-4.058593-2.34375v4.683594zm0 0"/><path d="m183.695312 182.339844-4.058593-2.339844v4.683594zm0 0"/><path d="m179.636719 180-4.054688-2.339844v4.679688zm0 0"/><path d="m313.480469 252.589844-4.054688-2.339844v4.683594zm0 0"/><path d="m313.480469 107.410156-4.054688-2.34375v4.683594zm0 0"/><path d="m309.425781 105.066406-4.058593-2.339844v4.683594zm0 0"/><path d="m183.695312 32.476562-4.058593-2.339843v4.679687zm0 0"/><path d="m183.695312 327.523438-4.058593-2.339844v4.679687zm0 0"/><path d="m309.425781 254.933594-4.058593-2.34375v4.683594zm0 0"/><path d="m313.480469 102.726562-4.054688-2.34375v4.683594zm0 0"/><path d="m183.695312 27.792969-4.058593-2.339844v4.683594zm0 0"/><path d="m179.636719 30.136719-4.054688-2.34375v4.683593zm0 0"/><path d="m53.90625 102.726562-4.054688-2.34375v4.683594zm0 0"/><path d="m53.90625 107.410156-4.054688-2.34375v4.683594zm0 0"/><path d="m53.90625 252.589844-4.054688-2.339844v4.683594zm0 0"/><path d="m53.90625 257.273438-4.054688-2.339844v4.683594zm0 0"/><path d="m179.636719 329.863281-4.054688-2.339843v4.683593zm0 0"/><path d="m183.695312 332.207031-4.058593-2.34375v4.683594zm0 0"/><path d="m313.480469 257.273438-4.054688-2.339844v4.683594zm0 0"/><path d="m49.851562 105.066406-4.054687-2.339844v4.683594zm0 0"/><path d="m49.851562 254.933594-4.054687-2.34375v4.683594zm0 0"/></g></svg>