<svg height="360pt" viewBox="0 0 360 360" width="360pt" xmlns="http://www.w3.org/2000/svg"><path d="m0 0h360v360h-360z" fill="#fff"/><g fill="#800080"><path d="m176.152344 186.664062 5.773437-3.332031v6.664063zm0 0"/><path d="m176.152344 166.671875 5.773437-3.335937v6.667968zm0 0"/><path d="m170.378906 170.003906 5.773438-3.332031v6.664063zm0 0"/><path d="m164.609375 173.335938 5.769531-3.332032v6.664063zm0 0"/><path d="m164.609375 180 5.769531-3.332031v6.664062zm0 0"/><path d="m170.378906 189.996094 5.773438-3.332032v6.664063zm0 0"/><path d="m181.925781 189.996094 5.769531-3.332032v6.664063zm0 0"/><path d="m181.925781 163.335938 5.769531-3.332032v6.667969zm0 0"/><path d="m170.378906 163.335938 5.773438-3.332032v6.667969zm0 0"/><path d="m164.609375 166.671875 5.769531-3.335937v6.667968zm0 0"/><path d="m158.835938 176.667969 5.773437-3.332031v6.664062zm0 0"/><path d="m181.925781 196.664062 5.769531-3.335937v6.667969zm0 0"/><path d="m187.695312 193.328125 5.773438-3.332031v6.667968zm0 0"/><path d="m199.238281 193.328125 5.773438-3.332031v6.667968zm0 0"/><path d="m199.238281 186.664062 5.773438-3.332031v6.664063zm0 0"/><path d="m199.238281 180 5.773438-3.332031v6.664062zm0 0"/><path d="m187.695312 160.003906 5.773438-3.332031v6.664063zm0 0"/><path d="m181.925781 156.671875 5.769531-3.332031v6.664062zm0 0"/><path d="m164.609375 160.003906 5.769531-3.332031v6.664063zm0 0"/><path d="m153.0625 173.335938 5.773438-3.332032v6.664063zm0 0"/><path d="m153.0625 180 5.773438-3.332031v6.664062zm0 0"/><path d="m153.0625 186.664062 5.773438-3.332031v6.664063zm0 0"/><path d="m153.0625 193.328125 5.773438-3.332031v6.667968zm0 0"/><path d="m205.011719 183.332031 5.773437-3.332031v6.664062zm0 0"/><path d="m199.238281 160.003906 5.773438-3.332031v6.664063zm0 0"/><path d="m193.46875 156.671875 5.769531-3.332031v6.664062zm0 0"/><path d="m187.695312 153.339844 5.773438-3.332032v6.664063zm0 0"/><path d="m181.925781 150.007812 5.769531-3.332031v6.664063zm0 0"/><path d="m176.152344 146.675781 5.773437-3.332031v6.664062zm0 0"/><path d="m147.292969 170.003906 5.769531-3.332031v6.664063zm0 0"/><path d="m153.0625 199.996094 5.773438-3.332032v6.664063zm0 0"/><path d="m158.835938 203.328125 5.773437-3.332031v6.664062zm0 0"/><path d="m164.609375 206.660156 5.769531-3.332031v6.664063zm0 0"/><path d="m170.378906 209.992188 5.773438-3.332032v6.664063zm0 0"/><path d="m176.152344 213.324219 5.773437-3.332031v6.664062zm0 0"/><path d="m187.695312 206.660156 5.773438-3.332031v6.664063zm0 0"/><path d="m193.46875 203.328125 5.769531-3.332031v6.664062zm0 0"/><path d="m210.785156 180 5.769532-3.332031v6.664062zm0 0"/><path d="m210.785156 173.335938 5.769532-3.332032v6.664063zm0 0"/><path d="m181.925781 143.34375 5.769531-3.332031v6.664062zm0 0"/><path d="m158.835938 150.007812 5.773437-3.332031v6.664063zm0 0"/><path d="m153.0625 153.339844 5.773438-3.332032v6.664063zm0 0"/><path d="m147.292969 156.671875 5.769531-3.332031v6.664062zm0 0"/><path d="m141.519531 173.335938 5.773438-3.332032v6.664063zm0 0"/><path d="m141.519531 199.996094 5.773438-3.332032v6.664063zm0 0"/><path d="m147.292969 203.328125 5.769531-3.332031v6.664062zm0 0"/><path d="m153.0625 206.660156 5.773438-3.332031v6.664063zm0 0"/><path d="m176.152344 219.988281 5.773437-3.332031v6.664062zm0 0"/><path d="m181.925781 216.65625 5.769531-3.332031v6.664062zm0 0"/><path d="m193.46875 209.992188 5.769531-3.332032v6.664063zm0 0"/><path d="m199.238281 206.660156 5.773438-3.332031v6.664063zm0 0"/><path d="m216.554688 176.667969 5.773437-3.332031v6.664062zm0 0"/><path d="m216.554688 156.671875 5.773437-3.332031v6.664062zm0 0"/><path d="m205.011719 150.007812 5.773437-3.332031v6.664063zm0 0"/><path d="m187.695312 140.011719 5.773438-3.332031v6.664062zm0 0"/><path d="m181.925781 136.679688 5.769531-3.332032v6.664063zm0 0"/><path d="m153.0625 146.675781 5.773438-3.332031v6.664062zm0 0"/><path d="m135.75 170.003906 5.769531-3.332031v6.664063zm0 0"/><path d="m135.75 176.667969 5.769531-3.332031v6.664062zm0 0"/><path d="m135.75 196.664062 5.769531-3.335937v6.667969zm0 0"/><path d="m135.75 203.328125 5.769531-3.332031v6.664062zm0 0"/><path d="m141.519531 206.660156 5.773438-3.332031v6.664063zm0 0"/><path d="m147.292969 209.992188 5.769531-3.332032v6.664063zm0 0"/><path d="m181.925781 223.320312 5.769531-3.332031v6.664063zm0 0"/><path d="m187.695312 219.988281 5.773438-3.332031v6.664062zm0 0"/><path d="m222.328125 206.660156 5.773437-3.332031v6.664063zm0 0"/><path d="m222.328125 186.664062 5.773437-3.332031v6.664063zm0 0"/><path d="m222.328125 180 5.773437-3.332031v6.664062zm0 0"/><path d="m210.785156 146.675781 5.769532-3.332031v6.664062zm0 0"/><path d="m193.46875 136.679688 5.769531-3.332032v6.664063zm0 0"/><path d="m187.695312 133.347656 5.773438-3.335937v6.667969zm0 0"/><path d="m181.925781 130.011719 5.769531-3.332031v6.667968zm0 0"/><path d="m153.0625 140.011719 5.773438-3.332031v6.664062zm0 0"/><path d="m129.976562 153.339844 5.773438-3.332032v6.664063zm0 0"/><path d="m129.976562 166.671875 5.773438-3.335937v6.667968zm0 0"/><path d="m129.976562 193.328125 5.773438-3.332031v6.667968zm0 0"/><path d="m129.976562 199.996094 5.773438-3.332032v6.664063zm0 0"/><path d="m129.976562 206.660156 5.773438-3.332031v6.664063zm0 0"/><path d="m135.75 209.992188 5.769531-3.332032v6.664063zm0 0"/><path d="m158.835938 223.320312 5.773437-3.332031v6.664063zm0 0"/><path d="m181.925781 229.988281 5.769531-3.335937v6.667968zm0 0"/><path d="m205.011719 216.65625 5.773437-3.332031v6.664062zm0 0"/><path d="m228.101562 209.992188 5.769532-3.332032v6.664063zm0 0"/><path d="m228.101562 183.332031 5.769532-3.332031v6.664062zm0 0"/><path d="m216.554688 143.34375 5.773437-3.332031v6.664062zm0 0"/><path d="m210.785156 140.011719 5.769532-3.332031v6.664062zm0 0"/><path d="m176.152344 120.015625 5.773437-3.332031v6.664062zm0 0"/><path d="m170.378906 123.347656 5.773438-3.332031v6.664063zm0 0"/><path d="m164.609375 126.679688 5.769531-3.332032v6.664063zm0 0"/><path d="m158.835938 130.011719 5.773437-3.332031v6.667968zm0 0"/><path d="m147.292969 136.679688 5.769531-3.332032v6.664063zm0 0"/><path d="m141.519531 140.011719 5.773438-3.332031v6.664062zm0 0"/><path d="m124.203125 150.007812 5.773437-3.332031v6.664063zm0 0"/><path d="m124.203125 156.671875 5.773437-3.332031v6.664062zm0 0"/><path d="m124.203125 163.335938 5.773437-3.332032v6.667969zm0 0"/><path d="m124.203125 170.003906 5.773437-3.332031v6.664063zm0 0"/><path d="m124.203125 189.996094 5.773437-3.332032v6.664063zm0 0"/><path d="m124.203125 196.664062 5.773437-3.335937v6.667969zm0 0"/><path d="m129.976562 213.324219 5.773438-3.332031v6.664062zm0 0"/><path d="m158.835938 229.988281 5.773437-3.335937v6.667968zm0 0"/><path d="m164.609375 233.320312 5.769531-3.332031v6.664063zm0 0"/><path d="m170.378906 236.652344 5.773438-3.332032v6.664063zm0 0"/><path d="m205.011719 223.320312 5.773437-3.332031v6.664063zm0 0"/><path d="m210.785156 219.988281 5.769532-3.332031v6.664062zm0 0"/><path d="m222.328125 213.324219 5.773437-3.332031v6.664062zm0 0"/><path d="m233.871094 213.324219 5.773437-3.332031v6.664062zm0 0"/><path d="m233.871094 206.660156 5.773437-3.332031v6.664063zm0 0"/><path d="m233.871094 199.996094 5.773437-3.332032v6.664063zm0 0"/><path d="m233.871094 193.328125 5.773437-3.332031v6.667968zm0 0"/><path d="m233.871094 180 5.773437-3.332031v6.664062zm0 0"/><path d="m233.871094 173.335938 5.773437-3.332032v6.664063zm0 0"/><path d="m233.871094 166.671875 5.773437-3.335937v6.667968zm0 0"/><path d="m233.871094 160.003906 5.773437-3.332031v6.664063zm0 0"/><path d="m233.871094 153.339844 5.773437-3.332032v6.664063zm0 0"/><path d="m233.871094 146.675781 5.773437-3.332031v6.664062zm0 0"/><path d="m222.328125 140.011719 5.773437-3.332031v6.664062zm0 0"/><path d="m216.554688 136.679688 5.773437-3.332032v6.664063zm0 0"/><path d="m210.785156 133.347656 5.769532-3.335937v6.667969zm0 0"/><path d="m181.925781 116.683594 5.769531-3.332032v6.664063zm0 0"/><path d="m176.152344 113.351562 5.773437-3.332031v6.664063zm0 0"/><path d="m170.378906 116.683594 5.773438-3.332032v6.664063zm0 0"/><path d="m158.835938 123.347656 5.773437-3.332031v6.664063zm0 0"/><path d="m141.519531 133.347656 5.773438-3.335937v6.667969zm0 0"/><path d="m118.433594 173.335938 5.769531-3.332032v6.664063zm0 0"/><path d="m118.433594 186.664062 5.769531-3.332031v6.664063zm0 0"/><path d="m118.433594 193.328125 5.769531-3.332031v6.667968zm0 0"/><path d="m118.433594 199.996094 5.769531-3.332032v6.664063zm0 0"/><path d="m164.609375 239.984375 5.769531-3.332031v6.664062zm0 0"/><path d="m176.152344 246.648438 5.773437-3.332032v6.664063zm0 0"/><path d="m199.238281 233.320312 5.773438-3.332031v6.664063zm0 0"/><path d="m222.328125 219.988281 5.773437-3.332031v6.664062zm0 0"/><path d="m228.101562 216.65625 5.769532-3.332031v6.664062zm0 0"/><path d="m239.644531 209.992188 5.769531-3.332032v6.664063zm0 0"/><path d="m239.644531 203.328125 5.769531-3.332031v6.664062zm0 0"/><path d="m239.644531 196.664062 5.769531-3.335937v6.667969zm0 0"/><path d="m239.644531 176.667969 5.769531-3.332031v6.664062zm0 0"/><path d="m239.644531 163.335938 5.769531-3.332032v6.667969zm0 0"/><path d="m239.644531 156.671875 5.769531-3.332031v6.664062zm0 0"/><path d="m239.644531 143.34375 5.769531-3.332031v6.664062zm0 0"/><path d="m199.238281 120.015625 5.773438-3.332031v6.664062zm0 0"/><path d="m187.695312 113.351562 5.773438-3.332031v6.664063zm0 0"/><path d="m170.378906 110.019531 5.773438-3.332031v6.664062zm0 0"/><path d="m124.203125 136.679688 5.773437-3.332032v6.664063zm0 0"/><path d="m118.433594 140.011719 5.769531-3.332031v6.664062zm0 0"/><path d="m112.660156 143.34375 5.773438-3.332031v6.664062zm0 0"/><path d="m112.660156 170.003906 5.773438-3.332031v6.664063zm0 0"/><path d="m112.660156 203.328125 5.773438-3.332031v6.664062zm0 0"/><path d="m112.660156 216.65625 5.773438-3.332031v6.664062zm0 0"/><path d="m118.433594 219.988281 5.769531-3.332031v6.664062zm0 0"/><path d="m124.203125 223.320312 5.773437-3.332031v6.664063zm0 0"/><path d="m129.976562 226.652344 5.773438-3.332032v6.667969zm0 0"/><path d="m135.75 229.988281 5.769531-3.335937v6.667968zm0 0"/><path d="m187.695312 246.648438 5.773438-3.332032v6.664063zm0 0"/><path d="m193.46875 243.316406 5.769531-3.332031v6.664063zm0 0"/><path d="m199.238281 239.984375 5.773438-3.332031v6.664062zm0 0"/><path d="m205.011719 236.652344 5.773437-3.332032v6.664063zm0 0"/><path d="m222.328125 226.652344 5.773437-3.332032v6.667969zm0 0"/><path d="m245.414062 206.660156 5.773438-3.332031v6.664063zm0 0"/><path d="m245.414062 199.996094 5.773438-3.332032v6.664063zm0 0"/><path d="m245.414062 193.328125 5.773438-3.332031v6.667968zm0 0"/><path d="m245.414062 186.664062 5.773438-3.332031v6.664063zm0 0"/><path d="m245.414062 180 5.773438-3.332031v6.664062zm0 0"/><path d="m245.414062 160.003906 5.773438-3.332031v6.664063zm0 0"/><path d="m205.011719 116.683594 5.773437-3.332032v6.664063zm0 0"/><path d="m199.238281 113.351562 5.773438-3.332031v6.664063zm0 0"/><path d="m193.46875 110.019531 5.769531-3.332031v6.664062zm0 0"/><path d="m187.695312 106.6875 5.773438-3.332031v6.664062zm0 0"/><path d="m164.609375 106.6875 5.769531-3.332031v6.664062zm0 0"/><path d="m158.835938 110.019531 5.773437-3.332031v6.664062zm0 0"/><path d="m141.519531 120.015625 5.773438-3.332031v6.664062zm0 0"/><path d="m135.75 123.347656 5.769531-3.332031v6.664063zm0 0"/><path d="m118.433594 133.347656 5.769531-3.335937v6.667969zm0 0"/><path d="m106.886719 146.675781 5.773437-3.332031v6.664062zm0 0"/><path d="m106.886719 166.671875 5.773437-3.335937v6.667968zm0 0"/><path d="m106.886719 173.335938 5.773437-3.332032v6.664063zm0 0"/><path d="m106.886719 186.664062 5.773437-3.332031v6.664063zm0 0"/><path d="m106.886719 199.996094 5.773437-3.332032v6.664063zm0 0"/><path d="m106.886719 219.988281 5.773437-3.332031v6.664062zm0 0"/><path d="m118.433594 226.652344 5.769531-3.332032v6.667969zm0 0"/><path d="m124.203125 229.988281 5.773437-3.335937v6.667968zm0 0"/><path d="m135.75 236.652344 5.769531-3.332032v6.664063zm0 0"/><path d="m141.519531 239.984375 5.773438-3.332031v6.664062zm0 0"/><path d="m147.292969 243.316406 5.769531-3.332031v6.664063zm0 0"/><path d="m153.0625 246.648438 5.773438-3.332032v6.664063zm0 0"/><path d="m210.785156 239.984375 5.769532-3.332031v6.664062zm0 0"/><path d="m222.328125 233.320312 5.773437-3.332031v6.664063zm0 0"/><path d="m228.101562 229.988281 5.769532-3.335937v6.667968zm0 0"/><path d="m233.871094 226.652344 5.773437-3.332032v6.667969zm0 0"/><path d="m251.1875 223.320312 5.773438-3.332031v6.664063zm0 0"/><path d="m251.1875 203.328125 5.773438-3.332031v6.664062zm0 0"/><path d="m251.1875 196.664062 5.773438-3.335937v6.667969zm0 0"/><path d="m251.1875 183.332031 5.773438-3.332031v6.664062zm0 0"/><path d="m222.328125 120.015625 5.773437-3.332031v6.664062zm0 0"/><path d="m176.152344 93.355469 5.773437-3.332031v6.664062zm0 0"/><path d="m158.835938 103.355469 5.773437-3.335938v6.667969zm0 0"/><path d="m147.292969 110.019531 5.769531-3.332031v6.664062zm0 0"/><path d="m135.75 116.683594 5.769531-3.332032v6.664063zm0 0"/><path d="m112.660156 130.011719 5.773438-3.332031v6.667968zm0 0"/><path d="m101.117188 136.679688 5.769531-3.332032v6.664063zm0 0"/><path d="m101.117188 143.34375 5.769531-3.332031v6.664062zm0 0"/><path d="m101.117188 150.007812 5.769531-3.332031v6.664063zm0 0"/><path d="m101.117188 156.671875 5.769531-3.332031v6.664062zm0 0"/><path d="m101.117188 163.335938 5.769531-3.332032v6.667969zm0 0"/><path d="m101.117188 183.332031 5.769531-3.332031v6.664062zm0 0"/><path d="m101.117188 196.664062 5.769531-3.335937v6.667969zm0 0"/><path d="m101.117188 203.328125 5.769531-3.332031v6.664062zm0 0"/><path d="m101.117188 216.65625 5.769531-3.332031v6.664062zm0 0"/><path d="m118.433594 233.320312 5.769531-3.332031v6.664063zm0 0"/><path d="m141.519531 246.648438 5.773438-3.332032v6.664063zm0 0"/><path d="m153.0625 253.3125 5.773438-3.332031v6.664062zm0 0"/><path d="m164.609375 259.980469 5.769531-3.335938v6.667969zm0 0"/><path d="m210.785156 246.648438 5.769532-3.332032v6.664063zm0 0"/><path d="m256.960938 226.652344 5.769531-3.332032v6.667969zm0 0"/><path d="m256.960938 213.324219 5.769531-3.332031v6.664062zm0 0"/><path d="m256.960938 199.996094 5.769531-3.332032v6.664063zm0 0"/><path d="m256.960938 180 5.769531-3.332031v6.664062zm0 0"/><path d="m256.960938 173.335938 5.769531-3.332032v6.664063zm0 0"/><path d="m256.960938 146.675781 5.769531-3.332031v6.664062zm0 0"/><path d="m256.960938 140.011719 5.769531-3.332031v6.664062zm0 0"/><path d="m256.960938 133.347656 5.769531-3.335937v6.667969zm0 0"/><path d="m239.644531 123.347656 5.769531-3.332031v6.664063zm0 0"/><path d="m222.328125 113.351562 5.773437-3.332031v6.664063zm0 0"/><path d="m181.925781 90.023438 5.769531-3.332032v6.664063zm0 0"/><path d="m176.152344 86.691406 5.773437-3.332031v6.664063zm0 0"/><path d="m147.292969 103.355469 5.769531-3.335938v6.667969zm0 0"/><path d="m141.519531 106.6875 5.773438-3.332031v6.664062zm0 0"/><path d="m129.976562 113.351562 5.773438-3.332031v6.664063zm0 0"/><path d="m124.203125 116.683594 5.773437-3.332032v6.664063zm0 0"/><path d="m118.433594 120.015625 5.769531-3.332031v6.664062zm0 0"/><path d="m112.660156 123.347656 5.773438-3.332031v6.664063zm0 0"/><path d="m95.34375 166.671875 5.773438-3.335937v6.667968zm0 0"/><path d="m95.34375 180 5.773438-3.332031v6.664062zm0 0"/><path d="m95.34375 193.328125 5.773438-3.332031v6.667968zm0 0"/><path d="m95.34375 219.988281 5.773438-3.332031v6.664062zm0 0"/><path d="m153.0625 259.980469 5.773438-3.335938v6.667969zm0 0"/><path d="m158.835938 263.3125 5.773437-3.332031v6.664062zm0 0"/><path d="m210.785156 253.3125 5.769532-3.332031v6.664062zm0 0"/><path d="m216.554688 249.980469 5.773437-3.332031v6.664062zm0 0"/><path d="m228.101562 243.316406 5.769532-3.332031v6.664063zm0 0"/><path d="m251.1875 229.988281 5.773438-3.335937v6.667968zm0 0"/><path d="m262.730469 229.988281 5.773437-3.335937v6.667968zm0 0"/><path d="m262.730469 216.65625 5.773437-3.332031v6.664062zm0 0"/><path d="m262.730469 209.992188 5.773437-3.332032v6.664063zm0 0"/><path d="m262.730469 176.667969 5.773437-3.332031v6.664062zm0 0"/><path d="m262.730469 156.671875 5.773437-3.332031v6.664062zm0 0"/><path d="m262.730469 150.007812 5.773437-3.332031v6.664063zm0 0"/><path d="m262.730469 143.34375 5.773437-3.332031v6.664062zm0 0"/><path d="m262.730469 136.679688 5.773437-3.332032v6.664063zm0 0"/><path d="m245.414062 120.015625 5.773438-3.332031v6.664062zm0 0"/><path d="m239.644531 116.683594 5.769531-3.332032v6.664063zm0 0"/><path d="m210.785156 100.019531 5.769532-3.332031v6.667969zm0 0"/><path d="m199.238281 93.355469 5.773438-3.332031v6.664062zm0 0"/><path d="m158.835938 90.023438 5.773437-3.332032v6.664063zm0 0"/><path d="m153.0625 93.355469 5.773438-3.332031v6.664062zm0 0"/><path d="m124.203125 110.019531 5.773437-3.332031v6.664062zm0 0"/><path d="m118.433594 113.351562 5.769531-3.332031v6.664063zm0 0"/><path d="m112.660156 116.683594 5.773438-3.332032v6.664063zm0 0"/><path d="m106.886719 120.015625 5.773437-3.332031v6.664062zm0 0"/><path d="m101.117188 123.347656 5.769531-3.332031v6.664063zm0 0"/><path d="m89.574219 150.007812 5.769531-3.332031v6.664063zm0 0"/><path d="m89.574219 163.335938 5.769531-3.332032v6.667969zm0 0"/><path d="m89.574219 170.003906 5.769531-3.332031v6.664063zm0 0"/><path d="m89.574219 189.996094 5.769531-3.332032v6.664063zm0 0"/><path d="m89.574219 196.664062 5.769531-3.335937v6.667969zm0 0"/><path d="m89.574219 216.65625 5.769531-3.332031v6.664062zm0 0"/><path d="m95.34375 233.320312 5.773438-3.332031v6.664063zm0 0"/><path d="m101.117188 236.652344 5.769531-3.332032v6.664063zm0 0"/><path d="m106.886719 239.984375 5.773437-3.332031v6.664062zm0 0"/><path d="m112.660156 243.316406 5.773438-3.332031v6.664063zm0 0"/><path d="m118.433594 246.648438 5.769531-3.332032v6.664063zm0 0"/><path d="m124.203125 249.980469 5.773437-3.332031v6.664062zm0 0"/><path d="m129.976562 253.3125 5.773438-3.332031v6.664062zm0 0"/><path d="m147.292969 263.3125 5.769531-3.332031v6.664062zm0 0"/><path d="m153.0625 266.644531 5.773438-3.332031v6.664062zm0 0"/><path d="m210.785156 259.980469 5.769532-3.335938v6.667969zm0 0"/><path d="m228.101562 249.980469 5.769532-3.332031v6.664062zm0 0"/><path d="m239.644531 243.316406 5.769531-3.332031v6.664063zm0 0"/><path d="m251.1875 236.652344 5.773438-3.332032v6.664063zm0 0"/><path d="m256.960938 233.320312 5.769531-3.332031v6.664063zm0 0"/><path d="m268.503906 206.660156 5.769532-3.332031v6.664063zm0 0"/><path d="m268.503906 193.328125 5.769532-3.332031v6.667968zm0 0"/><path d="m268.503906 186.664062 5.769532-3.332031v6.664063zm0 0"/><path d="m268.503906 180 5.769532-3.332031v6.664062zm0 0"/><path d="m268.503906 146.675781 5.769532-3.332031v6.664062zm0 0"/><path d="m268.503906 140.011719 5.769532-3.332031v6.664062zm0 0"/><path d="m251.1875 116.683594 5.773438-3.332032v6.664063zm0 0"/><path d="m245.414062 113.351562 5.773438-3.332031v6.664063zm0 0"/><path d="m216.554688 96.6875 5.773437-3.332031v6.664062zm0 0"/><path d="m210.785156 93.355469 5.769532-3.332031v6.664062zm0 0"/><path d="m205.011719 90.023438 5.773437-3.332032v6.664063zm0 0"/><path d="m199.238281 86.691406 5.773438-3.332031v6.664063zm0 0"/><path d="m153.0625 86.691406 5.773438-3.332031v6.664063zm0 0"/><path d="m112.660156 110.019531 5.773438-3.332031v6.664062zm0 0"/><path d="m106.886719 113.351562 5.773437-3.332031v6.664063zm0 0"/><path d="m83.800781 173.335938 5.773438-3.332032v6.664063zm0 0"/><path d="m83.800781 186.664062 5.773438-3.332031v6.664063zm0 0"/><path d="m83.800781 213.324219 5.773438-3.332031v6.664062zm0 0"/><path d="m83.800781 219.988281 5.773438-3.332031v6.664062zm0 0"/><path d="m95.34375 239.984375 5.773438-3.332031v6.664062zm0 0"/><path d="m101.117188 243.316406 5.769531-3.332031v6.664063zm0 0"/><path d="m118.433594 253.3125 5.769531-3.332031v6.664062zm0 0"/><path d="m124.203125 256.644531 5.773437-3.332031v6.667969zm0 0"/><path d="m216.554688 263.3125 5.773437-3.332031v6.664062zm0 0"/><path d="m228.101562 256.644531 5.769532-3.332031v6.667969zm0 0"/><path d="m239.644531 249.980469 5.769531-3.332031v6.664062zm0 0"/><path d="m245.414062 246.648438 5.773438-3.332032v6.664063zm0 0"/><path d="m274.273438 216.65625 5.773437-3.332031v6.664062zm0 0"/><path d="m274.273438 203.328125 5.773437-3.332031v6.664062zm0 0"/><path d="m274.273438 183.332031 5.773437-3.332031v6.664062zm0 0"/><path d="m274.273438 136.679688 5.773437-3.332032v6.664063zm0 0"/><path d="m274.273438 130.011719 5.773437-3.332031v6.667968zm0 0"/><path d="m268.503906 120.015625 5.769532-3.332031v6.664062zm0 0"/><path d="m256.960938 113.351562 5.769531-3.332031v6.664063zm0 0"/><path d="m233.871094 100.019531 5.773437-3.332031v6.667969zm0 0"/><path d="m106.886719 106.6875 5.773437-3.332031v6.664062zm0 0"/><path d="m101.117188 110.019531 5.769531-3.332031v6.664062zm0 0"/><path d="m95.34375 113.351562 5.773438-3.332031v6.664063zm0 0"/><path d="m78.027344 136.679688 5.773437-3.332032v6.664063zm0 0"/><path d="m78.027344 143.34375 5.773437-3.332031v6.664062zm0 0"/><path d="m78.027344 170.003906 5.773437-3.332031v6.664063zm0 0"/><path d="m78.027344 176.667969 5.773437-3.332031v6.664062zm0 0"/><path d="m78.027344 183.332031 5.773437-3.332031v6.664062zm0 0"/><path d="m78.027344 236.652344 5.773437-3.332032v6.664063zm0 0"/><path d="m83.800781 239.984375 5.773438-3.332031v6.664062zm0 0"/><path d="m89.574219 243.316406 5.769531-3.332031v6.664063zm0 0"/><path d="m124.203125 263.3125 5.773437-3.332031v6.664062zm0 0"/><path d="m129.976562 266.644531 5.773438-3.332031v6.664062zm0 0"/><path d="m135.75 269.976562 5.769531-3.332031v6.664063zm0 0"/><path d="m210.785156 273.308594 5.769532-3.332032v6.664063zm0 0"/><path d="m222.328125 266.644531 5.773437-3.332031v6.664062zm0 0"/><path d="m239.644531 256.644531 5.769531-3.332031v6.667969zm0 0"/><path d="m245.414062 253.3125 5.773438-3.332031v6.664062zm0 0"/><path d="m251.1875 249.980469 5.773438-3.332031v6.664062zm0 0"/><path d="m262.730469 243.316406 5.773437-3.332031v6.664063zm0 0"/><path d="m280.046875 166.671875 5.773437-3.335937v6.667968zm0 0"/><path d="m280.046875 160.003906 5.773437-3.332031v6.664063zm0 0"/><path d="m280.046875 153.339844 5.773437-3.332032v6.664063zm0 0"/><path d="m280.046875 126.679688 5.773437-3.332032v6.664063zm0 0"/><path d="m268.503906 113.351562 5.769532-3.332031v6.664063zm0 0"/><path d="m239.644531 96.6875 5.769531-3.332031v6.664062zm0 0"/><path d="m233.871094 93.355469 5.773437-3.332031v6.664062zm0 0"/><path d="m101.117188 103.355469 5.769531-3.335938v6.667969zm0 0"/><path d="m72.257812 160.003906 5.769532-3.332031v6.664063zm0 0"/><path d="m72.257812 199.996094 5.769532-3.332032v6.664063zm0 0"/><path d="m72.257812 233.320312 5.769532-3.332031v6.664063zm0 0"/><path d="m124.203125 269.976562 5.773437-3.332031v6.664063zm0 0"/><path d="m129.976562 273.308594 5.773438-3.332032v6.664063zm0 0"/><path d="m216.554688 276.640625 5.773437-3.332031v6.664062zm0 0"/><path d="m222.328125 273.308594 5.773437-3.332032v6.664063zm0 0"/><path d="m228.101562 269.976562 5.769532-3.332031v6.664063zm0 0"/><path d="m256.960938 253.3125 5.769531-3.332031v6.664062zm0 0"/><path d="m268.503906 246.648438 5.769532-3.332032v6.664063zm0 0"/><path d="m285.820312 209.992188 5.769532-3.332032v6.664063zm0 0"/><path d="m285.820312 203.328125 5.769532-3.332031v6.664062zm0 0"/><path d="m285.820312 196.664062 5.769532-3.335937v6.667969zm0 0"/><path d="m285.820312 130.011719 5.769532-3.332031v6.667968zm0 0"/><path d="m222.328125 80.027344 5.773437-3.332032v6.664063zm0 0"/><path d="m216.554688 76.695312 5.773437-3.332031v6.664063zm0 0"/><path d="m66.484375 183.332031 5.773437-3.332031v6.664062zm0 0"/><path d="m66.484375 203.328125 5.773437-3.332031v6.664062zm0 0"/><path d="m66.484375 209.992188 5.773437-3.332032v6.664063zm0 0"/><path d="m66.484375 216.65625 5.773437-3.332031v6.664062zm0 0"/><path d="m66.484375 243.316406 5.773437-3.332031v6.664063zm0 0"/><path d="m78.027344 249.980469 5.773437-3.332031v6.664062zm0 0"/><path d="m89.574219 256.644531 5.769531-3.332031v6.667969zm0 0"/><path d="m112.660156 269.976562 5.773438-3.332031v6.664063zm0 0"/><path d="m256.960938 259.980469 5.769531-3.335938v6.667969zm0 0"/><path d="m291.589844 206.660156 5.773437-3.332031v6.664063zm0 0"/><path d="m291.589844 199.996094 5.773437-3.332032v6.664063zm0 0"/><path d="m291.589844 140.011719 5.773437-3.332031v6.664062zm0 0"/><path d="m291.589844 133.347656 5.773437-3.335937v6.667969zm0 0"/><path d="m239.644531 83.359375 5.769531-3.332031v6.664062zm0 0"/><path d="m228.101562 76.695312 5.769532-3.332031v6.664063zm0 0"/><path d="m95.34375 266.644531 5.773438-3.332031v6.664062zm0 0"/><path d="m101.117188 269.976562 5.769531-3.332031v6.664063zm0 0"/><path d="m124.203125 283.304688 5.773437-3.332032v6.664063zm0 0"/><path d="m251.1875 269.976562 5.773438-3.332031v6.664063zm0 0"/><path d="m268.503906 259.980469 5.769532-3.335938v6.667969zm0 0"/><path d="m297.363281 216.65625 5.773438-3.332031v6.664062zm0 0"/><path d="m297.363281 203.328125 5.773438-3.332031v6.664062zm0 0"/><path d="m239.644531 76.695312 5.769531-3.332031v6.664063zm0 0"/><path d="m233.871094 286.636719 5.773437-3.332031v6.664062zm0 0"/><path d="m239.644531 283.304688 5.769531-3.332032v6.664063zm0 0"/><path d="m303.136719 206.660156 5.769531-3.332031v6.664063zm0 0"/><path d="m89.574219 276.640625 5.769531-3.332031v6.664062zm0 0"/><path d="m95.34375 279.972656 5.773438-3.332031v6.664063zm0 0"/><path d="m187.695312 180-5.769531-3.332031v6.664062zm0 0"/><path d="m181.925781 176.667969-5.773437-3.332031v6.664062zm0 0"/><path d="m193.46875 183.332031-5.773438-3.332031v6.664062zm0 0"/><path d="m187.695312 173.335938-5.769531-3.332032v6.664063zm0 0"/><path d="m176.152344 180-5.773438-3.332031v6.664062zm0 0"/><path d="m199.238281 186.664062-5.769531-3.332031v6.664063zm0 0"/><path d="m199.238281 180-5.769531-3.332031v6.664062zm0 0"/><path d="m193.46875 170.003906-5.773438-3.332031v6.664063zm0 0"/><path d="m170.378906 183.332031-5.769531-3.332031v6.664062zm0 0"/><path d="m170.378906 189.996094-5.769531-3.332032v6.664063zm0 0"/><path d="m181.925781 196.664062-5.773437-3.335937v6.667969zm0 0"/><path d="m205.011719 170.003906-5.773438-3.332031v6.664063zm0 0"/><path d="m199.238281 166.671875-5.769531-3.335937v6.667968zm0 0"/><path d="m181.925781 156.671875-5.773437-3.332031v6.664062zm0 0"/><path d="m164.609375 166.671875-5.773437-3.335937v6.667968zm0 0"/><path d="m164.609375 186.664062-5.773437-3.332031v6.664063zm0 0"/><path d="m170.378906 196.664062-5.769531-3.335937v6.667969zm0 0"/><path d="m176.152344 199.996094-5.773438-3.332032v6.664063zm0 0"/><path d="m181.925781 203.328125-5.773437-3.332031v6.664062zm0 0"/><path d="m210.785156 173.335938-5.773437-3.332032v6.664063zm0 0"/><path d="m210.785156 166.671875-5.773437-3.335937v6.667968zm0 0"/><path d="m176.152344 153.339844-5.773438-3.332032v6.664063zm0 0"/><path d="m164.609375 160.003906-5.773437-3.332031v6.664063zm0 0"/><path d="m158.835938 163.335938-5.773438-3.332032v6.667969zm0 0"/><path d="m187.695312 206.660156-5.769531-3.332031v6.664063zm0 0"/><path d="m193.46875 203.328125-5.773438-3.332031v6.664062zm0 0"/><path d="m199.238281 199.996094-5.769531-3.332032v6.664063zm0 0"/><path d="m216.554688 196.664062-5.769532-3.335937v6.667969zm0 0"/><path d="m216.554688 189.996094-5.769532-3.332032v6.664063zm0 0"/><path d="m216.554688 163.335938-5.769532-3.332032v6.667969zm0 0"/><path d="m176.152344 146.675781-5.773438-3.332031v6.664062zm0 0"/><path d="m153.0625 180-5.769531-3.332031v6.664062zm0 0"/><path d="m153.0625 186.664062-5.769531-3.332031v6.664063zm0 0"/><path d="m153.0625 193.328125-5.769531-3.332031v6.667968zm0 0"/><path d="m176.152344 213.324219-5.773438-3.332031v6.664062zm0 0"/><path d="m193.46875 209.992188-5.773438-3.332032v6.664063zm0 0"/><path d="m199.238281 206.660156-5.769531-3.332031v6.664063zm0 0"/><path d="m205.011719 203.328125-5.773438-3.332031v6.664062zm0 0"/><path d="m210.785156 199.996094-5.773437-3.332032v6.664063zm0 0"/><path d="m222.328125 199.996094-5.773437-3.332032v6.664063zm0 0"/><path d="m222.328125 193.328125-5.773437-3.332031v6.667968zm0 0"/><path d="m222.328125 186.664062-5.773437-3.332031v6.664063zm0 0"/><path d="m222.328125 166.671875-5.773437-3.335937v6.667968zm0 0"/><path d="m216.554688 156.671875-5.769532-3.332031v6.664062zm0 0"/><path d="m210.785156 153.339844-5.773437-3.332032v6.664063zm0 0"/><path d="m205.011719 150.007812-5.773438-3.332031v6.664063zm0 0"/><path d="m199.238281 146.675781-5.769531-3.332031v6.664062zm0 0"/><path d="m181.925781 136.679688-5.773437-3.332032v6.664063zm0 0"/><path d="m176.152344 140.011719-5.773438-3.332031v6.664062zm0 0"/><path d="m170.378906 143.34375-5.769531-3.332031v6.664062zm0 0"/><path d="m147.292969 156.671875-5.773438-3.332031v6.664062zm0 0"/><path d="m147.292969 163.335938-5.773438-3.332032v6.667969zm0 0"/><path d="m147.292969 183.332031-5.773438-3.332031v6.664062zm0 0"/><path d="m147.292969 189.996094-5.773438-3.332032v6.664063zm0 0"/><path d="m164.609375 213.324219-5.773437-3.332031v6.664062zm0 0"/><path d="m170.378906 216.65625-5.769531-3.332031v6.664062zm0 0"/><path d="m176.152344 219.988281-5.773438-3.332031v6.664062zm0 0"/><path d="m199.238281 213.324219-5.769531-3.332031v6.664062zm0 0"/><path d="m205.011719 209.992188-5.773438-3.332032v6.664063zm0 0"/><path d="m210.785156 206.660156-5.773437-3.332031v6.664063zm0 0"/><path d="m228.101562 196.664062-5.773437-3.335937v6.667969zm0 0"/><path d="m228.101562 170.003906-5.773437-3.332031v6.664063zm0 0"/><path d="m228.101562 163.335938-5.773437-3.332032v6.667969zm0 0"/><path d="m205.011719 143.34375-5.773438-3.332031v6.664062zm0 0"/><path d="m181.925781 130.011719-5.773437-3.332031v6.667968zm0 0"/><path d="m176.152344 133.347656-5.773438-3.335937v6.667969zm0 0"/><path d="m170.378906 136.679688-5.769531-3.332032v6.664063zm0 0"/><path d="m164.609375 140.011719-5.773437-3.332031v6.664062zm0 0"/><path d="m153.0625 146.675781-5.769531-3.332031v6.664062zm0 0"/><path d="m147.292969 150.007812-5.773438-3.332031v6.664063zm0 0"/><path d="m141.519531 160.003906-5.769531-3.332031v6.664063zm0 0"/><path d="m141.519531 186.664062-5.769531-3.332031v6.664063zm0 0"/><path d="m158.835938 216.65625-5.773438-3.332031v6.664062zm0 0"/><path d="m176.152344 226.652344-5.773438-3.332032v6.667969zm0 0"/><path d="m181.925781 229.988281-5.773437-3.335937v6.667968zm0 0"/><path d="m205.011719 216.65625-5.773438-3.332031v6.664062zm0 0"/><path d="m216.554688 209.992188-5.769532-3.332032v6.664063zm0 0"/><path d="m222.328125 206.660156-5.773437-3.332031v6.664063zm0 0"/><path d="m233.871094 199.996094-5.769532-3.332032v6.664063zm0 0"/><path d="m233.871094 193.328125-5.769532-3.332031v6.667968zm0 0"/><path d="m233.871094 173.335938-5.769532-3.332032v6.664063zm0 0"/><path d="m233.871094 166.671875-5.769532-3.335937v6.667968zm0 0"/><path d="m233.871094 160.003906-5.769532-3.332031v6.664063zm0 0"/><path d="m233.871094 153.339844-5.769532-3.332032v6.664063zm0 0"/><path d="m228.101562 150.007812-5.773437-3.332031v6.664063zm0 0"/><path d="m210.785156 140.011719-5.773437-3.332031v6.664062zm0 0"/><path d="m187.695312 126.679688-5.769531-3.332032v6.664063zm0 0"/><path d="m141.519531 146.675781-5.769531-3.332031v6.664062zm0 0"/><path d="m135.75 176.667969-5.773438-3.332031v6.664062zm0 0"/><path d="m135.75 183.332031-5.773438-3.332031v6.664062zm0 0"/><path d="m147.292969 216.65625-5.773438-3.332031v6.664062zm0 0"/><path d="m158.835938 223.320312-5.773438-3.332031v6.664063zm0 0"/><path d="m199.238281 226.652344-5.769531-3.332032v6.667969zm0 0"/><path d="m205.011719 223.320312-5.773438-3.332031v6.664063zm0 0"/><path d="m222.328125 213.324219-5.773437-3.332031v6.664062zm0 0"/><path d="m239.644531 209.992188-5.773437-3.332032v6.664063zm0 0"/><path d="m239.644531 189.996094-5.773437-3.332032v6.664063zm0 0"/><path d="m233.871094 146.675781-5.769532-3.332031v6.664062zm0 0"/><path d="m210.785156 133.347656-5.773437-3.335937v6.667969zm0 0"/><path d="m205.011719 130.011719-5.773438-3.332031v6.667968zm0 0"/><path d="m199.238281 126.679688-5.769531-3.332032v6.664063zm0 0"/><path d="m193.46875 123.347656-5.773438-3.332031v6.664063zm0 0"/><path d="m158.835938 130.011719-5.773438-3.332031v6.667968zm0 0"/><path d="m141.519531 140.011719-5.769531-3.332031v6.664062zm0 0"/><path d="m135.75 143.34375-5.773438-3.332031v6.664062zm0 0"/><path d="m129.976562 180-5.773437-3.332031v6.664062zm0 0"/><path d="m129.976562 206.660156-5.773437-3.332031v6.664063zm0 0"/><path d="m129.976562 213.324219-5.773437-3.332031v6.664062zm0 0"/><path d="m141.519531 219.988281-5.769531-3.332031v6.664062zm0 0"/><path d="m147.292969 223.320312-5.773438-3.332031v6.664063zm0 0"/><path d="m158.835938 229.988281-5.773438-3.335937v6.667968zm0 0"/><path d="m181.925781 243.316406-5.773437-3.332031v6.664063zm0 0"/><path d="m187.695312 239.984375-5.769531-3.332031v6.664062zm0 0"/><path d="m193.46875 236.652344-5.773438-3.332032v6.664063zm0 0"/><path d="m199.238281 233.320312-5.769531-3.332031v6.664063zm0 0"/><path d="m222.328125 219.988281-5.773437-3.332031v6.664062zm0 0"/><path d="m233.871094 213.324219-5.769532-3.332031v6.664062zm0 0"/><path d="m245.414062 206.660156-5.769531-3.332031v6.664063zm0 0"/><path d="m245.414062 199.996094-5.769531-3.332032v6.664063zm0 0"/><path d="m245.414062 186.664062-5.769531-3.332031v6.664063zm0 0"/><path d="m245.414062 160.003906-5.769531-3.332031v6.664063zm0 0"/><path d="m210.785156 126.679688-5.773437-3.332032v6.664063zm0 0"/><path d="m199.238281 120.015625-5.769531-3.332031v6.664062zm0 0"/><path d="m170.378906 116.683594-5.769531-3.332032v6.664063zm0 0"/><path d="m158.835938 123.347656-5.773438-3.332031v6.664063zm0 0"/><path d="m153.0625 126.679688-5.769531-3.332032v6.664063zm0 0"/><path d="m141.519531 133.347656-5.769531-3.335937v6.667969zm0 0"/><path d="m124.203125 150.007812-5.769531-3.332031v6.664063zm0 0"/><path d="m124.203125 156.671875-5.769531-3.332031v6.664062zm0 0"/><path d="m124.203125 163.335938-5.769531-3.332032v6.667969zm0 0"/><path d="m124.203125 209.992188-5.769531-3.332032v6.664063zm0 0"/><path d="m153.0625 233.320312-5.769531-3.332031v6.664063zm0 0"/><path d="m158.835938 236.652344-5.773438-3.332032v6.664063zm0 0"/><path d="m164.609375 239.984375-5.773437-3.332031v6.664062zm0 0"/><path d="m187.695312 246.648438-5.769531-3.332032v6.664063zm0 0"/><path d="m216.554688 229.988281-5.769532-3.335937v6.667968zm0 0"/><path d="m222.328125 226.652344-5.773437-3.332032v6.667969zm0 0"/><path d="m251.1875 216.65625-5.773438-3.332031v6.664062zm0 0"/><path d="m251.1875 203.328125-5.773438-3.332031v6.664062zm0 0"/><path d="m251.1875 196.664062-5.773438-3.335937v6.667969zm0 0"/><path d="m251.1875 170.003906-5.773438-3.332031v6.664063zm0 0"/><path d="m251.1875 150.007812-5.773438-3.332031v6.664063zm0 0"/><path d="m239.644531 136.679688-5.773437-3.332032v6.664063zm0 0"/><path d="m233.871094 133.347656-5.769532-3.335937v6.667969zm0 0"/><path d="m228.101562 130.011719-5.773437-3.332031v6.667968zm0 0"/><path d="m222.328125 126.679688-5.773437-3.332032v6.664063zm0 0"/><path d="m216.554688 123.347656-5.769532-3.332031v6.664063zm0 0"/><path d="m187.695312 106.6875-5.769531-3.332031v6.664062zm0 0"/><path d="m181.925781 103.355469-5.773437-3.335938v6.667969zm0 0"/><path d="m158.835938 116.683594-5.773438-3.332032v6.664063zm0 0"/><path d="m135.75 130.011719-5.773438-3.332031v6.667968zm0 0"/><path d="m118.433594 153.339844-5.773438-3.332032v6.664063zm0 0"/><path d="m118.433594 160.003906-5.773438-3.332031v6.664063zm0 0"/><path d="m118.433594 180-5.773438-3.332031v6.664062zm0 0"/><path d="m118.433594 186.664062-5.773438-3.332031v6.664063zm0 0"/><path d="m118.433594 193.328125-5.773438-3.332031v6.667968zm0 0"/><path d="m164.609375 246.648438-5.773437-3.332032v6.664063zm0 0"/><path d="m170.378906 249.980469-5.769531-3.332031v6.664062zm0 0"/><path d="m222.328125 233.320312-5.773437-3.332031v6.664063zm0 0"/><path d="m245.414062 219.988281-5.769531-3.332031v6.664062zm0 0"/><path d="m256.960938 213.324219-5.773438-3.332031v6.664062zm0 0"/><path d="m256.960938 199.996094-5.773438-3.332032v6.664063zm0 0"/><path d="m256.960938 173.335938-5.773438-3.332032v6.664063zm0 0"/><path d="m256.960938 166.671875-5.773438-3.335937v6.667968zm0 0"/><path d="m256.960938 153.339844-5.773438-3.332032v6.664063zm0 0"/><path d="m256.960938 146.675781-5.773438-3.332031v6.664062zm0 0"/><path d="m256.960938 140.011719-5.773438-3.332031v6.664062zm0 0"/><path d="m251.1875 136.679688-5.773438-3.332032v6.664063zm0 0"/><path d="m245.414062 133.347656-5.769531-3.335937v6.667969zm0 0"/><path d="m239.644531 130.011719-5.773437-3.332031v6.667968zm0 0"/><path d="m233.871094 126.679688-5.769532-3.332032v6.664063zm0 0"/><path d="m222.328125 120.015625-5.773437-3.332031v6.664062zm0 0"/><path d="m187.695312 100.019531-5.769531-3.332031v6.667969zm0 0"/><path d="m176.152344 100.019531-5.773438-3.332031v6.667969zm0 0"/><path d="m158.835938 110.019531-5.773438-3.332031v6.664062zm0 0"/><path d="m153.0625 113.351562-5.769531-3.332031v6.664063zm0 0"/><path d="m135.75 123.347656-5.773438-3.332031v6.664063zm0 0"/><path d="m129.976562 126.679688-5.773437-3.332032v6.664063zm0 0"/><path d="m112.660156 156.671875-5.773437-3.332031v6.664062zm0 0"/><path d="m112.660156 183.332031-5.773437-3.332031v6.664062zm0 0"/><path d="m112.660156 189.996094-5.773437-3.332032v6.664063zm0 0"/><path d="m112.660156 209.992188-5.773437-3.332032v6.664063zm0 0"/><path d="m118.433594 226.652344-5.773438-3.332032v6.667969zm0 0"/><path d="m135.75 236.652344-5.773438-3.332032v6.664063zm0 0"/><path d="m170.378906 256.644531-5.769531-3.332031v6.667969zm0 0"/><path d="m205.011719 249.980469-5.773438-3.332031v6.664062zm0 0"/><path d="m210.785156 246.648438-5.773437-3.332032v6.664063zm0 0"/><path d="m251.1875 223.320312-5.773438-3.332031v6.664063zm0 0"/><path d="m262.730469 216.65625-5.769531-3.332031v6.664062zm0 0"/><path d="m262.730469 209.992188-5.769531-3.332032v6.664063zm0 0"/><path d="m262.730469 189.996094-5.769531-3.332032v6.664063zm0 0"/><path d="m262.730469 163.335938-5.769531-3.332032v6.667969zm0 0"/><path d="m262.730469 156.671875-5.769531-3.332031v6.664062zm0 0"/><path d="m256.960938 133.347656-5.773438-3.335937v6.667969zm0 0"/><path d="m251.1875 130.011719-5.773438-3.332031v6.667968zm0 0"/><path d="m239.644531 123.347656-5.773437-3.332031v6.664063zm0 0"/><path d="m222.328125 113.351562-5.773437-3.332031v6.664063zm0 0"/><path d="m216.554688 110.019531-5.769532-3.332031v6.664062zm0 0"/><path d="m210.785156 106.6875-5.773437-3.332031v6.664062zm0 0"/><path d="m205.011719 103.355469-5.773438-3.335938v6.667969zm0 0"/><path d="m199.238281 100.019531-5.769531-3.332031v6.667969zm0 0"/><path d="m193.46875 96.6875-5.773438-3.332031v6.664062zm0 0"/><path d="m176.152344 93.355469-5.773438-3.332031v6.664062zm0 0"/><path d="m170.378906 96.6875-5.769531-3.332031v6.664062zm0 0"/><path d="m158.835938 103.355469-5.773438-3.335938v6.667969zm0 0"/><path d="m153.0625 106.6875-5.769531-3.332031v6.664062zm0 0"/><path d="m147.292969 110.019531-5.773438-3.332031v6.664062zm0 0"/><path d="m112.660156 130.011719-5.773437-3.332031v6.667968zm0 0"/><path d="m106.886719 173.335938-5.769531-3.332032v6.664063zm0 0"/><path d="m106.886719 180-5.769531-3.332031v6.664062zm0 0"/><path d="m106.886719 186.664062-5.769531-3.332031v6.664063zm0 0"/><path d="m106.886719 226.652344-5.769531-3.332032v6.667969zm0 0"/><path d="m112.660156 229.988281-5.773437-3.335937v6.667968zm0 0"/><path d="m118.433594 233.320312-5.773438-3.332031v6.664063zm0 0"/><path d="m129.976562 239.984375-5.773437-3.332031v6.664062zm0 0"/><path d="m135.75 243.316406-5.773438-3.332031v6.664063zm0 0"/><path d="m141.519531 246.648438-5.769531-3.332032v6.664063zm0 0"/><path d="m153.0625 253.3125-5.769531-3.332031v6.664062zm0 0"/><path d="m210.785156 253.3125-5.773437-3.332031v6.664062zm0 0"/><path d="m228.101562 243.316406-5.773437-3.332031v6.664063zm0 0"/><path d="m233.871094 239.984375-5.769532-3.332031v6.664062zm0 0"/><path d="m239.644531 236.652344-5.773437-3.332032v6.664063zm0 0"/><path d="m245.414062 233.320312-5.769531-3.332031v6.664063zm0 0"/><path d="m251.1875 229.988281-5.773438-3.335937v6.667968zm0 0"/><path d="m268.503906 219.988281-5.773437-3.332031v6.664062zm0 0"/><path d="m268.503906 213.324219-5.773437-3.332031v6.664062zm0 0"/><path d="m268.503906 206.660156-5.773437-3.332031v6.664063zm0 0"/><path d="m268.503906 193.328125-5.773437-3.332031v6.667968zm0 0"/><path d="m268.503906 186.664062-5.773437-3.332031v6.664063zm0 0"/><path d="m268.503906 166.671875-5.773437-3.335937v6.667968zm0 0"/><path d="m268.503906 146.675781-5.773437-3.332031v6.664062zm0 0"/><path d="m268.503906 140.011719-5.773437-3.332031v6.664062zm0 0"/><path d="m256.960938 126.679688-5.773438-3.332032v6.664063zm0 0"/><path d="m239.644531 116.683594-5.773437-3.332032v6.664063zm0 0"/><path d="m222.328125 106.6875-5.773437-3.332031v6.664062zm0 0"/><path d="m210.785156 100.019531-5.773437-3.332031v6.667969zm0 0"/><path d="m199.238281 93.355469-5.769531-3.332031v6.664062zm0 0"/><path d="m181.925781 83.359375-5.773437-3.332031v6.664062zm0 0"/><path d="m135.75 110.019531-5.773438-3.332031v6.664062zm0 0"/><path d="m118.433594 120.015625-5.773438-3.332031v6.664062zm0 0"/><path d="m112.660156 123.347656-5.773437-3.332031v6.664063zm0 0"/><path d="m106.886719 126.679688-5.769531-3.332032v6.664063zm0 0"/><path d="m101.117188 130.011719-5.773438-3.332031v6.667968zm0 0"/><path d="m101.117188 136.679688-5.773438-3.332032v6.664063zm0 0"/><path d="m101.117188 143.34375-5.773438-3.332031v6.664062zm0 0"/><path d="m101.117188 150.007812-5.773438-3.332031v6.664063zm0 0"/><path d="m101.117188 156.671875-5.773438-3.332031v6.664062zm0 0"/><path d="m101.117188 176.667969-5.773438-3.332031v6.664062zm0 0"/><path d="m101.117188 183.332031-5.773438-3.332031v6.664062zm0 0"/><path d="m101.117188 203.328125-5.773438-3.332031v6.664062zm0 0"/><path d="m101.117188 209.992188-5.773438-3.332032v6.664063zm0 0"/><path d="m147.292969 256.644531-5.773438-3.332031v6.667969zm0 0"/><path d="m158.835938 263.3125-5.773438-3.332031v6.664062zm0 0"/><path d="m164.609375 266.644531-5.773437-3.332031v6.664062zm0 0"/><path d="m233.871094 246.648438-5.769532-3.332032v6.664063zm0 0"/><path d="m239.644531 243.316406-5.773437-3.332031v6.664063zm0 0"/><path d="m251.1875 236.652344-5.773438-3.332032v6.664063zm0 0"/><path d="m274.273438 223.320312-5.769532-3.332031v6.664063zm0 0"/><path d="m274.273438 216.65625-5.769532-3.332031v6.664062zm0 0"/><path d="m274.273438 209.992188-5.769532-3.332032v6.664063zm0 0"/><path d="m274.273438 203.328125-5.769532-3.332031v6.664062zm0 0"/><path d="m274.273438 170.003906-5.769532-3.332031v6.664063zm0 0"/><path d="m274.273438 163.335938-5.769532-3.332032v6.667969zm0 0"/><path d="m274.273438 143.34375-5.769532-3.332031v6.664062zm0 0"/><path d="m274.273438 130.011719-5.769532-3.332031v6.667968zm0 0"/><path d="m268.503906 126.679688-5.773437-3.332032v6.664063zm0 0"/><path d="m262.730469 123.347656-5.769531-3.332031v6.664063zm0 0"/><path d="m239.644531 110.019531-5.773437-3.332031v6.664062zm0 0"/><path d="m233.871094 106.6875-5.769532-3.332031v6.664062zm0 0"/><path d="m228.101562 103.355469-5.773437-3.335938v6.667969zm0 0"/><path d="m164.609375 86.691406-5.773437-3.332031v6.664063zm0 0"/><path d="m158.835938 90.023438-5.773438-3.332032v6.664063zm0 0"/><path d="m118.433594 113.351562-5.773438-3.332031v6.664063zm0 0"/><path d="m106.886719 120.015625-5.769531-3.332031v6.664062zm0 0"/><path d="m101.117188 123.347656-5.773438-3.332031v6.664063zm0 0"/><path d="m95.34375 133.347656-5.769531-3.335937v6.667969zm0 0"/><path d="m95.34375 153.339844-5.769531-3.332032v6.664063zm0 0"/><path d="m95.34375 180-5.769531-3.332031v6.664062zm0 0"/><path d="m95.34375 206.660156-5.769531-3.332031v6.664063zm0 0"/><path d="m95.34375 226.652344-5.769531-3.332032v6.667969zm0 0"/><path d="m95.34375 233.320312-5.769531-3.332031v6.664063zm0 0"/><path d="m106.886719 239.984375-5.769531-3.332031v6.664062zm0 0"/><path d="m118.433594 246.648438-5.773438-3.332032v6.664063zm0 0"/><path d="m129.976562 253.3125-5.773437-3.332031v6.664062zm0 0"/><path d="m141.519531 259.980469-5.769531-3.335938v6.667969zm0 0"/><path d="m147.292969 263.3125-5.773438-3.332031v6.664062zm0 0"/><path d="m228.101562 256.644531-5.773437-3.332031v6.667969zm0 0"/><path d="m233.871094 253.3125-5.769532-3.332031v6.664062zm0 0"/><path d="m239.644531 249.980469-5.773437-3.332031v6.664062zm0 0"/><path d="m280.046875 206.660156-5.773437-3.332031v6.664063zm0 0"/><path d="m280.046875 199.996094-5.773437-3.332032v6.664063zm0 0"/><path d="m280.046875 173.335938-5.773437-3.332032v6.664063zm0 0"/><path d="m280.046875 166.671875-5.773437-3.335937v6.667968zm0 0"/><path d="m280.046875 160.003906-5.773437-3.332031v6.664063zm0 0"/><path d="m280.046875 153.339844-5.773437-3.332032v6.664063zm0 0"/><path d="m274.273438 123.347656-5.769532-3.332031v6.664063zm0 0"/><path d="m268.503906 120.015625-5.773437-3.332031v6.664062zm0 0"/><path d="m256.960938 113.351562-5.773438-3.332031v6.664063zm0 0"/><path d="m245.414062 106.6875-5.769531-3.332031v6.664062zm0 0"/><path d="m233.871094 100.019531-5.769532-3.332031v6.667969zm0 0"/><path d="m205.011719 83.359375-5.773438-3.332031v6.664062zm0 0"/><path d="m118.433594 106.6875-5.773438-3.332031v6.664062zm0 0"/><path d="m112.660156 110.019531-5.773437-3.332031v6.664062zm0 0"/><path d="m89.574219 156.671875-5.773438-3.332031v6.664062zm0 0"/><path d="m89.574219 163.335938-5.773438-3.332032v6.667969zm0 0"/><path d="m89.574219 189.996094-5.773438-3.332032v6.664063zm0 0"/><path d="m89.574219 196.664062-5.773438-3.335937v6.667969zm0 0"/><path d="m89.574219 203.328125-5.773438-3.332031v6.664062zm0 0"/><path d="m89.574219 229.988281-5.773438-3.335937v6.667968zm0 0"/><path d="m112.660156 249.980469-5.773437-3.332031v6.664062zm0 0"/><path d="m118.433594 253.3125-5.773438-3.332031v6.664062zm0 0"/><path d="m216.554688 269.976562-5.769532-3.332031v6.664063zm0 0"/><path d="m233.871094 259.980469-5.769532-3.335938v6.667969zm0 0"/><path d="m239.644531 256.644531-5.773437-3.332031v6.667969zm0 0"/><path d="m262.730469 243.316406-5.769531-3.332031v6.664063zm0 0"/><path d="m268.503906 239.984375-5.773437-3.332031v6.664062zm0 0"/><path d="m285.820312 209.992188-5.773437-3.332032v6.664063zm0 0"/><path d="m285.820312 203.328125-5.773437-3.332031v6.664062zm0 0"/><path d="m285.820312 196.664062-5.773437-3.335937v6.667969zm0 0"/><path d="m285.820312 189.996094-5.773437-3.332032v6.664063zm0 0"/><path d="m285.820312 143.34375-5.773437-3.332031v6.664062zm0 0"/><path d="m274.273438 116.683594-5.769532-3.332032v6.664063zm0 0"/><path d="m233.871094 93.355469-5.769532-3.332031v6.664062zm0 0"/><path d="m228.101562 90.023438-5.773437-3.332032v6.664063zm0 0"/><path d="m222.328125 86.691406-5.773437-3.332031v6.664063zm0 0"/><path d="m216.554688 83.359375-5.769532-3.332031v6.664062zm0 0"/><path d="m106.886719 106.6875-5.769531-3.332031v6.664062zm0 0"/><path d="m83.800781 133.347656-5.773437-3.335937v6.667969zm0 0"/><path d="m83.800781 146.675781-5.773437-3.332031v6.664062zm0 0"/><path d="m83.800781 160.003906-5.773437-3.332031v6.664063zm0 0"/><path d="m83.800781 193.328125-5.773437-3.332031v6.667968zm0 0"/><path d="m83.800781 206.660156-5.773437-3.332031v6.664063zm0 0"/><path d="m83.800781 213.324219-5.773437-3.332031v6.664062zm0 0"/><path d="m83.800781 219.988281-5.773437-3.332031v6.664062zm0 0"/><path d="m83.800781 226.652344-5.773437-3.332032v6.667969zm0 0"/><path d="m83.800781 239.984375-5.773437-3.332031v6.664062zm0 0"/><path d="m101.117188 249.980469-5.773438-3.332031v6.664062zm0 0"/><path d="m106.886719 253.3125-5.769531-3.332031v6.664062zm0 0"/><path d="m112.660156 256.644531-5.773437-3.332031v6.667969zm0 0"/><path d="m118.433594 259.980469-5.773438-3.335938v6.667969zm0 0"/><path d="m124.203125 263.3125-5.769531-3.332031v6.664062zm0 0"/><path d="m141.519531 273.308594-5.769531-3.332032v6.664063zm0 0"/><path d="m222.328125 273.308594-5.773437-3.332032v6.664063zm0 0"/><path d="m239.644531 263.3125-5.773437-3.332031v6.664062zm0 0"/><path d="m268.503906 246.648438-5.773437-3.332032v6.664063zm0 0"/><path d="m274.273438 243.316406-5.769532-3.332031v6.664063zm0 0"/><path d="m291.589844 160.003906-5.769532-3.332031v6.664063zm0 0"/><path d="m291.589844 146.675781-5.769532-3.332031v6.664062zm0 0"/><path d="m291.589844 140.011719-5.769532-3.332031v6.664062zm0 0"/><path d="m291.589844 133.347656-5.769532-3.335937v6.667969zm0 0"/><path d="m291.589844 126.679688-5.769532-3.332032v6.664063zm0 0"/><path d="m251.1875 96.6875-5.773438-3.332031v6.664062zm0 0"/><path d="m233.871094 86.691406-5.769532-3.332031v6.664063zm0 0"/><path d="m222.328125 80.027344-5.773437-3.332032v6.664063zm0 0"/><path d="m78.027344 176.667969-5.769532-3.332031v6.664062zm0 0"/><path d="m78.027344 183.332031-5.769532-3.332031v6.664062zm0 0"/><path d="m78.027344 189.996094-5.769532-3.332032v6.664063zm0 0"/><path d="m78.027344 209.992188-5.769532-3.332032v6.664063zm0 0"/><path d="m78.027344 216.65625-5.769532-3.332031v6.664062zm0 0"/><path d="m78.027344 223.320312-5.769532-3.332031v6.664063zm0 0"/><path d="m78.027344 243.316406-5.769532-3.332031v6.664063zm0 0"/><path d="m83.800781 246.648438-5.773437-3.332032v6.664063zm0 0"/><path d="m89.574219 249.980469-5.773438-3.332031v6.664062zm0 0"/><path d="m95.34375 253.3125-5.769531-3.332031v6.664062zm0 0"/><path d="m101.117188 256.644531-5.773438-3.332031v6.667969zm0 0"/><path d="m106.886719 259.980469-5.769531-3.335938v6.667969zm0 0"/><path d="m112.660156 263.3125-5.773437-3.332031v6.664062zm0 0"/><path d="m118.433594 266.644531-5.773438-3.332031v6.664062zm0 0"/><path d="m124.203125 269.976562-5.769531-3.332031v6.664063zm0 0"/><path d="m129.976562 273.308594-5.773437-3.332032v6.664063zm0 0"/><path d="m245.414062 266.644531-5.769531-3.332031v6.664062zm0 0"/><path d="m251.1875 263.3125-5.773438-3.332031v6.664062zm0 0"/><path d="m256.960938 259.980469-5.773438-3.335938v6.667969zm0 0"/><path d="m274.273438 249.980469-5.769532-3.332031v6.664062zm0 0"/><path d="m297.363281 130.011719-5.773437-3.332031v6.667968zm0 0"/><path d="m245.414062 86.691406-5.769531-3.332031v6.664063zm0 0"/><path d="m239.644531 83.359375-5.773437-3.332031v6.664062zm0 0"/><path d="m228.101562 76.695312-5.773437-3.332031v6.664063zm0 0"/><path d="m72.257812 213.324219-5.773437-3.332031v6.664062zm0 0"/><path d="m129.976562 279.972656-5.773437-3.332031v6.664063zm0 0"/><path d="m135.75 283.304688-5.773438-3.332032v6.664063zm0 0"/><path d="m239.644531 276.640625-5.773437-3.332031v6.664062zm0 0"/><path d="m256.960938 266.644531-5.773438-3.332031v6.664062zm0 0"/><path d="m274.273438 256.644531-5.769532-3.332031v6.667969zm0 0"/><path d="m303.136719 213.324219-5.773438-3.332031v6.664062zm0 0"/><path d="m303.136719 199.996094-5.773438-3.332032v6.664063zm0 0"/><path d="m303.136719 140.011719-5.773438-3.332031v6.664062zm0 0"/><path d="m245.414062 80.027344-5.769531-3.332032v6.664063zm0 0"/><path d="m256.960938 273.308594-5.773438-3.332032v6.664063zm0 0"/><path d="m308.90625 203.328125-5.769531-3.332031v6.664062zm0 0"/><path d="m245.414062 73.363281-5.769531-3.332031v6.664062zm0 0"/><path d="m95.34375 273.308594-5.769531-3.332032v6.664063zm0 0"/><path d="m101.117188 276.640625-5.773438-3.332031v6.664062zm0 0"/><path d="m106.886719 279.972656-5.769531-3.332031v6.664063zm0 0"/><path d="m251.1875 283.304688-5.773438-3.332032v6.664063zm0 0"/></g></svg>