<svg height="360pt" viewBox="0 0 360 360" width="360pt" xmlns="http://www.w3.org/2000/svg"><path d="m0 0h360v360h-360z" fill="#800080"/><g fill="#fff" fill-rule="evenodd"><path d="m179.527344 180 5.296875-3.058594v6.117188zm0 0"/><path d="m179.527344 173.886719 5.296875-3.058594v6.113281zm0 0"/><path d="m174.230469 176.941406 5.296875-3.054687v6.113281zm0 0"/><path d="m174.230469 183.058594 5.296875-3.058594v6.113281zm0 0"/><path d="m179.527344 186.113281 5.296875-3.054687v6.113281zm0 0"/><path d="m190.117188 186.113281 5.296874-3.054687v6.113281zm0 0"/><path d="m190.117188 180 5.296874-3.058594v6.117188zm0 0"/><path d="m190.117188 173.886719 5.296874-3.058594v6.113281zm0 0"/><path d="m168.933594 180 5.296875-3.058594v6.117188zm0 0"/><path d="m195.414062 189.171875 5.296876-3.058594v6.117188zm0 0"/><path d="m195.414062 183.058594 5.296876-3.058594v6.113281zm0 0"/><path d="m195.414062 176.941406 5.296876-3.054687v6.113281zm0 0"/><path d="m195.414062 170.828125 5.296876-3.058594v6.117188zm0 0"/><path d="m174.230469 164.710938 5.296875-3.054688v6.113281zm0 0"/><path d="m168.933594 167.769531 5.296875-3.058593v6.117187zm0 0"/><path d="m163.640625 170.828125 5.292969-3.058594v6.117188zm0 0"/><path d="m163.640625 189.171875 5.292969-3.058594v6.117188zm0 0"/><path d="m168.933594 192.230469 5.296875-3.058594v6.117187zm0 0"/><path d="m174.230469 195.289062 5.296875-3.058593v6.113281zm0 0"/><path d="m200.710938 192.230469 5.296874-3.058594v6.117187zm0 0"/><path d="m200.710938 180 5.296874-3.058594v6.117188zm0 0"/><path d="m200.710938 167.769531 5.296874-3.058593v6.117187zm0 0"/><path d="m190.117188 161.65625 5.296874-3.058594v6.113282zm0 0"/><path d="m184.824219 158.597656 5.292969-3.058594v6.117188zm0 0"/><path d="m174.230469 158.597656 5.296875-3.058594v6.117188zm0 0"/><path d="m168.933594 161.65625 5.296875-3.058594v6.113282zm0 0"/><path d="m163.640625 164.710938 5.292969-3.054688v6.113281zm0 0"/><path d="m158.34375 167.769531 5.296875-3.058593v6.117187zm0 0"/><path d="m158.34375 192.230469 5.296875-3.058594v6.117187zm0 0"/><path d="m163.640625 195.289062 5.292969-3.058593v6.113281zm0 0"/><path d="m168.933594 198.34375 5.296875-3.054688v6.113282zm0 0"/><path d="m174.230469 201.402344 5.296875-3.058594v6.117188zm0 0"/><path d="m184.824219 201.402344 5.292969-3.058594v6.117188zm0 0"/><path d="m190.117188 198.34375 5.296874-3.054688v6.113282zm0 0"/><path d="m206.007812 189.171875 5.292969-3.058594v6.117188zm0 0"/><path d="m206.007812 170.828125 5.292969-3.058594v6.117188zm0 0"/><path d="m195.414062 158.597656 5.296876-3.058594v6.117188zm0 0"/><path d="m190.117188 155.539062 5.296874-3.058593v6.117187zm0 0"/><path d="m184.824219 152.480469 5.292969-3.054688v6.113281zm0 0"/><path d="m174.230469 152.480469 5.296875-3.054688v6.113281zm0 0"/><path d="m163.640625 158.597656 5.292969-3.058594v6.117188zm0 0"/><path d="m153.046875 164.710938 5.296875-3.054688v6.113281zm0 0"/><path d="m153.046875 176.941406 5.296875-3.054687v6.113281zm0 0"/><path d="m153.046875 183.058594 5.296875-3.058594v6.113281zm0 0"/><path d="m153.046875 195.289062 5.296875-3.058593v6.113281zm0 0"/><path d="m163.640625 201.402344 5.292969-3.058594v6.117188zm0 0"/><path d="m174.230469 207.519531 5.296875-3.058593v6.113281zm0 0"/><path d="m184.824219 207.519531 5.292969-3.058593v6.113281zm0 0"/><path d="m190.117188 204.460938 5.296874-3.058594v6.117187zm0 0"/><path d="m195.414062 201.402344 5.296876-3.058594v6.117188zm0 0"/><path d="m211.300781 186.113281 5.296875-3.054687v6.113281zm0 0"/><path d="m211.300781 173.886719 5.296875-3.058594v6.113281zm0 0"/><path d="m200.710938 155.539062 5.296874-3.058593v6.117187zm0 0"/><path d="m184.824219 146.367188 5.292969-3.058594v6.117187zm0 0"/><path d="m168.933594 149.425781 5.296875-3.058593v6.113281zm0 0"/><path d="m153.046875 158.597656 5.296875-3.058594v6.117188zm0 0"/><path d="m147.75 173.886719 5.296875-3.058594v6.113281zm0 0"/><path d="m147.75 180 5.296875-3.058594v6.117188zm0 0"/><path d="m147.75 186.113281 5.296875-3.054687v6.113281zm0 0"/><path d="m153.046875 201.402344 5.296875-3.058594v6.117188zm0 0"/><path d="m168.933594 210.574219 5.296875-3.054688v6.113281zm0 0"/><path d="m184.824219 213.632812 5.292969-3.058593v6.117187zm0 0"/><path d="m200.710938 204.460938 5.296874-3.058594v6.117187zm0 0"/><path d="m216.597656 195.289062 5.296875-3.058593v6.113281zm0 0"/><path d="m216.597656 164.710938 5.296875-3.054688v6.113281zm0 0"/><path d="m163.640625 146.367188 5.292969-3.058594v6.117187zm0 0"/><path d="m153.046875 152.480469 5.296875-3.054688v6.113281zm0 0"/><path d="m142.457031 170.828125 5.292969-3.058594v6.117188zm0 0"/><path d="m142.457031 189.171875 5.292969-3.058594v6.117188zm0 0"/><path d="m153.046875 207.519531 5.296875-3.058593v6.113281zm0 0"/><path d="m163.640625 213.632812 5.292969-3.058593v6.117187zm0 0"/><path d="m221.894531 186.113281 5.296875-3.054687v6.113281zm0 0"/><path d="m221.894531 173.886719 5.296875-3.058594v6.113281zm0 0"/><path d="m216.597656 152.480469 5.296875-3.054688v6.113281zm0 0"/><path d="m206.007812 146.367188 5.292969-3.058594v6.117187zm0 0"/><path d="m190.117188 137.195312 5.296874-3.058593v6.113281zm0 0"/><path d="m179.527344 131.078125 5.296875-3.058594v6.117188zm0 0"/><path d="m168.933594 137.195312 5.296875-3.058593v6.113281zm0 0"/><path d="m142.457031 152.480469 5.292969-3.054688v6.113281zm0 0"/><path d="m142.457031 207.519531 5.292969-3.058593v6.113281zm0 0"/><path d="m168.933594 222.804688 5.296875-3.054688v6.113281zm0 0"/><path d="m179.527344 228.921875 5.296875-3.058594v6.117188zm0 0"/><path d="m190.117188 222.804688 5.296874-3.054688v6.113281zm0 0"/><path d="m206.007812 213.632812 5.292969-3.058593v6.117187zm0 0"/><path d="m216.597656 207.519531 5.296875-3.058593v6.113281zm0 0"/><path d="m227.191406 183.058594 5.292969-3.058594v6.113281zm0 0"/><path d="m227.191406 176.941406 5.292969-3.054687v6.113281zm0 0"/><path d="m211.300781 143.308594 5.296875-3.058594v6.117188zm0 0"/><path d="m190.117188 131.078125 5.296874-3.058594v6.117188zm0 0"/><path d="m158.34375 137.195312 5.296875-3.058593v6.113281zm0 0"/><path d="m147.75 143.308594 5.296875-3.058594v6.117188zm0 0"/><path d="m131.863281 158.597656 5.296875-3.058594v6.117188zm0 0"/><path d="m131.863281 170.828125 5.296875-3.058594v6.117188zm0 0"/><path d="m131.863281 189.171875 5.296875-3.058594v6.117188zm0 0"/><path d="m131.863281 201.402344 5.296875-3.058594v6.117188zm0 0"/><path d="m147.75 216.691406 5.296875-3.058594v6.117188zm0 0"/><path d="m158.34375 222.804688 5.296875-3.054688v6.113281zm0 0"/><path d="m190.117188 228.921875 5.296874-3.058594v6.117188zm0 0"/><path d="m211.300781 216.691406 5.296875-3.058594v6.117188zm0 0"/><path d="m232.484375 210.574219 5.296875-3.054688v6.113281zm0 0"/><path d="m232.484375 204.460938 5.296875-3.058594v6.117187zm0 0"/><path d="m232.484375 155.539062 5.296875-3.058593v6.117187zm0 0"/><path d="m232.484375 149.425781 5.296875-3.058593v6.113281zm0 0"/><path d="m216.597656 140.25 5.296875-3.054688v6.113282zm0 0"/><path d="m211.300781 137.195312 5.296875-3.058593v6.113281zm0 0"/><path d="m195.414062 128.019531 5.296876-3.054687v6.113281zm0 0"/><path d="m190.117188 124.964844 5.296874-3.058594v6.113281zm0 0"/><path d="m153.046875 134.136719 5.296875-3.058594v6.117187zm0 0"/><path d="m147.75 137.195312 5.296875-3.058593v6.113281zm0 0"/><path d="m126.566406 167.769531 5.296875-3.058593v6.117187zm0 0"/><path d="m126.566406 192.230469 5.296875-3.058594v6.117187zm0 0"/><path d="m147.75 222.804688 5.296875-3.054688v6.113281zm0 0"/><path d="m153.046875 225.863281 5.296875-3.058593v6.117187zm0 0"/><path d="m190.117188 235.035156 5.296874-3.054687v6.113281zm0 0"/><path d="m195.414062 231.980469 5.296876-3.058594v6.113281zm0 0"/><path d="m211.300781 222.804688 5.296875-3.054688v6.113281zm0 0"/><path d="m216.597656 219.75 5.296875-3.058594v6.113282zm0 0"/><path d="m237.78125 213.632812 5.296875-3.058593v6.117187zm0 0"/><path d="m237.78125 207.519531 5.296875-3.058593v6.113281zm0 0"/><path d="m237.78125 189.171875 5.296875-3.058594v6.117188zm0 0"/><path d="m237.78125 183.058594 5.296875-3.058594v6.113281zm0 0"/><path d="m237.78125 176.941406 5.296875-3.054687v6.113281zm0 0"/><path d="m237.78125 170.828125 5.296875-3.058594v6.117188zm0 0"/><path d="m237.78125 152.480469 5.296875-3.054688v6.113281zm0 0"/><path d="m237.78125 146.367188 5.296875-3.058594v6.117187zm0 0"/><path d="m232.484375 143.308594 5.296875-3.058594v6.117188zm0 0"/><path d="m227.191406 140.25 5.292969-3.054688v6.113282zm0 0"/><path d="m216.597656 134.136719 5.296875-3.058594v6.117187zm0 0"/><path d="m211.300781 131.078125 5.296875-3.058594v6.117188zm0 0"/><path d="m200.710938 124.964844 5.296874-3.058594v6.113281zm0 0"/><path d="m195.414062 121.90625 5.296876-3.058594v6.117188zm0 0"/><path d="m184.824219 115.789062 5.292969-3.054687v6.113281zm0 0"/><path d="m179.527344 112.734375 5.296875-3.058594v6.113281zm0 0"/><path d="m174.230469 115.789062 5.296875-3.054687v6.113281zm0 0"/><path d="m168.933594 118.847656 5.296875-3.058594v6.117188zm0 0"/><path d="m126.566406 143.308594 5.296875-3.058594v6.117188zm0 0"/><path d="m121.273438 146.367188 5.292968-3.058594v6.117187zm0 0"/><path d="m121.273438 164.710938 5.292968-3.054688v6.113281zm0 0"/><path d="m121.273438 170.828125 5.292968-3.058594v6.117188zm0 0"/><path d="m121.273438 189.171875 5.292968-3.058594v6.117188zm0 0"/><path d="m121.273438 195.289062 5.292968-3.058593v6.113281zm0 0"/><path d="m121.273438 213.632812 5.292968-3.058593v6.117187zm0 0"/><path d="m126.566406 216.691406 5.296875-3.058594v6.117188zm0 0"/><path d="m168.933594 241.152344 5.296875-3.058594v6.117188zm0 0"/><path d="m174.230469 244.210938 5.296875-3.058594v6.113281zm0 0"/><path d="m179.527344 247.265625 5.296875-3.054687v6.113281zm0 0"/><path d="m184.824219 244.210938 5.292969-3.058594v6.113281zm0 0"/><path d="m195.414062 238.09375 5.296876-3.058594v6.117188zm0 0"/><path d="m200.710938 235.035156 5.296874-3.054687v6.113281zm0 0"/><path d="m211.300781 228.921875 5.296875-3.058594v6.117188zm0 0"/><path d="m216.597656 225.863281 5.296875-3.058593v6.117187zm0 0"/><path d="m227.191406 219.75 5.292969-3.058594v6.113282zm0 0"/><path d="m232.484375 216.691406 5.296875-3.058594v6.117188zm0 0"/><path d="m243.078125 186.113281 5.296875-3.054687v6.113281zm0 0"/><path d="m243.078125 173.886719 5.296875-3.058594v6.113281zm0 0"/><path d="m232.484375 137.195312 5.296875-3.058593v6.113281zm0 0"/><path d="m211.300781 124.964844 5.296875-3.058594v6.113281zm0 0"/><path d="m206.007812 121.90625 5.292969-3.058594v6.117188zm0 0"/><path d="m184.824219 109.675781 5.292969-3.058593v6.117187zm0 0"/><path d="m174.230469 109.675781 5.296875-3.058593v6.117187zm0 0"/><path d="m168.933594 112.734375 5.296875-3.058594v6.113281zm0 0"/><path d="m153.046875 121.90625 5.296875-3.058594v6.117188zm0 0"/><path d="m147.75 124.964844 5.296875-3.058594v6.113281zm0 0"/><path d="m142.457031 128.019531 5.292969-3.054687v6.113281zm0 0"/><path d="m137.160156 131.078125 5.296875-3.058594v6.117188zm0 0"/><path d="m121.273438 140.25 5.292968-3.054688v6.113282zm0 0"/><path d="m115.976562 143.308594 5.296876-3.058594v6.117188zm0 0"/><path d="m115.976562 149.425781 5.296876-3.058593v6.113281zm0 0"/><path d="m115.976562 155.539062 5.296876-3.058593v6.117187zm0 0"/><path d="m115.976562 167.769531 5.296876-3.058593v6.117187zm0 0"/><path d="m115.976562 173.886719 5.296876-3.058594v6.113281zm0 0"/><path d="m115.976562 186.113281 5.296876-3.054687v6.113281zm0 0"/><path d="m115.976562 192.230469 5.296876-3.058594v6.117187zm0 0"/><path d="m115.976562 204.460938 5.296876-3.058594v6.117187zm0 0"/><path d="m115.976562 210.574219 5.296876-3.054688v6.113281zm0 0"/><path d="m115.976562 216.691406 5.296876-3.058594v6.117188zm0 0"/><path d="m121.273438 219.75 5.292968-3.058594v6.113282zm0 0"/><path d="m137.160156 228.921875 5.296875-3.058594v6.117188zm0 0"/><path d="m142.457031 231.980469 5.292969-3.058594v6.113281zm0 0"/><path d="m147.75 235.035156 5.296875-3.054687v6.113281zm0 0"/><path d="m153.046875 238.09375 5.296875-3.058594v6.117188zm0 0"/><path d="m168.933594 247.265625 5.296875-3.054687v6.113281zm0 0"/><path d="m174.230469 250.324219 5.296875-3.058594v6.117187zm0 0"/><path d="m184.824219 250.324219 5.292969-3.058594v6.117187zm0 0"/><path d="m206.007812 238.09375 5.292969-3.058594v6.117188zm0 0"/><path d="m211.300781 235.035156 5.296875-3.054687v6.113281zm0 0"/><path d="m232.484375 222.804688 5.296875-3.054688v6.113281zm0 0"/><path d="m248.375 213.632812 5.292969-3.058593v6.117187zm0 0"/><path d="m248.375 207.519531 5.292969-3.058593v6.113281zm0 0"/><path d="m248.375 201.402344 5.292969-3.058594v6.117188zm0 0"/><path d="m248.375 195.289062 5.292969-3.058593v6.113281zm0 0"/><path d="m248.375 189.171875 5.292969-3.058594v6.117188zm0 0"/><path d="m248.375 183.058594 5.292969-3.058594v6.113281zm0 0"/><path d="m248.375 176.941406 5.292969-3.054687v6.113281zm0 0"/><path d="m248.375 170.828125 5.292969-3.058594v6.117188zm0 0"/><path d="m248.375 164.710938 5.292969-3.054688v6.113281zm0 0"/><path d="m248.375 158.597656 5.292969-3.058594v6.117188zm0 0"/><path d="m248.375 152.480469 5.292969-3.054688v6.113281zm0 0"/><path d="m248.375 146.367188 5.292969-3.058594v6.117187zm0 0"/><path d="m232.484375 131.078125 5.296875-3.058594v6.117188zm0 0"/><path d="m227.191406 128.019531 5.292969-3.054687v6.113281zm0 0"/><path d="m195.414062 109.675781 5.296876-3.058593v6.117187zm0 0"/><path d="m190.117188 106.617188 5.296874-3.054688v6.113281zm0 0"/><path d="m147.75 118.847656 5.296875-3.058594v6.117188zm0 0"/><path d="m137.160156 124.964844 5.296875-3.058594v6.113281zm0 0"/><path d="m110.679688 152.480469 5.296874-3.054688v6.113281zm0 0"/><path d="m110.679688 176.941406 5.296874-3.054687v6.113281zm0 0"/><path d="m110.679688 183.058594 5.296874-3.058594v6.113281zm0 0"/><path d="m110.679688 207.519531 5.296874-3.058593v6.113281zm0 0"/><path d="m137.160156 235.035156 5.296875-3.054687v6.113281zm0 0"/><path d="m147.75 241.152344 5.296875-3.058594v6.117188zm0 0"/><path d="m190.117188 253.382812 5.296874-3.058593v6.113281zm0 0"/><path d="m195.414062 250.324219 5.296876-3.058594v6.117187zm0 0"/><path d="m227.191406 231.980469 5.292969-3.058594v6.113281zm0 0"/><path d="m232.484375 228.921875 5.296875-3.058594v6.117188zm0 0"/><path d="m253.667969 216.691406 5.296875-3.058594v6.117188zm0 0"/><path d="m253.667969 210.574219 5.296875-3.054688v6.113281zm0 0"/><path d="m253.667969 186.113281 5.296875-3.054687v6.113281zm0 0"/><path d="m253.667969 173.886719 5.296875-3.058594v6.113281zm0 0"/><path d="m253.667969 149.425781 5.296875-3.058593v6.113281zm0 0"/><path d="m253.667969 143.308594 5.296875-3.058594v6.117188zm0 0"/><path d="m237.78125 128.019531 5.296875-3.054687v6.113281zm0 0"/><path d="m232.484375 124.964844 5.296875-3.058594v6.113281zm0 0"/><path d="m227.191406 121.90625 5.292969-3.058594v6.117188zm0 0"/><path d="m200.710938 106.617188 5.296874-3.054688v6.113281zm0 0"/><path d="m195.414062 103.5625 5.296876-3.058594v6.113282zm0 0"/><path d="m190.117188 100.503906 5.296874-3.058594v6.117188zm0 0"/><path d="m168.933594 100.503906 5.296875-3.058594v6.117188zm0 0"/><path d="m163.640625 103.5625 5.292969-3.058594v6.113282zm0 0"/><path d="m158.34375 106.617188 5.296875-3.054688v6.113281zm0 0"/><path d="m153.046875 109.675781 5.296875-3.058593v6.117187zm0 0"/><path d="m147.75 112.734375 5.296875-3.058594v6.113281zm0 0"/><path d="m142.457031 115.789062 5.292969-3.054687v6.113281zm0 0"/><path d="m137.160156 118.847656 5.296875-3.058594v6.117188zm0 0"/><path d="m131.863281 121.90625 5.296875-3.058594v6.117188zm0 0"/><path d="m126.566406 124.964844 5.296875-3.058594v6.113281zm0 0"/><path d="m121.273438 128.019531 5.292968-3.054687v6.113281zm0 0"/><path d="m115.976562 131.078125 5.296876-3.058594v6.117188zm0 0"/><path d="m110.679688 134.136719 5.296874-3.058594v6.117187zm0 0"/><path d="m105.386719 155.539062 5.292969-3.058593v6.117187zm0 0"/><path d="m105.386719 161.65625 5.292969-3.058594v6.113282zm0 0"/><path d="m105.386719 198.34375 5.292969-3.054688v6.113282zm0 0"/><path d="m105.386719 204.460938 5.292969-3.058594v6.117187zm0 0"/><path d="m110.679688 225.863281 5.296874-3.058593v6.117187zm0 0"/><path d="m115.976562 228.921875 5.296876-3.058594v6.117188zm0 0"/><path d="m121.273438 231.980469 5.292968-3.058594v6.113281zm0 0"/><path d="m126.566406 235.035156 5.296875-3.054687v6.113281zm0 0"/><path d="m131.863281 238.09375 5.296875-3.058594v6.117188zm0 0"/><path d="m137.160156 241.152344 5.296875-3.058594v6.117188zm0 0"/><path d="m142.457031 244.210938 5.292969-3.058594v6.113281zm0 0"/><path d="m147.75 247.265625 5.296875-3.054687v6.113281zm0 0"/><path d="m153.046875 250.324219 5.296875-3.058594v6.117187zm0 0"/><path d="m158.34375 253.382812 5.296875-3.058593v6.113281zm0 0"/><path d="m163.640625 256.4375 5.292969-3.054688v6.113282zm0 0"/><path d="m168.933594 259.496094 5.296875-3.058594v6.117188zm0 0"/><path d="m190.117188 259.496094 5.296874-3.058594v6.117188zm0 0"/><path d="m195.414062 256.4375 5.296876-3.054688v6.113282zm0 0"/><path d="m200.710938 253.382812 5.296874-3.058593v6.113281zm0 0"/><path d="m227.191406 238.09375 5.292969-3.058594v6.117188zm0 0"/><path d="m232.484375 235.035156 5.296875-3.054687v6.113281zm0 0"/><path d="m237.78125 231.980469 5.296875-3.058594v6.113281zm0 0"/><path d="m258.964844 207.519531 5.296875-3.058593v6.113281zm0 0"/><path d="m258.964844 201.402344 5.296875-3.058594v6.117188zm0 0"/><path d="m258.964844 189.171875 5.296875-3.058594v6.117188zm0 0"/><path d="m258.964844 183.058594 5.296875-3.058594v6.113281zm0 0"/><path d="m258.964844 176.941406 5.296875-3.054687v6.113281zm0 0"/><path d="m258.964844 170.828125 5.296875-3.058594v6.117188zm0 0"/><path d="m258.964844 158.597656 5.296875-3.058594v6.117188zm0 0"/><path d="m258.964844 152.480469 5.296875-3.054688v6.113281zm0 0"/><path d="m248.375 128.019531 5.292969-3.054687v6.113281zm0 0"/><path d="m243.078125 124.964844 5.296875-3.058594v6.113281zm0 0"/><path d="m237.78125 121.90625 5.296875-3.058594v6.117188zm0 0"/><path d="m227.191406 115.789062 5.292969-3.054687v6.113281zm0 0"/><path d="m206.007812 103.5625 5.292969-3.058594v6.113282zm0 0"/><path d="m195.414062 97.445312 5.296876-3.058593v6.117187zm0 0"/><path d="m190.117188 94.386719 5.296874-3.054688v6.113281zm0 0"/><path d="m184.824219 91.332031 5.292969-3.058593v6.113281zm0 0"/><path d="m168.933594 94.386719 5.296875-3.054688v6.113281zm0 0"/><path d="m163.640625 97.445312 5.292969-3.058593v6.117187zm0 0"/><path d="m142.457031 109.675781 5.292969-3.058593v6.117187zm0 0"/><path d="m131.863281 115.789062 5.296875-3.054687v6.113281zm0 0"/><path d="m110.679688 128.019531 5.296874-3.054687v6.113281zm0 0"/><path d="m105.386719 131.078125 5.292969-3.058594v6.117188zm0 0"/><path d="m100.089844 152.480469 5.296875-3.054688v6.113281zm0 0"/><path d="m100.089844 158.597656 5.296875-3.058594v6.117188zm0 0"/><path d="m100.089844 164.710938 5.296875-3.054688v6.113281zm0 0"/><path d="m100.089844 195.289062 5.296875-3.058593v6.113281zm0 0"/><path d="m100.089844 201.402344 5.296875-3.058594v6.117188zm0 0"/><path d="m100.089844 207.519531 5.296875-3.058593v6.113281zm0 0"/><path d="m105.386719 228.921875 5.292969-3.058594v6.117188zm0 0"/><path d="m110.679688 231.980469 5.296874-3.058594v6.113281zm0 0"/><path d="m131.863281 244.210938 5.296875-3.058594v6.113281zm0 0"/><path d="m142.457031 250.324219 5.292969-3.058594v6.117187zm0 0"/><path d="m163.640625 262.554688 5.292969-3.058594v6.117187zm0 0"/><path d="m168.933594 265.613281 5.296875-3.058593v6.113281zm0 0"/><path d="m184.824219 268.667969 5.292969-3.054688v6.113281zm0 0"/><path d="m190.117188 265.613281 5.296874-3.058593v6.113281zm0 0"/><path d="m195.414062 262.554688 5.296876-3.058594v6.117187zm0 0"/><path d="m206.007812 256.4375 5.292969-3.054688v6.113282zm0 0"/><path d="m227.191406 244.210938 5.292969-3.058594v6.113281zm0 0"/><path d="m237.78125 238.09375 5.296875-3.058594v6.117188zm0 0"/><path d="m243.078125 235.035156 5.296875-3.054687v6.113281zm0 0"/><path d="m248.375 231.980469 5.292969-3.058594v6.113281zm0 0"/><path d="m264.261719 204.460938 5.296875-3.058594v6.117187zm0 0"/><path d="m264.261719 198.34375 5.296875-3.054688v6.113282zm0 0"/><path d="m264.261719 180 5.296875-3.058594v6.117188zm0 0"/><path d="m264.261719 161.65625 5.296875-3.058594v6.113282zm0 0"/><path d="m264.261719 155.539062 5.296875-3.058593v6.117187zm0 0"/><path d="m248.375 121.90625 5.292969-3.058594v6.117188zm0 0"/><path d="m232.484375 112.734375 5.296875-3.058594v6.113281zm0 0"/><path d="m206.007812 97.445312 5.292969-3.058593v6.117187zm0 0"/><path d="m190.117188 88.273438 5.296874-3.058594v6.117187zm0 0"/><path d="m158.34375 94.386719 5.296875-3.054688v6.113281zm0 0"/><path d="m153.046875 97.445312 5.296875-3.058593v6.117187zm0 0"/><path d="m142.457031 103.5625 5.292969-3.058594v6.113282zm0 0"/><path d="m137.160156 106.617188 5.296875-3.054688v6.113281zm0 0"/><path d="m131.863281 109.675781 5.296875-3.058593v6.117187zm0 0"/><path d="m126.566406 112.734375 5.296875-3.058594v6.113281zm0 0"/><path d="m115.976562 118.847656 5.296876-3.058594v6.117188zm0 0"/><path d="m110.679688 121.90625 5.296874-3.058594v6.117188zm0 0"/><path d="m94.792969 143.308594 5.296875-3.058594v6.117188zm0 0"/><path d="m94.792969 149.425781 5.296875-3.058593v6.113281zm0 0"/><path d="m94.792969 155.539062 5.296875-3.058593v6.117187zm0 0"/><path d="m94.792969 167.769531 5.296875-3.058593v6.117187zm0 0"/><path d="m94.792969 192.230469 5.296875-3.058594v6.117187zm0 0"/><path d="m94.792969 204.460938 5.296875-3.058594v6.117187zm0 0"/><path d="m94.792969 210.574219 5.296875-3.054688v6.113281zm0 0"/><path d="m94.792969 216.691406 5.296875-3.058594v6.117188zm0 0"/><path d="m110.679688 238.09375 5.296874-3.058594v6.117188zm0 0"/><path d="m115.976562 241.152344 5.296876-3.058594v6.117188zm0 0"/><path d="m126.566406 247.265625 5.296875-3.054687v6.113281zm0 0"/><path d="m131.863281 250.324219 5.296875-3.058594v6.117187zm0 0"/><path d="m137.160156 253.382812 5.296875-3.058593v6.113281zm0 0"/><path d="m142.457031 256.4375 5.292969-3.054688v6.113282zm0 0"/><path d="m153.046875 262.554688 5.296875-3.058594v6.117187zm0 0"/><path d="m158.34375 265.613281 5.296875-3.058593v6.113281zm0 0"/><path d="m190.117188 271.726562 5.296874-3.058593v6.117187zm0 0"/><path d="m206.007812 262.554688 5.292969-3.058594v6.117187zm0 0"/><path d="m232.484375 247.265625 5.296875-3.054687v6.113281zm0 0"/><path d="m248.375 238.09375 5.292969-3.058594v6.117188zm0 0"/><path d="m269.558594 213.632812 5.292968-3.058593v6.117187zm0 0"/><path d="m269.558594 207.519531 5.292968-3.058593v6.113281zm0 0"/><path d="m269.558594 195.289062 5.292968-3.058593v6.113281zm0 0"/><path d="m269.558594 183.058594 5.292968-3.058594v6.113281zm0 0"/><path d="m269.558594 176.941406 5.292968-3.054687v6.113281zm0 0"/><path d="m269.558594 164.710938 5.292968-3.054688v6.113281zm0 0"/><path d="m269.558594 152.480469 5.292968-3.054688v6.113281zm0 0"/><path d="m269.558594 146.367188 5.292968-3.058594v6.117187zm0 0"/><path d="m243.078125 112.734375 5.296875-3.058594v6.113281zm0 0"/><path d="m227.191406 103.5625 5.292969-3.058594v6.113282zm0 0"/><path d="m221.894531 100.503906 5.296875-3.058594v6.117188zm0 0"/><path d="m216.597656 97.445312 5.296875-3.058593v6.117187zm0 0"/><path d="m200.710938 88.273438 5.296874-3.058594v6.117187zm0 0"/><path d="m153.046875 91.332031 5.296875-3.058593v6.113281zm0 0"/><path d="m147.75 94.386719 5.296875-3.054688v6.113281zm0 0"/><path d="m131.863281 103.5625 5.296875-3.058594v6.113282zm0 0"/><path d="m115.976562 112.734375 5.296876-3.058594v6.113281zm0 0"/><path d="m110.679688 115.789062 5.296874-3.054687v6.113281zm0 0"/><path d="m89.496094 146.367188 5.296875-3.058594v6.117187zm0 0"/><path d="m89.496094 164.710938 5.296875-3.054688v6.113281zm0 0"/><path d="m89.496094 195.289062 5.296875-3.058593v6.113281zm0 0"/><path d="m89.496094 213.632812 5.296875-3.058593v6.117187zm0 0"/><path d="m110.679688 244.210938 5.296874-3.058594v6.113281zm0 0"/><path d="m115.976562 247.265625 5.296876-3.054687v6.113281zm0 0"/><path d="m131.863281 256.4375 5.296875-3.054688v6.113282zm0 0"/><path d="m147.75 265.613281 5.296875-3.058593v6.113281zm0 0"/><path d="m153.046875 268.667969 5.296875-3.054688v6.113281zm0 0"/><path d="m200.710938 271.726562 5.296874-3.058593v6.117187zm0 0"/><path d="m216.597656 262.554688 5.296875-3.058594v6.117187zm0 0"/><path d="m221.894531 259.496094 5.296875-3.058594v6.117188zm0 0"/><path d="m227.191406 256.4375 5.292969-3.054688v6.113282zm0 0"/><path d="m243.078125 247.265625 5.296875-3.054687v6.113281zm0 0"/><path d="m274.851562 204.460938 5.296876-3.058594v6.117187zm0 0"/><path d="m274.851562 198.34375 5.296876-3.054688v6.113282zm0 0"/><path d="m274.851562 186.113281 5.296876-3.054687v6.113281zm0 0"/><path d="m274.851562 180 5.296876-3.058594v6.117188zm0 0"/><path d="m274.851562 173.886719 5.296876-3.058594v6.113281zm0 0"/><path d="m274.851562 161.65625 5.296876-3.058594v6.113282zm0 0"/><path d="m274.851562 155.539062 5.296876-3.058593v6.117187zm0 0"/><path d="m253.667969 112.734375 5.296875-3.058594v6.113281zm0 0"/><path d="m248.375 109.675781 5.292969-3.058593v6.117187zm0 0"/><path d="m237.78125 103.5625 5.296875-3.058594v6.113282zm0 0"/><path d="m227.191406 97.445312 5.292969-3.058593v6.117187zm0 0"/><path d="m221.894531 94.386719 5.296875-3.054688v6.113281zm0 0"/><path d="m211.300781 88.273438 5.296875-3.058594v6.117187zm0 0"/><path d="m200.710938 82.15625 5.296874-3.054688v6.113282zm0 0"/><path d="m195.414062 79.101562 5.296876-3.058593v6.113281zm0 0"/><path d="m158.34375 82.15625 5.296875-3.054688v6.113282zm0 0"/><path d="m153.046875 85.214844 5.296875-3.058594v6.117188zm0 0"/><path d="m142.457031 91.332031 5.292969-3.058593v6.113281zm0 0"/><path d="m131.863281 97.445312 5.296875-3.058593v6.117187zm0 0"/><path d="m126.566406 100.503906 5.296875-3.058594v6.117188zm0 0"/><path d="m115.976562 106.617188 5.296876-3.054688v6.113281zm0 0"/><path d="m105.386719 112.734375 5.292969-3.058594v6.113281zm0 0"/><path d="m100.089844 115.789062 5.296875-3.054687v6.113281zm0 0"/><path d="m84.203125 155.539062 5.292969-3.058593v6.117187zm0 0"/><path d="m84.203125 173.886719 5.292969-3.058594v6.113281zm0 0"/><path d="m84.203125 180 5.292969-3.058594v6.117188zm0 0"/><path d="m84.203125 186.113281 5.292969-3.054687v6.113281zm0 0"/><path d="m84.203125 204.460938 5.292969-3.058594v6.117187zm0 0"/><path d="m100.089844 244.210938 5.296875-3.058594v6.113281zm0 0"/><path d="m105.386719 247.265625 5.292969-3.054687v6.113281zm0 0"/><path d="m115.976562 253.382812 5.296876-3.058593v6.113281zm0 0"/><path d="m126.566406 259.496094 5.296875-3.058594v6.117188zm0 0"/><path d="m131.863281 262.554688 5.296875-3.058594v6.117187zm0 0"/><path d="m142.457031 268.667969 5.292969-3.054688v6.113281zm0 0"/><path d="m153.046875 274.785156 5.296875-3.058594v6.117188zm0 0"/><path d="m158.34375 277.84375 5.296875-3.058594v6.113282zm0 0"/><path d="m195.414062 280.898438 5.296876-3.054688v6.113281zm0 0"/><path d="m200.710938 277.84375 5.296874-3.058594v6.113282zm0 0"/><path d="m211.300781 271.726562 5.296875-3.058593v6.117187zm0 0"/><path d="m221.894531 265.613281 5.296875-3.058593v6.113281zm0 0"/><path d="m227.191406 262.554688 5.292969-3.058594v6.117187zm0 0"/><path d="m237.78125 256.4375 5.296875-3.054688v6.113282zm0 0"/><path d="m248.375 250.324219 5.292969-3.058594v6.117187zm0 0"/><path d="m253.667969 247.265625 5.296875-3.054687v6.113281zm0 0"/><path d="m280.148438 207.519531 5.296874-3.058593v6.113281zm0 0"/><path d="m280.148438 201.402344 5.296874-3.058594v6.117188zm0 0"/><path d="m280.148438 189.171875 5.296874-3.058594v6.117188zm0 0"/><path d="m280.148438 183.058594 5.296874-3.058594v6.113281zm0 0"/><path d="m280.148438 176.941406 5.296874-3.054687v6.113281zm0 0"/><path d="m280.148438 170.828125 5.296874-3.058594v6.117188zm0 0"/><path d="m280.148438 158.597656 5.296874-3.058594v6.117188zm0 0"/><path d="m280.148438 152.480469 5.296874-3.054688v6.113281zm0 0"/><path d="m253.667969 106.617188 5.296875-3.054688v6.113281zm0 0"/><path d="m243.078125 100.503906 5.296875-3.058594v6.117188zm0 0"/><path d="m232.484375 94.386719 5.296875-3.054688v6.113281zm0 0"/><path d="m227.191406 91.332031 5.292969-3.058593v6.113281zm0 0"/><path d="m221.894531 88.273438 5.296875-3.058594v6.117187zm0 0"/><path d="m211.300781 82.15625 5.296875-3.054688v6.113282zm0 0"/><path d="m200.710938 76.042969 5.296874-3.058594v6.117187zm0 0"/><path d="m147.75 82.15625 5.296875-3.054688v6.113282zm0 0"/><path d="m142.457031 85.214844 5.292969-3.058594v6.117188zm0 0"/><path d="m131.863281 91.332031 5.296875-3.058593v6.113281zm0 0"/><path d="m126.566406 94.386719 5.296875-3.054688v6.113281zm0 0"/><path d="m121.273438 97.445312 5.292968-3.058593v6.117187zm0 0"/><path d="m110.679688 103.5625 5.296874-3.058594v6.113282zm0 0"/><path d="m105.386719 106.617188 5.292969-3.054688v6.113281zm0 0"/><path d="m78.90625 146.367188 5.296875-3.058594v6.117187zm0 0"/><path d="m78.90625 152.480469 5.296875-3.054688v6.113281zm0 0"/><path d="m78.90625 164.710938 5.296875-3.054688v6.113281zm0 0"/><path d="m78.90625 176.941406 5.296875-3.054687v6.113281zm0 0"/><path d="m78.90625 183.058594 5.296875-3.058594v6.113281zm0 0"/><path d="m78.90625 195.289062 5.296875-3.058593v6.113281zm0 0"/><path d="m78.90625 207.519531 5.296875-3.058593v6.113281zm0 0"/><path d="m78.90625 213.632812 5.296875-3.058593v6.117187zm0 0"/><path d="m105.386719 253.382812 5.292969-3.058593v6.113281zm0 0"/><path d="m110.679688 256.4375 5.296874-3.054688v6.113282zm0 0"/><path d="m121.273438 262.554688 5.292968-3.058594v6.117187zm0 0"/><path d="m126.566406 265.613281 5.296875-3.058593v6.113281zm0 0"/><path d="m131.863281 268.667969 5.296875-3.054688v6.113281zm0 0"/><path d="m142.457031 274.785156 5.292969-3.058594v6.117188zm0 0"/><path d="m147.75 277.84375 5.296875-3.058594v6.113282zm0 0"/><path d="m200.710938 283.957031 5.296874-3.058593v6.117187zm0 0"/><path d="m211.300781 277.84375 5.296875-3.058594v6.113282zm0 0"/><path d="m221.894531 271.726562 5.296875-3.058593v6.117187zm0 0"/><path d="m227.191406 268.667969 5.292969-3.054688v6.113281zm0 0"/><path d="m232.484375 265.613281 5.296875-3.058593v6.113281zm0 0"/><path d="m243.078125 259.496094 5.296875-3.058594v6.117188zm0 0"/><path d="m253.667969 253.382812 5.296875-3.058593v6.113281zm0 0"/><path d="m285.445312 198.34375 5.296876-3.054688v6.113282zm0 0"/><path d="m285.445312 192.230469 5.296876-3.058594v6.117187zm0 0"/><path d="m285.445312 186.113281 5.296876-3.054687v6.113281zm0 0"/><path d="m285.445312 173.886719 5.296876-3.058594v6.113281zm0 0"/><path d="m285.445312 167.769531 5.296876-3.058593v6.117187zm0 0"/><path d="m285.445312 161.65625 5.296876-3.058594v6.113282zm0 0"/><path d="m243.078125 94.386719 5.296875-3.054688v6.113281zm0 0"/><path d="m237.78125 91.332031 5.296875-3.058593v6.113281zm0 0"/><path d="m221.894531 82.15625 5.296875-3.054688v6.113282zm0 0"/><path d="m216.597656 79.101562 5.296875-3.058593v6.113281zm0 0"/><path d="m147.75 76.042969 5.296875-3.058594v6.117187zm0 0"/><path d="m142.457031 79.101562 5.292969-3.058593v6.113281zm0 0"/><path d="m131.863281 85.214844 5.296875-3.058594v6.117188zm0 0"/><path d="m126.566406 88.273438 5.296875-3.058594v6.117187zm0 0"/><path d="m121.273438 91.332031 5.292968-3.058593v6.113281zm0 0"/><path d="m115.976562 94.386719 5.296876-3.054688v6.113281zm0 0"/><path d="m105.386719 100.503906 5.292969-3.058594v6.117188zm0 0"/><path d="m100.089844 103.5625 5.296875-3.058594v6.113282zm0 0"/><path d="m73.609375 149.425781 5.296875-3.058593v6.113281zm0 0"/><path d="m73.609375 161.65625 5.296875-3.058594v6.113282zm0 0"/><path d="m73.609375 173.886719 5.296875-3.058594v6.113281zm0 0"/><path d="m73.609375 180 5.296875-3.058594v6.117188zm0 0"/><path d="m73.609375 186.113281 5.296875-3.054687v6.113281zm0 0"/><path d="m73.609375 198.34375 5.296875-3.054688v6.113282zm0 0"/><path d="m73.609375 210.574219 5.296875-3.054688v6.113281zm0 0"/><path d="m100.089844 256.4375 5.296875-3.054688v6.113282zm0 0"/><path d="m105.386719 259.496094 5.292969-3.058594v6.117188zm0 0"/><path d="m115.976562 265.613281 5.296876-3.058593v6.113281zm0 0"/><path d="m121.273438 268.667969 5.292968-3.054688v6.113281zm0 0"/><path d="m126.566406 271.726562 5.296875-3.058593v6.117187zm0 0"/><path d="m131.863281 274.785156 5.296875-3.058594v6.117188zm0 0"/><path d="m142.457031 280.898438 5.292969-3.054688v6.113281zm0 0"/><path d="m147.75 283.957031 5.296875-3.058593v6.117187zm0 0"/><path d="m216.597656 280.898438 5.296875-3.054688v6.113281zm0 0"/><path d="m221.894531 277.84375 5.296875-3.058594v6.113282zm0 0"/><path d="m237.78125 268.667969 5.296875-3.054688v6.113281zm0 0"/><path d="m243.078125 265.613281 5.296875-3.058593v6.113281zm0 0"/><path d="m290.742188 201.402344 5.292968-3.058594v6.117188zm0 0"/><path d="m290.742188 158.597656 5.292968-3.058594v6.117188zm0 0"/><path d="m243.078125 88.273438 5.296875-3.058594v6.117187zm0 0"/><path d="m221.894531 76.042969 5.296875-3.058594v6.117187zm0 0"/><path d="m137.160156 76.042969 5.296875-3.058594v6.117187zm0 0"/><path d="m131.863281 79.101562 5.296875-3.058593v6.113281zm0 0"/><path d="m126.566406 82.15625 5.296875-3.054688v6.113282zm0 0"/><path d="m115.976562 88.273438 5.296876-3.058594v6.117187zm0 0"/><path d="m110.679688 91.332031 5.296874-3.058593v6.113281zm0 0"/><path d="m105.386719 94.386719 5.292969-3.054688v6.113281zm0 0"/><path d="m68.3125 164.710938 5.296875-3.054688v6.113281zm0 0"/><path d="m68.3125 170.828125 5.296875-3.058594v6.117188zm0 0"/><path d="m68.3125 189.171875 5.296875-3.058594v6.117188zm0 0"/><path d="m68.3125 195.289062 5.296875-3.058593v6.113281zm0 0"/><path d="m105.386719 265.613281 5.292969-3.058593v6.113281zm0 0"/><path d="m110.679688 268.667969 5.296874-3.054688v6.113281zm0 0"/><path d="m115.976562 271.726562 5.296876-3.058593v6.117187zm0 0"/><path d="m126.566406 277.84375 5.296875-3.058594v6.113282zm0 0"/><path d="m131.863281 280.898438 5.296875-3.054688v6.113281zm0 0"/><path d="m137.160156 283.957031 5.296875-3.058593v6.117187zm0 0"/><path d="m221.894531 283.957031 5.296875-3.058593v6.117187zm0 0"/><path d="m243.078125 271.726562 5.296875-3.058593v6.117187zm0 0"/><path d="m248.375 85.214844 5.292969-3.058594v6.117188zm0 0"/><path d="m237.78125 79.101562 5.296875-3.058593v6.113281zm0 0"/><path d="m232.484375 76.042969 5.296875-3.058594v6.117187zm0 0"/><path d="m221.894531 69.925781 5.296875-3.054687v6.113281zm0 0"/><path d="m137.160156 69.925781 5.296875-3.054687v6.113281zm0 0"/><path d="m100.089844 91.332031 5.296875-3.058593v6.113281zm0 0"/><path d="m63.019531 167.769531 5.292969-3.058593v6.117187zm0 0"/><path d="m63.019531 192.230469 5.292969-3.058594v6.117187zm0 0"/><path d="m100.089844 268.667969 5.296875-3.054688v6.113281zm0 0"/><path d="m137.160156 290.074219 5.296875-3.058594v6.113281zm0 0"/><path d="m221.894531 290.074219 5.296875-3.058594v6.113281zm0 0"/><path d="m232.484375 283.957031 5.296875-3.058593v6.117187zm0 0"/><path d="m237.78125 280.898438 5.296875-3.054688v6.113281zm0 0"/><path d="m248.375 274.785156 5.292969-3.058594v6.117188zm0 0"/><path d="m301.332031 183.058594 5.296875-3.058594v6.113281zm0 0"/><path d="m301.332031 176.941406 5.296875-3.054687v6.113281zm0 0"/><path d="m57.722656 164.710938 5.296875-3.054688v6.113281zm0 0"/><path d="m57.722656 176.941406 5.296875-3.054687v6.113281zm0 0"/><path d="m57.722656 183.058594 5.296875-3.058594v6.113281zm0 0"/><path d="m57.722656 195.289062 5.296875-3.058593v6.113281zm0 0"/><path d="m115.976562 69.925781 5.296876-3.054687v6.113281zm0 0"/><path d="m110.679688 72.984375 5.296874-3.058594v6.117188zm0 0"/><path d="m110.679688 287.015625 5.296874-3.058594v6.117188zm0 0"/><path d="m115.976562 290.074219 5.296876-3.058594v6.113281zm0 0"/><path d="m190.117188 180-5.292969-3.058594v6.117188zm0 0"/><path d="m184.824219 176.941406-5.296875-3.054687v6.113281zm0 0"/><path d="m184.824219 183.058594-5.296875-3.058594v6.113281zm0 0"/><path d="m179.527344 173.886719-5.296875-3.058594v6.113281zm0 0"/><path d="m179.527344 180-5.296875-3.058594v6.117188zm0 0"/><path d="m179.527344 186.113281-5.296875-3.054687v6.113281zm0 0"/><path d="m195.414062 170.828125-5.296874-3.058594v6.117188zm0 0"/><path d="m190.117188 167.769531-5.292969-3.058593v6.117187zm0 0"/><path d="m184.824219 164.710938-5.296875-3.054688v6.113281zm0 0"/><path d="m184.824219 195.289062-5.296875-3.058593v6.113281zm0 0"/><path d="m190.117188 192.230469-5.292969-3.058594v6.117187zm0 0"/><path d="m195.414062 189.171875-5.296874-3.058594v6.117188zm0 0"/><path d="m206.007812 183.058594-5.296874-3.058594v6.113281zm0 0"/><path d="m206.007812 176.941406-5.296874-3.054687v6.113281zm0 0"/><path d="m200.710938 167.769531-5.296876-3.058593v6.117187zm0 0"/><path d="m195.414062 164.710938-5.296874-3.054688v6.113281zm0 0"/><path d="m190.117188 161.65625-5.292969-3.058594v6.113282zm0 0"/><path d="m184.824219 158.597656-5.296875-3.058594v6.117188zm0 0"/><path d="m168.933594 173.886719-5.292969-3.058594v6.113281zm0 0"/><path d="m168.933594 180-5.292969-3.058594v6.117188zm0 0"/><path d="m168.933594 186.113281-5.292969-3.054687v6.113281zm0 0"/><path d="m184.824219 201.402344-5.296875-3.058594v6.117188zm0 0"/><path d="m190.117188 198.34375-5.292969-3.054688v6.113282zm0 0"/><path d="m195.414062 195.289062-5.296874-3.058593v6.113281zm0 0"/><path d="m200.710938 192.230469-5.296876-3.058594v6.117187zm0 0"/><path d="m211.300781 186.113281-5.292969-3.054687v6.113281zm0 0"/><path d="m211.300781 180-5.292969-3.058594v6.117188zm0 0"/><path d="m211.300781 173.886719-5.292969-3.058594v6.113281zm0 0"/><path d="m206.007812 164.710938-5.296874-3.054688v6.113281zm0 0"/><path d="m195.414062 158.597656-5.296874-3.058594v6.117188zm0 0"/><path d="m184.824219 152.480469-5.296875-3.054688v6.113281zm0 0"/><path d="m174.230469 158.597656-5.296875-3.058594v6.117188zm0 0"/><path d="m168.933594 161.65625-5.292969-3.058594v6.113282zm0 0"/><path d="m163.640625 170.828125-5.296875-3.058594v6.117188zm0 0"/><path d="m163.640625 176.941406-5.296875-3.054687v6.113281zm0 0"/><path d="m163.640625 183.058594-5.296875-3.058594v6.113281zm0 0"/><path d="m163.640625 189.171875-5.296875-3.058594v6.117188zm0 0"/><path d="m168.933594 198.34375-5.292969-3.054688v6.113282zm0 0"/><path d="m174.230469 201.402344-5.296875-3.058594v6.117188zm0 0"/><path d="m184.824219 207.519531-5.296875-3.058593v6.113281zm0 0"/><path d="m195.414062 201.402344-5.296874-3.058594v6.117188zm0 0"/><path d="m206.007812 195.289062-5.296874-3.058593v6.113281zm0 0"/><path d="m216.597656 189.171875-5.296875-3.058594v6.117188zm0 0"/><path d="m216.597656 170.828125-5.296875-3.058594v6.117188zm0 0"/><path d="m206.007812 158.597656-5.296874-3.058594v6.117188zm0 0"/><path d="m190.117188 149.425781-5.292969-3.058593v6.113281zm0 0"/><path d="m174.230469 152.480469-5.296875-3.054688v6.113281zm0 0"/><path d="m168.933594 155.539062-5.292969-3.058593v6.117187zm0 0"/><path d="m163.640625 158.597656-5.296875-3.058594v6.117188zm0 0"/><path d="m158.34375 167.769531-5.296875-3.058593v6.117187zm0 0"/><path d="m158.34375 180-5.296875-3.058594v6.117188zm0 0"/><path d="m158.34375 192.230469-5.296875-3.058594v6.117187zm0 0"/><path d="m163.640625 201.402344-5.296875-3.058594v6.117188zm0 0"/><path d="m168.933594 204.460938-5.292969-3.058594v6.117187zm0 0"/><path d="m174.230469 207.519531-5.296875-3.058593v6.113281zm0 0"/><path d="m190.117188 210.574219-5.292969-3.054688v6.113281zm0 0"/><path d="m206.007812 201.402344-5.296874-3.058594v6.117188zm0 0"/><path d="m206.007812 152.480469-5.296874-3.054688v6.113281zm0 0"/><path d="m195.414062 146.367188-5.296874-3.058594v6.117187zm0 0"/><path d="m174.230469 146.367188-5.296875-3.058594v6.117187zm0 0"/><path d="m158.34375 155.539062-5.296875-3.058593v6.117187zm0 0"/><path d="m153.046875 170.828125-5.296875-3.058594v6.117188zm0 0"/><path d="m153.046875 189.171875-5.296875-3.058594v6.117188zm0 0"/><path d="m158.34375 204.460938-5.296875-3.058594v6.117187zm0 0"/><path d="m174.230469 213.632812-5.296875-3.058593v6.117187zm0 0"/><path d="m195.414062 213.632812-5.296874-3.058593v6.117187zm0 0"/><path d="m206.007812 207.519531-5.296874-3.058593v6.113281zm0 0"/><path d="m227.191406 201.402344-5.296875-3.058594v6.117188zm0 0"/><path d="m227.191406 189.171875-5.296875-3.058594v6.117188zm0 0"/><path d="m227.191406 170.828125-5.296875-3.058594v6.117188zm0 0"/><path d="m227.191406 158.597656-5.296875-3.058594v6.117188zm0 0"/><path d="m216.597656 152.480469-5.296875-3.054688v6.113281zm0 0"/><path d="m190.117188 137.195312-5.292969-3.058593v6.113281zm0 0"/><path d="m147.75 173.886719-5.292969-3.058594v6.113281zm0 0"/><path d="m147.75 186.113281-5.292969-3.054687v6.113281zm0 0"/><path d="m190.117188 222.804688-5.292969-3.054688v6.113281zm0 0"/><path d="m216.597656 207.519531-5.296875-3.058593v6.113281zm0 0"/><path d="m232.484375 192.230469-5.292969-3.058594v6.117187zm0 0"/><path d="m232.484375 167.769531-5.292969-3.058593v6.117187zm0 0"/><path d="m211.300781 143.308594-5.292969-3.058594v6.117188zm0 0"/><path d="m200.710938 137.195312-5.296876-3.058593v6.113281zm0 0"/><path d="m179.527344 131.078125-5.296875-3.058594v6.117188zm0 0"/><path d="m168.933594 137.195312-5.292969-3.058593v6.113281zm0 0"/><path d="m153.046875 146.367188-5.296875-3.058594v6.117187zm0 0"/><path d="m142.457031 152.480469-5.296875-3.054688v6.113281zm0 0"/><path d="m142.457031 164.710938-5.296875-3.054688v6.113281zm0 0"/><path d="m142.457031 195.289062-5.296875-3.058593v6.113281zm0 0"/><path d="m142.457031 207.519531-5.296875-3.058593v6.113281zm0 0"/><path d="m153.046875 213.632812-5.296875-3.058593v6.117187zm0 0"/><path d="m168.933594 222.804688-5.292969-3.054688v6.113281zm0 0"/><path d="m179.527344 228.921875-5.296875-3.058594v6.117188zm0 0"/><path d="m200.710938 222.804688-5.296876-3.054688v6.113281zm0 0"/><path d="m211.300781 216.691406-5.292969-3.058594v6.117188zm0 0"/><path d="m237.78125 195.289062-5.296875-3.058593v6.113281zm0 0"/><path d="m237.78125 189.171875-5.296875-3.058594v6.117188zm0 0"/><path d="m237.78125 170.828125-5.296875-3.058594v6.117188zm0 0"/><path d="m237.78125 164.710938-5.296875-3.054688v6.113281zm0 0"/><path d="m211.300781 137.195312-5.292969-3.058593v6.113281zm0 0"/><path d="m206.007812 134.136719-5.296874-3.058594v6.117187zm0 0"/><path d="m168.933594 131.078125-5.292969-3.058594v6.117188zm0 0"/><path d="m147.75 143.308594-5.292969-3.058594v6.117188zm0 0"/><path d="m137.160156 173.886719-5.296875-3.058594v6.113281zm0 0"/><path d="m137.160156 186.113281-5.296875-3.054687v6.113281zm0 0"/><path d="m147.75 216.691406-5.292969-3.058594v6.117188zm0 0"/><path d="m168.933594 228.921875-5.292969-3.058594v6.117188zm0 0"/><path d="m206.007812 225.863281-5.296874-3.058593v6.117187zm0 0"/><path d="m211.300781 222.804688-5.292969-3.054688v6.113281zm0 0"/><path d="m243.078125 210.574219-5.296875-3.054688v6.113281zm0 0"/><path d="m243.078125 204.460938-5.296875-3.058594v6.117187zm0 0"/><path d="m243.078125 192.230469-5.296875-3.058594v6.117187zm0 0"/><path d="m243.078125 186.113281-5.296875-3.054687v6.113281zm0 0"/><path d="m243.078125 173.886719-5.296875-3.058594v6.113281zm0 0"/><path d="m243.078125 167.769531-5.296875-3.058593v6.117187zm0 0"/><path d="m243.078125 155.539062-5.296875-3.058593v6.117187zm0 0"/><path d="m243.078125 149.425781-5.296875-3.058593v6.113281zm0 0"/><path d="m237.78125 146.367188-5.296875-3.058594v6.117187zm0 0"/><path d="m232.484375 143.308594-5.292969-3.058594v6.117188zm0 0"/><path d="m190.117188 118.847656-5.292969-3.058594v6.117188zm0 0"/><path d="m184.824219 115.789062-5.296875-3.054687v6.113281zm0 0"/><path d="m168.933594 124.964844-5.292969-3.058594v6.113281zm0 0"/><path d="m163.640625 128.019531-5.296875-3.054687v6.113281zm0 0"/><path d="m147.75 137.195312-5.292969-3.058593v6.113281zm0 0"/><path d="m142.457031 140.25-5.296875-3.054688v6.113282zm0 0"/><path d="m131.863281 176.941406-5.296875-3.054687v6.113281zm0 0"/><path d="m131.863281 183.058594-5.296875-3.058594v6.113281zm0 0"/><path d="m142.457031 219.75-5.296875-3.058594v6.113282zm0 0"/><path d="m147.75 222.804688-5.292969-3.054688v6.113281zm0 0"/><path d="m163.640625 231.980469-5.296875-3.058594v6.113281zm0 0"/><path d="m168.933594 235.035156-5.292969-3.054687v6.113281zm0 0"/><path d="m184.824219 244.210938-5.296875-3.058594v6.113281zm0 0"/><path d="m190.117188 241.152344-5.292969-3.058594v6.117188zm0 0"/><path d="m232.484375 216.691406-5.292969-3.058594v6.117188zm0 0"/><path d="m237.78125 213.632812-5.296875-3.058593v6.117187zm0 0"/><path d="m248.375 207.519531-5.296875-3.058593v6.113281zm0 0"/><path d="m248.375 183.058594-5.296875-3.058594v6.113281zm0 0"/><path d="m248.375 176.941406-5.296875-3.054687v6.113281zm0 0"/><path d="m248.375 152.480469-5.296875-3.054688v6.113281zm0 0"/><path d="m243.078125 143.308594-5.296875-3.058594v6.117188zm0 0"/><path d="m237.78125 140.25-5.296875-3.054688v6.113282zm0 0"/><path d="m221.894531 131.078125-5.296875-3.058594v6.117188zm0 0"/><path d="m216.597656 128.019531-5.296875-3.054687v6.113281zm0 0"/><path d="m211.300781 124.964844-5.292969-3.058594v6.113281zm0 0"/><path d="m206.007812 121.90625-5.296874-3.058594v6.117188zm0 0"/><path d="m190.117188 112.734375-5.292969-3.058594v6.113281zm0 0"/><path d="m184.824219 109.675781-5.296875-3.058593v6.117187zm0 0"/><path d="m179.527344 112.734375-5.296875-3.058594v6.113281zm0 0"/><path d="m174.230469 115.789062-5.296875-3.054687v6.113281zm0 0"/><path d="m163.640625 121.90625-5.296875-3.058594v6.117188zm0 0"/><path d="m158.34375 124.964844-5.296875-3.058594v6.113281zm0 0"/><path d="m147.75 131.078125-5.292969-3.058594v6.117188zm0 0"/><path d="m142.457031 134.136719-5.296875-3.058594v6.117187zm0 0"/><path d="m131.863281 140.25-5.296875-3.054688v6.113282zm0 0"/><path d="m126.566406 143.308594-5.292968-3.058594v6.117188zm0 0"/><path d="m126.566406 149.425781-5.292968-3.058593v6.113281zm0 0"/><path d="m126.566406 155.539062-5.292968-3.058593v6.117187zm0 0"/><path d="m126.566406 204.460938-5.292968-3.058594v6.117187zm0 0"/><path d="m126.566406 210.574219-5.292968-3.054688v6.113281zm0 0"/><path d="m126.566406 216.691406-5.292968-3.058594v6.117188zm0 0"/><path d="m131.863281 219.75-5.296875-3.058594v6.113282zm0 0"/><path d="m142.457031 225.863281-5.296875-3.058593v6.117187zm0 0"/><path d="m147.75 228.921875-5.292969-3.058594v6.117188zm0 0"/><path d="m158.34375 235.035156-5.296875-3.054687v6.113281zm0 0"/><path d="m163.640625 238.09375-5.296875-3.058594v6.117188zm0 0"/><path d="m174.230469 244.210938-5.296875-3.058594v6.113281zm0 0"/><path d="m179.527344 247.265625-5.296875-3.054687v6.113281zm0 0"/><path d="m184.824219 250.324219-5.296875-3.058594v6.117187zm0 0"/><path d="m190.117188 247.265625-5.292969-3.054687v6.113281zm0 0"/><path d="m206.007812 238.09375-5.296874-3.058594v6.117188zm0 0"/><path d="m211.300781 235.035156-5.292969-3.054687v6.113281zm0 0"/><path d="m216.597656 231.980469-5.296875-3.058594v6.113281zm0 0"/><path d="m221.894531 228.921875-5.296875-3.058594v6.117188zm0 0"/><path d="m237.78125 219.75-5.296875-3.058594v6.113282zm0 0"/><path d="m243.078125 216.691406-5.296875-3.058594v6.117188zm0 0"/><path d="m253.667969 204.460938-5.292969-3.058594v6.117187zm0 0"/><path d="m253.667969 198.34375-5.292969-3.054688v6.113282zm0 0"/><path d="m253.667969 161.65625-5.292969-3.058594v6.113282zm0 0"/><path d="m253.667969 155.539062-5.292969-3.058593v6.117187zm0 0"/><path d="m221.894531 124.964844-5.296875-3.058594v6.113281zm0 0"/><path d="m211.300781 118.847656-5.292969-3.058594v6.117188zm0 0"/><path d="m174.230469 109.675781-5.296875-3.058593v6.117187zm0 0"/><path d="m153.046875 121.90625-5.296875-3.058594v6.117188zm0 0"/><path d="m147.75 124.964844-5.292969-3.058594v6.113281zm0 0"/><path d="m126.566406 137.195312-5.292968-3.058593v6.113281zm0 0"/><path d="m121.273438 146.367188-5.296876-3.058594v6.117187zm0 0"/><path d="m121.273438 152.480469-5.296876-3.054688v6.113281zm0 0"/><path d="m121.273438 170.828125-5.296876-3.058594v6.117188zm0 0"/><path d="m121.273438 176.941406-5.296876-3.054687v6.113281zm0 0"/><path d="m121.273438 183.058594-5.296876-3.058594v6.113281zm0 0"/><path d="m121.273438 189.171875-5.296876-3.058594v6.117188zm0 0"/><path d="m121.273438 207.519531-5.296876-3.058593v6.113281zm0 0"/><path d="m121.273438 213.632812-5.296876-3.058593v6.117187zm0 0"/><path d="m126.566406 222.804688-5.292968-3.054688v6.113281zm0 0"/><path d="m147.75 235.035156-5.292969-3.054687v6.113281zm0 0"/><path d="m153.046875 238.09375-5.296875-3.058594v6.117188zm0 0"/><path d="m174.230469 250.324219-5.296875-3.058594v6.117187zm0 0"/><path d="m211.300781 241.152344-5.292969-3.058594v6.117188zm0 0"/><path d="m221.894531 235.035156-5.296875-3.054687v6.113281zm0 0"/><path d="m258.964844 207.519531-5.296875-3.058593v6.113281zm0 0"/><path d="m258.964844 201.402344-5.296875-3.058594v6.117188zm0 0"/><path d="m258.964844 195.289062-5.296875-3.058593v6.113281zm0 0"/><path d="m258.964844 164.710938-5.296875-3.054688v6.113281zm0 0"/><path d="m258.964844 158.597656-5.296875-3.058594v6.117188zm0 0"/><path d="m258.964844 152.480469-5.296875-3.054688v6.113281zm0 0"/><path d="m248.375 134.136719-5.296875-3.058594v6.117187zm0 0"/><path d="m243.078125 131.078125-5.296875-3.058594v6.117188zm0 0"/><path d="m237.78125 128.019531-5.296875-3.054687v6.113281zm0 0"/><path d="m232.484375 124.964844-5.292969-3.058594v6.113281zm0 0"/><path d="m227.191406 121.90625-5.296875-3.058594v6.117188zm0 0"/><path d="m221.894531 118.847656-5.296875-3.058594v6.117188zm0 0"/><path d="m216.597656 115.789062-5.296875-3.054687v6.113281zm0 0"/><path d="m211.300781 112.734375-5.292969-3.058594v6.113281zm0 0"/><path d="m206.007812 109.675781-5.296874-3.058593v6.117187zm0 0"/><path d="m200.710938 106.617188-5.296876-3.054688v6.113281zm0 0"/><path d="m195.414062 103.5625-5.296874-3.058594v6.113282zm0 0"/><path d="m190.117188 100.503906-5.292969-3.058594v6.117188zm0 0"/><path d="m168.933594 106.617188-5.292969-3.054688v6.113281zm0 0"/><path d="m163.640625 109.675781-5.296875-3.058593v6.117187zm0 0"/><path d="m131.863281 128.019531-5.296875-3.054687v6.113281zm0 0"/><path d="m126.566406 131.078125-5.292968-3.058594v6.117188zm0 0"/><path d="m115.976562 173.886719-5.296874-3.058594v6.113281zm0 0"/><path d="m115.976562 186.113281-5.296874-3.054687v6.113281zm0 0"/><path d="m126.566406 228.921875-5.292968-3.058594v6.117188zm0 0"/><path d="m131.863281 231.980469-5.296875-3.058594v6.113281zm0 0"/><path d="m163.640625 250.324219-5.296875-3.058594v6.117187zm0 0"/><path d="m168.933594 253.382812-5.292969-3.058593v6.113281zm0 0"/><path d="m190.117188 259.496094-5.292969-3.058594v6.117188zm0 0"/><path d="m195.414062 256.4375-5.296874-3.054688v6.113282zm0 0"/><path d="m200.710938 253.382812-5.296876-3.058593v6.113281zm0 0"/><path d="m206.007812 250.324219-5.296874-3.058594v6.117187zm0 0"/><path d="m211.300781 247.265625-5.292969-3.054687v6.113281zm0 0"/><path d="m216.597656 244.210938-5.296875-3.058594v6.113281zm0 0"/><path d="m221.894531 241.152344-5.296875-3.058594v6.117188zm0 0"/><path d="m227.191406 238.09375-5.296875-3.058594v6.117188zm0 0"/><path d="m232.484375 235.035156-5.292969-3.054687v6.113281zm0 0"/><path d="m237.78125 231.980469-5.296875-3.058594v6.113281zm0 0"/><path d="m243.078125 228.921875-5.296875-3.058594v6.117188zm0 0"/><path d="m248.375 225.863281-5.296875-3.058593v6.117187zm0 0"/><path d="m264.261719 216.691406-5.296875-3.058594v6.117188zm0 0"/><path d="m264.261719 210.574219-5.296875-3.054688v6.113281zm0 0"/><path d="m264.261719 204.460938-5.296875-3.058594v6.117187zm0 0"/><path d="m264.261719 192.230469-5.296875-3.058594v6.117187zm0 0"/><path d="m264.261719 167.769531-5.296875-3.058593v6.117187zm0 0"/><path d="m264.261719 155.539062-5.296875-3.058593v6.117187zm0 0"/><path d="m264.261719 149.425781-5.296875-3.058593v6.113281zm0 0"/><path d="m264.261719 143.308594-5.296875-3.058594v6.117188zm0 0"/><path d="m253.667969 131.078125-5.292969-3.058594v6.117188zm0 0"/><path d="m248.375 128.019531-5.296875-3.054687v6.113281zm0 0"/><path d="m227.191406 115.789062-5.296875-3.054687v6.113281zm0 0"/><path d="m216.597656 109.675781-5.296875-3.058593v6.117187zm0 0"/><path d="m195.414062 97.445312-5.296874-3.058593v6.117187zm0 0"/><path d="m190.117188 94.386719-5.292969-3.054688v6.113281zm0 0"/><path d="m168.933594 100.503906-5.292969-3.058594v6.117188zm0 0"/><path d="m163.640625 103.5625-5.296875-3.058594v6.113282zm0 0"/><path d="m158.34375 106.617188-5.296875-3.054688v6.113281zm0 0"/><path d="m131.863281 121.90625-5.296875-3.058594v6.117188zm0 0"/><path d="m126.566406 124.964844-5.292968-3.058594v6.113281zm0 0"/><path d="m121.273438 128.019531-5.296876-3.054687v6.113281zm0 0"/><path d="m110.679688 146.367188-5.292969-3.058594v6.117187zm0 0"/><path d="m110.679688 152.480469-5.292969-3.054688v6.113281zm0 0"/><path d="m110.679688 158.597656-5.292969-3.058594v6.117188zm0 0"/><path d="m110.679688 164.710938-5.292969-3.054688v6.113281zm0 0"/><path d="m110.679688 170.828125-5.292969-3.058594v6.117188zm0 0"/><path d="m110.679688 176.941406-5.292969-3.054687v6.113281zm0 0"/><path d="m110.679688 183.058594-5.292969-3.058594v6.113281zm0 0"/><path d="m110.679688 189.171875-5.292969-3.058594v6.117188zm0 0"/><path d="m110.679688 195.289062-5.292969-3.058593v6.113281zm0 0"/><path d="m110.679688 201.402344-5.292969-3.058594v6.117188zm0 0"/><path d="m110.679688 207.519531-5.292969-3.058593v6.113281zm0 0"/><path d="m110.679688 213.632812-5.292969-3.058593v6.117187zm0 0"/><path d="m121.273438 231.980469-5.296876-3.058594v6.113281zm0 0"/><path d="m126.566406 235.035156-5.292968-3.054687v6.113281zm0 0"/><path d="m131.863281 238.09375-5.296875-3.058594v6.117188zm0 0"/><path d="m158.34375 253.382812-5.296875-3.058593v6.113281zm0 0"/><path d="m163.640625 256.4375-5.296875-3.054688v6.113282zm0 0"/><path d="m168.933594 259.496094-5.292969-3.058594v6.117188zm0 0"/><path d="m190.117188 265.613281-5.292969-3.058593v6.113281zm0 0"/><path d="m195.414062 262.554688-5.296874-3.058594v6.117187zm0 0"/><path d="m216.597656 250.324219-5.296875-3.058594v6.117187zm0 0"/><path d="m227.191406 244.210938-5.296875-3.058594v6.113281zm0 0"/><path d="m248.375 231.980469-5.296875-3.058594v6.113281zm0 0"/><path d="m253.667969 228.921875-5.292969-3.058594v6.117188zm0 0"/><path d="m269.558594 213.632812-5.296875-3.058593v6.117187zm0 0"/><path d="m269.558594 195.289062-5.296875-3.058593v6.113281zm0 0"/><path d="m269.558594 164.710938-5.296875-3.054688v6.113281zm0 0"/><path d="m269.558594 146.367188-5.296875-3.058594v6.117187zm0 0"/><path d="m248.375 121.90625-5.296875-3.058594v6.117188zm0 0"/><path d="m243.078125 118.847656-5.296875-3.058594v6.117188zm0 0"/><path d="m232.484375 112.734375-5.292969-3.058594v6.113281zm0 0"/><path d="m227.191406 109.675781-5.296875-3.058593v6.117187zm0 0"/><path d="m221.894531 106.617188-5.296875-3.054688v6.113281zm0 0"/><path d="m216.597656 103.5625-5.296875-3.058594v6.113282zm0 0"/><path d="m206.007812 97.445312-5.296874-3.058593v6.117187zm0 0"/><path d="m200.710938 94.386719-5.296876-3.054688v6.113281zm0 0"/><path d="m174.230469 91.332031-5.296875-3.058593v6.113281zm0 0"/><path d="m168.933594 94.386719-5.292969-3.054688v6.113281zm0 0"/><path d="m163.640625 97.445312-5.296875-3.058593v6.117187zm0 0"/><path d="m153.046875 103.5625-5.296875-3.058594v6.113282zm0 0"/><path d="m131.863281 115.789062-5.296875-3.054687v6.113281zm0 0"/><path d="m121.273438 121.90625-5.296876-3.058594v6.117188zm0 0"/><path d="m115.976562 124.964844-5.296874-3.058594v6.113281zm0 0"/><path d="m110.679688 128.019531-5.292969-3.054687v6.113281zm0 0"/><path d="m105.386719 143.308594-5.296875-3.058594v6.117188zm0 0"/><path d="m105.386719 149.425781-5.296875-3.058593v6.113281zm0 0"/><path d="m105.386719 173.886719-5.296875-3.058594v6.113281zm0 0"/><path d="m105.386719 186.113281-5.296875-3.054687v6.113281zm0 0"/><path d="m105.386719 210.574219-5.296875-3.054688v6.113281zm0 0"/><path d="m105.386719 216.691406-5.296875-3.058594v6.117188zm0 0"/><path d="m110.679688 231.980469-5.292969-3.058594v6.113281zm0 0"/><path d="m115.976562 235.035156-5.296874-3.054687v6.113281zm0 0"/><path d="m121.273438 238.09375-5.296876-3.058594v6.117188zm0 0"/><path d="m131.863281 244.210938-5.296875-3.058594v6.113281zm0 0"/><path d="m153.046875 256.4375-5.296875-3.054688v6.113282zm0 0"/><path d="m163.640625 262.554688-5.296875-3.058594v6.117187zm0 0"/><path d="m168.933594 265.613281-5.292969-3.058593v6.113281zm0 0"/><path d="m174.230469 268.667969-5.296875-3.054688v6.113281zm0 0"/><path d="m200.710938 265.613281-5.296876-3.058593v6.113281zm0 0"/><path d="m206.007812 262.554688-5.296874-3.058594v6.117187zm0 0"/><path d="m216.597656 256.4375-5.296875-3.054688v6.113282zm0 0"/><path d="m221.894531 253.382812-5.296875-3.058593v6.113281zm0 0"/><path d="m227.191406 250.324219-5.296875-3.058594v6.117187zm0 0"/><path d="m232.484375 247.265625-5.292969-3.054687v6.113281zm0 0"/><path d="m243.078125 241.152344-5.296875-3.058594v6.117188zm0 0"/><path d="m248.375 238.09375-5.296875-3.058594v6.117188zm0 0"/><path d="m274.851562 204.460938-5.292968-3.058594v6.117187zm0 0"/><path d="m274.851562 186.113281-5.292968-3.054687v6.113281zm0 0"/><path d="m274.851562 180-5.292968-3.058594v6.117188zm0 0"/><path d="m274.851562 173.886719-5.292968-3.058594v6.113281zm0 0"/><path d="m274.851562 155.539062-5.292968-3.058593v6.117187zm0 0"/><path d="m248.375 115.789062-5.296875-3.054687v6.113281zm0 0"/><path d="m243.078125 112.734375-5.296875-3.058594v6.113281zm0 0"/><path d="m227.191406 103.5625-5.296875-3.058594v6.113282zm0 0"/><path d="m211.300781 94.386719-5.292969-3.054688v6.113281zm0 0"/><path d="m206.007812 91.332031-5.296874-3.058593v6.113281zm0 0"/><path d="m168.933594 88.273438-5.292969-3.058594v6.117187zm0 0"/><path d="m153.046875 97.445312-5.296875-3.058593v6.117187zm0 0"/><path d="m126.566406 112.734375-5.292968-3.058594v6.113281zm0 0"/><path d="m110.679688 121.90625-5.292969-3.058594v6.117188zm0 0"/><path d="m100.089844 152.480469-5.296875-3.054688v6.113281zm0 0"/><path d="m100.089844 158.597656-5.296875-3.058594v6.117188zm0 0"/><path d="m100.089844 170.828125-5.296875-3.058594v6.117188zm0 0"/><path d="m100.089844 176.941406-5.296875-3.054687v6.113281zm0 0"/><path d="m100.089844 183.058594-5.296875-3.058594v6.113281zm0 0"/><path d="m100.089844 189.171875-5.296875-3.058594v6.117188zm0 0"/><path d="m100.089844 201.402344-5.296875-3.058594v6.117188zm0 0"/><path d="m100.089844 207.519531-5.296875-3.058593v6.113281zm0 0"/><path d="m110.679688 238.09375-5.292969-3.058594v6.117188zm0 0"/><path d="m126.566406 247.265625-5.292968-3.054687v6.113281zm0 0"/><path d="m153.046875 262.554688-5.296875-3.058594v6.117187zm0 0"/><path d="m168.933594 271.726562-5.292969-3.058593v6.117187zm0 0"/><path d="m206.007812 268.667969-5.296874-3.054688v6.113281zm0 0"/><path d="m211.300781 265.613281-5.292969-3.058593v6.113281zm0 0"/><path d="m227.191406 256.4375-5.296875-3.054688v6.113282zm0 0"/><path d="m243.078125 247.265625-5.296875-3.054687v6.113281zm0 0"/><path d="m248.375 244.210938-5.296875-3.058594v6.113281zm0 0"/><path d="m280.148438 213.632812-5.296876-3.058593v6.117187zm0 0"/><path d="m280.148438 207.519531-5.296876-3.058593v6.113281zm0 0"/><path d="m280.148438 195.289062-5.296876-3.058593v6.113281zm0 0"/><path d="m280.148438 183.058594-5.296876-3.058594v6.113281zm0 0"/><path d="m280.148438 176.941406-5.296876-3.054687v6.113281zm0 0"/><path d="m280.148438 164.710938-5.296876-3.054688v6.113281zm0 0"/><path d="m280.148438 152.480469-5.296876-3.054688v6.113281zm0 0"/><path d="m280.148438 146.367188-5.296876-3.058594v6.117187zm0 0"/><path d="m258.964844 115.789062-5.296875-3.054687v6.113281zm0 0"/><path d="m253.667969 112.734375-5.292969-3.058594v6.113281zm0 0"/><path d="m243.078125 106.617188-5.296875-3.054688v6.113281zm0 0"/><path d="m232.484375 100.503906-5.292969-3.058594v6.117188zm0 0"/><path d="m227.191406 97.445312-5.296875-3.058593v6.117187zm0 0"/><path d="m216.597656 91.332031-5.296875-3.058593v6.113281zm0 0"/><path d="m206.007812 85.214844-5.296874-3.058594v6.117188zm0 0"/><path d="m200.710938 82.15625-5.296876-3.054688v6.113282zm0 0"/><path d="m158.34375 88.273438-5.296875-3.058594v6.117187zm0 0"/><path d="m142.457031 97.445312-5.296875-3.058593v6.117187zm0 0"/><path d="m137.160156 100.503906-5.296875-3.058594v6.117188zm0 0"/><path d="m131.863281 103.5625-5.296875-3.058594v6.113282zm0 0"/><path d="m115.976562 112.734375-5.296874-3.058594v6.113281zm0 0"/><path d="m94.792969 155.539062-5.296875-3.058593v6.117187zm0 0"/><path d="m94.792969 161.65625-5.296875-3.058594v6.113282zm0 0"/><path d="m94.792969 180-5.296875-3.058594v6.117188zm0 0"/><path d="m94.792969 198.34375-5.296875-3.054688v6.113282zm0 0"/><path d="m94.792969 204.460938-5.296875-3.058594v6.117187zm0 0"/><path d="m115.976562 247.265625-5.296874-3.054687v6.113281zm0 0"/><path d="m131.863281 256.4375-5.296875-3.054688v6.113282zm0 0"/><path d="m137.160156 259.496094-5.296875-3.058594v6.117188zm0 0"/><path d="m142.457031 262.554688-5.296875-3.058594v6.117187zm0 0"/><path d="m158.34375 271.726562-5.296875-3.058593v6.117187zm0 0"/><path d="m200.710938 277.84375-5.296876-3.058594v6.113282zm0 0"/><path d="m206.007812 274.785156-5.296874-3.058594v6.117188zm0 0"/><path d="m216.597656 268.667969-5.296875-3.054688v6.113281zm0 0"/><path d="m227.191406 262.554688-5.296875-3.058594v6.117187zm0 0"/><path d="m232.484375 259.496094-5.292969-3.058594v6.117188zm0 0"/><path d="m243.078125 253.382812-5.296875-3.058593v6.113281zm0 0"/><path d="m253.667969 247.265625-5.292969-3.054687v6.113281zm0 0"/><path d="m258.964844 244.210938-5.296875-3.058594v6.113281zm0 0"/><path d="m285.445312 210.574219-5.296874-3.054688v6.113281zm0 0"/><path d="m285.445312 198.34375-5.296874-3.054688v6.113282zm0 0"/><path d="m285.445312 186.113281-5.296874-3.054687v6.113281zm0 0"/><path d="m285.445312 180-5.296874-3.058594v6.117188zm0 0"/><path d="m285.445312 173.886719-5.296874-3.058594v6.113281zm0 0"/><path d="m285.445312 161.65625-5.296874-3.058594v6.113282zm0 0"/><path d="m285.445312 149.425781-5.296874-3.058593v6.113281zm0 0"/><path d="m253.667969 106.617188-5.292969-3.054688v6.113281zm0 0"/><path d="m248.375 103.5625-5.296875-3.058594v6.113282zm0 0"/><path d="m237.78125 97.445312-5.296875-3.058593v6.117187zm0 0"/><path d="m232.484375 94.386719-5.292969-3.054688v6.113281zm0 0"/><path d="m227.191406 91.332031-5.296875-3.058593v6.113281zm0 0"/><path d="m216.597656 85.214844-5.296875-3.058594v6.117188zm0 0"/><path d="m211.300781 82.15625-5.292969-3.054688v6.113282zm0 0"/><path d="m163.640625 79.101562-5.296875-3.058593v6.113281zm0 0"/><path d="m158.34375 82.15625-5.296875-3.054688v6.113282zm0 0"/><path d="m147.75 88.273438-5.292969-3.058594v6.117187zm0 0"/><path d="m137.160156 94.386719-5.296875-3.054688v6.113281zm0 0"/><path d="m131.863281 97.445312-5.296875-3.058593v6.117187zm0 0"/><path d="m121.273438 103.5625-5.296876-3.058594v6.113282zm0 0"/><path d="m110.679688 109.675781-5.292969-3.058593v6.117187zm0 0"/><path d="m105.386719 112.734375-5.296875-3.058594v6.113281zm0 0"/><path d="m89.496094 146.367188-5.292969-3.058594v6.117187zm0 0"/><path d="m89.496094 152.480469-5.292969-3.054688v6.113281zm0 0"/><path d="m89.496094 164.710938-5.292969-3.054688v6.113281zm0 0"/><path d="m89.496094 176.941406-5.292969-3.054687v6.113281zm0 0"/><path d="m89.496094 183.058594-5.292969-3.058594v6.113281zm0 0"/><path d="m89.496094 195.289062-5.292969-3.058593v6.113281zm0 0"/><path d="m89.496094 207.519531-5.292969-3.058593v6.113281zm0 0"/><path d="m89.496094 213.632812-5.292969-3.058593v6.117187zm0 0"/><path d="m105.386719 247.265625-5.296875-3.054687v6.113281zm0 0"/><path d="m110.679688 250.324219-5.292969-3.058594v6.117187zm0 0"/><path d="m121.273438 256.4375-5.296876-3.054688v6.113282zm0 0"/><path d="m131.863281 262.554688-5.296875-3.058594v6.117187zm0 0"/><path d="m137.160156 265.613281-5.296875-3.058593v6.113281zm0 0"/><path d="m147.75 271.726562-5.292969-3.058593v6.117187zm0 0"/><path d="m158.34375 277.84375-5.296875-3.058594v6.113282zm0 0"/><path d="m163.640625 280.898438-5.296875-3.054688v6.113281zm0 0"/><path d="m211.300781 277.84375-5.292969-3.058594v6.113282zm0 0"/><path d="m216.597656 274.785156-5.296875-3.058594v6.117188zm0 0"/><path d="m227.191406 268.667969-5.296875-3.054688v6.113281zm0 0"/><path d="m232.484375 265.613281-5.292969-3.058593v6.113281zm0 0"/><path d="m237.78125 262.554688-5.296875-3.058594v6.117187zm0 0"/><path d="m248.375 256.4375-5.296875-3.054688v6.113282zm0 0"/><path d="m253.667969 253.382812-5.292969-3.058593v6.113281zm0 0"/><path d="m290.742188 195.289062-5.296876-3.058593v6.113281zm0 0"/><path d="m290.742188 189.171875-5.296876-3.058594v6.117188zm0 0"/><path d="m290.742188 170.828125-5.296876-3.058594v6.117188zm0 0"/><path d="m290.742188 164.710938-5.296876-3.054688v6.113281zm0 0"/><path d="m258.964844 103.5625-5.296875-3.058594v6.113282zm0 0"/><path d="m253.667969 100.503906-5.292969-3.058594v6.117188zm0 0"/><path d="m243.078125 94.386719-5.296875-3.054688v6.113281zm0 0"/><path d="m237.78125 91.332031-5.296875-3.058593v6.113281zm0 0"/><path d="m232.484375 88.273438-5.292969-3.058594v6.117187zm0 0"/><path d="m227.191406 85.214844-5.296875-3.058594v6.117188zm0 0"/><path d="m216.597656 79.101562-5.296875-3.058593v6.113281zm0 0"/><path d="m211.300781 76.042969-5.292969-3.058594v6.117187zm0 0"/><path d="m158.34375 76.042969-5.296875-3.058594v6.117187zm0 0"/><path d="m147.75 82.15625-5.292969-3.054688v6.113282zm0 0"/><path d="m137.160156 88.273438-5.296875-3.058594v6.117187zm0 0"/><path d="m131.863281 91.332031-5.296875-3.058593v6.113281zm0 0"/><path d="m126.566406 94.386719-5.292968-3.054688v6.113281zm0 0"/><path d="m115.976562 100.503906-5.296874-3.058594v6.117188zm0 0"/><path d="m105.386719 106.617188-5.296875-3.054688v6.113281zm0 0"/><path d="m84.203125 155.539062-5.296875-3.058593v6.117187zm0 0"/><path d="m84.203125 161.65625-5.296875-3.058594v6.113282zm0 0"/><path d="m84.203125 173.886719-5.296875-3.058594v6.113281zm0 0"/><path d="m84.203125 180-5.296875-3.058594v6.117188zm0 0"/><path d="m84.203125 186.113281-5.296875-3.054687v6.113281zm0 0"/><path d="m84.203125 198.34375-5.296875-3.054688v6.113282zm0 0"/><path d="m84.203125 204.460938-5.296875-3.058594v6.117187zm0 0"/><path d="m105.386719 253.382812-5.296875-3.058593v6.113281zm0 0"/><path d="m115.976562 259.496094-5.296874-3.058594v6.117188zm0 0"/><path d="m126.566406 265.613281-5.292968-3.058593v6.113281zm0 0"/><path d="m131.863281 268.667969-5.296875-3.054688v6.113281zm0 0"/><path d="m137.160156 271.726562-5.296875-3.058593v6.117187zm0 0"/><path d="m147.75 277.84375-5.292969-3.058594v6.113282zm0 0"/><path d="m158.34375 283.957031-5.296875-3.058593v6.117187zm0 0"/><path d="m211.300781 283.957031-5.292969-3.058593v6.117187zm0 0"/><path d="m216.597656 280.898438-5.296875-3.054688v6.113281zm0 0"/><path d="m227.191406 274.785156-5.296875-3.058594v6.117188zm0 0"/><path d="m232.484375 271.726562-5.292969-3.058593v6.117187zm0 0"/><path d="m237.78125 268.667969-5.296875-3.054688v6.113281zm0 0"/><path d="m243.078125 265.613281-5.296875-3.058593v6.113281zm0 0"/><path d="m253.667969 259.496094-5.292969-3.058594v6.117188zm0 0"/><path d="m258.964844 256.4375-5.296875-3.054688v6.113282zm0 0"/><path d="m296.035156 192.230469-5.292968-3.058594v6.117187zm0 0"/><path d="m296.035156 167.769531-5.292968-3.058593v6.117187zm0 0"/><path d="m253.667969 94.386719-5.292969-3.054688v6.113281zm0 0"/><path d="m248.375 91.332031-5.296875-3.058593v6.113281zm0 0"/><path d="m243.078125 88.273438-5.296875-3.058594v6.117187zm0 0"/><path d="m232.484375 82.15625-5.292969-3.054688v6.113282zm0 0"/><path d="m227.191406 79.101562-5.296875-3.058593v6.113281zm0 0"/><path d="m221.894531 76.042969-5.296875-3.058594v6.117187zm0 0"/><path d="m142.457031 79.101562-5.296875-3.058593v6.113281zm0 0"/><path d="m137.160156 82.15625-5.296875-3.054688v6.113282zm0 0"/><path d="m121.273438 91.332031-5.296876-3.058593v6.113281zm0 0"/><path d="m115.976562 94.386719-5.296874-3.054688v6.113281zm0 0"/><path d="m78.90625 152.480469-5.296875-3.054688v6.113281zm0 0"/><path d="m78.90625 158.597656-5.296875-3.058594v6.117188zm0 0"/><path d="m78.90625 170.828125-5.296875-3.058594v6.117188zm0 0"/><path d="m78.90625 176.941406-5.296875-3.054687v6.113281zm0 0"/><path d="m78.90625 183.058594-5.296875-3.058594v6.113281zm0 0"/><path d="m78.90625 189.171875-5.296875-3.058594v6.117188zm0 0"/><path d="m78.90625 201.402344-5.296875-3.058594v6.117188zm0 0"/><path d="m78.90625 207.519531-5.296875-3.058593v6.113281zm0 0"/><path d="m115.976562 265.613281-5.296874-3.058593v6.113281zm0 0"/><path d="m121.273438 268.667969-5.296876-3.054688v6.113281zm0 0"/><path d="m137.160156 277.84375-5.296875-3.058594v6.113282zm0 0"/><path d="m142.457031 280.898438-5.296875-3.054688v6.113281zm0 0"/><path d="m221.894531 283.957031-5.296875-3.058593v6.117187zm0 0"/><path d="m227.191406 280.898438-5.296875-3.054688v6.113281zm0 0"/><path d="m232.484375 277.84375-5.292969-3.058594v6.113282zm0 0"/><path d="m243.078125 271.726562-5.296875-3.058593v6.117187zm0 0"/><path d="m248.375 268.667969-5.296875-3.054688v6.113281zm0 0"/><path d="m253.667969 265.613281-5.292969-3.058593v6.113281zm0 0"/><path d="m301.332031 195.289062-5.296875-3.058593v6.113281zm0 0"/><path d="m301.332031 183.058594-5.296875-3.058594v6.113281zm0 0"/><path d="m301.332031 176.941406-5.296875-3.054687v6.113281zm0 0"/><path d="m301.332031 164.710938-5.296875-3.054688v6.113281zm0 0"/><path d="m258.964844 91.332031-5.296875-3.058593v6.113281zm0 0"/><path d="m221.894531 69.925781-5.296875-3.054687v6.113281zm0 0"/><path d="m137.160156 76.042969-5.296875-3.058594v6.117187zm0 0"/><path d="m115.976562 88.273438-5.296874-3.058594v6.117187zm0 0"/><path d="m73.609375 161.65625-5.296875-3.058594v6.113282zm0 0"/><path d="m73.609375 167.769531-5.296875-3.058593v6.117187zm0 0"/><path d="m73.609375 173.886719-5.296875-3.058594v6.113281zm0 0"/><path d="m73.609375 186.113281-5.296875-3.054687v6.113281zm0 0"/><path d="m73.609375 192.230469-5.296875-3.058594v6.117187zm0 0"/><path d="m73.609375 198.34375-5.296875-3.054688v6.113282zm0 0"/><path d="m115.976562 271.726562-5.296874-3.058593v6.117187zm0 0"/><path d="m137.160156 283.957031-5.296875-3.058593v6.117187zm0 0"/><path d="m221.894531 290.074219-5.296875-3.058594v6.113281zm0 0"/><path d="m258.964844 268.667969-5.296875-3.054688v6.113281zm0 0"/><path d="m137.160156 69.925781-5.296875-3.054687v6.113281zm0 0"/><path d="m126.566406 76.042969-5.292968-3.058594v6.117187zm0 0"/><path d="m121.273438 79.101562-5.296876-3.058593v6.113281zm0 0"/><path d="m110.679688 85.214844-5.292969-3.058594v6.117188zm0 0"/><path d="m68.3125 158.597656-5.292969-3.058594v6.117188zm0 0"/><path d="m68.3125 201.402344-5.292969-3.058594v6.117188zm0 0"/><path d="m110.679688 274.785156-5.292969-3.058594v6.117188zm0 0"/><path d="m121.273438 280.898438-5.296876-3.054688v6.113281zm0 0"/><path d="m126.566406 283.957031-5.292968-3.058593v6.117187zm0 0"/><path d="m137.160156 290.074219-5.296875-3.058594v6.113281zm0 0"/><path d="m248.375 72.984375-5.296875-3.058594v6.117188zm0 0"/><path d="m243.078125 69.925781-5.296875-3.054687v6.113281zm0 0"/><path d="m243.078125 290.074219-5.296875-3.058594v6.113281zm0 0"/><path d="m248.375 287.015625-5.296875-3.058594v6.117188zm0 0"/><path d="m57.722656 176.941406-5.296875-3.054687v6.113281zm0 0"/><path d="m57.722656 183.058594-5.296875-3.058594v6.113281zm0 0"/></g></svg>