<svg height="360pt" viewBox="0 0 360 360" width="360pt" xmlns="http://www.w3.org/2000/svg"><path d="m0 0h360v360h-360z" fill="#fff"/><g fill="#800080" fill-rule="evenodd"><path d="m222.699219 204.800781 2.863281-1.652343v3.304687zm0 0"/><path d="m222.699219 201.492188 2.863281-1.652344v3.308594zm0 0"/><path d="m222.699219 198.1875 2.863281-1.652344v3.304688zm0 0"/><path d="m222.699219 194.878906 2.863281-1.652344v3.308594zm0 0"/><path d="m222.699219 191.574219 2.863281-1.652344v3.304687zm0 0"/><path d="m222.699219 188.265625 2.863281-1.652344v3.308594zm0 0"/><path d="m222.699219 184.960938 2.863281-1.652344v3.304687zm0 0"/><path d="m222.699219 181.652344 2.863281-1.652344v3.308594zm0 0"/><path d="m222.699219 178.347656 2.863281-1.65625v3.308594zm0 0"/><path d="m222.699219 175.039062 2.863281-1.652343v3.304687zm0 0"/><path d="m222.699219 171.734375 2.863281-1.65625v3.308594zm0 0"/><path d="m222.699219 168.425781 2.863281-1.652343v3.304687zm0 0"/><path d="m222.699219 165.121094 2.863281-1.65625v3.308594zm0 0"/><path d="m222.699219 161.8125 2.863281-1.652344v3.304688zm0 0"/><path d="m222.699219 158.507812 2.863281-1.65625v3.308594zm0 0"/><path d="m222.699219 155.199219 2.863281-1.652344v3.304687zm0 0"/><path d="m225.5625 206.453125 2.863281-1.652344v3.304688zm0 0"/><path d="m225.5625 203.148438 2.863281-1.65625v3.308593zm0 0"/><path d="m225.5625 199.839844 2.863281-1.652344v3.304688zm0 0"/><path d="m225.5625 196.535156 2.863281-1.65625v3.308594zm0 0"/><path d="m225.5625 193.226562 2.863281-1.652343v3.304687zm0 0"/><path d="m225.5625 189.921875 2.863281-1.65625v3.308594zm0 0"/><path d="m225.5625 186.613281 2.863281-1.652343v3.304687zm0 0"/><path d="m225.5625 183.308594 2.863281-1.65625v3.308594zm0 0"/><path d="m225.5625 180 2.863281-1.652344v3.304688zm0 0"/><path d="m225.5625 176.691406 2.863281-1.652344v3.308594zm0 0"/><path d="m225.5625 173.386719 2.863281-1.652344v3.304687zm0 0"/><path d="m225.5625 170.078125 2.863281-1.652344v3.308594zm0 0"/><path d="m225.5625 166.773438 2.863281-1.652344v3.304687zm0 0"/><path d="m225.5625 163.464844 2.863281-1.652344v3.308594zm0 0"/><path d="m225.5625 160.160156 2.863281-1.652344v3.304688zm0 0"/><path d="m225.5625 156.851562 2.863281-1.652343v3.308593zm0 0"/><path d="m225.5625 153.546875 2.863281-1.652344v3.304688zm0 0"/><path d="m176.878906 128.746094 2.867188-1.652344v3.304688zm0 0"/><path d="m174.015625 130.398438 2.863281-1.652344v3.304687zm0 0"/><path d="m171.152344 132.050781 2.863281-1.652343v3.308593zm0 0"/><path d="m168.289062 133.707031 2.863282-1.65625v3.308594zm0 0"/><path d="m165.425781 135.359375 2.863281-1.652344v3.304688zm0 0"/><path d="m162.5625 137.011719 2.863281-1.652344v3.304687zm0 0"/><path d="m159.699219 138.664062 2.863281-1.652343v3.308593zm0 0"/><path d="m156.835938 140.320312 2.863281-1.65625v3.308594zm0 0"/><path d="m153.96875 141.972656 2.867188-1.652344v3.304688zm0 0"/><path d="m151.105469 143.625 2.863281-1.652344v3.304688zm0 0"/><path d="m148.242188 145.277344 2.863281-1.652344v3.308594zm0 0"/><path d="m145.378906 146.933594 2.863282-1.65625v3.308594zm0 0"/><path d="m142.515625 148.585938 2.863281-1.652344v3.304687zm0 0"/><path d="m139.652344 150.238281 2.863281-1.652343v3.308593zm0 0"/><path d="m136.789062 151.894531 2.863282-1.65625v3.308594zm0 0"/><path d="m133.925781 153.546875 2.863281-1.652344v3.304688zm0 0"/><path d="m133.925781 206.453125 2.863281-1.652344v3.304688zm0 0"/><path d="m136.789062 208.105469 2.863282-1.652344v3.308594zm0 0"/><path d="m139.652344 209.761719 2.863281-1.65625v3.308593zm0 0"/><path d="m142.515625 211.414062 2.863281-1.652343v3.304687zm0 0"/><path d="m145.378906 213.066406 2.863282-1.652344v3.308594zm0 0"/><path d="m148.242188 214.722656 2.863281-1.65625v3.308594zm0 0"/><path d="m151.105469 216.375 2.863281-1.652344v3.304688zm0 0"/><path d="m153.96875 218.027344 2.867188-1.652344v3.304688zm0 0"/><path d="m156.835938 219.679688 2.863281-1.652344v3.308594zm0 0"/><path d="m159.699219 221.335938 2.863281-1.65625v3.308593zm0 0"/><path d="m162.5625 222.988281 2.863281-1.652343v3.304687zm0 0"/><path d="m165.425781 224.640625 2.863281-1.652344v3.304688zm0 0"/><path d="m168.289062 226.292969 2.863282-1.652344v3.308594zm0 0"/><path d="m171.152344 227.949219 2.863281-1.65625v3.308593zm0 0"/><path d="m174.015625 229.601562 2.863281-1.652343v3.304687zm0 0"/><path d="m176.878906 231.253906 2.867188-1.652344v3.304688zm0 0"/><path d="m176.878906 125.4375 2.867188-1.652344v3.308594zm0 0"/><path d="m174.015625 127.09375 2.863281-1.65625v3.308594zm0 0"/><path d="m171.152344 128.746094 2.863281-1.652344v3.304688zm0 0"/><path d="m168.289062 130.398438 2.863282-1.652344v3.304687zm0 0"/><path d="m165.425781 132.050781 2.863281-1.652343v3.308593zm0 0"/><path d="m162.5625 133.707031 2.863281-1.65625v3.308594zm0 0"/><path d="m159.699219 135.359375 2.863281-1.652344v3.304688zm0 0"/><path d="m156.835938 137.011719 2.863281-1.652344v3.304687zm0 0"/><path d="m153.96875 138.664062 2.867188-1.652343v3.308593zm0 0"/><path d="m151.105469 140.320312 2.863281-1.65625v3.308594zm0 0"/><path d="m148.242188 141.972656 2.863281-1.652344v3.304688zm0 0"/><path d="m145.378906 143.625 2.863282-1.652344v3.304688zm0 0"/><path d="m142.515625 145.277344 2.863281-1.652344v3.308594zm0 0"/><path d="m139.652344 146.933594 2.863281-1.65625v3.308594zm0 0"/><path d="m136.789062 148.585938 2.863282-1.652344v3.304687zm0 0"/><path d="m133.925781 150.238281 2.863281-1.652343v3.308593zm0 0"/><path d="m131.0625 151.894531 2.863281-1.65625v3.308594zm0 0"/><path d="m131.0625 208.105469 2.863281-1.652344v3.308594zm0 0"/><path d="m133.925781 209.761719 2.863281-1.65625v3.308593zm0 0"/><path d="m136.789062 211.414062 2.863282-1.652343v3.304687zm0 0"/><path d="m139.652344 213.066406 2.863281-1.652344v3.308594zm0 0"/><path d="m142.515625 214.722656 2.863281-1.65625v3.308594zm0 0"/><path d="m145.378906 216.375 2.863282-1.652344v3.304688zm0 0"/><path d="m148.242188 218.027344 2.863281-1.652344v3.304688zm0 0"/><path d="m151.105469 219.679688 2.863281-1.652344v3.308594zm0 0"/><path d="m153.96875 221.335938 2.867188-1.65625v3.308593zm0 0"/><path d="m156.835938 222.988281 2.863281-1.652343v3.304687zm0 0"/><path d="m159.699219 224.640625 2.863281-1.652344v3.304688zm0 0"/><path d="m162.5625 226.292969 2.863281-1.652344v3.308594zm0 0"/><path d="m165.425781 227.949219 2.863281-1.65625v3.308593zm0 0"/><path d="m168.289062 229.601562 2.863282-1.652343v3.304687zm0 0"/><path d="m171.152344 231.253906 2.863281-1.652344v3.304688zm0 0"/><path d="m174.015625 232.90625 2.863281-1.652344v3.308594zm0 0"/><path d="m176.878906 234.5625 2.867188-1.65625v3.308594zm0 0"/><path d="m314.339844 257.707031 2.863281-1.652343v3.308593zm0 0"/><path d="m314.339844 254.402344 2.863281-1.652344v3.304688zm0 0"/><path d="m314.339844 251.09375 2.863281-1.652344v3.308594zm0 0"/><path d="m314.339844 247.789062 2.863281-1.652343v3.304687zm0 0"/><path d="m314.339844 244.480469 2.863281-1.652344v3.308594zm0 0"/><path d="m314.339844 241.175781 2.863281-1.652343v3.304687zm0 0"/><path d="m314.339844 237.867188 2.863281-1.652344v3.308594zm0 0"/><path d="m314.339844 234.5625 2.863281-1.65625v3.308594zm0 0"/><path d="m314.339844 231.253906 2.863281-1.652344v3.304688zm0 0"/><path d="m314.339844 227.949219 2.863281-1.65625v3.308593zm0 0"/><path d="m314.339844 224.640625 2.863281-1.652344v3.304688zm0 0"/><path d="m314.339844 221.335938 2.863281-1.65625v3.308593zm0 0"/><path d="m314.339844 218.027344 2.863281-1.652344v3.304688zm0 0"/><path d="m314.339844 214.722656 2.863281-1.65625v3.308594zm0 0"/><path d="m314.339844 211.414062 2.863281-1.652343v3.304687zm0 0"/><path d="m314.339844 208.105469 2.863281-1.652344v3.308594zm0 0"/><path d="m314.339844 204.800781 2.863281-1.652343v3.304687zm0 0"/><path d="m314.339844 201.492188 2.863281-1.652344v3.308594zm0 0"/><path d="m314.339844 198.1875 2.863281-1.652344v3.304688zm0 0"/><path d="m314.339844 194.878906 2.863281-1.652344v3.308594zm0 0"/><path d="m314.339844 191.574219 2.863281-1.652344v3.304687zm0 0"/><path d="m314.339844 188.265625 2.863281-1.652344v3.308594zm0 0"/><path d="m314.339844 184.960938 2.863281-1.652344v3.304687zm0 0"/><path d="m314.339844 181.652344 2.863281-1.652344v3.308594zm0 0"/><path d="m314.339844 178.347656 2.863281-1.65625v3.308594zm0 0"/><path d="m314.339844 175.039062 2.863281-1.652343v3.304687zm0 0"/><path d="m314.339844 171.734375 2.863281-1.65625v3.308594zm0 0"/><path d="m314.339844 168.425781 2.863281-1.652343v3.304687zm0 0"/><path d="m314.339844 165.121094 2.863281-1.65625v3.308594zm0 0"/><path d="m314.339844 161.8125 2.863281-1.652344v3.304688zm0 0"/><path d="m314.339844 158.507812 2.863281-1.65625v3.308594zm0 0"/><path d="m314.339844 155.199219 2.863281-1.652344v3.304687zm0 0"/><path d="m314.339844 151.894531 2.863281-1.65625v3.308594zm0 0"/><path d="m314.339844 148.585938 2.863281-1.652344v3.304687zm0 0"/><path d="m314.339844 145.277344 2.863281-1.652344v3.308594zm0 0"/><path d="m314.339844 141.972656 2.863281-1.652344v3.304688zm0 0"/><path d="m314.339844 138.664062 2.863281-1.652343v3.308593zm0 0"/><path d="m314.339844 135.359375 2.863281-1.652344v3.304688zm0 0"/><path d="m314.339844 132.050781 2.863281-1.652343v3.308593zm0 0"/><path d="m314.339844 128.746094 2.863281-1.652344v3.304688zm0 0"/><path d="m314.339844 125.4375 2.863281-1.652344v3.308594zm0 0"/><path d="m314.339844 122.132812 2.863281-1.65625v3.308594zm0 0"/><path d="m314.339844 118.824219 2.863281-1.652344v3.304687zm0 0"/><path d="m314.339844 115.519531 2.863281-1.65625v3.308594zm0 0"/><path d="m314.339844 112.210938 2.863281-1.652344v3.304687zm0 0"/><path d="m314.339844 108.90625 2.863281-1.65625v3.308594zm0 0"/><path d="m314.339844 105.597656 2.863281-1.652344v3.304688zm0 0"/><path d="m314.339844 102.292969 2.863281-1.65625v3.308593zm0 0"/><path d="m317.203125 259.363281 2.863281-1.65625v3.308594zm0 0"/><path d="m317.203125 256.054688 2.863281-1.652344v3.304687zm0 0"/><path d="m317.203125 252.75 2.863281-1.65625v3.308594zm0 0"/><path d="m317.203125 249.441406 2.863281-1.652344v3.304688zm0 0"/><path d="m317.203125 246.136719 2.863281-1.65625v3.308593zm0 0"/><path d="m317.203125 242.828125 2.863281-1.652344v3.304688zm0 0"/><path d="m317.203125 239.523438 2.863281-1.65625v3.308593zm0 0"/><path d="m317.203125 236.214844 2.863281-1.652344v3.304688zm0 0"/><path d="m317.203125 232.90625 2.863281-1.652344v3.308594zm0 0"/><path d="m317.203125 229.601562 2.863281-1.652343v3.304687zm0 0"/><path d="m317.203125 226.292969 2.863281-1.652344v3.308594zm0 0"/><path d="m317.203125 222.988281 2.863281-1.652343v3.304687zm0 0"/><path d="m317.203125 219.679688 2.863281-1.652344v3.308594zm0 0"/><path d="m317.203125 216.375 2.863281-1.652344v3.304688zm0 0"/><path d="m317.203125 213.066406 2.863281-1.652344v3.308594zm0 0"/><path d="m317.203125 209.761719 2.863281-1.65625v3.308593zm0 0"/><path d="m317.203125 206.453125 2.863281-1.652344v3.304688zm0 0"/><path d="m317.203125 203.148438 2.863281-1.65625v3.308593zm0 0"/><path d="m317.203125 199.839844 2.863281-1.652344v3.304688zm0 0"/><path d="m317.203125 196.535156 2.863281-1.65625v3.308594zm0 0"/><path d="m317.203125 193.226562 2.863281-1.652343v3.304687zm0 0"/><path d="m317.203125 189.921875 2.863281-1.65625v3.308594zm0 0"/><path d="m317.203125 186.613281 2.863281-1.652343v3.304687zm0 0"/><path d="m317.203125 183.308594 2.863281-1.65625v3.308594zm0 0"/><path d="m317.203125 180 2.863281-1.652344v3.304688zm0 0"/><path d="m317.203125 176.691406 2.863281-1.652344v3.308594zm0 0"/><path d="m317.203125 173.386719 2.863281-1.652344v3.304687zm0 0"/><path d="m317.203125 170.078125 2.863281-1.652344v3.308594zm0 0"/><path d="m317.203125 166.773438 2.863281-1.652344v3.304687zm0 0"/><path d="m317.203125 163.464844 2.863281-1.652344v3.308594zm0 0"/><path d="m317.203125 160.160156 2.863281-1.652344v3.304688zm0 0"/><path d="m317.203125 156.851562 2.863281-1.652343v3.308593zm0 0"/><path d="m317.203125 153.546875 2.863281-1.652344v3.304688zm0 0"/><path d="m317.203125 150.238281 2.863281-1.652343v3.308593zm0 0"/><path d="m317.203125 146.933594 2.863281-1.65625v3.308594zm0 0"/><path d="m317.203125 143.625 2.863281-1.652344v3.304688zm0 0"/><path d="m317.203125 140.320312 2.863281-1.65625v3.308594zm0 0"/><path d="m317.203125 137.011719 2.863281-1.652344v3.304687zm0 0"/><path d="m317.203125 133.707031 2.863281-1.65625v3.308594zm0 0"/><path d="m317.203125 130.398438 2.863281-1.652344v3.304687zm0 0"/><path d="m317.203125 127.09375 2.863281-1.65625v3.308594zm0 0"/><path d="m317.203125 123.785156 2.863281-1.652344v3.304688zm0 0"/><path d="m317.203125 120.476562 2.863281-1.652343v3.308593zm0 0"/><path d="m317.203125 117.171875 2.863281-1.652344v3.304688zm0 0"/><path d="m317.203125 113.863281 2.863281-1.652343v3.308593zm0 0"/><path d="m317.203125 110.558594 2.863281-1.652344v3.304688zm0 0"/><path d="m317.203125 107.25 2.863281-1.652344v3.308594zm0 0"/><path d="m317.203125 103.945312 2.863281-1.652343v3.304687zm0 0"/><path d="m317.203125 100.636719 2.863281-1.652344v3.308594zm0 0"/><path d="m176.878906 22.929688 2.867188-1.652344v3.304687zm0 0"/><path d="m174.015625 24.582031 2.863281-1.652343v3.304687zm0 0"/><path d="m171.152344 26.234375 2.863281-1.652344v3.308594zm0 0"/><path d="m168.289062 27.890625 2.863282-1.65625v3.308594zm0 0"/><path d="m165.425781 29.542969 2.863281-1.652344v3.304687zm0 0"/><path d="m162.5625 31.195312 2.863281-1.652343v3.304687zm0 0"/><path d="m159.699219 32.847656 2.863281-1.652344v3.308594zm0 0"/><path d="m156.835938 34.503906 2.863281-1.65625v3.308594zm0 0"/><path d="m153.96875 36.15625 2.867188-1.652344v3.304688zm0 0"/><path d="m151.105469 37.808594 2.863281-1.652344v3.308594zm0 0"/><path d="m148.242188 39.464844 2.863281-1.65625v3.308594zm0 0"/><path d="m145.378906 41.117188 2.863282-1.652344v3.304687zm0 0"/><path d="m142.515625 42.769531 2.863281-1.652343v3.304687zm0 0"/><path d="m139.652344 44.421875 2.863281-1.652344v3.308594zm0 0"/><path d="m136.789062 46.078125 2.863282-1.65625v3.308594zm0 0"/><path d="m133.925781 47.730469 2.863281-1.652344v3.304687zm0 0"/><path d="m131.0625 49.382812 2.863281-1.652343v3.304687zm0 0"/><path d="m128.195312 51.035156 2.867188-1.652344v3.308594zm0 0"/><path d="m125.332031 52.691406 2.863281-1.65625v3.308594zm0 0"/><path d="m122.46875 54.34375 2.863281-1.652344v3.304688zm0 0"/><path d="m119.605469 55.996094 2.863281-1.652344v3.304688zm0 0"/><path d="m116.742188 57.648438 2.863281-1.652344v3.308594zm0 0"/><path d="m113.878906 59.304688 2.863282-1.65625v3.308593zm0 0"/><path d="m111.015625 60.957031 2.863281-1.652343v3.304687zm0 0"/><path d="m108.152344 62.609375 2.863281-1.652344v3.304688zm0 0"/><path d="m105.289062 64.261719 2.863282-1.652344v3.308594zm0 0"/><path d="m102.421875 65.917969 2.867187-1.65625v3.308593zm0 0"/><path d="m99.558594 67.570312 2.863281-1.652343v3.304687zm0 0"/><path d="m96.695312 69.222656 2.863282-1.652344v3.308594zm0 0"/><path d="m93.832031 70.878906 2.863281-1.65625v3.308594zm0 0"/><path d="m90.96875 72.53125 2.863281-1.652344v3.304688zm0 0"/><path d="m88.105469 74.183594 2.863281-1.652344v3.304688zm0 0"/><path d="m85.242188 75.835938 2.863281-1.652344v3.308594zm0 0"/><path d="m82.378906 77.492188 2.863282-1.65625v3.308593zm0 0"/><path d="m79.511719 79.144531 2.867187-1.652343v3.304687zm0 0"/><path d="m76.648438 80.796875 2.863281-1.652344v3.304688zm0 0"/><path d="m73.785156 82.449219 2.863282-1.652344v3.308594zm0 0"/><path d="m70.921875 84.105469 2.863281-1.65625v3.308593zm0 0"/><path d="m68.058594 85.757812 2.863281-1.652343v3.304687zm0 0"/><path d="m65.195312 87.410156 2.863282-1.652344v3.304688zm0 0"/><path d="m62.332031 89.0625 2.863281-1.652344v3.308594zm0 0"/><path d="m59.46875 90.71875 2.863281-1.65625v3.308594zm0 0"/><path d="m56.605469 92.371094 2.863281-1.652344v3.304688zm0 0"/><path d="m53.738281 94.023438 2.867188-1.652344v3.308594zm0 0"/><path d="m50.875 95.679688 2.863281-1.65625v3.308593zm0 0"/><path d="m48.011719 97.332031 2.863281-1.652343v3.304687zm0 0"/><path d="m45.148438 98.984375 2.863281-1.652344v3.304688zm0 0"/><path d="m42.285156 100.636719 2.863282-1.652344v3.308594zm0 0"/><path d="m42.285156 259.363281 2.863282-1.65625v3.308594zm0 0"/><path d="m45.148438 261.015625 2.863281-1.652344v3.304688zm0 0"/><path d="m48.011719 262.667969 2.863281-1.652344v3.304687zm0 0"/><path d="m50.875 264.320312 2.863281-1.652343v3.308593zm0 0"/><path d="m53.738281 265.976562 2.867188-1.65625v3.308594zm0 0"/><path d="m56.605469 267.628906 2.863281-1.652344v3.304688zm0 0"/><path d="m59.46875 269.28125 2.863281-1.652344v3.308594zm0 0"/><path d="m62.332031 270.9375 2.863281-1.65625v3.308594zm0 0"/><path d="m65.195312 272.589844 2.863282-1.652344v3.304688zm0 0"/><path d="m68.058594 274.242188 2.863281-1.652344v3.304687zm0 0"/><path d="m70.921875 275.894531 2.863281-1.652343v3.308593zm0 0"/><path d="m73.785156 277.550781 2.863282-1.65625v3.308594zm0 0"/><path d="m76.648438 279.203125 2.863281-1.652344v3.304688zm0 0"/><path d="m79.511719 280.855469 2.867187-1.652344v3.304687zm0 0"/><path d="m82.378906 282.507812 2.863282-1.652343v3.308593zm0 0"/><path d="m85.242188 284.164062 2.863281-1.65625v3.308594zm0 0"/><path d="m88.105469 285.816406 2.863281-1.652344v3.304688zm0 0"/><path d="m90.96875 287.46875 2.863281-1.652344v3.304688zm0 0"/><path d="m93.832031 289.121094 2.863281-1.652344v3.308594zm0 0"/><path d="m96.695312 290.777344 2.863282-1.65625v3.308594zm0 0"/><path d="m99.558594 292.429688 2.863281-1.652344v3.304687zm0 0"/><path d="m102.421875 294.082031 2.867187-1.652343v3.308593zm0 0"/><path d="m105.289062 295.738281 2.863282-1.65625v3.308594zm0 0"/><path d="m108.152344 297.390625 2.863281-1.652344v3.304688zm0 0"/><path d="m111.015625 299.042969 2.863281-1.652344v3.304687zm0 0"/><path d="m113.878906 300.695312 2.863282-1.652343v3.308593zm0 0"/><path d="m116.742188 302.351562 2.863281-1.65625v3.308594zm0 0"/><path d="m119.605469 304.003906 2.863281-1.652344v3.304688zm0 0"/><path d="m122.46875 305.65625 2.863281-1.652344v3.304688zm0 0"/><path d="m125.332031 307.308594 2.863281-1.652344v3.308594zm0 0"/><path d="m128.195312 308.964844 2.867188-1.65625v3.308594zm0 0"/><path d="m131.0625 310.617188 2.863281-1.652344v3.304687zm0 0"/><path d="m133.925781 312.269531 2.863281-1.652343v3.304687zm0 0"/><path d="m136.789062 313.921875 2.863282-1.652344v3.308594zm0 0"/><path d="m139.652344 315.578125 2.863281-1.65625v3.308594zm0 0"/><path d="m142.515625 317.230469 2.863281-1.652344v3.304687zm0 0"/><path d="m145.378906 318.882812 2.863282-1.652343v3.304687zm0 0"/><path d="m148.242188 320.535156 2.863281-1.652344v3.308594zm0 0"/><path d="m151.105469 322.191406 2.863281-1.65625v3.308594zm0 0"/><path d="m153.96875 323.84375 2.867188-1.652344v3.304688zm0 0"/><path d="m156.835938 325.496094 2.863281-1.652344v3.308594zm0 0"/><path d="m159.699219 327.152344 2.863281-1.65625v3.308594zm0 0"/><path d="m162.5625 328.804688 2.863281-1.652344v3.304687zm0 0"/><path d="m165.425781 330.457031 2.863281-1.652343v3.304687zm0 0"/><path d="m168.289062 332.109375 2.863282-1.652344v3.308594zm0 0"/><path d="m171.152344 333.765625 2.863281-1.65625v3.308594zm0 0"/><path d="m174.015625 335.417969 2.863281-1.652344v3.304687zm0 0"/><path d="m176.878906 337.070312 2.867188-1.652343v3.304687zm0 0"/><path d="m176.878906 19.621094 2.867188-1.652344v3.308594zm0 0"/><path d="m174.015625 21.277344 2.863281-1.65625v3.308594zm0 0"/><path d="m171.152344 22.929688 2.863281-1.652344v3.304687zm0 0"/><path d="m168.289062 24.582031 2.863282-1.652343v3.304687zm0 0"/><path d="m165.425781 26.234375 2.863281-1.652344v3.308594zm0 0"/><path d="m162.5625 27.890625 2.863281-1.65625v3.308594zm0 0"/><path d="m159.699219 29.542969 2.863281-1.652344v3.304687zm0 0"/><path d="m156.835938 31.195312 2.863281-1.652343v3.304687zm0 0"/><path d="m153.96875 32.847656 2.867188-1.652344v3.308594zm0 0"/><path d="m151.105469 34.503906 2.863281-1.65625v3.308594zm0 0"/><path d="m148.242188 36.15625 2.863281-1.652344v3.304688zm0 0"/><path d="m145.378906 37.808594 2.863282-1.652344v3.308594zm0 0"/><path d="m142.515625 39.464844 2.863281-1.65625v3.308594zm0 0"/><path d="m139.652344 41.117188 2.863281-1.652344v3.304687zm0 0"/><path d="m136.789062 42.769531 2.863282-1.652343v3.304687zm0 0"/><path d="m133.925781 44.421875 2.863281-1.652344v3.308594zm0 0"/><path d="m131.0625 46.078125 2.863281-1.65625v3.308594zm0 0"/><path d="m128.195312 47.730469 2.867188-1.652344v3.304687zm0 0"/><path d="m125.332031 49.382812 2.863281-1.652343v3.304687zm0 0"/><path d="m122.46875 51.035156 2.863281-1.652344v3.308594zm0 0"/><path d="m119.605469 52.691406 2.863281-1.65625v3.308594zm0 0"/><path d="m116.742188 54.34375 2.863281-1.652344v3.304688zm0 0"/><path d="m113.878906 55.996094 2.863282-1.652344v3.304688zm0 0"/><path d="m111.015625 57.648438 2.863281-1.652344v3.308594zm0 0"/><path d="m108.152344 59.304688 2.863281-1.65625v3.308593zm0 0"/><path d="m105.289062 60.957031 2.863282-1.652343v3.304687zm0 0"/><path d="m102.421875 62.609375 2.867187-1.652344v3.304688zm0 0"/><path d="m99.558594 64.261719 2.863281-1.652344v3.308594zm0 0"/><path d="m96.695312 65.917969 2.863282-1.65625v3.308593zm0 0"/><path d="m93.832031 67.570312 2.863281-1.652343v3.304687zm0 0"/><path d="m90.96875 69.222656 2.863281-1.652344v3.308594zm0 0"/><path d="m88.105469 70.878906 2.863281-1.65625v3.308594zm0 0"/><path d="m85.242188 72.53125 2.863281-1.652344v3.304688zm0 0"/><path d="m82.378906 74.183594 2.863282-1.652344v3.304688zm0 0"/><path d="m79.511719 75.835938 2.867187-1.652344v3.308594zm0 0"/><path d="m76.648438 77.492188 2.863281-1.65625v3.308593zm0 0"/><path d="m73.785156 79.144531 2.863282-1.652343v3.304687zm0 0"/><path d="m70.921875 80.796875 2.863281-1.652344v3.304688zm0 0"/><path d="m68.058594 82.449219 2.863281-1.652344v3.308594zm0 0"/><path d="m65.195312 84.105469 2.863282-1.65625v3.308593zm0 0"/><path d="m62.332031 85.757812 2.863281-1.652343v3.304687zm0 0"/><path d="m59.46875 87.410156 2.863281-1.652344v3.304688zm0 0"/><path d="m56.605469 89.0625 2.863281-1.652344v3.308594zm0 0"/><path d="m53.738281 90.71875 2.867188-1.65625v3.308594zm0 0"/><path d="m50.875 92.371094 2.863281-1.652344v3.304688zm0 0"/><path d="m48.011719 94.023438 2.863281-1.652344v3.308594zm0 0"/><path d="m45.148438 95.679688 2.863281-1.65625v3.308593zm0 0"/><path d="m42.285156 97.332031 2.863282-1.652343v3.304687zm0 0"/><path d="m39.421875 98.984375 2.863281-1.652344v3.304688zm0 0"/><path d="m39.421875 261.015625 2.863281-1.652344v3.304688zm0 0"/><path d="m42.285156 262.667969 2.863282-1.652344v3.304687zm0 0"/><path d="m45.148438 264.320312 2.863281-1.652343v3.308593zm0 0"/><path d="m48.011719 265.976562 2.863281-1.65625v3.308594zm0 0"/><path d="m50.875 267.628906 2.863281-1.652344v3.304688zm0 0"/><path d="m53.738281 269.28125 2.867188-1.652344v3.308594zm0 0"/><path d="m56.605469 270.9375 2.863281-1.65625v3.308594zm0 0"/><path d="m59.46875 272.589844 2.863281-1.652344v3.304688zm0 0"/><path d="m62.332031 274.242188 2.863281-1.652344v3.304687zm0 0"/><path d="m65.195312 275.894531 2.863282-1.652343v3.308593zm0 0"/><path d="m68.058594 277.550781 2.863281-1.65625v3.308594zm0 0"/><path d="m70.921875 279.203125 2.863281-1.652344v3.304688zm0 0"/><path d="m73.785156 280.855469 2.863282-1.652344v3.304687zm0 0"/><path d="m76.648438 282.507812 2.863281-1.652343v3.308593zm0 0"/><path d="m79.511719 284.164062 2.867187-1.65625v3.308594zm0 0"/><path d="m82.378906 285.816406 2.863282-1.652344v3.304688zm0 0"/><path d="m85.242188 287.46875 2.863281-1.652344v3.304688zm0 0"/><path d="m88.105469 289.121094 2.863281-1.652344v3.308594zm0 0"/><path d="m90.96875 290.777344 2.863281-1.65625v3.308594zm0 0"/><path d="m93.832031 292.429688 2.863281-1.652344v3.304687zm0 0"/><path d="m96.695312 294.082031 2.863282-1.652343v3.308593zm0 0"/><path d="m99.558594 295.738281 2.863281-1.65625v3.308594zm0 0"/><path d="m102.421875 297.390625 2.867187-1.652344v3.304688zm0 0"/><path d="m105.289062 299.042969 2.863282-1.652344v3.304687zm0 0"/><path d="m108.152344 300.695312 2.863281-1.652343v3.308593zm0 0"/><path d="m111.015625 302.351562 2.863281-1.65625v3.308594zm0 0"/><path d="m113.878906 304.003906 2.863282-1.652344v3.304688zm0 0"/><path d="m116.742188 305.65625 2.863281-1.652344v3.304688zm0 0"/><path d="m119.605469 307.308594 2.863281-1.652344v3.308594zm0 0"/><path d="m122.46875 308.964844 2.863281-1.65625v3.308594zm0 0"/><path d="m125.332031 310.617188 2.863281-1.652344v3.304687zm0 0"/><path d="m128.195312 312.269531 2.867188-1.652343v3.304687zm0 0"/><path d="m131.0625 313.921875 2.863281-1.652344v3.308594zm0 0"/><path d="m133.925781 315.578125 2.863281-1.65625v3.308594zm0 0"/><path d="m136.789062 317.230469 2.863282-1.652344v3.304687zm0 0"/><path d="m139.652344 318.882812 2.863281-1.652343v3.304687zm0 0"/><path d="m142.515625 320.535156 2.863281-1.652344v3.308594zm0 0"/><path d="m145.378906 322.191406 2.863282-1.65625v3.308594zm0 0"/><path d="m148.242188 323.84375 2.863281-1.652344v3.304688zm0 0"/><path d="m151.105469 325.496094 2.863281-1.652344v3.308594zm0 0"/><path d="m153.96875 327.152344 2.867188-1.65625v3.308594zm0 0"/><path d="m156.835938 328.804688 2.863281-1.652344v3.304687zm0 0"/><path d="m159.699219 330.457031 2.863281-1.652343v3.304687zm0 0"/><path d="m162.5625 332.109375 2.863281-1.652344v3.308594zm0 0"/><path d="m165.425781 333.765625 2.863281-1.65625v3.308594zm0 0"/><path d="m168.289062 335.417969 2.863282-1.652344v3.304687zm0 0"/><path d="m171.152344 337.070312 2.863281-1.652343v3.304687zm0 0"/><path d="m174.015625 338.722656 2.863281-1.652344v3.308594zm0 0"/><path d="m176.878906 340.378906 2.867188-1.65625v3.308594zm0 0"/><path d="m225.5625 153.546875-2.863281-1.652344v3.304688zm0 0"/><path d="m222.699219 151.894531-2.863281-1.65625v3.308594zm0 0"/><path d="m219.835938 150.238281-2.863282-1.652343v3.308593zm0 0"/><path d="m216.972656 148.585938-2.863281-1.652344v3.304687zm0 0"/><path d="m214.109375 146.933594-2.863281-1.65625v3.308594zm0 0"/><path d="m211.246094 145.277344-2.863282-1.652344v3.308594zm0 0"/><path d="m208.382812 143.625-2.863281-1.652344v3.304688zm0 0"/><path d="m205.519531 141.972656-2.867187-1.652344v3.304688zm0 0"/><path d="m202.652344 140.320312-2.863282-1.65625v3.308594zm0 0"/><path d="m199.789062 138.664062-2.863281-1.652343v3.308593zm0 0"/><path d="m196.925781 137.011719-2.863281-1.652344v3.304687zm0 0"/><path d="m194.0625 135.359375-2.863281-1.652344v3.304688zm0 0"/><path d="m191.199219 133.707031-2.863281-1.65625v3.308594zm0 0"/><path d="m188.335938 132.050781-2.863282-1.652343v3.308593zm0 0"/><path d="m185.472656 130.398438-2.863281-1.652344v3.304687zm0 0"/><path d="m182.609375 128.746094-2.863281-1.652344v3.304688zm0 0"/><path d="m182.609375 231.253906-2.863281-1.652344v3.304688zm0 0"/><path d="m185.472656 229.601562-2.863281-1.652343v3.304687zm0 0"/><path d="m188.335938 227.949219-2.863282-1.65625v3.308593zm0 0"/><path d="m191.199219 226.292969-2.863281-1.652344v3.308594zm0 0"/><path d="m194.0625 224.640625-2.863281-1.652344v3.304688zm0 0"/><path d="m196.925781 222.988281-2.863281-1.652343v3.304687zm0 0"/><path d="m199.789062 221.335938-2.863281-1.65625v3.308593zm0 0"/><path d="m202.652344 219.679688-2.863282-1.652344v3.308594zm0 0"/><path d="m205.519531 218.027344-2.867187-1.652344v3.304688zm0 0"/><path d="m208.382812 216.375-2.863281-1.652344v3.304688zm0 0"/><path d="m211.246094 214.722656-2.863282-1.65625v3.308594zm0 0"/><path d="m214.109375 213.066406-2.863281-1.652344v3.308594zm0 0"/><path d="m216.972656 211.414062-2.863281-1.652343v3.304687zm0 0"/><path d="m219.835938 209.761719-2.863282-1.65625v3.308593zm0 0"/><path d="m222.699219 208.105469-2.863281-1.652344v3.308594zm0 0"/><path d="m225.5625 206.453125-2.863281-1.652344v3.304688zm0 0"/><path d="m228.425781 151.894531-2.863281-1.65625v3.308594zm0 0"/><path d="m225.5625 150.238281-2.863281-1.652343v3.308593zm0 0"/><path d="m222.699219 148.585938-2.863281-1.652344v3.304687zm0 0"/><path d="m219.835938 146.933594-2.863282-1.65625v3.308594zm0 0"/><path d="m216.972656 145.277344-2.863281-1.652344v3.308594zm0 0"/><path d="m214.109375 143.625-2.863281-1.652344v3.304688zm0 0"/><path d="m211.246094 141.972656-2.863282-1.652344v3.304688zm0 0"/><path d="m208.382812 140.320312-2.863281-1.65625v3.308594zm0 0"/><path d="m205.519531 138.664062-2.867187-1.652343v3.308593zm0 0"/><path d="m202.652344 137.011719-2.863282-1.652344v3.304687zm0 0"/><path d="m199.789062 135.359375-2.863281-1.652344v3.304688zm0 0"/><path d="m196.925781 133.707031-2.863281-1.65625v3.308594zm0 0"/><path d="m194.0625 132.050781-2.863281-1.652343v3.308593zm0 0"/><path d="m191.199219 130.398438-2.863281-1.652344v3.304687zm0 0"/><path d="m188.335938 128.746094-2.863282-1.652344v3.304688zm0 0"/><path d="m185.472656 127.09375-2.863281-1.65625v3.308594zm0 0"/><path d="m182.609375 125.4375-2.863281-1.652344v3.308594zm0 0"/><path d="m136.789062 155.199219-2.863281-1.652344v3.304687zm0 0"/><path d="m136.789062 158.507812-2.863281-1.65625v3.308594zm0 0"/><path d="m136.789062 161.8125-2.863281-1.652344v3.304688zm0 0"/><path d="m136.789062 165.121094-2.863281-1.65625v3.308594zm0 0"/><path d="m136.789062 168.425781-2.863281-1.652343v3.304687zm0 0"/><path d="m136.789062 171.734375-2.863281-1.65625v3.308594zm0 0"/><path d="m136.789062 175.039062-2.863281-1.652343v3.304687zm0 0"/><path d="m136.789062 178.347656-2.863281-1.65625v3.308594zm0 0"/><path d="m136.789062 181.652344-2.863281-1.652344v3.308594zm0 0"/><path d="m136.789062 184.960938-2.863281-1.652344v3.304687zm0 0"/><path d="m136.789062 188.265625-2.863281-1.652344v3.308594zm0 0"/><path d="m136.789062 191.574219-2.863281-1.652344v3.304687zm0 0"/><path d="m136.789062 194.878906-2.863281-1.652344v3.308594zm0 0"/><path d="m136.789062 198.1875-2.863281-1.652344v3.304688zm0 0"/><path d="m136.789062 201.492188-2.863281-1.652344v3.308594zm0 0"/><path d="m136.789062 204.800781-2.863281-1.652343v3.304687zm0 0"/><path d="m182.609375 234.5625-2.863281-1.65625v3.308594zm0 0"/><path d="m185.472656 232.90625-2.863281-1.652344v3.308594zm0 0"/><path d="m188.335938 231.253906-2.863282-1.652344v3.304688zm0 0"/><path d="m191.199219 229.601562-2.863281-1.652343v3.304687zm0 0"/><path d="m194.0625 227.949219-2.863281-1.65625v3.308593zm0 0"/><path d="m196.925781 226.292969-2.863281-1.652344v3.308594zm0 0"/><path d="m199.789062 224.640625-2.863281-1.652344v3.304688zm0 0"/><path d="m202.652344 222.988281-2.863282-1.652343v3.304687zm0 0"/><path d="m205.519531 221.335938-2.867187-1.65625v3.308593zm0 0"/><path d="m208.382812 219.679688-2.863281-1.652344v3.308594zm0 0"/><path d="m211.246094 218.027344-2.863282-1.652344v3.304688zm0 0"/><path d="m214.109375 216.375-2.863281-1.652344v3.304688zm0 0"/><path d="m216.972656 214.722656-2.863281-1.65625v3.308594zm0 0"/><path d="m219.835938 213.066406-2.863282-1.652344v3.308594zm0 0"/><path d="m222.699219 211.414062-2.863281-1.652343v3.304687zm0 0"/><path d="m225.5625 209.761719-2.863281-1.65625v3.308593zm0 0"/><path d="m228.425781 208.105469-2.863281-1.652344v3.308594zm0 0"/><path d="m133.925781 153.546875-2.863281-1.652344v3.304688zm0 0"/><path d="m133.925781 156.851562-2.863281-1.652343v3.308593zm0 0"/><path d="m133.925781 160.160156-2.863281-1.652344v3.304688zm0 0"/><path d="m133.925781 163.464844-2.863281-1.652344v3.308594zm0 0"/><path d="m133.925781 166.773438-2.863281-1.652344v3.304687zm0 0"/><path d="m133.925781 170.078125-2.863281-1.652344v3.308594zm0 0"/><path d="m133.925781 173.386719-2.863281-1.652344v3.304687zm0 0"/><path d="m133.925781 176.691406-2.863281-1.652344v3.308594zm0 0"/><path d="m133.925781 180-2.863281-1.652344v3.304688zm0 0"/><path d="m133.925781 183.308594-2.863281-1.65625v3.308594zm0 0"/><path d="m133.925781 186.613281-2.863281-1.652343v3.304687zm0 0"/><path d="m133.925781 189.921875-2.863281-1.65625v3.308594zm0 0"/><path d="m133.925781 193.226562-2.863281-1.652343v3.304687zm0 0"/><path d="m133.925781 196.535156-2.863281-1.65625v3.308594zm0 0"/><path d="m133.925781 199.839844-2.863281-1.652344v3.304688zm0 0"/><path d="m133.925781 203.148438-2.863281-1.65625v3.308593zm0 0"/><path d="m133.925781 206.453125-2.863281-1.652344v3.304688zm0 0"/><path d="m317.203125 100.636719-2.863281-1.652344v3.308594zm0 0"/><path d="m314.339844 98.984375-2.863282-1.652344v3.304688zm0 0"/><path d="m311.476562 97.332031-2.863281-1.652343v3.304687zm0 0"/><path d="m308.613281 95.679688-2.863281-1.65625v3.308593zm0 0"/><path d="m305.75 94.023438-2.867188-1.652344v3.308594zm0 0"/><path d="m302.882812 92.371094-2.863281-1.652344v3.304688zm0 0"/><path d="m300.019531 90.71875-2.863281-1.65625v3.308594zm0 0"/><path d="m297.15625 89.0625-2.863281-1.652344v3.308594zm0 0"/><path d="m294.292969 87.410156-2.863281-1.652344v3.304688zm0 0"/><path d="m291.429688 85.757812-2.863282-1.652343v3.304687zm0 0"/><path d="m288.566406 84.105469-2.863281-1.65625v3.308593zm0 0"/><path d="m285.703125 82.449219-2.863281-1.652344v3.308594zm0 0"/><path d="m282.839844 80.796875-2.863282-1.652344v3.304688zm0 0"/><path d="m279.976562 79.144531-2.867187-1.652343v3.304687zm0 0"/><path d="m277.109375 77.492188-2.863281-1.65625v3.308593zm0 0"/><path d="m274.246094 75.835938-2.863282-1.652344v3.308594zm0 0"/><path d="m271.382812 74.183594-2.863281-1.652344v3.304688zm0 0"/><path d="m268.519531 72.53125-2.863281-1.652344v3.304688zm0 0"/><path d="m265.65625 70.878906-2.863281-1.65625v3.308594zm0 0"/><path d="m262.792969 69.222656-2.863281-1.652344v3.308594zm0 0"/><path d="m259.929688 67.570312-2.863282-1.652343v3.304687zm0 0"/><path d="m257.066406 65.917969-2.863281-1.65625v3.308593zm0 0"/><path d="m254.203125 64.261719-2.867187-1.652344v3.308594zm0 0"/><path d="m251.335938 62.609375-2.863282-1.652344v3.304688zm0 0"/><path d="m248.472656 60.957031-2.863281-1.652343v3.304687zm0 0"/><path d="m245.609375 59.304688-2.863281-1.65625v3.308593zm0 0"/><path d="m242.746094 57.648438-2.863282-1.652344v3.308594zm0 0"/><path d="m239.882812 55.996094-2.863281-1.652344v3.304688zm0 0"/><path d="m237.019531 54.34375-2.863281-1.652344v3.304688zm0 0"/><path d="m234.15625 52.691406-2.863281-1.65625v3.308594zm0 0"/><path d="m231.292969 51.035156-2.867188-1.652344v3.308594zm0 0"/><path d="m228.425781 49.382812-2.863281-1.652343v3.304687zm0 0"/><path d="m225.5625 47.730469-2.863281-1.652344v3.304687zm0 0"/><path d="m222.699219 46.078125-2.863281-1.65625v3.308594zm0 0"/><path d="m219.835938 44.421875-2.863282-1.652344v3.308594zm0 0"/><path d="m216.972656 42.769531-2.863281-1.652343v3.304687zm0 0"/><path d="m214.109375 41.117188-2.863281-1.652344v3.304687zm0 0"/><path d="m211.246094 39.464844-2.863282-1.65625v3.308594zm0 0"/><path d="m208.382812 37.808594-2.863281-1.652344v3.308594zm0 0"/><path d="m205.519531 36.15625-2.867187-1.652344v3.304688zm0 0"/><path d="m202.652344 34.503906-2.863282-1.65625v3.308594zm0 0"/><path d="m199.789062 32.847656-2.863281-1.652344v3.308594zm0 0"/><path d="m196.925781 31.195312-2.863281-1.652343v3.304687zm0 0"/><path d="m194.0625 29.542969-2.863281-1.652344v3.304687zm0 0"/><path d="m191.199219 27.890625-2.863281-1.65625v3.308594zm0 0"/><path d="m188.335938 26.234375-2.863282-1.652344v3.308594zm0 0"/><path d="m185.472656 24.582031-2.863281-1.652343v3.304687zm0 0"/><path d="m182.609375 22.929688-2.863281-1.652344v3.304687zm0 0"/><path d="m182.609375 337.070312-2.863281-1.652343v3.304687zm0 0"/><path d="m185.472656 335.417969-2.863281-1.652344v3.304687zm0 0"/><path d="m188.335938 333.765625-2.863282-1.65625v3.308594zm0 0"/><path d="m191.199219 332.109375-2.863281-1.652344v3.308594zm0 0"/><path d="m194.0625 330.457031-2.863281-1.652343v3.304687zm0 0"/><path d="m196.925781 328.804688-2.863281-1.652344v3.304687zm0 0"/><path d="m199.789062 327.152344-2.863281-1.65625v3.308594zm0 0"/><path d="m202.652344 325.496094-2.863282-1.652344v3.308594zm0 0"/><path d="m205.519531 323.84375-2.867187-1.652344v3.304688zm0 0"/><path d="m208.382812 322.191406-2.863281-1.65625v3.308594zm0 0"/><path d="m211.246094 320.535156-2.863282-1.652344v3.308594zm0 0"/><path d="m214.109375 318.882812-2.863281-1.652343v3.304687zm0 0"/><path d="m216.972656 317.230469-2.863281-1.652344v3.304687zm0 0"/><path d="m219.835938 315.578125-2.863282-1.65625v3.308594zm0 0"/><path d="m222.699219 313.921875-2.863281-1.652344v3.308594zm0 0"/><path d="m225.5625 312.269531-2.863281-1.652343v3.304687zm0 0"/><path d="m228.425781 310.617188-2.863281-1.652344v3.304687zm0 0"/><path d="m231.292969 308.964844-2.867188-1.65625v3.308594zm0 0"/><path d="m234.15625 307.308594-2.863281-1.652344v3.308594zm0 0"/><path d="m237.019531 305.65625-2.863281-1.652344v3.304688zm0 0"/><path d="m239.882812 304.003906-2.863281-1.652344v3.304688zm0 0"/><path d="m242.746094 302.351562-2.863282-1.65625v3.308594zm0 0"/><path d="m245.609375 300.695312-2.863281-1.652343v3.308593zm0 0"/><path d="m248.472656 299.042969-2.863281-1.652344v3.304687zm0 0"/><path d="m251.335938 297.390625-2.863282-1.652344v3.304688zm0 0"/><path d="m254.203125 295.738281-2.867187-1.65625v3.308594zm0 0"/><path d="m257.066406 294.082031-2.863281-1.652343v3.308593zm0 0"/><path d="m259.929688 292.429688-2.863282-1.652344v3.304687zm0 0"/><path d="m262.792969 290.777344-2.863281-1.65625v3.308594zm0 0"/><path d="m265.65625 289.121094-2.863281-1.652344v3.308594zm0 0"/><path d="m268.519531 287.46875-2.863281-1.652344v3.304688zm0 0"/><path d="m271.382812 285.816406-2.863281-1.652344v3.304688zm0 0"/><path d="m274.246094 284.164062-2.863282-1.65625v3.308594zm0 0"/><path d="m277.109375 282.507812-2.863281-1.652343v3.308593zm0 0"/><path d="m279.976562 280.855469-2.867187-1.652344v3.304687zm0 0"/><path d="m282.839844 279.203125-2.863282-1.652344v3.304688zm0 0"/><path d="m285.703125 277.550781-2.863281-1.65625v3.308594zm0 0"/><path d="m288.566406 275.894531-2.863281-1.652343v3.308593zm0 0"/><path d="m291.429688 274.242188-2.863282-1.652344v3.304687zm0 0"/><path d="m294.292969 272.589844-2.863281-1.652344v3.304688zm0 0"/><path d="m297.15625 270.9375-2.863281-1.65625v3.308594zm0 0"/><path d="m300.019531 269.28125-2.863281-1.652344v3.308594zm0 0"/><path d="m302.882812 267.628906-2.863281-1.652344v3.304688zm0 0"/><path d="m305.75 265.976562-2.867188-1.65625v3.308594zm0 0"/><path d="m308.613281 264.320312-2.863281-1.652343v3.308593zm0 0"/><path d="m311.476562 262.667969-2.863281-1.652344v3.304687zm0 0"/><path d="m314.339844 261.015625-2.863282-1.652344v3.304688zm0 0"/><path d="m317.203125 259.363281-2.863281-1.65625v3.308594zm0 0"/><path d="m320.066406 98.984375-2.863281-1.652344v3.304688zm0 0"/><path d="m317.203125 97.332031-2.863281-1.652343v3.304687zm0 0"/><path d="m314.339844 95.679688-2.863282-1.65625v3.308593zm0 0"/><path d="m311.476562 94.023438-2.863281-1.652344v3.308594zm0 0"/><path d="m308.613281 92.371094-2.863281-1.652344v3.304688zm0 0"/><path d="m305.75 90.71875-2.867188-1.65625v3.308594zm0 0"/><path d="m302.882812 89.0625-2.863281-1.652344v3.308594zm0 0"/><path d="m300.019531 87.410156-2.863281-1.652344v3.304688zm0 0"/><path d="m297.15625 85.757812-2.863281-1.652343v3.304687zm0 0"/><path d="m294.292969 84.105469-2.863281-1.65625v3.308593zm0 0"/><path d="m291.429688 82.449219-2.863282-1.652344v3.308594zm0 0"/><path d="m288.566406 80.796875-2.863281-1.652344v3.304688zm0 0"/><path d="m285.703125 79.144531-2.863281-1.652343v3.304687zm0 0"/><path d="m282.839844 77.492188-2.863282-1.65625v3.308593zm0 0"/><path d="m279.976562 75.835938-2.867187-1.652344v3.308594zm0 0"/><path d="m277.109375 74.183594-2.863281-1.652344v3.304688zm0 0"/><path d="m274.246094 72.53125-2.863282-1.652344v3.304688zm0 0"/><path d="m271.382812 70.878906-2.863281-1.65625v3.308594zm0 0"/><path d="m268.519531 69.222656-2.863281-1.652344v3.308594zm0 0"/><path d="m265.65625 67.570312-2.863281-1.652343v3.304687zm0 0"/><path d="m262.792969 65.917969-2.863281-1.65625v3.308593zm0 0"/><path d="m259.929688 64.261719-2.863282-1.652344v3.308594zm0 0"/><path d="m257.066406 62.609375-2.863281-1.652344v3.304688zm0 0"/><path d="m254.203125 60.957031-2.867187-1.652343v3.304687zm0 0"/><path d="m251.335938 59.304688-2.863282-1.65625v3.308593zm0 0"/><path d="m248.472656 57.648438-2.863281-1.652344v3.308594zm0 0"/><path d="m245.609375 55.996094-2.863281-1.652344v3.304688zm0 0"/><path d="m242.746094 54.34375-2.863282-1.652344v3.304688zm0 0"/><path d="m239.882812 52.691406-2.863281-1.65625v3.308594zm0 0"/><path d="m237.019531 51.035156-2.863281-1.652344v3.308594zm0 0"/><path d="m234.15625 49.382812-2.863281-1.652343v3.304687zm0 0"/><path d="m231.292969 47.730469-2.867188-1.652344v3.304687zm0 0"/><path d="m228.425781 46.078125-2.863281-1.65625v3.308594zm0 0"/><path d="m225.5625 44.421875-2.863281-1.652344v3.308594zm0 0"/><path d="m222.699219 42.769531-2.863281-1.652343v3.304687zm0 0"/><path d="m219.835938 41.117188-2.863282-1.652344v3.304687zm0 0"/><path d="m216.972656 39.464844-2.863281-1.65625v3.308594zm0 0"/><path d="m214.109375 37.808594-2.863281-1.652344v3.308594zm0 0"/><path d="m211.246094 36.15625-2.863282-1.652344v3.304688zm0 0"/><path d="m208.382812 34.503906-2.863281-1.65625v3.308594zm0 0"/><path d="m205.519531 32.847656-2.867187-1.652344v3.308594zm0 0"/><path d="m202.652344 31.195312-2.863282-1.652343v3.304687zm0 0"/><path d="m199.789062 29.542969-2.863281-1.652344v3.304687zm0 0"/><path d="m196.925781 27.890625-2.863281-1.65625v3.308594zm0 0"/><path d="m194.0625 26.234375-2.863281-1.652344v3.308594zm0 0"/><path d="m191.199219 24.582031-2.863281-1.652343v3.304687zm0 0"/><path d="m188.335938 22.929688-2.863282-1.652344v3.304687zm0 0"/><path d="m185.472656 21.277344-2.863281-1.65625v3.308594zm0 0"/><path d="m182.609375 19.621094-2.863281-1.652344v3.308594zm0 0"/><path d="m45.148438 102.292969-2.863282-1.65625v3.308593zm0 0"/><path d="m45.148438 105.597656-2.863282-1.652344v3.304688zm0 0"/><path d="m45.148438 108.90625-2.863282-1.65625v3.308594zm0 0"/><path d="m45.148438 112.210938-2.863282-1.652344v3.304687zm0 0"/><path d="m45.148438 115.519531-2.863282-1.65625v3.308594zm0 0"/><path d="m45.148438 118.824219-2.863282-1.652344v3.304687zm0 0"/><path d="m45.148438 122.132812-2.863282-1.65625v3.308594zm0 0"/><path d="m45.148438 125.4375-2.863282-1.652344v3.308594zm0 0"/><path d="m45.148438 128.746094-2.863282-1.652344v3.304688zm0 0"/><path d="m45.148438 132.050781-2.863282-1.652343v3.308593zm0 0"/><path d="m45.148438 135.359375-2.863282-1.652344v3.304688zm0 0"/><path d="m45.148438 138.664062-2.863282-1.652343v3.308593zm0 0"/><path d="m45.148438 141.972656-2.863282-1.652344v3.304688zm0 0"/><path d="m45.148438 145.277344-2.863282-1.652344v3.308594zm0 0"/><path d="m45.148438 148.585938-2.863282-1.652344v3.304687zm0 0"/><path d="m45.148438 151.894531-2.863282-1.65625v3.308594zm0 0"/><path d="m45.148438 155.199219-2.863282-1.652344v3.304687zm0 0"/><path d="m45.148438 158.507812-2.863282-1.65625v3.308594zm0 0"/><path d="m45.148438 161.8125-2.863282-1.652344v3.304688zm0 0"/><path d="m45.148438 165.121094-2.863282-1.65625v3.308594zm0 0"/><path d="m45.148438 168.425781-2.863282-1.652343v3.304687zm0 0"/><path d="m45.148438 171.734375-2.863282-1.65625v3.308594zm0 0"/><path d="m45.148438 175.039062-2.863282-1.652343v3.304687zm0 0"/><path d="m45.148438 178.347656-2.863282-1.65625v3.308594zm0 0"/><path d="m45.148438 181.652344-2.863282-1.652344v3.308594zm0 0"/><path d="m45.148438 184.960938-2.863282-1.652344v3.304687zm0 0"/><path d="m45.148438 188.265625-2.863282-1.652344v3.308594zm0 0"/><path d="m45.148438 191.574219-2.863282-1.652344v3.304687zm0 0"/><path d="m45.148438 194.878906-2.863282-1.652344v3.308594zm0 0"/><path d="m45.148438 198.1875-2.863282-1.652344v3.304688zm0 0"/><path d="m45.148438 201.492188-2.863282-1.652344v3.308594zm0 0"/><path d="m45.148438 204.800781-2.863282-1.652343v3.304687zm0 0"/><path d="m45.148438 208.105469-2.863282-1.652344v3.308594zm0 0"/><path d="m45.148438 211.414062-2.863282-1.652343v3.304687zm0 0"/><path d="m45.148438 214.722656-2.863282-1.65625v3.308594zm0 0"/><path d="m45.148438 218.027344-2.863282-1.652344v3.304688zm0 0"/><path d="m45.148438 221.335938-2.863282-1.65625v3.308593zm0 0"/><path d="m45.148438 224.640625-2.863282-1.652344v3.304688zm0 0"/><path d="m45.148438 227.949219-2.863282-1.65625v3.308593zm0 0"/><path d="m45.148438 231.253906-2.863282-1.652344v3.304688zm0 0"/><path d="m45.148438 234.5625-2.863282-1.65625v3.308594zm0 0"/><path d="m45.148438 237.867188-2.863282-1.652344v3.308594zm0 0"/><path d="m45.148438 241.175781-2.863282-1.652343v3.304687zm0 0"/><path d="m45.148438 244.480469-2.863282-1.652344v3.308594zm0 0"/><path d="m45.148438 247.789062-2.863282-1.652343v3.304687zm0 0"/><path d="m45.148438 251.09375-2.863282-1.652344v3.308594zm0 0"/><path d="m45.148438 254.402344-2.863282-1.652344v3.304688zm0 0"/><path d="m45.148438 257.707031-2.863282-1.652343v3.308593zm0 0"/><path d="m182.609375 340.378906-2.863281-1.65625v3.308594zm0 0"/><path d="m185.472656 338.722656-2.863281-1.652344v3.308594zm0 0"/><path d="m188.335938 337.070312-2.863282-1.652343v3.304687zm0 0"/><path d="m191.199219 335.417969-2.863281-1.652344v3.304687zm0 0"/><path d="m194.0625 333.765625-2.863281-1.65625v3.308594zm0 0"/><path d="m196.925781 332.109375-2.863281-1.652344v3.308594zm0 0"/><path d="m199.789062 330.457031-2.863281-1.652343v3.304687zm0 0"/><path d="m202.652344 328.804688-2.863282-1.652344v3.304687zm0 0"/><path d="m205.519531 327.152344-2.867187-1.65625v3.308594zm0 0"/><path d="m208.382812 325.496094-2.863281-1.652344v3.308594zm0 0"/><path d="m211.246094 323.84375-2.863282-1.652344v3.304688zm0 0"/><path d="m214.109375 322.191406-2.863281-1.65625v3.308594zm0 0"/><path d="m216.972656 320.535156-2.863281-1.652344v3.308594zm0 0"/><path d="m219.835938 318.882812-2.863282-1.652343v3.304687zm0 0"/><path d="m222.699219 317.230469-2.863281-1.652344v3.304687zm0 0"/><path d="m225.5625 315.578125-2.863281-1.65625v3.308594zm0 0"/><path d="m228.425781 313.921875-2.863281-1.652344v3.308594zm0 0"/><path d="m231.292969 312.269531-2.867188-1.652343v3.304687zm0 0"/><path d="m234.15625 310.617188-2.863281-1.652344v3.304687zm0 0"/><path d="m237.019531 308.964844-2.863281-1.65625v3.308594zm0 0"/><path d="m239.882812 307.308594-2.863281-1.652344v3.308594zm0 0"/><path d="m242.746094 305.65625-2.863282-1.652344v3.304688zm0 0"/><path d="m245.609375 304.003906-2.863281-1.652344v3.304688zm0 0"/><path d="m248.472656 302.351562-2.863281-1.65625v3.308594zm0 0"/><path d="m251.335938 300.695312-2.863282-1.652343v3.308593zm0 0"/><path d="m254.203125 299.042969-2.867187-1.652344v3.304687zm0 0"/><path d="m257.066406 297.390625-2.863281-1.652344v3.304688zm0 0"/><path d="m259.929688 295.738281-2.863282-1.65625v3.308594zm0 0"/><path d="m262.792969 294.082031-2.863281-1.652343v3.308593zm0 0"/><path d="m265.65625 292.429688-2.863281-1.652344v3.304687zm0 0"/><path d="m268.519531 290.777344-2.863281-1.65625v3.308594zm0 0"/><path d="m271.382812 289.121094-2.863281-1.652344v3.308594zm0 0"/><path d="m274.246094 287.46875-2.863282-1.652344v3.304688zm0 0"/><path d="m277.109375 285.816406-2.863281-1.652344v3.304688zm0 0"/><path d="m279.976562 284.164062-2.867187-1.65625v3.308594zm0 0"/><path d="m282.839844 282.507812-2.863282-1.652343v3.308593zm0 0"/><path d="m285.703125 280.855469-2.863281-1.652344v3.304687zm0 0"/><path d="m288.566406 279.203125-2.863281-1.652344v3.304688zm0 0"/><path d="m291.429688 277.550781-2.863282-1.65625v3.308594zm0 0"/><path d="m294.292969 275.894531-2.863281-1.652343v3.308593zm0 0"/><path d="m297.15625 274.242188-2.863281-1.652344v3.304687zm0 0"/><path d="m300.019531 272.589844-2.863281-1.652344v3.304688zm0 0"/><path d="m302.882812 270.9375-2.863281-1.65625v3.308594zm0 0"/><path d="m305.75 269.28125-2.867188-1.652344v3.308594zm0 0"/><path d="m308.613281 267.628906-2.863281-1.652344v3.304688zm0 0"/><path d="m311.476562 265.976562-2.863281-1.65625v3.308594zm0 0"/><path d="m314.339844 264.320312-2.863282-1.652343v3.308593zm0 0"/><path d="m317.203125 262.667969-2.863281-1.652344v3.304687zm0 0"/><path d="m320.066406 261.015625-2.863281-1.652344v3.304688zm0 0"/><path d="m42.285156 100.636719-2.863281-1.652344v3.308594zm0 0"/><path d="m42.285156 103.945312-2.863281-1.652343v3.304687zm0 0"/><path d="m42.285156 107.25-2.863281-1.652344v3.308594zm0 0"/><path d="m42.285156 110.558594-2.863281-1.652344v3.304688zm0 0"/><path d="m42.285156 113.863281-2.863281-1.652343v3.308593zm0 0"/><path d="m42.285156 117.171875-2.863281-1.652344v3.304688zm0 0"/><path d="m42.285156 120.476562-2.863281-1.652343v3.308593zm0 0"/><path d="m42.285156 123.785156-2.863281-1.652344v3.304688zm0 0"/><path d="m42.285156 127.09375-2.863281-1.65625v3.308594zm0 0"/><path d="m42.285156 130.398438-2.863281-1.652344v3.304687zm0 0"/><path d="m42.285156 133.707031-2.863281-1.65625v3.308594zm0 0"/><path d="m42.285156 137.011719-2.863281-1.652344v3.304687zm0 0"/><path d="m42.285156 140.320312-2.863281-1.65625v3.308594zm0 0"/><path d="m42.285156 143.625-2.863281-1.652344v3.304688zm0 0"/><path d="m42.285156 146.933594-2.863281-1.65625v3.308594zm0 0"/><path d="m42.285156 150.238281-2.863281-1.652343v3.308593zm0 0"/><path d="m42.285156 153.546875-2.863281-1.652344v3.304688zm0 0"/><path d="m42.285156 156.851562-2.863281-1.652343v3.308593zm0 0"/><path d="m42.285156 160.160156-2.863281-1.652344v3.304688zm0 0"/><path d="m42.285156 163.464844-2.863281-1.652344v3.308594zm0 0"/><path d="m42.285156 166.773438-2.863281-1.652344v3.304687zm0 0"/><path d="m42.285156 170.078125-2.863281-1.652344v3.308594zm0 0"/><path d="m42.285156 173.386719-2.863281-1.652344v3.304687zm0 0"/><path d="m42.285156 176.691406-2.863281-1.652344v3.308594zm0 0"/><path d="m42.285156 180-2.863281-1.652344v3.304688zm0 0"/><path d="m42.285156 183.308594-2.863281-1.65625v3.308594zm0 0"/><path d="m42.285156 186.613281-2.863281-1.652343v3.304687zm0 0"/><path d="m42.285156 189.921875-2.863281-1.65625v3.308594zm0 0"/><path d="m42.285156 193.226562-2.863281-1.652343v3.304687zm0 0"/><path d="m42.285156 196.535156-2.863281-1.65625v3.308594zm0 0"/><path d="m42.285156 199.839844-2.863281-1.652344v3.304688zm0 0"/><path d="m42.285156 203.148438-2.863281-1.65625v3.308593zm0 0"/><path d="m42.285156 206.453125-2.863281-1.652344v3.304688zm0 0"/><path d="m42.285156 209.761719-2.863281-1.65625v3.308593zm0 0"/><path d="m42.285156 213.066406-2.863281-1.652344v3.308594zm0 0"/><path d="m42.285156 216.375-2.863281-1.652344v3.304688zm0 0"/><path d="m42.285156 219.679688-2.863281-1.652344v3.308594zm0 0"/><path d="m42.285156 222.988281-2.863281-1.652343v3.304687zm0 0"/><path d="m42.285156 226.292969-2.863281-1.652344v3.308594zm0 0"/><path d="m42.285156 229.601562-2.863281-1.652343v3.304687zm0 0"/><path d="m42.285156 232.90625-2.863281-1.652344v3.308594zm0 0"/><path d="m42.285156 236.214844-2.863281-1.652344v3.304688zm0 0"/><path d="m42.285156 239.523438-2.863281-1.65625v3.308593zm0 0"/><path d="m42.285156 242.828125-2.863281-1.652344v3.304688zm0 0"/><path d="m42.285156 246.136719-2.863281-1.65625v3.308593zm0 0"/><path d="m42.285156 249.441406-2.863281-1.652344v3.304688zm0 0"/><path d="m42.285156 252.75-2.863281-1.65625v3.308594zm0 0"/><path d="m42.285156 256.054688-2.863281-1.652344v3.304687zm0 0"/><path d="m42.285156 259.363281-2.863281-1.65625v3.308594zm0 0"/></g></svg>