<svg height="360pt" viewBox="0 0 360 360" width="360pt" xmlns="http://www.w3.org/2000/svg"><path d="m0 0h360v360h-360z" fill="#800080"/><g fill="#fff" fill-rule="evenodd"><path d="m211.425781 186.234375 10.796875-6.234375v12.46875zm0 0"/><path d="m211.425781 173.765625 10.796875-6.234375v12.46875zm0 0"/><path d="m157.441406 142.597656 10.796875-6.230468v12.464843zm0 0"/><path d="m146.644531 148.832031 10.796875-6.234375v12.46875zm0 0"/><path d="m146.644531 211.167969 10.796875-6.234375v12.46875zm0 0"/><path d="m157.441406 217.402344 10.796875-6.234375v12.464843zm0 0"/><path d="m233.019531 211.167969 10.796875-6.234375v12.46875zm0 0"/><path d="m233.019531 186.234375 10.796875-6.234375v12.46875zm0 0"/><path d="m233.019531 173.765625 10.796875-6.234375v12.46875zm0 0"/><path d="m233.019531 148.832031 10.796875-6.234375v12.46875zm0 0"/><path d="m243.816406 217.402344 10.796875-6.234375v12.464843zm0 0"/><path d="m243.816406 192.46875 10.796875-6.234375v12.464844zm0 0"/><path d="m243.816406 167.53125 10.796875-6.230469v12.464844zm0 0"/><path d="m243.816406 142.597656 10.796875-6.230468v12.464843zm0 0"/><path d="m168.238281 111.433594 10.796875-6.234375v12.464843zm0 0"/><path d="m146.644531 123.898438 10.796875-6.234376v12.46875zm0 0"/><path d="m135.847656 130.132812 10.796875-6.234374v12.46875zm0 0"/><path d="m114.253906 142.597656 10.796875-6.230468v12.464843zm0 0"/><path d="m114.253906 217.402344 10.796875-6.234375v12.464843zm0 0"/><path d="m135.847656 229.867188 10.796875-6.234376v12.46875zm0 0"/><path d="m146.644531 236.101562 10.796875-6.234374v12.46875zm0 0"/><path d="m168.238281 248.566406 10.796875-6.230468v12.464843zm0 0"/><path d="m254.613281 223.632812 10.796875-6.230468v12.464844zm0 0"/><path d="m254.613281 211.167969 10.796875-6.234375v12.46875zm0 0"/><path d="m254.613281 198.699219 10.796875-6.230469v12.464844zm0 0"/><path d="m254.613281 186.234375 10.796875-6.234375v12.46875zm0 0"/><path d="m254.613281 173.765625 10.796875-6.234375v12.46875zm0 0"/><path d="m254.613281 161.300781 10.796875-6.234375v12.464844zm0 0"/><path d="m254.613281 148.832031 10.796875-6.234375v12.46875zm0 0"/><path d="m254.613281 136.367188 10.796875-6.234376v12.464844zm0 0"/><path d="m168.238281 98.964844 10.796875-6.234375v12.46875zm0 0"/><path d="m146.644531 111.433594 10.796875-6.234375v12.464843zm0 0"/><path d="m125.050781 123.898438 10.796875-6.234376v12.46875zm0 0"/><path d="m103.457031 136.367188 10.796875-6.234376v12.464844zm0 0"/><path d="m103.457031 223.632812 10.796875-6.230468v12.464844zm0 0"/><path d="m125.050781 236.101562 10.796875-6.234374v12.46875zm0 0"/><path d="m146.644531 248.566406 10.796875-6.230468v12.464843zm0 0"/><path d="m168.238281 261.035156 10.796875-6.234375v12.46875zm0 0"/><path d="m265.410156 229.867188 10.796875-6.234376v12.46875zm0 0"/><path d="m265.410156 130.132812 10.796875-6.234374v12.46875zm0 0"/><path d="m168.238281 86.496094 10.796875-6.230469v12.464844zm0 0"/><path d="m157.441406 92.730469 10.796875-6.234375v12.46875zm0 0"/><path d="m146.644531 98.964844 10.796875-6.234375v12.46875zm0 0"/><path d="m135.847656 105.199219 10.796875-6.234375v12.46875zm0 0"/><path d="m125.050781 111.433594 10.796875-6.234375v12.464843zm0 0"/><path d="m114.253906 117.664062 10.796875-6.230468v12.464844zm0 0"/><path d="m103.457031 123.898438 10.796875-6.234376v12.46875zm0 0"/><path d="m92.660156 130.132812 10.796875-6.234374v12.46875zm0 0"/><path d="m92.660156 229.867188 10.796875-6.234376v12.46875zm0 0"/><path d="m103.457031 236.101562 10.796875-6.234374v12.46875zm0 0"/><path d="m114.253906 242.335938 10.796875-6.234376v12.464844zm0 0"/><path d="m125.050781 248.566406 10.796875-6.230468v12.464843zm0 0"/><path d="m135.847656 254.800781 10.796875-6.234375v12.46875zm0 0"/><path d="m146.644531 261.035156 10.796875-6.234375v12.46875zm0 0"/><path d="m157.441406 267.269531 10.796875-6.234375v12.46875zm0 0"/><path d="m168.238281 273.503906 10.796875-6.234375v12.464844zm0 0"/><path d="m168.238281 74.03125 10.796875-6.234375v12.46875zm0 0"/><path d="m81.863281 123.898438 10.796875-6.234376v12.46875zm0 0"/><path d="m81.863281 236.101562 10.796875-6.234374v12.46875zm0 0"/><path d="m168.238281 285.96875 10.796875-6.234375v12.46875zm0 0"/><path d="m211.425781 148.832031-10.796875-6.234375v12.46875zm0 0"/><path d="m200.628906 142.597656-10.796875-6.230468v12.464843zm0 0"/><path d="m200.628906 217.402344-10.796875-6.234375v12.464843zm0 0"/><path d="m211.425781 211.167969-10.796875-6.234375v12.46875zm0 0"/><path d="m146.644531 173.765625-10.796875-6.234375v12.46875zm0 0"/><path d="m146.644531 186.234375-10.796875-6.234375v12.46875zm0 0"/><path d="m243.816406 142.597656-10.796875-6.230468v12.464843zm0 0"/><path d="m222.222656 130.132812-10.796875-6.234374v12.46875zm0 0"/><path d="m211.425781 123.898438-10.796875-6.234376v12.46875zm0 0"/><path d="m189.832031 111.433594-10.796875-6.234375v12.464843zm0 0"/><path d="m189.832031 248.566406-10.796875-6.230468v12.464843zm0 0"/><path d="m211.425781 236.101562-10.796875-6.234374v12.46875zm0 0"/><path d="m222.222656 229.867188-10.796875-6.234376v12.46875zm0 0"/><path d="m243.816406 217.402344-10.796875-6.234375v12.464843zm0 0"/><path d="m254.613281 136.367188-10.796875-6.234376v12.464844zm0 0"/><path d="m233.019531 123.898438-10.796875-6.234376v12.46875zm0 0"/><path d="m211.425781 111.433594-10.796875-6.234375v12.464843zm0 0"/><path d="m189.832031 98.964844-10.796875-6.234375v12.46875zm0 0"/><path d="m125.050781 148.832031-10.796875-6.234375v12.46875zm0 0"/><path d="m125.050781 173.765625-10.796875-6.234375v12.46875zm0 0"/><path d="m125.050781 186.234375-10.796875-6.234375v12.46875zm0 0"/><path d="m125.050781 211.167969-10.796875-6.234375v12.46875zm0 0"/><path d="m189.832031 261.035156-10.796875-6.234375v12.46875zm0 0"/><path d="m211.425781 248.566406-10.796875-6.230468v12.464843zm0 0"/><path d="m233.019531 236.101562-10.796875-6.234374v12.46875zm0 0"/><path d="m254.613281 223.632812-10.796875-6.230468v12.464844zm0 0"/><path d="m265.410156 130.132812-10.796875-6.234374v12.46875zm0 0"/><path d="m254.613281 123.898438-10.796875-6.234376v12.46875zm0 0"/><path d="m243.816406 117.664062-10.796875-6.230468v12.464844zm0 0"/><path d="m233.019531 111.433594-10.796875-6.234375v12.464843zm0 0"/><path d="m222.222656 105.199219-10.796875-6.234375v12.46875zm0 0"/><path d="m211.425781 98.964844-10.796875-6.234375v12.46875zm0 0"/><path d="m200.628906 92.730469-10.796875-6.234375v12.46875zm0 0"/><path d="m189.832031 86.496094-10.796875-6.230469v12.464844zm0 0"/><path d="m114.253906 142.597656-10.796875-6.230468v12.464843zm0 0"/><path d="m114.253906 167.53125-10.796875-6.230469v12.464844zm0 0"/><path d="m114.253906 192.46875-10.796875-6.234375v12.464844zm0 0"/><path d="m114.253906 217.402344-10.796875-6.234375v12.464843zm0 0"/><path d="m189.832031 273.503906-10.796875-6.234375v12.464844zm0 0"/><path d="m200.628906 267.269531-10.796875-6.234375v12.46875zm0 0"/><path d="m211.425781 261.035156-10.796875-6.234375v12.46875zm0 0"/><path d="m222.222656 254.800781-10.796875-6.234375v12.46875zm0 0"/><path d="m233.019531 248.566406-10.796875-6.230468v12.464843zm0 0"/><path d="m243.816406 242.335938-10.796875-6.234376v12.464844zm0 0"/><path d="m254.613281 236.101562-10.796875-6.234374v12.46875zm0 0"/><path d="m265.410156 229.867188-10.796875-6.234376v12.46875zm0 0"/><path d="m276.207031 123.898438-10.796875-6.234376v12.46875zm0 0"/><path d="m189.832031 74.03125-10.796875-6.234375v12.46875zm0 0"/><path d="m103.457031 136.367188-10.796875-6.234376v12.464844zm0 0"/><path d="m103.457031 148.832031-10.796875-6.234375v12.46875zm0 0"/><path d="m103.457031 161.300781-10.796875-6.234375v12.464844zm0 0"/><path d="m103.457031 173.765625-10.796875-6.234375v12.46875zm0 0"/><path d="m103.457031 186.234375-10.796875-6.234375v12.46875zm0 0"/><path d="m103.457031 198.699219-10.796875-6.230469v12.464844zm0 0"/><path d="m103.457031 211.167969-10.796875-6.234375v12.46875zm0 0"/><path d="m103.457031 223.632812-10.796875-6.230468v12.464844zm0 0"/><path d="m189.832031 285.96875-10.796875-6.234375v12.46875zm0 0"/><path d="m276.207031 236.101562-10.796875-6.234374v12.46875zm0 0"/><path d="m92.660156 130.132812-10.796875-6.234374v12.46875zm0 0"/><path d="m92.660156 229.867188-10.796875-6.234376v12.46875zm0 0"/></g></svg>