<svg height="360pt" viewBox="0 0 360 360" width="360pt" xmlns="http://www.w3.org/2000/svg"><path d="m0 0h360v360h-360z" fill="#800080"/><g fill="#fff" fill-rule="evenodd"><path d="m183.742188 172.882812 4.109374-2.371093v4.742187zm0 0"/><path d="m179.632812 170.511719 4.109376-2.371094v4.742187zm0 0"/><path d="m179.632812 189.488281 4.109376-2.371093v4.742187zm0 0"/><path d="m183.742188 187.117188 4.109374-2.371094v4.742187zm0 0"/><path d="m167.304688 177.628906 4.109374-2.375v4.746094zm0 0"/><path d="m167.304688 182.371094 4.109374-2.371094v4.746094zm0 0"/><path d="m187.851562 165.765625 4.109376-2.371094v4.746094zm0 0"/><path d="m183.742188 163.394531 4.109374-2.371093v4.742187zm0 0"/><path d="m183.742188 196.605469 4.109374-2.371094v4.742187zm0 0"/><path d="m187.851562 194.234375 4.109376-2.375v4.746094zm0 0"/><path d="m191.960938 163.394531 4.109374-2.371093v4.742187zm0 0"/><path d="m183.742188 158.648438 4.109374-2.371094v4.746094zm0 0"/><path d="m159.089844 177.628906 4.109375-2.375v4.746094zm0 0"/><path d="m159.089844 182.371094 4.109375-2.371094v4.746094zm0 0"/><path d="m183.742188 201.351562 4.109374-2.375v4.746094zm0 0"/><path d="m191.960938 196.605469 4.109374-2.371094v4.742187zm0 0"/><path d="m196.070312 161.023438 4.105469-2.375v4.746093zm0 0"/><path d="m183.742188 153.90625 4.109374-2.375v4.746094zm0 0"/><path d="m154.980469 175.253906 4.109375-2.371094v4.746094zm0 0"/><path d="m154.980469 184.746094 4.109375-2.375v4.746094zm0 0"/><path d="m183.742188 206.09375 4.109374-2.371094v4.746094zm0 0"/><path d="m196.070312 198.976562 4.105469-2.371093v4.746093zm0 0"/><path d="m200.175781 158.648438 4.109375-2.371094v4.746094zm0 0"/><path d="m183.742188 149.160156 4.109374-2.371094v4.742188zm0 0"/><path d="m150.871094 172.882812 4.109375-2.371093v4.742187zm0 0"/><path d="m150.871094 187.117188 4.109375-2.371094v4.742187zm0 0"/><path d="m183.742188 210.839844 4.109374-2.371094v4.742188zm0 0"/><path d="m200.175781 201.351562 4.109375-2.375v4.746094zm0 0"/><path d="m204.285156 156.277344 4.109375-2.371094v4.742188zm0 0"/><path d="m183.742188 144.417969 4.109374-2.375v4.746093zm0 0"/><path d="m146.761719 170.511719 4.109375-2.371094v4.742187zm0 0"/><path d="m146.761719 189.488281 4.109375-2.371093v4.742187zm0 0"/><path d="m183.742188 215.582031 4.109374-2.371093v4.746093zm0 0"/><path d="m204.285156 203.722656 4.109375-2.371094v4.742188zm0 0"/><path d="m208.394531 153.90625 4.109375-2.375v4.746094zm0 0"/><path d="m183.742188 139.671875 4.109374-2.371094v4.742188zm0 0"/><path d="m142.652344 168.140625 4.109375-2.375v4.746094zm0 0"/><path d="m142.652344 191.859375 4.109375-2.371094v4.746094zm0 0"/><path d="m183.742188 220.328125 4.109374-2.371094v4.742188zm0 0"/><path d="m208.394531 206.09375 4.109375-2.371094v4.746094zm0 0"/><path d="m212.503906 151.53125 4.109375-2.371094v4.746094zm0 0"/><path d="m183.742188 134.925781 4.109374-2.371093v4.746093zm0 0"/><path d="m138.542969 165.765625 4.109375-2.371094v4.746094zm0 0"/><path d="m138.542969 194.234375 4.109375-2.375v4.746094zm0 0"/><path d="m183.742188 225.074219 4.109374-2.375v4.746093zm0 0"/><path d="m212.503906 208.46875 4.109375-2.375v4.746094zm0 0"/><path d="m216.613281 149.160156 4.109375-2.371094v4.742188zm0 0"/><path d="m183.742188 130.183594 4.109374-2.375v4.746094zm0 0"/><path d="m134.433594 163.394531 4.109375-2.371093v4.742187zm0 0"/><path d="m134.433594 196.605469 4.109375-2.371094v4.742187zm0 0"/><path d="m183.742188 229.816406 4.109374-2.371094v4.746094zm0 0"/><path d="m216.613281 210.839844 4.109375-2.371094v4.742188zm0 0"/><path d="m220.722656 146.789062 4.109375-2.371093v4.742187zm0 0"/><path d="m183.742188 125.4375 4.109374-2.371094v4.742188zm0 0"/><path d="m130.328125 161.023438 4.105469-2.375v4.746093zm0 0"/><path d="m130.328125 198.976562 4.105469-2.371093v4.746093zm0 0"/><path d="m183.742188 234.5625 4.109374-2.371094v4.742188zm0 0"/><path d="m220.722656 213.210938 4.109375-2.371094v4.742187zm0 0"/><path d="m224.832031 144.417969 4.105469-2.375v4.746093zm0 0"/><path d="m183.742188 120.695312 4.109374-2.375v4.746094zm0 0"/><path d="m126.21875 158.648438 4.109375-2.371094v4.746094zm0 0"/><path d="m126.21875 201.351562 4.109375-2.375v4.746094zm0 0"/><path d="m183.742188 239.304688 4.109374-2.371094v4.746094zm0 0"/><path d="m224.832031 215.582031 4.105469-2.371093v4.746093zm0 0"/><path d="m228.9375 142.042969 4.109375-2.371094v4.746094zm0 0"/><path d="m183.742188 115.949219 4.109374-2.371094v4.742187zm0 0"/><path d="m122.109375 156.277344 4.109375-2.371094v4.742188zm0 0"/><path d="m122.109375 203.722656 4.109375-2.371094v4.742188zm0 0"/><path d="m183.742188 244.050781 4.109374-2.371093v4.742187zm0 0"/><path d="m228.9375 217.957031 4.109375-2.375v4.746094zm0 0"/><path d="m233.046875 139.671875 4.109375-2.371094v4.742188zm0 0"/><path d="m183.742188 111.203125 4.109374-2.371094v4.746094zm0 0"/><path d="m118 153.90625 4.109375-2.375v4.746094zm0 0"/><path d="m118 206.09375 4.109375-2.371094v4.746094zm0 0"/><path d="m183.742188 248.796875 4.109374-2.375v4.746094zm0 0"/><path d="m233.046875 220.328125 4.109375-2.371094v4.742188zm0 0"/><path d="m237.15625 137.300781 4.109375-2.375v4.746094zm0 0"/><path d="m183.742188 106.460938 4.109374-2.375v4.746093zm0 0"/><path d="m113.890625 151.53125 4.109375-2.371094v4.746094zm0 0"/><path d="m113.890625 208.46875 4.109375-2.375v4.746094zm0 0"/><path d="m183.742188 253.539062 4.109374-2.371093v4.746093zm0 0"/><path d="m237.15625 222.699219 4.109375-2.371094v4.746094zm0 0"/><path d="m241.265625 134.925781 4.109375-2.371093v4.746093zm0 0"/><path d="m183.742188 101.714844 4.109374-2.371094v4.742188zm0 0"/><path d="m109.78125 149.160156 4.109375-2.371094v4.742188zm0 0"/><path d="m109.78125 210.839844 4.109375-2.371094v4.742188zm0 0"/><path d="m183.742188 258.285156 4.109374-2.371094v4.742188zm0 0"/><path d="m241.265625 225.074219 4.109375-2.375v4.746093zm0 0"/><path d="m245.375 132.554688 4.109375-2.371094v4.742187zm0 0"/><path d="m183.742188 96.972656 4.109374-2.375v4.746094zm0 0"/><path d="m105.671875 146.789062 4.109375-2.371093v4.742187zm0 0"/><path d="m105.671875 213.210938 4.109375-2.371094v4.742187zm0 0"/><path d="m183.742188 263.027344 4.109374-2.371094v4.746094zm0 0"/><path d="m245.375 227.445312 4.109375-2.371093v4.742187zm0 0"/><path d="m249.484375 130.183594 4.109375-2.375v4.746094zm0 0"/><path d="m183.742188 92.226562 4.109374-2.371093v4.742187zm0 0"/><path d="m101.566406 144.417969 4.105469-2.375v4.746093zm0 0"/><path d="m101.566406 215.582031 4.105469-2.371093v4.746093zm0 0"/><path d="m183.742188 267.773438 4.109374-2.371094v4.742187zm0 0"/><path d="m249.484375 229.816406 4.109375-2.371094v4.746094zm0 0"/><path d="m253.59375 127.808594 4.109375-2.371094v4.746094zm0 0"/><path d="m183.742188 87.480469 4.109374-2.371094v4.746094zm0 0"/><path d="m97.457031 142.042969 4.109375-2.371094v4.746094zm0 0"/><path d="m97.457031 217.957031 4.109375-2.375v4.746094zm0 0"/><path d="m183.742188 272.519531 4.109374-2.375v4.746094zm0 0"/><path d="m253.59375 232.191406 4.109375-2.375v4.746094zm0 0"/><path d="m257.703125 125.4375 4.105469-2.371094v4.742188zm0 0"/><path d="m183.742188 82.738281 4.109374-2.371093v4.742187zm0 0"/><path d="m93.347656 139.671875 4.109375-2.371094v4.742188zm0 0"/><path d="m93.347656 220.328125 4.109375-2.371094v4.742188zm0 0"/><path d="m183.742188 277.261719 4.109374-2.371094v4.742187zm0 0"/><path d="m257.703125 234.5625 4.105469-2.371094v4.742188zm0 0"/><path d="m261.808594 123.066406 4.109375-2.371094v4.742188zm0 0"/><path d="m183.742188 77.992188 4.109374-2.371094v4.746094zm0 0"/><path d="m89.238281 137.300781 4.109375-2.375v4.746094zm0 0"/><path d="m89.238281 222.699219 4.109375-2.371094v4.746094zm0 0"/><path d="m183.742188 282.007812 4.109374-2.375v4.746094zm0 0"/><path d="m261.808594 236.933594 4.109375-2.371094v4.742188zm0 0"/><path d="m265.917969 120.695312 4.109375-2.375v4.746094zm0 0"/><path d="m183.742188 73.25 4.109374-2.375v4.746094zm0 0"/><path d="m85.128906 134.925781 4.109375-2.371093v4.746093zm0 0"/><path d="m85.128906 225.074219 4.109375-2.375v4.746093zm0 0"/><path d="m183.742188 286.75 4.109374-2.371094v4.746094zm0 0"/><path d="m265.917969 239.304688 4.109375-2.371094v4.746094zm0 0"/><path d="m270.027344 118.320312 4.109375-2.371093v4.746093zm0 0"/><path d="m183.742188 68.503906 4.109374-2.371094v4.742188zm0 0"/><path d="m81.019531 132.554688 4.109375-2.371094v4.742187zm0 0"/><path d="m81.019531 227.445312 4.109375-2.371093v4.742187zm0 0"/><path d="m183.742188 291.496094 4.109374-2.371094v4.742188zm0 0"/><path d="m270.027344 241.679688 4.109375-2.375v4.746093zm0 0"/><path d="m274.136719 115.949219 4.109375-2.371094v4.742187zm0 0"/><path d="m183.742188 63.757812 4.109374-2.371093v4.746093zm0 0"/><path d="m76.910156 130.183594 4.109375-2.375v4.746094zm0 0"/><path d="m76.910156 229.816406 4.109375-2.371094v4.746094zm0 0"/><path d="m183.742188 296.242188 4.109374-2.375v4.746093zm0 0"/><path d="m274.136719 244.050781 4.109375-2.371093v4.742187zm0 0"/><path d="m282.355469 115.949219 4.109375-2.371094v4.742187zm0 0"/><path d="m274.136719 111.203125 4.109375-2.371094v4.746094zm0 0"/><path d="m270.027344 108.832031 4.109375-2.371093v4.742187zm0 0"/><path d="m265.917969 106.460938 4.109375-2.375v4.746093zm0 0"/><path d="m261.808594 104.085938 4.109375-2.371094v4.746094zm0 0"/><path d="m257.703125 101.714844 4.105469-2.371094v4.742188zm0 0"/><path d="m253.59375 99.34375 4.109375-2.371094v4.742188zm0 0"/><path d="m249.484375 96.972656 4.109375-2.375v4.746094zm0 0"/><path d="m245.375 94.597656 4.109375-2.371094v4.746094zm0 0"/><path d="m241.265625 92.226562 4.109375-2.371093v4.742187zm0 0"/><path d="m237.15625 89.855469 4.109375-2.375v4.746093zm0 0"/><path d="m233.046875 87.480469 4.109375-2.371094v4.746094zm0 0"/><path d="m228.9375 85.109375 4.109375-2.371094v4.742188zm0 0"/><path d="m224.832031 82.738281 4.105469-2.371093v4.742187zm0 0"/><path d="m220.722656 80.367188 4.109375-2.375v4.746093zm0 0"/><path d="m216.613281 77.992188 4.109375-2.371094v4.746094zm0 0"/><path d="m212.503906 75.621094 4.109375-2.371094v4.742188zm0 0"/><path d="m208.394531 73.25 4.109375-2.375v4.746094zm0 0"/><path d="m204.285156 70.875 4.109375-2.371094v4.746094zm0 0"/><path d="m200.175781 68.503906 4.109375-2.371094v4.742188zm0 0"/><path d="m196.070312 66.132812 4.105469-2.375v4.746094zm0 0"/><path d="m191.960938 63.757812 4.109374-2.371093v4.746093zm0 0"/><path d="m187.851562 61.386719 4.109376-2.371094v4.742187zm0 0"/><path d="m179.632812 56.644531 4.109376-2.375v4.746094zm0 0"/><path d="m72.800781 127.808594 4.109375-2.371094v4.746094zm0 0"/><path d="m72.800781 232.191406 4.109375-2.375v4.746094zm0 0"/><path d="m179.632812 303.355469 4.109376-2.371094v4.746094zm0 0"/><path d="m187.851562 298.613281 4.109376-2.371093v4.742187zm0 0"/><path d="m191.960938 296.242188 4.109374-2.375v4.746093zm0 0"/><path d="m196.070312 293.867188 4.105469-2.371094v4.746094zm0 0"/><path d="m200.175781 291.496094 4.109375-2.371094v4.742188zm0 0"/><path d="m204.285156 289.125 4.109375-2.375v4.746094zm0 0"/><path d="m208.394531 286.75 4.109375-2.371094v4.746094zm0 0"/><path d="m212.503906 284.378906 4.109375-2.371094v4.742188zm0 0"/><path d="m216.613281 282.007812 4.109375-2.375v4.746094zm0 0"/><path d="m220.722656 279.632812 4.109375-2.371093v4.746093zm0 0"/><path d="m224.832031 277.261719 4.105469-2.371094v4.742187zm0 0"/><path d="m228.9375 274.890625 4.109375-2.371094v4.742188zm0 0"/><path d="m233.046875 272.519531 4.109375-2.375v4.746094zm0 0"/><path d="m237.15625 270.144531 4.109375-2.371093v4.746093zm0 0"/><path d="m241.265625 267.773438 4.109375-2.371094v4.742187zm0 0"/><path d="m245.375 265.402344 4.109375-2.375v4.746094zm0 0"/><path d="m249.484375 263.027344 4.109375-2.371094v4.746094zm0 0"/><path d="m253.59375 260.65625 4.109375-2.371094v4.742188zm0 0"/><path d="m257.703125 258.285156 4.105469-2.371094v4.742188zm0 0"/><path d="m261.808594 255.914062 4.109375-2.375v4.746094zm0 0"/><path d="m265.917969 253.539062 4.109375-2.371093v4.746093zm0 0"/><path d="m270.027344 251.167969 4.109375-2.371094v4.742187zm0 0"/><path d="m274.136719 248.796875 4.109375-2.375v4.746094zm0 0"/><path d="m282.355469 244.050781 4.109375-2.371093v4.742187zm0 0"/><path d="m282.355469 111.203125 4.109375-2.371094v4.746094zm0 0"/><path d="m183.742188 54.269531 4.109374-2.371093v4.746093zm0 0"/><path d="m68.695312 120.695312 4.105469-2.375v4.746094zm0 0"/><path d="m68.695312 130.183594 4.105469-2.375v4.746094zm0 0"/><path d="m68.695312 134.925781 4.105469-2.371093v4.746093zm0 0"/><path d="m68.695312 139.671875 4.105469-2.371094v4.742188zm0 0"/><path d="m68.695312 144.417969 4.105469-2.375v4.746093zm0 0"/><path d="m68.695312 149.160156 4.105469-2.371094v4.742188zm0 0"/><path d="m68.695312 153.90625 4.105469-2.375v4.746094zm0 0"/><path d="m68.695312 158.648438 4.105469-2.371094v4.746094zm0 0"/><path d="m68.695312 163.394531 4.105469-2.371093v4.742187zm0 0"/><path d="m68.695312 168.140625 4.105469-2.375v4.746094zm0 0"/><path d="m68.695312 172.882812 4.105469-2.371093v4.742187zm0 0"/><path d="m68.695312 177.628906 4.105469-2.375v4.746094zm0 0"/><path d="m68.695312 182.371094 4.105469-2.371094v4.746094zm0 0"/><path d="m68.695312 187.117188 4.105469-2.371094v4.742187zm0 0"/><path d="m68.695312 191.859375 4.105469-2.371094v4.746094zm0 0"/><path d="m68.695312 196.605469 4.105469-2.371094v4.742187zm0 0"/><path d="m68.695312 201.351562 4.105469-2.375v4.746094zm0 0"/><path d="m68.695312 206.09375 4.105469-2.371094v4.746094zm0 0"/><path d="m68.695312 210.839844 4.105469-2.371094v4.742188zm0 0"/><path d="m68.695312 215.582031 4.105469-2.371093v4.746093zm0 0"/><path d="m68.695312 220.328125 4.105469-2.371094v4.742188zm0 0"/><path d="m68.695312 225.074219 4.105469-2.375v4.746093zm0 0"/><path d="m68.695312 229.816406 4.105469-2.371094v4.746094zm0 0"/><path d="m68.695312 239.304688 4.105469-2.371094v4.746094zm0 0"/><path d="m183.742188 305.730469 4.109374-2.375v4.746093zm0 0"/><path d="m282.355469 248.796875 4.109375-2.375v4.746094zm0 0"/><path d="m290.574219 111.203125 4.105469-2.371094v4.746094zm0 0"/><path d="m282.355469 106.460938 4.109375-2.375v4.746093zm0 0"/><path d="m278.246094 104.085938 4.109375-2.371094v4.746094zm0 0"/><path d="m274.136719 101.714844 4.109375-2.371094v4.742188zm0 0"/><path d="m270.027344 99.34375 4.109375-2.371094v4.742188zm0 0"/><path d="m265.917969 96.972656 4.109375-2.375v4.746094zm0 0"/><path d="m261.808594 94.597656 4.109375-2.371094v4.746094zm0 0"/><path d="m257.703125 92.226562 4.105469-2.371093v4.742187zm0 0"/><path d="m253.59375 89.855469 4.109375-2.375v4.746093zm0 0"/><path d="m249.484375 87.480469 4.109375-2.371094v4.746094zm0 0"/><path d="m245.375 85.109375 4.109375-2.371094v4.742188zm0 0"/><path d="m241.265625 82.738281 4.109375-2.371093v4.742187zm0 0"/><path d="m237.15625 80.367188 4.109375-2.375v4.746093zm0 0"/><path d="m233.046875 77.992188 4.109375-2.371094v4.746094zm0 0"/><path d="m228.9375 75.621094 4.109375-2.371094v4.742188zm0 0"/><path d="m224.832031 73.25 4.105469-2.375v4.746094zm0 0"/><path d="m220.722656 70.875 4.109375-2.371094v4.746094zm0 0"/><path d="m216.613281 68.503906 4.109375-2.371094v4.742188zm0 0"/><path d="m212.503906 66.132812 4.109375-2.375v4.746094zm0 0"/><path d="m208.394531 63.757812 4.109375-2.371093v4.746093zm0 0"/><path d="m204.285156 61.386719 4.109375-2.371094v4.742187zm0 0"/><path d="m200.175781 59.015625 4.109375-2.371094v4.742188zm0 0"/><path d="m196.070312 56.644531 4.105469-2.375v4.746094zm0 0"/><path d="m191.960938 54.269531 4.109374-2.371093v4.746093zm0 0"/><path d="m187.851562 51.898438 4.109376-2.371094v4.742187zm0 0"/><path d="m179.632812 47.152344 4.109376-2.371094v4.746094zm0 0"/><path d="m64.585938 123.066406 4.109374-2.371094v4.742188zm0 0"/><path d="m64.585938 236.933594 4.109374-2.371094v4.742188zm0 0"/><path d="m179.632812 312.847656 4.109376-2.375v4.746094zm0 0"/><path d="m187.851562 308.101562 4.109376-2.371093v4.742187zm0 0"/><path d="m191.960938 305.730469 4.109374-2.375v4.746093zm0 0"/><path d="m196.070312 303.355469 4.105469-2.371094v4.746094zm0 0"/><path d="m200.175781 300.984375 4.109375-2.371094v4.742188zm0 0"/><path d="m204.285156 298.613281 4.109375-2.371093v4.742187zm0 0"/><path d="m208.394531 296.242188 4.109375-2.375v4.746093zm0 0"/><path d="m212.503906 293.867188 4.109375-2.371094v4.746094zm0 0"/><path d="m216.613281 291.496094 4.109375-2.371094v4.742188zm0 0"/><path d="m220.722656 289.125 4.109375-2.375v4.746094zm0 0"/><path d="m224.832031 286.75 4.105469-2.371094v4.746094zm0 0"/><path d="m228.9375 284.378906 4.109375-2.371094v4.742188zm0 0"/><path d="m233.046875 282.007812 4.109375-2.375v4.746094zm0 0"/><path d="m237.15625 279.632812 4.109375-2.371093v4.746093zm0 0"/><path d="m241.265625 277.261719 4.109375-2.371094v4.742187zm0 0"/><path d="m245.375 274.890625 4.109375-2.371094v4.742188zm0 0"/><path d="m249.484375 272.519531 4.109375-2.375v4.746094zm0 0"/><path d="m253.59375 270.144531 4.109375-2.371093v4.746093zm0 0"/><path d="m257.703125 267.773438 4.105469-2.371094v4.742187zm0 0"/><path d="m261.808594 265.402344 4.109375-2.375v4.746094zm0 0"/><path d="m265.917969 263.027344 4.109375-2.371094v4.746094zm0 0"/><path d="m270.027344 260.65625 4.109375-2.371094v4.742188zm0 0"/><path d="m274.136719 258.285156 4.109375-2.371094v4.742188zm0 0"/><path d="m278.246094 255.914062 4.109375-2.375v4.746094zm0 0"/><path d="m282.355469 253.539062 4.109375-2.371093v4.746093zm0 0"/><path d="m290.574219 248.796875 4.105469-2.375v4.746094zm0 0"/><path d="m290.574219 106.460938 4.105469-2.375v4.746093zm0 0"/><path d="m183.742188 44.78125 4.109374-2.371094v4.742188zm0 0"/><path d="m60.476562 115.949219 4.109376-2.371094v4.742187zm0 0"/><path d="m60.476562 125.4375 4.109376-2.371094v4.742188zm0 0"/><path d="m60.476562 130.183594 4.109376-2.375v4.746094zm0 0"/><path d="m60.476562 134.925781 4.109376-2.371093v4.746093zm0 0"/><path d="m60.476562 139.671875 4.109376-2.371094v4.742188zm0 0"/><path d="m60.476562 144.417969 4.109376-2.375v4.746093zm0 0"/><path d="m60.476562 149.160156 4.109376-2.371094v4.742188zm0 0"/><path d="m60.476562 153.90625 4.109376-2.375v4.746094zm0 0"/><path d="m60.476562 158.648438 4.109376-2.371094v4.746094zm0 0"/><path d="m60.476562 163.394531 4.109376-2.371093v4.742187zm0 0"/><path d="m60.476562 168.140625 4.109376-2.375v4.746094zm0 0"/><path d="m60.476562 172.882812 4.109376-2.371093v4.742187zm0 0"/><path d="m60.476562 177.628906 4.109376-2.375v4.746094zm0 0"/><path d="m60.476562 182.371094 4.109376-2.371094v4.746094zm0 0"/><path d="m60.476562 187.117188 4.109376-2.371094v4.742187zm0 0"/><path d="m60.476562 191.859375 4.109376-2.371094v4.746094zm0 0"/><path d="m60.476562 196.605469 4.109376-2.371094v4.742187zm0 0"/><path d="m60.476562 201.351562 4.109376-2.375v4.746094zm0 0"/><path d="m60.476562 206.09375 4.109376-2.371094v4.746094zm0 0"/><path d="m60.476562 210.839844 4.109376-2.371094v4.742188zm0 0"/><path d="m60.476562 215.582031 4.109376-2.371093v4.746093zm0 0"/><path d="m60.476562 220.328125 4.109376-2.371094v4.742188zm0 0"/><path d="m60.476562 225.074219 4.109376-2.375v4.746093zm0 0"/><path d="m60.476562 229.816406 4.109376-2.371094v4.746094zm0 0"/><path d="m60.476562 234.5625 4.109376-2.371094v4.742188zm0 0"/><path d="m60.476562 244.050781 4.109376-2.371093v4.742187zm0 0"/><path d="m183.742188 315.21875 4.109374-2.371094v4.742188zm0 0"/><path d="m290.574219 253.539062 4.105469-2.371093v4.746093zm0 0"/><path d="m290.574219 101.714844 4.105469-2.371094v4.742188zm0 0"/><path d="m286.464844 99.34375 4.109375-2.371094v4.742188zm0 0"/><path d="m282.355469 96.972656 4.109375-2.375v4.746094zm0 0"/><path d="m278.246094 94.597656 4.109375-2.371094v4.746094zm0 0"/><path d="m274.136719 92.226562 4.109375-2.371093v4.742187zm0 0"/><path d="m270.027344 89.855469 4.109375-2.375v4.746093zm0 0"/><path d="m265.917969 87.480469 4.109375-2.371094v4.746094zm0 0"/><path d="m261.808594 85.109375 4.109375-2.371094v4.742188zm0 0"/><path d="m257.703125 82.738281 4.105469-2.371093v4.742187zm0 0"/><path d="m253.59375 80.367188 4.109375-2.375v4.746093zm0 0"/><path d="m249.484375 77.992188 4.109375-2.371094v4.746094zm0 0"/><path d="m245.375 75.621094 4.109375-2.371094v4.742188zm0 0"/><path d="m241.265625 73.25 4.109375-2.375v4.746094zm0 0"/><path d="m237.15625 70.875 4.109375-2.371094v4.746094zm0 0"/><path d="m233.046875 68.503906 4.109375-2.371094v4.742188zm0 0"/><path d="m228.9375 66.132812 4.109375-2.375v4.746094zm0 0"/><path d="m224.832031 63.757812 4.105469-2.371093v4.746093zm0 0"/><path d="m220.722656 61.386719 4.109375-2.371094v4.742187zm0 0"/><path d="m216.613281 59.015625 4.109375-2.371094v4.742188zm0 0"/><path d="m212.503906 56.644531 4.109375-2.375v4.746094zm0 0"/><path d="m208.394531 54.269531 4.109375-2.371093v4.746093zm0 0"/><path d="m204.285156 51.898438 4.109375-2.371094v4.742187zm0 0"/><path d="m200.175781 49.527344 4.109375-2.375v4.746094zm0 0"/><path d="m196.070312 47.152344 4.105469-2.371094v4.746094zm0 0"/><path d="m191.960938 44.78125 4.109374-2.371094v4.742188zm0 0"/><path d="m187.851562 42.410156 4.109376-2.375v4.746094zm0 0"/><path d="m56.367188 118.320312 4.109374-2.371093v4.746093zm0 0"/><path d="m56.367188 241.679688 4.109374-2.375v4.746093zm0 0"/><path d="m187.851562 317.589844 4.109376-2.371094v4.746094zm0 0"/><path d="m191.960938 315.21875 4.109374-2.371094v4.742188zm0 0"/><path d="m196.070312 312.847656 4.105469-2.375v4.746094zm0 0"/><path d="m200.175781 310.472656 4.109375-2.371094v4.746094zm0 0"/><path d="m204.285156 308.101562 4.109375-2.371093v4.742187zm0 0"/><path d="m208.394531 305.730469 4.109375-2.375v4.746093zm0 0"/><path d="m212.503906 303.355469 4.109375-2.371094v4.746094zm0 0"/><path d="m216.613281 300.984375 4.109375-2.371094v4.742188zm0 0"/><path d="m220.722656 298.613281 4.109375-2.371093v4.742187zm0 0"/><path d="m224.832031 296.242188 4.105469-2.375v4.746093zm0 0"/><path d="m228.9375 293.867188 4.109375-2.371094v4.746094zm0 0"/><path d="m233.046875 291.496094 4.109375-2.371094v4.742188zm0 0"/><path d="m237.15625 289.125 4.109375-2.375v4.746094zm0 0"/><path d="m241.265625 286.75 4.109375-2.371094v4.746094zm0 0"/><path d="m245.375 284.378906 4.109375-2.371094v4.742188zm0 0"/><path d="m249.484375 282.007812 4.109375-2.375v4.746094zm0 0"/><path d="m253.59375 279.632812 4.109375-2.371093v4.746093zm0 0"/><path d="m257.703125 277.261719 4.105469-2.371094v4.742187zm0 0"/><path d="m261.808594 274.890625 4.109375-2.371094v4.742188zm0 0"/><path d="m265.917969 272.519531 4.109375-2.375v4.746094zm0 0"/><path d="m270.027344 270.144531 4.109375-2.371093v4.746093zm0 0"/><path d="m274.136719 267.773438 4.109375-2.371094v4.742187zm0 0"/><path d="m278.246094 265.402344 4.109375-2.375v4.746094zm0 0"/><path d="m282.355469 263.027344 4.109375-2.371094v4.746094zm0 0"/><path d="m286.464844 260.65625 4.109375-2.371094v4.742188zm0 0"/><path d="m290.574219 258.285156 4.105469-2.371094v4.742188zm0 0"/><path d="m52.257812 120.695312 4.109376-2.375v4.746094zm0 0"/><path d="m52.257812 125.4375 4.109376-2.371094v4.742188zm0 0"/><path d="m52.257812 130.183594 4.109376-2.375v4.746094zm0 0"/><path d="m52.257812 134.925781 4.109376-2.371093v4.746093zm0 0"/><path d="m52.257812 139.671875 4.109376-2.371094v4.742188zm0 0"/><path d="m52.257812 144.417969 4.109376-2.375v4.746093zm0 0"/><path d="m52.257812 149.160156 4.109376-2.371094v4.742188zm0 0"/><path d="m52.257812 153.90625 4.109376-2.375v4.746094zm0 0"/><path d="m52.257812 158.648438 4.109376-2.371094v4.746094zm0 0"/><path d="m52.257812 163.394531 4.109376-2.371093v4.742187zm0 0"/><path d="m52.257812 168.140625 4.109376-2.375v4.746094zm0 0"/><path d="m52.257812 172.882812 4.109376-2.371093v4.742187zm0 0"/><path d="m52.257812 177.628906 4.109376-2.375v4.746094zm0 0"/><path d="m52.257812 182.371094 4.109376-2.371094v4.746094zm0 0"/><path d="m52.257812 187.117188 4.109376-2.371094v4.742187zm0 0"/><path d="m52.257812 191.859375 4.109376-2.371094v4.746094zm0 0"/><path d="m52.257812 196.605469 4.109376-2.371094v4.742187zm0 0"/><path d="m52.257812 201.351562 4.109376-2.375v4.746094zm0 0"/><path d="m52.257812 206.09375 4.109376-2.371094v4.746094zm0 0"/><path d="m52.257812 210.839844 4.109376-2.371094v4.742188zm0 0"/><path d="m52.257812 215.582031 4.109376-2.371093v4.746093zm0 0"/><path d="m52.257812 220.328125 4.109376-2.371094v4.742188zm0 0"/><path d="m52.257812 225.074219 4.109376-2.375v4.746093zm0 0"/><path d="m52.257812 229.816406 4.109376-2.371094v4.746094zm0 0"/><path d="m52.257812 234.5625 4.109376-2.371094v4.742188zm0 0"/><path d="m52.257812 239.304688 4.109376-2.371094v4.746094zm0 0"/><path d="m307.007812 101.714844 4.109376-2.371094v4.742188zm0 0"/><path d="m302.898438 99.34375 4.109374-2.371094v4.742188zm0 0"/><path d="m298.789062 96.972656 4.109376-2.375v4.746094zm0 0"/><path d="m294.679688 94.597656 4.109374-2.371094v4.746094zm0 0"/><path d="m290.574219 92.226562 4.105469-2.371093v4.742187zm0 0"/><path d="m286.464844 89.855469 4.109375-2.375v4.746093zm0 0"/><path d="m282.355469 87.480469 4.109375-2.371094v4.746094zm0 0"/><path d="m278.246094 85.109375 4.109375-2.371094v4.742188zm0 0"/><path d="m274.136719 82.738281 4.109375-2.371093v4.742187zm0 0"/><path d="m270.027344 80.367188 4.109375-2.375v4.746093zm0 0"/><path d="m265.917969 77.992188 4.109375-2.371094v4.746094zm0 0"/><path d="m261.808594 75.621094 4.109375-2.371094v4.742188zm0 0"/><path d="m257.703125 73.25 4.105469-2.375v4.746094zm0 0"/><path d="m253.59375 70.875 4.109375-2.371094v4.746094zm0 0"/><path d="m249.484375 68.503906 4.109375-2.371094v4.742188zm0 0"/><path d="m245.375 66.132812 4.109375-2.375v4.746094zm0 0"/><path d="m241.265625 63.757812 4.109375-2.371093v4.746093zm0 0"/><path d="m237.15625 61.386719 4.109375-2.371094v4.742187zm0 0"/><path d="m233.046875 59.015625 4.109375-2.371094v4.742188zm0 0"/><path d="m228.9375 56.644531 4.109375-2.375v4.746094zm0 0"/><path d="m224.832031 54.269531 4.105469-2.371093v4.746093zm0 0"/><path d="m220.722656 51.898438 4.109375-2.371094v4.742187zm0 0"/><path d="m216.613281 49.527344 4.109375-2.375v4.746094zm0 0"/><path d="m212.503906 47.152344 4.109375-2.371094v4.746094zm0 0"/><path d="m208.394531 44.78125 4.109375-2.371094v4.742188zm0 0"/><path d="m204.285156 42.410156 4.109375-2.375v4.746094zm0 0"/><path d="m200.175781 40.035156 4.109375-2.371094v4.746094zm0 0"/><path d="m196.070312 37.664062 4.105469-2.371093v4.742187zm0 0"/><path d="m191.960938 35.292969 4.109374-2.371094v4.742187zm0 0"/><path d="m187.851562 32.921875 4.109376-2.375v4.746094zm0 0"/><path d="m183.742188 30.546875 4.109374-2.371094v4.746094zm0 0"/><path d="m179.632812 28.175781 4.109376-2.371093v4.742187zm0 0"/><path d="m179.632812 331.824219 4.109376-2.371094v4.742187zm0 0"/><path d="m183.742188 329.453125 4.109374-2.375v4.746094zm0 0"/><path d="m187.851562 327.078125 4.109376-2.371094v4.746094zm0 0"/><path d="m191.960938 324.707031 4.109374-2.371093v4.742187zm0 0"/><path d="m196.070312 322.335938 4.105469-2.371094v4.742187zm0 0"/><path d="m200.175781 319.964844 4.109375-2.375v4.746094zm0 0"/><path d="m204.285156 317.589844 4.109375-2.371094v4.746094zm0 0"/><path d="m208.394531 315.21875 4.109375-2.371094v4.742188zm0 0"/><path d="m212.503906 312.847656 4.109375-2.375v4.746094zm0 0"/><path d="m216.613281 310.472656 4.109375-2.371094v4.746094zm0 0"/><path d="m220.722656 308.101562 4.109375-2.371093v4.742187zm0 0"/><path d="m224.832031 305.730469 4.105469-2.375v4.746093zm0 0"/><path d="m228.9375 303.355469 4.109375-2.371094v4.746094zm0 0"/><path d="m233.046875 300.984375 4.109375-2.371094v4.742188zm0 0"/><path d="m237.15625 298.613281 4.109375-2.371093v4.742187zm0 0"/><path d="m241.265625 296.242188 4.109375-2.375v4.746093zm0 0"/><path d="m245.375 293.867188 4.109375-2.371094v4.746094zm0 0"/><path d="m249.484375 291.496094 4.109375-2.371094v4.742188zm0 0"/><path d="m253.59375 289.125 4.109375-2.375v4.746094zm0 0"/><path d="m257.703125 286.75 4.105469-2.371094v4.746094zm0 0"/><path d="m261.808594 284.378906 4.109375-2.371094v4.742188zm0 0"/><path d="m265.917969 282.007812 4.109375-2.375v4.746094zm0 0"/><path d="m270.027344 279.632812 4.109375-2.371093v4.746093zm0 0"/><path d="m274.136719 277.261719 4.109375-2.371094v4.742187zm0 0"/><path d="m278.246094 274.890625 4.109375-2.371094v4.742188zm0 0"/><path d="m282.355469 272.519531 4.109375-2.375v4.746094zm0 0"/><path d="m286.464844 270.144531 4.109375-2.371093v4.746093zm0 0"/><path d="m290.574219 267.773438 4.105469-2.371094v4.742187zm0 0"/><path d="m294.679688 265.402344 4.109374-2.375v4.746094zm0 0"/><path d="m298.789062 263.027344 4.109376-2.371094v4.746094zm0 0"/><path d="m302.898438 260.65625 4.109374-2.371094v4.742188zm0 0"/><path d="m307.007812 258.285156 4.109376-2.371094v4.742188zm0 0"/><path d="m44.039062 106.460938 4.109376-2.375v4.746093zm0 0"/><path d="m44.039062 111.203125 4.109376-2.371094v4.746094zm0 0"/><path d="m44.039062 115.949219 4.109376-2.371094v4.742187zm0 0"/><path d="m44.039062 120.695312 4.109376-2.375v4.746094zm0 0"/><path d="m44.039062 125.4375 4.109376-2.371094v4.742188zm0 0"/><path d="m44.039062 130.183594 4.109376-2.375v4.746094zm0 0"/><path d="m44.039062 134.925781 4.109376-2.371093v4.746093zm0 0"/><path d="m44.039062 139.671875 4.109376-2.371094v4.742188zm0 0"/><path d="m44.039062 144.417969 4.109376-2.375v4.746093zm0 0"/><path d="m44.039062 149.160156 4.109376-2.371094v4.742188zm0 0"/><path d="m44.039062 153.90625 4.109376-2.375v4.746094zm0 0"/><path d="m44.039062 158.648438 4.109376-2.371094v4.746094zm0 0"/><path d="m44.039062 163.394531 4.109376-2.371093v4.742187zm0 0"/><path d="m44.039062 168.140625 4.109376-2.375v4.746094zm0 0"/><path d="m44.039062 172.882812 4.109376-2.371093v4.742187zm0 0"/><path d="m44.039062 177.628906 4.109376-2.375v4.746094zm0 0"/><path d="m44.039062 182.371094 4.109376-2.371094v4.746094zm0 0"/><path d="m44.039062 187.117188 4.109376-2.371094v4.742187zm0 0"/><path d="m44.039062 191.859375 4.109376-2.371094v4.746094zm0 0"/><path d="m44.039062 196.605469 4.109376-2.371094v4.742187zm0 0"/><path d="m44.039062 201.351562 4.109376-2.375v4.746094zm0 0"/><path d="m44.039062 206.09375 4.109376-2.371094v4.746094zm0 0"/><path d="m44.039062 210.839844 4.109376-2.371094v4.742188zm0 0"/><path d="m44.039062 215.582031 4.109376-2.371093v4.746093zm0 0"/><path d="m44.039062 220.328125 4.109376-2.371094v4.742188zm0 0"/><path d="m44.039062 225.074219 4.109376-2.375v4.746093zm0 0"/><path d="m44.039062 229.816406 4.109376-2.371094v4.746094zm0 0"/><path d="m44.039062 234.5625 4.109376-2.371094v4.742188zm0 0"/><path d="m44.039062 239.304688 4.109376-2.371094v4.746094zm0 0"/><path d="m44.039062 244.050781 4.109376-2.371093v4.742187zm0 0"/><path d="m44.039062 248.796875 4.109376-2.375v4.746094zm0 0"/><path d="m44.039062 253.539062 4.109376-2.371093v4.746093zm0 0"/><path d="m191.960938 182.371094-4.109376-2.371094v4.746094zm0 0"/><path d="m191.960938 177.628906-4.109376-2.375v4.746094zm0 0"/><path d="m179.632812 170.511719-4.109374-2.371094v4.742187zm0 0"/><path d="m175.523438 172.882812-4.109376-2.371093v4.742187zm0 0"/><path d="m175.523438 187.117188-4.109376-2.371094v4.742187zm0 0"/><path d="m179.632812 189.488281-4.109374-2.371093v4.742187zm0 0"/><path d="m200.175781 182.371094-4.105469-2.371094v4.746094zm0 0"/><path d="m200.175781 177.628906-4.105469-2.375v4.746094zm0 0"/><path d="m204.285156 184.746094-4.109375-2.375v4.746094zm0 0"/><path d="m204.285156 175.253906-4.109375-2.371094v4.746094zm0 0"/><path d="m175.523438 163.394531-4.109376-2.371093v4.742187zm0 0"/><path d="m171.414062 165.765625-4.109374-2.371094v4.746094zm0 0"/><path d="m171.414062 194.234375-4.109374-2.375v4.746094zm0 0"/><path d="m175.523438 196.605469-4.109376-2.371094v4.742187zm0 0"/><path d="m208.394531 187.117188-4.109375-2.371094v4.742187zm0 0"/><path d="m208.394531 172.882812-4.109375-2.371093v4.742187zm0 0"/><path d="m175.523438 158.648438-4.109376-2.371094v4.746094zm0 0"/><path d="m167.304688 163.394531-4.105469-2.371093v4.742187zm0 0"/><path d="m167.304688 196.605469-4.105469-2.371094v4.742187zm0 0"/><path d="m175.523438 201.351562-4.109376-2.375v4.746094zm0 0"/><path d="m212.503906 189.488281-4.109375-2.371093v4.742187zm0 0"/><path d="m212.503906 170.511719-4.109375-2.371094v4.742187zm0 0"/><path d="m175.523438 153.90625-4.109376-2.375v4.746094zm0 0"/><path d="m163.199219 161.023438-4.109375-2.375v4.746093zm0 0"/><path d="m163.199219 198.976562-4.109375-2.371093v4.746093zm0 0"/><path d="m175.523438 206.09375-4.109376-2.371094v4.746094zm0 0"/><path d="m216.613281 191.859375-4.109375-2.371094v4.746094zm0 0"/><path d="m216.613281 168.140625-4.109375-2.375v4.746094zm0 0"/><path d="m175.523438 149.160156-4.109376-2.371094v4.742188zm0 0"/><path d="m159.089844 158.648438-4.109375-2.371094v4.746094zm0 0"/><path d="m159.089844 201.351562-4.109375-2.375v4.746094zm0 0"/><path d="m175.523438 210.839844-4.109376-2.371094v4.742188zm0 0"/><path d="m220.722656 194.234375-4.109375-2.375v4.746094zm0 0"/><path d="m220.722656 165.765625-4.109375-2.371094v4.746094zm0 0"/><path d="m175.523438 144.417969-4.109376-2.375v4.746093zm0 0"/><path d="m154.980469 156.277344-4.109375-2.371094v4.742188zm0 0"/><path d="m154.980469 203.722656-4.109375-2.371094v4.742188zm0 0"/><path d="m175.523438 215.582031-4.109376-2.371093v4.746093zm0 0"/><path d="m224.832031 196.605469-4.109375-2.371094v4.742187zm0 0"/><path d="m224.832031 163.394531-4.109375-2.371093v4.742187zm0 0"/><path d="m175.523438 139.671875-4.109376-2.371094v4.742188zm0 0"/><path d="m150.871094 153.90625-4.109375-2.375v4.746094zm0 0"/><path d="m150.871094 206.09375-4.109375-2.371094v4.746094zm0 0"/><path d="m175.523438 220.328125-4.109376-2.371094v4.742188zm0 0"/><path d="m228.9375 198.976562-4.105469-2.371093v4.746093zm0 0"/><path d="m228.9375 161.023438-4.105469-2.375v4.746093zm0 0"/><path d="m175.523438 134.925781-4.109376-2.371093v4.746093zm0 0"/><path d="m146.761719 151.53125-4.109375-2.371094v4.746094zm0 0"/><path d="m146.761719 208.46875-4.109375-2.375v4.746094zm0 0"/><path d="m175.523438 225.074219-4.109376-2.375v4.746093zm0 0"/><path d="m233.046875 201.351562-4.109375-2.375v4.746094zm0 0"/><path d="m233.046875 158.648438-4.109375-2.371094v4.746094zm0 0"/><path d="m175.523438 130.183594-4.109376-2.375v4.746094zm0 0"/><path d="m142.652344 149.160156-4.109375-2.371094v4.742188zm0 0"/><path d="m142.652344 210.839844-4.109375-2.371094v4.742188zm0 0"/><path d="m175.523438 229.816406-4.109376-2.371094v4.746094zm0 0"/><path d="m237.15625 203.722656-4.109375-2.371094v4.742188zm0 0"/><path d="m237.15625 156.277344-4.109375-2.371094v4.742188zm0 0"/><path d="m175.523438 125.4375-4.109376-2.371094v4.742188zm0 0"/><path d="m138.542969 146.789062-4.109375-2.371093v4.742187zm0 0"/><path d="m138.542969 213.210938-4.109375-2.371094v4.742187zm0 0"/><path d="m175.523438 234.5625-4.109376-2.371094v4.742188zm0 0"/><path d="m241.265625 206.09375-4.109375-2.371094v4.746094zm0 0"/><path d="m241.265625 153.90625-4.109375-2.375v4.746094zm0 0"/><path d="m175.523438 120.695312-4.109376-2.375v4.746094zm0 0"/><path d="m134.433594 144.417969-4.105469-2.375v4.746093zm0 0"/><path d="m134.433594 215.582031-4.105469-2.371093v4.746093zm0 0"/><path d="m175.523438 239.304688-4.109376-2.371094v4.746094zm0 0"/><path d="m245.375 208.46875-4.109375-2.375v4.746094zm0 0"/><path d="m245.375 151.53125-4.109375-2.371094v4.746094zm0 0"/><path d="m175.523438 115.949219-4.109376-2.371094v4.742187zm0 0"/><path d="m130.328125 142.042969-4.109375-2.371094v4.746094zm0 0"/><path d="m130.328125 217.957031-4.109375-2.375v4.746094zm0 0"/><path d="m175.523438 244.050781-4.109376-2.371093v4.742187zm0 0"/><path d="m249.484375 210.839844-4.109375-2.371094v4.742188zm0 0"/><path d="m249.484375 149.160156-4.109375-2.371094v4.742188zm0 0"/><path d="m175.523438 111.203125-4.109376-2.371094v4.746094zm0 0"/><path d="m126.21875 139.671875-4.109375-2.371094v4.742188zm0 0"/><path d="m126.21875 220.328125-4.109375-2.371094v4.742188zm0 0"/><path d="m175.523438 248.796875-4.109376-2.375v4.746094zm0 0"/><path d="m253.59375 213.210938-4.109375-2.371094v4.742187zm0 0"/><path d="m253.59375 146.789062-4.109375-2.371093v4.742187zm0 0"/><path d="m175.523438 106.460938-4.109376-2.375v4.746093zm0 0"/><path d="m122.109375 137.300781-4.109375-2.375v4.746094zm0 0"/><path d="m122.109375 222.699219-4.109375-2.371094v4.746094zm0 0"/><path d="m175.523438 253.539062-4.109376-2.371093v4.746093zm0 0"/><path d="m257.703125 215.582031-4.109375-2.371093v4.746093zm0 0"/><path d="m257.703125 144.417969-4.109375-2.375v4.746093zm0 0"/><path d="m175.523438 101.714844-4.109376-2.371094v4.742188zm0 0"/><path d="m118 134.925781-4.109375-2.371093v4.746093zm0 0"/><path d="m118 225.074219-4.109375-2.375v4.746093zm0 0"/><path d="m175.523438 258.285156-4.109376-2.371094v4.742188zm0 0"/><path d="m261.808594 217.957031-4.105469-2.375v4.746094zm0 0"/><path d="m261.808594 142.042969-4.105469-2.371094v4.746094zm0 0"/><path d="m175.523438 96.972656-4.109376-2.375v4.746094zm0 0"/><path d="m113.890625 132.554688-4.109375-2.371094v4.742187zm0 0"/><path d="m113.890625 227.445312-4.109375-2.371093v4.742187zm0 0"/><path d="m175.523438 263.027344-4.109376-2.371094v4.746094zm0 0"/><path d="m265.917969 220.328125-4.109375-2.371094v4.742188zm0 0"/><path d="m265.917969 139.671875-4.109375-2.371094v4.742188zm0 0"/><path d="m175.523438 92.226562-4.109376-2.371093v4.742187zm0 0"/><path d="m109.78125 130.183594-4.109375-2.375v4.746094zm0 0"/><path d="m109.78125 229.816406-4.109375-2.371094v4.746094zm0 0"/><path d="m175.523438 267.773438-4.109376-2.371094v4.742187zm0 0"/><path d="m270.027344 222.699219-4.109375-2.371094v4.746094zm0 0"/><path d="m270.027344 137.300781-4.109375-2.375v4.746094zm0 0"/><path d="m175.523438 87.480469-4.109376-2.371094v4.746094zm0 0"/><path d="m105.671875 127.808594-4.105469-2.371094v4.746094zm0 0"/><path d="m105.671875 232.191406-4.105469-2.375v4.746094zm0 0"/><path d="m175.523438 272.519531-4.109376-2.375v4.746094zm0 0"/><path d="m274.136719 225.074219-4.109375-2.375v4.746093zm0 0"/><path d="m274.136719 134.925781-4.109375-2.371093v4.746093zm0 0"/><path d="m175.523438 82.738281-4.109376-2.371093v4.742187zm0 0"/><path d="m101.566406 125.4375-4.109375-2.371094v4.742188zm0 0"/><path d="m101.566406 234.5625-4.109375-2.371094v4.742188zm0 0"/><path d="m175.523438 277.261719-4.109376-2.371094v4.742187zm0 0"/><path d="m278.246094 227.445312-4.109375-2.371093v4.742187zm0 0"/><path d="m278.246094 132.554688-4.109375-2.371094v4.742187zm0 0"/><path d="m175.523438 77.992188-4.109376-2.371094v4.746094zm0 0"/><path d="m97.457031 123.066406-4.109375-2.371094v4.742188zm0 0"/><path d="m97.457031 236.933594-4.109375-2.371094v4.742188zm0 0"/><path d="m175.523438 282.007812-4.109376-2.375v4.746094zm0 0"/><path d="m282.355469 229.816406-4.109375-2.371094v4.746094zm0 0"/><path d="m282.355469 130.183594-4.109375-2.375v4.746094zm0 0"/><path d="m175.523438 73.25-4.109376-2.375v4.746094zm0 0"/><path d="m93.347656 120.695312-4.109375-2.375v4.746094zm0 0"/><path d="m93.347656 239.304688-4.109375-2.371094v4.746094zm0 0"/><path d="m175.523438 286.75-4.109376-2.371094v4.746094zm0 0"/><path d="m286.464844 232.191406-4.109375-2.375v4.746094zm0 0"/><path d="m286.464844 127.808594-4.109375-2.371094v4.746094zm0 0"/><path d="m175.523438 68.503906-4.109376-2.371094v4.742188zm0 0"/><path d="m89.238281 118.320312-4.109375-2.371093v4.746093zm0 0"/><path d="m89.238281 241.679688-4.109375-2.375v4.746093zm0 0"/><path d="m175.523438 291.496094-4.109376-2.371094v4.742188zm0 0"/><path d="m290.574219 239.304688-4.109375-2.371094v4.746094zm0 0"/><path d="m290.574219 229.816406-4.109375-2.371094v4.746094zm0 0"/><path d="m290.574219 225.074219-4.109375-2.375v4.746093zm0 0"/><path d="m290.574219 220.328125-4.109375-2.371094v4.742188zm0 0"/><path d="m290.574219 215.582031-4.109375-2.371093v4.746093zm0 0"/><path d="m290.574219 210.839844-4.109375-2.371094v4.742188zm0 0"/><path d="m290.574219 206.09375-4.109375-2.371094v4.746094zm0 0"/><path d="m290.574219 201.351562-4.109375-2.375v4.746094zm0 0"/><path d="m290.574219 196.605469-4.109375-2.371094v4.742187zm0 0"/><path d="m290.574219 191.859375-4.109375-2.371094v4.746094zm0 0"/><path d="m290.574219 187.117188-4.109375-2.371094v4.742187zm0 0"/><path d="m290.574219 182.371094-4.109375-2.371094v4.746094zm0 0"/><path d="m290.574219 177.628906-4.109375-2.375v4.746094zm0 0"/><path d="m290.574219 172.882812-4.109375-2.371093v4.742187zm0 0"/><path d="m290.574219 168.140625-4.109375-2.375v4.746094zm0 0"/><path d="m290.574219 163.394531-4.109375-2.371093v4.742187zm0 0"/><path d="m290.574219 158.648438-4.109375-2.371094v4.746094zm0 0"/><path d="m290.574219 153.90625-4.109375-2.375v4.746094zm0 0"/><path d="m290.574219 149.160156-4.109375-2.371094v4.742188zm0 0"/><path d="m290.574219 144.417969-4.109375-2.375v4.746093zm0 0"/><path d="m290.574219 139.671875-4.109375-2.371094v4.742188zm0 0"/><path d="m290.574219 134.925781-4.109375-2.371093v4.746093zm0 0"/><path d="m290.574219 130.183594-4.109375-2.375v4.746094zm0 0"/><path d="m290.574219 120.695312-4.109375-2.375v4.746094zm0 0"/><path d="m175.523438 63.757812-4.109376-2.371093v4.746093zm0 0"/><path d="m85.128906 115.949219-4.109375-2.371094v4.742187zm0 0"/><path d="m85.128906 244.050781-4.109375-2.371093v4.742187zm0 0"/><path d="m175.523438 296.242188-4.109376-2.375v4.746093zm0 0"/><path d="m294.679688 236.933594-4.105469-2.371094v4.742188zm0 0"/><path d="m294.679688 123.066406-4.105469-2.371094v4.742188zm0 0"/><path d="m179.632812 56.644531-4.109374-2.375v4.746094zm0 0"/><path d="m171.414062 61.386719-4.109374-2.371094v4.742187zm0 0"/><path d="m167.304688 63.757812-4.105469-2.371093v4.746093zm0 0"/><path d="m163.199219 66.132812-4.109375-2.375v4.746094zm0 0"/><path d="m159.089844 68.503906-4.109375-2.371094v4.742188zm0 0"/><path d="m154.980469 70.875-4.109375-2.371094v4.746094zm0 0"/><path d="m150.871094 73.25-4.109375-2.375v4.746094zm0 0"/><path d="m146.761719 75.621094-4.109375-2.371094v4.742188zm0 0"/><path d="m142.652344 77.992188-4.109375-2.371094v4.746094zm0 0"/><path d="m138.542969 80.367188-4.109375-2.375v4.746093zm0 0"/><path d="m134.433594 82.738281-4.105469-2.371093v4.742187zm0 0"/><path d="m130.328125 85.109375-4.109375-2.371094v4.742188zm0 0"/><path d="m126.21875 87.480469-4.109375-2.371094v4.746094zm0 0"/><path d="m122.109375 89.855469-4.109375-2.375v4.746093zm0 0"/><path d="m118 92.226562-4.109375-2.371093v4.742187zm0 0"/><path d="m113.890625 94.597656-4.109375-2.371094v4.746094zm0 0"/><path d="m109.78125 96.972656-4.109375-2.375v4.746094zm0 0"/><path d="m105.671875 99.34375-4.105469-2.371094v4.742188zm0 0"/><path d="m101.566406 101.714844-4.109375-2.371094v4.742188zm0 0"/><path d="m97.457031 104.085938-4.109375-2.371094v4.746094zm0 0"/><path d="m93.347656 106.460938-4.109375-2.375v4.746093zm0 0"/><path d="m89.238281 108.832031-4.109375-2.371093v4.742187zm0 0"/><path d="m85.128906 111.203125-4.109375-2.371094v4.746094zm0 0"/><path d="m76.910156 115.949219-4.109375-2.371094v4.742187zm0 0"/><path d="m76.910156 244.050781-4.109375-2.371093v4.742187zm0 0"/><path d="m85.128906 248.796875-4.109375-2.375v4.746094zm0 0"/><path d="m89.238281 251.167969-4.109375-2.371094v4.742187zm0 0"/><path d="m93.347656 253.539062-4.109375-2.371093v4.746093zm0 0"/><path d="m97.457031 255.914062-4.109375-2.375v4.746094zm0 0"/><path d="m101.566406 258.285156-4.109375-2.371094v4.742188zm0 0"/><path d="m105.671875 260.65625-4.105469-2.371094v4.742188zm0 0"/><path d="m109.78125 263.027344-4.109375-2.371094v4.746094zm0 0"/><path d="m113.890625 265.402344-4.109375-2.375v4.746094zm0 0"/><path d="m118 267.773438-4.109375-2.371094v4.742187zm0 0"/><path d="m122.109375 270.144531-4.109375-2.371093v4.746093zm0 0"/><path d="m126.21875 272.519531-4.109375-2.375v4.746094zm0 0"/><path d="m130.328125 274.890625-4.109375-2.371094v4.742188zm0 0"/><path d="m134.433594 277.261719-4.105469-2.371094v4.742187zm0 0"/><path d="m138.542969 279.632812-4.109375-2.371093v4.746093zm0 0"/><path d="m142.652344 282.007812-4.109375-2.375v4.746094zm0 0"/><path d="m146.761719 284.378906-4.109375-2.371094v4.742188zm0 0"/><path d="m150.871094 286.75-4.109375-2.371094v4.746094zm0 0"/><path d="m154.980469 289.125-4.109375-2.375v4.746094zm0 0"/><path d="m159.089844 291.496094-4.109375-2.371094v4.742188zm0 0"/><path d="m163.199219 293.867188-4.109375-2.371094v4.746094zm0 0"/><path d="m167.304688 296.242188-4.105469-2.375v4.746093zm0 0"/><path d="m171.414062 298.613281-4.109374-2.371093v4.742187zm0 0"/><path d="m179.632812 303.355469-4.109374-2.371094v4.746094zm0 0"/><path d="m298.789062 244.050781-4.109374-2.371093v4.742187zm0 0"/><path d="m298.789062 234.5625-4.109374-2.371094v4.742188zm0 0"/><path d="m298.789062 229.816406-4.109374-2.371094v4.746094zm0 0"/><path d="m298.789062 225.074219-4.109374-2.375v4.746093zm0 0"/><path d="m298.789062 220.328125-4.109374-2.371094v4.742188zm0 0"/><path d="m298.789062 215.582031-4.109374-2.371093v4.746093zm0 0"/><path d="m298.789062 210.839844-4.109374-2.371094v4.742188zm0 0"/><path d="m298.789062 206.09375-4.109374-2.371094v4.746094zm0 0"/><path d="m298.789062 201.351562-4.109374-2.375v4.746094zm0 0"/><path d="m298.789062 196.605469-4.109374-2.371094v4.742187zm0 0"/><path d="m298.789062 191.859375-4.109374-2.371094v4.746094zm0 0"/><path d="m298.789062 187.117188-4.109374-2.371094v4.742187zm0 0"/><path d="m298.789062 182.371094-4.109374-2.371094v4.746094zm0 0"/><path d="m298.789062 177.628906-4.109374-2.375v4.746094zm0 0"/><path d="m298.789062 172.882812-4.109374-2.371093v4.742187zm0 0"/><path d="m298.789062 168.140625-4.109374-2.375v4.746094zm0 0"/><path d="m298.789062 163.394531-4.109374-2.371093v4.742187zm0 0"/><path d="m298.789062 158.648438-4.109374-2.371094v4.746094zm0 0"/><path d="m298.789062 153.90625-4.109374-2.375v4.746094zm0 0"/><path d="m298.789062 149.160156-4.109374-2.371094v4.742188zm0 0"/><path d="m298.789062 144.417969-4.109374-2.375v4.746093zm0 0"/><path d="m298.789062 139.671875-4.109374-2.371094v4.742188zm0 0"/><path d="m298.789062 134.925781-4.109374-2.371093v4.746093zm0 0"/><path d="m298.789062 130.183594-4.109374-2.375v4.746094zm0 0"/><path d="m298.789062 125.4375-4.109374-2.371094v4.742188zm0 0"/><path d="m298.789062 115.949219-4.109374-2.371094v4.742187zm0 0"/><path d="m175.523438 54.269531-4.109376-2.371093v4.746093zm0 0"/><path d="m76.910156 111.203125-4.109375-2.371094v4.746094zm0 0"/><path d="m76.910156 248.796875-4.109375-2.375v4.746094zm0 0"/><path d="m175.523438 305.730469-4.109376-2.375v4.746093zm0 0"/><path d="m302.898438 241.679688-4.109376-2.375v4.746093zm0 0"/><path d="m302.898438 118.320312-4.109376-2.371093v4.746093zm0 0"/><path d="m179.632812 47.152344-4.109374-2.371094v4.746094zm0 0"/><path d="m171.414062 51.898438-4.109374-2.371094v4.742187zm0 0"/><path d="m167.304688 54.269531-4.105469-2.371093v4.746093zm0 0"/><path d="m163.199219 56.644531-4.109375-2.375v4.746094zm0 0"/><path d="m159.089844 59.015625-4.109375-2.371094v4.742188zm0 0"/><path d="m154.980469 61.386719-4.109375-2.371094v4.742187zm0 0"/><path d="m150.871094 63.757812-4.109375-2.371093v4.746093zm0 0"/><path d="m146.761719 66.132812-4.109375-2.375v4.746094zm0 0"/><path d="m142.652344 68.503906-4.109375-2.371094v4.742188zm0 0"/><path d="m138.542969 70.875-4.109375-2.371094v4.746094zm0 0"/><path d="m134.433594 73.25-4.105469-2.375v4.746094zm0 0"/><path d="m130.328125 75.621094-4.109375-2.371094v4.742188zm0 0"/><path d="m126.21875 77.992188-4.109375-2.371094v4.746094zm0 0"/><path d="m122.109375 80.367188-4.109375-2.375v4.746093zm0 0"/><path d="m118 82.738281-4.109375-2.371093v4.742187zm0 0"/><path d="m113.890625 85.109375-4.109375-2.371094v4.742188zm0 0"/><path d="m109.78125 87.480469-4.109375-2.371094v4.746094zm0 0"/><path d="m105.671875 89.855469-4.105469-2.375v4.746093zm0 0"/><path d="m101.566406 92.226562-4.109375-2.371093v4.742187zm0 0"/><path d="m97.457031 94.597656-4.109375-2.371094v4.746094zm0 0"/><path d="m93.347656 96.972656-4.109375-2.375v4.746094zm0 0"/><path d="m89.238281 99.34375-4.109375-2.371094v4.742188zm0 0"/><path d="m85.128906 101.714844-4.109375-2.371094v4.742188zm0 0"/><path d="m81.019531 104.085938-4.109375-2.371094v4.746094zm0 0"/><path d="m76.910156 106.460938-4.109375-2.375v4.746093zm0 0"/><path d="m68.695312 111.203125-4.109374-2.371094v4.746094zm0 0"/><path d="m68.695312 248.796875-4.109374-2.375v4.746094zm0 0"/><path d="m76.910156 253.539062-4.109375-2.371093v4.746093zm0 0"/><path d="m81.019531 255.914062-4.109375-2.375v4.746094zm0 0"/><path d="m85.128906 258.285156-4.109375-2.371094v4.742188zm0 0"/><path d="m89.238281 260.65625-4.109375-2.371094v4.742188zm0 0"/><path d="m93.347656 263.027344-4.109375-2.371094v4.746094zm0 0"/><path d="m97.457031 265.402344-4.109375-2.375v4.746094zm0 0"/><path d="m101.566406 267.773438-4.109375-2.371094v4.742187zm0 0"/><path d="m105.671875 270.144531-4.105469-2.371093v4.746093zm0 0"/><path d="m109.78125 272.519531-4.109375-2.375v4.746094zm0 0"/><path d="m113.890625 274.890625-4.109375-2.371094v4.742188zm0 0"/><path d="m118 277.261719-4.109375-2.371094v4.742187zm0 0"/><path d="m122.109375 279.632812-4.109375-2.371093v4.746093zm0 0"/><path d="m126.21875 282.007812-4.109375-2.375v4.746094zm0 0"/><path d="m130.328125 284.378906-4.109375-2.371094v4.742188zm0 0"/><path d="m134.433594 286.75-4.105469-2.371094v4.746094zm0 0"/><path d="m138.542969 289.125-4.109375-2.375v4.746094zm0 0"/><path d="m142.652344 291.496094-4.109375-2.371094v4.742188zm0 0"/><path d="m146.761719 293.867188-4.109375-2.371094v4.746094zm0 0"/><path d="m150.871094 296.242188-4.109375-2.375v4.746093zm0 0"/><path d="m154.980469 298.613281-4.109375-2.371093v4.742187zm0 0"/><path d="m159.089844 300.984375-4.109375-2.371094v4.742188zm0 0"/><path d="m163.199219 303.355469-4.109375-2.371094v4.746094zm0 0"/><path d="m167.304688 305.730469-4.105469-2.375v4.746093zm0 0"/><path d="m171.414062 308.101562-4.109374-2.371093v4.742187zm0 0"/><path d="m179.632812 312.847656-4.109374-2.375v4.746094zm0 0"/><path d="m307.007812 239.304688-4.109374-2.371094v4.746094zm0 0"/><path d="m307.007812 234.5625-4.109374-2.371094v4.742188zm0 0"/><path d="m307.007812 229.816406-4.109374-2.371094v4.746094zm0 0"/><path d="m307.007812 225.074219-4.109374-2.375v4.746093zm0 0"/><path d="m307.007812 220.328125-4.109374-2.371094v4.742188zm0 0"/><path d="m307.007812 215.582031-4.109374-2.371093v4.746093zm0 0"/><path d="m307.007812 210.839844-4.109374-2.371094v4.742188zm0 0"/><path d="m307.007812 206.09375-4.109374-2.371094v4.746094zm0 0"/><path d="m307.007812 201.351562-4.109374-2.375v4.746094zm0 0"/><path d="m307.007812 196.605469-4.109374-2.371094v4.742187zm0 0"/><path d="m307.007812 191.859375-4.109374-2.371094v4.746094zm0 0"/><path d="m307.007812 187.117188-4.109374-2.371094v4.742187zm0 0"/><path d="m307.007812 182.371094-4.109374-2.371094v4.746094zm0 0"/><path d="m307.007812 177.628906-4.109374-2.375v4.746094zm0 0"/><path d="m307.007812 172.882812-4.109374-2.371093v4.742187zm0 0"/><path d="m307.007812 168.140625-4.109374-2.375v4.746094zm0 0"/><path d="m307.007812 163.394531-4.109374-2.371093v4.742187zm0 0"/><path d="m307.007812 158.648438-4.109374-2.371094v4.746094zm0 0"/><path d="m307.007812 153.90625-4.109374-2.375v4.746094zm0 0"/><path d="m307.007812 149.160156-4.109374-2.371094v4.742188zm0 0"/><path d="m307.007812 144.417969-4.109374-2.375v4.746093zm0 0"/><path d="m307.007812 139.671875-4.109374-2.371094v4.742188zm0 0"/><path d="m307.007812 134.925781-4.109374-2.371093v4.746093zm0 0"/><path d="m307.007812 130.183594-4.109374-2.375v4.746094zm0 0"/><path d="m307.007812 125.4375-4.109374-2.371094v4.742188zm0 0"/><path d="m307.007812 120.695312-4.109374-2.375v4.746094zm0 0"/><path d="m175.523438 44.78125-4.109376-2.371094v4.742188zm0 0"/><path d="m68.695312 106.460938-4.109374-2.375v4.746093zm0 0"/><path d="m68.695312 253.539062-4.109374-2.371093v4.746093zm0 0"/><path d="m175.523438 315.21875-4.109376-2.371094v4.742188zm0 0"/><path d="m171.414062 42.410156-4.109374-2.375v4.746094zm0 0"/><path d="m167.304688 44.78125-4.105469-2.371094v4.742188zm0 0"/><path d="m163.199219 47.152344-4.109375-2.371094v4.746094zm0 0"/><path d="m159.089844 49.527344-4.109375-2.375v4.746094zm0 0"/><path d="m154.980469 51.898438-4.109375-2.371094v4.742187zm0 0"/><path d="m150.871094 54.269531-4.109375-2.371093v4.746093zm0 0"/><path d="m146.761719 56.644531-4.109375-2.375v4.746094zm0 0"/><path d="m142.652344 59.015625-4.109375-2.371094v4.742188zm0 0"/><path d="m138.542969 61.386719-4.109375-2.371094v4.742187zm0 0"/><path d="m134.433594 63.757812-4.105469-2.371093v4.746093zm0 0"/><path d="m130.328125 66.132812-4.109375-2.375v4.746094zm0 0"/><path d="m126.21875 68.503906-4.109375-2.371094v4.742188zm0 0"/><path d="m122.109375 70.875-4.109375-2.371094v4.746094zm0 0"/><path d="m118 73.25-4.109375-2.375v4.746094zm0 0"/><path d="m113.890625 75.621094-4.109375-2.371094v4.742188zm0 0"/><path d="m109.78125 77.992188-4.109375-2.371094v4.746094zm0 0"/><path d="m105.671875 80.367188-4.105469-2.375v4.746093zm0 0"/><path d="m101.566406 82.738281-4.109375-2.371093v4.742187zm0 0"/><path d="m97.457031 85.109375-4.109375-2.371094v4.742188zm0 0"/><path d="m93.347656 87.480469-4.109375-2.371094v4.746094zm0 0"/><path d="m89.238281 89.855469-4.109375-2.375v4.746093zm0 0"/><path d="m85.128906 92.226562-4.109375-2.371093v4.742187zm0 0"/><path d="m81.019531 94.597656-4.109375-2.371094v4.746094zm0 0"/><path d="m76.910156 96.972656-4.109375-2.375v4.746094zm0 0"/><path d="m72.800781 99.34375-4.105469-2.371094v4.742188zm0 0"/><path d="m68.695312 101.714844-4.109374-2.371094v4.742188zm0 0"/><path d="m68.695312 258.285156-4.109374-2.371094v4.742188zm0 0"/><path d="m72.800781 260.65625-4.105469-2.371094v4.742188zm0 0"/><path d="m76.910156 263.027344-4.109375-2.371094v4.746094zm0 0"/><path d="m81.019531 265.402344-4.109375-2.375v4.746094zm0 0"/><path d="m85.128906 267.773438-4.109375-2.371094v4.742187zm0 0"/><path d="m89.238281 270.144531-4.109375-2.371093v4.746093zm0 0"/><path d="m93.347656 272.519531-4.109375-2.375v4.746094zm0 0"/><path d="m97.457031 274.890625-4.109375-2.371094v4.742188zm0 0"/><path d="m101.566406 277.261719-4.109375-2.371094v4.742187zm0 0"/><path d="m105.671875 279.632812-4.105469-2.371093v4.746093zm0 0"/><path d="m109.78125 282.007812-4.109375-2.375v4.746094zm0 0"/><path d="m113.890625 284.378906-4.109375-2.371094v4.742188zm0 0"/><path d="m118 286.75-4.109375-2.371094v4.746094zm0 0"/><path d="m122.109375 289.125-4.109375-2.375v4.746094zm0 0"/><path d="m126.21875 291.496094-4.109375-2.371094v4.742188zm0 0"/><path d="m130.328125 293.867188-4.109375-2.371094v4.746094zm0 0"/><path d="m134.433594 296.242188-4.105469-2.375v4.746093zm0 0"/><path d="m138.542969 298.613281-4.109375-2.371093v4.742187zm0 0"/><path d="m142.652344 300.984375-4.109375-2.371094v4.742188zm0 0"/><path d="m146.761719 303.355469-4.109375-2.371094v4.746094zm0 0"/><path d="m150.871094 305.730469-4.109375-2.375v4.746093zm0 0"/><path d="m154.980469 308.101562-4.109375-2.371093v4.742187zm0 0"/><path d="m159.089844 310.472656-4.109375-2.371094v4.746094zm0 0"/><path d="m163.199219 312.847656-4.109375-2.375v4.746094zm0 0"/><path d="m167.304688 315.21875-4.105469-2.371094v4.742188zm0 0"/><path d="m171.414062 317.589844-4.109374-2.371094v4.746094zm0 0"/><path d="m315.226562 253.539062-4.109374-2.371093v4.746093zm0 0"/><path d="m315.226562 248.796875-4.109374-2.375v4.746094zm0 0"/><path d="m315.226562 244.050781-4.109374-2.371093v4.742187zm0 0"/><path d="m315.226562 239.304688-4.109374-2.371094v4.746094zm0 0"/><path d="m315.226562 234.5625-4.109374-2.371094v4.742188zm0 0"/><path d="m315.226562 229.816406-4.109374-2.371094v4.746094zm0 0"/><path d="m315.226562 225.074219-4.109374-2.375v4.746093zm0 0"/><path d="m315.226562 220.328125-4.109374-2.371094v4.742188zm0 0"/><path d="m315.226562 215.582031-4.109374-2.371093v4.746093zm0 0"/><path d="m315.226562 210.839844-4.109374-2.371094v4.742188zm0 0"/><path d="m315.226562 206.09375-4.109374-2.371094v4.746094zm0 0"/><path d="m315.226562 201.351562-4.109374-2.375v4.746094zm0 0"/><path d="m315.226562 196.605469-4.109374-2.371094v4.742187zm0 0"/><path d="m315.226562 191.859375-4.109374-2.371094v4.746094zm0 0"/><path d="m315.226562 187.117188-4.109374-2.371094v4.742187zm0 0"/><path d="m315.226562 182.371094-4.109374-2.371094v4.746094zm0 0"/><path d="m315.226562 177.628906-4.109374-2.375v4.746094zm0 0"/><path d="m315.226562 172.882812-4.109374-2.371093v4.742187zm0 0"/><path d="m315.226562 168.140625-4.109374-2.375v4.746094zm0 0"/><path d="m315.226562 163.394531-4.109374-2.371093v4.742187zm0 0"/><path d="m315.226562 158.648438-4.109374-2.371094v4.746094zm0 0"/><path d="m315.226562 153.90625-4.109374-2.375v4.746094zm0 0"/><path d="m315.226562 149.160156-4.109374-2.371094v4.742188zm0 0"/><path d="m315.226562 144.417969-4.109374-2.375v4.746093zm0 0"/><path d="m315.226562 139.671875-4.109374-2.371094v4.742188zm0 0"/><path d="m315.226562 134.925781-4.109374-2.371093v4.746093zm0 0"/><path d="m315.226562 130.183594-4.109374-2.375v4.746094zm0 0"/><path d="m315.226562 125.4375-4.109374-2.371094v4.742188zm0 0"/><path d="m315.226562 120.695312-4.109374-2.375v4.746094zm0 0"/><path d="m315.226562 115.949219-4.109374-2.371094v4.742187zm0 0"/><path d="m315.226562 111.203125-4.109374-2.371094v4.746094zm0 0"/><path d="m315.226562 106.460938-4.109374-2.375v4.746093zm0 0"/><path d="m179.632812 28.175781-4.109374-2.371093v4.742187zm0 0"/><path d="m175.523438 30.546875-4.109376-2.371094v4.746094zm0 0"/><path d="m171.414062 32.921875-4.109374-2.375v4.746094zm0 0"/><path d="m167.304688 35.292969-4.105469-2.371094v4.742187zm0 0"/><path d="m163.199219 37.664062-4.109375-2.371093v4.742187zm0 0"/><path d="m159.089844 40.035156-4.109375-2.371094v4.746094zm0 0"/><path d="m154.980469 42.410156-4.109375-2.375v4.746094zm0 0"/><path d="m150.871094 44.78125-4.109375-2.371094v4.742188zm0 0"/><path d="m146.761719 47.152344-4.109375-2.371094v4.746094zm0 0"/><path d="m142.652344 49.527344-4.109375-2.375v4.746094zm0 0"/><path d="m138.542969 51.898438-4.109375-2.371094v4.742187zm0 0"/><path d="m134.433594 54.269531-4.105469-2.371093v4.746093zm0 0"/><path d="m130.328125 56.644531-4.109375-2.375v4.746094zm0 0"/><path d="m126.21875 59.015625-4.109375-2.371094v4.742188zm0 0"/><path d="m122.109375 61.386719-4.109375-2.371094v4.742187zm0 0"/><path d="m118 63.757812-4.109375-2.371093v4.746093zm0 0"/><path d="m113.890625 66.132812-4.109375-2.375v4.746094zm0 0"/><path d="m109.78125 68.503906-4.109375-2.371094v4.742188zm0 0"/><path d="m105.671875 70.875-4.105469-2.371094v4.746094zm0 0"/><path d="m101.566406 73.25-4.109375-2.375v4.746094zm0 0"/><path d="m97.457031 75.621094-4.109375-2.371094v4.742188zm0 0"/><path d="m93.347656 77.992188-4.109375-2.371094v4.746094zm0 0"/><path d="m89.238281 80.367188-4.109375-2.375v4.746093zm0 0"/><path d="m85.128906 82.738281-4.109375-2.371093v4.742187zm0 0"/><path d="m81.019531 85.109375-4.109375-2.371094v4.742188zm0 0"/><path d="m76.910156 87.480469-4.109375-2.371094v4.746094zm0 0"/><path d="m72.800781 89.855469-4.105469-2.375v4.746093zm0 0"/><path d="m68.695312 92.226562-4.109374-2.371093v4.742187zm0 0"/><path d="m64.585938 94.597656-4.109376-2.371094v4.746094zm0 0"/><path d="m60.476562 96.972656-4.109374-2.375v4.746094zm0 0"/><path d="m56.367188 99.34375-4.109376-2.371094v4.742188zm0 0"/><path d="m52.257812 101.714844-4.109374-2.371094v4.742188zm0 0"/><path d="m52.257812 258.285156-4.109374-2.371094v4.742188zm0 0"/><path d="m56.367188 260.65625-4.109376-2.371094v4.742188zm0 0"/><path d="m60.476562 263.027344-4.109374-2.371094v4.746094zm0 0"/><path d="m64.585938 265.402344-4.109376-2.375v4.746094zm0 0"/><path d="m68.695312 267.773438-4.109374-2.371094v4.742187zm0 0"/><path d="m72.800781 270.144531-4.105469-2.371093v4.746093zm0 0"/><path d="m76.910156 272.519531-4.109375-2.375v4.746094zm0 0"/><path d="m81.019531 274.890625-4.109375-2.371094v4.742188zm0 0"/><path d="m85.128906 277.261719-4.109375-2.371094v4.742187zm0 0"/><path d="m89.238281 279.632812-4.109375-2.371093v4.746093zm0 0"/><path d="m93.347656 282.007812-4.109375-2.375v4.746094zm0 0"/><path d="m97.457031 284.378906-4.109375-2.371094v4.742188zm0 0"/><path d="m101.566406 286.75-4.109375-2.371094v4.746094zm0 0"/><path d="m105.671875 289.125-4.105469-2.375v4.746094zm0 0"/><path d="m109.78125 291.496094-4.109375-2.371094v4.742188zm0 0"/><path d="m113.890625 293.867188-4.109375-2.371094v4.746094zm0 0"/><path d="m118 296.242188-4.109375-2.375v4.746093zm0 0"/><path d="m122.109375 298.613281-4.109375-2.371093v4.742187zm0 0"/><path d="m126.21875 300.984375-4.109375-2.371094v4.742188zm0 0"/><path d="m130.328125 303.355469-4.109375-2.371094v4.746094zm0 0"/><path d="m134.433594 305.730469-4.105469-2.375v4.746093zm0 0"/><path d="m138.542969 308.101562-4.109375-2.371093v4.742187zm0 0"/><path d="m142.652344 310.472656-4.109375-2.371094v4.746094zm0 0"/><path d="m146.761719 312.847656-4.109375-2.375v4.746094zm0 0"/><path d="m150.871094 315.21875-4.109375-2.371094v4.742188zm0 0"/><path d="m154.980469 317.589844-4.109375-2.371094v4.746094zm0 0"/><path d="m159.089844 319.964844-4.109375-2.375v4.746094zm0 0"/><path d="m163.199219 322.335938-4.109375-2.371094v4.742187zm0 0"/><path d="m167.304688 324.707031-4.105469-2.371093v4.742187zm0 0"/><path d="m171.414062 327.078125-4.109374-2.371094v4.746094zm0 0"/><path d="m175.523438 329.453125-4.109376-2.375v4.746094zm0 0"/><path d="m179.632812 331.824219-4.109374-2.371094v4.742187zm0 0"/></g></svg>