<svg height="361pt" viewBox="0 0 360 361" width="360pt" xmlns="http://www.w3.org/2000/svg"><g fill-rule="evenodd"><path d="m0 360h360v-360h-360zm0 0" fill="#800080"/><g fill="#fff"><path d="m235.621094 130.730469 14.222656-8.210938v16.421875zm0 0"/><path d="m178.730469 97.886719 14.222656-8.210938v16.421875zm0 0"/><path d="m178.730469 262.113281 14.222656-8.210937v16.421875zm0 0"/><path d="m235.621094 229.269531 14.222656-8.210937v16.421875zm0 0"/><path d="m93.394531 147.152344 14.222657-8.210938v16.425782zm0 0"/><path d="m93.394531 212.847656 14.222657-8.214844v16.425782zm0 0"/><path d="m264.066406 212.847656-14.222656-8.214844v16.425782zm0 0"/><path d="m264.066406 147.152344-14.222656-8.210938v16.425782zm0 0"/><path d="m178.730469 97.886719-14.222657-8.210938v16.421875zm0 0"/><path d="m121.839844 130.730469-14.222656-8.210938v16.421875zm0 0"/><path d="m121.839844 229.269531-14.222656-8.210937v16.421875zm0 0"/><path d="m178.730469 262.113281-14.222657-8.210937v16.421875zm0 0"/></g></g></svg>