<svg height="360pt" viewBox="0 0 360 360" width="360pt" xmlns="http://www.w3.org/2000/svg"><path d="m0 0h360v360h-360z" fill="#800080"/><g fill="#fff"><path d="m225.523438 207.425781 2.96875-1.714843v3.425781zm0 0"/><path d="m225.523438 152.574219 2.96875-1.710938v3.425781zm0 0"/><path d="m178.019531 125.152344 2.96875-1.714844v3.425781zm0 0"/><path d="m130.519531 152.574219 2.96875-1.710938v3.425781zm0 0"/><path d="m130.519531 207.425781 2.96875-1.714843v3.425781zm0 0"/><path d="m178.019531 234.847656 2.96875-1.710937v3.425781zm0 0"/><path d="m320.523438 262.273438 2.96875-1.714844v3.429687zm0 0"/><path d="m320.523438 207.425781 2.96875-1.714843v3.425781zm0 0"/><path d="m320.523438 152.574219 2.96875-1.710938v3.425781zm0 0"/><path d="m320.523438 97.726562 2.96875-1.714843v3.429687zm0 0"/><path d="m273.023438 70.300781 2.96875-1.714843v3.429687zm0 0"/><path d="m225.523438 42.878906 2.96875-1.714844v3.425782zm0 0"/><path d="m178.019531 15.453125 2.96875-1.714844v3.429688zm0 0"/><path d="m130.519531 42.878906 2.96875-1.714844v3.425782zm0 0"/><path d="m83.019531 70.300781 2.96875-1.714843v3.429687zm0 0"/><path d="m35.519531 97.726562 2.96875-1.714843v3.429687zm0 0"/><path d="m35.519531 152.574219 2.96875-1.710938v3.425781zm0 0"/><path d="m35.519531 207.425781 2.96875-1.714843v3.425781zm0 0"/><path d="m35.519531 262.273438 2.96875-1.714844v3.429687zm0 0"/><path d="m83.019531 289.699219 2.96875-1.714844v3.429687zm0 0"/><path d="m130.519531 317.121094 2.96875-1.710938v3.425782zm0 0"/><path d="m178.019531 344.546875 2.96875-1.714844v3.429688zm0 0"/><path d="m225.523438 317.121094 2.96875-1.710938v3.425782zm0 0"/><path d="m273.023438 289.699219 2.96875-1.714844v3.429687zm0 0"/><path d="m183.957031 180-2.96875-1.714844v3.429688zm0 0"/><path d="m180.988281 178.285156-2.96875-1.714844v3.429688zm0 0"/><path d="m180.988281 181.714844-2.96875-1.714844v3.429688zm0 0"/><path d="m186.925781 181.714844-2.96875-1.714844v3.429688zm0 0"/><path d="m186.925781 178.285156-2.96875-1.714844v3.429688zm0 0"/><path d="m180.988281 174.859375-2.96875-1.714844v3.425781zm0 0"/><path d="m178.019531 176.570312-2.96875-1.710937v3.425781zm0 0"/><path d="m178.019531 183.429688-2.96875-1.714844v3.425781zm0 0"/><path d="m180.988281 185.140625-2.96875-1.710937v3.425781zm0 0"/><path d="m189.894531 183.429688-2.96875-1.714844v3.425781zm0 0"/><path d="m189.894531 176.570312-2.96875-1.710937v3.425781zm0 0"/><path d="m180.988281 171.429688-2.96875-1.714844v3.429687zm0 0"/><path d="m175.050781 174.859375-2.96875-1.714844v3.425781zm0 0"/><path d="m175.050781 185.140625-2.96875-1.710937v3.425781zm0 0"/><path d="m180.988281 188.570312-2.96875-1.714843v3.429687zm0 0"/><path d="m192.863281 185.140625-2.96875-1.710937v3.425781zm0 0"/><path d="m192.863281 181.714844-2.96875-1.714844v3.429688zm0 0"/><path d="m192.863281 178.285156-2.96875-1.714844v3.429688zm0 0"/><path d="m192.863281 174.859375-2.96875-1.714844v3.425781zm0 0"/><path d="m180.988281 168-2.96875-1.710938v3.425782zm0 0"/><path d="m178.019531 169.714844-2.96875-1.714844v3.429688zm0 0"/><path d="m175.050781 171.429688-2.96875-1.714844v3.429687zm0 0"/><path d="m172.082031 173.144531-2.96875-1.714843v3.429687zm0 0"/><path d="m172.082031 186.855469-2.96875-1.714844v3.429687zm0 0"/><path d="m175.050781 188.570312-2.96875-1.714843v3.429687zm0 0"/><path d="m178.019531 190.285156-2.96875-1.714844v3.429688zm0 0"/><path d="m180.988281 192-2.96875-1.714844v3.425782zm0 0"/><path d="m195.832031 186.855469-2.96875-1.714844v3.429687zm0 0"/><path d="m195.832031 173.144531-2.96875-1.714843v3.429687zm0 0"/><path d="m180.988281 164.574219-2.96875-1.714844v3.429687zm0 0"/><path d="m169.113281 171.429688-2.96875-1.714844v3.429687zm0 0"/><path d="m169.113281 188.570312-2.96875-1.714843v3.429687zm0 0"/><path d="m180.988281 195.425781-2.96875-1.714843v3.429687zm0 0"/><path d="m198.800781 188.570312-2.96875-1.714843v3.429687zm0 0"/><path d="m198.800781 185.140625-2.96875-1.710937v3.425781zm0 0"/><path d="m198.800781 174.859375-2.96875-1.714844v3.425781zm0 0"/><path d="m198.800781 171.429688-2.96875-1.714844v3.429687zm0 0"/><path d="m180.988281 161.144531-2.96875-1.714843v3.429687zm0 0"/><path d="m178.019531 162.859375-2.96875-1.714844v3.429688zm0 0"/><path d="m169.113281 168-2.96875-1.710938v3.425782zm0 0"/><path d="m166.144531 169.714844-2.96875-1.714844v3.429688zm0 0"/><path d="m166.144531 190.285156-2.96875-1.714844v3.429688zm0 0"/><path d="m169.113281 192-2.96875-1.714844v3.425782zm0 0"/><path d="m178.019531 197.140625-2.96875-1.714844v3.429688zm0 0"/><path d="m180.988281 198.855469-2.96875-1.714844v3.429687zm0 0"/><path d="m201.769531 190.285156-2.96875-1.714844v3.429688zm0 0"/><path d="m201.769531 183.429688-2.96875-1.714844v3.425781zm0 0"/><path d="m201.769531 176.570312-2.96875-1.710937v3.425781zm0 0"/><path d="m201.769531 169.714844-2.96875-1.714844v3.429688zm0 0"/><path d="m180.988281 157.71875-2.96875-1.714844v3.425782zm0 0"/><path d="m175.050781 161.144531-2.96875-1.714843v3.429687zm0 0"/><path d="m169.113281 164.574219-2.96875-1.714844v3.429687zm0 0"/><path d="m163.175781 168-2.96875-1.710938v3.425782zm0 0"/><path d="m163.175781 192-2.96875-1.714844v3.425782zm0 0"/><path d="m169.113281 195.425781-2.96875-1.714843v3.429687zm0 0"/><path d="m175.050781 198.855469-2.96875-1.714844v3.429687zm0 0"/><path d="m180.988281 202.28125-2.96875-1.710938v3.425782zm0 0"/><path d="m204.738281 192-2.96875-1.714844v3.425782zm0 0"/><path d="m204.738281 188.570312-2.96875-1.714843v3.429687zm0 0"/><path d="m204.738281 185.140625-2.96875-1.710937v3.425781zm0 0"/><path d="m204.738281 181.714844-2.96875-1.714844v3.429688zm0 0"/><path d="m204.738281 178.285156-2.96875-1.714844v3.429688zm0 0"/><path d="m204.738281 174.859375-2.96875-1.714844v3.425781zm0 0"/><path d="m204.738281 171.429688-2.96875-1.714844v3.429687zm0 0"/><path d="m204.738281 168-2.96875-1.710938v3.425782zm0 0"/><path d="m180.988281 154.289062-2.96875-1.714843v3.429687zm0 0"/><path d="m178.019531 156.003906-2.96875-1.714844v3.429688zm0 0"/><path d="m175.050781 157.71875-2.96875-1.714844v3.425782zm0 0"/><path d="m172.082031 159.429688-2.96875-1.710938v3.425781zm0 0"/><path d="m169.113281 161.144531-2.96875-1.714843v3.429687zm0 0"/><path d="m166.144531 162.859375-2.96875-1.714844v3.429688zm0 0"/><path d="m163.175781 164.574219-2.96875-1.714844v3.429687zm0 0"/><path d="m160.207031 166.289062-2.96875-1.714843v3.425781zm0 0"/><path d="m160.207031 193.710938-2.96875-1.710938v3.425781zm0 0"/><path d="m163.175781 195.425781-2.96875-1.714843v3.429687zm0 0"/><path d="m166.144531 197.140625-2.96875-1.714844v3.429688zm0 0"/><path d="m169.113281 198.855469-2.96875-1.714844v3.429687zm0 0"/><path d="m172.082031 200.570312-2.96875-1.714843v3.425781zm0 0"/><path d="m175.050781 202.28125-2.96875-1.710938v3.425782zm0 0"/><path d="m178.019531 203.996094-2.96875-1.714844v3.429688zm0 0"/><path d="m180.988281 205.710938-2.96875-1.714844v3.429687zm0 0"/><path d="m207.707031 193.710938-2.96875-1.710938v3.425781zm0 0"/><path d="m207.707031 166.289062-2.96875-1.714843v3.425781zm0 0"/><path d="m180.988281 150.863281-2.96875-1.714843v3.425781zm0 0"/><path d="m157.238281 164.574219-2.96875-1.714844v3.429687zm0 0"/><path d="m157.238281 195.425781-2.96875-1.714843v3.429687zm0 0"/><path d="m180.988281 209.136719-2.96875-1.710938v3.425781zm0 0"/><path d="m210.675781 195.425781-2.96875-1.714843v3.429687zm0 0"/><path d="m210.675781 192-2.96875-1.714844v3.425782zm0 0"/><path d="m210.675781 168-2.96875-1.710938v3.425782zm0 0"/><path d="m210.675781 164.574219-2.96875-1.714844v3.429687zm0 0"/><path d="m180.988281 147.433594-2.96875-1.714844v3.429688zm0 0"/><path d="m178.019531 149.148438-2.96875-1.714844v3.429687zm0 0"/><path d="m157.238281 161.144531-2.96875-1.714843v3.429687zm0 0"/><path d="m154.269531 162.859375-2.96875-1.714844v3.429688zm0 0"/><path d="m154.269531 197.140625-2.96875-1.714844v3.429688zm0 0"/><path d="m157.238281 198.855469-2.96875-1.714844v3.429687zm0 0"/><path d="m178.019531 210.851562-2.96875-1.714843v3.429687zm0 0"/><path d="m180.988281 212.566406-2.96875-1.714844v3.429688zm0 0"/><path d="m213.644531 197.140625-2.96875-1.714844v3.429688zm0 0"/><path d="m213.644531 190.285156-2.96875-1.714844v3.429688zm0 0"/><path d="m213.644531 169.714844-2.96875-1.714844v3.429688zm0 0"/><path d="m213.644531 162.859375-2.96875-1.714844v3.429688zm0 0"/><path d="m180.988281 144.003906-2.96875-1.710937v3.425781zm0 0"/><path d="m175.050781 147.433594-2.96875-1.714844v3.429688zm0 0"/><path d="m157.238281 157.71875-2.96875-1.714844v3.425782zm0 0"/><path d="m151.300781 161.144531-2.96875-1.714843v3.429687zm0 0"/><path d="m151.300781 198.855469-2.96875-1.714844v3.429687zm0 0"/><path d="m157.238281 202.28125-2.96875-1.710938v3.425782zm0 0"/><path d="m175.050781 212.566406-2.96875-1.714844v3.429688zm0 0"/><path d="m180.988281 215.996094-2.96875-1.714844v3.425781zm0 0"/><path d="m216.613281 198.855469-2.96875-1.714844v3.429687zm0 0"/><path d="m216.613281 195.425781-2.96875-1.714843v3.429687zm0 0"/><path d="m216.613281 192-2.96875-1.714844v3.425782zm0 0"/><path d="m216.613281 188.570312-2.96875-1.714843v3.429687zm0 0"/><path d="m216.613281 171.429688-2.96875-1.714844v3.429687zm0 0"/><path d="m216.613281 168-2.96875-1.710938v3.425782zm0 0"/><path d="m216.613281 164.574219-2.96875-1.714844v3.429687zm0 0"/><path d="m216.613281 161.144531-2.96875-1.714843v3.429687zm0 0"/><path d="m180.988281 140.578125-2.96875-1.714844v3.429688zm0 0"/><path d="m178.019531 142.292969-2.96875-1.714844v3.425781zm0 0"/><path d="m175.050781 144.003906-2.96875-1.710937v3.425781zm0 0"/><path d="m172.082031 145.71875-2.96875-1.714844v3.429688zm0 0"/><path d="m157.238281 154.289062-2.96875-1.714843v3.429687zm0 0"/><path d="m154.269531 156.003906-2.96875-1.714844v3.429688zm0 0"/><path d="m151.300781 157.71875-2.96875-1.714844v3.425782zm0 0"/><path d="m148.332031 159.429688-2.96875-1.710938v3.425781zm0 0"/><path d="m148.332031 200.570312-2.96875-1.714843v3.425781zm0 0"/><path d="m151.300781 202.28125-2.96875-1.710938v3.425782zm0 0"/><path d="m154.269531 203.996094-2.96875-1.714844v3.429688zm0 0"/><path d="m157.238281 205.710938-2.96875-1.714844v3.429687zm0 0"/><path d="m172.082031 214.28125-2.96875-1.714844v3.429688zm0 0"/><path d="m175.050781 215.996094-2.96875-1.714844v3.425781zm0 0"/><path d="m178.019531 217.707031-2.96875-1.710937v3.425781zm0 0"/><path d="m180.988281 219.421875-2.96875-1.714844v3.429688zm0 0"/><path d="m219.582031 200.570312-2.96875-1.714843v3.425781zm0 0"/><path d="m219.582031 186.855469-2.96875-1.714844v3.429687zm0 0"/><path d="m219.582031 173.144531-2.96875-1.714843v3.429687zm0 0"/><path d="m219.582031 159.429688-2.96875-1.710938v3.425781zm0 0"/><path d="m180.988281 137.148438-2.96875-1.714844v3.429687zm0 0"/><path d="m169.113281 144.003906-2.96875-1.710937v3.425781zm0 0"/><path d="m157.238281 150.863281-2.96875-1.714843v3.425781zm0 0"/><path d="m145.363281 157.71875-2.96875-1.714844v3.425782zm0 0"/><path d="m145.363281 202.28125-2.96875-1.710938v3.425782zm0 0"/><path d="m157.238281 209.136719-2.96875-1.710938v3.425781zm0 0"/><path d="m169.113281 215.996094-2.96875-1.714844v3.425781zm0 0"/><path d="m180.988281 222.851562-2.96875-1.714843v3.429687zm0 0"/><path d="m222.550781 202.28125-2.96875-1.710938v3.425782zm0 0"/><path d="m222.550781 198.855469-2.96875-1.714844v3.429687zm0 0"/><path d="m222.550781 188.570312-2.96875-1.714843v3.429687zm0 0"/><path d="m222.550781 185.140625-2.96875-1.710937v3.425781zm0 0"/><path d="m222.550781 174.859375-2.96875-1.714844v3.425781zm0 0"/><path d="m222.550781 171.429688-2.96875-1.714844v3.429687zm0 0"/><path d="m222.550781 161.144531-2.96875-1.714843v3.429687zm0 0"/><path d="m222.550781 157.71875-2.96875-1.714844v3.425782zm0 0"/><path d="m180.988281 133.722656-2.96875-1.714844v3.425782zm0 0"/><path d="m178.019531 135.433594-2.96875-1.710938v3.425782zm0 0"/><path d="m169.113281 140.578125-2.96875-1.714844v3.429688zm0 0"/><path d="m166.144531 142.292969-2.96875-1.714844v3.425781zm0 0"/><path d="m157.238281 147.433594-2.96875-1.714844v3.429688zm0 0"/><path d="m154.269531 149.148438-2.96875-1.714844v3.429687zm0 0"/><path d="m145.363281 154.289062-2.96875-1.714843v3.429687zm0 0"/><path d="m142.394531 156.003906-2.96875-1.714844v3.429688zm0 0"/><path d="m142.394531 203.996094-2.96875-1.714844v3.429688zm0 0"/><path d="m145.363281 205.710938-2.96875-1.714844v3.429687zm0 0"/><path d="m154.269531 210.851562-2.96875-1.714843v3.429687zm0 0"/><path d="m157.238281 212.566406-2.96875-1.714844v3.429688zm0 0"/><path d="m166.144531 217.707031-2.96875-1.710937v3.425781zm0 0"/><path d="m169.113281 219.421875-2.96875-1.714844v3.429688zm0 0"/><path d="m178.019531 224.566406-2.96875-1.714844v3.425782zm0 0"/><path d="m180.988281 226.277344-2.96875-1.710938v3.425782zm0 0"/><path d="m225.523438 203.996094-2.972657-1.714844v3.429688zm0 0"/><path d="m225.523438 197.140625-2.972657-1.714844v3.429688zm0 0"/><path d="m225.523438 190.285156-2.972657-1.714844v3.429688zm0 0"/><path d="m225.523438 183.429688-2.972657-1.714844v3.425781zm0 0"/><path d="m225.523438 176.570312-2.972657-1.710937v3.425781zm0 0"/><path d="m225.523438 169.714844-2.972657-1.714844v3.429688zm0 0"/><path d="m225.523438 162.859375-2.972657-1.714844v3.429688zm0 0"/><path d="m225.523438 156.003906-2.972657-1.714844v3.429688zm0 0"/><path d="m180.988281 130.292969-2.96875-1.714844v3.429687zm0 0"/><path d="m175.050781 133.722656-2.96875-1.714844v3.425782zm0 0"/><path d="m169.113281 137.148438-2.96875-1.714844v3.429687zm0 0"/><path d="m163.175781 140.578125-2.96875-1.714844v3.429688zm0 0"/><path d="m157.238281 144.003906-2.96875-1.710937v3.425781zm0 0"/><path d="m151.300781 147.433594-2.96875-1.714844v3.429688zm0 0"/><path d="m145.363281 150.863281-2.96875-1.714843v3.425781zm0 0"/><path d="m139.425781 154.289062-2.96875-1.714843v3.429687zm0 0"/><path d="m139.425781 205.710938-2.96875-1.714844v3.429687zm0 0"/><path d="m145.363281 209.136719-2.96875-1.710938v3.425781zm0 0"/><path d="m151.300781 212.566406-2.96875-1.714844v3.429688zm0 0"/><path d="m157.238281 215.996094-2.96875-1.714844v3.425781zm0 0"/><path d="m163.175781 219.421875-2.96875-1.714844v3.429688zm0 0"/><path d="m169.113281 222.851562-2.96875-1.714843v3.429687zm0 0"/><path d="m175.050781 226.277344-2.96875-1.710938v3.425782zm0 0"/><path d="m180.988281 229.707031-2.96875-1.714843v3.429687zm0 0"/><path d="m228.492188 205.710938-2.96875-1.714844v3.429687zm0 0"/><path d="m228.492188 202.28125-2.96875-1.710938v3.425782zm0 0"/><path d="m228.492188 198.855469-2.96875-1.714844v3.429687zm0 0"/><path d="m228.492188 195.425781-2.96875-1.714843v3.429687zm0 0"/><path d="m228.492188 192-2.96875-1.714844v3.425782zm0 0"/><path d="m228.492188 188.570312-2.96875-1.714843v3.429687zm0 0"/><path d="m228.492188 185.140625-2.96875-1.710937v3.425781zm0 0"/><path d="m228.492188 181.714844-2.96875-1.714844v3.429688zm0 0"/><path d="m228.492188 178.285156-2.96875-1.714844v3.429688zm0 0"/><path d="m228.492188 174.859375-2.96875-1.714844v3.425781zm0 0"/><path d="m228.492188 171.429688-2.96875-1.714844v3.429687zm0 0"/><path d="m228.492188 168-2.96875-1.710938v3.425782zm0 0"/><path d="m228.492188 164.574219-2.96875-1.714844v3.429687zm0 0"/><path d="m228.492188 161.144531-2.96875-1.714843v3.429687zm0 0"/><path d="m228.492188 157.71875-2.96875-1.714844v3.425782zm0 0"/><path d="m228.492188 154.289062-2.96875-1.714843v3.429687zm0 0"/><path d="m180.988281 126.863281-2.96875-1.710937v3.425781zm0 0"/><path d="m178.019531 128.578125-2.96875-1.714844v3.429688zm0 0"/><path d="m175.050781 130.292969-2.96875-1.714844v3.429687zm0 0"/><path d="m172.082031 132.007812-2.96875-1.714843v3.429687zm0 0"/><path d="m169.113281 133.722656-2.96875-1.714844v3.425782zm0 0"/><path d="m166.144531 135.433594-2.96875-1.710938v3.425782zm0 0"/><path d="m163.175781 137.148438-2.96875-1.714844v3.429687zm0 0"/><path d="m160.207031 138.863281-2.96875-1.714843v3.429687zm0 0"/><path d="m157.238281 140.578125-2.96875-1.714844v3.429688zm0 0"/><path d="m154.269531 142.292969-2.96875-1.714844v3.425781zm0 0"/><path d="m151.300781 144.003906-2.96875-1.710937v3.425781zm0 0"/><path d="m148.332031 145.71875-2.96875-1.714844v3.429688zm0 0"/><path d="m145.363281 147.433594-2.96875-1.714844v3.429688zm0 0"/><path d="m142.394531 149.148438-2.96875-1.714844v3.429687zm0 0"/><path d="m139.425781 150.863281-2.96875-1.714843v3.425781zm0 0"/><path d="m136.457031 152.574219-2.96875-1.710938v3.425781zm0 0"/><path d="m136.457031 207.425781-2.96875-1.714843v3.425781zm0 0"/><path d="m139.425781 209.136719-2.96875-1.710938v3.425781zm0 0"/><path d="m142.394531 210.851562-2.96875-1.714843v3.429687zm0 0"/><path d="m145.363281 212.566406-2.96875-1.714844v3.429688zm0 0"/><path d="m148.332031 214.28125-2.96875-1.714844v3.429688zm0 0"/><path d="m151.300781 215.996094-2.96875-1.714844v3.425781zm0 0"/><path d="m154.269531 217.707031-2.96875-1.710937v3.425781zm0 0"/><path d="m157.238281 219.421875-2.96875-1.714844v3.429688zm0 0"/><path d="m160.207031 221.136719-2.96875-1.714844v3.429687zm0 0"/><path d="m163.175781 222.851562-2.96875-1.714843v3.429687zm0 0"/><path d="m166.144531 224.566406-2.96875-1.714844v3.425782zm0 0"/><path d="m169.113281 226.277344-2.96875-1.710938v3.425782zm0 0"/><path d="m172.082031 227.992188-2.96875-1.714844v3.429687zm0 0"/><path d="m175.050781 229.707031-2.96875-1.714843v3.429687zm0 0"/><path d="m178.019531 231.421875-2.96875-1.714844v3.429688zm0 0"/><path d="m180.988281 233.136719-2.96875-1.714844v3.425781zm0 0"/><path d="m278.960938 234.847656-2.96875-1.710937v3.425781zm0 0"/><path d="m278.960938 125.152344-2.96875-1.714844v3.425781zm0 0"/><path d="m275.992188 123.4375-2.96875-1.714844v3.429688zm0 0"/><path d="m273.023438 121.722656-2.96875-1.714844v3.429688zm0 0"/><path d="m270.054688 120.007812-2.96875-1.714843v3.429687zm0 0"/><path d="m267.085938 118.292969-2.96875-1.710938v3.425781zm0 0"/><path d="m264.117188 116.582031-2.96875-1.714843v3.425781zm0 0"/><path d="m261.148438 114.867188-2.96875-1.714844v3.429687zm0 0"/><path d="m258.179688 113.152344-2.96875-1.714844v3.429688zm0 0"/><path d="m255.210938 111.4375-2.96875-1.710938v3.425782zm0 0"/><path d="m252.242188 109.726562-2.96875-1.714843v3.425781zm0 0"/><path d="m249.273438 108.011719-2.96875-1.714844v3.429687zm0 0"/><path d="m246.304688 106.296875-2.96875-1.714844v3.429688zm0 0"/><path d="m243.335938 104.582031-2.96875-1.714843v3.429687zm0 0"/><path d="m240.367188 102.867188-2.96875-1.710938v3.425781zm0 0"/><path d="m237.398438 101.15625-2.96875-1.714844v3.425782zm0 0"/><path d="m234.429688 99.441406-2.96875-1.714844v3.429688zm0 0"/><path d="m231.460938 97.726562-2.96875-1.714843v3.429687zm0 0"/><path d="m228.492188 96.011719-2.96875-1.714844v3.429687zm0 0"/><path d="m225.523438 94.296875-2.972657-1.710937v3.425781zm0 0"/><path d="m222.550781 92.585938-2.96875-1.714844v3.425781zm0 0"/><path d="m219.582031 90.871094-2.96875-1.714844v3.429688zm0 0"/><path d="m216.613281 89.15625-2.96875-1.714844v3.429688zm0 0"/><path d="m213.644531 87.441406-2.96875-1.714844v3.429688zm0 0"/><path d="m210.675781 85.726562-2.96875-1.710937v3.425781zm0 0"/><path d="m207.707031 84.015625-2.96875-1.714844v3.425781zm0 0"/><path d="m204.738281 82.300781-2.96875-1.714843v3.429687zm0 0"/><path d="m201.769531 80.585938-2.96875-1.714844v3.429687zm0 0"/><path d="m198.800781 78.871094-2.96875-1.714844v3.429688zm0 0"/><path d="m195.832031 77.15625-2.96875-1.710938v3.425782zm0 0"/><path d="m192.863281 75.445312-2.96875-1.714843v3.425781zm0 0"/><path d="m189.894531 73.730469-2.96875-1.714844v3.429687zm0 0"/><path d="m186.925781 72.015625-2.96875-1.714844v3.429688zm0 0"/><path d="m183.957031 70.300781-2.96875-1.714843v3.429687zm0 0"/><path d="m180.988281 68.585938-2.96875-1.710938v3.425781zm0 0"/><path d="m85.988281 123.4375-2.96875-1.714844v3.429688zm0 0"/><path d="m85.988281 126.863281-2.96875-1.710937v3.425781zm0 0"/><path d="m85.988281 130.292969-2.96875-1.714844v3.429687zm0 0"/><path d="m85.988281 133.722656-2.96875-1.714844v3.425782zm0 0"/><path d="m85.988281 137.148438-2.96875-1.714844v3.429687zm0 0"/><path d="m85.988281 140.578125-2.96875-1.714844v3.429688zm0 0"/><path d="m85.988281 144.003906-2.96875-1.710937v3.425781zm0 0"/><path d="m85.988281 147.433594-2.96875-1.714844v3.429688zm0 0"/><path d="m85.988281 150.863281-2.96875-1.714843v3.425781zm0 0"/><path d="m85.988281 154.289062-2.96875-1.714843v3.429687zm0 0"/><path d="m85.988281 157.71875-2.96875-1.714844v3.425782zm0 0"/><path d="m85.988281 161.144531-2.96875-1.714843v3.429687zm0 0"/><path d="m85.988281 164.574219-2.96875-1.714844v3.429687zm0 0"/><path d="m85.988281 168-2.96875-1.710938v3.425782zm0 0"/><path d="m85.988281 171.429688-2.96875-1.714844v3.429687zm0 0"/><path d="m85.988281 174.859375-2.96875-1.714844v3.425781zm0 0"/><path d="m85.988281 178.285156-2.96875-1.714844v3.429688zm0 0"/><path d="m85.988281 181.714844-2.96875-1.714844v3.429688zm0 0"/><path d="m85.988281 185.140625-2.96875-1.710937v3.425781zm0 0"/><path d="m85.988281 188.570312-2.96875-1.714843v3.429687zm0 0"/><path d="m85.988281 192-2.96875-1.714844v3.425782zm0 0"/><path d="m85.988281 195.425781-2.96875-1.714843v3.429687zm0 0"/><path d="m85.988281 198.855469-2.96875-1.714844v3.429687zm0 0"/><path d="m85.988281 202.28125-2.96875-1.710938v3.425782zm0 0"/><path d="m85.988281 205.710938-2.96875-1.714844v3.429687zm0 0"/><path d="m85.988281 209.136719-2.96875-1.710938v3.425781zm0 0"/><path d="m85.988281 212.566406-2.96875-1.714844v3.429688zm0 0"/><path d="m85.988281 215.996094-2.96875-1.714844v3.425781zm0 0"/><path d="m85.988281 219.421875-2.96875-1.714844v3.429688zm0 0"/><path d="m85.988281 222.851562-2.96875-1.714843v3.429687zm0 0"/><path d="m85.988281 226.277344-2.96875-1.710938v3.425782zm0 0"/><path d="m85.988281 229.707031-2.96875-1.714843v3.429687zm0 0"/><path d="m85.988281 233.136719-2.96875-1.714844v3.425781zm0 0"/><path d="m85.988281 236.5625-2.96875-1.714844v3.429688zm0 0"/><path d="m180.988281 291.414062-2.96875-1.714843v3.425781zm0 0"/><path d="m183.957031 289.699219-2.96875-1.714844v3.429687zm0 0"/><path d="m186.925781 287.984375-2.96875-1.714844v3.429688zm0 0"/><path d="m189.894531 286.269531-2.96875-1.714843v3.429687zm0 0"/><path d="m192.863281 284.554688-2.96875-1.710938v3.425781zm0 0"/><path d="m195.832031 282.84375-2.96875-1.714844v3.425782zm0 0"/><path d="m198.800781 281.128906-2.96875-1.714844v3.429688zm0 0"/><path d="m201.769531 279.414062-2.96875-1.714843v3.429687zm0 0"/><path d="m204.738281 277.699219-2.96875-1.714844v3.429687zm0 0"/><path d="m207.707031 275.984375-2.96875-1.710937v3.425781zm0 0"/><path d="m210.675781 274.273438-2.96875-1.714844v3.425781zm0 0"/><path d="m213.644531 272.558594-2.96875-1.714844v3.429688zm0 0"/><path d="m216.613281 270.84375-2.96875-1.714844v3.429688zm0 0"/><path d="m219.582031 269.128906-2.96875-1.714844v3.429688zm0 0"/><path d="m222.550781 267.414062-2.96875-1.710937v3.425781zm0 0"/><path d="m225.523438 265.703125-2.972657-1.714844v3.425781zm0 0"/><path d="m228.492188 263.988281-2.96875-1.714843v3.429687zm0 0"/><path d="m231.460938 262.273438-2.96875-1.714844v3.429687zm0 0"/><path d="m234.429688 260.558594-2.96875-1.714844v3.429688zm0 0"/><path d="m237.398438 258.84375-2.96875-1.710938v3.425782zm0 0"/><path d="m240.367188 257.132812-2.96875-1.714843v3.425781zm0 0"/><path d="m243.335938 255.417969-2.96875-1.714844v3.429687zm0 0"/><path d="m246.304688 253.703125-2.96875-1.714844v3.429688zm0 0"/><path d="m249.273438 251.988281-2.96875-1.714843v3.429687zm0 0"/><path d="m252.242188 250.273438-2.96875-1.710938v3.425781zm0 0"/><path d="m255.210938 248.5625-2.96875-1.714844v3.425782zm0 0"/><path d="m258.179688 246.847656-2.96875-1.714844v3.429688zm0 0"/><path d="m261.148438 245.132812-2.96875-1.714843v3.429687zm0 0"/><path d="m264.117188 243.417969-2.96875-1.710938v3.425781zm0 0"/><path d="m267.085938 241.707031-2.96875-1.714843v3.425781zm0 0"/><path d="m270.054688 239.992188-2.96875-1.714844v3.429687zm0 0"/><path d="m273.023438 238.277344-2.96875-1.714844v3.429688zm0 0"/><path d="m275.992188 236.5625-2.96875-1.714844v3.429688zm0 0"/><path d="m281.929688 236.5625-2.96875-1.714844v3.429688zm0 0"/><path d="m281.929688 233.136719-2.96875-1.714844v3.425781zm0 0"/><path d="m281.929688 126.863281-2.96875-1.710937v3.425781zm0 0"/><path d="m281.929688 123.4375-2.96875-1.714844v3.429688zm0 0"/><path d="m275.992188 120.007812-2.96875-1.714843v3.429687zm0 0"/><path d="m270.054688 116.582031-2.96875-1.714843v3.425781zm0 0"/><path d="m264.117188 113.152344-2.96875-1.714844v3.429688zm0 0"/><path d="m258.179688 109.726562-2.96875-1.714843v3.425781zm0 0"/><path d="m252.242188 106.296875-2.96875-1.714844v3.429688zm0 0"/><path d="m246.304688 102.867188-2.96875-1.710938v3.425781zm0 0"/><path d="m240.367188 99.441406-2.96875-1.714844v3.429688zm0 0"/><path d="m234.429688 96.011719-2.96875-1.714844v3.429687zm0 0"/><path d="m228.492188 92.585938-2.96875-1.714844v3.425781zm0 0"/><path d="m222.550781 89.15625-2.96875-1.714844v3.429688zm0 0"/><path d="m216.613281 85.726562-2.96875-1.710937v3.425781zm0 0"/><path d="m210.675781 82.300781-2.96875-1.714843v3.429687zm0 0"/><path d="m204.738281 78.871094-2.96875-1.714844v3.429688zm0 0"/><path d="m198.800781 75.445312-2.96875-1.714843v3.425781zm0 0"/><path d="m192.863281 72.015625-2.96875-1.714844v3.429688zm0 0"/><path d="m186.925781 68.585938-2.96875-1.710938v3.425781zm0 0"/><path d="m180.988281 65.160156-2.96875-1.714844v3.429688zm0 0"/><path d="m178.019531 66.875-2.96875-1.714844v3.425782zm0 0"/><path d="m85.988281 120.007812-2.96875-1.714843v3.429687zm0 0"/><path d="m83.019531 121.722656-2.96875-1.714844v3.429688zm0 0"/><path d="m83.019531 128.578125-2.96875-1.714844v3.429688zm0 0"/><path d="m83.019531 135.433594-2.96875-1.710938v3.425782zm0 0"/><path d="m83.019531 142.292969-2.96875-1.714844v3.425781zm0 0"/><path d="m83.019531 149.148438-2.96875-1.714844v3.429687zm0 0"/><path d="m83.019531 156.003906-2.96875-1.714844v3.429688zm0 0"/><path d="m83.019531 162.859375-2.96875-1.714844v3.429688zm0 0"/><path d="m83.019531 169.714844-2.96875-1.714844v3.429688zm0 0"/><path d="m83.019531 176.570312-2.96875-1.710937v3.425781zm0 0"/><path d="m83.019531 183.429688-2.96875-1.714844v3.425781zm0 0"/><path d="m83.019531 190.285156-2.96875-1.714844v3.429688zm0 0"/><path d="m83.019531 197.140625-2.96875-1.714844v3.429688zm0 0"/><path d="m83.019531 203.996094-2.96875-1.714844v3.429688zm0 0"/><path d="m83.019531 210.851562-2.96875-1.714843v3.429687zm0 0"/><path d="m83.019531 217.707031-2.96875-1.710937v3.425781zm0 0"/><path d="m83.019531 224.566406-2.96875-1.714844v3.425782zm0 0"/><path d="m83.019531 231.421875-2.96875-1.714844v3.429688zm0 0"/><path d="m83.019531 238.277344-2.96875-1.714844v3.429688zm0 0"/><path d="m85.988281 239.992188-2.96875-1.714844v3.429687zm0 0"/><path d="m178.019531 293.125-2.96875-1.710938v3.425782zm0 0"/><path d="m180.988281 294.839844-2.96875-1.714844v3.429688zm0 0"/><path d="m186.925781 291.414062-2.96875-1.714843v3.425781zm0 0"/><path d="m192.863281 287.984375-2.96875-1.714844v3.429688zm0 0"/><path d="m198.800781 284.554688-2.96875-1.710938v3.425781zm0 0"/><path d="m204.738281 281.128906-2.96875-1.714844v3.429688zm0 0"/><path d="m210.675781 277.699219-2.96875-1.714844v3.429687zm0 0"/><path d="m216.613281 274.273438-2.96875-1.714844v3.425781zm0 0"/><path d="m222.550781 270.84375-2.96875-1.714844v3.429688zm0 0"/><path d="m228.492188 267.414062-2.96875-1.710937v3.425781zm0 0"/><path d="m234.429688 263.988281-2.96875-1.714843v3.429687zm0 0"/><path d="m240.367188 260.558594-2.96875-1.714844v3.429688zm0 0"/><path d="m246.304688 257.132812-2.96875-1.714843v3.425781zm0 0"/><path d="m252.242188 253.703125-2.96875-1.714844v3.429688zm0 0"/><path d="m258.179688 250.273438-2.96875-1.710938v3.425781zm0 0"/><path d="m264.117188 246.847656-2.96875-1.714844v3.429688zm0 0"/><path d="m270.054688 243.417969-2.96875-1.710938v3.425781zm0 0"/><path d="m275.992188 239.992188-2.96875-1.714844v3.429687zm0 0"/><path d="m284.898438 238.277344-2.96875-1.714844v3.429688zm0 0"/><path d="m284.898438 231.421875-2.96875-1.714844v3.429688zm0 0"/><path d="m284.898438 128.578125-2.96875-1.714844v3.429688zm0 0"/><path d="m284.898438 121.722656-2.96875-1.714844v3.429688zm0 0"/><path d="m275.992188 116.582031-2.96875-1.714843v3.425781zm0 0"/><path d="m273.023438 114.867188-2.96875-1.714844v3.429687zm0 0"/><path d="m264.117188 109.726562-2.96875-1.714843v3.425781zm0 0"/><path d="m261.148438 108.011719-2.96875-1.714844v3.429687zm0 0"/><path d="m252.242188 102.867188-2.96875-1.710938v3.425781zm0 0"/><path d="m249.273438 101.15625-2.96875-1.714844v3.425782zm0 0"/><path d="m240.367188 96.011719-2.96875-1.714844v3.429687zm0 0"/><path d="m237.398438 94.296875-2.96875-1.710937v3.425781zm0 0"/><path d="m228.492188 89.15625-2.96875-1.714844v3.429688zm0 0"/><path d="m225.523438 87.441406-2.972657-1.714844v3.429688zm0 0"/><path d="m216.613281 82.300781-2.96875-1.714843v3.429687zm0 0"/><path d="m213.644531 80.585938-2.96875-1.714844v3.429687zm0 0"/><path d="m204.738281 75.445312-2.96875-1.714843v3.425781zm0 0"/><path d="m201.769531 73.730469-2.96875-1.714844v3.429687zm0 0"/><path d="m192.863281 68.585938-2.96875-1.710938v3.425781zm0 0"/><path d="m189.894531 66.875-2.96875-1.714844v3.425782zm0 0"/><path d="m180.988281 61.730469-2.96875-1.710938v3.425781zm0 0"/><path d="m175.050781 65.160156-2.96875-1.714844v3.429688zm0 0"/><path d="m85.988281 116.582031-2.96875-1.714843v3.425781zm0 0"/><path d="m80.050781 120.007812-2.96875-1.714843v3.429687zm0 0"/><path d="m80.050781 130.292969-2.96875-1.714844v3.429687zm0 0"/><path d="m80.050781 133.722656-2.96875-1.714844v3.425782zm0 0"/><path d="m80.050781 144.003906-2.96875-1.710937v3.425781zm0 0"/><path d="m80.050781 147.433594-2.96875-1.714844v3.429688zm0 0"/><path d="m80.050781 157.71875-2.96875-1.714844v3.425782zm0 0"/><path d="m80.050781 161.144531-2.96875-1.714843v3.429687zm0 0"/><path d="m80.050781 171.429688-2.96875-1.714844v3.429687zm0 0"/><path d="m80.050781 174.859375-2.96875-1.714844v3.425781zm0 0"/><path d="m80.050781 185.140625-2.96875-1.710937v3.425781zm0 0"/><path d="m80.050781 188.570312-2.96875-1.714843v3.429687zm0 0"/><path d="m80.050781 198.855469-2.96875-1.714844v3.429687zm0 0"/><path d="m80.050781 202.28125-2.96875-1.710938v3.425782zm0 0"/><path d="m80.050781 212.566406-2.96875-1.714844v3.429688zm0 0"/><path d="m80.050781 215.996094-2.96875-1.714844v3.425781zm0 0"/><path d="m80.050781 226.277344-2.96875-1.710938v3.425782zm0 0"/><path d="m80.050781 229.707031-2.96875-1.714843v3.429687zm0 0"/><path d="m80.050781 239.992188-2.96875-1.714844v3.429687zm0 0"/><path d="m85.988281 243.417969-2.96875-1.710938v3.425781zm0 0"/><path d="m175.050781 294.839844-2.96875-1.714844v3.429688zm0 0"/><path d="m180.988281 298.269531-2.96875-1.714843v3.425781zm0 0"/><path d="m189.894531 293.125-2.96875-1.710938v3.425782zm0 0"/><path d="m192.863281 291.414062-2.96875-1.714843v3.425781zm0 0"/><path d="m201.769531 286.269531-2.96875-1.714843v3.429687zm0 0"/><path d="m204.738281 284.554688-2.96875-1.710938v3.425781zm0 0"/><path d="m213.644531 279.414062-2.96875-1.714843v3.429687zm0 0"/><path d="m216.613281 277.699219-2.96875-1.714844v3.429687zm0 0"/><path d="m225.523438 272.558594-2.972657-1.714844v3.429688zm0 0"/><path d="m228.492188 270.84375-2.96875-1.714844v3.429688zm0 0"/><path d="m237.398438 265.703125-2.96875-1.714844v3.425781zm0 0"/><path d="m240.367188 263.988281-2.96875-1.714843v3.429687zm0 0"/><path d="m249.273438 258.84375-2.96875-1.710938v3.425782zm0 0"/><path d="m252.242188 257.132812-2.96875-1.714843v3.425781zm0 0"/><path d="m261.148438 251.988281-2.96875-1.714843v3.429687zm0 0"/><path d="m264.117188 250.273438-2.96875-1.710938v3.425781zm0 0"/><path d="m273.023438 245.132812-2.96875-1.714843v3.429687zm0 0"/><path d="m275.992188 243.417969-2.96875-1.710938v3.425781zm0 0"/><path d="m287.867188 239.992188-2.96875-1.714844v3.429687zm0 0"/><path d="m287.867188 236.5625-2.96875-1.714844v3.429688zm0 0"/><path d="m287.867188 233.136719-2.96875-1.714844v3.425781zm0 0"/><path d="m287.867188 229.707031-2.96875-1.714843v3.429687zm0 0"/><path d="m287.867188 130.292969-2.96875-1.714844v3.429687zm0 0"/><path d="m287.867188 126.863281-2.96875-1.710937v3.425781zm0 0"/><path d="m287.867188 123.4375-2.96875-1.714844v3.429688zm0 0"/><path d="m287.867188 120.007812-2.96875-1.714843v3.429687zm0 0"/><path d="m275.992188 113.152344-2.96875-1.714844v3.429688zm0 0"/><path d="m264.117188 106.296875-2.96875-1.714844v3.429688zm0 0"/><path d="m252.242188 99.441406-2.96875-1.714844v3.429688zm0 0"/><path d="m240.367188 92.585938-2.96875-1.714844v3.425781zm0 0"/><path d="m228.492188 85.726562-2.96875-1.710937v3.425781zm0 0"/><path d="m216.613281 78.871094-2.96875-1.714844v3.429688zm0 0"/><path d="m204.738281 72.015625-2.96875-1.714844v3.429688zm0 0"/><path d="m192.863281 65.160156-2.96875-1.714844v3.429688zm0 0"/><path d="m180.988281 58.304688-2.96875-1.714844v3.429687zm0 0"/><path d="m178.019531 60.019531-2.96875-1.714843v3.425781zm0 0"/><path d="m175.050781 61.730469-2.96875-1.710938v3.425781zm0 0"/><path d="m172.082031 63.445312-2.96875-1.714843v3.429687zm0 0"/><path d="m85.988281 113.152344-2.96875-1.714844v3.429688zm0 0"/><path d="m83.019531 114.867188-2.96875-1.714844v3.429687zm0 0"/><path d="m80.050781 116.582031-2.96875-1.714843v3.425781zm0 0"/><path d="m77.082031 118.292969-2.96875-1.710938v3.425781zm0 0"/><path d="m77.082031 132.007812-2.96875-1.714843v3.429687zm0 0"/><path d="m77.082031 145.71875-2.96875-1.714844v3.429688zm0 0"/><path d="m77.082031 159.429688-2.96875-1.710938v3.425781zm0 0"/><path d="m77.082031 173.144531-2.96875-1.714843v3.429687zm0 0"/><path d="m77.082031 186.855469-2.96875-1.714844v3.429687zm0 0"/><path d="m77.082031 200.570312-2.96875-1.714843v3.425781zm0 0"/><path d="m77.082031 214.28125-2.96875-1.714844v3.429688zm0 0"/><path d="m77.082031 227.992188-2.96875-1.714844v3.429687zm0 0"/><path d="m77.082031 241.707031-2.96875-1.714843v3.425781zm0 0"/><path d="m80.050781 243.417969-2.96875-1.710938v3.425781zm0 0"/><path d="m83.019531 245.132812-2.96875-1.714843v3.429687zm0 0"/><path d="m85.988281 246.847656-2.96875-1.714844v3.429688zm0 0"/><path d="m172.082031 296.554688-2.96875-1.714844v3.429687zm0 0"/><path d="m175.050781 298.269531-2.96875-1.714843v3.425781zm0 0"/><path d="m178.019531 299.980469-2.96875-1.710938v3.425781zm0 0"/><path d="m180.988281 301.695312-2.96875-1.714843v3.429687zm0 0"/><path d="m192.863281 294.839844-2.96875-1.714844v3.429688zm0 0"/><path d="m204.738281 287.984375-2.96875-1.714844v3.429688zm0 0"/><path d="m216.613281 281.128906-2.96875-1.714844v3.429688zm0 0"/><path d="m228.492188 274.273438-2.96875-1.714844v3.425781zm0 0"/><path d="m240.367188 267.414062-2.96875-1.710937v3.425781zm0 0"/><path d="m252.242188 260.558594-2.96875-1.714844v3.429688zm0 0"/><path d="m264.117188 253.703125-2.96875-1.714844v3.429688zm0 0"/><path d="m275.992188 246.847656-2.96875-1.714844v3.429688zm0 0"/><path d="m290.835938 241.707031-2.96875-1.714843v3.425781zm0 0"/><path d="m290.835938 227.992188-2.96875-1.714844v3.429687zm0 0"/><path d="m290.835938 132.007812-2.96875-1.714843v3.429687zm0 0"/><path d="m290.835938 118.292969-2.96875-1.710938v3.425781zm0 0"/><path d="m275.992188 109.726562-2.96875-1.714843v3.425781zm0 0"/><path d="m273.023438 108.011719-2.96875-1.714844v3.429687zm0 0"/><path d="m270.054688 106.296875-2.96875-1.714844v3.429688zm0 0"/><path d="m267.085938 104.582031-2.96875-1.714843v3.429687zm0 0"/><path d="m252.242188 96.011719-2.96875-1.714844v3.429687zm0 0"/><path d="m249.273438 94.296875-2.96875-1.710937v3.425781zm0 0"/><path d="m246.304688 92.585938-2.96875-1.714844v3.425781zm0 0"/><path d="m243.335938 90.871094-2.96875-1.714844v3.429688zm0 0"/><path d="m228.492188 82.300781-2.96875-1.714843v3.429687zm0 0"/><path d="m225.523438 80.585938-2.972657-1.714844v3.429687zm0 0"/><path d="m222.550781 78.871094-2.96875-1.714844v3.429688zm0 0"/><path d="m219.582031 77.15625-2.96875-1.710938v3.425782zm0 0"/><path d="m204.738281 68.585938-2.96875-1.710938v3.425781zm0 0"/><path d="m201.769531 66.875-2.96875-1.714844v3.425782zm0 0"/><path d="m198.800781 65.160156-2.96875-1.714844v3.429688zm0 0"/><path d="m195.832031 63.445312-2.96875-1.714843v3.429687zm0 0"/><path d="m180.988281 54.875-2.96875-1.714844v3.429688zm0 0"/><path d="m169.113281 61.730469-2.96875-1.710938v3.425781zm0 0"/><path d="m85.988281 109.726562-2.96875-1.714843v3.425781zm0 0"/><path d="m74.113281 116.582031-2.96875-1.714843v3.425781zm0 0"/><path d="m74.113281 133.722656-2.96875-1.714844v3.425782zm0 0"/><path d="m74.113281 137.148438-2.96875-1.714844v3.429687zm0 0"/><path d="m74.113281 140.578125-2.96875-1.714844v3.429688zm0 0"/><path d="m74.113281 144.003906-2.96875-1.710937v3.425781zm0 0"/><path d="m74.113281 161.144531-2.96875-1.714843v3.429687zm0 0"/><path d="m74.113281 164.574219-2.96875-1.714844v3.429687zm0 0"/><path d="m74.113281 168-2.96875-1.710938v3.425782zm0 0"/><path d="m74.113281 171.429688-2.96875-1.714844v3.429687zm0 0"/><path d="m74.113281 188.570312-2.96875-1.714843v3.429687zm0 0"/><path d="m74.113281 192-2.96875-1.714844v3.425782zm0 0"/><path d="m74.113281 195.425781-2.96875-1.714843v3.429687zm0 0"/><path d="m74.113281 198.855469-2.96875-1.714844v3.429687zm0 0"/><path d="m74.113281 215.996094-2.96875-1.714844v3.425781zm0 0"/><path d="m74.113281 219.421875-2.96875-1.714844v3.429688zm0 0"/><path d="m74.113281 222.851562-2.96875-1.714843v3.429687zm0 0"/><path d="m74.113281 226.277344-2.96875-1.710938v3.425782zm0 0"/><path d="m74.113281 243.417969-2.96875-1.710938v3.425781zm0 0"/><path d="m85.988281 250.273438-2.96875-1.710938v3.425781zm0 0"/><path d="m169.113281 298.269531-2.96875-1.714843v3.425781zm0 0"/><path d="m180.988281 305.125-2.96875-1.714844v3.429688zm0 0"/><path d="m195.832031 296.554688-2.96875-1.714844v3.429687zm0 0"/><path d="m198.800781 294.839844-2.96875-1.714844v3.429688zm0 0"/><path d="m201.769531 293.125-2.96875-1.710938v3.425782zm0 0"/><path d="m204.738281 291.414062-2.96875-1.714843v3.425781zm0 0"/><path d="m219.582031 282.84375-2.96875-1.714844v3.425782zm0 0"/><path d="m222.550781 281.128906-2.96875-1.714844v3.429688zm0 0"/><path d="m225.523438 279.414062-2.972657-1.714843v3.429687zm0 0"/><path d="m228.492188 277.699219-2.96875-1.714844v3.429687zm0 0"/><path d="m243.335938 269.128906-2.96875-1.714844v3.429688zm0 0"/><path d="m246.304688 267.414062-2.96875-1.710937v3.425781zm0 0"/><path d="m249.273438 265.703125-2.96875-1.714844v3.425781zm0 0"/><path d="m252.242188 263.988281-2.96875-1.714843v3.429687zm0 0"/><path d="m267.085938 255.417969-2.96875-1.714844v3.429687zm0 0"/><path d="m270.054688 253.703125-2.96875-1.714844v3.429688zm0 0"/><path d="m273.023438 251.988281-2.96875-1.714843v3.429687zm0 0"/><path d="m275.992188 250.273438-2.96875-1.710938v3.425781zm0 0"/><path d="m293.804688 243.417969-2.96875-1.710938v3.425781zm0 0"/><path d="m293.804688 239.992188-2.96875-1.714844v3.429687zm0 0"/><path d="m293.804688 229.707031-2.96875-1.714843v3.429687zm0 0"/><path d="m293.804688 226.277344-2.96875-1.710938v3.425782zm0 0"/><path d="m293.804688 133.722656-2.96875-1.714844v3.425782zm0 0"/><path d="m293.804688 130.292969-2.96875-1.714844v3.429687zm0 0"/><path d="m293.804688 120.007812-2.96875-1.714843v3.429687zm0 0"/><path d="m293.804688 116.582031-2.96875-1.714843v3.425781zm0 0"/><path d="m275.992188 106.296875-2.96875-1.714844v3.429688zm0 0"/><path d="m270.054688 102.867188-2.96875-1.710938v3.425781zm0 0"/><path d="m252.242188 92.585938-2.96875-1.714844v3.425781zm0 0"/><path d="m246.304688 89.15625-2.96875-1.714844v3.429688zm0 0"/><path d="m228.492188 78.871094-2.96875-1.714844v3.429688zm0 0"/><path d="m222.550781 75.445312-2.96875-1.714843v3.425781zm0 0"/><path d="m204.738281 65.160156-2.96875-1.714844v3.429688zm0 0"/><path d="m198.800781 61.730469-2.96875-1.710938v3.425781zm0 0"/><path d="m180.988281 51.449219-2.96875-1.714844v3.425781zm0 0"/><path d="m178.019531 53.160156-2.96875-1.710937v3.425781zm0 0"/><path d="m169.113281 58.304688-2.96875-1.714844v3.429687zm0 0"/><path d="m166.144531 60.019531-2.96875-1.714843v3.425781zm0 0"/><path d="m85.988281 106.296875-2.96875-1.714844v3.429688zm0 0"/><path d="m83.019531 108.011719-2.96875-1.714844v3.429687zm0 0"/><path d="m74.113281 113.152344-2.96875-1.714844v3.429688zm0 0"/><path d="m71.144531 114.867188-2.96875-1.714844v3.429687zm0 0"/><path d="m71.144531 135.433594-2.96875-1.710938v3.425782zm0 0"/><path d="m71.144531 142.292969-2.96875-1.714844v3.425781zm0 0"/><path d="m71.144531 162.859375-2.96875-1.714844v3.429688zm0 0"/><path d="m71.144531 169.714844-2.96875-1.714844v3.429688zm0 0"/><path d="m71.144531 190.285156-2.96875-1.714844v3.429688zm0 0"/><path d="m71.144531 197.140625-2.96875-1.714844v3.429688zm0 0"/><path d="m71.144531 217.707031-2.96875-1.710937v3.425781zm0 0"/><path d="m71.144531 224.566406-2.96875-1.714844v3.425782zm0 0"/><path d="m71.144531 245.132812-2.96875-1.714843v3.429687zm0 0"/><path d="m74.113281 246.847656-2.96875-1.714844v3.429688zm0 0"/><path d="m83.019531 251.988281-2.96875-1.714843v3.429687zm0 0"/><path d="m85.988281 253.703125-2.96875-1.714844v3.429688zm0 0"/><path d="m166.144531 299.980469-2.96875-1.710938v3.425781zm0 0"/><path d="m169.113281 301.695312-2.96875-1.714843v3.429687zm0 0"/><path d="m178.019531 306.839844-2.96875-1.714844v3.425781zm0 0"/><path d="m180.988281 308.550781-2.96875-1.710937v3.425781zm0 0"/><path d="m198.800781 298.269531-2.96875-1.714843v3.425781zm0 0"/><path d="m204.738281 294.839844-2.96875-1.714844v3.429688zm0 0"/><path d="m222.550781 284.554688-2.96875-1.710938v3.425781zm0 0"/><path d="m228.492188 281.128906-2.96875-1.714844v3.429688zm0 0"/><path d="m246.304688 270.84375-2.96875-1.714844v3.429688zm0 0"/><path d="m252.242188 267.414062-2.96875-1.710937v3.425781zm0 0"/><path d="m270.054688 257.132812-2.96875-1.714843v3.425781zm0 0"/><path d="m275.992188 253.703125-2.96875-1.714844v3.429688zm0 0"/><path d="m296.773438 245.132812-2.96875-1.714843v3.429687zm0 0"/><path d="m296.773438 238.277344-2.96875-1.714844v3.429688zm0 0"/><path d="m296.773438 231.421875-2.96875-1.714844v3.429688zm0 0"/><path d="m296.773438 224.566406-2.96875-1.714844v3.425782zm0 0"/><path d="m296.773438 135.433594-2.96875-1.710938v3.425782zm0 0"/><path d="m296.773438 128.578125-2.96875-1.714844v3.429688zm0 0"/><path d="m296.773438 121.722656-2.96875-1.714844v3.429688zm0 0"/><path d="m296.773438 114.867188-2.96875-1.714844v3.429687zm0 0"/><path d="m275.992188 102.867188-2.96875-1.710938v3.425781zm0 0"/><path d="m273.023438 101.15625-2.96875-1.714844v3.425782zm0 0"/><path d="m252.242188 89.15625-2.96875-1.714844v3.429688zm0 0"/><path d="m249.273438 87.441406-2.96875-1.714844v3.429688zm0 0"/><path d="m228.492188 75.445312-2.96875-1.714843v3.425781zm0 0"/><path d="m225.523438 73.730469-2.972657-1.714844v3.429687zm0 0"/><path d="m204.738281 61.730469-2.96875-1.710938v3.425781zm0 0"/><path d="m201.769531 60.019531-2.96875-1.714843v3.425781zm0 0"/><path d="m180.988281 48.019531-2.96875-1.714843v3.429687zm0 0"/><path d="m175.050781 51.449219-2.96875-1.714844v3.425781zm0 0"/><path d="m169.113281 54.875-2.96875-1.714844v3.429688zm0 0"/><path d="m163.175781 58.304688-2.96875-1.714844v3.429687zm0 0"/><path d="m85.988281 102.867188-2.96875-1.710938v3.425781zm0 0"/><path d="m80.050781 106.296875-2.96875-1.714844v3.429688zm0 0"/><path d="m74.113281 109.726562-2.96875-1.714843v3.425781zm0 0"/><path d="m68.175781 113.152344-2.96875-1.714844v3.429688zm0 0"/><path d="m68.175781 137.148438-2.96875-1.714844v3.429687zm0 0"/><path d="m68.175781 140.578125-2.96875-1.714844v3.429688zm0 0"/><path d="m68.175781 164.574219-2.96875-1.714844v3.429687zm0 0"/><path d="m68.175781 168-2.96875-1.710938v3.425782zm0 0"/><path d="m68.175781 192-2.96875-1.714844v3.425782zm0 0"/><path d="m68.175781 195.425781-2.96875-1.714843v3.429687zm0 0"/><path d="m68.175781 219.421875-2.96875-1.714844v3.429688zm0 0"/><path d="m68.175781 222.851562-2.96875-1.714843v3.429687zm0 0"/><path d="m68.175781 246.847656-2.96875-1.714844v3.429688zm0 0"/><path d="m74.113281 250.273438-2.96875-1.710938v3.425781zm0 0"/><path d="m80.050781 253.703125-2.96875-1.714844v3.429688zm0 0"/><path d="m85.988281 257.132812-2.96875-1.714843v3.425781zm0 0"/><path d="m163.175781 301.695312-2.96875-1.714843v3.429687zm0 0"/><path d="m169.113281 305.125-2.96875-1.714844v3.429688zm0 0"/><path d="m175.050781 308.550781-2.96875-1.710937v3.425781zm0 0"/><path d="m180.988281 311.980469-2.96875-1.714844v3.429687zm0 0"/><path d="m201.769531 299.980469-2.96875-1.710938v3.425781zm0 0"/><path d="m204.738281 298.269531-2.96875-1.714843v3.425781zm0 0"/><path d="m225.523438 286.269531-2.972657-1.714843v3.429687zm0 0"/><path d="m228.492188 284.554688-2.96875-1.710938v3.425781zm0 0"/><path d="m249.273438 272.558594-2.96875-1.714844v3.429688zm0 0"/><path d="m252.242188 270.84375-2.96875-1.714844v3.429688zm0 0"/><path d="m273.023438 258.84375-2.96875-1.710938v3.425782zm0 0"/><path d="m275.992188 257.132812-2.96875-1.714843v3.425781zm0 0"/><path d="m299.742188 246.847656-2.96875-1.714844v3.429688zm0 0"/><path d="m299.742188 243.417969-2.96875-1.710938v3.425781zm0 0"/><path d="m299.742188 239.992188-2.96875-1.714844v3.429687zm0 0"/><path d="m299.742188 236.5625-2.96875-1.714844v3.429688zm0 0"/><path d="m299.742188 233.136719-2.96875-1.714844v3.425781zm0 0"/><path d="m299.742188 229.707031-2.96875-1.714843v3.429687zm0 0"/><path d="m299.742188 226.277344-2.96875-1.710938v3.425782zm0 0"/><path d="m299.742188 222.851562-2.96875-1.714843v3.429687zm0 0"/><path d="m299.742188 137.148438-2.96875-1.714844v3.429687zm0 0"/><path d="m299.742188 133.722656-2.96875-1.714844v3.425782zm0 0"/><path d="m299.742188 130.292969-2.96875-1.714844v3.429687zm0 0"/><path d="m299.742188 126.863281-2.96875-1.710937v3.425781zm0 0"/><path d="m299.742188 123.4375-2.96875-1.714844v3.429688zm0 0"/><path d="m299.742188 120.007812-2.96875-1.714843v3.429687zm0 0"/><path d="m299.742188 116.582031-2.96875-1.714843v3.425781zm0 0"/><path d="m299.742188 113.152344-2.96875-1.714844v3.429688zm0 0"/><path d="m275.992188 99.441406-2.96875-1.714844v3.429688zm0 0"/><path d="m252.242188 85.726562-2.96875-1.710937v3.425781zm0 0"/><path d="m228.492188 72.015625-2.96875-1.714844v3.429688zm0 0"/><path d="m204.738281 58.304688-2.96875-1.714844v3.429687zm0 0"/><path d="m180.988281 44.589844-2.96875-1.710938v3.425782zm0 0"/><path d="m178.019531 46.304688-2.96875-1.714844v3.429687zm0 0"/><path d="m175.050781 48.019531-2.96875-1.714843v3.429687zm0 0"/><path d="m172.082031 49.734375-2.96875-1.714844v3.429688zm0 0"/><path d="m169.113281 51.449219-2.96875-1.714844v3.425781zm0 0"/><path d="m166.144531 53.160156-2.96875-1.710937v3.425781zm0 0"/><path d="m163.175781 54.875-2.96875-1.714844v3.429688zm0 0"/><path d="m160.207031 56.589844-2.96875-1.714844v3.429688zm0 0"/><path d="m85.988281 99.441406-2.96875-1.714844v3.429688zm0 0"/><path d="m83.019531 101.15625-2.96875-1.714844v3.425782zm0 0"/><path d="m80.050781 102.867188-2.96875-1.710938v3.425781zm0 0"/><path d="m77.082031 104.582031-2.96875-1.714843v3.429687zm0 0"/><path d="m74.113281 106.296875-2.96875-1.714844v3.429688zm0 0"/><path d="m71.144531 108.011719-2.96875-1.714844v3.429687zm0 0"/><path d="m68.175781 109.726562-2.96875-1.714843v3.425781zm0 0"/><path d="m65.207031 111.4375-2.96875-1.710938v3.425782zm0 0"/><path d="m65.207031 138.863281-2.96875-1.714843v3.429687zm0 0"/><path d="m65.207031 166.289062-2.96875-1.714843v3.425781zm0 0"/><path d="m65.207031 193.710938-2.96875-1.710938v3.425781zm0 0"/><path d="m65.207031 221.136719-2.96875-1.714844v3.429687zm0 0"/><path d="m65.207031 248.5625-2.96875-1.714844v3.425782zm0 0"/><path d="m68.175781 250.273438-2.96875-1.710938v3.425781zm0 0"/><path d="m71.144531 251.988281-2.96875-1.714843v3.429687zm0 0"/><path d="m74.113281 253.703125-2.96875-1.714844v3.429688zm0 0"/><path d="m77.082031 255.417969-2.96875-1.714844v3.429687zm0 0"/><path d="m80.050781 257.132812-2.96875-1.714843v3.425781zm0 0"/><path d="m83.019531 258.84375-2.96875-1.710938v3.425782zm0 0"/><path d="m85.988281 260.558594-2.96875-1.714844v3.429688zm0 0"/><path d="m160.207031 303.410156-2.96875-1.714844v3.429688zm0 0"/><path d="m163.175781 305.125-2.96875-1.714844v3.429688zm0 0"/><path d="m166.144531 306.839844-2.96875-1.714844v3.425781zm0 0"/><path d="m169.113281 308.550781-2.96875-1.710937v3.425781zm0 0"/><path d="m172.082031 310.265625-2.96875-1.714844v3.429688zm0 0"/><path d="m175.050781 311.980469-2.96875-1.714844v3.429687zm0 0"/><path d="m178.019531 313.695312-2.96875-1.714843v3.429687zm0 0"/><path d="m180.988281 315.410156-2.96875-1.714844v3.425782zm0 0"/><path d="m204.738281 301.695312-2.96875-1.714843v3.429687zm0 0"/><path d="m228.492188 287.984375-2.96875-1.714844v3.429688zm0 0"/><path d="m252.242188 274.273438-2.96875-1.714844v3.425781zm0 0"/><path d="m275.992188 260.558594-2.96875-1.714844v3.429688zm0 0"/><path d="m302.710938 248.5625-2.96875-1.714844v3.425782zm0 0"/><path d="m302.710938 221.136719-2.96875-1.714844v3.429687zm0 0"/><path d="m302.710938 138.863281-2.96875-1.714843v3.429687zm0 0"/><path d="m302.710938 111.4375-2.96875-1.710938v3.425782zm0 0"/><path d="m275.992188 96.011719-2.96875-1.714844v3.429687zm0 0"/><path d="m273.023438 94.296875-2.96875-1.710937v3.425781zm0 0"/><path d="m270.054688 92.585938-2.96875-1.714844v3.425781zm0 0"/><path d="m267.085938 90.871094-2.96875-1.714844v3.429688zm0 0"/><path d="m264.117188 89.15625-2.96875-1.714844v3.429688zm0 0"/><path d="m261.148438 87.441406-2.96875-1.714844v3.429688zm0 0"/><path d="m258.179688 85.726562-2.96875-1.710937v3.425781zm0 0"/><path d="m255.210938 84.015625-2.96875-1.714844v3.425781zm0 0"/><path d="m228.492188 68.585938-2.96875-1.710938v3.425781zm0 0"/><path d="m225.523438 66.875-2.972657-1.714844v3.425782zm0 0"/><path d="m222.550781 65.160156-2.96875-1.714844v3.429688zm0 0"/><path d="m219.582031 63.445312-2.96875-1.714843v3.429687zm0 0"/><path d="m216.613281 61.730469-2.96875-1.710938v3.425781zm0 0"/><path d="m213.644531 60.019531-2.96875-1.714843v3.425781zm0 0"/><path d="m210.675781 58.304688-2.96875-1.714844v3.429687zm0 0"/><path d="m207.707031 56.589844-2.96875-1.714844v3.429688zm0 0"/><path d="m180.988281 41.164062-2.96875-1.714843v3.429687zm0 0"/><path d="m157.238281 54.875-2.96875-1.714844v3.429688zm0 0"/><path d="m85.988281 96.011719-2.96875-1.714844v3.429687zm0 0"/><path d="m62.238281 109.726562-2.96875-1.714843v3.425781zm0 0"/><path d="m62.238281 140.578125-2.96875-1.714844v3.429688zm0 0"/><path d="m62.238281 144.003906-2.96875-1.710937v3.425781zm0 0"/><path d="m62.238281 147.433594-2.96875-1.714844v3.429688zm0 0"/><path d="m62.238281 150.863281-2.96875-1.714843v3.425781zm0 0"/><path d="m62.238281 154.289062-2.96875-1.714843v3.429687zm0 0"/><path d="m62.238281 157.71875-2.96875-1.714844v3.425782zm0 0"/><path d="m62.238281 161.144531-2.96875-1.714843v3.429687zm0 0"/><path d="m62.238281 164.574219-2.96875-1.714844v3.429687zm0 0"/><path d="m62.238281 195.425781-2.96875-1.714843v3.429687zm0 0"/><path d="m62.238281 198.855469-2.96875-1.714844v3.429687zm0 0"/><path d="m62.238281 202.28125-2.96875-1.710938v3.425782zm0 0"/><path d="m62.238281 205.710938-2.96875-1.714844v3.429687zm0 0"/><path d="m62.238281 209.136719-2.96875-1.710938v3.425781zm0 0"/><path d="m62.238281 212.566406-2.96875-1.714844v3.429688zm0 0"/><path d="m62.238281 215.996094-2.96875-1.714844v3.425781zm0 0"/><path d="m62.238281 219.421875-2.96875-1.714844v3.429688zm0 0"/><path d="m62.238281 250.273438-2.96875-1.710938v3.425781zm0 0"/><path d="m85.988281 263.988281-2.96875-1.714843v3.429687zm0 0"/><path d="m157.238281 305.125-2.96875-1.714844v3.429688zm0 0"/><path d="m180.988281 318.835938-2.96875-1.714844v3.429687zm0 0"/><path d="m207.707031 303.410156-2.96875-1.714844v3.429688zm0 0"/><path d="m210.675781 301.695312-2.96875-1.714843v3.429687zm0 0"/><path d="m213.644531 299.980469-2.96875-1.710938v3.425781zm0 0"/><path d="m216.613281 298.269531-2.96875-1.714843v3.425781zm0 0"/><path d="m219.582031 296.554688-2.96875-1.714844v3.429687zm0 0"/><path d="m222.550781 294.839844-2.96875-1.714844v3.429688zm0 0"/><path d="m225.523438 293.125-2.972657-1.710938v3.425782zm0 0"/><path d="m228.492188 291.414062-2.96875-1.714843v3.425781zm0 0"/><path d="m255.210938 275.984375-2.96875-1.710937v3.425781zm0 0"/><path d="m258.179688 274.273438-2.96875-1.714844v3.425781zm0 0"/><path d="m261.148438 272.558594-2.96875-1.714844v3.429688zm0 0"/><path d="m264.117188 270.84375-2.96875-1.714844v3.429688zm0 0"/><path d="m267.085938 269.128906-2.96875-1.714844v3.429688zm0 0"/><path d="m270.054688 267.414062-2.96875-1.710937v3.425781zm0 0"/><path d="m273.023438 265.703125-2.96875-1.714844v3.425781zm0 0"/><path d="m275.992188 263.988281-2.96875-1.714843v3.429687zm0 0"/><path d="m305.679688 250.273438-2.96875-1.710938v3.425781zm0 0"/><path d="m305.679688 246.847656-2.96875-1.714844v3.429688zm0 0"/><path d="m305.679688 222.851562-2.96875-1.714843v3.429687zm0 0"/><path d="m305.679688 219.421875-2.96875-1.714844v3.429688zm0 0"/><path d="m305.679688 140.578125-2.96875-1.714844v3.429688zm0 0"/><path d="m305.679688 137.148438-2.96875-1.714844v3.429687zm0 0"/><path d="m305.679688 113.152344-2.96875-1.714844v3.429688zm0 0"/><path d="m305.679688 109.726562-2.96875-1.714843v3.425781zm0 0"/><path d="m275.992188 92.585938-2.96875-1.714844v3.425781zm0 0"/><path d="m270.054688 89.15625-2.96875-1.714844v3.429688zm0 0"/><path d="m264.117188 85.726562-2.96875-1.710937v3.425781zm0 0"/><path d="m258.179688 82.300781-2.96875-1.714843v3.429687zm0 0"/><path d="m228.492188 65.160156-2.96875-1.714844v3.429688zm0 0"/><path d="m222.550781 61.730469-2.96875-1.710938v3.425781zm0 0"/><path d="m216.613281 58.304688-2.96875-1.714844v3.429687zm0 0"/><path d="m210.675781 54.875-2.96875-1.714844v3.429688zm0 0"/><path d="m180.988281 37.734375-2.96875-1.714844v3.429688zm0 0"/><path d="m178.019531 39.449219-2.96875-1.714844v3.429687zm0 0"/><path d="m157.238281 51.449219-2.96875-1.714844v3.425781zm0 0"/><path d="m154.269531 53.160156-2.96875-1.710937v3.425781zm0 0"/><path d="m85.988281 92.585938-2.96875-1.714844v3.425781zm0 0"/><path d="m83.019531 94.296875-2.96875-1.710937v3.425781zm0 0"/><path d="m62.238281 106.296875-2.96875-1.714844v3.429688zm0 0"/><path d="m59.269531 108.011719-2.96875-1.714844v3.429687zm0 0"/><path d="m59.269531 142.292969-2.96875-1.714844v3.425781zm0 0"/><path d="m59.269531 149.148438-2.96875-1.714844v3.429687zm0 0"/><path d="m59.269531 156.003906-2.96875-1.714844v3.429688zm0 0"/><path d="m59.269531 162.859375-2.96875-1.714844v3.429688zm0 0"/><path d="m59.269531 197.140625-2.96875-1.714844v3.429688zm0 0"/><path d="m59.269531 203.996094-2.96875-1.714844v3.429688zm0 0"/><path d="m59.269531 210.851562-2.96875-1.714843v3.429687zm0 0"/><path d="m59.269531 217.707031-2.96875-1.710937v3.425781zm0 0"/><path d="m59.269531 251.988281-2.96875-1.714843v3.429687zm0 0"/><path d="m62.238281 253.703125-2.96875-1.714844v3.429688zm0 0"/><path d="m83.019531 265.703125-2.96875-1.714844v3.425781zm0 0"/><path d="m85.988281 267.414062-2.96875-1.710937v3.425781zm0 0"/><path d="m154.269531 306.839844-2.96875-1.714844v3.425781zm0 0"/><path d="m157.238281 308.550781-2.96875-1.710937v3.425781zm0 0"/><path d="m178.019531 320.550781-2.96875-1.714843v3.429687zm0 0"/><path d="m180.988281 322.265625-2.96875-1.714844v3.429688zm0 0"/><path d="m210.675781 305.125-2.96875-1.714844v3.429688zm0 0"/><path d="m216.613281 301.695312-2.96875-1.714843v3.429687zm0 0"/><path d="m222.550781 298.269531-2.96875-1.714843v3.425781zm0 0"/><path d="m228.492188 294.839844-2.96875-1.714844v3.429688zm0 0"/><path d="m258.179688 277.699219-2.96875-1.714844v3.429687zm0 0"/><path d="m264.117188 274.273438-2.96875-1.714844v3.425781zm0 0"/><path d="m270.054688 270.84375-2.96875-1.714844v3.429688zm0 0"/><path d="m275.992188 267.414062-2.96875-1.710937v3.425781zm0 0"/><path d="m308.648438 251.988281-2.96875-1.714843v3.429687zm0 0"/><path d="m308.648438 245.132812-2.96875-1.714843v3.429687zm0 0"/><path d="m308.648438 224.566406-2.96875-1.714844v3.425782zm0 0"/><path d="m308.648438 217.707031-2.96875-1.710937v3.425781zm0 0"/><path d="m308.648438 142.292969-2.96875-1.714844v3.425781zm0 0"/><path d="m308.648438 135.433594-2.96875-1.710938v3.425782zm0 0"/><path d="m308.648438 114.867188-2.96875-1.714844v3.429687zm0 0"/><path d="m308.648438 108.011719-2.96875-1.714844v3.429687zm0 0"/><path d="m275.992188 89.15625-2.96875-1.714844v3.429688zm0 0"/><path d="m273.023438 87.441406-2.96875-1.714844v3.429688zm0 0"/><path d="m264.117188 82.300781-2.96875-1.714843v3.429687zm0 0"/><path d="m261.148438 80.585938-2.96875-1.714844v3.429687zm0 0"/><path d="m228.492188 61.730469-2.96875-1.710938v3.425781zm0 0"/><path d="m225.523438 60.019531-2.972657-1.714843v3.425781zm0 0"/><path d="m216.613281 54.875-2.96875-1.714844v3.429688zm0 0"/><path d="m213.644531 53.160156-2.96875-1.710937v3.425781zm0 0"/><path d="m180.988281 34.308594-2.96875-1.714844v3.425781zm0 0"/><path d="m175.050781 37.734375-2.96875-1.714844v3.429688zm0 0"/><path d="m157.238281 48.019531-2.96875-1.714843v3.429687zm0 0"/><path d="m151.300781 51.449219-2.96875-1.714844v3.425781zm0 0"/><path d="m85.988281 89.15625-2.96875-1.714844v3.429688zm0 0"/><path d="m80.050781 92.585938-2.96875-1.714844v3.425781zm0 0"/><path d="m62.238281 102.867188-2.96875-1.710938v3.425781zm0 0"/><path d="m56.300781 106.296875-2.96875-1.714844v3.429688zm0 0"/><path d="m56.300781 144.003906-2.96875-1.710937v3.425781zm0 0"/><path d="m56.300781 147.433594-2.96875-1.714844v3.429688zm0 0"/><path d="m56.300781 157.71875-2.96875-1.714844v3.425782zm0 0"/><path d="m56.300781 161.144531-2.96875-1.714843v3.429687zm0 0"/><path d="m56.300781 198.855469-2.96875-1.714844v3.429687zm0 0"/><path d="m56.300781 202.28125-2.96875-1.710938v3.425782zm0 0"/><path d="m56.300781 212.566406-2.96875-1.714844v3.429688zm0 0"/><path d="m56.300781 215.996094-2.96875-1.714844v3.425781zm0 0"/><path d="m56.300781 253.703125-2.96875-1.714844v3.429688zm0 0"/><path d="m62.238281 257.132812-2.96875-1.714843v3.425781zm0 0"/><path d="m80.050781 267.414062-2.96875-1.710937v3.425781zm0 0"/><path d="m85.988281 270.84375-2.96875-1.714844v3.429688zm0 0"/><path d="m151.300781 308.550781-2.96875-1.710937v3.425781zm0 0"/><path d="m157.238281 311.980469-2.96875-1.714844v3.429687zm0 0"/><path d="m175.050781 322.265625-2.96875-1.714844v3.429688zm0 0"/><path d="m180.988281 325.691406-2.96875-1.710937v3.425781zm0 0"/><path d="m213.644531 306.839844-2.96875-1.714844v3.425781zm0 0"/><path d="m216.613281 305.125-2.96875-1.714844v3.429688zm0 0"/><path d="m225.523438 299.980469-2.972657-1.710938v3.425781zm0 0"/><path d="m228.492188 298.269531-2.96875-1.714843v3.425781zm0 0"/><path d="m261.148438 279.414062-2.96875-1.714843v3.429687zm0 0"/><path d="m264.117188 277.699219-2.96875-1.714844v3.429687zm0 0"/><path d="m273.023438 272.558594-2.96875-1.714844v3.429688zm0 0"/><path d="m275.992188 270.84375-2.96875-1.714844v3.429688zm0 0"/><path d="m311.617188 253.703125-2.96875-1.714844v3.429688zm0 0"/><path d="m311.617188 250.273438-2.96875-1.710938v3.425781zm0 0"/><path d="m311.617188 246.847656-2.96875-1.714844v3.429688zm0 0"/><path d="m311.617188 243.417969-2.96875-1.710938v3.425781zm0 0"/><path d="m311.617188 226.277344-2.96875-1.710938v3.425782zm0 0"/><path d="m311.617188 222.851562-2.96875-1.714843v3.429687zm0 0"/><path d="m311.617188 219.421875-2.96875-1.714844v3.429688zm0 0"/><path d="m311.617188 215.996094-2.96875-1.714844v3.425781zm0 0"/><path d="m311.617188 144.003906-2.96875-1.710937v3.425781zm0 0"/><path d="m311.617188 140.578125-2.96875-1.714844v3.429688zm0 0"/><path d="m311.617188 137.148438-2.96875-1.714844v3.429687zm0 0"/><path d="m311.617188 133.722656-2.96875-1.714844v3.425782zm0 0"/><path d="m311.617188 116.582031-2.96875-1.714843v3.425781zm0 0"/><path d="m311.617188 113.152344-2.96875-1.714844v3.429688zm0 0"/><path d="m311.617188 109.726562-2.96875-1.714843v3.425781zm0 0"/><path d="m311.617188 106.296875-2.96875-1.714844v3.429688zm0 0"/><path d="m275.992188 85.726562-2.96875-1.710937v3.425781zm0 0"/><path d="m264.117188 78.871094-2.96875-1.714844v3.429688zm0 0"/><path d="m228.492188 58.304688-2.96875-1.714844v3.429687zm0 0"/><path d="m216.613281 51.449219-2.96875-1.714844v3.425781zm0 0"/><path d="m180.988281 30.878906-2.96875-1.714844v3.429688zm0 0"/><path d="m178.019531 32.59375-2.96875-1.714844v3.429688zm0 0"/><path d="m175.050781 34.308594-2.96875-1.714844v3.425781zm0 0"/><path d="m172.082031 36.019531-2.96875-1.710937v3.425781zm0 0"/><path d="m157.238281 44.589844-2.96875-1.710938v3.425782zm0 0"/><path d="m154.269531 46.304688-2.96875-1.714844v3.429687zm0 0"/><path d="m151.300781 48.019531-2.96875-1.714843v3.429687zm0 0"/><path d="m148.332031 49.734375-2.96875-1.714844v3.429688zm0 0"/><path d="m85.988281 85.726562-2.96875-1.710937v3.425781zm0 0"/><path d="m83.019531 87.441406-2.96875-1.714844v3.429688zm0 0"/><path d="m80.050781 89.15625-2.96875-1.714844v3.429688zm0 0"/><path d="m77.082031 90.871094-2.96875-1.714844v3.429688zm0 0"/><path d="m62.238281 99.441406-2.96875-1.714844v3.429688zm0 0"/><path d="m59.269531 101.15625-2.96875-1.714844v3.425782zm0 0"/><path d="m56.300781 102.867188-2.96875-1.710938v3.425781zm0 0"/><path d="m53.332031 104.582031-2.96875-1.714843v3.429687zm0 0"/><path d="m53.332031 145.71875-2.96875-1.714844v3.429688zm0 0"/><path d="m53.332031 159.429688-2.96875-1.710938v3.425781zm0 0"/><path d="m53.332031 200.570312-2.96875-1.714843v3.425781zm0 0"/><path d="m53.332031 214.28125-2.96875-1.714844v3.429688zm0 0"/><path d="m53.332031 255.417969-2.96875-1.714844v3.429687zm0 0"/><path d="m56.300781 257.132812-2.96875-1.714843v3.425781zm0 0"/><path d="m59.269531 258.84375-2.96875-1.710938v3.425782zm0 0"/><path d="m62.238281 260.558594-2.96875-1.714844v3.429688zm0 0"/><path d="m77.082031 269.128906-2.96875-1.714844v3.429688zm0 0"/><path d="m80.050781 270.84375-2.96875-1.714844v3.429688zm0 0"/><path d="m83.019531 272.558594-2.96875-1.714844v3.429688zm0 0"/><path d="m85.988281 274.273438-2.96875-1.714844v3.425781zm0 0"/><path d="m148.332031 310.265625-2.96875-1.714844v3.429688zm0 0"/><path d="m151.300781 311.980469-2.96875-1.714844v3.429687zm0 0"/><path d="m154.269531 313.695312-2.96875-1.714843v3.429687zm0 0"/><path d="m157.238281 315.410156-2.96875-1.714844v3.425782zm0 0"/><path d="m172.082031 323.980469-2.96875-1.714844v3.425781zm0 0"/><path d="m175.050781 325.691406-2.96875-1.710937v3.425781zm0 0"/><path d="m178.019531 327.40625-2.96875-1.714844v3.429688zm0 0"/><path d="m180.988281 329.121094-2.96875-1.714844v3.429688zm0 0"/><path d="m216.613281 308.550781-2.96875-1.710937v3.425781zm0 0"/><path d="m228.492188 301.695312-2.96875-1.714843v3.429687zm0 0"/><path d="m264.117188 281.128906-2.96875-1.714844v3.429688zm0 0"/><path d="m275.992188 274.273438-2.96875-1.714844v3.425781zm0 0"/><path d="m314.585938 255.417969-2.96875-1.714844v3.429687zm0 0"/><path d="m314.585938 241.707031-2.96875-1.714843v3.425781zm0 0"/><path d="m314.585938 227.992188-2.96875-1.714844v3.429687zm0 0"/><path d="m314.585938 214.28125-2.96875-1.714844v3.429688zm0 0"/><path d="m314.585938 145.71875-2.96875-1.714844v3.429688zm0 0"/><path d="m314.585938 132.007812-2.96875-1.714843v3.429687zm0 0"/><path d="m314.585938 118.292969-2.96875-1.710938v3.425781zm0 0"/><path d="m314.585938 104.582031-2.96875-1.714843v3.429687zm0 0"/><path d="m275.992188 82.300781-2.96875-1.714843v3.429687zm0 0"/><path d="m273.023438 80.585938-2.96875-1.714844v3.429687zm0 0"/><path d="m270.054688 78.871094-2.96875-1.714844v3.429688zm0 0"/><path d="m267.085938 77.15625-2.96875-1.710938v3.425782zm0 0"/><path d="m228.492188 54.875-2.96875-1.714844v3.429688zm0 0"/><path d="m225.523438 53.160156-2.972657-1.710937v3.425781zm0 0"/><path d="m222.550781 51.449219-2.96875-1.714844v3.425781zm0 0"/><path d="m219.582031 49.734375-2.96875-1.714844v3.429688zm0 0"/><path d="m180.988281 27.449219-2.96875-1.710938v3.425781zm0 0"/><path d="m169.113281 34.308594-2.96875-1.714844v3.425781zm0 0"/><path d="m157.238281 41.164062-2.96875-1.714843v3.429687zm0 0"/><path d="m145.363281 48.019531-2.96875-1.714843v3.429687zm0 0"/><path d="m85.988281 82.300781-2.96875-1.714843v3.429687zm0 0"/><path d="m74.113281 89.15625-2.96875-1.714844v3.429688zm0 0"/><path d="m62.238281 96.011719-2.96875-1.714844v3.429687zm0 0"/><path d="m50.363281 102.867188-2.96875-1.710938v3.425781zm0 0"/><path d="m50.363281 147.433594-2.96875-1.714844v3.429688zm0 0"/><path d="m50.363281 150.863281-2.96875-1.714843v3.425781zm0 0"/><path d="m50.363281 154.289062-2.96875-1.714843v3.429687zm0 0"/><path d="m50.363281 157.71875-2.96875-1.714844v3.425782zm0 0"/><path d="m50.363281 202.28125-2.96875-1.710938v3.425782zm0 0"/><path d="m50.363281 205.710938-2.96875-1.714844v3.429687zm0 0"/><path d="m50.363281 209.136719-2.96875-1.710938v3.425781zm0 0"/><path d="m50.363281 212.566406-2.96875-1.714844v3.429688zm0 0"/><path d="m50.363281 257.132812-2.96875-1.714843v3.425781zm0 0"/><path d="m62.238281 263.988281-2.96875-1.714843v3.429687zm0 0"/><path d="m74.113281 270.84375-2.96875-1.714844v3.429688zm0 0"/><path d="m85.988281 277.699219-2.96875-1.714844v3.429687zm0 0"/><path d="m145.363281 311.980469-2.96875-1.714844v3.429687zm0 0"/><path d="m157.238281 318.835938-2.96875-1.714844v3.429687zm0 0"/><path d="m169.113281 325.691406-2.96875-1.710937v3.425781zm0 0"/><path d="m180.988281 332.550781-2.96875-1.714843v3.425781zm0 0"/><path d="m219.582031 310.265625-2.96875-1.714844v3.429688zm0 0"/><path d="m222.550781 308.550781-2.96875-1.710937v3.425781zm0 0"/><path d="m225.523438 306.839844-2.972657-1.714844v3.425781zm0 0"/><path d="m228.492188 305.125-2.96875-1.714844v3.429688zm0 0"/><path d="m267.085938 282.84375-2.96875-1.714844v3.425782zm0 0"/><path d="m270.054688 281.128906-2.96875-1.714844v3.429688zm0 0"/><path d="m273.023438 279.414062-2.96875-1.714843v3.429687zm0 0"/><path d="m275.992188 277.699219-2.96875-1.714844v3.429687zm0 0"/><path d="m317.554688 257.132812-2.96875-1.714843v3.425781zm0 0"/><path d="m317.554688 253.703125-2.96875-1.714844v3.429688zm0 0"/><path d="m317.554688 243.417969-2.96875-1.710938v3.425781zm0 0"/><path d="m317.554688 239.992188-2.96875-1.714844v3.429687zm0 0"/><path d="m317.554688 229.707031-2.96875-1.714843v3.429687zm0 0"/><path d="m317.554688 226.277344-2.96875-1.710938v3.425782zm0 0"/><path d="m317.554688 215.996094-2.96875-1.714844v3.425781zm0 0"/><path d="m317.554688 212.566406-2.96875-1.714844v3.429688zm0 0"/><path d="m317.554688 147.433594-2.96875-1.714844v3.429688zm0 0"/><path d="m317.554688 144.003906-2.96875-1.710937v3.425781zm0 0"/><path d="m317.554688 133.722656-2.96875-1.714844v3.425782zm0 0"/><path d="m317.554688 130.292969-2.96875-1.714844v3.429687zm0 0"/><path d="m317.554688 120.007812-2.96875-1.714843v3.429687zm0 0"/><path d="m317.554688 116.582031-2.96875-1.714843v3.425781zm0 0"/><path d="m317.554688 106.296875-2.96875-1.714844v3.429688zm0 0"/><path d="m317.554688 102.867188-2.96875-1.710938v3.425781zm0 0"/><path d="m275.992188 78.871094-2.96875-1.714844v3.429688zm0 0"/><path d="m270.054688 75.445312-2.96875-1.714843v3.425781zm0 0"/><path d="m228.492188 51.449219-2.96875-1.714844v3.425781zm0 0"/><path d="m222.550781 48.019531-2.96875-1.714843v3.429687zm0 0"/><path d="m180.988281 24.023438-2.96875-1.714844v3.429687zm0 0"/><path d="m178.019531 25.738281-2.96875-1.714843v3.425781zm0 0"/><path d="m169.113281 30.878906-2.96875-1.714844v3.429688zm0 0"/><path d="m166.144531 32.59375-2.96875-1.714844v3.429688zm0 0"/><path d="m157.238281 37.734375-2.96875-1.714844v3.429688zm0 0"/><path d="m154.269531 39.449219-2.96875-1.714844v3.429687zm0 0"/><path d="m145.363281 44.589844-2.96875-1.710938v3.425782zm0 0"/><path d="m142.394531 46.304688-2.96875-1.714844v3.429687zm0 0"/><path d="m85.988281 78.871094-2.96875-1.714844v3.429688zm0 0"/><path d="m83.019531 80.585938-2.96875-1.714844v3.429687zm0 0"/><path d="m74.113281 85.726562-2.96875-1.710937v3.425781zm0 0"/><path d="m71.144531 87.441406-2.96875-1.714844v3.429688zm0 0"/><path d="m62.238281 92.585938-2.96875-1.714844v3.425781zm0 0"/><path d="m59.269531 94.296875-2.96875-1.710937v3.425781zm0 0"/><path d="m50.363281 99.441406-2.96875-1.714844v3.429688zm0 0"/><path d="m47.394531 101.15625-2.96875-1.714844v3.425782zm0 0"/><path d="m47.394531 149.148438-2.96875-1.714844v3.429687zm0 0"/><path d="m47.394531 156.003906-2.96875-1.714844v3.429688zm0 0"/><path d="m47.394531 203.996094-2.96875-1.714844v3.429688zm0 0"/><path d="m47.394531 210.851562-2.96875-1.714843v3.429687zm0 0"/><path d="m47.394531 258.84375-2.96875-1.710938v3.425782zm0 0"/><path d="m50.363281 260.558594-2.96875-1.714844v3.429688zm0 0"/><path d="m59.269531 265.703125-2.96875-1.714844v3.425781zm0 0"/><path d="m62.238281 267.414062-2.96875-1.710937v3.425781zm0 0"/><path d="m71.144531 272.558594-2.96875-1.714844v3.429688zm0 0"/><path d="m74.113281 274.273438-2.96875-1.714844v3.425781zm0 0"/><path d="m83.019531 279.414062-2.96875-1.714843v3.429687zm0 0"/><path d="m85.988281 281.128906-2.96875-1.714844v3.429688zm0 0"/><path d="m142.394531 313.695312-2.96875-1.714843v3.429687zm0 0"/><path d="m145.363281 315.410156-2.96875-1.714844v3.425782zm0 0"/><path d="m154.269531 320.550781-2.96875-1.714843v3.429687zm0 0"/><path d="m157.238281 322.265625-2.96875-1.714844v3.429688zm0 0"/><path d="m166.144531 327.40625-2.96875-1.714844v3.429688zm0 0"/><path d="m169.113281 329.121094-2.96875-1.714844v3.429688zm0 0"/><path d="m178.019531 334.261719-2.96875-1.710938v3.425781zm0 0"/><path d="m180.988281 335.976562-2.96875-1.714843v3.429687zm0 0"/><path d="m222.550781 311.980469-2.96875-1.714844v3.429687zm0 0"/><path d="m228.492188 308.550781-2.96875-1.710937v3.425781zm0 0"/><path d="m270.054688 284.554688-2.96875-1.710938v3.425781zm0 0"/><path d="m275.992188 281.128906-2.96875-1.714844v3.429688zm0 0"/><path d="m320.523438 258.84375-2.96875-1.710938v3.425782zm0 0"/><path d="m320.523438 251.988281-2.96875-1.714843v3.429687zm0 0"/><path d="m320.523438 245.132812-2.96875-1.714843v3.429687zm0 0"/><path d="m320.523438 238.277344-2.96875-1.714844v3.429688zm0 0"/><path d="m320.523438 231.421875-2.96875-1.714844v3.429688zm0 0"/><path d="m320.523438 224.566406-2.96875-1.714844v3.425782zm0 0"/><path d="m320.523438 217.707031-2.96875-1.710937v3.425781zm0 0"/><path d="m320.523438 210.851562-2.96875-1.714843v3.429687zm0 0"/><path d="m320.523438 149.148438-2.96875-1.714844v3.429687zm0 0"/><path d="m320.523438 142.292969-2.96875-1.714844v3.425781zm0 0"/><path d="m320.523438 135.433594-2.96875-1.710938v3.425782zm0 0"/><path d="m320.523438 128.578125-2.96875-1.714844v3.429688zm0 0"/><path d="m320.523438 121.722656-2.96875-1.714844v3.429688zm0 0"/><path d="m320.523438 114.867188-2.96875-1.714844v3.429687zm0 0"/><path d="m320.523438 108.011719-2.96875-1.714844v3.429687zm0 0"/><path d="m320.523438 101.15625-2.96875-1.714844v3.425782zm0 0"/><path d="m275.992188 75.445312-2.96875-1.714843v3.425781zm0 0"/><path d="m273.023438 73.730469-2.96875-1.714844v3.429687zm0 0"/><path d="m228.492188 48.019531-2.96875-1.714843v3.429687zm0 0"/><path d="m225.523438 46.304688-2.972657-1.714844v3.429687zm0 0"/><path d="m180.988281 20.59375-2.96875-1.710938v3.425782zm0 0"/><path d="m175.050781 24.023438-2.96875-1.714844v3.429687zm0 0"/><path d="m169.113281 27.449219-2.96875-1.710938v3.425781zm0 0"/><path d="m163.175781 30.878906-2.96875-1.714844v3.429688zm0 0"/><path d="m157.238281 34.308594-2.96875-1.714844v3.425781zm0 0"/><path d="m151.300781 37.734375-2.96875-1.714844v3.429688zm0 0"/><path d="m145.363281 41.164062-2.96875-1.714843v3.429687zm0 0"/><path d="m139.425781 44.589844-2.96875-1.710938v3.425782zm0 0"/><path d="m85.988281 75.445312-2.96875-1.714843v3.425781zm0 0"/><path d="m80.050781 78.871094-2.96875-1.714844v3.429688zm0 0"/><path d="m74.113281 82.300781-2.96875-1.714843v3.429687zm0 0"/><path d="m68.175781 85.726562-2.96875-1.710937v3.425781zm0 0"/><path d="m62.238281 89.15625-2.96875-1.714844v3.429688zm0 0"/><path d="m56.300781 92.585938-2.96875-1.714844v3.425781zm0 0"/><path d="m50.363281 96.011719-2.96875-1.714844v3.429687zm0 0"/><path d="m44.425781 99.441406-2.96875-1.714844v3.429688zm0 0"/><path d="m44.425781 150.863281-2.96875-1.714843v3.425781zm0 0"/><path d="m44.425781 154.289062-2.96875-1.714843v3.429687zm0 0"/><path d="m44.425781 205.710938-2.96875-1.714844v3.429687zm0 0"/><path d="m44.425781 209.136719-2.96875-1.710938v3.425781zm0 0"/><path d="m44.425781 260.558594-2.96875-1.714844v3.429688zm0 0"/><path d="m50.363281 263.988281-2.96875-1.714843v3.429687zm0 0"/><path d="m56.300781 267.414062-2.96875-1.710937v3.425781zm0 0"/><path d="m62.238281 270.84375-2.96875-1.714844v3.429688zm0 0"/><path d="m68.175781 274.273438-2.96875-1.714844v3.425781zm0 0"/><path d="m74.113281 277.699219-2.96875-1.714844v3.429687zm0 0"/><path d="m80.050781 281.128906-2.96875-1.714844v3.429688zm0 0"/><path d="m85.988281 284.554688-2.96875-1.710938v3.425781zm0 0"/><path d="m139.425781 315.410156-2.96875-1.714844v3.425782zm0 0"/><path d="m145.363281 318.835938-2.96875-1.714844v3.429687zm0 0"/><path d="m151.300781 322.265625-2.96875-1.714844v3.429688zm0 0"/><path d="m157.238281 325.691406-2.96875-1.710937v3.425781zm0 0"/><path d="m163.175781 329.121094-2.96875-1.714844v3.429688zm0 0"/><path d="m169.113281 332.550781-2.96875-1.714843v3.425781zm0 0"/><path d="m175.050781 335.976562-2.96875-1.714843v3.429687zm0 0"/><path d="m180.988281 339.40625-2.96875-1.714844v3.425782zm0 0"/><path d="m225.523438 313.695312-2.972657-1.714843v3.429687zm0 0"/><path d="m228.492188 311.980469-2.96875-1.714844v3.429687zm0 0"/><path d="m273.023438 286.269531-2.96875-1.714843v3.429687zm0 0"/><path d="m275.992188 284.554688-2.96875-1.710938v3.425781zm0 0"/><path d="m323.492188 260.558594-2.96875-1.714844v3.429688zm0 0"/><path d="m323.492188 257.132812-2.96875-1.714843v3.425781zm0 0"/><path d="m323.492188 253.703125-2.96875-1.714844v3.429688zm0 0"/><path d="m323.492188 250.273438-2.96875-1.710938v3.425781zm0 0"/><path d="m323.492188 246.847656-2.96875-1.714844v3.429688zm0 0"/><path d="m323.492188 243.417969-2.96875-1.710938v3.425781zm0 0"/><path d="m323.492188 239.992188-2.96875-1.714844v3.429687zm0 0"/><path d="m323.492188 236.5625-2.96875-1.714844v3.429688zm0 0"/><path d="m323.492188 233.136719-2.96875-1.714844v3.425781zm0 0"/><path d="m323.492188 229.707031-2.96875-1.714843v3.429687zm0 0"/><path d="m323.492188 226.277344-2.96875-1.710938v3.425782zm0 0"/><path d="m323.492188 222.851562-2.96875-1.714843v3.429687zm0 0"/><path d="m323.492188 219.421875-2.96875-1.714844v3.429688zm0 0"/><path d="m323.492188 215.996094-2.96875-1.714844v3.425781zm0 0"/><path d="m323.492188 212.566406-2.96875-1.714844v3.429688zm0 0"/><path d="m323.492188 209.136719-2.96875-1.710938v3.425781zm0 0"/><path d="m323.492188 150.863281-2.96875-1.714843v3.425781zm0 0"/><path d="m323.492188 147.433594-2.96875-1.714844v3.429688zm0 0"/><path d="m323.492188 144.003906-2.96875-1.710937v3.425781zm0 0"/><path d="m323.492188 140.578125-2.96875-1.714844v3.429688zm0 0"/><path d="m323.492188 137.148438-2.96875-1.714844v3.429687zm0 0"/><path d="m323.492188 133.722656-2.96875-1.714844v3.425782zm0 0"/><path d="m323.492188 130.292969-2.96875-1.714844v3.429687zm0 0"/><path d="m323.492188 126.863281-2.96875-1.710937v3.425781zm0 0"/><path d="m323.492188 123.4375-2.96875-1.714844v3.429688zm0 0"/><path d="m323.492188 120.007812-2.96875-1.714843v3.429687zm0 0"/><path d="m323.492188 116.582031-2.96875-1.714843v3.425781zm0 0"/><path d="m323.492188 113.152344-2.96875-1.714844v3.429688zm0 0"/><path d="m323.492188 109.726562-2.96875-1.714843v3.425781zm0 0"/><path d="m323.492188 106.296875-2.96875-1.714844v3.429688zm0 0"/><path d="m323.492188 102.867188-2.96875-1.710938v3.425781zm0 0"/><path d="m323.492188 99.441406-2.96875-1.714844v3.429688zm0 0"/><path d="m275.992188 72.015625-2.96875-1.714844v3.429688zm0 0"/><path d="m228.492188 44.589844-2.96875-1.710938v3.425782zm0 0"/><path d="m180.988281 17.167969-2.96875-1.714844v3.429687zm0 0"/><path d="m178.019531 18.882812-2.96875-1.714843v3.425781zm0 0"/><path d="m175.050781 20.59375-2.96875-1.710938v3.425782zm0 0"/><path d="m172.082031 22.308594-2.96875-1.714844v3.429688zm0 0"/><path d="m169.113281 24.023438-2.96875-1.714844v3.429687zm0 0"/><path d="m166.144531 25.738281-2.96875-1.714843v3.425781zm0 0"/><path d="m163.175781 27.449219-2.96875-1.710938v3.425781zm0 0"/><path d="m160.207031 29.164062-2.96875-1.714843v3.429687zm0 0"/><path d="m157.238281 30.878906-2.96875-1.714844v3.429688zm0 0"/><path d="m154.269531 32.59375-2.96875-1.714844v3.429688zm0 0"/><path d="m151.300781 34.308594-2.96875-1.714844v3.425781zm0 0"/><path d="m148.332031 36.019531-2.96875-1.710937v3.425781zm0 0"/><path d="m145.363281 37.734375-2.96875-1.714844v3.429688zm0 0"/><path d="m142.394531 39.449219-2.96875-1.714844v3.429687zm0 0"/><path d="m139.425781 41.164062-2.96875-1.714843v3.429687zm0 0"/><path d="m136.457031 42.878906-2.96875-1.714844v3.425782zm0 0"/><path d="m85.988281 72.015625-2.96875-1.714844v3.429688zm0 0"/><path d="m83.019531 73.730469-2.96875-1.714844v3.429687zm0 0"/><path d="m80.050781 75.445312-2.96875-1.714843v3.425781zm0 0"/><path d="m77.082031 77.15625-2.96875-1.710938v3.425782zm0 0"/><path d="m74.113281 78.871094-2.96875-1.714844v3.429688zm0 0"/><path d="m71.144531 80.585938-2.96875-1.714844v3.429687zm0 0"/><path d="m68.175781 82.300781-2.96875-1.714843v3.429687zm0 0"/><path d="m65.207031 84.015625-2.96875-1.714844v3.425781zm0 0"/><path d="m62.238281 85.726562-2.96875-1.710937v3.425781zm0 0"/><path d="m59.269531 87.441406-2.96875-1.714844v3.429688zm0 0"/><path d="m56.300781 89.15625-2.96875-1.714844v3.429688zm0 0"/><path d="m53.332031 90.871094-2.96875-1.714844v3.429688zm0 0"/><path d="m50.363281 92.585938-2.96875-1.714844v3.425781zm0 0"/><path d="m47.394531 94.296875-2.96875-1.710937v3.425781zm0 0"/><path d="m44.425781 96.011719-2.96875-1.714844v3.429687zm0 0"/><path d="m41.457031 97.726562-2.96875-1.714843v3.429687zm0 0"/><path d="m41.457031 152.574219-2.96875-1.710938v3.425781zm0 0"/><path d="m41.457031 207.425781-2.96875-1.714843v3.425781zm0 0"/><path d="m41.457031 262.273438-2.96875-1.714844v3.429687zm0 0"/><path d="m44.425781 263.988281-2.96875-1.714843v3.429687zm0 0"/><path d="m47.394531 265.703125-2.96875-1.714844v3.425781zm0 0"/><path d="m50.363281 267.414062-2.96875-1.710937v3.425781zm0 0"/><path d="m53.332031 269.128906-2.96875-1.714844v3.429688zm0 0"/><path d="m56.300781 270.84375-2.96875-1.714844v3.429688zm0 0"/><path d="m59.269531 272.558594-2.96875-1.714844v3.429688zm0 0"/><path d="m62.238281 274.273438-2.96875-1.714844v3.425781zm0 0"/><path d="m65.207031 275.984375-2.96875-1.710937v3.425781zm0 0"/><path d="m68.175781 277.699219-2.96875-1.714844v3.429687zm0 0"/><path d="m71.144531 279.414062-2.96875-1.714843v3.429687zm0 0"/><path d="m74.113281 281.128906-2.96875-1.714844v3.429688zm0 0"/><path d="m77.082031 282.84375-2.96875-1.714844v3.425782zm0 0"/><path d="m80.050781 284.554688-2.96875-1.710938v3.425781zm0 0"/><path d="m83.019531 286.269531-2.96875-1.714843v3.429687zm0 0"/><path d="m85.988281 287.984375-2.96875-1.714844v3.429688zm0 0"/><path d="m136.457031 317.121094-2.96875-1.710938v3.425782zm0 0"/><path d="m139.425781 318.835938-2.96875-1.714844v3.429687zm0 0"/><path d="m142.394531 320.550781-2.96875-1.714843v3.429687zm0 0"/><path d="m145.363281 322.265625-2.96875-1.714844v3.429688zm0 0"/><path d="m148.332031 323.980469-2.96875-1.714844v3.425781zm0 0"/><path d="m151.300781 325.691406-2.96875-1.710937v3.425781zm0 0"/><path d="m154.269531 327.40625-2.96875-1.714844v3.429688zm0 0"/><path d="m157.238281 329.121094-2.96875-1.714844v3.429688zm0 0"/><path d="m160.207031 330.835938-2.96875-1.714844v3.429687zm0 0"/><path d="m163.175781 332.550781-2.96875-1.714843v3.425781zm0 0"/><path d="m166.144531 334.261719-2.96875-1.710938v3.425781zm0 0"/><path d="m169.113281 335.976562-2.96875-1.714843v3.429687zm0 0"/><path d="m172.082031 337.691406-2.96875-1.714844v3.429688zm0 0"/><path d="m175.050781 339.40625-2.96875-1.714844v3.425782zm0 0"/><path d="m178.019531 341.117188-2.96875-1.710938v3.425781zm0 0"/><path d="m180.988281 342.832031-2.96875-1.714843v3.429687zm0 0"/><path d="m228.492188 315.410156-2.96875-1.714844v3.425782zm0 0"/><path d="m275.992188 287.984375-2.96875-1.714844v3.429688zm0 0"/></g></svg>