<svg height="360pt" viewBox="0 0 360 360" width="360pt" xmlns="http://www.w3.org/2000/svg"><path d="m0 0h360v360h-360z" fill="#fff"/><g fill="#800080"><path d="m172.585938 180 11.121093-6.421875v12.84375zm0 0"/><path d="m183.707031 173.578125 11.121094-6.421875v12.84375zm0 0"/><path d="m172.585938 167.15625 11.121093-6.417969v12.839844zm0 0"/><path d="m161.464844 173.578125 11.121094-6.421875v12.84375zm0 0"/><path d="m194.828125 192.84375 11.121094-6.421875v12.839844zm0 0"/><path d="m194.828125 167.15625 11.121094-6.417969v12.839844zm0 0"/><path d="m183.707031 160.738281 11.121094-6.421875v12.839844zm0 0"/><path d="m172.585938 154.316406 11.121093-6.421875v12.84375zm0 0"/><path d="m150.34375 167.15625 11.121094-6.417969v12.839844zm0 0"/><path d="m150.34375 180 11.121094-6.421875v12.84375zm0 0"/><path d="m150.34375 192.84375 11.121094-6.421875v12.839844zm0 0"/><path d="m161.464844 199.261719 11.121094-6.417969v12.839844zm0 0"/><path d="m205.949219 199.261719 11.121093-6.417969v12.839844zm0 0"/><path d="m205.949219 186.421875 11.121093-6.421875v12.84375zm0 0"/><path d="m205.949219 173.578125 11.121093-6.421875v12.84375zm0 0"/><path d="m205.949219 160.738281 11.121093-6.421875v12.839844zm0 0"/><path d="m172.585938 141.472656 11.121093-6.417968v12.839843zm0 0"/><path d="m161.464844 147.894531 11.121094-6.421875v12.84375zm0 0"/><path d="m150.34375 154.316406 11.121094-6.421875v12.84375zm0 0"/><path d="m139.222656 160.738281 11.121094-6.421875v12.839844zm0 0"/><path d="m139.222656 173.578125 11.121094-6.421875v12.84375zm0 0"/><path d="m194.828125 205.683594 11.121094-6.421875v12.84375zm0 0"/><path d="m217.070312 205.683594 11.121094-6.421875v12.84375zm0 0"/><path d="m217.070312 192.84375 11.121094-6.421875v12.839844zm0 0"/><path d="m217.070312 180 11.121094-6.421875v12.84375zm0 0"/><path d="m217.070312 167.15625 11.121094-6.417969v12.839844zm0 0"/><path d="m217.070312 154.316406 11.121094-6.421875v12.84375zm0 0"/><path d="m205.949219 147.894531 11.121093-6.421875v12.84375zm0 0"/><path d="m183.707031 135.054688 11.121094-6.421876v12.839844zm0 0"/><path d="m161.464844 135.054688 11.121094-6.421876v12.839844zm0 0"/><path d="m139.222656 147.894531 11.121094-6.421875v12.84375zm0 0"/><path d="m128.101562 154.316406 11.121094-6.421875v12.84375zm0 0"/><path d="m128.101562 167.15625 11.121094-6.417969v12.839844zm0 0"/><path d="m128.101562 180 11.121094-6.421875v12.84375zm0 0"/><path d="m139.222656 212.105469 11.121094-6.421875v12.84375zm0 0"/><path d="m161.464844 224.945312 11.121094-6.417968v12.839844zm0 0"/><path d="m194.828125 218.527344 11.121094-6.421875v12.839843zm0 0"/><path d="m205.949219 212.105469 11.121093-6.421875v12.84375zm0 0"/><path d="m228.191406 212.105469 11.121094-6.421875v12.84375zm0 0"/><path d="m228.191406 186.421875 11.121094-6.421875v12.84375zm0 0"/><path d="m228.191406 173.578125 11.121094-6.421875v12.84375zm0 0"/><path d="m228.191406 160.738281 11.121094-6.421875v12.839844zm0 0"/><path d="m161.464844 122.210938 11.121094-6.421876v12.84375zm0 0"/><path d="m150.34375 128.632812 11.121094-6.421874v12.84375zm0 0"/><path d="m128.101562 141.472656 11.121094-6.417968v12.839843zm0 0"/><path d="m116.980469 160.738281 11.121093-6.421875v12.839844zm0 0"/><path d="m116.980469 173.578125 11.121093-6.421875v12.84375zm0 0"/><path d="m116.980469 186.421875 11.121093-6.421875v12.84375zm0 0"/><path d="m116.980469 199.261719 11.121093-6.417969v12.839844zm0 0"/><path d="m116.980469 212.105469 11.121093-6.421875v12.84375zm0 0"/><path d="m139.222656 224.945312 11.121094-6.417968v12.839844zm0 0"/><path d="m150.34375 231.367188 11.121094-6.421876v12.84375zm0 0"/><path d="m161.464844 237.789062 11.121094-6.421874v12.84375zm0 0"/><path d="m183.707031 237.789062 11.121094-6.421874v12.84375zm0 0"/><path d="m194.828125 231.367188 11.121094-6.421876v12.84375zm0 0"/><path d="m217.070312 218.527344 11.121094-6.421875v12.839843zm0 0"/><path d="m239.3125 218.527344 11.121094-6.421875v12.839843zm0 0"/><path d="m239.3125 205.683594 11.121094-6.421875v12.84375zm0 0"/><path d="m239.3125 180 11.121094-6.421875v12.84375zm0 0"/><path d="m239.3125 154.316406 11.121094-6.421875v12.84375zm0 0"/><path d="m239.3125 141.472656 11.121094-6.417968v12.839843zm0 0"/><path d="m161.464844 109.371094 11.121094-6.421875v12.839843zm0 0"/><path d="m150.34375 115.789062 11.121094-6.417968v12.839844zm0 0"/><path d="m139.222656 122.210938 11.121094-6.421876v12.84375zm0 0"/><path d="m128.101562 128.632812 11.121094-6.421874v12.84375zm0 0"/><path d="m105.859375 141.472656 11.121094-6.417968v12.839843zm0 0"/><path d="m105.859375 192.84375 11.121094-6.421875v12.839844zm0 0"/><path d="m105.859375 218.527344 11.121094-6.421875v12.839843zm0 0"/><path d="m116.980469 224.945312 11.121093-6.417968v12.839844zm0 0"/><path d="m128.101562 231.367188 11.121094-6.421876v12.84375zm0 0"/><path d="m150.34375 244.210938 11.121094-6.421876v12.839844zm0 0"/><path d="m172.585938 257.050781 11.121093-6.421875v12.84375zm0 0"/><path d="m205.949219 237.789062 11.121093-6.421874v12.84375zm0 0"/><path d="m217.070312 231.367188 11.121094-6.421876v12.84375zm0 0"/><path d="m228.191406 224.945312 11.121094-6.417968v12.839844zm0 0"/><path d="m250.433594 186.421875 11.125-6.421875v12.84375zm0 0"/><path d="m250.433594 173.578125 11.125-6.421875v12.84375zm0 0"/><path d="m250.433594 160.738281 11.125-6.421875v12.839844zm0 0"/><path d="m250.433594 147.894531 11.125-6.421875v12.84375zm0 0"/><path d="m150.34375 102.949219 11.121094-6.421875v12.84375zm0 0"/><path d="m139.222656 109.371094 11.121094-6.421875v12.839843zm0 0"/><path d="m94.734375 199.261719 11.125-6.417969v12.839844zm0 0"/><path d="m94.734375 224.945312 11.125-6.417968v12.839844zm0 0"/><path d="m105.859375 231.367188 11.121094-6.421876v12.84375zm0 0"/><path d="m116.980469 237.789062 11.121093-6.421874v12.84375zm0 0"/><path d="m128.101562 244.210938 11.121094-6.421876v12.839844zm0 0"/><path d="m139.222656 250.628906 11.121094-6.417968v12.839843zm0 0"/><path d="m150.34375 257.050781 11.121094-6.421875v12.84375zm0 0"/><path d="m161.464844 263.472656 11.121094-6.421875v12.84375zm0 0"/><path d="m172.585938 269.894531 11.121093-6.421875v12.839844zm0 0"/><path d="m194.828125 257.050781 11.121094-6.421875v12.84375zm0 0"/><path d="m205.949219 250.628906 11.121093-6.417968v12.839843zm0 0"/><path d="m239.3125 231.367188 11.121094-6.421876v12.84375zm0 0"/><path d="m150.34375 269.894531 11.121094-6.421875v12.839844zm0 0"/><path d="m205.949219 263.472656 11.121093-6.421875v12.84375zm0 0"/><path d="m217.070312 257.050781 11.121094-6.421875v12.84375zm0 0"/><path d="m239.3125 244.210938 11.121094-6.421876v12.839844zm0 0"/><path d="m128.101562 269.894531 11.121094-6.421875v12.839844zm0 0"/><path d="m150.34375 282.734375 11.121094-6.421875v12.84375zm0 0"/><path d="m183.707031 173.578125-11.121093-6.421875v12.84375zm0 0"/><path d="m183.707031 186.421875-11.121093-6.421875v12.84375zm0 0"/><path d="m205.949219 186.421875-11.121094-6.421875v12.84375zm0 0"/><path d="m205.949219 173.578125-11.121094-6.421875v12.84375zm0 0"/><path d="m183.707031 160.738281-11.121093-6.421875v12.839844zm0 0"/><path d="m172.585938 180-11.121094-6.421875v12.84375zm0 0"/><path d="m172.585938 192.84375-11.121094-6.421875v12.839844zm0 0"/><path d="m217.070312 192.84375-11.121093-6.421875v12.839844zm0 0"/><path d="m217.070312 180-11.121093-6.421875v12.84375zm0 0"/><path d="m217.070312 167.15625-11.121093-6.417969v12.839844zm0 0"/><path d="m205.949219 160.738281-11.121094-6.421875v12.839844zm0 0"/><path d="m194.828125 154.316406-11.121094-6.421875v12.84375zm0 0"/><path d="m172.585938 154.316406-11.121094-6.421875v12.84375zm0 0"/><path d="m161.464844 160.738281-11.121094-6.421875v12.839844zm0 0"/><path d="m205.949219 199.261719-11.121094-6.417969v12.839844zm0 0"/><path d="m228.191406 199.261719-11.121094-6.417969v12.839844zm0 0"/><path d="m228.191406 186.421875-11.121094-6.421875v12.84375zm0 0"/><path d="m228.191406 173.578125-11.121094-6.421875v12.84375zm0 0"/><path d="m217.070312 154.316406-11.121093-6.421875v12.84375zm0 0"/><path d="m183.707031 135.054688-11.121093-6.421876v12.839844zm0 0"/><path d="m161.464844 147.894531-11.121094-6.421875v12.84375zm0 0"/><path d="m150.34375 154.316406-11.121094-6.421875v12.84375zm0 0"/><path d="m150.34375 167.15625-11.121094-6.417969v12.839844zm0 0"/><path d="m150.34375 180-11.121094-6.421875v12.84375zm0 0"/><path d="m217.070312 205.683594-11.121093-6.421875v12.84375zm0 0"/><path d="m239.3125 205.683594-11.121094-6.421875v12.84375zm0 0"/><path d="m239.3125 192.84375-11.121094-6.421875v12.839844zm0 0"/><path d="m239.3125 180-11.121094-6.421875v12.84375zm0 0"/><path d="m239.3125 167.15625-11.121094-6.417969v12.839844zm0 0"/><path d="m239.3125 154.316406-11.121094-6.421875v12.84375zm0 0"/><path d="m194.828125 128.632812-11.121094-6.421874v12.84375zm0 0"/><path d="m172.585938 128.632812-11.121094-6.421874v12.84375zm0 0"/><path d="m139.222656 147.894531-11.121094-6.421875v12.84375zm0 0"/><path d="m139.222656 160.738281-11.121094-6.421875v12.839844zm0 0"/><path d="m139.222656 173.578125-11.121094-6.421875v12.84375zm0 0"/><path d="m139.222656 186.421875-11.121094-6.421875v12.84375zm0 0"/><path d="m139.222656 212.105469-11.121094-6.421875v12.84375zm0 0"/><path d="m150.34375 218.527344-11.121094-6.421875v12.839843zm0 0"/><path d="m161.464844 224.945312-11.121094-6.417968v12.839844zm0 0"/><path d="m172.585938 231.367188-11.121094-6.421876v12.84375zm0 0"/><path d="m194.828125 231.367188-11.121094-6.421876v12.84375zm0 0"/><path d="m217.070312 218.527344-11.121093-6.421875v12.839843zm0 0"/><path d="m228.191406 212.105469-11.121094-6.421875v12.84375zm0 0"/><path d="m250.433594 212.105469-11.121094-6.421875v12.84375zm0 0"/><path d="m250.433594 147.894531-11.121094-6.421875v12.84375zm0 0"/><path d="m172.585938 115.789062-11.121094-6.417968v12.839844zm0 0"/><path d="m161.464844 122.210938-11.121094-6.421876v12.84375zm0 0"/><path d="m150.34375 128.632812-11.121094-6.421874v12.84375zm0 0"/><path d="m139.222656 135.054688-11.121094-6.421876v12.839844zm0 0"/><path d="m128.101562 180-11.121093-6.421875v12.84375zm0 0"/><path d="m128.101562 192.84375-11.121093-6.421875v12.839844zm0 0"/><path d="m128.101562 205.683594-11.121093-6.421875v12.84375zm0 0"/><path d="m128.101562 218.527344-11.121093-6.421875v12.839843zm0 0"/><path d="m139.222656 224.945312-11.121094-6.417968v12.839844zm0 0"/><path d="m150.34375 231.367188-11.121094-6.421876v12.84375zm0 0"/><path d="m172.585938 244.210938-11.121094-6.421876v12.839844zm0 0"/><path d="m194.828125 244.210938-11.121094-6.421876v12.839844zm0 0"/><path d="m205.949219 237.789062-11.121094-6.421874v12.84375zm0 0"/><path d="m217.070312 231.367188-11.121093-6.421876v12.84375zm0 0"/><path d="m228.191406 224.945312-11.121094-6.417968v12.839844zm0 0"/><path d="m239.3125 218.527344-11.121094-6.421875v12.839843zm0 0"/><path d="m261.558594 192.84375-11.125-6.421875v12.839844zm0 0"/><path d="m261.558594 180-11.125-6.421875v12.84375zm0 0"/><path d="m261.558594 154.316406-11.125-6.421875v12.84375zm0 0"/><path d="m250.433594 135.054688-11.121094-6.421876v12.839844zm0 0"/><path d="m194.828125 102.949219-11.121094-6.421875v12.84375zm0 0"/><path d="m183.707031 96.527344-11.121093-6.421875v12.84375zm0 0"/><path d="m172.585938 102.949219-11.121094-6.421875v12.84375zm0 0"/><path d="m161.464844 109.371094-11.121094-6.421875v12.839843zm0 0"/><path d="m116.980469 199.261719-11.121094-6.417969v12.839844zm0 0"/><path d="m116.980469 212.105469-11.121094-6.421875v12.84375zm0 0"/><path d="m116.980469 224.945312-11.121094-6.417968v12.839844zm0 0"/><path d="m128.101562 231.367188-11.121093-6.421876v12.84375zm0 0"/><path d="m139.222656 237.789062-11.121094-6.421874v12.84375zm0 0"/><path d="m150.34375 244.210938-11.121094-6.421876v12.839844zm0 0"/><path d="m161.464844 250.628906-11.121094-6.417968v12.839843zm0 0"/><path d="m172.585938 257.050781-11.121094-6.421875v12.84375zm0 0"/><path d="m183.707031 263.472656-11.121093-6.421875v12.84375zm0 0"/><path d="m205.949219 250.628906-11.121094-6.417968v12.839843zm0 0"/><path d="m217.070312 244.210938-11.121093-6.421876v12.839844zm0 0"/><path d="m228.191406 237.789062-11.121094-6.421874v12.84375zm0 0"/><path d="m239.3125 231.367188-11.121094-6.421876v12.84375zm0 0"/><path d="m272.679688 186.421875-11.121094-6.421875v12.84375zm0 0"/><path d="m272.679688 173.578125-11.121094-6.421875v12.84375zm0 0"/><path d="m272.679688 160.738281-11.121094-6.421875v12.839844zm0 0"/><path d="m272.679688 147.894531-11.121094-6.421875v12.84375zm0 0"/><path d="m150.34375 102.949219-11.121094-6.421875v12.84375zm0 0"/><path d="m105.859375 180-11.125-6.421875v12.84375zm0 0"/><path d="m105.859375 205.683594-11.125-6.421875v12.84375zm0 0"/><path d="m128.101562 244.210938-11.121093-6.421876v12.839844zm0 0"/><path d="m139.222656 250.628906-11.121094-6.417968v12.839843zm0 0"/><path d="m150.34375 257.050781-11.121094-6.421875v12.84375zm0 0"/><path d="m161.464844 263.472656-11.121094-6.421875v12.84375zm0 0"/><path d="m205.949219 263.472656-11.121094-6.421875v12.84375zm0 0"/><path d="m217.070312 257.050781-11.121093-6.421875v12.84375zm0 0"/><path d="m228.191406 250.628906-11.121094-6.417968v12.839843zm0 0"/><path d="m250.433594 237.789062-11.121094-6.421874v12.84375zm0 0"/><path d="m261.558594 231.367188-11.125-6.421876v12.84375zm0 0"/><path d="m161.464844 276.3125-11.121094-6.417969v12.839844zm0 0"/><path d="m217.070312 269.894531-11.121093-6.421875v12.839844zm0 0"/><path d="m239.3125 257.050781-11.121094-6.421875v12.84375zm0 0"/><path d="m250.433594 250.628906-11.121094-6.417968v12.839843zm0 0"/><path d="m261.558594 244.210938-11.125-6.421876v12.839844zm0 0"/></g></svg>