<svg height="360pt" viewBox="0 0 360 360" width="360pt" xmlns="http://www.w3.org/2000/svg"><path d="m0 0h360v360h-360z" fill="#800080"/><g fill="#fff" fill-rule="evenodd"><path d="m179.75 176.78125 2.789062-1.609375v3.21875zm0 0"/><path d="m179.75 183.21875 2.789062-1.609375v3.21875zm0 0"/><path d="m182.539062 175.171875 2.785157-1.609375v3.21875zm0 0"/><path d="m179.75 173.5625 2.789062-1.605469v3.214844zm0 0"/><path d="m174.175781 180 2.789063-1.609375v3.21875zm0 0"/><path d="m179.75 186.4375 2.789062-1.609375v3.214844zm0 0"/><path d="m182.539062 184.828125 2.785157-1.609375v3.21875zm0 0"/><path d="m171.390625 178.390625 2.785156-1.609375v3.21875zm0 0"/><path d="m171.390625 181.609375 2.785156-1.609375v3.21875zm0 0"/><path d="m257.78125 131.730469 2.789062-1.609375v3.21875zm0 0"/><path d="m179.75 86.679688 2.789062-1.609376v3.21875zm0 0"/><path d="m179.75 273.320312 2.789062-1.609374v3.21875zm0 0"/><path d="m257.78125 228.269531 2.789062-1.609375v3.21875zm0 0"/><path d="m260.570312 130.121094 2.785157-1.609375v3.21875zm0 0"/><path d="m257.78125 128.511719 2.789062-1.609375v3.21875zm0 0"/><path d="m182.539062 85.070312 2.785157-1.609374v3.21875zm0 0"/><path d="m179.75 83.460938 2.789062-1.609376v3.21875zm0 0"/><path d="m96.148438 134.949219 2.785156-1.609375v3.21875zm0 0"/><path d="m96.148438 225.050781 2.785156-1.609375v3.21875zm0 0"/><path d="m179.75 276.539062 2.789062-1.609374v3.21875zm0 0"/><path d="m182.539062 274.929688 2.785157-1.609376v3.21875zm0 0"/><path d="m257.78125 231.488281 2.789062-1.609375v3.21875zm0 0"/><path d="m260.570312 229.878906 2.785157-1.609375v3.21875zm0 0"/><path d="m93.359375 133.339844 2.789063-1.609375v3.21875zm0 0"/><path d="m93.359375 136.558594 2.789063-1.609375v3.21875zm0 0"/><path d="m93.359375 223.441406 2.789063-1.609375v3.21875zm0 0"/><path d="m93.359375 226.660156 2.789063-1.609375v3.21875zm0 0"/><path d="m263.355469 125.296875 2.785156-1.609375v3.214844zm0 0"/><path d="m260.570312 123.6875 2.785157-1.609375v3.21875zm0 0"/><path d="m185.324219 80.246094 2.789062-1.609375v3.214843zm0 0"/><path d="m182.539062 78.636719 2.785157-1.609375v3.21875zm0 0"/><path d="m182.539062 281.363281 2.785157-1.609375v3.21875zm0 0"/><path d="m185.324219 279.753906 2.789062-1.605468v3.214843zm0 0"/><path d="m260.570312 236.3125 2.785157-1.609375v3.21875zm0 0"/><path d="m263.355469 234.703125 2.785156-1.605469v3.214844zm0 0"/><path d="m268.929688 125.296875 2.785156-1.609375v3.214844zm0 0"/><path d="m263.355469 122.078125 2.785156-1.609375v3.21875zm0 0"/><path d="m185.324219 77.027344 2.789062-1.609375v3.21875zm0 0"/><path d="m179.75 73.808594 2.789062-1.609375v3.21875zm0 0"/><path d="m87.785156 133.339844 2.789063-1.609375v3.21875zm0 0"/><path d="m87.785156 136.558594 2.789063-1.609375v3.21875zm0 0"/><path d="m87.785156 223.441406 2.789063-1.609375v3.21875zm0 0"/><path d="m87.785156 226.660156 2.789063-1.609375v3.21875zm0 0"/><path d="m179.75 286.191406 2.789062-1.609375v3.21875zm0 0"/><path d="m185.324219 282.972656 2.789062-1.609375v3.21875zm0 0"/><path d="m263.355469 237.921875 2.785156-1.609375v3.21875zm0 0"/><path d="m268.929688 234.703125 2.785156-1.605469v3.214844zm0 0"/><path d="m271.714844 123.6875 2.789062-1.609375v3.21875zm0 0"/><path d="m268.929688 122.078125 2.785156-1.609375v3.21875zm0 0"/><path d="m182.539062 72.199219 2.785157-1.609375v3.21875zm0 0"/><path d="m179.75 70.589844 2.789062-1.609375v3.21875zm0 0"/><path d="m85 128.511719 2.785156-1.609375v3.21875zm0 0"/><path d="m85 134.949219 2.785156-1.609375v3.21875zm0 0"/><path d="m85 225.050781 2.785156-1.609375v3.21875zm0 0"/><path d="m85 231.488281 2.785156-1.609375v3.21875zm0 0"/><path d="m179.75 289.410156 2.789062-1.609375v3.21875zm0 0"/><path d="m182.539062 287.800781 2.785157-1.609375v3.21875zm0 0"/><path d="m268.929688 237.921875 2.785156-1.609375v3.21875zm0 0"/><path d="m271.714844 236.3125 2.789062-1.609375v3.21875zm0 0"/><path d="m82.214844 126.902344 2.785156-1.605469v3.214844zm0 0"/><path d="m82.214844 130.121094 2.785156-1.609375v3.21875zm0 0"/><path d="m82.214844 229.878906 2.785156-1.609375v3.21875zm0 0"/><path d="m82.214844 233.097656 2.785156-1.609375v3.214844zm0 0"/><path d="m263.355469 86.679688 2.785156-1.609376v3.21875zm0 0"/><path d="m260.570312 85.070312 2.785157-1.609374v3.21875zm0 0"/><path d="m218.765625 60.9375 2.789063-1.609375v3.21875zm0 0"/><path d="m215.980469 59.328125 2.785156-1.609375v3.21875zm0 0"/><path d="m215.980469 300.671875 2.785156-1.609375v3.21875zm0 0"/><path d="m218.765625 299.0625 2.789063-1.609375v3.21875zm0 0"/><path d="m260.570312 274.929688 2.785157-1.609376v3.21875zm0 0"/><path d="m263.355469 273.320312 2.785156-1.609374v3.21875zm0 0"/><path d="m302.371094 105.988281 2.785156-1.609375v3.21875zm0 0"/><path d="m268.929688 86.679688 2.785156-1.609376v3.21875zm0 0"/><path d="m263.355469 83.460938 2.785156-1.609376v3.21875zm0 0"/><path d="m257.78125 80.246094 2.789062-1.609375v3.214843zm0 0"/><path d="m224.339844 60.9375 2.785156-1.609375v3.21875zm0 0"/><path d="m218.765625 57.71875 2.789063-1.609375v3.21875zm0 0"/><path d="m213.191406 54.5 2.789063-1.609375v3.21875zm0 0"/><path d="m179.75 35.195312 2.789062-1.609374v3.214843zm0 0"/><path d="m54.34375 152.648438 2.789062-1.609376v3.21875zm0 0"/><path d="m54.34375 155.867188 2.789062-1.609376v3.214844zm0 0"/><path d="m54.34375 204.132812 2.789062-1.605468v3.214844zm0 0"/><path d="m54.34375 207.351562 2.789062-1.609374v3.21875zm0 0"/><path d="m179.75 324.804688 2.789062-1.605469v3.214843zm0 0"/><path d="m213.191406 305.5 2.789063-1.609375v3.21875zm0 0"/><path d="m218.765625 302.28125 2.789063-1.609375v3.21875zm0 0"/><path d="m224.339844 299.0625 2.785156-1.609375v3.21875zm0 0"/><path d="m257.78125 279.753906 2.789062-1.605468v3.214843zm0 0"/><path d="m263.355469 276.539062 2.785156-1.609374v3.21875zm0 0"/><path d="m268.929688 273.320312 2.785156-1.609374v3.21875zm0 0"/><path d="m302.371094 254.011719 2.785156-1.609375v3.21875zm0 0"/><path d="m305.15625 104.378906 2.789062-1.609375v3.21875zm0 0"/><path d="m302.371094 102.769531 2.785156-1.609375v3.21875zm0 0"/><path d="m271.714844 85.070312 2.789062-1.609374v3.21875zm0 0"/><path d="m268.929688 83.460938 2.785156-1.609376v3.21875zm0 0"/><path d="m260.570312 78.636719 2.785157-1.609375v3.21875zm0 0"/><path d="m257.78125 77.027344 2.789062-1.609375v3.21875zm0 0"/><path d="m227.125 59.328125 2.789062-1.609375v3.21875zm0 0"/><path d="m224.339844 57.71875 2.785156-1.609375v3.21875zm0 0"/><path d="m215.980469 52.890625 2.785156-1.609375v3.21875zm0 0"/><path d="m213.191406 51.28125 2.789063-1.605469v3.214844zm0 0"/><path d="m182.539062 33.585938 2.785157-1.609376v3.21875zm0 0"/><path d="m179.75 31.976562 2.789062-1.609374v3.21875zm0 0"/><path d="m51.558594 109.207031 2.785156-1.609375v3.21875zm0 0"/><path d="m51.558594 147.820312 2.785156-1.609374v3.21875zm0 0"/><path d="m51.558594 154.257812 2.785156-1.609374v3.21875zm0 0"/><path d="m51.558594 160.691406 2.785156-1.609375v3.21875zm0 0"/><path d="m51.558594 199.308594 2.785156-1.609375v3.21875zm0 0"/><path d="m51.558594 205.742188 2.785156-1.609376v3.21875zm0 0"/><path d="m51.558594 212.179688 2.785156-1.609376v3.21875zm0 0"/><path d="m51.558594 250.792969 2.785156-1.609375v3.21875zm0 0"/><path d="m179.75 328.023438 2.789062-1.609376v3.21875zm0 0"/><path d="m182.539062 326.414062 2.785157-1.609374v3.21875zm0 0"/><path d="m213.191406 308.71875 2.789063-1.609375v3.214844zm0 0"/><path d="m215.980469 307.109375 2.785156-1.609375v3.21875zm0 0"/><path d="m224.339844 302.28125 2.785156-1.609375v3.21875zm0 0"/><path d="m227.125 300.671875 2.789062-1.609375v3.21875zm0 0"/><path d="m257.78125 282.972656 2.789062-1.609375v3.21875zm0 0"/><path d="m260.570312 281.363281 2.785157-1.609375v3.21875zm0 0"/><path d="m268.929688 276.539062 2.785156-1.609374v3.21875zm0 0"/><path d="m271.714844 274.929688 2.789062-1.609376v3.21875zm0 0"/><path d="m302.371094 257.230469 2.785156-1.609375v3.21875zm0 0"/><path d="m305.15625 255.621094 2.789062-1.609375v3.21875zm0 0"/><path d="m48.769531 107.597656 2.789063-1.609375v3.21875zm0 0"/><path d="m48.769531 110.816406 2.789063-1.609375v3.214844zm0 0"/><path d="m48.769531 146.210938 2.789063-1.609376v3.21875zm0 0"/><path d="m48.769531 149.429688 2.789063-1.609376v3.21875zm0 0"/><path d="m48.769531 159.082031 2.789063-1.609375v3.21875zm0 0"/><path d="m48.769531 162.300781 2.789063-1.609375v3.21875zm0 0"/><path d="m48.769531 197.699219 2.789063-1.609375v3.21875zm0 0"/><path d="m48.769531 200.917969 2.789063-1.609375v3.21875zm0 0"/><path d="m48.769531 210.570312 2.789063-1.609374v3.21875zm0 0"/><path d="m48.769531 213.789062 2.789063-1.609374v3.21875zm0 0"/><path d="m48.769531 249.183594 2.789063-1.605469v3.214844zm0 0"/><path d="m48.769531 252.402344 2.789063-1.609375v3.21875zm0 0"/><path d="m307.945312 99.550781 2.785157-1.609375v3.21875zm0 0"/><path d="m305.15625 97.941406 2.789062-1.609375v3.21875zm0 0"/><path d="m274.503906 80.246094 2.785156-1.609375v3.214843zm0 0"/><path d="m271.714844 78.636719 2.789062-1.609375v3.21875zm0 0"/><path d="m263.355469 73.808594 2.785156-1.609375v3.21875zm0 0"/><path d="m260.570312 72.199219 2.785157-1.609375v3.21875zm0 0"/><path d="m229.914062 54.5 2.785157-1.609375v3.21875zm0 0"/><path d="m227.125 52.890625 2.789062-1.609375v3.21875zm0 0"/><path d="m218.765625 48.066406 2.789063-1.609375v3.21875zm0 0"/><path d="m215.980469 46.457031 2.785156-1.609375v3.21875zm0 0"/><path d="m185.324219 28.757812 2.789062-1.609374v3.21875zm0 0"/><path d="m182.539062 27.148438 2.785157-1.609376v3.21875zm0 0"/><path d="m182.539062 332.851562 2.785157-1.609374v3.21875zm0 0"/><path d="m185.324219 331.242188 2.789062-1.609376v3.21875zm0 0"/><path d="m215.980469 313.542969 2.785156-1.609375v3.21875zm0 0"/><path d="m218.765625 311.933594 2.789063-1.609375v3.21875zm0 0"/><path d="m227.125 307.109375 2.789062-1.609375v3.21875zm0 0"/><path d="m229.914062 305.5 2.785157-1.609375v3.21875zm0 0"/><path d="m260.570312 287.800781 2.785157-1.609375v3.21875zm0 0"/><path d="m263.355469 286.191406 2.785156-1.609375v3.21875zm0 0"/><path d="m271.714844 281.363281 2.789062-1.609375v3.21875zm0 0"/><path d="m274.503906 279.753906 2.785156-1.605468v3.214843zm0 0"/><path d="m305.15625 262.058594 2.789062-1.609375v3.21875zm0 0"/><path d="m307.945312 260.449219 2.785157-1.609375v3.21875zm0 0"/><path d="m313.519531 99.550781 2.785157-1.609375v3.21875zm0 0"/><path d="m307.945312 96.332031 2.785157-1.605469v3.214844zm0 0"/><path d="m274.503906 77.027344 2.785156-1.609375v3.21875zm0 0"/><path d="m268.929688 73.808594 2.785156-1.609375v3.21875zm0 0"/><path d="m263.355469 70.589844 2.785156-1.609375v3.21875zm0 0"/><path d="m229.914062 51.28125 2.785157-1.605469v3.214844zm0 0"/><path d="m224.339844 48.066406 2.785156-1.609375v3.21875zm0 0"/><path d="m218.765625 44.847656 2.789063-1.609375v3.21875zm0 0"/><path d="m185.324219 25.539062 2.789062-1.609374v3.21875zm0 0"/><path d="m179.75 22.320312 2.789062-1.609374v3.21875zm0 0"/><path d="m43.199219 107.597656 2.785156-1.609375v3.21875zm0 0"/><path d="m43.199219 110.816406 2.785156-1.609375v3.214844zm0 0"/><path d="m43.199219 146.210938 2.785156-1.609376v3.21875zm0 0"/><path d="m43.199219 149.429688 2.785156-1.609376v3.21875zm0 0"/><path d="m43.199219 159.082031 2.785156-1.609375v3.21875zm0 0"/><path d="m43.199219 162.300781 2.785156-1.609375v3.21875zm0 0"/><path d="m43.199219 197.699219 2.785156-1.609375v3.21875zm0 0"/><path d="m43.199219 200.917969 2.785156-1.609375v3.21875zm0 0"/><path d="m43.199219 210.570312 2.785156-1.609374v3.21875zm0 0"/><path d="m43.199219 213.789062 2.785156-1.609374v3.21875zm0 0"/><path d="m43.199219 249.183594 2.785156-1.605469v3.214844zm0 0"/><path d="m43.199219 252.402344 2.785156-1.609375v3.21875zm0 0"/><path d="m179.75 337.679688 2.789062-1.609376v3.21875zm0 0"/><path d="m185.324219 334.460938 2.789062-1.609376v3.21875zm0 0"/><path d="m218.765625 315.152344 2.789063-1.609375v3.21875zm0 0"/><path d="m224.339844 311.933594 2.785156-1.609375v3.21875zm0 0"/><path d="m229.914062 308.71875 2.785157-1.609375v3.214844zm0 0"/><path d="m263.355469 289.410156 2.785156-1.609375v3.21875zm0 0"/><path d="m268.929688 286.191406 2.785156-1.609375v3.21875zm0 0"/><path d="m274.503906 282.972656 2.785156-1.609375v3.21875zm0 0"/><path d="m307.945312 263.667969 2.785157-1.609375v3.214844zm0 0"/><path d="m313.519531 260.449219 2.785157-1.609375v3.21875zm0 0"/><path d="m316.304688 97.941406 2.785156-1.609375v3.21875zm0 0"/><path d="m313.519531 96.332031 2.785157-1.605469v3.214844zm0 0"/><path d="m271.714844 72.199219 2.789062-1.609375v3.21875zm0 0"/><path d="m268.929688 70.589844 2.785156-1.609375v3.21875zm0 0"/><path d="m227.125 46.457031 2.789062-1.609375v3.21875zm0 0"/><path d="m224.339844 44.847656 2.785156-1.609375v3.21875zm0 0"/><path d="m182.539062 20.710938 2.785157-1.605469v3.214843zm0 0"/><path d="m179.75 19.105469 2.789062-1.609375v3.214844zm0 0"/><path d="m40.410156 102.769531 2.789063-1.609375v3.21875zm0 0"/><path d="m40.410156 109.207031 2.789063-1.609375v3.21875zm0 0"/><path d="m40.410156 147.820312 2.789063-1.609374v3.21875zm0 0"/><path d="m40.410156 154.257812 2.789063-1.609374v3.21875zm0 0"/><path d="m40.410156 160.691406 2.789063-1.609375v3.21875zm0 0"/><path d="m40.410156 199.308594 2.789063-1.609375v3.21875zm0 0"/><path d="m40.410156 205.742188 2.789063-1.609376v3.21875zm0 0"/><path d="m40.410156 212.179688 2.789063-1.609376v3.21875zm0 0"/><path d="m40.410156 250.792969 2.789063-1.609375v3.21875zm0 0"/><path d="m40.410156 257.230469 2.789063-1.609375v3.21875zm0 0"/><path d="m179.75 340.894531 2.789062-1.605469v3.214844zm0 0"/><path d="m182.539062 339.289062 2.785157-1.609374v3.214843zm0 0"/><path d="m224.339844 315.152344 2.785156-1.609375v3.21875zm0 0"/><path d="m227.125 313.542969 2.789062-1.609375v3.21875zm0 0"/><path d="m268.929688 289.410156 2.785156-1.609375v3.21875zm0 0"/><path d="m271.714844 287.800781 2.789062-1.609375v3.21875zm0 0"/><path d="m313.519531 263.667969 2.785157-1.609375v3.214844zm0 0"/><path d="m316.304688 262.058594 2.785156-1.609375v3.21875zm0 0"/><path d="m37.625 101.160156 2.785156-1.609375v3.21875zm0 0"/><path d="m37.625 104.378906 2.785156-1.609375v3.21875zm0 0"/><path d="m37.625 152.648438 2.785156-1.609376v3.21875zm0 0"/><path d="m37.625 155.867188 2.785156-1.609376v3.214844zm0 0"/><path d="m37.625 204.132812 2.785156-1.605468v3.214844zm0 0"/><path d="m37.625 207.351562 2.785156-1.609374v3.21875zm0 0"/><path d="m37.625 255.621094 2.785156-1.609375v3.21875zm0 0"/><path d="m37.625 258.839844 2.785156-1.609375v3.21875zm0 0"/><path d="m185.324219 180-2.785157-1.609375v3.21875zm0 0"/><path d="m188.113281 181.609375-2.789062-1.609375v3.21875zm0 0"/><path d="m188.113281 178.390625-2.789062-1.609375v3.21875zm0 0"/><path d="m179.75 176.78125-2.785156-1.609375v3.21875zm0 0"/><path d="m179.75 183.21875-2.785156-1.609375v3.21875zm0 0"/><path d="m179.75 173.5625-2.785156-1.605469v3.214844zm0 0"/><path d="m176.964844 175.171875-2.789063-1.609375v3.21875zm0 0"/><path d="m176.964844 184.828125-2.789063-1.609375v3.21875zm0 0"/><path d="m179.75 186.4375-2.785156-1.609375v3.214844zm0 0"/><path d="m263.355469 225.050781-2.785157-1.609375v3.21875zm0 0"/><path d="m263.355469 134.949219-2.785157-1.609375v3.21875zm0 0"/><path d="m266.140625 226.660156-2.785156-1.609375v3.21875zm0 0"/><path d="m266.140625 223.441406-2.785156-1.609375v3.21875zm0 0"/><path d="m266.140625 136.558594-2.785156-1.609375v3.21875zm0 0"/><path d="m266.140625 133.339844-2.785156-1.609375v3.21875zm0 0"/><path d="m179.75 86.679688-2.785156-1.609376v3.21875zm0 0"/><path d="m101.71875 131.730469-2.785156-1.609375v3.21875zm0 0"/><path d="m101.71875 228.269531-2.785156-1.609375v3.21875zm0 0"/><path d="m179.75 273.320312-2.785156-1.609374v3.21875zm0 0"/><path d="m179.75 83.460938-2.785156-1.609376v3.21875zm0 0"/><path d="m176.964844 85.070312-2.789063-1.609374v3.21875zm0 0"/><path d="m101.71875 128.511719-2.785156-1.609375v3.21875zm0 0"/><path d="m98.933594 130.121094-2.785156-1.609375v3.21875zm0 0"/><path d="m98.933594 229.878906-2.785156-1.609375v3.21875zm0 0"/><path d="m101.71875 231.488281-2.785156-1.609375v3.21875zm0 0"/><path d="m176.964844 274.929688-2.789063-1.609376v3.21875zm0 0"/><path d="m179.75 276.539062-2.785156-1.609374v3.21875zm0 0"/><path d="m271.714844 226.660156-2.785156-1.609375v3.21875zm0 0"/><path d="m271.714844 223.441406-2.785156-1.609375v3.21875zm0 0"/><path d="m271.714844 136.558594-2.785156-1.609375v3.21875zm0 0"/><path d="m271.714844 133.339844-2.785156-1.609375v3.21875zm0 0"/><path d="m274.503906 231.488281-2.789062-1.609375v3.21875zm0 0"/><path d="m274.503906 225.050781-2.789062-1.609375v3.21875zm0 0"/><path d="m274.503906 134.949219-2.789062-1.609375v3.21875zm0 0"/><path d="m274.503906 128.511719-2.789062-1.609375v3.21875zm0 0"/><path d="m176.964844 78.636719-2.789063-1.609375v3.21875zm0 0"/><path d="m174.175781 80.246094-2.785156-1.609375v3.214843zm0 0"/><path d="m98.933594 123.6875-2.785156-1.609375v3.21875zm0 0"/><path d="m96.148438 125.296875-2.789063-1.609375v3.214844zm0 0"/><path d="m96.148438 234.703125-2.789063-1.605469v3.214844zm0 0"/><path d="m98.933594 236.3125-2.785156-1.609375v3.21875zm0 0"/><path d="m174.175781 279.753906-2.785156-1.605468v3.214843zm0 0"/><path d="m176.964844 281.363281-2.789063-1.609375v3.21875zm0 0"/><path d="m277.289062 233.097656-2.785156-1.609375v3.214844zm0 0"/><path d="m277.289062 229.878906-2.785156-1.609375v3.21875zm0 0"/><path d="m277.289062 130.121094-2.785156-1.609375v3.21875zm0 0"/><path d="m277.289062 126.902344-2.785156-1.605469v3.214844zm0 0"/><path d="m179.75 73.808594-2.785156-1.609375v3.21875zm0 0"/><path d="m174.175781 77.027344-2.785156-1.609375v3.21875zm0 0"/><path d="m96.148438 122.078125-2.789063-1.609375v3.21875zm0 0"/><path d="m90.574219 125.296875-2.789063-1.609375v3.214844zm0 0"/><path d="m90.574219 234.703125-2.789063-1.605469v3.214844zm0 0"/><path d="m96.148438 237.921875-2.789063-1.609375v3.21875zm0 0"/><path d="m174.175781 282.972656-2.785156-1.609375v3.21875zm0 0"/><path d="m179.75 286.191406-2.785156-1.609375v3.21875zm0 0"/><path d="m179.75 70.589844-2.785156-1.609375v3.21875zm0 0"/><path d="m176.964844 72.199219-2.789063-1.609375v3.21875zm0 0"/><path d="m90.574219 122.078125-2.789063-1.609375v3.21875zm0 0"/><path d="m87.785156 123.6875-2.785156-1.609375v3.21875zm0 0"/><path d="m87.785156 236.3125-2.785156-1.609375v3.21875zm0 0"/><path d="m90.574219 237.921875-2.789063-1.609375v3.21875zm0 0"/><path d="m176.964844 287.800781-2.789063-1.609375v3.21875zm0 0"/><path d="m179.75 289.410156-2.785156-1.609375v3.21875zm0 0"/><path d="m305.15625 207.351562-2.785156-1.609374v3.21875zm0 0"/><path d="m305.15625 204.132812-2.785156-1.605468v3.214844zm0 0"/><path d="m305.15625 155.867188-2.785156-1.609376v3.214844zm0 0"/><path d="m305.15625 152.648438-2.785156-1.609376v3.21875zm0 0"/><path d="m307.945312 250.792969-2.789062-1.609375v3.21875zm0 0"/><path d="m307.945312 212.179688-2.789062-1.609376v3.21875zm0 0"/><path d="m307.945312 205.742188-2.789062-1.609376v3.21875zm0 0"/><path d="m307.945312 199.308594-2.789062-1.609375v3.21875zm0 0"/><path d="m307.945312 160.691406-2.789062-1.609375v3.21875zm0 0"/><path d="m307.945312 154.257812-2.789062-1.609374v3.21875zm0 0"/><path d="m307.945312 147.820312-2.789062-1.609374v3.21875zm0 0"/><path d="m307.945312 109.207031-2.789062-1.609375v3.21875zm0 0"/><path d="m143.523438 59.328125-2.789063-1.609375v3.21875zm0 0"/><path d="m140.734375 60.9375-2.785156-1.609375v3.21875zm0 0"/><path d="m98.933594 85.070312-2.785156-1.609374v3.21875zm0 0"/><path d="m96.148438 86.679688-2.789063-1.609376v3.21875zm0 0"/><path d="m96.148438 273.320312-2.789063-1.609374v3.21875zm0 0"/><path d="m98.933594 274.929688-2.785156-1.609376v3.21875zm0 0"/><path d="m140.734375 299.0625-2.785156-1.609375v3.21875zm0 0"/><path d="m143.523438 300.671875-2.789063-1.609375v3.21875zm0 0"/><path d="m310.730469 252.402344-2.785157-1.609375v3.21875zm0 0"/><path d="m310.730469 249.183594-2.785157-1.605469v3.214844zm0 0"/><path d="m310.730469 213.789062-2.785157-1.609374v3.21875zm0 0"/><path d="m310.730469 210.570312-2.785157-1.609374v3.21875zm0 0"/><path d="m310.730469 200.917969-2.785157-1.609375v3.21875zm0 0"/><path d="m310.730469 197.699219-2.785157-1.609375v3.21875zm0 0"/><path d="m310.730469 162.300781-2.785157-1.609375v3.21875zm0 0"/><path d="m310.730469 159.082031-2.785157-1.609375v3.21875zm0 0"/><path d="m310.730469 149.429688-2.785157-1.609376v3.21875zm0 0"/><path d="m310.730469 146.210938-2.785157-1.609376v3.21875zm0 0"/><path d="m310.730469 110.816406-2.785157-1.609375v3.214844zm0 0"/><path d="m310.730469 107.597656-2.785157-1.609375v3.21875zm0 0"/><path d="m179.75 35.195312-2.785156-1.609374v3.214843zm0 0"/><path d="m146.308594 54.5-2.785156-1.609375v3.21875zm0 0"/><path d="m140.734375 57.71875-2.785156-1.609375v3.21875zm0 0"/><path d="m135.164062 60.9375-2.789062-1.609375v3.21875zm0 0"/><path d="m101.71875 80.246094-2.785156-1.609375v3.214843zm0 0"/><path d="m96.148438 83.460938-2.789063-1.609376v3.21875zm0 0"/><path d="m90.574219 86.679688-2.789063-1.609376v3.21875zm0 0"/><path d="m57.132812 105.988281-2.789062-1.609375v3.21875zm0 0"/><path d="m57.132812 254.011719-2.789062-1.609375v3.21875zm0 0"/><path d="m90.574219 273.320312-2.789063-1.609374v3.21875zm0 0"/><path d="m96.148438 276.539062-2.789063-1.609374v3.21875zm0 0"/><path d="m101.71875 279.753906-2.785156-1.605468v3.214843zm0 0"/><path d="m135.164062 299.0625-2.789062-1.609375v3.21875zm0 0"/><path d="m140.734375 302.28125-2.785156-1.609375v3.21875zm0 0"/><path d="m146.308594 305.5-2.785156-1.609375v3.21875zm0 0"/><path d="m179.75 324.804688-2.785156-1.605469v3.214843zm0 0"/><path d="m179.75 31.976562-2.785156-1.609374v3.21875zm0 0"/><path d="m176.964844 33.585938-2.789063-1.609376v3.21875zm0 0"/><path d="m146.308594 51.28125-2.785156-1.605469v3.214844zm0 0"/><path d="m143.523438 52.890625-2.789063-1.609375v3.21875zm0 0"/><path d="m135.164062 57.71875-2.789062-1.609375v3.21875zm0 0"/><path d="m132.375 59.328125-2.785156-1.609375v3.21875zm0 0"/><path d="m101.71875 77.027344-2.785156-1.609375v3.21875zm0 0"/><path d="m98.933594 78.636719-2.785156-1.609375v3.21875zm0 0"/><path d="m90.574219 83.460938-2.789063-1.609376v3.21875zm0 0"/><path d="m87.785156 85.070312-2.785156-1.609374v3.21875zm0 0"/><path d="m57.132812 102.769531-2.789062-1.609375v3.21875zm0 0"/><path d="m54.34375 104.378906-2.785156-1.609375v3.21875zm0 0"/><path d="m54.34375 255.621094-2.785156-1.609375v3.21875zm0 0"/><path d="m57.132812 257.230469-2.789062-1.609375v3.21875zm0 0"/><path d="m87.785156 274.929688-2.785156-1.609376v3.21875zm0 0"/><path d="m90.574219 276.539062-2.789063-1.609374v3.21875zm0 0"/><path d="m98.933594 281.363281-2.785156-1.609375v3.21875zm0 0"/><path d="m101.71875 282.972656-2.785156-1.609375v3.21875zm0 0"/><path d="m132.375 300.671875-2.785156-1.609375v3.21875zm0 0"/><path d="m135.164062 302.28125-2.789062-1.609375v3.21875zm0 0"/><path d="m143.523438 307.109375-2.789063-1.609375v3.21875zm0 0"/><path d="m146.308594 308.71875-2.785156-1.609375v3.214844zm0 0"/><path d="m176.964844 326.414062-2.789063-1.609374v3.21875zm0 0"/><path d="m179.75 328.023438-2.785156-1.609376v3.21875zm0 0"/><path d="m316.304688 252.402344-2.785157-1.609375v3.21875zm0 0"/><path d="m316.304688 249.183594-2.785157-1.605469v3.214844zm0 0"/><path d="m316.304688 213.789062-2.785157-1.609374v3.21875zm0 0"/><path d="m316.304688 210.570312-2.785157-1.609374v3.21875zm0 0"/><path d="m316.304688 200.917969-2.785157-1.609375v3.21875zm0 0"/><path d="m316.304688 197.699219-2.785157-1.609375v3.21875zm0 0"/><path d="m316.304688 162.300781-2.785157-1.609375v3.21875zm0 0"/><path d="m316.304688 159.082031-2.785157-1.609375v3.21875zm0 0"/><path d="m316.304688 149.429688-2.785157-1.609376v3.21875zm0 0"/><path d="m316.304688 146.210938-2.785157-1.609376v3.21875zm0 0"/><path d="m316.304688 110.816406-2.785157-1.609375v3.214844zm0 0"/><path d="m316.304688 107.597656-2.785157-1.609375v3.21875zm0 0"/><path d="m319.089844 257.230469-2.785156-1.609375v3.21875zm0 0"/><path d="m319.089844 250.792969-2.785156-1.609375v3.21875zm0 0"/><path d="m319.089844 212.179688-2.785156-1.609376v3.21875zm0 0"/><path d="m319.089844 205.742188-2.785156-1.609376v3.21875zm0 0"/><path d="m319.089844 199.308594-2.785156-1.609375v3.21875zm0 0"/><path d="m319.089844 160.691406-2.785156-1.609375v3.21875zm0 0"/><path d="m319.089844 154.257812-2.785156-1.609374v3.21875zm0 0"/><path d="m319.089844 147.820312-2.785156-1.609374v3.21875zm0 0"/><path d="m319.089844 109.207031-2.785156-1.609375v3.21875zm0 0"/><path d="m319.089844 102.769531-2.785156-1.609375v3.21875zm0 0"/><path d="m176.964844 27.148438-2.789063-1.609376v3.21875zm0 0"/><path d="m174.175781 28.757812-2.785156-1.609374v3.21875zm0 0"/><path d="m143.523438 46.457031-2.789063-1.609375v3.21875zm0 0"/><path d="m140.734375 48.066406-2.785156-1.609375v3.21875zm0 0"/><path d="m132.375 52.890625-2.785156-1.609375v3.21875zm0 0"/><path d="m129.589844 54.5-2.789063-1.609375v3.21875zm0 0"/><path d="m98.933594 72.199219-2.785156-1.609375v3.21875zm0 0"/><path d="m96.148438 73.808594-2.789063-1.609375v3.21875zm0 0"/><path d="m87.785156 78.636719-2.785156-1.609375v3.21875zm0 0"/><path d="m85 80.246094-2.785156-1.609375v3.214843zm0 0"/><path d="m54.34375 97.941406-2.785156-1.609375v3.21875zm0 0"/><path d="m51.558594 99.550781-2.789063-1.609375v3.21875zm0 0"/><path d="m51.558594 260.449219-2.789063-1.609375v3.21875zm0 0"/><path d="m54.34375 262.058594-2.785156-1.609375v3.21875zm0 0"/><path d="m85 279.753906-2.785156-1.605468v3.214843zm0 0"/><path d="m87.785156 281.363281-2.785156-1.609375v3.21875zm0 0"/><path d="m96.148438 286.191406-2.789063-1.609375v3.21875zm0 0"/><path d="m98.933594 287.800781-2.785156-1.609375v3.21875zm0 0"/><path d="m129.589844 305.5-2.789063-1.609375v3.21875zm0 0"/><path d="m132.375 307.109375-2.785156-1.609375v3.21875zm0 0"/><path d="m140.734375 311.933594-2.785156-1.609375v3.21875zm0 0"/><path d="m143.523438 313.542969-2.789063-1.609375v3.21875zm0 0"/><path d="m174.175781 331.242188-2.785156-1.609376v3.21875zm0 0"/><path d="m176.964844 332.851562-2.789063-1.609374v3.21875zm0 0"/><path d="m321.878906 258.839844-2.789062-1.609375v3.21875zm0 0"/><path d="m321.878906 255.621094-2.789062-1.609375v3.21875zm0 0"/><path d="m321.878906 207.351562-2.789062-1.609374v3.21875zm0 0"/><path d="m321.878906 204.132812-2.789062-1.605468v3.214844zm0 0"/><path d="m321.878906 155.867188-2.789062-1.609376v3.214844zm0 0"/><path d="m321.878906 152.648438-2.789062-1.609376v3.21875zm0 0"/><path d="m321.878906 104.378906-2.789062-1.609375v3.21875zm0 0"/><path d="m321.878906 101.160156-2.789062-1.609375v3.21875zm0 0"/><path d="m179.75 22.320312-2.785156-1.609374v3.21875zm0 0"/><path d="m174.175781 25.539062-2.785156-1.609374v3.21875zm0 0"/><path d="m140.734375 44.847656-2.785156-1.609375v3.21875zm0 0"/><path d="m135.164062 48.066406-2.789062-1.609375v3.21875zm0 0"/><path d="m129.589844 51.28125-2.789063-1.605469v3.214844zm0 0"/><path d="m96.148438 70.589844-2.789063-1.609375v3.21875zm0 0"/><path d="m90.574219 73.808594-2.789063-1.609375v3.21875zm0 0"/><path d="m85 77.027344-2.785156-1.609375v3.21875zm0 0"/><path d="m51.558594 96.332031-2.789063-1.605469v3.214844zm0 0"/><path d="m45.984375 99.550781-2.785156-1.609375v3.21875zm0 0"/><path d="m45.984375 260.449219-2.785156-1.609375v3.21875zm0 0"/><path d="m51.558594 263.667969-2.789063-1.609375v3.214844zm0 0"/><path d="m85 282.972656-2.785156-1.609375v3.21875zm0 0"/><path d="m90.574219 286.191406-2.789063-1.609375v3.21875zm0 0"/><path d="m96.148438 289.410156-2.789063-1.609375v3.21875zm0 0"/><path d="m129.589844 308.71875-2.789063-1.609375v3.214844zm0 0"/><path d="m135.164062 311.933594-2.789062-1.609375v3.21875zm0 0"/><path d="m140.734375 315.152344-2.785156-1.609375v3.21875zm0 0"/><path d="m174.175781 334.460938-2.785156-1.609376v3.21875zm0 0"/><path d="m179.75 337.679688-2.785156-1.609376v3.21875zm0 0"/><path d="m179.75 19.105469-2.785156-1.609375v3.214844zm0 0"/><path d="m176.964844 20.710938-2.789063-1.605469v3.214843zm0 0"/><path d="m135.164062 44.847656-2.789062-1.609375v3.21875zm0 0"/><path d="m132.375 46.457031-2.785156-1.609375v3.21875zm0 0"/><path d="m90.574219 70.589844-2.789063-1.609375v3.21875zm0 0"/><path d="m87.785156 72.199219-2.785156-1.609375v3.21875zm0 0"/><path d="m45.984375 96.332031-2.785156-1.605469v3.214844zm0 0"/><path d="m43.199219 97.941406-2.789063-1.609375v3.21875zm0 0"/><path d="m43.199219 262.058594-2.789063-1.609375v3.21875zm0 0"/><path d="m45.984375 263.667969-2.785156-1.609375v3.214844zm0 0"/><path d="m87.785156 287.800781-2.785156-1.609375v3.21875zm0 0"/><path d="m90.574219 289.410156-2.789063-1.609375v3.21875zm0 0"/><path d="m132.375 313.542969-2.785156-1.609375v3.21875zm0 0"/><path d="m135.164062 315.152344-2.789062-1.609375v3.21875zm0 0"/><path d="m176.964844 339.289062-2.789063-1.609374v3.214843zm0 0"/><path d="m179.75 340.894531-2.785156-1.605469v3.214844zm0 0"/></g></svg>