<svg height="360pt" viewBox="0 0 360 360" width="360pt" xmlns="http://www.w3.org/2000/svg"><path d="m0 0h360v360h-360z" fill="#fff"/><g fill="#800080" fill-rule="evenodd"><path d="m179.128906 180 9.773438-5.644531v11.289062zm0 0"/><path d="m179.128906 168.714844 9.773438-5.644532v11.285157zm0 0"/><path d="m169.351562 174.355469 9.777344-5.640625v11.285156zm0 0"/><path d="m169.351562 185.644531 9.777344-5.644531v11.285156zm0 0"/><path d="m179.128906 191.285156 9.773438-5.640625v11.285157zm0 0"/><path d="m198.675781 191.285156 9.773438-5.640625v11.285157zm0 0"/><path d="m198.675781 168.714844 9.773438-5.644532v11.285157zm0 0"/><path d="m188.902344 163.070312 9.773437-5.640624v11.285156zm0 0"/><path d="m179.128906 157.429688 9.773438-5.644532v11.285156zm0 0"/><path d="m159.578125 180 9.773437-5.644531v11.289062zm0 0"/><path d="m179.128906 202.570312 9.773438-5.640624v11.285156zm0 0"/><path d="m188.902344 196.929688 9.773437-5.644532v11.285156zm0 0"/><path d="m208.449219 196.929688 9.773437-5.644532v11.285156zm0 0"/><path d="m208.449219 185.644531 9.773437-5.644531v11.285156zm0 0"/><path d="m208.449219 174.355469 9.773437-5.640625v11.285156zm0 0"/><path d="m208.449219 163.070312 9.773437-5.640624v11.285156zm0 0"/><path d="m188.902344 151.785156 9.773437-5.644531v11.289063zm0 0"/><path d="m169.351562 151.785156 9.777344-5.644531v11.289063zm0 0"/><path d="m149.804688 163.070312 9.773437-5.640624v11.285156zm0 0"/><path d="m149.804688 174.355469 9.773437-5.640625v11.285156zm0 0"/><path d="m149.804688 185.644531 9.773437-5.644531v11.285156zm0 0"/><path d="m149.804688 196.929688 9.773437-5.644532v11.285156zm0 0"/><path d="m169.351562 208.214844 9.777344-5.644532v11.289063zm0 0"/><path d="m188.902344 208.214844 9.773437-5.644532v11.289063zm0 0"/><path d="m218.222656 191.285156 9.773438-5.640625v11.285157zm0 0"/><path d="m218.222656 180 9.773438-5.644531v11.289062zm0 0"/><path d="m218.222656 168.714844 9.773438-5.644532v11.285157zm0 0"/><path d="m208.449219 151.785156 9.773437-5.644531v11.289063zm0 0"/><path d="m198.675781 146.140625 9.773438-5.640625v11.285156zm0 0"/><path d="m188.902344 140.5 9.773437-5.644531v11.285156zm0 0"/><path d="m179.128906 134.855469 9.773438-5.644531v11.289062zm0 0"/><path d="m169.351562 140.5 9.777344-5.644531v11.285156zm0 0"/><path d="m159.578125 146.140625 9.773437-5.640625v11.285156zm0 0"/><path d="m149.804688 151.785156 9.773437-5.644531v11.289063zm0 0"/><path d="m140.03125 157.429688 9.773438-5.644532v11.285156zm0 0"/><path d="m140.03125 180 9.773438-5.644531v11.289062zm0 0"/><path d="m140.03125 202.570312 9.773438-5.640624v11.285156zm0 0"/><path d="m149.804688 208.214844 9.773437-5.644532v11.289063zm0 0"/><path d="m159.578125 213.859375 9.773437-5.644531v11.285156zm0 0"/><path d="m169.351562 219.5 9.777344-5.640625v11.285156zm0 0"/><path d="m179.128906 225.144531 9.773438-5.644531v11.289062zm0 0"/><path d="m188.902344 219.5 9.773437-5.640625v11.285156zm0 0"/><path d="m198.675781 213.859375 9.773438-5.644531v11.285156zm0 0"/><path d="m208.449219 208.214844 9.773437-5.644532v11.289063zm0 0"/><path d="m227.996094 208.214844 9.773437-5.644532v11.289063zm0 0"/><path d="m227.996094 151.785156 9.773437-5.644531v11.289063zm0 0"/><path d="m198.675781 134.855469 9.773438-5.644531v11.289062zm0 0"/><path d="m159.578125 134.855469 9.773437-5.644531v11.289062zm0 0"/><path d="m149.804688 140.5 9.773437-5.644531v11.285156zm0 0"/><path d="m140.03125 146.140625 9.773438-5.640625v11.285156zm0 0"/><path d="m130.257812 163.070312 9.773438-5.640624v11.285156zm0 0"/><path d="m130.257812 174.355469 9.773438-5.640625v11.285156zm0 0"/><path d="m130.257812 185.644531 9.773438-5.644531v11.285156zm0 0"/><path d="m130.257812 196.929688 9.773438-5.644532v11.285156zm0 0"/><path d="m140.03125 213.859375 9.773438-5.644531v11.285156zm0 0"/><path d="m149.804688 219.5 9.773437-5.640625v11.285156zm0 0"/><path d="m159.578125 225.144531 9.773437-5.644531v11.289062zm0 0"/><path d="m198.675781 225.144531 9.773438-5.644531v11.289062zm0 0"/><path d="m237.769531 202.570312 9.777344-5.640624v11.285156zm0 0"/><path d="m237.769531 191.285156 9.777344-5.640625v11.285157zm0 0"/><path d="m237.769531 180 9.777344-5.644531v11.289062zm0 0"/><path d="m237.769531 168.714844 9.777344-5.644532v11.285157zm0 0"/><path d="m237.769531 157.429688 9.777344-5.644532v11.285156zm0 0"/><path d="m218.222656 134.855469 9.773438-5.644531v11.289062zm0 0"/><path d="m188.902344 117.925781 9.773437-5.640625v11.285156zm0 0"/><path d="m169.351562 117.925781 9.777344-5.640625v11.285156zm0 0"/><path d="m120.484375 146.140625 9.773437-5.640625v11.285156zm0 0"/><path d="m120.484375 180 9.773437-5.644531v11.289062zm0 0"/><path d="m120.484375 213.859375 9.773437-5.644531v11.285156zm0 0"/><path d="m169.351562 242.074219 9.777344-5.644531v11.285156zm0 0"/><path d="m188.902344 242.074219 9.773437-5.644531v11.285156zm0 0"/><path d="m218.222656 225.144531 9.773438-5.644531v11.289062zm0 0"/><path d="m247.546875 219.5 9.773437-5.640625v11.285156zm0 0"/><path d="m247.546875 196.929688 9.773437-5.644532v11.285156zm0 0"/><path d="m247.546875 185.644531 9.773437-5.644531v11.285156zm0 0"/><path d="m247.546875 174.355469 9.773437-5.640625v11.285156zm0 0"/><path d="m247.546875 163.070312 9.773437-5.640624v11.285156zm0 0"/><path d="m247.546875 140.5 9.773437-5.644531v11.285156zm0 0"/><path d="m237.769531 134.855469 9.777344-5.644531v11.289062zm0 0"/><path d="m208.449219 117.925781 9.773437-5.640625v11.285156zm0 0"/><path d="m179.128906 100.996094 9.773438-5.640625v11.285156zm0 0"/><path d="m159.578125 112.285156 9.773437-5.644531v11.285156zm0 0"/><path d="m149.804688 117.925781 9.773437-5.640625v11.285156zm0 0"/><path d="m140.03125 123.570312 9.773438-5.644531v11.285157zm0 0"/><path d="m130.257812 129.210938 9.773438-5.640626v11.285157zm0 0"/><path d="m120.484375 134.855469 9.773437-5.644531v11.289062zm0 0"/><path d="m110.710938 163.070312 9.773437-5.640624v11.285156zm0 0"/><path d="m110.710938 196.929688 9.773437-5.644532v11.285156zm0 0"/><path d="m120.484375 225.144531 9.773437-5.644531v11.289062zm0 0"/><path d="m130.257812 230.789062 9.773438-5.644531v11.285157zm0 0"/><path d="m140.03125 236.429688 9.773438-5.640626v11.285157zm0 0"/><path d="m149.804688 242.074219 9.773437-5.644531v11.285156zm0 0"/><path d="m159.578125 247.714844 9.773437-5.640625v11.285156zm0 0"/><path d="m179.128906 259.003906 9.773438-5.644531v11.285156zm0 0"/><path d="m208.449219 242.074219 9.773437-5.644531v11.285156zm0 0"/><path d="m237.769531 225.144531 9.777344-5.644531v11.289062zm0 0"/><path d="m257.320312 191.285156 9.773438-5.640625v11.285157zm0 0"/><path d="m257.320312 180 9.773438-5.644531v11.289062zm0 0"/><path d="m257.320312 168.714844 9.773438-5.644532v11.285157zm0 0"/><path d="m227.996094 117.925781 9.773437-5.640625v11.285156zm0 0"/><path d="m198.675781 100.996094 9.773438-5.640625v11.285156zm0 0"/><path d="m169.351562 95.355469 9.777344-5.644531v11.285156zm0 0"/><path d="m149.804688 106.640625 9.773437-5.644531v11.289062zm0 0"/><path d="m140.03125 112.285156 9.773438-5.644531v11.285156zm0 0"/><path d="m130.257812 117.925781 9.773438-5.640625v11.285156zm0 0"/><path d="m120.484375 123.570312 9.773437-5.644531v11.285157zm0 0"/><path d="m100.933594 134.855469 9.777344-5.644531v11.289062zm0 0"/><path d="m100.933594 146.140625 9.777344-5.640625v11.285156zm0 0"/><path d="m100.933594 180 9.777344-5.644531v11.289062zm0 0"/><path d="m100.933594 213.859375 9.777344-5.644531v11.285156zm0 0"/><path d="m100.933594 225.144531 9.777344-5.644531v11.289062zm0 0"/><path d="m120.484375 236.429688 9.773437-5.640626v11.285157zm0 0"/><path d="m130.257812 242.074219 9.773438-5.644531v11.285156zm0 0"/><path d="m140.03125 247.714844 9.773438-5.640625v11.285156zm0 0"/><path d="m149.804688 253.359375 9.773437-5.644531v11.289062zm0 0"/><path d="m169.351562 264.644531 9.777344-5.640625v11.285156zm0 0"/><path d="m198.675781 259.003906 9.773438-5.644531v11.285156zm0 0"/><path d="m227.996094 242.074219 9.773437-5.644531v11.285156zm0 0"/><path d="m218.222656 100.996094 9.773438-5.640625v11.285156zm0 0"/><path d="m140.03125 100.996094 9.773438-5.640625v11.285156zm0 0"/><path d="m130.257812 106.640625 9.773438-5.644531v11.289062zm0 0"/><path d="m120.484375 112.285156 9.773437-5.644531v11.285156zm0 0"/><path d="m91.160156 163.070312 9.773438-5.640624v11.285156zm0 0"/><path d="m91.160156 196.929688 9.773438-5.644532v11.285156zm0 0"/><path d="m120.484375 247.714844 9.773437-5.640625v11.285156zm0 0"/><path d="m130.257812 253.359375 9.773438-5.644531v11.289062zm0 0"/><path d="m140.03125 259.003906 9.773438-5.644531v11.285156zm0 0"/><path d="m218.222656 259.003906 9.773438-5.644531v11.285156zm0 0"/><path d="m81.386719 180 9.773437-5.644531v11.289062zm0 0"/><path d="m198.675781 180-9.773437-5.644531v11.289062zm0 0"/><path d="m188.902344 174.355469-9.773438-5.640625v11.285156zm0 0"/><path d="m188.902344 185.644531-9.773438-5.644531v11.285156zm0 0"/><path d="m208.449219 185.644531-9.773438-5.644531v11.285156zm0 0"/><path d="m208.449219 174.355469-9.773438-5.640625v11.285156zm0 0"/><path d="m179.128906 168.714844-9.777344-5.644532v11.285157zm0 0"/><path d="m179.128906 180-9.777344-5.644531v11.289062zm0 0"/><path d="m179.128906 191.285156-9.777344-5.640625v11.285157zm0 0"/><path d="m218.222656 180-9.773437-5.644531v11.289062zm0 0"/><path d="m208.449219 163.070312-9.773438-5.640624v11.285156zm0 0"/><path d="m188.902344 151.785156-9.773438-5.644531v11.289063zm0 0"/><path d="m179.128906 157.429688-9.777344-5.644532v11.285156zm0 0"/><path d="m169.351562 163.070312-9.773437-5.640624v11.285156zm0 0"/><path d="m169.351562 196.929688-9.773437-5.644532v11.285156zm0 0"/><path d="m179.128906 202.570312-9.777344-5.640624v11.285156zm0 0"/><path d="m188.902344 208.214844-9.773438-5.644532v11.289063zm0 0"/><path d="m208.449219 196.929688-9.773438-5.644532v11.285156zm0 0"/><path d="m227.996094 196.929688-9.773438-5.644532v11.285156zm0 0"/><path d="m227.996094 185.644531-9.773438-5.644531v11.285156zm0 0"/><path d="m227.996094 174.355469-9.773438-5.640625v11.285156zm0 0"/><path d="m227.996094 163.070312-9.773438-5.640624v11.285156zm0 0"/><path d="m218.222656 157.429688-9.773437-5.644532v11.285156zm0 0"/><path d="m208.449219 151.785156-9.773438-5.644531v11.289063zm0 0"/><path d="m198.675781 146.140625-9.773437-5.640625v11.285156zm0 0"/><path d="m188.902344 140.5-9.773438-5.644531v11.285156zm0 0"/><path d="m169.351562 151.785156-9.773437-5.644531v11.289063zm0 0"/><path d="m159.578125 168.714844-9.773437-5.644532v11.285157zm0 0"/><path d="m159.578125 191.285156-9.773437-5.640625v11.285157zm0 0"/><path d="m169.351562 208.214844-9.773437-5.644532v11.289063zm0 0"/><path d="m188.902344 219.5-9.773438-5.640625v11.285156zm0 0"/><path d="m198.675781 213.859375-9.773437-5.644531v11.285156zm0 0"/><path d="m208.449219 208.214844-9.773438-5.644532v11.289063zm0 0"/><path d="m218.222656 202.570312-9.773437-5.640624v11.285156zm0 0"/><path d="m237.769531 180-9.773437-5.644531v11.289062zm0 0"/><path d="m218.222656 146.140625-9.773437-5.640625v11.285156zm0 0"/><path d="m208.449219 140.5-9.773438-5.644531v11.285156zm0 0"/><path d="m198.675781 134.855469-9.773437-5.644531v11.289062zm0 0"/><path d="m179.128906 134.855469-9.777344-5.644531v11.289062zm0 0"/><path d="m169.351562 140.5-9.773437-5.644531v11.285156zm0 0"/><path d="m159.578125 146.140625-9.773437-5.640625v11.285156zm0 0"/><path d="m149.804688 151.785156-9.773438-5.644531v11.289063zm0 0"/><path d="m149.804688 163.070312-9.773438-5.640624v11.285156zm0 0"/><path d="m149.804688 174.355469-9.773438-5.640625v11.285156zm0 0"/><path d="m149.804688 185.644531-9.773438-5.644531v11.285156zm0 0"/><path d="m149.804688 196.929688-9.773438-5.644532v11.285156zm0 0"/><path d="m149.804688 208.214844-9.773438-5.644532v11.289063zm0 0"/><path d="m159.578125 213.859375-9.773437-5.644531v11.285156zm0 0"/><path d="m169.351562 219.5-9.773437-5.640625v11.285156zm0 0"/><path d="m179.128906 225.144531-9.777344-5.644531v11.289062zm0 0"/><path d="m198.675781 225.144531-9.773437-5.644531v11.289062zm0 0"/><path d="m208.449219 219.5-9.773438-5.640625v11.285156zm0 0"/><path d="m218.222656 213.859375-9.773437-5.644531v11.285156zm0 0"/><path d="m247.546875 196.929688-9.777344-5.644532v11.285156zm0 0"/><path d="m247.546875 163.070312-9.777344-5.640624v11.285156zm0 0"/><path d="m237.769531 146.140625-9.773437-5.640625v11.285156zm0 0"/><path d="m188.902344 117.925781-9.773438-5.640625v11.285156zm0 0"/><path d="m159.578125 134.855469-9.773437-5.644531v11.289062zm0 0"/><path d="m140.03125 168.714844-9.773438-5.644532v11.285157zm0 0"/><path d="m140.03125 180-9.773438-5.644531v11.289062zm0 0"/><path d="m140.03125 191.285156-9.773438-5.640625v11.285157zm0 0"/><path d="m159.578125 225.144531-9.773437-5.644531v11.289062zm0 0"/><path d="m188.902344 242.074219-9.773438-5.644531v11.285156zm0 0"/><path d="m237.769531 213.859375-9.773437-5.644531v11.285156zm0 0"/><path d="m257.320312 213.859375-9.773437-5.644531v11.285156zm0 0"/><path d="m257.320312 180-9.773437-5.644531v11.289062zm0 0"/><path d="m257.320312 146.140625-9.773437-5.640625v11.285156zm0 0"/><path d="m237.769531 134.855469-9.773437-5.644531v11.289062zm0 0"/><path d="m227.996094 129.210938-9.773438-5.640626v11.285157zm0 0"/><path d="m218.222656 123.570312-9.773437-5.644531v11.285157zm0 0"/><path d="m208.449219 117.925781-9.773438-5.640625v11.285156zm0 0"/><path d="m198.675781 112.285156-9.773437-5.644531v11.285156zm0 0"/><path d="m169.351562 117.925781-9.773437-5.640625v11.285156zm0 0"/><path d="m140.03125 134.855469-9.773438-5.644531v11.289062zm0 0"/><path d="m130.257812 151.785156-9.773437-5.644531v11.289063zm0 0"/><path d="m130.257812 208.214844-9.773437-5.644532v11.289063zm0 0"/><path d="m140.03125 225.144531-9.773438-5.644531v11.289062zm0 0"/><path d="m169.351562 242.074219-9.773437-5.644531v11.285156zm0 0"/><path d="m198.675781 247.714844-9.773437-5.640625v11.285156zm0 0"/><path d="m208.449219 242.074219-9.773438-5.644531v11.285156zm0 0"/><path d="m218.222656 236.429688-9.773437-5.640626v11.285157zm0 0"/><path d="m227.996094 230.789062-9.773438-5.644531v11.285157zm0 0"/><path d="m237.769531 225.144531-9.773437-5.644531v11.289062zm0 0"/><path d="m267.09375 196.929688-9.773438-5.644532v11.285156zm0 0"/><path d="m267.09375 163.070312-9.773438-5.640624v11.285156zm0 0"/><path d="m257.320312 134.855469-9.773437-5.644531v11.289062zm0 0"/><path d="m237.769531 123.570312-9.773437-5.644531v11.285157zm0 0"/><path d="m227.996094 117.925781-9.773438-5.640625v11.285156zm0 0"/><path d="m218.222656 112.285156-9.773437-5.644531v11.285156zm0 0"/><path d="m208.449219 106.640625-9.773438-5.644531v11.289062zm0 0"/><path d="m188.902344 95.355469-9.773438-5.644531v11.285156zm0 0"/><path d="m179.128906 100.996094-9.777344-5.640625v11.285156zm0 0"/><path d="m149.804688 117.925781-9.773438-5.640625v11.285156zm0 0"/><path d="m120.484375 134.855469-9.773437-5.644531v11.289062zm0 0"/><path d="m120.484375 157.429688-9.773437-5.644532v11.285156zm0 0"/><path d="m120.484375 168.714844-9.773437-5.644532v11.285157zm0 0"/><path d="m120.484375 180-9.773437-5.644531v11.289062zm0 0"/><path d="m120.484375 191.285156-9.773437-5.640625v11.285157zm0 0"/><path d="m120.484375 202.570312-9.773437-5.640624v11.285156zm0 0"/><path d="m120.484375 225.144531-9.773437-5.644531v11.289062zm0 0"/><path d="m149.804688 242.074219-9.773438-5.644531v11.285156zm0 0"/><path d="m179.128906 259.003906-9.777344-5.644531v11.285156zm0 0"/><path d="m188.902344 264.644531-9.773438-5.640625v11.285156zm0 0"/><path d="m208.449219 253.359375-9.773438-5.644531v11.289062zm0 0"/><path d="m218.222656 247.714844-9.773437-5.640625v11.285156zm0 0"/><path d="m227.996094 242.074219-9.773438-5.644531v11.285156zm0 0"/><path d="m237.769531 236.429688-9.773437-5.640626v11.285157zm0 0"/><path d="m257.320312 225.144531-9.773437-5.644531v11.289062zm0 0"/><path d="m276.867188 180-9.773438-5.644531v11.289062zm0 0"/><path d="m237.769531 112.285156-9.773437-5.644531v11.285156zm0 0"/><path d="m227.996094 106.640625-9.773438-5.644531v11.289062zm0 0"/><path d="m218.222656 100.996094-9.773437-5.640625v11.285156zm0 0"/><path d="m159.578125 100.996094-9.773437-5.640625v11.285156zm0 0"/><path d="m130.257812 117.925781-9.773437-5.640625v11.285156zm0 0"/><path d="m110.710938 140.5-9.777344-5.644531v11.285156zm0 0"/><path d="m110.710938 163.070312-9.777344-5.640624v11.285156zm0 0"/><path d="m110.710938 174.355469-9.777344-5.640625v11.285156zm0 0"/><path d="m110.710938 185.644531-9.777344-5.644531v11.285156zm0 0"/><path d="m110.710938 196.929688-9.777344-5.644532v11.285156zm0 0"/><path d="m110.710938 219.5-9.777344-5.640625v11.285156zm0 0"/><path d="m130.257812 242.074219-9.773437-5.644531v11.285156zm0 0"/><path d="m159.578125 259.003906-9.773437-5.644531v11.285156zm0 0"/><path d="m218.222656 259.003906-9.773437-5.644531v11.285156zm0 0"/><path d="m227.996094 253.359375-9.773438-5.644531v11.289062zm0 0"/><path d="m237.769531 247.714844-9.773437-5.640625v11.285156zm0 0"/><path d="m140.03125 100.996094-9.773438-5.640625v11.285156zm0 0"/><path d="m100.933594 168.714844-9.773438-5.644532v11.285157zm0 0"/><path d="m100.933594 180-9.773438-5.644531v11.289062zm0 0"/><path d="m100.933594 191.285156-9.773438-5.640625v11.285157zm0 0"/><path d="m140.03125 259.003906-9.773438-5.644531v11.285156zm0 0"/></g></svg>