<svg height="360pt" viewBox="0 0 360 360" width="360pt" xmlns="http://www.w3.org/2000/svg"><path d="m0 0h360v360h-360z" fill="#800080"/><g fill="#fff" fill-rule="evenodd"><path d="m179.550781 174.183594 5.039063-2.910156v5.816406zm0 0"/><path d="m179.550781 185.816406 5.039063-2.90625v5.816406zm0 0"/><path d="m169.472656 180 5.039063-2.910156v5.820312zm0 0"/><path d="m245.046875 136.367188 5.039063-2.910157v5.820313zm0 0"/><path d="m179.550781 98.550781 5.039063-2.90625v5.816407zm0 0"/><path d="m179.550781 261.449219 5.039063-2.910157v5.816407zm0 0"/><path d="m245.046875 223.632812 5.039063-2.910156v5.820313zm0 0"/><path d="m103.976562 142.183594 5.039063-2.90625v5.816406zm0 0"/><path d="m103.976562 217.816406 5.039063-2.910156v5.816406zm0 0"/><path d="m250.085938 127.640625 5.039062-2.910156v5.820312zm0 0"/><path d="m184.589844 89.824219 5.035156-2.90625v5.816406zm0 0"/><path d="m184.589844 270.175781 5.035156-2.910156v5.816406zm0 0"/><path d="m250.085938 232.359375 5.039062-2.910156v5.820312zm0 0"/><path d="m260.164062 127.640625 5.035157-2.910156v5.820312zm0 0"/><path d="m179.550781 81.097656 5.039063-2.90625v5.816406zm0 0"/><path d="m93.898438 142.183594 5.039062-2.90625v5.816406zm0 0"/><path d="m93.898438 217.816406 5.039062-2.910156v5.816406zm0 0"/><path d="m179.550781 278.902344 5.039063-2.910156v5.816406zm0 0"/><path d="m260.164062 232.359375 5.035157-2.910156v5.820312zm0 0"/><path d="m88.859375 133.457031 5.039063-2.90625v5.816407zm0 0"/><path d="m88.859375 226.542969 5.039063-2.910157v5.816407zm0 0"/><path d="m250.085938 98.550781 5.039062-2.90625v5.816407zm0 0"/><path d="m209.78125 75.28125 5.035156-2.910156v5.820312zm0 0"/><path d="m209.78125 284.71875 5.035156-2.910156v5.820312zm0 0"/><path d="m250.085938 261.449219 5.039062-2.910157v5.816407zm0 0"/><path d="m285.355469 113.097656 5.035156-2.910156v5.816406zm0 0"/><path d="m260.164062 98.550781 5.035157-2.90625v5.816407zm0 0"/><path d="m245.046875 89.824219 5.039063-2.90625v5.816406zm0 0"/><path d="m219.855469 75.28125 5.039062-2.910156v5.820312zm0 0"/><path d="m204.742188 66.554688 5.039062-2.910157v5.820313zm0 0"/><path d="m179.550781 52.011719 5.039063-2.910157v5.816407zm0 0"/><path d="m68.707031 156.730469 5.039063-2.910157v5.816407zm0 0"/><path d="m68.707031 203.269531 5.039063-2.90625v5.816407zm0 0"/><path d="m179.550781 307.988281 5.039063-2.90625v5.816407zm0 0"/><path d="m204.742188 293.445312 5.039062-2.910156v5.820313zm0 0"/><path d="m219.855469 284.71875 5.039062-2.910156v5.820312zm0 0"/><path d="m245.046875 270.175781 5.039063-2.910156v5.816406zm0 0"/><path d="m260.164062 261.449219 5.035157-2.910157v5.816407zm0 0"/><path d="m285.355469 246.902344 5.035156-2.90625v5.816406zm0 0"/><path d="m63.667969 118.914062 5.039062-2.910156v5.820313zm0 0"/><path d="m63.667969 148.003906 5.039062-2.910156v5.816406zm0 0"/><path d="m63.667969 165.457031 5.039062-2.910156v5.816406zm0 0"/><path d="m63.667969 194.542969 5.039062-2.90625v5.816406zm0 0"/><path d="m63.667969 211.996094 5.039062-2.90625v5.816406zm0 0"/><path d="m63.667969 241.085938 5.039062-2.910157v5.820313zm0 0"/><path d="m290.390625 104.371094 5.039063-2.910156v5.816406zm0 0"/><path d="m265.199219 89.824219 5.039062-2.90625v5.816406zm0 0"/><path d="m250.085938 81.097656 5.039062-2.90625v5.816406zm0 0"/><path d="m224.894531 66.554688 5.039063-2.910157v5.820313zm0 0"/><path d="m209.78125 57.828125 5.035156-2.910156v5.820312zm0 0"/><path d="m184.589844 43.285156 5.035156-2.910156v5.816406zm0 0"/><path d="m184.589844 316.714844 5.035156-2.90625v5.816406zm0 0"/><path d="m209.78125 302.171875 5.035156-2.910156v5.820312zm0 0"/><path d="m224.894531 293.445312 5.039063-2.910156v5.820313zm0 0"/><path d="m250.085938 278.902344 5.039062-2.910156v5.816406zm0 0"/><path d="m265.199219 270.175781 5.039062-2.910156v5.816406zm0 0"/><path d="m290.390625 255.628906 5.039063-2.90625v5.816406zm0 0"/><path d="m300.46875 104.371094 5.039062-2.910156v5.816406zm0 0"/><path d="m260.164062 81.097656 5.035157-2.90625v5.816406zm0 0"/><path d="m219.855469 57.828125 5.039062-2.910156v5.820312zm0 0"/><path d="m179.550781 34.558594 5.039063-2.910156v5.816406zm0 0"/><path d="m53.59375 118.914062 5.039062-2.910156v5.820313zm0 0"/><path d="m53.59375 148.003906 5.039062-2.910156v5.816406zm0 0"/><path d="m53.59375 165.457031 5.039062-2.910156v5.816406zm0 0"/><path d="m53.59375 194.542969 5.039062-2.90625v5.816406zm0 0"/><path d="m53.59375 211.996094 5.039062-2.90625v5.816406zm0 0"/><path d="m53.59375 241.085938 5.039062-2.910157v5.820313zm0 0"/><path d="m179.550781 325.441406 5.039063-2.90625v5.816406zm0 0"/><path d="m219.855469 302.171875 5.039062-2.910156v5.820312zm0 0"/><path d="m260.164062 278.902344 5.035157-2.910156v5.816406zm0 0"/><path d="m300.46875 255.628906 5.039062-2.90625v5.816406zm0 0"/><path d="m48.554688 110.1875 5.039062-2.910156v5.820312zm0 0"/><path d="m48.554688 156.730469 5.039062-2.910157v5.816407zm0 0"/><path d="m48.554688 203.269531 5.039062-2.90625v5.816407zm0 0"/><path d="m48.554688 249.8125 5.039062-2.910156v5.820312zm0 0"/><path d="m189.625 180-5.035156-2.910156v5.820312zm0 0"/><path d="m179.550781 174.183594-5.039062-2.910156v5.816406zm0 0"/><path d="m179.550781 185.816406-5.039062-2.90625v5.816406zm0 0"/><path d="m255.125 217.816406-5.039062-2.910156v5.816406zm0 0"/><path d="m255.125 142.183594-5.039062-2.90625v5.816406zm0 0"/><path d="m179.550781 98.550781-5.039062-2.90625v5.816407zm0 0"/><path d="m114.050781 136.367188-5.035156-2.910157v5.820313zm0 0"/><path d="m114.050781 223.632812-5.035156-2.910156v5.820313zm0 0"/><path d="m179.550781 261.449219-5.039062-2.910157v5.816407zm0 0"/><path d="m265.199219 217.816406-5.035157-2.910156v5.816406zm0 0"/><path d="m265.199219 142.183594-5.035157-2.90625v5.816406zm0 0"/><path d="m270.238281 226.542969-5.039062-2.910157v5.816407zm0 0"/><path d="m270.238281 133.457031-5.039062-2.90625v5.816407zm0 0"/><path d="m174.511719 89.824219-5.039063-2.90625v5.816406zm0 0"/><path d="m109.015625 127.640625-5.039063-2.910156v5.820312zm0 0"/><path d="m109.015625 232.359375-5.039063-2.910156v5.820312zm0 0"/><path d="m174.511719 270.175781-5.039063-2.910156v5.816406zm0 0"/><path d="m179.550781 81.097656-5.039062-2.90625v5.816406zm0 0"/><path d="m98.9375 127.640625-5.039062-2.910156v5.820312zm0 0"/><path d="m98.9375 232.359375-5.039062-2.910156v5.820312zm0 0"/><path d="m179.550781 278.902344-5.039062-2.910156v5.816406zm0 0"/><path d="m290.390625 203.269531-5.035156-2.90625v5.816407zm0 0"/><path d="m290.390625 156.730469-5.035156-2.910157v5.816407zm0 0"/><path d="m295.429688 241.085938-5.039063-2.910157v5.820313zm0 0"/><path d="m295.429688 211.996094-5.039063-2.90625v5.816406zm0 0"/><path d="m295.429688 194.542969-5.039063-2.90625v5.816406zm0 0"/><path d="m295.429688 165.457031-5.039063-2.910156v5.816406zm0 0"/><path d="m295.429688 148.003906-5.039063-2.910156v5.816406zm0 0"/><path d="m295.429688 118.914062-5.039063-2.910156v5.820313zm0 0"/><path d="m149.320312 75.28125-5.039062-2.910156v5.820312zm0 0"/><path d="m109.015625 98.550781-5.039063-2.90625v5.816407zm0 0"/><path d="m109.015625 261.449219-5.039063-2.910157v5.816407zm0 0"/><path d="m149.320312 284.71875-5.039062-2.910156v5.820312zm0 0"/><path d="m179.550781 52.011719-5.039062-2.910157v5.816407zm0 0"/><path d="m154.359375 66.554688-5.039063-2.910157v5.820313zm0 0"/><path d="m139.242188 75.28125-5.035157-2.910156v5.820312zm0 0"/><path d="m114.050781 89.824219-5.035156-2.90625v5.816406zm0 0"/><path d="m98.9375 98.550781-5.039062-2.90625v5.816407zm0 0"/><path d="m73.746094 113.097656-5.039063-2.910156v5.816406zm0 0"/><path d="m73.746094 246.902344-5.039063-2.90625v5.816406zm0 0"/><path d="m98.9375 261.449219-5.039062-2.910157v5.816407zm0 0"/><path d="m114.050781 270.175781-5.035156-2.910156v5.816406zm0 0"/><path d="m139.242188 284.71875-5.035157-2.910156v5.820312zm0 0"/><path d="m154.359375 293.445312-5.039063-2.910156v5.820313zm0 0"/><path d="m179.550781 307.988281-5.039062-2.90625v5.816407zm0 0"/><path d="m305.507812 241.085938-5.039062-2.910157v5.820313zm0 0"/><path d="m305.507812 211.996094-5.039062-2.90625v5.816406zm0 0"/><path d="m305.507812 194.542969-5.039062-2.90625v5.816406zm0 0"/><path d="m305.507812 165.457031-5.039062-2.910156v5.816406zm0 0"/><path d="m305.507812 148.003906-5.039062-2.910156v5.816406zm0 0"/><path d="m305.507812 118.914062-5.039062-2.910156v5.820313zm0 0"/><path d="m310.546875 249.8125-5.039063-2.910156v5.820312zm0 0"/><path d="m310.546875 203.269531-5.039063-2.90625v5.816407zm0 0"/><path d="m310.546875 156.730469-5.039063-2.910157v5.816407zm0 0"/><path d="m310.546875 110.1875-5.039063-2.910156v5.820312zm0 0"/><path d="m174.511719 43.285156-5.039063-2.910156v5.816406zm0 0"/><path d="m149.320312 57.828125-5.039062-2.910156v5.820312zm0 0"/><path d="m134.207031 66.554688-5.039062-2.910157v5.820313zm0 0"/><path d="m109.015625 81.097656-5.039063-2.90625v5.816406zm0 0"/><path d="m93.898438 89.824219-5.039063-2.90625v5.816406zm0 0"/><path d="m68.707031 104.371094-5.039062-2.910156v5.816406zm0 0"/><path d="m68.707031 255.628906-5.039062-2.90625v5.816406zm0 0"/><path d="m93.898438 270.175781-5.039063-2.910156v5.816406zm0 0"/><path d="m109.015625 278.902344-5.039063-2.910156v5.816406zm0 0"/><path d="m134.207031 293.445312-5.039062-2.910156v5.820313zm0 0"/><path d="m149.320312 302.171875-5.039062-2.910156v5.820312zm0 0"/><path d="m174.511719 316.714844-5.039063-2.90625v5.816406zm0 0"/><path d="m179.550781 34.558594-5.039062-2.910156v5.816406zm0 0"/><path d="m139.242188 57.828125-5.035157-2.910156v5.820312zm0 0"/><path d="m98.9375 81.097656-5.039062-2.90625v5.816406zm0 0"/><path d="m58.632812 104.371094-5.039062-2.910156v5.816406zm0 0"/><path d="m58.632812 255.628906-5.039062-2.90625v5.816406zm0 0"/><path d="m98.9375 278.902344-5.039062-2.910156v5.816406zm0 0"/><path d="m139.242188 302.171875-5.035157-2.910156v5.820312zm0 0"/><path d="m179.550781 325.441406-5.039062-2.90625v5.816406zm0 0"/></g></svg>