<svg height="360pt" viewBox="0 0 360 360" width="360pt" xmlns="http://www.w3.org/2000/svg"><path d="m0 0h360v360h-360z" fill="#fff"/><g fill="#800080" fill-rule="evenodd"><path d="m179.558594 180 4.957031-2.863281v5.726562zm0 0"/><path d="m184.515625 182.863281 4.960937-2.863281v5.726562zm0 0"/><path d="m184.515625 177.136719 4.960937-2.863281v5.726562zm0 0"/><path d="m174.597656 177.136719 4.960938-2.863281v5.726562zm0 0"/><path d="m174.597656 182.863281 4.960938-2.863281v5.726562zm0 0"/><path d="m174.597656 171.410156 4.960938-2.863281v5.726563zm0 0"/><path d="m169.640625 174.273438 4.957031-2.863282v5.726563zm0 0"/><path d="m169.640625 185.726562 4.957031-2.863281v5.726563zm0 0"/><path d="m174.597656 188.589844 4.960938-2.863282v5.726563zm0 0"/><path d="m248.984375 220.082031 4.957031-2.863281v5.726562zm0 0"/><path d="m248.984375 139.917969 4.957031-2.863281v5.726562zm0 0"/><path d="m253.941406 222.945312 4.957032-2.863281v5.726563zm0 0"/><path d="m253.941406 217.21875 4.957032-2.863281v5.726562zm0 0"/><path d="m253.941406 142.78125 4.957032-2.863281v5.726562zm0 0"/><path d="m253.941406 137.054688 4.957032-2.863282v5.726563zm0 0"/><path d="m174.597656 96.972656 4.960938-2.863281v5.726563zm0 0"/><path d="m105.171875 137.054688 4.960937-2.863282v5.726563zm0 0"/><path d="m105.171875 222.945312 4.960937-2.863281v5.726563zm0 0"/><path d="m174.597656 263.027344 4.960938-2.863282v5.726563zm0 0"/><path d="m258.898438 225.808594 4.960937-2.863282v5.726563zm0 0"/><path d="m258.898438 134.191406 4.960937-2.863281v5.726563zm0 0"/><path d="m253.941406 131.328125 4.957032-2.863281v5.726562zm0 0"/><path d="m248.984375 128.464844 4.957031-2.863282v5.726563zm0 0"/><path d="m184.515625 91.246094 4.960937-2.863282v5.726563zm0 0"/><path d="m179.558594 88.382812 4.957031-2.863281v5.726563zm0 0"/><path d="m174.597656 91.246094 4.960938-2.863282v5.726563zm0 0"/><path d="m169.640625 94.109375 4.957031-2.863281v5.726562zm0 0"/><path d="m105.171875 131.328125 4.960937-2.863281v5.726562zm0 0"/><path d="m100.214844 134.191406 4.957031-2.863281v5.726563zm0 0"/><path d="m100.214844 225.808594 4.957031-2.863282v5.726563zm0 0"/><path d="m105.171875 228.671875 4.960937-2.863281v5.726562zm0 0"/><path d="m169.640625 265.890625 4.957031-2.863281v5.726562zm0 0"/><path d="m174.597656 268.753906 4.960938-2.863281v5.726563zm0 0"/><path d="m179.558594 271.617188 4.957031-2.863282v5.726563zm0 0"/><path d="m184.515625 268.753906 4.960937-2.863281v5.726563zm0 0"/><path d="m248.984375 231.535156 4.957031-2.863281v5.726563zm0 0"/><path d="m253.941406 228.671875 4.957032-2.863281v5.726562zm0 0"/><path d="m263.859375 228.671875 4.957031-2.863281v5.726562zm0 0"/><path d="m263.859375 222.945312 4.957031-2.863281v5.726563zm0 0"/><path d="m263.859375 137.054688 4.957031-2.863282v5.726563zm0 0"/><path d="m263.859375 131.328125 4.957031-2.863281v5.726562zm0 0"/><path d="m253.941406 125.601562 4.957032-2.863281v5.726563zm0 0"/><path d="m184.515625 85.519531 4.960937-2.863281v5.726562zm0 0"/><path d="m174.597656 85.519531 4.960938-2.863281v5.726562zm0 0"/><path d="m95.253906 131.328125 4.960938-2.863281v5.726562zm0 0"/><path d="m95.253906 137.054688 4.960938-2.863282v5.726563zm0 0"/><path d="m95.253906 142.78125 4.960938-2.863281v5.726562zm0 0"/><path d="m95.253906 217.21875 4.960938-2.863281v5.726562zm0 0"/><path d="m95.253906 222.945312 4.960938-2.863281v5.726563zm0 0"/><path d="m95.253906 228.671875 4.960938-2.863281v5.726562zm0 0"/><path d="m174.597656 274.480469 4.960938-2.863281v5.726562zm0 0"/><path d="m184.515625 274.480469 4.960937-2.863281v5.726562zm0 0"/><path d="m253.941406 234.398438 4.957032-2.863282v5.726563zm0 0"/><path d="m174.597656 79.792969 4.960938-2.863281v5.726562zm0 0"/><path d="m169.640625 82.65625 4.957031-2.863281v5.726562zm0 0"/><path d="m95.253906 125.601562 4.960938-2.863281v5.726563zm0 0"/><path d="m90.296875 128.464844 4.957031-2.863282v5.726563zm0 0"/><path d="m90.296875 139.917969 4.957031-2.863281v5.726562zm0 0"/><path d="m90.296875 220.082031 4.957031-2.863281v5.726562zm0 0"/><path d="m90.296875 231.535156 4.957031-2.863281v5.726563zm0 0"/><path d="m95.253906 234.398438 4.960938-2.863282v5.726563zm0 0"/><path d="m169.640625 277.34375 4.957031-2.863281v5.726562zm0 0"/><path d="m174.597656 280.207031 4.960938-2.863281v5.726562zm0 0"/><path d="m288.652344 242.988281 4.960937-2.863281v5.726562zm0 0"/><path d="m288.652344 208.628906 4.960937-2.863281v5.726563zm0 0"/><path d="m288.652344 197.179688 4.960937-2.863282v5.726563zm0 0"/><path d="m288.652344 162.820312 4.960937-2.863281v5.726563zm0 0"/><path d="m288.652344 151.371094 4.960937-2.863282v5.726563zm0 0"/><path d="m288.652344 117.011719 4.960937-2.863281v5.726562zm0 0"/><path d="m253.941406 96.972656 4.957032-2.863281v5.726563zm0 0"/><path d="m248.984375 94.109375 4.957031-2.863281v5.726562zm0 0"/><path d="m214.269531 74.066406 4.960938-2.863281v5.726563zm0 0"/><path d="m209.3125 71.203125 4.957031-2.863281v5.726562zm0 0"/><path d="m209.3125 288.796875 4.957031-2.863281v5.726562zm0 0"/><path d="m214.269531 285.933594 4.960938-2.863282v5.726563zm0 0"/><path d="m248.984375 265.890625 4.957031-2.863281v5.726562zm0 0"/><path d="m253.941406 263.027344 4.957032-2.863282v5.726563zm0 0"/><path d="m293.613281 245.851562 4.957031-2.863281v5.726563zm0 0"/><path d="m293.613281 240.125 4.957031-2.863281v5.726562zm0 0"/><path d="m293.613281 211.492188 4.957031-2.863282v5.726563zm0 0"/><path d="m293.613281 205.765625 4.957031-2.859375v5.722656zm0 0"/><path d="m293.613281 200.042969 4.957031-2.863281v5.726562zm0 0"/><path d="m293.613281 194.316406 4.957031-2.863281v5.726563zm0 0"/><path d="m293.613281 165.683594 4.957031-2.863282v5.726563zm0 0"/><path d="m293.613281 159.957031 4.957031-2.863281v5.726562zm0 0"/><path d="m293.613281 154.234375 4.957031-2.863281v5.722656zm0 0"/><path d="m293.613281 148.507812 4.957031-2.863281v5.726563zm0 0"/><path d="m293.613281 119.875 4.957031-2.863281v5.726562zm0 0"/><path d="m293.613281 114.148438 4.957031-2.863282v5.726563zm0 0"/><path d="m253.941406 91.246094 4.957032-2.863282v5.726563zm0 0"/><path d="m214.269531 68.339844 4.960938-2.863282v5.726563zm0 0"/><path d="m174.597656 51.164062 4.960938-2.863281v5.726563zm0 0"/><path d="m144.84375 68.339844 4.960938-2.863282v5.726563zm0 0"/><path d="m134.925781 74.066406 4.960938-2.863281v5.726563zm0 0"/><path d="m105.171875 91.246094 4.960937-2.863282v5.726563zm0 0"/><path d="m95.253906 96.972656 4.960938-2.863281v5.726563zm0 0"/><path d="m65.5 114.148438 4.960938-2.863282v5.726563zm0 0"/><path d="m65.5 154.234375 4.960938-2.863281v5.722656zm0 0"/><path d="m65.5 159.957031 4.960938-2.863281v5.726562zm0 0"/><path d="m65.5 200.042969 4.960938-2.863281v5.726562zm0 0"/><path d="m65.5 205.765625 4.960938-2.859375v5.722656zm0 0"/><path d="m65.5 245.851562 4.960938-2.863281v5.726563zm0 0"/><path d="m95.253906 263.027344 4.960938-2.863282v5.726563zm0 0"/><path d="m105.171875 268.753906 4.960937-2.863281v5.726563zm0 0"/><path d="m134.925781 285.933594 4.960938-2.863282v5.726563zm0 0"/><path d="m144.84375 291.660156 4.960938-2.863281v5.726563zm0 0"/><path d="m174.597656 308.835938 4.960938-2.863282v5.726563zm0 0"/><path d="m214.269531 291.660156 4.960938-2.863281v5.726563zm0 0"/><path d="m253.941406 268.753906 4.957032-2.863281v5.726563zm0 0"/><path d="m298.570312 248.714844 4.960938-2.863282v5.726563zm0 0"/><path d="m298.570312 202.90625 4.960938-2.863281v5.722656zm0 0"/><path d="m298.570312 157.09375 4.960938-2.859375v5.722656zm0 0"/><path d="m298.570312 111.285156 4.960938-2.863281v5.726563zm0 0"/><path d="m293.613281 108.421875 4.957031-2.859375v5.722656zm0 0"/><path d="m288.652344 105.5625 4.960937-2.863281v5.722656zm0 0"/><path d="m263.859375 91.246094 4.957031-2.863282v5.726563zm0 0"/><path d="m258.898438 88.382812 4.960937-2.863281v5.726563zm0 0"/><path d="m253.941406 85.519531 4.957032-2.863281v5.726562zm0 0"/><path d="m248.984375 82.65625 4.957031-2.863281v5.726562zm0 0"/><path d="m224.1875 68.339844 4.960938-2.863282v5.726563zm0 0"/><path d="m219.230469 65.476562 4.957031-2.863281v5.726563zm0 0"/><path d="m214.269531 62.613281 4.960938-2.863281v5.726562zm0 0"/><path d="m209.3125 59.75 4.957031-2.859375v5.722656zm0 0"/><path d="m184.515625 45.4375 4.960937-2.863281v5.726562zm0 0"/><path d="m179.558594 42.574219 4.957031-2.863281v5.726562zm0 0"/><path d="m174.597656 45.4375 4.960938-2.863281v5.726562zm0 0"/><path d="m169.640625 48.300781 4.957031-2.863281v5.726562zm0 0"/><path d="m144.84375 62.613281 4.960938-2.863281v5.726562zm0 0"/><path d="m139.886719 65.476562 4.957031-2.863281v5.726563zm0 0"/><path d="m134.925781 68.339844 4.960938-2.863282v5.726563zm0 0"/><path d="m129.96875 71.203125 4.957031-2.863281v5.726562zm0 0"/><path d="m105.171875 85.519531 4.960937-2.863281v5.726562zm0 0"/><path d="m100.214844 88.382812 4.957031-2.863281v5.726563zm0 0"/><path d="m95.253906 91.246094 4.960938-2.863282v5.726563zm0 0"/><path d="m90.296875 94.109375 4.957031-2.863281v5.726562zm0 0"/><path d="m65.5 108.421875 4.960938-2.859375v5.722656zm0 0"/><path d="m60.542969 111.285156 4.957031-2.863281v5.726563zm0 0"/><path d="m60.542969 157.09375 4.957031-2.859375v5.722656zm0 0"/><path d="m60.542969 202.90625 4.957031-2.863281v5.722656zm0 0"/><path d="m60.542969 248.714844 4.957031-2.863282v5.726563zm0 0"/><path d="m65.5 251.578125 4.960938-2.863281v5.722656zm0 0"/><path d="m90.296875 265.890625 4.957031-2.863281v5.726562zm0 0"/><path d="m95.253906 268.753906 4.960938-2.863281v5.726563zm0 0"/><path d="m100.214844 271.617188 4.957031-2.863282v5.726563zm0 0"/><path d="m105.171875 274.480469 4.960937-2.863281v5.726562zm0 0"/><path d="m129.96875 288.796875 4.957031-2.863281v5.726562zm0 0"/><path d="m134.925781 291.660156 4.960938-2.863281v5.726563zm0 0"/><path d="m139.886719 294.523438 4.957031-2.863282v5.726563zm0 0"/><path d="m144.84375 297.386719 4.960938-2.863281v5.726562zm0 0"/><path d="m169.640625 311.699219 4.957031-2.863281v5.726562zm0 0"/><path d="m174.597656 314.5625 4.960938-2.863281v5.726562zm0 0"/><path d="m179.558594 317.425781 4.957031-2.863281v5.726562zm0 0"/><path d="m184.515625 314.5625 4.960937-2.863281v5.726562zm0 0"/><path d="m209.3125 300.25 4.957031-2.863281v5.722656zm0 0"/><path d="m214.269531 297.386719 4.960938-2.863281v5.726562zm0 0"/><path d="m219.230469 294.523438 4.957031-2.863282v5.726563zm0 0"/><path d="m224.1875 291.660156 4.960938-2.863281v5.726563zm0 0"/><path d="m248.984375 277.34375 4.957031-2.863281v5.726562zm0 0"/><path d="m253.941406 274.480469 4.957032-2.863281v5.726562zm0 0"/><path d="m258.898438 271.617188 4.960937-2.863282v5.726563zm0 0"/><path d="m263.859375 268.753906 4.957031-2.863281v5.726563zm0 0"/><path d="m288.652344 254.4375 4.960937-2.859375v5.722656zm0 0"/><path d="m293.613281 251.578125 4.957031-2.863281v5.722656zm0 0"/><path d="m303.53125 251.578125 4.957031-2.863281v5.722656zm0 0"/><path d="m303.53125 245.851562 4.957031-2.863281v5.726563zm0 0"/><path d="m303.53125 205.765625 4.957031-2.859375v5.722656zm0 0"/><path d="m303.53125 200.042969 4.957031-2.863281v5.726562zm0 0"/><path d="m303.53125 159.957031 4.957031-2.863281v5.726562zm0 0"/><path d="m303.53125 154.234375 4.957031-2.863281v5.722656zm0 0"/><path d="m303.53125 114.148438 4.957031-2.863282v5.726563zm0 0"/><path d="m303.53125 108.421875 4.957031-2.859375v5.722656zm0 0"/><path d="m293.613281 102.699219 4.957031-2.863281v5.726562zm0 0"/><path d="m263.859375 85.519531 4.957031-2.863281v5.726562zm0 0"/><path d="m253.941406 79.792969 4.957032-2.863281v5.726562zm0 0"/><path d="m224.1875 62.613281 4.960938-2.863281v5.726562zm0 0"/><path d="m214.269531 56.890625 4.960938-2.863281v5.722656zm0 0"/><path d="m184.515625 39.710938 4.960937-2.863282v5.726563zm0 0"/><path d="m174.597656 39.710938 4.960938-2.863282v5.726563zm0 0"/><path d="m134.925781 62.613281 4.960938-2.863281v5.726562zm0 0"/><path d="m95.253906 85.519531 4.960938-2.863281v5.726562zm0 0"/><path d="m55.582031 108.421875 4.960938-2.859375v5.722656zm0 0"/><path d="m55.582031 114.148438 4.960938-2.863282v5.726563zm0 0"/><path d="m55.582031 119.875 4.960938-2.863281v5.726562zm0 0"/><path d="m55.582031 148.507812 4.960938-2.863281v5.726563zm0 0"/><path d="m55.582031 154.234375 4.960938-2.863281v5.722656zm0 0"/><path d="m55.582031 159.957031 4.960938-2.863281v5.726562zm0 0"/><path d="m55.582031 165.683594 4.960938-2.863282v5.726563zm0 0"/><path d="m55.582031 194.316406 4.960938-2.863281v5.726563zm0 0"/><path d="m55.582031 200.042969 4.960938-2.863281v5.726562zm0 0"/><path d="m55.582031 205.765625 4.960938-2.859375v5.722656zm0 0"/><path d="m55.582031 211.492188 4.960938-2.863282v5.726563zm0 0"/><path d="m55.582031 240.125 4.960938-2.863281v5.726562zm0 0"/><path d="m55.582031 245.851562 4.960938-2.863281v5.726563zm0 0"/><path d="m55.582031 251.578125 4.960938-2.863281v5.722656zm0 0"/><path d="m95.253906 274.480469 4.960938-2.863281v5.726562zm0 0"/><path d="m134.925781 297.386719 4.960938-2.863281v5.726562zm0 0"/><path d="m174.597656 320.289062 4.960938-2.863281v5.726563zm0 0"/><path d="m184.515625 320.289062 4.960937-2.863281v5.726563zm0 0"/><path d="m214.269531 303.109375 4.960938-2.859375v5.722656zm0 0"/><path d="m224.1875 297.386719 4.960938-2.863281v5.726562zm0 0"/><path d="m253.941406 280.207031 4.957032-2.863281v5.726562zm0 0"/><path d="m263.859375 274.480469 4.957031-2.863281v5.726562zm0 0"/><path d="m293.613281 257.300781 4.957031-2.863281v5.726562zm0 0"/><path d="m174.597656 33.984375 4.960938-2.863281v5.726562zm0 0"/><path d="m169.640625 36.847656 4.957031-2.863281v5.726563zm0 0"/><path d="m134.925781 56.890625 4.960938-2.863281v5.722656zm0 0"/><path d="m129.96875 59.75 4.957031-2.859375v5.722656zm0 0"/><path d="m95.253906 79.792969 4.960938-2.863281v5.726562zm0 0"/><path d="m90.296875 82.65625 4.957031-2.863281v5.726562zm0 0"/><path d="m55.582031 102.699219 4.960938-2.863281v5.726562zm0 0"/><path d="m50.625 105.5625 4.957031-2.863281v5.722656zm0 0"/><path d="m50.625 117.011719 4.957031-2.863281v5.726562zm0 0"/><path d="m50.625 151.371094 4.957031-2.863282v5.726563zm0 0"/><path d="m50.625 162.820312 4.957031-2.863281v5.726563zm0 0"/><path d="m50.625 197.179688 4.957031-2.863282v5.726563zm0 0"/><path d="m50.625 208.628906 4.957031-2.863281v5.726563zm0 0"/><path d="m50.625 242.988281 4.957031-2.863281v5.726562zm0 0"/><path d="m50.625 254.4375 4.957031-2.859375v5.722656zm0 0"/><path d="m55.582031 257.300781 4.960938-2.863281v5.726562zm0 0"/><path d="m90.296875 277.34375 4.957031-2.863281v5.726562zm0 0"/><path d="m95.253906 280.207031 4.960938-2.863281v5.726562zm0 0"/><path d="m129.96875 300.25 4.957031-2.863281v5.722656zm0 0"/><path d="m134.925781 303.109375 4.960938-2.859375v5.722656zm0 0"/><path d="m169.640625 323.152344 4.957031-2.863282v5.726563zm0 0"/><path d="m174.597656 326.015625 4.960938-2.863281v5.726562zm0 0"/><path d="m184.515625 177.136719-4.957031-2.863281v5.726562zm0 0"/><path d="m184.515625 182.863281-4.957031-2.863281v5.726562zm0 0"/><path d="m189.476562 174.273438-4.960937-2.863282v5.726563zm0 0"/><path d="m184.515625 171.410156-4.957031-2.863281v5.726563zm0 0"/><path d="m179.558594 180-4.960938-2.863281v5.726562zm0 0"/><path d="m184.515625 188.589844-4.957031-2.863282v5.726563zm0 0"/><path d="m189.476562 185.726562-4.960937-2.863281v5.726563zm0 0"/><path d="m174.597656 177.136719-4.957031-2.863281v5.726562zm0 0"/><path d="m174.597656 182.863281-4.957031-2.863281v5.726562zm0 0"/><path d="m253.941406 137.054688-4.957031-2.863282v5.726563zm0 0"/><path d="m184.515625 96.972656-4.957031-2.863281v5.726563zm0 0"/><path d="m184.515625 263.027344-4.957031-2.863282v5.726563zm0 0"/><path d="m253.941406 222.945312-4.957031-2.863281v5.726563zm0 0"/><path d="m263.859375 222.945312-4.960937-2.863281v5.726563zm0 0"/><path d="m263.859375 217.21875-4.960937-2.863281v5.726562zm0 0"/><path d="m263.859375 142.78125-4.960937-2.863281v5.726562zm0 0"/><path d="m263.859375 137.054688-4.960937-2.863282v5.726563zm0 0"/><path d="m258.898438 134.191406-4.957032-2.863281v5.726563zm0 0"/><path d="m253.941406 131.328125-4.957031-2.863281v5.726562zm0 0"/><path d="m189.476562 94.109375-4.960937-2.863281v5.726562zm0 0"/><path d="m184.515625 91.246094-4.957031-2.863282v5.726563zm0 0"/><path d="m110.132812 139.917969-4.960937-2.863281v5.726562zm0 0"/><path d="m110.132812 220.082031-4.960937-2.863281v5.726562zm0 0"/><path d="m184.515625 268.753906-4.957031-2.863281v5.726563zm0 0"/><path d="m189.476562 265.890625-4.960937-2.863281v5.726562zm0 0"/><path d="m253.941406 228.671875-4.957031-2.863281v5.726562zm0 0"/><path d="m258.898438 225.808594-4.957032-2.863282v5.726563zm0 0"/><path d="m268.816406 220.082031-4.957031-2.863281v5.726562zm0 0"/><path d="m268.816406 139.917969-4.957031-2.863281v5.726562zm0 0"/><path d="m263.859375 131.328125-4.960937-2.863281v5.726562zm0 0"/><path d="m184.515625 85.519531-4.957031-2.863281v5.726562zm0 0"/><path d="m179.558594 88.382812-4.960938-2.863281v5.726563zm0 0"/><path d="m174.597656 91.246094-4.957031-2.863282v5.726563zm0 0"/><path d="m110.132812 128.464844-4.960937-2.863282v5.726563zm0 0"/><path d="m105.171875 131.328125-4.957031-2.863281v5.726562zm0 0"/><path d="m105.171875 137.054688-4.957031-2.863282v5.726563zm0 0"/><path d="m105.171875 142.78125-4.957031-2.863281v5.726562zm0 0"/><path d="m105.171875 217.21875-4.957031-2.863281v5.726562zm0 0"/><path d="m105.171875 222.945312-4.957031-2.863281v5.726563zm0 0"/><path d="m105.171875 228.671875-4.957031-2.863281v5.726562zm0 0"/><path d="m110.132812 231.535156-4.960937-2.863281v5.726563zm0 0"/><path d="m174.597656 268.753906-4.957031-2.863281v5.726563zm0 0"/><path d="m179.558594 271.617188-4.960938-2.863282v5.726563zm0 0"/><path d="m184.515625 274.480469-4.957031-2.863281v5.726562zm0 0"/><path d="m263.859375 228.671875-4.960937-2.863281v5.726562zm0 0"/><path d="m268.816406 128.464844-4.957031-2.863282v5.726563zm0 0"/><path d="m263.859375 125.601562-4.960937-2.863281v5.726563zm0 0"/><path d="m189.476562 82.65625-4.960937-2.863281v5.726562zm0 0"/><path d="m184.515625 79.792969-4.957031-2.863281v5.726562zm0 0"/><path d="m174.597656 85.519531-4.957031-2.863281v5.726562zm0 0"/><path d="m105.171875 125.601562-4.957031-2.863281v5.726563zm0 0"/><path d="m100.214844 134.191406-4.960938-2.863281v5.726563zm0 0"/><path d="m100.214844 225.808594-4.960938-2.863282v5.726563zm0 0"/><path d="m105.171875 234.398438-4.957031-2.863282v5.726563zm0 0"/><path d="m174.597656 274.480469-4.957031-2.863281v5.726562zm0 0"/><path d="m184.515625 280.207031-4.957031-2.863281v5.726562zm0 0"/><path d="m189.476562 277.34375-4.960937-2.863281v5.726562zm0 0"/><path d="m263.859375 234.398438-4.960937-2.863282v5.726563zm0 0"/><path d="m268.816406 231.535156-4.957031-2.863281v5.726563zm0 0"/><path d="m95.253906 131.328125-4.957031-2.863281v5.726562zm0 0"/><path d="m95.253906 137.054688-4.957031-2.863282v5.726563zm0 0"/><path d="m95.253906 222.945312-4.957031-2.863281v5.726563zm0 0"/><path d="m95.253906 228.671875-4.957031-2.863281v5.726562zm0 0"/><path d="m293.613281 205.765625-4.960937-2.859375v5.722656zm0 0"/><path d="m293.613281 200.042969-4.960937-2.863281v5.726562zm0 0"/><path d="m293.613281 159.957031-4.960937-2.863281v5.726562zm0 0"/><path d="m293.613281 154.234375-4.960937-2.863281v5.722656zm0 0"/><path d="m298.570312 202.90625-4.957031-2.863281v5.722656zm0 0"/><path d="m298.570312 157.09375-4.957031-2.859375v5.722656zm0 0"/><path d="m293.613281 114.148438-4.960937-2.863282v5.726563zm0 0"/><path d="m263.859375 96.972656-4.960937-2.863281v5.726563zm0 0"/><path d="m253.941406 91.246094-4.957031-2.863282v5.726563zm0 0"/><path d="m224.1875 74.066406-4.957031-2.863281v5.726563zm0 0"/><path d="m214.269531 68.339844-4.957031-2.863282v5.726563zm0 0"/><path d="m184.515625 51.164062-4.957031-2.863281v5.726563zm0 0"/><path d="m149.804688 71.203125-4.960938-2.863281v5.726562zm0 0"/><path d="m144.84375 74.066406-4.957031-2.863281v5.726563zm0 0"/><path d="m110.132812 94.109375-4.960937-2.863281v5.726562zm0 0"/><path d="m105.171875 96.972656-4.957031-2.863281v5.726563zm0 0"/><path d="m105.171875 263.027344-4.957031-2.863282v5.726563zm0 0"/><path d="m110.132812 265.890625-4.960937-2.863281v5.726562zm0 0"/><path d="m144.84375 285.933594-4.957031-2.863282v5.726563zm0 0"/><path d="m149.804688 288.796875-4.960938-2.863281v5.726562zm0 0"/><path d="m184.515625 308.835938-4.957031-2.863282v5.726563zm0 0"/><path d="m214.269531 291.660156-4.957031-2.863281v5.726563zm0 0"/><path d="m224.1875 285.933594-4.957031-2.863282v5.726563zm0 0"/><path d="m253.941406 268.753906-4.957031-2.863281v5.726563zm0 0"/><path d="m263.859375 263.027344-4.960937-2.863282v5.726563zm0 0"/><path d="m293.613281 245.851562-4.960937-2.863281v5.726563zm0 0"/><path d="m303.53125 245.851562-4.960938-2.863281v5.726563zm0 0"/><path d="m303.53125 240.125-4.960938-2.863281v5.726562zm0 0"/><path d="m303.53125 211.492188-4.960938-2.863282v5.726563zm0 0"/><path d="m303.53125 205.765625-4.960938-2.859375v5.722656zm0 0"/><path d="m303.53125 200.042969-4.960938-2.863281v5.726562zm0 0"/><path d="m303.53125 194.316406-4.960938-2.863281v5.726563zm0 0"/><path d="m303.53125 165.683594-4.960938-2.863282v5.726563zm0 0"/><path d="m303.53125 159.957031-4.960938-2.863281v5.726562zm0 0"/><path d="m303.53125 154.234375-4.960938-2.863281v5.722656zm0 0"/><path d="m303.53125 148.507812-4.960938-2.863281v5.726563zm0 0"/><path d="m303.53125 119.875-4.960938-2.863281v5.726562zm0 0"/><path d="m303.53125 114.148438-4.960938-2.863282v5.726563zm0 0"/><path d="m298.570312 111.285156-4.957031-2.863281v5.726563zm0 0"/><path d="m293.613281 108.421875-4.960937-2.859375v5.722656zm0 0"/><path d="m268.816406 94.109375-4.957031-2.863281v5.726562zm0 0"/><path d="m263.859375 91.246094-4.960937-2.863282v5.726563zm0 0"/><path d="m258.898438 88.382812-4.957032-2.863281v5.726563zm0 0"/><path d="m253.941406 85.519531-4.957031-2.863281v5.726562zm0 0"/><path d="m229.148438 71.203125-4.960938-2.863281v5.726562zm0 0"/><path d="m224.1875 68.339844-4.957031-2.863282v5.726563zm0 0"/><path d="m219.230469 65.476562-4.960938-2.863281v5.726563zm0 0"/><path d="m214.269531 62.613281-4.957031-2.863281v5.726562zm0 0"/><path d="m189.476562 48.300781-4.960937-2.863281v5.726562zm0 0"/><path d="m184.515625 45.4375-4.957031-2.863281v5.726562zm0 0"/><path d="m144.84375 68.339844-4.957031-2.863282v5.726563zm0 0"/><path d="m105.171875 91.246094-4.957031-2.863282v5.726563zm0 0"/><path d="m70.460938 117.011719-4.960938-2.863281v5.726562zm0 0"/><path d="m70.460938 151.371094-4.960938-2.863282v5.726563zm0 0"/><path d="m70.460938 162.820312-4.960938-2.863281v5.726563zm0 0"/><path d="m70.460938 197.179688-4.960938-2.863282v5.726563zm0 0"/><path d="m70.460938 208.628906-4.960938-2.863281v5.726563zm0 0"/><path d="m70.460938 242.988281-4.960938-2.863281v5.726562zm0 0"/><path d="m105.171875 268.753906-4.957031-2.863281v5.726563zm0 0"/><path d="m144.84375 291.660156-4.957031-2.863281v5.726563zm0 0"/><path d="m184.515625 314.5625-4.957031-2.863281v5.726562zm0 0"/><path d="m189.476562 311.699219-4.960937-2.863281v5.726562zm0 0"/><path d="m214.269531 297.386719-4.957031-2.863281v5.726562zm0 0"/><path d="m219.230469 294.523438-4.960938-2.863282v5.726563zm0 0"/><path d="m224.1875 291.660156-4.957031-2.863281v5.726563zm0 0"/><path d="m229.148438 288.796875-4.960938-2.863281v5.726562zm0 0"/><path d="m253.941406 274.480469-4.957031-2.863281v5.726562zm0 0"/><path d="m258.898438 271.617188-4.957032-2.863282v5.726563zm0 0"/><path d="m263.859375 268.753906-4.960937-2.863281v5.726563zm0 0"/><path d="m268.816406 265.890625-4.957031-2.863281v5.726562zm0 0"/><path d="m293.613281 251.578125-4.960937-2.863281v5.722656zm0 0"/><path d="m298.570312 248.714844-4.957031-2.863282v5.726563zm0 0"/><path d="m308.488281 242.988281-4.957031-2.863281v5.726562zm0 0"/><path d="m308.488281 208.628906-4.957031-2.863281v5.726563zm0 0"/><path d="m308.488281 197.179688-4.957031-2.863282v5.726563zm0 0"/><path d="m308.488281 162.820312-4.957031-2.863281v5.726563zm0 0"/><path d="m308.488281 151.371094-4.957031-2.863282v5.726563zm0 0"/><path d="m308.488281 117.011719-4.957031-2.863281v5.726562zm0 0"/><path d="m303.53125 108.421875-4.960938-2.859375v5.722656zm0 0"/><path d="m263.859375 85.519531-4.960937-2.863281v5.726562zm0 0"/><path d="m224.1875 62.613281-4.957031-2.863281v5.726562zm0 0"/><path d="m184.515625 39.710938-4.957031-2.863282v5.726563zm0 0"/><path d="m179.558594 42.574219-4.960938-2.863281v5.726562zm0 0"/><path d="m174.597656 45.4375-4.957031-2.863281v5.726562zm0 0"/><path d="m149.804688 59.75-4.960938-2.859375v5.722656zm0 0"/><path d="m144.84375 62.613281-4.957031-2.863281v5.726562zm0 0"/><path d="m139.886719 65.476562-4.960938-2.863281v5.726563zm0 0"/><path d="m134.925781 68.339844-4.957031-2.863282v5.726563zm0 0"/><path d="m110.132812 82.65625-4.960937-2.863281v5.726562zm0 0"/><path d="m105.171875 85.519531-4.957031-2.863281v5.726562zm0 0"/><path d="m100.214844 88.382812-4.960938-2.863281v5.726563zm0 0"/><path d="m95.253906 91.246094-4.957031-2.863282v5.726563zm0 0"/><path d="m70.460938 105.5625-4.960938-2.863281v5.722656zm0 0"/><path d="m65.5 108.421875-4.957031-2.859375v5.722656zm0 0"/><path d="m65.5 114.148438-4.957031-2.863282v5.726563zm0 0"/><path d="m65.5 119.875-4.957031-2.863281v5.726562zm0 0"/><path d="m65.5 148.507812-4.957031-2.863281v5.726563zm0 0"/><path d="m65.5 154.234375-4.957031-2.863281v5.722656zm0 0"/><path d="m65.5 159.957031-4.957031-2.863281v5.726562zm0 0"/><path d="m65.5 165.683594-4.957031-2.863282v5.726563zm0 0"/><path d="m65.5 194.316406-4.957031-2.863281v5.726563zm0 0"/><path d="m65.5 200.042969-4.957031-2.863281v5.726562zm0 0"/><path d="m65.5 205.765625-4.957031-2.859375v5.722656zm0 0"/><path d="m65.5 211.492188-4.957031-2.863282v5.726563zm0 0"/><path d="m65.5 240.125-4.957031-2.863281v5.726562zm0 0"/><path d="m65.5 245.851562-4.957031-2.863281v5.726563zm0 0"/><path d="m65.5 251.578125-4.957031-2.863281v5.722656zm0 0"/><path d="m70.460938 254.4375-4.960938-2.859375v5.722656zm0 0"/><path d="m95.253906 268.753906-4.957031-2.863281v5.726563zm0 0"/><path d="m100.214844 271.617188-4.960938-2.863282v5.726563zm0 0"/><path d="m105.171875 274.480469-4.957031-2.863281v5.726562zm0 0"/><path d="m110.132812 277.34375-4.960937-2.863281v5.726562zm0 0"/><path d="m134.925781 291.660156-4.957031-2.863281v5.726563zm0 0"/><path d="m139.886719 294.523438-4.960938-2.863282v5.726563zm0 0"/><path d="m144.84375 297.386719-4.957031-2.863281v5.726562zm0 0"/><path d="m149.804688 300.25-4.960938-2.863281v5.722656zm0 0"/><path d="m174.597656 314.5625-4.957031-2.863281v5.726562zm0 0"/><path d="m179.558594 317.425781-4.960938-2.863281v5.726562zm0 0"/><path d="m184.515625 320.289062-4.957031-2.863281v5.726563zm0 0"/><path d="m224.1875 297.386719-4.957031-2.863281v5.726562zm0 0"/><path d="m263.859375 274.480469-4.960937-2.863281v5.726562zm0 0"/><path d="m303.53125 251.578125-4.960938-2.863281v5.722656zm0 0"/><path d="m308.488281 105.5625-4.957031-2.863281v5.722656zm0 0"/><path d="m303.53125 102.699219-4.960938-2.863281v5.726562zm0 0"/><path d="m268.816406 82.65625-4.957031-2.863281v5.726562zm0 0"/><path d="m263.859375 79.792969-4.960937-2.863281v5.726562zm0 0"/><path d="m229.148438 59.75-4.960938-2.859375v5.722656zm0 0"/><path d="m224.1875 56.890625-4.957031-2.863281v5.722656zm0 0"/><path d="m189.476562 36.847656-4.960937-2.863281v5.726563zm0 0"/><path d="m184.515625 33.984375-4.957031-2.863281v5.726562zm0 0"/><path d="m174.597656 39.710938-4.957031-2.863282v5.726563zm0 0"/><path d="m144.84375 56.890625-4.957031-2.863281v5.722656zm0 0"/><path d="m134.925781 62.613281-4.957031-2.863281v5.726562zm0 0"/><path d="m105.171875 79.792969-4.957031-2.863281v5.726562zm0 0"/><path d="m95.253906 85.519531-4.957031-2.863281v5.726562zm0 0"/><path d="m65.5 102.699219-4.957031-2.863281v5.726562zm0 0"/><path d="m60.542969 111.285156-4.960938-2.863281v5.726563zm0 0"/><path d="m60.542969 157.09375-4.960938-2.859375v5.722656zm0 0"/><path d="m60.542969 202.90625-4.960938-2.863281v5.722656zm0 0"/><path d="m60.542969 248.714844-4.960938-2.863282v5.726563zm0 0"/><path d="m65.5 257.300781-4.957031-2.863281v5.726562zm0 0"/><path d="m95.253906 274.480469-4.957031-2.863281v5.726562zm0 0"/><path d="m105.171875 280.207031-4.957031-2.863281v5.726562zm0 0"/><path d="m134.925781 297.386719-4.957031-2.863281v5.726562zm0 0"/><path d="m144.84375 303.109375-4.957031-2.859375v5.722656zm0 0"/><path d="m174.597656 320.289062-4.957031-2.863281v5.726563zm0 0"/><path d="m184.515625 326.015625-4.957031-2.863281v5.726562zm0 0"/><path d="m189.476562 323.152344-4.960937-2.863282v5.726563zm0 0"/><path d="m224.1875 303.109375-4.957031-2.859375v5.722656zm0 0"/><path d="m229.148438 300.25-4.960938-2.863281v5.722656zm0 0"/><path d="m263.859375 280.207031-4.960937-2.863281v5.726562zm0 0"/><path d="m268.816406 277.34375-4.957031-2.863281v5.726562zm0 0"/><path d="m303.53125 257.300781-4.960938-2.863281v5.726562zm0 0"/><path d="m308.488281 254.4375-4.957031-2.859375v5.722656zm0 0"/><path d="m55.582031 108.421875-4.957031-2.859375v5.722656zm0 0"/><path d="m55.582031 114.148438-4.957031-2.863282v5.726563zm0 0"/><path d="m55.582031 154.234375-4.957031-2.863281v5.722656zm0 0"/><path d="m55.582031 159.957031-4.957031-2.863281v5.726562zm0 0"/><path d="m55.582031 200.042969-4.957031-2.863281v5.726562zm0 0"/><path d="m55.582031 205.765625-4.957031-2.859375v5.722656zm0 0"/><path d="m55.582031 245.851562-4.957031-2.863281v5.726563zm0 0"/><path d="m55.582031 251.578125-4.957031-2.863281v5.722656zm0 0"/></g></svg>