<svg height="360pt" viewBox="0 0 360 360" width="360pt" xmlns="http://www.w3.org/2000/svg"><path d="m0 0h360v360h-360z" fill="#fff"/><g fill="#800080"><path d="m176.851562 174.546875 4.722657-2.726563v5.453126zm0 0"/><path d="m172.128906 182.726562 4.722656-2.726562v5.453125zm0 0"/><path d="m176.851562 169.09375 4.722657-2.726562v5.453124zm0 0"/><path d="m172.128906 171.820312 4.722656-2.726562v5.453125zm0 0"/><path d="m167.40625 180 4.722656-2.726562v5.453124zm0 0"/><path d="m181.574219 188.179688 4.722656-2.726563v5.453125zm0 0"/><path d="m191.019531 171.820312 4.722657-2.726562v5.453125zm0 0"/><path d="m186.296875 169.09375 4.722656-2.726562v5.453124zm0 0"/><path d="m181.574219 166.367188 4.722656-2.726563v5.453125zm0 0"/><path d="m172.128906 166.367188 4.722656-2.726563v5.453125zm0 0"/><path d="m162.683594 188.179688 4.722656-2.726563v5.453125zm0 0"/><path d="m176.851562 196.359375 4.722657-2.726563v5.453126zm0 0"/><path d="m162.683594 166.367188 4.722656-2.726563v5.453125zm0 0"/><path d="m157.960938 185.453125 4.722656-2.726563v5.453126zm0 0"/><path d="m157.960938 190.90625 4.722656-2.726562v5.453124zm0 0"/><path d="m181.574219 199.085938 4.722656-2.726563v5.453125zm0 0"/><path d="m200.464844 188.179688 4.722656-2.726563v5.453125zm0 0"/><path d="m200.464844 177.273438 4.722656-2.726563v5.453125zm0 0"/><path d="m167.40625 158.1875 4.722656-2.730469v5.457031zm0 0"/><path d="m153.238281 177.273438 4.722657-2.726563v5.453125zm0 0"/><path d="m153.238281 188.179688 4.722657-2.726563v5.453125zm0 0"/><path d="m153.238281 193.632812 4.722657-2.726562v5.453125zm0 0"/><path d="m167.40625 201.8125 4.722656-2.726562v5.457031zm0 0"/><path d="m191.019531 199.085938 4.722657-2.726563v5.453125zm0 0"/><path d="m186.296875 152.730469 4.722656-2.726563v5.453125zm0 0"/><path d="m172.128906 150.003906 4.722656-2.726562v5.453125zm0 0"/><path d="m167.40625 152.730469 4.722656-2.726563v5.453125zm0 0"/><path d="m157.960938 158.1875 4.722656-2.730469v5.457031zm0 0"/><path d="m153.238281 160.914062 4.722657-2.726562v5.453125zm0 0"/><path d="m148.511719 163.640625 4.726562-2.726563v5.453126zm0 0"/><path d="m148.511719 169.09375 4.726562-2.726562v5.453124zm0 0"/><path d="m148.511719 185.453125 4.726562-2.726563v5.453126zm0 0"/><path d="m148.511719 190.90625 4.726562-2.726562v5.453124zm0 0"/><path d="m157.960938 201.8125 4.722656-2.726562v5.457031zm0 0"/><path d="m172.128906 209.996094 4.722656-2.726563v5.453125zm0 0"/><path d="m176.851562 212.722656 4.722657-2.726562v5.453125zm0 0"/><path d="m181.574219 209.996094 4.722656-2.726563v5.453125zm0 0"/><path d="m209.910156 182.726562 4.726563-2.726562v5.453125zm0 0"/><path d="m209.910156 166.367188 4.726563-2.726563v5.453125zm0 0"/><path d="m205.1875 158.1875 4.722656-2.730469v5.457031zm0 0"/><path d="m200.464844 155.457031 4.722656-2.726562v5.457031zm0 0"/><path d="m195.742188 152.730469 4.722656-2.726563v5.453125zm0 0"/><path d="m191.019531 150.003906 4.722657-2.726562v5.453125zm0 0"/><path d="m172.128906 144.550781 4.722656-2.726562v5.453125zm0 0"/><path d="m143.789062 160.914062 4.722657-2.726562v5.453125zm0 0"/><path d="m143.789062 188.179688 4.722657-2.726563v5.453125zm0 0"/><path d="m143.789062 199.085938 4.722657-2.726563v5.453125zm0 0"/><path d="m148.511719 201.8125 4.726562-2.726562v5.457031zm0 0"/><path d="m167.40625 212.722656 4.722656-2.726562v5.453125zm0 0"/><path d="m191.019531 209.996094 4.722657-2.726563v5.453125zm0 0"/><path d="m200.464844 204.542969 4.722656-2.730469v5.457031zm0 0"/><path d="m214.636719 196.359375 4.722656-2.726563v5.453126zm0 0"/><path d="m214.636719 185.453125 4.722656-2.726563v5.453126zm0 0"/><path d="m214.636719 180 4.722656-2.726562v5.453124zm0 0"/><path d="m214.636719 169.09375 4.722656-2.726562v5.453124zm0 0"/><path d="m214.636719 163.640625 4.722656-2.726563v5.453126zm0 0"/><path d="m200.464844 150.003906 4.722656-2.726562v5.453125zm0 0"/><path d="m195.742188 147.277344 4.722656-2.726563v5.453125zm0 0"/><path d="m191.019531 144.550781 4.722657-2.726562v5.453125zm0 0"/><path d="m181.574219 139.097656 4.722656-2.726562v5.453125zm0 0"/><path d="m162.683594 144.550781 4.722656-2.726562v5.453125zm0 0"/><path d="m148.511719 152.730469 4.726562-2.726563v5.453125zm0 0"/><path d="m139.066406 158.1875 4.722656-2.730469v5.457031zm0 0"/><path d="m139.066406 163.640625 4.722656-2.726563v5.453126zm0 0"/><path d="m139.066406 185.453125 4.722656-2.726563v5.453126zm0 0"/><path d="m143.789062 204.542969 4.722657-2.730469v5.457031zm0 0"/><path d="m162.683594 215.449219 4.722656-2.726563v5.453125zm0 0"/><path d="m172.128906 220.902344 4.722656-2.726563v5.453125zm0 0"/><path d="m191.019531 215.449219 4.722657-2.726563v5.453125zm0 0"/><path d="m195.742188 212.722656 4.722656-2.726562v5.453125zm0 0"/><path d="m219.359375 204.542969 4.722656-2.730469v5.457031zm0 0"/><path d="m219.359375 177.273438 4.722656-2.726563v5.453125zm0 0"/><path d="m200.464844 144.550781 4.722656-2.726562v5.453125zm0 0"/><path d="m176.851562 130.917969 4.722657-2.726563v5.453125zm0 0"/><path d="m162.683594 139.097656 4.722656-2.726562v5.453125zm0 0"/><path d="m139.066406 152.730469 4.722656-2.726563v5.453125zm0 0"/><path d="m134.34375 155.457031 4.722656-2.726562v5.457031zm0 0"/><path d="m134.34375 166.367188 4.722656-2.726563v5.453125zm0 0"/><path d="m134.34375 171.820312 4.722656-2.726562v5.453125zm0 0"/><path d="m134.34375 177.273438 4.722656-2.726563v5.453125zm0 0"/><path d="m134.34375 182.726562 4.722656-2.726562v5.453125zm0 0"/><path d="m134.34375 188.179688 4.722656-2.726563v5.453125zm0 0"/><path d="m143.789062 209.996094 4.722657-2.726563v5.453125zm0 0"/><path d="m148.511719 212.722656 4.726562-2.726562v5.453125zm0 0"/><path d="m153.238281 215.449219 4.722657-2.726563v5.453125zm0 0"/><path d="m176.851562 229.082031 4.722657-2.726562v5.453125zm0 0"/><path d="m186.296875 223.628906 4.722656-2.726562v5.453125zm0 0"/><path d="m200.464844 215.449219 4.722656-2.726563v5.453125zm0 0"/><path d="m209.910156 209.996094 4.726563-2.726563v5.453125zm0 0"/><path d="m214.636719 207.269531 4.722656-2.726562v5.453125zm0 0"/><path d="m224.082031 207.269531 4.722657-2.726562v5.453125zm0 0"/><path d="m224.082031 190.90625 4.722657-2.726562v5.453124zm0 0"/><path d="m224.082031 180 4.722657-2.726562v5.453124zm0 0"/><path d="m224.082031 169.09375 4.722657-2.726562v5.453124zm0 0"/><path d="m209.910156 144.550781 4.726563-2.726562v5.453125zm0 0"/><path d="m205.1875 141.824219 4.722656-2.726563v5.453125zm0 0"/><path d="m200.464844 139.097656 4.722656-2.726562v5.453125zm0 0"/><path d="m172.128906 128.191406 4.722656-2.726562v5.453125zm0 0"/><path d="m162.683594 133.644531 4.722656-2.726562v5.453125zm0 0"/><path d="m157.960938 136.371094 4.722656-2.726563v5.453125zm0 0"/><path d="m153.238281 139.097656 4.722657-2.726562v5.453125zm0 0"/><path d="m143.789062 144.550781 4.722657-2.726562v5.453125zm0 0"/><path d="m129.621094 163.640625 4.722656-2.726563v5.453126zm0 0"/><path d="m129.621094 196.359375 4.722656-2.726563v5.453126zm0 0"/><path d="m134.34375 209.996094 4.722656-2.726563v5.453125zm0 0"/><path d="m200.464844 220.902344 4.722656-2.726563v5.453125zm0 0"/><path d="m228.804688 209.996094 4.722656-2.726563v5.453125zm0 0"/><path d="m228.804688 188.179688 4.722656-2.726563v5.453125zm0 0"/><path d="m228.804688 182.726562 4.722656-2.726562v5.453125zm0 0"/><path d="m228.804688 171.820312 4.722656-2.726562v5.453125zm0 0"/><path d="m228.804688 155.457031 4.722656-2.726562v5.457031zm0 0"/><path d="m209.910156 139.097656 4.726563-2.726562v5.453125zm0 0"/><path d="m167.40625 125.464844 4.722656-2.726563v5.453125zm0 0"/><path d="m139.066406 141.824219 4.722656-2.726563v5.453125zm0 0"/><path d="m129.621094 147.277344 4.722656-2.726563v5.453125zm0 0"/><path d="m124.898438 160.914062 4.722656-2.726562v5.453125zm0 0"/><path d="m129.621094 212.722656 4.722656-2.726562v5.453125zm0 0"/><path d="m134.34375 215.449219 4.722656-2.726563v5.453125zm0 0"/><path d="m148.511719 223.628906 4.726562-2.726562v5.453125zm0 0"/><path d="m153.238281 226.355469 4.722657-2.726563v5.453125zm0 0"/><path d="m181.574219 237.261719 4.722656-2.726563v5.453125zm0 0"/><path d="m195.742188 229.082031 4.722656-2.726562v5.453125zm0 0"/><path d="m224.082031 212.722656 4.722657-2.726562v5.453125zm0 0"/><path d="m233.527344 212.722656 4.722656-2.726562v5.453125zm0 0"/><path d="m233.527344 196.359375 4.722656-2.726563v5.453126zm0 0"/><path d="m233.527344 152.730469 4.722656-2.726563v5.453125zm0 0"/><path d="m219.359375 139.097656 4.722656-2.726562v5.453125zm0 0"/><path d="m191.019531 122.738281 4.722657-2.726562v5.453125zm0 0"/><path d="m186.296875 120.011719 4.722656-2.726563v5.453125zm0 0"/><path d="m162.683594 122.738281 4.722656-2.726562v5.453125zm0 0"/><path d="m153.238281 128.191406 4.722657-2.726562v5.453125zm0 0"/><path d="m143.789062 133.644531 4.722657-2.726562v5.453125zm0 0"/><path d="m129.621094 141.824219 4.722656-2.726563v5.453125zm0 0"/><path d="m120.175781 152.730469 4.722657-2.726563v5.453125zm0 0"/><path d="m120.175781 158.1875 4.722657-2.730469v5.457031zm0 0"/><path d="m120.175781 163.640625 4.722657-2.726563v5.453126zm0 0"/><path d="m120.175781 201.8125 4.722657-2.726562v5.457031zm0 0"/><path d="m120.175781 207.269531 4.722657-2.726562v5.453125zm0 0"/><path d="m139.066406 223.628906 4.722656-2.726562v5.453125zm0 0"/><path d="m143.789062 226.355469 4.722657-2.726563v5.453125zm0 0"/><path d="m148.511719 229.082031 4.726562-2.726562v5.453125zm0 0"/><path d="m162.683594 237.261719 4.722656-2.726563v5.453125zm0 0"/><path d="m167.40625 239.988281 4.722656-2.726562v5.453125zm0 0"/><path d="m172.128906 242.714844 4.722656-2.726563v5.453125zm0 0"/><path d="m209.910156 226.355469 4.726563-2.726563v5.453125zm0 0"/><path d="m214.636719 223.628906 4.722656-2.726562v5.453125zm0 0"/><path d="m219.359375 220.902344 4.722656-2.726563v5.453125zm0 0"/><path d="m224.082031 218.175781 4.722657-2.726562v5.453125zm0 0"/><path d="m228.804688 215.449219 4.722656-2.726563v5.453125zm0 0"/><path d="m238.25 204.542969 4.722656-2.730469v5.457031zm0 0"/><path d="m238.25 177.273438 4.722656-2.726563v5.453125zm0 0"/><path d="m238.25 166.367188 4.722656-2.726563v5.453125zm0 0"/><path d="m219.359375 133.644531 4.722656-2.726562v5.453125zm0 0"/><path d="m205.1875 125.464844 4.722656-2.726563v5.453125zm0 0"/><path d="m195.742188 120.011719 4.722656-2.726563v5.453125zm0 0"/><path d="m186.296875 114.558594 4.722656-2.730469v5.457031zm0 0"/><path d="m167.40625 114.558594 4.722656-2.730469v5.457031zm0 0"/><path d="m129.621094 136.371094 4.722656-2.726563v5.453125zm0 0"/><path d="m115.453125 144.550781 4.722656-2.726562v5.453125zm0 0"/><path d="m115.453125 177.273438 4.722656-2.726563v5.453125zm0 0"/><path d="m115.453125 182.726562 4.722656-2.726562v5.453125zm0 0"/><path d="m115.453125 188.179688 4.722656-2.726563v5.453125zm0 0"/><path d="m115.453125 199.085938 4.722656-2.726563v5.453125zm0 0"/><path d="m115.453125 215.449219 4.722656-2.726563v5.453125zm0 0"/><path d="m143.789062 231.808594 4.722657-2.726563v5.453125zm0 0"/><path d="m148.511719 234.535156 4.726562-2.726562v5.453125zm0 0"/><path d="m157.960938 239.988281 4.722656-2.726562v5.453125zm0 0"/><path d="m162.683594 242.714844 4.722656-2.726563v5.453125zm0 0"/><path d="m172.128906 248.171875 4.722656-2.730469v5.457032zm0 0"/><path d="m176.851562 250.898438 4.722657-2.726563v5.453125zm0 0"/><path d="m181.574219 248.171875 4.722656-2.730469v5.457032zm0 0"/><path d="m191.019531 242.714844 4.722657-2.726563v5.453125zm0 0"/><path d="m195.742188 239.988281 4.722656-2.726562v5.453125zm0 0"/><path d="m209.910156 231.808594 4.726563-2.726563v5.453125zm0 0"/><path d="m219.359375 226.355469 4.722656-2.726563v5.453125zm0 0"/><path d="m224.082031 223.628906 4.722657-2.726562v5.453125zm0 0"/><path d="m228.804688 220.902344 4.722656-2.726563v5.453125zm0 0"/><path d="m242.972656 201.8125 4.722656-2.726562v5.457031zm0 0"/><path d="m242.972656 180 4.722656-2.726562v5.453124zm0 0"/><path d="m242.972656 163.640625 4.722656-2.726563v5.453126zm0 0"/><path d="m242.972656 152.730469 4.722656-2.726563v5.453125zm0 0"/><path d="m214.636719 125.464844 4.722656-2.726563v5.453125zm0 0"/><path d="m209.910156 122.738281 4.726563-2.726562v5.453125zm0 0"/><path d="m195.742188 114.558594 4.722656-2.730469v5.457031zm0 0"/><path d="m181.574219 106.375 4.722656-2.726562v5.453124zm0 0"/><path d="m176.851562 103.648438 4.722657-2.726563v5.453125zm0 0"/><path d="m172.128906 106.375 4.722656-2.726562v5.453124zm0 0"/><path d="m162.683594 111.828125 4.722656-2.726563v5.457032zm0 0"/><path d="m157.960938 114.558594 4.722656-2.730469v5.457031zm0 0"/><path d="m153.238281 117.285156 4.722657-2.726562v5.453125zm0 0"/><path d="m129.621094 130.917969 4.722656-2.726563v5.453125zm0 0"/><path d="m110.730469 141.824219 4.722656-2.726563v5.453125zm0 0"/><path d="m110.730469 152.730469 4.722656-2.726563v5.453125zm0 0"/><path d="m110.730469 158.1875 4.722656-2.730469v5.457031zm0 0"/><path d="m110.730469 174.546875 4.722656-2.726563v5.453126zm0 0"/><path d="m110.730469 180 4.722656-2.726562v5.453124zm0 0"/><path d="m110.730469 185.453125 4.722656-2.726563v5.453126zm0 0"/><path d="m110.730469 196.359375 4.722656-2.726563v5.453126zm0 0"/><path d="m110.730469 218.175781 4.722656-2.726562v5.453125zm0 0"/><path d="m115.453125 220.902344 4.722656-2.726563v5.453125zm0 0"/><path d="m120.175781 223.628906 4.722657-2.726562v5.453125zm0 0"/><path d="m129.621094 229.082031 4.722656-2.726562v5.453125zm0 0"/><path d="m134.34375 231.808594 4.722656-2.726563v5.453125zm0 0"/><path d="m139.066406 234.535156 4.722656-2.726562v5.453125zm0 0"/><path d="m153.238281 242.714844 4.722657-2.726563v5.453125zm0 0"/><path d="m181.574219 253.625 4.722656-2.726562v5.453124zm0 0"/><path d="m191.019531 248.171875 4.722657-2.730469v5.457032zm0 0"/><path d="m200.464844 242.714844 4.722656-2.726563v5.453125zm0 0"/><path d="m214.636719 234.535156 4.722656-2.726562v5.453125zm0 0"/><path d="m228.804688 226.355469 4.722656-2.726563v5.453125zm0 0"/><path d="m238.25 220.902344 4.722656-2.726563v5.453125zm0 0"/><path d="m247.695312 220.902344 4.722657-2.726563v5.453125zm0 0"/><path d="m247.695312 209.996094 4.722657-2.726563v5.453125zm0 0"/><path d="m247.695312 204.542969 4.722657-2.730469v5.457031zm0 0"/><path d="m247.695312 199.085938 4.722657-2.726563v5.453125zm0 0"/><path d="m247.695312 155.457031 4.722657-2.726562v5.457031zm0 0"/><path d="m238.25 133.644531 4.722656-2.726562v5.453125zm0 0"/><path d="m214.636719 120.011719 4.722656-2.726563v5.453125zm0 0"/><path d="m205.1875 114.558594 4.722656-2.730469v5.457031zm0 0"/><path d="m200.464844 111.828125 4.722656-2.726563v5.457032zm0 0"/><path d="m162.683594 106.375 4.722656-2.726562v5.453124zm0 0"/><path d="m157.960938 109.101562 4.722656-2.726562v5.453125zm0 0"/><path d="m124.898438 128.191406 4.722656-2.726562v5.453125zm0 0"/><path d="m106.007812 160.914062 4.722657-2.726562v5.453125zm0 0"/><path d="m106.007812 177.273438 4.722657-2.726563v5.453125zm0 0"/><path d="m106.007812 199.085938 4.722657-2.726563v5.453125zm0 0"/><path d="m106.007812 209.996094 4.722657-2.726563v5.453125zm0 0"/><path d="m106.007812 215.449219 4.722657-2.726563v5.453125zm0 0"/><path d="m106.007812 220.902344 4.722657-2.726563v5.453125zm0 0"/><path d="m120.175781 229.082031 4.722657-2.726562v5.453125zm0 0"/><path d="m124.898438 231.808594 4.722656-2.726563v5.453125zm0 0"/><path d="m129.621094 234.535156 4.722656-2.726562v5.453125zm0 0"/><path d="m134.34375 237.261719 4.722656-2.726563v5.453125zm0 0"/><path d="m148.511719 245.441406 4.726562-2.726562v5.457031zm0 0"/><path d="m162.683594 253.625 4.722656-2.726562v5.453124zm0 0"/><path d="m167.40625 256.351562 4.722656-2.726562v5.453125zm0 0"/><path d="m214.636719 239.988281 4.722656-2.726562v5.453125zm0 0"/><path d="m224.082031 234.535156 4.722657-2.726562v5.453125zm0 0"/><path d="m228.804688 231.808594 4.722656-2.726563v5.453125zm0 0"/><path d="m242.972656 223.628906 4.722656-2.726562v5.453125zm0 0"/><path d="m252.417969 218.175781 4.722656-2.726562v5.453125zm0 0"/><path d="m252.417969 207.269531 4.722656-2.726562v5.453125zm0 0"/><path d="m252.417969 201.8125 4.722656-2.726562v5.457031zm0 0"/><path d="m252.417969 196.359375 4.722656-2.726563v5.453126zm0 0"/><path d="m252.417969 180 4.722656-2.726562v5.453124zm0 0"/><path d="m252.417969 141.824219 4.722656-2.726563v5.453125zm0 0"/><path d="m247.695312 133.644531 4.722657-2.726562v5.453125zm0 0"/><path d="m242.972656 130.917969 4.722656-2.726563v5.453125zm0 0"/><path d="m224.082031 120.011719 4.722657-2.726563v5.453125zm0 0"/><path d="m214.636719 114.558594 4.722656-2.730469v5.457031zm0 0"/><path d="m205.1875 109.101562 4.722656-2.726562v5.453125zm0 0"/><path d="m181.574219 95.46875 4.722656-2.726562v5.453124zm0 0"/><path d="m176.851562 92.742188 4.722657-2.726563v5.453125zm0 0"/><path d="m143.789062 111.828125 4.722657-2.726563v5.457032zm0 0"/><path d="m139.066406 114.558594 4.722656-2.730469v5.457031zm0 0"/><path d="m134.34375 117.285156 4.722656-2.726562v5.453125zm0 0"/><path d="m129.621094 120.011719 4.722656-2.726563v5.453125zm0 0"/><path d="m110.730469 130.917969 4.722656-2.726563v5.453125zm0 0"/><path d="m101.285156 141.824219 4.722656-2.726563v5.453125zm0 0"/><path d="m101.285156 147.277344 4.722656-2.726563v5.453125zm0 0"/><path d="m101.285156 152.730469 4.722656-2.726563v5.453125zm0 0"/><path d="m101.285156 158.1875 4.722656-2.730469v5.457031zm0 0"/><path d="m101.285156 163.640625 4.722656-2.726563v5.453126zm0 0"/><path d="m101.285156 174.546875 4.722656-2.726563v5.453126zm0 0"/><path d="m101.285156 185.453125 4.722656-2.726563v5.453126zm0 0"/><path d="m101.285156 201.8125 4.722656-2.726562v5.457031zm0 0"/><path d="m101.285156 212.722656 4.722656-2.726562v5.453125zm0 0"/><path d="m106.007812 226.355469 4.722657-2.726563v5.453125zm0 0"/><path d="m120.175781 234.535156 4.722657-2.726562v5.453125zm0 0"/><path d="m129.621094 239.988281 4.722656-2.726562v5.453125zm0 0"/><path d="m153.238281 253.625 4.722657-2.726562v5.453124zm0 0"/><path d="m157.960938 256.351562 4.722656-2.726562v5.453125zm0 0"/><path d="m172.128906 264.53125 4.722656-2.726562v5.453124zm0 0"/><path d="m181.574219 264.53125 4.722656-2.726562v5.453124zm0 0"/><path d="m214.636719 245.441406 4.722656-2.726562v5.457031zm0 0"/><path d="m219.359375 242.714844 4.722656-2.726563v5.453125zm0 0"/><path d="m224.082031 239.988281 4.722657-2.726562v5.453125zm0 0"/><path d="m238.25 231.808594 4.722656-2.726563v5.453125zm0 0"/><path d="m257.140625 209.996094 4.722656-2.726563v5.453125zm0 0"/><path d="m257.140625 155.457031 4.722656-2.726562v5.457031zm0 0"/><path d="m257.140625 150.003906 4.722656-2.726562v5.453125zm0 0"/><path d="m247.695312 128.191406 4.722657-2.726562v5.453125zm0 0"/><path d="m228.804688 117.285156 4.722656-2.726562v5.453125zm0 0"/><path d="m219.359375 111.828125 4.722656-2.726563v5.457032zm0 0"/><path d="m214.636719 109.101562 4.722656-2.726562v5.453125zm0 0"/><path d="m200.464844 100.921875 4.722656-2.726563v5.453126zm0 0"/><path d="m186.296875 92.742188 4.722656-2.726563v5.453125zm0 0"/><path d="m181.574219 90.015625 4.722656-2.726563v5.453126zm0 0"/><path d="m167.40625 92.742188 4.722656-2.726563v5.453125zm0 0"/><path d="m153.238281 100.921875 4.722657-2.726563v5.453126zm0 0"/><path d="m148.511719 103.648438 4.726562-2.726563v5.453125zm0 0"/><path d="m139.066406 109.101562 4.722656-2.726562v5.453125zm0 0"/><path d="m129.621094 114.558594 4.722656-2.730469v5.457031zm0 0"/><path d="m120.175781 120.011719 4.722657-2.726563v5.453125zm0 0"/><path d="m96.5625 150.003906 4.722656-2.726562v5.453125zm0 0"/><path d="m96.5625 171.820312 4.722656-2.726562v5.453125zm0 0"/><path d="m96.5625 182.726562 4.722656-2.726562v5.453125zm0 0"/><path d="m96.5625 188.179688 4.722656-2.726563v5.453125zm0 0"/><path d="m96.5625 204.542969 4.722656-2.730469v5.457031zm0 0"/><path d="m96.5625 209.996094 4.722656-2.726563v5.453125zm0 0"/><path d="m101.285156 229.082031 4.722656-2.726562v5.453125zm0 0"/><path d="m110.730469 234.535156 4.722656-2.726562v5.453125zm0 0"/><path d="m115.453125 237.261719 4.722656-2.726563v5.453125zm0 0"/><path d="m167.40625 267.257812 4.722656-2.726562v5.453125zm0 0"/><path d="m172.128906 269.984375 4.722656-2.726563v5.453126zm0 0"/><path d="m176.851562 272.710938 4.722657-2.726563v5.453125zm0 0"/><path d="m219.359375 248.171875 4.722656-2.730469v5.457032zm0 0"/><path d="m238.25 237.261719 4.722656-2.726563v5.453125zm0 0"/><path d="m242.972656 234.535156 4.722656-2.726562v5.453125zm0 0"/><path d="m247.695312 231.808594 4.722657-2.726563v5.453125zm0 0"/><path d="m261.863281 212.722656 4.722657-2.726562v5.453125zm0 0"/><path d="m261.863281 201.8125 4.722657-2.726562v5.457031zm0 0"/><path d="m261.863281 174.546875 4.722657-2.726563v5.453126zm0 0"/><path d="m261.863281 169.09375 4.722657-2.726562v5.453124zm0 0"/><path d="m261.863281 141.824219 4.722657-2.726563v5.453125zm0 0"/><path d="m247.695312 122.738281 4.722657-2.726562v5.453125zm0 0"/><path d="m228.804688 111.828125 4.722656-2.726563v5.457032zm0 0"/><path d="m205.1875 98.195312 4.722656-2.726562v5.453125zm0 0"/><path d="m195.742188 92.742188 4.722656-2.726563v5.453125zm0 0"/><path d="m186.296875 87.289062 4.722656-2.726562v5.453125zm0 0"/><path d="m181.574219 84.5625 4.722656-2.726562v5.453124zm0 0"/><path d="m172.128906 84.5625 4.722656-2.726562v5.453124zm0 0"/><path d="m167.40625 87.289062 4.722656-2.726562v5.453125zm0 0"/><path d="m157.960938 92.742188 4.722656-2.726563v5.453125zm0 0"/><path d="m148.511719 98.195312 4.726562-2.726562v5.453125zm0 0"/><path d="m129.621094 109.101562 4.722656-2.726562v5.453125zm0 0"/><path d="m115.453125 117.285156 4.722656-2.726562v5.453125zm0 0"/><path d="m106.007812 122.738281 4.722657-2.726562v5.453125zm0 0"/><path d="m101.285156 125.464844 4.722656-2.726563v5.453125zm0 0"/><path d="m91.839844 130.917969 4.722656-2.726563v5.453125zm0 0"/><path d="m91.839844 152.730469 4.722656-2.726563v5.453125zm0 0"/><path d="m91.839844 163.640625 4.722656-2.726563v5.453126zm0 0"/><path d="m91.839844 196.359375 4.722656-2.726563v5.453126zm0 0"/><path d="m91.839844 201.8125 4.722656-2.726562v5.457031zm0 0"/><path d="m91.839844 207.269531 4.722656-2.726562v5.453125zm0 0"/><path d="m110.730469 239.988281 4.722656-2.726562v5.453125zm0 0"/><path d="m120.175781 245.441406 4.722657-2.726562v5.457031zm0 0"/><path d="m124.898438 248.171875 4.722656-2.730469v5.457032zm0 0"/><path d="m129.621094 250.898438 4.722656-2.726563v5.453125zm0 0"/><path d="m139.066406 256.351562 4.722656-2.726562v5.453125zm0 0"/><path d="m148.511719 261.804688 4.726562-2.726563v5.453125zm0 0"/><path d="m153.238281 264.53125 4.722657-2.726562v5.453124zm0 0"/><path d="m157.960938 267.257812 4.722656-2.726562v5.453125zm0 0"/><path d="m162.683594 269.984375 4.722656-2.726563v5.453126zm0 0"/><path d="m172.128906 275.4375 4.722656-2.726562v5.453124zm0 0"/><path d="m181.574219 275.4375 4.722656-2.726562v5.453124zm0 0"/><path d="m195.742188 267.257812 4.722656-2.726562v5.453125zm0 0"/><path d="m209.910156 259.078125 4.726563-2.726563v5.453126zm0 0"/><path d="m247.695312 237.261719 4.722657-2.726563v5.453125zm0 0"/><path d="m257.140625 231.808594 4.722656-2.726563v5.453125zm0 0"/><path d="m266.585938 231.808594 4.722656-2.726563v5.453125zm0 0"/><path d="m266.585938 215.449219 4.722656-2.726563v5.453125zm0 0"/><path d="m266.585938 209.996094 4.722656-2.726563v5.453125zm0 0"/><path d="m266.585938 204.542969 4.722656-2.730469v5.457031zm0 0"/><path d="m266.585938 199.085938 4.722656-2.726563v5.453125zm0 0"/><path d="m266.585938 193.632812 4.722656-2.726562v5.453125zm0 0"/><path d="m266.585938 166.367188 4.722656-2.726563v5.453125zm0 0"/><path d="m266.585938 155.457031 4.722656-2.726562v5.457031zm0 0"/><path d="m266.585938 150.003906 4.722656-2.726562v5.453125zm0 0"/><path d="m266.585938 139.097656 4.722656-2.726562v5.453125zm0 0"/><path d="m242.972656 114.558594 4.722656-2.730469v5.457031zm0 0"/><path d="m238.25 111.828125 4.722656-2.726563v5.457032zm0 0"/><path d="m200.464844 90.015625 4.722656-2.726563v5.453126zm0 0"/><path d="m181.574219 79.109375 4.722656-2.726563v5.453126zm0 0"/><path d="m176.851562 76.382812 4.722657-2.726562v5.453125zm0 0"/><path d="m129.621094 103.648438 4.722656-2.726563v5.453125zm0 0"/><path d="m120.175781 109.101562 4.722657-2.726562v5.453125zm0 0"/><path d="m115.453125 111.828125 4.722656-2.726563v5.457032zm0 0"/><path d="m96.5625 122.738281 4.722656-2.726562v5.453125zm0 0"/><path d="m91.839844 125.464844 4.722656-2.726563v5.453125zm0 0"/><path d="m87.117188 128.191406 4.722656-2.726562v5.453125zm0 0"/><path d="m87.117188 139.097656 4.722656-2.726562v5.453125zm0 0"/><path d="m87.117188 150.003906 4.722656-2.726562v5.453125zm0 0"/><path d="m87.117188 155.457031 4.722656-2.726562v5.457031zm0 0"/><path d="m87.117188 160.914062 4.722656-2.726562v5.453125zm0 0"/><path d="m87.117188 166.367188 4.722656-2.726563v5.453125zm0 0"/><path d="m87.117188 171.820312 4.722656-2.726562v5.453125zm0 0"/><path d="m87.117188 199.085938 4.722656-2.726563v5.453125zm0 0"/><path d="m87.117188 204.542969 4.722656-2.730469v5.457031zm0 0"/><path d="m87.117188 209.996094 4.722656-2.726563v5.453125zm0 0"/><path d="m87.117188 215.449219 4.722656-2.726563v5.453125zm0 0"/><path d="m96.5625 237.261719 4.722656-2.726563v5.453125zm0 0"/><path d="m115.453125 248.171875 4.722656-2.730469v5.457032zm0 0"/><path d="m120.175781 250.898438 4.722657-2.726563v5.453125zm0 0"/><path d="m129.621094 256.351562 4.722656-2.726562v5.453125zm0 0"/><path d="m139.066406 261.804688 4.722656-2.726563v5.453125zm0 0"/><path d="m153.238281 269.984375 4.722657-2.726563v5.453126zm0 0"/><path d="m167.40625 278.164062 4.722656-2.726562v5.453125zm0 0"/><path d="m172.128906 280.890625 4.722656-2.726563v5.453126zm0 0"/><path d="m191.019531 275.4375 4.722657-2.726562v5.453124zm0 0"/><path d="m219.359375 259.078125 4.722656-2.726563v5.453126zm0 0"/><path d="m238.25 248.171875 4.722656-2.730469v5.457032zm0 0"/><path d="m252.417969 239.988281 4.722656-2.726562v5.453125zm0 0"/><path d="m257.140625 237.261719 4.722656-2.726563v5.453125zm0 0"/><path d="m261.863281 234.535156 4.722657-2.726562v5.453125zm0 0"/><path d="m271.308594 234.535156 4.726562-2.726562v5.453125zm0 0"/><path d="m271.308594 229.082031 4.726562-2.726562v5.453125zm0 0"/><path d="m271.308594 207.269531 4.726562-2.726562v5.453125zm0 0"/><path d="m271.308594 190.90625 4.726562-2.726562v5.453124zm0 0"/><path d="m271.308594 169.09375 4.726562-2.726562v5.453124zm0 0"/><path d="m271.308594 163.640625 4.726562-2.726563v5.453126zm0 0"/><path d="m271.308594 158.1875 4.726562-2.730469v5.457031zm0 0"/><path d="m271.308594 141.824219 4.726562-2.726563v5.453125zm0 0"/><path d="m271.308594 136.371094 4.726562-2.726563v5.453125zm0 0"/><path d="m261.863281 120.011719 4.722657-2.726563v5.453125zm0 0"/><path d="m257.140625 117.285156 4.722656-2.726562v5.453125zm0 0"/><path d="m252.417969 114.558594 4.722656-2.730469v5.457031zm0 0"/><path d="m224.082031 98.195312 4.722657-2.726562v5.453125zm0 0"/><path d="m195.742188 81.835938 4.722656-2.726563v5.453125zm0 0"/><path d="m191.019531 79.109375 4.722657-2.726563v5.453126zm0 0"/><path d="m181.574219 73.65625 4.722656-2.726562v5.453124zm0 0"/><path d="m176.851562 70.929688 4.722657-2.726563v5.453125zm0 0"/><path d="m157.960938 81.835938 4.722656-2.726563v5.453125zm0 0"/><path d="m153.238281 84.5625 4.722657-2.726562v5.453124zm0 0"/><path d="m134.34375 95.46875 4.722656-2.726562v5.453124zm0 0"/><path d="m129.621094 98.195312 4.722656-2.726562v5.453125zm0 0"/><path d="m110.730469 109.101562 4.722656-2.726562v5.453125zm0 0"/><path d="m106.007812 111.828125 4.722657-2.726563v5.457032zm0 0"/><path d="m101.285156 114.558594 4.722656-2.730469v5.457031zm0 0"/><path d="m82.390625 136.371094 4.726563-2.726563v5.453125zm0 0"/><path d="m82.390625 147.277344 4.726563-2.726563v5.453125zm0 0"/><path d="m82.390625 158.1875 4.726563-2.730469v5.457031zm0 0"/><path d="m82.390625 180 4.726563-2.726562v5.453124zm0 0"/><path d="m82.390625 185.453125 4.726563-2.726563v5.453126zm0 0"/><path d="m82.390625 196.359375 4.726563-2.726563v5.453126zm0 0"/><path d="m82.390625 223.628906 4.726563-2.726562v5.453125zm0 0"/><path d="m82.390625 229.082031 4.726563-2.726562v5.453125zm0 0"/><path d="m87.117188 237.261719 4.722656-2.726563v5.453125zm0 0"/><path d="m91.839844 239.988281 4.722656-2.726562v5.453125zm0 0"/><path d="m106.007812 248.171875 4.722657-2.730469v5.457032zm0 0"/><path d="m139.066406 267.257812 4.722656-2.726562v5.453125zm0 0"/><path d="m143.789062 269.984375 4.722657-2.726563v5.453126zm0 0"/><path d="m157.960938 278.164062 4.722656-2.726562v5.453125zm0 0"/><path d="m176.851562 289.070312 4.722657-2.726562v5.453125zm0 0"/><path d="m181.574219 286.34375 4.722656-2.726562v5.453124zm0 0"/><path d="m186.296875 283.617188 4.722656-2.726563v5.453125zm0 0"/><path d="m205.1875 272.710938 4.722656-2.726563v5.453125zm0 0"/><path d="m209.910156 269.984375 4.726563-2.726563v5.453126zm0 0"/><path d="m224.082031 261.804688 4.722657-2.726563v5.453125zm0 0"/><path d="m233.527344 256.351562 4.722656-2.726562v5.453125zm0 0"/><path d="m252.417969 245.441406 4.722656-2.726562v5.457031zm0 0"/><path d="m257.140625 242.714844 4.722656-2.726563v5.453125zm0 0"/><path d="m261.863281 239.988281 4.722657-2.726562v5.453125zm0 0"/><path d="m266.585938 237.261719 4.722656-2.726563v5.453125zm0 0"/><path d="m276.035156 215.449219 4.722656-2.726563v5.453125zm0 0"/><path d="m276.035156 209.996094 4.722656-2.726563v5.453125zm0 0"/><path d="m276.035156 204.542969 4.722656-2.730469v5.457031zm0 0"/><path d="m276.035156 188.179688 4.722656-2.726563v5.453125zm0 0"/><path d="m276.035156 171.820312 4.722656-2.726562v5.453125zm0 0"/><path d="m276.035156 144.550781 4.722656-2.726562v5.453125zm0 0"/><path d="m276.035156 122.738281 4.722656-2.726562v5.453125zm0 0"/><path d="m261.863281 114.558594 4.722657-2.730469v5.457031zm0 0"/><path d="m252.417969 109.101562 4.722656-2.726562v5.453125zm0 0"/><path d="m238.25 100.921875 4.722656-2.726563v5.453126zm0 0"/><path d="m214.636719 87.289062 4.722656-2.726562v5.453125zm0 0"/><path d="m200.464844 79.109375 4.722656-2.726563v5.453126zm0 0"/><path d="m172.128906 68.203125 4.722656-2.730469v5.457032zm0 0"/><path d="m148.511719 81.835938 4.726562-2.726563v5.453125zm0 0"/><path d="m120.175781 98.195312 4.722657-2.726562v5.453125zm0 0"/><path d="m106.007812 106.375 4.722657-2.726562v5.453124zm0 0"/><path d="m101.285156 109.101562 4.722656-2.726562v5.453125zm0 0"/><path d="m91.839844 114.558594 4.722656-2.730469v5.457031zm0 0"/><path d="m87.117188 117.285156 4.722656-2.726562v5.453125zm0 0"/><path d="m77.667969 122.738281 4.722656-2.726562v5.453125zm0 0"/><path d="m77.667969 133.644531 4.722656-2.726562v5.453125zm0 0"/><path d="m77.667969 160.914062 4.722656-2.726562v5.453125zm0 0"/><path d="m77.667969 171.820312 4.722656-2.726562v5.453125zm0 0"/><path d="m77.667969 188.179688 4.722656-2.726563v5.453125zm0 0"/><path d="m77.667969 193.632812 4.722656-2.726562v5.453125zm0 0"/><path d="m77.667969 199.085938 4.722656-2.726563v5.453125zm0 0"/><path d="m77.667969 204.542969 4.722656-2.730469v5.457031zm0 0"/><path d="m77.667969 215.449219 4.722656-2.726563v5.453125zm0 0"/><path d="m77.667969 226.355469 4.722656-2.726563v5.453125zm0 0"/><path d="m77.667969 237.261719 4.722656-2.726563v5.453125zm0 0"/><path d="m91.839844 245.441406 4.722656-2.726562v5.457031zm0 0"/><path d="m101.285156 250.898438 4.722656-2.726563v5.453125zm0 0"/><path d="m120.175781 261.804688 4.722657-2.726563v5.453125zm0 0"/><path d="m124.898438 264.53125 4.722656-2.726562v5.453124zm0 0"/><path d="m139.066406 272.710938 4.722656-2.726563v5.453125zm0 0"/><path d="m148.511719 278.164062 4.726562-2.726562v5.453125zm0 0"/><path d="m195.742188 283.617188 4.722656-2.726563v5.453125zm0 0"/><path d="m205.1875 278.164062 4.722656-2.726562v5.453125zm0 0"/><path d="m214.636719 272.710938 4.722656-2.726563v5.453125zm0 0"/><path d="m219.359375 269.984375 4.722656-2.726563v5.453126zm0 0"/><path d="m271.308594 239.988281 4.726562-2.726562v5.453125zm0 0"/><path d="m280.757812 229.082031 4.722657-2.726562v5.453125zm0 0"/><path d="m280.757812 218.175781 4.722657-2.726562v5.453125zm0 0"/><path d="m280.757812 152.730469 4.722657-2.726563v5.453125zm0 0"/><path d="m280.757812 147.277344 4.722657-2.726563v5.453125zm0 0"/><path d="m280.757812 125.464844 4.722657-2.726563v5.453125zm0 0"/><path d="m266.585938 111.828125 4.722656-2.726563v5.457032zm0 0"/><path d="m261.863281 109.101562 4.722657-2.726562v5.453125zm0 0"/><path d="m257.140625 106.375 4.722656-2.726562v5.453124zm0 0"/><path d="m247.695312 100.921875 4.722657-2.726563v5.453126zm0 0"/><path d="m233.527344 92.742188 4.722656-2.726563v5.453125zm0 0"/><path d="m224.082031 87.289062 4.722657-2.726562v5.453125zm0 0"/><path d="m205.1875 76.382812 4.722656-2.726562v5.453125zm0 0"/><path d="m195.742188 70.929688 4.722656-2.726563v5.453125zm0 0"/><path d="m162.683594 68.203125 4.722656-2.730469v5.457032zm0 0"/><path d="m157.960938 70.929688 4.722656-2.726563v5.453125zm0 0"/><path d="m134.34375 84.5625 4.722656-2.726562v5.453124zm0 0"/><path d="m124.898438 90.015625 4.722656-2.726563v5.453126zm0 0"/><path d="m91.839844 109.101562 4.722656-2.726562v5.453125zm0 0"/><path d="m82.390625 114.558594 4.726563-2.730469v5.457031zm0 0"/><path d="m72.945312 158.1875 4.722657-2.730469v5.457031zm0 0"/><path d="m72.945312 190.90625 4.722657-2.726562v5.453124zm0 0"/><path d="m72.945312 196.359375 4.722657-2.726563v5.453126zm0 0"/><path d="m72.945312 201.8125 4.722657-2.726562v5.457031zm0 0"/><path d="m72.945312 218.175781 4.722657-2.726562v5.453125zm0 0"/><path d="m72.945312 223.628906 4.722657-2.726562v5.453125zm0 0"/><path d="m87.117188 248.171875 4.722656-2.730469v5.457032zm0 0"/><path d="m106.007812 259.078125 4.722657-2.726563v5.453126zm0 0"/><path d="m110.730469 261.804688 4.722656-2.726563v5.453125zm0 0"/><path d="m120.175781 267.257812 4.722657-2.726562v5.453125zm0 0"/><path d="m124.898438 269.984375 4.722656-2.726563v5.453126zm0 0"/><path d="m134.34375 275.4375 4.722656-2.726562v5.453124zm0 0"/><path d="m143.789062 280.890625 4.722657-2.726563v5.453126zm0 0"/><path d="m157.960938 289.070312 4.722656-2.726562v5.453125zm0 0"/><path d="m167.40625 294.527344 4.722656-2.730469v5.457031zm0 0"/><path d="m176.851562 299.980469 4.722657-2.726563v5.453125zm0 0"/><path d="m181.574219 297.253906 4.722656-2.726562v5.453125zm0 0"/><path d="m200.464844 286.34375 4.722656-2.726562v5.453124zm0 0"/><path d="m242.972656 261.804688 4.722656-2.726563v5.453125zm0 0"/><path d="m257.140625 253.625 4.722656-2.726562v5.453124zm0 0"/><path d="m261.863281 250.898438 4.722657-2.726563v5.453125zm0 0"/><path d="m271.308594 245.441406 4.726562-2.726562v5.457031zm0 0"/><path d="m285.480469 220.902344 4.722656-2.726563v5.453125zm0 0"/><path d="m285.480469 188.179688 4.722656-2.726563v5.453125zm0 0"/><path d="m280.757812 114.558594 4.722657-2.730469v5.457031zm0 0"/><path d="m276.035156 111.828125 4.722656-2.726563v5.457032zm0 0"/><path d="m247.695312 95.46875 4.722657-2.726562v5.453124zm0 0"/><path d="m242.972656 92.742188 4.722656-2.726563v5.453125zm0 0"/><path d="m238.25 90.015625 4.722656-2.726563v5.453126zm0 0"/><path d="m233.527344 87.289062 4.722656-2.726562v5.453125zm0 0"/><path d="m228.804688 84.5625 4.722656-2.726562v5.453124zm0 0"/><path d="m219.359375 79.109375 4.722656-2.726563v5.453126zm0 0"/><path d="m205.1875 70.929688 4.722656-2.726563v5.453125zm0 0"/><path d="m191.019531 62.746094 4.722657-2.726563v5.453125zm0 0"/><path d="m186.296875 60.019531 4.722656-2.726562v5.453125zm0 0"/><path d="m176.851562 54.566406 4.722657-2.726562v5.453125zm0 0"/><path d="m162.683594 62.746094 4.722656-2.726563v5.453125zm0 0"/><path d="m139.066406 76.382812 4.722656-2.726562v5.453125zm0 0"/><path d="m120.175781 87.289062 4.722657-2.726562v5.453125zm0 0"/><path d="m115.453125 90.015625 4.722656-2.726563v5.453126zm0 0"/><path d="m106.007812 95.46875 4.722657-2.726562v5.453124zm0 0"/><path d="m101.285156 98.195312 4.722656-2.726562v5.453125zm0 0"/><path d="m82.390625 109.101562 4.726563-2.726562v5.453125zm0 0"/><path d="m77.667969 111.828125 4.722656-2.726563v5.457032zm0 0"/><path d="m68.222656 117.285156 4.722656-2.726562v5.453125zm0 0"/><path d="m68.222656 122.738281 4.722656-2.726562v5.453125zm0 0"/><path d="m68.222656 133.644531 4.722656-2.726562v5.453125zm0 0"/><path d="m68.222656 144.550781 4.722656-2.726562v5.453125zm0 0"/><path d="m68.222656 166.367188 4.722656-2.726563v5.453125zm0 0"/><path d="m68.222656 171.820312 4.722656-2.726562v5.453125zm0 0"/><path d="m68.222656 182.726562 4.722656-2.726562v5.453125zm0 0"/><path d="m68.222656 188.179688 4.722656-2.726563v5.453125zm0 0"/><path d="m68.222656 199.085938 4.722656-2.726563v5.453125zm0 0"/><path d="m68.222656 215.449219 4.722656-2.726563v5.453125zm0 0"/><path d="m68.222656 220.902344 4.722656-2.726563v5.453125zm0 0"/><path d="m68.222656 226.355469 4.722656-2.726563v5.453125zm0 0"/><path d="m68.222656 242.714844 4.722656-2.726563v5.453125zm0 0"/><path d="m72.945312 245.441406 4.722657-2.726562v5.457031zm0 0"/><path d="m110.730469 267.257812 4.722656-2.726562v5.453125zm0 0"/><path d="m129.621094 278.164062 4.722656-2.726562v5.453125zm0 0"/><path d="m162.683594 297.253906 4.722656-2.726562v5.453125zm0 0"/><path d="m167.40625 299.980469 4.722656-2.726563v5.453125zm0 0"/><path d="m176.851562 305.433594 4.722657-2.726563v5.453125zm0 0"/><path d="m186.296875 299.980469 4.722656-2.726563v5.453125zm0 0"/><path d="m191.019531 297.253906 4.722657-2.726562v5.453125zm0 0"/><path d="m195.742188 294.527344 4.722656-2.730469v5.457031zm0 0"/><path d="m200.464844 291.796875 4.722656-2.726563v5.457032zm0 0"/><path d="m209.910156 286.34375 4.726563-2.726562v5.453124zm0 0"/><path d="m228.804688 275.4375 4.722656-2.726562v5.453124zm0 0"/><path d="m233.527344 272.710938 4.722656-2.726563v5.453125zm0 0"/><path d="m247.695312 264.53125 4.722657-2.726562v5.453124zm0 0"/><path d="m252.417969 261.804688 4.722656-2.726563v5.453125zm0 0"/><path d="m261.863281 256.351562 4.722657-2.726562v5.453125zm0 0"/><path d="m266.585938 253.625 4.722656-2.726562v5.453124zm0 0"/><path d="m280.757812 245.441406 4.722657-2.726562v5.457031zm0 0"/><path d="m290.203125 223.628906 4.722656-2.726562v5.453125zm0 0"/><path d="m290.203125 201.8125 4.722656-2.726562v5.457031zm0 0"/><path d="m290.203125 196.359375 4.722656-2.726563v5.453126zm0 0"/><path d="m290.203125 174.546875 4.722656-2.726563v5.453126zm0 0"/><path d="m290.203125 158.1875 4.722656-2.730469v5.457031zm0 0"/><path d="m290.203125 152.730469 4.722656-2.726563v5.453125zm0 0"/><path d="m280.757812 109.101562 4.722657-2.726562v5.453125zm0 0"/><path d="m276.035156 106.375 4.722656-2.726562v5.453124zm0 0"/><path d="m271.308594 103.648438 4.726562-2.726563v5.453125zm0 0"/><path d="m261.863281 98.195312 4.722657-2.726562v5.453125zm0 0"/><path d="m257.140625 95.46875 4.722656-2.726562v5.453124zm0 0"/><path d="m247.695312 90.015625 4.722657-2.726563v5.453126zm0 0"/><path d="m238.25 84.5625 4.722656-2.726562v5.453124zm0 0"/><path d="m191.019531 57.292969 4.722657-2.726563v5.453125zm0 0"/><path d="m181.574219 51.839844 4.722656-2.726563v5.453125zm0 0"/><path d="m143.789062 68.203125 4.722657-2.730469v5.457032zm0 0"/><path d="m120.175781 81.835938 4.722657-2.726563v5.453125zm0 0"/><path d="m115.453125 84.5625 4.722656-2.726562v5.453124zm0 0"/><path d="m110.730469 87.289062 4.722656-2.726562v5.453125zm0 0"/><path d="m87.117188 100.921875 4.722656-2.726563v5.453126zm0 0"/><path d="m63.5 120.011719 4.722656-2.726563v5.453125zm0 0"/><path d="m63.5 125.464844 4.722656-2.726563v5.453125zm0 0"/><path d="m63.5 163.640625 4.722656-2.726563v5.453126zm0 0"/><path d="m63.5 174.546875 4.722656-2.726563v5.453126zm0 0"/><path d="m63.5 180 4.722656-2.726562v5.453124zm0 0"/><path d="m63.5 196.359375 4.722656-2.726563v5.453126zm0 0"/><path d="m63.5 223.628906 4.722656-2.726562v5.453125zm0 0"/><path d="m63.5 229.082031 4.722656-2.726562v5.453125zm0 0"/><path d="m68.222656 248.171875 4.722656-2.730469v5.457032zm0 0"/><path d="m87.117188 259.078125 4.722656-2.726563v5.453126zm0 0"/><path d="m101.285156 267.257812 4.722656-2.726562v5.453125zm0 0"/><path d="m106.007812 269.984375 4.722657-2.726563v5.453126zm0 0"/><path d="m110.730469 272.710938 4.722656-2.726563v5.453125zm0 0"/><path d="m115.453125 275.4375 4.722656-2.726562v5.453124zm0 0"/><path d="m120.175781 278.164062 4.722657-2.726562v5.453125zm0 0"/><path d="m139.066406 289.070312 4.722656-2.726562v5.453125zm0 0"/><path d="m176.851562 310.886719 4.722657-2.726563v5.453125zm0 0"/><path d="m181.574219 308.160156 4.722656-2.726562v5.453125zm0 0"/><path d="m186.296875 305.433594 4.722656-2.726563v5.453125zm0 0"/><path d="m205.1875 294.527344 4.722656-2.730469v5.457031zm0 0"/><path d="m209.910156 291.796875 4.726563-2.726563v5.457032zm0 0"/><path d="m214.636719 289.070312 4.722656-2.726562v5.453125zm0 0"/><path d="m228.804688 280.890625 4.722656-2.726563v5.453126zm0 0"/><path d="m233.527344 278.164062 4.722656-2.726562v5.453125zm0 0"/><path d="m238.25 275.4375 4.722656-2.726562v5.453124zm0 0"/><path d="m242.972656 272.710938 4.722656-2.726563v5.453125zm0 0"/><path d="m257.140625 264.53125 4.722656-2.726562v5.453124zm0 0"/><path d="m271.308594 256.351562 4.726562-2.726562v5.453125zm0 0"/><path d="m276.035156 253.625 4.722656-2.726562v5.453124zm0 0"/><path d="m280.757812 250.898438 4.722657-2.726563v5.453125zm0 0"/><path d="m294.925781 237.261719 4.722657-2.726563v5.453125zm0 0"/><path d="m294.925781 209.996094 4.722657-2.726563v5.453125zm0 0"/><path d="m294.925781 193.632812 4.722657-2.726562v5.453125zm0 0"/><path d="m294.925781 177.273438 4.722657-2.726563v5.453125zm0 0"/><path d="m294.925781 171.820312 4.722657-2.726562v5.453125zm0 0"/><path d="m294.925781 166.367188 4.722657-2.726563v5.453125zm0 0"/><path d="m294.925781 122.738281 4.722657-2.726562v5.453125zm0 0"/><path d="m290.203125 109.101562 4.722656-2.726562v5.453125zm0 0"/><path d="m285.480469 106.375 4.722656-2.726562v5.453124zm0 0"/><path d="m257.140625 90.015625 4.722656-2.726563v5.453126zm0 0"/><path d="m252.417969 87.289062 4.722656-2.726562v5.453125zm0 0"/><path d="m238.25 79.109375 4.722656-2.726563v5.453126zm0 0"/><path d="m233.527344 76.382812 4.722656-2.726562v5.453125zm0 0"/><path d="m228.804688 73.65625 4.722656-2.726562v5.453124zm0 0"/><path d="m224.082031 70.929688 4.722657-2.726563v5.453125zm0 0"/><path d="m186.296875 49.113281 4.722656-2.726562v5.453125zm0 0"/><path d="m167.40625 49.113281 4.722656-2.726562v5.453125zm0 0"/><path d="m162.683594 51.839844 4.722656-2.726563v5.453125zm0 0"/><path d="m143.789062 62.746094 4.722657-2.726563v5.453125zm0 0"/><path d="m139.066406 65.472656 4.722656-2.726562v5.457031zm0 0"/><path d="m134.34375 68.203125 4.722656-2.730469v5.457032zm0 0"/><path d="m124.898438 73.65625 4.722656-2.726562v5.453124zm0 0"/><path d="m110.730469 81.835938 4.722656-2.726563v5.453125zm0 0"/><path d="m106.007812 84.5625 4.722657-2.726562v5.453124zm0 0"/><path d="m58.777344 117.285156 4.722656-2.726562v5.453125zm0 0"/><path d="m58.777344 122.738281 4.722656-2.726562v5.453125zm0 0"/><path d="m58.777344 128.191406 4.722656-2.726562v5.453125zm0 0"/><path d="m58.777344 139.097656 4.722656-2.726562v5.453125zm0 0"/><path d="m58.777344 150.003906 4.722656-2.726562v5.453125zm0 0"/><path d="m58.777344 171.820312 4.722656-2.726562v5.453125zm0 0"/><path d="m58.777344 182.726562 4.722656-2.726562v5.453125zm0 0"/><path d="m58.777344 193.632812 4.722656-2.726562v5.453125zm0 0"/><path d="m58.777344 199.085938 4.722656-2.726563v5.453125zm0 0"/><path d="m58.777344 209.996094 4.722656-2.726563v5.453125zm0 0"/><path d="m58.777344 248.171875 4.722656-2.730469v5.457032zm0 0"/><path d="m63.5 250.898438 4.722656-2.726563v5.453125zm0 0"/><path d="m82.390625 261.804688 4.726563-2.726563v5.453125zm0 0"/><path d="m96.5625 269.984375 4.722656-2.726563v5.453126zm0 0"/><path d="m106.007812 275.4375 4.722657-2.726562v5.453124zm0 0"/><path d="m110.730469 278.164062 4.722656-2.726562v5.453125zm0 0"/><path d="m115.453125 280.890625 4.722656-2.726563v5.453126zm0 0"/><path d="m134.34375 291.796875 4.722656-2.726563v5.457032zm0 0"/><path d="m139.066406 294.527344 4.722656-2.730469v5.457031zm0 0"/><path d="m153.238281 302.707031 4.722657-2.726562v5.453125zm0 0"/><path d="m176.851562 316.339844 4.722657-2.726563v5.453125zm0 0"/><path d="m191.019531 308.160156 4.722657-2.726562v5.453125zm0 0"/><path d="m205.1875 299.980469 4.722656-2.726563v5.453125zm0 0"/><path d="m261.863281 267.257812 4.722657-2.726562v5.453125zm0 0"/><path d="m271.308594 261.804688 4.726562-2.726563v5.453125zm0 0"/><path d="m276.035156 259.078125 4.722656-2.726563v5.453126zm0 0"/><path d="m290.203125 250.898438 4.722656-2.726563v5.453125zm0 0"/><path d="m299.648438 250.898438 4.722656-2.726563v5.453125zm0 0"/><path d="m299.648438 229.082031 4.722656-2.726562v5.453125zm0 0"/><path d="m299.648438 223.628906 4.722656-2.726562v5.453125zm0 0"/><path d="m299.648438 218.175781 4.722656-2.726562v5.453125zm0 0"/><path d="m299.648438 212.722656 4.722656-2.726562v5.453125zm0 0"/><path d="m299.648438 196.359375 4.722656-2.726563v5.453126zm0 0"/><path d="m299.648438 185.453125 4.722656-2.726563v5.453126zm0 0"/><path d="m299.648438 169.09375 4.722656-2.726562v5.453124zm0 0"/><path d="m299.648438 158.1875 4.722656-2.730469v5.457031zm0 0"/><path d="m299.648438 152.730469 4.722656-2.726563v5.453125zm0 0"/><path d="m299.648438 141.824219 4.722656-2.726563v5.453125zm0 0"/><path d="m299.648438 136.371094 4.722656-2.726563v5.453125zm0 0"/><path d="m299.648438 130.917969 4.722656-2.726563v5.453125zm0 0"/><path d="m54.054688 136.371094 4.722656-2.726563v5.453125zm0 0"/><path d="m54.054688 169.09375 4.722656-2.726562v5.453124zm0 0"/><path d="m54.054688 174.546875 4.722656-2.726563v5.453126zm0 0"/><path d="m54.054688 196.359375 4.722656-2.726563v5.453126zm0 0"/><path d="m54.054688 201.8125 4.722656-2.726562v5.457031zm0 0"/><path d="m54.054688 223.628906 4.722656-2.726562v5.453125zm0 0"/><path d="m54.054688 245.441406 4.722656-2.726562v5.457031zm0 0"/><path d="m63.5 256.351562 4.722656-2.726562v5.453125zm0 0"/><path d="m101.285156 278.164062 4.722656-2.726562v5.453125zm0 0"/><path d="m110.730469 283.617188 4.722656-2.726563v5.453125zm0 0"/><path d="m115.453125 286.34375 4.722656-2.726562v5.453124zm0 0"/><path d="m134.34375 297.253906 4.722656-2.726562v5.453125zm0 0"/><path d="m139.066406 299.980469 4.722656-2.726563v5.453125zm0 0"/><path d="m157.960938 310.886719 4.722656-2.726563v5.453125zm0 0"/><path d="m176.851562 321.792969 4.722657-2.726563v5.453125zm0 0"/><path d="m186.296875 316.339844 4.722656-2.726563v5.453125zm0 0"/><path d="m205.1875 305.433594 4.722656-2.726563v5.453125zm0 0"/><path d="m214.636719 299.980469 4.722656-2.726563v5.453125zm0 0"/><path d="m219.359375 297.253906 4.722656-2.726562v5.453125zm0 0"/><path d="m224.082031 294.527344 4.722657-2.730469v5.457031zm0 0"/><path d="m261.863281 272.710938 4.722657-2.726563v5.453125zm0 0"/><path d="m271.308594 267.257812 4.726562-2.726562v5.453125zm0 0"/><path d="m280.757812 261.804688 4.722657-2.726563v5.453125zm0 0"/><path d="m285.480469 259.078125 4.722656-2.726563v5.453126zm0 0"/><path d="m290.203125 256.351562 4.722656-2.726562v5.453125zm0 0"/><path d="m294.925781 253.625 4.722657-2.726562v5.453124zm0 0"/><path d="m304.371094 248.171875 4.722656-2.730469v5.457032zm0 0"/><path d="m304.371094 242.714844 4.722656-2.726563v5.453125zm0 0"/><path d="m304.371094 237.261719 4.722656-2.726563v5.453125zm0 0"/><path d="m304.371094 226.355469 4.722656-2.726563v5.453125zm0 0"/><path d="m304.371094 220.902344 4.722656-2.726563v5.453125zm0 0"/><path d="m304.371094 215.449219 4.722656-2.726563v5.453125zm0 0"/><path d="m304.371094 171.820312 4.722656-2.726562v5.453125zm0 0"/><path d="m304.371094 160.914062 4.722656-2.726562v5.453125zm0 0"/><path d="m304.371094 144.550781 4.722656-2.726562v5.453125zm0 0"/><path d="m304.371094 128.191406 4.722656-2.726562v5.453125zm0 0"/><path d="m49.332031 133.644531 4.722657-2.726562v5.453125zm0 0"/><path d="m49.332031 150.003906 4.722657-2.726562v5.453125zm0 0"/><path d="m49.332031 199.085938 4.722657-2.726563v5.453125zm0 0"/><path d="m49.332031 209.996094 4.722657-2.726563v5.453125zm0 0"/><path d="m49.332031 220.902344 4.722657-2.726563v5.453125zm0 0"/><path d="m49.332031 231.808594 4.722657-2.726563v5.453125zm0 0"/><path d="m49.332031 248.171875 4.722657-2.730469v5.457032zm0 0"/><path d="m309.09375 245.441406 4.722656-2.726562v5.457031zm0 0"/><path d="m309.09375 234.535156 4.722656-2.726562v5.453125zm0 0"/><path d="m309.09375 223.628906 4.722656-2.726562v5.453125zm0 0"/><path d="m309.09375 212.722656 4.722656-2.726562v5.453125zm0 0"/><path d="m309.09375 207.269531 4.722656-2.726562v5.453125zm0 0"/><path d="m309.09375 190.90625 4.722656-2.726562v5.453124zm0 0"/><path d="m309.09375 152.730469 4.722656-2.726563v5.453125zm0 0"/><path d="m309.09375 147.277344 4.722656-2.726563v5.453125zm0 0"/><path d="m309.09375 141.824219 4.722656-2.726563v5.453125zm0 0"/><path d="m309.09375 130.917969 4.722656-2.726563v5.453125zm0 0"/><path d="m309.09375 125.464844 4.722656-2.726563v5.453125zm0 0"/><path d="m181.574219 171.820312-4.722657-2.726562v5.453125zm0 0"/><path d="m176.851562 174.546875-4.722656-2.726563v5.453126zm0 0"/><path d="m176.851562 185.453125-4.722656-2.726563v5.453126zm0 0"/><path d="m195.742188 180-4.722657-2.726562v5.453124zm0 0"/><path d="m176.851562 169.09375-4.722656-2.726562v5.453124zm0 0"/><path d="m176.851562 190.90625-4.722656-2.726562v5.453124zm0 0"/><path d="m181.574219 193.632812-4.722657-2.726562v5.453125zm0 0"/><path d="m200.464844 182.726562-4.722656-2.726562v5.453125zm0 0"/><path d="m195.742188 169.09375-4.722657-2.726562v5.453124zm0 0"/><path d="m186.296875 163.640625-4.722656-2.726563v5.453126zm0 0"/><path d="m181.574219 160.914062-4.722657-2.726562v5.453125zm0 0"/><path d="m167.40625 174.546875-4.722656-2.726563v5.453126zm0 0"/><path d="m167.40625 185.453125-4.722656-2.726563v5.453126zm0 0"/><path d="m167.40625 190.90625-4.722656-2.726562v5.453124zm0 0"/><path d="m205.1875 180-4.722656-2.726562v5.453124zm0 0"/><path d="m205.1875 174.546875-4.722656-2.726563v5.453126zm0 0"/><path d="m205.1875 169.09375-4.722656-2.726562v5.453124zm0 0"/><path d="m181.574219 155.457031-4.722657-2.726562v5.457031zm0 0"/><path d="m167.40625 163.640625-4.722656-2.726563v5.453126zm0 0"/><path d="m162.683594 188.179688-4.722656-2.726563v5.453125zm0 0"/><path d="m195.742188 196.359375-4.722657-2.726563v5.453126zm0 0"/><path d="m209.910156 188.179688-4.722656-2.726563v5.453125zm0 0"/><path d="m209.910156 177.273438-4.722656-2.726563v5.453125zm0 0"/><path d="m200.464844 160.914062-4.722656-2.726562v5.453125zm0 0"/><path d="m191.019531 155.457031-4.722656-2.726562v5.457031zm0 0"/><path d="m157.960938 169.09375-4.722657-2.726562v5.453124zm0 0"/><path d="m157.960938 174.546875-4.722657-2.726563v5.453126zm0 0"/><path d="m157.960938 190.90625-4.722657-2.726562v5.453124zm0 0"/><path d="m157.960938 196.359375-4.722657-2.726563v5.453126zm0 0"/><path d="m186.296875 207.269531-4.722656-2.726562v5.453125zm0 0"/><path d="m200.464844 199.085938-4.722656-2.726563v5.453125zm0 0"/><path d="m214.636719 190.90625-4.726563-2.726562v5.453124zm0 0"/><path d="m214.636719 180-4.726563-2.726562v5.453124zm0 0"/><path d="m195.742188 152.730469-4.722657-2.726563v5.453125zm0 0"/><path d="m191.019531 150.003906-4.722656-2.726562v5.453125zm0 0"/><path d="m176.851562 147.277344-4.722656-2.726563v5.453125zm0 0"/><path d="m172.128906 150.003906-4.722656-2.726562v5.453125zm0 0"/><path d="m153.238281 188.179688-4.726562-2.726563v5.453125zm0 0"/><path d="m157.960938 201.8125-4.722657-2.726562v5.457031zm0 0"/><path d="m209.910156 199.085938-4.722656-2.726563v5.453125zm0 0"/><path d="m219.359375 182.726562-4.722656-2.726562v5.453125zm0 0"/><path d="m219.359375 171.820312-4.722656-2.726562v5.453125zm0 0"/><path d="m219.359375 166.367188-4.722656-2.726563v5.453125zm0 0"/><path d="m219.359375 160.914062-4.722656-2.726562v5.453125zm0 0"/><path d="m205.1875 152.730469-4.722656-2.726563v5.453125zm0 0"/><path d="m200.464844 150.003906-4.722656-2.726562v5.453125zm0 0"/><path d="m195.742188 147.277344-4.722657-2.726563v5.453125zm0 0"/><path d="m186.296875 141.824219-4.722656-2.726563v5.453125zm0 0"/><path d="m176.851562 141.824219-4.722656-2.726563v5.453125zm0 0"/><path d="m157.960938 152.730469-4.722657-2.726563v5.453125zm0 0"/><path d="m153.238281 155.457031-4.726562-2.726562v5.457031zm0 0"/><path d="m148.511719 169.09375-4.722657-2.726562v5.453124zm0 0"/><path d="m148.511719 180-4.722657-2.726562v5.453124zm0 0"/><path d="m153.238281 204.542969-4.726562-2.730469v5.457031zm0 0"/><path d="m167.40625 212.722656-4.722656-2.726562v5.453125zm0 0"/><path d="m176.851562 218.175781-4.722656-2.726562v5.453125zm0 0"/><path d="m205.1875 207.269531-4.722656-2.726562v5.453125zm0 0"/><path d="m209.910156 204.542969-4.722656-2.730469v5.457031zm0 0"/><path d="m224.082031 163.640625-4.722656-2.726563v5.453126zm0 0"/><path d="m209.910156 150.003906-4.722656-2.726562v5.453125zm0 0"/><path d="m205.1875 147.277344-4.722656-2.726563v5.453125zm0 0"/><path d="m195.742188 141.824219-4.722657-2.726563v5.453125zm0 0"/><path d="m191.019531 139.097656-4.722656-2.726562v5.453125zm0 0"/><path d="m186.296875 136.371094-4.722656-2.726563v5.453125zm0 0"/><path d="m181.574219 133.644531-4.722657-2.726562v5.453125zm0 0"/><path d="m172.128906 139.097656-4.722656-2.726562v5.453125zm0 0"/><path d="m143.789062 155.457031-4.722656-2.726562v5.457031zm0 0"/><path d="m143.789062 171.820312-4.722656-2.726562v5.453125zm0 0"/><path d="m153.238281 209.996094-4.726562-2.726563v5.453125zm0 0"/><path d="m157.960938 212.722656-4.722657-2.726562v5.453125zm0 0"/><path d="m162.683594 215.449219-4.722656-2.726563v5.453125zm0 0"/><path d="m167.40625 218.175781-4.722656-2.726562v5.453125zm0 0"/><path d="m186.296875 223.628906-4.722656-2.726562v5.453125zm0 0"/><path d="m191.019531 220.902344-4.722656-2.726563v5.453125zm0 0"/><path d="m228.804688 199.085938-4.722657-2.726563v5.453125zm0 0"/><path d="m224.082031 152.730469-4.722656-2.726563v5.453125zm0 0"/><path d="m219.359375 150.003906-4.722656-2.726562v5.453125zm0 0"/><path d="m200.464844 139.097656-4.722656-2.726562v5.453125zm0 0"/><path d="m195.742188 136.371094-4.722657-2.726563v5.453125zm0 0"/><path d="m181.574219 128.191406-4.722657-2.726562v5.453125zm0 0"/><path d="m167.40625 136.371094-4.722656-2.726563v5.453125zm0 0"/><path d="m139.066406 180-4.722656-2.726562v5.453124zm0 0"/><path d="m139.066406 185.453125-4.722656-2.726563v5.453126zm0 0"/><path d="m139.066406 196.359375-4.722656-2.726563v5.453126zm0 0"/><path d="m153.238281 215.449219-4.726562-2.726563v5.453125zm0 0"/><path d="m157.960938 218.175781-4.722657-2.726562v5.453125zm0 0"/><path d="m172.128906 226.355469-4.722656-2.726563v5.453125zm0 0"/><path d="m181.574219 231.808594-4.722657-2.726563v5.453125zm0 0"/><path d="m191.019531 226.355469-4.722656-2.726563v5.453125zm0 0"/><path d="m200.464844 220.902344-4.722656-2.726563v5.453125zm0 0"/><path d="m224.082031 207.269531-4.722656-2.726562v5.453125zm0 0"/><path d="m233.527344 190.90625-4.722656-2.726562v5.453124zm0 0"/><path d="m233.527344 185.453125-4.722656-2.726563v5.453126zm0 0"/><path d="m233.527344 180-4.722656-2.726562v5.453124zm0 0"/><path d="m233.527344 152.730469-4.722656-2.726563v5.453125zm0 0"/><path d="m224.082031 147.277344-4.722656-2.726563v5.453125zm0 0"/><path d="m219.359375 144.550781-4.722656-2.726562v5.453125zm0 0"/><path d="m191.019531 128.191406-4.722656-2.726562v5.453125zm0 0"/><path d="m172.128906 128.191406-4.722656-2.726562v5.453125zm0 0"/><path d="m162.683594 133.644531-4.722656-2.726562v5.453125zm0 0"/><path d="m143.789062 144.550781-4.722656-2.726562v5.453125zm0 0"/><path d="m139.066406 147.277344-4.722656-2.726563v5.453125zm0 0"/><path d="m134.34375 171.820312-4.722656-2.726562v5.453125zm0 0"/><path d="m134.34375 182.726562-4.722656-2.726562v5.453125zm0 0"/><path d="m134.34375 209.996094-4.722656-2.726563v5.453125zm0 0"/><path d="m139.066406 212.722656-4.722656-2.726562v5.453125zm0 0"/><path d="m167.40625 229.082031-4.722656-2.726562v5.453125zm0 0"/><path d="m172.128906 231.808594-4.722656-2.726563v5.453125zm0 0"/><path d="m200.464844 226.355469-4.722656-2.726563v5.453125zm0 0"/><path d="m228.804688 209.996094-4.722657-2.726563v5.453125zm0 0"/><path d="m238.25 209.996094-4.722656-2.726563v5.453125zm0 0"/><path d="m238.25 193.632812-4.722656-2.726562v5.453125zm0 0"/><path d="m238.25 188.179688-4.722656-2.726563v5.453125zm0 0"/><path d="m238.25 166.367188-4.722656-2.726563v5.453125zm0 0"/><path d="m238.25 155.457031-4.722656-2.726562v5.457031zm0 0"/><path d="m238.25 150.003906-4.722656-2.726562v5.453125zm0 0"/><path d="m224.082031 141.824219-4.722656-2.726563v5.453125zm0 0"/><path d="m214.636719 136.371094-4.726563-2.726563v5.453125zm0 0"/><path d="m200.464844 128.191406-4.722656-2.726562v5.453125zm0 0"/><path d="m195.742188 125.464844-4.722657-2.726563v5.453125zm0 0"/><path d="m191.019531 122.738281-4.722656-2.726562v5.453125zm0 0"/><path d="m181.574219 117.285156-4.722657-2.726562v5.453125zm0 0"/><path d="m172.128906 122.738281-4.722656-2.726562v5.453125zm0 0"/><path d="m167.40625 125.464844-4.722656-2.726563v5.453125zm0 0"/><path d="m157.960938 130.917969-4.722657-2.726563v5.453125zm0 0"/><path d="m139.066406 141.824219-4.722656-2.726563v5.453125zm0 0"/><path d="m134.34375 144.550781-4.722656-2.726562v5.453125zm0 0"/><path d="m129.621094 169.09375-4.722656-2.726562v5.453124zm0 0"/><path d="m129.621094 196.359375-4.722656-2.726563v5.453126zm0 0"/><path d="m148.511719 223.628906-4.722657-2.726562v5.453125zm0 0"/><path d="m153.238281 226.355469-4.726562-2.726563v5.453125zm0 0"/><path d="m157.960938 229.082031-4.722657-2.726562v5.453125zm0 0"/><path d="m191.019531 237.261719-4.722656-2.726563v5.453125zm0 0"/><path d="m195.742188 234.535156-4.722657-2.726562v5.453125zm0 0"/><path d="m200.464844 231.808594-4.722656-2.726563v5.453125zm0 0"/><path d="m233.527344 212.722656-4.722656-2.726562v5.453125zm0 0"/><path d="m242.972656 196.359375-4.722656-2.726563v5.453126zm0 0"/><path d="m242.972656 180-4.722656-2.726562v5.453124zm0 0"/><path d="m242.972656 174.546875-4.722656-2.726563v5.453126zm0 0"/><path d="m242.972656 158.1875-4.722656-2.730469v5.457031zm0 0"/><path d="m238.25 144.550781-4.722656-2.726562v5.453125zm0 0"/><path d="m214.636719 130.917969-4.726563-2.726563v5.453125zm0 0"/><path d="m157.960938 125.464844-4.722657-2.726563v5.453125zm0 0"/><path d="m153.238281 128.191406-4.726562-2.726562v5.453125zm0 0"/><path d="m139.066406 136.371094-4.722656-2.726563v5.453125zm0 0"/><path d="m134.34375 139.097656-4.722656-2.726562v5.453125zm0 0"/><path d="m129.621094 141.824219-4.722656-2.726563v5.453125zm0 0"/><path d="m124.898438 160.914062-4.722657-2.726562v5.453125zm0 0"/><path d="m124.898438 188.179688-4.722657-2.726563v5.453125zm0 0"/><path d="m124.898438 209.996094-4.722657-2.726563v5.453125zm0 0"/><path d="m134.34375 220.902344-4.722656-2.726563v5.453125zm0 0"/><path d="m153.238281 231.808594-4.726562-2.726563v5.453125zm0 0"/><path d="m167.40625 239.988281-4.722656-2.726562v5.453125zm0 0"/><path d="m176.851562 245.441406-4.722656-2.726562v5.457031zm0 0"/><path d="m200.464844 237.261719-4.722656-2.726563v5.453125zm0 0"/><path d="m205.1875 234.535156-4.722656-2.726562v5.453125zm0 0"/><path d="m214.636719 229.082031-4.726563-2.726562v5.453125zm0 0"/><path d="m219.359375 226.355469-4.722656-2.726563v5.453125zm0 0"/><path d="m224.082031 223.628906-4.722656-2.726562v5.453125zm0 0"/><path d="m228.804688 220.902344-4.722657-2.726563v5.453125zm0 0"/><path d="m233.527344 218.175781-4.722656-2.726562v5.453125zm0 0"/><path d="m247.695312 209.996094-4.722656-2.726563v5.453125zm0 0"/><path d="m247.695312 199.085938-4.722656-2.726563v5.453125zm0 0"/><path d="m247.695312 193.632812-4.722656-2.726562v5.453125zm0 0"/><path d="m247.695312 171.820312-4.722656-2.726562v5.453125zm0 0"/><path d="m247.695312 160.914062-4.722656-2.726562v5.453125zm0 0"/><path d="m247.695312 150.003906-4.722656-2.726562v5.453125zm0 0"/><path d="m242.972656 141.824219-4.722656-2.726563v5.453125zm0 0"/><path d="m233.527344 136.371094-4.722656-2.726563v5.453125zm0 0"/><path d="m224.082031 130.917969-4.722656-2.726563v5.453125zm0 0"/><path d="m200.464844 117.285156-4.722656-2.726562v5.453125zm0 0"/><path d="m195.742188 114.558594-4.722657-2.730469v5.457031zm0 0"/><path d="m181.574219 106.375-4.722657-2.726562v5.453124zm0 0"/><path d="m172.128906 111.828125-4.722656-2.726563v5.457032zm0 0"/><path d="m162.683594 117.285156-4.722656-2.726562v5.453125zm0 0"/><path d="m153.238281 122.738281-4.726562-2.726562v5.453125zm0 0"/><path d="m143.789062 128.191406-4.722656-2.726562v5.453125zm0 0"/><path d="m139.066406 130.917969-4.722656-2.726563v5.453125zm0 0"/><path d="m134.34375 133.644531-4.722656-2.726562v5.453125zm0 0"/><path d="m124.898438 139.097656-4.722657-2.726562v5.453125zm0 0"/><path d="m120.175781 163.640625-4.722656-2.726563v5.453126zm0 0"/><path d="m120.175781 174.546875-4.722656-2.726563v5.453126zm0 0"/><path d="m120.175781 180-4.722656-2.726562v5.453124zm0 0"/><path d="m120.175781 185.453125-4.722656-2.726563v5.453126zm0 0"/><path d="m120.175781 212.722656-4.722656-2.726562v5.453125zm0 0"/><path d="m124.898438 220.902344-4.722657-2.726563v5.453125zm0 0"/><path d="m139.066406 229.082031-4.722656-2.726562v5.453125zm0 0"/><path d="m148.511719 234.535156-4.722657-2.726562v5.453125zm0 0"/><path d="m157.960938 239.988281-4.722657-2.726562v5.453125zm0 0"/><path d="m162.683594 242.714844-4.722656-2.726563v5.453125zm0 0"/><path d="m172.128906 248.171875-4.722656-2.730469v5.457032zm0 0"/><path d="m181.574219 253.625-4.722657-2.726562v5.453124zm0 0"/><path d="m186.296875 250.898438-4.722656-2.726563v5.453125zm0 0"/><path d="m195.742188 245.441406-4.722657-2.726562v5.457031zm0 0"/><path d="m200.464844 242.714844-4.722656-2.726563v5.453125zm0 0"/><path d="m233.527344 223.628906-4.722656-2.726562v5.453125zm0 0"/><path d="m242.972656 218.175781-4.722656-2.726562v5.453125zm0 0"/><path d="m252.417969 201.8125-4.722657-2.726562v5.457031zm0 0"/><path d="m252.417969 169.09375-4.722657-2.726562v5.453124zm0 0"/><path d="m252.417969 158.1875-4.722657-2.730469v5.457031zm0 0"/><path d="m238.25 133.644531-4.722656-2.726562v5.453125zm0 0"/><path d="m233.527344 130.917969-4.722656-2.726563v5.453125zm0 0"/><path d="m219.359375 122.738281-4.722656-2.726562v5.453125zm0 0"/><path d="m209.910156 117.285156-4.722656-2.726562v5.453125zm0 0"/><path d="m205.1875 114.558594-4.722656-2.730469v5.457031zm0 0"/><path d="m186.296875 103.648438-4.722656-2.726563v5.453125zm0 0"/><path d="m181.574219 100.921875-4.722657-2.726563v5.453126zm0 0"/><path d="m167.40625 109.101562-4.722656-2.726562v5.453125zm0 0"/><path d="m153.238281 117.285156-4.726562-2.726562v5.453125zm0 0"/><path d="m139.066406 125.464844-4.722656-2.726563v5.453125zm0 0"/><path d="m134.34375 128.191406-4.722656-2.726562v5.453125zm0 0"/><path d="m129.621094 130.917969-4.722656-2.726563v5.453125zm0 0"/><path d="m124.898438 133.644531-4.722657-2.726562v5.453125zm0 0"/><path d="m120.175781 136.371094-4.722656-2.726563v5.453125zm0 0"/><path d="m115.453125 139.097656-4.722656-2.726562v5.453125zm0 0"/><path d="m115.453125 150.003906-4.722656-2.726562v5.453125zm0 0"/><path d="m115.453125 166.367188-4.722656-2.726563v5.453125zm0 0"/><path d="m115.453125 177.273438-4.722656-2.726563v5.453125zm0 0"/><path d="m115.453125 199.085938-4.722656-2.726563v5.453125zm0 0"/><path d="m115.453125 209.996094-4.722656-2.726563v5.453125zm0 0"/><path d="m115.453125 220.902344-4.722656-2.726563v5.453125zm0 0"/><path d="m162.683594 248.171875-4.722656-2.730469v5.457032zm0 0"/><path d="m167.40625 250.898438-4.722656-2.726563v5.453125zm0 0"/><path d="m195.742188 250.898438-4.722657-2.726563v5.453125zm0 0"/><path d="m200.464844 248.171875-4.722656-2.730469v5.457032zm0 0"/><path d="m224.082031 234.535156-4.722656-2.726562v5.453125zm0 0"/><path d="m238.25 226.355469-4.722656-2.726563v5.453125zm0 0"/><path d="m257.140625 215.449219-4.722656-2.726563v5.453125zm0 0"/><path d="m257.140625 209.996094-4.722656-2.726563v5.453125zm0 0"/><path d="m257.140625 171.820312-4.722656-2.726562v5.453125zm0 0"/><path d="m257.140625 160.914062-4.722656-2.726562v5.453125zm0 0"/><path d="m233.527344 125.464844-4.722656-2.726563v5.453125zm0 0"/><path d="m228.804688 122.738281-4.722657-2.726562v5.453125zm0 0"/><path d="m224.082031 120.011719-4.722656-2.726563v5.453125zm0 0"/><path d="m214.636719 114.558594-4.726563-2.730469v5.457031zm0 0"/><path d="m209.910156 111.828125-4.722656-2.726563v5.457032zm0 0"/><path d="m200.464844 106.375-4.722656-2.726562v5.453124zm0 0"/><path d="m181.574219 95.46875-4.722657-2.726562v5.453124zm0 0"/><path d="m162.683594 106.375-4.722656-2.726562v5.453124zm0 0"/><path d="m153.238281 111.828125-4.726562-2.726563v5.457032zm0 0"/><path d="m148.511719 114.558594-4.722657-2.730469v5.457031zm0 0"/><path d="m143.789062 117.285156-4.722656-2.726562v5.453125zm0 0"/><path d="m120.175781 130.917969-4.722656-2.726563v5.453125zm0 0"/><path d="m110.730469 136.371094-4.722657-2.726563v5.453125zm0 0"/><path d="m110.730469 158.1875-4.722657-2.730469v5.457031zm0 0"/><path d="m110.730469 185.453125-4.722657-2.726563v5.453126zm0 0"/><path d="m110.730469 190.90625-4.722657-2.726562v5.453124zm0 0"/><path d="m110.730469 196.359375-4.722657-2.726563v5.453126zm0 0"/><path d="m110.730469 212.722656-4.722657-2.726562v5.453125zm0 0"/><path d="m167.40625 256.351562-4.722656-2.726562v5.453125zm0 0"/><path d="m186.296875 261.804688-4.722656-2.726563v5.453125zm0 0"/><path d="m209.910156 248.171875-4.722656-2.730469v5.457032zm0 0"/><path d="m242.972656 229.082031-4.722656-2.726562v5.453125zm0 0"/><path d="m247.695312 226.355469-4.722656-2.726563v5.453125zm0 0"/><path d="m261.863281 201.8125-4.722656-2.726562v5.457031zm0 0"/><path d="m261.863281 180-4.722656-2.726562v5.453124zm0 0"/><path d="m261.863281 174.546875-4.722656-2.726563v5.453126zm0 0"/><path d="m261.863281 169.09375-4.722656-2.726562v5.453124zm0 0"/><path d="m257.140625 133.644531-4.722656-2.726562v5.453125zm0 0"/><path d="m252.417969 130.917969-4.722657-2.726563v5.453125zm0 0"/><path d="m247.695312 128.191406-4.722656-2.726562v5.453125zm0 0"/><path d="m233.527344 120.011719-4.722656-2.726563v5.453125zm0 0"/><path d="m228.804688 117.285156-4.722657-2.726562v5.453125zm0 0"/><path d="m195.742188 98.195312-4.722657-2.726562v5.453125zm0 0"/><path d="m186.296875 92.742188-4.722656-2.726563v5.453125zm0 0"/><path d="m181.574219 90.015625-4.722657-2.726563v5.453126zm0 0"/><path d="m153.238281 106.375-4.726562-2.726562v5.453124zm0 0"/><path d="m148.511719 109.101562-4.722657-2.726562v5.453125zm0 0"/><path d="m120.175781 125.464844-4.722656-2.726563v5.453125zm0 0"/><path d="m106.007812 144.550781-4.722656-2.726562v5.453125zm0 0"/><path d="m106.007812 150.003906-4.722656-2.726562v5.453125zm0 0"/><path d="m106.007812 193.632812-4.722656-2.726562v5.453125zm0 0"/><path d="m106.007812 209.996094-4.722656-2.726563v5.453125zm0 0"/><path d="m106.007812 226.355469-4.722656-2.726563v5.453125zm0 0"/><path d="m134.34375 242.714844-4.722656-2.726563v5.453125zm0 0"/><path d="m143.789062 248.171875-4.722656-2.730469v5.457032zm0 0"/><path d="m172.128906 264.53125-4.722656-2.726562v5.453124zm0 0"/><path d="m176.851562 267.257812-4.722656-2.726562v5.453125zm0 0"/><path d="m181.574219 269.984375-4.722657-2.726563v5.453126zm0 0"/><path d="m214.636719 250.898438-4.726563-2.726563v5.453125zm0 0"/><path d="m219.359375 248.171875-4.722656-2.730469v5.457032zm0 0"/><path d="m252.417969 229.082031-4.722657-2.726562v5.453125zm0 0"/><path d="m266.585938 209.996094-4.722657-2.726563v5.453125zm0 0"/><path d="m266.585938 204.542969-4.722657-2.730469v5.457031zm0 0"/><path d="m266.585938 199.085938-4.722657-2.726563v5.453125zm0 0"/><path d="m266.585938 177.273438-4.722657-2.726563v5.453125zm0 0"/><path d="m266.585938 160.914062-4.722657-2.726562v5.453125zm0 0"/><path d="m266.585938 139.097656-4.722657-2.726562v5.453125zm0 0"/><path d="m266.585938 133.644531-4.722657-2.726562v5.453125zm0 0"/><path d="m261.863281 130.917969-4.722656-2.726563v5.453125zm0 0"/><path d="m257.140625 128.191406-4.722656-2.726562v5.453125zm0 0"/><path d="m238.25 117.285156-4.722656-2.726562v5.453125zm0 0"/><path d="m200.464844 95.46875-4.722656-2.726562v5.453124zm0 0"/><path d="m191.019531 90.015625-4.722656-2.726563v5.453126zm0 0"/><path d="m167.40625 92.742188-4.722656-2.726563v5.453125zm0 0"/><path d="m153.238281 100.921875-4.726562-2.726563v5.453126zm0 0"/><path d="m143.789062 106.375-4.722656-2.726562v5.453124zm0 0"/><path d="m129.621094 114.558594-4.722656-2.730469v5.457031zm0 0"/><path d="m115.453125 122.738281-4.722656-2.726562v5.453125zm0 0"/><path d="m110.730469 125.464844-4.722657-2.726563v5.453125zm0 0"/><path d="m101.285156 136.371094-4.722656-2.726563v5.453125zm0 0"/><path d="m101.285156 158.1875-4.722656-2.730469v5.457031zm0 0"/><path d="m101.285156 174.546875-4.722656-2.726563v5.453126zm0 0"/><path d="m101.285156 185.453125-4.722656-2.726563v5.453126zm0 0"/><path d="m101.285156 201.8125-4.722656-2.726562v5.457031zm0 0"/><path d="m101.285156 218.175781-4.722656-2.726562v5.453125zm0 0"/><path d="m101.285156 229.082031-4.722656-2.726562v5.453125zm0 0"/><path d="m110.730469 234.535156-4.722657-2.726562v5.453125zm0 0"/><path d="m120.175781 239.988281-4.722656-2.726562v5.453125zm0 0"/><path d="m148.511719 256.351562-4.722657-2.726562v5.453125zm0 0"/><path d="m181.574219 275.4375-4.722657-2.726562v5.453124zm0 0"/><path d="m186.296875 272.710938-4.722656-2.726563v5.453125zm0 0"/><path d="m191.019531 269.984375-4.722656-2.726563v5.453126zm0 0"/><path d="m205.1875 261.804688-4.722656-2.726563v5.453125zm0 0"/><path d="m209.910156 259.078125-4.722656-2.726563v5.453126zm0 0"/><path d="m214.636719 256.351562-4.726563-2.726562v5.453125zm0 0"/><path d="m247.695312 237.261719-4.722656-2.726563v5.453125zm0 0"/><path d="m261.863281 229.082031-4.722656-2.726562v5.453125zm0 0"/><path d="m271.308594 229.082031-4.722656-2.726562v5.453125zm0 0"/><path d="m271.308594 223.628906-4.722656-2.726562v5.453125zm0 0"/><path d="m271.308594 218.175781-4.722656-2.726562v5.453125zm0 0"/><path d="m271.308594 201.8125-4.722656-2.726562v5.457031zm0 0"/><path d="m271.308594 190.90625-4.722656-2.726562v5.453124zm0 0"/><path d="m271.308594 180-4.722656-2.726562v5.453124zm0 0"/><path d="m271.308594 174.546875-4.722656-2.726563v5.453126zm0 0"/><path d="m271.308594 141.824219-4.722656-2.726563v5.453125zm0 0"/><path d="m261.863281 125.464844-4.722656-2.726563v5.453125zm0 0"/><path d="m257.140625 122.738281-4.722656-2.726562v5.453125zm0 0"/><path d="m252.417969 120.011719-4.722657-2.726563v5.453125zm0 0"/><path d="m247.695312 117.285156-4.722656-2.726562v5.453125zm0 0"/><path d="m233.527344 109.101562-4.722656-2.726562v5.453125zm0 0"/><path d="m219.359375 100.921875-4.722656-2.726563v5.453126zm0 0"/><path d="m214.636719 98.195312-4.726563-2.726562v5.453125zm0 0"/><path d="m200.464844 90.015625-4.722656-2.726563v5.453126zm0 0"/><path d="m195.742188 87.289062-4.722657-2.726562v5.453125zm0 0"/><path d="m186.296875 81.835938-4.722656-2.726563v5.453125zm0 0"/><path d="m176.851562 81.835938-4.722656-2.726563v5.453125zm0 0"/><path d="m167.40625 87.289062-4.722656-2.726562v5.453125zm0 0"/><path d="m153.238281 95.46875-4.726562-2.726562v5.453124zm0 0"/><path d="m143.789062 100.921875-4.722656-2.726563v5.453126zm0 0"/><path d="m129.621094 109.101562-4.722656-2.726562v5.453125zm0 0"/><path d="m120.175781 114.558594-4.722656-2.730469v5.457031zm0 0"/><path d="m96.5625 128.191406-4.722656-2.726562v5.453125zm0 0"/><path d="m96.5625 155.457031-4.722656-2.726562v5.457031zm0 0"/><path d="m96.5625 171.820312-4.722656-2.726562v5.453125zm0 0"/><path d="m96.5625 177.273438-4.722656-2.726563v5.453125zm0 0"/><path d="m96.5625 193.632812-4.722656-2.726562v5.453125zm0 0"/><path d="m96.5625 199.085938-4.722656-2.726563v5.453125zm0 0"/><path d="m96.5625 204.542969-4.722656-2.730469v5.457031zm0 0"/><path d="m96.5625 215.449219-4.722656-2.726563v5.453125zm0 0"/><path d="m96.5625 220.902344-4.722656-2.726563v5.453125zm0 0"/><path d="m106.007812 237.261719-4.722656-2.726563v5.453125zm0 0"/><path d="m110.730469 239.988281-4.722657-2.726562v5.453125zm0 0"/><path d="m124.898438 248.171875-4.722657-2.730469v5.457032zm0 0"/><path d="m139.066406 256.351562-4.722656-2.726562v5.453125zm0 0"/><path d="m148.511719 261.804688-4.722657-2.726563v5.453125zm0 0"/><path d="m162.683594 269.984375-4.722656-2.726563v5.453126zm0 0"/><path d="m172.128906 275.4375-4.722656-2.726562v5.453124zm0 0"/><path d="m176.851562 278.164062-4.722656-2.726562v5.453125zm0 0"/><path d="m181.574219 280.890625-4.722657-2.726563v5.453126zm0 0"/><path d="m214.636719 261.804688-4.726563-2.726563v5.453125zm0 0"/><path d="m219.359375 259.078125-4.722656-2.726563v5.453126zm0 0"/><path d="m224.082031 256.351562-4.722656-2.726562v5.453125zm0 0"/><path d="m228.804688 253.625-4.722657-2.726562v5.453124zm0 0"/><path d="m233.527344 250.898438-4.722656-2.726563v5.453125zm0 0"/><path d="m242.972656 245.441406-4.722656-2.726562v5.457031zm0 0"/><path d="m247.695312 242.714844-4.722656-2.726563v5.453125zm0 0"/><path d="m257.140625 237.261719-4.722656-2.726563v5.453125zm0 0"/><path d="m261.863281 234.535156-4.722656-2.726562v5.453125zm0 0"/><path d="m276.035156 231.808594-4.726562-2.726563v5.453125zm0 0"/><path d="m276.035156 226.355469-4.726562-2.726563v5.453125zm0 0"/><path d="m276.035156 220.902344-4.726562-2.726563v5.453125zm0 0"/><path d="m276.035156 209.996094-4.726562-2.726563v5.453125zm0 0"/><path d="m276.035156 177.273438-4.726562-2.726563v5.453125zm0 0"/><path d="m276.035156 171.820312-4.726562-2.726562v5.453125zm0 0"/><path d="m276.035156 166.367188-4.726562-2.726563v5.453125zm0 0"/><path d="m276.035156 160.914062-4.726562-2.726562v5.453125zm0 0"/><path d="m276.035156 139.097656-4.726562-2.726562v5.453125zm0 0"/><path d="m276.035156 128.191406-4.726562-2.726562v5.453125zm0 0"/><path d="m266.585938 122.738281-4.722657-2.726562v5.453125zm0 0"/><path d="m261.863281 120.011719-4.722656-2.726563v5.453125zm0 0"/><path d="m242.972656 109.101562-4.722656-2.726562v5.453125zm0 0"/><path d="m224.082031 98.195312-4.722656-2.726562v5.453125zm0 0"/><path d="m219.359375 95.46875-4.722656-2.726562v5.453124zm0 0"/><path d="m200.464844 84.5625-4.722656-2.726562v5.453124zm0 0"/><path d="m186.296875 76.382812-4.722656-2.726562v5.453125zm0 0"/><path d="m157.960938 87.289062-4.722657-2.726562v5.453125zm0 0"/><path d="m120.175781 109.101562-4.722656-2.726562v5.453125zm0 0"/><path d="m115.453125 111.828125-4.722656-2.726563v5.457032zm0 0"/><path d="m110.730469 114.558594-4.722657-2.730469v5.457031zm0 0"/><path d="m91.839844 130.917969-4.722656-2.726563v5.453125zm0 0"/><path d="m91.839844 136.371094-4.722656-2.726563v5.453125zm0 0"/><path d="m91.839844 147.277344-4.722656-2.726563v5.453125zm0 0"/><path d="m91.839844 174.546875-4.722656-2.726563v5.453126zm0 0"/><path d="m91.839844 190.90625-4.722656-2.726562v5.453124zm0 0"/><path d="m91.839844 212.722656-4.722656-2.726562v5.453125zm0 0"/><path d="m91.839844 218.175781-4.722656-2.726562v5.453125zm0 0"/><path d="m91.839844 229.082031-4.722656-2.726562v5.453125zm0 0"/><path d="m91.839844 234.535156-4.722656-2.726562v5.453125zm0 0"/><path d="m96.5625 237.261719-4.722656-2.726563v5.453125zm0 0"/><path d="m101.285156 239.988281-4.722656-2.726562v5.453125zm0 0"/><path d="m124.898438 253.625-4.722657-2.726562v5.453124zm0 0"/><path d="m143.789062 264.53125-4.722656-2.726562v5.453124zm0 0"/><path d="m148.511719 267.257812-4.722657-2.726562v5.453125zm0 0"/><path d="m162.683594 275.4375-4.722656-2.726562v5.453124zm0 0"/><path d="m176.851562 283.617188-4.722656-2.726563v5.453125zm0 0"/><path d="m209.910156 269.984375-4.722656-2.726563v5.453126zm0 0"/><path d="m233.527344 256.351562-4.722656-2.726562v5.453125zm0 0"/><path d="m252.417969 245.441406-4.722657-2.726562v5.457031zm0 0"/><path d="m261.863281 239.988281-4.722656-2.726562v5.453125zm0 0"/><path d="m266.585938 237.261719-4.722657-2.726563v5.453125zm0 0"/><path d="m271.308594 234.535156-4.722656-2.726562v5.453125zm0 0"/><path d="m280.757812 234.535156-4.722656-2.726562v5.453125zm0 0"/><path d="m280.757812 218.175781-4.722656-2.726562v5.453125zm0 0"/><path d="m280.757812 212.722656-4.722656-2.726562v5.453125zm0 0"/><path d="m280.757812 190.90625-4.722656-2.726562v5.453124zm0 0"/><path d="m280.757812 180-4.722656-2.726562v5.453124zm0 0"/><path d="m280.757812 163.640625-4.722656-2.726563v5.453126zm0 0"/><path d="m280.757812 141.824219-4.722656-2.726563v5.453125zm0 0"/><path d="m280.757812 130.917969-4.722656-2.726563v5.453125zm0 0"/><path d="m280.757812 125.464844-4.722656-2.726563v5.453125zm0 0"/><path d="m271.308594 120.011719-4.722656-2.726563v5.453125zm0 0"/><path d="m266.585938 117.285156-4.722657-2.726562v5.453125zm0 0"/><path d="m257.140625 111.828125-4.722656-2.726563v5.457032zm0 0"/><path d="m247.695312 106.375-4.722656-2.726562v5.453124zm0 0"/><path d="m224.082031 92.742188-4.722656-2.726563v5.453125zm0 0"/><path d="m214.636719 87.289062-4.726563-2.726562v5.453125zm0 0"/><path d="m205.1875 81.835938-4.722656-2.726563v5.453125zm0 0"/><path d="m191.019531 73.65625-4.722656-2.726562v5.453124zm0 0"/><path d="m153.238281 84.5625-4.726562-2.726562v5.453124zm0 0"/><path d="m143.789062 90.015625-4.722656-2.726563v5.453126zm0 0"/><path d="m110.730469 109.101562-4.722657-2.726562v5.453125zm0 0"/><path d="m106.007812 111.828125-4.722656-2.726563v5.457032zm0 0"/><path d="m101.285156 114.558594-4.722656-2.730469v5.457031zm0 0"/><path d="m87.117188 122.738281-4.726563-2.726562v5.453125zm0 0"/><path d="m87.117188 133.644531-4.726563-2.726562v5.453125zm0 0"/><path d="m87.117188 166.367188-4.726563-2.726563v5.453125zm0 0"/><path d="m87.117188 171.820312-4.726563-2.726562v5.453125zm0 0"/><path d="m87.117188 193.632812-4.726563-2.726562v5.453125zm0 0"/><path d="m87.117188 237.261719-4.726563-2.726563v5.453125zm0 0"/><path d="m91.839844 239.988281-4.722656-2.726562v5.453125zm0 0"/><path d="m101.285156 245.441406-4.722656-2.726562v5.457031zm0 0"/><path d="m124.898438 259.078125-4.722657-2.726563v5.453126zm0 0"/><path d="m143.789062 269.984375-4.722656-2.726563v5.453126zm0 0"/><path d="m162.683594 280.890625-4.722656-2.726563v5.453126zm0 0"/><path d="m181.574219 291.796875-4.722657-2.726563v5.457032zm0 0"/><path d="m195.742188 283.617188-4.722657-2.726563v5.453125zm0 0"/><path d="m214.636719 272.710938-4.726563-2.726563v5.453125zm0 0"/><path d="m242.972656 256.351562-4.722656-2.726562v5.453125zm0 0"/><path d="m247.695312 253.625-4.722656-2.726562v5.453124zm0 0"/><path d="m252.417969 250.898438-4.722657-2.726563v5.453125zm0 0"/><path d="m257.140625 248.171875-4.722656-2.730469v5.457032zm0 0"/><path d="m271.308594 239.988281-4.722656-2.726562v5.453125zm0 0"/><path d="m276.035156 237.261719-4.726562-2.726563v5.453125zm0 0"/><path d="m285.480469 237.261719-4.722657-2.726563v5.453125zm0 0"/><path d="m285.480469 231.808594-4.722657-2.726563v5.453125zm0 0"/><path d="m285.480469 215.449219-4.722657-2.726563v5.453125zm0 0"/><path d="m285.480469 204.542969-4.722657-2.730469v5.457031zm0 0"/><path d="m285.480469 171.820312-4.722657-2.726562v5.453125zm0 0"/><path d="m285.480469 160.914062-4.722657-2.726562v5.453125zm0 0"/><path d="m285.480469 150.003906-4.722657-2.726562v5.453125zm0 0"/><path d="m285.480469 139.097656-4.722657-2.726562v5.453125zm0 0"/><path d="m285.480469 128.191406-4.722657-2.726562v5.453125zm0 0"/><path d="m285.480469 122.738281-4.722657-2.726562v5.453125zm0 0"/><path d="m271.308594 114.558594-4.722656-2.730469v5.457031zm0 0"/><path d="m252.417969 103.648438-4.722657-2.726563v5.453125zm0 0"/><path d="m242.972656 98.195312-4.722656-2.726562v5.453125zm0 0"/><path d="m233.527344 92.742188-4.722656-2.726563v5.453125zm0 0"/><path d="m205.1875 76.382812-4.722656-2.726562v5.453125zm0 0"/><path d="m172.128906 68.203125-4.722656-2.730469v5.457032zm0 0"/><path d="m162.683594 73.65625-4.722656-2.726562v5.453124zm0 0"/><path d="m143.789062 84.5625-4.722656-2.726562v5.453124zm0 0"/><path d="m139.066406 87.289062-4.722656-2.726562v5.453125zm0 0"/><path d="m120.175781 98.195312-4.722656-2.726562v5.453125zm0 0"/><path d="m110.730469 103.648438-4.722657-2.726563v5.453125zm0 0"/><path d="m106.007812 106.375-4.722656-2.726562v5.453124zm0 0"/><path d="m91.839844 114.558594-4.722656-2.730469v5.457031zm0 0"/><path d="m82.390625 136.371094-4.722656-2.726563v5.453125zm0 0"/><path d="m82.390625 158.1875-4.722656-2.730469v5.457031zm0 0"/><path d="m82.390625 180-4.722656-2.726562v5.453124zm0 0"/><path d="m82.390625 190.90625-4.722656-2.726562v5.453124zm0 0"/><path d="m82.390625 196.359375-4.722656-2.726563v5.453126zm0 0"/><path d="m82.390625 207.269531-4.722656-2.726562v5.453125zm0 0"/><path d="m82.390625 218.175781-4.722656-2.726562v5.453125zm0 0"/><path d="m82.390625 229.082031-4.722656-2.726562v5.453125zm0 0"/><path d="m82.390625 234.535156-4.722656-2.726562v5.453125zm0 0"/><path d="m82.390625 239.988281-4.722656-2.726562v5.453125zm0 0"/><path d="m87.117188 242.714844-4.726563-2.726563v5.453125zm0 0"/><path d="m96.5625 248.171875-4.722656-2.730469v5.457032zm0 0"/><path d="m120.175781 261.804688-4.722656-2.726563v5.453125zm0 0"/><path d="m129.621094 267.257812-4.722656-2.726562v5.453125zm0 0"/><path d="m139.066406 272.710938-4.722656-2.726563v5.453125zm0 0"/><path d="m148.511719 278.164062-4.722657-2.726562v5.453125zm0 0"/><path d="m153.238281 280.890625-4.726562-2.726563v5.453126zm0 0"/><path d="m176.851562 294.527344-4.722656-2.730469v5.457031zm0 0"/><path d="m181.574219 297.253906-4.722657-2.726562v5.453125zm0 0"/><path d="m186.296875 294.527344-4.722656-2.730469v5.457031zm0 0"/><path d="m191.019531 291.796875-4.722656-2.726563v5.457032zm0 0"/><path d="m195.742188 289.070312-4.722657-2.726562v5.453125zm0 0"/><path d="m209.910156 280.890625-4.722656-2.726563v5.453126zm0 0"/><path d="m224.082031 272.710938-4.722656-2.726563v5.453125zm0 0"/><path d="m261.863281 250.898438-4.722656-2.726563v5.453125zm0 0"/><path d="m266.585938 248.171875-4.722657-2.730469v5.457032zm0 0"/><path d="m276.035156 242.714844-4.726562-2.726563v5.453125zm0 0"/><path d="m280.757812 239.988281-4.722656-2.726562v5.453125zm0 0"/><path d="m290.203125 239.988281-4.722656-2.726562v5.453125zm0 0"/><path d="m290.203125 229.082031-4.722656-2.726562v5.453125zm0 0"/><path d="m290.203125 223.628906-4.722656-2.726562v5.453125zm0 0"/><path d="m290.203125 207.269531-4.722656-2.726562v5.453125zm0 0"/><path d="m290.203125 190.90625-4.722656-2.726562v5.453124zm0 0"/><path d="m290.203125 185.453125-4.722656-2.726563v5.453126zm0 0"/><path d="m290.203125 174.546875-4.722656-2.726563v5.453126zm0 0"/><path d="m290.203125 163.640625-4.722656-2.726563v5.453126zm0 0"/><path d="m290.203125 147.277344-4.722656-2.726563v5.453125zm0 0"/><path d="m290.203125 130.917969-4.722656-2.726563v5.453125zm0 0"/><path d="m290.203125 125.464844-4.722656-2.726563v5.453125zm0 0"/><path d="m290.203125 120.011719-4.722656-2.726563v5.453125zm0 0"/><path d="m280.757812 114.558594-4.722656-2.730469v5.457031zm0 0"/><path d="m252.417969 98.195312-4.722657-2.726562v5.453125zm0 0"/><path d="m233.527344 87.289062-4.722656-2.726562v5.453125zm0 0"/><path d="m219.359375 79.109375-4.722656-2.726563v5.453126zm0 0"/><path d="m214.636719 76.382812-4.726563-2.726562v5.453125zm0 0"/><path d="m205.1875 70.929688-4.722656-2.726563v5.453125zm0 0"/><path d="m200.464844 68.203125-4.722656-2.730469v5.457032zm0 0"/><path d="m176.851562 60.019531-4.722656-2.726562v5.453125zm0 0"/><path d="m110.730469 98.195312-4.722657-2.726562v5.453125zm0 0"/><path d="m96.5625 106.375-4.722656-2.726562v5.453124zm0 0"/><path d="m87.117188 111.828125-4.726563-2.726563v5.457032zm0 0"/><path d="m77.667969 133.644531-4.722657-2.726562v5.453125zm0 0"/><path d="m77.667969 144.550781-4.722657-2.726562v5.453125zm0 0"/><path d="m77.667969 171.820312-4.722657-2.726562v5.453125zm0 0"/><path d="m77.667969 188.179688-4.722657-2.726563v5.453125zm0 0"/><path d="m77.667969 193.632812-4.722657-2.726562v5.453125zm0 0"/><path d="m77.667969 199.085938-4.722657-2.726563v5.453125zm0 0"/><path d="m77.667969 209.996094-4.722657-2.726563v5.453125zm0 0"/><path d="m77.667969 226.355469-4.722657-2.726563v5.453125zm0 0"/><path d="m77.667969 237.261719-4.722657-2.726563v5.453125zm0 0"/><path d="m87.117188 248.171875-4.726563-2.730469v5.457032zm0 0"/><path d="m106.007812 259.078125-4.722656-2.726563v5.453126zm0 0"/><path d="m115.453125 264.53125-4.722656-2.726562v5.453124zm0 0"/><path d="m120.175781 267.257812-4.722656-2.726562v5.453125zm0 0"/><path d="m129.621094 272.710938-4.722656-2.726563v5.453125zm0 0"/><path d="m143.789062 280.890625-4.722656-2.726563v5.453126zm0 0"/><path d="m153.238281 286.34375-4.726562-2.726562v5.453124zm0 0"/><path d="m157.960938 289.070312-4.722657-2.726562v5.453125zm0 0"/><path d="m162.683594 291.796875-4.722656-2.726563v5.457032zm0 0"/><path d="m172.128906 297.253906-4.722656-2.726562v5.453125zm0 0"/><path d="m200.464844 291.796875-4.722656-2.726563v5.457032zm0 0"/><path d="m205.1875 289.070312-4.722656-2.726562v5.453125zm0 0"/><path d="m209.910156 286.34375-4.722656-2.726562v5.453124zm0 0"/><path d="m214.636719 283.617188-4.726563-2.726563v5.453125zm0 0"/><path d="m247.695312 264.53125-4.722656-2.726562v5.453124zm0 0"/><path d="m252.417969 261.804688-4.722657-2.726563v5.453125zm0 0"/><path d="m261.863281 256.351562-4.722656-2.726562v5.453125zm0 0"/><path d="m266.585938 253.625-4.722657-2.726562v5.453124zm0 0"/><path d="m271.308594 250.898438-4.722656-2.726563v5.453125zm0 0"/><path d="m280.757812 245.441406-4.722656-2.726562v5.457031zm0 0"/><path d="m294.925781 242.714844-4.722656-2.726563v5.453125zm0 0"/><path d="m294.925781 237.261719-4.722656-2.726563v5.453125zm0 0"/><path d="m294.925781 220.902344-4.722656-2.726563v5.453125zm0 0"/><path d="m294.925781 204.542969-4.722656-2.730469v5.457031zm0 0"/><path d="m294.925781 182.726562-4.722656-2.726562v5.453125zm0 0"/><path d="m294.925781 166.367188-4.722656-2.726563v5.453125zm0 0"/><path d="m294.925781 160.914062-4.722656-2.726562v5.453125zm0 0"/><path d="m294.925781 139.097656-4.722656-2.726562v5.453125zm0 0"/><path d="m294.925781 133.644531-4.722656-2.726562v5.453125zm0 0"/><path d="m294.925781 117.285156-4.722656-2.726562v5.453125zm0 0"/><path d="m276.035156 106.375-4.726562-2.726562v5.453124zm0 0"/><path d="m266.585938 100.921875-4.722657-2.726563v5.453126zm0 0"/><path d="m261.863281 98.195312-4.722656-2.726562v5.453125zm0 0"/><path d="m252.417969 92.742188-4.722657-2.726563v5.453125zm0 0"/><path d="m247.695312 90.015625-4.722656-2.726563v5.453126zm0 0"/><path d="m224.082031 76.382812-4.722656-2.726562v5.453125zm0 0"/><path d="m219.359375 73.65625-4.722656-2.726562v5.453124zm0 0"/><path d="m195.742188 60.019531-4.722657-2.726562v5.453125zm0 0"/><path d="m191.019531 57.292969-4.722656-2.726563v5.453125zm0 0"/><path d="m176.851562 54.566406-4.722656-2.726562v5.453125zm0 0"/><path d="m162.683594 62.746094-4.722656-2.726563v5.453125zm0 0"/><path d="m153.238281 68.203125-4.726562-2.730469v5.457032zm0 0"/><path d="m129.621094 81.835938-4.722656-2.726563v5.453125zm0 0"/><path d="m120.175781 87.289062-4.722656-2.726562v5.453125zm0 0"/><path d="m115.453125 90.015625-4.722656-2.726563v5.453126zm0 0"/><path d="m101.285156 98.195312-4.722656-2.726562v5.453125zm0 0"/><path d="m82.390625 109.101562-4.722656-2.726562v5.453125zm0 0"/><path d="m72.945312 114.558594-4.722656-2.730469v5.457031zm0 0"/><path d="m72.945312 120.011719-4.722656-2.726563v5.453125zm0 0"/><path d="m72.945312 141.824219-4.722656-2.726563v5.453125zm0 0"/><path d="m72.945312 174.546875-4.722656-2.726563v5.453126zm0 0"/><path d="m72.945312 180-4.722656-2.726562v5.453124zm0 0"/><path d="m72.945312 185.453125-4.722656-2.726563v5.453126zm0 0"/><path d="m72.945312 218.175781-4.722656-2.726562v5.453125zm0 0"/><path d="m72.945312 245.441406-4.722656-2.726562v5.457031zm0 0"/><path d="m87.117188 253.625-4.726563-2.726562v5.453124zm0 0"/><path d="m91.839844 256.351562-4.722656-2.726562v5.453125zm0 0"/><path d="m106.007812 264.53125-4.722656-2.726562v5.453124zm0 0"/><path d="m110.730469 267.257812-4.722657-2.726562v5.453125zm0 0"/><path d="m115.453125 269.984375-4.722656-2.726563v5.453126zm0 0"/><path d="m120.175781 272.710938-4.722656-2.726563v5.453125zm0 0"/><path d="m134.34375 280.890625-4.722656-2.726563v5.453126zm0 0"/><path d="m162.683594 297.253906-4.722656-2.726562v5.453125zm0 0"/><path d="m172.128906 302.707031-4.722656-2.726562v5.453125zm0 0"/><path d="m200.464844 297.253906-4.722656-2.726562v5.453125zm0 0"/><path d="m205.1875 294.527344-4.722656-2.730469v5.457031zm0 0"/><path d="m219.359375 286.34375-4.722656-2.726562v5.453124zm0 0"/><path d="m238.25 275.4375-4.722656-2.726562v5.453124zm0 0"/><path d="m252.417969 267.257812-4.722657-2.726562v5.453125zm0 0"/><path d="m257.140625 264.53125-4.722656-2.726562v5.453124zm0 0"/><path d="m271.308594 256.351562-4.722656-2.726562v5.453125zm0 0"/><path d="m280.757812 250.898438-4.722656-2.726563v5.453125zm0 0"/><path d="m290.203125 245.441406-4.722656-2.726562v5.457031zm0 0"/><path d="m299.648438 207.269531-4.722657-2.726562v5.453125zm0 0"/><path d="m299.648438 185.453125-4.722657-2.726563v5.453126zm0 0"/><path d="m299.648438 180-4.722657-2.726562v5.453124zm0 0"/><path d="m299.648438 174.546875-4.722657-2.726563v5.453126zm0 0"/><path d="m299.648438 169.09375-4.722657-2.726562v5.453124zm0 0"/><path d="m299.648438 141.824219-4.722657-2.726563v5.453125zm0 0"/><path d="m299.648438 120.011719-4.722657-2.726563v5.453125zm0 0"/><path d="m299.648438 114.558594-4.722657-2.730469v5.457031zm0 0"/><path d="m290.203125 109.101562-4.722656-2.726562v5.453125zm0 0"/><path d="m280.757812 103.648438-4.722656-2.726563v5.453125zm0 0"/><path d="m276.035156 100.921875-4.726562-2.726563v5.453126zm0 0"/><path d="m271.308594 98.195312-4.722656-2.726562v5.453125zm0 0"/><path d="m266.585938 95.46875-4.722657-2.726562v5.453124zm0 0"/><path d="m261.863281 92.742188-4.722656-2.726563v5.453125zm0 0"/><path d="m228.804688 73.65625-4.722657-2.726562v5.453124zm0 0"/><path d="m214.636719 65.472656-4.726563-2.726562v5.457031zm0 0"/><path d="m209.910156 62.746094-4.722656-2.726563v5.453125zm0 0"/><path d="m205.1875 60.019531-4.722656-2.726562v5.453125zm0 0"/><path d="m191.019531 51.839844-4.722656-2.726563v5.453125zm0 0"/><path d="m162.683594 57.292969-4.722656-2.726563v5.453125zm0 0"/><path d="m148.511719 65.472656-4.722657-2.726562v5.457031zm0 0"/><path d="m115.453125 84.5625-4.722656-2.726562v5.453124zm0 0"/><path d="m106.007812 90.015625-4.722656-2.726563v5.453126zm0 0"/><path d="m101.285156 92.742188-4.722656-2.726563v5.453125zm0 0"/><path d="m96.5625 95.46875-4.722656-2.726562v5.453124zm0 0"/><path d="m91.839844 98.195312-4.722656-2.726562v5.453125zm0 0"/><path d="m87.117188 100.921875-4.726563-2.726563v5.453126zm0 0"/><path d="m68.222656 122.738281-4.722656-2.726562v5.453125zm0 0"/><path d="m68.222656 155.457031-4.722656-2.726562v5.457031zm0 0"/><path d="m68.222656 182.726562-4.722656-2.726562v5.453125zm0 0"/><path d="m68.222656 209.996094-4.722656-2.726563v5.453125zm0 0"/><path d="m68.222656 220.902344-4.722656-2.726563v5.453125zm0 0"/><path d="m68.222656 231.808594-4.722656-2.726563v5.453125zm0 0"/><path d="m82.390625 256.351562-4.722656-2.726562v5.453125zm0 0"/><path d="m87.117188 259.078125-4.726563-2.726563v5.453126zm0 0"/><path d="m96.5625 264.53125-4.722656-2.726562v5.453124zm0 0"/><path d="m101.285156 267.257812-4.722656-2.726562v5.453125zm0 0"/><path d="m115.453125 275.4375-4.722656-2.726562v5.453124zm0 0"/><path d="m120.175781 278.164062-4.722656-2.726562v5.453125zm0 0"/><path d="m124.898438 280.890625-4.722657-2.726563v5.453126zm0 0"/><path d="m157.960938 299.980469-4.722657-2.726563v5.453125zm0 0"/><path d="m167.40625 305.433594-4.722656-2.726563v5.453125zm0 0"/><path d="m176.851562 310.886719-4.722656-2.726563v5.453125zm0 0"/><path d="m186.296875 310.886719-4.722656-2.726563v5.453125zm0 0"/><path d="m195.742188 305.433594-4.722657-2.726563v5.453125zm0 0"/><path d="m200.464844 302.707031-4.722656-2.726562v5.453125zm0 0"/><path d="m209.910156 297.253906-4.722656-2.726562v5.453125zm0 0"/><path d="m228.804688 286.34375-4.722657-2.726562v5.453124zm0 0"/><path d="m257.140625 269.984375-4.722656-2.726563v5.453126zm0 0"/><path d="m266.585938 264.53125-4.722657-2.726562v5.453124zm0 0"/><path d="m276.035156 259.078125-4.726562-2.726563v5.453126zm0 0"/><path d="m280.757812 256.351562-4.722656-2.726562v5.453125zm0 0"/><path d="m304.371094 220.902344-4.722656-2.726563v5.453125zm0 0"/><path d="m304.371094 193.632812-4.722656-2.726562v5.453125zm0 0"/><path d="m304.371094 139.097656-4.722656-2.726562v5.453125zm0 0"/><path d="m304.371094 122.738281-4.722656-2.726562v5.453125zm0 0"/><path d="m299.648438 109.101562-4.722657-2.726562v5.453125zm0 0"/><path d="m280.757812 98.195312-4.722656-2.726562v5.453125zm0 0"/><path d="m271.308594 92.742188-4.722656-2.726563v5.453125zm0 0"/><path d="m257.140625 84.5625-4.722656-2.726562v5.453124zm0 0"/><path d="m247.695312 79.109375-4.722656-2.726563v5.453126zm0 0"/><path d="m228.804688 68.203125-4.722657-2.730469v5.457032zm0 0"/><path d="m205.1875 54.566406-4.722656-2.726562v5.453125zm0 0"/><path d="m200.464844 51.839844-4.722656-2.726563v5.453125zm0 0"/><path d="m195.742188 49.113281-4.722657-2.726562v5.453125zm0 0"/><path d="m191.019531 46.386719-4.722656-2.726563v5.453125zm0 0"/><path d="m63.5 114.558594-4.722656-2.730469v5.457031zm0 0"/><path d="m63.5 125.464844-4.722656-2.726563v5.453125zm0 0"/><path d="m63.5 130.917969-4.722656-2.726563v5.453125zm0 0"/><path d="m63.5 136.371094-4.722656-2.726563v5.453125zm0 0"/><path d="m63.5 169.09375-4.722656-2.726562v5.453124zm0 0"/><path d="m63.5 201.8125-4.722656-2.726562v5.457031zm0 0"/><path d="m63.5 245.441406-4.722656-2.726562v5.457031zm0 0"/><path d="m68.222656 253.625-4.722656-2.726562v5.453124zm0 0"/><path d="m72.945312 256.351562-4.722656-2.726562v5.453125zm0 0"/><path d="m77.667969 259.078125-4.722657-2.726563v5.453126zm0 0"/><path d="m91.839844 267.257812-4.722656-2.726562v5.453125zm0 0"/><path d="m110.730469 278.164062-4.722657-2.726562v5.453125zm0 0"/><path d="m115.453125 280.890625-4.722656-2.726563v5.453126zm0 0"/><path d="m120.175781 283.617188-4.722656-2.726563v5.453125zm0 0"/><path d="m124.898438 286.34375-4.722657-2.726562v5.453124zm0 0"/><path d="m129.621094 289.070312-4.722656-2.726562v5.453125zm0 0"/><path d="m143.789062 297.253906-4.722656-2.726562v5.453125zm0 0"/><path d="m172.128906 313.613281-4.722656-2.726562v5.453125zm0 0"/><path d="m181.574219 319.066406-4.722657-2.726562v5.453125zm0 0"/><path d="m209.910156 302.707031-4.722656-2.726562v5.453125zm0 0"/><path d="m214.636719 299.980469-4.726563-2.726563v5.453125zm0 0"/><path d="m219.359375 297.253906-4.722656-2.726562v5.453125zm0 0"/><path d="m224.082031 294.527344-4.722656-2.730469v5.457031zm0 0"/><path d="m228.804688 291.796875-4.722657-2.726563v5.457032zm0 0"/><path d="m276.035156 264.53125-4.726562-2.726562v5.453124zm0 0"/><path d="m294.925781 253.625-4.722656-2.726562v5.453124zm0 0"/><path d="m299.648438 250.898438-4.722657-2.726563v5.453125zm0 0"/><path d="m309.09375 239.988281-4.722656-2.726562v5.453125zm0 0"/><path d="m309.09375 229.082031-4.722656-2.726562v5.453125zm0 0"/><path d="m309.09375 207.269531-4.722656-2.726562v5.453125zm0 0"/><path d="m309.09375 169.09375-4.722656-2.726562v5.453124zm0 0"/><path d="m309.09375 152.730469-4.722656-2.726563v5.453125zm0 0"/><path d="m309.09375 147.277344-4.722656-2.726563v5.453125zm0 0"/><path d="m309.09375 141.824219-4.722656-2.726563v5.453125zm0 0"/><path d="m58.777344 122.738281-4.722656-2.726562v5.453125zm0 0"/><path d="m58.777344 133.644531-4.722656-2.726562v5.453125zm0 0"/><path d="m58.777344 150.003906-4.722656-2.726562v5.453125zm0 0"/><path d="m58.777344 199.085938-4.722656-2.726563v5.453125zm0 0"/><path d="m58.777344 204.542969-4.722656-2.730469v5.457031zm0 0"/><path d="m58.777344 209.996094-4.722656-2.726563v5.453125zm0 0"/><path d="m58.777344 231.808594-4.722656-2.726563v5.453125zm0 0"/><path d="m58.777344 237.261719-4.722656-2.726563v5.453125zm0 0"/><path d="m63.5 256.351562-4.722656-2.726562v5.453125zm0 0"/><path d="m68.222656 259.078125-4.722656-2.726563v5.453126zm0 0"/><path d="m87.117188 269.984375-4.726563-2.726563v5.453126zm0 0"/><path d="m96.5625 275.4375-4.722656-2.726562v5.453124zm0 0"/><path d="m115.453125 286.34375-4.722656-2.726562v5.453124zm0 0"/><path d="m120.175781 289.070312-4.722656-2.726562v5.453125zm0 0"/><path d="m134.34375 297.253906-4.722656-2.726562v5.453125zm0 0"/><path d="m143.789062 302.707031-4.722656-2.726562v5.453125zm0 0"/><path d="m162.683594 313.613281-4.722656-2.726562v5.453125zm0 0"/><path d="m172.128906 319.066406-4.722656-2.726562v5.453125zm0 0"/><path d="m176.851562 321.792969-4.722656-2.726563v5.453125zm0 0"/><path d="m181.574219 324.519531-4.722657-2.726562v5.453125zm0 0"/><path d="m186.296875 321.792969-4.722656-2.726563v5.453125zm0 0"/><path d="m200.464844 313.613281-4.722656-2.726562v5.453125zm0 0"/><path d="m205.1875 310.886719-4.722656-2.726563v5.453125zm0 0"/><path d="m242.972656 289.070312-4.722656-2.726562v5.453125zm0 0"/><path d="m252.417969 283.617188-4.722657-2.726563v5.453125zm0 0"/><path d="m266.585938 275.4375-4.722657-2.726562v5.453124zm0 0"/><path d="m271.308594 272.710938-4.722656-2.726563v5.453125zm0 0"/><path d="m276.035156 269.984375-4.726562-2.726563v5.453126zm0 0"/><path d="m280.757812 267.257812-4.722656-2.726562v5.453125zm0 0"/><path d="m313.816406 204.542969-4.722656-2.730469v5.457031zm0 0"/><path d="m313.816406 199.085938-4.722656-2.726563v5.453125zm0 0"/><path d="m313.816406 160.914062-4.722656-2.726562v5.453125zm0 0"/><path d="m313.816406 155.457031-4.722656-2.726562v5.457031zm0 0"/><path d="m313.816406 144.550781-4.722656-2.726562v5.453125zm0 0"/><path d="m313.816406 128.191406-4.722656-2.726562v5.453125zm0 0"/><path d="m54.054688 130.917969-4.722657-2.726563v5.453125zm0 0"/><path d="m54.054688 152.730469-4.722657-2.726563v5.453125zm0 0"/><path d="m54.054688 207.269531-4.722657-2.726562v5.453125zm0 0"/><path d="m54.054688 212.722656-4.722657-2.726562v5.453125zm0 0"/><path d="m54.054688 218.175781-4.722657-2.726562v5.453125zm0 0"/><path d="m54.054688 223.628906-4.722657-2.726562v5.453125zm0 0"/><path d="m54.054688 229.082031-4.722657-2.726562v5.453125zm0 0"/><path d="m54.054688 234.535156-4.722657-2.726562v5.453125zm0 0"/><path d="m54.054688 245.441406-4.722657-2.726562v5.457031zm0 0"/><path d="m54.054688 250.898438-4.722657-2.726563v5.453125zm0 0"/></g></svg>