<svg height="360pt" viewBox="0 0 360 360" width="360pt" xmlns="http://www.w3.org/2000/svg"><path d="m0 0h360v360h-360z" fill="#800080"/><g fill="#fff"><path d="m176.289062 173.574219 5.566407-3.214844v6.425781zm0 0"/><path d="m187.421875 173.574219 5.566406-3.214844v6.425781zm0 0"/><path d="m176.289062 167.144531 5.566407-3.210937v6.425781zm0 0"/><path d="m165.15625 180 5.566406-3.214844v6.429688zm0 0"/><path d="m187.421875 167.144531 5.566406-3.210937v6.425781zm0 0"/><path d="m170.722656 163.933594 5.566406-3.214844v6.425781zm0 0"/><path d="m165.15625 167.144531 5.566406-3.210937v6.425781zm0 0"/><path d="m159.589844 170.359375 5.566406-3.214844v6.429688zm0 0"/><path d="m159.589844 183.214844 5.566406-3.214844v6.425781zm0 0"/><path d="m159.589844 189.640625 5.566406-3.214844v6.429688zm0 0"/><path d="m181.855469 196.066406 5.566406-3.210937v6.425781zm0 0"/><path d="m187.421875 192.855469 5.566406-3.214844v6.425781zm0 0"/><path d="m198.554688 192.855469 5.5625-3.214844v6.425781zm0 0"/><path d="m198.554688 180 5.5625-3.214844v6.429688zm0 0"/><path d="m198.554688 167.144531 5.5625-3.210937v6.425781zm0 0"/><path d="m192.988281 163.933594 5.566407-3.214844v6.425781zm0 0"/><path d="m159.589844 163.933594 5.566406-3.214844v6.425781zm0 0"/><path d="m154.027344 186.425781 5.5625-3.210937v6.425781zm0 0"/><path d="m154.027344 192.855469 5.5625-3.214844v6.425781zm0 0"/><path d="m176.289062 205.707031 5.566407-3.210937v6.425781zm0 0"/><path d="m181.855469 202.496094 5.566406-3.214844v6.425781zm0 0"/><path d="m187.421875 199.28125 5.566406-3.214844v6.429688zm0 0"/><path d="m204.117188 189.640625 5.566406-3.214844v6.429688zm0 0"/><path d="m204.117188 170.359375 5.566406-3.214844v6.429688zm0 0"/><path d="m187.421875 154.292969 5.566406-3.214844v6.425781zm0 0"/><path d="m176.289062 147.863281 5.566407-3.210937v6.425781zm0 0"/><path d="m148.460938 189.640625 5.566406-3.214844v6.429688zm0 0"/><path d="m148.460938 196.066406 5.566406-3.210937v6.425781zm0 0"/><path d="m165.15625 205.707031 5.566406-3.210937v6.425781zm0 0"/><path d="m170.722656 208.921875 5.566406-3.214844v6.429688zm0 0"/><path d="m192.988281 202.496094 5.566407-3.214844v6.425781zm0 0"/><path d="m198.554688 199.28125 5.5625-3.214844v6.429688zm0 0"/><path d="m209.683594 186.425781 5.566406-3.210937v6.425781zm0 0"/><path d="m209.683594 167.144531 5.566406-3.210937v6.425781zm0 0"/><path d="m204.117188 157.503906 5.566406-3.210937v6.425781zm0 0"/><path d="m198.554688 154.292969 5.5625-3.214844v6.425781zm0 0"/><path d="m192.988281 151.078125 5.566407-3.214844v6.429688zm0 0"/><path d="m187.421875 147.863281 5.566406-3.210937v6.425781zm0 0"/><path d="m165.15625 147.863281 5.566406-3.210937v6.425781zm0 0"/><path d="m159.589844 151.078125 5.566406-3.214844v6.429688zm0 0"/><path d="m142.894531 173.574219 5.566407-3.214844v6.425781zm0 0"/><path d="m142.894531 192.855469 5.566407-3.214844v6.425781zm0 0"/><path d="m142.894531 199.28125 5.566407-3.214844v6.429688zm0 0"/><path d="m148.460938 202.496094 5.566406-3.214844v6.425781zm0 0"/><path d="m154.027344 205.707031 5.5625-3.210937v6.425781zm0 0"/><path d="m159.589844 208.921875 5.566406-3.214844v6.429688zm0 0"/><path d="m204.117188 202.496094 5.566406-3.214844v6.425781zm0 0"/><path d="m215.25 189.640625 5.566406-3.214844v6.429688zm0 0"/><path d="m215.25 183.214844 5.566406-3.214844v6.425781zm0 0"/><path d="m215.25 176.785156 5.566406-3.210937v6.425781zm0 0"/><path d="m215.25 157.503906 5.566406-3.210937v6.425781zm0 0"/><path d="m198.554688 147.863281 5.5625-3.210937v6.425781zm0 0"/><path d="m187.421875 141.4375 5.566406-3.210938v6.425782zm0 0"/><path d="m181.855469 138.226562 5.566406-3.214843v6.425781zm0 0"/><path d="m165.15625 141.4375 5.566406-3.210938v6.425782zm0 0"/><path d="m137.328125 170.359375 5.566406-3.214844v6.429688zm0 0"/><path d="m137.328125 176.785156 5.566406-3.210937v6.425781zm0 0"/><path d="m137.328125 183.214844 5.566406-3.214844v6.425781zm0 0"/><path d="m137.328125 196.066406 5.566406-3.210937v6.425781zm0 0"/><path d="m137.328125 202.496094 5.566406-3.214844v6.425781zm0 0"/><path d="m142.894531 205.707031 5.566407-3.210937v6.425781zm0 0"/><path d="m154.027344 212.136719 5.5625-3.214844v6.425781zm0 0"/><path d="m170.722656 221.773438 5.566406-3.210938v6.425781zm0 0"/><path d="m176.289062 224.988281 5.566407-3.214843v6.429687zm0 0"/><path d="m181.855469 221.773438 5.566406-3.210938v6.425781zm0 0"/><path d="m192.988281 215.347656 5.566407-3.210937v6.425781zm0 0"/><path d="m220.816406 199.28125 5.566406-3.214844v6.429688zm0 0"/><path d="m220.816406 192.855469 5.566406-3.214844v6.425781zm0 0"/><path d="m220.816406 186.425781 5.566406-3.210937v6.425781zm0 0"/><path d="m220.816406 173.574219 5.566406-3.214844v6.425781zm0 0"/><path d="m220.816406 160.71875 5.566406-3.214844v6.429688zm0 0"/><path d="m215.25 151.078125 5.566406-3.214844v6.429688zm0 0"/><path d="m209.683594 147.863281 5.566406-3.210937v6.425781zm0 0"/><path d="m198.554688 141.4375 5.5625-3.210938v6.425782zm0 0"/><path d="m187.421875 135.011719 5.566406-3.214844v6.429687zm0 0"/><path d="m148.460938 144.652344 5.566406-3.214844v6.425781zm0 0"/><path d="m131.761719 154.292969 5.566406-3.214844v6.425781zm0 0"/><path d="m131.761719 160.71875 5.566406-3.214844v6.429688zm0 0"/><path d="m131.761719 167.144531 5.566406-3.210937v6.425781zm0 0"/><path d="m131.761719 173.574219 5.566406-3.214844v6.425781zm0 0"/><path d="m131.761719 192.855469 5.566406-3.214844v6.425781zm0 0"/><path d="m131.761719 199.28125 5.566406-3.214844v6.429688zm0 0"/><path d="m137.328125 208.921875 5.566406-3.214844v6.429688zm0 0"/><path d="m148.460938 215.347656 5.566406-3.210937v6.425781zm0 0"/><path d="m154.027344 218.5625 5.5625-3.214844v6.425782zm0 0"/><path d="m159.589844 221.773438 5.566406-3.210938v6.425781zm0 0"/><path d="m165.15625 224.988281 5.566406-3.214843v6.429687zm0 0"/><path d="m170.722656 228.203125 5.566406-3.214844v6.425781zm0 0"/><path d="m181.855469 228.203125 5.566406-3.214844v6.425781zm0 0"/><path d="m198.554688 218.5625 5.5625-3.214844v6.425782zm0 0"/><path d="m204.117188 215.347656 5.566406-3.210937v6.425781zm0 0"/><path d="m209.683594 212.136719 5.566406-3.214844v6.425781zm0 0"/><path d="m215.25 208.921875 5.566406-3.214844v6.429688zm0 0"/><path d="m226.382812 196.066406 5.566407-3.210937v6.425781zm0 0"/><path d="m226.382812 189.640625 5.566407-3.214844v6.429688zm0 0"/><path d="m226.382812 176.785156 5.566407-3.210937v6.425781zm0 0"/><path d="m226.382812 170.359375 5.566407-3.214844v6.429688zm0 0"/><path d="m226.382812 163.933594 5.566407-3.214844v6.425781zm0 0"/><path d="m226.382812 151.078125 5.566407-3.214844v6.429688zm0 0"/><path d="m215.25 144.652344 5.566406-3.214844v6.425781zm0 0"/><path d="m192.988281 131.796875 5.566407-3.210937v6.425781zm0 0"/><path d="m176.289062 122.15625 5.566407-3.210938v6.425782zm0 0"/><path d="m165.15625 128.585938 5.566406-3.214844v6.425781zm0 0"/><path d="m154.027344 135.011719 5.5625-3.214844v6.429687zm0 0"/><path d="m131.761719 147.863281 5.566406-3.210937v6.425781zm0 0"/><path d="m126.195312 151.078125 5.566407-3.214844v6.429688zm0 0"/><path d="m126.195312 170.359375 5.566407-3.214844v6.429688zm0 0"/><path d="m126.195312 176.785156 5.566407-3.210937v6.425781zm0 0"/><path d="m126.195312 183.214844 5.566407-3.214844v6.425781zm0 0"/><path d="m126.195312 202.496094 5.566407-3.214844v6.425781zm0 0"/><path d="m126.195312 208.921875 5.566407-3.214844v6.429688zm0 0"/><path d="m142.894531 218.5625 5.566407-3.214844v6.425782zm0 0"/><path d="m154.027344 224.988281 5.5625-3.214843v6.429687zm0 0"/><path d="m159.589844 228.203125 5.566406-3.214844v6.425781zm0 0"/><path d="m176.289062 237.84375 5.566407-3.214844v6.425782zm0 0"/><path d="m192.988281 228.203125 5.566407-3.214844v6.425781zm0 0"/><path d="m204.117188 221.773438 5.566406-3.210938v6.425781zm0 0"/><path d="m209.683594 218.5625 5.566406-3.214844v6.425782zm0 0"/><path d="m231.949219 205.707031 5.566406-3.210937v6.425781zm0 0"/><path d="m231.949219 180 5.566406-3.214844v6.429688zm0 0"/><path d="m231.949219 173.574219 5.566406-3.214844v6.425781zm0 0"/><path d="m226.382812 144.652344 5.566407-3.214844v6.425781zm0 0"/><path d="m215.25 138.226562 5.566406-3.214843v6.425781zm0 0"/><path d="m204.117188 131.796875 5.566406-3.210937v6.425781zm0 0"/><path d="m142.894531 135.011719 5.566407-3.214844v6.429687zm0 0"/><path d="m137.328125 138.226562 5.566406-3.214843v6.425781zm0 0"/><path d="m120.628906 199.28125 5.566406-3.214844v6.429688zm0 0"/><path d="m120.628906 205.707031 5.566406-3.210937v6.425781zm0 0"/><path d="m165.15625 237.84375 5.566406-3.214844v6.425782zm0 0"/><path d="m170.722656 241.054688 5.566406-3.210938v6.425781zm0 0"/><path d="m176.289062 244.269531 5.566407-3.214843v6.429687zm0 0"/><path d="m192.988281 234.628906 5.566407-3.214844v6.429688zm0 0"/><path d="m215.25 221.773438 5.566406-3.210938v6.425781zm0 0"/><path d="m220.816406 218.5625 5.566406-3.214844v6.425782zm0 0"/><path d="m226.382812 215.347656 5.566407-3.210937v6.425781zm0 0"/><path d="m237.515625 196.066406 5.566406-3.210937v6.425781zm0 0"/><path d="m237.515625 189.640625 5.566406-3.214844v6.429688zm0 0"/><path d="m237.515625 176.785156 5.566406-3.210937v6.425781zm0 0"/><path d="m237.515625 170.359375 5.566406-3.214844v6.429688zm0 0"/><path d="m237.515625 163.933594 5.566406-3.214844v6.425781zm0 0"/><path d="m231.949219 141.4375 5.566406-3.210938v6.425782zm0 0"/><path d="m226.382812 138.226562 5.566407-3.214843v6.425781zm0 0"/><path d="m220.816406 135.011719 5.566406-3.214844v6.429687zm0 0"/><path d="m215.25 131.796875 5.566406-3.210937v6.425781zm0 0"/><path d="m209.683594 128.585938 5.566406-3.214844v6.425781zm0 0"/><path d="m176.289062 109.304688 5.566407-3.214844v6.425781zm0 0"/><path d="m170.722656 112.515625 5.566406-3.210937v6.425781zm0 0"/><path d="m142.894531 128.585938 5.566407-3.214844v6.425781zm0 0"/><path d="m137.328125 131.796875 5.566406-3.210937v6.425781zm0 0"/><path d="m131.761719 135.011719 5.566406-3.214844v6.429687zm0 0"/><path d="m126.195312 138.226562 5.566407-3.214843v6.425781zm0 0"/><path d="m115.0625 144.652344 5.566406-3.214844v6.425781zm0 0"/><path d="m115.0625 157.503906 5.566406-3.210937v6.425781zm0 0"/><path d="m115.0625 163.933594 5.566406-3.214844v6.425781zm0 0"/><path d="m115.0625 170.359375 5.566406-3.214844v6.429688zm0 0"/><path d="m115.0625 176.785156 5.566406-3.210937v6.425781zm0 0"/><path d="m115.0625 189.640625 5.566406-3.214844v6.429688zm0 0"/><path d="m115.0625 215.347656 5.566406-3.210937v6.425781zm0 0"/><path d="m126.195312 221.773438 5.566407-3.210938v6.425781zm0 0"/><path d="m148.460938 234.628906 5.566406-3.214844v6.429688zm0 0"/><path d="m159.589844 241.054688 5.566406-3.210938v6.425781zm0 0"/><path d="m165.15625 244.269531 5.566406-3.214843v6.429687zm0 0"/><path d="m170.722656 247.484375 5.566406-3.214844v6.425781zm0 0"/><path d="m192.988281 241.054688 5.566407-3.210938v6.425781zm0 0"/><path d="m226.382812 221.773438 5.566407-3.210938v6.425781zm0 0"/><path d="m231.949219 218.5625 5.566406-3.214844v6.425782zm0 0"/><path d="m243.082031 186.425781 5.5625-3.210937v6.425781zm0 0"/><path d="m243.082031 180 5.5625-3.214844v6.429688zm0 0"/><path d="m243.082031 147.863281 5.5625-3.210937v6.425781zm0 0"/><path d="m204.117188 118.945312 5.566406-3.214843v6.425781zm0 0"/><path d="m198.554688 115.730469 5.5625-3.214844v6.429687zm0 0"/><path d="m176.289062 102.875 5.566407-3.210938v6.425782zm0 0"/><path d="m159.589844 112.515625 5.566406-3.210937v6.425781zm0 0"/><path d="m154.027344 115.730469 5.5625-3.214844v6.429687zm0 0"/><path d="m142.894531 122.15625 5.566407-3.210938v6.425782zm0 0"/><path d="m131.761719 128.585938 5.566406-3.214844v6.425781zm0 0"/><path d="m126.195312 131.796875 5.566407-3.210937v6.425781zm0 0"/><path d="m109.5 141.4375 5.5625-3.210938v6.425782zm0 0"/><path d="m109.5 154.292969 5.5625-3.214844v6.425781zm0 0"/><path d="m109.5 160.71875 5.5625-3.214844v6.429688zm0 0"/><path d="m109.5 167.144531 5.5625-3.210937v6.425781zm0 0"/><path d="m109.5 173.574219 5.5625-3.214844v6.425781zm0 0"/><path d="m109.5 199.28125 5.5625-3.214844v6.429688zm0 0"/><path d="m109.5 218.5625 5.5625-3.214844v6.425782zm0 0"/><path d="m120.628906 224.988281 5.566406-3.214843v6.429687zm0 0"/><path d="m131.761719 231.414062 5.566406-3.210937v6.425781zm0 0"/><path d="m148.460938 241.054688 5.566406-3.210938v6.425781zm0 0"/><path d="m154.027344 244.269531 5.5625-3.214843v6.429687zm0 0"/><path d="m159.589844 247.484375 5.566406-3.214844v6.425781zm0 0"/><path d="m170.722656 253.910156 5.566406-3.214844v6.429688zm0 0"/><path d="m187.421875 250.695312 5.566406-3.210937v6.425781zm0 0"/><path d="m192.988281 247.484375 5.566407-3.214844v6.425781zm0 0"/><path d="m204.117188 241.054688 5.566406-3.210938v6.425781zm0 0"/><path d="m215.25 234.628906 5.566406-3.214844v6.429688zm0 0"/><path d="m231.949219 224.988281 5.566406-3.214843v6.429687zm0 0"/><path d="m248.644531 221.773438 5.566407-3.210938v6.425781zm0 0"/><path d="m248.644531 215.347656 5.566407-3.210937v6.425781zm0 0"/><path d="m248.644531 202.496094 5.566407-3.214844v6.425781zm0 0"/><path d="m248.644531 196.066406 5.566407-3.210937v6.425781zm0 0"/><path d="m248.644531 189.640625 5.566407-3.214844v6.429688zm0 0"/><path d="m248.644531 163.933594 5.566407-3.214844v6.425781zm0 0"/><path d="m248.644531 157.503906 5.566407-3.210937v6.425781zm0 0"/><path d="m248.644531 138.226562 5.566407-3.214843v6.425781zm0 0"/><path d="m226.382812 125.371094 5.566407-3.214844v6.429688zm0 0"/><path d="m220.816406 122.15625 5.566406-3.210938v6.425782zm0 0"/><path d="m192.988281 106.089844 5.566407-3.214844v6.429688zm0 0"/><path d="m187.421875 102.875 5.566406-3.210938v6.425782zm0 0"/><path d="m181.855469 99.664062 5.566406-3.214843v6.425781zm0 0"/><path d="m170.722656 99.664062 5.566406-3.214843v6.425781zm0 0"/><path d="m165.15625 102.875 5.566406-3.210938v6.425782zm0 0"/><path d="m148.460938 112.515625 5.566406-3.210937v6.425781zm0 0"/><path d="m137.328125 118.945312 5.566406-3.214843v6.425781zm0 0"/><path d="m131.761719 122.15625 5.566406-3.210938v6.425782zm0 0"/><path d="m126.195312 125.371094 5.566407-3.214844v6.429688zm0 0"/><path d="m120.628906 128.585938 5.566406-3.214844v6.425781zm0 0"/><path d="m103.933594 151.078125 5.566406-3.214844v6.429688zm0 0"/><path d="m103.933594 163.933594 5.566406-3.214844v6.425781zm0 0"/><path d="m103.933594 170.359375 5.566406-3.214844v6.429688zm0 0"/><path d="m103.933594 196.066406 5.566406-3.210937v6.425781zm0 0"/><path d="m103.933594 202.496094 5.566406-3.214844v6.425781zm0 0"/><path d="m103.933594 208.921875 5.566406-3.214844v6.429688zm0 0"/><path d="m103.933594 215.347656 5.566406-3.210937v6.425781zm0 0"/><path d="m103.933594 221.773438 5.566406-3.210938v6.425781zm0 0"/><path d="m109.5 224.988281 5.5625-3.214843v6.429687zm0 0"/><path d="m115.0625 228.203125 5.566406-3.214844v6.425781zm0 0"/><path d="m120.628906 231.414062 5.566406-3.210937v6.425781zm0 0"/><path d="m137.328125 241.054688 5.566406-3.210938v6.425781zm0 0"/><path d="m142.894531 244.269531 5.566407-3.214843v6.429687zm0 0"/><path d="m148.460938 247.484375 5.566406-3.214844v6.425781zm0 0"/><path d="m154.027344 250.695312 5.5625-3.210937v6.425781zm0 0"/><path d="m159.589844 253.910156 5.566406-3.214844v6.429688zm0 0"/><path d="m165.15625 257.125 5.566406-3.214844v6.425782zm0 0"/><path d="m170.722656 260.335938 5.566406-3.210938v6.425781zm0 0"/><path d="m181.855469 260.335938 5.566406-3.210938v6.425781zm0 0"/><path d="m187.421875 257.125 5.566406-3.214844v6.425782zm0 0"/><path d="m198.554688 250.695312 5.5625-3.210937v6.425781zm0 0"/><path d="m204.117188 247.484375 5.566406-3.214844v6.425781zm0 0"/><path d="m209.683594 244.269531 5.566406-3.214843v6.429687zm0 0"/><path d="m215.25 241.054688 5.566406-3.210938v6.425781zm0 0"/><path d="m254.210938 212.136719 5.566406-3.214844v6.425781zm0 0"/><path d="m254.210938 205.707031 5.566406-3.210937v6.425781zm0 0"/><path d="m254.210938 173.574219 5.566406-3.214844v6.425781zm0 0"/><path d="m248.644531 131.796875 5.566407-3.210937v6.425781zm0 0"/><path d="m243.082031 128.585938 5.5625-3.214844v6.425781zm0 0"/><path d="m226.382812 118.945312 5.566407-3.214843v6.425781zm0 0"/><path d="m220.816406 115.730469 5.566406-3.214844v6.429687zm0 0"/><path d="m215.25 112.515625 5.566406-3.210937v6.425781zm0 0"/><path d="m198.554688 102.875 5.5625-3.210938v6.425782zm0 0"/><path d="m192.988281 99.664062 5.566407-3.214843v6.425781zm0 0"/><path d="m187.421875 96.449219 5.566406-3.214844v6.429687zm0 0"/><path d="m170.722656 93.234375 5.566406-3.210937v6.425781zm0 0"/><path d="m165.15625 96.449219 5.566406-3.214844v6.429687zm0 0"/><path d="m159.589844 99.664062 5.566406-3.214843v6.425781zm0 0"/><path d="m120.628906 122.15625 5.566406-3.210938v6.425782zm0 0"/><path d="m103.933594 131.796875 5.566406-3.210937v6.425781zm0 0"/><path d="m98.367188 135.011719 5.566406-3.214844v6.429687zm0 0"/><path d="m98.367188 141.4375 5.566406-3.210938v6.425782zm0 0"/><path d="m98.367188 147.863281 5.566406-3.210937v6.425781zm0 0"/><path d="m98.367188 173.574219 5.566406-3.214844v6.425781zm0 0"/><path d="m98.367188 180 5.566406-3.214844v6.429688zm0 0"/><path d="m98.367188 186.425781 5.566406-3.210937v6.425781zm0 0"/><path d="m98.367188 218.5625 5.566406-3.214844v6.425782zm0 0"/><path d="m103.933594 228.203125 5.566406-3.214844v6.425781zm0 0"/><path d="m115.0625 234.628906 5.566406-3.214844v6.429688zm0 0"/><path d="m120.628906 237.84375 5.566406-3.214844v6.425782zm0 0"/><path d="m126.195312 241.054688 5.566407-3.210938v6.425781zm0 0"/><path d="m131.761719 244.269531 5.566406-3.214843v6.429687zm0 0"/><path d="m137.328125 247.484375 5.566406-3.214844v6.425781zm0 0"/><path d="m142.894531 250.695312 5.566407-3.210937v6.425781zm0 0"/><path d="m148.460938 253.910156 5.566406-3.214844v6.429688zm0 0"/><path d="m154.027344 257.125 5.5625-3.214844v6.425782zm0 0"/><path d="m159.589844 260.335938 5.566406-3.210938v6.425781zm0 0"/><path d="m165.15625 263.550781 5.566406-3.214843v6.429687zm0 0"/><path d="m170.722656 266.765625 5.566406-3.214844v6.425781zm0 0"/><path d="m181.855469 266.765625 5.566406-3.214844v6.425781zm0 0"/><path d="m187.421875 263.550781 5.566406-3.214843v6.429687zm0 0"/><path d="m204.117188 253.910156 5.566406-3.214844v6.429688zm0 0"/><path d="m220.816406 244.269531 5.566406-3.214843v6.429687zm0 0"/><path d="m226.382812 241.054688 5.566407-3.210938v6.425781zm0 0"/><path d="m259.777344 221.773438 5.566406-3.210938v6.425781zm0 0"/><path d="m259.777344 215.347656 5.566406-3.210937v6.425781zm0 0"/><path d="m259.777344 208.921875 5.566406-3.214844v6.429688zm0 0"/><path d="m259.777344 196.066406 5.566406-3.210937v6.425781zm0 0"/><path d="m259.777344 157.503906 5.566406-3.210937v6.425781zm0 0"/><path d="m259.777344 138.226562 5.566406-3.214843v6.425781zm0 0"/><path d="m259.777344 131.796875 5.566406-3.210937v6.425781zm0 0"/><path d="m254.210938 128.585938 5.566406-3.214844v6.425781zm0 0"/><path d="m237.515625 118.945312 5.566406-3.214843v6.425781zm0 0"/><path d="m226.382812 112.515625 5.566407-3.210937v6.425781zm0 0"/><path d="m215.25 106.089844 5.566406-3.214844v6.429688zm0 0"/><path d="m209.683594 102.875 5.566406-3.210938v6.425782zm0 0"/><path d="m204.117188 99.664062 5.566406-3.214843v6.425781zm0 0"/><path d="m192.988281 93.234375 5.566407-3.210937v6.425781zm0 0"/><path d="m187.421875 90.023438 5.566406-3.214844v6.425781zm0 0"/><path d="m176.289062 83.59375 5.566407-3.210938v6.425782zm0 0"/><path d="m142.894531 102.875 5.566407-3.210938v6.425782zm0 0"/><path d="m137.328125 106.089844 5.566406-3.214844v6.429688zm0 0"/><path d="m131.761719 109.304688 5.566406-3.214844v6.425781zm0 0"/><path d="m126.195312 112.515625 5.566407-3.210937v6.425781zm0 0"/><path d="m115.0625 118.945312 5.566406-3.214843v6.425781zm0 0"/><path d="m109.5 122.15625 5.5625-3.210938v6.425782zm0 0"/><path d="m92.800781 131.796875 5.566407-3.210937v6.425781zm0 0"/><path d="m92.800781 163.933594 5.566407-3.214844v6.425781zm0 0"/><path d="m92.800781 170.359375 5.566407-3.214844v6.429688zm0 0"/><path d="m92.800781 176.785156 5.566407-3.210937v6.425781zm0 0"/><path d="m92.800781 189.640625 5.566407-3.214844v6.429688zm0 0"/><path d="m92.800781 196.066406 5.566407-3.210937v6.425781zm0 0"/><path d="m92.800781 221.773438 5.566407-3.210938v6.425781zm0 0"/><path d="m92.800781 228.203125 5.566407-3.214844v6.425781zm0 0"/><path d="m98.367188 231.414062 5.566406-3.210937v6.425781zm0 0"/><path d="m115.0625 241.054688 5.566406-3.210938v6.425781zm0 0"/><path d="m120.628906 244.269531 5.566406-3.214843v6.429687zm0 0"/><path d="m142.894531 257.125 5.566407-3.214844v6.425782zm0 0"/><path d="m148.460938 260.335938 5.566406-3.210938v6.425781zm0 0"/><path d="m154.027344 263.550781 5.5625-3.214843v6.429687zm0 0"/><path d="m159.589844 266.765625 5.566406-3.214844v6.425781zm0 0"/><path d="m165.15625 269.976562 5.566406-3.210937v6.425781zm0 0"/><path d="m187.421875 269.976562 5.566406-3.210937v6.425781zm0 0"/><path d="m215.25 253.910156 5.566406-3.214844v6.429688zm0 0"/><path d="m231.949219 244.269531 5.566406-3.214843v6.429687zm0 0"/><path d="m237.515625 241.054688 5.566406-3.210938v6.425781zm0 0"/><path d="m248.644531 234.628906 5.566407-3.214844v6.429688zm0 0"/><path d="m254.210938 231.414062 5.566406-3.210937v6.425781zm0 0"/><path d="m265.34375 231.414062 5.566406-3.210937v6.425781zm0 0"/><path d="m265.34375 224.988281 5.566406-3.214843v6.429687zm0 0"/><path d="m265.34375 218.5625 5.566406-3.214844v6.425782zm0 0"/><path d="m265.34375 186.425781 5.566406-3.210937v6.425781zm0 0"/><path d="m265.34375 173.574219 5.566406-3.214844v6.425781zm0 0"/><path d="m265.34375 167.144531 5.566406-3.210937v6.425781zm0 0"/><path d="m265.34375 160.71875 5.566406-3.214844v6.429688zm0 0"/><path d="m265.34375 154.292969 5.566406-3.214844v6.425781zm0 0"/><path d="m265.34375 147.863281 5.566406-3.210937v6.425781zm0 0"/><path d="m265.34375 135.011719 5.566406-3.214844v6.429687zm0 0"/><path d="m254.210938 122.15625 5.566406-3.210938v6.425782zm0 0"/><path d="m248.644531 118.945312 5.566407-3.214843v6.425781zm0 0"/><path d="m243.082031 115.730469 5.5625-3.214844v6.429687zm0 0"/><path d="m237.515625 112.515625 5.566406-3.210937v6.425781zm0 0"/><path d="m226.382812 106.089844 5.566407-3.214844v6.429688zm0 0"/><path d="m215.25 99.664062 5.566406-3.214843v6.425781zm0 0"/><path d="m198.554688 90.023438 5.5625-3.214844v6.425781zm0 0"/><path d="m192.988281 86.808594 5.566407-3.214844v6.429688zm0 0"/><path d="m176.289062 77.167969 5.566407-3.214844v6.429687zm0 0"/><path d="m159.589844 86.808594 5.566406-3.214844v6.429688zm0 0"/><path d="m137.328125 99.664062 5.566406-3.214843v6.425781zm0 0"/><path d="m120.628906 109.304688 5.566406-3.214844v6.425781zm0 0"/><path d="m115.0625 112.515625 5.566406-3.210937v6.425781zm0 0"/><path d="m92.800781 125.371094 5.566407-3.214844v6.429688zm0 0"/><path d="m87.234375 135.011719 5.566406-3.214844v6.429687zm0 0"/><path d="m87.234375 147.863281 5.566406-3.210937v6.425781zm0 0"/><path d="m87.234375 160.71875 5.566406-3.214844v6.429688zm0 0"/><path d="m87.234375 167.144531 5.566406-3.210937v6.425781zm0 0"/><path d="m87.234375 173.574219 5.566406-3.214844v6.425781zm0 0"/><path d="m87.234375 218.5625 5.566406-3.214844v6.425782zm0 0"/><path d="m87.234375 224.988281 5.566406-3.214843v6.429687zm0 0"/><path d="m87.234375 231.414062 5.566406-3.210937v6.425781zm0 0"/><path d="m103.933594 241.054688 5.566406-3.210938v6.425781zm0 0"/><path d="m115.0625 247.484375 5.566406-3.214844v6.425781zm0 0"/><path d="m137.328125 260.335938 5.566406-3.210938v6.425781zm0 0"/><path d="m142.894531 263.550781 5.566407-3.214843v6.429687zm0 0"/><path d="m148.460938 266.765625 5.566406-3.214844v6.425781zm0 0"/><path d="m159.589844 273.191406 5.566406-3.214844v6.429688zm0 0"/><path d="m187.421875 276.40625 5.566406-3.214844v6.425782zm0 0"/><path d="m204.117188 266.765625 5.566406-3.214844v6.425781zm0 0"/><path d="m231.949219 250.695312 5.566406-3.210937v6.425781zm0 0"/><path d="m248.644531 241.054688 5.566407-3.210938v6.425781zm0 0"/><path d="m254.210938 237.84375 5.566406-3.214844v6.425782zm0 0"/><path d="m270.910156 234.628906 5.566406-3.214844v6.429688zm0 0"/><path d="m270.910156 221.773438 5.566406-3.210938v6.425781zm0 0"/><path d="m270.910156 215.347656 5.566406-3.210937v6.425781zm0 0"/><path d="m270.910156 189.640625 5.566406-3.214844v6.429688zm0 0"/><path d="m270.910156 176.785156 5.566406-3.210937v6.425781zm0 0"/><path d="m270.910156 170.359375 5.566406-3.214844v6.429688zm0 0"/><path d="m270.910156 157.503906 5.566406-3.210937v6.425781zm0 0"/><path d="m270.910156 151.078125 5.566406-3.214844v6.429688zm0 0"/><path d="m270.910156 138.226562 5.566406-3.214843v6.425781zm0 0"/><path d="m270.910156 131.796875 5.566406-3.210937v6.425781zm0 0"/><path d="m270.910156 125.371094 5.566406-3.214844v6.429688zm0 0"/><path d="m254.210938 115.730469 5.566406-3.214844v6.429687zm0 0"/><path d="m231.949219 102.875 5.566406-3.210938v6.425782zm0 0"/><path d="m215.25 93.234375 5.566406-3.210937v6.425781zm0 0"/><path d="m209.683594 90.023438 5.566406-3.214844v6.425781zm0 0"/><path d="m204.117188 86.808594 5.566406-3.214844v6.429688zm0 0"/><path d="m198.554688 83.59375 5.5625-3.210938v6.425782zm0 0"/><path d="m170.722656 73.953125 5.566406-3.210937v6.425781zm0 0"/><path d="m154.027344 83.59375 5.5625-3.210938v6.425782zm0 0"/><path d="m115.0625 106.089844 5.566406-3.214844v6.429688zm0 0"/><path d="m109.5 109.304688 5.5625-3.214844v6.425781zm0 0"/><path d="m103.933594 112.515625 5.566406-3.210937v6.425781zm0 0"/><path d="m81.667969 144.652344 5.566406-3.214844v6.425781zm0 0"/><path d="m81.667969 151.078125 5.566406-3.214844v6.429688zm0 0"/><path d="m81.667969 157.503906 5.566406-3.210937v6.425781zm0 0"/><path d="m81.667969 163.933594 5.566406-3.214844v6.425781zm0 0"/><path d="m81.667969 176.785156 5.566406-3.210937v6.425781zm0 0"/><path d="m81.667969 189.640625 5.566406-3.214844v6.429688zm0 0"/><path d="m81.667969 208.921875 5.566406-3.214844v6.429688zm0 0"/><path d="m81.667969 228.203125 5.566406-3.214844v6.425781zm0 0"/><path d="m81.667969 234.628906 5.566406-3.214844v6.429688zm0 0"/><path d="m103.933594 247.484375 5.566406-3.214844v6.425781zm0 0"/><path d="m109.5 250.695312 5.5625-3.210937v6.425781zm0 0"/><path d="m120.628906 257.125 5.566406-3.214844v6.425782zm0 0"/><path d="m192.988281 279.617188 5.566407-3.210938v6.425781zm0 0"/><path d="m220.816406 263.550781 5.566406-3.214843v6.429687zm0 0"/><path d="m243.082031 250.695312 5.5625-3.210937v6.425781zm0 0"/><path d="m259.777344 241.054688 5.566406-3.210938v6.425781zm0 0"/><path d="m276.476562 237.84375 5.566407-3.214844v6.425782zm0 0"/><path d="m276.476562 224.988281 5.566407-3.214843v6.429687zm0 0"/><path d="m276.476562 218.5625 5.566407-3.214844v6.425782zm0 0"/><path d="m276.476562 212.136719 5.566407-3.214844v6.425781zm0 0"/><path d="m276.476562 205.707031 5.566407-3.210937v6.425781zm0 0"/><path d="m276.476562 199.28125 5.566407-3.214844v6.429688zm0 0"/><path d="m276.476562 192.855469 5.566407-3.214844v6.425781zm0 0"/><path d="m276.476562 173.574219 5.566407-3.214844v6.425781zm0 0"/><path d="m276.476562 160.71875 5.566407-3.214844v6.429688zm0 0"/><path d="m276.476562 154.292969 5.566407-3.214844v6.425781zm0 0"/><path d="m276.476562 135.011719 5.566407-3.214844v6.429687zm0 0"/><path d="m276.476562 128.585938 5.566407-3.214844v6.425781zm0 0"/><path d="m265.34375 115.730469 5.566406-3.214844v6.429687zm0 0"/><path d="m259.777344 112.515625 5.566406-3.210937v6.425781zm0 0"/><path d="m248.644531 106.089844 5.566407-3.214844v6.429688zm0 0"/><path d="m243.082031 102.875 5.5625-3.210938v6.425782zm0 0"/><path d="m237.515625 99.664062 5.566406-3.214843v6.425781zm0 0"/><path d="m220.816406 90.023438 5.566406-3.214844v6.425781zm0 0"/><path d="m215.25 86.808594 5.566406-3.214844v6.429688zm0 0"/><path d="m204.117188 80.382812 5.566406-3.214843v6.425781zm0 0"/><path d="m192.988281 73.953125 5.566407-3.210937v6.425781zm0 0"/><path d="m170.722656 67.527344 5.566406-3.214844v6.429688zm0 0"/><path d="m165.15625 70.742188 5.566406-3.214844v6.425781zm0 0"/><path d="m159.589844 73.953125 5.566406-3.210937v6.425781zm0 0"/><path d="m154.027344 77.167969 5.5625-3.214844v6.429687zm0 0"/><path d="m142.894531 83.59375 5.566407-3.210938v6.425782zm0 0"/><path d="m98.367188 109.304688 5.566406-3.214844v6.425781zm0 0"/><path d="m76.101562 147.863281 5.566407-3.210937v6.425781zm0 0"/><path d="m76.101562 154.292969 5.566407-3.214844v6.425781zm0 0"/><path d="m76.101562 167.144531 5.566407-3.210937v6.425781zm0 0"/><path d="m76.101562 199.28125 5.566407-3.214844v6.429688zm0 0"/><path d="m76.101562 212.136719 5.566407-3.214844v6.425781zm0 0"/><path d="m76.101562 231.414062 5.566407-3.210937v6.425781zm0 0"/><path d="m103.933594 253.910156 5.566406-3.214844v6.429688zm0 0"/><path d="m126.195312 266.765625 5.566407-3.214844v6.425781zm0 0"/><path d="m204.117188 279.617188 5.566406-3.210938v6.425781zm0 0"/><path d="m220.816406 269.976562 5.566406-3.210937v6.425781zm0 0"/><path d="m226.382812 266.765625 5.566407-3.214844v6.425781zm0 0"/><path d="m237.515625 260.335938 5.566406-3.210938v6.425781zm0 0"/><path d="m243.082031 257.125 5.5625-3.214844v6.425782zm0 0"/><path d="m248.644531 253.910156 5.566407-3.214844v6.429688zm0 0"/><path d="m282.042969 228.203125 5.566406-3.214844v6.425781zm0 0"/><path d="m282.042969 221.773438 5.566406-3.210938v6.425781zm0 0"/><path d="m282.042969 202.496094 5.566406-3.214844v6.425781zm0 0"/><path d="m282.042969 189.640625 5.566406-3.214844v6.429688zm0 0"/><path d="m282.042969 183.214844 5.566406-3.214844v6.425781zm0 0"/><path d="m282.042969 163.933594 5.566406-3.214844v6.425781zm0 0"/><path d="m282.042969 144.652344 5.566406-3.214844v6.425781zm0 0"/><path d="m270.910156 112.515625 5.566406-3.210937v6.425781zm0 0"/><path d="m259.777344 106.089844 5.566406-3.214844v6.429688zm0 0"/><path d="m254.210938 102.875 5.566406-3.210938v6.425782zm0 0"/><path d="m248.644531 99.664062 5.566407-3.214843v6.425781zm0 0"/><path d="m237.515625 93.234375 5.566406-3.210937v6.425781zm0 0"/><path d="m231.949219 90.023438 5.566406-3.214844v6.425781zm0 0"/><path d="m226.382812 86.808594 5.566407-3.214844v6.429688zm0 0"/><path d="m220.816406 83.59375 5.566406-3.210938v6.425782zm0 0"/><path d="m209.683594 77.167969 5.566406-3.214844v6.429687zm0 0"/><path d="m204.117188 73.953125 5.566406-3.210937v6.425781zm0 0"/><path d="m198.554688 70.742188 5.5625-3.214844v6.425781zm0 0"/><path d="m131.761719 83.59375 5.566406-3.210938v6.425782zm0 0"/><path d="m126.195312 86.808594 5.566407-3.214844v6.429688zm0 0"/><path d="m70.535156 196.066406 5.566406-3.210937v6.425781zm0 0"/><path d="m70.535156 215.347656 5.566406-3.210937v6.425781zm0 0"/><path d="m70.535156 221.773438 5.566406-3.210938v6.425781zm0 0"/><path d="m92.800781 253.910156 5.566407-3.214844v6.429688zm0 0"/><path d="m98.367188 257.125 5.566406-3.214844v6.425782zm0 0"/><path d="m115.0625 266.765625 5.566406-3.214844v6.425781zm0 0"/><path d="m120.628906 269.976562 5.566406-3.210937v6.425781zm0 0"/><path d="m126.195312 273.191406 5.566407-3.214844v6.429688zm0 0"/><path d="m215.25 279.617188 5.566406-3.210938v6.425781zm0 0"/><path d="m220.816406 276.40625 5.566406-3.214844v6.425782zm0 0"/><path d="m231.949219 269.976562 5.566406-3.210937v6.425781zm0 0"/><path d="m237.515625 266.765625 5.566406-3.214844v6.425781zm0 0"/><path d="m243.082031 263.550781 5.5625-3.214843v6.429687zm0 0"/><path d="m248.644531 260.335938 5.566407-3.210938v6.425781zm0 0"/><path d="m259.777344 253.910156 5.566406-3.214844v6.429688zm0 0"/><path d="m287.609375 212.136719 5.5625-3.214844v6.425781zm0 0"/><path d="m287.609375 199.28125 5.5625-3.214844v6.429688zm0 0"/><path d="m287.609375 192.855469 5.5625-3.214844v6.425781zm0 0"/><path d="m287.609375 160.71875 5.5625-3.214844v6.429688zm0 0"/><path d="m287.609375 147.863281 5.5625-3.210937v6.425781zm0 0"/><path d="m270.910156 106.089844 5.566406-3.214844v6.429688zm0 0"/><path d="m265.34375 102.875 5.566406-3.210938v6.425782zm0 0"/><path d="m248.644531 93.234375 5.566407-3.210937v6.425781zm0 0"/><path d="m243.082031 90.023438 5.5625-3.214844v6.425781zm0 0"/><path d="m231.949219 83.59375 5.566406-3.210938v6.425782zm0 0"/><path d="m220.816406 77.167969 5.566406-3.214844v6.429687zm0 0"/><path d="m215.25 73.953125 5.566406-3.210937v6.425781zm0 0"/><path d="m126.195312 80.382812 5.566407-3.214843v6.425781zm0 0"/><path d="m64.972656 160.71875 5.5625-3.214844v6.429688zm0 0"/><path d="m64.972656 173.574219 5.5625-3.214844v6.425781zm0 0"/><path d="m64.972656 186.425781 5.5625-3.210937v6.425781zm0 0"/><path d="m64.972656 199.28125 5.5625-3.214844v6.429688zm0 0"/><path d="m64.972656 205.707031 5.5625-3.210937v6.425781zm0 0"/><path d="m64.972656 212.136719 5.5625-3.214844v6.425781zm0 0"/><path d="m237.515625 273.191406 5.566406-3.214844v6.429688zm0 0"/><path d="m259.777344 260.335938 5.566406-3.210938v6.425781zm0 0"/><path d="m265.34375 257.125 5.566406-3.214844v6.425782zm0 0"/><path d="m293.171875 183.214844 5.566406-3.214844v6.425781zm0 0"/><path d="m293.171875 163.933594 5.566406-3.214844v6.425781zm0 0"/><path d="m293.171875 144.652344 5.566406-3.214844v6.425781zm0 0"/><path d="m243.082031 83.59375 5.5625-3.210938v6.425782zm0 0"/><path d="m231.949219 77.167969 5.566406-3.214844v6.429687zm0 0"/><path d="m59.40625 170.359375 5.566406-3.214844v6.429688zm0 0"/><path d="m59.40625 176.785156 5.566406-3.210937v6.425781zm0 0"/><path d="m59.40625 196.066406 5.566406-3.210937v6.425781zm0 0"/><path d="m243.082031 276.40625 5.5625-3.214844v6.425782zm0 0"/><path d="m259.777344 266.765625 5.566406-3.214844v6.425781zm0 0"/><path d="m265.34375 263.550781 5.566406-3.214843v6.429687zm0 0"/><path d="m298.738281 186.425781 5.566407-3.210937v6.425781zm0 0"/><path d="m298.738281 180 5.566407-3.214844v6.429688zm0 0"/><path d="m298.738281 167.144531 5.566407-3.210937v6.425781zm0 0"/><path d="m53.839844 180 5.566406-3.214844v6.429688zm0 0"/><path d="m248.644531 279.617188 5.566407-3.210938v6.425781zm0 0"/><path d="m304.304688 176.785156 5.566406-3.210937v6.425781zm0 0"/><path d="m181.855469 170.359375-5.566407-3.214844v6.429688zm0 0"/><path d="m176.289062 180-5.566406-3.214844v6.429688zm0 0"/><path d="m198.554688 173.574219-5.566407-3.214844v6.425781zm0 0"/><path d="m192.988281 170.359375-5.566406-3.214844v6.429688zm0 0"/><path d="m176.289062 167.144531-5.566406-3.210937v6.425781zm0 0"/><path d="m170.722656 170.359375-5.566406-3.214844v6.429688zm0 0"/><path d="m181.855469 196.066406-5.566407-3.210937v6.425781zm0 0"/><path d="m204.117188 189.640625-5.5625-3.214844v6.429688zm0 0"/><path d="m204.117188 183.214844-5.5625-3.214844v6.425781zm0 0"/><path d="m187.421875 160.71875-5.566406-3.214844v6.429688zm0 0"/><path d="m181.855469 157.503906-5.566407-3.210937v6.425781zm0 0"/><path d="m165.15625 173.574219-5.566406-3.214844v6.425781zm0 0"/><path d="m165.15625 192.855469-5.566406-3.214844v6.425781zm0 0"/><path d="m176.289062 199.28125-5.566406-3.214844v6.429688zm0 0"/><path d="m181.855469 202.496094-5.566407-3.214844v6.425781zm0 0"/><path d="m192.988281 196.066406-5.566406-3.210937v6.425781zm0 0"/><path d="m198.554688 192.855469-5.566407-3.214844v6.425781zm0 0"/><path d="m209.683594 180-5.566406-3.214844v6.429688zm0 0"/><path d="m209.683594 167.144531-5.566406-3.210937v6.425781zm0 0"/><path d="m204.117188 163.933594-5.5625-3.214844v6.425781zm0 0"/><path d="m192.988281 157.503906-5.566406-3.210937v6.425781zm0 0"/><path d="m170.722656 157.503906-5.566406-3.210937v6.425781zm0 0"/><path d="m165.15625 160.71875-5.566406-3.214844v6.429688zm0 0"/><path d="m159.589844 163.933594-5.5625-3.214844v6.425781zm0 0"/><path d="m159.589844 176.785156-5.5625-3.210937v6.425781zm0 0"/><path d="m159.589844 196.066406-5.5625-3.210937v6.425781zm0 0"/><path d="m165.15625 199.28125-5.566406-3.214844v6.429688zm0 0"/><path d="m170.722656 202.496094-5.566406-3.214844v6.425781zm0 0"/><path d="m176.289062 205.707031-5.566406-3.210937v6.425781zm0 0"/><path d="m187.421875 205.707031-5.566406-3.210937v6.425781zm0 0"/><path d="m215.25 196.066406-5.566406-3.210937v6.425781zm0 0"/><path d="m215.25 189.640625-5.566406-3.214844v6.429688zm0 0"/><path d="m215.25 183.214844-5.566406-3.214844v6.425781zm0 0"/><path d="m215.25 170.359375-5.566406-3.214844v6.429688zm0 0"/><path d="m215.25 163.933594-5.566406-3.214844v6.425781zm0 0"/><path d="m198.554688 154.292969-5.566407-3.214844v6.425781zm0 0"/><path d="m192.988281 151.078125-5.566406-3.214844v6.429688zm0 0"/><path d="m159.589844 157.503906-5.5625-3.210937v6.425781zm0 0"/><path d="m154.027344 160.71875-5.566406-3.214844v6.429688zm0 0"/><path d="m154.027344 180-5.566406-3.214844v6.429688zm0 0"/><path d="m154.027344 186.425781-5.566406-3.210937v6.425781zm0 0"/><path d="m154.027344 199.28125-5.566406-3.214844v6.429688zm0 0"/><path d="m159.589844 202.496094-5.5625-3.214844v6.425781zm0 0"/><path d="m165.15625 205.707031-5.566406-3.210937v6.425781zm0 0"/><path d="m170.722656 208.921875-5.566406-3.214844v6.429688zm0 0"/><path d="m176.289062 212.136719-5.566406-3.214844v6.425781zm0 0"/><path d="m181.855469 215.347656-5.566407-3.210937v6.425781zm0 0"/><path d="m187.421875 212.136719-5.566406-3.214844v6.425781zm0 0"/><path d="m192.988281 208.921875-5.566406-3.214844v6.429688zm0 0"/><path d="m198.554688 205.707031-5.566407-3.210937v6.425781zm0 0"/><path d="m209.683594 199.28125-5.566406-3.214844v6.429688zm0 0"/><path d="m220.816406 199.28125-5.566406-3.214844v6.429688zm0 0"/><path d="m220.816406 167.144531-5.566406-3.210937v6.425781zm0 0"/><path d="m215.25 157.503906-5.566406-3.210937v6.425781zm0 0"/><path d="m209.683594 154.292969-5.566406-3.214844v6.425781zm0 0"/><path d="m192.988281 144.652344-5.566406-3.214844v6.425781zm0 0"/><path d="m170.722656 144.652344-5.566406-3.214844v6.425781zm0 0"/><path d="m165.15625 147.863281-5.566406-3.210937v6.425781zm0 0"/><path d="m148.460938 183.214844-5.566407-3.214844v6.425781zm0 0"/><path d="m148.460938 189.640625-5.566407-3.214844v6.429688zm0 0"/><path d="m148.460938 202.496094-5.566407-3.214844v6.425781zm0 0"/><path d="m159.589844 208.921875-5.5625-3.214844v6.429688zm0 0"/><path d="m170.722656 215.347656-5.566406-3.210937v6.425781zm0 0"/><path d="m181.855469 221.773438-5.566407-3.210938v6.425781zm0 0"/><path d="m187.421875 218.5625-5.566406-3.214844v6.425782zm0 0"/><path d="m204.117188 208.921875-5.5625-3.214844v6.429688zm0 0"/><path d="m226.382812 196.066406-5.566406-3.210937v6.425781zm0 0"/><path d="m226.382812 183.214844-5.566406-3.214844v6.425781zm0 0"/><path d="m226.382812 176.785156-5.566406-3.210937v6.425781zm0 0"/><path d="m226.382812 157.503906-5.566406-3.210937v6.425781zm0 0"/><path d="m220.816406 154.292969-5.566406-3.214844v6.425781zm0 0"/><path d="m209.683594 147.863281-5.566406-3.210937v6.425781zm0 0"/><path d="m204.117188 144.652344-5.5625-3.214844v6.425781zm0 0"/><path d="m181.855469 131.796875-5.566407-3.210937v6.425781zm0 0"/><path d="m165.15625 141.4375-5.566406-3.210938v6.425782zm0 0"/><path d="m159.589844 144.652344-5.5625-3.214844v6.425781zm0 0"/><path d="m142.894531 160.71875-5.566406-3.214844v6.429688zm0 0"/><path d="m142.894531 167.144531-5.566406-3.210937v6.425781zm0 0"/><path d="m142.894531 192.855469-5.566406-3.214844v6.425781zm0 0"/><path d="m142.894531 205.707031-5.566406-3.210937v6.425781zm0 0"/><path d="m159.589844 215.347656-5.5625-3.210937v6.425781zm0 0"/><path d="m165.15625 218.5625-5.566406-3.214844v6.425782zm0 0"/><path d="m176.289062 224.988281-5.566406-3.214843v6.429687zm0 0"/><path d="m181.855469 228.203125-5.566407-3.214844v6.425781zm0 0"/><path d="m187.421875 224.988281-5.566406-3.214843v6.429687zm0 0"/><path d="m209.683594 212.136719-5.566406-3.214844v6.425781zm0 0"/><path d="m215.25 208.921875-5.566406-3.214844v6.429688zm0 0"/><path d="m220.816406 205.707031-5.566406-3.210937v6.425781zm0 0"/><path d="m231.949219 205.707031-5.566407-3.210937v6.425781zm0 0"/><path d="m231.949219 192.855469-5.566407-3.214844v6.425781zm0 0"/><path d="m231.949219 173.574219-5.566407-3.214844v6.425781zm0 0"/><path d="m231.949219 167.144531-5.566407-3.210937v6.425781zm0 0"/><path d="m226.382812 151.078125-5.566406-3.214844v6.429688zm0 0"/><path d="m220.816406 147.863281-5.566406-3.210937v6.425781zm0 0"/><path d="m215.25 144.652344-5.566406-3.214844v6.425781zm0 0"/><path d="m209.683594 141.4375-5.566406-3.210938v6.425782zm0 0"/><path d="m204.117188 138.226562-5.5625-3.214843v6.425781zm0 0"/><path d="m198.554688 135.011719-5.566407-3.214844v6.429687zm0 0"/><path d="m192.988281 131.796875-5.566406-3.210937v6.425781zm0 0"/><path d="m181.855469 125.371094-5.566407-3.214844v6.429688zm0 0"/><path d="m165.15625 135.011719-5.566406-3.214844v6.429687zm0 0"/><path d="m159.589844 138.226562-5.5625-3.214843v6.425781zm0 0"/><path d="m154.027344 141.4375-5.566406-3.210938v6.425782zm0 0"/><path d="m137.328125 170.359375-5.566406-3.214844v6.429688zm0 0"/><path d="m137.328125 189.640625-5.566406-3.214844v6.429688zm0 0"/><path d="m137.328125 196.066406-5.566406-3.210937v6.425781zm0 0"/><path d="m137.328125 202.496094-5.566406-3.214844v6.425781zm0 0"/><path d="m137.328125 208.921875-5.566406-3.214844v6.429688zm0 0"/><path d="m148.460938 215.347656-5.566407-3.210937v6.425781zm0 0"/><path d="m192.988281 228.203125-5.566406-3.214844v6.425781zm0 0"/><path d="m209.683594 218.5625-5.566406-3.214844v6.425782zm0 0"/><path d="m215.25 215.347656-5.566406-3.210937v6.425781zm0 0"/><path d="m220.816406 212.136719-5.566406-3.214844v6.425781zm0 0"/><path d="m226.382812 208.921875-5.566406-3.214844v6.429688zm0 0"/><path d="m237.515625 208.921875-5.566406-3.214844v6.429688zm0 0"/><path d="m237.515625 176.785156-5.566406-3.210937v6.425781zm0 0"/><path d="m237.515625 163.933594-5.566406-3.214844v6.425781zm0 0"/><path d="m237.515625 151.078125-5.566406-3.214844v6.429688zm0 0"/><path d="m231.949219 147.863281-5.566407-3.210937v6.425781zm0 0"/><path d="m220.816406 141.4375-5.566406-3.210938v6.425782zm0 0"/><path d="m209.683594 135.011719-5.566406-3.214844v6.429687zm0 0"/><path d="m204.117188 131.796875-5.5625-3.210937v6.425781zm0 0"/><path d="m198.554688 128.585938-5.566407-3.214844v6.425781zm0 0"/><path d="m181.855469 118.945312-5.566407-3.214843v6.425781zm0 0"/><path d="m137.328125 144.652344-5.566406-3.214844v6.425781zm0 0"/><path d="m131.761719 160.71875-5.566407-3.214844v6.429688zm0 0"/><path d="m131.761719 192.855469-5.566407-3.214844v6.425781zm0 0"/><path d="m131.761719 205.707031-5.566407-3.210937v6.425781zm0 0"/><path d="m142.894531 218.5625-5.566406-3.214844v6.425782zm0 0"/><path d="m170.722656 234.628906-5.566406-3.214844v6.429688zm0 0"/><path d="m198.554688 231.414062-5.566407-3.210937v6.425781zm0 0"/><path d="m204.117188 228.203125-5.5625-3.214844v6.425781zm0 0"/><path d="m226.382812 215.347656-5.566406-3.210937v6.425781zm0 0"/><path d="m243.082031 160.71875-5.566406-3.214844v6.429688zm0 0"/><path d="m237.515625 144.652344-5.566406-3.214844v6.425781zm0 0"/><path d="m226.382812 138.226562-5.566406-3.214843v6.425781zm0 0"/><path d="m220.816406 135.011719-5.566406-3.214844v6.429687zm0 0"/><path d="m204.117188 125.371094-5.5625-3.214844v6.429688zm0 0"/><path d="m198.554688 122.15625-5.566407-3.210938v6.425782zm0 0"/><path d="m192.988281 118.945312-5.566406-3.214843v6.425781zm0 0"/><path d="m187.421875 115.730469-5.566406-3.214844v6.429687zm0 0"/><path d="m181.855469 112.515625-5.566407-3.210937v6.425781zm0 0"/><path d="m176.289062 115.730469-5.566406-3.214844v6.429687zm0 0"/><path d="m154.027344 128.585938-5.566406-3.214844v6.425781zm0 0"/><path d="m126.195312 151.078125-5.566406-3.214844v6.429688zm0 0"/><path d="m126.195312 170.359375-5.566406-3.214844v6.429688zm0 0"/><path d="m126.195312 176.785156-5.566406-3.210937v6.425781zm0 0"/><path d="m126.195312 183.214844-5.566406-3.214844v6.425781zm0 0"/><path d="m126.195312 202.496094-5.566406-3.214844v6.425781zm0 0"/><path d="m131.761719 218.5625-5.566407-3.214844v6.425782zm0 0"/><path d="m137.328125 221.773438-5.566406-3.210938v6.425781zm0 0"/><path d="m142.894531 224.988281-5.566406-3.214843v6.429687zm0 0"/><path d="m148.460938 228.203125-5.566407-3.214844v6.425781zm0 0"/><path d="m159.589844 234.628906-5.5625-3.214844v6.429688zm0 0"/><path d="m165.15625 237.84375-5.566406-3.214844v6.425782zm0 0"/><path d="m192.988281 241.054688-5.566406-3.210938v6.425781zm0 0"/><path d="m198.554688 237.84375-5.566407-3.214844v6.425782zm0 0"/><path d="m231.949219 218.5625-5.566407-3.214844v6.425782zm0 0"/><path d="m248.644531 176.785156-5.5625-3.210937v6.425781zm0 0"/><path d="m248.644531 163.933594-5.5625-3.214844v6.425781zm0 0"/><path d="m248.644531 151.078125-5.5625-3.214844v6.429688zm0 0"/><path d="m243.082031 141.4375-5.566406-3.210938v6.425782zm0 0"/><path d="m231.949219 135.011719-5.566407-3.214844v6.429687zm0 0"/><path d="m215.25 125.371094-5.566406-3.214844v6.429688zm0 0"/><path d="m209.683594 122.15625-5.566406-3.210938v6.425782zm0 0"/><path d="m204.117188 118.945312-5.5625-3.214843v6.425781zm0 0"/><path d="m198.554688 115.730469-5.566407-3.214844v6.429687zm0 0"/><path d="m192.988281 112.515625-5.566406-3.210937v6.425781zm0 0"/><path d="m176.289062 109.304688-5.566406-3.214844v6.425781zm0 0"/><path d="m165.15625 115.730469-5.566406-3.214844v6.429687zm0 0"/><path d="m159.589844 118.945312-5.5625-3.214843v6.425781zm0 0"/><path d="m148.460938 125.371094-5.566407-3.214844v6.429688zm0 0"/><path d="m142.894531 128.585938-5.566406-3.214844v6.425781zm0 0"/><path d="m137.328125 131.796875-5.566406-3.210937v6.425781zm0 0"/><path d="m126.195312 138.226562-5.566406-3.214843v6.425781zm0 0"/><path d="m120.628906 141.4375-5.566406-3.210938v6.425782zm0 0"/><path d="m120.628906 147.863281-5.566406-3.210937v6.425781zm0 0"/><path d="m120.628906 154.292969-5.566406-3.214844v6.425781zm0 0"/><path d="m120.628906 167.144531-5.566406-3.210937v6.425781zm0 0"/><path d="m120.628906 180-5.566406-3.214844v6.429688zm0 0"/><path d="m120.628906 186.425781-5.566406-3.210937v6.425781zm0 0"/><path d="m120.628906 199.28125-5.566406-3.214844v6.429688zm0 0"/><path d="m120.628906 205.707031-5.566406-3.210937v6.425781zm0 0"/><path d="m120.628906 212.136719-5.566406-3.214844v6.425781zm0 0"/><path d="m126.195312 221.773438-5.566406-3.210938v6.425781zm0 0"/><path d="m131.761719 224.988281-5.566407-3.214843v6.429687zm0 0"/><path d="m137.328125 228.203125-5.566406-3.214844v6.425781zm0 0"/><path d="m142.894531 231.414062-5.566406-3.210937v6.425781zm0 0"/><path d="m148.460938 234.628906-5.566407-3.214844v6.429688zm0 0"/><path d="m159.589844 241.054688-5.5625-3.210938v6.425781zm0 0"/><path d="m209.683594 237.84375-5.566406-3.214844v6.425782zm0 0"/><path d="m215.25 234.628906-5.566406-3.214844v6.429688zm0 0"/><path d="m226.382812 228.203125-5.566406-3.214844v6.425781zm0 0"/><path d="m243.082031 218.5625-5.566406-3.214844v6.425782zm0 0"/><path d="m254.210938 218.5625-5.566407-3.214844v6.425782zm0 0"/><path d="m254.210938 199.28125-5.566407-3.214844v6.429688zm0 0"/><path d="m254.210938 173.574219-5.566407-3.214844v6.425781zm0 0"/><path d="m254.210938 154.292969-5.566407-3.214844v6.425781zm0 0"/><path d="m248.644531 138.226562-5.5625-3.214843v6.425781zm0 0"/><path d="m231.949219 128.585938-5.566407-3.214844v6.425781zm0 0"/><path d="m226.382812 125.371094-5.566406-3.214844v6.429688zm0 0"/><path d="m215.25 118.945312-5.566406-3.214843v6.425781zm0 0"/><path d="m209.683594 115.730469-5.566406-3.214844v6.429687zm0 0"/><path d="m198.554688 109.304688-5.566407-3.214844v6.425781zm0 0"/><path d="m187.421875 102.875-5.566406-3.210938v6.425782zm0 0"/><path d="m170.722656 106.089844-5.566406-3.214844v6.429688zm0 0"/><path d="m159.589844 112.515625-5.5625-3.210937v6.425781zm0 0"/><path d="m154.027344 115.730469-5.566406-3.214844v6.429687zm0 0"/><path d="m148.460938 118.945312-5.566407-3.214843v6.425781zm0 0"/><path d="m142.894531 122.15625-5.566406-3.210938v6.425782zm0 0"/><path d="m137.328125 125.371094-5.566406-3.214844v6.429688zm0 0"/><path d="m131.761719 128.585938-5.566407-3.214844v6.425781zm0 0"/><path d="m126.195312 131.796875-5.566406-3.210937v6.425781zm0 0"/><path d="m115.0625 170.359375-5.5625-3.214844v6.429688zm0 0"/><path d="m115.0625 189.640625-5.5625-3.214844v6.429688zm0 0"/><path d="m115.0625 196.066406-5.5625-3.210937v6.425781zm0 0"/><path d="m115.0625 208.921875-5.5625-3.214844v6.429688zm0 0"/><path d="m126.195312 228.203125-5.566406-3.214844v6.425781zm0 0"/><path d="m148.460938 241.054688-5.566407-3.210938v6.425781zm0 0"/><path d="m154.027344 244.269531-5.566406-3.214843v6.429687zm0 0"/><path d="m159.589844 247.484375-5.5625-3.214844v6.425781zm0 0"/><path d="m176.289062 257.125-5.566406-3.214844v6.425782zm0 0"/><path d="m198.554688 250.695312-5.566407-3.210937v6.425781zm0 0"/><path d="m204.117188 247.484375-5.5625-3.214844v6.425781zm0 0"/><path d="m209.683594 244.269531-5.566406-3.214843v6.429687zm0 0"/><path d="m215.25 241.054688-5.566406-3.210938v6.425781zm0 0"/><path d="m220.816406 237.84375-5.566406-3.214844v6.425782zm0 0"/><path d="m226.382812 234.628906-5.566406-3.214844v6.429688zm0 0"/><path d="m231.949219 231.414062-5.566407-3.210937v6.425781zm0 0"/><path d="m259.777344 208.921875-5.566406-3.214844v6.429688zm0 0"/><path d="m259.777344 202.496094-5.566406-3.214844v6.425781zm0 0"/><path d="m259.777344 176.785156-5.566406-3.210937v6.425781zm0 0"/><path d="m259.777344 170.359375-5.566406-3.214844v6.429688zm0 0"/><path d="m259.777344 163.933594-5.566406-3.214844v6.425781zm0 0"/><path d="m259.777344 138.226562-5.566406-3.214843v6.425781zm0 0"/><path d="m243.082031 128.585938-5.566406-3.214844v6.425781zm0 0"/><path d="m237.515625 125.371094-5.566406-3.214844v6.429688zm0 0"/><path d="m231.949219 122.15625-5.566407-3.210938v6.425782zm0 0"/><path d="m187.421875 96.449219-5.566406-3.214844v6.429687zm0 0"/><path d="m181.855469 93.234375-5.566407-3.210937v6.425781zm0 0"/><path d="m176.289062 96.449219-5.566406-3.214844v6.429687zm0 0"/><path d="m154.027344 109.304688-5.566406-3.214844v6.425781zm0 0"/><path d="m148.460938 112.515625-5.566407-3.210937v6.425781zm0 0"/><path d="m126.195312 125.371094-5.566406-3.214844v6.429688zm0 0"/><path d="m115.0625 131.796875-5.5625-3.210937v6.425781zm0 0"/><path d="m109.5 173.574219-5.566406-3.214844v6.425781zm0 0"/><path d="m109.5 180-5.566406-3.214844v6.429688zm0 0"/><path d="m109.5 186.425781-5.566406-3.210937v6.425781zm0 0"/><path d="m109.5 199.28125-5.566406-3.214844v6.429688zm0 0"/><path d="m109.5 205.707031-5.566406-3.210937v6.425781zm0 0"/><path d="m109.5 218.5625-5.566406-3.214844v6.425782zm0 0"/><path d="m115.0625 228.203125-5.5625-3.214844v6.425781zm0 0"/><path d="m137.328125 241.054688-5.566406-3.210938v6.425781zm0 0"/><path d="m154.027344 250.695312-5.566406-3.210937v6.425781zm0 0"/><path d="m187.421875 263.550781-5.566406-3.214843v6.429687zm0 0"/><path d="m209.683594 250.695312-5.566406-3.210937v6.425781zm0 0"/><path d="m220.816406 244.269531-5.566406-3.214843v6.429687zm0 0"/><path d="m226.382812 241.054688-5.566406-3.210938v6.425781zm0 0"/><path d="m243.082031 231.414062-5.566406-3.210937v6.425781zm0 0"/><path d="m248.644531 228.203125-5.5625-3.214844v6.425781zm0 0"/><path d="m265.34375 224.988281-5.566406-3.214843v6.429687zm0 0"/><path d="m265.34375 218.5625-5.566406-3.214844v6.425782zm0 0"/><path d="m265.34375 199.28125-5.566406-3.214844v6.429688zm0 0"/><path d="m265.34375 192.855469-5.566406-3.214844v6.425781zm0 0"/><path d="m265.34375 141.4375-5.566406-3.210938v6.425782zm0 0"/><path d="m265.34375 135.011719-5.566406-3.214844v6.429687zm0 0"/><path d="m248.644531 125.371094-5.5625-3.214844v6.429688zm0 0"/><path d="m231.949219 115.730469-5.566407-3.214844v6.429687zm0 0"/><path d="m226.382812 112.515625-5.566406-3.210937v6.425781zm0 0"/><path d="m220.816406 109.304688-5.566406-3.214844v6.425781zm0 0"/><path d="m209.683594 102.875-5.566406-3.210938v6.425782zm0 0"/><path d="m198.554688 96.449219-5.566407-3.214844v6.429687zm0 0"/><path d="m192.988281 93.234375-5.566406-3.210937v6.425781zm0 0"/><path d="m187.421875 90.023438-5.566406-3.214844v6.425781zm0 0"/><path d="m181.855469 86.808594-5.566407-3.214844v6.429688zm0 0"/><path d="m159.589844 99.664062-5.5625-3.214843v6.425781zm0 0"/><path d="m154.027344 102.875-5.566406-3.210938v6.425782zm0 0"/><path d="m148.460938 106.089844-5.566407-3.214844v6.429688zm0 0"/><path d="m137.328125 112.515625-5.566406-3.210937v6.425781zm0 0"/><path d="m103.933594 138.226562-5.566406-3.214843v6.425781zm0 0"/><path d="m103.933594 144.652344-5.566406-3.214844v6.425781zm0 0"/><path d="m103.933594 151.078125-5.566406-3.214844v6.429688zm0 0"/><path d="m103.933594 157.503906-5.566406-3.210937v6.425781zm0 0"/><path d="m103.933594 163.933594-5.566406-3.214844v6.425781zm0 0"/><path d="m103.933594 183.214844-5.566406-3.214844v6.425781zm0 0"/><path d="m103.933594 189.640625-5.566406-3.214844v6.429688zm0 0"/><path d="m103.933594 208.921875-5.566406-3.214844v6.429688zm0 0"/><path d="m103.933594 221.773438-5.566406-3.210938v6.425781zm0 0"/><path d="m131.761719 244.269531-5.566407-3.214843v6.429687zm0 0"/><path d="m137.328125 247.484375-5.566406-3.214844v6.425781zm0 0"/><path d="m170.722656 266.765625-5.566406-3.214844v6.425781zm0 0"/><path d="m176.289062 269.976562-5.566406-3.210937v6.425781zm0 0"/><path d="m181.855469 273.191406-5.566407-3.214844v6.429688zm0 0"/><path d="m187.421875 269.976562-5.566406-3.210937v6.425781zm0 0"/><path d="m204.117188 260.335938-5.5625-3.210938v6.425781zm0 0"/><path d="m215.25 253.910156-5.566406-3.214844v6.429688zm0 0"/><path d="m243.082031 237.84375-5.566406-3.214844v6.425782zm0 0"/><path d="m248.644531 234.628906-5.5625-3.214844v6.429688zm0 0"/><path d="m259.777344 228.203125-5.566406-3.214844v6.425781zm0 0"/><path d="m270.910156 221.773438-5.566406-3.210938v6.425781zm0 0"/><path d="m270.910156 215.347656-5.566406-3.210937v6.425781zm0 0"/><path d="m270.910156 208.921875-5.566406-3.214844v6.429688zm0 0"/><path d="m270.910156 183.214844-5.566406-3.214844v6.425781zm0 0"/><path d="m270.910156 176.785156-5.566406-3.210937v6.425781zm0 0"/><path d="m270.910156 170.359375-5.566406-3.214844v6.429688zm0 0"/><path d="m270.910156 144.652344-5.566406-3.214844v6.425781zm0 0"/><path d="m270.910156 138.226562-5.566406-3.214843v6.425781zm0 0"/><path d="m270.910156 131.796875-5.566406-3.210937v6.425781zm0 0"/><path d="m265.34375 128.585938-5.566406-3.214844v6.425781zm0 0"/><path d="m259.777344 125.371094-5.566406-3.214844v6.429688zm0 0"/><path d="m243.082031 115.730469-5.566406-3.214844v6.429687zm0 0"/><path d="m231.949219 109.304688-5.566407-3.214844v6.425781zm0 0"/><path d="m226.382812 106.089844-5.566406-3.214844v6.429688zm0 0"/><path d="m220.816406 102.875-5.566406-3.210938v6.425782zm0 0"/><path d="m215.25 99.664062-5.566406-3.214843v6.425781zm0 0"/><path d="m187.421875 83.59375-5.566406-3.210938v6.425782zm0 0"/><path d="m181.855469 80.382812-5.566407-3.214843v6.425781zm0 0"/><path d="m170.722656 86.808594-5.566406-3.214844v6.429688zm0 0"/><path d="m165.15625 90.023438-5.566406-3.214844v6.425781zm0 0"/><path d="m142.894531 102.875-5.566406-3.210938v6.425782zm0 0"/><path d="m131.761719 109.304688-5.566407-3.214844v6.425781zm0 0"/><path d="m120.628906 115.730469-5.566406-3.214844v6.429687zm0 0"/><path d="m109.5 122.15625-5.566406-3.210938v6.425782zm0 0"/><path d="m98.367188 128.585938-5.566407-3.214844v6.425781zm0 0"/><path d="m98.367188 147.863281-5.566407-3.210937v6.425781zm0 0"/><path d="m98.367188 154.292969-5.566407-3.214844v6.425781zm0 0"/><path d="m98.367188 167.144531-5.566407-3.210937v6.425781zm0 0"/><path d="m98.367188 180-5.566407-3.214844v6.429688zm0 0"/><path d="m98.367188 186.425781-5.566407-3.210937v6.425781zm0 0"/><path d="m98.367188 199.28125-5.566407-3.214844v6.429688zm0 0"/><path d="m98.367188 218.5625-5.566407-3.214844v6.425782zm0 0"/><path d="m98.367188 224.988281-5.566407-3.214843v6.429687zm0 0"/><path d="m98.367188 231.414062-5.566407-3.210937v6.425781zm0 0"/><path d="m103.933594 234.628906-5.566406-3.214844v6.429688zm0 0"/><path d="m137.328125 253.910156-5.566406-3.214844v6.429688zm0 0"/><path d="m142.894531 257.125-5.566406-3.214844v6.425782zm0 0"/><path d="m148.460938 260.335938-5.566407-3.210938v6.425781zm0 0"/><path d="m170.722656 273.191406-5.566406-3.214844v6.429688zm0 0"/><path d="m187.421875 276.40625-5.566406-3.214844v6.425782zm0 0"/><path d="m204.117188 266.765625-5.5625-3.214844v6.425781zm0 0"/><path d="m226.382812 253.910156-5.566406-3.214844v6.429688zm0 0"/><path d="m237.515625 247.484375-5.566406-3.214844v6.425781zm0 0"/><path d="m248.644531 241.054688-5.5625-3.210938v6.425781zm0 0"/><path d="m265.34375 231.414062-5.566406-3.210937v6.425781zm0 0"/><path d="m276.476562 231.414062-5.566406-3.210937v6.425781zm0 0"/><path d="m276.476562 224.988281-5.566406-3.214843v6.429687zm0 0"/><path d="m276.476562 218.5625-5.566406-3.214844v6.425782zm0 0"/><path d="m276.476562 212.136719-5.566406-3.214844v6.425781zm0 0"/><path d="m276.476562 199.28125-5.566406-3.214844v6.429688zm0 0"/><path d="m276.476562 192.855469-5.566406-3.214844v6.425781zm0 0"/><path d="m276.476562 186.425781-5.566406-3.210937v6.425781zm0 0"/><path d="m276.476562 173.574219-5.566406-3.214844v6.425781zm0 0"/><path d="m276.476562 154.292969-5.566406-3.214844v6.425781zm0 0"/><path d="m276.476562 147.863281-5.566406-3.210937v6.425781zm0 0"/><path d="m276.476562 141.4375-5.566406-3.210938v6.425782zm0 0"/><path d="m276.476562 135.011719-5.566406-3.214844v6.429687zm0 0"/><path d="m276.476562 128.585938-5.566406-3.214844v6.425781zm0 0"/><path d="m265.34375 122.15625-5.566406-3.210938v6.425782zm0 0"/><path d="m259.777344 118.945312-5.566406-3.214843v6.425781zm0 0"/><path d="m237.515625 106.089844-5.566406-3.214844v6.429688zm0 0"/><path d="m231.949219 102.875-5.566407-3.210938v6.425782zm0 0"/><path d="m209.683594 90.023438-5.566406-3.214844v6.425781zm0 0"/><path d="m187.421875 77.167969-5.566406-3.214844v6.429687zm0 0"/><path d="m181.855469 73.953125-5.566407-3.210937v6.425781zm0 0"/><path d="m176.289062 77.167969-5.566406-3.214844v6.429687zm0 0"/><path d="m170.722656 80.382812-5.566406-3.214843v6.425781zm0 0"/><path d="m142.894531 96.449219-5.566406-3.214844v6.429687zm0 0"/><path d="m131.761719 102.875-5.566407-3.210938v6.425782zm0 0"/><path d="m126.195312 106.089844-5.566406-3.214844v6.429688zm0 0"/><path d="m120.628906 109.304688-5.566406-3.214844v6.425781zm0 0"/><path d="m115.0625 112.515625-5.5625-3.210937v6.425781zm0 0"/><path d="m98.367188 122.15625-5.566407-3.210938v6.425782zm0 0"/><path d="m92.800781 157.503906-5.566406-3.210937v6.425781zm0 0"/><path d="m92.800781 189.640625-5.566406-3.214844v6.429688zm0 0"/><path d="m92.800781 202.496094-5.566406-3.214844v6.425781zm0 0"/><path d="m92.800781 228.203125-5.566406-3.214844v6.425781zm0 0"/><path d="m98.367188 237.84375-5.566407-3.214844v6.425782zm0 0"/><path d="m137.328125 260.335938-5.566406-3.210938v6.425781zm0 0"/><path d="m142.894531 263.550781-5.566406-3.214843v6.429687zm0 0"/><path d="m148.460938 266.765625-5.566407-3.214844v6.425781zm0 0"/><path d="m187.421875 282.832031-5.566406-3.214843v6.429687zm0 0"/><path d="m192.988281 279.617188-5.566406-3.210938v6.425781zm0 0"/><path d="m231.949219 257.125-5.566407-3.214844v6.425782zm0 0"/><path d="m237.515625 253.910156-5.566406-3.214844v6.429688zm0 0"/><path d="m254.210938 244.269531-5.566407-3.214843v6.429687zm0 0"/><path d="m259.777344 241.054688-5.566406-3.210938v6.425781zm0 0"/><path d="m265.34375 237.84375-5.566406-3.214844v6.425782zm0 0"/><path d="m270.910156 234.628906-5.566406-3.214844v6.429688zm0 0"/><path d="m282.042969 228.203125-5.566407-3.214844v6.425781zm0 0"/><path d="m282.042969 221.773438-5.566407-3.210938v6.425781zm0 0"/><path d="m282.042969 208.921875-5.566407-3.214844v6.429688zm0 0"/><path d="m282.042969 202.496094-5.566407-3.214844v6.425781zm0 0"/><path d="m282.042969 189.640625-5.566407-3.214844v6.429688zm0 0"/><path d="m282.042969 176.785156-5.566407-3.210937v6.425781zm0 0"/><path d="m282.042969 151.078125-5.566407-3.214844v6.429688zm0 0"/><path d="m282.042969 138.226562-5.566407-3.214843v6.425781zm0 0"/><path d="m282.042969 131.796875-5.566407-3.210937v6.425781zm0 0"/><path d="m282.042969 125.371094-5.566407-3.214844v6.429688zm0 0"/><path d="m259.777344 112.515625-5.566406-3.210937v6.425781zm0 0"/><path d="m254.210938 109.304688-5.566407-3.214844v6.425781zm0 0"/><path d="m248.644531 106.089844-5.5625-3.214844v6.429688zm0 0"/><path d="m243.082031 102.875-5.566406-3.210938v6.425782zm0 0"/><path d="m231.949219 96.449219-5.566407-3.214844v6.429687zm0 0"/><path d="m198.554688 77.167969-5.566407-3.214844v6.429687zm0 0"/><path d="m176.289062 70.742188-5.566406-3.214844v6.425781zm0 0"/><path d="m170.722656 73.953125-5.566406-3.210937v6.425781zm0 0"/><path d="m159.589844 80.382812-5.5625-3.214843v6.425781zm0 0"/><path d="m148.460938 86.808594-5.566407-3.214844v6.429688zm0 0"/><path d="m137.328125 93.234375-5.566406-3.210937v6.425781zm0 0"/><path d="m126.195312 99.664062-5.566406-3.214843v6.425781zm0 0"/><path d="m120.628906 102.875-5.566406-3.210938v6.425782zm0 0"/><path d="m109.5 109.304688-5.566406-3.214844v6.425781zm0 0"/><path d="m98.367188 115.730469-5.566407-3.214844v6.429687zm0 0"/><path d="m87.234375 154.292969-5.566406-3.214844v6.425781zm0 0"/><path d="m87.234375 192.855469-5.566406-3.214844v6.425781zm0 0"/><path d="m87.234375 199.28125-5.566406-3.214844v6.429688zm0 0"/><path d="m87.234375 218.5625-5.566406-3.214844v6.425782zm0 0"/><path d="m87.234375 224.988281-5.566406-3.214843v6.429687zm0 0"/><path d="m103.933594 247.484375-5.566406-3.214844v6.425781zm0 0"/><path d="m120.628906 257.125-5.566406-3.214844v6.425782zm0 0"/><path d="m126.195312 260.335938-5.566406-3.210938v6.425781zm0 0"/><path d="m131.761719 263.550781-5.566407-3.214843v6.429687zm0 0"/><path d="m142.894531 269.976562-5.566406-3.210937v6.425781zm0 0"/><path d="m198.554688 282.832031-5.566407-3.214843v6.429687zm0 0"/><path d="m204.117188 279.617188-5.5625-3.210938v6.425781zm0 0"/><path d="m259.777344 247.484375-5.566406-3.214844v6.425781zm0 0"/><path d="m265.34375 244.269531-5.566406-3.214843v6.429687zm0 0"/><path d="m276.476562 237.84375-5.566406-3.214844v6.425782zm0 0"/><path d="m287.609375 237.84375-5.566406-3.214844v6.425782zm0 0"/><path d="m287.609375 224.988281-5.566406-3.214843v6.429687zm0 0"/><path d="m287.609375 218.5625-5.566406-3.214844v6.425782zm0 0"/><path d="m287.609375 212.136719-5.566406-3.214844v6.425781zm0 0"/><path d="m287.609375 205.707031-5.566406-3.210937v6.425781zm0 0"/><path d="m287.609375 199.28125-5.566406-3.214844v6.429688zm0 0"/><path d="m287.609375 186.425781-5.566406-3.210937v6.425781zm0 0"/><path d="m287.609375 180-5.566406-3.214844v6.429688zm0 0"/><path d="m287.609375 173.574219-5.566406-3.214844v6.425781zm0 0"/><path d="m287.609375 160.71875-5.566406-3.214844v6.429688zm0 0"/><path d="m287.609375 147.863281-5.566406-3.210937v6.425781zm0 0"/><path d="m287.609375 141.4375-5.566406-3.210938v6.425782zm0 0"/><path d="m276.476562 115.730469-5.566406-3.214844v6.429687zm0 0"/><path d="m254.210938 102.875-5.566407-3.210938v6.425782zm0 0"/><path d="m248.644531 99.664062-5.5625-3.214843v6.425781zm0 0"/><path d="m243.082031 96.449219-5.566406-3.214844v6.429687zm0 0"/><path d="m237.515625 93.234375-5.566406-3.210937v6.425781zm0 0"/><path d="m231.949219 90.023438-5.566407-3.214844v6.425781zm0 0"/><path d="m226.382812 86.808594-5.566406-3.214844v6.429688zm0 0"/><path d="m215.25 80.382812-5.566406-3.214843v6.425781zm0 0"/><path d="m209.683594 77.167969-5.566406-3.214844v6.429687zm0 0"/><path d="m204.117188 73.953125-5.5625-3.210937v6.425781zm0 0"/><path d="m148.460938 80.382812-5.566407-3.214843v6.425781zm0 0"/><path d="m142.894531 83.59375-5.566406-3.210938v6.425782zm0 0"/><path d="m126.195312 93.234375-5.566406-3.210937v6.425781zm0 0"/><path d="m81.667969 151.078125-5.566407-3.214844v6.429688zm0 0"/><path d="m81.667969 157.503906-5.566407-3.210937v6.425781zm0 0"/><path d="m81.667969 170.359375-5.566407-3.214844v6.429688zm0 0"/><path d="m81.667969 176.785156-5.566407-3.210937v6.425781zm0 0"/><path d="m81.667969 196.066406-5.566407-3.210937v6.425781zm0 0"/><path d="m81.667969 202.496094-5.566407-3.214844v6.425781zm0 0"/><path d="m81.667969 208.921875-5.566407-3.214844v6.429688zm0 0"/><path d="m81.667969 234.628906-5.566407-3.214844v6.429688zm0 0"/><path d="m98.367188 250.695312-5.566407-3.210937v6.425781zm0 0"/><path d="m120.628906 263.550781-5.566406-3.214843v6.429687zm0 0"/><path d="m215.25 279.617188-5.566406-3.210938v6.425781zm0 0"/><path d="m237.515625 266.765625-5.566406-3.214844v6.425781zm0 0"/><path d="m248.644531 260.335938-5.5625-3.210938v6.425781zm0 0"/><path d="m265.34375 250.695312-5.566406-3.210937v6.425781zm0 0"/><path d="m293.171875 234.628906-5.5625-3.214844v6.429688zm0 0"/><path d="m293.171875 228.203125-5.5625-3.214844v6.425781zm0 0"/><path d="m293.171875 221.773438-5.5625-3.210938v6.425781zm0 0"/><path d="m293.171875 208.921875-5.5625-3.214844v6.429688zm0 0"/><path d="m293.171875 196.066406-5.5625-3.210937v6.425781zm0 0"/><path d="m293.171875 189.640625-5.5625-3.214844v6.429688zm0 0"/><path d="m293.171875 183.214844-5.5625-3.214844v6.425781zm0 0"/><path d="m293.171875 163.933594-5.5625-3.214844v6.425781zm0 0"/><path d="m259.777344 99.664062-5.566406-3.214843v6.425781zm0 0"/><path d="m254.210938 96.449219-5.566407-3.214844v6.429687zm0 0"/><path d="m248.644531 93.234375-5.5625-3.210937v6.425781zm0 0"/><path d="m231.949219 83.59375-5.566407-3.210938v6.425782zm0 0"/><path d="m215.25 73.953125-5.566406-3.210937v6.425781zm0 0"/><path d="m209.683594 70.742188-5.566406-3.214844v6.425781zm0 0"/><path d="m142.894531 77.167969-5.566406-3.214844v6.429687zm0 0"/><path d="m131.761719 83.59375-5.566407-3.210938v6.425782zm0 0"/><path d="m76.101562 160.71875-5.566406-3.214844v6.429688zm0 0"/><path d="m76.101562 173.574219-5.566406-3.214844v6.425781zm0 0"/><path d="m76.101562 180-5.566406-3.214844v6.429688zm0 0"/><path d="m76.101562 192.855469-5.566406-3.214844v6.425781zm0 0"/><path d="m76.101562 212.136719-5.566406-3.214844v6.425781zm0 0"/><path d="m76.101562 231.414062-5.566406-3.210937v6.425781zm0 0"/><path d="m226.382812 279.617188-5.566406-3.210938v6.425781zm0 0"/><path d="m237.515625 273.191406-5.566406-3.214844v6.429688zm0 0"/><path d="m243.082031 269.976562-5.566406-3.210937v6.425781zm0 0"/><path d="m248.644531 266.765625-5.5625-3.214844v6.425781zm0 0"/><path d="m298.738281 218.5625-5.566406-3.214844v6.425782zm0 0"/><path d="m298.738281 186.425781-5.566406-3.210937v6.425781zm0 0"/><path d="m298.738281 141.4375-5.566406-3.210938v6.425782zm0 0"/><path d="m282.042969 106.089844-5.566407-3.214844v6.429688zm0 0"/><path d="m276.476562 102.875-5.566406-3.210938v6.425782zm0 0"/><path d="m265.34375 96.449219-5.566406-3.214844v6.429687zm0 0"/><path d="m259.777344 93.234375-5.566406-3.210937v6.425781zm0 0"/><path d="m254.210938 90.023438-5.566407-3.214844v6.425781zm0 0"/><path d="m248.644531 86.808594-5.5625-3.214844v6.429688zm0 0"/><path d="m231.949219 77.167969-5.566407-3.214844v6.429687zm0 0"/><path d="m226.382812 73.953125-5.566406-3.210937v6.425781zm0 0"/><path d="m220.816406 70.742188-5.566406-3.214844v6.425781zm0 0"/><path d="m70.535156 176.785156-5.5625-3.210937v6.425781zm0 0"/><path d="m70.535156 183.214844-5.5625-3.214844v6.425781zm0 0"/><path d="m70.535156 202.496094-5.5625-3.214844v6.425781zm0 0"/><path d="m254.210938 269.976562-5.566407-3.210937v6.425781zm0 0"/><path d="m304.304688 183.214844-5.566407-3.214844v6.425781zm0 0"/><path d="m304.304688 170.359375-5.566407-3.214844v6.429688zm0 0"/><path d="m304.304688 163.933594-5.566407-3.214844v6.425781zm0 0"/><path d="m243.082031 77.167969-5.566406-3.214844v6.429687zm0 0"/><path d="m64.972656 173.574219-5.566406-3.214844v6.425781zm0 0"/><path d="m64.972656 180-5.566406-3.214844v6.429688zm0 0"/><path d="m64.972656 186.425781-5.566406-3.210937v6.425781zm0 0"/><path d="m64.972656 192.855469-5.566406-3.214844v6.425781zm0 0"/><path d="m259.777344 273.191406-5.566406-3.214844v6.429688zm0 0"/><path d="m270.910156 266.765625-5.566406-3.214844v6.425781zm0 0"/><path d="m309.871094 173.574219-5.566406-3.214844v6.425781zm0 0"/><path d="m59.40625 176.785156-5.566406-3.210937v6.425781zm0 0"/><path d="m59.40625 183.214844-5.566406-3.214844v6.425781zm0 0"/><path d="m259.777344 279.617188-5.566406-3.210938v6.425781zm0 0"/></g></svg>