<svg height="360pt" viewBox="0 0 360 360" width="360pt" xmlns="http://www.w3.org/2000/svg"><path d="m0 0h360v360h-360z" fill="#fff"/><g fill="#800080" fill-rule="evenodd"><path d="m195.722656 161 8.226563-4.753906v9.503906zm0 0"/><path d="m179.265625 151.496094 8.226563-4.75v9.5zm0 0"/><path d="m179.265625 208.503906 8.226563-4.75v9.5zm0 0"/><path d="m195.722656 199 8.226563-4.75v9.503906zm0 0"/><path d="m146.351562 170.5 8.230469-4.75v9.5zm0 0"/><path d="m146.351562 189.5 8.230469-4.75v9.5zm0 0"/><path d="m228.632812 141.996094 8.226563-4.75v9.5zm0 0"/><path d="m212.175781 132.496094 8.230469-4.75v9.5zm0 0"/><path d="m195.722656 122.996094 8.226563-4.75v9.5zm0 0"/><path d="m179.265625 113.496094 8.226563-4.753906v9.503906zm0 0"/><path d="m179.265625 246.503906 8.226563-4.75v9.503906zm0 0"/><path d="m195.722656 237.003906 8.226563-4.75v9.5zm0 0"/><path d="m212.175781 227.503906 8.230469-4.75v9.5zm0 0"/><path d="m228.632812 218.003906 8.226563-4.75v9.5zm0 0"/><path d="m113.441406 151.496094 8.226563-4.75v9.5zm0 0"/><path d="m113.441406 170.5 8.226563-4.75v9.5zm0 0"/><path d="m113.441406 189.5 8.226563-4.75v9.5zm0 0"/><path d="m113.441406 208.503906 8.226563-4.75v9.5zm0 0"/><path d="m261.542969 122.996094 8.230469-4.75v9.5zm0 0"/><path d="m245.089844 113.496094 8.226562-4.753906v9.503906zm0 0"/><path d="m228.632812 103.992188 8.226563-4.75v9.5zm0 0"/><path d="m212.175781 94.492188 8.230469-4.75v9.5zm0 0"/><path d="m195.722656 84.992188 8.226563-4.75v9.5zm0 0"/><path d="m179.265625 75.492188 8.226563-4.75v9.5zm0 0"/><path d="m179.265625 284.507812 8.226563-4.75v9.5zm0 0"/><path d="m195.722656 275.007812 8.226563-4.75v9.5zm0 0"/><path d="m212.175781 265.507812 8.230469-4.75v9.5zm0 0"/><path d="m228.632812 256.007812 8.226563-4.75v9.5zm0 0"/><path d="m245.089844 246.503906 8.226562-4.75v9.503906zm0 0"/><path d="m261.542969 237.003906 8.230469-4.75v9.5zm0 0"/><path d="m80.53125 132.496094 8.226562-4.75v9.5zm0 0"/><path d="m80.53125 151.496094 8.226562-4.75v9.5zm0 0"/><path d="m80.53125 170.5 8.226562-4.75v9.5zm0 0"/><path d="m80.53125 189.5 8.226562-4.75v9.5zm0 0"/><path d="m80.53125 208.503906 8.226562-4.75v9.5zm0 0"/><path d="m80.53125 227.503906 8.226562-4.75v9.5zm0 0"/><path d="m278 113.496094 8.230469-4.753906v9.503906zm0 0"/><path d="m245.089844 94.492188 8.226562-4.75v9.5zm0 0"/><path d="m212.175781 75.492188 8.230469-4.75v9.5zm0 0"/><path d="m179.265625 56.488281 8.226563-4.75v9.5zm0 0"/><path d="m179.265625 303.511719 8.226563-4.75v9.5zm0 0"/><path d="m212.175781 284.507812 8.230469-4.75v9.5zm0 0"/><path d="m245.089844 265.507812 8.226562-4.75v9.5zm0 0"/><path d="m278 246.503906 8.230469-4.75v9.503906zm0 0"/><path d="m64.074219 122.996094 8.226562-4.75v9.5zm0 0"/><path d="m64.074219 161 8.226562-4.753906v9.503906zm0 0"/><path d="m64.074219 199 8.226562-4.75v9.503906zm0 0"/><path d="m64.074219 237.003906 8.226562-4.75v9.5zm0 0"/><path d="m212.175781 189.5-8.226562-4.75v9.5zm0 0"/><path d="m212.175781 170.5-8.226562-4.75v9.5zm0 0"/><path d="m179.265625 151.496094-8.226563-4.75v9.5zm0 0"/><path d="m162.808594 161-8.226563-4.753906v9.503906zm0 0"/><path d="m162.808594 199-8.226563-4.75v9.503906zm0 0"/><path d="m179.265625 208.503906-8.226563-4.75v9.5zm0 0"/><path d="m245.089844 208.503906-8.230469-4.75v9.5zm0 0"/><path d="m245.089844 189.5-8.230469-4.75v9.5zm0 0"/><path d="m245.089844 170.5-8.230469-4.75v9.5zm0 0"/><path d="m245.089844 151.496094-8.230469-4.75v9.5zm0 0"/><path d="m179.265625 113.496094-8.226563-4.753906v9.503906zm0 0"/><path d="m162.808594 122.996094-8.226563-4.75v9.5zm0 0"/><path d="m146.351562 132.496094-8.226562-4.75v9.5zm0 0"/><path d="m129.898438 141.996094-8.230469-4.75v9.5zm0 0"/><path d="m129.898438 218.003906-8.230469-4.75v9.5zm0 0"/><path d="m146.351562 227.503906-8.226562-4.75v9.5zm0 0"/><path d="m162.808594 237.003906-8.226563-4.75v9.5zm0 0"/><path d="m179.265625 246.503906-8.226563-4.75v9.503906zm0 0"/><path d="m278 227.503906-8.226562-4.75v9.5zm0 0"/><path d="m278 208.503906-8.226562-4.75v9.5zm0 0"/><path d="m278 189.5-8.226562-4.75v9.5zm0 0"/><path d="m278 170.5-8.226562-4.75v9.5zm0 0"/><path d="m278 151.496094-8.226562-4.75v9.5zm0 0"/><path d="m278 132.496094-8.226562-4.75v9.5zm0 0"/><path d="m179.265625 75.492188-8.226563-4.75v9.5zm0 0"/><path d="m162.808594 84.992188-8.226563-4.75v9.5zm0 0"/><path d="m146.351562 94.492188-8.226562-4.75v9.5zm0 0"/><path d="m129.898438 103.992188-8.230469-4.75v9.5zm0 0"/><path d="m113.441406 113.496094-8.226562-4.753906v9.503906zm0 0"/><path d="m96.984375 122.996094-8.226563-4.75v9.5zm0 0"/><path d="m96.984375 237.003906-8.226563-4.75v9.5zm0 0"/><path d="m113.441406 246.503906-8.226562-4.75v9.503906zm0 0"/><path d="m129.898438 256.007812-8.230469-4.75v9.5zm0 0"/><path d="m146.351562 265.507812-8.226562-4.75v9.5zm0 0"/><path d="m162.808594 275.007812-8.226563-4.75v9.5zm0 0"/><path d="m179.265625 284.507812-8.226563-4.75v9.5zm0 0"/><path d="m294.457031 237.003906-8.226562-4.75v9.5zm0 0"/><path d="m294.457031 199-8.226562-4.75v9.503906zm0 0"/><path d="m294.457031 161-8.226562-4.753906v9.503906zm0 0"/><path d="m294.457031 122.996094-8.226562-4.75v9.5zm0 0"/><path d="m179.265625 56.488281-8.226563-4.75v9.5zm0 0"/><path d="m146.351562 75.492188-8.226562-4.75v9.5zm0 0"/><path d="m113.441406 94.492188-8.226562-4.75v9.5zm0 0"/><path d="m80.53125 113.496094-8.230469-4.753906v9.503906zm0 0"/><path d="m80.53125 246.503906-8.230469-4.75v9.503906zm0 0"/><path d="m113.441406 265.507812-8.226562-4.75v9.5zm0 0"/><path d="m146.351562 284.507812-8.226562-4.75v9.5zm0 0"/><path d="m179.265625 303.511719-8.226563-4.75v9.5zm0 0"/></g></svg>