<svg xmlns="http://www.w3.org/2000/svg" xmlns:xlink="http://www.w3.org/1999/xlink" width="480" height="480" viewBox="0 0 360 360" version="1.1"><g id="surface3421"><rect x="0" y="0" width="360" height="360" fill="rgb(100%,100%,100%)" fill-opacity="1" stroke="none"/><path d="M 197.789062 146.167969 L 217.320312 134.894531 L 217.320312 157.445312 Z M 197.789062 146.167969" stroke="none" fill-rule="evenodd" fill="rgb(50.000763%,0%,50.000763%)" fill-opacity="1"/><path d="M 178.253906 134.894531 L 197.789062 123.617188 L 197.789062 146.167969 Z M 178.253906 134.894531" stroke="none" fill-rule="evenodd" fill="rgb(50.000763%,0%,50.000763%)" fill-opacity="1"/><path d="M 178.253906 225.105469 L 197.789062 213.832031 L 197.789062 236.382812 Z M 178.253906 225.105469" stroke="none" fill-rule="evenodd" fill="rgb(50.000763%,0%,50.000763%)" fill-opacity="1"/><path d="M 197.789062 213.832031 L 217.320312 202.554688 L 217.320312 225.105469 Z M 197.789062 213.832031" stroke="none" fill-rule="evenodd" fill="rgb(50.000763%,0%,50.000763%)" fill-opacity="1"/><path d="M 119.660156 168.722656 L 139.191406 157.445312 L 139.191406 180 Z M 119.660156 168.722656" stroke="none" fill-rule="evenodd" fill="rgb(50.000763%,0%,50.000763%)" fill-opacity="1"/><path d="M 119.660156 191.277344 L 139.191406 180 L 139.191406 202.554688 Z M 119.660156 191.277344" stroke="none" fill-rule="evenodd" fill="rgb(50.000763%,0%,50.000763%)" fill-opacity="1"/><path d="M 236.851562 191.277344 L 217.320312 180 L 217.320312 202.554688 Z M 236.851562 191.277344" stroke="none" fill-rule="evenodd" fill="rgb(50.000763%,0%,50.000763%)" fill-opacity="1"/><path d="M 236.851562 168.722656 L 217.320312 157.445312 L 217.320312 180 Z M 236.851562 168.722656" stroke="none" fill-rule="evenodd" fill="rgb(50.000763%,0%,50.000763%)" fill-opacity="1"/><path d="M 178.253906 134.894531 L 158.722656 123.617188 L 158.722656 146.167969 Z M 178.253906 134.894531" stroke="none" fill-rule="evenodd" fill="rgb(50.000763%,0%,50.000763%)" fill-opacity="1"/><path d="M 158.722656 146.167969 L 139.191406 134.894531 L 139.191406 157.445312 Z M 158.722656 146.167969" stroke="none" fill-rule="evenodd" fill="rgb(50.000763%,0%,50.000763%)" fill-opacity="1"/><path d="M 158.722656 213.832031 L 139.191406 202.554688 L 139.191406 225.105469 Z M 158.722656 213.832031" stroke="none" fill-rule="evenodd" fill="rgb(50.000763%,0%,50.000763%)" fill-opacity="1"/><path d="M 178.253906 225.105469 L 158.722656 213.832031 L 158.722656 236.382812 Z M 178.253906 225.105469" stroke="none" fill-rule="evenodd" fill="rgb(50.000763%,0%,50.000763%)" fill-opacity="1"/></g></svg>