<svg height="360pt" viewBox="0 0 360 360" width="360pt" xmlns="http://www.w3.org/2000/svg"><path d="m0 0h360v360h-360z" fill="#fff"/><g fill="#800080"><path d="m174.230469 170.007812 8.65625-4.996093v9.992187zm0 0"/><path d="m174.230469 189.992188 8.65625-4.996094v9.992187zm0 0"/><path d="m191.539062 189.992188 8.65625-4.996094v9.992187zm0 0"/><path d="m165.574219 165.011719 8.65625-5v9.996093zm0 0"/><path d="m156.921875 180 8.652344-4.996094v9.992188zm0 0"/><path d="m174.230469 199.988281 8.65625-5v9.996094zm0 0"/><path d="m182.886719 194.988281 8.652343-4.996093v9.996093zm0 0"/><path d="m200.195312 194.988281 8.652344-4.996093v9.996093zm0 0"/><path d="m200.195312 184.996094 8.652344-4.996094v9.992188zm0 0"/><path d="m182.886719 155.015625 8.652343-4.996094v9.992188zm0 0"/><path d="m148.265625 175.003906 8.65625-4.996094v9.992188zm0 0"/><path d="m165.574219 204.984375 8.65625-4.996094v9.992188zm0 0"/><path d="m174.230469 209.980469 8.65625-4.996094v9.992187zm0 0"/><path d="m208.847656 189.992188 8.65625-4.996094v9.992187zm0 0"/><path d="m208.847656 180 8.65625-4.996094v9.992188zm0 0"/><path d="m208.847656 170.007812 8.65625-4.996093v9.992187zm0 0"/><path d="m156.921875 150.019531 8.652344-4.996093v9.992187zm0 0"/><path d="m148.265625 155.015625 8.65625-4.996094v9.992188zm0 0"/><path d="m139.613281 189.992188 8.652344-4.996094v9.992187zm0 0"/><path d="m148.265625 204.984375 8.65625-4.996094v9.992188zm0 0"/><path d="m156.921875 209.980469 8.652344-4.996094v9.992187zm0 0"/><path d="m165.574219 214.976562 8.65625-4.996093v9.992187zm0 0"/><path d="m174.230469 219.972656 8.65625-4.996094v9.992188zm0 0"/><path d="m182.886719 214.976562 8.652343-4.996093v9.992187zm0 0"/><path d="m217.503906 204.984375 8.652344-4.996094v9.992188zm0 0"/><path d="m217.503906 155.015625 8.652344-4.996094v9.992188zm0 0"/><path d="m208.847656 150.019531 8.65625-4.996093v9.992187zm0 0"/><path d="m165.574219 135.03125 8.65625-5v9.996094zm0 0"/><path d="m156.921875 140.027344 8.652344-4.996094v9.992188zm0 0"/><path d="m148.265625 214.976562 8.65625-4.996093v9.992187zm0 0"/><path d="m156.921875 219.972656 8.652344-4.996094v9.992188zm0 0"/><path d="m165.574219 224.96875 8.65625-4.996094v9.996094zm0 0"/><path d="m226.15625 199.988281 8.65625-5v9.996094zm0 0"/><path d="m226.15625 160.011719 8.65625-4.996094v9.996094zm0 0"/><path d="m165.574219 125.035156 8.65625-4.996094v9.992188zm0 0"/><path d="m156.921875 130.03125 8.652344-4.996094v9.996094zm0 0"/><path d="m122.304688 189.992188 8.652343-4.996094v9.992187zm0 0"/><path d="m122.304688 199.988281 8.652343-5v9.996094zm0 0"/><path d="m130.957031 214.976562 8.65625-4.996093v9.992187zm0 0"/><path d="m139.613281 219.972656 8.652344-4.996094v9.992188zm0 0"/><path d="m148.265625 224.96875 8.65625-4.996094v9.996094zm0 0"/><path d="m156.921875 229.96875 8.652344-5v9.996094zm0 0"/><path d="m208.847656 219.972656 8.65625-4.996094v9.992188zm0 0"/><path d="m217.503906 214.976562 8.652344-4.996093v9.992187zm0 0"/><path d="m234.8125 165.011719 8.652344-5v9.996093zm0 0"/><path d="m234.8125 155.015625 8.652344-4.996094v9.992188zm0 0"/><path d="m226.15625 140.027344 8.65625-4.996094v9.992188zm0 0"/><path d="m113.648438 184.996094 8.65625-4.996094v9.992188zm0 0"/><path d="m113.648438 194.988281 8.65625-4.996093v9.996093zm0 0"/><path d="m243.464844 199.988281 8.65625-5v9.996094zm0 0"/><path d="m226.15625 130.03125 8.65625-4.996094v9.996094zm0 0"/><path d="m104.992188 189.992188 8.65625-4.996094v9.992187zm0 0"/><path d="m234.8125 224.96875 8.652344-4.996094v9.996094zm0 0"/><path d="m252.121094 224.96875 8.65625-4.996094v9.996094zm0 0"/><path d="m243.464844 130.03125 8.65625-4.996094v9.996094zm0 0"/><path d="m226.15625 239.960938 8.65625-4.996094v9.992187zm0 0"/><path d="m234.8125 234.964844 8.652344-4.996094v9.992188zm0 0"/><path d="m260.777344 209.980469 8.652344-4.996094v9.992187zm0 0"/><path d="m234.8125 244.957031 8.652344-4.996093v9.992187zm0 0"/><path d="m243.464844 239.960938 8.65625-4.996094v9.992187zm0 0"/><path d="m252.121094 234.964844 8.65625-4.996094v9.992188zm0 0"/><path d="m269.429688 224.96875 8.65625-4.996094v9.996094zm0 0"/><path d="m278.085938 239.960938 8.652343-4.996094v9.992187zm0 0"/><path d="m269.429688 244.957031 8.65625-4.996093v9.992187zm0 0"/><path d="m182.886719 175.003906-8.65625-4.996094v9.992188zm0 0"/><path d="m182.886719 184.996094-8.65625-4.996094v9.992188zm0 0"/><path d="m200.195312 184.996094-8.65625-4.996094v9.992188zm0 0"/><path d="m191.539062 170.007812-8.652343-4.996093v9.992187zm0 0"/><path d="m182.886719 165.011719-8.65625-5v9.996093zm0 0"/><path d="m174.230469 170.007812-8.65625-4.996093v9.992187zm0 0"/><path d="m174.230469 180-8.65625-4.996094v9.992188zm0 0"/><path d="m191.539062 189.992188-8.652343-4.996094v9.992187zm0 0"/><path d="m208.847656 189.992188-8.652344-4.996094v9.992187zm0 0"/><path d="m191.539062 160.011719-8.652343-4.996094v9.996094zm0 0"/><path d="m165.574219 184.996094-8.652344-4.996094v9.992188zm0 0"/><path d="m174.230469 199.988281-8.65625-5v9.996094zm0 0"/><path d="m182.886719 204.984375-8.65625-4.996094v9.992188zm0 0"/><path d="m191.539062 199.988281-8.652343-5v9.996094zm0 0"/><path d="m217.503906 184.996094-8.65625-4.996094v9.992188zm0 0"/><path d="m217.503906 175.003906-8.65625-4.996094v9.992188zm0 0"/><path d="m217.503906 165.011719-8.65625-5v9.996093zm0 0"/><path d="m200.195312 155.015625-8.65625-4.996094v9.992188zm0 0"/><path d="m191.539062 150.019531-8.652343-4.996093v9.992187zm0 0"/><path d="m182.886719 145.023438-8.65625-4.996094v9.992187zm0 0"/><path d="m165.574219 155.015625-8.652344-4.996094v9.992188zm0 0"/><path d="m156.921875 160.011719-8.65625-4.996094v9.996094zm0 0"/><path d="m156.921875 189.992188-8.65625-4.996094v9.992187zm0 0"/><path d="m156.921875 199.988281-8.65625-5v9.996094zm0 0"/><path d="m165.574219 204.984375-8.652344-4.996094v9.992188zm0 0"/><path d="m174.230469 209.980469-8.65625-4.996094v9.992187zm0 0"/><path d="m182.886719 214.976562-8.65625-4.996093v9.992187zm0 0"/><path d="m191.539062 209.980469-8.652343-4.996094v9.992187zm0 0"/><path d="m226.15625 199.988281-8.652344-5v9.996094zm0 0"/><path d="m226.15625 170.007812-8.652344-4.996093v9.992187zm0 0"/><path d="m182.886719 135.03125-8.65625-5v9.996094zm0 0"/><path d="m174.230469 140.027344-8.65625-4.996094v9.992188zm0 0"/><path d="m156.921875 150.019531-8.65625-4.996093v9.992187zm0 0"/><path d="m148.265625 184.996094-8.652344-4.996094v9.992188zm0 0"/><path d="m156.921875 209.980469-8.65625-4.996094v9.992187zm0 0"/><path d="m165.574219 214.976562-8.652344-4.996093v9.992187zm0 0"/><path d="m174.230469 219.972656-8.65625-4.996094v9.992188zm0 0"/><path d="m208.847656 209.980469-8.652344-4.996094v9.992187zm0 0"/><path d="m234.8125 204.984375-8.65625-4.996094v9.992188zm0 0"/><path d="m234.8125 194.988281-8.65625-4.996093v9.996093zm0 0"/><path d="m234.8125 165.011719-8.65625-5v9.996093zm0 0"/><path d="m234.8125 155.015625-8.65625-4.996094v9.992188zm0 0"/><path d="m174.230469 130.03125-8.65625-4.996094v9.996094zm0 0"/><path d="m148.265625 214.976562-8.652344-4.996093v9.992187zm0 0"/><path d="m156.921875 219.972656-8.65625-4.996094v9.992188zm0 0"/><path d="m165.574219 224.96875-8.652344-4.996094v9.996094zm0 0"/><path d="m226.15625 209.980469-8.652344-4.996094v9.992187zm0 0"/><path d="m243.464844 209.980469-8.652344-4.996094v9.992187zm0 0"/><path d="m243.464844 170.007812-8.652344-4.996093v9.992187zm0 0"/><path d="m243.464844 160.011719-8.652344-4.996094v9.996094zm0 0"/><path d="m243.464844 150.019531-8.652344-4.996093v9.992187zm0 0"/><path d="m130.957031 194.988281-8.652343-4.996093v9.996093zm0 0"/><path d="m156.921875 229.96875-8.65625-5v9.996094zm0 0"/><path d="m234.8125 214.976562-8.65625-4.996093v9.992187zm0 0"/><path d="m252.121094 165.011719-8.65625-5v9.996093zm0 0"/><path d="m234.8125 135.03125-8.65625-5v9.996094zm0 0"/><path d="m122.304688 189.992188-8.65625-4.996094v9.992187zm0 0"/><path d="m122.304688 199.988281-8.65625-5v9.996094zm0 0"/><path d="m156.921875 239.960938-8.65625-4.996094v9.992187zm0 0"/><path d="m260.777344 219.972656-8.65625-4.996094v9.992188zm0 0"/><path d="m234.8125 125.035156-8.65625-4.996094v9.992188zm0 0"/><path d="m234.8125 234.964844-8.65625-4.996094v9.992188zm0 0"/><path d="m269.429688 224.96875-8.652344-4.996094v9.996094zm0 0"/><path d="m260.777344 130.03125-8.65625-4.996094v9.996094zm0 0"/><path d="m252.121094 125.035156-8.65625-4.996094v9.992188zm0 0"/><path d="m243.464844 239.960938-8.652344-4.996094v9.992187zm0 0"/><path d="m252.121094 234.964844-8.65625-4.996094v9.992188zm0 0"/><path d="m260.777344 229.96875-8.65625-5v9.996094zm0 0"/><path d="m278.085938 219.972656-8.65625-4.996094v9.992188zm0 0"/><path d="m278.085938 209.980469-8.65625-4.996094v9.992187zm0 0"/><path d="m243.464844 249.953125-8.652344-4.996094v9.992188zm0 0"/><path d="m252.121094 244.957031-8.65625-4.996093v9.992187zm0 0"/><path d="m260.777344 239.960938-8.65625-4.996094v9.992187zm0 0"/><path d="m269.429688 234.964844-8.652344-4.996094v9.992188zm0 0"/><path d="m286.738281 234.964844-8.652343-4.996094v9.992188zm0 0"/><path d="m286.738281 204.984375-8.652343-4.996094v9.992188zm0 0"/><path d="m243.464844 259.945312-8.652344-4.996093v9.996093zm0 0"/><path d="m269.429688 244.957031-8.652344-4.996093v9.992187zm0 0"/><path d="m286.738281 244.957031-8.652343-4.996093v9.992187zm0 0"/></g></svg>