<svg height="360pt" viewBox="0 0 360 360" width="360pt" xmlns="http://www.w3.org/2000/svg"><path d="m0 0h360v360h-360z" fill="#fff"/><g fill="#800080"><path d="m213.449219 201.34375 5.28125-3.046875v6.097656zm0 0"/><path d="m213.449219 195.246094 5.28125-3.046875v6.097656zm0 0"/><path d="m213.449219 189.148438 5.28125-3.050782v6.101563zm0 0"/><path d="m213.449219 183.050781 5.28125-3.050781v6.097656zm0 0"/><path d="m213.449219 176.949219 5.28125-3.046875v6.097656zm0 0"/><path d="m213.449219 170.851562 5.28125-3.050781v6.101563zm0 0"/><path d="m213.449219 164.753906 5.28125-3.050781v6.097656zm0 0"/><path d="m213.449219 158.65625 5.28125-3.050781v6.097656zm0 0"/><path d="m208.167969 155.605469 5.28125-3.050781v6.101562zm0 0"/><path d="m202.886719 152.554688 5.28125-3.046876v6.097657zm0 0"/><path d="m197.605469 149.507812 5.28125-3.050781v6.097657zm0 0"/><path d="m192.324219 146.457031 5.28125-3.050781v6.101562zm0 0"/><path d="m187.042969 143.40625 5.28125-3.046875v6.097656zm0 0"/><path d="m181.761719 140.359375 5.28125-3.050781v6.097656zm0 0"/><path d="m176.480469 137.308594 5.28125-3.046875v6.097656zm0 0"/><path d="m171.199219 140.359375 5.28125-3.050781v6.097656zm0 0"/><path d="m165.914062 143.40625 5.285157-3.046875v6.097656zm0 0"/><path d="m160.632812 146.457031 5.28125-3.050781v6.101562zm0 0"/><path d="m155.351562 149.507812 5.28125-3.050781v6.097657zm0 0"/><path d="m150.070312 152.554688 5.28125-3.046876v6.097657zm0 0"/><path d="m144.789062 155.605469 5.28125-3.050781v6.101562zm0 0"/><path d="m139.507812 158.65625 5.28125-3.050781v6.097656zm0 0"/><path d="m139.507812 164.753906 5.28125-3.050781v6.097656zm0 0"/><path d="m139.507812 170.851562 5.28125-3.050781v6.101563zm0 0"/><path d="m139.507812 176.949219 5.28125-3.046875v6.097656zm0 0"/><path d="m139.507812 183.050781 5.28125-3.050781v6.097656zm0 0"/><path d="m139.507812 189.148438 5.28125-3.050782v6.101563zm0 0"/><path d="m139.507812 195.246094 5.28125-3.046875v6.097656zm0 0"/><path d="m139.507812 201.34375 5.28125-3.046875v6.097656zm0 0"/><path d="m144.789062 204.394531 5.28125-3.050781v6.101562zm0 0"/><path d="m150.070312 207.445312 5.28125-3.050781v6.097657zm0 0"/><path d="m155.351562 210.492188 5.28125-3.046876v6.097657zm0 0"/><path d="m160.632812 213.542969 5.28125-3.050781v6.101562zm0 0"/><path d="m165.914062 216.59375 5.285157-3.050781v6.097656zm0 0"/><path d="m171.199219 219.640625 5.28125-3.046875v6.097656zm0 0"/><path d="m176.480469 222.691406 5.28125-3.050781v6.097656zm0 0"/><path d="m181.761719 219.640625 5.28125-3.046875v6.097656zm0 0"/><path d="m187.042969 216.59375 5.28125-3.050781v6.097656zm0 0"/><path d="m192.324219 213.542969 5.28125-3.050781v6.101562zm0 0"/><path d="m197.605469 210.492188 5.28125-3.046876v6.097657zm0 0"/><path d="m202.886719 207.445312 5.28125-3.050781v6.097657zm0 0"/><path d="m208.167969 204.394531 5.28125-3.050781v6.101562zm0 0"/><path d="m224.011719 207.445312 5.28125-3.050781v6.097657zm0 0"/><path d="m224.011719 201.34375 5.28125-3.046875v6.097656zm0 0"/><path d="m224.011719 195.246094 5.28125-3.046875v6.097656zm0 0"/><path d="m224.011719 189.148438 5.28125-3.050782v6.101563zm0 0"/><path d="m224.011719 183.050781 5.28125-3.050781v6.097656zm0 0"/><path d="m224.011719 176.949219 5.28125-3.046875v6.097656zm0 0"/><path d="m224.011719 170.851562 5.28125-3.050781v6.101563zm0 0"/><path d="m224.011719 164.753906 5.28125-3.050781v6.097656zm0 0"/><path d="m224.011719 158.65625 5.28125-3.050781v6.097656zm0 0"/><path d="m224.011719 152.554688 5.28125-3.046876v6.097657zm0 0"/><path d="m218.730469 149.507812 5.28125-3.050781v6.097657zm0 0"/><path d="m213.449219 146.457031 5.28125-3.050781v6.101562zm0 0"/><path d="m208.167969 143.40625 5.28125-3.046875v6.097656zm0 0"/><path d="m202.886719 140.359375 5.28125-3.050781v6.097656zm0 0"/><path d="m197.605469 137.308594 5.28125-3.046875v6.097656zm0 0"/><path d="m192.324219 134.261719 5.28125-3.050781v6.097656zm0 0"/><path d="m187.042969 131.210938 5.28125-3.050782v6.101563zm0 0"/><path d="m181.761719 128.160156 5.28125-3.046875v6.097657zm0 0"/><path d="m176.480469 125.113281 5.28125-3.050781v6.097656zm0 0"/><path d="m171.199219 128.160156 5.28125-3.046875v6.097657zm0 0"/><path d="m165.914062 131.210938 5.285157-3.050782v6.101563zm0 0"/><path d="m160.632812 134.261719 5.28125-3.050781v6.097656zm0 0"/><path d="m155.351562 137.308594 5.28125-3.046875v6.097656zm0 0"/><path d="m150.070312 140.359375 5.28125-3.050781v6.097656zm0 0"/><path d="m144.789062 143.40625 5.28125-3.046875v6.097656zm0 0"/><path d="m139.507812 146.457031 5.28125-3.050781v6.101562zm0 0"/><path d="m134.226562 149.507812 5.28125-3.050781v6.097657zm0 0"/><path d="m128.945312 152.554688 5.28125-3.046876v6.097657zm0 0"/><path d="m128.945312 158.65625 5.28125-3.050781v6.097656zm0 0"/><path d="m128.945312 164.753906 5.28125-3.050781v6.097656zm0 0"/><path d="m128.945312 170.851562 5.28125-3.050781v6.101563zm0 0"/><path d="m128.945312 176.949219 5.28125-3.046875v6.097656zm0 0"/><path d="m128.945312 183.050781 5.28125-3.050781v6.097656zm0 0"/><path d="m128.945312 189.148438 5.28125-3.050782v6.101563zm0 0"/><path d="m128.945312 195.246094 5.28125-3.046875v6.097656zm0 0"/><path d="m128.945312 201.34375 5.28125-3.046875v6.097656zm0 0"/><path d="m128.945312 207.445312 5.28125-3.050781v6.097657zm0 0"/><path d="m134.226562 210.492188 5.28125-3.046876v6.097657zm0 0"/><path d="m139.507812 213.542969 5.28125-3.050781v6.101562zm0 0"/><path d="m144.789062 216.59375 5.28125-3.050781v6.097656zm0 0"/><path d="m150.070312 219.640625 5.28125-3.046875v6.097656zm0 0"/><path d="m155.351562 222.691406 5.28125-3.050781v6.097656zm0 0"/><path d="m160.632812 225.738281 5.28125-3.046875v6.097656zm0 0"/><path d="m165.914062 228.789062 5.285157-3.050781v6.101563zm0 0"/><path d="m171.199219 231.839844 5.28125-3.050782v6.097657zm0 0"/><path d="m176.480469 234.886719 5.28125-3.046875v6.097656zm0 0"/><path d="m181.761719 231.839844 5.28125-3.050782v6.097657zm0 0"/><path d="m187.042969 228.789062 5.28125-3.050781v6.101563zm0 0"/><path d="m192.324219 225.738281 5.28125-3.046875v6.097656zm0 0"/><path d="m197.605469 222.691406 5.28125-3.050781v6.097656zm0 0"/><path d="m202.886719 219.640625 5.28125-3.046875v6.097656zm0 0"/><path d="m208.167969 216.59375 5.28125-3.050781v6.097656zm0 0"/><path d="m213.449219 213.542969 5.28125-3.050781v6.101562zm0 0"/><path d="m218.730469 210.492188 5.28125-3.046876v6.097657zm0 0"/><path d="m297.957031 250.132812 5.28125-3.046874v6.097656zm0 0"/><path d="m297.957031 244.035156 5.28125-3.046875v6.097657zm0 0"/><path d="m297.957031 237.9375 5.28125-3.050781v6.101562zm0 0"/><path d="m297.957031 231.839844 5.28125-3.050782v6.097657zm0 0"/><path d="m297.957031 225.738281 5.28125-3.046875v6.097656zm0 0"/><path d="m297.957031 219.640625 5.28125-3.046875v6.097656zm0 0"/><path d="m297.957031 213.542969 5.28125-3.050781v6.101562zm0 0"/><path d="m297.957031 207.445312 5.28125-3.050781v6.097657zm0 0"/><path d="m297.957031 201.34375 5.28125-3.046875v6.097656zm0 0"/><path d="m297.957031 195.246094 5.28125-3.046875v6.097656zm0 0"/><path d="m297.957031 189.148438 5.28125-3.050782v6.101563zm0 0"/><path d="m297.957031 183.050781 5.28125-3.050781v6.097656zm0 0"/><path d="m297.957031 176.949219 5.28125-3.046875v6.097656zm0 0"/><path d="m297.957031 170.851562 5.28125-3.050781v6.101563zm0 0"/><path d="m297.957031 164.753906 5.28125-3.050781v6.097656zm0 0"/><path d="m297.957031 158.65625 5.28125-3.050781v6.097656zm0 0"/><path d="m297.957031 152.554688 5.28125-3.046876v6.097657zm0 0"/><path d="m297.957031 146.457031 5.28125-3.050781v6.101562zm0 0"/><path d="m297.957031 140.359375 5.28125-3.050781v6.097656zm0 0"/><path d="m297.957031 134.261719 5.28125-3.050781v6.097656zm0 0"/><path d="m297.957031 128.160156 5.28125-3.046875v6.097657zm0 0"/><path d="m297.957031 122.0625 5.28125-3.050781v6.101562zm0 0"/><path d="m297.957031 115.964844 5.28125-3.050782v6.097657zm0 0"/><path d="m297.957031 109.867188 5.28125-3.050782v6.097656zm0 0"/><path d="m292.675781 106.816406 5.28125-3.050781v6.101563zm0 0"/><path d="m287.390625 103.765625 5.285156-3.046875v6.097656zm0 0"/><path d="m282.109375 100.71875 5.28125-3.050781v6.097656zm0 0"/><path d="m276.828125 97.667969 5.28125-3.050781v6.101562zm0 0"/><path d="m271.546875 94.617188 5.28125-3.046876v6.097657zm0 0"/><path d="m266.265625 91.570312 5.28125-3.050781v6.097657zm0 0"/><path d="m260.984375 88.519531 5.28125-3.046875v6.097656zm0 0"/><path d="m255.703125 85.472656 5.28125-3.050781v6.097656zm0 0"/><path d="m250.421875 82.421875 5.28125-3.050781v6.101562zm0 0"/><path d="m245.140625 79.371094 5.28125-3.046875v6.097656zm0 0"/><path d="m239.859375 76.324219 5.28125-3.050781v6.097656zm0 0"/><path d="m234.578125 73.273438 5.28125-3.050782v6.101563zm0 0"/><path d="m229.292969 70.222656 5.285156-3.046875v6.097657zm0 0"/><path d="m224.011719 67.175781 5.28125-3.050781v6.097656zm0 0"/><path d="m218.730469 64.125 5.28125-3.046875v6.097656zm0 0"/><path d="m213.449219 61.078125 5.28125-3.050781v6.097656zm0 0"/><path d="m208.167969 58.027344 5.28125-3.050782v6.101563zm0 0"/><path d="m202.886719 54.976562 5.28125-3.046874v6.097656zm0 0"/><path d="m197.605469 51.929688 5.28125-3.050782v6.097656zm0 0"/><path d="m192.324219 48.878906 5.28125-3.050781v6.101563zm0 0"/><path d="m187.042969 45.828125 5.28125-3.046875v6.097656zm0 0"/><path d="m181.761719 42.78125 5.28125-3.050781v6.097656zm0 0"/><path d="m176.480469 39.730469 5.28125-3.050781v6.101562zm0 0"/><path d="m171.199219 42.78125 5.28125-3.050781v6.097656zm0 0"/><path d="m165.914062 45.828125 5.285157-3.046875v6.097656zm0 0"/><path d="m160.632812 48.878906 5.28125-3.050781v6.101563zm0 0"/><path d="m155.351562 51.929688 5.28125-3.050782v6.097656zm0 0"/><path d="m150.070312 54.976562 5.28125-3.046874v6.097656zm0 0"/><path d="m144.789062 58.027344 5.28125-3.050782v6.101563zm0 0"/><path d="m139.507812 61.078125 5.28125-3.050781v6.097656zm0 0"/><path d="m134.226562 64.125 5.28125-3.046875v6.097656zm0 0"/><path d="m128.945312 67.175781 5.28125-3.050781v6.097656zm0 0"/><path d="m123.664062 70.222656 5.28125-3.046875v6.097657zm0 0"/><path d="m118.382812 73.273438 5.28125-3.050782v6.101563zm0 0"/><path d="m113.101562 76.324219 5.28125-3.050781v6.097656zm0 0"/><path d="m107.816406 79.371094 5.285156-3.046875v6.097656zm0 0"/><path d="m102.535156 82.421875 5.28125-3.050781v6.101562zm0 0"/><path d="m97.253906 85.472656 5.28125-3.050781v6.097656zm0 0"/><path d="m91.972656 88.519531 5.28125-3.046875v6.097656zm0 0"/><path d="m86.691406 91.570312 5.28125-3.050781v6.097657zm0 0"/><path d="m81.410156 94.617188 5.28125-3.046876v6.097657zm0 0"/><path d="m76.128906 97.667969 5.28125-3.050781v6.101562zm0 0"/><path d="m70.847656 100.71875 5.28125-3.050781v6.097656zm0 0"/><path d="m65.566406 103.765625 5.28125-3.046875v6.097656zm0 0"/><path d="m60.285156 106.816406 5.28125-3.050781v6.101563zm0 0"/><path d="m55.003906 109.867188 5.28125-3.050782v6.097656zm0 0"/><path d="m55.003906 115.964844 5.28125-3.050782v6.097657zm0 0"/><path d="m55.003906 122.0625 5.28125-3.050781v6.101562zm0 0"/><path d="m55.003906 128.160156 5.28125-3.046875v6.097657zm0 0"/><path d="m55.003906 134.261719 5.28125-3.050781v6.097656zm0 0"/><path d="m55.003906 140.359375 5.28125-3.050781v6.097656zm0 0"/><path d="m55.003906 146.457031 5.28125-3.050781v6.101562zm0 0"/><path d="m55.003906 152.554688 5.28125-3.046876v6.097657zm0 0"/><path d="m55.003906 158.65625 5.28125-3.050781v6.097656zm0 0"/><path d="m55.003906 164.753906 5.28125-3.050781v6.097656zm0 0"/><path d="m55.003906 170.851562 5.28125-3.050781v6.101563zm0 0"/><path d="m55.003906 176.949219 5.28125-3.046875v6.097656zm0 0"/><path d="m55.003906 183.050781 5.28125-3.050781v6.097656zm0 0"/><path d="m55.003906 189.148438 5.28125-3.050782v6.101563zm0 0"/><path d="m55.003906 195.246094 5.28125-3.046875v6.097656zm0 0"/><path d="m55.003906 201.34375 5.28125-3.046875v6.097656zm0 0"/><path d="m55.003906 207.445312 5.28125-3.050781v6.097657zm0 0"/><path d="m55.003906 213.542969 5.28125-3.050781v6.101562zm0 0"/><path d="m55.003906 219.640625 5.28125-3.046875v6.097656zm0 0"/><path d="m55.003906 225.738281 5.28125-3.046875v6.097656zm0 0"/><path d="m55.003906 231.839844 5.28125-3.050782v6.097657zm0 0"/><path d="m55.003906 237.9375 5.28125-3.050781v6.101562zm0 0"/><path d="m55.003906 244.035156 5.28125-3.046875v6.097657zm0 0"/><path d="m55.003906 250.132812 5.28125-3.046874v6.097656zm0 0"/><path d="m60.285156 253.183594 5.28125-3.050782v6.101563zm0 0"/><path d="m65.566406 256.234375 5.28125-3.050781v6.097656zm0 0"/><path d="m70.847656 259.28125 5.28125-3.046875v6.097656zm0 0"/><path d="m76.128906 262.332031 5.28125-3.050781v6.101562zm0 0"/><path d="m81.410156 265.382812 5.28125-3.050781v6.097657zm0 0"/><path d="m86.691406 268.429688 5.28125-3.046876v6.097657zm0 0"/><path d="m91.972656 271.480469 5.28125-3.050781v6.097656zm0 0"/><path d="m97.253906 274.527344 5.28125-3.046875v6.097656zm0 0"/><path d="m102.535156 277.578125 5.28125-3.050781v6.101562zm0 0"/><path d="m107.816406 280.628906 5.285156-3.050781v6.097656zm0 0"/><path d="m113.101562 283.675781 5.28125-3.046875v6.097656zm0 0"/><path d="m118.382812 286.726562 5.28125-3.050781v6.101563zm0 0"/><path d="m123.664062 289.777344 5.28125-3.050782v6.097657zm0 0"/><path d="m128.945312 292.824219 5.28125-3.046875v6.097656zm0 0"/><path d="m134.226562 295.875 5.28125-3.050781v6.097656zm0 0"/><path d="m139.507812 298.921875 5.28125-3.046875v6.097656zm0 0"/><path d="m144.789062 301.972656 5.28125-3.050781v6.101563zm0 0"/><path d="m150.070312 305.023438 5.28125-3.050782v6.097656zm0 0"/><path d="m155.351562 308.070312 5.28125-3.046874v6.097656zm0 0"/><path d="m160.632812 311.121094 5.28125-3.050782v6.101563zm0 0"/><path d="m165.914062 314.171875 5.285157-3.050781v6.097656zm0 0"/><path d="m171.199219 317.21875 5.28125-3.046875v6.097656zm0 0"/><path d="m176.480469 320.269531 5.28125-3.050781v6.101562zm0 0"/><path d="m181.761719 317.21875 5.28125-3.046875v6.097656zm0 0"/><path d="m187.042969 314.171875 5.28125-3.050781v6.097656zm0 0"/><path d="m192.324219 311.121094 5.28125-3.050782v6.101563zm0 0"/><path d="m197.605469 308.070312 5.28125-3.046874v6.097656zm0 0"/><path d="m202.886719 305.023438 5.28125-3.050782v6.097656zm0 0"/><path d="m208.167969 301.972656 5.28125-3.050781v6.101563zm0 0"/><path d="m213.449219 298.921875 5.28125-3.046875v6.097656zm0 0"/><path d="m218.730469 295.875 5.28125-3.050781v6.097656zm0 0"/><path d="m224.011719 292.824219 5.28125-3.046875v6.097656zm0 0"/><path d="m229.292969 289.777344 5.285156-3.050782v6.097657zm0 0"/><path d="m234.578125 286.726562 5.28125-3.050781v6.101563zm0 0"/><path d="m239.859375 283.675781 5.28125-3.046875v6.097656zm0 0"/><path d="m245.140625 280.628906 5.28125-3.050781v6.097656zm0 0"/><path d="m250.421875 277.578125 5.28125-3.050781v6.101562zm0 0"/><path d="m255.703125 274.527344 5.28125-3.046875v6.097656zm0 0"/><path d="m260.984375 271.480469 5.28125-3.050781v6.097656zm0 0"/><path d="m266.265625 268.429688 5.28125-3.046876v6.097657zm0 0"/><path d="m271.546875 265.382812 5.28125-3.050781v6.097657zm0 0"/><path d="m276.828125 262.332031 5.28125-3.050781v6.101562zm0 0"/><path d="m282.109375 259.28125 5.28125-3.046875v6.097656zm0 0"/><path d="m287.390625 256.234375 5.285156-3.050781v6.097656zm0 0"/><path d="m292.675781 253.183594 5.28125-3.050782v6.101563zm0 0"/><path d="m308.519531 256.234375 5.28125-3.050781v6.097656zm0 0"/><path d="m308.519531 250.132812 5.28125-3.046874v6.097656zm0 0"/><path d="m308.519531 244.035156 5.28125-3.046875v6.097657zm0 0"/><path d="m308.519531 237.9375 5.28125-3.050781v6.101562zm0 0"/><path d="m308.519531 231.839844 5.28125-3.050782v6.097657zm0 0"/><path d="m308.519531 225.738281 5.28125-3.046875v6.097656zm0 0"/><path d="m308.519531 219.640625 5.28125-3.046875v6.097656zm0 0"/><path d="m308.519531 213.542969 5.28125-3.050781v6.101562zm0 0"/><path d="m308.519531 207.445312 5.28125-3.050781v6.097657zm0 0"/><path d="m308.519531 201.34375 5.28125-3.046875v6.097656zm0 0"/><path d="m308.519531 195.246094 5.28125-3.046875v6.097656zm0 0"/><path d="m308.519531 189.148438 5.28125-3.050782v6.101563zm0 0"/><path d="m308.519531 183.050781 5.28125-3.050781v6.097656zm0 0"/><path d="m308.519531 176.949219 5.28125-3.046875v6.097656zm0 0"/><path d="m308.519531 170.851562 5.28125-3.050781v6.101563zm0 0"/><path d="m308.519531 164.753906 5.28125-3.050781v6.097656zm0 0"/><path d="m308.519531 158.65625 5.28125-3.050781v6.097656zm0 0"/><path d="m308.519531 152.554688 5.28125-3.046876v6.097657zm0 0"/><path d="m308.519531 146.457031 5.28125-3.050781v6.101562zm0 0"/><path d="m308.519531 140.359375 5.28125-3.050781v6.097656zm0 0"/><path d="m308.519531 134.261719 5.28125-3.050781v6.097656zm0 0"/><path d="m308.519531 128.160156 5.28125-3.046875v6.097657zm0 0"/><path d="m308.519531 122.0625 5.28125-3.050781v6.101562zm0 0"/><path d="m308.519531 115.964844 5.28125-3.050782v6.097657zm0 0"/><path d="m308.519531 109.867188 5.28125-3.050782v6.097656zm0 0"/><path d="m308.519531 103.765625 5.28125-3.046875v6.097656zm0 0"/><path d="m303.238281 100.71875 5.28125-3.050781v6.097656zm0 0"/><path d="m297.957031 97.667969 5.28125-3.050781v6.101562zm0 0"/><path d="m292.675781 94.617188 5.28125-3.046876v6.097657zm0 0"/><path d="m287.390625 91.570312 5.285156-3.050781v6.097657zm0 0"/><path d="m282.109375 88.519531 5.28125-3.046875v6.097656zm0 0"/><path d="m276.828125 85.472656 5.28125-3.050781v6.097656zm0 0"/><path d="m271.546875 82.421875 5.28125-3.050781v6.101562zm0 0"/><path d="m266.265625 79.371094 5.28125-3.046875v6.097656zm0 0"/><path d="m260.984375 76.324219 5.28125-3.050781v6.097656zm0 0"/><path d="m255.703125 73.273438 5.28125-3.050782v6.101563zm0 0"/><path d="m250.421875 70.222656 5.28125-3.046875v6.097657zm0 0"/><path d="m245.140625 67.175781 5.28125-3.050781v6.097656zm0 0"/><path d="m239.859375 64.125 5.28125-3.046875v6.097656zm0 0"/><path d="m234.578125 61.078125 5.28125-3.050781v6.097656zm0 0"/><path d="m229.292969 58.027344 5.285156-3.050782v6.101563zm0 0"/><path d="m224.011719 54.976562 5.28125-3.046874v6.097656zm0 0"/><path d="m218.730469 51.929688 5.28125-3.050782v6.097656zm0 0"/><path d="m213.449219 48.878906 5.28125-3.050781v6.101563zm0 0"/><path d="m208.167969 45.828125 5.28125-3.046875v6.097656zm0 0"/><path d="m202.886719 42.78125 5.28125-3.050781v6.097656zm0 0"/><path d="m197.605469 39.730469 5.28125-3.050781v6.101562zm0 0"/><path d="m192.324219 36.679688 5.28125-3.046876v6.097657zm0 0"/><path d="m187.042969 33.632812 5.28125-3.050781v6.097657zm0 0"/><path d="m181.761719 30.582031 5.28125-3.046875v6.097656zm0 0"/><path d="m176.480469 27.535156 5.28125-3.050781v6.097656zm0 0"/><path d="m171.199219 30.582031 5.28125-3.046875v6.097656zm0 0"/><path d="m165.914062 33.632812 5.285157-3.050781v6.097657zm0 0"/><path d="m160.632812 36.679688 5.28125-3.046876v6.097657zm0 0"/><path d="m155.351562 39.730469 5.28125-3.050781v6.101562zm0 0"/><path d="m150.070312 42.78125 5.28125-3.050781v6.097656zm0 0"/><path d="m144.789062 45.828125 5.28125-3.046875v6.097656zm0 0"/><path d="m139.507812 48.878906 5.28125-3.050781v6.101563zm0 0"/><path d="m134.226562 51.929688 5.28125-3.050782v6.097656zm0 0"/><path d="m128.945312 54.976562 5.28125-3.046874v6.097656zm0 0"/><path d="m123.664062 58.027344 5.28125-3.050782v6.101563zm0 0"/><path d="m118.382812 61.078125 5.28125-3.050781v6.097656zm0 0"/><path d="m113.101562 64.125 5.28125-3.046875v6.097656zm0 0"/><path d="m107.816406 67.175781 5.285156-3.050781v6.097656zm0 0"/><path d="m102.535156 70.222656 5.28125-3.046875v6.097657zm0 0"/><path d="m97.253906 73.273438 5.28125-3.050782v6.101563zm0 0"/><path d="m91.972656 76.324219 5.28125-3.050781v6.097656zm0 0"/><path d="m86.691406 79.371094 5.28125-3.046875v6.097656zm0 0"/><path d="m81.410156 82.421875 5.28125-3.050781v6.101562zm0 0"/><path d="m76.128906 85.472656 5.28125-3.050781v6.097656zm0 0"/><path d="m70.847656 88.519531 5.28125-3.046875v6.097656zm0 0"/><path d="m65.566406 91.570312 5.28125-3.050781v6.097657zm0 0"/><path d="m60.285156 94.617188 5.28125-3.046876v6.097657zm0 0"/><path d="m55.003906 97.667969 5.28125-3.050781v6.101562zm0 0"/><path d="m49.722656 100.71875 5.28125-3.050781v6.097656zm0 0"/><path d="m44.4375 103.765625 5.285156-3.046875v6.097656zm0 0"/><path d="m44.4375 109.867188 5.285156-3.050782v6.097656zm0 0"/><path d="m44.4375 115.964844 5.285156-3.050782v6.097657zm0 0"/><path d="m44.4375 122.0625 5.285156-3.050781v6.101562zm0 0"/><path d="m44.4375 128.160156 5.285156-3.046875v6.097657zm0 0"/><path d="m44.4375 134.261719 5.285156-3.050781v6.097656zm0 0"/><path d="m44.4375 140.359375 5.285156-3.050781v6.097656zm0 0"/><path d="m44.4375 146.457031 5.285156-3.050781v6.101562zm0 0"/><path d="m44.4375 152.554688 5.285156-3.046876v6.097657zm0 0"/><path d="m44.4375 158.65625 5.285156-3.050781v6.097656zm0 0"/><path d="m44.4375 164.753906 5.285156-3.050781v6.097656zm0 0"/><path d="m44.4375 170.851562 5.285156-3.050781v6.101563zm0 0"/><path d="m44.4375 176.949219 5.285156-3.046875v6.097656zm0 0"/><path d="m44.4375 183.050781 5.285156-3.050781v6.097656zm0 0"/><path d="m44.4375 189.148438 5.285156-3.050782v6.101563zm0 0"/><path d="m44.4375 195.246094 5.285156-3.046875v6.097656zm0 0"/><path d="m44.4375 201.34375 5.285156-3.046875v6.097656zm0 0"/><path d="m44.4375 207.445312 5.285156-3.050781v6.097657zm0 0"/><path d="m44.4375 213.542969 5.285156-3.050781v6.101562zm0 0"/><path d="m44.4375 219.640625 5.285156-3.046875v6.097656zm0 0"/><path d="m44.4375 225.738281 5.285156-3.046875v6.097656zm0 0"/><path d="m44.4375 231.839844 5.285156-3.050782v6.097657zm0 0"/><path d="m44.4375 237.9375 5.285156-3.050781v6.101562zm0 0"/><path d="m44.4375 244.035156 5.285156-3.046875v6.097657zm0 0"/><path d="m44.4375 250.132812 5.285156-3.046874v6.097656zm0 0"/><path d="m44.4375 256.234375 5.285156-3.050781v6.097656zm0 0"/><path d="m49.722656 259.28125 5.28125-3.046875v6.097656zm0 0"/><path d="m55.003906 262.332031 5.28125-3.050781v6.101562zm0 0"/><path d="m60.285156 265.382812 5.28125-3.050781v6.097657zm0 0"/><path d="m65.566406 268.429688 5.28125-3.046876v6.097657zm0 0"/><path d="m70.847656 271.480469 5.28125-3.050781v6.097656zm0 0"/><path d="m76.128906 274.527344 5.28125-3.046875v6.097656zm0 0"/><path d="m81.410156 277.578125 5.28125-3.050781v6.101562zm0 0"/><path d="m86.691406 280.628906 5.28125-3.050781v6.097656zm0 0"/><path d="m91.972656 283.675781 5.28125-3.046875v6.097656zm0 0"/><path d="m97.253906 286.726562 5.28125-3.050781v6.101563zm0 0"/><path d="m102.535156 289.777344 5.28125-3.050782v6.097657zm0 0"/><path d="m107.816406 292.824219 5.285156-3.046875v6.097656zm0 0"/><path d="m113.101562 295.875 5.28125-3.050781v6.097656zm0 0"/><path d="m118.382812 298.921875 5.28125-3.046875v6.097656zm0 0"/><path d="m123.664062 301.972656 5.28125-3.050781v6.101563zm0 0"/><path d="m128.945312 305.023438 5.28125-3.050782v6.097656zm0 0"/><path d="m134.226562 308.070312 5.28125-3.046874v6.097656zm0 0"/><path d="m139.507812 311.121094 5.28125-3.050782v6.101563zm0 0"/><path d="m144.789062 314.171875 5.28125-3.050781v6.097656zm0 0"/><path d="m150.070312 317.21875 5.28125-3.046875v6.097656zm0 0"/><path d="m155.351562 320.269531 5.28125-3.050781v6.101562zm0 0"/><path d="m160.632812 323.320312 5.28125-3.050781v6.097657zm0 0"/><path d="m165.914062 326.367188 5.285157-3.046876v6.097657zm0 0"/><path d="m171.199219 329.417969 5.28125-3.050781v6.097656zm0 0"/><path d="m176.480469 332.464844 5.28125-3.046875v6.097656zm0 0"/><path d="m181.761719 329.417969 5.28125-3.050781v6.097656zm0 0"/><path d="m187.042969 326.367188 5.28125-3.046876v6.097657zm0 0"/><path d="m192.324219 323.320312 5.28125-3.050781v6.097657zm0 0"/><path d="m197.605469 320.269531 5.28125-3.050781v6.101562zm0 0"/><path d="m202.886719 317.21875 5.28125-3.046875v6.097656zm0 0"/><path d="m208.167969 314.171875 5.28125-3.050781v6.097656zm0 0"/><path d="m213.449219 311.121094 5.28125-3.050782v6.101563zm0 0"/><path d="m218.730469 308.070312 5.28125-3.046874v6.097656zm0 0"/><path d="m224.011719 305.023438 5.28125-3.050782v6.097656zm0 0"/><path d="m229.292969 301.972656 5.285156-3.050781v6.101563zm0 0"/><path d="m234.578125 298.921875 5.28125-3.046875v6.097656zm0 0"/><path d="m239.859375 295.875 5.28125-3.050781v6.097656zm0 0"/><path d="m245.140625 292.824219 5.28125-3.046875v6.097656zm0 0"/><path d="m250.421875 289.777344 5.28125-3.050782v6.097657zm0 0"/><path d="m255.703125 286.726562 5.28125-3.050781v6.101563zm0 0"/><path d="m260.984375 283.675781 5.28125-3.046875v6.097656zm0 0"/><path d="m266.265625 280.628906 5.28125-3.050781v6.097656zm0 0"/><path d="m271.546875 277.578125 5.28125-3.050781v6.101562zm0 0"/><path d="m276.828125 274.527344 5.28125-3.046875v6.097656zm0 0"/><path d="m282.109375 271.480469 5.28125-3.050781v6.097656zm0 0"/><path d="m287.390625 268.429688 5.285156-3.046876v6.097657zm0 0"/><path d="m292.675781 265.382812 5.28125-3.050781v6.097657zm0 0"/><path d="m297.957031 262.332031 5.28125-3.050781v6.101562zm0 0"/><path d="m303.238281 259.28125 5.28125-3.046875v6.097656zm0 0"/><path d="m218.730469 198.296875-5.28125-3.050781v6.097656zm0 0"/><path d="m218.730469 192.199219-5.28125-3.050781v6.097656zm0 0"/><path d="m218.730469 186.097656-5.28125-3.046875v6.097657zm0 0"/><path d="m218.730469 180-5.28125-3.050781v6.101562zm0 0"/><path d="m218.730469 173.902344-5.28125-3.050782v6.097657zm0 0"/><path d="m218.730469 167.800781-5.28125-3.046875v6.097656zm0 0"/><path d="m218.730469 161.703125-5.28125-3.046875v6.097656zm0 0"/><path d="m213.449219 158.65625-5.28125-3.050781v6.097656zm0 0"/><path d="m208.167969 155.605469-5.28125-3.050781v6.101562zm0 0"/><path d="m202.886719 152.554688-5.28125-3.046876v6.097657zm0 0"/><path d="m197.605469 149.507812-5.28125-3.050781v6.097657zm0 0"/><path d="m192.324219 146.457031-5.28125-3.050781v6.101562zm0 0"/><path d="m187.042969 143.40625-5.28125-3.046875v6.097656zm0 0"/><path d="m181.761719 140.359375-5.28125-3.050781v6.097656zm0 0"/><path d="m176.480469 143.40625-5.28125-3.046875v6.097656zm0 0"/><path d="m171.199219 146.457031-5.285157-3.050781v6.101562zm0 0"/><path d="m165.914062 149.507812-5.28125-3.050781v6.097657zm0 0"/><path d="m160.632812 152.554688-5.28125-3.046876v6.097657zm0 0"/><path d="m155.351562 155.605469-5.28125-3.050781v6.101562zm0 0"/><path d="m150.070312 158.65625-5.28125-3.050781v6.097656zm0 0"/><path d="m150.070312 164.753906-5.28125-3.050781v6.097656zm0 0"/><path d="m150.070312 170.851562-5.28125-3.050781v6.101563zm0 0"/><path d="m150.070312 176.949219-5.28125-3.046875v6.097656zm0 0"/><path d="m150.070312 183.050781-5.28125-3.050781v6.097656zm0 0"/><path d="m150.070312 189.148438-5.28125-3.050782v6.101563zm0 0"/><path d="m150.070312 195.246094-5.28125-3.046875v6.097656zm0 0"/><path d="m150.070312 201.34375-5.28125-3.046875v6.097656zm0 0"/><path d="m155.351562 204.394531-5.28125-3.050781v6.101562zm0 0"/><path d="m160.632812 207.445312-5.28125-3.050781v6.097657zm0 0"/><path d="m165.914062 210.492188-5.28125-3.046876v6.097657zm0 0"/><path d="m171.199219 213.542969-5.285157-3.050781v6.101562zm0 0"/><path d="m176.480469 216.59375-5.28125-3.050781v6.097656zm0 0"/><path d="m181.761719 219.640625-5.28125-3.046875v6.097656zm0 0"/><path d="m187.042969 216.59375-5.28125-3.050781v6.097656zm0 0"/><path d="m192.324219 213.542969-5.28125-3.050781v6.101562zm0 0"/><path d="m197.605469 210.492188-5.28125-3.046876v6.097657zm0 0"/><path d="m202.886719 207.445312-5.28125-3.050781v6.097657zm0 0"/><path d="m208.167969 204.394531-5.28125-3.050781v6.101562zm0 0"/><path d="m213.449219 201.34375-5.28125-3.046875v6.097656zm0 0"/><path d="m229.292969 204.394531-5.28125-3.050781v6.101562zm0 0"/><path d="m229.292969 198.296875-5.28125-3.050781v6.097656zm0 0"/><path d="m229.292969 192.199219-5.28125-3.050781v6.097656zm0 0"/><path d="m229.292969 186.097656-5.28125-3.046875v6.097657zm0 0"/><path d="m229.292969 180-5.28125-3.050781v6.101562zm0 0"/><path d="m229.292969 173.902344-5.28125-3.050782v6.097657zm0 0"/><path d="m229.292969 167.800781-5.28125-3.046875v6.097656zm0 0"/><path d="m229.292969 161.703125-5.28125-3.046875v6.097656zm0 0"/><path d="m229.292969 155.605469-5.28125-3.050781v6.101562zm0 0"/><path d="m224.011719 152.554688-5.28125-3.046876v6.097657zm0 0"/><path d="m218.730469 149.507812-5.28125-3.050781v6.097657zm0 0"/><path d="m213.449219 146.457031-5.28125-3.050781v6.101562zm0 0"/><path d="m208.167969 143.40625-5.28125-3.046875v6.097656zm0 0"/><path d="m202.886719 140.359375-5.28125-3.050781v6.097656zm0 0"/><path d="m197.605469 137.308594-5.28125-3.046875v6.097656zm0 0"/><path d="m192.324219 134.261719-5.28125-3.050781v6.097656zm0 0"/><path d="m187.042969 131.210938-5.28125-3.050782v6.101563zm0 0"/><path d="m181.761719 128.160156-5.28125-3.046875v6.097657zm0 0"/><path d="m176.480469 131.210938-5.28125-3.050782v6.101563zm0 0"/><path d="m171.199219 134.261719-5.285157-3.050781v6.097656zm0 0"/><path d="m165.914062 137.308594-5.28125-3.046875v6.097656zm0 0"/><path d="m160.632812 140.359375-5.28125-3.050781v6.097656zm0 0"/><path d="m155.351562 143.40625-5.28125-3.046875v6.097656zm0 0"/><path d="m150.070312 146.457031-5.28125-3.050781v6.101562zm0 0"/><path d="m144.789062 149.507812-5.28125-3.050781v6.097657zm0 0"/><path d="m139.507812 152.554688-5.28125-3.046876v6.097657zm0 0"/><path d="m139.507812 158.65625-5.28125-3.050781v6.097656zm0 0"/><path d="m139.507812 164.753906-5.28125-3.050781v6.097656zm0 0"/><path d="m139.507812 170.851562-5.28125-3.050781v6.101563zm0 0"/><path d="m139.507812 176.949219-5.28125-3.046875v6.097656zm0 0"/><path d="m139.507812 183.050781-5.28125-3.050781v6.097656zm0 0"/><path d="m139.507812 189.148438-5.28125-3.050782v6.101563zm0 0"/><path d="m139.507812 195.246094-5.28125-3.046875v6.097656zm0 0"/><path d="m139.507812 201.34375-5.28125-3.046875v6.097656zm0 0"/><path d="m139.507812 207.445312-5.28125-3.050781v6.097657zm0 0"/><path d="m144.789062 210.492188-5.28125-3.046876v6.097657zm0 0"/><path d="m150.070312 213.542969-5.28125-3.050781v6.101562zm0 0"/><path d="m155.351562 216.59375-5.28125-3.050781v6.097656zm0 0"/><path d="m160.632812 219.640625-5.28125-3.046875v6.097656zm0 0"/><path d="m165.914062 222.691406-5.28125-3.050781v6.097656zm0 0"/><path d="m171.199219 225.738281-5.285157-3.046875v6.097656zm0 0"/><path d="m176.480469 228.789062-5.28125-3.050781v6.101563zm0 0"/><path d="m181.761719 231.839844-5.28125-3.050782v6.097657zm0 0"/><path d="m187.042969 228.789062-5.28125-3.050781v6.101563zm0 0"/><path d="m192.324219 225.738281-5.28125-3.046875v6.097656zm0 0"/><path d="m197.605469 222.691406-5.28125-3.050781v6.097656zm0 0"/><path d="m202.886719 219.640625-5.28125-3.046875v6.097656zm0 0"/><path d="m208.167969 216.59375-5.28125-3.050781v6.097656zm0 0"/><path d="m213.449219 213.542969-5.28125-3.050781v6.101562zm0 0"/><path d="m218.730469 210.492188-5.28125-3.046876v6.097657zm0 0"/><path d="m224.011719 207.445312-5.28125-3.050781v6.097657zm0 0"/><path d="m303.238281 247.085938-5.28125-3.050782v6.097656zm0 0"/><path d="m303.238281 240.988281-5.28125-3.050781v6.097656zm0 0"/><path d="m303.238281 234.886719-5.28125-3.046875v6.097656zm0 0"/><path d="m303.238281 228.789062-5.28125-3.050781v6.101563zm0 0"/><path d="m303.238281 222.691406-5.28125-3.050781v6.097656zm0 0"/><path d="m303.238281 216.59375-5.28125-3.050781v6.097656zm0 0"/><path d="m303.238281 210.492188-5.28125-3.046876v6.097657zm0 0"/><path d="m303.238281 204.394531-5.28125-3.050781v6.101562zm0 0"/><path d="m303.238281 198.296875-5.28125-3.050781v6.097656zm0 0"/><path d="m303.238281 192.199219-5.28125-3.050781v6.097656zm0 0"/><path d="m303.238281 186.097656-5.28125-3.046875v6.097657zm0 0"/><path d="m303.238281 180-5.28125-3.050781v6.101562zm0 0"/><path d="m303.238281 173.902344-5.28125-3.050782v6.097657zm0 0"/><path d="m303.238281 167.800781-5.28125-3.046875v6.097656zm0 0"/><path d="m303.238281 161.703125-5.28125-3.046875v6.097656zm0 0"/><path d="m303.238281 155.605469-5.28125-3.050781v6.101562zm0 0"/><path d="m303.238281 149.507812-5.28125-3.050781v6.097657zm0 0"/><path d="m303.238281 143.40625-5.28125-3.046875v6.097656zm0 0"/><path d="m303.238281 137.308594-5.28125-3.046875v6.097656zm0 0"/><path d="m303.238281 131.210938-5.28125-3.050782v6.101563zm0 0"/><path d="m303.238281 125.113281-5.28125-3.050781v6.097656zm0 0"/><path d="m303.238281 119.011719-5.28125-3.046875v6.097656zm0 0"/><path d="m303.238281 112.914062-5.28125-3.046874v6.097656zm0 0"/><path d="m297.957031 109.867188-5.28125-3.050782v6.097656zm0 0"/><path d="m292.675781 106.816406-5.285156-3.050781v6.101563zm0 0"/><path d="m287.390625 103.765625-5.28125-3.046875v6.097656zm0 0"/><path d="m282.109375 100.71875-5.28125-3.050781v6.097656zm0 0"/><path d="m276.828125 97.667969-5.28125-3.050781v6.101562zm0 0"/><path d="m271.546875 94.617188-5.28125-3.046876v6.097657zm0 0"/><path d="m266.265625 91.570312-5.28125-3.050781v6.097657zm0 0"/><path d="m260.984375 88.519531-5.28125-3.046875v6.097656zm0 0"/><path d="m255.703125 85.472656-5.28125-3.050781v6.097656zm0 0"/><path d="m250.421875 82.421875-5.28125-3.050781v6.101562zm0 0"/><path d="m245.140625 79.371094-5.28125-3.046875v6.097656zm0 0"/><path d="m239.859375 76.324219-5.28125-3.050781v6.097656zm0 0"/><path d="m234.578125 73.273438-5.285156-3.050782v6.101563zm0 0"/><path d="m229.292969 70.222656-5.28125-3.046875v6.097657zm0 0"/><path d="m224.011719 67.175781-5.28125-3.050781v6.097656zm0 0"/><path d="m218.730469 64.125-5.28125-3.046875v6.097656zm0 0"/><path d="m213.449219 61.078125-5.28125-3.050781v6.097656zm0 0"/><path d="m208.167969 58.027344-5.28125-3.050782v6.101563zm0 0"/><path d="m202.886719 54.976562-5.28125-3.046874v6.097656zm0 0"/><path d="m197.605469 51.929688-5.28125-3.050782v6.097656zm0 0"/><path d="m192.324219 48.878906-5.28125-3.050781v6.101563zm0 0"/><path d="m187.042969 45.828125-5.28125-3.046875v6.097656zm0 0"/><path d="m181.761719 42.78125-5.28125-3.050781v6.097656zm0 0"/><path d="m176.480469 45.828125-5.28125-3.046875v6.097656zm0 0"/><path d="m171.199219 48.878906-5.285157-3.050781v6.101563zm0 0"/><path d="m165.914062 51.929688-5.28125-3.050782v6.097656zm0 0"/><path d="m160.632812 54.976562-5.28125-3.046874v6.097656zm0 0"/><path d="m155.351562 58.027344-5.28125-3.050782v6.101563zm0 0"/><path d="m150.070312 61.078125-5.28125-3.050781v6.097656zm0 0"/><path d="m144.789062 64.125-5.28125-3.046875v6.097656zm0 0"/><path d="m139.507812 67.175781-5.28125-3.050781v6.097656zm0 0"/><path d="m134.226562 70.222656-5.28125-3.046875v6.097657zm0 0"/><path d="m128.945312 73.273438-5.28125-3.050782v6.101563zm0 0"/><path d="m123.664062 76.324219-5.28125-3.050781v6.097656zm0 0"/><path d="m118.382812 79.371094-5.28125-3.046875v6.097656zm0 0"/><path d="m113.101562 82.421875-5.285156-3.050781v6.101562zm0 0"/><path d="m107.816406 85.472656-5.28125-3.050781v6.097656zm0 0"/><path d="m102.535156 88.519531-5.28125-3.046875v6.097656zm0 0"/><path d="m97.253906 91.570312-5.28125-3.050781v6.097657zm0 0"/><path d="m91.972656 94.617188-5.28125-3.046876v6.097657zm0 0"/><path d="m86.691406 97.667969-5.28125-3.050781v6.101562zm0 0"/><path d="m81.410156 100.71875-5.28125-3.050781v6.097656zm0 0"/><path d="m76.128906 103.765625-5.28125-3.046875v6.097656zm0 0"/><path d="m70.847656 106.816406-5.28125-3.050781v6.101563zm0 0"/><path d="m65.566406 109.867188-5.28125-3.050782v6.097656zm0 0"/><path d="m65.566406 115.964844-5.28125-3.050782v6.097657zm0 0"/><path d="m65.566406 122.0625-5.28125-3.050781v6.101562zm0 0"/><path d="m65.566406 128.160156-5.28125-3.046875v6.097657zm0 0"/><path d="m65.566406 134.261719-5.28125-3.050781v6.097656zm0 0"/><path d="m65.566406 140.359375-5.28125-3.050781v6.097656zm0 0"/><path d="m65.566406 146.457031-5.28125-3.050781v6.101562zm0 0"/><path d="m65.566406 152.554688-5.28125-3.046876v6.097657zm0 0"/><path d="m65.566406 158.65625-5.28125-3.050781v6.097656zm0 0"/><path d="m65.566406 164.753906-5.28125-3.050781v6.097656zm0 0"/><path d="m65.566406 170.851562-5.28125-3.050781v6.101563zm0 0"/><path d="m65.566406 176.949219-5.28125-3.046875v6.097656zm0 0"/><path d="m65.566406 183.050781-5.28125-3.050781v6.097656zm0 0"/><path d="m65.566406 189.148438-5.28125-3.050782v6.101563zm0 0"/><path d="m65.566406 195.246094-5.28125-3.046875v6.097656zm0 0"/><path d="m65.566406 201.34375-5.28125-3.046875v6.097656zm0 0"/><path d="m65.566406 207.445312-5.28125-3.050781v6.097657zm0 0"/><path d="m65.566406 213.542969-5.28125-3.050781v6.101562zm0 0"/><path d="m65.566406 219.640625-5.28125-3.046875v6.097656zm0 0"/><path d="m65.566406 225.738281-5.28125-3.046875v6.097656zm0 0"/><path d="m65.566406 231.839844-5.28125-3.050782v6.097657zm0 0"/><path d="m65.566406 237.9375-5.28125-3.050781v6.101562zm0 0"/><path d="m65.566406 244.035156-5.28125-3.046875v6.097657zm0 0"/><path d="m65.566406 250.132812-5.28125-3.046874v6.097656zm0 0"/><path d="m70.847656 253.183594-5.28125-3.050782v6.101563zm0 0"/><path d="m76.128906 256.234375-5.28125-3.050781v6.097656zm0 0"/><path d="m81.410156 259.28125-5.28125-3.046875v6.097656zm0 0"/><path d="m86.691406 262.332031-5.28125-3.050781v6.101562zm0 0"/><path d="m91.972656 265.382812-5.28125-3.050781v6.097657zm0 0"/><path d="m97.253906 268.429688-5.28125-3.046876v6.097657zm0 0"/><path d="m102.535156 271.480469-5.28125-3.050781v6.097656zm0 0"/><path d="m107.816406 274.527344-5.28125-3.046875v6.097656zm0 0"/><path d="m113.101562 277.578125-5.285156-3.050781v6.101562zm0 0"/><path d="m118.382812 280.628906-5.28125-3.050781v6.097656zm0 0"/><path d="m123.664062 283.675781-5.28125-3.046875v6.097656zm0 0"/><path d="m128.945312 286.726562-5.28125-3.050781v6.101563zm0 0"/><path d="m134.226562 289.777344-5.28125-3.050782v6.097657zm0 0"/><path d="m139.507812 292.824219-5.28125-3.046875v6.097656zm0 0"/><path d="m144.789062 295.875-5.28125-3.050781v6.097656zm0 0"/><path d="m150.070312 298.921875-5.28125-3.046875v6.097656zm0 0"/><path d="m155.351562 301.972656-5.28125-3.050781v6.101563zm0 0"/><path d="m160.632812 305.023438-5.28125-3.050782v6.097656zm0 0"/><path d="m165.914062 308.070312-5.28125-3.046874v6.097656zm0 0"/><path d="m171.199219 311.121094-5.285157-3.050782v6.101563zm0 0"/><path d="m176.480469 314.171875-5.28125-3.050781v6.097656zm0 0"/><path d="m181.761719 317.21875-5.28125-3.046875v6.097656zm0 0"/><path d="m187.042969 314.171875-5.28125-3.050781v6.097656zm0 0"/><path d="m192.324219 311.121094-5.28125-3.050782v6.101563zm0 0"/><path d="m197.605469 308.070312-5.28125-3.046874v6.097656zm0 0"/><path d="m202.886719 305.023438-5.28125-3.050782v6.097656zm0 0"/><path d="m208.167969 301.972656-5.28125-3.050781v6.101563zm0 0"/><path d="m213.449219 298.921875-5.28125-3.046875v6.097656zm0 0"/><path d="m218.730469 295.875-5.28125-3.050781v6.097656zm0 0"/><path d="m224.011719 292.824219-5.28125-3.046875v6.097656zm0 0"/><path d="m229.292969 289.777344-5.28125-3.050782v6.097657zm0 0"/><path d="m234.578125 286.726562-5.285156-3.050781v6.101563zm0 0"/><path d="m239.859375 283.675781-5.28125-3.046875v6.097656zm0 0"/><path d="m245.140625 280.628906-5.28125-3.050781v6.097656zm0 0"/><path d="m250.421875 277.578125-5.28125-3.050781v6.101562zm0 0"/><path d="m255.703125 274.527344-5.28125-3.046875v6.097656zm0 0"/><path d="m260.984375 271.480469-5.28125-3.050781v6.097656zm0 0"/><path d="m266.265625 268.429688-5.28125-3.046876v6.097657zm0 0"/><path d="m271.546875 265.382812-5.28125-3.050781v6.097657zm0 0"/><path d="m276.828125 262.332031-5.28125-3.050781v6.101562zm0 0"/><path d="m282.109375 259.28125-5.28125-3.046875v6.097656zm0 0"/><path d="m287.390625 256.234375-5.28125-3.050781v6.097656zm0 0"/><path d="m292.675781 253.183594-5.285156-3.050782v6.101563zm0 0"/><path d="m297.957031 250.132812-5.28125-3.046874v6.097656zm0 0"/><path d="m313.800781 253.183594-5.28125-3.050782v6.101563zm0 0"/><path d="m313.800781 247.085938-5.28125-3.050782v6.097656zm0 0"/><path d="m313.800781 240.988281-5.28125-3.050781v6.097656zm0 0"/><path d="m313.800781 234.886719-5.28125-3.046875v6.097656zm0 0"/><path d="m313.800781 228.789062-5.28125-3.050781v6.101563zm0 0"/><path d="m313.800781 222.691406-5.28125-3.050781v6.097656zm0 0"/><path d="m313.800781 216.59375-5.28125-3.050781v6.097656zm0 0"/><path d="m313.800781 210.492188-5.28125-3.046876v6.097657zm0 0"/><path d="m313.800781 204.394531-5.28125-3.050781v6.101562zm0 0"/><path d="m313.800781 198.296875-5.28125-3.050781v6.097656zm0 0"/><path d="m313.800781 192.199219-5.28125-3.050781v6.097656zm0 0"/><path d="m313.800781 186.097656-5.28125-3.046875v6.097657zm0 0"/><path d="m313.800781 180-5.28125-3.050781v6.101562zm0 0"/><path d="m313.800781 173.902344-5.28125-3.050782v6.097657zm0 0"/><path d="m313.800781 167.800781-5.28125-3.046875v6.097656zm0 0"/><path d="m313.800781 161.703125-5.28125-3.046875v6.097656zm0 0"/><path d="m313.800781 155.605469-5.28125-3.050781v6.101562zm0 0"/><path d="m313.800781 149.507812-5.28125-3.050781v6.097657zm0 0"/><path d="m313.800781 143.40625-5.28125-3.046875v6.097656zm0 0"/><path d="m313.800781 137.308594-5.28125-3.046875v6.097656zm0 0"/><path d="m313.800781 131.210938-5.28125-3.050782v6.101563zm0 0"/><path d="m313.800781 125.113281-5.28125-3.050781v6.097656zm0 0"/><path d="m313.800781 119.011719-5.28125-3.046875v6.097656zm0 0"/><path d="m313.800781 112.914062-5.28125-3.046874v6.097656zm0 0"/><path d="m313.800781 106.816406-5.28125-3.050781v6.101563zm0 0"/><path d="m308.519531 103.765625-5.28125-3.046875v6.097656zm0 0"/><path d="m303.238281 100.71875-5.28125-3.050781v6.097656zm0 0"/><path d="m297.957031 97.667969-5.28125-3.050781v6.101562zm0 0"/><path d="m292.675781 94.617188-5.285156-3.046876v6.097657zm0 0"/><path d="m287.390625 91.570312-5.28125-3.050781v6.097657zm0 0"/><path d="m282.109375 88.519531-5.28125-3.046875v6.097656zm0 0"/><path d="m276.828125 85.472656-5.28125-3.050781v6.097656zm0 0"/><path d="m271.546875 82.421875-5.28125-3.050781v6.101562zm0 0"/><path d="m266.265625 79.371094-5.28125-3.046875v6.097656zm0 0"/><path d="m260.984375 76.324219-5.28125-3.050781v6.097656zm0 0"/><path d="m255.703125 73.273438-5.28125-3.050782v6.101563zm0 0"/><path d="m250.421875 70.222656-5.28125-3.046875v6.097657zm0 0"/><path d="m245.140625 67.175781-5.28125-3.050781v6.097656zm0 0"/><path d="m239.859375 64.125-5.28125-3.046875v6.097656zm0 0"/><path d="m234.578125 61.078125-5.285156-3.050781v6.097656zm0 0"/><path d="m229.292969 58.027344-5.28125-3.050782v6.101563zm0 0"/><path d="m224.011719 54.976562-5.28125-3.046874v6.097656zm0 0"/><path d="m218.730469 51.929688-5.28125-3.050782v6.097656zm0 0"/><path d="m213.449219 48.878906-5.28125-3.050781v6.101563zm0 0"/><path d="m208.167969 45.828125-5.28125-3.046875v6.097656zm0 0"/><path d="m202.886719 42.78125-5.28125-3.050781v6.097656zm0 0"/><path d="m197.605469 39.730469-5.28125-3.050781v6.101562zm0 0"/><path d="m192.324219 36.679688-5.28125-3.046876v6.097657zm0 0"/><path d="m187.042969 33.632812-5.28125-3.050781v6.097657zm0 0"/><path d="m181.761719 30.582031-5.28125-3.046875v6.097656zm0 0"/><path d="m176.480469 33.632812-5.28125-3.050781v6.097657zm0 0"/><path d="m171.199219 36.679688-5.285157-3.046876v6.097657zm0 0"/><path d="m165.914062 39.730469-5.28125-3.050781v6.101562zm0 0"/><path d="m160.632812 42.78125-5.28125-3.050781v6.097656zm0 0"/><path d="m155.351562 45.828125-5.28125-3.046875v6.097656zm0 0"/><path d="m150.070312 48.878906-5.28125-3.050781v6.101563zm0 0"/><path d="m144.789062 51.929688-5.28125-3.050782v6.097656zm0 0"/><path d="m139.507812 54.976562-5.28125-3.046874v6.097656zm0 0"/><path d="m134.226562 58.027344-5.28125-3.050782v6.101563zm0 0"/><path d="m128.945312 61.078125-5.28125-3.050781v6.097656zm0 0"/><path d="m123.664062 64.125-5.28125-3.046875v6.097656zm0 0"/><path d="m118.382812 67.175781-5.28125-3.050781v6.097656zm0 0"/><path d="m113.101562 70.222656-5.285156-3.046875v6.097657zm0 0"/><path d="m107.816406 73.273438-5.28125-3.050782v6.101563zm0 0"/><path d="m102.535156 76.324219-5.28125-3.050781v6.097656zm0 0"/><path d="m97.253906 79.371094-5.28125-3.046875v6.097656zm0 0"/><path d="m91.972656 82.421875-5.28125-3.050781v6.101562zm0 0"/><path d="m86.691406 85.472656-5.28125-3.050781v6.097656zm0 0"/><path d="m81.410156 88.519531-5.28125-3.046875v6.097656zm0 0"/><path d="m76.128906 91.570312-5.28125-3.050781v6.097657zm0 0"/><path d="m70.847656 94.617188-5.28125-3.046876v6.097657zm0 0"/><path d="m65.566406 97.667969-5.28125-3.050781v6.101562zm0 0"/><path d="m60.285156 100.71875-5.28125-3.050781v6.097656zm0 0"/><path d="m55.003906 103.765625-5.28125-3.046875v6.097656zm0 0"/><path d="m55.003906 109.867188-5.28125-3.050782v6.097656zm0 0"/><path d="m55.003906 115.964844-5.28125-3.050782v6.097657zm0 0"/><path d="m55.003906 122.0625-5.28125-3.050781v6.101562zm0 0"/><path d="m55.003906 128.160156-5.28125-3.046875v6.097657zm0 0"/><path d="m55.003906 134.261719-5.28125-3.050781v6.097656zm0 0"/><path d="m55.003906 140.359375-5.28125-3.050781v6.097656zm0 0"/><path d="m55.003906 146.457031-5.28125-3.050781v6.101562zm0 0"/><path d="m55.003906 152.554688-5.28125-3.046876v6.097657zm0 0"/><path d="m55.003906 158.65625-5.28125-3.050781v6.097656zm0 0"/><path d="m55.003906 164.753906-5.28125-3.050781v6.097656zm0 0"/><path d="m55.003906 170.851562-5.28125-3.050781v6.101563zm0 0"/><path d="m55.003906 176.949219-5.28125-3.046875v6.097656zm0 0"/><path d="m55.003906 183.050781-5.28125-3.050781v6.097656zm0 0"/><path d="m55.003906 189.148438-5.28125-3.050782v6.101563zm0 0"/><path d="m55.003906 195.246094-5.28125-3.046875v6.097656zm0 0"/><path d="m55.003906 201.34375-5.28125-3.046875v6.097656zm0 0"/><path d="m55.003906 207.445312-5.28125-3.050781v6.097657zm0 0"/><path d="m55.003906 213.542969-5.28125-3.050781v6.101562zm0 0"/><path d="m55.003906 219.640625-5.28125-3.046875v6.097656zm0 0"/><path d="m55.003906 225.738281-5.28125-3.046875v6.097656zm0 0"/><path d="m55.003906 231.839844-5.28125-3.050782v6.097657zm0 0"/><path d="m55.003906 237.9375-5.28125-3.050781v6.101562zm0 0"/><path d="m55.003906 244.035156-5.28125-3.046875v6.097657zm0 0"/><path d="m55.003906 250.132812-5.28125-3.046874v6.097656zm0 0"/><path d="m55.003906 256.234375-5.28125-3.050781v6.097656zm0 0"/><path d="m60.285156 259.28125-5.28125-3.046875v6.097656zm0 0"/><path d="m65.566406 262.332031-5.28125-3.050781v6.101562zm0 0"/><path d="m70.847656 265.382812-5.28125-3.050781v6.097657zm0 0"/><path d="m76.128906 268.429688-5.28125-3.046876v6.097657zm0 0"/><path d="m81.410156 271.480469-5.28125-3.050781v6.097656zm0 0"/><path d="m86.691406 274.527344-5.28125-3.046875v6.097656zm0 0"/><path d="m91.972656 277.578125-5.28125-3.050781v6.101562zm0 0"/><path d="m97.253906 280.628906-5.28125-3.050781v6.097656zm0 0"/><path d="m102.535156 283.675781-5.28125-3.046875v6.097656zm0 0"/><path d="m107.816406 286.726562-5.28125-3.050781v6.101563zm0 0"/><path d="m113.101562 289.777344-5.285156-3.050782v6.097657zm0 0"/><path d="m118.382812 292.824219-5.28125-3.046875v6.097656zm0 0"/><path d="m123.664062 295.875-5.28125-3.050781v6.097656zm0 0"/><path d="m128.945312 298.921875-5.28125-3.046875v6.097656zm0 0"/><path d="m134.226562 301.972656-5.28125-3.050781v6.101563zm0 0"/><path d="m139.507812 305.023438-5.28125-3.050782v6.097656zm0 0"/><path d="m144.789062 308.070312-5.28125-3.046874v6.097656zm0 0"/><path d="m150.070312 311.121094-5.28125-3.050782v6.101563zm0 0"/><path d="m155.351562 314.171875-5.28125-3.050781v6.097656zm0 0"/><path d="m160.632812 317.21875-5.28125-3.046875v6.097656zm0 0"/><path d="m165.914062 320.269531-5.28125-3.050781v6.101562zm0 0"/><path d="m171.199219 323.320312-5.285157-3.050781v6.097657zm0 0"/><path d="m176.480469 326.367188-5.28125-3.046876v6.097657zm0 0"/><path d="m181.761719 329.417969-5.28125-3.050781v6.097656zm0 0"/><path d="m187.042969 326.367188-5.28125-3.046876v6.097657zm0 0"/><path d="m192.324219 323.320312-5.28125-3.050781v6.097657zm0 0"/><path d="m197.605469 320.269531-5.28125-3.050781v6.101562zm0 0"/><path d="m202.886719 317.21875-5.28125-3.046875v6.097656zm0 0"/><path d="m208.167969 314.171875-5.28125-3.050781v6.097656zm0 0"/><path d="m213.449219 311.121094-5.28125-3.050782v6.101563zm0 0"/><path d="m218.730469 308.070312-5.28125-3.046874v6.097656zm0 0"/><path d="m224.011719 305.023438-5.28125-3.050782v6.097656zm0 0"/><path d="m229.292969 301.972656-5.28125-3.050781v6.101563zm0 0"/><path d="m234.578125 298.921875-5.285156-3.046875v6.097656zm0 0"/><path d="m239.859375 295.875-5.28125-3.050781v6.097656zm0 0"/><path d="m245.140625 292.824219-5.28125-3.046875v6.097656zm0 0"/><path d="m250.421875 289.777344-5.28125-3.050782v6.097657zm0 0"/><path d="m255.703125 286.726562-5.28125-3.050781v6.101563zm0 0"/><path d="m260.984375 283.675781-5.28125-3.046875v6.097656zm0 0"/><path d="m266.265625 280.628906-5.28125-3.050781v6.097656zm0 0"/><path d="m271.546875 277.578125-5.28125-3.050781v6.101562zm0 0"/><path d="m276.828125 274.527344-5.28125-3.046875v6.097656zm0 0"/><path d="m282.109375 271.480469-5.28125-3.050781v6.097656zm0 0"/><path d="m287.390625 268.429688-5.28125-3.046876v6.097657zm0 0"/><path d="m292.675781 265.382812-5.285156-3.050781v6.097657zm0 0"/><path d="m297.957031 262.332031-5.28125-3.050781v6.101562zm0 0"/><path d="m303.238281 259.28125-5.28125-3.046875v6.097656zm0 0"/><path d="m308.519531 256.234375-5.28125-3.050781v6.097656zm0 0"/></g></svg>