<svg height="360pt" viewBox="0 0 360 360" width="360pt" xmlns="http://www.w3.org/2000/svg"><path d="m0 0h360v360h-360z" fill="#800080"/><g fill="#fff"><path d="m176.753906 180 4.871094-2.8125v5.625zm0 0"/><path d="m181.625 182.8125 4.867188-2.8125v5.625zm0 0"/><path d="m176.753906 174.375 4.871094-2.8125v5.625zm0 0"/><path d="m171.882812 182.8125 4.871094-2.8125v5.625zm0 0"/><path d="m176.753906 185.625 4.871094-2.8125v5.625zm0 0"/><path d="m186.492188 185.625 4.871093-2.8125v5.625zm0 0"/><path d="m176.753906 168.753906 4.871094-2.8125v5.621094zm0 0"/><path d="m171.882812 171.5625 4.871094-2.808594v5.621094zm0 0"/><path d="m167.011719 174.375 4.871093-2.8125v5.625zm0 0"/><path d="m167.011719 185.625 4.871093-2.8125v5.625zm0 0"/><path d="m171.882812 188.4375 4.871094-2.8125v5.621094zm0 0"/><path d="m176.753906 191.246094 4.871094-2.808594v5.621094zm0 0"/><path d="m191.363281 188.4375 4.871094-2.8125v5.621094zm0 0"/><path d="m191.363281 182.8125 4.871094-2.8125v5.625zm0 0"/><path d="m191.363281 177.1875 4.871094-2.8125v5.625zm0 0"/><path d="m186.492188 168.753906 4.871093-2.8125v5.621094zm0 0"/><path d="m181.625 165.941406 4.867188-2.8125v5.625zm0 0"/><path d="m176.753906 163.128906 4.871094-2.8125v5.625zm0 0"/><path d="m171.882812 165.941406 4.871094-2.8125v5.625zm0 0"/><path d="m167.011719 168.753906 4.871093-2.8125v5.621094zm0 0"/><path d="m162.140625 177.1875 4.871094-2.8125v5.625zm0 0"/><path d="m162.140625 182.8125 4.871094-2.8125v5.625zm0 0"/><path d="m171.882812 194.058594 4.871094-2.8125v5.625zm0 0"/><path d="m176.753906 196.871094 4.871094-2.8125v5.625zm0 0"/><path d="m186.492188 191.246094 4.871093-2.808594v5.621094zm0 0"/><path d="m196.234375 180 4.871094-2.8125v5.625zm0 0"/><path d="m196.234375 174.375 4.871094-2.8125v5.625zm0 0"/><path d="m196.234375 168.753906 4.871094-2.8125v5.621094zm0 0"/><path d="m186.492188 163.128906 4.871093-2.8125v5.625zm0 0"/><path d="m176.753906 157.503906 4.871094-2.8125v5.625zm0 0"/><path d="m171.882812 160.316406 4.871094-2.8125v5.625zm0 0"/><path d="m167.011719 163.128906 4.871093-2.8125v5.625zm0 0"/><path d="m162.140625 165.941406 4.871094-2.8125v5.625zm0 0"/><path d="m157.269531 180 4.871094-2.8125v5.625zm0 0"/><path d="m157.269531 185.625 4.871094-2.8125v5.625zm0 0"/><path d="m167.011719 196.871094 4.871093-2.8125v5.625zm0 0"/><path d="m171.882812 199.683594 4.871094-2.8125v5.625zm0 0"/><path d="m176.753906 202.496094 4.871094-2.8125v5.625zm0 0"/><path d="m191.363281 194.058594 4.871094-2.8125v5.625zm0 0"/><path d="m201.105469 188.4375 4.871093-2.8125v5.621094zm0 0"/><path d="m201.105469 182.8125 4.871093-2.8125v5.625zm0 0"/><path d="m201.105469 177.1875 4.871093-2.8125v5.625zm0 0"/><path d="m196.234375 163.128906 4.871094-2.8125v5.625zm0 0"/><path d="m191.363281 160.316406 4.871094-2.8125v5.625zm0 0"/><path d="m186.492188 157.503906 4.871093-2.8125v5.625zm0 0"/><path d="m181.625 154.691406 4.867188-2.8125v5.625zm0 0"/><path d="m176.753906 151.878906 4.871094-2.8125v5.625zm0 0"/><path d="m171.882812 154.691406 4.871094-2.8125v5.625zm0 0"/><path d="m167.011719 157.503906 4.871093-2.8125v5.625zm0 0"/><path d="m162.140625 160.316406 4.871094-2.8125v5.625zm0 0"/><path d="m152.402344 165.941406 4.867187-2.8125v5.625zm0 0"/><path d="m152.402344 194.058594 4.867187-2.8125v5.625zm0 0"/><path d="m157.269531 196.871094 4.871094-2.8125v5.625zm0 0"/><path d="m167.011719 202.496094 4.871093-2.8125v5.625zm0 0"/><path d="m171.882812 205.308594 4.871094-2.8125v5.625zm0 0"/><path d="m176.753906 208.121094 4.871094-2.8125v5.625zm0 0"/><path d="m181.625 205.308594 4.867188-2.8125v5.625zm0 0"/><path d="m205.976562 191.246094 4.871094-2.808594v5.621094zm0 0"/><path d="m205.976562 180 4.871094-2.8125v5.625zm0 0"/><path d="m205.976562 174.375 4.871094-2.8125v5.625zm0 0"/><path d="m205.976562 163.128906 4.871094-2.8125v5.625zm0 0"/><path d="m201.105469 160.316406 4.871093-2.8125v5.625zm0 0"/><path d="m181.625 149.066406 4.867188-2.808594v5.621094zm0 0"/><path d="m171.882812 149.066406 4.871094-2.808594v5.621094zm0 0"/><path d="m167.011719 151.878906 4.871093-2.8125v5.625zm0 0"/><path d="m162.140625 154.691406 4.871094-2.8125v5.625zm0 0"/><path d="m157.269531 157.503906 4.871094-2.8125v5.625zm0 0"/><path d="m152.402344 160.316406 4.867187-2.8125v5.625zm0 0"/><path d="m147.53125 185.625 4.871094-2.8125v5.625zm0 0"/><path d="m147.53125 191.246094 4.871094-2.808594v5.621094zm0 0"/><path d="m147.53125 196.871094 4.871094-2.8125v5.625zm0 0"/><path d="m152.402344 199.683594 4.867187-2.8125v5.625zm0 0"/><path d="m157.269531 202.496094 4.871094-2.8125v5.625zm0 0"/><path d="m167.011719 208.121094 4.871093-2.8125v5.625zm0 0"/><path d="m171.882812 210.933594 4.871094-2.8125v5.621094zm0 0"/><path d="m176.753906 213.742188 4.871094-2.808594v5.621094zm0 0"/><path d="m181.625 210.933594 4.867188-2.8125v5.621094zm0 0"/><path d="m186.492188 208.121094 4.871093-2.8125v5.625zm0 0"/><path d="m201.105469 199.683594 4.871093-2.8125v5.625zm0 0"/><path d="m210.847656 177.1875 4.871094-2.8125v5.625zm0 0"/><path d="m210.847656 171.5625 4.871094-2.808594v5.621094zm0 0"/><path d="m210.847656 165.941406 4.871094-2.8125v5.625zm0 0"/><path d="m210.847656 160.316406 4.871094-2.8125v5.625zm0 0"/><path d="m205.976562 157.503906 4.871094-2.8125v5.625zm0 0"/><path d="m201.105469 154.691406 4.871093-2.8125v5.625zm0 0"/><path d="m191.363281 149.066406 4.871094-2.808594v5.621094zm0 0"/><path d="m186.492188 146.257812 4.871093-2.8125v5.621094zm0 0"/><path d="m176.753906 140.632812 4.871094-2.8125v5.625zm0 0"/><path d="m157.269531 151.878906 4.871094-2.8125v5.625zm0 0"/><path d="m152.402344 154.691406 4.867187-2.8125v5.625zm0 0"/><path d="m147.53125 157.503906 4.871094-2.8125v5.625zm0 0"/><path d="m142.660156 160.316406 4.871094-2.8125v5.625zm0 0"/><path d="m142.660156 165.941406 4.871094-2.8125v5.625zm0 0"/><path d="m142.660156 171.5625 4.871094-2.808594v5.621094zm0 0"/><path d="m142.660156 177.1875 4.871094-2.8125v5.625zm0 0"/><path d="m142.660156 182.8125 4.871094-2.8125v5.625zm0 0"/><path d="m142.660156 188.4375 4.871094-2.8125v5.621094zm0 0"/><path d="m142.660156 194.058594 4.871094-2.8125v5.625zm0 0"/><path d="m142.660156 199.683594 4.871094-2.8125v5.625zm0 0"/><path d="m147.53125 202.496094 4.871094-2.8125v5.625zm0 0"/><path d="m157.269531 208.121094 4.871094-2.8125v5.625zm0 0"/><path d="m162.140625 210.933594 4.871094-2.8125v5.621094zm0 0"/><path d="m171.882812 216.554688 4.871094-2.8125v5.625zm0 0"/><path d="m176.753906 219.367188 4.871094-2.8125v5.625zm0 0"/><path d="m186.492188 213.742188 4.871093-2.808594v5.621094zm0 0"/><path d="m191.363281 210.933594 4.871094-2.8125v5.621094zm0 0"/><path d="m196.234375 208.121094 4.871094-2.8125v5.625zm0 0"/><path d="m201.105469 205.308594 4.871093-2.8125v5.625zm0 0"/><path d="m205.976562 202.496094 4.871094-2.8125v5.625zm0 0"/><path d="m215.71875 202.496094 4.867188-2.8125v5.625zm0 0"/><path d="m215.71875 196.871094 4.867188-2.8125v5.625zm0 0"/><path d="m215.71875 191.246094 4.867188-2.808594v5.621094zm0 0"/><path d="m215.71875 174.375 4.867188-2.8125v5.625zm0 0"/><path d="m215.71875 168.753906 4.867188-2.8125v5.621094zm0 0"/><path d="m215.71875 163.128906 4.867188-2.8125v5.625zm0 0"/><path d="m215.71875 157.503906 4.867188-2.8125v5.625zm0 0"/><path d="m210.847656 154.691406 4.871094-2.8125v5.625zm0 0"/><path d="m191.363281 143.445312 4.871094-2.8125v5.625zm0 0"/><path d="m171.882812 137.820312 4.871094-2.8125v5.625zm0 0"/><path d="m167.011719 140.632812 4.871093-2.8125v5.625zm0 0"/><path d="m162.140625 143.445312 4.871094-2.8125v5.625zm0 0"/><path d="m157.269531 146.257812 4.871094-2.8125v5.621094zm0 0"/><path d="m152.402344 149.066406 4.867187-2.808594v5.621094zm0 0"/><path d="m147.53125 151.878906 4.871094-2.8125v5.625zm0 0"/><path d="m142.660156 154.691406 4.871094-2.8125v5.625zm0 0"/><path d="m137.789062 157.503906 4.871094-2.8125v5.625zm0 0"/><path d="m137.789062 163.128906 4.871094-2.8125v5.625zm0 0"/><path d="m137.789062 174.375 4.871094-2.8125v5.625zm0 0"/><path d="m137.789062 180 4.871094-2.8125v5.625zm0 0"/><path d="m137.789062 185.625 4.871094-2.8125v5.625zm0 0"/><path d="m137.789062 191.246094 4.871094-2.808594v5.621094zm0 0"/><path d="m137.789062 196.871094 4.871094-2.8125v5.625zm0 0"/><path d="m142.660156 205.308594 4.871094-2.8125v5.625zm0 0"/><path d="m162.140625 216.554688 4.871094-2.8125v5.625zm0 0"/><path d="m171.882812 222.179688 4.871094-2.8125v5.625zm0 0"/><path d="m176.753906 224.992188 4.871094-2.8125v5.625zm0 0"/><path d="m191.363281 216.554688 4.871094-2.8125v5.625zm0 0"/><path d="m196.234375 213.742188 4.871094-2.808594v5.621094zm0 0"/><path d="m205.976562 208.121094 4.871094-2.8125v5.625zm0 0"/><path d="m210.847656 205.308594 4.871094-2.8125v5.625zm0 0"/><path d="m220.585938 205.308594 4.871093-2.8125v5.625zm0 0"/><path d="m220.585938 199.683594 4.871093-2.8125v5.625zm0 0"/><path d="m220.585938 182.8125 4.871093-2.8125v5.625zm0 0"/><path d="m220.585938 177.1875 4.871093-2.8125v5.625zm0 0"/><path d="m220.585938 171.5625 4.871093-2.808594v5.621094zm0 0"/><path d="m220.585938 165.941406 4.871093-2.8125v5.625zm0 0"/><path d="m220.585938 154.691406 4.871093-2.8125v5.625zm0 0"/><path d="m215.71875 151.878906 4.867188-2.8125v5.625zm0 0"/><path d="m210.847656 149.066406 4.871094-2.808594v5.621094zm0 0"/><path d="m205.976562 146.257812 4.871094-2.8125v5.621094zm0 0"/><path d="m201.105469 143.445312 4.871093-2.8125v5.625zm0 0"/><path d="m176.753906 129.382812 4.871094-2.808593v5.621093zm0 0"/><path d="m162.140625 137.820312 4.871094-2.8125v5.625zm0 0"/><path d="m157.269531 140.632812 4.871094-2.8125v5.625zm0 0"/><path d="m152.402344 143.445312 4.867187-2.8125v5.625zm0 0"/><path d="m147.53125 146.257812 4.871094-2.8125v5.621094zm0 0"/><path d="m142.660156 149.066406 4.871094-2.808594v5.621094zm0 0"/><path d="m137.789062 151.878906 4.871094-2.8125v5.625zm0 0"/><path d="m132.917969 154.691406 4.871093-2.8125v5.625zm0 0"/><path d="m132.917969 171.5625 4.871093-2.808594v5.621094zm0 0"/><path d="m132.917969 182.8125 4.871093-2.8125v5.625zm0 0"/><path d="m132.917969 188.4375 4.871093-2.8125v5.621094zm0 0"/><path d="m132.917969 194.058594 4.871093-2.8125v5.625zm0 0"/><path d="m137.789062 208.121094 4.871094-2.8125v5.625zm0 0"/><path d="m142.660156 210.933594 4.871094-2.8125v5.621094zm0 0"/><path d="m147.53125 213.742188 4.871094-2.808594v5.621094zm0 0"/><path d="m152.402344 216.554688 4.867187-2.8125v5.625zm0 0"/><path d="m157.269531 219.367188 4.871094-2.8125v5.625zm0 0"/><path d="m162.140625 222.179688 4.871094-2.8125v5.625zm0 0"/><path d="m167.011719 224.992188 4.871093-2.8125v5.625zm0 0"/><path d="m171.882812 227.804688 4.871094-2.8125v5.625zm0 0"/><path d="m176.753906 230.617188 4.871094-2.8125v5.621093zm0 0"/><path d="m196.234375 219.367188 4.871094-2.8125v5.625zm0 0"/><path d="m215.71875 208.121094 4.867188-2.8125v5.625zm0 0"/><path d="m225.457031 208.121094 4.871094-2.8125v5.625zm0 0"/><path d="m225.457031 202.496094 4.871094-2.8125v5.625zm0 0"/><path d="m225.457031 196.871094 4.871094-2.8125v5.625zm0 0"/><path d="m225.457031 191.246094 4.871094-2.808594v5.621094zm0 0"/><path d="m225.457031 185.625 4.871094-2.8125v5.625zm0 0"/><path d="m225.457031 180 4.871094-2.8125v5.625zm0 0"/><path d="m225.457031 174.375 4.871094-2.8125v5.625zm0 0"/><path d="m225.457031 168.753906 4.871094-2.8125v5.621094zm0 0"/><path d="m225.457031 157.503906 4.871094-2.8125v5.625zm0 0"/><path d="m215.71875 146.257812 4.867188-2.8125v5.621094zm0 0"/><path d="m205.976562 140.632812 4.871094-2.8125v5.625zm0 0"/><path d="m191.363281 132.195312 4.871094-2.8125v5.625zm0 0"/><path d="m186.492188 129.382812 4.871093-2.808593v5.621093zm0 0"/><path d="m181.625 126.574219 4.867188-2.8125v5.621093zm0 0"/><path d="m176.753906 123.761719 4.871094-2.8125v5.625zm0 0"/><path d="m171.882812 126.574219 4.871094-2.8125v5.621093zm0 0"/><path d="m162.140625 132.195312 4.871094-2.8125v5.625zm0 0"/><path d="m147.53125 140.632812 4.871094-2.8125v5.625zm0 0"/><path d="m142.660156 143.445312 4.871094-2.8125v5.625zm0 0"/><path d="m132.917969 149.066406 4.871093-2.808594v5.621094zm0 0"/><path d="m128.046875 163.128906 4.871094-2.8125v5.625zm0 0"/><path d="m128.046875 168.753906 4.871094-2.8125v5.621094zm0 0"/><path d="m128.046875 185.625 4.871094-2.8125v5.625zm0 0"/><path d="m128.046875 191.246094 4.871094-2.808594v5.621094zm0 0"/><path d="m128.046875 196.871094 4.871094-2.8125v5.625zm0 0"/><path d="m128.046875 208.121094 4.871094-2.8125v5.625zm0 0"/><path d="m137.789062 213.742188 4.871094-2.808594v5.621094zm0 0"/><path d="m142.660156 216.554688 4.871094-2.8125v5.625zm0 0"/><path d="m147.53125 219.367188 4.871094-2.8125v5.625zm0 0"/><path d="m152.402344 222.179688 4.867187-2.8125v5.625zm0 0"/><path d="m157.269531 224.992188 4.871094-2.8125v5.625zm0 0"/><path d="m167.011719 230.617188 4.871093-2.8125v5.621093zm0 0"/><path d="m171.882812 233.425781 4.871094-2.808593v5.621093zm0 0"/><path d="m181.625 233.425781 4.867188-2.808593v5.621093zm0 0"/><path d="m186.492188 230.617188 4.871093-2.8125v5.621093zm0 0"/><path d="m210.847656 216.554688 4.871094-2.8125v5.625zm0 0"/><path d="m220.585938 210.933594 4.871093-2.8125v5.621094zm0 0"/><path d="m230.328125 205.308594 4.871094-2.8125v5.625zm0 0"/><path d="m230.328125 199.683594 4.871094-2.8125v5.625zm0 0"/><path d="m230.328125 188.4375 4.871094-2.8125v5.621094zm0 0"/><path d="m230.328125 182.8125 4.871094-2.8125v5.625zm0 0"/><path d="m230.328125 177.1875 4.871094-2.8125v5.625zm0 0"/><path d="m230.328125 165.941406 4.871094-2.8125v5.625zm0 0"/><path d="m230.328125 160.316406 4.871094-2.8125v5.625zm0 0"/><path d="m225.457031 146.257812 4.871094-2.8125v5.621094zm0 0"/><path d="m220.585938 143.445312 4.871093-2.8125v5.625zm0 0"/><path d="m215.71875 140.632812 4.867188-2.8125v5.625zm0 0"/><path d="m210.847656 137.820312 4.871094-2.8125v5.625zm0 0"/><path d="m201.105469 132.195312 4.871093-2.8125v5.625zm0 0"/><path d="m191.363281 126.574219 4.871094-2.8125v5.621093zm0 0"/><path d="m186.492188 123.761719 4.871093-2.8125v5.625zm0 0"/><path d="m181.625 120.949219 4.867188-2.8125v5.625zm0 0"/><path d="m162.140625 126.574219 4.871094-2.8125v5.621093zm0 0"/><path d="m157.269531 129.382812 4.871094-2.808593v5.621093zm0 0"/><path d="m142.660156 137.820312 4.871094-2.8125v5.625zm0 0"/><path d="m137.789062 140.632812 4.871094-2.8125v5.625zm0 0"/><path d="m132.917969 143.445312 4.871093-2.8125v5.625zm0 0"/><path d="m128.046875 146.257812 4.871094-2.8125v5.621094zm0 0"/><path d="m123.175781 154.691406 4.871094-2.8125v5.625zm0 0"/><path d="m123.175781 160.316406 4.871094-2.8125v5.625zm0 0"/><path d="m123.175781 171.5625 4.871094-2.808594v5.621094zm0 0"/><path d="m123.175781 182.8125 4.871094-2.8125v5.625zm0 0"/><path d="m123.175781 194.058594 4.871094-2.8125v5.625zm0 0"/><path d="m123.175781 210.933594 4.871094-2.8125v5.621094zm0 0"/><path d="m128.046875 213.742188 4.871094-2.808594v5.621094zm0 0"/><path d="m142.660156 222.179688 4.871094-2.8125v5.625zm0 0"/><path d="m147.53125 224.992188 4.871094-2.8125v5.625zm0 0"/><path d="m157.269531 230.617188 4.871094-2.8125v5.621093zm0 0"/><path d="m162.140625 233.425781 4.871094-2.808593v5.621093zm0 0"/><path d="m176.753906 241.863281 4.871094-2.8125v5.625zm0 0"/><path d="m181.625 239.050781 4.867188-2.8125v5.625zm0 0"/><path d="m186.492188 236.238281 4.871093-2.8125v5.625zm0 0"/><path d="m191.363281 233.425781 4.871094-2.808593v5.621093zm0 0"/><path d="m196.234375 230.617188 4.871094-2.8125v5.621093zm0 0"/><path d="m210.847656 222.179688 4.871094-2.8125v5.625zm0 0"/><path d="m215.71875 219.367188 4.867188-2.8125v5.625zm0 0"/><path d="m225.457031 213.742188 4.871094-2.808594v5.621094zm0 0"/><path d="m235.199219 208.121094 4.871093-2.8125v5.625zm0 0"/><path d="m235.199219 185.625 4.871093-2.8125v5.625zm0 0"/><path d="m235.199219 174.375 4.871093-2.8125v5.625zm0 0"/><path d="m235.199219 163.128906 4.871093-2.8125v5.625zm0 0"/><path d="m235.199219 157.503906 4.871093-2.8125v5.625zm0 0"/><path d="m235.199219 151.878906 4.871093-2.8125v5.625zm0 0"/><path d="m225.457031 140.632812 4.871094-2.8125v5.625zm0 0"/><path d="m215.71875 135.007812 4.867188-2.8125v5.625zm0 0"/><path d="m210.847656 132.195312 4.871094-2.8125v5.625zm0 0"/><path d="m205.976562 129.382812 4.871094-2.808593v5.621093zm0 0"/><path d="m201.105469 126.574219 4.871093-2.8125v5.621093zm0 0"/><path d="m196.234375 123.761719 4.871094-2.8125v5.625zm0 0"/><path d="m191.363281 120.949219 4.871094-2.8125v5.625zm0 0"/><path d="m186.492188 118.136719 4.871093-2.8125v5.625zm0 0"/><path d="m181.625 115.324219 4.867188-2.8125v5.625zm0 0"/><path d="m171.882812 115.324219 4.871094-2.8125v5.625zm0 0"/><path d="m167.011719 118.136719 4.871093-2.8125v5.625zm0 0"/><path d="m147.53125 129.382812 4.871094-2.808593v5.621093zm0 0"/><path d="m142.660156 132.195312 4.871094-2.8125v5.625zm0 0"/><path d="m137.789062 135.007812 4.871094-2.8125v5.625zm0 0"/><path d="m128.046875 140.632812 4.871094-2.8125v5.625zm0 0"/><path d="m123.175781 143.445312 4.871094-2.8125v5.625zm0 0"/><path d="m118.308594 146.257812 4.867187-2.8125v5.621094zm0 0"/><path d="m118.308594 157.503906 4.867187-2.8125v5.625zm0 0"/><path d="m118.308594 163.128906 4.867187-2.8125v5.625zm0 0"/><path d="m118.308594 168.753906 4.867187-2.8125v5.621094zm0 0"/><path d="m118.308594 185.625 4.867187-2.8125v5.625zm0 0"/><path d="m118.308594 191.246094 4.867187-2.808594v5.621094zm0 0"/><path d="m132.917969 222.179688 4.871093-2.8125v5.625zm0 0"/><path d="m147.53125 230.617188 4.871094-2.8125v5.621093zm0 0"/><path d="m152.402344 233.425781 4.867187-2.808593v5.621093zm0 0"/><path d="m157.269531 236.238281 4.871094-2.8125v5.625zm0 0"/><path d="m162.140625 239.050781 4.871094-2.8125v5.625zm0 0"/><path d="m171.882812 244.675781 4.871094-2.8125v5.625zm0 0"/><path d="m181.625 244.675781 4.867188-2.8125v5.625zm0 0"/><path d="m191.363281 239.050781 4.871094-2.8125v5.625zm0 0"/><path d="m196.234375 236.238281 4.871094-2.8125v5.625zm0 0"/><path d="m201.105469 233.425781 4.871093-2.808593v5.621093zm0 0"/><path d="m205.976562 230.617188 4.871094-2.8125v5.621093zm0 0"/><path d="m210.847656 227.804688 4.871094-2.8125v5.625zm0 0"/><path d="m215.71875 224.992188 4.867188-2.8125v5.625zm0 0"/><path d="m220.585938 222.179688 4.871093-2.8125v5.625zm0 0"/><path d="m225.457031 219.367188 4.871094-2.8125v5.625zm0 0"/><path d="m230.328125 216.554688 4.871094-2.8125v5.625zm0 0"/><path d="m240.070312 216.554688 4.871094-2.8125v5.625zm0 0"/><path d="m240.070312 205.308594 4.871094-2.8125v5.625zm0 0"/><path d="m240.070312 199.683594 4.871094-2.8125v5.625zm0 0"/><path d="m240.070312 182.8125 4.871094-2.8125v5.625zm0 0"/><path d="m240.070312 177.1875 4.871094-2.8125v5.625zm0 0"/><path d="m240.070312 171.5625 4.871094-2.808594v5.621094zm0 0"/><path d="m240.070312 160.316406 4.871094-2.8125v5.625zm0 0"/><path d="m240.070312 149.066406 4.871094-2.808594v5.621094zm0 0"/><path d="m240.070312 143.445312 4.871094-2.8125v5.625zm0 0"/><path d="m225.457031 135.007812 4.871094-2.8125v5.625zm0 0"/><path d="m220.585938 132.195312 4.871093-2.8125v5.625zm0 0"/><path d="m215.71875 129.382812 4.867188-2.808593v5.621093zm0 0"/><path d="m210.847656 126.574219 4.871094-2.8125v5.621093zm0 0"/><path d="m205.976562 123.761719 4.871094-2.8125v5.625zm0 0"/><path d="m201.105469 120.949219 4.871093-2.8125v5.625zm0 0"/><path d="m186.492188 112.511719 4.871093-2.8125v5.625zm0 0"/><path d="m181.625 109.699219 4.867188-2.8125v5.625zm0 0"/><path d="m171.882812 109.699219 4.871094-2.8125v5.625zm0 0"/><path d="m167.011719 112.511719 4.871093-2.8125v5.625zm0 0"/><path d="m137.789062 129.382812 4.871094-2.808593v5.621093zm0 0"/><path d="m132.917969 132.195312 4.871093-2.8125v5.625zm0 0"/><path d="m128.046875 135.007812 4.871094-2.8125v5.625zm0 0"/><path d="m123.175781 137.820312 4.871094-2.8125v5.625zm0 0"/><path d="m113.4375 143.445312 4.871094-2.8125v5.625zm0 0"/><path d="m113.4375 154.691406 4.871094-2.8125v5.625zm0 0"/><path d="m113.4375 160.316406 4.871094-2.8125v5.625zm0 0"/><path d="m113.4375 165.941406 4.871094-2.8125v5.625zm0 0"/><path d="m113.4375 171.5625 4.871094-2.808594v5.621094zm0 0"/><path d="m113.4375 177.1875 4.871094-2.8125v5.625zm0 0"/><path d="m113.4375 188.4375 4.871094-2.8125v5.621094zm0 0"/><path d="m128.046875 224.992188 4.871094-2.8125v5.625zm0 0"/><path d="m132.917969 227.804688 4.871093-2.8125v5.625zm0 0"/><path d="m142.660156 233.425781 4.871094-2.808593v5.621093zm0 0"/><path d="m152.402344 239.050781 4.867187-2.8125v5.625zm0 0"/><path d="m162.140625 244.675781 4.871094-2.8125v5.625zm0 0"/><path d="m167.011719 247.488281 4.871093-2.8125v5.625zm0 0"/><path d="m181.625 250.300781 4.867188-2.8125v5.625zm0 0"/><path d="m186.492188 247.488281 4.871093-2.8125v5.625zm0 0"/><path d="m191.363281 244.675781 4.871094-2.8125v5.625zm0 0"/><path d="m196.234375 241.863281 4.871094-2.8125v5.625zm0 0"/><path d="m201.105469 239.050781 4.871093-2.8125v5.625zm0 0"/><path d="m205.976562 236.238281 4.871094-2.8125v5.625zm0 0"/><path d="m210.847656 233.425781 4.871094-2.808593v5.621093zm0 0"/><path d="m225.457031 224.992188 4.871094-2.8125v5.625zm0 0"/><path d="m235.199219 219.367188 4.871093-2.8125v5.625zm0 0"/><path d="m244.941406 219.367188 4.867188-2.8125v5.625zm0 0"/><path d="m244.941406 213.742188 4.867188-2.808594v5.621094zm0 0"/><path d="m244.941406 208.121094 4.867188-2.8125v5.625zm0 0"/><path d="m244.941406 202.496094 4.867188-2.8125v5.625zm0 0"/><path d="m244.941406 196.871094 4.867188-2.8125v5.625zm0 0"/><path d="m244.941406 191.246094 4.867188-2.808594v5.621094zm0 0"/><path d="m244.941406 157.503906 4.867188-2.8125v5.625zm0 0"/><path d="m244.941406 146.257812 4.867188-2.8125v5.621094zm0 0"/><path d="m225.457031 129.382812 4.871094-2.808593v5.621093zm0 0"/><path d="m220.585938 126.574219 4.871093-2.8125v5.621093zm0 0"/><path d="m205.976562 118.136719 4.871094-2.8125v5.625zm0 0"/><path d="m196.234375 112.511719 4.871094-2.8125v5.625zm0 0"/><path d="m186.492188 106.886719 4.871093-2.808594v5.621094zm0 0"/><path d="m181.625 104.078125 4.867188-2.8125v5.621094zm0 0"/><path d="m176.753906 101.265625 4.871094-2.8125v5.625zm0 0"/><path d="m171.882812 104.078125 4.871094-2.8125v5.621094zm0 0"/><path d="m167.011719 106.886719 4.871093-2.808594v5.621094zm0 0"/><path d="m162.140625 109.699219 4.871094-2.8125v5.625zm0 0"/><path d="m157.269531 112.511719 4.871094-2.8125v5.625zm0 0"/><path d="m142.660156 120.949219 4.871094-2.8125v5.625zm0 0"/><path d="m137.789062 123.761719 4.871094-2.8125v5.625zm0 0"/><path d="m123.175781 132.195312 4.871094-2.8125v5.625zm0 0"/><path d="m118.308594 135.007812 4.867187-2.8125v5.625zm0 0"/><path d="m108.566406 157.503906 4.871094-2.8125v5.625zm0 0"/><path d="m108.566406 163.128906 4.871094-2.8125v5.625zm0 0"/><path d="m108.566406 168.753906 4.871094-2.8125v5.621094zm0 0"/><path d="m162.140625 250.300781 4.871094-2.8125v5.625zm0 0"/><path d="m167.011719 253.113281 4.871093-2.8125v5.621094zm0 0"/><path d="m171.882812 255.921875 4.871094-2.808594v5.621094zm0 0"/><path d="m176.753906 258.734375 4.871094-2.8125v5.625zm0 0"/><path d="m186.492188 253.113281 4.871093-2.8125v5.621094zm0 0"/><path d="m196.234375 247.488281 4.871094-2.8125v5.625zm0 0"/><path d="m201.105469 244.675781 4.871093-2.8125v5.625zm0 0"/><path d="m205.976562 241.863281 4.871094-2.8125v5.625zm0 0"/><path d="m215.71875 236.238281 4.867188-2.8125v5.625zm0 0"/><path d="m220.585938 233.425781 4.871093-2.808593v5.621093zm0 0"/><path d="m225.457031 230.617188 4.871094-2.8125v5.621093zm0 0"/><path d="m240.070312 222.179688 4.871094-2.8125v5.625zm0 0"/><path d="m249.808594 222.179688 4.871094-2.8125v5.625zm0 0"/><path d="m249.808594 216.554688 4.871094-2.8125v5.625zm0 0"/><path d="m249.808594 210.933594 4.871094-2.8125v5.621094zm0 0"/><path d="m249.808594 188.4375 4.871094-2.8125v5.621094zm0 0"/><path d="m249.808594 182.8125 4.871094-2.8125v5.625zm0 0"/><path d="m249.808594 177.1875 4.871094-2.8125v5.625zm0 0"/><path d="m249.808594 154.691406 4.871094-2.8125v5.625zm0 0"/><path d="m249.808594 143.445312 4.871094-2.8125v5.625zm0 0"/><path d="m249.808594 137.820312 4.871094-2.8125v5.625zm0 0"/><path d="m240.070312 132.195312 4.871094-2.8125v5.625zm0 0"/><path d="m235.199219 129.382812 4.871093-2.808593v5.621093zm0 0"/><path d="m230.328125 126.574219 4.871094-2.8125v5.621093zm0 0"/><path d="m225.457031 123.761719 4.871094-2.8125v5.625zm0 0"/><path d="m215.71875 118.136719 4.867188-2.8125v5.625zm0 0"/><path d="m210.847656 115.324219 4.871094-2.8125v5.625zm0 0"/><path d="m205.976562 112.511719 4.871094-2.8125v5.625zm0 0"/><path d="m196.234375 106.886719 4.871094-2.808594v5.621094zm0 0"/><path d="m191.363281 104.078125 4.871094-2.8125v5.621094zm0 0"/><path d="m181.625 98.453125 4.867188-2.8125v5.625zm0 0"/><path d="m176.753906 95.640625 4.871094-2.8125v5.625zm0 0"/><path d="m171.882812 98.453125 4.871094-2.8125v5.625zm0 0"/><path d="m167.011719 101.265625 4.871093-2.8125v5.625zm0 0"/><path d="m162.140625 104.078125 4.871094-2.8125v5.621094zm0 0"/><path d="m157.269531 106.886719 4.871094-2.808594v5.621094zm0 0"/><path d="m142.660156 115.324219 4.871094-2.8125v5.625zm0 0"/><path d="m137.789062 118.136719 4.871094-2.8125v5.625zm0 0"/><path d="m132.917969 120.949219 4.871093-2.8125v5.625zm0 0"/><path d="m152.402344 250.300781 4.867187-2.8125v5.625zm0 0"/><path d="m162.140625 255.921875 4.871094-2.808594v5.621094zm0 0"/><path d="m171.882812 261.546875 4.871094-2.8125v5.625zm0 0"/><path d="m181.625 261.546875 4.867188-2.8125v5.625zm0 0"/><path d="m186.492188 258.734375 4.871093-2.8125v5.625zm0 0"/><path d="m196.234375 253.113281 4.871094-2.8125v5.621094zm0 0"/><path d="m201.105469 250.300781 4.871093-2.8125v5.625zm0 0"/><path d="m215.71875 241.863281 4.867188-2.8125v5.625zm0 0"/><path d="m220.585938 239.050781 4.871093-2.8125v5.625zm0 0"/><path d="m230.328125 233.425781 4.871094-2.808593v5.621093zm0 0"/><path d="m240.070312 227.804688 4.871094-2.8125v5.625zm0 0"/><path d="m244.941406 224.992188 4.867188-2.8125v5.625zm0 0"/><path d="m254.679688 224.992188 4.871093-2.8125v5.625zm0 0"/><path d="m254.679688 219.367188 4.871093-2.8125v5.625zm0 0"/><path d="m254.679688 213.742188 4.871093-2.808594v5.621094zm0 0"/><path d="m254.679688 208.121094 4.871093-2.8125v5.625zm0 0"/><path d="m254.679688 202.496094 4.871093-2.8125v5.625zm0 0"/><path d="m254.679688 196.871094 4.871093-2.8125v5.625zm0 0"/><path d="m254.679688 191.246094 4.871093-2.808594v5.621094zm0 0"/><path d="m254.679688 185.625 4.871093-2.8125v5.625zm0 0"/><path d="m254.679688 180 4.871093-2.8125v5.625zm0 0"/><path d="m254.679688 174.375 4.871093-2.8125v5.625zm0 0"/><path d="m254.679688 168.753906 4.871093-2.8125v5.621094zm0 0"/><path d="m254.679688 151.878906 4.871093-2.8125v5.625zm0 0"/><path d="m254.679688 146.257812 4.871093-2.8125v5.621094zm0 0"/><path d="m254.679688 140.632812 4.871093-2.8125v5.625zm0 0"/><path d="m244.941406 129.382812 4.867188-2.808593v5.621093zm0 0"/><path d="m235.199219 123.761719 4.871093-2.8125v5.625zm0 0"/><path d="m230.328125 120.949219 4.871094-2.8125v5.625zm0 0"/><path d="m210.847656 109.699219 4.871094-2.8125v5.625zm0 0"/><path d="m205.976562 106.886719 4.871094-2.808594v5.621094zm0 0"/><path d="m186.492188 95.640625 4.871093-2.8125v5.625zm0 0"/><path d="m176.753906 90.015625 4.871094-2.8125v5.625zm0 0"/><path d="m171.882812 92.828125 4.871094-2.8125v5.625zm0 0"/><path d="m157.269531 101.265625 4.871094-2.8125v5.625zm0 0"/><path d="m142.660156 109.699219 4.871094-2.8125v5.625zm0 0"/><path d="m132.917969 115.324219 4.871093-2.8125v5.625zm0 0"/><path d="m152.402344 255.921875 4.867187-2.808594v5.621094zm0 0"/><path d="m157.269531 258.734375 4.871094-2.8125v5.625zm0 0"/><path d="m162.140625 261.546875 4.871094-2.8125v5.625zm0 0"/><path d="m181.625 267.171875 4.867188-2.8125v5.625zm0 0"/><path d="m196.234375 258.734375 4.871094-2.8125v5.625zm0 0"/><path d="m201.105469 255.921875 4.871093-2.808594v5.621094zm0 0"/><path d="m210.847656 250.300781 4.871094-2.8125v5.625zm0 0"/><path d="m215.71875 247.488281 4.867188-2.8125v5.625zm0 0"/><path d="m220.585938 244.675781 4.871093-2.8125v5.625zm0 0"/><path d="m235.199219 236.238281 4.871093-2.8125v5.625zm0 0"/><path d="m240.070312 233.425781 4.871094-2.808593v5.621093zm0 0"/><path d="m244.941406 230.617188 4.867188-2.8125v5.621093zm0 0"/><path d="m259.550781 227.804688 4.871094-2.8125v5.625zm0 0"/><path d="m259.550781 222.179688 4.871094-2.8125v5.625zm0 0"/><path d="m259.550781 216.554688 4.871094-2.8125v5.625zm0 0"/><path d="m259.550781 210.933594 4.871094-2.8125v5.621094zm0 0"/><path d="m259.550781 177.1875 4.871094-2.8125v5.625zm0 0"/><path d="m259.550781 165.941406 4.871094-2.8125v5.625zm0 0"/><path d="m259.550781 154.691406 4.871094-2.8125v5.625zm0 0"/><path d="m259.550781 149.066406 4.871094-2.808594v5.621094zm0 0"/><path d="m259.550781 143.445312 4.871094-2.8125v5.625zm0 0"/><path d="m259.550781 132.195312 4.871094-2.8125v5.625zm0 0"/><path d="m244.941406 123.761719 4.867188-2.8125v5.625zm0 0"/><path d="m235.199219 118.136719 4.871093-2.8125v5.625zm0 0"/><path d="m215.71875 106.886719 4.867188-2.808594v5.621094zm0 0"/><path d="m210.847656 104.078125 4.871094-2.8125v5.621094zm0 0"/><path d="m176.753906 84.394531 4.871094-2.8125v5.621094zm0 0"/><path d="m171.882812 87.203125 4.871094-2.808594v5.621094zm0 0"/><path d="m157.269531 95.640625 4.871094-2.8125v5.625zm0 0"/><path d="m152.402344 98.453125 4.867187-2.8125v5.625zm0 0"/><path d="m142.660156 104.078125 4.871094-2.8125v5.621094zm0 0"/><path d="m137.789062 106.886719 4.871094-2.808594v5.621094zm0 0"/><path d="m132.917969 109.699219 4.871093-2.8125v5.625zm0 0"/><path d="m147.53125 258.734375 4.871094-2.8125v5.625zm0 0"/><path d="m157.269531 264.359375 4.871094-2.8125v5.625zm0 0"/><path d="m205.976562 258.734375 4.871094-2.8125v5.625zm0 0"/><path d="m210.847656 255.921875 4.871094-2.808594v5.621094zm0 0"/><path d="m220.585938 250.300781 4.871093-2.8125v5.625zm0 0"/><path d="m240.070312 239.050781 4.871094-2.8125v5.625zm0 0"/><path d="m244.941406 236.238281 4.867188-2.8125v5.625zm0 0"/><path d="m249.808594 233.425781 4.871094-2.808593v5.621093zm0 0"/><path d="m254.679688 230.617188 4.871093-2.8125v5.621093zm0 0"/><path d="m264.421875 224.992188 4.871094-2.8125v5.625zm0 0"/><path d="m264.421875 219.367188 4.871094-2.8125v5.625zm0 0"/><path d="m264.421875 191.246094 4.871094-2.808594v5.621094zm0 0"/><path d="m264.421875 174.375 4.871094-2.8125v5.625zm0 0"/><path d="m264.421875 168.753906 4.871094-2.8125v5.621094zm0 0"/><path d="m264.421875 163.128906 4.871094-2.8125v5.625zm0 0"/><path d="m264.421875 157.503906 4.871094-2.8125v5.625zm0 0"/><path d="m264.421875 151.878906 4.871094-2.8125v5.625zm0 0"/><path d="m264.421875 146.257812 4.871094-2.8125v5.621094zm0 0"/><path d="m264.421875 140.632812 4.871094-2.8125v5.625zm0 0"/><path d="m264.421875 135.007812 4.871094-2.8125v5.625zm0 0"/><path d="m264.421875 129.382812 4.871094-2.808593v5.621093zm0 0"/><path d="m147.53125 95.640625 4.871094-2.8125v5.625zm0 0"/><path d="m137.789062 101.265625 4.871094-2.8125v5.625zm0 0"/><path d="m132.917969 104.078125 4.871093-2.8125v5.621094zm0 0"/><path d="m210.847656 261.546875 4.871094-2.8125v5.625zm0 0"/><path d="m215.71875 258.734375 4.867188-2.8125v5.625zm0 0"/><path d="m240.070312 244.675781 4.871094-2.8125v5.625zm0 0"/><path d="m244.941406 241.863281 4.867188-2.8125v5.625zm0 0"/><path d="m249.808594 239.050781 4.871094-2.8125v5.625zm0 0"/><path d="m269.292969 216.554688 4.871093-2.8125v5.625zm0 0"/><path d="m269.292969 205.308594 4.871093-2.8125v5.625zm0 0"/><path d="m269.292969 182.8125 4.871093-2.8125v5.625zm0 0"/><path d="m269.292969 177.1875 4.871093-2.8125v5.625zm0 0"/><path d="m269.292969 171.5625 4.871093-2.808594v5.621094zm0 0"/><path d="m269.292969 165.941406 4.871093-2.8125v5.625zm0 0"/><path d="m269.292969 160.316406 4.871093-2.8125v5.625zm0 0"/><path d="m269.292969 149.066406 4.871093-2.808594v5.621094zm0 0"/><path d="m269.292969 137.820312 4.871093-2.8125v5.625zm0 0"/><path d="m147.53125 90.015625 4.871094-2.8125v5.625zm0 0"/><path d="m142.660156 92.828125 4.871094-2.8125v5.625zm0 0"/><path d="m244.941406 247.488281 4.867188-2.8125v5.625zm0 0"/><path d="m254.679688 241.863281 4.871093-2.8125v5.625zm0 0"/><path d="m274.164062 219.367188 4.871094-2.8125v5.625zm0 0"/><path d="m274.164062 213.742188 4.871094-2.808594v5.621094zm0 0"/><path d="m274.164062 202.496094 4.871094-2.8125v5.625zm0 0"/><path d="m274.164062 196.871094 4.871094-2.8125v5.625zm0 0"/><path d="m274.164062 185.625 4.871094-2.8125v5.625zm0 0"/><path d="m274.164062 174.375 4.871094-2.8125v5.625zm0 0"/><path d="m274.164062 168.753906 4.871094-2.8125v5.621094zm0 0"/><path d="m274.164062 163.128906 4.871094-2.8125v5.625zm0 0"/><path d="m274.164062 157.503906 4.871094-2.8125v5.625zm0 0"/><path d="m274.164062 140.632812 4.871094-2.8125v5.625zm0 0"/><path d="m274.164062 135.007812 4.871094-2.8125v5.625zm0 0"/><path d="m279.035156 205.308594 4.867188-2.8125v5.625zm0 0"/><path d="m279.035156 199.683594 4.867188-2.8125v5.625zm0 0"/><path d="m279.035156 194.058594 4.867188-2.8125v5.625zm0 0"/><path d="m279.035156 188.4375 4.867188-2.8125v5.621094zm0 0"/><path d="m279.035156 182.8125 4.867188-2.8125v5.625zm0 0"/><path d="m279.035156 177.1875 4.867188-2.8125v5.625zm0 0"/><path d="m279.035156 171.5625 4.867188-2.808594v5.621094zm0 0"/><path d="m279.035156 160.316406 4.867188-2.8125v5.625zm0 0"/><path d="m279.035156 154.691406 4.867188-2.8125v5.625zm0 0"/><path d="m283.902344 208.121094 4.871094-2.8125v5.625zm0 0"/><path d="m283.902344 202.496094 4.871094-2.8125v5.625zm0 0"/><path d="m283.902344 196.871094 4.871094-2.8125v5.625zm0 0"/><path d="m283.902344 191.246094 4.871094-2.808594v5.621094zm0 0"/><path d="m283.902344 185.625 4.871094-2.8125v5.625zm0 0"/><path d="m283.902344 168.753906 4.871094-2.8125v5.621094zm0 0"/><path d="m283.902344 163.128906 4.871094-2.8125v5.625zm0 0"/><path d="m283.902344 157.503906 4.871094-2.8125v5.625zm0 0"/><path d="m283.902344 146.257812 4.871094-2.8125v5.621094zm0 0"/><path d="m288.773438 194.058594 4.871093-2.8125v5.625zm0 0"/><path d="m288.773438 182.8125 4.871093-2.8125v5.625zm0 0"/><path d="m288.773438 165.941406 4.871093-2.8125v5.625zm0 0"/><path d="m288.773438 160.316406 4.871093-2.8125v5.625zm0 0"/><path d="m288.773438 154.691406 4.871093-2.8125v5.625zm0 0"/><path d="m288.773438 149.066406 4.871093-2.808594v5.621094zm0 0"/><path d="m288.773438 143.445312 4.871093-2.8125v5.625zm0 0"/><path d="m293.644531 191.246094 4.871094-2.808594v5.621094zm0 0"/><path d="m293.644531 163.128906 4.871094-2.8125v5.625zm0 0"/><path d="m293.644531 157.503906 4.871094-2.8125v5.625zm0 0"/><path d="m298.515625 194.058594 4.871094-2.8125v5.625zm0 0"/><path d="m298.515625 188.4375 4.871094-2.8125v5.621094zm0 0"/><path d="m298.515625 165.941406 4.871094-2.8125v5.625zm0 0"/><path d="m298.515625 160.316406 4.871094-2.8125v5.625zm0 0"/><path d="m298.515625 154.691406 4.871094-2.8125v5.625zm0 0"/><path d="m303.386719 191.246094 4.871093-2.808594v5.621094zm0 0"/><path d="m303.386719 185.625 4.871093-2.8125v5.625zm0 0"/><path d="m303.386719 168.753906 4.871093-2.8125v5.621094zm0 0"/><path d="m303.386719 163.128906 4.871093-2.8125v5.625zm0 0"/><path d="m186.492188 180-4.867188-2.8125v5.625zm0 0"/><path d="m181.625 182.8125-4.871094-2.8125v5.625zm0 0"/><path d="m186.492188 174.375-4.867188-2.8125v5.625zm0 0"/><path d="m181.625 171.5625-4.871094-2.808594v5.621094zm0 0"/><path d="m181.625 188.4375-4.871094-2.8125v5.621094zm0 0"/><path d="m186.492188 185.625-4.867188-2.8125v5.625zm0 0"/><path d="m186.492188 168.753906-4.867188-2.8125v5.621094zm0 0"/><path d="m181.625 165.941406-4.871094-2.8125v5.625zm0 0"/><path d="m176.753906 168.753906-4.871094-2.8125v5.621094zm0 0"/><path d="m171.882812 171.5625-4.871093-2.808594v5.621094zm0 0"/><path d="m171.882812 177.1875-4.871093-2.8125v5.625zm0 0"/><path d="m176.753906 191.246094-4.871094-2.808594v5.621094zm0 0"/><path d="m181.625 194.058594-4.871094-2.8125v5.625zm0 0"/><path d="m201.105469 177.1875-4.871094-2.8125v5.625zm0 0"/><path d="m191.363281 165.941406-4.871093-2.8125v5.625zm0 0"/><path d="m186.492188 163.128906-4.867188-2.8125v5.625zm0 0"/><path d="m181.625 160.316406-4.871094-2.8125v5.625zm0 0"/><path d="m176.753906 163.128906-4.871094-2.8125v5.625zm0 0"/><path d="m171.882812 165.941406-4.871093-2.8125v5.625zm0 0"/><path d="m167.011719 168.753906-4.871094-2.8125v5.621094zm0 0"/><path d="m167.011719 191.246094-4.871094-2.808594v5.621094zm0 0"/><path d="m176.753906 196.871094-4.871094-2.8125v5.625zm0 0"/><path d="m181.625 199.683594-4.871094-2.8125v5.625zm0 0"/><path d="m186.492188 196.871094-4.867188-2.8125v5.625zm0 0"/><path d="m205.976562 191.246094-4.871093-2.808594v5.621094zm0 0"/><path d="m205.976562 180-4.871093-2.8125v5.625zm0 0"/><path d="m205.976562 174.375-4.871093-2.8125v5.625zm0 0"/><path d="m205.976562 168.753906-4.871093-2.8125v5.621094zm0 0"/><path d="m201.105469 165.941406-4.871094-2.8125v5.625zm0 0"/><path d="m196.234375 163.128906-4.871094-2.8125v5.625zm0 0"/><path d="m191.363281 160.316406-4.871093-2.8125v5.625zm0 0"/><path d="m181.625 154.691406-4.871094-2.8125v5.625zm0 0"/><path d="m171.882812 160.316406-4.871093-2.8125v5.625zm0 0"/><path d="m167.011719 163.128906-4.871094-2.8125v5.625zm0 0"/><path d="m162.140625 165.941406-4.871094-2.8125v5.625zm0 0"/><path d="m162.140625 171.5625-4.871094-2.808594v5.621094zm0 0"/><path d="m162.140625 194.058594-4.871094-2.8125v5.625zm0 0"/><path d="m176.753906 202.496094-4.871094-2.8125v5.625zm0 0"/><path d="m181.625 205.308594-4.871094-2.8125v5.625zm0 0"/><path d="m186.492188 202.496094-4.867188-2.8125v5.625zm0 0"/><path d="m210.847656 188.4375-4.871094-2.8125v5.621094zm0 0"/><path d="m210.847656 182.8125-4.871094-2.8125v5.625zm0 0"/><path d="m210.847656 171.5625-4.871094-2.808594v5.621094zm0 0"/><path d="m210.847656 165.941406-4.871094-2.8125v5.625zm0 0"/><path d="m196.234375 157.503906-4.871094-2.8125v5.625zm0 0"/><path d="m191.363281 154.691406-4.871093-2.8125v5.625zm0 0"/><path d="m186.492188 151.878906-4.867188-2.8125v5.625zm0 0"/><path d="m181.625 149.066406-4.871094-2.808594v5.621094zm0 0"/><path d="m171.882812 154.691406-4.871093-2.8125v5.625zm0 0"/><path d="m167.011719 157.503906-4.871094-2.8125v5.625zm0 0"/><path d="m162.140625 160.316406-4.871094-2.8125v5.625zm0 0"/><path d="m157.269531 163.128906-4.867187-2.8125v5.625zm0 0"/><path d="m157.269531 174.375-4.867187-2.8125v5.625zm0 0"/><path d="m162.140625 199.683594-4.871094-2.8125v5.625zm0 0"/><path d="m171.882812 205.308594-4.871093-2.8125v5.625zm0 0"/><path d="m176.753906 208.121094-4.871094-2.8125v5.625zm0 0"/><path d="m181.625 210.933594-4.871094-2.8125v5.621094zm0 0"/><path d="m215.71875 168.753906-4.871094-2.8125v5.621094zm0 0"/><path d="m215.71875 163.128906-4.871094-2.8125v5.625zm0 0"/><path d="m210.847656 160.316406-4.871094-2.8125v5.625zm0 0"/><path d="m201.105469 154.691406-4.871094-2.8125v5.625zm0 0"/><path d="m196.234375 151.878906-4.871094-2.8125v5.625zm0 0"/><path d="m186.492188 146.257812-4.867188-2.8125v5.621094zm0 0"/><path d="m181.625 143.445312-4.871094-2.8125v5.625zm0 0"/><path d="m176.753906 146.257812-4.871094-2.8125v5.621094zm0 0"/><path d="m167.011719 151.878906-4.871094-2.8125v5.625zm0 0"/><path d="m162.140625 154.691406-4.871094-2.8125v5.625zm0 0"/><path d="m157.269531 157.503906-4.867187-2.8125v5.625zm0 0"/><path d="m152.402344 171.5625-4.871094-2.808594v5.621094zm0 0"/><path d="m152.402344 177.1875-4.871094-2.8125v5.625zm0 0"/><path d="m152.402344 182.8125-4.871094-2.8125v5.625zm0 0"/><path d="m152.402344 188.4375-4.871094-2.8125v5.621094zm0 0"/><path d="m152.402344 199.683594-4.871094-2.8125v5.625zm0 0"/><path d="m157.269531 202.496094-4.867187-2.8125v5.625zm0 0"/><path d="m171.882812 210.933594-4.871093-2.8125v5.621094zm0 0"/><path d="m176.753906 213.742188-4.871094-2.808594v5.621094zm0 0"/><path d="m181.625 216.554688-4.871094-2.8125v5.625zm0 0"/><path d="m186.492188 213.742188-4.867188-2.808594v5.621094zm0 0"/><path d="m191.363281 210.933594-4.871093-2.8125v5.621094zm0 0"/><path d="m210.847656 199.683594-4.871094-2.8125v5.625zm0 0"/><path d="m220.585938 194.058594-4.867188-2.8125v5.625zm0 0"/><path d="m220.585938 188.4375-4.867188-2.8125v5.621094zm0 0"/><path d="m220.585938 177.1875-4.867188-2.8125v5.625zm0 0"/><path d="m220.585938 171.5625-4.867188-2.808594v5.621094zm0 0"/><path d="m220.585938 165.941406-4.867188-2.8125v5.625zm0 0"/><path d="m220.585938 160.316406-4.867188-2.8125v5.625zm0 0"/><path d="m215.71875 157.503906-4.871094-2.8125v5.625zm0 0"/><path d="m210.847656 154.691406-4.871094-2.8125v5.625zm0 0"/><path d="m205.976562 151.878906-4.871093-2.8125v5.625zm0 0"/><path d="m196.234375 146.257812-4.871094-2.8125v5.621094zm0 0"/><path d="m186.492188 140.632812-4.867188-2.8125v5.625zm0 0"/><path d="m176.753906 140.632812-4.871094-2.8125v5.625zm0 0"/><path d="m171.882812 143.445312-4.871093-2.8125v5.625zm0 0"/><path d="m167.011719 146.257812-4.871094-2.8125v5.621094zm0 0"/><path d="m162.140625 149.066406-4.871094-2.808594v5.621094zm0 0"/><path d="m157.269531 151.878906-4.867187-2.8125v5.625zm0 0"/><path d="m152.402344 154.691406-4.871094-2.8125v5.625zm0 0"/><path d="m147.53125 157.503906-4.871094-2.8125v5.625zm0 0"/><path d="m147.53125 163.128906-4.871094-2.8125v5.625zm0 0"/><path d="m147.53125 168.753906-4.871094-2.8125v5.621094zm0 0"/><path d="m147.53125 174.375-4.871094-2.8125v5.625zm0 0"/><path d="m147.53125 180-4.871094-2.8125v5.625zm0 0"/><path d="m147.53125 185.625-4.871094-2.8125v5.625zm0 0"/><path d="m147.53125 191.246094-4.871094-2.808594v5.621094zm0 0"/><path d="m147.53125 196.871094-4.871094-2.8125v5.625zm0 0"/><path d="m147.53125 202.496094-4.871094-2.8125v5.625zm0 0"/><path d="m152.402344 205.308594-4.871094-2.8125v5.625zm0 0"/><path d="m176.753906 219.367188-4.871094-2.8125v5.625zm0 0"/><path d="m181.625 222.179688-4.871094-2.8125v5.625zm0 0"/><path d="m186.492188 219.367188-4.867188-2.8125v5.625zm0 0"/><path d="m191.363281 216.554688-4.871093-2.8125v5.625zm0 0"/><path d="m201.105469 210.933594-4.871094-2.8125v5.621094zm0 0"/><path d="m210.847656 205.308594-4.871094-2.8125v5.625zm0 0"/><path d="m215.71875 202.496094-4.871094-2.8125v5.625zm0 0"/><path d="m225.457031 202.496094-4.871093-2.8125v5.625zm0 0"/><path d="m225.457031 191.246094-4.871093-2.808594v5.621094zm0 0"/><path d="m225.457031 180-4.871093-2.8125v5.625zm0 0"/><path d="m225.457031 174.375-4.871093-2.8125v5.625zm0 0"/><path d="m225.457031 168.753906-4.871093-2.8125v5.621094zm0 0"/><path d="m225.457031 163.128906-4.871093-2.8125v5.625zm0 0"/><path d="m225.457031 157.503906-4.871093-2.8125v5.625zm0 0"/><path d="m220.585938 154.691406-4.867188-2.8125v5.625zm0 0"/><path d="m215.71875 151.878906-4.871094-2.8125v5.625zm0 0"/><path d="m205.976562 146.257812-4.871093-2.8125v5.621094zm0 0"/><path d="m191.363281 137.820312-4.871093-2.8125v5.625zm0 0"/><path d="m176.753906 135.007812-4.871094-2.8125v5.625zm0 0"/><path d="m171.882812 137.820312-4.871093-2.8125v5.625zm0 0"/><path d="m167.011719 140.632812-4.871094-2.8125v5.625zm0 0"/><path d="m162.140625 143.445312-4.871094-2.8125v5.625zm0 0"/><path d="m157.269531 146.257812-4.867187-2.8125v5.621094zm0 0"/><path d="m152.402344 149.066406-4.871094-2.808594v5.621094zm0 0"/><path d="m147.53125 151.878906-4.871094-2.8125v5.625zm0 0"/><path d="m142.660156 154.691406-4.871094-2.8125v5.625zm0 0"/><path d="m142.660156 160.316406-4.871094-2.8125v5.625zm0 0"/><path d="m142.660156 171.5625-4.871094-2.808594v5.621094zm0 0"/><path d="m142.660156 177.1875-4.871094-2.8125v5.625zm0 0"/><path d="m142.660156 182.8125-4.871094-2.8125v5.625zm0 0"/><path d="m142.660156 188.4375-4.871094-2.8125v5.621094zm0 0"/><path d="m142.660156 194.058594-4.871094-2.8125v5.625zm0 0"/><path d="m147.53125 208.121094-4.871094-2.8125v5.625zm0 0"/><path d="m152.402344 210.933594-4.871094-2.8125v5.621094zm0 0"/><path d="m167.011719 219.367188-4.871094-2.8125v5.625zm0 0"/><path d="m171.882812 222.179688-4.871093-2.8125v5.625zm0 0"/><path d="m176.753906 224.992188-4.871094-2.8125v5.625zm0 0"/><path d="m181.625 227.804688-4.871094-2.8125v5.625zm0 0"/><path d="m196.234375 219.367188-4.871094-2.8125v5.625zm0 0"/><path d="m201.105469 216.554688-4.871094-2.8125v5.625zm0 0"/><path d="m205.976562 213.742188-4.871093-2.808594v5.621094zm0 0"/><path d="m210.847656 210.933594-4.871094-2.8125v5.621094zm0 0"/><path d="m215.71875 208.121094-4.871094-2.8125v5.625zm0 0"/><path d="m220.585938 205.308594-4.867188-2.8125v5.625zm0 0"/><path d="m230.328125 205.308594-4.871094-2.8125v5.625zm0 0"/><path d="m230.328125 199.683594-4.871094-2.8125v5.625zm0 0"/><path d="m230.328125 194.058594-4.871094-2.8125v5.625zm0 0"/><path d="m230.328125 188.4375-4.871094-2.8125v5.621094zm0 0"/><path d="m230.328125 177.1875-4.871094-2.8125v5.625zm0 0"/><path d="m230.328125 171.5625-4.871094-2.808594v5.621094zm0 0"/><path d="m230.328125 165.941406-4.871094-2.8125v5.625zm0 0"/><path d="m230.328125 154.691406-4.871094-2.8125v5.625zm0 0"/><path d="m225.457031 151.878906-4.871093-2.8125v5.625zm0 0"/><path d="m220.585938 149.066406-4.867188-2.808594v5.621094zm0 0"/><path d="m210.847656 143.445312-4.871094-2.8125v5.625zm0 0"/><path d="m201.105469 137.820312-4.871094-2.8125v5.625zm0 0"/><path d="m181.625 126.574219-4.871094-2.8125v5.621093zm0 0"/><path d="m142.660156 149.066406-4.871094-2.808594v5.621094zm0 0"/><path d="m137.789062 151.878906-4.871093-2.8125v5.625zm0 0"/><path d="m137.789062 163.128906-4.871093-2.8125v5.625zm0 0"/><path d="m137.789062 168.753906-4.871093-2.8125v5.621094zm0 0"/><path d="m137.789062 174.375-4.871093-2.8125v5.625zm0 0"/><path d="m137.789062 180-4.871093-2.8125v5.625zm0 0"/><path d="m137.789062 185.625-4.871093-2.8125v5.625zm0 0"/><path d="m137.789062 208.121094-4.871093-2.8125v5.625zm0 0"/><path d="m142.660156 210.933594-4.871094-2.8125v5.621094zm0 0"/><path d="m147.53125 213.742188-4.871094-2.808594v5.621094zm0 0"/><path d="m152.402344 216.554688-4.871094-2.8125v5.625zm0 0"/><path d="m157.269531 219.367188-4.867187-2.8125v5.625zm0 0"/><path d="m162.140625 222.179688-4.871094-2.8125v5.625zm0 0"/><path d="m176.753906 230.617188-4.871094-2.8125v5.621093zm0 0"/><path d="m181.625 233.425781-4.871094-2.808593v5.621093zm0 0"/><path d="m191.363281 227.804688-4.871093-2.8125v5.625zm0 0"/><path d="m196.234375 224.992188-4.871094-2.8125v5.625zm0 0"/><path d="m205.976562 219.367188-4.871093-2.8125v5.625zm0 0"/><path d="m220.585938 210.933594-4.867188-2.8125v5.621094zm0 0"/><path d="m235.199219 208.121094-4.871094-2.8125v5.625zm0 0"/><path d="m235.199219 202.496094-4.871094-2.8125v5.625zm0 0"/><path d="m235.199219 196.871094-4.871094-2.8125v5.625zm0 0"/><path d="m235.199219 191.246094-4.871094-2.808594v5.621094zm0 0"/><path d="m235.199219 185.625-4.871094-2.8125v5.625zm0 0"/><path d="m235.199219 180-4.871094-2.8125v5.625zm0 0"/><path d="m235.199219 168.753906-4.871094-2.8125v5.621094zm0 0"/><path d="m235.199219 163.128906-4.871094-2.8125v5.625zm0 0"/><path d="m235.199219 157.503906-4.871094-2.8125v5.625zm0 0"/><path d="m230.328125 149.066406-4.871094-2.808594v5.621094zm0 0"/><path d="m225.457031 146.257812-4.871093-2.8125v5.621094zm0 0"/><path d="m220.585938 143.445312-4.867188-2.8125v5.625zm0 0"/><path d="m215.71875 140.632812-4.871094-2.8125v5.625zm0 0"/><path d="m210.847656 137.820312-4.871094-2.8125v5.625zm0 0"/><path d="m205.976562 135.007812-4.871093-2.8125v5.625zm0 0"/><path d="m196.234375 129.382812-4.871094-2.808593v5.621093zm0 0"/><path d="m186.492188 123.761719-4.867188-2.8125v5.625zm0 0"/><path d="m181.625 120.949219-4.871094-2.8125v5.625zm0 0"/><path d="m176.753906 123.761719-4.871094-2.8125v5.625zm0 0"/><path d="m167.011719 129.382812-4.871094-2.808593v5.621093zm0 0"/><path d="m162.140625 132.195312-4.871094-2.8125v5.625zm0 0"/><path d="m152.402344 137.820312-4.871094-2.8125v5.625zm0 0"/><path d="m142.660156 143.445312-4.871094-2.8125v5.625zm0 0"/><path d="m137.789062 146.257812-4.871093-2.8125v5.621094zm0 0"/><path d="m132.917969 154.691406-4.871094-2.8125v5.625zm0 0"/><path d="m132.917969 160.316406-4.871094-2.8125v5.625zm0 0"/><path d="m132.917969 171.5625-4.871094-2.808594v5.621094zm0 0"/><path d="m132.917969 199.683594-4.871094-2.8125v5.625zm0 0"/><path d="m132.917969 205.308594-4.871094-2.8125v5.625zm0 0"/><path d="m132.917969 210.933594-4.871094-2.8125v5.621094zm0 0"/><path d="m142.660156 216.554688-4.871094-2.8125v5.625zm0 0"/><path d="m152.402344 222.179688-4.871094-2.8125v5.625zm0 0"/><path d="m157.269531 224.992188-4.867187-2.8125v5.625zm0 0"/><path d="m186.492188 236.238281-4.867188-2.8125v5.625zm0 0"/><path d="m191.363281 233.425781-4.871093-2.808593v5.621093zm0 0"/><path d="m196.234375 230.617188-4.871094-2.8125v5.621093zm0 0"/><path d="m215.71875 219.367188-4.871094-2.8125v5.625zm0 0"/><path d="m220.585938 216.554688-4.867188-2.8125v5.625zm0 0"/><path d="m225.457031 213.742188-4.871093-2.808594v5.621094zm0 0"/><path d="m230.328125 210.933594-4.871094-2.8125v5.621094zm0 0"/><path d="m240.070312 210.933594-4.871093-2.8125v5.621094zm0 0"/><path d="m240.070312 205.308594-4.871093-2.8125v5.625zm0 0"/><path d="m240.070312 194.058594-4.871093-2.8125v5.625zm0 0"/><path d="m240.070312 182.8125-4.871093-2.8125v5.625zm0 0"/><path d="m240.070312 177.1875-4.871093-2.8125v5.625zm0 0"/><path d="m240.070312 171.5625-4.871093-2.808594v5.621094zm0 0"/><path d="m240.070312 165.941406-4.871093-2.8125v5.625zm0 0"/><path d="m240.070312 160.316406-4.871093-2.8125v5.625zm0 0"/><path d="m240.070312 154.691406-4.871093-2.8125v5.625zm0 0"/><path d="m235.199219 146.257812-4.871094-2.8125v5.621094zm0 0"/><path d="m230.328125 143.445312-4.871094-2.8125v5.625zm0 0"/><path d="m225.457031 140.632812-4.871093-2.8125v5.625zm0 0"/><path d="m220.585938 137.820312-4.867188-2.8125v5.625zm0 0"/><path d="m215.71875 135.007812-4.871094-2.8125v5.625zm0 0"/><path d="m210.847656 132.195312-4.871094-2.8125v5.625zm0 0"/><path d="m205.976562 129.382812-4.871093-2.808593v5.621093zm0 0"/><path d="m201.105469 126.574219-4.871094-2.8125v5.621093zm0 0"/><path d="m196.234375 123.761719-4.871094-2.8125v5.625zm0 0"/><path d="m191.363281 120.949219-4.871093-2.8125v5.625zm0 0"/><path d="m176.753906 118.136719-4.871094-2.8125v5.625zm0 0"/><path d="m157.269531 129.382812-4.867187-2.808593v5.621093zm0 0"/><path d="m152.402344 132.195312-4.871094-2.8125v5.625zm0 0"/><path d="m147.53125 135.007812-4.871094-2.8125v5.625zm0 0"/><path d="m137.789062 140.632812-4.871093-2.8125v5.625zm0 0"/><path d="m128.046875 146.257812-4.871094-2.8125v5.621094zm0 0"/><path d="m128.046875 157.503906-4.871094-2.8125v5.625zm0 0"/><path d="m128.046875 163.128906-4.871094-2.8125v5.625zm0 0"/><path d="m128.046875 168.753906-4.871094-2.8125v5.621094zm0 0"/><path d="m128.046875 196.871094-4.871094-2.8125v5.625zm0 0"/><path d="m128.046875 202.496094-4.871094-2.8125v5.625zm0 0"/><path d="m128.046875 208.121094-4.871094-2.8125v5.625zm0 0"/><path d="m137.789062 219.367188-4.871093-2.8125v5.625zm0 0"/><path d="m147.53125 224.992188-4.871094-2.8125v5.625zm0 0"/><path d="m157.269531 230.617188-4.867187-2.8125v5.621093zm0 0"/><path d="m162.140625 233.425781-4.871094-2.808593v5.621093zm0 0"/><path d="m167.011719 236.238281-4.871094-2.8125v5.625zm0 0"/><path d="m186.492188 241.863281-4.867188-2.8125v5.625zm0 0"/><path d="m191.363281 239.050781-4.871093-2.8125v5.625zm0 0"/><path d="m196.234375 236.238281-4.871094-2.8125v5.625zm0 0"/><path d="m201.105469 233.425781-4.871094-2.808593v5.621093zm0 0"/><path d="m205.976562 230.617188-4.871093-2.8125v5.621093zm0 0"/><path d="m210.847656 227.804688-4.871094-2.8125v5.625zm0 0"/><path d="m215.71875 224.992188-4.871094-2.8125v5.625zm0 0"/><path d="m220.585938 222.179688-4.867188-2.8125v5.625zm0 0"/><path d="m230.328125 216.554688-4.871094-2.8125v5.625zm0 0"/><path d="m235.199219 213.742188-4.871094-2.808594v5.621094zm0 0"/><path d="m244.941406 213.742188-4.871094-2.808594v5.621094zm0 0"/><path d="m244.941406 208.121094-4.871094-2.8125v5.625zm0 0"/><path d="m244.941406 202.496094-4.871094-2.8125v5.625zm0 0"/><path d="m244.941406 196.871094-4.871094-2.8125v5.625zm0 0"/><path d="m244.941406 180-4.871094-2.8125v5.625zm0 0"/><path d="m244.941406 174.375-4.871094-2.8125v5.625zm0 0"/><path d="m244.941406 157.503906-4.871094-2.8125v5.625zm0 0"/><path d="m244.941406 151.878906-4.871094-2.8125v5.625zm0 0"/><path d="m244.941406 146.257812-4.871094-2.8125v5.621094zm0 0"/><path d="m235.199219 140.632812-4.871094-2.8125v5.625zm0 0"/><path d="m225.457031 135.007812-4.871093-2.8125v5.625zm0 0"/><path d="m220.585938 132.195312-4.867188-2.8125v5.625zm0 0"/><path d="m215.71875 129.382812-4.871094-2.808593v5.621093zm0 0"/><path d="m210.847656 126.574219-4.871094-2.8125v5.621093zm0 0"/><path d="m205.976562 123.761719-4.871093-2.8125v5.625zm0 0"/><path d="m196.234375 118.136719-4.871094-2.8125v5.625zm0 0"/><path d="m191.363281 115.324219-4.871093-2.8125v5.625zm0 0"/><path d="m176.753906 112.511719-4.871094-2.8125v5.625zm0 0"/><path d="m171.882812 115.324219-4.871093-2.8125v5.625zm0 0"/><path d="m167.011719 118.136719-4.871094-2.8125v5.625zm0 0"/><path d="m152.402344 126.574219-4.871094-2.8125v5.621093zm0 0"/><path d="m147.53125 129.382812-4.871094-2.808593v5.621093zm0 0"/><path d="m142.660156 132.195312-4.871094-2.8125v5.625zm0 0"/><path d="m137.789062 135.007812-4.871093-2.8125v5.625zm0 0"/><path d="m132.917969 137.820312-4.871094-2.8125v5.625zm0 0"/><path d="m128.046875 140.632812-4.871094-2.8125v5.625zm0 0"/><path d="m123.175781 143.445312-4.867187-2.8125v5.625zm0 0"/><path d="m123.175781 149.066406-4.867187-2.808594v5.621094zm0 0"/><path d="m123.175781 154.691406-4.867187-2.8125v5.625zm0 0"/><path d="m123.175781 165.941406-4.867187-2.8125v5.625zm0 0"/><path d="m128.046875 219.367188-4.871094-2.8125v5.625zm0 0"/><path d="m137.789062 224.992188-4.871093-2.8125v5.625zm0 0"/><path d="m142.660156 227.804688-4.871094-2.8125v5.625zm0 0"/><path d="m152.402344 233.425781-4.871094-2.808593v5.621093zm0 0"/><path d="m157.269531 236.238281-4.867187-2.8125v5.625zm0 0"/><path d="m162.140625 239.050781-4.871094-2.8125v5.625zm0 0"/><path d="m167.011719 241.863281-4.871094-2.8125v5.625zm0 0"/><path d="m176.753906 247.488281-4.871094-2.8125v5.625zm0 0"/><path d="m191.363281 244.675781-4.871093-2.8125v5.625zm0 0"/><path d="m196.234375 241.863281-4.871094-2.8125v5.625zm0 0"/><path d="m201.105469 239.050781-4.871094-2.8125v5.625zm0 0"/><path d="m205.976562 236.238281-4.871093-2.8125v5.625zm0 0"/><path d="m210.847656 233.425781-4.871094-2.808593v5.621093zm0 0"/><path d="m215.71875 230.617188-4.871094-2.8125v5.621093zm0 0"/><path d="m220.585938 227.804688-4.867188-2.8125v5.625zm0 0"/><path d="m225.457031 224.992188-4.871093-2.8125v5.625zm0 0"/><path d="m240.070312 216.554688-4.871093-2.8125v5.625zm0 0"/><path d="m249.808594 205.308594-4.867188-2.8125v5.625zm0 0"/><path d="m249.808594 199.683594-4.867188-2.8125v5.625zm0 0"/><path d="m249.808594 188.4375-4.867188-2.8125v5.621094zm0 0"/><path d="m249.808594 182.8125-4.867188-2.8125v5.625zm0 0"/><path d="m249.808594 149.066406-4.867188-2.808594v5.621094zm0 0"/><path d="m249.808594 143.445312-4.867188-2.8125v5.625zm0 0"/><path d="m240.070312 137.820312-4.871093-2.8125v5.625zm0 0"/><path d="m230.328125 132.195312-4.871094-2.8125v5.625zm0 0"/><path d="m225.457031 129.382812-4.871093-2.808593v5.621093zm0 0"/><path d="m220.585938 126.574219-4.867188-2.8125v5.621093zm0 0"/><path d="m210.847656 120.949219-4.871094-2.8125v5.625zm0 0"/><path d="m196.234375 112.511719-4.871094-2.8125v5.625zm0 0"/><path d="m191.363281 109.699219-4.871093-2.8125v5.625zm0 0"/><path d="m186.492188 106.886719-4.867188-2.808594v5.621094zm0 0"/><path d="m176.753906 106.886719-4.871094-2.808594v5.621094zm0 0"/><path d="m171.882812 109.699219-4.871093-2.8125v5.625zm0 0"/><path d="m167.011719 112.511719-4.871094-2.8125v5.625zm0 0"/><path d="m152.402344 120.949219-4.871094-2.8125v5.625zm0 0"/><path d="m128.046875 135.007812-4.871094-2.8125v5.625zm0 0"/><path d="m123.175781 137.820312-4.867187-2.8125v5.625zm0 0"/><path d="m118.308594 151.878906-4.871094-2.8125v5.625zm0 0"/><path d="m118.308594 157.503906-4.871094-2.8125v5.625zm0 0"/><path d="m118.308594 163.128906-4.871094-2.8125v5.625zm0 0"/><path d="m118.308594 168.753906-4.871094-2.8125v5.621094zm0 0"/><path d="m118.308594 174.375-4.871094-2.8125v5.625zm0 0"/><path d="m137.789062 230.617188-4.871093-2.8125v5.621093zm0 0"/><path d="m171.882812 250.300781-4.871093-2.8125v5.625zm0 0"/><path d="m181.625 255.921875-4.871094-2.808594v5.621094zm0 0"/><path d="m186.492188 253.113281-4.867188-2.8125v5.621094zm0 0"/><path d="m191.363281 250.300781-4.871093-2.8125v5.625zm0 0"/><path d="m196.234375 247.488281-4.871094-2.8125v5.625zm0 0"/><path d="m201.105469 244.675781-4.871094-2.8125v5.625zm0 0"/><path d="m205.976562 241.863281-4.871093-2.8125v5.625zm0 0"/><path d="m210.847656 239.050781-4.871094-2.8125v5.625zm0 0"/><path d="m215.71875 236.238281-4.871094-2.8125v5.625zm0 0"/><path d="m220.585938 233.425781-4.867188-2.808593v5.621093zm0 0"/><path d="m225.457031 230.617188-4.871093-2.8125v5.621093zm0 0"/><path d="m230.328125 227.804688-4.871094-2.8125v5.625zm0 0"/><path d="m240.070312 222.179688-4.871093-2.8125v5.625zm0 0"/><path d="m244.941406 219.367188-4.871094-2.8125v5.625zm0 0"/><path d="m254.679688 213.742188-4.871094-2.808594v5.621094zm0 0"/><path d="m254.679688 208.121094-4.871094-2.8125v5.625zm0 0"/><path d="m254.679688 196.871094-4.871094-2.8125v5.625zm0 0"/><path d="m254.679688 191.246094-4.871094-2.808594v5.621094zm0 0"/><path d="m254.679688 185.625-4.871094-2.8125v5.625zm0 0"/><path d="m254.679688 180-4.871094-2.8125v5.625zm0 0"/><path d="m254.679688 163.128906-4.871094-2.8125v5.625zm0 0"/><path d="m254.679688 157.503906-4.871094-2.8125v5.625zm0 0"/><path d="m254.679688 151.878906-4.871094-2.8125v5.625zm0 0"/><path d="m254.679688 140.632812-4.871094-2.8125v5.625zm0 0"/><path d="m230.328125 126.574219-4.871094-2.8125v5.621093zm0 0"/><path d="m225.457031 123.761719-4.871093-2.8125v5.625zm0 0"/><path d="m215.71875 118.136719-4.871094-2.8125v5.625zm0 0"/><path d="m210.847656 115.324219-4.871094-2.8125v5.625zm0 0"/><path d="m205.976562 112.511719-4.871093-2.8125v5.625zm0 0"/><path d="m201.105469 109.699219-4.871094-2.8125v5.625zm0 0"/><path d="m196.234375 106.886719-4.871094-2.808594v5.621094zm0 0"/><path d="m191.363281 104.078125-4.871093-2.8125v5.621094zm0 0"/><path d="m186.492188 101.265625-4.867188-2.8125v5.625zm0 0"/><path d="m181.625 98.453125-4.871094-2.8125v5.625zm0 0"/><path d="m176.753906 101.265625-4.871094-2.8125v5.625zm0 0"/><path d="m171.882812 104.078125-4.871093-2.8125v5.621094zm0 0"/><path d="m167.011719 106.886719-4.871094-2.808594v5.621094zm0 0"/><path d="m152.402344 115.324219-4.871094-2.8125v5.625zm0 0"/><path d="m147.53125 118.136719-4.871094-2.8125v5.625zm0 0"/><path d="m142.660156 120.949219-4.871094-2.8125v5.625zm0 0"/><path d="m128.046875 129.382812-4.871094-2.808593v5.621093zm0 0"/><path d="m123.175781 132.195312-4.867187-2.8125v5.625zm0 0"/><path d="m113.4375 160.316406-4.871094-2.8125v5.625zm0 0"/><path d="m113.4375 165.941406-4.871094-2.8125v5.625zm0 0"/><path d="m181.625 261.546875-4.871094-2.8125v5.625zm0 0"/><path d="m186.492188 258.734375-4.867188-2.8125v5.625zm0 0"/><path d="m191.363281 255.921875-4.871093-2.808594v5.621094zm0 0"/><path d="m196.234375 253.113281-4.871094-2.8125v5.621094zm0 0"/><path d="m205.976562 247.488281-4.871093-2.8125v5.625zm0 0"/><path d="m210.847656 244.675781-4.871094-2.8125v5.625zm0 0"/><path d="m215.71875 241.863281-4.871094-2.8125v5.625zm0 0"/><path d="m220.585938 239.050781-4.867188-2.8125v5.625zm0 0"/><path d="m225.457031 236.238281-4.871093-2.8125v5.625zm0 0"/><path d="m230.328125 233.425781-4.871094-2.808593v5.621093zm0 0"/><path d="m235.199219 230.617188-4.871094-2.8125v5.621093zm0 0"/><path d="m244.941406 224.992188-4.871094-2.8125v5.625zm0 0"/><path d="m249.808594 222.179688-4.867188-2.8125v5.625zm0 0"/><path d="m259.550781 222.179688-4.871093-2.8125v5.625zm0 0"/><path d="m259.550781 216.554688-4.871093-2.8125v5.625zm0 0"/><path d="m259.550781 210.933594-4.871093-2.8125v5.621094zm0 0"/><path d="m259.550781 205.308594-4.871093-2.8125v5.625zm0 0"/><path d="m259.550781 199.683594-4.871093-2.8125v5.625zm0 0"/><path d="m259.550781 194.058594-4.871093-2.8125v5.625zm0 0"/><path d="m259.550781 188.4375-4.871093-2.8125v5.621094zm0 0"/><path d="m259.550781 182.8125-4.871093-2.8125v5.625zm0 0"/><path d="m259.550781 177.1875-4.871093-2.8125v5.625zm0 0"/><path d="m259.550781 165.941406-4.871093-2.8125v5.625zm0 0"/><path d="m259.550781 154.691406-4.871093-2.8125v5.625zm0 0"/><path d="m259.550781 143.445312-4.871093-2.8125v5.625zm0 0"/><path d="m249.808594 132.195312-4.867188-2.8125v5.625zm0 0"/><path d="m244.941406 129.382812-4.871094-2.808593v5.621093zm0 0"/><path d="m240.070312 126.574219-4.871093-2.8125v5.621093zm0 0"/><path d="m235.199219 123.761719-4.871094-2.8125v5.625zm0 0"/><path d="m220.585938 115.324219-4.867188-2.8125v5.625zm0 0"/><path d="m215.71875 112.511719-4.871094-2.8125v5.625zm0 0"/><path d="m210.847656 109.699219-4.871094-2.8125v5.625zm0 0"/><path d="m205.976562 106.886719-4.871093-2.808594v5.621094zm0 0"/><path d="m201.105469 104.078125-4.871094-2.8125v5.621094zm0 0"/><path d="m191.363281 98.453125-4.871093-2.8125v5.625zm0 0"/><path d="m181.625 92.828125-4.871094-2.8125v5.625zm0 0"/><path d="m176.753906 95.640625-4.871094-2.8125v5.625zm0 0"/><path d="m171.882812 98.453125-4.871093-2.8125v5.625zm0 0"/><path d="m157.269531 106.886719-4.867187-2.808594v5.621094zm0 0"/><path d="m152.402344 109.699219-4.871094-2.8125v5.625zm0 0"/><path d="m142.660156 115.324219-4.871094-2.8125v5.625zm0 0"/><path d="m157.269531 253.113281-4.867187-2.8125v5.621094zm0 0"/><path d="m162.140625 255.921875-4.871094-2.808594v5.621094zm0 0"/><path d="m167.011719 258.734375-4.871094-2.8125v5.625zm0 0"/><path d="m186.492188 264.359375-4.867188-2.8125v5.625zm0 0"/><path d="m191.363281 261.546875-4.871093-2.8125v5.625zm0 0"/><path d="m201.105469 255.921875-4.871094-2.808594v5.621094zm0 0"/><path d="m205.976562 253.113281-4.871093-2.8125v5.621094zm0 0"/><path d="m215.71875 247.488281-4.871094-2.8125v5.625zm0 0"/><path d="m220.585938 244.675781-4.867188-2.8125v5.625zm0 0"/><path d="m225.457031 241.863281-4.871093-2.8125v5.625zm0 0"/><path d="m240.070312 233.425781-4.871093-2.808593v5.621093zm0 0"/><path d="m244.941406 230.617188-4.871094-2.8125v5.621093zm0 0"/><path d="m249.808594 227.804688-4.867188-2.8125v5.625zm0 0"/><path d="m254.679688 224.992188-4.871094-2.8125v5.625zm0 0"/><path d="m264.421875 224.992188-4.871094-2.8125v5.625zm0 0"/><path d="m264.421875 219.367188-4.871094-2.8125v5.625zm0 0"/><path d="m264.421875 213.742188-4.871094-2.808594v5.621094zm0 0"/><path d="m264.421875 208.121094-4.871094-2.8125v5.625zm0 0"/><path d="m264.421875 202.496094-4.871094-2.8125v5.625zm0 0"/><path d="m264.421875 191.246094-4.871094-2.808594v5.621094zm0 0"/><path d="m264.421875 180-4.871094-2.8125v5.625zm0 0"/><path d="m264.421875 174.375-4.871094-2.8125v5.625zm0 0"/><path d="m264.421875 168.753906-4.871094-2.8125v5.621094zm0 0"/><path d="m264.421875 163.128906-4.871094-2.8125v5.625zm0 0"/><path d="m264.421875 157.503906-4.871094-2.8125v5.625zm0 0"/><path d="m264.421875 151.878906-4.871094-2.8125v5.625zm0 0"/><path d="m264.421875 146.257812-4.871094-2.8125v5.621094zm0 0"/><path d="m264.421875 135.007812-4.871094-2.8125v5.625zm0 0"/><path d="m259.550781 132.195312-4.871093-2.8125v5.625zm0 0"/><path d="m244.941406 123.761719-4.871094-2.8125v5.625zm0 0"/><path d="m240.070312 120.949219-4.871093-2.8125v5.625zm0 0"/><path d="m220.585938 109.699219-4.867188-2.8125v5.625zm0 0"/><path d="m215.71875 106.886719-4.871094-2.808594v5.621094zm0 0"/><path d="m210.847656 104.078125-4.871094-2.8125v5.621094zm0 0"/><path d="m196.234375 95.640625-4.871094-2.8125v5.625zm0 0"/><path d="m186.492188 90.015625-4.867188-2.8125v5.625zm0 0"/><path d="m181.625 87.203125-4.871094-2.808594v5.621094zm0 0"/><path d="m152.402344 104.078125-4.871094-2.8125v5.621094zm0 0"/><path d="m147.53125 106.886719-4.871094-2.808594v5.621094zm0 0"/><path d="m142.660156 109.699219-4.871094-2.8125v5.625zm0 0"/><path d="m157.269531 258.734375-4.867187-2.8125v5.625zm0 0"/><path d="m162.140625 261.546875-4.871094-2.8125v5.625zm0 0"/><path d="m215.71875 253.113281-4.871094-2.8125v5.621094zm0 0"/><path d="m220.585938 250.300781-4.867188-2.8125v5.625zm0 0"/><path d="m225.457031 247.488281-4.871093-2.8125v5.625zm0 0"/><path d="m230.328125 244.675781-4.871094-2.8125v5.625zm0 0"/><path d="m240.070312 239.050781-4.871093-2.8125v5.625zm0 0"/><path d="m244.941406 236.238281-4.871094-2.8125v5.625zm0 0"/><path d="m249.808594 233.425781-4.867188-2.808593v5.621093zm0 0"/><path d="m254.679688 230.617188-4.871094-2.8125v5.621093zm0 0"/><path d="m259.550781 227.804688-4.871093-2.8125v5.625zm0 0"/><path d="m269.292969 222.179688-4.871094-2.8125v5.625zm0 0"/><path d="m269.292969 216.554688-4.871094-2.8125v5.625zm0 0"/><path d="m269.292969 199.683594-4.871094-2.8125v5.625zm0 0"/><path d="m269.292969 165.941406-4.871094-2.8125v5.625zm0 0"/><path d="m269.292969 154.691406-4.871094-2.8125v5.625zm0 0"/><path d="m269.292969 149.066406-4.871094-2.808594v5.621094zm0 0"/><path d="m269.292969 143.445312-4.871094-2.8125v5.625zm0 0"/><path d="m269.292969 137.820312-4.871094-2.8125v5.625zm0 0"/><path d="m225.457031 106.886719-4.871093-2.808594v5.621094zm0 0"/><path d="m220.585938 104.078125-4.867188-2.8125v5.621094zm0 0"/><path d="m201.105469 92.828125-4.871094-2.8125v5.625zm0 0"/><path d="m196.234375 90.015625-4.871094-2.8125v5.625zm0 0"/><path d="m186.492188 84.394531-4.867188-2.8125v5.621094zm0 0"/><path d="m181.625 81.582031-4.871094-2.8125v5.625zm0 0"/><path d="m152.402344 98.453125-4.871094-2.8125v5.625zm0 0"/><path d="m142.660156 104.078125-4.871094-2.8125v5.621094zm0 0"/><path d="m215.71875 258.734375-4.871094-2.8125v5.625zm0 0"/><path d="m220.585938 255.921875-4.867188-2.808594v5.621094zm0 0"/><path d="m225.457031 253.113281-4.871093-2.8125v5.621094zm0 0"/><path d="m230.328125 250.300781-4.871094-2.8125v5.625zm0 0"/><path d="m249.808594 239.050781-4.867188-2.8125v5.625zm0 0"/><path d="m259.550781 233.425781-4.871093-2.808593v5.621093zm0 0"/><path d="m264.421875 230.617188-4.871094-2.8125v5.621093zm0 0"/><path d="m274.164062 213.742188-4.871093-2.808594v5.621094zm0 0"/><path d="m274.164062 180-4.871093-2.8125v5.625zm0 0"/><path d="m274.164062 174.375-4.871093-2.8125v5.625zm0 0"/><path d="m274.164062 163.128906-4.871093-2.8125v5.625zm0 0"/><path d="m274.164062 157.503906-4.871093-2.8125v5.625zm0 0"/><path d="m274.164062 151.878906-4.871093-2.8125v5.625zm0 0"/><path d="m274.164062 140.632812-4.871093-2.8125v5.625zm0 0"/><path d="m147.53125 95.640625-4.871094-2.8125v5.625zm0 0"/><path d="m215.71875 264.359375-4.871094-2.8125v5.625zm0 0"/><path d="m225.457031 258.734375-4.871093-2.8125v5.625zm0 0"/><path d="m279.035156 216.554688-4.871094-2.8125v5.625zm0 0"/><path d="m279.035156 210.933594-4.871094-2.8125v5.621094zm0 0"/><path d="m279.035156 165.941406-4.871094-2.8125v5.625zm0 0"/><path d="m279.035156 160.316406-4.871094-2.8125v5.625zm0 0"/><path d="m279.035156 154.691406-4.871094-2.8125v5.625zm0 0"/><path d="m279.035156 149.066406-4.871094-2.808594v5.621094zm0 0"/><path d="m283.902344 219.367188-4.867188-2.8125v5.625zm0 0"/><path d="m283.902344 202.496094-4.867188-2.8125v5.625zm0 0"/><path d="m283.902344 196.871094-4.867188-2.8125v5.625zm0 0"/><path d="m283.902344 191.246094-4.867188-2.808594v5.621094zm0 0"/><path d="m283.902344 174.375-4.867188-2.8125v5.625zm0 0"/><path d="m283.902344 163.128906-4.867188-2.8125v5.625zm0 0"/><path d="m283.902344 157.503906-4.867188-2.8125v5.625zm0 0"/><path d="m283.902344 146.257812-4.867188-2.8125v5.621094zm0 0"/><path d="m288.773438 216.554688-4.871094-2.8125v5.625zm0 0"/><path d="m288.773438 205.308594-4.871094-2.8125v5.625zm0 0"/><path d="m288.773438 199.683594-4.871094-2.8125v5.625zm0 0"/><path d="m288.773438 194.058594-4.871094-2.8125v5.625zm0 0"/><path d="m288.773438 165.941406-4.871094-2.8125v5.625zm0 0"/><path d="m288.773438 160.316406-4.871094-2.8125v5.625zm0 0"/><path d="m288.773438 149.066406-4.871094-2.808594v5.621094zm0 0"/><path d="m293.644531 202.496094-4.871093-2.8125v5.625zm0 0"/><path d="m293.644531 196.871094-4.871093-2.8125v5.625zm0 0"/><path d="m293.644531 191.246094-4.871093-2.808594v5.621094zm0 0"/><path d="m293.644531 185.625-4.871093-2.8125v5.625zm0 0"/><path d="m293.644531 180-4.871093-2.8125v5.625zm0 0"/><path d="m293.644531 174.375-4.871093-2.8125v5.625zm0 0"/><path d="m293.644531 168.753906-4.871093-2.8125v5.621094zm0 0"/><path d="m293.644531 163.128906-4.871093-2.8125v5.625zm0 0"/><path d="m293.644531 157.503906-4.871093-2.8125v5.625zm0 0"/><path d="m293.644531 146.257812-4.871093-2.8125v5.621094zm0 0"/><path d="m298.515625 194.058594-4.871094-2.8125v5.625zm0 0"/><path d="m298.515625 188.4375-4.871094-2.8125v5.621094zm0 0"/><path d="m298.515625 165.941406-4.871094-2.8125v5.625zm0 0"/><path d="m298.515625 160.316406-4.871094-2.8125v5.625zm0 0"/><path d="m298.515625 143.445312-4.871094-2.8125v5.625zm0 0"/><path d="m303.386719 196.871094-4.871094-2.8125v5.625zm0 0"/><path d="m303.386719 191.246094-4.871094-2.808594v5.621094zm0 0"/><path d="m303.386719 180-4.871094-2.8125v5.625zm0 0"/><path d="m303.386719 168.753906-4.871094-2.8125v5.621094zm0 0"/><path d="m303.386719 157.503906-4.871094-2.8125v5.625zm0 0"/><path d="m303.386719 146.257812-4.871094-2.8125v5.621094zm0 0"/><path d="m308.257812 194.058594-4.871093-2.8125v5.625zm0 0"/><path d="m308.257812 188.4375-4.871093-2.8125v5.621094zm0 0"/><path d="m308.257812 182.8125-4.871093-2.8125v5.625zm0 0"/><path d="m308.257812 171.5625-4.871093-2.808594v5.621094zm0 0"/><path d="m308.257812 165.941406-4.871093-2.8125v5.625zm0 0"/><path d="m308.257812 154.691406-4.871093-2.8125v5.625zm0 0"/><path d="m308.257812 149.066406-4.871093-2.808594v5.621094zm0 0"/><path d="m313.125 163.128906-4.867188-2.8125v5.625zm0 0"/><path d="m313.125 157.503906-4.867188-2.8125v5.625zm0 0"/><path d="m317.996094 165.941406-4.871094-2.8125v5.625zm0 0"/><path d="m317.996094 154.691406-4.871094-2.8125v5.625zm0 0"/></g></svg>