<svg height="360pt" viewBox="0 0 360 360" width="360pt" xmlns="http://www.w3.org/2000/svg"><path d="m0 0h360v360h-360z" fill="#800080"/><g fill="#fff"><path d="m175.386719 180 6.921875-3.996094v7.992188zm0 0"/><path d="m182.308594 176.003906 6.921875-3.996094v7.992188zm0 0"/><path d="m168.464844 176.003906 6.921875-3.996094v7.992188zm0 0"/><path d="m168.464844 183.996094 6.921875-3.996094v7.992188zm0 0"/><path d="m189.230469 187.992188 6.921875-3.996094v7.992187zm0 0"/><path d="m189.230469 172.007812 6.921875-3.996093v7.992187zm0 0"/><path d="m161.542969 172.007812 6.921875-3.996093v7.992187zm0 0"/><path d="m161.542969 187.992188 6.921875-3.996094v7.992187zm0 0"/><path d="m175.386719 195.984375 6.921875-3.996094v7.992188zm0 0"/><path d="m196.152344 183.996094 6.921875-3.996094v7.992188zm0 0"/><path d="m196.152344 176.003906 6.921875-3.996094v7.992188zm0 0"/><path d="m196.152344 168.011719 6.921875-3.996094v7.992187zm0 0"/><path d="m189.230469 164.015625 6.921875-3.996094v7.992188zm0 0"/><path d="m182.308594 160.019531 6.921875-3.996093v7.992187zm0 0"/><path d="m175.386719 156.023438 6.921875-4v7.996093zm0 0"/><path d="m168.464844 160.019531 6.921875-3.996093v7.992187zm0 0"/><path d="m161.542969 164.015625 6.921875-3.996094v7.992188zm0 0"/><path d="m154.621094 168.011719 6.921875-3.996094v7.992187zm0 0"/><path d="m154.621094 176.003906 6.921875-3.996094v7.992188zm0 0"/><path d="m154.621094 183.996094 6.921875-3.996094v7.992188zm0 0"/><path d="m154.621094 191.988281 6.921875-3.996093v7.992187zm0 0"/><path d="m161.542969 195.984375 6.921875-3.996094v7.992188zm0 0"/><path d="m168.464844 199.980469 6.921875-3.996094v7.992187zm0 0"/><path d="m182.308594 199.980469 6.921875-3.996094v7.992187zm0 0"/><path d="m189.230469 195.984375 6.921875-3.996094v7.992188zm0 0"/><path d="m203.074219 180 6.921875-3.996094v7.992188zm0 0"/><path d="m203.074219 172.007812 6.921875-3.996093v7.992187zm0 0"/><path d="m203.074219 164.015625 6.921875-3.996094v7.992188zm0 0"/><path d="m189.230469 156.023438 6.921875-4v7.996093zm0 0"/><path d="m175.386719 148.027344 6.921875-3.996094v7.992188zm0 0"/><path d="m168.464844 152.023438 6.921875-3.996094v7.996094zm0 0"/><path d="m161.542969 156.023438 6.921875-4v7.996093zm0 0"/><path d="m154.621094 160.019531 6.921875-3.996093v7.992187zm0 0"/><path d="m147.699219 180 6.921875-3.996094v7.992188zm0 0"/><path d="m147.699219 187.992188 6.921875-3.996094v7.992187zm0 0"/><path d="m161.542969 203.976562 6.921875-3.996093v7.996093zm0 0"/><path d="m175.386719 211.972656 6.921875-3.996094v7.992188zm0 0"/><path d="m182.308594 207.976562 6.921875-4v7.996094zm0 0"/><path d="m209.996094 176.003906 6.921875-3.996094v7.992188zm0 0"/><path d="m209.996094 168.011719 6.921875-3.996094v7.992187zm0 0"/><path d="m203.074219 156.023438 6.921875-4v7.996093zm0 0"/><path d="m189.230469 148.027344 6.921875-3.996094v7.992188zm0 0"/><path d="m182.308594 144.03125 6.921875-3.996094v7.992188zm0 0"/><path d="m175.386719 140.035156 6.921875-3.996094v7.992188zm0 0"/><path d="m161.542969 148.027344 6.921875-3.996094v7.992188zm0 0"/><path d="m147.699219 156.023438 6.921875-4v7.996093zm0 0"/><path d="m140.777344 168.011719 6.921875-3.996094v7.992187zm0 0"/><path d="m140.777344 183.996094 6.921875-3.996094v7.992188zm0 0"/><path d="m168.464844 215.96875 6.921875-3.996094v7.992188zm0 0"/><path d="m175.386719 219.964844 6.921875-3.996094v7.992188zm0 0"/><path d="m182.308594 215.96875 6.921875-3.996094v7.992188zm0 0"/><path d="m189.230469 211.972656 6.921875-3.996094v7.992188zm0 0"/><path d="m203.074219 203.976562 6.921875-3.996093v7.996093zm0 0"/><path d="m216.917969 180 6.921875-3.996094v7.992188zm0 0"/><path d="m216.917969 172.007812 6.921875-3.996093v7.992187zm0 0"/><path d="m216.917969 164.015625 6.921875-3.996094v7.992188zm0 0"/><path d="m203.074219 148.027344 6.921875-3.996094v7.992188zm0 0"/><path d="m196.152344 144.03125 6.921875-3.996094v7.992188zm0 0"/><path d="m182.308594 136.039062 6.921875-3.996093v7.992187zm0 0"/><path d="m175.386719 132.042969 6.921875-3.996094v7.992187zm0 0"/><path d="m168.464844 136.039062 6.921875-3.996093v7.992187zm0 0"/><path d="m154.621094 144.03125 6.921875-3.996094v7.992188zm0 0"/><path d="m147.699219 148.027344 6.921875-3.996094v7.992188zm0 0"/><path d="m140.777344 152.023438 6.921875-3.996094v7.996094zm0 0"/><path d="m133.855469 156.023438 6.921875-4v7.996093zm0 0"/><path d="m133.855469 164.015625 6.921875-3.996094v7.992188zm0 0"/><path d="m133.855469 172.007812 6.921875-3.996093v7.992187zm0 0"/><path d="m140.777344 207.976562 6.921875-4v7.996094zm0 0"/><path d="m154.621094 215.96875 6.921875-3.996094v7.992188zm0 0"/><path d="m161.542969 219.964844 6.921875-3.996094v7.992188zm0 0"/><path d="m175.386719 227.957031 6.921875-3.996093v7.992187zm0 0"/><path d="m182.308594 223.960938 6.921875-3.996094v7.992187zm0 0"/><path d="m196.152344 215.96875 6.921875-3.996094v7.992188zm0 0"/><path d="m209.996094 207.976562 6.921875-4v7.996094zm0 0"/><path d="m223.839844 207.976562 6.921875-4v7.996094zm0 0"/><path d="m223.839844 176.003906 6.921875-3.996094v7.992188zm0 0"/><path d="m223.839844 160.019531 6.921875-3.996093v7.992187zm0 0"/><path d="m223.839844 152.023438 6.921875-3.996094v7.996094zm0 0"/><path d="m216.917969 148.027344 6.921875-3.996094v7.992188zm0 0"/><path d="m209.996094 144.03125 6.921875-3.996094v7.992188zm0 0"/><path d="m203.074219 140.035156 6.921875-3.996094v7.992188zm0 0"/><path d="m175.386719 124.050781 6.921875-3.996093v7.992187zm0 0"/><path d="m168.464844 128.046875 6.921875-3.996094v7.992188zm0 0"/><path d="m154.621094 136.039062 6.921875-3.996093v7.992187zm0 0"/><path d="m140.777344 144.03125 6.921875-3.996094v7.992188zm0 0"/><path d="m133.855469 148.027344 6.921875-3.996094v7.992188zm0 0"/><path d="m126.929688 152.023438 6.925781-3.996094v7.996094zm0 0"/><path d="m126.929688 160.019531 6.925781-3.996093v7.992187zm0 0"/><path d="m126.929688 168.011719 6.925781-3.996094v7.992187zm0 0"/><path d="m133.855469 211.972656 6.921875-3.996094v7.992188zm0 0"/><path d="m140.777344 215.96875 6.921875-3.996094v7.992188zm0 0"/><path d="m147.699219 219.964844 6.921875-3.996094v7.992188zm0 0"/><path d="m154.621094 223.960938 6.921875-3.996094v7.992187zm0 0"/><path d="m168.464844 231.953125 6.921875-3.996094v7.992188zm0 0"/><path d="m182.308594 231.953125 6.921875-3.996094v7.992188zm0 0"/><path d="m209.996094 215.96875 6.921875-3.996094v7.992188zm0 0"/><path d="m216.917969 211.972656 6.921875-3.996094v7.992188zm0 0"/><path d="m230.761719 187.992188 6.921875-3.996094v7.992187zm0 0"/><path d="m230.761719 180 6.921875-3.996094v7.992188zm0 0"/><path d="m230.761719 172.007812 6.921875-3.996093v7.992187zm0 0"/><path d="m230.761719 164.015625 6.921875-3.996094v7.992188zm0 0"/><path d="m230.761719 156.023438 6.921875-4v7.996093zm0 0"/><path d="m230.761719 148.027344 6.921875-3.996094v7.992188zm0 0"/><path d="m223.839844 144.03125 6.921875-3.996094v7.992188zm0 0"/><path d="m216.917969 140.035156 6.921875-3.996094v7.992188zm0 0"/><path d="m209.996094 136.039062 6.921875-3.996093v7.992187zm0 0"/><path d="m203.074219 132.042969 6.921875-3.996094v7.992187zm0 0"/><path d="m168.464844 120.054688 6.921875-3.996094v7.992187zm0 0"/><path d="m161.542969 124.050781 6.921875-3.996093v7.992187zm0 0"/><path d="m154.621094 128.046875 6.921875-3.996094v7.992188zm0 0"/><path d="m147.699219 132.042969 6.921875-3.996094v7.992187zm0 0"/><path d="m120.007812 164.015625 6.921876-3.996094v7.992188zm0 0"/><path d="m147.699219 227.957031 6.921875-3.996093v7.992187zm0 0"/><path d="m161.542969 235.949219 6.921875-3.996094v7.992187zm0 0"/><path d="m168.464844 239.945312 6.921875-3.996093v7.992187zm0 0"/><path d="m182.308594 239.945312 6.921875-3.996093v7.992187zm0 0"/><path d="m189.230469 235.949219 6.921875-3.996094v7.992187zm0 0"/><path d="m196.152344 231.953125 6.921875-3.996094v7.992188zm0 0"/><path d="m203.074219 227.957031 6.921875-3.996093v7.992187zm0 0"/><path d="m209.996094 223.960938 6.921875-3.996094v7.992187zm0 0"/><path d="m223.839844 215.96875 6.921875-3.996094v7.992188zm0 0"/><path d="m237.683594 191.988281 6.921875-3.996093v7.992187zm0 0"/><path d="m237.683594 168.011719 6.921875-3.996094v7.992187zm0 0"/><path d="m237.683594 160.019531 6.921875-3.996093v7.992187zm0 0"/><path d="m237.683594 144.03125 6.921875-3.996094v7.992188zm0 0"/><path d="m230.761719 140.035156 6.921875-3.996094v7.992188zm0 0"/><path d="m223.839844 136.039062 6.921875-3.996093v7.992187zm0 0"/><path d="m216.917969 132.042969 6.921875-3.996094v7.992187zm0 0"/><path d="m209.996094 128.046875 6.921875-3.996094v7.992188zm0 0"/><path d="m182.308594 112.0625 6.921875-3.996094v7.992188zm0 0"/><path d="m175.386719 108.066406 6.921875-3.996094v7.992188zm0 0"/><path d="m168.464844 112.0625 6.921875-3.996094v7.992188zm0 0"/><path d="m154.621094 120.054688 6.921875-3.996094v7.992187zm0 0"/><path d="m147.699219 124.050781 6.921875-3.996093v7.992187zm0 0"/><path d="m140.777344 128.046875 6.921875-3.996094v7.992188zm0 0"/><path d="m133.855469 132.042969 6.921875-3.996094v7.992187zm0 0"/><path d="m147.699219 235.949219 6.921875-3.996094v7.992187zm0 0"/><path d="m154.621094 239.945312 6.921875-3.996093v7.992187zm0 0"/><path d="m168.464844 247.9375 6.921875-3.996094v7.992188zm0 0"/><path d="m175.386719 251.933594 6.921875-3.996094v7.992188zm0 0"/><path d="m182.308594 247.9375 6.921875-3.996094v7.992188zm0 0"/><path d="m203.074219 235.949219 6.921875-3.996094v7.992187zm0 0"/><path d="m209.996094 231.953125 6.921875-3.996094v7.992188zm0 0"/><path d="m216.917969 227.957031 6.921875-3.996093v7.992187zm0 0"/><path d="m223.839844 223.960938 6.921875-3.996094v7.992187zm0 0"/><path d="m230.761719 219.964844 6.921875-3.996094v7.992188zm0 0"/><path d="m244.605469 203.976562 6.921875-3.996093v7.996093zm0 0"/><path d="m244.605469 195.984375 6.921875-3.996094v7.992188zm0 0"/><path d="m244.605469 187.992188 6.921875-3.996094v7.992187zm0 0"/><path d="m244.605469 172.007812 6.921875-3.996093v7.992187zm0 0"/><path d="m244.605469 148.027344 6.921875-3.996094v7.992188zm0 0"/><path d="m230.761719 132.042969 6.921875-3.996094v7.992187zm0 0"/><path d="m223.839844 128.046875 6.921875-3.996094v7.992188zm0 0"/><path d="m216.917969 124.050781 6.921875-3.996093v7.992187zm0 0"/><path d="m209.996094 120.054688 6.921875-3.996094v7.992187zm0 0"/><path d="m203.074219 116.058594 6.921875-3.996094v7.992188zm0 0"/><path d="m196.152344 112.0625 6.921875-3.996094v7.992188zm0 0"/><path d="m182.308594 104.070312 6.921875-4v7.996094zm0 0"/><path d="m175.386719 100.070312 6.921875-3.996093v7.996093zm0 0"/><path d="m154.621094 112.0625 6.921875-3.996094v7.992188zm0 0"/><path d="m147.699219 116.058594 6.921875-3.996094v7.992188zm0 0"/><path d="m140.777344 120.054688 6.921875-3.996094v7.992187zm0 0"/><path d="m133.855469 124.050781 6.921875-3.996093v7.992187zm0 0"/><path d="m126.929688 128.046875 6.925781-3.996094v7.992188zm0 0"/><path d="m133.855469 235.949219 6.921875-3.996094v7.992187zm0 0"/><path d="m140.777344 239.945312 6.921875-3.996093v7.992187zm0 0"/><path d="m161.542969 251.933594 6.921875-3.996094v7.992188zm0 0"/><path d="m175.386719 259.929688 6.921875-4v7.996093zm0 0"/><path d="m216.917969 235.949219 6.921875-3.996094v7.992187zm0 0"/><path d="m223.839844 231.953125 6.921875-3.996094v7.992188zm0 0"/><path d="m230.761719 227.957031 6.921875-3.996093v7.992187zm0 0"/><path d="m251.527344 207.976562 6.921875-4v7.996094zm0 0"/><path d="m251.527344 199.980469 6.921875-3.996094v7.992187zm0 0"/><path d="m251.527344 183.996094 6.921875-3.996094v7.992188zm0 0"/><path d="m251.527344 176.003906 6.921875-3.996094v7.992188zm0 0"/><path d="m251.527344 168.011719 6.921875-3.996094v7.992187zm0 0"/><path d="m251.527344 160.019531 6.921875-3.996093v7.992187zm0 0"/><path d="m251.527344 152.023438 6.921875-3.996094v7.996094zm0 0"/><path d="m237.683594 128.046875 6.921875-3.996094v7.992188zm0 0"/><path d="m223.839844 120.054688 6.921875-3.996094v7.992187zm0 0"/><path d="m216.917969 116.058594 6.921875-3.996094v7.992188zm0 0"/><path d="m209.996094 112.0625 6.921875-3.996094v7.992188zm0 0"/><path d="m203.074219 108.066406 6.921875-3.996094v7.992188zm0 0"/><path d="m196.152344 104.070312 6.921875-4v7.996094zm0 0"/><path d="m189.230469 100.070312 6.921875-3.996093v7.996093zm0 0"/><path d="m182.308594 96.074219 6.921875-3.996094v7.992187zm0 0"/><path d="m175.386719 92.078125 6.921875-3.996094v7.992188zm0 0"/><path d="m168.464844 96.074219 6.921875-3.996094v7.992187zm0 0"/><path d="m154.621094 104.070312 6.921875-4v7.996094zm0 0"/><path d="m147.699219 108.066406 6.921875-3.996094v7.992188zm0 0"/><path d="m140.777344 112.0625 6.921875-3.996094v7.992188zm0 0"/><path d="m133.855469 116.058594 6.921875-3.996094v7.992188zm0 0"/><path d="m126.929688 120.054688 6.925781-3.996094v7.992187zm0 0"/><path d="m133.855469 243.941406 6.921875-3.996094v7.992188zm0 0"/><path d="m140.777344 247.9375 6.921875-3.996094v7.992188zm0 0"/><path d="m154.621094 255.929688 6.921875-3.996094v7.996094zm0 0"/><path d="m161.542969 259.929688 6.921875-4v7.996093zm0 0"/><path d="m182.308594 263.925781 6.921875-3.996093v7.992187zm0 0"/><path d="m209.996094 247.9375 6.921875-3.996094v7.992188zm0 0"/><path d="m258.449219 203.976562 6.921875-3.996093v7.996093zm0 0"/><path d="m258.449219 172.007812 6.921875-3.996093v7.992187zm0 0"/><path d="m258.449219 164.015625 6.921875-3.996094v7.992188zm0 0"/><path d="m258.449219 148.027344 6.921875-3.996094v7.992188zm0 0"/><path d="m258.449219 140.035156 6.921875-3.996094v7.992188zm0 0"/><path d="m223.839844 112.0625 6.921875-3.996094v7.992188zm0 0"/><path d="m209.996094 104.070312 6.921875-4v7.996094zm0 0"/><path d="m203.074219 100.070312 6.921875-3.996093v7.996093zm0 0"/><path d="m196.152344 96.074219 6.921875-3.996094v7.992187zm0 0"/><path d="m189.230469 92.078125 6.921875-3.996094v7.992188zm0 0"/><path d="m175.386719 84.085938 6.921875-3.996094v7.992187zm0 0"/><path d="m147.699219 100.070312 6.921875-3.996093v7.996093zm0 0"/><path d="m140.777344 255.929688 6.921875-3.996094v7.996094zm0 0"/><path d="m147.699219 259.929688 6.921875-4v7.996093zm0 0"/><path d="m265.371094 215.96875 6.921875-3.996094v7.992188zm0 0"/><path d="m265.371094 207.976562 6.921875-4v7.996094zm0 0"/><path d="m265.371094 183.996094 6.921875-3.996094v7.992188zm0 0"/><path d="m265.371094 176.003906 6.921875-3.996094v7.992188zm0 0"/><path d="m265.371094 168.011719 6.921875-3.996094v7.992187zm0 0"/><path d="m265.371094 152.023438 6.921875-3.996094v7.996094zm0 0"/><path d="m265.371094 144.03125 6.921875-3.996094v7.992188zm0 0"/><path d="m209.996094 96.074219 6.921875-3.996094v7.992187zm0 0"/><path d="m203.074219 92.078125 6.921875-3.996094v7.992188zm0 0"/><path d="m196.152344 88.082031 6.921875-3.996093v7.992187zm0 0"/><path d="m182.308594 80.089844 6.921875-3.996094v7.992188zm0 0"/><path d="m154.621094 88.082031 6.921875-3.996093v7.992187zm0 0"/><path d="m147.699219 92.078125 6.921875-3.996094v7.992188zm0 0"/><path d="m126.929688 255.929688 6.925781-3.996094v7.996094zm0 0"/><path d="m140.777344 263.925781 6.921875-3.996093v7.992187zm0 0"/><path d="m272.292969 195.984375 6.921875-3.996094v7.992188zm0 0"/><path d="m272.292969 187.992188 6.921875-3.996094v7.992187zm0 0"/><path d="m272.292969 180 6.921875-3.996094v7.992188zm0 0"/><path d="m209.996094 88.082031 6.921875-3.996093v7.992187zm0 0"/><path d="m203.074219 84.085938 6.921875-3.996094v7.992187zm0 0"/><path d="m196.152344 80.089844 6.921875-3.996094v7.992188zm0 0"/><path d="m189.230469 76.09375 6.921875-3.996094v7.992188zm0 0"/><path d="m182.308594 72.097656 6.921875-3.996094v7.992188zm0 0"/><path d="m279.214844 199.980469 6.921875-3.996094v7.992187zm0 0"/><path d="m279.214844 191.988281 6.921875-3.996093v7.992187zm0 0"/><path d="m279.214844 168.011719 6.921875-3.996094v7.992187zm0 0"/><path d="m209.996094 80.089844 6.921875-3.996094v7.992188zm0 0"/><path d="m203.074219 76.09375 6.921875-3.996094v7.992188zm0 0"/><path d="m189.230469 68.101562 6.921875-3.996093v7.992187zm0 0"/><path d="m286.136719 203.976562 6.921875-3.996093v7.996093zm0 0"/><path d="m286.136719 187.992188 6.921875-3.996094v7.992187zm0 0"/><path d="m209.996094 72.097656 6.921875-3.996094v7.992188zm0 0"/><path d="m293.058594 199.980469 6.921875-3.996094v7.992187zm0 0"/><path d="m293.058594 183.996094 6.921875-3.996094v7.992188zm0 0"/><path d="m189.230469 180-6.921875-3.996094v7.992188zm0 0"/><path d="m182.308594 183.996094-6.921875-3.996094v7.992188zm0 0"/><path d="m196.152344 183.996094-6.921875-3.996094v7.992188zm0 0"/><path d="m196.152344 176.003906-6.921875-3.996094v7.992188zm0 0"/><path d="m175.386719 172.007812-6.921875-3.996093v7.992187zm0 0"/><path d="m175.386719 180-6.921875-3.996094v7.992188zm0 0"/><path d="m182.308594 191.988281-6.921875-3.996093v7.992187zm0 0"/><path d="m203.074219 180-6.921875-3.996094v7.992188zm0 0"/><path d="m203.074219 172.007812-6.921875-3.996093v7.992187zm0 0"/><path d="m196.152344 168.011719-6.921875-3.996094v7.992187zm0 0"/><path d="m189.230469 164.015625-6.921875-3.996094v7.992188zm0 0"/><path d="m175.386719 164.015625-6.921875-3.996094v7.992188zm0 0"/><path d="m168.464844 168.011719-6.921875-3.996094v7.992187zm0 0"/><path d="m168.464844 176.003906-6.921875-3.996094v7.992188zm0 0"/><path d="m168.464844 183.996094-6.921875-3.996094v7.992188zm0 0"/><path d="m168.464844 191.988281-6.921875-3.996093v7.992187zm0 0"/><path d="m189.230469 195.984375-6.921875-3.996094v7.992188zm0 0"/><path d="m196.152344 191.988281-6.921875-3.996093v7.992187zm0 0"/><path d="m209.996094 183.996094-6.921875-3.996094v7.992188zm0 0"/><path d="m203.074219 164.015625-6.921875-3.996094v7.992188zm0 0"/><path d="m196.152344 160.019531-6.921875-3.996093v7.992187zm0 0"/><path d="m175.386719 156.023438-6.921875-4v7.996093zm0 0"/><path d="m168.464844 160.019531-6.921875-3.996093v7.992187zm0 0"/><path d="m161.542969 172.007812-6.921875-3.996093v7.992187zm0 0"/><path d="m161.542969 180-6.921875-3.996094v7.992188zm0 0"/><path d="m161.542969 187.992188-6.921875-3.996094v7.992187zm0 0"/><path d="m161.542969 195.984375-6.921875-3.996094v7.992188zm0 0"/><path d="m168.464844 199.980469-6.921875-3.996094v7.992187zm0 0"/><path d="m182.308594 207.976562-6.921875-4v7.996094zm0 0"/><path d="m189.230469 203.976562-6.921875-3.996093v7.996093zm0 0"/><path d="m196.152344 199.980469-6.921875-3.996094v7.992187zm0 0"/><path d="m203.074219 195.984375-6.921875-3.996094v7.992188zm0 0"/><path d="m216.917969 180-6.921875-3.996094v7.992188zm0 0"/><path d="m216.917969 164.015625-6.921875-3.996094v7.992188zm0 0"/><path d="m209.996094 160.019531-6.921875-3.996093v7.992187zm0 0"/><path d="m203.074219 156.023438-6.921875-4v7.996093zm0 0"/><path d="m196.152344 152.023438-6.921875-3.996094v7.996094zm0 0"/><path d="m189.230469 148.027344-6.921875-3.996094v7.992188zm0 0"/><path d="m182.308594 144.03125-6.921875-3.996094v7.992188zm0 0"/><path d="m175.386719 148.027344-6.921875-3.996094v7.992188zm0 0"/><path d="m154.621094 176.003906-6.921875-3.996094v7.992188zm0 0"/><path d="m154.621094 183.996094-6.921875-3.996094v7.992188zm0 0"/><path d="m175.386719 211.972656-6.921875-3.996094v7.992188zm0 0"/><path d="m182.308594 215.96875-6.921875-3.996094v7.992188zm0 0"/><path d="m189.230469 211.972656-6.921875-3.996094v7.992188zm0 0"/><path d="m203.074219 203.976562-6.921875-3.996093v7.996093zm0 0"/><path d="m223.839844 199.980469-6.921875-3.996094v7.992187zm0 0"/><path d="m223.839844 191.988281-6.921875-3.996093v7.992187zm0 0"/><path d="m223.839844 183.996094-6.921875-3.996094v7.992188zm0 0"/><path d="m223.839844 176.003906-6.921875-3.996094v7.992188zm0 0"/><path d="m223.839844 160.019531-6.921875-3.996093v7.992187zm0 0"/><path d="m216.917969 156.023438-6.921875-4v7.996093zm0 0"/><path d="m209.996094 152.023438-6.921875-3.996094v7.996094zm0 0"/><path d="m203.074219 148.027344-6.921875-3.996094v7.992188zm0 0"/><path d="m196.152344 144.03125-6.921875-3.996094v7.992188zm0 0"/><path d="m182.308594 136.039062-6.921875-3.996093v7.992187zm0 0"/><path d="m175.386719 140.035156-6.921875-3.996094v7.992188zm0 0"/><path d="m168.464844 144.03125-6.921875-3.996094v7.992188zm0 0"/><path d="m154.621094 152.023438-6.921875-3.996094v7.996094zm0 0"/><path d="m147.699219 156.023438-6.921875-4v7.996093zm0 0"/><path d="m147.699219 164.015625-6.921875-3.996094v7.992188zm0 0"/><path d="m175.386719 219.964844-6.921875-3.996094v7.992188zm0 0"/><path d="m182.308594 223.960938-6.921875-3.996094v7.992187zm0 0"/><path d="m189.230469 219.964844-6.921875-3.996094v7.992188zm0 0"/><path d="m196.152344 215.96875-6.921875-3.996094v7.992188zm0 0"/><path d="m203.074219 211.972656-6.921875-3.996094v7.992188zm0 0"/><path d="m209.996094 207.976562-6.921875-4v7.996094zm0 0"/><path d="m230.761719 203.976562-6.921875-3.996093v7.996093zm0 0"/><path d="m230.761719 195.984375-6.921875-3.996094v7.992188zm0 0"/><path d="m230.761719 172.007812-6.921875-3.996093v7.992187zm0 0"/><path d="m230.761719 164.015625-6.921875-3.996094v7.992188zm0 0"/><path d="m230.761719 156.023438-6.921875-4v7.996093zm0 0"/><path d="m223.839844 152.023438-6.921875-3.996094v7.996094zm0 0"/><path d="m196.152344 136.039062-6.921875-3.996093v7.992187zm0 0"/><path d="m182.308594 128.046875-6.921875-3.996094v7.992188zm0 0"/><path d="m175.386719 132.042969-6.921875-3.996094v7.992187zm0 0"/><path d="m161.542969 140.035156-6.921875-3.996094v7.992188zm0 0"/><path d="m154.621094 144.03125-6.921875-3.996094v7.992188zm0 0"/><path d="m147.699219 148.027344-6.921875-3.996094v7.992188zm0 0"/><path d="m140.777344 152.023438-6.921875-3.996094v7.996094zm0 0"/><path d="m140.777344 160.019531-6.921875-3.996093v7.992187zm0 0"/><path d="m140.777344 168.011719-6.921875-3.996094v7.992187zm0 0"/><path d="m147.699219 211.972656-6.921875-3.996094v7.992188zm0 0"/><path d="m154.621094 215.96875-6.921875-3.996094v7.992188zm0 0"/><path d="m168.464844 223.960938-6.921875-3.996094v7.992187zm0 0"/><path d="m182.308594 231.953125-6.921875-3.996094v7.992188zm0 0"/><path d="m189.230469 227.957031-6.921875-3.996093v7.992187zm0 0"/><path d="m203.074219 219.964844-6.921875-3.996094v7.992188zm0 0"/><path d="m209.996094 215.96875-6.921875-3.996094v7.992188zm0 0"/><path d="m216.917969 211.972656-6.921875-3.996094v7.992188zm0 0"/><path d="m237.683594 207.976562-6.921875-4v7.996094zm0 0"/><path d="m237.683594 191.988281-6.921875-3.996093v7.992187zm0 0"/><path d="m237.683594 176.003906-6.921875-3.996094v7.992188zm0 0"/><path d="m237.683594 168.011719-6.921875-3.996094v7.992187zm0 0"/><path d="m237.683594 160.019531-6.921875-3.996093v7.992187zm0 0"/><path d="m237.683594 152.023438-6.921875-3.996094v7.996094zm0 0"/><path d="m230.761719 148.027344-6.921875-3.996094v7.992188zm0 0"/><path d="m223.839844 144.03125-6.921875-3.996094v7.992188zm0 0"/><path d="m216.917969 140.035156-6.921875-3.996094v7.992188zm0 0"/><path d="m209.996094 136.039062-6.921875-3.996093v7.992187zm0 0"/><path d="m203.074219 132.042969-6.921875-3.996094v7.992187zm0 0"/><path d="m189.230469 124.050781-6.921875-3.996093v7.992187zm0 0"/><path d="m161.542969 132.042969-6.921875-3.996094v7.992187zm0 0"/><path d="m140.777344 144.03125-6.921875-3.996094v7.992188zm0 0"/><path d="m133.855469 156.023438-6.925781-4v7.996093zm0 0"/><path d="m133.855469 164.015625-6.925781-3.996094v7.992188zm0 0"/><path d="m133.855469 172.007812-6.925781-3.996093v7.992187zm0 0"/><path d="m154.621094 223.960938-6.921875-3.996094v7.992187zm0 0"/><path d="m168.464844 231.953125-6.921875-3.996094v7.992188zm0 0"/><path d="m175.386719 235.949219-6.921875-3.996094v7.992187zm0 0"/><path d="m189.230469 235.949219-6.921875-3.996094v7.992187zm0 0"/><path d="m196.152344 231.953125-6.921875-3.996094v7.992188zm0 0"/><path d="m216.917969 219.964844-6.921875-3.996094v7.992188zm0 0"/><path d="m230.761719 211.972656-6.921875-3.996094v7.992188zm0 0"/><path d="m244.605469 195.984375-6.921875-3.996094v7.992188zm0 0"/><path d="m244.605469 187.992188-6.921875-3.996094v7.992187zm0 0"/><path d="m244.605469 180-6.921875-3.996094v7.992188zm0 0"/><path d="m244.605469 164.015625-6.921875-3.996094v7.992188zm0 0"/><path d="m244.605469 156.023438-6.921875-4v7.996093zm0 0"/><path d="m244.605469 148.027344-6.921875-3.996094v7.992188zm0 0"/><path d="m237.683594 144.03125-6.921875-3.996094v7.992188zm0 0"/><path d="m230.761719 140.035156-6.921875-3.996094v7.992188zm0 0"/><path d="m223.839844 136.039062-6.921875-3.996093v7.992187zm0 0"/><path d="m216.917969 132.042969-6.921875-3.996094v7.992187zm0 0"/><path d="m209.996094 128.046875-6.921875-3.996094v7.992188zm0 0"/><path d="m203.074219 124.050781-6.921875-3.996093v7.992187zm0 0"/><path d="m189.230469 116.058594-6.921875-3.996094v7.992188zm0 0"/><path d="m168.464844 120.054688-6.921875-3.996094v7.992187zm0 0"/><path d="m161.542969 124.050781-6.921875-3.996093v7.992187zm0 0"/><path d="m154.621094 128.046875-6.921875-3.996094v7.992188zm0 0"/><path d="m147.699219 132.042969-6.921875-3.996094v7.992187zm0 0"/><path d="m147.699219 227.957031-6.921875-3.996093v7.992187zm0 0"/><path d="m154.621094 231.953125-6.921875-3.996094v7.992188zm0 0"/><path d="m161.542969 235.949219-6.921875-3.996094v7.992187zm0 0"/><path d="m175.386719 243.941406-6.921875-3.996094v7.992188zm0 0"/><path d="m189.230469 243.941406-6.921875-3.996094v7.992188zm0 0"/><path d="m216.917969 227.957031-6.921875-3.996093v7.992187zm0 0"/><path d="m237.683594 215.96875-6.921875-3.996094v7.992188zm0 0"/><path d="m251.527344 215.96875-6.921875-3.996094v7.992188zm0 0"/><path d="m251.527344 199.980469-6.921875-3.996094v7.992187zm0 0"/><path d="m251.527344 191.988281-6.921875-3.996093v7.992187zm0 0"/><path d="m251.527344 183.996094-6.921875-3.996094v7.992188zm0 0"/><path d="m251.527344 176.003906-6.921875-3.996094v7.992188zm0 0"/><path d="m251.527344 160.019531-6.921875-3.996093v7.992187zm0 0"/><path d="m251.527344 152.023438-6.921875-3.996094v7.996094zm0 0"/><path d="m251.527344 144.03125-6.921875-3.996094v7.992188zm0 0"/><path d="m244.605469 140.035156-6.921875-3.996094v7.992188zm0 0"/><path d="m237.683594 136.039062-6.921875-3.996093v7.992187zm0 0"/><path d="m230.761719 132.042969-6.921875-3.996094v7.992187zm0 0"/><path d="m223.839844 128.046875-6.921875-3.996094v7.992188zm0 0"/><path d="m203.074219 116.058594-6.921875-3.996094v7.992188zm0 0"/><path d="m196.152344 112.0625-6.921875-3.996094v7.992188zm0 0"/><path d="m189.230469 108.066406-6.921875-3.996094v7.992188zm0 0"/><path d="m161.542969 116.058594-6.921875-3.996094v7.992188zm0 0"/><path d="m154.621094 120.054688-6.921875-3.996094v7.992187zm0 0"/><path d="m147.699219 124.050781-6.921875-3.996093v7.992187zm0 0"/><path d="m140.777344 128.046875-6.921875-3.996094v7.992188zm0 0"/><path d="m147.699219 235.949219-6.921875-3.996094v7.992187zm0 0"/><path d="m154.621094 239.945312-6.921875-3.996093v7.992187zm0 0"/><path d="m161.542969 243.941406-6.921875-3.996094v7.992188zm0 0"/><path d="m182.308594 255.929688-6.921875-3.996094v7.996094zm0 0"/><path d="m189.230469 251.933594-6.921875-3.996094v7.992188zm0 0"/><path d="m196.152344 247.9375-6.921875-3.996094v7.992188zm0 0"/><path d="m209.996094 239.945312-6.921875-3.996093v7.992187zm0 0"/><path d="m216.917969 235.949219-6.921875-3.996094v7.992187zm0 0"/><path d="m223.839844 231.953125-6.921875-3.996094v7.992188zm0 0"/><path d="m230.761719 227.957031-6.921875-3.996093v7.992187zm0 0"/><path d="m237.683594 223.960938-6.921875-3.996094v7.992187zm0 0"/><path d="m258.449219 203.976562-6.921875-3.996093v7.996093zm0 0"/><path d="m258.449219 180-6.921875-3.996094v7.992188zm0 0"/><path d="m258.449219 172.007812-6.921875-3.996093v7.992187zm0 0"/><path d="m258.449219 156.023438-6.921875-4v7.996093zm0 0"/><path d="m258.449219 148.027344-6.921875-3.996094v7.992188zm0 0"/><path d="m258.449219 140.035156-6.921875-3.996094v7.992188zm0 0"/><path d="m251.527344 136.039062-6.921875-3.996093v7.992187zm0 0"/><path d="m244.605469 132.042969-6.921875-3.996094v7.992187zm0 0"/><path d="m223.839844 120.054688-6.921875-3.996094v7.992187zm0 0"/><path d="m216.917969 116.058594-6.921875-3.996094v7.992188zm0 0"/><path d="m209.996094 112.0625-6.921875-3.996094v7.992188zm0 0"/><path d="m203.074219 108.066406-6.921875-3.996094v7.992188zm0 0"/><path d="m196.152344 104.070312-6.921875-4v7.996094zm0 0"/><path d="m182.308594 96.074219-6.921875-3.996094v7.992187zm0 0"/><path d="m168.464844 104.070312-6.921875-4v7.996094zm0 0"/><path d="m161.542969 108.066406-6.921875-3.996094v7.992188zm0 0"/><path d="m154.621094 112.0625-6.921875-3.996094v7.992188zm0 0"/><path d="m140.777344 120.054688-6.921875-3.996094v7.992187zm0 0"/><path d="m133.855469 235.949219-6.925781-3.996094v7.992187zm0 0"/><path d="m140.777344 239.945312-6.921875-3.996093v7.992187zm0 0"/><path d="m147.699219 243.941406-6.921875-3.996094v7.992188zm0 0"/><path d="m168.464844 255.929688-6.921875-3.996094v7.996094zm0 0"/><path d="m182.308594 263.925781-6.921875-3.996093v7.992187zm0 0"/><path d="m265.371094 223.960938-6.921875-3.996094v7.992187zm0 0"/><path d="m265.371094 215.96875-6.921875-3.996094v7.992188zm0 0"/><path d="m265.371094 207.976562-6.921875-4v7.996094zm0 0"/><path d="m265.371094 191.988281-6.921875-3.996093v7.992187zm0 0"/><path d="m265.371094 168.011719-6.921875-3.996094v7.992187zm0 0"/><path d="m265.371094 152.023438-6.921875-3.996094v7.996094zm0 0"/><path d="m265.371094 144.03125-6.921875-3.996094v7.992188zm0 0"/><path d="m230.761719 116.058594-6.921875-3.996094v7.992188zm0 0"/><path d="m216.917969 108.066406-6.921875-3.996094v7.992188zm0 0"/><path d="m209.996094 104.070312-6.921875-4v7.996094zm0 0"/><path d="m203.074219 100.070312-6.921875-3.996093v7.996093zm0 0"/><path d="m196.152344 96.074219-6.921875-3.996094v7.992187zm0 0"/><path d="m189.230469 92.078125-6.921875-3.996094v7.992188zm0 0"/><path d="m175.386719 92.078125-6.921875-3.996094v7.992188zm0 0"/><path d="m161.542969 100.070312-6.921875-3.996093v7.996093zm0 0"/><path d="m154.621094 104.070312-6.921875-4v7.996094zm0 0"/><path d="m133.855469 243.941406-6.925781-3.996094v7.992188zm0 0"/><path d="m147.699219 251.933594-6.921875-3.996094v7.992188zm0 0"/><path d="m154.621094 255.929688-6.921875-3.996094v7.996094zm0 0"/><path d="m161.542969 259.929688-6.921875-4v7.996093zm0 0"/><path d="m272.292969 219.964844-6.921875-3.996094v7.992188zm0 0"/><path d="m272.292969 187.992188-6.921875-3.996094v7.992187zm0 0"/><path d="m272.292969 180-6.921875-3.996094v7.992188zm0 0"/><path d="m272.292969 172.007812-6.921875-3.996093v7.992187zm0 0"/><path d="m272.292969 148.027344-6.921875-3.996094v7.992188zm0 0"/><path d="m216.917969 100.070312-6.921875-3.996093v7.996093zm0 0"/><path d="m209.996094 96.074219-6.921875-3.996094v7.992187zm0 0"/><path d="m203.074219 92.078125-6.921875-3.996094v7.992188zm0 0"/><path d="m196.152344 88.082031-6.921875-3.996093v7.992187zm0 0"/><path d="m175.386719 84.085938-6.921875-3.996094v7.992187zm0 0"/><path d="m154.621094 96.074219-6.921875-3.996094v7.992187zm0 0"/><path d="m147.699219 259.929688-6.921875-4v7.996093zm0 0"/><path d="m168.464844 271.917969-6.921875-3.996094v7.992187zm0 0"/><path d="m279.214844 207.976562-6.921875-4v7.996094zm0 0"/><path d="m279.214844 199.980469-6.921875-3.996094v7.992187zm0 0"/><path d="m279.214844 191.988281-6.921875-3.996093v7.992187zm0 0"/><path d="m279.214844 183.996094-6.921875-3.996094v7.992188zm0 0"/><path d="m279.214844 176.003906-6.921875-3.996094v7.992188zm0 0"/><path d="m216.917969 92.078125-6.921875-3.996094v7.992188zm0 0"/><path d="m209.996094 88.082031-6.921875-3.996093v7.992187zm0 0"/><path d="m203.074219 84.085938-6.921875-3.996094v7.992187zm0 0"/><path d="m286.136719 195.984375-6.921875-3.996094v7.992188zm0 0"/><path d="m286.136719 187.992188-6.921875-3.996094v7.992187zm0 0"/><path d="m286.136719 180-6.921875-3.996094v7.992188zm0 0"/><path d="m286.136719 172.007812-6.921875-3.996093v7.992187zm0 0"/><path d="m286.136719 164.015625-6.921875-3.996094v7.992188zm0 0"/><path d="m216.917969 84.085938-6.921875-3.996094v7.992187zm0 0"/><path d="m209.996094 80.089844-6.921875-3.996094v7.992188zm0 0"/><path d="m203.074219 76.09375-6.921875-3.996094v7.992188zm0 0"/><path d="m196.152344 72.097656-6.921875-3.996094v7.992188zm0 0"/><path d="m293.058594 199.980469-6.921875-3.996094v7.992187zm0 0"/><path d="m293.058594 176.003906-6.921875-3.996094v7.992188zm0 0"/><path d="m293.058594 168.011719-6.921875-3.996094v7.992187zm0 0"/><path d="m223.839844 80.089844-6.921875-3.996094v7.992188zm0 0"/><path d="m216.917969 76.09375-6.921875-3.996094v7.992188zm0 0"/><path d="m299.980469 203.976562-6.921875-3.996093v7.996093zm0 0"/><path d="m299.980469 195.984375-6.921875-3.996094v7.992188zm0 0"/><path d="m299.980469 187.992188-6.921875-3.996094v7.992187zm0 0"/><path d="m299.980469 180-6.921875-3.996094v7.992188zm0 0"/><path d="m223.839844 72.097656-6.921875-3.996094v7.992188zm0 0"/><path d="m209.996094 64.105469-6.921875-3.996094v7.992187zm0 0"/><path d="m306.902344 199.980469-6.921875-3.996094v7.992187zm0 0"/></g></svg>