<svg height="360pt" viewBox="0 0 360 360" width="360pt" xmlns="http://www.w3.org/2000/svg"><path d="m0 0h360v360h-360z" fill="#fff"/><g fill="#800080" fill-rule="evenodd"><path d="m184.320312 174.777344 2.261719-1.304688v2.609375zm0 0"/><path d="m179.796875 172.167969 2.261719-1.308594v2.613281zm0 0"/><path d="m179.796875 187.832031 2.261719-1.304687v2.613281zm0 0"/><path d="m184.320312 185.222656 2.261719-1.304687v2.609375zm0 0"/><path d="m170.753906 177.390625 2.261719-1.308594v2.613281zm0 0"/><path d="m170.753906 182.609375 2.261719-1.304687v2.613281zm0 0"/><path d="m188.84375 172.167969 2.261719-1.308594v2.613281zm0 0"/><path d="m179.796875 166.945312 2.261719-1.304687v2.609375zm0 0"/><path d="m179.796875 193.054688 2.261719-1.304688v2.609375zm0 0"/><path d="m188.84375 187.832031 2.261719-1.304687v2.613281zm0 0"/><path d="m166.230469 174.777344 2.261719-1.304688v2.609375zm0 0"/><path d="m166.230469 185.222656 2.261719-1.304687v2.609375zm0 0"/><path d="m193.367188 169.554688 2.261718-1.304688v2.609375zm0 0"/><path d="m179.796875 161.722656 2.261719-1.304687v2.609375zm0 0"/><path d="m179.796875 198.277344 2.261719-1.304688v2.609375zm0 0"/><path d="m193.367188 190.445312 2.261718-1.304687v2.609375zm0 0"/><path d="m161.707031 172.167969 2.261719-1.308594v2.613281zm0 0"/><path d="m161.707031 187.832031 2.261719-1.304687v2.613281zm0 0"/><path d="m197.886719 166.945312 2.261719-1.304687v2.609375zm0 0"/><path d="m179.796875 156.5 2.261719-1.304688v2.609376zm0 0"/><path d="m179.796875 203.5 2.261719-1.304688v2.609376zm0 0"/><path d="m197.886719 193.054688 2.261719-1.304688v2.609375zm0 0"/><path d="m157.183594 169.554688 2.261718-1.304688v2.609375zm0 0"/><path d="m157.183594 190.445312 2.261718-1.304687v2.609375zm0 0"/><path d="m202.410156 164.332031 2.261719-1.304687v2.613281zm0 0"/><path d="m179.796875 151.277344 2.261719-1.304688v2.609375zm0 0"/><path d="m179.796875 208.722656 2.261719-1.304687v2.609375zm0 0"/><path d="m202.410156 195.667969 2.261719-1.308594v2.613281zm0 0"/><path d="m152.664062 166.945312 2.257813-1.304687v2.609375zm0 0"/><path d="m152.664062 193.054688 2.257813-1.304688v2.609375zm0 0"/><path d="m206.933594 161.722656 2.261718-1.304687v2.609375zm0 0"/><path d="m179.796875 146.054688 2.261719-1.304688v2.609375zm0 0"/><path d="m179.796875 213.945312 2.261719-1.304687v2.609375zm0 0"/><path d="m206.933594 198.277344 2.261718-1.304688v2.609375zm0 0"/><path d="m148.140625 164.332031 2.261719-1.304687v2.613281zm0 0"/><path d="m148.140625 195.667969 2.261719-1.308594v2.613281zm0 0"/><path d="m211.457031 159.109375 2.261719-1.304687v2.613281zm0 0"/><path d="m179.796875 140.832031 2.261719-1.304687v2.613281zm0 0"/><path d="m179.796875 219.167969 2.261719-1.308594v2.613281zm0 0"/><path d="m211.457031 200.890625 2.261719-1.308594v2.613281zm0 0"/><path d="m143.617188 161.722656 2.261718-1.304687v2.609375zm0 0"/><path d="m143.617188 198.277344 2.261718-1.304688v2.609375zm0 0"/><path d="m215.980469 156.5 2.257812-1.304688v2.609376zm0 0"/><path d="m179.796875 135.609375 2.261719-1.304687v2.613281zm0 0"/><path d="m179.796875 224.390625 2.261719-1.308594v2.613281zm0 0"/><path d="m215.980469 203.5 2.257812-1.304688v2.609376zm0 0"/><path d="m139.09375 159.109375 2.261719-1.304687v2.613281zm0 0"/><path d="m139.09375 200.890625 2.261719-1.308594v2.613281zm0 0"/><path d="m220.5 153.890625 2.261719-1.308594v2.613281zm0 0"/><path d="m179.796875 130.390625 2.261719-1.308594v2.613281zm0 0"/><path d="m179.796875 229.609375 2.261719-1.304687v2.613281zm0 0"/><path d="m220.5 206.109375 2.261719-1.304687v2.613281zm0 0"/><path d="m134.570312 156.5 2.261719-1.304688v2.609376zm0 0"/><path d="m134.570312 203.5 2.261719-1.304688v2.609376zm0 0"/><path d="m225.023438 151.277344 2.261718-1.304688v2.609375zm0 0"/><path d="m179.796875 125.167969 2.261719-1.308594v2.613281zm0 0"/><path d="m179.796875 234.832031 2.261719-1.304687v2.613281zm0 0"/><path d="m225.023438 208.722656 2.261718-1.304687v2.609375zm0 0"/><path d="m130.050781 153.890625 2.261719-1.308594v2.613281zm0 0"/><path d="m130.050781 206.109375 2.261719-1.304687v2.613281zm0 0"/><path d="m229.546875 148.667969 2.261719-1.308594v2.613281zm0 0"/><path d="m179.796875 119.945312 2.261719-1.304687v2.609375zm0 0"/><path d="m179.796875 240.054688 2.261719-1.304688v2.609375zm0 0"/><path d="m229.546875 211.332031 2.261719-1.304687v2.613281zm0 0"/><path d="m125.527344 151.277344 2.261718-1.304688v2.609375zm0 0"/><path d="m125.527344 208.722656 2.261718-1.304687v2.609375zm0 0"/><path d="m234.070312 146.054688 2.261719-1.304688v2.609375zm0 0"/><path d="m179.796875 114.722656 2.261719-1.304687v2.609375zm0 0"/><path d="m179.796875 245.277344 2.261719-1.304688v2.609375zm0 0"/><path d="m234.070312 213.945312 2.261719-1.304687v2.609375zm0 0"/><path d="m121.003906 148.667969 2.261719-1.308594v2.613281zm0 0"/><path d="m121.003906 211.332031 2.261719-1.304687v2.613281zm0 0"/><path d="m238.589844 143.445312 2.261718-1.304687v2.609375zm0 0"/><path d="m179.796875 109.5 2.261719-1.304688v2.609376zm0 0"/><path d="m179.796875 250.5 2.261719-1.304688v2.609376zm0 0"/><path d="m238.589844 216.554688 2.261718-1.304688v2.609375zm0 0"/><path d="m116.480469 146.054688 2.261719-1.304688v2.609375zm0 0"/><path d="m116.480469 213.945312 2.261719-1.304687v2.609375zm0 0"/><path d="m243.113281 140.832031 2.261719-1.304687v2.613281zm0 0"/><path d="m179.796875 104.277344 2.261719-1.304688v2.609375zm0 0"/><path d="m179.796875 255.722656 2.261719-1.304687v2.609375zm0 0"/><path d="m243.113281 219.167969 2.261719-1.308594v2.613281zm0 0"/><path d="m111.960938 143.445312 2.257812-1.304687v2.609375zm0 0"/><path d="m111.960938 216.554688 2.257812-1.304688v2.609375zm0 0"/><path d="m247.636719 138.222656 2.261719-1.304687v2.609375zm0 0"/><path d="m179.796875 99.054688 2.261719-1.304688v2.609375zm0 0"/><path d="m179.796875 260.945312 2.261719-1.304687v2.609375zm0 0"/><path d="m247.636719 221.777344 2.261719-1.304688v2.609375zm0 0"/><path d="m107.4375 140.832031 2.261719-1.304687v2.613281zm0 0"/><path d="m107.4375 219.167969 2.261719-1.308594v2.613281zm0 0"/><path d="m252.160156 135.609375 2.261719-1.304687v2.613281zm0 0"/><path d="m179.796875 93.832031 2.261719-1.304687v2.609375zm0 0"/><path d="m179.796875 266.167969 2.261719-1.304688v2.609375zm0 0"/><path d="m252.160156 224.390625 2.261719-1.308594v2.613281zm0 0"/><path d="m102.914062 138.222656 2.261719-1.304687v2.609375zm0 0"/><path d="m102.914062 221.777344 2.261719-1.304688v2.609375zm0 0"/><path d="m256.683594 133 2.261718-1.304688v2.609376zm0 0"/><path d="m179.796875 88.609375 2.261719-1.304687v2.613281zm0 0"/><path d="m179.796875 271.390625 2.261719-1.308594v2.613281zm0 0"/><path d="m256.683594 227 2.261718-1.304688v2.609376zm0 0"/><path d="m98.390625 135.609375 2.261719-1.304687v2.613281zm0 0"/><path d="m98.390625 224.390625 2.261719-1.308594v2.613281zm0 0"/><path d="m261.203125 130.390625 2.261719-1.308594v2.613281zm0 0"/><path d="m179.796875 83.386719 2.261719-1.304688v2.613281zm0 0"/><path d="m179.796875 276.613281 2.261719-1.308593v2.613281zm0 0"/><path d="m261.203125 229.609375 2.261719-1.304687v2.613281zm0 0"/><path d="m93.867188 133 2.261718-1.304688v2.609376zm0 0"/><path d="m93.867188 227 2.261718-1.304688v2.609376zm0 0"/><path d="m265.726562 127.777344 2.261719-1.304688v2.609375zm0 0"/><path d="m179.796875 78.167969 2.261719-1.308594v2.613281zm0 0"/><path d="m179.796875 281.832031 2.261719-1.304687v2.613281zm0 0"/><path d="m265.726562 232.222656 2.261719-1.304687v2.609375zm0 0"/><path d="m89.347656 130.390625 2.261719-1.308594v2.613281zm0 0"/><path d="m89.347656 229.609375 2.261719-1.304687v2.613281zm0 0"/><path d="m270.25 125.167969 2.261719-1.308594v2.613281zm0 0"/><path d="m179.796875 72.945312 2.261719-1.308593v2.613281zm0 0"/><path d="m179.796875 287.054688 2.261719-1.304688v2.613281zm0 0"/><path d="m270.25 234.832031 2.261719-1.304687v2.613281zm0 0"/><path d="m84.824219 127.777344 2.261719-1.304688v2.609375zm0 0"/><path d="m84.824219 232.222656 2.261719-1.304687v2.609375zm0 0"/><path d="m274.773438 122.554688 2.261718-1.304688v2.609375zm0 0"/><path d="m179.796875 67.722656 2.261719-1.304687v2.609375zm0 0"/><path d="m179.796875 292.277344 2.261719-1.304688v2.609375zm0 0"/><path d="m274.773438 237.445312 2.261718-1.304687v2.609375zm0 0"/><path d="m80.300781 125.167969 2.261719-1.308594v2.613281zm0 0"/><path d="m80.300781 234.832031 2.261719-1.304687v2.613281zm0 0"/><path d="m279.296875 119.945312 2.257813-1.304687v2.609375zm0 0"/><path d="m179.796875 62.5 2.261719-1.304688v2.609376zm0 0"/><path d="m179.796875 297.5 2.261719-1.304688v2.609376zm0 0"/><path d="m279.296875 240.054688 2.257813-1.304688v2.609375zm0 0"/><path d="m75.777344 122.554688 2.261718-1.304688v2.609375zm0 0"/><path d="m75.777344 237.445312 2.261718-1.304687v2.609375zm0 0"/><path d="m283.816406 117.332031 2.261719-1.304687v2.613281zm0 0"/><path d="m179.796875 57.277344 2.261719-1.304688v2.609375zm0 0"/><path d="m179.796875 302.722656 2.261719-1.304687v2.609375zm0 0"/><path d="m283.816406 242.667969 2.261719-1.308594v2.613281zm0 0"/><path d="m71.253906 119.945312 2.261719-1.304687v2.609375zm0 0"/><path d="m71.253906 240.054688 2.261719-1.304688v2.609375zm0 0"/><path d="m288.339844 114.722656 2.261718-1.304687v2.609375zm0 0"/><path d="m179.796875 52.054688 2.261719-1.304688v2.609375zm0 0"/><path d="m179.796875 307.945312 2.261719-1.304687v2.609375zm0 0"/><path d="m288.339844 245.277344 2.261718-1.304688v2.609375zm0 0"/><path d="m66.734375 117.332031 2.261719-1.304687v2.613281zm0 0"/><path d="m66.734375 242.667969 2.261719-1.308594v2.613281zm0 0"/><path d="m292.863281 112.109375 2.261719-1.304687v2.613281zm0 0"/><path d="m179.796875 46.832031 2.261719-1.304687v2.609375zm0 0"/><path d="m179.796875 313.167969 2.261719-1.304688v2.609375zm0 0"/><path d="m292.863281 247.890625 2.261719-1.308594v2.613281zm0 0"/><path d="m62.210938 114.722656 2.261718-1.304687v2.609375zm0 0"/><path d="m62.210938 245.277344 2.261718-1.304688v2.609375zm0 0"/><path d="m297.386719 109.5 2.261719-1.304688v2.609376zm0 0"/><path d="m179.796875 41.609375 2.261719-1.304687v2.613281zm0 0"/><path d="m179.796875 318.390625 2.261719-1.308594v2.613281zm0 0"/><path d="m297.386719 250.5 2.261719-1.304688v2.609376zm0 0"/><path d="m57.6875 112.109375 2.261719-1.304687v2.613281zm0 0"/><path d="m57.6875 247.890625 2.261719-1.308594v2.613281zm0 0"/><path d="m301.90625 106.886719 2.261719-1.304688v2.613281zm0 0"/><path d="m179.796875 36.386719 2.261719-1.304688v2.613281zm0 0"/><path d="m179.796875 323.613281 2.261719-1.308593v2.613281zm0 0"/><path d="m301.90625 253.113281 2.261719-1.308593v2.613281zm0 0"/><path d="m53.164062 109.5 2.261719-1.304688v2.609376zm0 0"/><path d="m53.164062 250.5 2.261719-1.304688v2.609376zm0 0"/><path d="m306.429688 104.277344 2.261718-1.304688v2.609375zm0 0"/><path d="m179.796875 31.167969 2.261719-1.308594v2.613281zm0 0"/><path d="m179.796875 328.832031 2.261719-1.304687v2.613281zm0 0"/><path d="m306.429688 255.722656 2.261718-1.304687v2.609375zm0 0"/><path d="m48.644531 106.886719 2.257813-1.304688v2.613281zm0 0"/><path d="m48.644531 253.113281 2.257813-1.308593v2.613281zm0 0"/><path d="m306.429688 99.054688 2.261718-1.304688v2.609375zm0 0"/><path d="m301.90625 96.445312 2.261719-1.308593v2.613281zm0 0"/><path d="m297.386719 93.832031 2.261719-1.304687v2.609375zm0 0"/><path d="m292.863281 91.222656 2.261719-1.304687v2.609375zm0 0"/><path d="m288.339844 88.609375 2.261718-1.304687v2.613281zm0 0"/><path d="m283.816406 86 2.261719-1.304688v2.609376zm0 0"/><path d="m279.296875 83.386719 2.257813-1.304688v2.613281zm0 0"/><path d="m274.773438 80.777344 2.261718-1.304688v2.609375zm0 0"/><path d="m270.25 78.167969 2.261719-1.308594v2.613281zm0 0"/><path d="m265.726562 75.554688 2.261719-1.304688v2.609375zm0 0"/><path d="m261.203125 72.945312 2.261719-1.308593v2.613281zm0 0"/><path d="m256.683594 70.332031 2.261718-1.304687v2.609375zm0 0"/><path d="m252.160156 67.722656 2.261719-1.304687v2.609375zm0 0"/><path d="m247.636719 65.109375 2.261719-1.304687v2.613281zm0 0"/><path d="m243.113281 62.5 2.261719-1.304688v2.609376zm0 0"/><path d="m238.589844 59.886719 2.261718-1.304688v2.613281zm0 0"/><path d="m234.070312 57.277344 2.261719-1.304688v2.609375zm0 0"/><path d="m229.546875 54.667969 2.261719-1.308594v2.613281zm0 0"/><path d="m225.023438 52.054688 2.261718-1.304688v2.609375zm0 0"/><path d="m220.5 49.445312 2.261719-1.308593v2.613281zm0 0"/><path d="m215.980469 46.832031 2.257812-1.304687v2.609375zm0 0"/><path d="m211.457031 44.222656 2.261719-1.304687v2.609375zm0 0"/><path d="m206.933594 41.609375 2.261718-1.304687v2.613281zm0 0"/><path d="m202.410156 39 2.261719-1.304688v2.609376zm0 0"/><path d="m197.886719 36.386719 2.261719-1.304688v2.613281zm0 0"/><path d="m193.367188 33.777344 2.261718-1.304688v2.609375zm0 0"/><path d="m188.84375 31.167969 2.261719-1.308594v2.613281zm0 0"/><path d="m184.320312 28.554688 2.261719-1.304688v2.609375zm0 0"/><path d="m184.320312 331.445312 2.261719-1.304687v2.609375zm0 0"/><path d="m188.84375 328.832031 2.261719-1.304687v2.613281zm0 0"/><path d="m193.367188 326.222656 2.261718-1.304687v2.609375zm0 0"/><path d="m197.886719 323.613281 2.261719-1.308593v2.613281zm0 0"/><path d="m202.410156 321 2.261719-1.304688v2.609376zm0 0"/><path d="m206.933594 318.390625 2.261718-1.308594v2.613281zm0 0"/><path d="m211.457031 315.777344 2.261719-1.304688v2.609375zm0 0"/><path d="m215.980469 313.167969 2.257812-1.304688v2.609375zm0 0"/><path d="m220.5 310.554688 2.261719-1.304688v2.613281zm0 0"/><path d="m225.023438 307.945312 2.261718-1.304687v2.609375zm0 0"/><path d="m229.546875 305.332031 2.261719-1.304687v2.613281zm0 0"/><path d="m234.070312 302.722656 2.261719-1.304687v2.609375zm0 0"/><path d="m238.589844 300.113281 2.261718-1.308593v2.613281zm0 0"/><path d="m243.113281 297.5 2.261719-1.304688v2.609376zm0 0"/><path d="m247.636719 294.890625 2.261719-1.308594v2.613281zm0 0"/><path d="m252.160156 292.277344 2.261719-1.304688v2.609375zm0 0"/><path d="m256.683594 289.667969 2.261718-1.304688v2.609375zm0 0"/><path d="m261.203125 287.054688 2.261719-1.304688v2.613281zm0 0"/><path d="m265.726562 284.445312 2.261719-1.304687v2.609375zm0 0"/><path d="m270.25 281.832031 2.261719-1.304687v2.613281zm0 0"/><path d="m274.773438 279.222656 2.261718-1.304687v2.609375zm0 0"/><path d="m279.296875 276.613281 2.257813-1.308593v2.613281zm0 0"/><path d="m283.816406 274 2.261719-1.304688v2.609376zm0 0"/><path d="m288.339844 271.390625 2.261718-1.308594v2.613281zm0 0"/><path d="m292.863281 268.777344 2.261719-1.304688v2.609375zm0 0"/><path d="m297.386719 266.167969 2.261719-1.304688v2.609375zm0 0"/><path d="m301.90625 263.554688 2.261719-1.304688v2.613281zm0 0"/><path d="m306.429688 260.945312 2.261718-1.304687v2.609375zm0 0"/><path d="m44.121094 109.5 2.261718-1.304688v2.609376zm0 0"/><path d="m44.121094 114.722656 2.261718-1.304687v2.609375zm0 0"/><path d="m44.121094 119.945312 2.261718-1.304687v2.609375zm0 0"/><path d="m44.121094 125.167969 2.261718-1.308594v2.613281zm0 0"/><path d="m44.121094 130.390625 2.261718-1.308594v2.613281zm0 0"/><path d="m44.121094 135.609375 2.261718-1.304687v2.613281zm0 0"/><path d="m44.121094 140.832031 2.261718-1.304687v2.613281zm0 0"/><path d="m44.121094 146.054688 2.261718-1.304688v2.609375zm0 0"/><path d="m44.121094 151.277344 2.261718-1.304688v2.609375zm0 0"/><path d="m44.121094 156.5 2.261718-1.304688v2.609376zm0 0"/><path d="m44.121094 161.722656 2.261718-1.304687v2.609375zm0 0"/><path d="m44.121094 166.945312 2.261718-1.304687v2.609375zm0 0"/><path d="m44.121094 172.167969 2.261718-1.308594v2.613281zm0 0"/><path d="m44.121094 177.390625 2.261718-1.308594v2.613281zm0 0"/><path d="m44.121094 182.609375 2.261718-1.304687v2.613281zm0 0"/><path d="m44.121094 187.832031 2.261718-1.304687v2.613281zm0 0"/><path d="m44.121094 193.054688 2.261718-1.304688v2.609375zm0 0"/><path d="m44.121094 198.277344 2.261718-1.304688v2.609375zm0 0"/><path d="m44.121094 203.5 2.261718-1.304688v2.609376zm0 0"/><path d="m44.121094 208.722656 2.261718-1.304687v2.609375zm0 0"/><path d="m44.121094 213.945312 2.261718-1.304687v2.609375zm0 0"/><path d="m44.121094 219.167969 2.261718-1.308594v2.613281zm0 0"/><path d="m44.121094 224.390625 2.261718-1.308594v2.613281zm0 0"/><path d="m44.121094 229.609375 2.261718-1.304687v2.613281zm0 0"/><path d="m44.121094 234.832031 2.261718-1.304687v2.613281zm0 0"/><path d="m44.121094 240.054688 2.261718-1.304688v2.609375zm0 0"/><path d="m44.121094 245.277344 2.261718-1.304688v2.609375zm0 0"/><path d="m44.121094 250.5 2.261718-1.304688v2.609376zm0 0"/><path d="m315.476562 99.054688 2.261719-1.304688v2.609375zm0 0"/><path d="m179.796875 20.722656 2.261719-1.304687v2.609375zm0 0"/><path d="m179.796875 339.277344 2.261719-1.304688v2.609375zm0 0"/><path d="m315.476562 260.945312 2.261719-1.304687v2.609375zm0 0"/><path d="m39.597656 101.667969 2.261719-1.308594v2.613281zm0 0"/><path d="m39.597656 258.332031 2.261719-1.304687v2.613281zm0 0"/><path d="m320 96.445312 2.257812-1.308593v2.613281zm0 0"/><path d="m315.476562 93.832031 2.261719-1.304687v2.609375zm0 0"/><path d="m310.953125 91.222656 2.261719-1.304687v2.609375zm0 0"/><path d="m306.429688 88.609375 2.261718-1.304687v2.613281zm0 0"/><path d="m301.90625 86 2.261719-1.304688v2.609376zm0 0"/><path d="m297.386719 83.386719 2.261719-1.304688v2.613281zm0 0"/><path d="m292.863281 80.777344 2.261719-1.304688v2.609375zm0 0"/><path d="m288.339844 78.167969 2.261718-1.308594v2.613281zm0 0"/><path d="m283.816406 75.554688 2.261719-1.304688v2.609375zm0 0"/><path d="m279.296875 72.945312 2.257813-1.308593v2.613281zm0 0"/><path d="m274.773438 70.332031 2.261718-1.304687v2.609375zm0 0"/><path d="m270.25 67.722656 2.261719-1.304687v2.609375zm0 0"/><path d="m265.726562 65.109375 2.261719-1.304687v2.613281zm0 0"/><path d="m261.203125 62.5 2.261719-1.304688v2.609376zm0 0"/><path d="m256.683594 59.886719 2.261718-1.304688v2.613281zm0 0"/><path d="m252.160156 57.277344 2.261719-1.304688v2.609375zm0 0"/><path d="m247.636719 54.667969 2.261719-1.308594v2.613281zm0 0"/><path d="m243.113281 52.054688 2.261719-1.304688v2.609375zm0 0"/><path d="m238.589844 49.445312 2.261718-1.308593v2.613281zm0 0"/><path d="m234.070312 46.832031 2.261719-1.304687v2.609375zm0 0"/><path d="m229.546875 44.222656 2.261719-1.304687v2.609375zm0 0"/><path d="m225.023438 41.609375 2.261718-1.304687v2.613281zm0 0"/><path d="m220.5 39 2.261719-1.304688v2.609376zm0 0"/><path d="m215.980469 36.386719 2.257812-1.304688v2.613281zm0 0"/><path d="m211.457031 33.777344 2.261719-1.304688v2.609375zm0 0"/><path d="m206.933594 31.167969 2.261718-1.308594v2.613281zm0 0"/><path d="m202.410156 28.554688 2.261719-1.304688v2.609375zm0 0"/><path d="m197.886719 25.945312 2.261719-1.308593v2.613281zm0 0"/><path d="m193.367188 23.332031 2.261718-1.304687v2.609375zm0 0"/><path d="m188.84375 20.722656 2.261719-1.304687v2.609375zm0 0"/><path d="m184.320312 18.109375 2.261719-1.304687v2.613281zm0 0"/><path d="m179.796875 15.5 2.261719-1.304688v2.609376zm0 0"/><path d="m179.796875 344.5 2.261719-1.304688v2.609376zm0 0"/><path d="m184.320312 341.890625 2.261719-1.308594v2.613281zm0 0"/><path d="m188.84375 339.277344 2.261719-1.304688v2.609375zm0 0"/><path d="m193.367188 336.667969 2.261718-1.304688v2.609375zm0 0"/><path d="m197.886719 334.054688 2.261719-1.304688v2.613281zm0 0"/><path d="m202.410156 331.445312 2.261719-1.304687v2.609375zm0 0"/><path d="m206.933594 328.832031 2.261718-1.304687v2.613281zm0 0"/><path d="m211.457031 326.222656 2.261719-1.304687v2.609375zm0 0"/><path d="m215.980469 323.613281 2.257812-1.308593v2.613281zm0 0"/><path d="m220.5 321 2.261719-1.304688v2.609376zm0 0"/><path d="m225.023438 318.390625 2.261718-1.308594v2.613281zm0 0"/><path d="m229.546875 315.777344 2.261719-1.304688v2.609375zm0 0"/><path d="m234.070312 313.167969 2.261719-1.304688v2.609375zm0 0"/><path d="m238.589844 310.554688 2.261718-1.304688v2.613281zm0 0"/><path d="m243.113281 307.945312 2.261719-1.304687v2.609375zm0 0"/><path d="m247.636719 305.332031 2.261719-1.304687v2.613281zm0 0"/><path d="m252.160156 302.722656 2.261719-1.304687v2.609375zm0 0"/><path d="m256.683594 300.113281 2.261718-1.308593v2.613281zm0 0"/><path d="m261.203125 297.5 2.261719-1.304688v2.609376zm0 0"/><path d="m265.726562 294.890625 2.261719-1.308594v2.613281zm0 0"/><path d="m270.25 292.277344 2.261719-1.304688v2.609375zm0 0"/><path d="m274.773438 289.667969 2.261718-1.304688v2.609375zm0 0"/><path d="m279.296875 287.054688 2.257813-1.304688v2.613281zm0 0"/><path d="m283.816406 284.445312 2.261719-1.304687v2.609375zm0 0"/><path d="m288.339844 281.832031 2.261718-1.304687v2.613281zm0 0"/><path d="m292.863281 279.222656 2.261719-1.304687v2.609375zm0 0"/><path d="m297.386719 276.613281 2.261719-1.308593v2.613281zm0 0"/><path d="m301.90625 274 2.261719-1.304688v2.609376zm0 0"/><path d="m306.429688 271.390625 2.261718-1.308594v2.613281zm0 0"/><path d="m310.953125 268.777344 2.261719-1.304688v2.609375zm0 0"/><path d="m315.476562 266.167969 2.261719-1.304688v2.609375zm0 0"/><path d="m320 263.554688 2.257812-1.304688v2.613281zm0 0"/><path d="m35.074219 99.054688 2.261719-1.304688v2.609375zm0 0"/><path d="m35.074219 104.277344 2.261719-1.304688v2.609375zm0 0"/><path d="m35.074219 109.5 2.261719-1.304688v2.609376zm0 0"/><path d="m35.074219 114.722656 2.261719-1.304687v2.609375zm0 0"/><path d="m35.074219 119.945312 2.261719-1.304687v2.609375zm0 0"/><path d="m35.074219 125.167969 2.261719-1.308594v2.613281zm0 0"/><path d="m35.074219 130.390625 2.261719-1.308594v2.613281zm0 0"/><path d="m35.074219 135.609375 2.261719-1.304687v2.613281zm0 0"/><path d="m35.074219 140.832031 2.261719-1.304687v2.613281zm0 0"/><path d="m35.074219 146.054688 2.261719-1.304688v2.609375zm0 0"/><path d="m35.074219 151.277344 2.261719-1.304688v2.609375zm0 0"/><path d="m35.074219 156.5 2.261719-1.304688v2.609376zm0 0"/><path d="m35.074219 161.722656 2.261719-1.304687v2.609375zm0 0"/><path d="m35.074219 166.945312 2.261719-1.304687v2.609375zm0 0"/><path d="m35.074219 172.167969 2.261719-1.308594v2.613281zm0 0"/><path d="m35.074219 177.390625 2.261719-1.308594v2.613281zm0 0"/><path d="m35.074219 182.609375 2.261719-1.304687v2.613281zm0 0"/><path d="m35.074219 187.832031 2.261719-1.304687v2.613281zm0 0"/><path d="m35.074219 193.054688 2.261719-1.304688v2.609375zm0 0"/><path d="m35.074219 198.277344 2.261719-1.304688v2.609375zm0 0"/><path d="m35.074219 203.5 2.261719-1.304688v2.609376zm0 0"/><path d="m35.074219 208.722656 2.261719-1.304687v2.609375zm0 0"/><path d="m35.074219 213.945312 2.261719-1.304687v2.609375zm0 0"/><path d="m35.074219 219.167969 2.261719-1.308594v2.613281zm0 0"/><path d="m35.074219 224.390625 2.261719-1.308594v2.613281zm0 0"/><path d="m35.074219 229.609375 2.261719-1.304687v2.613281zm0 0"/><path d="m35.074219 234.832031 2.261719-1.304687v2.613281zm0 0"/><path d="m35.074219 240.054688 2.261719-1.304688v2.609375zm0 0"/><path d="m35.074219 245.277344 2.261719-1.304688v2.609375zm0 0"/><path d="m35.074219 250.5 2.261719-1.304688v2.609376zm0 0"/><path d="m35.074219 255.722656 2.261719-1.304687v2.609375zm0 0"/><path d="m35.074219 260.945312 2.261719-1.304687v2.609375zm0 0"/><path d="m188.84375 182.609375-2.261719-1.304687v2.613281zm0 0"/><path d="m188.84375 177.390625-2.261719-1.308594v2.613281zm0 0"/><path d="m179.796875 172.167969-2.261719-1.308594v2.613281zm0 0"/><path d="m175.277344 174.777344-2.261719-1.304688v2.609375zm0 0"/><path d="m175.277344 185.222656-2.261719-1.304687v2.609375zm0 0"/><path d="m179.796875 187.832031-2.261719-1.304687v2.613281zm0 0"/><path d="m193.367188 185.222656-2.261719-1.304687v2.609375zm0 0"/><path d="m193.367188 174.777344-2.261719-1.304688v2.609375zm0 0"/><path d="m179.796875 166.945312-2.261719-1.304687v2.609375zm0 0"/><path d="m170.753906 172.167969-2.261718-1.308594v2.613281zm0 0"/><path d="m170.753906 187.832031-2.261718-1.304687v2.613281zm0 0"/><path d="m179.796875 193.054688-2.261719-1.304688v2.609375zm0 0"/><path d="m197.886719 187.832031-2.257813-1.304687v2.613281zm0 0"/><path d="m197.886719 172.167969-2.257813-1.308594v2.613281zm0 0"/><path d="m179.796875 161.722656-2.261719-1.304687v2.609375zm0 0"/><path d="m166.230469 169.554688-2.261719-1.304688v2.609375zm0 0"/><path d="m166.230469 190.445312-2.261719-1.304687v2.609375zm0 0"/><path d="m179.796875 198.277344-2.261719-1.304688v2.609375zm0 0"/><path d="m202.410156 190.445312-2.261718-1.304687v2.609375zm0 0"/><path d="m202.410156 169.554688-2.261718-1.304688v2.609375zm0 0"/><path d="m179.796875 156.5-2.261719-1.304688v2.609376zm0 0"/><path d="m161.707031 166.945312-2.261719-1.304687v2.609375zm0 0"/><path d="m161.707031 193.054688-2.261719-1.304688v2.609375zm0 0"/><path d="m179.796875 203.5-2.261719-1.304688v2.609376zm0 0"/><path d="m206.933594 193.054688-2.261719-1.304688v2.609375zm0 0"/><path d="m206.933594 166.945312-2.261719-1.304687v2.609375zm0 0"/><path d="m179.796875 151.277344-2.261719-1.304688v2.609375zm0 0"/><path d="m157.183594 164.332031-2.261719-1.304687v2.613281zm0 0"/><path d="m157.183594 195.667969-2.261719-1.308594v2.613281zm0 0"/><path d="m179.796875 208.722656-2.261719-1.304687v2.609375zm0 0"/><path d="m211.457031 195.667969-2.261719-1.308594v2.613281zm0 0"/><path d="m211.457031 164.332031-2.261719-1.304687v2.613281zm0 0"/><path d="m179.796875 146.054688-2.261719-1.304688v2.609375zm0 0"/><path d="m152.664062 161.722656-2.261718-1.304687v2.609375zm0 0"/><path d="m152.664062 198.277344-2.261718-1.304688v2.609375zm0 0"/><path d="m179.796875 213.945312-2.261719-1.304687v2.609375zm0 0"/><path d="m215.980469 198.277344-2.261719-1.304688v2.609375zm0 0"/><path d="m215.980469 161.722656-2.261719-1.304687v2.609375zm0 0"/><path d="m179.796875 140.832031-2.261719-1.304687v2.613281zm0 0"/><path d="m148.140625 159.109375-2.261719-1.304687v2.613281zm0 0"/><path d="m148.140625 200.890625-2.261719-1.308594v2.613281zm0 0"/><path d="m179.796875 219.167969-2.261719-1.308594v2.613281zm0 0"/><path d="m220.5 200.890625-2.261719-1.308594v2.613281zm0 0"/><path d="m220.5 159.109375-2.261719-1.304687v2.613281zm0 0"/><path d="m179.796875 135.609375-2.261719-1.304687v2.613281zm0 0"/><path d="m143.617188 156.5-2.261719-1.304688v2.609376zm0 0"/><path d="m143.617188 203.5-2.261719-1.304688v2.609376zm0 0"/><path d="m179.796875 224.390625-2.261719-1.308594v2.613281zm0 0"/><path d="m225.023438 203.5-2.261719-1.304688v2.609376zm0 0"/><path d="m225.023438 156.5-2.261719-1.304688v2.609376zm0 0"/><path d="m179.796875 130.390625-2.261719-1.308594v2.613281zm0 0"/><path d="m139.09375 153.890625-2.261719-1.308594v2.613281zm0 0"/><path d="m139.09375 206.109375-2.261719-1.304687v2.613281zm0 0"/><path d="m179.796875 229.609375-2.261719-1.304687v2.613281zm0 0"/><path d="m229.546875 206.109375-2.261719-1.304687v2.613281zm0 0"/><path d="m229.546875 153.890625-2.261719-1.308594v2.613281zm0 0"/><path d="m179.796875 125.167969-2.261719-1.308594v2.613281zm0 0"/><path d="m134.570312 151.277344-2.257812-1.304688v2.609375zm0 0"/><path d="m134.570312 208.722656-2.257812-1.304687v2.609375zm0 0"/><path d="m179.796875 234.832031-2.261719-1.304687v2.613281zm0 0"/><path d="m234.070312 208.722656-2.261718-1.304687v2.609375zm0 0"/><path d="m234.070312 151.277344-2.261718-1.304688v2.609375zm0 0"/><path d="m179.796875 119.945312-2.261719-1.304687v2.609375zm0 0"/><path d="m130.050781 148.667969-2.261719-1.308594v2.613281zm0 0"/><path d="m130.050781 211.332031-2.261719-1.304687v2.613281zm0 0"/><path d="m179.796875 240.054688-2.261719-1.304688v2.609375zm0 0"/><path d="m238.589844 211.332031-2.257813-1.304687v2.613281zm0 0"/><path d="m238.589844 148.667969-2.257813-1.308594v2.613281zm0 0"/><path d="m179.796875 114.722656-2.261719-1.304687v2.609375zm0 0"/><path d="m125.527344 146.054688-2.261719-1.304688v2.609375zm0 0"/><path d="m125.527344 213.945312-2.261719-1.304687v2.609375zm0 0"/><path d="m179.796875 245.277344-2.261719-1.304688v2.609375zm0 0"/><path d="m243.113281 213.945312-2.261719-1.304687v2.609375zm0 0"/><path d="m243.113281 146.054688-2.261719-1.304688v2.609375zm0 0"/><path d="m179.796875 109.5-2.261719-1.304688v2.609376zm0 0"/><path d="m121.003906 143.445312-2.261718-1.304687v2.609375zm0 0"/><path d="m121.003906 216.554688-2.261718-1.304688v2.609375zm0 0"/><path d="m179.796875 250.5-2.261719-1.304688v2.609376zm0 0"/><path d="m247.636719 216.554688-2.261719-1.304688v2.609375zm0 0"/><path d="m247.636719 143.445312-2.261719-1.304687v2.609375zm0 0"/><path d="m179.796875 104.277344-2.261719-1.304688v2.609375zm0 0"/><path d="m116.480469 140.832031-2.261719-1.304687v2.613281zm0 0"/><path d="m116.480469 219.167969-2.261719-1.308594v2.613281zm0 0"/><path d="m179.796875 255.722656-2.261719-1.304687v2.609375zm0 0"/><path d="m252.160156 219.167969-2.261718-1.308594v2.613281zm0 0"/><path d="m252.160156 140.832031-2.261718-1.304687v2.613281zm0 0"/><path d="m179.796875 99.054688-2.261719-1.304688v2.609375zm0 0"/><path d="m111.960938 138.222656-2.261719-1.304687v2.609375zm0 0"/><path d="m111.960938 221.777344-2.261719-1.304688v2.609375zm0 0"/><path d="m179.796875 260.945312-2.261719-1.304687v2.609375zm0 0"/><path d="m256.683594 221.777344-2.261719-1.304688v2.609375zm0 0"/><path d="m256.683594 138.222656-2.261719-1.304687v2.609375zm0 0"/><path d="m179.796875 93.832031-2.261719-1.304687v2.609375zm0 0"/><path d="m107.4375 135.609375-2.261719-1.304687v2.613281zm0 0"/><path d="m107.4375 224.390625-2.261719-1.308594v2.613281zm0 0"/><path d="m179.796875 266.167969-2.261719-1.304688v2.609375zm0 0"/><path d="m261.203125 224.390625-2.257813-1.308594v2.613281zm0 0"/><path d="m261.203125 135.609375-2.257813-1.304687v2.613281zm0 0"/><path d="m179.796875 88.609375-2.261719-1.304687v2.613281zm0 0"/><path d="m102.914062 133-2.261718-1.304688v2.609376zm0 0"/><path d="m102.914062 227-2.261718-1.304688v2.609376zm0 0"/><path d="m179.796875 271.390625-2.261719-1.308594v2.613281zm0 0"/><path d="m265.726562 227-2.261718-1.304688v2.609376zm0 0"/><path d="m265.726562 133-2.261718-1.304688v2.609376zm0 0"/><path d="m179.796875 83.386719-2.261719-1.304688v2.613281zm0 0"/><path d="m98.390625 130.390625-2.261719-1.308594v2.613281zm0 0"/><path d="m98.390625 229.609375-2.261719-1.304687v2.613281zm0 0"/><path d="m179.796875 276.613281-2.261719-1.308593v2.613281zm0 0"/><path d="m270.25 229.609375-2.261719-1.304687v2.613281zm0 0"/><path d="m270.25 130.390625-2.261719-1.308594v2.613281zm0 0"/><path d="m179.796875 78.167969-2.261719-1.308594v2.613281zm0 0"/><path d="m93.867188 127.777344-2.257813-1.304688v2.609375zm0 0"/><path d="m93.867188 232.222656-2.257813-1.304687v2.609375zm0 0"/><path d="m179.796875 281.832031-2.261719-1.304687v2.613281zm0 0"/><path d="m274.773438 232.222656-2.261719-1.304687v2.609375zm0 0"/><path d="m274.773438 127.777344-2.261719-1.304688v2.609375zm0 0"/><path d="m179.796875 72.945312-2.261719-1.308593v2.613281zm0 0"/><path d="m89.347656 125.167969-2.261718-1.308594v2.613281zm0 0"/><path d="m89.347656 234.832031-2.261718-1.304687v2.613281zm0 0"/><path d="m179.796875 287.054688-2.261719-1.304688v2.613281zm0 0"/><path d="m279.296875 234.832031-2.261719-1.304687v2.613281zm0 0"/><path d="m279.296875 125.167969-2.261719-1.308594v2.613281zm0 0"/><path d="m179.796875 67.722656-2.261719-1.304687v2.609375zm0 0"/><path d="m84.824219 122.554688-2.261719-1.304688v2.609375zm0 0"/><path d="m84.824219 237.445312-2.261719-1.304687v2.609375zm0 0"/><path d="m179.796875 292.277344-2.261719-1.304688v2.609375zm0 0"/><path d="m283.816406 237.445312-2.261718-1.304687v2.609375zm0 0"/><path d="m283.816406 122.554688-2.261718-1.304688v2.609375zm0 0"/><path d="m179.796875 62.5-2.261719-1.304688v2.609376zm0 0"/><path d="m80.300781 119.945312-2.261719-1.304687v2.609375zm0 0"/><path d="m80.300781 240.054688-2.261719-1.304688v2.609375zm0 0"/><path d="m179.796875 297.5-2.261719-1.304688v2.609376zm0 0"/><path d="m288.339844 240.054688-2.261719-1.304688v2.609375zm0 0"/><path d="m288.339844 119.945312-2.261719-1.304687v2.609375zm0 0"/><path d="m179.796875 57.277344-2.261719-1.304688v2.609375zm0 0"/><path d="m75.777344 117.332031-2.261719-1.304687v2.613281zm0 0"/><path d="m75.777344 242.667969-2.261719-1.308594v2.613281zm0 0"/><path d="m179.796875 302.722656-2.261719-1.304687v2.609375zm0 0"/><path d="m292.863281 242.667969-2.261719-1.308594v2.613281zm0 0"/><path d="m292.863281 117.332031-2.261719-1.304687v2.613281zm0 0"/><path d="m179.796875 52.054688-2.261719-1.304688v2.609375zm0 0"/><path d="m71.253906 114.722656-2.257812-1.304687v2.609375zm0 0"/><path d="m71.253906 245.277344-2.257812-1.304688v2.609375zm0 0"/><path d="m179.796875 307.945312-2.261719-1.304687v2.609375zm0 0"/><path d="m297.386719 245.277344-2.261719-1.304688v2.609375zm0 0"/><path d="m297.386719 114.722656-2.261719-1.304687v2.609375zm0 0"/><path d="m179.796875 46.832031-2.261719-1.304687v2.609375zm0 0"/><path d="m66.734375 112.109375-2.261719-1.304687v2.613281zm0 0"/><path d="m66.734375 247.890625-2.261719-1.308594v2.613281zm0 0"/><path d="m179.796875 313.167969-2.261719-1.304688v2.609375zm0 0"/><path d="m301.90625 247.890625-2.257812-1.308594v2.613281zm0 0"/><path d="m301.90625 112.109375-2.257812-1.304687v2.613281zm0 0"/><path d="m179.796875 41.609375-2.261719-1.304687v2.613281zm0 0"/><path d="m62.210938 109.5-2.261719-1.304688v2.609376zm0 0"/><path d="m62.210938 250.5-2.261719-1.304688v2.609376zm0 0"/><path d="m179.796875 318.390625-2.261719-1.308594v2.613281zm0 0"/><path d="m306.429688 250.5-2.261719-1.304688v2.609376zm0 0"/><path d="m306.429688 109.5-2.261719-1.304688v2.609376zm0 0"/><path d="m179.796875 36.386719-2.261719-1.304688v2.613281zm0 0"/><path d="m57.6875 106.886719-2.261719-1.304688v2.613281zm0 0"/><path d="m57.6875 253.113281-2.261719-1.308593v2.613281zm0 0"/><path d="m179.796875 323.613281-2.261719-1.308593v2.613281zm0 0"/><path d="m310.953125 253.113281-2.261719-1.308593v2.613281zm0 0"/><path d="m310.953125 106.886719-2.261719-1.304688v2.613281zm0 0"/><path d="m179.796875 31.167969-2.261719-1.308594v2.613281zm0 0"/><path d="m53.164062 104.277344-2.261718-1.304688v2.609375zm0 0"/><path d="m53.164062 255.722656-2.261718-1.304687v2.609375zm0 0"/><path d="m179.796875 328.832031-2.261719-1.304687v2.613281zm0 0"/><path d="m315.476562 250.5-2.261718-1.304688v2.609376zm0 0"/><path d="m315.476562 245.277344-2.261718-1.304688v2.609375zm0 0"/><path d="m315.476562 240.054688-2.261718-1.304688v2.609375zm0 0"/><path d="m315.476562 234.832031-2.261718-1.304687v2.613281zm0 0"/><path d="m315.476562 229.609375-2.261718-1.304687v2.613281zm0 0"/><path d="m315.476562 224.390625-2.261718-1.308594v2.613281zm0 0"/><path d="m315.476562 219.167969-2.261718-1.308594v2.613281zm0 0"/><path d="m315.476562 213.945312-2.261718-1.304687v2.609375zm0 0"/><path d="m315.476562 208.722656-2.261718-1.304687v2.609375zm0 0"/><path d="m315.476562 203.5-2.261718-1.304688v2.609376zm0 0"/><path d="m315.476562 198.277344-2.261718-1.304688v2.609375zm0 0"/><path d="m315.476562 193.054688-2.261718-1.304688v2.609375zm0 0"/><path d="m315.476562 187.832031-2.261718-1.304687v2.613281zm0 0"/><path d="m315.476562 182.609375-2.261718-1.304687v2.613281zm0 0"/><path d="m315.476562 177.390625-2.261718-1.308594v2.613281zm0 0"/><path d="m315.476562 172.167969-2.261718-1.308594v2.613281zm0 0"/><path d="m315.476562 166.945312-2.261718-1.304687v2.609375zm0 0"/><path d="m315.476562 161.722656-2.261718-1.304687v2.609375zm0 0"/><path d="m315.476562 156.5-2.261718-1.304688v2.609376zm0 0"/><path d="m315.476562 151.277344-2.261718-1.304688v2.609375zm0 0"/><path d="m315.476562 146.054688-2.261718-1.304688v2.609375zm0 0"/><path d="m315.476562 140.832031-2.261718-1.304687v2.613281zm0 0"/><path d="m315.476562 135.609375-2.261718-1.304687v2.613281zm0 0"/><path d="m315.476562 130.390625-2.261718-1.308594v2.613281zm0 0"/><path d="m315.476562 125.167969-2.261718-1.308594v2.613281zm0 0"/><path d="m315.476562 119.945312-2.261718-1.304687v2.609375zm0 0"/><path d="m315.476562 114.722656-2.261718-1.304687v2.609375zm0 0"/><path d="m315.476562 109.5-2.261718-1.304688v2.609376zm0 0"/><path d="m175.277344 28.554688-2.261719-1.304688v2.609375zm0 0"/><path d="m170.753906 31.167969-2.261718-1.308594v2.613281zm0 0"/><path d="m166.230469 33.777344-2.261719-1.304688v2.609375zm0 0"/><path d="m161.707031 36.386719-2.261719-1.304688v2.613281zm0 0"/><path d="m157.183594 39-2.261719-1.304688v2.609376zm0 0"/><path d="m152.664062 41.609375-2.261718-1.304687v2.613281zm0 0"/><path d="m148.140625 44.222656-2.261719-1.304687v2.609375zm0 0"/><path d="m143.617188 46.832031-2.261719-1.304687v2.609375zm0 0"/><path d="m139.09375 49.445312-2.261719-1.308593v2.613281zm0 0"/><path d="m134.570312 52.054688-2.257812-1.304688v2.609375zm0 0"/><path d="m130.050781 54.667969-2.261719-1.308594v2.613281zm0 0"/><path d="m125.527344 57.277344-2.261719-1.304688v2.609375zm0 0"/><path d="m121.003906 59.886719-2.261718-1.304688v2.613281zm0 0"/><path d="m116.480469 62.5-2.261719-1.304688v2.609376zm0 0"/><path d="m111.960938 65.109375-2.261719-1.304687v2.613281zm0 0"/><path d="m107.4375 67.722656-2.261719-1.304687v2.609375zm0 0"/><path d="m102.914062 70.332031-2.261718-1.304687v2.609375zm0 0"/><path d="m98.390625 72.945312-2.261719-1.308593v2.613281zm0 0"/><path d="m93.867188 75.554688-2.257813-1.304688v2.609375zm0 0"/><path d="m89.347656 78.167969-2.261718-1.308594v2.613281zm0 0"/><path d="m84.824219 80.777344-2.261719-1.304688v2.609375zm0 0"/><path d="m80.300781 83.386719-2.261719-1.304688v2.613281zm0 0"/><path d="m75.777344 86-2.261719-1.304688v2.609376zm0 0"/><path d="m71.253906 88.609375-2.257812-1.304687v2.613281zm0 0"/><path d="m66.734375 91.222656-2.261719-1.304687v2.609375zm0 0"/><path d="m62.210938 93.832031-2.261719-1.304687v2.609375zm0 0"/><path d="m57.6875 96.445312-2.261719-1.308593v2.613281zm0 0"/><path d="m53.164062 99.054688-2.261718-1.304688v2.609375zm0 0"/><path d="m53.164062 260.945312-2.261718-1.304687v2.609375zm0 0"/><path d="m57.6875 263.554688-2.261719-1.304688v2.613281zm0 0"/><path d="m62.210938 266.167969-2.261719-1.304688v2.609375zm0 0"/><path d="m66.734375 268.777344-2.261719-1.304688v2.609375zm0 0"/><path d="m71.253906 271.390625-2.257812-1.308594v2.613281zm0 0"/><path d="m75.777344 274-2.261719-1.304688v2.609376zm0 0"/><path d="m80.300781 276.613281-2.261719-1.308593v2.613281zm0 0"/><path d="m84.824219 279.222656-2.261719-1.304687v2.609375zm0 0"/><path d="m89.347656 281.832031-2.261718-1.304687v2.613281zm0 0"/><path d="m93.867188 284.445312-2.257813-1.304687v2.609375zm0 0"/><path d="m98.390625 287.054688-2.261719-1.304688v2.613281zm0 0"/><path d="m102.914062 289.667969-2.261718-1.304688v2.609375zm0 0"/><path d="m107.4375 292.277344-2.261719-1.304688v2.609375zm0 0"/><path d="m111.960938 294.890625-2.261719-1.308594v2.613281zm0 0"/><path d="m116.480469 297.5-2.261719-1.304688v2.609376zm0 0"/><path d="m121.003906 300.113281-2.261718-1.308593v2.613281zm0 0"/><path d="m125.527344 302.722656-2.261719-1.304687v2.609375zm0 0"/><path d="m130.050781 305.332031-2.261719-1.304687v2.613281zm0 0"/><path d="m134.570312 307.945312-2.257812-1.304687v2.609375zm0 0"/><path d="m139.09375 310.554688-2.261719-1.304688v2.613281zm0 0"/><path d="m143.617188 313.167969-2.261719-1.304688v2.609375zm0 0"/><path d="m148.140625 315.777344-2.261719-1.304688v2.609375zm0 0"/><path d="m152.664062 318.390625-2.261718-1.308594v2.613281zm0 0"/><path d="m157.183594 321-2.261719-1.304688v2.609376zm0 0"/><path d="m161.707031 323.613281-2.261719-1.308593v2.613281zm0 0"/><path d="m166.230469 326.222656-2.261719-1.304687v2.609375zm0 0"/><path d="m170.753906 328.832031-2.261718-1.304687v2.613281zm0 0"/><path d="m175.277344 331.445312-2.261719-1.304687v2.609375zm0 0"/><path d="m320 258.332031-2.261719-1.304687v2.613281zm0 0"/><path d="m320 101.667969-2.261719-1.308594v2.613281zm0 0"/><path d="m179.796875 20.722656-2.261719-1.304687v2.609375zm0 0"/><path d="m44.121094 99.054688-2.261719-1.304688v2.609375zm0 0"/><path d="m44.121094 260.945312-2.261719-1.304687v2.609375zm0 0"/><path d="m179.796875 339.277344-2.261719-1.304688v2.609375zm0 0"/><path d="m324.519531 260.945312-2.261719-1.304687v2.609375zm0 0"/><path d="m324.519531 255.722656-2.261719-1.304687v2.609375zm0 0"/><path d="m324.519531 250.5-2.261719-1.304688v2.609376zm0 0"/><path d="m324.519531 245.277344-2.261719-1.304688v2.609375zm0 0"/><path d="m324.519531 240.054688-2.261719-1.304688v2.609375zm0 0"/><path d="m324.519531 234.832031-2.261719-1.304687v2.613281zm0 0"/><path d="m324.519531 229.609375-2.261719-1.304687v2.613281zm0 0"/><path d="m324.519531 224.390625-2.261719-1.308594v2.613281zm0 0"/><path d="m324.519531 219.167969-2.261719-1.308594v2.613281zm0 0"/><path d="m324.519531 213.945312-2.261719-1.304687v2.609375zm0 0"/><path d="m324.519531 208.722656-2.261719-1.304687v2.609375zm0 0"/><path d="m324.519531 203.5-2.261719-1.304688v2.609376zm0 0"/><path d="m324.519531 198.277344-2.261719-1.304688v2.609375zm0 0"/><path d="m324.519531 193.054688-2.261719-1.304688v2.609375zm0 0"/><path d="m324.519531 187.832031-2.261719-1.304687v2.613281zm0 0"/><path d="m324.519531 182.609375-2.261719-1.304687v2.613281zm0 0"/><path d="m324.519531 177.390625-2.261719-1.308594v2.613281zm0 0"/><path d="m324.519531 172.167969-2.261719-1.308594v2.613281zm0 0"/><path d="m324.519531 166.945312-2.261719-1.304687v2.609375zm0 0"/><path d="m324.519531 161.722656-2.261719-1.304687v2.609375zm0 0"/><path d="m324.519531 156.5-2.261719-1.304688v2.609376zm0 0"/><path d="m324.519531 151.277344-2.261719-1.304688v2.609375zm0 0"/><path d="m324.519531 146.054688-2.261719-1.304688v2.609375zm0 0"/><path d="m324.519531 140.832031-2.261719-1.304687v2.613281zm0 0"/><path d="m324.519531 135.609375-2.261719-1.304687v2.613281zm0 0"/><path d="m324.519531 130.390625-2.261719-1.308594v2.613281zm0 0"/><path d="m324.519531 125.167969-2.261719-1.308594v2.613281zm0 0"/><path d="m324.519531 119.945312-2.261719-1.304687v2.609375zm0 0"/><path d="m324.519531 114.722656-2.261719-1.304687v2.609375zm0 0"/><path d="m324.519531 109.5-2.261719-1.304688v2.609376zm0 0"/><path d="m324.519531 104.277344-2.261719-1.304688v2.609375zm0 0"/><path d="m324.519531 99.054688-2.261719-1.304688v2.609375zm0 0"/><path d="m179.796875 15.5-2.261719-1.304688v2.609376zm0 0"/><path d="m175.277344 18.109375-2.261719-1.304687v2.613281zm0 0"/><path d="m170.753906 20.722656-2.261718-1.304687v2.609375zm0 0"/><path d="m166.230469 23.332031-2.261719-1.304687v2.609375zm0 0"/><path d="m161.707031 25.945312-2.261719-1.308593v2.613281zm0 0"/><path d="m157.183594 28.554688-2.261719-1.304688v2.609375zm0 0"/><path d="m152.664062 31.167969-2.261718-1.308594v2.613281zm0 0"/><path d="m148.140625 33.777344-2.261719-1.304688v2.609375zm0 0"/><path d="m143.617188 36.386719-2.261719-1.304688v2.613281zm0 0"/><path d="m139.09375 39-2.261719-1.304688v2.609376zm0 0"/><path d="m134.570312 41.609375-2.257812-1.304687v2.613281zm0 0"/><path d="m130.050781 44.222656-2.261719-1.304687v2.609375zm0 0"/><path d="m125.527344 46.832031-2.261719-1.304687v2.609375zm0 0"/><path d="m121.003906 49.445312-2.261718-1.308593v2.613281zm0 0"/><path d="m116.480469 52.054688-2.261719-1.304688v2.609375zm0 0"/><path d="m111.960938 54.667969-2.261719-1.308594v2.613281zm0 0"/><path d="m107.4375 57.277344-2.261719-1.304688v2.609375zm0 0"/><path d="m102.914062 59.886719-2.261718-1.304688v2.613281zm0 0"/><path d="m98.390625 62.5-2.261719-1.304688v2.609376zm0 0"/><path d="m93.867188 65.109375-2.257813-1.304687v2.613281zm0 0"/><path d="m89.347656 67.722656-2.261718-1.304687v2.609375zm0 0"/><path d="m84.824219 70.332031-2.261719-1.304687v2.609375zm0 0"/><path d="m80.300781 72.945312-2.261719-1.308593v2.613281zm0 0"/><path d="m75.777344 75.554688-2.261719-1.304688v2.609375zm0 0"/><path d="m71.253906 78.167969-2.257812-1.308594v2.613281zm0 0"/><path d="m66.734375 80.777344-2.261719-1.304688v2.609375zm0 0"/><path d="m62.210938 83.386719-2.261719-1.304688v2.613281zm0 0"/><path d="m57.6875 86-2.261719-1.304688v2.609376zm0 0"/><path d="m53.164062 88.609375-2.261718-1.304687v2.613281zm0 0"/><path d="m48.644531 91.222656-2.261719-1.304687v2.609375zm0 0"/><path d="m44.121094 93.832031-2.261719-1.304687v2.609375zm0 0"/><path d="m39.597656 96.445312-2.261718-1.308593v2.613281zm0 0"/><path d="m39.597656 263.554688-2.261718-1.304688v2.613281zm0 0"/><path d="m44.121094 266.167969-2.261719-1.304688v2.609375zm0 0"/><path d="m48.644531 268.777344-2.261719-1.304688v2.609375zm0 0"/><path d="m53.164062 271.390625-2.261718-1.308594v2.613281zm0 0"/><path d="m57.6875 274-2.261719-1.304688v2.609376zm0 0"/><path d="m62.210938 276.613281-2.261719-1.308593v2.613281zm0 0"/><path d="m66.734375 279.222656-2.261719-1.304687v2.609375zm0 0"/><path d="m71.253906 281.832031-2.257812-1.304687v2.613281zm0 0"/><path d="m75.777344 284.445312-2.261719-1.304687v2.609375zm0 0"/><path d="m80.300781 287.054688-2.261719-1.304688v2.613281zm0 0"/><path d="m84.824219 289.667969-2.261719-1.304688v2.609375zm0 0"/><path d="m89.347656 292.277344-2.261718-1.304688v2.609375zm0 0"/><path d="m93.867188 294.890625-2.257813-1.308594v2.613281zm0 0"/><path d="m98.390625 297.5-2.261719-1.304688v2.609376zm0 0"/><path d="m102.914062 300.113281-2.261718-1.308593v2.613281zm0 0"/><path d="m107.4375 302.722656-2.261719-1.304687v2.609375zm0 0"/><path d="m111.960938 305.332031-2.261719-1.304687v2.613281zm0 0"/><path d="m116.480469 307.945312-2.261719-1.304687v2.609375zm0 0"/><path d="m121.003906 310.554688-2.261718-1.304688v2.613281zm0 0"/><path d="m125.527344 313.167969-2.261719-1.304688v2.609375zm0 0"/><path d="m130.050781 315.777344-2.261719-1.304688v2.609375zm0 0"/><path d="m134.570312 318.390625-2.257812-1.308594v2.613281zm0 0"/><path d="m139.09375 321-2.261719-1.304688v2.609376zm0 0"/><path d="m143.617188 323.613281-2.261719-1.308593v2.613281zm0 0"/><path d="m148.140625 326.222656-2.261719-1.304687v2.609375zm0 0"/><path d="m152.664062 328.832031-2.261718-1.304687v2.613281zm0 0"/><path d="m157.183594 331.445312-2.261719-1.304687v2.609375zm0 0"/><path d="m161.707031 334.054688-2.261719-1.304688v2.613281zm0 0"/><path d="m166.230469 336.667969-2.261719-1.304688v2.609375zm0 0"/><path d="m170.753906 339.277344-2.261718-1.304688v2.609375zm0 0"/><path d="m175.277344 341.890625-2.261719-1.308594v2.613281zm0 0"/><path d="m179.796875 344.5-2.261719-1.304688v2.609376zm0 0"/></g></svg>