<svg height="360pt" viewBox="0 0 360 360" width="360pt" xmlns="http://www.w3.org/2000/svg"><path d="m0 0h360v360h-360z" fill="#fff"/><g fill="#800080" fill-rule="evenodd"><path d="m179.800781 180 2.214844-1.277344v2.554688zm0 0"/><path d="m182.015625 181.277344 2.214844-1.277344v2.554688zm0 0"/><path d="m182.015625 178.722656 2.214844-1.277344v2.554688zm0 0"/><path d="m177.589844 178.722656 2.210937-1.277344v2.554688zm0 0"/><path d="m177.589844 181.277344 2.210937-1.277344v2.554688zm0 0"/><path d="m184.230469 182.554688 2.210937-1.277344v2.554687zm0 0"/><path d="m184.230469 177.445312 2.210937-1.277343v2.554687zm0 0"/><path d="m177.589844 176.167969 2.210937-1.277344v2.554687zm0 0"/><path d="m175.375 177.445312 2.214844-1.277343v2.554687zm0 0"/><path d="m175.375 182.554688 2.214844-1.277344v2.554687zm0 0"/><path d="m177.589844 183.832031 2.210937-1.277343v2.554687zm0 0"/><path d="m186.441406 181.277344 2.214844-1.277344v2.554688zm0 0"/><path d="m186.441406 178.722656 2.214844-1.277344v2.554688zm0 0"/><path d="m177.589844 173.609375 2.210937-1.277344v2.558594zm0 0"/><path d="m173.164062 176.167969 2.210938-1.277344v2.554687zm0 0"/><path d="m173.164062 183.832031 2.210938-1.277343v2.554687zm0 0"/><path d="m177.589844 186.390625 2.210937-1.28125v2.558594zm0 0"/><path d="m188.65625 185.109375 2.210938-1.277344v2.558594zm0 0"/><path d="m188.65625 182.554688 2.210938-1.277344v2.554687zm0 0"/><path d="m188.65625 177.445312 2.210938-1.277343v2.554687zm0 0"/><path d="m188.65625 174.890625 2.210938-1.28125v2.558594zm0 0"/><path d="m175.375 172.332031 2.214844-1.277343v2.554687zm0 0"/><path d="m173.164062 173.609375 2.210938-1.277344v2.558594zm0 0"/><path d="m173.164062 186.390625 2.210938-1.28125v2.558594zm0 0"/><path d="m175.375 187.667969 2.214844-1.277344v2.554687zm0 0"/><path d="m190.867188 183.832031 2.214843-1.277343v2.554687zm0 0"/><path d="m190.867188 176.167969 2.214843-1.277344v2.554687zm0 0"/><path d="m177.589844 168.5 2.210937-1.277344v2.554688zm0 0"/><path d="m175.375 169.777344 2.214844-1.277344v2.554688zm0 0"/><path d="m170.949219 172.332031 2.214843-1.277343v2.554687zm0 0"/><path d="m168.734375 173.609375 2.214844-1.277344v2.558594zm0 0"/><path d="m168.734375 186.390625 2.214844-1.28125v2.558594zm0 0"/><path d="m170.949219 187.667969 2.214843-1.277344v2.554687zm0 0"/><path d="m175.375 190.222656 2.214844-1.277344v2.554688zm0 0"/><path d="m177.589844 191.5 2.210937-1.277344v2.554688zm0 0"/><path d="m193.082031 187.667969 2.210938-1.277344v2.554687zm0 0"/><path d="m193.082031 185.109375 2.210938-1.277344v2.558594zm0 0"/><path d="m193.082031 174.890625 2.210938-1.28125v2.558594zm0 0"/><path d="m193.082031 172.332031 2.210938-1.277343v2.554687zm0 0"/><path d="m175.375 167.222656 2.214844-1.277344v2.554688zm0 0"/><path d="m168.734375 171.054688 2.214844-1.277344v2.554687zm0 0"/><path d="m168.734375 188.945312 2.214844-1.277343v2.554687zm0 0"/><path d="m175.375 192.777344 2.214844-1.277344v2.554688zm0 0"/><path d="m195.292969 186.390625 2.214843-1.28125v2.558594zm0 0"/><path d="m195.292969 173.609375 2.214843-1.277344v2.558594zm0 0"/><path d="m177.589844 163.386719 2.210937-1.277344v2.558594zm0 0"/><path d="m175.375 164.667969 2.214844-1.28125v2.558593zm0 0"/><path d="m166.523438 169.777344 2.210937-1.277344v2.554688zm0 0"/><path d="m164.308594 171.054688 2.214844-1.277344v2.554687zm0 0"/><path d="m164.308594 188.945312 2.214844-1.277343v2.554687zm0 0"/><path d="m166.523438 190.222656 2.210937-1.277344v2.554688zm0 0"/><path d="m175.375 195.332031 2.214844-1.277343v2.558593zm0 0"/><path d="m177.589844 196.613281 2.210937-1.28125v2.558594zm0 0"/><path d="m197.507812 190.222656 2.214844-1.277344v2.554688zm0 0"/><path d="m197.507812 187.667969 2.214844-1.277344v2.554687zm0 0"/><path d="m197.507812 172.332031 2.214844-1.277343v2.554687zm0 0"/><path d="m197.507812 169.777344 2.214844-1.277344v2.554688zm0 0"/><path d="m175.375 162.109375 2.214844-1.277344v2.554688zm0 0"/><path d="m164.308594 168.5 2.214844-1.277344v2.554688zm0 0"/><path d="m164.308594 191.5 2.214844-1.277344v2.554688zm0 0"/><path d="m175.375 197.890625 2.214844-1.277344v2.554688zm0 0"/><path d="m199.722656 188.945312 2.210938-1.277343v2.554687zm0 0"/><path d="m199.722656 171.054688 2.210938-1.277344v2.554687zm0 0"/><path d="m177.589844 158.277344 2.210937-1.277344v2.554688zm0 0"/><path d="m175.375 159.554688 2.214844-1.277344v2.554687zm0 0"/><path d="m162.097656 167.222656 2.210938-1.277344v2.554688zm0 0"/><path d="m159.882812 168.5 2.214844-1.277344v2.554688zm0 0"/><path d="m159.882812 191.5 2.214844-1.277344v2.554688zm0 0"/><path d="m162.097656 192.777344 2.210938-1.277344v2.554688zm0 0"/><path d="m175.375 200.445312 2.214844-1.277343v2.554687zm0 0"/><path d="m177.589844 201.722656 2.210937-1.277344v2.554688zm0 0"/><path d="m201.933594 192.777344 2.214844-1.277344v2.554688zm0 0"/><path d="m201.933594 190.222656 2.214844-1.277344v2.554688zm0 0"/><path d="m201.933594 169.777344 2.214844-1.277344v2.554688zm0 0"/><path d="m201.933594 167.222656 2.214844-1.277344v2.554688zm0 0"/><path d="m175.375 157 2.214844-1.277344v2.554688zm0 0"/><path d="m159.882812 165.945312 2.214844-1.277343v2.554687zm0 0"/><path d="m159.882812 194.054688 2.214844-1.277344v2.554687zm0 0"/><path d="m175.375 203 2.214844-1.277344v2.554688zm0 0"/><path d="m204.148438 191.5 2.210937-1.277344v2.554688zm0 0"/><path d="m204.148438 168.5 2.210937-1.277344v2.554688zm0 0"/><path d="m177.589844 153.167969 2.210937-1.28125v2.558593zm0 0"/><path d="m175.375 154.445312 2.214844-1.277343v2.554687zm0 0"/><path d="m157.671875 164.667969 2.210937-1.28125v2.558593zm0 0"/><path d="m155.457031 165.945312 2.214844-1.277343v2.554687zm0 0"/><path d="m155.457031 194.054688 2.214844-1.277344v2.554687zm0 0"/><path d="m157.671875 195.332031 2.210937-1.277343v2.558593zm0 0"/><path d="m175.375 205.554688 2.214844-1.277344v2.554687zm0 0"/><path d="m177.589844 206.832031 2.210937-1.277343v2.558593zm0 0"/><path d="m206.359375 195.332031 2.214844-1.277343v2.558593zm0 0"/><path d="m206.359375 192.777344 2.214844-1.277344v2.554688zm0 0"/><path d="m206.359375 167.222656 2.214844-1.277344v2.554688zm0 0"/><path d="m206.359375 164.667969 2.214844-1.28125v2.558593zm0 0"/><path d="m175.375 151.886719 2.214844-1.277344v2.558594zm0 0"/><path d="m155.457031 163.386719 2.214844-1.277344v2.558594zm0 0"/><path d="m155.457031 196.613281 2.214844-1.28125v2.558594zm0 0"/><path d="m175.375 208.113281 2.214844-1.28125v2.558594zm0 0"/><path d="m208.574219 194.054688 2.214843-1.277344v2.554687zm0 0"/><path d="m208.574219 165.945312 2.214843-1.277343v2.554687zm0 0"/><path d="m177.589844 148.054688 2.210937-1.277344v2.554687zm0 0"/><path d="m175.375 149.332031 2.214844-1.277343v2.554687zm0 0"/><path d="m153.242188 162.109375 2.214843-1.277344v2.554688zm0 0"/><path d="m151.03125 163.386719 2.210938-1.277344v2.558594zm0 0"/><path d="m151.03125 196.613281 2.210938-1.28125v2.558594zm0 0"/><path d="m153.242188 197.890625 2.214843-1.277344v2.554688zm0 0"/><path d="m175.375 210.667969 2.214844-1.277344v2.554687zm0 0"/><path d="m177.589844 211.945312 2.210937-1.277343v2.554687zm0 0"/><path d="m210.789062 197.890625 2.210938-1.277344v2.554688zm0 0"/><path d="m210.789062 195.332031 2.210938-1.277343v2.558593zm0 0"/><path d="m210.789062 164.667969 2.210938-1.28125v2.558593zm0 0"/><path d="m210.789062 162.109375 2.210938-1.277344v2.554688zm0 0"/><path d="m175.375 146.777344 2.214844-1.277344v2.554688zm0 0"/><path d="m151.03125 160.832031 2.210938-1.277343v2.554687zm0 0"/><path d="m151.03125 199.167969 2.210938-1.277344v2.554687zm0 0"/><path d="m175.375 213.222656 2.214844-1.277344v2.554688zm0 0"/><path d="m213 196.613281 2.214844-1.28125v2.558594zm0 0"/><path d="m213 163.386719 2.214844-1.277344v2.558594zm0 0"/><path d="m177.589844 142.945312 2.210937-1.277343v2.554687zm0 0"/><path d="m175.375 144.222656 2.214844-1.277344v2.554688zm0 0"/><path d="m148.816406 159.554688 2.214844-1.277344v2.554687zm0 0"/><path d="m146.605469 160.832031 2.210937-1.277343v2.554687zm0 0"/><path d="m146.605469 199.167969 2.210937-1.277344v2.554687zm0 0"/><path d="m148.816406 200.445312 2.214844-1.277343v2.554687zm0 0"/><path d="m175.375 215.777344 2.214844-1.277344v2.554688zm0 0"/><path d="m177.589844 217.054688 2.210937-1.277344v2.554687zm0 0"/><path d="m215.214844 200.445312 2.210937-1.277343v2.554687zm0 0"/><path d="m215.214844 197.890625 2.210937-1.277344v2.554688zm0 0"/><path d="m215.214844 162.109375 2.210937-1.277344v2.554688zm0 0"/><path d="m215.214844 159.554688 2.210937-1.277344v2.554687zm0 0"/><path d="m175.375 141.667969 2.214844-1.28125v2.558593zm0 0"/><path d="m146.605469 158.277344 2.210937-1.277344v2.554688zm0 0"/><path d="m146.605469 201.722656 2.210937-1.277344v2.554688zm0 0"/><path d="m175.375 218.332031 2.214844-1.277343v2.558593zm0 0"/><path d="m217.425781 199.167969 2.214844-1.277344v2.554687zm0 0"/><path d="m217.425781 160.832031 2.214844-1.277343v2.554687zm0 0"/><path d="m177.589844 137.832031 2.210937-1.277343v2.554687zm0 0"/><path d="m175.375 139.109375 2.214844-1.277344v2.554688zm0 0"/><path d="m144.390625 157 2.214844-1.277344v2.554688zm0 0"/><path d="m142.179688 158.277344 2.210937-1.277344v2.554688zm0 0"/><path d="m142.179688 201.722656 2.210937-1.277344v2.554688zm0 0"/><path d="m144.390625 203 2.214844-1.277344v2.554688zm0 0"/><path d="m175.375 220.890625 2.214844-1.277344v2.554688zm0 0"/><path d="m177.589844 222.167969 2.210937-1.277344v2.554687zm0 0"/><path d="m219.640625 203 2.210937-1.277344v2.554688zm0 0"/><path d="m219.640625 200.445312 2.210937-1.277343v2.554687zm0 0"/><path d="m219.640625 159.554688 2.210937-1.277344v2.554687zm0 0"/><path d="m219.640625 157 2.210937-1.277344v2.554688zm0 0"/><path d="m175.375 136.554688 2.214844-1.277344v2.554687zm0 0"/><path d="m142.179688 155.722656 2.210937-1.277344v2.554688zm0 0"/><path d="m142.179688 204.277344 2.210937-1.277344v2.554688zm0 0"/><path d="m175.375 223.445312 2.214844-1.277343v2.554687zm0 0"/><path d="m221.851562 201.722656 2.214844-1.277344v2.554688zm0 0"/><path d="m221.851562 158.277344 2.214844-1.277344v2.554688zm0 0"/><path d="m177.589844 132.722656 2.210937-1.277344v2.554688zm0 0"/><path d="m175.375 134 2.214844-1.277344v2.554688zm0 0"/><path d="m139.964844 154.445312 2.214844-1.277343v2.554687zm0 0"/><path d="m137.75 155.722656 2.214844-1.277344v2.554688zm0 0"/><path d="m137.75 204.277344 2.214844-1.277344v2.554688zm0 0"/><path d="m139.964844 205.554688 2.214844-1.277344v2.554687zm0 0"/><path d="m175.375 226 2.214844-1.277344v2.554688zm0 0"/><path d="m177.589844 227.277344 2.210937-1.277344v2.554688zm0 0"/><path d="m224.066406 205.554688 2.214844-1.277344v2.554687zm0 0"/><path d="m224.066406 203 2.214844-1.277344v2.554688zm0 0"/><path d="m224.066406 157 2.214844-1.277344v2.554688zm0 0"/><path d="m224.066406 154.445312 2.214844-1.277343v2.554687zm0 0"/><path d="m175.375 131.445312 2.214844-1.28125v2.558594zm0 0"/><path d="m137.75 153.167969 2.214844-1.28125v2.558593zm0 0"/><path d="m137.75 206.832031 2.214844-1.277343v2.558593zm0 0"/><path d="m175.375 228.554688 2.214844-1.277344v2.558594zm0 0"/><path d="m226.28125 204.277344 2.210938-1.277344v2.554688zm0 0"/><path d="m226.28125 155.722656 2.210938-1.277344v2.554688zm0 0"/><path d="m177.589844 127.609375 2.210937-1.277344v2.554688zm0 0"/><path d="m175.375 128.886719 2.214844-1.277344v2.554687zm0 0"/><path d="m135.539062 151.886719 2.210938-1.277344v2.558594zm0 0"/><path d="m133.324219 153.167969 2.214843-1.28125v2.558593zm0 0"/><path d="m133.324219 206.832031 2.214843-1.277343v2.558593zm0 0"/><path d="m135.539062 208.113281 2.210938-1.28125v2.558594zm0 0"/><path d="m175.375 231.113281 2.214844-1.277343v2.554687zm0 0"/><path d="m177.589844 232.390625 2.210937-1.277344v2.554688zm0 0"/><path d="m228.492188 208.113281 2.214843-1.28125v2.558594zm0 0"/><path d="m228.492188 205.554688 2.214843-1.277344v2.554687zm0 0"/><path d="m228.492188 154.445312 2.214843-1.277343v2.554687zm0 0"/><path d="m228.492188 151.886719 2.214843-1.277344v2.558594zm0 0"/><path d="m175.375 126.332031 2.214844-1.277343v2.554687zm0 0"/><path d="m133.324219 150.609375 2.214843-1.277344v2.554688zm0 0"/><path d="m133.324219 209.390625 2.214843-1.277344v2.554688zm0 0"/><path d="m175.375 233.667969 2.214844-1.277344v2.554687zm0 0"/><path d="m230.707031 206.832031 2.210938-1.277343v2.558593zm0 0"/><path d="m230.707031 153.167969 2.210938-1.28125v2.558593zm0 0"/><path d="m177.589844 122.5 2.210937-1.277344v2.554688zm0 0"/><path d="m175.375 123.777344 2.214844-1.277344v2.554688zm0 0"/><path d="m131.113281 149.332031 2.210938-1.277343v2.554687zm0 0"/><path d="m128.898438 150.609375 2.214843-1.277344v2.554688zm0 0"/><path d="m128.898438 209.390625 2.214843-1.277344v2.554688zm0 0"/><path d="m131.113281 210.667969 2.210938-1.277344v2.554687zm0 0"/><path d="m175.375 236.222656 2.214844-1.277344v2.554688zm0 0"/><path d="m177.589844 237.5 2.210937-1.277344v2.554688zm0 0"/><path d="m232.917969 210.667969 2.214843-1.277344v2.554687zm0 0"/><path d="m232.917969 208.113281 2.214843-1.28125v2.558594zm0 0"/><path d="m232.917969 151.886719 2.214843-1.277344v2.558594zm0 0"/><path d="m232.917969 149.332031 2.214843-1.277343v2.554687zm0 0"/><path d="m175.375 121.222656 2.214844-1.277344v2.554688zm0 0"/><path d="m128.898438 148.054688 2.214843-1.277344v2.554687zm0 0"/><path d="m128.898438 211.945312 2.214843-1.277343v2.554687zm0 0"/><path d="m175.375 238.777344 2.214844-1.277344v2.554688zm0 0"/><path d="m235.132812 209.390625 2.210938-1.277344v2.554688zm0 0"/><path d="m235.132812 150.609375 2.210938-1.277344v2.554688zm0 0"/><path d="m177.589844 117.386719 2.210937-1.277344v2.554687zm0 0"/><path d="m175.375 118.664062 2.214844-1.277343v2.558593zm0 0"/><path d="m126.683594 146.777344 2.214844-1.277344v2.554688zm0 0"/><path d="m124.472656 148.054688 2.210938-1.277344v2.554687zm0 0"/><path d="m124.472656 211.945312 2.210938-1.277343v2.554687zm0 0"/><path d="m126.683594 213.222656 2.214844-1.277344v2.554688zm0 0"/><path d="m175.375 241.335938 2.214844-1.28125v2.558593zm0 0"/><path d="m177.589844 242.613281 2.210937-1.277343v2.554687zm0 0"/><path d="m237.34375 213.222656 2.214844-1.277344v2.554688zm0 0"/><path d="m237.34375 210.667969 2.214844-1.277344v2.554687zm0 0"/><path d="m237.34375 149.332031 2.214844-1.277343v2.554687zm0 0"/><path d="m237.34375 146.777344 2.214844-1.277344v2.554688zm0 0"/><path d="m175.375 116.109375 2.214844-1.277344v2.554688zm0 0"/><path d="m124.472656 145.5 2.210938-1.277344v2.554688zm0 0"/><path d="m124.472656 214.5 2.210938-1.277344v2.554688zm0 0"/><path d="m175.375 243.890625 2.214844-1.277344v2.554688zm0 0"/><path d="m239.558594 211.945312 2.214844-1.277343v2.554687zm0 0"/><path d="m239.558594 148.054688 2.214844-1.277344v2.554687zm0 0"/><path d="m177.589844 112.277344 2.210937-1.277344v2.554688zm0 0"/><path d="m175.375 113.554688 2.214844-1.277344v2.554687zm0 0"/><path d="m122.257812 144.222656 2.214844-1.277344v2.554688zm0 0"/><path d="m120.046875 145.5 2.210937-1.277344v2.554688zm0 0"/><path d="m120.046875 214.5 2.210937-1.277344v2.554688zm0 0"/><path d="m122.257812 215.777344 2.214844-1.277344v2.554688zm0 0"/><path d="m175.375 246.445312 2.214844-1.277343v2.554687zm0 0"/><path d="m177.589844 247.722656 2.210937-1.277344v2.554688zm0 0"/><path d="m241.773438 215.777344 2.210937-1.277344v2.554688zm0 0"/><path d="m241.773438 213.222656 2.210937-1.277344v2.554688zm0 0"/><path d="m241.773438 146.777344 2.210937-1.277344v2.554688zm0 0"/><path d="m241.773438 144.222656 2.210937-1.277344v2.554688zm0 0"/><path d="m175.375 111 2.214844-1.277344v2.554688zm0 0"/><path d="m120.046875 142.945312 2.210937-1.277343v2.554687zm0 0"/><path d="m120.046875 217.054688 2.210937-1.277344v2.554687zm0 0"/><path d="m175.375 249 2.214844-1.277344v2.554688zm0 0"/><path d="m243.984375 214.5 2.214844-1.277344v2.554688zm0 0"/><path d="m243.984375 145.5 2.214844-1.277344v2.554688zm0 0"/><path d="m177.589844 107.164062 2.210937-1.277343v2.558593zm0 0"/><path d="m175.375 108.445312 2.214844-1.28125v2.558594zm0 0"/><path d="m117.832031 141.667969 2.214844-1.28125v2.558593zm0 0"/><path d="m115.621094 142.945312 2.210937-1.277343v2.554687zm0 0"/><path d="m115.621094 217.054688 2.210937-1.277344v2.554687zm0 0"/><path d="m117.832031 218.332031 2.214844-1.277343v2.558593zm0 0"/><path d="m175.375 251.554688 2.214844-1.277344v2.558594zm0 0"/><path d="m177.589844 252.835938 2.210937-1.28125v2.558593zm0 0"/><path d="m246.199219 218.332031 2.210937-1.277343v2.558593zm0 0"/><path d="m246.199219 215.777344 2.210937-1.277344v2.554688zm0 0"/><path d="m246.199219 144.222656 2.210937-1.277344v2.554688zm0 0"/><path d="m246.199219 141.667969 2.210937-1.28125v2.558593zm0 0"/><path d="m175.375 105.886719 2.214844-1.277344v2.554687zm0 0"/><path d="m115.621094 140.386719 2.210937-1.277344v2.558594zm0 0"/><path d="m115.621094 219.613281 2.210937-1.28125v2.558594zm0 0"/><path d="m175.375 254.113281 2.214844-1.277343v2.554687zm0 0"/><path d="m248.410156 217.054688 2.214844-1.277344v2.554687zm0 0"/><path d="m248.410156 142.945312 2.214844-1.277343v2.554687zm0 0"/><path d="m177.589844 102.054688 2.210937-1.277344v2.554687zm0 0"/><path d="m175.375 103.332031 2.214844-1.277343v2.554687zm0 0"/><path d="m113.40625 139.109375 2.214844-1.277344v2.554688zm0 0"/><path d="m111.191406 140.386719 2.214844-1.277344v2.558594zm0 0"/><path d="m111.191406 219.613281 2.214844-1.28125v2.558594zm0 0"/><path d="m113.40625 220.890625 2.214844-1.277344v2.554688zm0 0"/><path d="m175.375 256.667969 2.214844-1.277344v2.554687zm0 0"/><path d="m177.589844 257.945312 2.210937-1.277343v2.554687zm0 0"/><path d="m250.625 220.890625 2.214844-1.277344v2.554688zm0 0"/><path d="m250.625 218.332031 2.214844-1.277343v2.558593zm0 0"/><path d="m250.625 141.667969 2.214844-1.28125v2.558593zm0 0"/><path d="m250.625 139.109375 2.214844-1.277344v2.554688zm0 0"/><path d="m175.375 100.777344 2.214844-1.277344v2.554688zm0 0"/><path d="m111.191406 137.832031 2.214844-1.277343v2.554687zm0 0"/><path d="m111.191406 222.167969 2.214844-1.277344v2.554687zm0 0"/><path d="m175.375 259.222656 2.214844-1.277344v2.554688zm0 0"/><path d="m252.839844 219.613281 2.210937-1.28125v2.558594zm0 0"/><path d="m252.839844 140.386719 2.210937-1.277344v2.558594zm0 0"/><path d="m177.589844 96.941406 2.210937-1.277344v2.558594zm0 0"/><path d="m175.375 98.222656 2.214844-1.28125v2.558594zm0 0"/><path d="m108.980469 136.554688 2.210937-1.277344v2.554687zm0 0"/><path d="m106.765625 137.832031 2.214844-1.277343v2.554687zm0 0"/><path d="m106.765625 222.167969 2.214844-1.277344v2.554687zm0 0"/><path d="m108.980469 223.445312 2.210937-1.277343v2.554687zm0 0"/><path d="m175.375 261.777344 2.214844-1.277344v2.558594zm0 0"/><path d="m177.589844 263.058594 2.210937-1.28125v2.558594zm0 0"/><path d="m255.050781 223.445312 2.214844-1.277343v2.554687zm0 0"/><path d="m255.050781 220.890625 2.214844-1.277344v2.554688zm0 0"/><path d="m255.050781 139.109375 2.214844-1.277344v2.554688zm0 0"/><path d="m255.050781 136.554688 2.214844-1.277344v2.554687zm0 0"/><path d="m175.375 95.664062 2.214844-1.277343v2.554687zm0 0"/><path d="m106.765625 135.277344 2.214844-1.277344v2.554688zm0 0"/><path d="m106.765625 224.722656 2.214844-1.277344v2.554688zm0 0"/><path d="m175.375 264.335938 2.214844-1.277344v2.554687zm0 0"/><path d="m257.265625 222.167969 2.210937-1.277344v2.554687zm0 0"/><path d="m257.265625 137.832031 2.210937-1.277343v2.554687zm0 0"/><path d="m177.589844 91.832031 2.210937-1.277343v2.554687zm0 0"/><path d="m175.375 93.109375 2.214844-1.277344v2.554688zm0 0"/><path d="m104.554688 134 2.210937-1.277344v2.554688zm0 0"/><path d="m102.339844 135.277344 2.214844-1.277344v2.554688zm0 0"/><path d="m102.339844 224.722656 2.214844-1.277344v2.554688zm0 0"/><path d="m104.554688 226 2.210937-1.277344v2.554688zm0 0"/><path d="m175.375 266.890625 2.214844-1.277344v2.554688zm0 0"/><path d="m177.589844 268.167969 2.210937-1.277344v2.554687zm0 0"/><path d="m259.476562 226 2.214844-1.277344v2.554688zm0 0"/><path d="m259.476562 223.445312 2.214844-1.277343v2.554687zm0 0"/><path d="m259.476562 136.554688 2.214844-1.277344v2.554687zm0 0"/><path d="m259.476562 134 2.214844-1.277344v2.554688zm0 0"/><path d="m175.375 90.554688 2.214844-1.277344v2.554687zm0 0"/><path d="m102.339844 132.722656 2.214844-1.277344v2.554688zm0 0"/><path d="m102.339844 227.277344 2.214844-1.277344v2.554688zm0 0"/><path d="m175.375 269.445312 2.214844-1.277343v2.554687zm0 0"/><path d="m261.691406 224.722656 2.210938-1.277344v2.554688zm0 0"/><path d="m261.691406 135.277344 2.210938-1.277344v2.554688zm0 0"/><path d="m177.589844 86.722656 2.210937-1.28125v2.558594zm0 0"/><path d="m175.375 88 2.214844-1.277344v2.554688zm0 0"/><path d="m100.125 131.445312 2.214844-1.28125v2.558594zm0 0"/><path d="m97.914062 132.722656 2.210938-1.277344v2.554688zm0 0"/><path d="m97.914062 227.277344 2.210938-1.277344v2.554688zm0 0"/><path d="m100.125 228.554688 2.214844-1.277344v2.558594zm0 0"/><path d="m175.375 272 2.214844-1.277344v2.554688zm0 0"/><path d="m177.589844 273.277344 2.210937-1.277344v2.558594zm0 0"/><path d="m263.902344 228.554688 2.214844-1.277344v2.558594zm0 0"/><path d="m263.902344 226 2.214844-1.277344v2.554688zm0 0"/><path d="m263.902344 134 2.214844-1.277344v2.554688zm0 0"/><path d="m263.902344 131.445312 2.214844-1.28125v2.558594zm0 0"/><path d="m175.375 85.441406 2.214844-1.277344v2.558594zm0 0"/><path d="m97.914062 130.164062 2.210938-1.277343v2.558593zm0 0"/><path d="m97.914062 229.835938 2.210938-1.28125v2.558593zm0 0"/><path d="m175.375 274.558594 2.214844-1.28125v2.558594zm0 0"/><path d="m266.117188 227.277344 2.214843-1.277344v2.554688zm0 0"/><path d="m266.117188 132.722656 2.214843-1.277344v2.554688zm0 0"/><path d="m177.589844 81.609375 2.210937-1.277344v2.554688zm0 0"/><path d="m175.375 82.886719 2.214844-1.277344v2.554687zm0 0"/><path d="m95.699219 128.886719 2.214843-1.277344v2.554687zm0 0"/><path d="m93.488281 130.164062 2.210938-1.277343v2.558593zm0 0"/><path d="m93.488281 229.835938 2.210938-1.28125v2.558593zm0 0"/><path d="m95.699219 231.113281 2.214843-1.277343v2.554687zm0 0"/><path d="m175.375 277.113281 2.214844-1.277343v2.554687zm0 0"/><path d="m177.589844 278.390625 2.210937-1.277344v2.554688zm0 0"/><path d="m268.332031 231.113281 2.210938-1.277343v2.554687zm0 0"/><path d="m268.332031 228.554688 2.210938-1.277344v2.558594zm0 0"/><path d="m268.332031 131.445312 2.210938-1.28125v2.558594zm0 0"/><path d="m268.332031 128.886719 2.210938-1.277344v2.554687zm0 0"/><path d="m175.375 80.332031 2.214844-1.277343v2.554687zm0 0"/><path d="m93.488281 127.609375 2.210938-1.277344v2.554688zm0 0"/><path d="m93.488281 232.390625 2.210938-1.277344v2.554688zm0 0"/><path d="m175.375 279.667969 2.214844-1.277344v2.554687zm0 0"/><path d="m270.542969 229.835938 2.214843-1.28125v2.558593zm0 0"/><path d="m270.542969 130.164062 2.214843-1.277343v2.558593zm0 0"/><path d="m177.589844 76.5 2.210937-1.277344v2.554688zm0 0"/><path d="m175.375 77.777344 2.214844-1.277344v2.554688zm0 0"/><path d="m91.273438 126.332031 2.214843-1.277343v2.554687zm0 0"/><path d="m89.0625 127.609375 2.210938-1.277344v2.554688zm0 0"/><path d="m89.0625 232.390625 2.210938-1.277344v2.554688zm0 0"/><path d="m91.273438 233.667969 2.214843-1.277344v2.554687zm0 0"/><path d="m175.375 282.222656 2.214844-1.277344v2.554688zm0 0"/><path d="m177.589844 283.5 2.210937-1.277344v2.554688zm0 0"/><path d="m272.757812 233.667969 2.210938-1.277344v2.554687zm0 0"/><path d="m272.757812 231.113281 2.210938-1.277343v2.554687zm0 0"/><path d="m272.757812 128.886719 2.210938-1.277344v2.554687zm0 0"/><path d="m272.757812 126.332031 2.210938-1.277343v2.554687zm0 0"/><path d="m175.375 75.222656 2.214844-1.28125v2.558594zm0 0"/><path d="m89.0625 125.054688 2.210938-1.277344v2.554687zm0 0"/><path d="m89.0625 234.945312 2.210938-1.277343v2.554687zm0 0"/><path d="m175.375 284.777344 2.214844-1.277344v2.558594zm0 0"/><path d="m274.96875 232.390625 2.214844-1.277344v2.554688zm0 0"/><path d="m274.96875 127.609375 2.214844-1.277344v2.554688zm0 0"/><path d="m177.589844 71.386719 2.210937-1.277344v2.554687zm0 0"/><path d="m175.375 72.664062 2.214844-1.277343v2.554687zm0 0"/><path d="m86.847656 123.777344 2.214844-1.277344v2.554688zm0 0"/><path d="m84.632812 125.054688 2.214844-1.277344v2.554687zm0 0"/><path d="m84.632812 234.945312 2.214844-1.277343v2.554687zm0 0"/><path d="m86.847656 236.222656 2.214844-1.277344v2.554688zm0 0"/><path d="m175.375 287.335938 2.214844-1.277344v2.554687zm0 0"/><path d="m177.589844 288.613281 2.210937-1.277343v2.554687zm0 0"/><path d="m277.183594 236.222656 2.214844-1.277344v2.554688zm0 0"/><path d="m277.183594 233.667969 2.214844-1.277344v2.554687zm0 0"/><path d="m277.183594 126.332031 2.214844-1.277343v2.554687zm0 0"/><path d="m277.183594 123.777344 2.214844-1.277344v2.554688zm0 0"/><path d="m175.375 70.109375 2.214844-1.277344v2.554688zm0 0"/><path d="m84.632812 122.5 2.214844-1.277344v2.554688zm0 0"/><path d="m84.632812 237.5 2.214844-1.277344v2.554688zm0 0"/><path d="m175.375 289.890625 2.214844-1.277344v2.554688zm0 0"/><path d="m279.398438 234.945312 2.210937-1.277343v2.554687zm0 0"/><path d="m279.398438 125.054688 2.210937-1.277344v2.554687zm0 0"/><path d="m177.589844 66.277344 2.210937-1.277344v2.554688zm0 0"/><path d="m175.375 67.554688 2.214844-1.277344v2.554687zm0 0"/><path d="m82.421875 121.222656 2.210937-1.277344v2.554688zm0 0"/><path d="m80.207031 122.5 2.214844-1.277344v2.554688zm0 0"/><path d="m80.207031 237.5 2.214844-1.277344v2.554688zm0 0"/><path d="m82.421875 238.777344 2.210937-1.277344v2.554688zm0 0"/><path d="m175.375 292.445312 2.214844-1.277343v2.554687zm0 0"/><path d="m177.589844 293.722656 2.210937-1.277344v2.554688zm0 0"/><path d="m281.609375 238.777344 2.214844-1.277344v2.554688zm0 0"/><path d="m281.609375 236.222656 2.214844-1.277344v2.554688zm0 0"/><path d="m281.609375 123.777344 2.214844-1.277344v2.554688zm0 0"/><path d="m281.609375 121.222656 2.214844-1.277344v2.554688zm0 0"/><path d="m175.375 65 2.214844-1.28125v2.558594zm0 0"/><path d="m80.207031 119.945312 2.214844-1.28125v2.558594zm0 0"/><path d="m80.207031 240.054688 2.214844-1.277344v2.558594zm0 0"/><path d="m175.375 295 2.214844-1.277344v2.558594zm0 0"/><path d="m283.824219 237.5 2.210937-1.277344v2.554688zm0 0"/><path d="m283.824219 122.5 2.210937-1.277344v2.554688zm0 0"/><path d="m177.589844 61.164062 2.210937-1.277343v2.554687zm0 0"/><path d="m175.375 62.441406 2.214844-1.277344v2.554688zm0 0"/><path d="m77.996094 118.664062 2.210937-1.277343v2.558593zm0 0"/><path d="m75.78125 119.945312 2.214844-1.28125v2.558594zm0 0"/><path d="m75.78125 240.054688 2.214844-1.277344v2.558594zm0 0"/><path d="m77.996094 241.335938 2.210937-1.28125v2.558593zm0 0"/><path d="m175.375 297.558594 2.214844-1.277344v2.554688zm0 0"/><path d="m177.589844 298.835938 2.210937-1.277344v2.554687zm0 0"/><path d="m286.035156 241.335938 2.214844-1.28125v2.558593zm0 0"/><path d="m286.035156 238.777344 2.214844-1.277344v2.554688zm0 0"/><path d="m286.035156 121.222656 2.214844-1.277344v2.554688zm0 0"/><path d="m286.035156 118.664062 2.214844-1.277343v2.558593zm0 0"/><path d="m175.375 59.886719 2.214844-1.277344v2.554687zm0 0"/><path d="m75.78125 117.386719 2.214844-1.277344v2.554687zm0 0"/><path d="m75.78125 242.613281 2.214844-1.277343v2.554687zm0 0"/><path d="m175.375 300.113281 2.214844-1.277343v2.554687zm0 0"/><path d="m288.25 240.054688 2.210938-1.277344v2.558594zm0 0"/><path d="m288.25 119.945312 2.210938-1.28125v2.558594zm0 0"/><path d="m177.589844 56.054688 2.210937-1.277344v2.554687zm0 0"/><path d="m175.375 57.332031 2.214844-1.277343v2.554687zm0 0"/><path d="m73.570312 116.109375 2.210938-1.277344v2.554688zm0 0"/><path d="m71.355469 117.386719 2.214843-1.277344v2.554687zm0 0"/><path d="m71.355469 242.613281 2.214843-1.277343v2.554687zm0 0"/><path d="m73.570312 243.890625 2.210938-1.277344v2.554688zm0 0"/><path d="m175.375 302.667969 2.214844-1.277344v2.554687zm0 0"/><path d="m177.589844 303.945312 2.210937-1.277343v2.554687zm0 0"/><path d="m290.460938 243.890625 2.214843-1.277344v2.554688zm0 0"/><path d="m290.460938 241.335938 2.214843-1.28125v2.558593zm0 0"/><path d="m290.460938 118.664062 2.214843-1.277343v2.558593zm0 0"/><path d="m290.460938 116.109375 2.214843-1.277344v2.554688zm0 0"/><path d="m175.375 54.777344 2.214844-1.277344v2.554688zm0 0"/><path d="m71.355469 114.832031 2.214843-1.277343v2.554687zm0 0"/><path d="m71.355469 245.167969 2.214843-1.277344v2.554687zm0 0"/><path d="m175.375 305.222656 2.214844-1.277344v2.554688zm0 0"/><path d="m292.675781 242.613281 2.214844-1.277343v2.554687zm0 0"/><path d="m292.675781 117.386719 2.214844-1.277344v2.554687zm0 0"/><path d="m177.589844 50.941406 2.210937-1.277344v2.554688zm0 0"/><path d="m175.375 52.21875 2.214844-1.277344v2.558594zm0 0"/><path d="m69.140625 113.554688 2.214844-1.277344v2.554687zm0 0"/><path d="m66.929688 114.832031 2.210937-1.277343v2.554687zm0 0"/><path d="m66.929688 245.167969 2.210937-1.277344v2.554687zm0 0"/><path d="m69.140625 246.445312 2.214844-1.277343v2.554687zm0 0"/><path d="m175.375 307.78125 2.214844-1.28125v2.558594zm0 0"/><path d="m177.589844 309.058594 2.210937-1.277344v2.554688zm0 0"/><path d="m294.890625 246.445312 2.210937-1.277343v2.554687zm0 0"/><path d="m294.890625 243.890625 2.210937-1.277344v2.554688zm0 0"/><path d="m294.890625 116.109375 2.210937-1.277344v2.554688zm0 0"/><path d="m294.890625 113.554688 2.210937-1.277344v2.554687zm0 0"/><path d="m175.375 49.664062 2.214844-1.277343v2.554687zm0 0"/><path d="m66.929688 112.277344 2.210937-1.277344v2.554688zm0 0"/><path d="m66.929688 247.722656 2.210937-1.277344v2.554688zm0 0"/><path d="m175.375 310.335938 2.214844-1.277344v2.554687zm0 0"/><path d="m297.101562 245.167969 2.214844-1.277344v2.554687zm0 0"/><path d="m297.101562 114.832031 2.214844-1.277343v2.554687zm0 0"/><path d="m177.589844 45.832031 2.210937-1.277343v2.554687zm0 0"/><path d="m175.375 47.109375 2.214844-1.277344v2.554688zm0 0"/><path d="m64.714844 111 2.214844-1.277344v2.554688zm0 0"/><path d="m62.503906 112.277344 2.210938-1.277344v2.554688zm0 0"/><path d="m62.503906 247.722656 2.210938-1.277344v2.554688zm0 0"/><path d="m64.714844 249 2.214844-1.277344v2.554688zm0 0"/><path d="m175.375 312.890625 2.214844-1.277344v2.554688zm0 0"/><path d="m177.589844 314.167969 2.210937-1.277344v2.554687zm0 0"/><path d="m299.316406 249 2.210938-1.277344v2.554688zm0 0"/><path d="m299.316406 246.445312 2.210938-1.277343v2.554687zm0 0"/><path d="m299.316406 113.554688 2.210938-1.277344v2.554687zm0 0"/><path d="m299.316406 111 2.210938-1.277344v2.554688zm0 0"/><path d="m175.375 44.554688 2.214844-1.277344v2.554687zm0 0"/><path d="m62.503906 109.722656 2.210938-1.277344v2.554688zm0 0"/><path d="m62.503906 250.277344 2.210938-1.277344v2.554688zm0 0"/><path d="m175.375 315.445312 2.214844-1.277343v2.554687zm0 0"/><path d="m301.527344 247.722656 2.214844-1.277344v2.554688zm0 0"/><path d="m301.527344 112.277344 2.214844-1.277344v2.554688zm0 0"/><path d="m177.589844 40.71875 2.210937-1.277344v2.558594zm0 0"/><path d="m175.375 42 2.214844-1.28125v2.558594zm0 0"/><path d="m60.289062 108.445312 2.214844-1.28125v2.558594zm0 0"/><path d="m58.074219 109.722656 2.214843-1.277344v2.554688zm0 0"/><path d="m58.074219 250.277344 2.214843-1.277344v2.554688zm0 0"/><path d="m60.289062 251.554688 2.214844-1.277344v2.558594zm0 0"/><path d="m175.375 318 2.214844-1.277344v2.558594zm0 0"/><path d="m177.589844 319.28125 2.210937-1.28125v2.558594zm0 0"/><path d="m303.742188 251.554688 2.214843-1.277344v2.558594zm0 0"/><path d="m303.742188 249 2.214843-1.277344v2.554688zm0 0"/><path d="m303.742188 111 2.214843-1.277344v2.554688zm0 0"/><path d="m303.742188 108.445312 2.214843-1.28125v2.558594zm0 0"/><path d="m175.375 39.441406 2.214844-1.277344v2.554688zm0 0"/><path d="m58.074219 107.164062 2.214843-1.277343v2.558593zm0 0"/><path d="m58.074219 252.835938 2.214843-1.28125v2.558593zm0 0"/><path d="m175.375 320.558594 2.214844-1.277344v2.554688zm0 0"/><path d="m305.957031 250.277344 2.210938-1.277344v2.554688zm0 0"/><path d="m305.957031 109.722656 2.210938-1.277344v2.554688zm0 0"/><path d="m177.589844 35.609375 2.210937-1.277344v2.554688zm0 0"/><path d="m175.375 36.886719 2.214844-1.277344v2.554687zm0 0"/><path d="m55.863281 105.886719 2.210938-1.277344v2.554687zm0 0"/><path d="m53.648438 107.164062 2.214843-1.277343v2.558593zm0 0"/><path d="m53.648438 252.835938 2.214843-1.28125v2.558593zm0 0"/><path d="m55.863281 254.113281 2.210938-1.277343v2.554687zm0 0"/><path d="m175.375 323.113281 2.214844-1.277343v2.554687zm0 0"/><path d="m177.589844 324.390625 2.210937-1.277344v2.554688zm0 0"/><path d="m308.167969 254.113281 2.214843-1.277343v2.554687zm0 0"/><path d="m308.167969 251.554688 2.214843-1.277344v2.558594zm0 0"/><path d="m308.167969 108.445312 2.214843-1.28125v2.558594zm0 0"/><path d="m308.167969 105.886719 2.214843-1.277344v2.554687zm0 0"/><path d="m175.375 34.332031 2.214844-1.277343v2.554687zm0 0"/><path d="m53.648438 104.609375 2.214843-1.277344v2.554688zm0 0"/><path d="m53.648438 255.390625 2.214843-1.277344v2.554688zm0 0"/><path d="m175.375 325.667969 2.214844-1.277344v2.554687zm0 0"/><path d="m310.382812 252.835938 2.210938-1.28125v2.558593zm0 0"/><path d="m310.382812 107.164062 2.210938-1.277343v2.558593zm0 0"/><path d="m177.589844 30.496094 2.210937-1.277344v2.558594zm0 0"/><path d="m175.375 31.777344 2.214844-1.28125v2.558594zm0 0"/><path d="m51.4375 103.332031 2.210938-1.277343v2.554687zm0 0"/><path d="m49.222656 104.609375 2.214844-1.277344v2.554688zm0 0"/><path d="m49.222656 255.390625 2.214844-1.277344v2.554688zm0 0"/><path d="m51.4375 256.667969 2.210938-1.277344v2.554687zm0 0"/><path d="m175.375 328.222656 2.214844-1.277344v2.558594zm0 0"/><path d="m177.589844 329.503906 2.210937-1.28125v2.558594zm0 0"/><path d="m312.59375 256.667969 2.214844-1.277344v2.554687zm0 0"/><path d="m312.59375 254.113281 2.214844-1.277343v2.554687zm0 0"/><path d="m312.59375 105.886719 2.214844-1.277344v2.554687zm0 0"/><path d="m312.59375 103.332031 2.214844-1.277343v2.554687zm0 0"/><path d="m175.375 29.21875 2.214844-1.277344v2.554688zm0 0"/><path d="m49.222656 102.054688 2.214844-1.277344v2.554687zm0 0"/><path d="m49.222656 257.945312 2.214844-1.277343v2.554687zm0 0"/><path d="m175.375 330.78125 2.214844-1.277344v2.554688zm0 0"/><path d="m314.808594 255.390625 2.210937-1.277344v2.554688zm0 0"/><path d="m314.808594 104.609375 2.210937-1.277344v2.554688zm0 0"/><path d="m177.589844 25.386719 2.210937-1.277344v2.554687zm0 0"/><path d="m175.375 26.664062 2.214844-1.277343v2.554687zm0 0"/><path d="m47.011719 100.777344 2.210937-1.277344v2.554688zm0 0"/><path d="m44.796875 102.054688 2.214844-1.277344v2.554687zm0 0"/><path d="m44.796875 257.945312 2.214844-1.277343v2.554687zm0 0"/><path d="m47.011719 259.222656 2.210937-1.277344v2.554688zm0 0"/><path d="m175.375 333.335938 2.214844-1.277344v2.554687zm0 0"/><path d="m177.589844 334.613281 2.210937-1.277343v2.554687zm0 0"/><path d="m317.019531 256.667969 2.214844-1.277344v2.554687zm0 0"/><path d="m317.019531 103.332031 2.214844-1.277343v2.554687zm0 0"/><path d="m175.375 24.109375 2.214844-1.277344v2.554688zm0 0"/><path d="m44.796875 99.5 2.214844-1.277344v2.554688zm0 0"/><path d="m44.796875 260.5 2.214844-1.277344v2.554688zm0 0"/><path d="m175.375 335.890625 2.214844-1.277344v2.554688zm0 0"/><path d="m319.234375 260.5 2.214844-1.277344v2.554688zm0 0"/><path d="m319.234375 257.945312 2.214844-1.277343v2.554687zm0 0"/><path d="m319.234375 102.054688 2.214844-1.277344v2.554687zm0 0"/><path d="m319.234375 99.5 2.214844-1.277344v2.554688zm0 0"/><path d="m175.375 21.554688 2.214844-1.277344v2.554687zm0 0"/><path d="m42.582031 98.222656 2.214844-1.28125v2.558594zm0 0"/><path d="m42.582031 261.777344 2.214844-1.277344v2.558594zm0 0"/><path d="m175.375 338.445312 2.214844-1.277343v2.554687zm0 0"/><path d="m321.449219 261.777344 2.210937-1.277344v2.558594zm0 0"/><path d="m321.449219 98.222656 2.210937-1.28125v2.558594zm0 0"/><path d="m177.589844 17.71875 2.210937-1.277344v2.554688zm0 0"/><path d="m175.375 18.996094 2.214844-1.277344v2.558594zm0 0"/><path d="m40.371094 96.941406 2.210937-1.277344v2.558594zm0 0"/><path d="m38.15625 98.222656 2.214844-1.28125v2.558594zm0 0"/><path d="m38.15625 261.777344 2.214844-1.277344v2.558594zm0 0"/><path d="m40.371094 263.058594 2.210937-1.28125v2.558594zm0 0"/><path d="m175.375 341.003906 2.214844-1.28125v2.558594zm0 0"/><path d="m177.589844 342.28125 2.210937-1.277344v2.554688zm0 0"/><path d="m177.589844 15.164062 2.210937-1.277343v2.554687zm0 0"/><path d="m35.945312 96.941406 2.210938-1.277344v2.558594zm0 0"/><path d="m35.945312 263.058594 2.210938-1.28125v2.558594zm0 0"/><path d="m177.589844 344.835938 2.210937-1.277344v2.554687zm0 0"/><path d="m182.015625 178.722656-2.214844-1.277344v2.554688zm0 0"/><path d="m182.015625 181.277344-2.214844-1.277344v2.554688zm0 0"/><path d="m184.230469 177.445312-2.214844-1.277343v2.554687zm0 0"/><path d="m182.015625 176.167969-2.214844-1.277344v2.554687zm0 0"/><path d="m179.800781 180-2.210937-1.277344v2.554688zm0 0"/><path d="m182.015625 183.832031-2.214844-1.277343v2.554687zm0 0"/><path d="m184.230469 182.554688-2.214844-1.277344v2.554687zm0 0"/><path d="m186.441406 176.167969-2.210937-1.277344v2.554687zm0 0"/><path d="m182.015625 173.609375-2.214844-1.277344v2.558594zm0 0"/><path d="m177.589844 178.722656-2.214844-1.277344v2.554688zm0 0"/><path d="m177.589844 181.277344-2.214844-1.277344v2.554688zm0 0"/><path d="m182.015625 186.390625-2.214844-1.28125v2.558594zm0 0"/><path d="m186.441406 183.832031-2.210937-1.277343v2.554687zm0 0"/><path d="m186.441406 173.609375-2.210937-1.277344v2.558594zm0 0"/><path d="m184.230469 172.332031-2.214844-1.277343v2.554687zm0 0"/><path d="m175.375 177.445312-2.210938-1.277343v2.554687zm0 0"/><path d="m175.375 182.554688-2.210938-1.277344v2.554687zm0 0"/><path d="m184.230469 187.667969-2.214844-1.277344v2.554687zm0 0"/><path d="m186.441406 186.390625-2.210937-1.28125v2.558594zm0 0"/><path d="m190.867188 173.609375-2.210938-1.277344v2.558594zm0 0"/><path d="m188.65625 172.332031-2.214844-1.277343v2.554687zm0 0"/><path d="m184.230469 169.777344-2.214844-1.277344v2.554688zm0 0"/><path d="m182.015625 168.5-2.214844-1.277344v2.554688zm0 0"/><path d="m173.164062 178.722656-2.214843-1.277344v2.554688zm0 0"/><path d="m173.164062 181.277344-2.214843-1.277344v2.554688zm0 0"/><path d="m182.015625 191.5-2.214844-1.277344v2.554688zm0 0"/><path d="m184.230469 190.222656-2.214844-1.277344v2.554688zm0 0"/><path d="m188.65625 187.667969-2.214844-1.277344v2.554687zm0 0"/><path d="m190.867188 186.390625-2.210938-1.28125v2.558594zm0 0"/><path d="m190.867188 171.054688-2.210938-1.277344v2.554687zm0 0"/><path d="m184.230469 167.222656-2.214844-1.277344v2.554688zm0 0"/><path d="m170.949219 174.890625-2.214844-1.28125v2.558594zm0 0"/><path d="m170.949219 177.445312-2.214844-1.277343v2.554687zm0 0"/><path d="m170.949219 182.554688-2.214844-1.277344v2.554687zm0 0"/><path d="m170.949219 185.109375-2.214844-1.277344v2.558594zm0 0"/><path d="m184.230469 192.777344-2.214844-1.277344v2.554688zm0 0"/><path d="m190.867188 188.945312-2.210938-1.277343v2.554687zm0 0"/><path d="m195.292969 171.054688-2.210938-1.277344v2.554687zm0 0"/><path d="m193.082031 169.777344-2.214843-1.277344v2.554688zm0 0"/><path d="m184.230469 164.667969-2.214844-1.28125v2.558593zm0 0"/><path d="m182.015625 163.386719-2.214844-1.277344v2.558594zm0 0"/><path d="m168.734375 176.167969-2.210937-1.277344v2.554687zm0 0"/><path d="m168.734375 183.832031-2.210937-1.277343v2.554687zm0 0"/><path d="m182.015625 196.613281-2.214844-1.28125v2.558594zm0 0"/><path d="m184.230469 195.332031-2.214844-1.277343v2.558593zm0 0"/><path d="m193.082031 190.222656-2.214843-1.277344v2.554688zm0 0"/><path d="m195.292969 188.945312-2.210938-1.277343v2.554687zm0 0"/><path d="m195.292969 168.5-2.210938-1.277344v2.554688zm0 0"/><path d="m184.230469 162.109375-2.214844-1.277344v2.554688zm0 0"/><path d="m166.523438 172.332031-2.214844-1.277343v2.554687zm0 0"/><path d="m166.523438 174.890625-2.214844-1.28125v2.558594zm0 0"/><path d="m166.523438 185.109375-2.214844-1.277344v2.558594zm0 0"/><path d="m166.523438 187.667969-2.214844-1.277344v2.554687zm0 0"/><path d="m184.230469 197.890625-2.214844-1.277344v2.554688zm0 0"/><path d="m195.292969 191.5-2.210938-1.277344v2.554688zm0 0"/><path d="m199.722656 168.5-2.214844-1.277344v2.554688zm0 0"/><path d="m197.507812 167.222656-2.214843-1.277344v2.554688zm0 0"/><path d="m184.230469 159.554688-2.214844-1.277344v2.554687zm0 0"/><path d="m182.015625 158.277344-2.214844-1.277344v2.554688zm0 0"/><path d="m164.308594 173.609375-2.210938-1.277344v2.558594zm0 0"/><path d="m164.308594 186.390625-2.210938-1.28125v2.558594zm0 0"/><path d="m182.015625 201.722656-2.214844-1.277344v2.554688zm0 0"/><path d="m184.230469 200.445312-2.214844-1.277343v2.554687zm0 0"/><path d="m197.507812 192.777344-2.214843-1.277344v2.554688zm0 0"/><path d="m199.722656 191.5-2.214844-1.277344v2.554688zm0 0"/><path d="m199.722656 165.945312-2.214844-1.277343v2.554687zm0 0"/><path d="m184.230469 157-2.214844-1.277344v2.554688zm0 0"/><path d="m162.097656 169.777344-2.214844-1.277344v2.554688zm0 0"/><path d="m162.097656 172.332031-2.214844-1.277343v2.554687zm0 0"/><path d="m162.097656 187.667969-2.214844-1.277344v2.554687zm0 0"/><path d="m162.097656 190.222656-2.214844-1.277344v2.554688zm0 0"/><path d="m184.230469 203-2.214844-1.277344v2.554688zm0 0"/><path d="m199.722656 194.054688-2.214844-1.277344v2.554687zm0 0"/><path d="m204.148438 165.945312-2.214844-1.277343v2.554687zm0 0"/><path d="m201.933594 164.667969-2.210938-1.28125v2.558593zm0 0"/><path d="m184.230469 154.445312-2.214844-1.277343v2.554687zm0 0"/><path d="m182.015625 153.167969-2.214844-1.28125v2.558593zm0 0"/><path d="m159.882812 171.054688-2.210937-1.277344v2.554687zm0 0"/><path d="m159.882812 188.945312-2.210937-1.277343v2.554687zm0 0"/><path d="m182.015625 206.832031-2.214844-1.277343v2.558593zm0 0"/><path d="m184.230469 205.554688-2.214844-1.277344v2.554687zm0 0"/><path d="m201.933594 195.332031-2.210938-1.277343v2.558593zm0 0"/><path d="m204.148438 194.054688-2.214844-1.277344v2.554687zm0 0"/><path d="m204.148438 163.386719-2.214844-1.277344v2.558594zm0 0"/><path d="m184.230469 151.886719-2.214844-1.277344v2.558594zm0 0"/><path d="m157.671875 167.222656-2.214844-1.277344v2.554688zm0 0"/><path d="m157.671875 169.777344-2.214844-1.277344v2.554688zm0 0"/><path d="m157.671875 190.222656-2.214844-1.277344v2.554688zm0 0"/><path d="m157.671875 192.777344-2.214844-1.277344v2.554688zm0 0"/><path d="m184.230469 208.113281-2.214844-1.28125v2.558594zm0 0"/><path d="m204.148438 196.613281-2.214844-1.28125v2.558594zm0 0"/><path d="m208.574219 163.386719-2.214844-1.277344v2.558594zm0 0"/><path d="m206.359375 162.109375-2.210937-1.277344v2.554688zm0 0"/><path d="m184.230469 149.332031-2.214844-1.277343v2.554687zm0 0"/><path d="m182.015625 148.054688-2.214844-1.277344v2.554687zm0 0"/><path d="m155.457031 168.5-2.214843-1.277344v2.554688zm0 0"/><path d="m155.457031 191.5-2.214843-1.277344v2.554688zm0 0"/><path d="m182.015625 211.945312-2.214844-1.277343v2.554687zm0 0"/><path d="m184.230469 210.667969-2.214844-1.277344v2.554687zm0 0"/><path d="m206.359375 197.890625-2.210937-1.277344v2.554688zm0 0"/><path d="m208.574219 196.613281-2.214844-1.28125v2.558594zm0 0"/><path d="m208.574219 160.832031-2.214844-1.277343v2.554687zm0 0"/><path d="m184.230469 146.777344-2.214844-1.277344v2.554688zm0 0"/><path d="m153.242188 164.667969-2.210938-1.28125v2.558593zm0 0"/><path d="m153.242188 167.222656-2.210938-1.277344v2.554688zm0 0"/><path d="m153.242188 192.777344-2.210938-1.277344v2.554688zm0 0"/><path d="m153.242188 195.332031-2.210938-1.277343v2.558593zm0 0"/><path d="m184.230469 213.222656-2.214844-1.277344v2.554688zm0 0"/><path d="m208.574219 199.167969-2.214844-1.277344v2.554687zm0 0"/><path d="m213 160.832031-2.210938-1.277343v2.554687zm0 0"/><path d="m210.789062 159.554688-2.214843-1.277344v2.554687zm0 0"/><path d="m184.230469 144.222656-2.214844-1.277344v2.554688zm0 0"/><path d="m182.015625 142.945312-2.214844-1.277343v2.554687zm0 0"/><path d="m151.03125 165.945312-2.214844-1.277343v2.554687zm0 0"/><path d="m151.03125 194.054688-2.214844-1.277344v2.554687zm0 0"/><path d="m182.015625 217.054688-2.214844-1.277344v2.554687zm0 0"/><path d="m184.230469 215.777344-2.214844-1.277344v2.554688zm0 0"/><path d="m210.789062 200.445312-2.214843-1.277343v2.554687zm0 0"/><path d="m213 199.167969-2.210938-1.277344v2.554687zm0 0"/><path d="m213 158.277344-2.210938-1.277344v2.554688zm0 0"/><path d="m184.230469 141.667969-2.214844-1.28125v2.558593zm0 0"/><path d="m148.816406 162.109375-2.210937-1.277344v2.554688zm0 0"/><path d="m148.816406 164.667969-2.210937-1.28125v2.558593zm0 0"/><path d="m148.816406 195.332031-2.210937-1.277343v2.558593zm0 0"/><path d="m148.816406 197.890625-2.210937-1.277344v2.554688zm0 0"/><path d="m184.230469 218.332031-2.214844-1.277343v2.558593zm0 0"/><path d="m213 201.722656-2.210938-1.277344v2.554688zm0 0"/><path d="m217.425781 158.277344-2.210937-1.277344v2.554688zm0 0"/><path d="m215.214844 157-2.214844-1.277344v2.554688zm0 0"/><path d="m184.230469 139.109375-2.214844-1.277344v2.554688zm0 0"/><path d="m182.015625 137.832031-2.214844-1.277343v2.554687zm0 0"/><path d="m146.605469 163.386719-2.214844-1.277344v2.558594zm0 0"/><path d="m146.605469 196.613281-2.214844-1.28125v2.558594zm0 0"/><path d="m182.015625 222.167969-2.214844-1.277344v2.554687zm0 0"/><path d="m184.230469 220.890625-2.214844-1.277344v2.554688zm0 0"/><path d="m215.214844 203-2.214844-1.277344v2.554688zm0 0"/><path d="m217.425781 201.722656-2.210937-1.277344v2.554688zm0 0"/><path d="m217.425781 155.722656-2.210937-1.277344v2.554688zm0 0"/><path d="m184.230469 136.554688-2.214844-1.277344v2.554687zm0 0"/><path d="m144.390625 159.554688-2.210937-1.277344v2.554687zm0 0"/><path d="m144.390625 162.109375-2.210937-1.277344v2.554688zm0 0"/><path d="m144.390625 197.890625-2.210937-1.277344v2.554688zm0 0"/><path d="m144.390625 200.445312-2.210937-1.277343v2.554687zm0 0"/><path d="m184.230469 223.445312-2.214844-1.277343v2.554687zm0 0"/><path d="m217.425781 204.277344-2.210937-1.277344v2.554688zm0 0"/><path d="m221.851562 155.722656-2.210937-1.277344v2.554688zm0 0"/><path d="m219.640625 154.445312-2.214844-1.277343v2.554687zm0 0"/><path d="m184.230469 134-2.214844-1.277344v2.554688zm0 0"/><path d="m182.015625 132.722656-2.214844-1.277344v2.554688zm0 0"/><path d="m142.179688 160.832031-2.214844-1.277343v2.554687zm0 0"/><path d="m142.179688 199.167969-2.214844-1.277344v2.554687zm0 0"/><path d="m182.015625 227.277344-2.214844-1.277344v2.554688zm0 0"/><path d="m184.230469 226-2.214844-1.277344v2.554688zm0 0"/><path d="m219.640625 205.554688-2.214844-1.277344v2.554687zm0 0"/><path d="m221.851562 204.277344-2.210937-1.277344v2.554688zm0 0"/><path d="m221.851562 153.167969-2.210937-1.28125v2.558593zm0 0"/><path d="m184.230469 131.445312-2.214844-1.28125v2.558594zm0 0"/><path d="m139.964844 157-2.214844-1.277344v2.554688zm0 0"/><path d="m139.964844 159.554688-2.214844-1.277344v2.554687zm0 0"/><path d="m139.964844 200.445312-2.214844-1.277343v2.554687zm0 0"/><path d="m139.964844 203-2.214844-1.277344v2.554688zm0 0"/><path d="m184.230469 228.554688-2.214844-1.277344v2.558594zm0 0"/><path d="m221.851562 206.832031-2.210937-1.277343v2.558593zm0 0"/><path d="m226.28125 153.167969-2.214844-1.28125v2.558593zm0 0"/><path d="m224.066406 151.886719-2.214844-1.277344v2.558594zm0 0"/><path d="m184.230469 128.886719-2.214844-1.277344v2.554687zm0 0"/><path d="m182.015625 127.609375-2.214844-1.277344v2.554688zm0 0"/><path d="m137.75 158.277344-2.210938-1.277344v2.554688zm0 0"/><path d="m137.75 201.722656-2.210938-1.277344v2.554688zm0 0"/><path d="m182.015625 232.390625-2.214844-1.277344v2.554688zm0 0"/><path d="m184.230469 231.113281-2.214844-1.277343v2.554687zm0 0"/><path d="m224.066406 208.113281-2.214844-1.28125v2.558594zm0 0"/><path d="m226.28125 206.832031-2.214844-1.277343v2.558593zm0 0"/><path d="m226.28125 150.609375-2.214844-1.277344v2.554688zm0 0"/><path d="m184.230469 126.332031-2.214844-1.277343v2.554687zm0 0"/><path d="m135.539062 154.445312-2.214843-1.277343v2.554687zm0 0"/><path d="m135.539062 157-2.214843-1.277344v2.554688zm0 0"/><path d="m135.539062 203-2.214843-1.277344v2.554688zm0 0"/><path d="m135.539062 205.554688-2.214843-1.277344v2.554687zm0 0"/><path d="m184.230469 233.667969-2.214844-1.277344v2.554687zm0 0"/><path d="m226.28125 209.390625-2.214844-1.277344v2.554688zm0 0"/><path d="m230.707031 150.609375-2.214843-1.277344v2.554688zm0 0"/><path d="m228.492188 149.332031-2.210938-1.277343v2.554687zm0 0"/><path d="m184.230469 123.777344-2.214844-1.277344v2.554688zm0 0"/><path d="m182.015625 122.5-2.214844-1.277344v2.554688zm0 0"/><path d="m133.324219 155.722656-2.210938-1.277344v2.554688zm0 0"/><path d="m133.324219 204.277344-2.210938-1.277344v2.554688zm0 0"/><path d="m182.015625 237.5-2.214844-1.277344v2.554688zm0 0"/><path d="m184.230469 236.222656-2.214844-1.277344v2.554688zm0 0"/><path d="m228.492188 210.667969-2.210938-1.277344v2.554687zm0 0"/><path d="m230.707031 209.390625-2.214843-1.277344v2.554688zm0 0"/><path d="m230.707031 148.054688-2.214843-1.277344v2.554687zm0 0"/><path d="m184.230469 121.222656-2.214844-1.277344v2.554688zm0 0"/><path d="m131.113281 151.886719-2.214843-1.277344v2.558594zm0 0"/><path d="m131.113281 154.445312-2.214843-1.277343v2.554687zm0 0"/><path d="m131.113281 205.554688-2.214843-1.277344v2.554687zm0 0"/><path d="m131.113281 208.113281-2.214843-1.28125v2.558594zm0 0"/><path d="m184.230469 238.777344-2.214844-1.277344v2.554688zm0 0"/><path d="m230.707031 211.945312-2.214843-1.277343v2.554687zm0 0"/><path d="m235.132812 148.054688-2.214843-1.277344v2.554687zm0 0"/><path d="m232.917969 146.777344-2.210938-1.277344v2.554688zm0 0"/><path d="m184.230469 118.664062-2.214844-1.277343v2.558593zm0 0"/><path d="m182.015625 117.386719-2.214844-1.277344v2.554687zm0 0"/><path d="m128.898438 153.167969-2.214844-1.28125v2.558593zm0 0"/><path d="m128.898438 206.832031-2.214844-1.277343v2.558593zm0 0"/><path d="m182.015625 242.613281-2.214844-1.277343v2.554687zm0 0"/><path d="m184.230469 241.335938-2.214844-1.28125v2.558593zm0 0"/><path d="m232.917969 213.222656-2.210938-1.277344v2.554688zm0 0"/><path d="m235.132812 211.945312-2.214843-1.277343v2.554687zm0 0"/><path d="m235.132812 145.5-2.214843-1.277344v2.554688zm0 0"/><path d="m184.230469 116.109375-2.214844-1.277344v2.554688zm0 0"/><path d="m126.683594 149.332031-2.210938-1.277343v2.554687zm0 0"/><path d="m126.683594 151.886719-2.210938-1.277344v2.558594zm0 0"/><path d="m126.683594 208.113281-2.210938-1.28125v2.558594zm0 0"/><path d="m126.683594 210.667969-2.210938-1.277344v2.554687zm0 0"/><path d="m184.230469 243.890625-2.214844-1.277344v2.554688zm0 0"/><path d="m235.132812 214.5-2.214843-1.277344v2.554688zm0 0"/><path d="m239.558594 145.5-2.214844-1.277344v2.554688zm0 0"/><path d="m237.34375 144.222656-2.210938-1.277344v2.554688zm0 0"/><path d="m184.230469 113.554688-2.214844-1.277344v2.554687zm0 0"/><path d="m182.015625 112.277344-2.214844-1.277344v2.554688zm0 0"/><path d="m124.472656 150.609375-2.214844-1.277344v2.554688zm0 0"/><path d="m124.472656 209.390625-2.214844-1.277344v2.554688zm0 0"/><path d="m182.015625 247.722656-2.214844-1.277344v2.554688zm0 0"/><path d="m184.230469 246.445312-2.214844-1.277343v2.554687zm0 0"/><path d="m237.34375 215.777344-2.210938-1.277344v2.554688zm0 0"/><path d="m239.558594 214.5-2.214844-1.277344v2.554688zm0 0"/><path d="m239.558594 142.945312-2.214844-1.277343v2.554687zm0 0"/><path d="m184.230469 111-2.214844-1.277344v2.554688zm0 0"/><path d="m122.257812 146.777344-2.210937-1.277344v2.554688zm0 0"/><path d="m122.257812 149.332031-2.210937-1.277343v2.554687zm0 0"/><path d="m122.257812 210.667969-2.210937-1.277344v2.554687zm0 0"/><path d="m122.257812 213.222656-2.210937-1.277344v2.554688zm0 0"/><path d="m184.230469 249-2.214844-1.277344v2.554688zm0 0"/><path d="m239.558594 217.054688-2.214844-1.277344v2.554687zm0 0"/><path d="m243.984375 142.945312-2.210937-1.277343v2.554687zm0 0"/><path d="m241.773438 141.667969-2.214844-1.28125v2.558593zm0 0"/><path d="m184.230469 108.445312-2.214844-1.28125v2.558594zm0 0"/><path d="m182.015625 107.164062-2.214844-1.277343v2.558593zm0 0"/><path d="m120.046875 148.054688-2.214844-1.277344v2.554687zm0 0"/><path d="m120.046875 211.945312-2.214844-1.277343v2.554687zm0 0"/><path d="m182.015625 252.835938-2.214844-1.28125v2.558593zm0 0"/><path d="m184.230469 251.554688-2.214844-1.277344v2.558594zm0 0"/><path d="m241.773438 218.332031-2.214844-1.277343v2.558593zm0 0"/><path d="m243.984375 217.054688-2.210937-1.277344v2.554687zm0 0"/><path d="m243.984375 140.386719-2.210937-1.277344v2.558594zm0 0"/><path d="m184.230469 105.886719-2.214844-1.277344v2.554687zm0 0"/><path d="m117.832031 144.222656-2.210937-1.277344v2.554688zm0 0"/><path d="m117.832031 146.777344-2.210937-1.277344v2.554688zm0 0"/><path d="m117.832031 213.222656-2.210937-1.277344v2.554688zm0 0"/><path d="m117.832031 215.777344-2.210937-1.277344v2.554688zm0 0"/><path d="m184.230469 254.113281-2.214844-1.277343v2.554687zm0 0"/><path d="m243.984375 219.613281-2.210937-1.28125v2.558594zm0 0"/><path d="m248.410156 140.386719-2.210937-1.277344v2.558594zm0 0"/><path d="m246.199219 139.109375-2.214844-1.277344v2.554688zm0 0"/><path d="m184.230469 103.332031-2.214844-1.277343v2.554687zm0 0"/><path d="m182.015625 102.054688-2.214844-1.277344v2.554687zm0 0"/><path d="m115.621094 145.5-2.214844-1.277344v2.554688zm0 0"/><path d="m115.621094 214.5-2.214844-1.277344v2.554688zm0 0"/><path d="m182.015625 257.945312-2.214844-1.277343v2.554687zm0 0"/><path d="m184.230469 256.667969-2.214844-1.277344v2.554687zm0 0"/><path d="m246.199219 220.890625-2.214844-1.277344v2.554688zm0 0"/><path d="m248.410156 219.613281-2.210937-1.28125v2.558594zm0 0"/><path d="m248.410156 137.832031-2.210937-1.277343v2.554687zm0 0"/><path d="m184.230469 100.777344-2.214844-1.277344v2.554688zm0 0"/><path d="m113.40625 141.667969-2.214844-1.28125v2.558593zm0 0"/><path d="m113.40625 144.222656-2.214844-1.277344v2.554688zm0 0"/><path d="m113.40625 215.777344-2.214844-1.277344v2.554688zm0 0"/><path d="m113.40625 218.332031-2.214844-1.277343v2.558593zm0 0"/><path d="m184.230469 259.222656-2.214844-1.277344v2.554688zm0 0"/><path d="m248.410156 222.167969-2.210937-1.277344v2.554687zm0 0"/><path d="m252.839844 137.832031-2.214844-1.277343v2.554687zm0 0"/><path d="m250.625 136.554688-2.214844-1.277344v2.554687zm0 0"/><path d="m184.230469 98.222656-2.214844-1.28125v2.558594zm0 0"/><path d="m182.015625 96.941406-2.214844-1.277344v2.558594zm0 0"/><path d="m111.191406 142.945312-2.210937-1.277343v2.554687zm0 0"/><path d="m111.191406 217.054688-2.210937-1.277344v2.554687zm0 0"/><path d="m182.015625 263.058594-2.214844-1.28125v2.558594zm0 0"/><path d="m184.230469 261.777344-2.214844-1.277344v2.558594zm0 0"/><path d="m250.625 223.445312-2.214844-1.277343v2.554687zm0 0"/><path d="m252.839844 222.167969-2.214844-1.277344v2.554687zm0 0"/><path d="m252.839844 135.277344-2.214844-1.277344v2.554688zm0 0"/><path d="m184.230469 95.664062-2.214844-1.277343v2.554687zm0 0"/><path d="m108.980469 139.109375-2.214844-1.277344v2.554688zm0 0"/><path d="m108.980469 141.667969-2.214844-1.28125v2.558593zm0 0"/><path d="m108.980469 218.332031-2.214844-1.277343v2.558593zm0 0"/><path d="m108.980469 220.890625-2.214844-1.277344v2.554688zm0 0"/><path d="m184.230469 264.335938-2.214844-1.277344v2.554687zm0 0"/><path d="m252.839844 224.722656-2.214844-1.277344v2.554688zm0 0"/><path d="m257.265625 135.277344-2.214844-1.277344v2.554688zm0 0"/><path d="m255.050781 134-2.210937-1.277344v2.554688zm0 0"/><path d="m184.230469 93.109375-2.214844-1.277344v2.554688zm0 0"/><path d="m182.015625 91.832031-2.214844-1.277343v2.554687zm0 0"/><path d="m106.765625 140.386719-2.210937-1.277344v2.558594zm0 0"/><path d="m106.765625 219.613281-2.210937-1.28125v2.558594zm0 0"/><path d="m182.015625 268.167969-2.214844-1.277344v2.554687zm0 0"/><path d="m184.230469 266.890625-2.214844-1.277344v2.554688zm0 0"/><path d="m255.050781 226-2.210937-1.277344v2.554688zm0 0"/><path d="m257.265625 224.722656-2.214844-1.277344v2.554688zm0 0"/><path d="m257.265625 132.722656-2.214844-1.277344v2.554688zm0 0"/><path d="m184.230469 90.554688-2.214844-1.277344v2.554687zm0 0"/><path d="m104.554688 136.554688-2.214844-1.277344v2.554687zm0 0"/><path d="m104.554688 139.109375-2.214844-1.277344v2.554688zm0 0"/><path d="m104.554688 220.890625-2.214844-1.277344v2.554688zm0 0"/><path d="m104.554688 223.445312-2.214844-1.277343v2.554687zm0 0"/><path d="m184.230469 269.445312-2.214844-1.277343v2.554687zm0 0"/><path d="m257.265625 227.277344-2.214844-1.277344v2.554688zm0 0"/><path d="m261.691406 132.722656-2.214844-1.277344v2.554688zm0 0"/><path d="m259.476562 131.445312-2.210937-1.28125v2.558594zm0 0"/><path d="m184.230469 88-2.214844-1.277344v2.554688zm0 0"/><path d="m182.015625 86.722656-2.214844-1.28125v2.558594zm0 0"/><path d="m102.339844 137.832031-2.214844-1.277343v2.554687zm0 0"/><path d="m102.339844 222.167969-2.214844-1.277344v2.554687zm0 0"/><path d="m182.015625 273.277344-2.214844-1.277344v2.558594zm0 0"/><path d="m184.230469 272-2.214844-1.277344v2.554688zm0 0"/><path d="m259.476562 228.554688-2.210937-1.277344v2.558594zm0 0"/><path d="m261.691406 227.277344-2.214844-1.277344v2.554688zm0 0"/><path d="m261.691406 130.164062-2.214844-1.277343v2.558593zm0 0"/><path d="m184.230469 85.441406-2.214844-1.277344v2.558594zm0 0"/><path d="m100.125 134-2.210938-1.277344v2.554688zm0 0"/><path d="m100.125 136.554688-2.210938-1.277344v2.554687zm0 0"/><path d="m100.125 223.445312-2.210938-1.277343v2.554687zm0 0"/><path d="m100.125 226-2.210938-1.277344v2.554688zm0 0"/><path d="m184.230469 274.558594-2.214844-1.28125v2.558594zm0 0"/><path d="m261.691406 229.835938-2.214844-1.28125v2.558593zm0 0"/><path d="m266.117188 130.164062-2.214844-1.277343v2.558593zm0 0"/><path d="m263.902344 128.886719-2.210938-1.277344v2.554687zm0 0"/><path d="m184.230469 82.886719-2.214844-1.277344v2.554687zm0 0"/><path d="m182.015625 81.609375-2.214844-1.277344v2.554688zm0 0"/><path d="m97.914062 135.277344-2.214843-1.277344v2.554688zm0 0"/><path d="m97.914062 224.722656-2.214843-1.277344v2.554688zm0 0"/><path d="m182.015625 278.390625-2.214844-1.277344v2.554688zm0 0"/><path d="m184.230469 277.113281-2.214844-1.277343v2.554687zm0 0"/><path d="m263.902344 231.113281-2.210938-1.277343v2.554687zm0 0"/><path d="m266.117188 229.835938-2.214844-1.28125v2.558593zm0 0"/><path d="m266.117188 127.609375-2.214844-1.277344v2.554688zm0 0"/><path d="m184.230469 80.332031-2.214844-1.277343v2.554687zm0 0"/><path d="m95.699219 131.445312-2.210938-1.28125v2.558594zm0 0"/><path d="m95.699219 134-2.210938-1.277344v2.554688zm0 0"/><path d="m95.699219 226-2.210938-1.277344v2.554688zm0 0"/><path d="m95.699219 228.554688-2.210938-1.277344v2.558594zm0 0"/><path d="m184.230469 279.667969-2.214844-1.277344v2.554687zm0 0"/><path d="m266.117188 232.390625-2.214844-1.277344v2.554688zm0 0"/><path d="m270.542969 127.609375-2.210938-1.277344v2.554688zm0 0"/><path d="m268.332031 126.332031-2.214843-1.277343v2.554687zm0 0"/><path d="m184.230469 77.777344-2.214844-1.277344v2.554688zm0 0"/><path d="m182.015625 76.5-2.214844-1.277344v2.554688zm0 0"/><path d="m93.488281 132.722656-2.214843-1.277344v2.554688zm0 0"/><path d="m93.488281 227.277344-2.214843-1.277344v2.554688zm0 0"/><path d="m182.015625 283.5-2.214844-1.277344v2.554688zm0 0"/><path d="m184.230469 282.222656-2.214844-1.277344v2.554688zm0 0"/><path d="m268.332031 233.667969-2.214843-1.277344v2.554687zm0 0"/><path d="m270.542969 232.390625-2.210938-1.277344v2.554688zm0 0"/><path d="m270.542969 125.054688-2.210938-1.277344v2.554687zm0 0"/><path d="m184.230469 75.222656-2.214844-1.28125v2.558594zm0 0"/><path d="m91.273438 128.886719-2.210938-1.277344v2.554687zm0 0"/><path d="m91.273438 131.445312-2.210938-1.28125v2.558594zm0 0"/><path d="m91.273438 228.554688-2.210938-1.277344v2.558594zm0 0"/><path d="m91.273438 231.113281-2.210938-1.277343v2.554687zm0 0"/><path d="m184.230469 284.777344-2.214844-1.277344v2.558594zm0 0"/><path d="m270.542969 234.945312-2.210938-1.277343v2.554687zm0 0"/><path d="m274.96875 125.054688-2.210938-1.277344v2.554687zm0 0"/><path d="m272.757812 123.777344-2.214843-1.277344v2.554688zm0 0"/><path d="m184.230469 72.664062-2.214844-1.277343v2.554687zm0 0"/><path d="m182.015625 71.386719-2.214844-1.277344v2.554687zm0 0"/><path d="m89.0625 130.164062-2.214844-1.277343v2.558593zm0 0"/><path d="m89.0625 229.835938-2.214844-1.28125v2.558593zm0 0"/><path d="m182.015625 288.613281-2.214844-1.277343v2.554687zm0 0"/><path d="m184.230469 287.335938-2.214844-1.277344v2.554687zm0 0"/><path d="m272.757812 236.222656-2.214843-1.277344v2.554688zm0 0"/><path d="m274.96875 234.945312-2.210938-1.277343v2.554687zm0 0"/><path d="m274.96875 122.5-2.210938-1.277344v2.554688zm0 0"/><path d="m184.230469 70.109375-2.214844-1.277344v2.554688zm0 0"/><path d="m86.847656 126.332031-2.214844-1.277343v2.554687zm0 0"/><path d="m86.847656 128.886719-2.214844-1.277344v2.554687zm0 0"/><path d="m86.847656 231.113281-2.214844-1.277343v2.554687zm0 0"/><path d="m86.847656 233.667969-2.214844-1.277344v2.554687zm0 0"/><path d="m184.230469 289.890625-2.214844-1.277344v2.554688zm0 0"/><path d="m274.96875 237.5-2.210938-1.277344v2.554688zm0 0"/><path d="m279.398438 122.5-2.214844-1.277344v2.554688zm0 0"/><path d="m277.183594 121.222656-2.214844-1.277344v2.554688zm0 0"/><path d="m184.230469 67.554688-2.214844-1.277344v2.554687zm0 0"/><path d="m182.015625 66.277344-2.214844-1.277344v2.554688zm0 0"/><path d="m84.632812 127.609375-2.210937-1.277344v2.554688zm0 0"/><path d="m84.632812 232.390625-2.210937-1.277344v2.554688zm0 0"/><path d="m182.015625 293.722656-2.214844-1.277344v2.554688zm0 0"/><path d="m184.230469 292.445312-2.214844-1.277343v2.554687zm0 0"/><path d="m277.183594 238.777344-2.214844-1.277344v2.554688zm0 0"/><path d="m279.398438 237.5-2.214844-1.277344v2.554688zm0 0"/><path d="m279.398438 119.945312-2.214844-1.28125v2.558594zm0 0"/><path d="m184.230469 65-2.214844-1.28125v2.558594zm0 0"/><path d="m82.421875 123.777344-2.214844-1.277344v2.554688zm0 0"/><path d="m82.421875 126.332031-2.214844-1.277343v2.554687zm0 0"/><path d="m82.421875 233.667969-2.214844-1.277344v2.554687zm0 0"/><path d="m82.421875 236.222656-2.214844-1.277344v2.554688zm0 0"/><path d="m184.230469 295-2.214844-1.277344v2.558594zm0 0"/><path d="m279.398438 240.054688-2.214844-1.277344v2.558594zm0 0"/><path d="m283.824219 119.945312-2.214844-1.28125v2.558594zm0 0"/><path d="m281.609375 118.664062-2.210937-1.277343v2.558593zm0 0"/><path d="m184.230469 62.441406-2.214844-1.277344v2.554688zm0 0"/><path d="m182.015625 61.164062-2.214844-1.277343v2.554687zm0 0"/><path d="m80.207031 125.054688-2.210937-1.277344v2.554687zm0 0"/><path d="m80.207031 234.945312-2.210937-1.277343v2.554687zm0 0"/><path d="m182.015625 298.835938-2.214844-1.277344v2.554687zm0 0"/><path d="m184.230469 297.558594-2.214844-1.277344v2.554688zm0 0"/><path d="m281.609375 241.335938-2.210937-1.28125v2.558593zm0 0"/><path d="m283.824219 240.054688-2.214844-1.277344v2.558594zm0 0"/><path d="m283.824219 117.386719-2.214844-1.277344v2.554687zm0 0"/><path d="m184.230469 59.886719-2.214844-1.277344v2.554687zm0 0"/><path d="m77.996094 121.222656-2.214844-1.277344v2.554688zm0 0"/><path d="m77.996094 123.777344-2.214844-1.277344v2.554688zm0 0"/><path d="m77.996094 236.222656-2.214844-1.277344v2.554688zm0 0"/><path d="m77.996094 238.777344-2.214844-1.277344v2.554688zm0 0"/><path d="m184.230469 300.113281-2.214844-1.277343v2.554687zm0 0"/><path d="m283.824219 242.613281-2.214844-1.277343v2.554687zm0 0"/><path d="m288.25 117.386719-2.214844-1.277344v2.554687zm0 0"/><path d="m286.035156 116.109375-2.210937-1.277344v2.554688zm0 0"/><path d="m184.230469 57.332031-2.214844-1.277343v2.554687zm0 0"/><path d="m182.015625 56.054688-2.214844-1.277344v2.554687zm0 0"/><path d="m75.78125 122.5-2.210938-1.277344v2.554688zm0 0"/><path d="m75.78125 237.5-2.210938-1.277344v2.554688zm0 0"/><path d="m182.015625 303.945312-2.214844-1.277343v2.554687zm0 0"/><path d="m184.230469 302.667969-2.214844-1.277344v2.554687zm0 0"/><path d="m286.035156 243.890625-2.210937-1.277344v2.554688zm0 0"/><path d="m288.25 242.613281-2.214844-1.277343v2.554687zm0 0"/><path d="m288.25 114.832031-2.214844-1.277343v2.554687zm0 0"/><path d="m184.230469 54.777344-2.214844-1.277344v2.554688zm0 0"/><path d="m73.570312 118.664062-2.214843-1.277343v2.558593zm0 0"/><path d="m73.570312 121.222656-2.214843-1.277344v2.554688zm0 0"/><path d="m73.570312 238.777344-2.214843-1.277344v2.554688zm0 0"/><path d="m73.570312 241.335938-2.214843-1.28125v2.558593zm0 0"/><path d="m184.230469 305.222656-2.214844-1.277344v2.554688zm0 0"/><path d="m288.25 245.167969-2.214844-1.277344v2.554687zm0 0"/><path d="m292.675781 114.832031-2.214843-1.277343v2.554687zm0 0"/><path d="m290.460938 113.554688-2.210938-1.277344v2.554687zm0 0"/><path d="m184.230469 52.21875-2.214844-1.277344v2.558594zm0 0"/><path d="m182.015625 50.941406-2.214844-1.277344v2.554688zm0 0"/><path d="m71.355469 119.945312-2.214844-1.28125v2.558594zm0 0"/><path d="m71.355469 240.054688-2.214844-1.277344v2.558594zm0 0"/><path d="m182.015625 309.058594-2.214844-1.277344v2.554688zm0 0"/><path d="m184.230469 307.78125-2.214844-1.28125v2.558594zm0 0"/><path d="m290.460938 246.445312-2.210938-1.277343v2.554687zm0 0"/><path d="m292.675781 245.167969-2.214843-1.277344v2.554687zm0 0"/><path d="m292.675781 112.277344-2.214843-1.277344v2.554688zm0 0"/><path d="m184.230469 49.664062-2.214844-1.277343v2.554687zm0 0"/><path d="m69.140625 116.109375-2.210937-1.277344v2.554688zm0 0"/><path d="m69.140625 118.664062-2.210937-1.277343v2.558593zm0 0"/><path d="m69.140625 241.335938-2.210937-1.28125v2.558593zm0 0"/><path d="m69.140625 243.890625-2.210937-1.277344v2.554688zm0 0"/><path d="m184.230469 310.335938-2.214844-1.277344v2.554687zm0 0"/><path d="m292.675781 247.722656-2.214843-1.277344v2.554688zm0 0"/><path d="m297.101562 112.277344-2.210937-1.277344v2.554688zm0 0"/><path d="m294.890625 111-2.214844-1.277344v2.554688zm0 0"/><path d="m184.230469 47.109375-2.214844-1.277344v2.554688zm0 0"/><path d="m182.015625 45.832031-2.214844-1.277343v2.554687zm0 0"/><path d="m66.929688 117.386719-2.214844-1.277344v2.554687zm0 0"/><path d="m66.929688 242.613281-2.214844-1.277343v2.554687zm0 0"/><path d="m182.015625 314.167969-2.214844-1.277344v2.554687zm0 0"/><path d="m184.230469 312.890625-2.214844-1.277344v2.554688zm0 0"/><path d="m294.890625 249-2.214844-1.277344v2.554688zm0 0"/><path d="m297.101562 247.722656-2.210937-1.277344v2.554688zm0 0"/><path d="m297.101562 109.722656-2.210937-1.277344v2.554688zm0 0"/><path d="m184.230469 44.554688-2.214844-1.277344v2.554687zm0 0"/><path d="m64.714844 113.554688-2.210938-1.277344v2.554687zm0 0"/><path d="m64.714844 116.109375-2.210938-1.277344v2.554688zm0 0"/><path d="m64.714844 243.890625-2.210938-1.277344v2.554688zm0 0"/><path d="m64.714844 246.445312-2.210938-1.277343v2.554687zm0 0"/><path d="m184.230469 315.445312-2.214844-1.277343v2.554687zm0 0"/><path d="m297.101562 250.277344-2.210937-1.277344v2.554688zm0 0"/><path d="m301.527344 109.722656-2.210938-1.277344v2.554688zm0 0"/><path d="m299.316406 108.445312-2.214844-1.28125v2.558594zm0 0"/><path d="m184.230469 42-2.214844-1.28125v2.558594zm0 0"/><path d="m182.015625 40.71875-2.214844-1.277344v2.558594zm0 0"/><path d="m62.503906 114.832031-2.214844-1.277343v2.554687zm0 0"/><path d="m62.503906 245.167969-2.214844-1.277344v2.554687zm0 0"/><path d="m182.015625 319.28125-2.214844-1.28125v2.558594zm0 0"/><path d="m184.230469 318-2.214844-1.277344v2.558594zm0 0"/><path d="m299.316406 251.554688-2.214844-1.277344v2.558594zm0 0"/><path d="m301.527344 250.277344-2.210938-1.277344v2.554688zm0 0"/><path d="m301.527344 107.164062-2.210938-1.277343v2.558593zm0 0"/><path d="m184.230469 39.441406-2.214844-1.277344v2.554688zm0 0"/><path d="m60.289062 111-2.214843-1.277344v2.554688zm0 0"/><path d="m60.289062 113.554688-2.214843-1.277344v2.554687zm0 0"/><path d="m60.289062 246.445312-2.214843-1.277343v2.554687zm0 0"/><path d="m60.289062 249-2.214843-1.277344v2.554688zm0 0"/><path d="m184.230469 320.558594-2.214844-1.277344v2.554688zm0 0"/><path d="m301.527344 252.835938-2.210938-1.28125v2.558593zm0 0"/><path d="m305.957031 107.164062-2.214843-1.277343v2.558593zm0 0"/><path d="m303.742188 105.886719-2.214844-1.277344v2.554687zm0 0"/><path d="m184.230469 36.886719-2.214844-1.277344v2.554687zm0 0"/><path d="m182.015625 35.609375-2.214844-1.277344v2.554688zm0 0"/><path d="m58.074219 112.277344-2.210938-1.277344v2.554688zm0 0"/><path d="m58.074219 247.722656-2.210938-1.277344v2.554688zm0 0"/><path d="m182.015625 324.390625-2.214844-1.277344v2.554688zm0 0"/><path d="m184.230469 323.113281-2.214844-1.277343v2.554687zm0 0"/><path d="m303.742188 254.113281-2.214844-1.277343v2.554687zm0 0"/><path d="m305.957031 252.835938-2.214843-1.28125v2.558593zm0 0"/><path d="m305.957031 104.609375-2.214843-1.277344v2.554688zm0 0"/><path d="m184.230469 34.332031-2.214844-1.277343v2.554687zm0 0"/><path d="m55.863281 108.445312-2.214843-1.28125v2.558594zm0 0"/><path d="m55.863281 111-2.214843-1.277344v2.554688zm0 0"/><path d="m55.863281 249-2.214843-1.277344v2.554688zm0 0"/><path d="m55.863281 251.554688-2.214843-1.277344v2.558594zm0 0"/><path d="m184.230469 325.667969-2.214844-1.277344v2.554687zm0 0"/><path d="m305.957031 255.390625-2.214843-1.277344v2.554688zm0 0"/><path d="m310.382812 104.609375-2.214843-1.277344v2.554688zm0 0"/><path d="m308.167969 103.332031-2.210938-1.277343v2.554687zm0 0"/><path d="m184.230469 31.777344-2.214844-1.28125v2.558594zm0 0"/><path d="m182.015625 30.496094-2.214844-1.277344v2.558594zm0 0"/><path d="m53.648438 109.722656-2.210938-1.277344v2.554688zm0 0"/><path d="m53.648438 250.277344-2.210938-1.277344v2.554688zm0 0"/><path d="m182.015625 329.503906-2.214844-1.28125v2.558594zm0 0"/><path d="m184.230469 328.222656-2.214844-1.277344v2.558594zm0 0"/><path d="m308.167969 256.667969-2.210938-1.277344v2.554687zm0 0"/><path d="m310.382812 255.390625-2.214843-1.277344v2.554688zm0 0"/><path d="m310.382812 102.054688-2.214843-1.277344v2.554687zm0 0"/><path d="m184.230469 29.21875-2.214844-1.277344v2.554688zm0 0"/><path d="m51.4375 105.886719-2.214844-1.277344v2.554687zm0 0"/><path d="m51.4375 108.445312-2.214844-1.28125v2.558594zm0 0"/><path d="m51.4375 251.554688-2.214844-1.277344v2.558594zm0 0"/><path d="m51.4375 254.113281-2.214844-1.277343v2.554687zm0 0"/><path d="m184.230469 330.78125-2.214844-1.277344v2.554688zm0 0"/><path d="m310.382812 257.945312-2.214843-1.277343v2.554687zm0 0"/><path d="m314.808594 102.054688-2.214844-1.277344v2.554687zm0 0"/><path d="m312.59375 100.777344-2.210938-1.277344v2.554688zm0 0"/><path d="m184.230469 26.664062-2.214844-1.277343v2.554687zm0 0"/><path d="m182.015625 25.386719-2.214844-1.277344v2.554687zm0 0"/><path d="m49.222656 107.164062-2.210937-1.277343v2.558593zm0 0"/><path d="m49.222656 252.835938-2.210937-1.28125v2.558593zm0 0"/><path d="m182.015625 334.613281-2.214844-1.277343v2.554687zm0 0"/><path d="m184.230469 333.335938-2.214844-1.277344v2.554687zm0 0"/><path d="m312.59375 259.222656-2.210938-1.277344v2.554688zm0 0"/><path d="m314.808594 257.945312-2.214844-1.277343v2.554687zm0 0"/><path d="m314.808594 99.5-2.214844-1.277344v2.554688zm0 0"/><path d="m184.230469 24.109375-2.214844-1.277344v2.554688zm0 0"/><path d="m47.011719 103.332031-2.214844-1.277343v2.554687zm0 0"/><path d="m47.011719 105.886719-2.214844-1.277344v2.554687zm0 0"/><path d="m47.011719 254.113281-2.214844-1.277343v2.554687zm0 0"/><path d="m47.011719 256.667969-2.214844-1.277344v2.554687zm0 0"/><path d="m184.230469 335.890625-2.214844-1.277344v2.554688zm0 0"/><path d="m314.808594 260.5-2.214844-1.277344v2.554688zm0 0"/><path d="m317.019531 98.222656-2.210937-1.28125v2.558594zm0 0"/><path d="m184.230469 21.554688-2.214844-1.277344v2.554687zm0 0"/><path d="m44.796875 104.609375-2.214844-1.277344v2.554688zm0 0"/><path d="m44.796875 255.390625-2.214844-1.277344v2.554688zm0 0"/><path d="m184.230469 338.445312-2.214844-1.277343v2.554687zm0 0"/><path d="m317.019531 261.777344-2.210937-1.277344v2.558594zm0 0"/><path d="m321.449219 98.222656-2.214844-1.28125v2.558594zm0 0"/><path d="m319.234375 96.941406-2.214844-1.277344v2.558594zm0 0"/><path d="m184.230469 18.996094-2.214844-1.277344v2.558594zm0 0"/><path d="m182.015625 17.71875-2.214844-1.277344v2.554688zm0 0"/><path d="m42.582031 103.332031-2.210937-1.277343v2.554687zm0 0"/><path d="m42.582031 256.667969-2.210937-1.277344v2.554687zm0 0"/><path d="m182.015625 342.28125-2.214844-1.277344v2.554688zm0 0"/><path d="m184.230469 341.003906-2.214844-1.28125v2.558594zm0 0"/><path d="m319.234375 263.058594-2.214844-1.28125v2.558594zm0 0"/><path d="m321.449219 261.777344-2.214844-1.277344v2.558594zm0 0"/><path d="m323.660156 96.941406-2.210937-1.277344v2.558594zm0 0"/><path d="m182.015625 15.164062-2.214844-1.277343v2.554687zm0 0"/><path d="m40.371094 99.5-2.214844-1.277344v2.554688zm0 0"/><path d="m40.371094 102.054688-2.214844-1.277344v2.554687zm0 0"/><path d="m40.371094 257.945312-2.214844-1.277343v2.554687zm0 0"/><path d="m40.371094 260.5-2.214844-1.277344v2.554688zm0 0"/><path d="m182.015625 344.835938-2.214844-1.277344v2.554687zm0 0"/><path d="m323.660156 263.058594-2.210937-1.28125v2.558594zm0 0"/><path d="m38.15625 98.222656-2.210938-1.28125v2.558594zm0 0"/><path d="m38.15625 261.777344-2.210938-1.277344v2.558594zm0 0"/></g></svg>