<svg height="360pt" viewBox="0 0 360 360" width="360pt" xmlns="http://www.w3.org/2000/svg"><path d="m0 0h360v360h-360z" fill="#fff"/><g fill="#800080"><path d="m176.003906 180 5.992188-3.460938v6.921876zm0 0"/><path d="m193.984375 190.382812 5.996094-3.460937v6.921875zm0 0"/><path d="m193.984375 169.617188 5.996094-3.460938v6.921875zm0 0"/><path d="m176.003906 159.238281 5.992188-3.460937v6.921875zm0 0"/><path d="m158.023438 169.617188 5.992187-3.460938v6.921875zm0 0"/><path d="m158.023438 190.382812 5.992187-3.460937v6.921875zm0 0"/><path d="m176.003906 200.761719 5.992188-3.460938v6.921875zm0 0"/><path d="m199.980469 180 5.992187-3.460938v6.921876zm0 0"/><path d="m193.984375 162.699219 5.996094-3.460938v6.917969zm0 0"/><path d="m181.996094 155.777344 5.996094-3.460938v6.921875zm0 0"/><path d="m164.015625 159.238281 5.996094-3.460937v6.921875zm0 0"/><path d="m152.027344 173.078125 5.996094-3.460937v6.921874zm0 0"/><path d="m152.027344 186.921875 5.996094-3.460937v6.921874zm0 0"/><path d="m164.015625 200.761719 5.996094-3.460938v6.921875zm0 0"/><path d="m181.996094 204.222656 5.996094-3.460937v6.921875zm0 0"/><path d="m193.984375 197.300781 5.996094-3.457031v6.917969zm0 0"/><path d="m205.972656 197.300781 5.996094-3.457031v6.917969zm0 0"/><path d="m205.972656 162.699219 5.996094-3.460938v6.917969zm0 0"/><path d="m199.980469 159.238281 5.992187-3.460937v6.921875zm0 0"/><path d="m193.984375 155.777344 5.996094-3.460938v6.921875zm0 0"/><path d="m187.992188 152.316406 5.992187-3.460937v6.921875zm0 0"/><path d="m181.996094 148.855469 5.996094-3.460938v6.921875zm0 0"/><path d="m176.003906 145.394531 5.992188-3.460937v6.921875zm0 0"/><path d="m146.035156 162.699219 5.992188-3.460938v6.917969zm0 0"/><path d="m146.035156 169.617188 5.992188-3.460938v6.921875zm0 0"/><path d="m146.035156 176.539062 5.992188-3.460937v6.921875zm0 0"/><path d="m146.035156 183.460938 5.992188-3.460938v6.921875zm0 0"/><path d="m146.035156 190.382812 5.992188-3.460937v6.921875zm0 0"/><path d="m146.035156 197.300781 5.992188-3.457031v6.917969zm0 0"/><path d="m176.003906 214.605469 5.992188-3.460938v6.921875zm0 0"/><path d="m181.996094 211.144531 5.996094-3.460937v6.921875zm0 0"/><path d="m187.992188 207.683594 5.992187-3.460938v6.921875zm0 0"/><path d="m193.984375 204.222656 5.996094-3.460937v6.921875zm0 0"/><path d="m199.980469 200.761719 5.992187-3.460938v6.921875zm0 0"/><path d="m211.96875 193.84375 5.992188-3.460938v6.917969zm0 0"/><path d="m211.96875 166.15625 5.992188-3.457031v6.917969zm0 0"/><path d="m199.980469 152.316406 5.992187-3.460937v6.921875zm0 0"/><path d="m193.984375 148.855469 5.996094-3.460938v6.921875zm0 0"/><path d="m187.992188 145.394531 5.992187-3.460937v6.921875zm0 0"/><path d="m170.011719 141.933594 5.992187-3.460938v6.921875zm0 0"/><path d="m146.035156 155.777344 5.992188-3.460938v6.921875zm0 0"/><path d="m140.042969 173.078125 5.992187-3.460937v6.921874zm0 0"/><path d="m140.042969 180 5.992187-3.460938v6.921876zm0 0"/><path d="m140.042969 186.921875 5.992187-3.460937v6.921874zm0 0"/><path d="m146.035156 204.222656 5.992188-3.460937v6.921875zm0 0"/><path d="m170.011719 218.066406 5.992187-3.460937v6.921875zm0 0"/><path d="m187.992188 214.605469 5.992187-3.460938v6.921875zm0 0"/><path d="m193.984375 211.144531 5.996094-3.460937v6.921875zm0 0"/><path d="m199.980469 207.683594 5.992187-3.460938v6.921875zm0 0"/><path d="m217.960938 204.222656 5.992187-3.460937v6.921875zm0 0"/><path d="m217.960938 155.777344 5.992187-3.460938v6.921875zm0 0"/><path d="m211.96875 152.316406 5.992188-3.460937v6.921875zm0 0"/><path d="m199.980469 145.394531 5.992187-3.460937v6.921875zm0 0"/><path d="m193.984375 141.933594 5.996094-3.460938v6.921875zm0 0"/><path d="m181.996094 135.011719 5.996094-3.460938v6.921875zm0 0"/><path d="m176.003906 131.550781 5.992188-3.457031v6.917969zm0 0"/><path d="m134.046875 155.777344 5.996094-3.460938v6.921875zm0 0"/><path d="m134.046875 162.699219 5.996094-3.460938v6.917969zm0 0"/><path d="m134.046875 176.539062 5.996094-3.460937v6.921875zm0 0"/><path d="m134.046875 183.460938 5.996094-3.460938v6.921875zm0 0"/><path d="m134.046875 197.300781 5.996094-3.457031v6.917969zm0 0"/><path d="m134.046875 204.222656 5.996094-3.460937v6.921875zm0 0"/><path d="m176.003906 228.449219 5.992188-3.460938v6.917969zm0 0"/><path d="m181.996094 224.988281 5.996094-3.460937v6.921875zm0 0"/><path d="m193.984375 218.066406 5.996094-3.460937v6.921875zm0 0"/><path d="m199.980469 214.605469 5.992187-3.460938v6.921875zm0 0"/><path d="m211.96875 207.683594 5.992188-3.460938v6.921875zm0 0"/><path d="m223.953125 200.761719 5.996094-3.460938v6.921875zm0 0"/><path d="m223.953125 193.84375 5.996094-3.460938v6.917969zm0 0"/><path d="m223.953125 186.921875 5.996094-3.460937v6.921874zm0 0"/><path d="m223.953125 180 5.996094-3.460938v6.921876zm0 0"/><path d="m223.953125 173.078125 5.996094-3.460937v6.921874zm0 0"/><path d="m223.953125 166.15625 5.996094-3.457031v6.917969zm0 0"/><path d="m223.953125 159.238281 5.996094-3.460937v6.921875zm0 0"/><path d="m170.011719 128.09375 5.992187-3.460938v6.917969zm0 0"/><path d="m164.015625 131.550781 5.996094-3.457031v6.917969zm0 0"/><path d="m158.023438 135.011719 5.992187-3.460938v6.921875zm0 0"/><path d="m152.027344 138.472656 5.996094-3.460937v6.921875zm0 0"/><path d="m146.035156 141.933594 5.992188-3.460938v6.921875zm0 0"/><path d="m140.042969 145.394531 5.992187-3.460937v6.921875zm0 0"/><path d="m134.046875 148.855469 5.996094-3.460938v6.921875zm0 0"/><path d="m134.046875 211.144531 5.996094-3.460937v6.921875zm0 0"/><path d="m140.042969 214.605469 5.992187-3.460938v6.921875zm0 0"/><path d="m146.035156 218.066406 5.992188-3.460937v6.921875zm0 0"/><path d="m152.027344 221.527344 5.996094-3.460938v6.921875zm0 0"/><path d="m158.023438 224.988281 5.992187-3.460937v6.921875zm0 0"/><path d="m164.015625 228.449219 5.996094-3.460938v6.917969zm0 0"/><path d="m170.011719 231.90625 5.992187-3.457031v6.917969zm0 0"/><path d="m229.949219 197.300781 5.992187-3.457031v6.917969zm0 0"/><path d="m229.949219 190.382812 5.992187-3.460937v6.921875zm0 0"/><path d="m229.949219 183.460938 5.992187-3.460938v6.921875zm0 0"/><path d="m229.949219 176.539062 5.992187-3.460937v6.921875zm0 0"/><path d="m229.949219 169.617188 5.992187-3.460938v6.921875zm0 0"/><path d="m229.949219 162.699219 5.992187-3.460938v6.917969zm0 0"/><path d="m223.953125 145.394531 5.996094-3.460937v6.921875zm0 0"/><path d="m217.960938 141.933594 5.992187-3.460938v6.921875zm0 0"/><path d="m211.96875 138.472656 5.992188-3.460937v6.921875zm0 0"/><path d="m193.984375 128.09375 5.996094-3.460938v6.917969zm0 0"/><path d="m187.992188 124.632812 5.992187-3.460937v6.921875zm0 0"/><path d="m181.996094 121.171875 5.996094-3.460937v6.921874zm0 0"/><path d="m164.015625 124.632812 5.996094-3.460937v6.921875zm0 0"/><path d="m158.023438 128.09375 5.992187-3.460938v6.917969zm0 0"/><path d="m152.027344 131.550781 5.996094-3.457031v6.917969zm0 0"/><path d="m146.035156 135.011719 5.992188-3.460938v6.921875zm0 0"/><path d="m140.042969 138.472656 5.992187-3.460937v6.921875zm0 0"/><path d="m134.046875 141.933594 5.996094-3.460938v6.921875zm0 0"/><path d="m122.058594 155.777344 5.996094-3.460938v6.921875zm0 0"/><path d="m122.058594 162.699219 5.996094-3.460938v6.917969zm0 0"/><path d="m122.058594 169.617188 5.996094-3.460938v6.921875zm0 0"/><path d="m122.058594 190.382812 5.996094-3.460937v6.921875zm0 0"/><path d="m122.058594 197.300781 5.996094-3.457031v6.917969zm0 0"/><path d="m122.058594 204.222656 5.996094-3.460937v6.921875zm0 0"/><path d="m134.046875 218.066406 5.996094-3.460937v6.921875zm0 0"/><path d="m140.042969 221.527344 5.992187-3.460938v6.921875zm0 0"/><path d="m146.035156 224.988281 5.992188-3.460937v6.921875zm0 0"/><path d="m152.027344 228.449219 5.996094-3.460938v6.917969zm0 0"/><path d="m158.023438 231.90625 5.992187-3.457031v6.917969zm0 0"/><path d="m164.015625 235.367188 5.996094-3.460938v6.921875zm0 0"/><path d="m181.996094 238.828125 5.996094-3.460937v6.921874zm0 0"/><path d="m187.992188 235.367188 5.992187-3.460938v6.921875zm0 0"/><path d="m193.984375 231.90625 5.996094-3.457031v6.917969zm0 0"/><path d="m211.96875 221.527344 5.992188-3.460938v6.921875zm0 0"/><path d="m217.960938 218.066406 5.992187-3.460937v6.921875zm0 0"/><path d="m223.953125 214.605469 5.996094-3.460938v6.921875zm0 0"/><path d="m235.941406 200.761719 5.996094-3.460938v6.921875zm0 0"/><path d="m235.941406 193.84375 5.996094-3.460938v6.917969zm0 0"/><path d="m235.941406 166.15625 5.996094-3.457031v6.917969zm0 0"/><path d="m235.941406 159.238281 5.996094-3.460937v6.921875zm0 0"/><path d="m217.960938 135.011719 5.992187-3.460938v6.921875zm0 0"/><path d="m211.96875 131.550781 5.992188-3.457031v6.917969zm0 0"/><path d="m199.980469 124.632812 5.992187-3.460937v6.921875zm0 0"/><path d="m193.984375 121.171875 5.996094-3.460937v6.921874zm0 0"/><path d="m164.015625 117.710938 5.996094-3.460938v6.921875zm0 0"/><path d="m158.023438 121.171875 5.992187-3.460937v6.921874zm0 0"/><path d="m134.046875 135.011719 5.996094-3.460938v6.921875zm0 0"/><path d="m128.054688 138.472656 5.992187-3.460937v6.921875zm0 0"/><path d="m116.066406 166.15625 5.992188-3.457031v6.917969zm0 0"/><path d="m116.066406 173.078125 5.992188-3.460937v6.921874zm0 0"/><path d="m116.066406 186.921875 5.992188-3.460937v6.921874zm0 0"/><path d="m116.066406 193.84375 5.992188-3.460938v6.917969zm0 0"/><path d="m128.054688 221.527344 5.992187-3.460938v6.921875zm0 0"/><path d="m134.046875 224.988281 5.996094-3.460937v6.921875zm0 0"/><path d="m158.023438 238.828125 5.992187-3.460937v6.921874zm0 0"/><path d="m164.015625 242.289062 5.996094-3.460937v6.921875zm0 0"/><path d="m193.984375 238.828125 5.996094-3.460937v6.921874zm0 0"/><path d="m199.980469 235.367188 5.992187-3.460938v6.921875zm0 0"/><path d="m211.96875 228.449219 5.992188-3.460938v6.917969zm0 0"/><path d="m217.960938 224.988281 5.992187-3.460937v6.921875zm0 0"/><path d="m241.9375 211.144531 5.992188-3.460937v6.921875zm0 0"/><path d="m241.9375 190.382812 5.992188-3.460937v6.921875zm0 0"/><path d="m241.9375 169.617188 5.992188-3.460938v6.921875zm0 0"/><path d="m241.9375 148.855469 5.992188-3.460938v6.921875zm0 0"/><path d="m235.941406 138.472656 5.996094-3.460937v6.921875zm0 0"/><path d="m229.949219 135.011719 5.992187-3.460938v6.921875zm0 0"/><path d="m211.96875 124.632812 5.992188-3.460937v6.921875zm0 0"/><path d="m205.972656 121.171875 5.996094-3.460937v6.921874zm0 0"/><path d="m187.992188 110.789062 5.992187-3.460937v6.921875zm0 0"/><path d="m181.996094 107.328125 5.996094-3.460937v6.921874zm0 0"/><path d="m170.011719 107.328125 5.992187-3.460937v6.921874zm0 0"/><path d="m152.027344 117.710938 5.996094-3.460938v6.921875zm0 0"/><path d="m134.046875 128.09375 5.996094-3.460938v6.917969zm0 0"/><path d="m116.066406 138.472656 5.992188-3.460937v6.921875zm0 0"/><path d="m110.070312 148.855469 5.996094-3.460938v6.921875zm0 0"/><path d="m110.070312 155.777344 5.996094-3.460938v6.921875zm0 0"/><path d="m110.070312 176.539062 5.996094-3.460937v6.921875zm0 0"/><path d="m110.070312 183.460938 5.996094-3.460938v6.921875zm0 0"/><path d="m110.070312 204.222656 5.996094-3.460937v6.921875zm0 0"/><path d="m110.070312 211.144531 5.996094-3.460937v6.921875zm0 0"/><path d="m116.066406 221.527344 5.992188-3.460938v6.921875zm0 0"/><path d="m134.046875 231.90625 5.996094-3.457031v6.917969zm0 0"/><path d="m152.027344 242.289062 5.996094-3.460937v6.921875zm0 0"/><path d="m170.011719 252.671875 5.992187-3.460937v6.921874zm0 0"/><path d="m181.996094 252.671875 5.996094-3.460937v6.921874zm0 0"/><path d="m187.992188 249.210938 5.992187-3.460938v6.921875zm0 0"/><path d="m205.972656 238.828125 5.996094-3.460937v6.921874zm0 0"/><path d="m211.96875 235.367188 5.992188-3.460938v6.921875zm0 0"/><path d="m229.949219 224.988281 5.992187-3.460937v6.921875zm0 0"/><path d="m235.941406 221.527344 5.996094-3.460938v6.921875zm0 0"/><path d="m247.929688 214.605469 5.992187-3.460938v6.921875zm0 0"/><path d="m247.929688 207.683594 5.992187-3.460938v6.921875zm0 0"/><path d="m247.929688 200.761719 5.992187-3.460938v6.921875zm0 0"/><path d="m247.929688 193.84375 5.992187-3.460938v6.917969zm0 0"/><path d="m247.929688 166.15625 5.992187-3.457031v6.917969zm0 0"/><path d="m247.929688 159.238281 5.992187-3.460937v6.921875zm0 0"/><path d="m247.929688 152.316406 5.992187-3.460937v6.921875zm0 0"/><path d="m247.929688 145.394531 5.992187-3.460937v6.921875zm0 0"/><path d="m211.96875 117.710938 5.992188-3.460938v6.921875zm0 0"/><path d="m170.011719 100.40625 5.992187-3.457031v6.917969zm0 0"/><path d="m164.015625 103.867188 5.996094-3.460938v6.921875zm0 0"/><path d="m158.023438 107.328125 5.992187-3.460937v6.921874zm0 0"/><path d="m152.027344 110.789062 5.996094-3.460937v6.921875zm0 0"/><path d="m128.054688 124.632812 5.992187-3.460937v6.921875zm0 0"/><path d="m122.058594 128.09375 5.996094-3.460938v6.917969zm0 0"/><path d="m116.066406 131.550781 5.992188-3.457031v6.917969zm0 0"/><path d="m110.070312 135.011719 5.996094-3.460938v6.921875zm0 0"/><path d="m104.078125 180 5.992187-3.460938v6.921876zm0 0"/><path d="m110.070312 224.988281 5.996094-3.460937v6.921875zm0 0"/><path d="m116.066406 228.449219 5.992188-3.460938v6.917969zm0 0"/><path d="m122.058594 231.90625 5.996094-3.457031v6.917969zm0 0"/><path d="m128.054688 235.367188 5.992187-3.460938v6.921875zm0 0"/><path d="m152.027344 249.210938 5.996094-3.460938v6.921875zm0 0"/><path d="m158.023438 252.671875 5.992187-3.460937v6.921874zm0 0"/><path d="m164.015625 256.132812 5.996094-3.460937v6.921875zm0 0"/><path d="m170.011719 259.59375 5.992187-3.460938v6.917969zm0 0"/><path d="m211.96875 242.289062 5.992188-3.460937v6.921875zm0 0"/><path d="m253.921875 224.988281 5.996094-3.460937v6.921875zm0 0"/><path d="m253.921875 218.066406 5.996094-3.460937v6.921875zm0 0"/><path d="m253.921875 141.933594 5.996094-3.460938v6.921875zm0 0"/><path d="m253.921875 135.011719 5.996094-3.460938v6.921875zm0 0"/><path d="m247.929688 131.550781 5.992187-3.457031v6.917969zm0 0"/><path d="m181.996094 93.488281 5.996094-3.460937v6.921875zm0 0"/><path d="m176.003906 90.027344 5.992188-3.460938v6.921875zm0 0"/><path d="m170.011719 93.488281 5.992187-3.460937v6.921875zm0 0"/><path d="m104.078125 131.550781 5.992187-3.457031v6.917969zm0 0"/><path d="m98.085938 135.011719 5.992187-3.460938v6.921875zm0 0"/><path d="m98.085938 141.933594 5.992187-3.460938v6.921875zm0 0"/><path d="m98.085938 218.066406 5.992187-3.460937v6.921875zm0 0"/><path d="m98.085938 224.988281 5.992187-3.460937v6.921875zm0 0"/><path d="m104.078125 228.449219 5.992187-3.460938v6.917969zm0 0"/><path d="m170.011719 266.511719 5.992187-3.460938v6.921875zm0 0"/><path d="m176.003906 269.972656 5.992188-3.460937v6.921875zm0 0"/><path d="m181.996094 266.511719 5.996094-3.460938v6.921875zm0 0"/><path d="m247.929688 228.449219 5.992187-3.460938v6.917969zm0 0"/><path d="m259.917969 221.527344 5.992187-3.460938v6.921875zm0 0"/><path d="m259.917969 200.761719 5.992187-3.460938v6.921875zm0 0"/><path d="m259.917969 180 5.992187-3.460938v6.921876zm0 0"/><path d="m259.917969 159.238281 5.992187-3.460937v6.921875zm0 0"/><path d="m259.917969 138.472656 5.992187-3.460937v6.921875zm0 0"/><path d="m241.9375 121.171875 5.992188-3.460937v6.921874zm0 0"/><path d="m229.949219 114.25 5.992187-3.460938v6.921876zm0 0"/><path d="m223.953125 110.789062 5.996094-3.460937v6.921875zm0 0"/><path d="m217.960938 107.328125 5.992187-3.460937v6.921874zm0 0"/><path d="m211.96875 103.867188 5.992188-3.460938v6.921875zm0 0"/><path d="m205.972656 100.40625 5.996094-3.457031v6.917969zm0 0"/><path d="m193.984375 93.488281 5.996094-3.460937v6.921875zm0 0"/><path d="m170.011719 86.566406 5.992187-3.460937v6.921875zm0 0"/><path d="m152.027344 96.949219 5.996094-3.460938v6.917969zm0 0"/><path d="m134.046875 107.328125 5.996094-3.460937v6.921874zm0 0"/><path d="m116.066406 117.710938 5.992188-3.460938v6.921875zm0 0"/><path d="m98.085938 128.09375 5.992187-3.460938v6.917969zm0 0"/><path d="m92.089844 152.316406 5.996094-3.460937v6.921875zm0 0"/><path d="m92.089844 166.15625 5.996094-3.457031v6.917969zm0 0"/><path d="m92.089844 173.078125 5.996094-3.460937v6.921874zm0 0"/><path d="m92.089844 180 5.996094-3.460938v6.921876zm0 0"/><path d="m92.089844 186.921875 5.996094-3.460937v6.921874zm0 0"/><path d="m92.089844 193.84375 5.996094-3.460938v6.917969zm0 0"/><path d="m92.089844 207.683594 5.996094-3.460938v6.921875zm0 0"/><path d="m98.085938 231.90625 5.992187-3.457031v6.917969zm0 0"/><path d="m116.066406 242.289062 5.992188-3.460937v6.921875zm0 0"/><path d="m134.046875 252.671875 5.996094-3.460937v6.921874zm0 0"/><path d="m152.027344 263.050781 5.996094-3.457031v6.917969zm0 0"/><path d="m170.011719 273.433594 5.992187-3.460938v6.921875zm0 0"/><path d="m193.984375 266.511719 5.996094-3.460938v6.921875zm0 0"/><path d="m205.972656 259.59375 5.996094-3.460938v6.917969zm0 0"/><path d="m211.96875 256.132812 5.992188-3.460937v6.921875zm0 0"/><path d="m217.960938 252.671875 5.992187-3.460937v6.921874zm0 0"/><path d="m223.953125 249.210938 5.996094-3.460938v6.921875zm0 0"/><path d="m229.949219 245.75 5.992187-3.460938v6.921876zm0 0"/><path d="m241.9375 238.828125 5.992188-3.460937v6.921874zm0 0"/><path d="m265.910156 224.988281 5.996094-3.460937v6.921875zm0 0"/><path d="m265.910156 211.144531 5.996094-3.460937v6.921875zm0 0"/><path d="m265.910156 197.300781 5.996094-3.457031v6.917969zm0 0"/><path d="m265.910156 190.382812 5.996094-3.460937v6.921875zm0 0"/><path d="m265.910156 183.460938 5.996094-3.460938v6.921875zm0 0"/><path d="m265.910156 176.539062 5.996094-3.460937v6.921875zm0 0"/><path d="m265.910156 169.617188 5.996094-3.460938v6.921875zm0 0"/><path d="m265.910156 162.699219 5.996094-3.460938v6.917969zm0 0"/><path d="m265.910156 148.855469 5.996094-3.460938v6.921875zm0 0"/><path d="m265.910156 135.011719 5.996094-3.460938v6.921875zm0 0"/><path d="m259.917969 124.632812 5.992187-3.460937v6.921875zm0 0"/><path d="m253.921875 121.171875 5.996094-3.460937v6.921874zm0 0"/><path d="m247.929688 117.710938 5.992187-3.460938v6.921875zm0 0"/><path d="m241.9375 114.25 5.992188-3.460938v6.921876zm0 0"/><path d="m235.941406 110.789062 5.996094-3.460937v6.921875zm0 0"/><path d="m223.953125 103.867188 5.996094-3.460938v6.921875zm0 0"/><path d="m217.960938 100.40625 5.992187-3.457031v6.917969zm0 0"/><path d="m205.972656 93.488281 5.996094-3.460937v6.921875zm0 0"/><path d="m199.980469 90.027344 5.992187-3.460938v6.921875zm0 0"/><path d="m193.984375 86.566406 5.996094-3.460937v6.921875zm0 0"/><path d="m187.992188 83.105469 5.992187-3.460938v6.921875zm0 0"/><path d="m181.996094 79.644531 5.996094-3.460937v6.921875zm0 0"/><path d="m170.011719 79.644531 5.992187-3.460937v6.921875zm0 0"/><path d="m158.023438 86.566406 5.992187-3.460937v6.921875zm0 0"/><path d="m146.035156 93.488281 5.992188-3.460937v6.921875zm0 0"/><path d="m140.042969 96.949219 5.992187-3.460938v6.917969zm0 0"/><path d="m134.046875 100.40625 5.996094-3.457031v6.917969zm0 0"/><path d="m128.054688 103.867188 5.992187-3.460938v6.921875zm0 0"/><path d="m122.058594 107.328125 5.996094-3.460937v6.921874zm0 0"/><path d="m116.066406 110.789062 5.992188-3.460937v6.921875zm0 0"/><path d="m104.078125 117.710938 5.992187-3.460938v6.921875zm0 0"/><path d="m92.089844 124.632812 5.996094-3.460937v6.921875zm0 0"/><path d="m86.097656 135.011719 5.992188-3.460938v6.921875zm0 0"/><path d="m86.097656 141.933594 5.992188-3.460938v6.921875zm0 0"/><path d="m86.097656 148.855469 5.992188-3.460938v6.921875zm0 0"/><path d="m86.097656 155.777344 5.992188-3.460938v6.921875zm0 0"/><path d="m86.097656 162.699219 5.992188-3.460938v6.917969zm0 0"/><path d="m86.097656 176.539062 5.992188-3.460937v6.921875zm0 0"/><path d="m86.097656 183.460938 5.992188-3.460938v6.921875zm0 0"/><path d="m86.097656 197.300781 5.992188-3.457031v6.917969zm0 0"/><path d="m86.097656 204.222656 5.992188-3.460937v6.921875zm0 0"/><path d="m86.097656 211.144531 5.992188-3.460937v6.921875zm0 0"/><path d="m86.097656 218.066406 5.992188-3.460937v6.921875zm0 0"/><path d="m86.097656 224.988281 5.992188-3.460937v6.921875zm0 0"/><path d="m92.089844 235.367188 5.996094-3.460938v6.921875zm0 0"/><path d="m104.078125 242.289062 5.992187-3.460937v6.921875zm0 0"/><path d="m116.066406 249.210938 5.992188-3.460938v6.921875zm0 0"/><path d="m122.058594 252.671875 5.996094-3.460937v6.921874zm0 0"/><path d="m128.054688 256.132812 5.992187-3.460937v6.921875zm0 0"/><path d="m134.046875 259.59375 5.996094-3.460938v6.917969zm0 0"/><path d="m140.042969 263.050781 5.992187-3.457031v6.917969zm0 0"/><path d="m146.035156 266.511719 5.992188-3.460938v6.921875zm0 0"/><path d="m158.023438 273.433594 5.992187-3.460938v6.921875zm0 0"/><path d="m170.011719 280.355469 5.992187-3.460938v6.921875zm0 0"/><path d="m181.996094 280.355469 5.996094-3.460938v6.921875zm0 0"/><path d="m187.992188 276.894531 5.992187-3.460937v6.921875zm0 0"/><path d="m193.984375 273.433594 5.996094-3.460938v6.921875zm0 0"/><path d="m199.980469 269.972656 5.992187-3.460937v6.921875zm0 0"/><path d="m205.972656 266.511719 5.996094-3.460938v6.921875zm0 0"/><path d="m217.960938 259.59375 5.992187-3.460938v6.917969zm0 0"/><path d="m223.953125 256.132812 5.996094-3.460937v6.921875zm0 0"/><path d="m235.941406 249.210938 5.996094-3.460938v6.921875zm0 0"/><path d="m241.9375 245.75 5.992188-3.460938v6.921876zm0 0"/><path d="m247.929688 242.289062 5.992187-3.460937v6.921875zm0 0"/><path d="m253.921875 238.828125 5.996094-3.460937v6.921874zm0 0"/><path d="m259.917969 235.367188 5.992187-3.460938v6.921875zm0 0"/><path d="m271.90625 221.527344 5.992188-3.460938v6.921875zm0 0"/><path d="m271.90625 214.605469 5.992188-3.460938v6.921875zm0 0"/><path d="m271.90625 145.394531 5.992188-3.460937v6.921875zm0 0"/><path d="m271.90625 138.472656 5.992188-3.460937v6.921875zm0 0"/><path d="m259.917969 117.710938 5.992187-3.460938v6.921875zm0 0"/><path d="m253.921875 114.25 5.996094-3.460938v6.921876zm0 0"/><path d="m235.941406 103.867188 5.996094-3.460938v6.921875zm0 0"/><path d="m211.96875 90.027344 5.992188-3.460938v6.921875zm0 0"/><path d="m193.984375 79.644531 5.996094-3.460937v6.921875zm0 0"/><path d="m187.992188 76.183594 5.992187-3.460938v6.921875zm0 0"/><path d="m164.015625 76.183594 5.996094-3.460938v6.921875zm0 0"/><path d="m158.023438 79.644531 5.992187-3.460937v6.921875zm0 0"/><path d="m98.085938 114.25 5.992187-3.460938v6.921876zm0 0"/><path d="m92.089844 117.710938 5.996094-3.460938v6.921875zm0 0"/><path d="m80.101562 138.472656 5.996094-3.460937v6.921875zm0 0"/><path d="m80.101562 145.394531 5.996094-3.460937v6.921875zm0 0"/><path d="m80.101562 166.15625 5.996094-3.457031v6.917969zm0 0"/><path d="m80.101562 193.84375 5.996094-3.460938v6.917969zm0 0"/><path d="m80.101562 214.605469 5.996094-3.460938v6.921875zm0 0"/><path d="m80.101562 221.527344 5.996094-3.460938v6.921875zm0 0"/><path d="m92.089844 242.289062 5.996094-3.460937v6.921875zm0 0"/><path d="m98.085938 245.75 5.992187-3.460938v6.921876zm0 0"/><path d="m158.023438 280.355469 5.992187-3.460938v6.921875zm0 0"/><path d="m164.015625 283.816406 5.996094-3.460937v6.921875zm0 0"/><path d="m187.992188 283.816406 5.992187-3.460937v6.921875zm0 0"/><path d="m193.984375 280.355469 5.996094-3.460938v6.921875zm0 0"/><path d="m211.96875 269.972656 5.992188-3.460937v6.921875zm0 0"/><path d="m235.941406 256.132812 5.996094-3.460937v6.921875zm0 0"/><path d="m253.921875 245.75 5.996094-3.460938v6.921876zm0 0"/><path d="m259.917969 242.289062 5.992187-3.460937v6.921875zm0 0"/><path d="m277.898438 224.988281 5.996093-3.460937v6.921875zm0 0"/><path d="m277.898438 218.066406 5.996093-3.460937v6.921875zm0 0"/><path d="m277.898438 211.144531 5.996093-3.460937v6.921875zm0 0"/><path d="m277.898438 190.382812 5.996093-3.460937v6.921875zm0 0"/><path d="m277.898438 183.460938 5.996093-3.460938v6.921875zm0 0"/><path d="m277.898438 176.539062 5.996093-3.460937v6.921875zm0 0"/><path d="m277.898438 169.617188 5.996093-3.460938v6.921875zm0 0"/><path d="m277.898438 148.855469 5.996093-3.460938v6.921875zm0 0"/><path d="m277.898438 141.933594 5.996093-3.460938v6.921875zm0 0"/><path d="m277.898438 135.011719 5.996093-3.460938v6.921875zm0 0"/><path d="m253.921875 107.328125 5.996094-3.460937v6.921874zm0 0"/><path d="m199.980469 76.183594 5.992187-3.460938v6.921875zm0 0"/><path d="m164.015625 69.261719 5.996094-3.460938v6.921875zm0 0"/><path d="m158.023438 72.722656 5.992187-3.460937v6.921875zm0 0"/><path d="m152.027344 76.183594 5.996094-3.460938v6.921875zm0 0"/><path d="m134.046875 86.566406 5.996094-3.460937v6.921875zm0 0"/><path d="m128.054688 90.027344 5.992187-3.460938v6.921875zm0 0"/><path d="m122.058594 93.488281 5.996094-3.460937v6.921875zm0 0"/><path d="m116.066406 96.949219 5.992188-3.460938v6.917969zm0 0"/><path d="m98.085938 107.328125 5.992187-3.460937v6.921874zm0 0"/><path d="m92.089844 110.789062 5.996094-3.460937v6.921875zm0 0"/><path d="m86.097656 114.25 5.992188-3.460938v6.921876zm0 0"/><path d="m74.109375 148.855469 5.992187-3.460938v6.921875zm0 0"/><path d="m74.109375 211.144531 5.992187-3.460937v6.921875zm0 0"/><path d="m86.097656 245.75 5.992188-3.460938v6.921876zm0 0"/><path d="m92.089844 249.210938 5.996094-3.460938v6.921875zm0 0"/><path d="m98.085938 252.671875 5.992187-3.460937v6.921874zm0 0"/><path d="m116.066406 263.050781 5.992188-3.457031v6.917969zm0 0"/><path d="m122.058594 266.511719 5.996094-3.460938v6.921875zm0 0"/><path d="m128.054688 269.972656 5.992187-3.460937v6.921875zm0 0"/><path d="m134.046875 273.433594 5.996094-3.460938v6.921875zm0 0"/><path d="m152.027344 283.816406 5.996094-3.460937v6.921875zm0 0"/><path d="m158.023438 287.277344 5.992187-3.460938v6.921875zm0 0"/><path d="m164.015625 290.738281 5.996094-3.460937v6.921875zm0 0"/><path d="m199.980469 283.816406 5.992187-3.460937v6.921875zm0 0"/><path d="m253.921875 252.671875 5.996094-3.460937v6.921874zm0 0"/><path d="m283.894531 193.84375 5.992188-3.460938v6.917969zm0 0"/><path d="m283.894531 186.921875 5.992188-3.460937v6.921874zm0 0"/><path d="m283.894531 173.078125 5.992188-3.460937v6.921874zm0 0"/><path d="m283.894531 166.15625 5.992188-3.457031v6.917969zm0 0"/><path d="m247.929688 96.949219 5.992187-3.460938v6.917969zm0 0"/><path d="m241.9375 93.488281 5.992188-3.460937v6.921875zm0 0"/><path d="m229.949219 86.566406 5.992187-3.460937v6.921875zm0 0"/><path d="m217.960938 79.644531 5.992187-3.460937v6.921875zm0 0"/><path d="m211.96875 76.183594 5.992188-3.460938v6.921875zm0 0"/><path d="m134.046875 79.644531 5.996094-3.460937v6.921875zm0 0"/><path d="m128.054688 83.105469 5.992187-3.460938v6.921875zm0 0"/><path d="m116.066406 90.027344 5.992188-3.460938v6.921875zm0 0"/><path d="m110.070312 93.488281 5.996094-3.460937v6.921875zm0 0"/><path d="m68.117188 159.238281 5.992187-3.460937v6.921875zm0 0"/><path d="m68.117188 166.15625 5.992187-3.457031v6.917969zm0 0"/><path d="m68.117188 180 5.992187-3.460938v6.921876zm0 0"/><path d="m68.117188 193.84375 5.992187-3.460938v6.917969zm0 0"/><path d="m68.117188 200.761719 5.992187-3.460938v6.921875zm0 0"/><path d="m110.070312 266.511719 5.996094-3.460938v6.921875zm0 0"/><path d="m116.066406 269.972656 5.992188-3.460937v6.921875zm0 0"/><path d="m128.054688 276.894531 5.992187-3.460937v6.921875zm0 0"/><path d="m134.046875 280.355469 5.996094-3.460938v6.921875zm0 0"/><path d="m211.96875 283.816406 5.992188-3.460937v6.921875zm0 0"/><path d="m217.960938 280.355469 5.992187-3.460938v6.921875zm0 0"/><path d="m229.949219 273.433594 5.992187-3.460938v6.921875zm0 0"/><path d="m241.9375 266.511719 5.992188-3.460938v6.921875zm0 0"/><path d="m247.929688 263.050781 5.992187-3.457031v6.917969zm0 0"/><path d="m289.886719 190.382812 5.992187-3.460937v6.921875zm0 0"/><path d="m289.886719 183.460938 5.992187-3.460938v6.921875zm0 0"/><path d="m289.886719 176.539062 5.992187-3.460937v6.921875zm0 0"/><path d="m289.886719 169.617188 5.992187-3.460938v6.921875zm0 0"/><path d="m253.921875 93.488281 5.996094-3.460937v6.921875zm0 0"/><path d="m247.929688 90.027344 5.992187-3.460938v6.921875zm0 0"/><path d="m241.9375 86.566406 5.992188-3.460937v6.921875zm0 0"/><path d="m223.953125 76.183594 5.996094-3.460938v6.921875zm0 0"/><path d="m217.960938 72.722656 5.992187-3.460937v6.921875zm0 0"/><path d="m211.96875 69.261719 5.992188-3.460938v6.921875zm0 0"/><path d="m128.054688 76.183594 5.992187-3.460938v6.921875zm0 0"/><path d="m122.058594 79.644531 5.996094-3.460937v6.921875zm0 0"/><path d="m116.066406 83.105469 5.992188-3.460938v6.921875zm0 0"/><path d="m110.070312 86.566406 5.996094-3.460937v6.921875zm0 0"/><path d="m62.121094 155.777344 5.996094-3.460938v6.921875zm0 0"/><path d="m62.121094 162.699219 5.996094-3.460938v6.917969zm0 0"/><path d="m62.121094 169.617188 5.996094-3.460938v6.921875zm0 0"/><path d="m62.121094 190.382812 5.996094-3.460937v6.921875zm0 0"/><path d="m62.121094 197.300781 5.996094-3.457031v6.917969zm0 0"/><path d="m62.121094 204.222656 5.996094-3.460937v6.921875zm0 0"/><path d="m110.070312 273.433594 5.996094-3.460938v6.921875zm0 0"/><path d="m116.066406 276.894531 5.992188-3.460937v6.921875zm0 0"/><path d="m122.058594 280.355469 5.996094-3.460938v6.921875zm0 0"/><path d="m128.054688 283.816406 5.992187-3.460937v6.921875zm0 0"/><path d="m211.96875 290.738281 5.992188-3.460937v6.921875zm0 0"/><path d="m217.960938 287.277344 5.992187-3.460938v6.921875zm0 0"/><path d="m223.953125 283.816406 5.996094-3.460937v6.921875zm0 0"/><path d="m241.9375 273.433594 5.992188-3.460938v6.921875zm0 0"/><path d="m247.929688 269.972656 5.992187-3.460937v6.921875zm0 0"/><path d="m253.921875 266.511719 5.996094-3.460938v6.921875zm0 0"/><path d="m295.878906 193.84375 5.996094-3.460938v6.917969zm0 0"/><path d="m295.878906 186.921875 5.996094-3.460937v6.921874zm0 0"/><path d="m295.878906 173.078125 5.996094-3.460937v6.921874zm0 0"/><path d="m295.878906 166.15625 5.996094-3.457031v6.917969zm0 0"/><path d="m247.929688 83.105469 5.992187-3.460938v6.921875zm0 0"/><path d="m235.941406 76.183594 5.996094-3.460938v6.921875zm0 0"/><path d="m223.953125 69.261719 5.996094-3.460938v6.921875zm0 0"/><path d="m128.054688 69.261719 5.992187-3.460938v6.921875zm0 0"/><path d="m122.058594 72.722656 5.996094-3.460937v6.921875zm0 0"/><path d="m110.070312 79.644531 5.996094-3.460937v6.921875zm0 0"/><path d="m104.078125 83.105469 5.992187-3.460938v6.921875zm0 0"/><path d="m56.128906 166.15625 5.992188-3.457031v6.917969zm0 0"/><path d="m56.128906 180 5.992188-3.460938v6.921876zm0 0"/><path d="m56.128906 193.84375 5.992188-3.460938v6.917969zm0 0"/><path d="m104.078125 276.894531 5.992187-3.460937v6.921875zm0 0"/><path d="m110.070312 280.355469 5.996094-3.460938v6.921875zm0 0"/><path d="m122.058594 287.277344 5.996094-3.460938v6.921875zm0 0"/><path d="m128.054688 290.738281 5.992187-3.460937v6.921875zm0 0"/><path d="m223.953125 290.738281 5.996094-3.460937v6.921875zm0 0"/><path d="m235.941406 283.816406 5.996094-3.460937v6.921875zm0 0"/><path d="m247.929688 276.894531 5.992187-3.460937v6.921875zm0 0"/><path d="m301.875 183.460938 5.992188-3.460938v6.921875zm0 0"/><path d="m301.875 176.539062 5.992188-3.460937v6.921875zm0 0"/><path d="m241.9375 72.722656 5.992188-3.460937v6.921875zm0 0"/><path d="m235.941406 69.261719 5.996094-3.460938v6.921875zm0 0"/><path d="m116.066406 69.261719 5.992188-3.460938v6.921875zm0 0"/><path d="m110.070312 72.722656 5.996094-3.460937v6.921875zm0 0"/><path d="m50.132812 176.539062 5.996094-3.460937v6.921875zm0 0"/><path d="m50.132812 183.460938 5.996094-3.460938v6.921875zm0 0"/><path d="m110.070312 287.277344 5.996094-3.460938v6.921875zm0 0"/><path d="m116.066406 290.738281 5.992188-3.460937v6.921875zm0 0"/><path d="m235.941406 290.738281 5.996094-3.460937v6.921875zm0 0"/><path d="m241.9375 287.277344 5.992188-3.460938v6.921875zm0 0"/><path d="m187.992188 180-5.996094-3.460938v6.921876zm0 0"/><path d="m181.996094 176.539062-5.992188-3.460937v6.921875zm0 0"/><path d="m181.996094 183.460938-5.992188-3.460938v6.921875zm0 0"/><path d="m205.972656 190.382812-5.992187-3.460937v6.921875zm0 0"/><path d="m205.972656 183.460938-5.992187-3.460938v6.921875zm0 0"/><path d="m205.972656 176.539062-5.992187-3.460937v6.921875zm0 0"/><path d="m205.972656 169.617188-5.992187-3.460938v6.921875zm0 0"/><path d="m181.996094 155.777344-5.992188-3.460938v6.921875zm0 0"/><path d="m176.003906 159.238281-5.992187-3.460937v6.921875zm0 0"/><path d="m170.011719 162.699219-5.996094-3.460938v6.917969zm0 0"/><path d="m164.015625 166.15625-5.992187-3.457031v6.917969zm0 0"/><path d="m164.015625 193.84375-5.992187-3.460938v6.917969zm0 0"/><path d="m170.011719 197.300781-5.996094-3.457031v6.917969zm0 0"/><path d="m176.003906 200.761719-5.992187-3.460938v6.921875zm0 0"/><path d="m181.996094 204.222656-5.992188-3.460937v6.921875zm0 0"/><path d="m211.96875 193.84375-5.996094-3.460938v6.917969zm0 0"/><path d="m211.96875 180-5.996094-3.460938v6.921876zm0 0"/><path d="m211.96875 166.15625-5.996094-3.457031v6.917969zm0 0"/><path d="m205.972656 162.699219-5.992187-3.460938v6.917969zm0 0"/><path d="m199.980469 159.238281-5.996094-3.460937v6.921875zm0 0"/><path d="m193.984375 155.777344-5.992187-3.460938v6.921875zm0 0"/><path d="m187.992188 152.316406-5.996094-3.460937v6.921875zm0 0"/><path d="m181.996094 148.855469-5.992188-3.460938v6.921875zm0 0"/><path d="m170.011719 155.777344-5.996094-3.460938v6.921875zm0 0"/><path d="m158.023438 162.699219-5.996094-3.460938v6.917969zm0 0"/><path d="m158.023438 169.617188-5.996094-3.460938v6.921875zm0 0"/><path d="m158.023438 176.539062-5.996094-3.460937v6.921875zm0 0"/><path d="m158.023438 183.460938-5.996094-3.460938v6.921875zm0 0"/><path d="m158.023438 190.382812-5.996094-3.460937v6.921875zm0 0"/><path d="m158.023438 197.300781-5.996094-3.457031v6.917969zm0 0"/><path d="m170.011719 204.222656-5.996094-3.460937v6.921875zm0 0"/><path d="m181.996094 211.144531-5.992188-3.460937v6.921875zm0 0"/><path d="m187.992188 207.683594-5.996094-3.460938v6.921875zm0 0"/><path d="m193.984375 204.222656-5.992187-3.460937v6.921875zm0 0"/><path d="m199.980469 200.761719-5.996094-3.460938v6.921875zm0 0"/><path d="m205.972656 197.300781-5.992187-3.457031v6.917969zm0 0"/><path d="m205.972656 155.777344-5.992187-3.460938v6.921875zm0 0"/><path d="m199.980469 152.316406-5.996094-3.460937v6.921875zm0 0"/><path d="m193.984375 148.855469-5.992187-3.460938v6.921875zm0 0"/><path d="m152.027344 173.078125-5.992188-3.460937v6.921874zm0 0"/><path d="m152.027344 180-5.992188-3.460938v6.921876zm0 0"/><path d="m152.027344 186.921875-5.992188-3.460937v6.921874zm0 0"/><path d="m193.984375 211.144531-5.992187-3.460937v6.921875zm0 0"/><path d="m199.980469 207.683594-5.996094-3.460938v6.921875zm0 0"/><path d="m205.972656 204.222656-5.992187-3.460937v6.921875zm0 0"/><path d="m223.953125 200.761719-5.992187-3.460938v6.921875zm0 0"/><path d="m223.953125 159.238281-5.992187-3.460937v6.921875zm0 0"/><path d="m211.96875 152.316406-5.996094-3.460937v6.921875zm0 0"/><path d="m205.972656 148.855469-5.992187-3.460938v6.921875zm0 0"/><path d="m199.980469 145.394531-5.996094-3.460937v6.921875zm0 0"/><path d="m193.984375 141.933594-5.992187-3.460938v6.921875zm0 0"/><path d="m181.996094 135.011719-5.992188-3.460938v6.921875zm0 0"/><path d="m146.035156 155.777344-5.992187-3.460938v6.921875zm0 0"/><path d="m146.035156 169.617188-5.992187-3.460938v6.921875zm0 0"/><path d="m146.035156 176.539062-5.992187-3.460937v6.921875zm0 0"/><path d="m146.035156 183.460938-5.992187-3.460938v6.921875zm0 0"/><path d="m146.035156 190.382812-5.992187-3.460937v6.921875zm0 0"/><path d="m146.035156 204.222656-5.992187-3.460937v6.921875zm0 0"/><path d="m181.996094 224.988281-5.992188-3.460937v6.921875zm0 0"/><path d="m193.984375 218.066406-5.992187-3.460937v6.921875zm0 0"/><path d="m199.980469 214.605469-5.996094-3.460938v6.921875zm0 0"/><path d="m205.972656 211.144531-5.992187-3.460937v6.921875zm0 0"/><path d="m211.96875 207.683594-5.996094-3.460938v6.921875zm0 0"/><path d="m211.96875 145.394531-5.996094-3.460937v6.921875zm0 0"/><path d="m205.972656 141.933594-5.992187-3.460938v6.921875zm0 0"/><path d="m199.980469 138.472656-5.996094-3.460937v6.921875zm0 0"/><path d="m140.042969 173.078125-5.996094-3.460937v6.921874zm0 0"/><path d="m140.042969 180-5.996094-3.460938v6.921876zm0 0"/><path d="m140.042969 186.921875-5.996094-3.460937v6.921874zm0 0"/><path d="m199.980469 221.527344-5.996094-3.460938v6.921875zm0 0"/><path d="m205.972656 218.066406-5.992187-3.460937v6.921875zm0 0"/><path d="m211.96875 214.605469-5.996094-3.460938v6.921875zm0 0"/><path d="m235.941406 200.761719-5.992187-3.460938v6.921875zm0 0"/><path d="m235.941406 193.84375-5.992187-3.460938v6.917969zm0 0"/><path d="m235.941406 186.921875-5.992187-3.460937v6.921874zm0 0"/><path d="m235.941406 180-5.992187-3.460938v6.921876zm0 0"/><path d="m235.941406 173.078125-5.992187-3.460937v6.921874zm0 0"/><path d="m235.941406 166.15625-5.992187-3.457031v6.917969zm0 0"/><path d="m235.941406 159.238281-5.992187-3.460937v6.921875zm0 0"/><path d="m229.949219 148.855469-5.996094-3.460938v6.921875zm0 0"/><path d="m223.953125 145.394531-5.992187-3.460937v6.921875zm0 0"/><path d="m217.960938 141.933594-5.992188-3.460938v6.921875zm0 0"/><path d="m199.980469 131.550781-5.996094-3.457031v6.917969zm0 0"/><path d="m193.984375 128.09375-5.992187-3.460938v6.917969zm0 0"/><path d="m187.992188 124.632812-5.996094-3.460937v6.921875zm0 0"/><path d="m176.003906 124.632812-5.992187-3.460937v6.921875zm0 0"/><path d="m170.011719 128.09375-5.996094-3.460938v6.917969zm0 0"/><path d="m164.015625 131.550781-5.992187-3.457031v6.917969zm0 0"/><path d="m158.023438 135.011719-5.996094-3.460938v6.921875zm0 0"/><path d="m152.027344 138.472656-5.992188-3.460937v6.921875zm0 0"/><path d="m146.035156 141.933594-5.992187-3.460938v6.921875zm0 0"/><path d="m140.042969 145.394531-5.996094-3.460937v6.921875zm0 0"/><path d="m134.046875 155.777344-5.992187-3.460938v6.921875zm0 0"/><path d="m134.046875 162.699219-5.992187-3.460938v6.917969zm0 0"/><path d="m134.046875 169.617188-5.992187-3.460938v6.921875zm0 0"/><path d="m134.046875 190.382812-5.992187-3.460937v6.921875zm0 0"/><path d="m134.046875 197.300781-5.992187-3.457031v6.917969zm0 0"/><path d="m134.046875 204.222656-5.992187-3.460937v6.921875zm0 0"/><path d="m140.042969 214.605469-5.996094-3.460938v6.921875zm0 0"/><path d="m146.035156 218.066406-5.992187-3.460937v6.921875zm0 0"/><path d="m152.027344 221.527344-5.992188-3.460938v6.921875zm0 0"/><path d="m158.023438 224.988281-5.996094-3.460937v6.921875zm0 0"/><path d="m164.015625 228.449219-5.992187-3.460938v6.917969zm0 0"/><path d="m170.011719 231.90625-5.996094-3.457031v6.917969zm0 0"/><path d="m176.003906 235.367188-5.992187-3.460938v6.921875zm0 0"/><path d="m187.992188 235.367188-5.996094-3.460938v6.921875zm0 0"/><path d="m193.984375 231.90625-5.992187-3.457031v6.917969zm0 0"/><path d="m199.980469 228.449219-5.996094-3.460938v6.917969zm0 0"/><path d="m217.960938 218.066406-5.992188-3.460937v6.921875zm0 0"/><path d="m223.953125 214.605469-5.992187-3.460938v6.921875zm0 0"/><path d="m229.949219 211.144531-5.996094-3.460937v6.921875zm0 0"/><path d="m241.9375 197.300781-5.996094-3.457031v6.917969zm0 0"/><path d="m241.9375 162.699219-5.996094-3.460938v6.917969zm0 0"/><path d="m235.941406 145.394531-5.992187-3.460937v6.921875zm0 0"/><path d="m229.949219 141.933594-5.996094-3.460938v6.921875zm0 0"/><path d="m217.960938 135.011719-5.992188-3.460938v6.921875zm0 0"/><path d="m205.972656 128.09375-5.992187-3.460938v6.917969zm0 0"/><path d="m193.984375 121.171875-5.992187-3.460937v6.921874zm0 0"/><path d="m187.992188 117.710938-5.996094-3.460938v6.921875zm0 0"/><path d="m170.011719 121.171875-5.996094-3.460937v6.921874zm0 0"/><path d="m140.042969 138.472656-5.996094-3.460937v6.921875zm0 0"/><path d="m128.054688 152.316406-5.996094-3.460937v6.921875zm0 0"/><path d="m128.054688 159.238281-5.996094-3.460937v6.921875zm0 0"/><path d="m128.054688 173.078125-5.996094-3.460937v6.921874zm0 0"/><path d="m128.054688 186.921875-5.996094-3.460937v6.921874zm0 0"/><path d="m128.054688 200.761719-5.996094-3.460938v6.921875zm0 0"/><path d="m128.054688 207.683594-5.996094-3.460938v6.921875zm0 0"/><path d="m140.042969 221.527344-5.996094-3.460938v6.921875zm0 0"/><path d="m170.011719 238.828125-5.996094-3.460937v6.921874zm0 0"/><path d="m187.992188 242.289062-5.996094-3.460937v6.921875zm0 0"/><path d="m193.984375 238.828125-5.992187-3.460937v6.921874zm0 0"/><path d="m205.972656 231.90625-5.992187-3.457031v6.917969zm0 0"/><path d="m217.960938 224.988281-5.992188-3.460937v6.921875zm0 0"/><path d="m229.949219 218.066406-5.996094-3.460937v6.921875zm0 0"/><path d="m235.941406 214.605469-5.992187-3.460938v6.921875zm0 0"/><path d="m247.929688 193.84375-5.992188-3.460938v6.917969zm0 0"/><path d="m247.929688 166.15625-5.992188-3.457031v6.917969zm0 0"/><path d="m241.9375 141.933594-5.996094-3.460938v6.921875zm0 0"/><path d="m229.949219 135.011719-5.996094-3.460938v6.921875zm0 0"/><path d="m217.960938 128.09375-5.992188-3.460938v6.917969zm0 0"/><path d="m211.96875 124.632812-5.996094-3.460937v6.921875zm0 0"/><path d="m199.980469 117.710938-5.996094-3.460938v6.921875zm0 0"/><path d="m187.992188 110.789062-5.996094-3.460937v6.921875zm0 0"/><path d="m164.015625 117.710938-5.992187-3.460938v6.921875zm0 0"/><path d="m140.042969 131.550781-5.996094-3.457031v6.917969zm0 0"/><path d="m122.058594 148.855469-5.992188-3.460938v6.921875zm0 0"/><path d="m122.058594 162.699219-5.992188-3.460938v6.917969zm0 0"/><path d="m122.058594 176.539062-5.992188-3.460937v6.921875zm0 0"/><path d="m122.058594 183.460938-5.992188-3.460938v6.921875zm0 0"/><path d="m122.058594 197.300781-5.992188-3.457031v6.917969zm0 0"/><path d="m122.058594 211.144531-5.992188-3.460937v6.921875zm0 0"/><path d="m140.042969 228.449219-5.996094-3.460938v6.917969zm0 0"/><path d="m164.015625 242.289062-5.992187-3.460937v6.921875zm0 0"/><path d="m187.992188 249.210938-5.996094-3.460938v6.921875zm0 0"/><path d="m199.980469 242.289062-5.996094-3.460937v6.921875zm0 0"/><path d="m211.96875 235.367188-5.996094-3.460938v6.921875zm0 0"/><path d="m217.960938 231.90625-5.992188-3.457031v6.917969zm0 0"/><path d="m229.949219 224.988281-5.996094-3.460937v6.921875zm0 0"/><path d="m241.9375 218.066406-5.996094-3.460937v6.921875zm0 0"/><path d="m253.921875 211.144531-5.992187-3.460937v6.921875zm0 0"/><path d="m253.921875 190.382812-5.992187-3.460937v6.921875zm0 0"/><path d="m253.921875 169.617188-5.992187-3.460938v6.921875zm0 0"/><path d="m253.921875 148.855469-5.992187-3.460938v6.921875zm0 0"/><path d="m247.929688 138.472656-5.992188-3.460937v6.921875zm0 0"/><path d="m217.960938 121.171875-5.992188-3.460937v6.921874zm0 0"/><path d="m187.992188 103.867188-5.996094-3.460938v6.921875zm0 0"/><path d="m176.003906 103.867188-5.992187-3.460938v6.921875zm0 0"/><path d="m158.023438 114.25-5.996094-3.460938v6.921876zm0 0"/><path d="m140.042969 124.632812-5.996094-3.460937v6.921875zm0 0"/><path d="m122.058594 135.011719-5.992188-3.460938v6.921875zm0 0"/><path d="m116.066406 145.394531-5.996094-3.460937v6.921875zm0 0"/><path d="m116.066406 180-5.996094-3.460938v6.921876zm0 0"/><path d="m116.066406 214.605469-5.996094-3.460938v6.921875zm0 0"/><path d="m122.058594 224.988281-5.992188-3.460937v6.921875zm0 0"/><path d="m140.042969 235.367188-5.996094-3.460938v6.921875zm0 0"/><path d="m158.023438 245.75-5.996094-3.460938v6.921876zm0 0"/><path d="m176.003906 256.132812-5.992187-3.460937v6.921875zm0 0"/><path d="m187.992188 256.132812-5.996094-3.460937v6.921875zm0 0"/><path d="m217.960938 238.828125-5.992188-3.460937v6.921874zm0 0"/><path d="m247.929688 221.527344-5.992188-3.460938v6.921875zm0 0"/><path d="m259.917969 200.761719-5.996094-3.460938v6.921875zm0 0"/><path d="m259.917969 159.238281-5.996094-3.460937v6.921875zm0 0"/><path d="m235.941406 124.632812-5.992187-3.460937v6.921875zm0 0"/><path d="m229.949219 121.171875-5.996094-3.460937v6.921874zm0 0"/><path d="m211.96875 110.789062-5.996094-3.460937v6.921875zm0 0"/><path d="m205.972656 107.328125-5.992187-3.460937v6.921874zm0 0"/><path d="m164.015625 103.867188-5.992187-3.460938v6.921875zm0 0"/><path d="m128.054688 124.632812-5.996094-3.460937v6.921875zm0 0"/><path d="m110.070312 162.699219-5.992187-3.460938v6.917969zm0 0"/><path d="m110.070312 169.617188-5.992187-3.460938v6.921875zm0 0"/><path d="m110.070312 190.382812-5.992187-3.460937v6.921875zm0 0"/><path d="m110.070312 197.300781-5.992187-3.457031v6.917969zm0 0"/><path d="m128.054688 235.367188-5.996094-3.460938v6.921875zm0 0"/><path d="m164.015625 256.132812-5.992187-3.460937v6.921875zm0 0"/><path d="m205.972656 252.671875-5.992187-3.460937v6.921874zm0 0"/><path d="m211.96875 249.210938-5.996094-3.460938v6.921875zm0 0"/><path d="m229.949219 238.828125-5.996094-3.460937v6.921874zm0 0"/><path d="m235.941406 235.367188-5.992187-3.460938v6.921875zm0 0"/><path d="m265.910156 218.066406-5.992187-3.460937v6.921875zm0 0"/><path d="m265.910156 211.144531-5.992187-3.460937v6.921875zm0 0"/><path d="m265.910156 197.300781-5.992187-3.457031v6.917969zm0 0"/><path d="m265.910156 183.460938-5.992187-3.460938v6.921875zm0 0"/><path d="m265.910156 176.539062-5.992187-3.460937v6.921875zm0 0"/><path d="m265.910156 162.699219-5.992187-3.460938v6.917969zm0 0"/><path d="m265.910156 148.855469-5.992187-3.460938v6.921875zm0 0"/><path d="m265.910156 141.933594-5.992187-3.460938v6.921875zm0 0"/><path d="m259.917969 131.550781-5.996094-3.457031v6.917969zm0 0"/><path d="m223.953125 110.789062-5.992187-3.460937v6.921875zm0 0"/><path d="m187.992188 90.027344-5.996094-3.460938v6.921875zm0 0"/><path d="m176.003906 90.027344-5.992187-3.460938v6.921875zm0 0"/><path d="m170.011719 93.488281-5.996094-3.460937v6.921875zm0 0"/><path d="m158.023438 100.40625-5.996094-3.457031v6.917969zm0 0"/><path d="m146.035156 107.328125-5.992187-3.460937v6.921874zm0 0"/><path d="m140.042969 110.789062-5.996094-3.460937v6.921875zm0 0"/><path d="m128.054688 117.710938-5.996094-3.460938v6.921875zm0 0"/><path d="m116.066406 124.632812-5.996094-3.460937v6.921875zm0 0"/><path d="m110.070312 128.09375-5.992187-3.460938v6.917969zm0 0"/><path d="m104.078125 138.472656-5.992187-3.460937v6.921875zm0 0"/><path d="m104.078125 180-5.992187-3.460938v6.921876zm0 0"/><path d="m104.078125 221.527344-5.992187-3.460938v6.921875zm0 0"/><path d="m110.070312 231.90625-5.992187-3.457031v6.917969zm0 0"/><path d="m116.066406 235.367188-5.996094-3.460938v6.921875zm0 0"/><path d="m128.054688 242.289062-5.996094-3.460937v6.921875zm0 0"/><path d="m140.042969 249.210938-5.996094-3.460938v6.921875zm0 0"/><path d="m146.035156 252.671875-5.992187-3.460937v6.921874zm0 0"/><path d="m158.023438 259.59375-5.996094-3.460938v6.917969zm0 0"/><path d="m170.011719 266.511719-5.996094-3.460938v6.921875zm0 0"/><path d="m176.003906 269.972656-5.992187-3.460937v6.921875zm0 0"/><path d="m187.992188 269.972656-5.996094-3.460937v6.921875zm0 0"/><path d="m223.953125 249.210938-5.992187-3.460938v6.921875zm0 0"/><path d="m259.917969 228.449219-5.996094-3.460938v6.917969zm0 0"/><path d="m271.90625 214.605469-5.996094-3.460938v6.921875zm0 0"/><path d="m271.90625 207.683594-5.996094-3.460938v6.921875zm0 0"/><path d="m271.90625 193.84375-5.996094-3.460938v6.917969zm0 0"/><path d="m271.90625 186.921875-5.996094-3.460937v6.921874zm0 0"/><path d="m271.90625 180-5.996094-3.460938v6.921876zm0 0"/><path d="m271.90625 173.078125-5.996094-3.460937v6.921874zm0 0"/><path d="m271.90625 166.15625-5.996094-3.457031v6.917969zm0 0"/><path d="m271.90625 152.316406-5.996094-3.460937v6.921875zm0 0"/><path d="m271.90625 145.394531-5.996094-3.460937v6.921875zm0 0"/><path d="m259.917969 124.632812-5.996094-3.460937v6.921875zm0 0"/><path d="m193.984375 86.566406-5.992187-3.460937v6.921875zm0 0"/><path d="m170.011719 86.566406-5.996094-3.460937v6.921875zm0 0"/><path d="m164.015625 90.027344-5.992187-3.460938v6.921875zm0 0"/><path d="m152.027344 96.949219-5.992188-3.460938v6.917969zm0 0"/><path d="m146.035156 100.40625-5.992187-3.457031v6.917969zm0 0"/><path d="m140.042969 103.867188-5.996094-3.460938v6.921875zm0 0"/><path d="m134.046875 107.328125-5.992187-3.460937v6.921874zm0 0"/><path d="m128.054688 110.789062-5.996094-3.460937v6.921875zm0 0"/><path d="m116.066406 117.710938-5.996094-3.460938v6.921875zm0 0"/><path d="m110.070312 121.171875-5.992187-3.460937v6.921874zm0 0"/><path d="m98.085938 141.933594-5.996094-3.460938v6.921875zm0 0"/><path d="m98.085938 218.066406-5.996094-3.460937v6.921875zm0 0"/><path d="m110.070312 238.828125-5.992187-3.460937v6.921874zm0 0"/><path d="m116.066406 242.289062-5.996094-3.460937v6.921875zm0 0"/><path d="m128.054688 249.210938-5.996094-3.460938v6.921875zm0 0"/><path d="m134.046875 252.671875-5.992187-3.460937v6.921874zm0 0"/><path d="m140.042969 256.132812-5.996094-3.460937v6.921875zm0 0"/><path d="m146.035156 259.59375-5.992187-3.460938v6.917969zm0 0"/><path d="m152.027344 263.050781-5.992188-3.457031v6.917969zm0 0"/><path d="m164.015625 269.972656-5.992187-3.460937v6.921875zm0 0"/><path d="m170.011719 273.433594-5.996094-3.460938v6.921875zm0 0"/><path d="m193.984375 273.433594-5.992187-3.460938v6.921875zm0 0"/><path d="m259.917969 235.367188-5.996094-3.460938v6.921875zm0 0"/><path d="m277.898438 231.90625-5.992188-3.457031v6.917969zm0 0"/><path d="m277.898438 224.988281-5.992188-3.460937v6.921875zm0 0"/><path d="m277.898438 218.066406-5.992188-3.460937v6.921875zm0 0"/><path d="m277.898438 211.144531-5.992188-3.460937v6.921875zm0 0"/><path d="m277.898438 148.855469-5.992188-3.460938v6.921875zm0 0"/><path d="m277.898438 141.933594-5.992188-3.460938v6.921875zm0 0"/><path d="m277.898438 135.011719-5.992188-3.460938v6.921875zm0 0"/><path d="m277.898438 128.09375-5.992188-3.460938v6.917969zm0 0"/><path d="m271.90625 124.632812-5.996094-3.460937v6.921875zm0 0"/><path d="m265.910156 121.171875-5.992187-3.460937v6.921874zm0 0"/><path d="m241.9375 107.328125-5.996094-3.460937v6.921874zm0 0"/><path d="m235.941406 103.867188-5.992187-3.460938v6.921875zm0 0"/><path d="m229.949219 100.40625-5.996094-3.457031v6.917969zm0 0"/><path d="m223.953125 96.949219-5.992187-3.460938v6.917969zm0 0"/><path d="m217.960938 93.488281-5.992188-3.460937v6.921875zm0 0"/><path d="m193.984375 79.644531-5.992187-3.460937v6.921875zm0 0"/><path d="m187.992188 76.183594-5.996094-3.460938v6.921875zm0 0"/><path d="m181.996094 72.722656-5.992188-3.460937v6.921875zm0 0"/><path d="m176.003906 76.183594-5.992187-3.460938v6.921875zm0 0"/><path d="m170.011719 79.644531-5.996094-3.460937v6.921875zm0 0"/><path d="m164.015625 83.105469-5.992187-3.460938v6.921875zm0 0"/><path d="m110.070312 114.25-5.992187-3.460938v6.921876zm0 0"/><path d="m104.078125 117.710938-5.992187-3.460938v6.921875zm0 0"/><path d="m98.085938 121.171875-5.996094-3.460937v6.921874zm0 0"/><path d="m92.089844 124.632812-5.992188-3.460937v6.921875zm0 0"/><path d="m92.089844 131.550781-5.992188-3.457031v6.917969zm0 0"/><path d="m92.089844 138.472656-5.992188-3.460937v6.921875zm0 0"/><path d="m92.089844 166.15625-5.992188-3.457031v6.917969zm0 0"/><path d="m92.089844 173.078125-5.992188-3.460937v6.921874zm0 0"/><path d="m92.089844 180-5.992188-3.460938v6.921876zm0 0"/><path d="m92.089844 186.921875-5.992188-3.460937v6.921874zm0 0"/><path d="m92.089844 193.84375-5.992188-3.460938v6.917969zm0 0"/><path d="m92.089844 221.527344-5.992188-3.460938v6.921875zm0 0"/><path d="m92.089844 228.449219-5.992188-3.460938v6.917969zm0 0"/><path d="m92.089844 235.367188-5.992188-3.460938v6.921875zm0 0"/><path d="m98.085938 238.828125-5.996094-3.460937v6.921874zm0 0"/><path d="m104.078125 242.289062-5.992187-3.460937v6.921875zm0 0"/><path d="m110.070312 245.75-5.992187-3.460938v6.921876zm0 0"/><path d="m164.015625 276.894531-5.992187-3.460937v6.921875zm0 0"/><path d="m170.011719 280.355469-5.996094-3.460938v6.921875zm0 0"/><path d="m176.003906 283.816406-5.992187-3.460937v6.921875zm0 0"/><path d="m181.996094 287.277344-5.992188-3.460938v6.921875zm0 0"/><path d="m187.992188 283.816406-5.996094-3.460937v6.921875zm0 0"/><path d="m193.984375 280.355469-5.992187-3.460938v6.921875zm0 0"/><path d="m217.960938 266.511719-5.992188-3.460938v6.921875zm0 0"/><path d="m223.953125 263.050781-5.992187-3.457031v6.917969zm0 0"/><path d="m229.949219 259.59375-5.996094-3.460938v6.917969zm0 0"/><path d="m235.941406 256.132812-5.992187-3.460937v6.921875zm0 0"/><path d="m241.9375 252.671875-5.996094-3.460937v6.921874zm0 0"/><path d="m265.910156 238.828125-5.992187-3.460937v6.921874zm0 0"/><path d="m271.90625 235.367188-5.996094-3.460938v6.921875zm0 0"/><path d="m283.894531 214.605469-5.996093-3.460938v6.921875zm0 0"/><path d="m283.894531 186.921875-5.996093-3.460937v6.921874zm0 0"/><path d="m283.894531 180-5.996093-3.460938v6.921876zm0 0"/><path d="m283.894531 173.078125-5.996093-3.460937v6.921874zm0 0"/><path d="m283.894531 145.394531-5.996093-3.460937v6.921875zm0 0"/><path d="m265.910156 114.25-5.992187-3.460938v6.921876zm0 0"/><path d="m253.921875 107.328125-5.992187-3.460937v6.921874zm0 0"/><path d="m211.96875 83.105469-5.996094-3.460938v6.921875zm0 0"/><path d="m199.980469 76.183594-5.996094-3.460938v6.921875zm0 0"/><path d="m164.015625 76.183594-5.992187-3.460938v6.921875zm0 0"/><path d="m140.042969 90.027344-5.996094-3.460938v6.921875zm0 0"/><path d="m134.046875 93.488281-5.992187-3.460937v6.921875zm0 0"/><path d="m128.054688 96.949219-5.996094-3.460938v6.917969zm0 0"/><path d="m104.078125 110.789062-5.992187-3.460937v6.921875zm0 0"/><path d="m86.097656 141.933594-5.996094-3.460938v6.921875zm0 0"/><path d="m86.097656 155.777344-5.996094-3.460938v6.921875zm0 0"/><path d="m86.097656 204.222656-5.996094-3.460937v6.921875zm0 0"/><path d="m86.097656 218.066406-5.996094-3.460937v6.921875zm0 0"/><path d="m104.078125 249.210938-5.992187-3.460938v6.921875zm0 0"/><path d="m128.054688 263.050781-5.996094-3.457031v6.917969zm0 0"/><path d="m134.046875 266.511719-5.992187-3.460938v6.921875zm0 0"/><path d="m140.042969 269.972656-5.996094-3.460937v6.921875zm0 0"/><path d="m164.015625 283.816406-5.992187-3.460937v6.921875zm0 0"/><path d="m199.980469 283.816406-5.996094-3.460937v6.921875zm0 0"/><path d="m211.96875 276.894531-5.996094-3.460937v6.921875zm0 0"/><path d="m253.921875 252.671875-5.992187-3.460937v6.921874zm0 0"/><path d="m265.910156 245.75-5.992187-3.460938v6.921876zm0 0"/><path d="m289.886719 218.066406-5.992188-3.460937v6.921875zm0 0"/><path d="m289.886719 211.144531-5.992188-3.460937v6.921875zm0 0"/><path d="m289.886719 197.300781-5.992188-3.457031v6.917969zm0 0"/><path d="m289.886719 183.460938-5.992188-3.460938v6.921875zm0 0"/><path d="m289.886719 176.539062-5.992188-3.460937v6.921875zm0 0"/><path d="m289.886719 162.699219-5.992188-3.460938v6.917969zm0 0"/><path d="m289.886719 148.855469-5.992188-3.460938v6.921875zm0 0"/><path d="m289.886719 141.933594-5.992188-3.460938v6.921875zm0 0"/><path d="m241.9375 93.488281-5.996094-3.460937v6.921875zm0 0"/><path d="m235.941406 90.027344-5.992187-3.460938v6.921875zm0 0"/><path d="m229.949219 86.566406-5.996094-3.460937v6.921875zm0 0"/><path d="m164.015625 69.261719-5.992187-3.460938v6.921875zm0 0"/><path d="m158.023438 72.722656-5.996094-3.460937v6.921875zm0 0"/><path d="m146.035156 79.644531-5.992187-3.460937v6.921875zm0 0"/><path d="m134.046875 86.566406-5.992187-3.460937v6.921875zm0 0"/><path d="m128.054688 90.027344-5.996094-3.460938v6.921875zm0 0"/><path d="m116.066406 96.949219-5.996094-3.460938v6.917969zm0 0"/><path d="m104.078125 103.867188-5.992187-3.460938v6.921875zm0 0"/><path d="m98.085938 107.328125-5.996094-3.460937v6.921874zm0 0"/><path d="m80.101562 173.078125-5.992187-3.460937v6.921874zm0 0"/><path d="m80.101562 180-5.992187-3.460938v6.921876zm0 0"/><path d="m80.101562 186.921875-5.992187-3.460937v6.921874zm0 0"/><path d="m98.085938 252.671875-5.996094-3.460937v6.921874zm0 0"/><path d="m104.078125 256.132812-5.992187-3.460937v6.921875zm0 0"/><path d="m116.066406 263.050781-5.996094-3.457031v6.917969zm0 0"/><path d="m128.054688 269.972656-5.996094-3.460937v6.921875zm0 0"/><path d="m134.046875 273.433594-5.992187-3.460938v6.921875zm0 0"/><path d="m146.035156 280.355469-5.992187-3.460938v6.921875zm0 0"/><path d="m158.023438 287.277344-5.996094-3.460938v6.921875zm0 0"/><path d="m164.015625 290.738281-5.992187-3.460937v6.921875zm0 0"/><path d="m229.949219 273.433594-5.996094-3.460938v6.921875zm0 0"/><path d="m235.941406 269.972656-5.992187-3.460937v6.921875zm0 0"/><path d="m241.9375 266.511719-5.996094-3.460938v6.921875zm0 0"/><path d="m295.878906 207.683594-5.992187-3.460938v6.921875zm0 0"/><path d="m295.878906 186.921875-5.992187-3.460937v6.921874zm0 0"/><path d="m295.878906 173.078125-5.992187-3.460937v6.921874zm0 0"/><path d="m295.878906 152.316406-5.992187-3.460937v6.921875zm0 0"/><path d="m259.917969 96.949219-5.996094-3.460938v6.917969zm0 0"/><path d="m253.921875 93.488281-5.992187-3.460937v6.921875zm0 0"/><path d="m247.929688 90.027344-5.992188-3.460938v6.921875zm0 0"/><path d="m229.949219 79.644531-5.996094-3.460937v6.921875zm0 0"/><path d="m223.953125 76.183594-5.992187-3.460938v6.921875zm0 0"/><path d="m217.960938 72.722656-5.992188-3.460937v6.921875zm0 0"/><path d="m152.027344 69.261719-5.992188-3.460938v6.921875zm0 0"/><path d="m134.046875 79.644531-5.992187-3.460937v6.921875zm0 0"/><path d="m122.058594 86.566406-5.992188-3.460937v6.921875zm0 0"/><path d="m104.078125 96.949219-5.992187-3.460938v6.917969zm0 0"/><path d="m74.109375 155.777344-5.992187-3.460938v6.921875zm0 0"/><path d="m74.109375 162.699219-5.992187-3.460938v6.917969zm0 0"/><path d="m74.109375 169.617188-5.992187-3.460938v6.921875zm0 0"/><path d="m74.109375 190.382812-5.992187-3.460937v6.921875zm0 0"/><path d="m74.109375 197.300781-5.992187-3.457031v6.917969zm0 0"/><path d="m74.109375 204.222656-5.992187-3.460937v6.921875zm0 0"/><path d="m104.078125 263.050781-5.992187-3.457031v6.917969zm0 0"/><path d="m122.058594 273.433594-5.992188-3.460938v6.921875zm0 0"/><path d="m134.046875 280.355469-5.992187-3.460938v6.921875zm0 0"/><path d="m152.027344 290.738281-5.992188-3.460937v6.921875zm0 0"/><path d="m217.960938 287.277344-5.992188-3.460938v6.921875zm0 0"/><path d="m223.953125 283.816406-5.992187-3.460937v6.921875zm0 0"/><path d="m229.949219 280.355469-5.996094-3.460938v6.921875zm0 0"/><path d="m247.929688 269.972656-5.992188-3.460937v6.921875zm0 0"/><path d="m253.921875 266.511719-5.992187-3.460938v6.921875zm0 0"/><path d="m259.917969 263.050781-5.996094-3.457031v6.917969zm0 0"/><path d="m259.917969 90.027344-5.996094-3.460938v6.921875zm0 0"/><path d="m253.921875 86.566406-5.992187-3.460937v6.921875zm0 0"/><path d="m229.949219 72.722656-5.996094-3.460937v6.921875zm0 0"/><path d="m223.953125 69.261719-5.992187-3.460938v6.921875zm0 0"/><path d="m68.117188 159.238281-5.996094-3.460937v6.921875zm0 0"/><path d="m68.117188 166.15625-5.996094-3.457031v6.917969zm0 0"/><path d="m68.117188 193.84375-5.996094-3.460938v6.917969zm0 0"/><path d="m68.117188 200.761719-5.996094-3.460938v6.921875zm0 0"/><path d="m223.953125 290.738281-5.992187-3.460937v6.921875zm0 0"/><path d="m229.949219 287.277344-5.996094-3.460938v6.921875zm0 0"/><path d="m253.921875 273.433594-5.992187-3.460938v6.921875zm0 0"/><path d="m259.917969 269.972656-5.996094-3.460937v6.921875zm0 0"/><path d="m247.929688 76.183594-5.992188-3.460938v6.921875zm0 0"/><path d="m241.9375 72.722656-5.996094-3.460937v6.921875zm0 0"/><path d="m62.121094 176.539062-5.992188-3.460937v6.921875zm0 0"/><path d="m62.121094 183.460938-5.992188-3.460938v6.921875zm0 0"/><path d="m241.9375 287.277344-5.996094-3.460938v6.921875zm0 0"/><path d="m247.929688 283.816406-5.992188-3.460937v6.921875zm0 0"/><path d="m247.929688 69.261719-5.992188-3.460938v6.921875zm0 0"/><path d="m56.128906 180-5.996094-3.460938v6.921876zm0 0"/><path d="m247.929688 290.738281-5.992188-3.460937v6.921875zm0 0"/></g></svg>