<svg height="360pt" viewBox="0 0 360 360" width="360pt" xmlns="http://www.w3.org/2000/svg"><path d="m0 0h360v360h-360z" fill="#800080"/><g fill="#fff"><path d="m252.054688 135.953125 6.359374-3.671875v7.339844zm0 0"/><path d="m175.761719 91.902344 6.359375-3.671875v7.34375zm0 0"/><path d="m175.761719 268.097656 6.359375-3.671875v7.34375zm0 0"/><path d="m258.414062 220.378906 6.359376-3.671875v7.339844zm0 0"/><path d="m258.414062 139.621094 6.359376-3.667969v7.339844zm0 0"/><path d="m258.414062 132.28125 6.359376-3.671875v7.34375zm0 0"/><path d="m252.054688 128.609375 6.359374-3.671875v7.34375zm0 0"/><path d="m182.121094 88.230469 6.355468-3.667969v7.339844zm0 0"/><path d="m93.109375 132.28125 6.355469-3.671875v7.34375zm0 0"/><path d="m93.109375 220.378906 6.355469-3.671875v7.339844zm0 0"/><path d="m93.109375 227.71875 6.355469-3.671875v7.34375zm0 0"/><path d="m99.464844 231.390625 6.359375-3.671875v7.34375zm0 0"/><path d="m175.761719 275.4375 6.359375-3.667969v7.339844zm0 0"/><path d="m264.773438 216.707031 6.355468-3.671875v7.34375zm0 0"/><path d="m264.773438 128.609375 6.355468-3.671875v7.34375zm0 0"/><path d="m258.414062 124.9375 6.359376-3.667969v7.339844zm0 0"/><path d="m175.761719 77.21875 6.359375-3.667969v7.339844zm0 0"/><path d="m86.75 128.609375 6.359375-3.671875v7.34375zm0 0"/><path d="m86.75 135.953125 6.359375-3.671875v7.339844zm0 0"/><path d="m86.75 224.046875 6.359375-3.667969v7.339844zm0 0"/><path d="m86.75 231.390625 6.359375-3.671875v7.34375zm0 0"/><path d="m93.109375 235.0625 6.355469-3.671875v7.339844zm0 0"/><path d="m163.046875 275.4375 6.355469-3.667969v7.339844zm0 0"/><path d="m169.402344 279.109375 6.359375-3.671875v7.34375zm0 0"/><path d="m175.761719 282.78125 6.359375-3.671875v7.339844zm0 0"/><path d="m182.121094 279.109375 6.355468-3.671875v7.34375zm0 0"/><path d="m271.128906 220.378906 6.359375-3.671875v7.339844zm0 0"/><path d="m264.773438 121.269531 6.355468-3.671875v7.339844zm0 0"/><path d="m188.476562 77.21875 6.359376-3.667969v7.339844zm0 0"/><path d="m182.121094 73.550781 6.355468-3.671875v7.339844zm0 0"/><path d="m156.6875 80.890625 6.359375-3.671875v7.34375zm0 0"/><path d="m99.464844 113.925781 6.359375-3.667969v7.339844zm0 0"/><path d="m93.109375 117.597656 6.355469-3.671875v7.34375zm0 0"/><path d="m80.394531 124.9375 6.355469-3.667969v7.339844zm0 0"/><path d="m80.394531 132.28125 6.355469-3.671875v7.34375zm0 0"/><path d="m80.394531 146.964844 6.355469-3.671875v7.339843zm0 0"/><path d="m80.394531 220.378906 6.355469-3.671875v7.339844zm0 0"/><path d="m156.6875 279.109375 6.359375-3.671875v7.34375zm0 0"/><path d="m188.476562 282.78125 6.359376-3.671875v7.339844zm0 0"/><path d="m194.835938 279.109375 6.355468-3.671875v7.34375zm0 0"/><path d="m252.054688 246.074219 6.359374-3.671875v7.339844zm0 0"/><path d="m258.414062 242.402344 6.359376-3.671875v7.34375zm0 0"/><path d="m264.773438 238.730469 6.355468-3.667969v7.339844zm0 0"/><path d="m277.488281 224.046875 6.355469-3.667969v7.339844zm0 0"/><path d="m277.488281 216.707031 6.355469-3.671875v7.34375zm0 0"/><path d="m277.488281 209.367188 6.355469-3.671876v7.339844zm0 0"/><path d="m277.488281 150.632812 6.355469-3.667968v7.339844zm0 0"/><path d="m277.488281 135.953125 6.355469-3.671875v7.339844zm0 0"/><path d="m194.835938 73.550781 6.355468-3.671875v7.339844zm0 0"/><path d="m188.476562 69.878906 6.359376-3.671875v7.34375zm0 0"/><path d="m182.121094 66.207031 6.355468-3.671875v7.34375zm0 0"/><path d="m163.046875 69.878906 6.355469-3.671875v7.34375zm0 0"/><path d="m156.6875 73.550781 6.359375-3.671875v7.339844zm0 0"/><path d="m150.328125 77.21875 6.359375-3.667969v7.339844zm0 0"/><path d="m93.109375 110.257812 6.355469-3.671874v7.339843zm0 0"/><path d="m86.75 113.925781 6.359375-3.667969v7.339844zm0 0"/><path d="m74.035156 135.953125 6.359375-3.671875v7.339844zm0 0"/><path d="m74.035156 150.632812 6.359375-3.667968v7.339844zm0 0"/><path d="m74.035156 209.367188 6.359375-3.671876v7.339844zm0 0"/><path d="m74.035156 216.707031 6.359375-3.671875v7.34375zm0 0"/><path d="m74.035156 224.046875 6.359375-3.667969v7.339844zm0 0"/><path d="m80.394531 242.402344 6.355469-3.671875v7.34375zm0 0"/><path d="m86.75 246.074219 6.359375-3.671875v7.339844zm0 0"/><path d="m93.109375 249.742188 6.355469-3.667969v7.339843zm0 0"/><path d="m188.476562 290.121094 6.359376-3.671875v7.34375zm0 0"/><path d="m194.835938 286.449219 6.355468-3.667969v7.339844zm0 0"/><path d="m252.054688 253.414062 6.359374-3.671874v7.34375zm0 0"/><path d="m258.414062 249.742188 6.359376-3.667969v7.339843zm0 0"/><path d="m264.773438 246.074219 6.355468-3.671875v7.339844zm0 0"/><path d="m283.84375 242.402344 6.359375-3.671875v7.34375zm0 0"/><path d="m283.84375 220.378906 6.359375-3.671875v7.339844zm0 0"/><path d="m283.84375 146.964844 6.359375-3.671875v7.339843zm0 0"/><path d="m283.84375 132.28125 6.359375-3.671875v7.34375zm0 0"/><path d="m283.84375 124.9375 6.359375-3.667969v7.339844zm0 0"/><path d="m258.414062 102.914062 6.359376-3.671874v7.34375zm0 0"/><path d="m163.046875 62.535156 6.355469-3.667968v7.339843zm0 0"/><path d="m156.6875 66.207031 6.359375-3.671875v7.34375zm0 0"/><path d="m150.328125 69.878906 6.359375-3.671875v7.34375zm0 0"/><path d="m93.109375 102.914062 6.355469-3.671874v7.34375zm0 0"/><path d="m86.75 106.585938 6.359375-3.671876v7.34375zm0 0"/><path d="m67.675781 220.378906 6.359375-3.671875v7.339844zm0 0"/><path d="m80.394531 249.742188 6.355469-3.667969v7.339843zm0 0"/><path d="m86.75 253.414062 6.359375-3.671874v7.34375zm0 0"/><path d="m163.046875 297.464844 6.355469-3.671875v7.339843zm0 0"/><path d="m182.121094 301.132812 6.355468-3.667968v7.339844zm0 0"/><path d="m194.835938 293.792969 6.355468-3.671875v7.34375zm0 0"/><path d="m201.191406 290.121094 6.359375-3.671875v7.34375zm0 0"/><path d="m258.414062 257.085938 6.359376-3.671876v7.34375zm0 0"/><path d="m290.203125 246.074219 6.359375-3.671875v7.339844zm0 0"/><path d="m290.203125 231.390625 6.359375-3.671875v7.34375zm0 0"/><path d="m290.203125 224.046875 6.359375-3.667969v7.339844zm0 0"/><path d="m290.203125 135.953125 6.359375-3.671875v7.339844zm0 0"/><path d="m290.203125 128.609375 6.359375-3.671875v7.34375zm0 0"/><path d="m290.203125 113.925781 6.359375-3.667969v7.339844zm0 0"/><path d="m277.488281 106.585938 6.355469-3.671876v7.34375zm0 0"/><path d="m271.128906 102.914062 6.359375-3.671874v7.34375zm0 0"/><path d="m264.773438 99.242188 6.355468-3.667969v7.339843zm0 0"/><path d="m194.835938 58.867188 6.355468-3.671876v7.339844zm0 0"/><path d="m188.476562 55.195312 6.359376-3.671874v7.34375zm0 0"/><path d="m175.761719 47.855469 6.359375-3.671875v7.339844zm0 0"/><path d="m80.394531 102.914062 6.355469-3.671874v7.34375zm0 0"/><path d="m74.035156 106.585938 6.359375-3.671876v7.34375zm0 0"/><path d="m61.320312 121.269531 6.355469-3.671875v7.339844zm0 0"/><path d="m61.320312 128.609375 6.355469-3.671875v7.34375zm0 0"/><path d="m61.320312 216.707031 6.355469-3.671875v7.34375zm0 0"/><path d="m61.320312 238.730469 6.355469-3.667969v7.339844zm0 0"/><path d="m61.320312 246.074219 6.355469-3.671875v7.339844zm0 0"/><path d="m74.035156 253.414062 6.359375-3.671874v7.34375zm0 0"/><path d="m156.6875 301.132812 6.359375-3.667968v7.339844zm0 0"/><path d="m163.046875 304.804688 6.355469-3.671876v7.34375zm0 0"/><path d="m175.761719 312.144531 6.359375-3.667969v7.339844zm0 0"/><path d="m182.121094 308.476562 6.355468-3.671874v7.339843zm0 0"/><path d="m188.476562 304.804688 6.359376-3.671876v7.34375zm0 0"/><path d="m277.488281 253.414062 6.355469-3.671874v7.34375zm0 0"/><path d="m283.84375 249.742188 6.359375-3.667969v7.339843zm0 0"/><path d="m296.5625 249.742188 6.355469-3.667969v7.339843zm0 0"/><path d="m296.5625 235.0625 6.355469-3.671875v7.339844zm0 0"/><path d="m296.5625 227.71875 6.355469-3.671875v7.34375zm0 0"/><path d="m296.5625 220.378906 6.355469-3.671875v7.339844zm0 0"/><path d="m296.5625 132.28125 6.355469-3.671875v7.34375zm0 0"/><path d="m296.5625 117.597656 6.355469-3.671875v7.34375zm0 0"/><path d="m296.5625 110.257812 6.355469-3.671874v7.339843zm0 0"/><path d="m290.203125 106.585938 6.359375-3.671876v7.34375zm0 0"/><path d="m283.84375 102.914062 6.359375-3.671874v7.34375zm0 0"/><path d="m277.488281 99.242188 6.355469-3.667969v7.339843zm0 0"/><path d="m201.191406 55.195312 6.359375-3.671874v7.34375zm0 0"/><path d="m194.835938 51.523438 6.355468-3.667969v7.339843zm0 0"/><path d="m188.476562 47.855469 6.359376-3.671875v7.339844zm0 0"/><path d="m182.121094 44.183594 6.355468-3.671875v7.34375zm0 0"/><path d="m175.761719 40.511719 6.359375-3.671875v7.34375zm0 0"/><path d="m169.402344 44.183594 6.359375-3.671875v7.34375zm0 0"/><path d="m74.035156 99.242188 6.359375-3.667969v7.339843zm0 0"/><path d="m67.675781 102.914062 6.359375-3.671874v7.34375zm0 0"/><path d="m54.960938 124.9375 6.359374-3.667969v7.339844zm0 0"/><path d="m54.960938 132.28125 6.359374-3.671875v7.34375zm0 0"/><path d="m54.960938 139.621094 6.359374-3.667969v7.339844zm0 0"/><path d="m54.960938 220.378906 6.359374-3.671875v7.339844zm0 0"/><path d="m54.960938 242.402344 6.359374-3.671875v7.34375zm0 0"/><path d="m54.960938 249.742188 6.359374-3.667969v7.339843zm0 0"/><path d="m80.394531 264.425781 6.355469-3.667969v7.339844zm0 0"/><path d="m150.328125 304.804688 6.359375-3.671876v7.34375zm0 0"/><path d="m156.6875 308.476562 6.359375-3.671874v7.339843zm0 0"/><path d="m188.476562 312.144531 6.359376-3.667969v7.339844zm0 0"/><path d="m194.835938 308.476562 6.355468-3.671874v7.339843zm0 0"/><path d="m290.203125 253.414062 6.359375-3.671874v7.34375zm0 0"/><path d="m302.917969 231.390625 6.359375-3.671875v7.34375zm0 0"/><path d="m302.917969 113.925781 6.359375-3.667969v7.339844zm0 0"/><path d="m296.5625 102.914062 6.355469-3.671874v7.34375zm0 0"/><path d="m277.488281 91.902344 6.355469-3.671875v7.34375zm0 0"/><path d="m194.835938 44.183594 6.355468-3.671875v7.34375zm0 0"/><path d="m175.761719 33.171875 6.359375-3.671875v7.339844zm0 0"/><path d="m163.046875 40.511719 6.355469-3.671875v7.34375zm0 0"/><path d="m156.6875 44.183594 6.359375-3.671875v7.34375zm0 0"/><path d="m74.035156 91.902344 6.359375-3.671875v7.34375zm0 0"/><path d="m61.320312 99.242188 6.355469-3.667969v7.339843zm0 0"/><path d="m54.960938 102.914062 6.359374-3.671874v7.34375zm0 0"/><path d="m48.605469 128.609375 6.355469-3.671875v7.34375zm0 0"/><path d="m48.605469 135.953125 6.355469-3.671875v7.339844zm0 0"/><path d="m48.605469 246.074219 6.355469-3.671875v7.339844zm0 0"/><path d="m48.605469 253.414062 6.355469-3.671874v7.34375zm0 0"/><path d="m54.960938 257.085938 6.359374-3.671876v7.34375zm0 0"/><path d="m74.035156 268.097656 6.359375-3.671875v7.34375zm0 0"/><path d="m150.328125 312.144531 6.359375-3.667969v7.339844zm0 0"/><path d="m156.6875 315.816406 6.359375-3.671875v7.34375zm0 0"/><path d="m175.761719 326.828125 6.359375-3.667969v7.339844zm0 0"/><path d="m182.121094 323.160156 6.355468-3.671875v7.339844zm0 0"/><path d="m277.488281 268.097656 6.355469-3.671875v7.34375zm0 0"/><path d="m283.84375 264.425781 6.359375-3.667969v7.339844zm0 0"/><path d="m182.121094 88.230469-6.359375-3.667969v7.339844zm0 0"/><path d="m271.128906 132.28125-6.355468-3.671875v7.34375zm0 0"/><path d="m182.121094 80.890625-6.359375-3.671875v7.34375zm0 0"/><path d="m175.761719 84.5625-6.359375-3.671875v7.339844zm0 0"/><path d="m105.824219 124.9375-6.359375-3.667969v7.339844zm0 0"/><path d="m99.464844 128.609375-6.355469-3.671875v7.34375zm0 0"/><path d="m105.824219 235.0625-6.359375-3.671875v7.339844zm0 0"/><path d="m188.476562 275.4375-6.355468-3.667969v7.339844zm0 0"/><path d="m264.773438 231.390625-6.359376-3.671875v7.34375zm0 0"/><path d="m277.488281 231.390625-6.359375-3.671875v7.34375zm0 0"/><path d="m277.488281 143.292969-6.359375-3.671875v7.34375zm0 0"/><path d="m277.488281 135.953125-6.359375-3.671875v7.339844zm0 0"/><path d="m277.488281 128.609375-6.359375-3.671875v7.34375zm0 0"/><path d="m271.128906 124.9375-6.355468-3.667969v7.339844zm0 0"/><path d="m175.761719 77.21875-6.359375-3.667969v7.339844zm0 0"/><path d="m105.824219 117.597656-6.359375-3.671875v7.34375zm0 0"/><path d="m93.109375 132.28125-6.359375-3.671875v7.34375zm0 0"/><path d="m93.109375 220.378906-6.359375-3.671875v7.339844zm0 0"/><path d="m93.109375 227.71875-6.359375-3.671875v7.34375zm0 0"/><path d="m93.109375 235.0625-6.359375-3.671875v7.339844zm0 0"/><path d="m105.824219 242.402344-6.359375-3.671875v7.34375zm0 0"/><path d="m194.835938 279.109375-6.359376-3.671875v7.34375zm0 0"/><path d="m271.128906 235.0625-6.355468-3.671875v7.339844zm0 0"/><path d="m283.84375 235.0625-6.355469-3.671875v7.339844zm0 0"/><path d="m283.84375 146.964844-6.355469-3.671875v7.339843zm0 0"/><path d="m283.84375 139.621094-6.355469-3.667969v7.339844zm0 0"/><path d="m277.488281 121.269531-6.359375-3.671875v7.339844zm0 0"/><path d="m271.128906 117.597656-6.355468-3.671875v7.34375zm0 0"/><path d="m264.773438 113.925781-6.359376-3.667969v7.339844zm0 0"/><path d="m194.835938 73.550781-6.359376-3.671875v7.339844zm0 0"/><path d="m188.476562 69.878906-6.355468-3.671875v7.34375zm0 0"/><path d="m175.761719 69.878906-6.359375-3.671875v7.34375zm0 0"/><path d="m169.402344 73.550781-6.355469-3.671875v7.339844zm0 0"/><path d="m93.109375 117.597656-6.359375-3.671875v7.34375zm0 0"/><path d="m86.75 121.269531-6.355469-3.671875v7.339844zm0 0"/><path d="m86.75 128.609375-6.355469-3.671875v7.34375zm0 0"/><path d="m86.75 216.707031-6.355469-3.671875v7.34375zm0 0"/><path d="m86.75 231.390625-6.355469-3.671875v7.34375zm0 0"/><path d="m86.75 238.730469-6.355469-3.667969v7.339844zm0 0"/><path d="m99.464844 246.074219-6.355469-3.671875v7.339844zm0 0"/><path d="m175.761719 290.121094-6.359375-3.671875v7.34375zm0 0"/><path d="m182.121094 293.792969-6.359375-3.671875v7.34375zm0 0"/><path d="m188.476562 290.121094-6.355468-3.671875v7.34375zm0 0"/><path d="m194.835938 286.449219-6.359376-3.667969v7.339844zm0 0"/><path d="m271.128906 242.402344-6.355468-3.671875v7.34375zm0 0"/><path d="m277.488281 238.730469-6.359375-3.667969v7.339844zm0 0"/><path d="m290.203125 238.730469-6.359375-3.667969v7.339844zm0 0"/><path d="m290.203125 231.390625-6.359375-3.671875v7.34375zm0 0"/><path d="m290.203125 216.707031-6.359375-3.671875v7.34375zm0 0"/><path d="m290.203125 128.609375-6.359375-3.671875v7.34375zm0 0"/><path d="m290.203125 121.269531-6.359375-3.671875v7.339844zm0 0"/><path d="m283.84375 117.597656-6.355469-3.671875v7.34375zm0 0"/><path d="m277.488281 113.925781-6.359375-3.667969v7.339844zm0 0"/><path d="m201.191406 69.878906-6.355468-3.671875v7.34375zm0 0"/><path d="m188.476562 62.535156-6.355468-3.667968v7.339843zm0 0"/><path d="m182.121094 58.867188-6.359375-3.671876v7.339844zm0 0"/><path d="m175.761719 62.535156-6.359375-3.667968v7.339843zm0 0"/><path d="m169.402344 66.207031-6.355469-3.671875v7.34375zm0 0"/><path d="m93.109375 110.257812-6.359375-3.671874v7.339843zm0 0"/><path d="m86.75 113.925781-6.355469-3.667969v7.339844zm0 0"/><path d="m80.394531 117.597656-6.359375-3.671875v7.34375zm0 0"/><path d="m80.394531 139.621094-6.359375-3.667969v7.339844zm0 0"/><path d="m80.394531 146.964844-6.359375-3.671875v7.339843zm0 0"/><path d="m80.394531 235.0625-6.359375-3.671875v7.339844zm0 0"/><path d="m86.75 246.074219-6.355469-3.671875v7.339844zm0 0"/><path d="m93.109375 249.742188-6.359375-3.667969v7.339843zm0 0"/><path d="m163.046875 290.121094-6.359375-3.671875v7.34375zm0 0"/><path d="m169.402344 293.792969-6.355469-3.671875v7.34375zm0 0"/><path d="m175.761719 297.464844-6.359375-3.671875v7.339843zm0 0"/><path d="m188.476562 297.464844-6.355468-3.671875v7.339843zm0 0"/><path d="m194.835938 293.792969-6.359376-3.671875v7.34375zm0 0"/><path d="m271.128906 249.742188-6.355468-3.667969v7.339843zm0 0"/><path d="m277.488281 246.074219-6.359375-3.671875v7.339844zm0 0"/><path d="m296.5625 235.0625-6.359375-3.671875v7.339844zm0 0"/><path d="m296.5625 227.71875-6.359375-3.671875v7.34375zm0 0"/><path d="m296.5625 220.378906-6.359375-3.671875v7.339844zm0 0"/><path d="m296.5625 132.28125-6.359375-3.671875v7.34375zm0 0"/><path d="m296.5625 117.597656-6.359375-3.671875v7.34375zm0 0"/><path d="m290.203125 113.925781-6.359375-3.667969v7.339844zm0 0"/><path d="m207.550781 66.207031-6.359375-3.671875v7.34375zm0 0"/><path d="m194.835938 58.867188-6.359376-3.671876v7.339844zm0 0"/><path d="m188.476562 55.195312-6.355468-3.671874v7.34375zm0 0"/><path d="m175.761719 55.195312-6.359375-3.671874v7.34375zm0 0"/><path d="m169.402344 58.867188-6.355469-3.671876v7.339844zm0 0"/><path d="m93.109375 102.914062-6.359375-3.671874v7.34375zm0 0"/><path d="m74.035156 113.925781-6.359375-3.667969v7.339844zm0 0"/><path d="m74.035156 121.269531-6.359375-3.671875v7.339844zm0 0"/><path d="m74.035156 128.609375-6.359375-3.671875v7.34375zm0 0"/><path d="m74.035156 135.953125-6.359375-3.671875v7.339844zm0 0"/><path d="m74.035156 143.292969-6.359375-3.671875v7.34375zm0 0"/><path d="m74.035156 231.390625-6.359375-3.671875v7.34375zm0 0"/><path d="m74.035156 238.730469-6.359375-3.667969v7.339844zm0 0"/><path d="m74.035156 246.074219-6.359375-3.671875v7.339844zm0 0"/><path d="m169.402344 301.132812-6.355469-3.667968v7.339844zm0 0"/><path d="m175.761719 304.804688-6.359375-3.671876v7.34375zm0 0"/><path d="m188.476562 304.804688-6.355468-3.671876v7.34375zm0 0"/><path d="m207.550781 293.792969-6.359375-3.671875v7.34375zm0 0"/><path d="m277.488281 253.414062-6.359375-3.671874v7.34375zm0 0"/><path d="m290.203125 246.074219-6.359375-3.671875v7.339844zm0 0"/><path d="m302.917969 246.074219-6.355469-3.671875v7.339844zm0 0"/><path d="m302.917969 128.609375-6.355469-3.671875v7.34375zm0 0"/><path d="m296.5625 110.257812-6.359375-3.671874v7.339843zm0 0"/><path d="m207.550781 58.867188-6.359375-3.671876v7.339844zm0 0"/><path d="m194.835938 51.523438-6.359376-3.667969v7.339843zm0 0"/><path d="m163.046875 55.195312-6.359375-3.671874v7.34375zm0 0"/><path d="m86.75 99.242188-6.355469-3.667969v7.339843zm0 0"/><path d="m67.675781 117.597656-6.355469-3.671875v7.34375zm0 0"/><path d="m67.675781 124.9375-6.355469-3.667969v7.339844zm0 0"/><path d="m67.675781 132.28125-6.355469-3.671875v7.34375zm0 0"/><path d="m67.675781 235.0625-6.355469-3.671875v7.339844zm0 0"/><path d="m67.675781 242.402344-6.355469-3.671875v7.34375zm0 0"/><path d="m67.675781 249.742188-6.355469-3.667969v7.339843zm0 0"/><path d="m74.035156 253.414062-6.359375-3.671874v7.34375zm0 0"/><path d="m80.394531 257.085938-6.359375-3.671876v7.34375zm0 0"/><path d="m169.402344 308.476562-6.355469-3.671874v7.339843zm0 0"/><path d="m175.761719 312.144531-6.359375-3.667969v7.339844zm0 0"/><path d="m182.121094 315.816406-6.359375-3.671875v7.34375zm0 0"/><path d="m194.835938 308.476562-6.359376-3.671874v7.339843zm0 0"/><path d="m201.191406 304.804688-6.355468-3.671876v7.34375zm0 0"/><path d="m207.550781 301.132812-6.359375-3.667968v7.339844zm0 0"/><path d="m277.488281 260.757812-6.359375-3.671874v7.339843zm0 0"/><path d="m283.84375 257.085938-6.355469-3.671876v7.34375zm0 0"/><path d="m296.5625 249.742188-6.359375-3.667969v7.339843zm0 0"/><path d="m309.277344 242.402344-6.359375-3.671875v7.34375zm0 0"/><path d="m309.277344 235.0625-6.359375-3.671875v7.339844zm0 0"/><path d="m309.277344 124.9375-6.359375-3.667969v7.339844zm0 0"/><path d="m309.277344 117.597656-6.359375-3.671875v7.34375zm0 0"/><path d="m296.5625 102.914062-6.359375-3.671874v7.34375zm0 0"/><path d="m290.203125 99.242188-6.359375-3.667969v7.339843zm0 0"/><path d="m194.835938 44.183594-6.359376-3.671875v7.34375zm0 0"/><path d="m188.476562 40.511719-6.355468-3.671875v7.34375zm0 0"/><path d="m61.320312 113.925781-6.359374-3.667969v7.339844zm0 0"/><path d="m61.320312 231.390625-6.359374-3.671875v7.34375zm0 0"/><path d="m74.035156 260.757812-6.359375-3.671874v7.339843zm0 0"/><path d="m80.394531 264.425781-6.359375-3.667969v7.339844zm0 0"/><path d="m175.761719 319.488281-6.359375-3.671875v7.34375zm0 0"/><path d="m182.121094 323.160156-6.359375-3.671875v7.339844zm0 0"/><path d="m283.84375 264.425781-6.355469-3.667969v7.339844zm0 0"/></g></svg>