<svg height="360pt" viewBox="0 0 360 360" width="360pt" xmlns="http://www.w3.org/2000/svg"><path d="m0 0h360v360h-360z" fill="#fff"/><g fill="#800080"><path d="m213.449219 201.34375 5.28125-3.046875v6.097656zm0 0"/><path d="m213.449219 158.65625 5.28125-3.050781v6.097656zm0 0"/><path d="m176.480469 137.308594 5.28125-3.046875v6.097656zm0 0"/><path d="m139.507812 158.65625 5.28125-3.050781v6.097656zm0 0"/><path d="m139.507812 201.34375 5.28125-3.046875v6.097656zm0 0"/><path d="m176.480469 222.691406 5.28125-3.050781v6.097656zm0 0"/><path d="m218.730469 198.296875 5.28125-3.050781v6.097656zm0 0"/><path d="m218.730469 161.703125 5.28125-3.046875v6.097656zm0 0"/><path d="m213.449219 152.554688 5.28125-3.046876v6.097657zm0 0"/><path d="m181.761719 134.261719 5.28125-3.050781v6.097656zm0 0"/><path d="m171.199219 134.261719 5.28125-3.050781v6.097656zm0 0"/><path d="m139.507812 152.554688 5.28125-3.046876v6.097657zm0 0"/><path d="m134.226562 161.703125 5.28125-3.046875v6.097656zm0 0"/><path d="m134.226562 198.296875 5.28125-3.050781v6.097656zm0 0"/><path d="m139.507812 207.445312 5.28125-3.050781v6.097657zm0 0"/><path d="m171.199219 225.738281 5.28125-3.046875v6.097656zm0 0"/><path d="m181.761719 225.738281 5.28125-3.046875v6.097656zm0 0"/><path d="m213.449219 207.445312 5.28125-3.050781v6.097657zm0 0"/><path d="m224.011719 207.445312 5.28125-3.050781v6.097657zm0 0"/><path d="m224.011719 201.34375 5.28125-3.046875v6.097656zm0 0"/><path d="m224.011719 158.65625 5.28125-3.050781v6.097656zm0 0"/><path d="m224.011719 152.554688 5.28125-3.046876v6.097657zm0 0"/><path d="m218.730469 149.507812 5.28125-3.050781v6.097657zm0 0"/><path d="m181.761719 128.160156 5.28125-3.046875v6.097657zm0 0"/><path d="m176.480469 125.113281 5.28125-3.050781v6.097656zm0 0"/><path d="m171.199219 128.160156 5.28125-3.046875v6.097657zm0 0"/><path d="m134.226562 149.507812 5.28125-3.050781v6.097657zm0 0"/><path d="m128.945312 152.554688 5.28125-3.046876v6.097657zm0 0"/><path d="m128.945312 158.65625 5.28125-3.050781v6.097656zm0 0"/><path d="m128.945312 201.34375 5.28125-3.046875v6.097656zm0 0"/><path d="m128.945312 207.445312 5.28125-3.050781v6.097657zm0 0"/><path d="m134.226562 210.492188 5.28125-3.046876v6.097657zm0 0"/><path d="m171.199219 231.839844 5.28125-3.050782v6.097657zm0 0"/><path d="m176.480469 234.886719 5.28125-3.046875v6.097656zm0 0"/><path d="m181.761719 231.839844 5.28125-3.050782v6.097657zm0 0"/><path d="m218.730469 210.492188 5.28125-3.046876v6.097657zm0 0"/><path d="m297.957031 250.132812 5.28125-3.046874v6.097656zm0 0"/><path d="m297.957031 207.445312 5.28125-3.050781v6.097657zm0 0"/><path d="m297.957031 201.34375 5.28125-3.046875v6.097656zm0 0"/><path d="m297.957031 158.65625 5.28125-3.050781v6.097656zm0 0"/><path d="m297.957031 152.554688 5.28125-3.046876v6.097657zm0 0"/><path d="m297.957031 109.867188 5.28125-3.050782v6.097656zm0 0"/><path d="m260.984375 88.519531 5.28125-3.046875v6.097656zm0 0"/><path d="m255.703125 85.472656 5.28125-3.050781v6.097656zm0 0"/><path d="m218.730469 64.125 5.28125-3.046875v6.097656zm0 0"/><path d="m213.449219 61.078125 5.28125-3.050781v6.097656zm0 0"/><path d="m176.480469 39.730469 5.28125-3.050781v6.101562zm0 0"/><path d="m139.507812 61.078125 5.28125-3.050781v6.097656zm0 0"/><path d="m134.226562 64.125 5.28125-3.046875v6.097656zm0 0"/><path d="m97.253906 85.472656 5.28125-3.050781v6.097656zm0 0"/><path d="m91.972656 88.519531 5.28125-3.046875v6.097656zm0 0"/><path d="m55.003906 109.867188 5.28125-3.050782v6.097656zm0 0"/><path d="m55.003906 152.554688 5.28125-3.046876v6.097657zm0 0"/><path d="m55.003906 158.65625 5.28125-3.050781v6.097656zm0 0"/><path d="m55.003906 201.34375 5.28125-3.046875v6.097656zm0 0"/><path d="m55.003906 207.445312 5.28125-3.050781v6.097657zm0 0"/><path d="m55.003906 250.132812 5.28125-3.046874v6.097656zm0 0"/><path d="m91.972656 271.480469 5.28125-3.050781v6.097656zm0 0"/><path d="m97.253906 274.527344 5.28125-3.046875v6.097656zm0 0"/><path d="m134.226562 295.875 5.28125-3.050781v6.097656zm0 0"/><path d="m139.507812 298.921875 5.28125-3.046875v6.097656zm0 0"/><path d="m176.480469 320.269531 5.28125-3.050781v6.101562zm0 0"/><path d="m213.449219 298.921875 5.28125-3.046875v6.097656zm0 0"/><path d="m218.730469 295.875 5.28125-3.050781v6.097656zm0 0"/><path d="m255.703125 274.527344 5.28125-3.046875v6.097656zm0 0"/><path d="m260.984375 271.480469 5.28125-3.050781v6.097656zm0 0"/><path d="m303.238281 247.085938 5.28125-3.050782v6.097656zm0 0"/><path d="m303.238281 210.492188 5.28125-3.046876v6.097657zm0 0"/><path d="m303.238281 198.296875 5.28125-3.050781v6.097656zm0 0"/><path d="m303.238281 161.703125 5.28125-3.046875v6.097656zm0 0"/><path d="m303.238281 149.507812 5.28125-3.050781v6.097657zm0 0"/><path d="m303.238281 112.914062 5.28125-3.046874v6.097656zm0 0"/><path d="m297.957031 103.765625 5.28125-3.046875v6.097656zm0 0"/><path d="m266.265625 85.472656 5.28125-3.050781v6.097656zm0 0"/><path d="m255.703125 79.371094 5.28125-3.046875v6.097656zm0 0"/><path d="m224.011719 61.078125 5.28125-3.050781v6.097656zm0 0"/><path d="m213.449219 54.976562 5.28125-3.046874v6.097656zm0 0"/><path d="m181.761719 36.679688 5.28125-3.046876v6.097657zm0 0"/><path d="m171.199219 36.679688 5.28125-3.046876v6.097657zm0 0"/><path d="m139.507812 54.976562 5.28125-3.046874v6.097656zm0 0"/><path d="m128.945312 61.078125 5.28125-3.050781v6.097656zm0 0"/><path d="m97.253906 79.371094 5.28125-3.046875v6.097656zm0 0"/><path d="m86.691406 85.472656 5.28125-3.050781v6.097656zm0 0"/><path d="m55.003906 103.765625 5.28125-3.046875v6.097656zm0 0"/><path d="m49.722656 112.914062 5.28125-3.046874v6.097656zm0 0"/><path d="m49.722656 149.507812 5.28125-3.050781v6.097657zm0 0"/><path d="m49.722656 161.703125 5.28125-3.046875v6.097656zm0 0"/><path d="m49.722656 198.296875 5.28125-3.050781v6.097656zm0 0"/><path d="m49.722656 210.492188 5.28125-3.046876v6.097657zm0 0"/><path d="m49.722656 247.085938 5.28125-3.050782v6.097656zm0 0"/><path d="m55.003906 256.234375 5.28125-3.050781v6.097656zm0 0"/><path d="m86.691406 274.527344 5.28125-3.046875v6.097656zm0 0"/><path d="m97.253906 280.628906 5.28125-3.050781v6.097656zm0 0"/><path d="m128.945312 298.921875 5.28125-3.046875v6.097656zm0 0"/><path d="m139.507812 305.023438 5.28125-3.050782v6.097656zm0 0"/><path d="m171.199219 323.320312 5.28125-3.050781v6.097657zm0 0"/><path d="m181.761719 323.320312 5.28125-3.050781v6.097657zm0 0"/><path d="m213.449219 305.023438 5.28125-3.050782v6.097656zm0 0"/><path d="m224.011719 298.921875 5.28125-3.046875v6.097656zm0 0"/><path d="m255.703125 280.628906 5.28125-3.050781v6.097656zm0 0"/><path d="m266.265625 274.527344 5.28125-3.046875v6.097656zm0 0"/><path d="m297.957031 256.234375 5.28125-3.050781v6.097656zm0 0"/><path d="m308.519531 256.234375 5.28125-3.050781v6.097656zm0 0"/><path d="m308.519531 250.132812 5.28125-3.046874v6.097656zm0 0"/><path d="m308.519531 207.445312 5.28125-3.050781v6.097657zm0 0"/><path d="m308.519531 201.34375 5.28125-3.046875v6.097656zm0 0"/><path d="m308.519531 158.65625 5.28125-3.050781v6.097656zm0 0"/><path d="m308.519531 152.554688 5.28125-3.046876v6.097657zm0 0"/><path d="m308.519531 109.867188 5.28125-3.050782v6.097656zm0 0"/><path d="m308.519531 103.765625 5.28125-3.046875v6.097656zm0 0"/><path d="m303.238281 100.71875 5.28125-3.050781v6.097656zm0 0"/><path d="m266.265625 79.371094 5.28125-3.046875v6.097656zm0 0"/><path d="m260.984375 76.324219 5.28125-3.050781v6.097656zm0 0"/><path d="m224.011719 54.976562 5.28125-3.046874v6.097656zm0 0"/><path d="m218.730469 51.929688 5.28125-3.050782v6.097656zm0 0"/><path d="m181.761719 30.582031 5.28125-3.046875v6.097656zm0 0"/><path d="m176.480469 27.535156 5.28125-3.050781v6.097656zm0 0"/><path d="m171.199219 30.582031 5.28125-3.046875v6.097656zm0 0"/><path d="m134.226562 51.929688 5.28125-3.050782v6.097656zm0 0"/><path d="m128.945312 54.976562 5.28125-3.046874v6.097656zm0 0"/><path d="m91.972656 76.324219 5.28125-3.050781v6.097656zm0 0"/><path d="m86.691406 79.371094 5.28125-3.046875v6.097656zm0 0"/><path d="m49.722656 100.71875 5.28125-3.050781v6.097656zm0 0"/><path d="m44.4375 103.765625 5.285156-3.046875v6.097656zm0 0"/><path d="m44.4375 109.867188 5.285156-3.050782v6.097656zm0 0"/><path d="m44.4375 152.554688 5.285156-3.046876v6.097657zm0 0"/><path d="m44.4375 158.65625 5.285156-3.050781v6.097656zm0 0"/><path d="m44.4375 201.34375 5.285156-3.046875v6.097656zm0 0"/><path d="m44.4375 207.445312 5.285156-3.050781v6.097657zm0 0"/><path d="m44.4375 250.132812 5.285156-3.046874v6.097656zm0 0"/><path d="m44.4375 256.234375 5.285156-3.050781v6.097656zm0 0"/><path d="m49.722656 259.28125 5.28125-3.046875v6.097656zm0 0"/><path d="m86.691406 280.628906 5.28125-3.050781v6.097656zm0 0"/><path d="m91.972656 283.675781 5.28125-3.046875v6.097656zm0 0"/><path d="m128.945312 305.023438 5.28125-3.050782v6.097656zm0 0"/><path d="m134.226562 308.070312 5.28125-3.046874v6.097656zm0 0"/><path d="m171.199219 329.417969 5.28125-3.050781v6.097656zm0 0"/><path d="m176.480469 332.464844 5.28125-3.046875v6.097656zm0 0"/><path d="m181.761719 329.417969 5.28125-3.050781v6.097656zm0 0"/><path d="m218.730469 308.070312 5.28125-3.046874v6.097656zm0 0"/><path d="m224.011719 305.023438 5.28125-3.050782v6.097656zm0 0"/><path d="m260.984375 283.675781 5.28125-3.046875v6.097656zm0 0"/><path d="m266.265625 280.628906 5.28125-3.050781v6.097656zm0 0"/><path d="m303.238281 259.28125 5.28125-3.046875v6.097656zm0 0"/></g></svg>