<svg height="361pt" viewBox="0 0 360 361" width="360pt" xmlns="http://www.w3.org/2000/svg"><g fill-rule="evenodd"><path d="m0 360h360v-360h-360zm0 0" fill="#fff"/><g fill="#800080"><path d="m275.476562 120.597656 3.546876-2.046875v4.09375zm0 0"/><path d="m179.683594 65.292969 3.546875-2.050781v4.097656zm0 0"/><path d="m179.683594 294.707031 3.546875-2.046875v4.097656zm0 0"/><path d="m275.476562 239.402344 3.546876-2.046875v4.09375zm0 0"/><path d="m275.476562 116.5 3.546876-2.046875v4.097656zm0 0"/><path d="m183.230469 63.242188 3.546875-2.046876v4.097657zm0 0"/><path d="m76.796875 124.695312 3.546875-2.050781v4.097657zm0 0"/><path d="m76.796875 235.304688 3.546875-2.046876v4.097657zm0 0"/><path d="m183.230469 296.757812 3.546875-2.050781v4.097657zm0 0"/><path d="m275.476562 243.5 3.546876-2.050781v4.097656zm0 0"/><path d="m282.570312 116.5 3.546876-2.046875v4.097656zm0 0"/><path d="m279.023438 114.453125 3.546874-2.046875v4.09375zm0 0"/><path d="m183.230469 59.148438 3.546875-2.050782v4.097656zm0 0"/><path d="m179.683594 57.097656 3.546875-2.046875v4.097657zm0 0"/><path d="m73.246094 126.742188 3.550781-2.046876v4.097657zm0 0"/><path d="m73.246094 233.257812 3.550781-2.050781v4.097657zm0 0"/><path d="m179.683594 302.902344 3.546875-2.050782v4.097657zm0 0"/><path d="m183.230469 300.851562 3.546875-2.046874v4.097656zm0 0"/><path d="m279.023438 245.546875 3.546874-2.046875v4.09375zm0 0"/><path d="m282.570312 243.5 3.546876-2.050781v4.097656zm0 0"/><path d="m69.699219 120.597656 3.546875-2.046875v4.09375zm0 0"/><path d="m69.699219 124.695312 3.546875-2.050781v4.097657zm0 0"/><path d="m69.699219 235.304688 3.546875-2.046876v4.097657zm0 0"/><path d="m69.699219 239.402344 3.546875-2.046875v4.09375zm0 0"/><path d="m279.023438 106.257812 3.546874-2.046874v4.097656zm0 0"/><path d="m275.476562 104.210938 3.546876-2.046876v4.09375zm0 0"/><path d="m193.875 57.097656 3.546875-2.046875v4.097657zm0 0"/><path d="m190.328125 55.050781 3.546875-2.046875v4.09375zm0 0"/><path d="m190.328125 304.949219 3.546875-2.046875v4.09375zm0 0"/><path d="m193.875 302.902344 3.546875-2.050782v4.097657zm0 0"/><path d="m275.476562 255.789062 3.546876-2.046874v4.09375zm0 0"/><path d="m279.023438 253.742188 3.546874-2.050782v4.097656zm0 0"/><path d="m282.570312 104.210938 3.546876-2.046876v4.09375zm0 0"/><path d="m275.476562 100.113281 3.546876-2.046875v4.097656zm0 0"/><path d="m197.421875 55.050781 3.546875-2.046875v4.09375zm0 0"/><path d="m190.328125 50.953125 3.546875-2.046875v4.097656zm0 0"/><path d="m62.605469 128.792969 3.546875-2.050781v4.097656zm0 0"/><path d="m62.605469 132.886719 3.546875-2.046875v4.097656zm0 0"/><path d="m62.605469 227.113281 3.546875-2.050781v4.097656zm0 0"/><path d="m62.605469 231.207031 3.546875-2.046875v4.097656zm0 0"/><path d="m190.328125 309.046875 3.546875-2.050781v4.097656zm0 0"/><path d="m197.421875 304.949219 3.546875-2.046875v4.09375zm0 0"/><path d="m275.476562 259.886719 3.546876-2.050781v4.097656zm0 0"/><path d="m282.570312 255.789062 3.546876-2.046874v4.09375zm0 0"/><path d="m282.570312 100.113281 3.546876-2.046875v4.097656zm0 0"/><path d="m279.023438 98.066406 3.546874-2.050781v4.097656zm0 0"/><path d="m197.421875 50.953125 3.546875-2.046875v4.097656zm0 0"/><path d="m193.875 48.90625 3.546875-2.050781v4.097656zm0 0"/><path d="m59.054688 126.742188 3.550781-2.046876v4.097657zm0 0"/><path d="m59.054688 134.9375 3.550781-2.050781v4.097656zm0 0"/><path d="m59.054688 225.0625 3.550781-2.046875v4.097656zm0 0"/><path d="m59.054688 233.257812 3.550781-2.050781v4.097657zm0 0"/><path d="m193.875 311.09375 3.546875-2.046875v4.097656zm0 0"/><path d="m197.421875 309.046875 3.546875-2.050781v4.097656zm0 0"/><path d="m279.023438 261.933594 3.546874-2.046875v4.097656zm0 0"/><path d="m282.570312 259.886719 3.546876-2.050781v4.097656zm0 0"/><path d="m55.507812 128.792969 3.546876-2.050781v4.097656zm0 0"/><path d="m55.507812 132.886719 3.546876-2.046875v4.097656zm0 0"/><path d="m55.507812 227.113281 3.546876-2.050781v4.097656zm0 0"/><path d="m55.507812 231.207031 3.546876-2.046875v4.097656zm0 0"/><path d="m303.859375 104.210938 3.546875-2.046876v4.09375zm0 0"/><path d="m293.214844 98.066406 3.546875-2.050781v4.097656zm0 0"/><path d="m289.667969 96.015625 3.546875-2.046875v4.097656zm0 0"/><path d="m193.875 40.710938 3.546875-2.046876v4.097657zm0 0"/><path d="m190.328125 38.664062 3.546875-2.046874v4.09375zm0 0"/><path d="m179.683594 32.519531 3.546875-2.050781v4.097656zm0 0"/><path d="m179.683594 327.480469 3.546875-2.046875v4.097656zm0 0"/><path d="m190.328125 321.335938 3.546875-2.046876v4.09375zm0 0"/><path d="m193.875 319.289062 3.546875-2.050781v4.097657zm0 0"/><path d="m289.667969 263.984375 3.546875-2.050781v4.097656zm0 0"/><path d="m293.214844 261.933594 3.546875-2.046875v4.097656zm0 0"/><path d="m303.859375 255.789062 3.546875-2.046874v4.09375zm0 0"/><path d="m303.859375 100.113281 3.546875-2.046875v4.097656zm0 0"/><path d="m296.761719 96.015625 3.546875-2.046875v4.097656zm0 0"/><path d="m289.667969 91.921875 3.546875-2.050781v4.097656zm0 0"/><path d="m197.421875 38.664062 3.546875-2.046874v4.09375zm0 0"/><path d="m190.328125 34.566406 3.546875-2.046875v4.097657zm0 0"/><path d="m183.230469 30.46875 3.546875-2.046875v4.097656zm0 0"/><path d="m48.414062 108.308594 3.546876-2.050782v4.097657zm0 0"/><path d="m48.414062 120.597656 3.546876-2.046875v4.09375zm0 0"/><path d="m48.414062 124.695312 3.546876-2.050781v4.097657zm0 0"/><path d="m48.414062 235.304688 3.546876-2.046876v4.097657zm0 0"/><path d="m48.414062 239.402344 3.546876-2.046875v4.09375zm0 0"/><path d="m48.414062 251.691406 3.546876-2.046875v4.097657zm0 0"/><path d="m183.230469 329.53125 3.546875-2.050781v4.097656zm0 0"/><path d="m190.328125 325.433594 3.546875-2.050782v4.097657zm0 0"/><path d="m197.421875 321.335938 3.546875-2.046876v4.09375zm0 0"/><path d="m289.667969 268.078125 3.546875-2.046875v4.097656zm0 0"/><path d="m296.761719 263.984375 3.546875-2.050781v4.097656zm0 0"/><path d="m303.859375 259.886719 3.546875-2.050781v4.097656zm0 0"/><path d="m310.953125 100.113281 3.546875-2.046875v4.097656zm0 0"/><path d="m307.40625 98.066406 3.546875-2.050781v4.097656zm0 0"/><path d="m296.761719 91.921875 3.546875-2.050781v4.097656zm0 0"/><path d="m293.214844 89.871094 3.546875-2.046875v4.097656zm0 0"/><path d="m197.421875 34.566406 3.546875-2.046875v4.097657zm0 0"/><path d="m193.875 32.519531 3.546875-2.050781v4.097656zm0 0"/><path d="m183.230469 26.375 3.546875-2.050781v4.097656zm0 0"/><path d="m179.683594 24.324219 3.546875-2.046875v4.097656zm0 0"/><path d="m44.863281 110.355469 3.550781-2.046875v4.097656zm0 0"/><path d="m44.863281 118.550781 3.550781-2.050781v4.097656zm0 0"/><path d="m44.863281 126.742188 3.550781-2.046876v4.097657zm0 0"/><path d="m44.863281 233.257812 3.550781-2.050781v4.097657zm0 0"/><path d="m44.863281 241.449219 3.550781-2.046875v4.097656zm0 0"/><path d="m44.863281 249.644531 3.550781-2.050781v4.097656zm0 0"/><path d="m179.683594 335.675781 3.546875-2.050781v4.097656zm0 0"/><path d="m183.230469 333.625 3.546875-2.046875v4.097656zm0 0"/><path d="m193.875 327.480469 3.546875-2.046875v4.097656zm0 0"/><path d="m197.421875 325.433594 3.546875-2.050782v4.097657zm0 0"/><path d="m293.214844 270.128906 3.546875-2.050781v4.097656zm0 0"/><path d="m296.761719 268.078125 3.546875-2.046875v4.097656zm0 0"/><path d="m307.40625 261.933594 3.546875-2.046875v4.097656zm0 0"/><path d="m310.953125 259.886719 3.546875-2.050781v4.097656zm0 0"/><path d="m41.316406 104.210938 3.546875-2.046876v4.09375zm0 0"/><path d="m41.316406 108.308594 3.546875-2.050782v4.097657zm0 0"/><path d="m41.316406 120.597656 3.546875-2.046875v4.09375zm0 0"/><path d="m41.316406 124.695312 3.546875-2.050781v4.097657zm0 0"/><path d="m41.316406 235.304688 3.546875-2.046876v4.097657zm0 0"/><path d="m41.316406 239.402344 3.546875-2.046875v4.09375zm0 0"/><path d="m41.316406 251.691406 3.546875-2.046875v4.097657zm0 0"/><path d="m41.316406 255.789062 3.546875-2.046874v4.09375zm0 0"/><path d="m282.570312 235.304688-3.546874-2.046876v4.097657zm0 0"/><path d="m282.570312 124.695312-3.546874-2.050781v4.097657zm0 0"/><path d="m286.117188 233.257812-3.546876-2.050781v4.097657zm0 0"/><path d="m286.117188 126.742188-3.546876-2.046876v4.097657zm0 0"/><path d="m179.683594 65.292969-3.546875-2.050781v4.097656zm0 0"/><path d="m83.890625 120.597656-3.546875-2.046875v4.09375zm0 0"/><path d="m83.890625 239.402344-3.546875-2.046875v4.09375zm0 0"/><path d="m179.683594 294.707031-3.546875-2.046875v4.097656zm0 0"/><path d="m289.667969 239.402344-3.550781-2.046875v4.09375zm0 0"/><path d="m289.667969 235.304688-3.550781-2.046876v4.097657zm0 0"/><path d="m289.667969 124.695312-3.550781-2.050781v4.097657zm0 0"/><path d="m289.667969 120.597656-3.550781-2.046875v4.09375zm0 0"/><path d="m176.136719 63.242188-3.550781-2.046876v4.097657zm0 0"/><path d="m83.890625 116.5-3.546875-2.046875v4.097656zm0 0"/><path d="m83.890625 243.5-3.546875-2.050781v4.097656zm0 0"/><path d="m176.136719 296.757812-3.550781-2.050781v4.097657zm0 0"/><path d="m179.683594 57.097656-3.546875-2.046875v4.097657zm0 0"/><path d="m176.136719 59.148438-3.550781-2.050782v4.097656zm0 0"/><path d="m80.34375 114.453125-3.546875-2.046875v4.09375zm0 0"/><path d="m76.796875 116.5-3.550781-2.046875v4.097656zm0 0"/><path d="m76.796875 243.5-3.550781-2.050781v4.097656zm0 0"/><path d="m80.34375 245.546875-3.546875-2.046875v4.09375zm0 0"/><path d="m176.136719 300.851562-3.550781-2.046874v4.097656zm0 0"/><path d="m179.683594 302.902344-3.546875-2.050782v4.097657zm0 0"/><path d="m296.761719 231.207031-3.546875-2.046875v4.097656zm0 0"/><path d="m296.761719 227.113281-3.546875-2.050781v4.097656zm0 0"/><path d="m296.761719 132.886719-3.546875-2.046875v4.097656zm0 0"/><path d="m296.761719 128.792969-3.546875-2.050781v4.097656zm0 0"/><path d="m300.308594 233.257812-3.546875-2.050781v4.097657zm0 0"/><path d="m300.308594 225.0625-3.546875-2.046875v4.097656zm0 0"/><path d="m300.308594 134.9375-3.546875-2.050781v4.097656zm0 0"/><path d="m300.308594 126.742188-3.546875-2.046876v4.097657zm0 0"/><path d="m169.039062 55.050781-3.546874-2.046875v4.09375zm0 0"/><path d="m165.492188 57.097656-3.546876-2.046875v4.097657zm0 0"/><path d="m83.890625 104.210938-3.546875-2.046876v4.09375zm0 0"/><path d="m80.34375 106.257812-3.546875-2.046874v4.097656zm0 0"/><path d="m80.34375 253.742188-3.546875-2.050782v4.097656zm0 0"/><path d="m83.890625 255.789062-3.546875-2.046874v4.09375zm0 0"/><path d="m165.492188 302.902344-3.546876-2.050782v4.097657zm0 0"/><path d="m169.039062 304.949219-3.546874-2.046875v4.09375zm0 0"/><path d="m303.859375 231.207031-3.550781-2.046875v4.097656zm0 0"/><path d="m303.859375 227.113281-3.550781-2.050781v4.097656zm0 0"/><path d="m303.859375 132.886719-3.550781-2.046875v4.097656zm0 0"/><path d="m303.859375 128.792969-3.550781-2.050781v4.097656zm0 0"/><path d="m169.039062 50.953125-3.546874-2.046875v4.097656zm0 0"/><path d="m161.945312 55.050781-3.550781-2.046875v4.09375zm0 0"/><path d="m83.890625 100.113281-3.546875-2.046875v4.097656zm0 0"/><path d="m76.796875 104.210938-3.550781-2.046876v4.09375zm0 0"/><path d="m76.796875 255.789062-3.550781-2.046874v4.09375zm0 0"/><path d="m83.890625 259.886719-3.546875-2.050781v4.097656zm0 0"/><path d="m161.945312 304.949219-3.550781-2.046875v4.09375zm0 0"/><path d="m169.039062 309.046875-3.546874-2.050781v4.097656zm0 0"/><path d="m165.492188 48.90625-3.546876-2.050781v4.097656zm0 0"/><path d="m161.945312 50.953125-3.550781-2.046875v4.097656zm0 0"/><path d="m80.34375 98.066406-3.546875-2.050781v4.097656zm0 0"/><path d="m76.796875 100.113281-3.550781-2.046875v4.097656zm0 0"/><path d="m76.796875 259.886719-3.550781-2.050781v4.097656zm0 0"/><path d="m80.34375 261.933594-3.546875-2.046875v4.097656zm0 0"/><path d="m161.945312 309.046875-3.550781-2.050781v4.097656zm0 0"/><path d="m165.492188 311.09375-3.546876-2.046875v4.097656zm0 0"/><path d="m310.953125 251.691406-3.546875-2.046875v4.097657zm0 0"/><path d="m310.953125 239.402344-3.546875-2.046875v4.09375zm0 0"/><path d="m310.953125 235.304688-3.546875-2.046876v4.097657zm0 0"/><path d="m310.953125 124.695312-3.546875-2.050781v4.097657zm0 0"/><path d="m310.953125 120.597656-3.546875-2.046875v4.09375zm0 0"/><path d="m310.953125 108.308594-3.546875-2.050782v4.097657zm0 0"/><path d="m314.5 249.644531-3.546875-2.050781v4.097656zm0 0"/><path d="m314.5 241.449219-3.546875-2.046875v4.097656zm0 0"/><path d="m314.5 233.257812-3.546875-2.050781v4.097657zm0 0"/><path d="m314.5 126.742188-3.546875-2.046876v4.097657zm0 0"/><path d="m314.5 118.550781-3.546875-2.050781v4.097656zm0 0"/><path d="m314.5 110.355469-3.546875-2.046875v4.097656zm0 0"/><path d="m179.683594 32.519531-3.546875-2.050781v4.097656zm0 0"/><path d="m169.039062 38.664062-3.546874-2.046874v4.09375zm0 0"/><path d="m165.492188 40.710938-3.546876-2.046876v4.097657zm0 0"/><path d="m69.699219 96.015625-3.546875-2.046875v4.097656zm0 0"/><path d="m66.152344 98.066406-3.546875-2.050781v4.097656zm0 0"/><path d="m55.507812 104.210938-3.546874-2.046876v4.09375zm0 0"/><path d="m55.507812 255.789062-3.546874-2.046874v4.09375zm0 0"/><path d="m66.152344 261.933594-3.546875-2.046875v4.097656zm0 0"/><path d="m69.699219 263.984375-3.546875-2.050781v4.097656zm0 0"/><path d="m165.492188 319.289062-3.546876-2.050781v4.097657zm0 0"/><path d="m169.039062 321.335938-3.546874-2.046876v4.09375zm0 0"/><path d="m179.683594 327.480469-3.546875-2.046875v4.097656zm0 0"/><path d="m318.050781 255.789062-3.550781-2.046874v4.09375zm0 0"/><path d="m318.050781 251.691406-3.550781-2.046875v4.097657zm0 0"/><path d="m318.050781 239.402344-3.550781-2.046875v4.09375zm0 0"/><path d="m318.050781 235.304688-3.550781-2.046876v4.097657zm0 0"/><path d="m318.050781 124.695312-3.550781-2.050781v4.097657zm0 0"/><path d="m318.050781 120.597656-3.550781-2.046875v4.09375zm0 0"/><path d="m318.050781 108.308594-3.550781-2.050782v4.097657zm0 0"/><path d="m318.050781 104.210938-3.550781-2.046876v4.09375zm0 0"/><path d="m176.136719 30.46875-3.550781-2.046875v4.097656zm0 0"/><path d="m169.039062 34.566406-3.546874-2.046875v4.097657zm0 0"/><path d="m161.945312 38.664062-3.550781-2.046874v4.09375zm0 0"/><path d="m69.699219 91.921875-3.546875-2.050781v4.097656zm0 0"/><path d="m62.605469 96.015625-3.550781-2.046875v4.097656zm0 0"/><path d="m55.507812 100.113281-3.546874-2.046875v4.097656zm0 0"/><path d="m55.507812 259.886719-3.546874-2.050781v4.097656zm0 0"/><path d="m62.605469 263.984375-3.550781-2.050781v4.097656zm0 0"/><path d="m69.699219 268.078125-3.546875-2.046875v4.097656zm0 0"/><path d="m161.945312 321.335938-3.550781-2.046876v4.09375zm0 0"/><path d="m169.039062 325.433594-3.546874-2.050782v4.097657zm0 0"/><path d="m176.136719 329.53125-3.550781-2.050781v4.097656zm0 0"/><path d="m179.683594 24.324219-3.546875-2.046875v4.097656zm0 0"/><path d="m176.136719 26.375-3.550781-2.050781v4.097656zm0 0"/><path d="m165.492188 32.519531-3.546876-2.050781v4.097656zm0 0"/><path d="m161.945312 34.566406-3.550781-2.046875v4.097657zm0 0"/><path d="m66.152344 89.871094-3.546875-2.046875v4.097656zm0 0"/><path d="m62.605469 91.921875-3.550781-2.050781v4.097656zm0 0"/><path d="m51.960938 98.066406-3.546876-2.050781v4.097656zm0 0"/><path d="m48.414062 100.113281-3.550781-2.046875v4.097656zm0 0"/><path d="m48.414062 259.886719-3.550781-2.050781v4.097656zm0 0"/><path d="m51.960938 261.933594-3.546876-2.046875v4.097656zm0 0"/><path d="m62.605469 268.078125-3.550781-2.046875v4.097656zm0 0"/><path d="m66.152344 270.128906-3.546875-2.050781v4.097656zm0 0"/><path d="m161.945312 325.433594-3.550781-2.050782v4.097657zm0 0"/><path d="m165.492188 327.480469-3.546876-2.046875v4.097656zm0 0"/><path d="m176.136719 333.625-3.550781-2.046875v4.097656zm0 0"/><path d="m179.683594 335.675781-3.546875-2.050781v4.097656zm0 0"/></g></g></svg>