<svg height="360pt" viewBox="0 0 360 360" width="360pt" xmlns="http://www.w3.org/2000/svg"><path d="m0 0h360v360h-360z" fill="#fff"/><g fill="#800080"><path d="m69.691406 242.207031 3.847656-2.222656v4.445313zm0 0"/><path d="m289.027344 239.984375 3.847656-2.222656v4.445312zm0 0"/><path d="m289.027344 120.015625 3.847656-2.222656v4.445312zm0 0"/><path d="m181.28125 53.367188 3.847656-2.222657v4.441407zm0 0"/><path d="m173.585938 53.367188 3.847656-2.222657v4.441407zm0 0"/><path d="m69.691406 113.351562 3.847656-2.222656v4.441406zm0 0"/><path d="m65.84375 120.015625 3.847656-2.222656v4.445312zm0 0"/><path d="m69.691406 246.648438 3.847656-2.21875v4.441406zm0 0"/><path d="m181.28125 306.632812 3.847656-2.21875v4.441407zm0 0"/><path d="m285.179688 246.648438 3.847656-2.21875v4.441406zm0 0"/><path d="m292.875 246.648438 3.847656-2.21875v4.441406zm0 0"/><path d="m292.875 242.207031 3.847656-2.222656v4.445313zm0 0"/><path d="m292.875 122.238281 3.847656-2.222656v4.441406zm0 0"/><path d="m289.027344 111.128906 3.847656-2.222656v4.445312zm0 0"/><path d="m285.179688 108.90625 3.847656-2.222656v4.445312zm0 0"/><path d="m185.128906 51.144531 3.851563-2.222656v4.445313zm0 0"/><path d="m181.28125 48.921875 3.847656-2.222656v4.445312zm0 0"/><path d="m169.738281 51.144531 3.847657-2.222656v4.445313zm0 0"/><path d="m69.691406 108.90625 3.847656-2.222656v4.445312zm0 0"/><path d="m65.84375 111.128906 3.847656-2.222656v4.445312zm0 0"/><path d="m61.992188 122.238281 3.851562-2.222656v4.441406zm0 0"/><path d="m61.992188 242.207031 3.851562-2.222656v4.445313zm0 0"/><path d="m61.992188 246.648438 3.851562-2.21875v4.441406zm0 0"/><path d="m65.84375 248.871094 3.847656-2.222656v4.445312zm0 0"/><path d="m69.691406 251.09375 3.847656-2.222656v4.445312zm0 0"/><path d="m173.585938 311.078125 3.847656-2.222656v4.445312zm0 0"/><path d="m177.433594 313.300781 3.847656-2.222656v4.441406zm0 0"/><path d="m285.179688 251.09375 3.847656-2.222656v4.445312zm0 0"/><path d="m289.027344 248.871094 3.847656-2.222656v4.445312zm0 0"/><path d="m296.722656 248.871094 3.847656-2.222656v4.445312zm0 0"/><path d="m296.722656 239.984375 3.847656-2.222656v4.445312zm0 0"/><path d="m296.722656 124.457031 3.847656-2.21875v4.441407zm0 0"/><path d="m296.722656 111.128906 3.847656-2.222656v4.445312zm0 0"/><path d="m289.027344 106.683594 3.847656-2.21875v4.441406zm0 0"/><path d="m285.179688 104.464844 3.847656-2.222656v4.441406zm0 0"/><path d="m188.980469 48.921875 3.847656-2.222656v4.445312zm0 0"/><path d="m181.28125 44.480469 3.847656-2.222657v4.441407zm0 0"/><path d="m177.433594 42.257812 3.847656-2.222656v4.445313zm0 0"/><path d="m165.890625 48.921875 3.847656-2.222656v4.445312zm0 0"/><path d="m69.691406 104.464844 3.847656-2.222656v4.441406zm0 0"/><path d="m65.84375 106.683594 3.847656-2.21875v4.441406zm0 0"/><path d="m58.144531 115.570312 3.847657-2.21875v4.441407zm0 0"/><path d="m58.144531 120.015625 3.847657-2.222656v4.445312zm0 0"/><path d="m58.144531 124.457031 3.847657-2.21875v4.441407zm0 0"/><path d="m58.144531 235.542969 3.847657-2.222657v4.441407zm0 0"/><path d="m65.84375 253.316406 3.847656-2.222656v4.441406zm0 0"/><path d="m69.691406 255.535156 3.847656-2.21875v4.441406zm0 0"/><path d="m165.890625 311.078125 3.847656-2.222656v4.445312zm0 0"/><path d="m169.738281 313.300781 3.847657-2.222656v4.441406zm0 0"/><path d="m185.128906 313.300781 3.851563-2.222656v4.441406zm0 0"/><path d="m289.027344 253.316406 3.847656-2.222656v4.441406zm0 0"/><path d="m300.570312 242.207031 3.847657-2.222656v4.445313zm0 0"/><path d="m300.570312 113.351562 3.847657-2.222656v4.441406zm0 0"/><path d="m296.722656 106.683594 3.847656-2.21875v4.441406zm0 0"/><path d="m292.875 104.464844 3.847656-2.222656v4.441406zm0 0"/><path d="m173.585938 40.035156 3.847656-2.222656v4.445312zm0 0"/><path d="m69.691406 100.019531 3.847656-2.222656v4.445313zm0 0"/><path d="m61.992188 104.464844 3.851562-2.222656v4.441406zm0 0"/><path d="m54.296875 113.351562 3.847656-2.222656v4.441406zm0 0"/><path d="m54.296875 242.207031 3.847656-2.222656v4.445313zm0 0"/><path d="m169.738281 317.742188 3.847657-2.222657v4.445313zm0 0"/><path d="m173.585938 319.964844 3.847656-2.222656v4.445312zm0 0"/><path d="m185.128906 317.742188 3.851563-2.222657v4.445313zm0 0"/><path d="m192.828125 313.300781 3.847656-2.222656v4.441406zm0 0"/><path d="m296.722656 253.316406 3.847656-2.222656v4.441406zm0 0"/><path d="m304.417969 235.542969 3.847656-2.222657v4.441407zm0 0"/><path d="m304.417969 124.457031 3.847656-2.21875v4.441407zm0 0"/><path d="m304.417969 120.015625 3.847656-2.222656v4.445312zm0 0"/><path d="m304.417969 115.570312 3.847656-2.21875v4.441407zm0 0"/><path d="m292.875 100.019531 3.847656-2.222656v4.445313zm0 0"/><path d="m289.027344 97.796875 3.847656-2.21875v4.441406zm0 0"/><path d="m192.828125 42.257812 3.847656-2.222656v4.445313zm0 0"/><path d="m188.980469 40.035156 3.847656-2.222656v4.445312zm0 0"/><path d="m173.585938 35.59375 3.847656-2.222656v4.441406zm0 0"/><path d="m165.890625 40.035156 3.847656-2.222656v4.445312zm0 0"/><path d="m61.992188 100.019531 3.851562-2.222656v4.445313zm0 0"/><path d="m50.449219 106.683594 3.847656-2.21875v4.441406zm0 0"/><path d="m50.449219 111.128906 3.847656-2.222656v4.445312zm0 0"/><path d="m50.449219 124.457031 3.847656-2.21875v4.441407zm0 0"/><path d="m50.449219 239.984375 3.847656-2.222656v4.445312zm0 0"/><path d="m50.449219 248.871094 3.847656-2.222656v4.445312zm0 0"/><path d="m50.449219 253.316406 3.847656-2.222656v4.441406zm0 0"/><path d="m54.296875 255.535156 3.847656-2.21875v4.441406zm0 0"/><path d="m58.144531 257.757812 3.847657-2.222656v4.445313zm0 0"/><path d="m65.84375 262.203125 3.847656-2.222656v4.441406zm0 0"/><path d="m162.042969 317.742188 3.847656-2.222657v4.445313zm0 0"/><path d="m165.890625 319.964844 3.847656-2.222656v4.445312zm0 0"/><path d="m173.585938 324.40625 3.847656-2.21875v4.441406zm0 0"/><path d="m177.433594 326.628906 3.847656-2.222656v4.445312zm0 0"/><path d="m188.980469 319.964844 3.847656-2.222656v4.445312zm0 0"/><path d="m192.828125 317.742188 3.847656-2.222657v4.445313zm0 0"/><path d="m289.027344 262.203125 3.847656-2.222656v4.441406zm0 0"/><path d="m300.570312 255.535156 3.847657-2.21875v4.441406zm0 0"/><path d="m308.265625 246.648438 3.851563-2.21875v4.441406zm0 0"/><path d="m308.265625 242.207031 3.851563-2.222656v4.445313zm0 0"/><path d="m308.265625 122.238281 3.851563-2.222656v4.441406zm0 0"/><path d="m308.265625 104.464844 3.851563-2.222656v4.441406zm0 0"/><path d="m300.570312 100.019531 3.847657-2.222656v4.445313zm0 0"/><path d="m296.722656 97.796875 3.847656-2.21875v4.441406zm0 0"/><path d="m192.828125 37.8125 3.847656-2.21875v4.441406zm0 0"/><path d="m188.980469 35.59375 3.847656-2.222656v4.441406zm0 0"/><path d="m185.128906 33.371094 3.851563-2.222656v4.445312zm0 0"/><path d="m177.433594 28.925781 3.847656-2.21875v4.441407zm0 0"/><path d="m169.738281 33.371094 3.847657-2.222656v4.445312zm0 0"/><path d="m165.890625 35.59375 3.847656-2.222656v4.441406zm0 0"/><path d="m162.042969 37.8125 3.847656-2.21875v4.441406zm0 0"/><path d="m54.296875 100.019531 3.847656-2.222656v4.445313zm0 0"/><path d="m46.601562 104.464844 3.847657-2.222656v4.441406zm0 0"/><path d="m46.601562 122.238281 3.847657-2.222656v4.441406zm0 0"/><path d="m46.601562 242.207031 3.847657-2.222656v4.445313zm0 0"/><path d="m46.601562 246.648438 3.847657-2.21875v4.441406zm0 0"/><path d="m58.144531 262.203125 3.847657-2.222656v4.441406zm0 0"/><path d="m61.992188 264.421875 3.851562-2.21875v4.441406zm0 0"/><path d="m162.042969 322.1875 3.847656-2.222656v4.441406zm0 0"/><path d="m165.890625 324.40625 3.847656-2.21875v4.441406zm0 0"/><path d="m181.28125 328.851562 3.847656-2.222656v4.445313zm0 0"/><path d="m188.980469 324.40625 3.847656-2.21875v4.441406zm0 0"/><path d="m192.828125 322.1875 3.847656-2.222656v4.441406zm0 0"/><path d="m292.875 264.421875 3.847656-2.21875v4.441406zm0 0"/><path d="m304.417969 257.757812 3.847656-2.222656v4.445313zm0 0"/><path d="m312.117188 253.316406 3.847656-2.222656v4.441406zm0 0"/><path d="m312.117188 248.871094 3.847656-2.222656v4.445312zm0 0"/><path d="m312.117188 120.015625 3.847656-2.222656v4.445312zm0 0"/><path d="m312.117188 111.128906 3.847656-2.222656v4.445312zm0 0"/><path d="m312.117188 106.683594 3.847656-2.21875v4.441406zm0 0"/><path d="m308.265625 100.019531 3.851563-2.222656v4.445313zm0 0"/><path d="m192.828125 33.371094 3.847656-2.222656v4.445312zm0 0"/><path d="m185.128906 28.925781 3.851563-2.21875v4.441407zm0 0"/><path d="m173.585938 26.707031 3.847656-2.222656v4.441406zm0 0"/><path d="m169.738281 28.925781 3.847657-2.21875v4.441407zm0 0"/><path d="m162.042969 33.371094 3.847656-2.222656v4.445312zm0 0"/><path d="m58.144531 93.355469 3.847657-2.222657v4.445313zm0 0"/><path d="m50.449219 97.796875 3.847656-2.21875v4.441406zm0 0"/><path d="m46.601562 100.019531 3.847657-2.222656v4.445313zm0 0"/><path d="m42.753906 106.683594 3.847656-2.21875v4.441406zm0 0"/><path d="m42.753906 111.128906 3.847656-2.222656v4.445312zm0 0"/><path d="m42.753906 120.015625 3.847656-2.222656v4.445312zm0 0"/><path d="m42.753906 239.984375 3.847656-2.222656v4.445312zm0 0"/><path d="m42.753906 248.871094 3.847656-2.222656v4.445312zm0 0"/><path d="m42.753906 253.316406 3.847656-2.222656v4.441406zm0 0"/><path d="m58.144531 266.644531 3.847657-2.222656v4.445313zm0 0"/><path d="m181.28125 333.292969 3.847656-2.21875v4.441406zm0 0"/><path d="m192.828125 326.628906 3.847656-2.222656v4.445312zm0 0"/><path d="m296.722656 266.644531 3.847656-2.222656v4.445313zm0 0"/><path d="m304.417969 262.203125 3.847656-2.222656v4.441406zm0 0"/><path d="m315.964844 255.535156 3.847656-2.21875v4.441406zm0 0"/><path d="m315.964844 251.09375 3.847656-2.222656v4.445312zm0 0"/><path d="m315.964844 246.648438 3.847656-2.21875v4.441406zm0 0"/><path d="m315.964844 242.207031 3.847656-2.222656v4.445313zm0 0"/><path d="m315.964844 113.351562 3.847656-2.222656v4.441406zm0 0"/><path d="m315.964844 108.90625 3.847656-2.222656v4.445312zm0 0"/><path d="m315.964844 104.464844 3.847656-2.222656v4.441406zm0 0"/><path d="m315.964844 100.019531 3.847656-2.222656v4.445313zm0 0"/><path d="m304.417969 93.355469 3.847656-2.222657v4.445313zm0 0"/><path d="m192.828125 28.925781 3.847656-2.21875v4.441407zm0 0"/><path d="m181.28125 22.261719 3.847656-2.222657v4.445313zm0 0"/><path d="m165.890625 26.707031 3.847656-2.222656v4.441406zm0 0"/><path d="m42.753906 97.796875 3.847656-2.21875v4.441406zm0 0"/><path d="m38.90625 104.464844 3.847656-2.222656v4.441406zm0 0"/><path d="m38.90625 108.90625 3.847656-2.222656v4.445312zm0 0"/><path d="m38.90625 246.648438 3.847656-2.21875v4.441406zm0 0"/><path d="m38.90625 251.09375 3.847656-2.222656v4.445312zm0 0"/><path d="m42.753906 262.203125 3.847656-2.222656v4.441406zm0 0"/><path d="m46.601562 264.421875 3.847657-2.21875v4.441406zm0 0"/><path d="m50.449219 266.644531 3.847656-2.222656v4.445313zm0 0"/><path d="m165.890625 333.292969 3.847656-2.21875v4.441406zm0 0"/><path d="m169.738281 335.515625 3.847657-2.222656v4.445312zm0 0"/><path d="m173.585938 337.738281 3.847656-2.222656v4.445313zm0 0"/><path d="m181.28125 337.738281 3.847656-2.222656v4.445313zm0 0"/><path d="m185.128906 335.515625 3.851563-2.222656v4.445312zm0 0"/><path d="m188.980469 333.292969 3.847656-2.21875v4.441406zm0 0"/><path d="m304.417969 266.644531 3.847656-2.222656v4.445313zm0 0"/><path d="m308.265625 264.421875 3.851563-2.21875v4.441406zm0 0"/><path d="m312.117188 262.203125 3.847656-2.222656v4.441406zm0 0"/><path d="m292.875 117.792969-3.847656-2.222657v4.445313zm0 0"/><path d="m73.539062 244.429688-3.847656-2.222657v4.441407zm0 0"/><path d="m181.28125 48.921875-3.847656-2.222656v4.445312zm0 0"/><path d="m177.433594 51.144531-3.847656-2.222656v4.445313zm0 0"/><path d="m73.539062 111.128906-3.847656-2.222656v4.445312zm0 0"/><path d="m69.691406 113.351562-3.847656-2.222656v4.441406zm0 0"/><path d="m69.691406 246.648438-3.847656-2.21875v4.441406zm0 0"/><path d="m177.433594 308.855469-3.847656-2.222657v4.445313zm0 0"/><path d="m292.875 246.648438-3.847656-2.21875v4.441406zm0 0"/><path d="m300.570312 237.761719-3.847656-2.21875v4.441406zm0 0"/><path d="m300.570312 122.238281-3.847656-2.222656v4.441406zm0 0"/><path d="m300.570312 113.351562-3.847656-2.222656v4.441406zm0 0"/><path d="m292.875 108.90625-3.847656-2.222656v4.445312zm0 0"/><path d="m188.980469 48.921875-3.851563-2.222656v4.445312zm0 0"/><path d="m181.28125 44.480469-3.847656-2.222657v4.441407zm0 0"/><path d="m69.691406 108.90625-3.847656-2.222656v4.445312zm0 0"/><path d="m65.84375 111.128906-3.851562-2.222656v4.445312zm0 0"/><path d="m65.84375 115.570312-3.851562-2.21875v4.441407zm0 0"/><path d="m65.84375 120.015625-3.851562-2.222656v4.445312zm0 0"/><path d="m65.84375 239.984375-3.851562-2.222656v4.445312zm0 0"/><path d="m65.84375 244.429688-3.851562-2.222657v4.441407zm0 0"/><path d="m69.691406 251.09375-3.847656-2.222656v4.445312zm0 0"/><path d="m73.539062 253.316406-3.847656-2.222656v4.441406zm0 0"/><path d="m181.28125 315.519531-3.847656-2.21875v4.441407zm0 0"/><path d="m188.980469 311.078125-3.851563-2.222656v4.445312zm0 0"/><path d="m292.875 251.09375-3.847656-2.222656v4.445312zm0 0"/><path d="m304.417969 244.429688-3.847657-2.222657v4.441407zm0 0"/><path d="m304.417969 120.015625-3.847657-2.222656v4.445312zm0 0"/><path d="m304.417969 115.570312-3.847657-2.21875v4.441407zm0 0"/><path d="m300.570312 108.90625-3.847656-2.222656v4.445312zm0 0"/><path d="m292.875 104.464844-3.847656-2.222656v4.441406zm0 0"/><path d="m188.980469 44.480469-3.851563-2.222657v4.441407zm0 0"/><path d="m185.128906 42.257812-3.847656-2.222656v4.445313zm0 0"/><path d="m177.433594 42.257812-3.847656-2.222656v4.445313zm0 0"/><path d="m169.738281 46.699219-3.847656-2.21875v4.441406zm0 0"/><path d="m73.539062 102.242188-3.847656-2.222657v4.445313zm0 0"/><path d="m69.691406 104.464844-3.847656-2.222656v4.441406zm0 0"/><path d="m61.992188 113.351562-3.847657-2.222656v4.441406zm0 0"/><path d="m61.992188 246.648438-3.847657-2.21875v4.441406zm0 0"/><path d="m65.84375 253.316406-3.851562-2.222656v4.441406zm0 0"/><path d="m69.691406 255.535156-3.847656-2.21875v4.441406zm0 0"/><path d="m185.128906 317.742188-3.847656-2.222657v4.445313zm0 0"/><path d="m188.980469 315.519531-3.851563-2.21875v4.441407zm0 0"/><path d="m300.570312 251.09375-3.847656-2.222656v4.445312zm0 0"/><path d="m308.265625 246.648438-3.847656-2.21875v4.441406zm0 0"/><path d="m308.265625 113.351562-3.847656-2.222656v4.441406zm0 0"/><path d="m192.828125 42.257812-3.847656-2.222656v4.445313zm0 0"/><path d="m188.980469 40.035156-3.851563-2.222656v4.445312zm0 0"/><path d="m177.433594 37.8125-3.847656-2.21875v4.441406zm0 0"/><path d="m65.84375 102.242188-3.851562-2.222657v4.445313zm0 0"/><path d="m61.992188 104.464844-3.847657-2.222656v4.441406zm0 0"/><path d="m58.144531 115.570312-3.847656-2.21875v4.441407zm0 0"/><path d="m58.144531 120.015625-3.847656-2.222656v4.445312zm0 0"/><path d="m58.144531 244.429688-3.847656-2.222657v4.441407zm0 0"/><path d="m61.992188 255.535156-3.847657-2.21875v4.441406zm0 0"/><path d="m65.84375 257.757812-3.851562-2.222656v4.445313zm0 0"/><path d="m169.738281 317.742188-3.847656-2.222657v4.445313zm0 0"/><path d="m177.433594 322.1875-3.847656-2.222656v4.441406zm0 0"/><path d="m192.828125 317.742188-3.847656-2.222657v4.445313zm0 0"/><path d="m196.675781 315.519531-3.847656-2.21875v4.441407zm0 0"/><path d="m292.875 259.980469-3.847656-2.222657v4.445313zm0 0"/><path d="m300.570312 255.535156-3.847656-2.21875v4.441406zm0 0"/><path d="m312.117188 253.316406-3.851563-2.222656v4.441406zm0 0"/><path d="m312.117188 244.429688-3.851563-2.222657v4.441407zm0 0"/><path d="m312.117188 239.984375-3.851563-2.222656v4.445312zm0 0"/><path d="m312.117188 120.015625-3.851563-2.222656v4.445312zm0 0"/><path d="m312.117188 115.570312-3.851563-2.21875v4.441407zm0 0"/><path d="m312.117188 111.128906-3.851563-2.222656v4.445312zm0 0"/><path d="m308.265625 104.464844-3.847656-2.222656v4.441406zm0 0"/><path d="m304.417969 102.242188-3.847657-2.222657v4.445313zm0 0"/><path d="m196.675781 40.035156-3.847656-2.222656v4.445312zm0 0"/><path d="m192.828125 37.8125-3.847656-2.21875v4.441406zm0 0"/><path d="m185.128906 33.371094-3.847656-2.222656v4.445312zm0 0"/><path d="m181.28125 31.148438-3.847656-2.222657v4.445313zm0 0"/><path d="m169.738281 37.8125-3.847656-2.21875v4.441406zm0 0"/><path d="m65.84375 97.796875-3.851562-2.21875v4.441406zm0 0"/><path d="m58.144531 102.242188-3.847656-2.222657v4.445313zm0 0"/><path d="m54.296875 108.90625-3.847656-2.222656v4.445312zm0 0"/><path d="m54.296875 113.351562-3.847656-2.222656v4.441406zm0 0"/><path d="m54.296875 122.238281-3.847656-2.222656v4.441406zm0 0"/><path d="m54.296875 237.761719-3.847656-2.21875v4.441406zm0 0"/><path d="m54.296875 251.09375-3.847656-2.222656v4.445312zm0 0"/><path d="m54.296875 255.535156-3.847656-2.21875v4.441406zm0 0"/><path d="m58.144531 257.757812-3.847656-2.222656v4.445313zm0 0"/><path d="m65.84375 262.203125-3.851562-2.222656v4.441406zm0 0"/><path d="m169.738281 322.1875-3.847656-2.222656v4.441406zm0 0"/><path d="m177.433594 326.628906-3.847656-2.222656v4.445312zm0 0"/><path d="m181.28125 328.851562-3.847656-2.222656v4.445313zm0 0"/><path d="m185.128906 326.628906-3.847656-2.222656v4.445312zm0 0"/><path d="m188.980469 324.40625-3.851563-2.21875v4.441406zm0 0"/><path d="m192.828125 322.1875-3.847656-2.222656v4.441406zm0 0"/><path d="m304.417969 257.757812-3.847657-2.222656v4.445313zm0 0"/><path d="m308.265625 255.535156-3.847656-2.21875v4.441406zm0 0"/><path d="m315.964844 255.535156-3.847656-2.21875v4.441406zm0 0"/><path d="m315.964844 251.09375-3.847656-2.222656v4.445312zm0 0"/><path d="m315.964844 246.648438-3.847656-2.21875v4.441406zm0 0"/><path d="m315.964844 113.351562-3.847656-2.222656v4.441406zm0 0"/><path d="m315.964844 108.90625-3.847656-2.222656v4.445312zm0 0"/><path d="m315.964844 104.464844-3.847656-2.222656v4.441406zm0 0"/><path d="m312.117188 102.242188-3.851563-2.222657v4.445313zm0 0"/><path d="m300.570312 95.578125-3.847656-2.222656v4.441406zm0 0"/><path d="m192.828125 33.371094-3.847656-2.222656v4.445312zm0 0"/><path d="m188.980469 31.148438-3.851563-2.222657v4.445313zm0 0"/><path d="m169.738281 33.371094-3.847656-2.222656v4.445312zm0 0"/><path d="m58.144531 262.203125-3.847656-2.222656v4.441406zm0 0"/><path d="m181.28125 333.292969-3.847656-2.21875v4.441406zm0 0"/><path d="m188.980469 328.851562-3.851563-2.222656v4.445313zm0 0"/><path d="m192.828125 326.628906-3.847656-2.222656v4.445312zm0 0"/><path d="m196.675781 324.40625-3.847656-2.21875v4.441406zm0 0"/><path d="m300.570312 264.421875-3.847656-2.21875v4.441406zm0 0"/><path d="m304.417969 262.203125-3.847657-2.222656v4.441406zm0 0"/><path d="m312.117188 257.757812-3.851563-2.222656v4.445313zm0 0"/><path d="m319.8125 253.316406-3.847656-2.222656v4.441406zm0 0"/><path d="m319.8125 244.429688-3.847656-2.222657v4.441407zm0 0"/><path d="m319.8125 111.128906-3.847656-2.222656v4.445312zm0 0"/><path d="m319.8125 102.242188-3.847656-2.222657v4.445313zm0 0"/><path d="m312.117188 97.796875-3.851563-2.21875v4.441406zm0 0"/><path d="m196.675781 31.148438-3.847656-2.222657v4.445313zm0 0"/><path d="m188.980469 26.707031-3.851563-2.222656v4.441406zm0 0"/><path d="m177.433594 24.484375-3.847656-2.222656v4.445312zm0 0"/><path d="m54.296875 95.578125-3.847656-2.222656v4.441406zm0 0"/><path d="m46.601562 104.464844-3.847656-2.222656v4.441406zm0 0"/><path d="m46.601562 108.90625-3.847656-2.222656v4.445312zm0 0"/><path d="m46.601562 117.792969-3.847656-2.222657v4.445313zm0 0"/><path d="m46.601562 246.648438-3.847656-2.21875v4.441406zm0 0"/><path d="m46.601562 251.09375-3.847656-2.222656v4.445312zm0 0"/><path d="m46.601562 259.980469-3.847656-2.222657v4.445313zm0 0"/><path d="m54.296875 264.421875-3.847656-2.21875v4.441406zm0 0"/><path d="m169.738281 331.074219-3.847656-2.222657v4.441407zm0 0"/><path d="m177.433594 335.515625-3.847656-2.222656v4.445312zm0 0"/><path d="m188.980469 333.292969-3.851563-2.21875v4.441406zm0 0"/><path d="m312.117188 262.203125-3.851563-2.222656v4.441406zm0 0"/></g></svg>