<svg height="360pt" viewBox="0 0 360 360" width="360pt" xmlns="http://www.w3.org/2000/svg"><path d="m0 0h360v360h-360z" fill="#fff"/><g fill="#800080"><path d="m173.308594 180 10.035156-5.792969v11.585938zm0 0"/><path d="m183.34375 185.792969 10.039062-5.792969v11.589844zm0 0"/><path d="m183.34375 174.207031 10.039062-5.796875v11.589844zm0 0"/><path d="m163.273438 185.792969 10.035156-5.792969v11.589844zm0 0"/><path d="m173.308594 191.589844 10.035156-5.796875v11.589843zm0 0"/><path d="m193.382812 191.589844 10.035157-5.796875v11.589843zm0 0"/><path d="m173.308594 156.824219 10.035156-5.796875v11.589844zm0 0"/><path d="m173.308594 203.175781 10.035156-5.792969v11.589844zm0 0"/><path d="m183.34375 197.382812 10.039062-5.792968v11.585937zm0 0"/><path d="m203.417969 197.382812 10.035156-5.792968v11.585937zm0 0"/><path d="m203.417969 185.792969 10.035156-5.792969v11.589844zm0 0"/><path d="m203.417969 174.207031 10.035156-5.796875v11.589844zm0 0"/><path d="m193.382812 156.824219 10.035157-5.796875v11.589844zm0 0"/><path d="m153.238281 203.175781 10.035157-5.792969v11.589844zm0 0"/><path d="m173.308594 214.765625 10.035156-5.792969v11.585938zm0 0"/><path d="m183.34375 208.972656 10.039062-5.796875v11.589844zm0 0"/><path d="m193.382812 203.175781 10.035157-5.792969v11.589844zm0 0"/><path d="m213.453125 203.175781 10.035156-5.792969v11.589844zm0 0"/><path d="m213.453125 191.589844 10.035156-5.796875v11.589843zm0 0"/><path d="m213.453125 156.824219 10.035156-5.796875v11.589844zm0 0"/><path d="m193.382812 145.234375 10.035157-5.792969v11.585938zm0 0"/><path d="m183.34375 139.441406 10.039062-5.796875v11.589844zm0 0"/><path d="m133.164062 168.410156 10.039063-5.792968v11.589843zm0 0"/><path d="m133.164062 180 10.039063-5.792969v11.585938zm0 0"/><path d="m173.308594 226.355469 10.035156-5.796875v11.589844zm0 0"/><path d="m183.34375 220.558594 10.039062-5.792969v11.589844zm0 0"/><path d="m193.382812 214.765625 10.035157-5.792969v11.585938zm0 0"/><path d="m223.488281 185.792969 10.035157-5.792969v11.589844zm0 0"/><path d="m223.488281 174.207031 10.035157-5.796875v11.589844zm0 0"/><path d="m223.488281 162.617188 10.035157-5.792969v11.585937zm0 0"/><path d="m223.488281 151.027344 10.035157-5.792969v11.589844zm0 0"/><path d="m203.417969 139.441406 10.035156-5.796875v11.589844zm0 0"/><path d="m193.382812 133.644531 10.035157-5.792969v11.589844zm0 0"/><path d="m183.34375 127.851562 10.039062-5.792968v11.585937zm0 0"/><path d="m173.308594 122.058594 10.035156-5.796875v11.589843zm0 0"/><path d="m143.203125 220.558594 10.035156-5.792969v11.589844zm0 0"/><path d="m163.273438 232.148438 10.035156-5.792969v11.585937zm0 0"/><path d="m173.308594 237.941406 10.035156-5.792968v11.589843zm0 0"/><path d="m203.417969 220.558594 10.035156-5.792969v11.589844zm0 0"/><path d="m233.523438 214.765625 10.039062-5.792969v11.585938zm0 0"/><path d="m233.523438 180 10.039062-5.792969v11.585938zm0 0"/><path d="m233.523438 168.410156 10.039062-5.792968v11.589843zm0 0"/><path d="m233.523438 156.824219 10.039062-5.796875v11.589844zm0 0"/><path d="m233.523438 145.234375 10.039062-5.792969v11.585938zm0 0"/><path d="m223.488281 139.441406 10.035157-5.796875v11.589844zm0 0"/><path d="m213.453125 133.644531 10.035156-5.792969v11.589844zm0 0"/><path d="m193.382812 122.058594 10.035157-5.796875v11.589843zm0 0"/><path d="m183.34375 116.261719 10.039062-5.792969v11.589844zm0 0"/><path d="m123.128906 139.441406 10.035156-5.796875v11.589844zm0 0"/><path d="m133.164062 226.355469 10.039063-5.796875v11.589844zm0 0"/><path d="m223.488281 220.558594 10.035157-5.792969v11.589844zm0 0"/><path d="m243.5625 185.792969 10.035156-5.792969v11.589844zm0 0"/><path d="m243.5625 174.207031 10.035156-5.796875v11.589844zm0 0"/><path d="m243.5625 151.027344 10.035156-5.792969v11.589844zm0 0"/><path d="m243.5625 139.441406 10.035156-5.796875v11.589844zm0 0"/><path d="m233.523438 133.644531 10.039062-5.792969v11.589844zm0 0"/><path d="m223.488281 127.851562 10.035157-5.792968v11.585937zm0 0"/><path d="m143.203125 116.261719 10.035156-5.792969v11.589844zm0 0"/><path d="m113.09375 133.644531 10.035156-5.792969v11.589844zm0 0"/><path d="m153.238281 249.53125 10.035157-5.792969v11.585938zm0 0"/><path d="m163.273438 255.324219 10.035156-5.792969v11.589844zm0 0"/><path d="m173.308594 261.121094 10.035156-5.796875v11.589843zm0 0"/><path d="m233.523438 226.355469 10.039062-5.796875v11.589844zm0 0"/><path d="m253.597656 191.589844 10.035156-5.796875v11.589843zm0 0"/><path d="m253.597656 168.410156 10.035156-5.792968v11.589843zm0 0"/><path d="m253.597656 156.824219 10.035156-5.796875v11.589844zm0 0"/><path d="m243.5625 127.851562 10.035156-5.792968v11.585937zm0 0"/><path d="m233.523438 122.058594 10.039062-5.796875v11.589843zm0 0"/><path d="m223.488281 116.261719 10.035157-5.792969v11.589844zm0 0"/><path d="m203.417969 104.675781 10.035156-5.796875v11.589844zm0 0"/><path d="m113.09375 122.058594 10.035156-5.796875v11.589843zm0 0"/><path d="m263.632812 185.792969 10.035157-5.792969v11.589844zm0 0"/><path d="m273.667969 168.410156 10.039062-5.792968v11.589843zm0 0"/><path d="m203.417969 185.792969-10.035157-5.792969v11.589844zm0 0"/><path d="m183.34375 197.382812-10.035156-5.792968v11.585937zm0 0"/><path d="m193.382812 191.589844-10.039062-5.796875v11.589843zm0 0"/><path d="m213.453125 191.589844-10.035156-5.796875v11.589843zm0 0"/><path d="m193.382812 156.824219-10.039062-5.796875v11.589844zm0 0"/><path d="m193.382812 203.175781-10.039062-5.792969v11.589844zm0 0"/><path d="m203.417969 197.382812-10.035157-5.792968v11.585937zm0 0"/><path d="m223.488281 197.382812-10.035156-5.792968v11.585937zm0 0"/><path d="m223.488281 174.207031-10.035156-5.796875v11.589844zm0 0"/><path d="m213.453125 156.824219-10.035156-5.796875v11.589844zm0 0"/><path d="m203.417969 151.027344-10.035157-5.792969v11.589844zm0 0"/><path d="m153.238281 180-10.035156-5.792969v11.585938zm0 0"/><path d="m183.34375 220.558594-10.035156-5.792969v11.589844zm0 0"/><path d="m193.382812 214.765625-10.039062-5.792969v11.585938zm0 0"/><path d="m203.417969 208.972656-10.035157-5.796875v11.589844zm0 0"/><path d="m233.523438 180-10.035157-5.792969v11.585938zm0 0"/><path d="m233.523438 156.824219-10.035157-5.796875v11.589844zm0 0"/><path d="m203.417969 139.441406-10.035157-5.796875v11.589844zm0 0"/><path d="m193.382812 133.644531-10.039062-5.792969v11.589844zm0 0"/><path d="m143.203125 185.792969-10.039063-5.792969v11.589844zm0 0"/><path d="m183.34375 232.148438-10.035156-5.792969v11.585937zm0 0"/><path d="m193.382812 226.355469-10.039062-5.796875v11.589844zm0 0"/><path d="m213.453125 214.765625-10.035156-5.792969v11.585938zm0 0"/><path d="m243.5625 174.207031-10.039062-5.796875v11.589844zm0 0"/><path d="m243.5625 162.617188-10.039062-5.792969v11.585937zm0 0"/><path d="m243.5625 151.027344-10.039062-5.792969v11.589844zm0 0"/><path d="m233.523438 145.234375-10.035157-5.792969v11.585938zm0 0"/><path d="m223.488281 139.441406-10.035156-5.796875v11.589844zm0 0"/><path d="m203.417969 127.851562-10.035157-5.792968v11.585937zm0 0"/><path d="m193.382812 122.058594-10.039062-5.796875v11.589843zm0 0"/><path d="m183.34375 116.261719-10.035156-5.792969v11.589844zm0 0"/><path d="m153.238281 226.355469-10.035156-5.796875v11.589844zm0 0"/><path d="m213.453125 226.355469-10.035156-5.796875v11.589844zm0 0"/><path d="m223.488281 220.558594-10.035156-5.792969v11.589844zm0 0"/><path d="m253.597656 214.765625-10.035156-5.792969v11.585938zm0 0"/><path d="m253.597656 191.589844-10.035156-5.796875v11.589843zm0 0"/><path d="m253.597656 180-10.035156-5.792969v11.585938zm0 0"/><path d="m253.597656 168.410156-10.035156-5.792968v11.589843zm0 0"/><path d="m253.597656 156.824219-10.035156-5.796875v11.589844zm0 0"/><path d="m233.523438 133.644531-10.035157-5.792969v11.589844zm0 0"/><path d="m163.273438 116.261719-10.035157-5.792969v11.589844zm0 0"/><path d="m153.238281 122.058594-10.035156-5.796875v11.589843zm0 0"/><path d="m133.164062 133.644531-10.035156-5.792969v11.589844zm0 0"/><path d="m183.34375 255.324219-10.035156-5.792969v11.589844zm0 0"/><path d="m243.5625 220.558594-10.039062-5.792969v11.589844zm0 0"/><path d="m263.632812 185.792969-10.035156-5.792969v11.589844zm0 0"/><path d="m263.632812 174.207031-10.035156-5.796875v11.589844zm0 0"/><path d="m263.632812 162.617188-10.035156-5.792969v11.585937zm0 0"/><path d="m263.632812 151.027344-10.035156-5.792969v11.589844zm0 0"/><path d="m243.5625 127.851562-10.039062-5.792968v11.585937zm0 0"/><path d="m233.523438 122.058594-10.035157-5.796875v11.589843zm0 0"/><path d="m143.203125 116.261719-10.039063-5.792969v11.589844zm0 0"/><path d="m133.164062 122.058594-10.035156-5.796875v11.589843zm0 0"/><path d="m173.308594 261.121094-10.035156-5.796875v11.589843zm0 0"/><path d="m183.34375 266.914062-10.035156-5.792968v11.585937zm0 0"/><path d="m193.382812 261.121094-10.039062-5.796875v11.589843zm0 0"/><path d="m223.488281 243.738281-10.035156-5.796875v11.589844zm0 0"/><path d="m253.597656 226.355469-10.035156-5.796875v11.589844zm0 0"/><path d="m273.667969 180-10.035157-5.792969v11.585938zm0 0"/><path d="m263.632812 127.851562-10.035156-5.792968v11.585937zm0 0"/><path d="m243.5625 116.261719-10.039062-5.792969v11.589844zm0 0"/><path d="m233.523438 110.46875-10.035157-5.792969v11.585938zm0 0"/><path d="m293.742188 168.410156-10.035157-5.792968v11.589843zm0 0"/></g></svg>