<svg height="360pt" viewBox="0 0 360 360" width="360pt" xmlns="http://www.w3.org/2000/svg"><path d="m0 0h360v360h-360z" fill="#800080"/><g fill="#fff"><path d="m176.703125 180 4.945313-2.855469v5.710938zm0 0"/><path d="m181.648438 182.855469 4.945312-2.855469v5.710938zm0 0"/><path d="m181.648438 177.144531 4.945312-2.855469v5.710938zm0 0"/><path d="m176.703125 174.289062 4.945313-2.855468v5.710937zm0 0"/><path d="m171.753906 182.855469 4.949219-2.855469v5.710938zm0 0"/><path d="m176.703125 185.710938 4.945313-2.855469v5.710937zm0 0"/><path d="m186.59375 185.710938 4.949219-2.855469v5.710937zm0 0"/><path d="m186.59375 180 4.949219-2.855469v5.710938zm0 0"/><path d="m181.648438 171.433594 4.945312-2.855469v5.710937zm0 0"/><path d="m176.703125 168.578125 4.945313-2.859375v5.714844zm0 0"/><path d="m171.753906 171.433594 4.949219-2.855469v5.710937zm0 0"/><path d="m166.808594 174.289062 4.945312-2.855468v5.710937zm0 0"/><path d="m166.808594 180 4.945312-2.855469v5.710938zm0 0"/><path d="m171.753906 188.566406 4.949219-2.855468v5.710937zm0 0"/><path d="m176.703125 191.421875 4.945313-2.855469v5.714844zm0 0"/><path d="m181.648438 188.566406 4.945312-2.855468v5.710937zm0 0"/><path d="m191.542969 188.566406 4.945312-2.855468v5.710937zm0 0"/><path d="m186.59375 168.578125 4.949219-2.859375v5.714844zm0 0"/><path d="m181.648438 165.71875 4.945312-2.855469v5.714844zm0 0"/><path d="m176.703125 162.863281 4.945313-2.855469v5.710938zm0 0"/><path d="m171.753906 165.71875 4.949219-2.855469v5.714844zm0 0"/><path d="m166.808594 168.578125 4.945312-2.859375v5.714844zm0 0"/><path d="m161.863281 171.433594 4.945313-2.855469v5.710937zm0 0"/><path d="m161.863281 177.144531 4.945313-2.855469v5.710938zm0 0"/><path d="m171.753906 194.28125 4.949219-2.859375v5.714844zm0 0"/><path d="m176.703125 197.136719 4.945313-2.855469v5.710938zm0 0"/><path d="m181.648438 194.28125 4.945312-2.859375v5.714844zm0 0"/><path d="m196.488281 191.421875 4.945313-2.855469v5.714844zm0 0"/><path d="m196.488281 180 4.945313-2.855469v5.710938zm0 0"/><path d="m196.488281 174.289062 4.945313-2.855468v5.710937zm0 0"/><path d="m196.488281 168.578125 4.945313-2.859375v5.714844zm0 0"/><path d="m191.542969 165.71875 4.945312-2.855469v5.714844zm0 0"/><path d="m186.59375 162.863281 4.949219-2.855469v5.710938zm0 0"/><path d="m181.648438 160.007812 4.945312-2.855468v5.710937zm0 0"/><path d="m171.753906 160.007812 4.949219-2.855468v5.710937zm0 0"/><path d="m166.808594 162.863281 4.945312-2.855469v5.710938zm0 0"/><path d="m161.863281 194.28125 4.945313-2.859375v5.714844zm0 0"/><path d="m166.808594 197.136719 4.945312-2.855469v5.710938zm0 0"/><path d="m171.753906 199.992188 4.949219-2.855469v5.710937zm0 0"/><path d="m176.703125 202.847656 4.945313-2.855468v5.710937zm0 0"/><path d="m181.648438 199.992188 4.945312-2.855469v5.710937zm0 0"/><path d="m201.433594 188.566406 4.949218-2.855468v5.710937zm0 0"/><path d="m201.433594 182.855469 4.949218-2.855469v5.710938zm0 0"/><path d="m201.433594 177.144531 4.949218-2.855469v5.710938zm0 0"/><path d="m201.433594 171.433594 4.949218-2.855469v5.710937zm0 0"/><path d="m196.488281 162.863281 4.945313-2.855469v5.710938zm0 0"/><path d="m191.542969 160.007812 4.945312-2.855468v5.710937zm0 0"/><path d="m186.59375 157.152344 4.949219-2.855469v5.710937zm0 0"/><path d="m181.648438 154.296875 4.945312-2.855469v5.710938zm0 0"/><path d="m176.703125 151.441406 4.945313-2.855468v5.710937zm0 0"/><path d="m166.808594 157.152344 4.945312-2.855469v5.710937zm0 0"/><path d="m161.863281 160.007812 4.945313-2.855468v5.710937zm0 0"/><path d="m151.96875 165.71875 4.945312-2.855469v5.714844zm0 0"/><path d="m151.96875 171.433594 4.945312-2.855469v5.710937zm0 0"/><path d="m151.96875 182.855469 4.945312-2.855469v5.710938zm0 0"/><path d="m151.96875 188.566406 4.945312-2.855468v5.710937zm0 0"/><path d="m156.914062 197.136719 4.949219-2.855469v5.710938zm0 0"/><path d="m166.808594 202.847656 4.945312-2.855468v5.710937zm0 0"/><path d="m171.753906 205.703125 4.949219-2.855469v5.710938zm0 0"/><path d="m181.648438 205.703125 4.945312-2.855469v5.710938zm0 0"/><path d="m206.382812 197.136719 4.945313-2.855469v5.710938zm0 0"/><path d="m206.382812 174.289062 4.945313-2.855468v5.710937zm0 0"/><path d="m206.382812 168.578125 4.945313-2.859375v5.714844zm0 0"/><path d="m206.382812 162.863281 4.945313-2.855469v5.710938zm0 0"/><path d="m201.433594 160.007812 4.949218-2.855468v5.710937zm0 0"/><path d="m181.648438 148.585938 4.945312-2.855469v5.710937zm0 0"/><path d="m176.703125 145.730469 4.945313-2.855469v5.710938zm0 0"/><path d="m171.753906 148.585938 4.949219-2.855469v5.710937zm0 0"/><path d="m166.808594 151.441406 4.945312-2.855468v5.710937zm0 0"/><path d="m161.863281 154.296875 4.945313-2.855469v5.710938zm0 0"/><path d="m156.914062 157.152344 4.949219-2.855469v5.710937zm0 0"/><path d="m151.96875 160.007812 4.945312-2.855468v5.710937zm0 0"/><path d="m147.023438 185.710938 4.945312-2.855469v5.710937zm0 0"/><path d="m151.96875 199.992188 4.945312-2.855469v5.710937zm0 0"/><path d="m156.914062 202.847656 4.949219-2.855468v5.710937zm0 0"/><path d="m161.863281 205.703125 4.945313-2.855469v5.710938zm0 0"/><path d="m166.808594 208.558594 4.945312-2.855469v5.710937zm0 0"/><path d="m171.753906 211.414062 4.949219-2.855468v5.710937zm0 0"/><path d="m181.648438 211.414062 4.945312-2.855468v5.710937zm0 0"/><path d="m201.433594 199.992188 4.949218-2.855469v5.710937zm0 0"/><path d="m211.328125 199.992188 4.945313-2.855469v5.710937zm0 0"/><path d="m211.328125 194.28125 4.945313-2.859375v5.714844zm0 0"/><path d="m211.328125 171.433594 4.945313-2.855469v5.710937zm0 0"/><path d="m211.328125 165.71875 4.945313-2.855469v5.714844zm0 0"/><path d="m211.328125 160.007812 4.945313-2.855468v5.710937zm0 0"/><path d="m206.382812 157.152344 4.945313-2.855469v5.710937zm0 0"/><path d="m201.433594 154.296875 4.949218-2.855469v5.710938zm0 0"/><path d="m196.488281 151.441406 4.945313-2.855468v5.710937zm0 0"/><path d="m191.542969 148.585938 4.945312-2.855469v5.710937zm0 0"/><path d="m186.59375 145.730469 4.949219-2.855469v5.710938zm0 0"/><path d="m176.703125 140.015625 4.945313-2.855469v5.714844zm0 0"/><path d="m171.753906 142.875 4.949219-2.859375v5.714844zm0 0"/><path d="m161.863281 148.585938 4.945313-2.855469v5.710937zm0 0"/><path d="m156.914062 151.441406 4.949219-2.855468v5.710937zm0 0"/><path d="m151.96875 154.296875 4.945312-2.855469v5.710938zm0 0"/><path d="m147.023438 157.152344 4.945312-2.855469v5.710937zm0 0"/><path d="m142.078125 160.007812 4.945313-2.855468v5.710937zm0 0"/><path d="m142.078125 165.71875 4.945313-2.855469v5.714844zm0 0"/><path d="m142.078125 171.433594 4.945313-2.855469v5.710937zm0 0"/><path d="m142.078125 177.144531 4.945313-2.855469v5.710938zm0 0"/><path d="m142.078125 182.855469 4.945313-2.855469v5.710938zm0 0"/><path d="m142.078125 188.566406 4.945313-2.855468v5.710937zm0 0"/><path d="m147.023438 202.847656 4.945312-2.855468v5.710937zm0 0"/><path d="m156.914062 208.558594 4.949219-2.855469v5.710937zm0 0"/><path d="m161.863281 211.414062 4.945313-2.855468v5.710937zm0 0"/><path d="m171.753906 217.125 4.949219-2.855469v5.714844zm0 0"/><path d="m181.648438 217.125 4.945312-2.855469v5.714844zm0 0"/><path d="m201.433594 205.703125 4.949218-2.855469v5.710938zm0 0"/><path d="m206.382812 202.847656 4.945313-2.855468v5.710937zm0 0"/><path d="m216.273438 197.136719 4.949218-2.855469v5.710938zm0 0"/><path d="m216.273438 191.421875 4.949218-2.855469v5.714844zm0 0"/><path d="m216.273438 174.289062 4.949218-2.855468v5.710937zm0 0"/><path d="m216.273438 168.578125 4.949218-2.859375v5.714844zm0 0"/><path d="m216.273438 162.863281 4.949218-2.855469v5.710938zm0 0"/><path d="m216.273438 157.152344 4.949218-2.855469v5.710937zm0 0"/><path d="m211.328125 154.296875 4.945313-2.855469v5.710938zm0 0"/><path d="m206.382812 151.441406 4.945313-2.855468v5.710937zm0 0"/><path d="m191.542969 142.875 4.945312-2.859375v5.714844zm0 0"/><path d="m186.59375 140.015625 4.949219-2.855469v5.714844zm0 0"/><path d="m181.648438 137.160156 4.945312-2.855468v5.710937zm0 0"/><path d="m171.753906 137.160156 4.949219-2.855468v5.710937zm0 0"/><path d="m166.808594 140.015625 4.945312-2.855469v5.714844zm0 0"/><path d="m161.863281 142.875 4.945313-2.859375v5.714844zm0 0"/><path d="m156.914062 145.730469 4.949219-2.855469v5.710938zm0 0"/><path d="m151.96875 148.585938 4.945312-2.855469v5.710937zm0 0"/><path d="m142.078125 154.296875 4.945313-2.855469v5.710938zm0 0"/><path d="m137.128906 157.152344 4.949219-2.855469v5.710937zm0 0"/><path d="m137.128906 168.578125 4.949219-2.859375v5.714844zm0 0"/><path d="m137.128906 174.289062 4.949219-2.855468v5.710937zm0 0"/><path d="m137.128906 180 4.949219-2.855469v5.710938zm0 0"/><path d="m137.128906 185.710938 4.949219-2.855469v5.710937zm0 0"/><path d="m137.128906 197.136719 4.949219-2.855469v5.710938zm0 0"/><path d="m137.128906 202.847656 4.949219-2.855468v5.710937zm0 0"/><path d="m142.078125 205.703125 4.945313-2.855469v5.710938zm0 0"/><path d="m147.023438 208.558594 4.945312-2.855469v5.710937zm0 0"/><path d="m161.863281 217.125 4.945313-2.855469v5.714844zm0 0"/><path d="m171.753906 222.839844 4.949219-2.855469v5.710937zm0 0"/><path d="m191.542969 217.125 4.945312-2.855469v5.714844zm0 0"/><path d="m196.488281 214.269531 4.945313-2.855469v5.710938zm0 0"/><path d="m201.433594 211.414062 4.949218-2.855468v5.710937zm0 0"/><path d="m206.382812 208.558594 4.945313-2.855469v5.710937zm0 0"/><path d="m211.328125 205.703125 4.945313-2.855469v5.710938zm0 0"/><path d="m221.222656 205.703125 4.945313-2.855469v5.710938zm0 0"/><path d="m221.222656 199.992188 4.945313-2.855469v5.710937zm0 0"/><path d="m221.222656 177.144531 4.945313-2.855469v5.710938zm0 0"/><path d="m221.222656 171.433594 4.945313-2.855469v5.710937zm0 0"/><path d="m221.222656 165.71875 4.945313-2.855469v5.714844zm0 0"/><path d="m221.222656 160.007812 4.945313-2.855468v5.710937zm0 0"/><path d="m221.222656 154.296875 4.945313-2.855469v5.710938zm0 0"/><path d="m216.273438 151.441406 4.949218-2.855468v5.710937zm0 0"/><path d="m211.328125 148.585938 4.945313-2.855469v5.710937zm0 0"/><path d="m206.382812 145.730469 4.945313-2.855469v5.710938zm0 0"/><path d="m201.433594 142.875 4.949218-2.859375v5.714844zm0 0"/><path d="m196.488281 140.015625 4.945313-2.855469v5.714844zm0 0"/><path d="m171.753906 131.449219 4.949219-2.855469v5.710938zm0 0"/><path d="m161.863281 137.160156 4.945313-2.855468v5.710937zm0 0"/><path d="m156.914062 140.015625 4.949219-2.855469v5.714844zm0 0"/><path d="m151.96875 142.875 4.945312-2.859375v5.714844zm0 0"/><path d="m142.078125 148.585938 4.945313-2.855469v5.710937zm0 0"/><path d="m137.128906 151.441406 4.949219-2.855468v5.710937zm0 0"/><path d="m132.183594 154.296875 4.945312-2.855469v5.710938zm0 0"/><path d="m132.183594 165.71875 4.945312-2.855469v5.714844zm0 0"/><path d="m132.183594 171.433594 4.945312-2.855469v5.710937zm0 0"/><path d="m132.183594 177.144531 4.945312-2.855469v5.710938zm0 0"/><path d="m132.183594 182.855469 4.945312-2.855469v5.710938zm0 0"/><path d="m132.183594 188.566406 4.945312-2.855468v5.710937zm0 0"/><path d="m137.128906 208.558594 4.949219-2.855469v5.710937zm0 0"/><path d="m142.078125 211.414062 4.945313-2.855468v5.710937zm0 0"/><path d="m147.023438 214.269531 4.945312-2.855469v5.710938zm0 0"/><path d="m151.96875 217.125 4.945312-2.855469v5.714844zm0 0"/><path d="m156.914062 219.984375 4.949219-2.859375v5.714844zm0 0"/><path d="m161.863281 222.839844 4.945313-2.855469v5.710937zm0 0"/><path d="m166.808594 225.695312 4.945312-2.855468v5.710937zm0 0"/><path d="m171.753906 228.550781 4.949219-2.855469v5.710938zm0 0"/><path d="m181.648438 228.550781 4.945312-2.855469v5.710938zm0 0"/><path d="m191.542969 222.839844 4.945312-2.855469v5.710937zm0 0"/><path d="m196.488281 219.984375 4.945313-2.859375v5.714844zm0 0"/><path d="m201.433594 217.125 4.949218-2.855469v5.714844zm0 0"/><path d="m206.382812 214.269531 4.945313-2.855469v5.710938zm0 0"/><path d="m226.167969 208.558594 4.945312-2.855469v5.710937zm0 0"/><path d="m226.167969 202.847656 4.945312-2.855468v5.710937zm0 0"/><path d="m226.167969 197.136719 4.945312-2.855469v5.710938zm0 0"/><path d="m226.167969 191.421875 4.945312-2.855469v5.714844zm0 0"/><path d="m226.167969 185.710938 4.945312-2.855469v5.710937zm0 0"/><path d="m226.167969 180 4.945312-2.855469v5.710938zm0 0"/><path d="m226.167969 174.289062 4.945312-2.855468v5.710937zm0 0"/><path d="m226.167969 168.578125 4.945312-2.859375v5.714844zm0 0"/><path d="m226.167969 162.863281 4.945312-2.855469v5.710938zm0 0"/><path d="m221.222656 148.585938 4.945313-2.855469v5.710937zm0 0"/><path d="m216.273438 145.730469 4.949218-2.855469v5.710938zm0 0"/><path d="m206.382812 140.015625 4.945313-2.855469v5.714844zm0 0"/><path d="m196.488281 134.304688 4.945313-2.855469v5.710937zm0 0"/><path d="m176.703125 122.882812 4.945313-2.855468v5.710937zm0 0"/><path d="m156.914062 134.304688 4.949219-2.855469v5.710937zm0 0"/><path d="m147.023438 140.015625 4.945312-2.855469v5.714844zm0 0"/><path d="m142.078125 142.875 4.945313-2.859375v5.714844zm0 0"/><path d="m137.128906 145.730469 4.949219-2.855469v5.710938zm0 0"/><path d="m127.238281 157.152344 4.945313-2.855469v5.710937zm0 0"/><path d="m127.238281 168.578125 4.945313-2.859375v5.714844zm0 0"/><path d="m127.238281 174.289062 4.945313-2.855468v5.710937zm0 0"/><path d="m127.238281 185.710938 4.945313-2.855469v5.710937zm0 0"/><path d="m127.238281 202.847656 4.945313-2.855468v5.710937zm0 0"/><path d="m127.238281 208.558594 4.945313-2.855469v5.710937zm0 0"/><path d="m137.128906 214.269531 4.949219-2.855469v5.710938zm0 0"/><path d="m142.078125 217.125 4.945313-2.855469v5.714844zm0 0"/><path d="m147.023438 219.984375 4.945312-2.859375v5.714844zm0 0"/><path d="m151.96875 222.839844 4.945312-2.855469v5.710937zm0 0"/><path d="m156.914062 225.695312 4.949219-2.855468v5.710937zm0 0"/><path d="m176.703125 237.117188 4.945313-2.855469v5.710937zm0 0"/><path d="m186.59375 231.40625 4.949219-2.855469v5.710938zm0 0"/><path d="m191.542969 228.550781 4.945312-2.855469v5.710938zm0 0"/><path d="m206.382812 219.984375 4.945313-2.859375v5.714844zm0 0"/><path d="m211.328125 217.125 4.945313-2.855469v5.714844zm0 0"/><path d="m221.222656 211.414062 4.945313-2.855468v5.710937zm0 0"/><path d="m231.113281 205.703125 4.949219-2.855469v5.710938zm0 0"/><path d="m231.113281 199.992188 4.949219-2.855469v5.710937zm0 0"/><path d="m231.113281 194.28125 4.949219-2.859375v5.714844zm0 0"/><path d="m231.113281 188.566406 4.949219-2.855468v5.710937zm0 0"/><path d="m231.113281 182.855469 4.949219-2.855469v5.710938zm0 0"/><path d="m231.113281 177.144531 4.949219-2.855469v5.710938zm0 0"/><path d="m231.113281 171.433594 4.949219-2.855469v5.710937zm0 0"/><path d="m231.113281 165.71875 4.949219-2.855469v5.714844zm0 0"/><path d="m231.113281 160.007812 4.949219-2.855468v5.710937zm0 0"/><path d="m226.167969 145.730469 4.945312-2.855469v5.710938zm0 0"/><path d="m221.222656 142.875 4.945313-2.859375v5.714844zm0 0"/><path d="m216.273438 140.015625 4.949218-2.855469v5.714844zm0 0"/><path d="m211.328125 137.160156 4.945313-2.855468v5.710937zm0 0"/><path d="m206.382812 134.304688 4.945313-2.855469v5.710937zm0 0"/><path d="m201.433594 131.449219 4.949218-2.855469v5.710938zm0 0"/><path d="m191.542969 125.738281 4.945312-2.855469v5.710938zm0 0"/><path d="m186.59375 122.882812 4.949219-2.855468v5.710937zm0 0"/><path d="m176.703125 117.171875 4.945313-2.859375v5.714844zm0 0"/><path d="m166.808594 122.882812 4.945312-2.855468v5.710937zm0 0"/><path d="m161.863281 125.738281 4.945313-2.855469v5.710938zm0 0"/><path d="m151.96875 131.449219 4.945312-2.855469v5.710938zm0 0"/><path d="m137.128906 140.015625 4.949219-2.855469v5.714844zm0 0"/><path d="m132.183594 142.875 4.945312-2.859375v5.714844zm0 0"/><path d="m122.289062 160.007812 4.949219-2.855468v5.710937zm0 0"/><path d="m122.289062 165.71875 4.949219-2.855469v5.714844zm0 0"/><path d="m122.289062 171.433594 4.949219-2.855469v5.710937zm0 0"/><path d="m122.289062 188.566406 4.949219-2.855468v5.710937zm0 0"/><path d="m122.289062 194.28125 4.949219-2.859375v5.714844zm0 0"/><path d="m122.289062 199.992188 4.949219-2.855469v5.710937zm0 0"/><path d="m122.289062 211.414062 4.949219-2.855468v5.710937zm0 0"/><path d="m127.238281 214.269531 4.945313-2.855469v5.710938zm0 0"/><path d="m132.183594 217.125 4.945312-2.855469v5.714844zm0 0"/><path d="m142.078125 222.839844 4.945313-2.855469v5.710937zm0 0"/><path d="m147.023438 225.695312 4.945312-2.855468v5.710937zm0 0"/><path d="m156.914062 231.40625 4.949219-2.855469v5.710938zm0 0"/><path d="m161.863281 234.261719 4.945313-2.855469v5.710938zm0 0"/><path d="m176.703125 242.828125 4.945313-2.855469v5.714844zm0 0"/><path d="m181.648438 239.972656 4.945312-2.855468v5.710937zm0 0"/><path d="m196.488281 231.40625 4.945313-2.855469v5.710938zm0 0"/><path d="m201.433594 228.550781 4.949218-2.855469v5.710938zm0 0"/><path d="m206.382812 225.695312 4.945313-2.855468v5.710937zm0 0"/><path d="m211.328125 222.839844 4.945313-2.855469v5.710937zm0 0"/><path d="m216.273438 219.984375 4.949218-2.859375v5.714844zm0 0"/><path d="m226.167969 214.269531 4.945312-2.855469v5.710938zm0 0"/><path d="m236.0625 214.269531 4.945312-2.855469v5.710938zm0 0"/><path d="m236.0625 208.558594 4.945312-2.855469v5.710937zm0 0"/><path d="m236.0625 197.136719 4.945312-2.855469v5.710938zm0 0"/><path d="m236.0625 185.710938 4.945312-2.855469v5.710937zm0 0"/><path d="m236.0625 180 4.945312-2.855469v5.710938zm0 0"/><path d="m236.0625 174.289062 4.945312-2.855468v5.710937zm0 0"/><path d="m236.0625 162.863281 4.945312-2.855469v5.710938zm0 0"/><path d="m236.0625 157.152344 4.945312-2.855469v5.710937zm0 0"/><path d="m236.0625 145.730469 4.945312-2.855469v5.710938zm0 0"/><path d="m231.113281 142.875 4.949219-2.859375v5.714844zm0 0"/><path d="m226.167969 140.015625 4.945312-2.855469v5.714844zm0 0"/><path d="m216.273438 134.304688 4.949218-2.855469v5.710937zm0 0"/><path d="m211.328125 131.449219 4.945313-2.855469v5.710938zm0 0"/><path d="m206.382812 128.59375 4.945313-2.855469v5.710938zm0 0"/><path d="m201.433594 125.738281 4.949218-2.855469v5.710938zm0 0"/><path d="m196.488281 122.882812 4.945313-2.855468v5.710937zm0 0"/><path d="m191.542969 120.027344 4.945312-2.855469v5.710937zm0 0"/><path d="m186.59375 117.171875 4.949219-2.859375v5.714844zm0 0"/><path d="m181.648438 114.3125 4.945312-2.855469v5.714844zm0 0"/><path d="m166.808594 117.171875 4.945312-2.859375v5.714844zm0 0"/><path d="m156.914062 122.882812 4.949219-2.855468v5.710937zm0 0"/><path d="m151.96875 125.738281 4.945312-2.855469v5.710938zm0 0"/><path d="m142.078125 131.449219 4.945313-2.855469v5.710938zm0 0"/><path d="m137.128906 134.304688 4.949219-2.855469v5.710937zm0 0"/><path d="m127.238281 140.015625 4.945313-2.855469v5.714844zm0 0"/><path d="m122.289062 142.875 4.949219-2.859375v5.714844zm0 0"/><path d="m117.34375 145.730469 4.945312-2.855469v5.710938zm0 0"/><path d="m117.34375 162.863281 4.945312-2.855469v5.710938zm0 0"/><path d="m117.34375 168.578125 4.945312-2.859375v5.714844zm0 0"/><path d="m117.34375 180 4.945312-2.855469v5.710938zm0 0"/><path d="m117.34375 185.710938 4.945312-2.855469v5.710937zm0 0"/><path d="m117.34375 202.847656 4.945312-2.855468v5.710937zm0 0"/><path d="m122.289062 217.125 4.949219-2.855469v5.714844zm0 0"/><path d="m132.183594 222.839844 4.945312-2.855469v5.710937zm0 0"/><path d="m147.023438 231.40625 4.945312-2.855469v5.710938zm0 0"/><path d="m151.96875 234.261719 4.945312-2.855469v5.710938zm0 0"/><path d="m156.914062 237.117188 4.949219-2.855469v5.710937zm0 0"/><path d="m161.863281 239.972656 4.945313-2.855468v5.710937zm0 0"/><path d="m166.808594 242.828125 4.945312-2.855469v5.714844zm0 0"/><path d="m171.753906 245.6875 4.949219-2.859375v5.714844zm0 0"/><path d="m181.648438 245.6875 4.945312-2.859375v5.714844zm0 0"/><path d="m186.59375 242.828125 4.949219-2.855469v5.714844zm0 0"/><path d="m191.542969 239.972656 4.945312-2.855468v5.710937zm0 0"/><path d="m196.488281 237.117188 4.945313-2.855469v5.710937zm0 0"/><path d="m201.433594 234.261719 4.949218-2.855469v5.710938zm0 0"/><path d="m206.382812 231.40625 4.945313-2.855469v5.710938zm0 0"/><path d="m211.328125 228.550781 4.945313-2.855469v5.710938zm0 0"/><path d="m216.273438 225.695312 4.949218-2.855468v5.710937zm0 0"/><path d="m221.222656 222.839844 4.945313-2.855469v5.710937zm0 0"/><path d="m226.167969 219.984375 4.945312-2.859375v5.714844zm0 0"/><path d="m231.113281 217.125 4.949219-2.855469v5.714844zm0 0"/><path d="m241.007812 217.125 4.945313-2.855469v5.714844zm0 0"/><path d="m241.007812 211.414062 4.945313-2.855468v5.710937zm0 0"/><path d="m241.007812 205.703125 4.945313-2.855469v5.710938zm0 0"/><path d="m241.007812 199.992188 4.945313-2.855469v5.710937zm0 0"/><path d="m241.007812 182.855469 4.945313-2.855469v5.710938zm0 0"/><path d="m241.007812 165.71875 4.945313-2.855469v5.714844zm0 0"/><path d="m241.007812 148.585938 4.945313-2.855469v5.710937zm0 0"/><path d="m226.167969 134.304688 4.945312-2.855469v5.710937zm0 0"/><path d="m221.222656 131.449219 4.945313-2.855469v5.710938zm0 0"/><path d="m216.273438 128.59375 4.949218-2.855469v5.710938zm0 0"/><path d="m211.328125 125.738281 4.945313-2.855469v5.710938zm0 0"/><path d="m201.433594 120.027344 4.949218-2.855469v5.710937zm0 0"/><path d="m186.59375 111.457031 4.949219-2.855469v5.710938zm0 0"/><path d="m181.648438 108.601562 4.945312-2.855468v5.710937zm0 0"/><path d="m166.808594 111.457031 4.945312-2.855469v5.710938zm0 0"/><path d="m161.863281 114.3125 4.945313-2.855469v5.714844zm0 0"/><path d="m156.914062 117.171875 4.949219-2.859375v5.714844zm0 0"/><path d="m147.023438 122.882812 4.945312-2.855468v5.710937zm0 0"/><path d="m142.078125 125.738281 4.945313-2.855469v5.710938zm0 0"/><path d="m127.238281 134.304688 4.945313-2.855469v5.710937zm0 0"/><path d="m122.289062 137.160156 4.949219-2.855468v5.710937zm0 0"/><path d="m117.34375 140.015625 4.945312-2.855469v5.714844zm0 0"/><path d="m112.398438 142.875 4.945312-2.859375v5.714844zm0 0"/><path d="m112.398438 148.585938 4.945312-2.855469v5.710937zm0 0"/><path d="m112.398438 154.296875 4.945312-2.855469v5.710938zm0 0"/><path d="m112.398438 160.007812 4.945312-2.855468v5.710937zm0 0"/><path d="m112.398438 165.71875 4.945312-2.855469v5.714844zm0 0"/><path d="m112.398438 171.433594 4.945312-2.855469v5.710937zm0 0"/><path d="m112.398438 199.992188 4.945312-2.855469v5.710937zm0 0"/><path d="m166.808594 248.542969 4.945312-2.855469v5.710938zm0 0"/><path d="m171.753906 251.398438 4.949219-2.855469v5.710937zm0 0"/><path d="m181.648438 251.398438 4.945312-2.855469v5.710937zm0 0"/><path d="m186.59375 248.542969 4.949219-2.855469v5.710938zm0 0"/><path d="m191.542969 245.6875 4.945312-2.859375v5.714844zm0 0"/><path d="m196.488281 242.828125 4.945313-2.855469v5.714844zm0 0"/><path d="m201.433594 239.972656 4.949218-2.855468v5.710937zm0 0"/><path d="m206.382812 237.117188 4.945313-2.855469v5.710937zm0 0"/><path d="m211.328125 234.261719 4.945313-2.855469v5.710938zm0 0"/><path d="m226.167969 225.695312 4.945312-2.855468v5.710937zm0 0"/><path d="m236.0625 219.984375 4.945312-2.859375v5.714844zm0 0"/><path d="m245.953125 219.984375 4.949219-2.859375v5.714844zm0 0"/><path d="m245.953125 202.847656 4.949219-2.855468v5.710937zm0 0"/><path d="m245.953125 197.136719 4.949219-2.855469v5.710938zm0 0"/><path d="m245.953125 191.421875 4.949219-2.855469v5.714844zm0 0"/><path d="m245.953125 185.710938 4.949219-2.855469v5.710937zm0 0"/><path d="m245.953125 180 4.949219-2.855469v5.710938zm0 0"/><path d="m245.953125 151.441406 4.949219-2.855468v5.710937zm0 0"/><path d="m245.953125 145.730469 4.949219-2.855469v5.710938zm0 0"/><path d="m236.0625 134.304688 4.945312-2.855469v5.710937zm0 0"/><path d="m226.167969 128.59375 4.945312-2.855469v5.710938zm0 0"/><path d="m221.222656 125.738281 4.945313-2.855469v5.710938zm0 0"/><path d="m211.328125 120.027344 4.945313-2.855469v5.710937zm0 0"/><path d="m201.433594 114.3125 4.949218-2.855469v5.714844zm0 0"/><path d="m196.488281 111.457031 4.945313-2.855469v5.710938zm0 0"/><path d="m191.542969 108.601562 4.945312-2.855468v5.710937zm0 0"/><path d="m186.59375 105.746094 4.949219-2.855469v5.710937zm0 0"/><path d="m181.648438 102.890625 4.945312-2.855469v5.710938zm0 0"/><path d="m176.703125 100.035156 4.945313-2.855468v5.710937zm0 0"/><path d="m171.753906 102.890625 4.949219-2.855469v5.710938zm0 0"/><path d="m166.808594 105.746094 4.945312-2.855469v5.710937zm0 0"/><path d="m161.863281 108.601562 4.945313-2.855468v5.710937zm0 0"/><path d="m156.914062 111.457031 4.949219-2.855469v5.710938zm0 0"/><path d="m142.078125 120.027344 4.945313-2.855469v5.710937zm0 0"/><path d="m122.289062 131.449219 4.949219-2.855469v5.710938zm0 0"/><path d="m117.34375 134.304688 4.945312-2.855469v5.710937zm0 0"/><path d="m107.449219 157.152344 4.949219-2.855469v5.710937zm0 0"/><path d="m107.449219 162.863281 4.949219-2.855469v5.710938zm0 0"/><path d="m107.449219 168.578125 4.949219-2.859375v5.714844zm0 0"/><path d="m156.914062 248.542969 4.949219-2.855469v5.710938zm0 0"/><path d="m166.808594 254.253906 4.945312-2.855468v5.710937zm0 0"/><path d="m171.753906 257.109375 4.949219-2.855469v5.710938zm0 0"/><path d="m176.703125 259.964844 4.945313-2.855469v5.710937zm0 0"/><path d="m181.648438 257.109375 4.945312-2.855469v5.710938zm0 0"/><path d="m186.59375 254.253906 4.949219-2.855468v5.710937zm0 0"/><path d="m191.542969 251.398438 4.945312-2.855469v5.710937zm0 0"/><path d="m196.488281 248.542969 4.945313-2.855469v5.710938zm0 0"/><path d="m201.433594 245.6875 4.949218-2.859375v5.714844zm0 0"/><path d="m206.382812 242.828125 4.945313-2.855469v5.714844zm0 0"/><path d="m211.328125 239.972656 4.945313-2.855468v5.710937zm0 0"/><path d="m216.273438 237.117188 4.949218-2.855469v5.710937zm0 0"/><path d="m226.167969 231.40625 4.945312-2.855469v5.710938zm0 0"/><path d="m231.113281 228.550781 4.949219-2.855469v5.710938zm0 0"/><path d="m236.0625 225.695312 4.945312-2.855468v5.710937zm0 0"/><path d="m241.007812 222.839844 4.945313-2.855469v5.710937zm0 0"/><path d="m250.902344 217.125 4.945312-2.855469v5.714844zm0 0"/><path d="m250.902344 205.703125 4.945312-2.855469v5.710938zm0 0"/><path d="m250.902344 194.28125 4.945312-2.859375v5.714844zm0 0"/><path d="m250.902344 188.566406 4.945312-2.855468v5.710937zm0 0"/><path d="m250.902344 182.855469 4.945312-2.855469v5.710938zm0 0"/><path d="m250.902344 177.144531 4.945312-2.855469v5.710938zm0 0"/><path d="m250.902344 171.433594 4.945312-2.855469v5.710937zm0 0"/><path d="m250.902344 165.71875 4.945312-2.855469v5.714844zm0 0"/><path d="m250.902344 154.296875 4.945312-2.855469v5.710938zm0 0"/><path d="m250.902344 142.875 4.945312-2.859375v5.714844zm0 0"/><path d="m241.007812 131.449219 4.945313-2.855469v5.710938zm0 0"/><path d="m236.0625 128.59375 4.945312-2.855469v5.710938zm0 0"/><path d="m231.113281 125.738281 4.949219-2.855469v5.710938zm0 0"/><path d="m226.167969 122.882812 4.945312-2.855468v5.710937zm0 0"/><path d="m221.222656 120.027344 4.945313-2.855469v5.710937zm0 0"/><path d="m216.273438 117.171875 4.949218-2.859375v5.714844zm0 0"/><path d="m211.328125 114.3125 4.945313-2.855469v5.714844zm0 0"/><path d="m206.382812 111.457031 4.945313-2.855469v5.710938zm0 0"/><path d="m196.488281 105.746094 4.945313-2.855469v5.710937zm0 0"/><path d="m191.542969 102.890625 4.945312-2.855469v5.710938zm0 0"/><path d="m186.59375 100.035156 4.949219-2.855468v5.710937zm0 0"/><path d="m176.703125 94.324219 4.945313-2.855469v5.710938zm0 0"/><path d="m171.753906 97.179688 4.949219-2.855469v5.710937zm0 0"/><path d="m166.808594 100.035156 4.945312-2.855468v5.710937zm0 0"/><path d="m151.96875 108.601562 4.945312-2.855468v5.710937zm0 0"/><path d="m147.023438 111.457031 4.945312-2.855469v5.710938zm0 0"/><path d="m142.078125 114.3125 4.945313-2.855469v5.714844zm0 0"/><path d="m137.128906 117.171875 4.949219-2.859375v5.714844zm0 0"/><path d="m151.96875 251.398438 4.945312-2.855469v5.710937zm0 0"/><path d="m156.914062 254.253906 4.949219-2.855468v5.710937zm0 0"/><path d="m181.648438 262.820312 4.945312-2.855468v5.710937zm0 0"/><path d="m186.59375 259.964844 4.949219-2.855469v5.710937zm0 0"/><path d="m191.542969 257.109375 4.945312-2.855469v5.710938zm0 0"/><path d="m201.433594 251.398438 4.949218-2.855469v5.710937zm0 0"/><path d="m206.382812 248.542969 4.945313-2.855469v5.710938zm0 0"/><path d="m216.273438 242.828125 4.949218-2.855469v5.714844zm0 0"/><path d="m231.113281 234.261719 4.949219-2.855469v5.710938zm0 0"/><path d="m236.0625 231.40625 4.945312-2.855469v5.710938zm0 0"/><path d="m241.007812 228.550781 4.945313-2.855469v5.710938zm0 0"/><path d="m245.953125 225.695312 4.949219-2.855468v5.710937zm0 0"/><path d="m255.847656 225.695312 4.945313-2.855468v5.710937zm0 0"/><path d="m255.847656 214.269531 4.945313-2.855469v5.710938zm0 0"/><path d="m255.847656 197.136719 4.945313-2.855469v5.710938zm0 0"/><path d="m255.847656 191.421875 4.945313-2.855469v5.714844zm0 0"/><path d="m255.847656 185.710938 4.945313-2.855469v5.710937zm0 0"/><path d="m255.847656 180 4.945313-2.855469v5.710938zm0 0"/><path d="m255.847656 168.578125 4.945313-2.859375v5.714844zm0 0"/><path d="m255.847656 157.152344 4.945313-2.855469v5.710937zm0 0"/><path d="m255.847656 151.441406 4.945313-2.855468v5.710937zm0 0"/><path d="m255.847656 145.730469 4.945313-2.855469v5.710938zm0 0"/><path d="m255.847656 140.015625 4.945313-2.855469v5.714844zm0 0"/><path d="m255.847656 134.304688 4.945313-2.855469v5.710937zm0 0"/><path d="m245.953125 128.59375 4.949219-2.855469v5.710938zm0 0"/><path d="m241.007812 125.738281 4.945313-2.855469v5.710938zm0 0"/><path d="m236.0625 122.882812 4.945312-2.855468v5.710937zm0 0"/><path d="m216.273438 111.457031 4.949218-2.855469v5.710938zm0 0"/><path d="m211.328125 108.601562 4.945313-2.855468v5.710937zm0 0"/><path d="m206.382812 105.746094 4.945313-2.855469v5.710937zm0 0"/><path d="m201.433594 102.890625 4.949218-2.855469v5.710938zm0 0"/><path d="m181.648438 91.46875 4.945312-2.859375v5.714844zm0 0"/><path d="m176.703125 88.609375 4.945313-2.855469v5.714844zm0 0"/><path d="m171.753906 91.46875 4.949219-2.859375v5.714844zm0 0"/><path d="m151.96875 102.890625 4.945312-2.855469v5.710938zm0 0"/><path d="m142.078125 108.601562 4.945313-2.855468v5.710937zm0 0"/><path d="m151.96875 257.109375 4.945312-2.855469v5.710938zm0 0"/><path d="m156.914062 259.964844 4.949219-2.855469v5.710937zm0 0"/><path d="m206.382812 254.253906 4.945313-2.855468v5.710937zm0 0"/><path d="m211.328125 251.398438 4.945313-2.855469v5.710937zm0 0"/><path d="m216.273438 248.542969 4.949218-2.855469v5.710938zm0 0"/><path d="m221.222656 245.6875 4.945313-2.859375v5.714844zm0 0"/><path d="m241.007812 234.261719 4.945313-2.855469v5.710938zm0 0"/><path d="m245.953125 231.40625 4.949219-2.855469v5.710938zm0 0"/><path d="m250.902344 228.550781 4.945312-2.855469v5.710938zm0 0"/><path d="m260.792969 228.550781 4.949219-2.855469v5.710938zm0 0"/><path d="m260.792969 222.839844 4.949219-2.855469v5.710937zm0 0"/><path d="m260.792969 217.125 4.949219-2.855469v5.714844zm0 0"/><path d="m260.792969 211.414062 4.949219-2.855468v5.710937zm0 0"/><path d="m260.792969 205.703125 4.949219-2.855469v5.710938zm0 0"/><path d="m260.792969 199.992188 4.949219-2.855469v5.710937zm0 0"/><path d="m260.792969 188.566406 4.949219-2.855468v5.710937zm0 0"/><path d="m260.792969 182.855469 4.949219-2.855469v5.710938zm0 0"/><path d="m260.792969 171.433594 4.949219-2.855469v5.710937zm0 0"/><path d="m260.792969 165.71875 4.949219-2.855469v5.714844zm0 0"/><path d="m260.792969 160.007812 4.949219-2.855468v5.710937zm0 0"/><path d="m260.792969 154.296875 4.949219-2.855469v5.710938zm0 0"/><path d="m260.792969 148.585938 4.949219-2.855469v5.710937zm0 0"/><path d="m260.792969 142.875 4.949219-2.859375v5.714844zm0 0"/><path d="m245.953125 122.882812 4.949219-2.855468v5.710937zm0 0"/><path d="m226.167969 111.457031 4.945312-2.855469v5.710938zm0 0"/><path d="m221.222656 108.601562 4.945313-2.855468v5.710937zm0 0"/><path d="m216.273438 105.746094 4.949218-2.855469v5.710937zm0 0"/><path d="m211.328125 102.890625 4.945313-2.855469v5.710938zm0 0"/><path d="m176.703125 82.898438 4.945313-2.855469v5.710937zm0 0"/><path d="m171.753906 85.753906 4.949219-2.855468v5.710937zm0 0"/><path d="m151.96875 97.179688 4.945312-2.855469v5.710937zm0 0"/><path d="m142.078125 102.890625 4.945313-2.855469v5.710938zm0 0"/><path d="m137.128906 105.746094 4.949219-2.855469v5.710937zm0 0"/><path d="m206.382812 259.964844 4.945313-2.855469v5.710937zm0 0"/><path d="m211.328125 257.109375 4.945313-2.855469v5.710938zm0 0"/><path d="m216.273438 254.253906 4.949218-2.855468v5.710937zm0 0"/><path d="m221.222656 251.398438 4.945313-2.855469v5.710937zm0 0"/><path d="m245.953125 237.117188 4.949219-2.855469v5.710937zm0 0"/><path d="m250.902344 234.261719 4.945312-2.855469v5.710938zm0 0"/><path d="m255.847656 231.40625 4.945313-2.855469v5.710938zm0 0"/><path d="m265.742188 225.695312 4.945312-2.855468v5.710937zm0 0"/><path d="m265.742188 219.984375 4.945312-2.859375v5.714844zm0 0"/><path d="m265.742188 214.269531 4.945312-2.855469v5.710938zm0 0"/><path d="m265.742188 197.136719 4.945312-2.855469v5.710938zm0 0"/><path d="m265.742188 191.421875 4.945312-2.855469v5.714844zm0 0"/><path d="m265.742188 185.710938 4.945312-2.855469v5.710937zm0 0"/><path d="m265.742188 180 4.945312-2.855469v5.710938zm0 0"/><path d="m265.742188 168.578125 4.945312-2.859375v5.714844zm0 0"/><path d="m265.742188 162.863281 4.945312-2.855469v5.710938zm0 0"/><path d="m265.742188 157.152344 4.945312-2.855469v5.710937zm0 0"/><path d="m265.742188 151.441406 4.945312-2.855468v5.710937zm0 0"/><path d="m265.742188 145.730469 4.945312-2.855469v5.710938zm0 0"/><path d="m265.742188 140.015625 4.945312-2.855469v5.714844zm0 0"/><path d="m265.742188 134.304688 4.945312-2.855469v5.710937zm0 0"/><path d="m147.023438 94.324219 4.945312-2.855469v5.710938zm0 0"/><path d="m142.078125 97.179688 4.945313-2.855469v5.710937zm0 0"/><path d="m211.328125 262.820312 4.945313-2.855468v5.710937zm0 0"/><path d="m216.273438 259.964844 4.949218-2.855469v5.710937zm0 0"/><path d="m245.953125 242.828125 4.949219-2.855469v5.714844zm0 0"/><path d="m255.847656 237.117188 4.945313-2.855469v5.710937zm0 0"/><path d="m270.6875 222.839844 4.945312-2.855469v5.710937zm0 0"/><path d="m270.6875 194.28125 4.945312-2.859375v5.714844zm0 0"/><path d="m270.6875 182.855469 4.945312-2.855469v5.710938zm0 0"/><path d="m270.6875 177.144531 4.945312-2.855469v5.710938zm0 0"/><path d="m270.6875 165.71875 4.945312-2.855469v5.714844zm0 0"/><path d="m270.6875 160.007812 4.945312-2.855468v5.710937zm0 0"/><path d="m270.6875 154.296875 4.945312-2.855469v5.710938zm0 0"/><path d="m270.6875 148.585938 4.945312-2.855469v5.710937zm0 0"/><path d="m270.6875 137.160156 4.945312-2.855468v5.710937zm0 0"/><path d="m275.632812 214.269531 4.949219-2.855469v5.710938zm0 0"/><path d="m275.632812 202.847656 4.949219-2.855468v5.710937zm0 0"/><path d="m275.632812 197.136719 4.949219-2.855469v5.710938zm0 0"/><path d="m275.632812 185.710938 4.949219-2.855469v5.710937zm0 0"/><path d="m275.632812 174.289062 4.949219-2.855468v5.710937zm0 0"/><path d="m275.632812 168.578125 4.949219-2.859375v5.714844zm0 0"/><path d="m275.632812 162.863281 4.949219-2.855469v5.710938zm0 0"/><path d="m275.632812 157.152344 4.949219-2.855469v5.710937zm0 0"/><path d="m280.582031 222.839844 4.945313-2.855469v5.710937zm0 0"/><path d="m280.582031 217.125 4.945313-2.855469v5.714844zm0 0"/><path d="m280.582031 199.992188 4.945313-2.855469v5.710937zm0 0"/><path d="m280.582031 194.28125 4.945313-2.859375v5.714844zm0 0"/><path d="m280.582031 165.71875 4.945313-2.855469v5.714844zm0 0"/><path d="m280.582031 160.007812 4.945313-2.855468v5.710937zm0 0"/><path d="m280.582031 154.296875 4.945313-2.855469v5.710938zm0 0"/><path d="m280.582031 148.585938 4.945313-2.855469v5.710937zm0 0"/><path d="m285.527344 202.847656 4.945312-2.855468v5.710937zm0 0"/><path d="m285.527344 197.136719 4.945312-2.855469v5.710938zm0 0"/><path d="m285.527344 191.421875 4.945312-2.855469v5.714844zm0 0"/><path d="m285.527344 185.710938 4.945312-2.855469v5.710937zm0 0"/><path d="m285.527344 180 4.945312-2.855469v5.710938zm0 0"/><path d="m285.527344 174.289062 4.945312-2.855468v5.710937zm0 0"/><path d="m285.527344 168.578125 4.945312-2.859375v5.714844zm0 0"/><path d="m285.527344 162.863281 4.945312-2.855469v5.710938zm0 0"/><path d="m285.527344 157.152344 4.945312-2.855469v5.710937zm0 0"/><path d="m290.472656 199.992188 4.949219-2.855469v5.710937zm0 0"/><path d="m290.472656 165.71875 4.949219-2.855469v5.714844zm0 0"/><path d="m290.472656 160.007812 4.949219-2.855468v5.710937zm0 0"/><path d="m290.472656 154.296875 4.949219-2.855469v5.710938zm0 0"/><path d="m290.472656 148.585938 4.949219-2.855469v5.710937zm0 0"/><path d="m295.421875 191.421875 4.945313-2.855469v5.714844zm0 0"/><path d="m295.421875 180 4.945313-2.855469v5.710938zm0 0"/><path d="m295.421875 162.863281 4.945313-2.855469v5.710938zm0 0"/><path d="m295.421875 157.152344 4.945313-2.855469v5.710937zm0 0"/><path d="m295.421875 145.730469 4.945313-2.855469v5.710938zm0 0"/><path d="m300.367188 194.28125 4.945312-2.859375v5.714844zm0 0"/><path d="m300.367188 188.566406 4.945312-2.855468v5.710937zm0 0"/><path d="m300.367188 182.855469 4.945312-2.855469v5.710938zm0 0"/><path d="m300.367188 165.71875 4.945312-2.855469v5.714844zm0 0"/><path d="m300.367188 148.585938 4.945312-2.855469v5.710937zm0 0"/><path d="m305.3125 168.578125 4.949219-2.859375v5.714844zm0 0"/><path d="m305.3125 162.863281 4.949219-2.855469v5.710938zm0 0"/><path d="m305.3125 157.152344 4.949219-2.855469v5.710937zm0 0"/><path d="m305.3125 151.441406 4.949219-2.855468v5.710937zm0 0"/><path d="m310.261719 165.71875 4.945312-2.855469v5.714844zm0 0"/><path d="m310.261719 154.296875 4.945312-2.855469v5.710938zm0 0"/><path d="m186.59375 180-4.945312-2.855469v5.710938zm0 0"/><path d="m181.648438 177.144531-4.945313-2.855469v5.710938zm0 0"/><path d="m181.648438 182.855469-4.945313-2.855469v5.710938zm0 0"/><path d="m191.542969 182.855469-4.949219-2.855469v5.710938zm0 0"/><path d="m186.59375 174.289062-4.945312-2.855468v5.710937zm0 0"/><path d="m181.648438 171.433594-4.945313-2.855469v5.710937zm0 0"/><path d="m176.703125 185.710938-4.949219-2.855469v5.710937zm0 0"/><path d="m196.488281 180-4.945312-2.855469v5.710938zm0 0"/><path d="m186.59375 168.578125-4.945312-2.859375v5.714844zm0 0"/><path d="m181.648438 165.71875-4.945313-2.855469v5.714844zm0 0"/><path d="m171.753906 177.144531-4.945312-2.855469v5.710938zm0 0"/><path d="m171.753906 182.855469-4.945312-2.855469v5.710938zm0 0"/><path d="m176.703125 191.421875-4.949219-2.855469v5.714844zm0 0"/><path d="m181.648438 194.28125-4.945313-2.859375v5.714844zm0 0"/><path d="m186.59375 191.421875-4.945312-2.855469v5.714844zm0 0"/><path d="m191.542969 188.566406-4.949219-2.855468v5.710937zm0 0"/><path d="m201.433594 188.566406-4.945313-2.855468v5.710937zm0 0"/><path d="m201.433594 177.144531-4.945313-2.855469v5.710938zm0 0"/><path d="m201.433594 171.433594-4.945313-2.855469v5.710937zm0 0"/><path d="m196.488281 168.578125-4.945312-2.859375v5.714844zm0 0"/><path d="m191.542969 165.71875-4.949219-2.855469v5.714844zm0 0"/><path d="m176.703125 162.863281-4.949219-2.855469v5.710938zm0 0"/><path d="m171.753906 165.71875-4.945312-2.855469v5.714844zm0 0"/><path d="m166.808594 168.578125-4.945313-2.859375v5.714844zm0 0"/><path d="m166.808594 174.289062-4.945313-2.855468v5.710937zm0 0"/><path d="m171.753906 194.28125-4.945312-2.859375v5.714844zm0 0"/><path d="m176.703125 197.136719-4.949219-2.855469v5.710938zm0 0"/><path d="m181.648438 199.992188-4.945313-2.855469v5.710937zm0 0"/><path d="m186.59375 197.136719-4.945312-2.855469v5.710938zm0 0"/><path d="m196.488281 191.421875-4.945312-2.855469v5.714844zm0 0"/><path d="m206.382812 191.421875-4.949218-2.855469v5.714844zm0 0"/><path d="m206.382812 185.710938-4.949218-2.855469v5.710937zm0 0"/><path d="m206.382812 180-4.949218-2.855469v5.710938zm0 0"/><path d="m206.382812 174.289062-4.949218-2.855468v5.710937zm0 0"/><path d="m196.488281 162.863281-4.945312-2.855469v5.710938zm0 0"/><path d="m191.542969 160.007812-4.949219-2.855468v5.710937zm0 0"/><path d="m186.59375 157.152344-4.945312-2.855469v5.710937zm0 0"/><path d="m181.648438 154.296875-4.945313-2.855469v5.710938zm0 0"/><path d="m176.703125 157.152344-4.949219-2.855469v5.710937zm0 0"/><path d="m171.753906 160.007812-4.945312-2.855468v5.710937zm0 0"/><path d="m166.808594 162.863281-4.945313-2.855469v5.710938zm0 0"/><path d="m161.863281 165.71875-4.949219-2.855469v5.714844zm0 0"/><path d="m161.863281 177.144531-4.949219-2.855469v5.710938zm0 0"/><path d="m161.863281 182.855469-4.949219-2.855469v5.710938zm0 0"/><path d="m171.753906 199.992188-4.945312-2.855469v5.710937zm0 0"/><path d="m176.703125 202.847656-4.949219-2.855468v5.710937zm0 0"/><path d="m181.648438 205.703125-4.945313-2.855469v5.710938zm0 0"/><path d="m186.59375 202.847656-4.945312-2.855468v5.710937zm0 0"/><path d="m196.488281 197.136719-4.945312-2.855469v5.710938zm0 0"/><path d="m211.328125 188.566406-4.945313-2.855468v5.710937zm0 0"/><path d="m211.328125 182.855469-4.945313-2.855469v5.710938zm0 0"/><path d="m211.328125 177.144531-4.945313-2.855469v5.710938zm0 0"/><path d="m211.328125 171.433594-4.945313-2.855469v5.710937zm0 0"/><path d="m206.382812 162.863281-4.949218-2.855469v5.710938zm0 0"/><path d="m201.433594 160.007812-4.945313-2.855468v5.710937zm0 0"/><path d="m186.59375 151.441406-4.945312-2.855468v5.710937zm0 0"/><path d="m176.703125 151.441406-4.949219-2.855468v5.710937zm0 0"/><path d="m171.753906 154.296875-4.945312-2.855469v5.710938zm0 0"/><path d="m156.914062 162.863281-4.945312-2.855469v5.710938zm0 0"/><path d="m156.914062 168.578125-4.945312-2.859375v5.714844zm0 0"/><path d="m156.914062 185.710938-4.945312-2.855469v5.710937zm0 0"/><path d="m156.914062 191.421875-4.945312-2.855469v5.714844zm0 0"/><path d="m161.863281 199.992188-4.949219-2.855469v5.710937zm0 0"/><path d="m166.808594 202.847656-4.945313-2.855468v5.710937zm0 0"/><path d="m171.753906 205.703125-4.945312-2.855469v5.710938zm0 0"/><path d="m176.703125 208.558594-4.949219-2.855469v5.710937zm0 0"/><path d="m181.648438 211.414062-4.945313-2.855468v5.710937zm0 0"/><path d="m186.59375 208.558594-4.945312-2.855469v5.710937zm0 0"/><path d="m216.273438 197.136719-4.945313-2.855469v5.710938zm0 0"/><path d="m216.273438 174.289062-4.945313-2.855468v5.710937zm0 0"/><path d="m216.273438 168.578125-4.945313-2.859375v5.714844zm0 0"/><path d="m211.328125 160.007812-4.945313-2.855468v5.710937zm0 0"/><path d="m191.542969 148.585938-4.949219-2.855469v5.710937zm0 0"/><path d="m186.59375 145.730469-4.945312-2.855469v5.710938zm0 0"/><path d="m181.648438 142.875-4.945313-2.859375v5.714844zm0 0"/><path d="m166.808594 151.441406-4.945313-2.855468v5.710937zm0 0"/><path d="m161.863281 154.296875-4.949219-2.855469v5.710938zm0 0"/><path d="m156.914062 157.152344-4.945312-2.855469v5.710937zm0 0"/><path d="m151.96875 160.007812-4.945312-2.855468v5.710937zm0 0"/><path d="m151.96875 182.855469-4.945312-2.855469v5.710938zm0 0"/><path d="m151.96875 199.992188-4.945312-2.855469v5.710937zm0 0"/><path d="m156.914062 202.847656-4.945312-2.855468v5.710937zm0 0"/><path d="m171.753906 211.414062-4.945312-2.855468v5.710937zm0 0"/><path d="m176.703125 214.269531-4.949219-2.855469v5.710938zm0 0"/><path d="m181.648438 217.125-4.945313-2.855469v5.714844zm0 0"/><path d="m186.59375 214.269531-4.945312-2.855469v5.710938zm0 0"/><path d="m191.542969 211.414062-4.949219-2.855468v5.710937zm0 0"/><path d="m206.382812 202.847656-4.949218-2.855468v5.710937zm0 0"/><path d="m211.328125 199.992188-4.945313-2.855469v5.710937zm0 0"/><path d="m221.222656 194.28125-4.949218-2.859375v5.714844zm0 0"/><path d="m221.222656 177.144531-4.949218-2.855469v5.710938zm0 0"/><path d="m221.222656 171.433594-4.949218-2.855469v5.710937zm0 0"/><path d="m221.222656 165.71875-4.949218-2.855469v5.714844zm0 0"/><path d="m221.222656 160.007812-4.949218-2.855468v5.710937zm0 0"/><path d="m216.273438 157.152344-4.945313-2.855469v5.710937zm0 0"/><path d="m211.328125 154.296875-4.945313-2.855469v5.710938zm0 0"/><path d="m206.382812 151.441406-4.949218-2.855468v5.710937zm0 0"/><path d="m196.488281 145.730469-4.945312-2.855469v5.710938zm0 0"/><path d="m191.542969 142.875-4.949219-2.859375v5.714844zm0 0"/><path d="m176.703125 140.015625-4.949219-2.855469v5.714844zm0 0"/><path d="m171.753906 142.875-4.945312-2.859375v5.714844zm0 0"/><path d="m166.808594 145.730469-4.945313-2.855469v5.710938zm0 0"/><path d="m161.863281 148.585938-4.949219-2.855469v5.710937zm0 0"/><path d="m156.914062 151.441406-4.945312-2.855468v5.710937zm0 0"/><path d="m151.96875 154.296875-4.945312-2.855469v5.710938zm0 0"/><path d="m147.023438 157.152344-4.945313-2.855469v5.710937zm0 0"/><path d="m147.023438 162.863281-4.945313-2.855469v5.710938zm0 0"/><path d="m147.023438 168.578125-4.945313-2.859375v5.714844zm0 0"/><path d="m147.023438 180-4.945313-2.855469v5.710938zm0 0"/><path d="m147.023438 185.710938-4.945313-2.855469v5.710937zm0 0"/><path d="m147.023438 197.136719-4.945313-2.855469v5.710938zm0 0"/><path d="m147.023438 202.847656-4.945313-2.855468v5.710937zm0 0"/><path d="m151.96875 205.703125-4.945312-2.855469v5.710938zm0 0"/><path d="m166.808594 214.269531-4.945313-2.855469v5.710938zm0 0"/><path d="m201.433594 211.414062-4.945313-2.855468v5.710937zm0 0"/><path d="m211.328125 205.703125-4.945313-2.855469v5.710938zm0 0"/><path d="m216.273438 202.847656-4.945313-2.855468v5.710937zm0 0"/><path d="m226.167969 197.136719-4.945313-2.855469v5.710938zm0 0"/><path d="m226.167969 180-4.945313-2.855469v5.710938zm0 0"/><path d="m226.167969 174.289062-4.945313-2.855468v5.710937zm0 0"/><path d="m226.167969 168.578125-4.945313-2.859375v5.714844zm0 0"/><path d="m226.167969 162.863281-4.945313-2.855469v5.710938zm0 0"/><path d="m226.167969 157.152344-4.945313-2.855469v5.710937zm0 0"/><path d="m216.273438 151.441406-4.945313-2.855468v5.710937zm0 0"/><path d="m166.808594 140.015625-4.945313-2.855469v5.714844zm0 0"/><path d="m161.863281 142.875-4.949219-2.859375v5.714844zm0 0"/><path d="m156.914062 145.730469-4.945312-2.855469v5.710938zm0 0"/><path d="m151.96875 148.585938-4.945312-2.855469v5.710937zm0 0"/><path d="m147.023438 151.441406-4.945313-2.855468v5.710937zm0 0"/><path d="m142.078125 154.296875-4.949219-2.855469v5.710938zm0 0"/><path d="m142.078125 160.007812-4.949219-2.855468v5.710937zm0 0"/><path d="m142.078125 171.433594-4.949219-2.855469v5.710937zm0 0"/><path d="m142.078125 182.855469-4.949219-2.855469v5.710938zm0 0"/><path d="m142.078125 188.566406-4.949219-2.855468v5.710937zm0 0"/><path d="m142.078125 194.28125-4.949219-2.859375v5.714844zm0 0"/><path d="m142.078125 199.992188-4.949219-2.855469v5.710937zm0 0"/><path d="m142.078125 205.703125-4.949219-2.855469v5.710938zm0 0"/><path d="m147.023438 208.558594-4.945313-2.855469v5.710937zm0 0"/><path d="m151.96875 211.414062-4.945312-2.855468v5.710937zm0 0"/><path d="m156.914062 214.269531-4.945312-2.855469v5.710938zm0 0"/><path d="m161.863281 217.125-4.949219-2.855469v5.714844zm0 0"/><path d="m166.808594 219.984375-4.945313-2.859375v5.714844zm0 0"/><path d="m171.753906 222.839844-4.945312-2.855469v5.710937zm0 0"/><path d="m176.703125 225.695312-4.949219-2.855468v5.710937zm0 0"/><path d="m181.648438 228.550781-4.945313-2.855469v5.710938zm0 0"/><path d="m196.488281 219.984375-4.945312-2.859375v5.714844zm0 0"/><path d="m201.433594 217.125-4.945313-2.855469v5.714844zm0 0"/><path d="m206.382812 214.269531-4.949218-2.855469v5.710938zm0 0"/><path d="m211.328125 211.414062-4.945313-2.855468v5.710937zm0 0"/><path d="m216.273438 208.558594-4.945313-2.855469v5.710937zm0 0"/><path d="m221.222656 205.703125-4.949218-2.855469v5.710938zm0 0"/><path d="m231.113281 205.703125-4.945312-2.855469v5.710938zm0 0"/><path d="m231.113281 199.992188-4.945312-2.855469v5.710937zm0 0"/><path d="m231.113281 194.28125-4.945312-2.859375v5.714844zm0 0"/><path d="m231.113281 182.855469-4.945312-2.855469v5.710938zm0 0"/><path d="m231.113281 177.144531-4.945312-2.855469v5.710938zm0 0"/><path d="m231.113281 171.433594-4.945312-2.855469v5.710937zm0 0"/><path d="m231.113281 165.71875-4.945312-2.855469v5.714844zm0 0"/><path d="m221.222656 148.585938-4.949218-2.855469v5.710937zm0 0"/><path d="m216.273438 145.730469-4.945313-2.855469v5.710938zm0 0"/><path d="m211.328125 142.875-4.945313-2.859375v5.714844zm0 0"/><path d="m201.433594 137.160156-4.945313-2.855468v5.710937zm0 0"/><path d="m196.488281 134.304688-4.945312-2.855469v5.710937zm0 0"/><path d="m181.648438 125.738281-4.945313-2.855469v5.710938zm0 0"/><path d="m161.863281 137.160156-4.949219-2.855468v5.710937zm0 0"/><path d="m156.914062 140.015625-4.945312-2.855469v5.714844zm0 0"/><path d="m151.96875 142.875-4.945312-2.859375v5.714844zm0 0"/><path d="m142.078125 148.585938-4.949219-2.855469v5.710937zm0 0"/><path d="m137.128906 162.863281-4.945312-2.855469v5.710938zm0 0"/><path d="m137.128906 168.578125-4.945312-2.859375v5.714844zm0 0"/><path d="m137.128906 174.289062-4.945312-2.855468v5.710937zm0 0"/><path d="m137.128906 180-4.945312-2.855469v5.710938zm0 0"/><path d="m137.128906 185.710938-4.945312-2.855469v5.710937zm0 0"/><path d="m142.078125 211.414062-4.949219-2.855468v5.710937zm0 0"/><path d="m151.96875 217.125-4.945312-2.855469v5.714844zm0 0"/><path d="m156.914062 219.984375-4.945312-2.859375v5.714844zm0 0"/><path d="m161.863281 222.839844-4.949219-2.855469v5.710937zm0 0"/><path d="m166.808594 225.695312-4.945313-2.855468v5.710937zm0 0"/><path d="m176.703125 231.40625-4.949219-2.855469v5.710938zm0 0"/><path d="m196.488281 225.695312-4.945312-2.855468v5.710937zm0 0"/><path d="m201.433594 222.839844-4.945313-2.855469v5.710937zm0 0"/><path d="m206.382812 219.984375-4.949218-2.859375v5.714844zm0 0"/><path d="m216.273438 214.269531-4.945313-2.855469v5.710938zm0 0"/><path d="m221.222656 211.414062-4.949218-2.855468v5.710937zm0 0"/><path d="m236.0625 208.558594-4.949219-2.855469v5.710937zm0 0"/><path d="m236.0625 202.847656-4.949219-2.855468v5.710937zm0 0"/><path d="m236.0625 197.136719-4.949219-2.855469v5.710938zm0 0"/><path d="m236.0625 191.421875-4.949219-2.855469v5.714844zm0 0"/><path d="m236.0625 180-4.949219-2.855469v5.710938zm0 0"/><path d="m236.0625 168.578125-4.949219-2.859375v5.714844zm0 0"/><path d="m236.0625 162.863281-4.949219-2.855469v5.710938zm0 0"/><path d="m236.0625 157.152344-4.949219-2.855469v5.710937zm0 0"/><path d="m231.113281 148.585938-4.945312-2.855469v5.710937zm0 0"/><path d="m226.167969 145.730469-4.945313-2.855469v5.710938zm0 0"/><path d="m221.222656 142.875-4.949218-2.859375v5.714844zm0 0"/><path d="m216.273438 140.015625-4.945313-2.855469v5.714844zm0 0"/><path d="m211.328125 137.160156-4.945313-2.855468v5.710937zm0 0"/><path d="m206.382812 134.304688-4.949218-2.855469v5.710937zm0 0"/><path d="m196.488281 128.59375-4.945312-2.855469v5.710938zm0 0"/><path d="m186.59375 122.882812-4.945312-2.855468v5.710937zm0 0"/><path d="m181.648438 120.027344-4.945313-2.855469v5.710937zm0 0"/><path d="m171.753906 125.738281-4.945312-2.855469v5.710938zm0 0"/><path d="m166.808594 128.59375-4.945313-2.855469v5.710938zm0 0"/><path d="m151.96875 137.160156-4.945312-2.855468v5.710937zm0 0"/><path d="m147.023438 140.015625-4.945313-2.855469v5.714844zm0 0"/><path d="m142.078125 142.875-4.949219-2.859375v5.714844zm0 0"/><path d="m137.128906 145.730469-4.945312-2.855469v5.710938zm0 0"/><path d="m132.183594 160.007812-4.945313-2.855468v5.710937zm0 0"/><path d="m132.183594 165.71875-4.945313-2.855469v5.714844zm0 0"/><path d="m132.183594 171.433594-4.945313-2.855469v5.710937zm0 0"/><path d="m132.183594 188.566406-4.945313-2.855468v5.710937zm0 0"/><path d="m132.183594 194.28125-4.945313-2.859375v5.714844zm0 0"/><path d="m132.183594 211.414062-4.945313-2.855468v5.710937zm0 0"/><path d="m137.128906 214.269531-4.945312-2.855469v5.710938zm0 0"/><path d="m142.078125 217.125-4.949219-2.855469v5.714844zm0 0"/><path d="m151.96875 222.839844-4.945312-2.855469v5.710937zm0 0"/><path d="m156.914062 225.695312-4.945312-2.855468v5.710937zm0 0"/><path d="m161.863281 228.550781-4.949219-2.855469v5.710938zm0 0"/><path d="m181.648438 239.972656-4.945313-2.855468v5.710937zm0 0"/><path d="m191.542969 234.261719-4.949219-2.855469v5.710938zm0 0"/><path d="m201.433594 228.550781-4.945313-2.855469v5.710938zm0 0"/><path d="m211.328125 222.839844-4.945313-2.855469v5.710937zm0 0"/><path d="m216.273438 219.984375-4.945313-2.859375v5.714844zm0 0"/><path d="m221.222656 217.125-4.949218-2.855469v5.714844zm0 0"/><path d="m231.113281 211.414062-4.945312-2.855468v5.710937zm0 0"/><path d="m241.007812 199.992188-4.945312-2.855469v5.710937zm0 0"/><path d="m241.007812 182.855469-4.945312-2.855469v5.710938zm0 0"/><path d="m241.007812 177.144531-4.945312-2.855469v5.710938zm0 0"/><path d="m241.007812 171.433594-4.945312-2.855469v5.710937zm0 0"/><path d="m241.007812 165.71875-4.945312-2.855469v5.714844zm0 0"/><path d="m241.007812 160.007812-4.945312-2.855468v5.710937zm0 0"/><path d="m241.007812 154.296875-4.945312-2.855469v5.710938zm0 0"/><path d="m236.0625 145.730469-4.949219-2.855469v5.710938zm0 0"/><path d="m231.113281 142.875-4.945312-2.859375v5.714844zm0 0"/><path d="m226.167969 140.015625-4.945313-2.855469v5.714844zm0 0"/><path d="m221.222656 137.160156-4.949218-2.855468v5.710937zm0 0"/><path d="m216.273438 134.304688-4.945313-2.855469v5.710937zm0 0"/><path d="m186.59375 117.171875-4.945312-2.859375v5.714844zm0 0"/><path d="m166.808594 122.882812-4.945313-2.855468v5.710937zm0 0"/><path d="m151.96875 131.449219-4.945312-2.855469v5.710938zm0 0"/><path d="m147.023438 134.304688-4.945313-2.855469v5.710937zm0 0"/><path d="m142.078125 137.160156-4.949219-2.855468v5.710937zm0 0"/><path d="m137.128906 140.015625-4.945312-2.855469v5.714844zm0 0"/><path d="m127.238281 145.730469-4.949219-2.855469v5.710938zm0 0"/><path d="m127.238281 157.152344-4.949219-2.855469v5.710937zm0 0"/><path d="m127.238281 162.863281-4.949219-2.855469v5.710938zm0 0"/><path d="m127.238281 174.289062-4.949219-2.855468v5.710937zm0 0"/><path d="m127.238281 180-4.949219-2.855469v5.710938zm0 0"/><path d="m127.238281 185.710938-4.949219-2.855469v5.710937zm0 0"/><path d="m127.238281 197.136719-4.949219-2.855469v5.710938zm0 0"/><path d="m132.183594 217.125-4.945313-2.855469v5.714844zm0 0"/><path d="m137.128906 219.984375-4.945312-2.859375v5.714844zm0 0"/><path d="m151.96875 228.550781-4.945312-2.855469v5.710938zm0 0"/><path d="m156.914062 231.40625-4.945312-2.855469v5.710938zm0 0"/><path d="m161.863281 234.261719-4.949219-2.855469v5.710938zm0 0"/><path d="m171.753906 239.972656-4.945312-2.855468v5.710937zm0 0"/><path d="m176.703125 242.828125-4.949219-2.855469v5.714844zm0 0"/><path d="m181.648438 245.6875-4.945313-2.859375v5.714844zm0 0"/><path d="m186.59375 242.828125-4.945312-2.855469v5.714844zm0 0"/><path d="m191.542969 239.972656-4.949219-2.855468v5.710937zm0 0"/><path d="m196.488281 237.117188-4.945312-2.855469v5.710937zm0 0"/><path d="m201.433594 234.261719-4.945313-2.855469v5.710938zm0 0"/><path d="m216.273438 225.695312-4.945313-2.855468v5.710937zm0 0"/><path d="m221.222656 222.839844-4.949218-2.855469v5.710937zm0 0"/><path d="m231.113281 217.125-4.945312-2.855469v5.714844zm0 0"/><path d="m236.0625 214.269531-4.949219-2.855469v5.710938zm0 0"/><path d="m245.953125 214.269531-4.945313-2.855469v5.710938zm0 0"/><path d="m245.953125 208.558594-4.945313-2.855469v5.710937zm0 0"/><path d="m245.953125 202.847656-4.945313-2.855468v5.710937zm0 0"/><path d="m245.953125 174.289062-4.945313-2.855468v5.710937zm0 0"/><path d="m245.953125 157.152344-4.945313-2.855469v5.710937zm0 0"/><path d="m236.0625 140.015625-4.949219-2.855469v5.714844zm0 0"/><path d="m231.113281 137.160156-4.945312-2.855468v5.710937zm0 0"/><path d="m226.167969 134.304688-4.945313-2.855469v5.710937zm0 0"/><path d="m221.222656 131.449219-4.949218-2.855469v5.710938zm0 0"/><path d="m216.273438 128.59375-4.945313-2.855469v5.710938zm0 0"/><path d="m191.542969 114.3125-4.949219-2.855469v5.714844zm0 0"/><path d="m176.703125 111.457031-4.949219-2.855469v5.710938zm0 0"/><path d="m171.753906 114.3125-4.945312-2.855469v5.714844zm0 0"/><path d="m156.914062 122.882812-4.945312-2.855468v5.710937zm0 0"/><path d="m151.96875 125.738281-4.945312-2.855469v5.710938zm0 0"/><path d="m147.023438 128.59375-4.945313-2.855469v5.710938zm0 0"/><path d="m142.078125 131.449219-4.949219-2.855469v5.710938zm0 0"/><path d="m132.183594 137.160156-4.945313-2.855468v5.710937zm0 0"/><path d="m127.238281 140.015625-4.949219-2.855469v5.714844zm0 0"/><path d="m122.289062 142.875-4.945312-2.859375v5.714844zm0 0"/><path d="m122.289062 148.585938-4.945312-2.855469v5.710937zm0 0"/><path d="m122.289062 160.007812-4.945312-2.855468v5.710937zm0 0"/><path d="m122.289062 165.71875-4.945312-2.855469v5.714844zm0 0"/><path d="m122.289062 177.144531-4.945312-2.855469v5.710938zm0 0"/><path d="m122.289062 188.566406-4.945312-2.855468v5.710937zm0 0"/><path d="m137.128906 225.695312-4.945312-2.855468v5.710937zm0 0"/><path d="m142.078125 228.550781-4.949219-2.855469v5.710938zm0 0"/><path d="m151.96875 234.261719-4.945312-2.855469v5.710938zm0 0"/><path d="m156.914062 237.117188-4.945312-2.855469v5.710937zm0 0"/><path d="m171.753906 245.6875-4.945312-2.859375v5.714844zm0 0"/><path d="m176.703125 248.542969-4.949219-2.855469v5.710938zm0 0"/><path d="m196.488281 242.828125-4.945312-2.855469v5.714844zm0 0"/><path d="m201.433594 239.972656-4.945313-2.855468v5.710937zm0 0"/><path d="m206.382812 237.117188-4.949218-2.855469v5.710937zm0 0"/><path d="m216.273438 231.40625-4.945313-2.855469v5.710938zm0 0"/><path d="m221.222656 228.550781-4.949218-2.855469v5.710938zm0 0"/><path d="m226.167969 225.695312-4.945313-2.855468v5.710937zm0 0"/><path d="m231.113281 222.839844-4.945312-2.855469v5.710937zm0 0"/><path d="m241.007812 217.125-4.945312-2.855469v5.714844zm0 0"/><path d="m250.902344 217.125-4.949219-2.855469v5.714844zm0 0"/><path d="m250.902344 205.703125-4.949219-2.855469v5.710938zm0 0"/><path d="m250.902344 199.992188-4.949219-2.855469v5.710937zm0 0"/><path d="m250.902344 182.855469-4.949219-2.855469v5.710938zm0 0"/><path d="m250.902344 160.007812-4.949219-2.855468v5.710937zm0 0"/><path d="m250.902344 154.296875-4.949219-2.855469v5.710938zm0 0"/><path d="m250.902344 148.585938-4.949219-2.855469v5.710937zm0 0"/><path d="m250.902344 142.875-4.949219-2.859375v5.714844zm0 0"/><path d="m231.113281 131.449219-4.945312-2.855469v5.710938zm0 0"/><path d="m226.167969 128.59375-4.945313-2.855469v5.710938zm0 0"/><path d="m221.222656 125.738281-4.949218-2.855469v5.710938zm0 0"/><path d="m211.328125 120.027344-4.945313-2.855469v5.710937zm0 0"/><path d="m196.488281 111.457031-4.945312-2.855469v5.710938zm0 0"/><path d="m191.542969 108.601562-4.949219-2.855468v5.710937zm0 0"/><path d="m186.59375 105.746094-4.945312-2.855469v5.710937zm0 0"/><path d="m181.648438 102.890625-4.945313-2.855469v5.710938zm0 0"/><path d="m171.753906 108.601562-4.945312-2.855468v5.710937zm0 0"/><path d="m166.808594 111.457031-4.945313-2.855469v5.710938zm0 0"/><path d="m161.863281 114.3125-4.949219-2.855469v5.714844zm0 0"/><path d="m151.96875 120.027344-4.945312-2.855469v5.710937zm0 0"/><path d="m127.238281 134.304688-4.949219-2.855469v5.710937zm0 0"/><path d="m117.34375 145.730469-4.945312-2.855469v5.710938zm0 0"/><path d="m117.34375 157.152344-4.945312-2.855469v5.710937zm0 0"/><path d="m117.34375 162.863281-4.945312-2.855469v5.710938zm0 0"/><path d="m117.34375 168.578125-4.945312-2.859375v5.714844zm0 0"/><path d="m137.128906 231.40625-4.945312-2.855469v5.710938zm0 0"/><path d="m166.808594 248.542969-4.945313-2.855469v5.710938zm0 0"/><path d="m171.753906 251.398438-4.945312-2.855469v5.710937zm0 0"/><path d="m176.703125 254.253906-4.949219-2.855468v5.710937zm0 0"/><path d="m181.648438 257.109375-4.945313-2.855469v5.710938zm0 0"/><path d="m191.542969 251.398438-4.949219-2.855469v5.710937zm0 0"/><path d="m201.433594 245.6875-4.945313-2.859375v5.714844zm0 0"/><path d="m206.382812 242.828125-4.949218-2.855469v5.714844zm0 0"/><path d="m216.273438 237.117188-4.945313-2.855469v5.710937zm0 0"/><path d="m221.222656 234.261719-4.949218-2.855469v5.710938zm0 0"/><path d="m226.167969 231.40625-4.945313-2.855469v5.710938zm0 0"/><path d="m236.0625 225.695312-4.949219-2.855468v5.710937zm0 0"/><path d="m241.007812 222.839844-4.945312-2.855469v5.710937zm0 0"/><path d="m245.953125 219.984375-4.945313-2.859375v5.714844zm0 0"/><path d="m255.847656 219.984375-4.945312-2.859375v5.714844zm0 0"/><path d="m255.847656 214.269531-4.945312-2.855469v5.710938zm0 0"/><path d="m255.847656 208.558594-4.945312-2.855469v5.710937zm0 0"/><path d="m255.847656 191.421875-4.945312-2.855469v5.714844zm0 0"/><path d="m255.847656 185.710938-4.945312-2.855469v5.710937zm0 0"/><path d="m255.847656 180-4.945312-2.855469v5.710938zm0 0"/><path d="m255.847656 174.289062-4.945312-2.855468v5.710937zm0 0"/><path d="m255.847656 168.578125-4.945312-2.859375v5.714844zm0 0"/><path d="m255.847656 145.730469-4.945312-2.855469v5.710938zm0 0"/><path d="m255.847656 140.015625-4.945312-2.855469v5.714844zm0 0"/><path d="m241.007812 131.449219-4.945312-2.855469v5.710938zm0 0"/><path d="m211.328125 114.3125-4.945313-2.855469v5.714844zm0 0"/><path d="m196.488281 105.746094-4.945312-2.855469v5.710937zm0 0"/><path d="m191.542969 102.890625-4.949219-2.855469v5.710938zm0 0"/><path d="m186.59375 100.035156-4.945312-2.855468v5.710937zm0 0"/><path d="m181.648438 97.179688-4.945313-2.855469v5.710937zm0 0"/><path d="m171.753906 102.890625-4.945312-2.855469v5.710938zm0 0"/><path d="m166.808594 105.746094-4.945313-2.855469v5.710937zm0 0"/><path d="m161.863281 108.601562-4.949219-2.855468v5.710937zm0 0"/><path d="m156.914062 111.457031-4.945312-2.855469v5.710938zm0 0"/><path d="m151.96875 114.3125-4.945312-2.855469v5.714844zm0 0"/><path d="m147.023438 117.171875-4.945313-2.859375v5.714844zm0 0"/><path d="m142.078125 120.027344-4.949219-2.855469v5.710937zm0 0"/><path d="m117.34375 134.304688-4.945312-2.855469v5.710937zm0 0"/><path d="m112.398438 160.007812-4.949219-2.855468v5.710937zm0 0"/><path d="m112.398438 165.71875-4.949219-2.855469v5.714844zm0 0"/><path d="m161.863281 251.398438-4.949219-2.855469v5.710937zm0 0"/><path d="m181.648438 262.820312-4.945313-2.855468v5.710937zm0 0"/><path d="m186.59375 259.964844-4.945312-2.855469v5.710937zm0 0"/><path d="m191.542969 257.109375-4.949219-2.855469v5.710938zm0 0"/><path d="m196.488281 254.253906-4.945312-2.855468v5.710937zm0 0"/><path d="m201.433594 251.398438-4.945313-2.855469v5.710937zm0 0"/><path d="m206.382812 248.542969-4.949218-2.855469v5.710938zm0 0"/><path d="m211.328125 245.6875-4.945313-2.859375v5.714844zm0 0"/><path d="m221.222656 239.972656-4.949218-2.855468v5.710937zm0 0"/><path d="m226.167969 237.117188-4.945313-2.855469v5.710937zm0 0"/><path d="m236.0625 231.40625-4.949219-2.855469v5.710938zm0 0"/><path d="m245.953125 225.695312-4.945313-2.855468v5.710937zm0 0"/><path d="m250.902344 222.839844-4.949219-2.855469v5.710937zm0 0"/><path d="m260.792969 222.839844-4.945313-2.855469v5.710937zm0 0"/><path d="m260.792969 217.125-4.945313-2.855469v5.714844zm0 0"/><path d="m260.792969 211.414062-4.945313-2.855468v5.710937zm0 0"/><path d="m260.792969 205.703125-4.945313-2.855469v5.710938zm0 0"/><path d="m260.792969 194.28125-4.945313-2.859375v5.714844zm0 0"/><path d="m260.792969 188.566406-4.945313-2.855468v5.710937zm0 0"/><path d="m260.792969 182.855469-4.945313-2.855469v5.710938zm0 0"/><path d="m260.792969 177.144531-4.945313-2.855469v5.710938zm0 0"/><path d="m260.792969 171.433594-4.945313-2.855469v5.710937zm0 0"/><path d="m260.792969 154.296875-4.945313-2.855469v5.710938zm0 0"/><path d="m260.792969 148.585938-4.945313-2.855469v5.710937zm0 0"/><path d="m260.792969 142.875-4.945313-2.859375v5.714844zm0 0"/><path d="m260.792969 137.160156-4.945313-2.855468v5.710937zm0 0"/><path d="m245.953125 128.59375-4.945313-2.855469v5.710938zm0 0"/><path d="m241.007812 125.738281-4.945312-2.855469v5.710938zm0 0"/><path d="m216.273438 111.457031-4.945313-2.855469v5.710938zm0 0"/><path d="m201.433594 102.890625-4.945313-2.855469v5.710938zm0 0"/><path d="m191.542969 97.179688-4.949219-2.855469v5.710937zm0 0"/><path d="m186.59375 94.324219-4.945312-2.855469v5.710938zm0 0"/><path d="m181.648438 91.46875-4.945313-2.859375v5.714844zm0 0"/><path d="m156.914062 105.746094-4.945312-2.855469v5.710937zm0 0"/><path d="m151.96875 108.601562-4.945312-2.855468v5.710937zm0 0"/><path d="m142.078125 114.3125-4.949219-2.855469v5.714844zm0 0"/><path d="m156.914062 254.253906-4.945312-2.855468v5.710937zm0 0"/><path d="m161.863281 257.109375-4.949219-2.855469v5.710938zm0 0"/><path d="m166.808594 259.964844-4.945313-2.855469v5.710937zm0 0"/><path d="m186.59375 265.675781-4.945312-2.855469v5.710938zm0 0"/><path d="m191.542969 262.820312-4.949219-2.855468v5.710937zm0 0"/><path d="m201.433594 257.109375-4.945313-2.855469v5.710938zm0 0"/><path d="m206.382812 254.253906-4.949218-2.855468v5.710937zm0 0"/><path d="m216.273438 248.542969-4.945313-2.855469v5.710938zm0 0"/><path d="m221.222656 245.6875-4.949218-2.859375v5.714844zm0 0"/><path d="m241.007812 234.261719-4.945312-2.855469v5.710938zm0 0"/><path d="m245.953125 231.40625-4.945313-2.855469v5.710938zm0 0"/><path d="m265.742188 225.695312-4.949219-2.855468v5.710937zm0 0"/><path d="m265.742188 219.984375-4.949219-2.859375v5.714844zm0 0"/><path d="m265.742188 214.269531-4.949219-2.855469v5.710938zm0 0"/><path d="m265.742188 208.558594-4.949219-2.855469v5.710937zm0 0"/><path d="m265.742188 202.847656-4.949219-2.855468v5.710937zm0 0"/><path d="m265.742188 191.421875-4.949219-2.855469v5.714844zm0 0"/><path d="m265.742188 180-4.949219-2.855469v5.710938zm0 0"/><path d="m265.742188 174.289062-4.949219-2.855468v5.710937zm0 0"/><path d="m265.742188 168.578125-4.949219-2.859375v5.714844zm0 0"/><path d="m265.742188 162.863281-4.949219-2.855469v5.710938zm0 0"/><path d="m265.742188 157.152344-4.949219-2.855469v5.710937zm0 0"/><path d="m265.742188 151.441406-4.949219-2.855468v5.710937zm0 0"/><path d="m265.742188 145.730469-4.949219-2.855469v5.710938zm0 0"/><path d="m265.742188 140.015625-4.949219-2.855469v5.714844zm0 0"/><path d="m245.953125 122.882812-4.945313-2.855468v5.710937zm0 0"/><path d="m241.007812 120.027344-4.945312-2.855469v5.710937zm0 0"/><path d="m226.167969 111.457031-4.945313-2.855469v5.710938zm0 0"/><path d="m221.222656 108.601562-4.949218-2.855468v5.710937zm0 0"/><path d="m216.273438 105.746094-4.945313-2.855469v5.710937zm0 0"/><path d="m196.488281 94.324219-4.945312-2.855469v5.710938zm0 0"/><path d="m186.59375 88.609375-4.945312-2.855469v5.714844zm0 0"/><path d="m181.648438 85.753906-4.945313-2.855468v5.710937zm0 0"/><path d="m176.703125 88.609375-4.949219-2.855469v5.714844zm0 0"/><path d="m161.863281 97.179688-4.949219-2.855469v5.710937zm0 0"/><path d="m156.914062 100.035156-4.945312-2.855468v5.710937zm0 0"/><path d="m147.023438 105.746094-4.945313-2.855469v5.710937zm0 0"/><path d="m142.078125 108.601562-4.949219-2.855468v5.710937zm0 0"/><path d="m156.914062 259.964844-4.945312-2.855469v5.710937zm0 0"/><path d="m161.863281 262.820312-4.949219-2.855468v5.710937zm0 0"/><path d="m211.328125 257.109375-4.945313-2.855469v5.710938zm0 0"/><path d="m216.273438 254.253906-4.945313-2.855468v5.710937zm0 0"/><path d="m221.222656 251.398438-4.949218-2.855469v5.710937zm0 0"/><path d="m226.167969 248.542969-4.945313-2.855469v5.710938zm0 0"/><path d="m236.0625 242.828125-4.949219-2.855469v5.714844zm0 0"/><path d="m241.007812 239.972656-4.945312-2.855468v5.710937zm0 0"/><path d="m245.953125 237.117188-4.945313-2.855469v5.710937zm0 0"/><path d="m250.902344 234.261719-4.949219-2.855469v5.710938zm0 0"/><path d="m255.847656 231.40625-4.945312-2.855469v5.710938zm0 0"/><path d="m260.792969 228.550781-4.945313-2.855469v5.710938zm0 0"/><path d="m270.6875 222.839844-4.945312-2.855469v5.710937zm0 0"/><path d="m270.6875 217.125-4.945312-2.855469v5.714844zm0 0"/><path d="m270.6875 194.28125-4.945312-2.859375v5.714844zm0 0"/><path d="m270.6875 188.566406-4.945312-2.855468v5.710937zm0 0"/><path d="m270.6875 182.855469-4.945312-2.855469v5.710938zm0 0"/><path d="m270.6875 165.71875-4.945312-2.855469v5.714844zm0 0"/><path d="m270.6875 154.296875-4.945312-2.855469v5.710938zm0 0"/><path d="m270.6875 148.585938-4.945312-2.855469v5.710937zm0 0"/><path d="m270.6875 142.875-4.945312-2.859375v5.714844zm0 0"/><path d="m270.6875 137.160156-4.945312-2.855468v5.710937zm0 0"/><path d="m270.6875 131.449219-4.945312-2.855469v5.710938zm0 0"/><path d="m226.167969 105.746094-4.945313-2.855469v5.710937zm0 0"/><path d="m221.222656 102.890625-4.949218-2.855469v5.710938zm0 0"/><path d="m201.433594 91.46875-4.945313-2.859375v5.714844zm0 0"/><path d="m196.488281 88.609375-4.945312-2.855469v5.714844zm0 0"/><path d="m151.96875 97.179688-4.945312-2.855469v5.710937zm0 0"/><path d="m142.078125 102.890625-4.949219-2.855469v5.710938zm0 0"/><path d="m216.273438 259.964844-4.945313-2.855469v5.710937zm0 0"/><path d="m221.222656 257.109375-4.949218-2.855469v5.710938zm0 0"/><path d="m250.902344 239.972656-4.949219-2.855468v5.710937zm0 0"/><path d="m255.847656 237.117188-4.945312-2.855469v5.710937zm0 0"/><path d="m260.792969 234.261719-4.945313-2.855469v5.710938zm0 0"/><path d="m265.742188 231.40625-4.949219-2.855469v5.710938zm0 0"/><path d="m275.632812 225.695312-4.945312-2.855468v5.710937zm0 0"/><path d="m275.632812 219.984375-4.945312-2.859375v5.714844zm0 0"/><path d="m275.632812 214.269531-4.945312-2.855469v5.710938zm0 0"/><path d="m275.632812 197.136719-4.945312-2.855469v5.710938zm0 0"/><path d="m275.632812 180-4.945312-2.855469v5.710938zm0 0"/><path d="m275.632812 174.289062-4.945312-2.855468v5.710937zm0 0"/><path d="m275.632812 168.578125-4.945312-2.859375v5.714844zm0 0"/><path d="m275.632812 162.863281-4.945312-2.855469v5.710938zm0 0"/><path d="m275.632812 157.152344-4.945312-2.855469v5.710937zm0 0"/><path d="m275.632812 145.730469-4.945312-2.855469v5.710938zm0 0"/><path d="m275.632812 140.015625-4.945312-2.855469v5.714844zm0 0"/><path d="m151.96875 91.46875-4.945312-2.859375v5.714844zm0 0"/><path d="m250.902344 245.6875-4.949219-2.859375v5.714844zm0 0"/><path d="m260.792969 239.972656-4.945313-2.855468v5.710937zm0 0"/><path d="m280.582031 217.125-4.949219-2.855469v5.714844zm0 0"/><path d="m280.582031 211.414062-4.949219-2.855468v5.710937zm0 0"/><path d="m280.582031 205.703125-4.949219-2.855469v5.710938zm0 0"/><path d="m280.582031 199.992188-4.949219-2.855469v5.710937zm0 0"/><path d="m280.582031 194.28125-4.949219-2.859375v5.714844zm0 0"/><path d="m280.582031 182.855469-4.949219-2.855469v5.710938zm0 0"/><path d="m280.582031 177.144531-4.949219-2.855469v5.710938zm0 0"/><path d="m280.582031 171.433594-4.949219-2.855469v5.710937zm0 0"/><path d="m280.582031 165.71875-4.949219-2.855469v5.714844zm0 0"/><path d="m280.582031 160.007812-4.949219-2.855468v5.710937zm0 0"/><path d="m280.582031 154.296875-4.949219-2.855469v5.710938zm0 0"/><path d="m280.582031 137.160156-4.949219-2.855468v5.710937zm0 0"/><path d="m285.527344 214.269531-4.945313-2.855469v5.710938zm0 0"/><path d="m285.527344 185.710938-4.945313-2.855469v5.710937zm0 0"/><path d="m285.527344 174.289062-4.945313-2.855468v5.710937zm0 0"/><path d="m285.527344 162.863281-4.945313-2.855469v5.710938zm0 0"/><path d="m285.527344 157.152344-4.945313-2.855469v5.710937zm0 0"/><path d="m285.527344 151.441406-4.945313-2.855468v5.710937zm0 0"/><path d="m290.472656 205.703125-4.945312-2.855469v5.710938zm0 0"/><path d="m290.472656 199.992188-4.945312-2.855469v5.710937zm0 0"/><path d="m290.472656 194.28125-4.945312-2.859375v5.714844zm0 0"/><path d="m290.472656 188.566406-4.945312-2.855468v5.710937zm0 0"/><path d="m290.472656 182.855469-4.945312-2.855469v5.710938zm0 0"/><path d="m290.472656 171.433594-4.945312-2.855469v5.710937zm0 0"/><path d="m290.472656 165.71875-4.945312-2.855469v5.714844zm0 0"/><path d="m290.472656 160.007812-4.945312-2.855468v5.710937zm0 0"/><path d="m290.472656 154.296875-4.945312-2.855469v5.710938zm0 0"/><path d="m290.472656 142.875-4.945312-2.859375v5.714844zm0 0"/><path d="m295.421875 202.847656-4.949219-2.855468v5.710937zm0 0"/><path d="m295.421875 197.136719-4.949219-2.855469v5.710938zm0 0"/><path d="m295.421875 191.421875-4.949219-2.855469v5.714844zm0 0"/><path d="m295.421875 185.710938-4.949219-2.855469v5.710937zm0 0"/><path d="m295.421875 168.578125-4.949219-2.859375v5.714844zm0 0"/><path d="m295.421875 162.863281-4.949219-2.855469v5.710938zm0 0"/><path d="m295.421875 157.152344-4.949219-2.855469v5.710937zm0 0"/><path d="m295.421875 151.441406-4.949219-2.855468v5.710937zm0 0"/><path d="m295.421875 145.730469-4.949219-2.855469v5.710938zm0 0"/><path d="m300.367188 160.007812-4.945313-2.855468v5.710937zm0 0"/><path d="m300.367188 154.296875-4.945313-2.855469v5.710938zm0 0"/><path d="m300.367188 148.585938-4.945313-2.855469v5.710937zm0 0"/><path d="m300.367188 137.160156-4.945313-2.855468v5.710937zm0 0"/><path d="m305.3125 191.421875-4.945312-2.855469v5.714844zm0 0"/><path d="m305.3125 185.710938-4.945312-2.855469v5.710937zm0 0"/><path d="m305.3125 157.152344-4.945312-2.855469v5.710937zm0 0"/><path d="m310.261719 188.566406-4.949219-2.855468v5.710937zm0 0"/><path d="m310.261719 165.71875-4.949219-2.855469v5.714844zm0 0"/><path d="m310.261719 154.296875-4.949219-2.855469v5.710938zm0 0"/><path d="m310.261719 142.875-4.949219-2.859375v5.714844zm0 0"/><path d="m315.207031 162.863281-4.945312-2.855469v5.710938zm0 0"/><path d="m315.207031 157.152344-4.945312-2.855469v5.710937zm0 0"/></g></svg>