<svg height="360pt" viewBox="0 0 360 360" width="360pt" xmlns="http://www.w3.org/2000/svg"><path d="m0 0h360v360h-360z" fill="#800080"/><g fill="#fff"><path d="m182.210938 176.171875 6.625-3.824219v7.652344zm0 0"/><path d="m168.953125 176.171875 6.628906-3.824219v7.652344zm0 0"/><path d="m175.582031 187.652344 6.628907-3.824219v7.652344zm0 0"/><path d="m182.210938 168.519531 6.625-3.824219v7.652344zm0 0"/><path d="m162.324219 172.347656 6.628906-3.828125v7.652344zm0 0"/><path d="m162.324219 180 6.628906-3.828125v7.65625zm0 0"/><path d="m162.324219 187.652344 6.628906-3.824219v7.652344zm0 0"/><path d="m182.210938 191.480469 6.625-3.828125v7.652344zm0 0"/><path d="m195.464844 183.828125 6.628906-3.828125v7.652344zm0 0"/><path d="m188.835938 164.695312 6.628906-3.828124v7.652343zm0 0"/><path d="m182.210938 160.867188 6.625-3.828126v7.65625zm0 0"/><path d="m168.953125 160.867188 6.628906-3.828126v7.65625zm0 0"/><path d="m162.324219 164.695312 6.628906-3.828124v7.652343zm0 0"/><path d="m155.699219 176.171875 6.625-3.824219v7.652344zm0 0"/><path d="m175.582031 202.960938 6.628907-3.828126v7.652344zm0 0"/><path d="m188.835938 195.304688 6.628906-3.824219v7.652343zm0 0"/><path d="m202.09375 195.304688 6.628906-3.824219v7.652343zm0 0"/><path d="m202.09375 187.652344 6.628906-3.824219v7.652344zm0 0"/><path d="m202.09375 180 6.628906-3.828125v7.65625zm0 0"/><path d="m202.09375 172.347656 6.628906-3.828125v7.652344zm0 0"/><path d="m202.09375 164.695312 6.628906-3.828124v7.652343zm0 0"/><path d="m188.835938 157.039062 6.628906-3.824218v7.652344zm0 0"/><path d="m182.210938 153.214844 6.625-3.828125v7.652343zm0 0"/><path d="m149.070312 172.347656 6.628907-3.828125v7.652344zm0 0"/><path d="m149.070312 180 6.628907-3.828125v7.65625zm0 0"/><path d="m149.070312 187.652344 6.628907-3.824219v7.652344zm0 0"/><path d="m155.699219 199.132812 6.625-3.828124v7.65625zm0 0"/><path d="m162.324219 202.960938 6.628906-3.828126v7.652344zm0 0"/><path d="m182.210938 206.785156 6.625-3.824218v7.652343zm0 0"/><path d="m208.722656 176.171875 6.625-3.824219v7.652344zm0 0"/><path d="m149.070312 157.039062 6.628907-3.824218v7.652344zm0 0"/><path d="m142.441406 168.519531 6.628906-3.824219v7.652344zm0 0"/><path d="m142.441406 191.480469 6.628906-3.828125v7.652344zm0 0"/><path d="m149.070312 202.960938 6.628907-3.828126v7.652344zm0 0"/><path d="m155.699219 206.785156 6.625-3.824218v7.652343zm0 0"/><path d="m175.582031 218.265625 6.628907-3.824219v7.652344zm0 0"/><path d="m182.210938 214.441406 6.625-3.828125v7.652344zm0 0"/><path d="m202.09375 202.960938 6.628906-3.828126v7.652344zm0 0"/><path d="m215.347656 164.695312 6.628906-3.828124v7.652343zm0 0"/><path d="m208.722656 153.214844 6.625-3.828125v7.652343zm0 0"/><path d="m202.09375 149.386719 6.628906-3.828125v7.65625zm0 0"/><path d="m195.464844 145.558594 6.628906-3.824219v7.652344zm0 0"/><path d="m175.582031 134.082031 6.628907-3.828125v7.652344zm0 0"/><path d="m135.8125 157.039062 6.628906-3.824218v7.652344zm0 0"/><path d="m135.8125 195.304688 6.628906-3.824219v7.652343zm0 0"/><path d="m135.8125 202.960938 6.628906-3.828126v7.652344zm0 0"/><path d="m142.441406 206.785156 6.628906-3.824218v7.652343zm0 0"/><path d="m149.070312 210.613281 6.628907-3.828125v7.65625zm0 0"/><path d="m182.210938 222.09375 6.625-3.828125v7.652344zm0 0"/><path d="m188.835938 218.265625 6.628906-3.824219v7.652344zm0 0"/><path d="m221.976562 206.785156 6.628907-3.824218v7.652343zm0 0"/><path d="m221.976562 199.132812 6.628907-3.828124v7.65625zm0 0"/><path d="m221.976562 176.171875 6.628907-3.824219v7.652344zm0 0"/><path d="m221.976562 168.519531 6.628907-3.824219v7.652344zm0 0"/><path d="m208.722656 145.558594 6.625-3.824219v7.652344zm0 0"/><path d="m129.1875 183.828125 6.625-3.828125v7.652344zm0 0"/><path d="m168.953125 229.746094 6.628906-3.828125v7.65625zm0 0"/><path d="m175.582031 233.574219 6.628907-3.828125v7.652344zm0 0"/><path d="m182.210938 229.746094 6.625-3.828125v7.65625zm0 0"/><path d="m202.09375 218.265625 6.628906-3.824219v7.652344zm0 0"/><path d="m208.722656 214.441406 6.625-3.828125v7.652344zm0 0"/><path d="m228.605469 210.613281 6.628906-3.828125v7.65625zm0 0"/><path d="m228.605469 187.652344 6.628906-3.824219v7.652344zm0 0"/><path d="m228.605469 172.347656 6.628906-3.828125v7.652344zm0 0"/><path d="m228.605469 164.695312 6.628906-3.828124v7.652343zm0 0"/><path d="m208.722656 137.90625 6.625-3.824219v7.652344zm0 0"/><path d="m202.09375 134.082031 6.628906-3.828125v7.652344zm0 0"/><path d="m188.835938 126.425781 6.628906-3.824219v7.652344zm0 0"/><path d="m182.210938 122.601562 6.625-3.828124v7.652343zm0 0"/><path d="m175.582031 118.773438 6.628907-3.828126v7.65625zm0 0"/><path d="m162.324219 126.425781 6.628906-3.824219v7.652344zm0 0"/><path d="m155.699219 130.253906 6.625-3.828125v7.65625zm0 0"/><path d="m149.070312 134.082031 6.628907-3.828125v7.652344zm0 0"/><path d="m135.8125 141.734375 6.628906-3.828125v7.652344zm0 0"/><path d="m129.1875 145.558594 6.625-3.824219v7.652344zm0 0"/><path d="m122.558594 164.695312 6.628906-3.828124v7.652343zm0 0"/><path d="m122.558594 195.304688 6.628906-3.824219v7.652343zm0 0"/><path d="m122.558594 202.960938 6.628906-3.828126v7.652344zm0 0"/><path d="m135.8125 218.265625 6.628906-3.824219v7.652344zm0 0"/><path d="m168.953125 237.398438 6.628906-3.824219v7.652343zm0 0"/><path d="m175.582031 241.226562 6.628907-3.828124v7.65625zm0 0"/><path d="m221.976562 214.441406 6.628907-3.828125v7.652344zm0 0"/><path d="m235.234375 153.214844 6.625-3.828125v7.652343zm0 0"/><path d="m208.722656 130.253906 6.625-3.828125v7.65625zm0 0"/><path d="m175.582031 111.121094 6.628907-3.828125v7.652343zm0 0"/><path d="m155.699219 122.601562 6.625-3.828124v7.652343zm0 0"/><path d="m149.070312 126.425781 6.628907-3.824219v7.652344zm0 0"/><path d="m142.441406 130.253906 6.628906-3.828125v7.65625zm0 0"/><path d="m122.558594 141.734375 6.628906-3.828125v7.652344zm0 0"/><path d="m115.929688 145.558594 6.628906-3.824219v7.652344zm0 0"/><path d="m115.929688 176.171875 6.628906-3.824219v7.652344zm0 0"/><path d="m115.929688 206.785156 6.628906-3.824218v7.652343zm0 0"/><path d="m135.8125 225.917969 6.628906-3.824219v7.652344zm0 0"/><path d="m155.699219 237.398438 6.625-3.824219v7.652343zm0 0"/><path d="m168.953125 245.054688 6.628906-3.828126v7.652344zm0 0"/><path d="m195.464844 237.398438 6.628906-3.824219v7.652343zm0 0"/><path d="m202.09375 233.574219 6.628906-3.828125v7.652344zm0 0"/><path d="m215.347656 225.917969 6.628906-3.824219v7.652344zm0 0"/><path d="m221.976562 222.09375 6.628907-3.828125v7.652344zm0 0"/><path d="m241.859375 218.265625 6.628906-3.824219v7.652344zm0 0"/><path d="m235.234375 137.90625 6.625-3.824219v7.652344zm0 0"/><path d="m202.09375 118.773438 6.628906-3.828126v7.65625zm0 0"/><path d="m188.835938 111.121094 6.628906-3.828125v7.652343zm0 0"/><path d="m168.953125 107.292969 6.628906-3.824219v7.652344zm0 0"/><path d="m155.699219 114.945312 6.625-3.824218v7.652344zm0 0"/><path d="m142.441406 122.601562 6.628906-3.828124v7.652343zm0 0"/><path d="m135.8125 126.425781 6.628906-3.824219v7.652344zm0 0"/><path d="m109.300781 141.734375 6.628907-3.828125v7.652344zm0 0"/><path d="m109.300781 157.039062 6.628907-3.824218v7.652344zm0 0"/><path d="m109.300781 164.695312 6.628907-3.828124v7.652343zm0 0"/><path d="m109.300781 172.347656 6.628907-3.828125v7.652344zm0 0"/><path d="m115.929688 222.09375 6.628906-3.828125v7.652344zm0 0"/><path d="m129.1875 229.746094 6.625-3.828125v7.65625zm0 0"/><path d="m135.8125 233.574219 6.628906-3.828125v7.652344zm0 0"/><path d="m142.441406 237.398438 6.628906-3.824219v7.652343zm0 0"/><path d="m175.582031 256.53125 6.628907-3.824219v7.652344zm0 0"/><path d="m215.347656 233.574219 6.628906-3.828125v7.652344zm0 0"/><path d="m221.976562 229.746094 6.628907-3.828125v7.65625zm0 0"/><path d="m248.488281 206.785156 6.628907-3.824218v7.652343zm0 0"/><path d="m248.488281 199.132812 6.628907-3.828124v7.65625zm0 0"/><path d="m248.488281 191.480469 6.628907-3.828125v7.652344zm0 0"/><path d="m241.859375 134.082031 6.628906-3.828125v7.652344zm0 0"/><path d="m202.09375 111.121094 6.628906-3.828125v7.652343zm0 0"/><path d="m195.464844 107.292969 6.628906-3.824219v7.652344zm0 0"/><path d="m188.835938 103.46875 6.628906-3.828125v7.652344zm0 0"/><path d="m168.953125 99.640625 6.628906-3.828125v7.65625zm0 0"/><path d="m109.300781 134.082031 6.628907-3.828125v7.652344zm0 0"/><path d="m102.671875 145.558594 6.628906-3.824219v7.652344zm0 0"/><path d="m102.671875 153.214844 6.628906-3.828125v7.652343zm0 0"/><path d="m102.671875 160.867188 6.628906-3.828126v7.65625zm0 0"/><path d="m102.671875 183.828125 6.628906-3.828125v7.652344zm0 0"/><path d="m102.671875 214.441406 6.628906-3.828125v7.652344zm0 0"/><path d="m129.1875 237.398438 6.625-3.824219v7.652343zm0 0"/><path d="m135.8125 241.226562 6.628906-3.828124v7.65625zm0 0"/><path d="m182.210938 260.359375 6.625-3.828125v7.65625zm0 0"/><path d="m188.835938 256.53125 6.628906-3.824219v7.652344zm0 0"/><path d="m202.09375 248.878906 6.628906-3.824218v7.652343zm0 0"/><path d="m235.234375 229.746094 6.625-3.828125v7.65625zm0 0"/><path d="m255.117188 195.304688 6.628906-3.824219v7.652343zm0 0"/><path d="m255.117188 187.652344 6.628906-3.824219v7.652344zm0 0"/><path d="m255.117188 164.695312 6.628906-3.828124v7.652343zm0 0"/><path d="m255.117188 157.039062 6.628906-3.824218v7.652344zm0 0"/><path d="m255.117188 149.386719 6.628906-3.828125v7.65625zm0 0"/><path d="m248.488281 130.253906 6.628907-3.828125v7.65625zm0 0"/><path d="m235.234375 122.601562 6.625-3.828124v7.652343zm0 0"/><path d="m228.605469 118.773438 6.628906-3.828126v7.65625zm0 0"/><path d="m202.09375 103.46875 6.628906-3.828125v7.652344zm0 0"/><path d="m195.464844 99.640625 6.628906-3.828125v7.65625zm0 0"/><path d="m168.953125 91.988281 6.628906-3.828125v7.652344zm0 0"/><path d="m162.324219 95.8125 6.628906-3.824219v7.652344zm0 0"/><path d="m155.699219 99.640625 6.625-3.828125v7.65625zm0 0"/><path d="m135.8125 111.121094 6.628906-3.828125v7.652343zm0 0"/><path d="m115.929688 122.601562 6.628906-3.828124v7.652343zm0 0"/><path d="m109.300781 126.425781 6.628907-3.824219v7.652344zm0 0"/><path d="m102.671875 130.253906 6.628906-3.828125v7.65625zm0 0"/><path d="m96.046875 149.386719 6.625-3.828125v7.65625zm0 0"/><path d="m96.046875 157.039062 6.625-3.824218v7.652344zm0 0"/><path d="m96.046875 195.304688 6.625-3.824219v7.652343zm0 0"/><path d="m96.046875 225.917969 6.625-3.824219v7.652344zm0 0"/><path d="m109.300781 233.574219 6.628907-3.828125v7.652344zm0 0"/><path d="m129.1875 245.054688 6.625-3.828126v7.652344zm0 0"/><path d="m135.8125 248.878906 6.628906-3.824218v7.652343zm0 0"/><path d="m142.441406 252.707031 6.628906-3.828125v7.652344zm0 0"/><path d="m155.699219 260.359375 6.625-3.828125v7.65625zm0 0"/><path d="m162.324219 264.1875 6.628906-3.828125v7.652344zm0 0"/><path d="m168.953125 268.011719 6.628906-3.824219v7.652344zm0 0"/><path d="m175.582031 271.839844 6.628907-3.828125v7.65625zm0 0"/><path d="m215.347656 248.878906 6.628906-3.824218v7.652343zm0 0"/><path d="m248.488281 229.746094 6.628907-3.828125v7.65625zm0 0"/><path d="m261.746094 191.480469 6.625-3.828125v7.652344zm0 0"/><path d="m261.746094 145.558594 6.625-3.824219v7.652344zm0 0"/><path d="m255.117188 126.425781 6.628906-3.824219v7.652344zm0 0"/><path d="m248.488281 122.601562 6.628907-3.828124v7.652343zm0 0"/><path d="m235.234375 114.945312 6.625-3.824218v7.652344zm0 0"/><path d="m215.347656 103.46875 6.628906-3.828125v7.652344zm0 0"/><path d="m208.722656 99.640625 6.625-3.828125v7.65625zm0 0"/><path d="m182.210938 84.332031 6.625-3.824219v7.652344zm0 0"/><path d="m168.953125 84.332031 6.628906-3.824219v7.652344zm0 0"/><path d="m135.8125 103.46875 6.628906-3.828125v7.652344zm0 0"/><path d="m129.1875 107.292969 6.625-3.824219v7.652344zm0 0"/><path d="m109.300781 118.773438 6.628907-3.828126v7.65625zm0 0"/><path d="m96.046875 126.425781 6.625-3.824219v7.652344zm0 0"/><path d="m89.417969 130.253906 6.628906-3.828125v7.65625zm0 0"/><path d="m89.417969 168.519531 6.628906-3.824219v7.652344zm0 0"/><path d="m89.417969 214.441406 6.628906-3.828125v7.652344zm0 0"/><path d="m109.300781 241.226562 6.628907-3.828124v7.65625zm0 0"/><path d="m115.929688 245.054688 6.628906-3.828126v7.652344zm0 0"/><path d="m122.558594 248.878906 6.628906-3.824218v7.652343zm0 0"/><path d="m175.582031 279.492188 6.628907-3.824219v7.652343zm0 0"/><path d="m188.835938 271.839844 6.628906-3.828125v7.65625zm0 0"/><path d="m195.464844 268.011719 6.628906-3.824219v7.652344zm0 0"/><path d="m208.722656 260.359375 6.625-3.828125v7.65625zm0 0"/><path d="m215.347656 256.53125 6.628906-3.824219v7.652344zm0 0"/><path d="m221.976562 252.707031 6.628907-3.828125v7.652344zm0 0"/><path d="m235.234375 245.054688 6.625-3.828126v7.652344zm0 0"/><path d="m268.371094 233.574219 6.628906-3.828125v7.652344zm0 0"/><path d="m268.371094 225.917969 6.628906-3.824219v7.652344zm0 0"/><path d="m268.371094 218.265625 6.628906-3.824219v7.652344zm0 0"/><path d="m255.117188 118.773438 6.628906-3.828126v7.65625zm0 0"/><path d="m221.976562 99.640625 6.628907-3.828125v7.65625zm0 0"/><path d="m215.347656 95.8125 6.628906-3.824219v7.652344zm0 0"/><path d="m202.09375 88.160156 6.628906-3.828125v7.65625zm0 0"/><path d="m195.464844 84.332031 6.628906-3.824219v7.652344zm0 0"/><path d="m188.835938 80.507812 6.628906-3.828124v7.652343zm0 0"/><path d="m182.210938 76.679688 6.625-3.824219v7.652343zm0 0"/><path d="m149.070312 88.160156 6.628907-3.828125v7.65625zm0 0"/><path d="m142.441406 91.988281 6.628906-3.828125v7.652344zm0 0"/><path d="m96.046875 118.773438 6.625-3.828126v7.65625zm0 0"/><path d="m82.789062 157.039062 6.628907-3.824218v7.652344zm0 0"/><path d="m82.789062 164.695312 6.628907-3.828124v7.652343zm0 0"/><path d="m82.789062 180 6.628907-3.828125v7.65625zm0 0"/><path d="m82.789062 195.304688 6.628907-3.824219v7.652343zm0 0"/><path d="m89.417969 237.398438 6.628906-3.824219v7.652343zm0 0"/><path d="m96.046875 241.226562 6.625-3.828124v7.65625zm0 0"/><path d="m122.558594 256.53125 6.628906-3.824219v7.652344zm0 0"/><path d="m135.8125 264.1875 6.628906-3.828125v7.652344zm0 0"/><path d="m155.699219 275.667969 6.625-3.828125v7.652344zm0 0"/><path d="m175.582031 287.144531 6.628907-3.824219v7.652344zm0 0"/><path d="m182.210938 283.320312 6.625-3.828124v7.652343zm0 0"/><path d="m188.835938 279.492188 6.628906-3.824219v7.652343zm0 0"/><path d="m215.347656 264.1875 6.628906-3.828125v7.652344zm0 0"/><path d="m221.976562 260.359375 6.628907-3.828125v7.65625zm0 0"/><path d="m261.746094 237.398438 6.625-3.824219v7.652343zm0 0"/><path d="m275 237.398438 6.628906-3.824219v7.652343zm0 0"/><path d="m275 229.746094 6.628906-3.828125v7.65625zm0 0"/><path d="m275 191.480469 6.628906-3.828125v7.652344zm0 0"/><path d="m275 176.171875 6.628906-3.824219v7.652344zm0 0"/><path d="m275 160.867188 6.628906-3.828126v7.65625zm0 0"/><path d="m275 122.601562 6.628906-3.828124v7.652343zm0 0"/><path d="m261.746094 114.945312 6.625-3.824218v7.652344zm0 0"/><path d="m241.859375 103.46875 6.628906-3.828125v7.652344zm0 0"/><path d="m188.835938 72.855469 6.628906-3.828125v7.652344zm0 0"/><path d="m102.671875 252.707031 6.628906-3.828125v7.652344zm0 0"/><path d="m109.300781 256.53125 6.628907-3.824219v7.652344zm0 0"/><path d="m115.929688 260.359375 6.628906-3.828125v7.65625zm0 0"/><path d="m135.8125 271.839844 6.628906-3.828125v7.65625zm0 0"/><path d="m142.441406 275.667969 6.628906-3.828125v7.652344zm0 0"/><path d="m149.070312 279.492188 6.628907-3.824219v7.652343zm0 0"/><path d="m162.324219 287.144531 6.628906-3.824219v7.652344zm0 0"/><path d="m168.953125 290.972656 6.628906-3.828125v7.65625zm0 0"/><path d="m188.835938 287.144531 6.628906-3.824219v7.652344zm0 0"/><path d="m261.746094 245.054688 6.625-3.828126v7.652344zm0 0"/><path d="m268.371094 241.226562 6.628906-3.828124v7.65625zm0 0"/><path d="m281.628906 218.265625 6.628906-3.824219v7.652344zm0 0"/><path d="m281.628906 210.613281 6.628906-3.828125v7.65625zm0 0"/><path d="m281.628906 202.960938 6.628906-3.828126v7.652344zm0 0"/><path d="m281.628906 187.652344 6.628906-3.824219v7.652344zm0 0"/><path d="m281.628906 180 6.628906-3.828125v7.65625zm0 0"/><path d="m281.628906 172.347656 6.628906-3.828125v7.652344zm0 0"/><path d="m281.628906 164.695312 6.628906-3.828124v7.652343zm0 0"/><path d="m281.628906 149.386719 6.628906-3.828125v7.65625zm0 0"/><path d="m281.628906 141.734375 6.628906-3.828125v7.652344zm0 0"/><path d="m281.628906 134.082031 6.628906-3.828125v7.652344zm0 0"/><path d="m248.488281 99.640625 6.628907-3.828125v7.65625zm0 0"/><path d="m241.859375 95.8125 6.628906-3.824219v7.652344zm0 0"/><path d="m208.722656 76.679688 6.625-3.824219v7.652343zm0 0"/><path d="m202.09375 72.855469 6.628906-3.828125v7.652344zm0 0"/><path d="m195.464844 69.027344 6.628906-3.828125v7.65625zm0 0"/><path d="m69.535156 134.082031 6.625-3.828125v7.652344zm0 0"/><path d="m69.535156 149.386719 6.625-3.828125v7.65625zm0 0"/><path d="m69.535156 157.039062 6.625-3.824218v7.652344zm0 0"/><path d="m69.535156 172.347656 6.625-3.828125v7.652344zm0 0"/><path d="m69.535156 195.304688 6.625-3.824219v7.652343zm0 0"/><path d="m69.535156 210.613281 6.625-3.828125v7.65625zm0 0"/><path d="m69.535156 225.917969 6.625-3.824219v7.652344zm0 0"/><path d="m69.535156 241.226562 6.625-3.828124v7.65625zm0 0"/><path d="m89.417969 252.707031 6.628906-3.828125v7.652344zm0 0"/><path d="m96.046875 256.53125 6.625-3.824219v7.652344zm0 0"/><path d="m149.070312 287.144531 6.628907-3.824219v7.652344zm0 0"/><path d="m175.582031 302.453125 6.628907-3.828125v7.65625zm0 0"/><path d="m182.210938 298.625 6.625-3.824219v7.652344zm0 0"/><path d="m215.347656 279.492188 6.628906-3.824219v7.652343zm0 0"/><path d="m221.976562 275.667969 6.628907-3.828125v7.652344zm0 0"/><path d="m228.605469 271.839844 6.628906-3.828125v7.65625zm0 0"/><path d="m241.859375 264.1875 6.628906-3.828125v7.652344zm0 0"/><path d="m268.371094 248.878906 6.628906-3.824218v7.652343zm0 0"/><path d="m275 245.054688 6.628906-3.828126v7.652344zm0 0"/><path d="m288.257812 245.054688 6.625-3.828126v7.652344zm0 0"/><path d="m288.257812 222.09375 6.625-3.828125v7.652344zm0 0"/><path d="m288.257812 214.441406 6.625-3.828125v7.652344zm0 0"/><path d="m288.257812 199.132812 6.625-3.828124v7.65625zm0 0"/><path d="m288.257812 183.828125 6.625-3.828125v7.652344zm0 0"/><path d="m288.257812 168.519531 6.625-3.824219v7.652344zm0 0"/><path d="m288.257812 153.214844 6.625-3.828125v7.652343zm0 0"/><path d="m288.257812 137.90625 6.625-3.824219v7.652344zm0 0"/><path d="m288.257812 130.253906 6.625-3.828125v7.65625zm0 0"/><path d="m69.535156 248.878906 6.625-3.824218v7.652343zm0 0"/><path d="m76.160156 252.707031 6.628906-3.828125v7.652344zm0 0"/><path d="m82.789062 256.53125 6.628907-3.824219v7.652344zm0 0"/><path d="m89.417969 260.359375 6.628906-3.828125v7.65625zm0 0"/><path d="m96.046875 264.1875 6.625-3.828125v7.652344zm0 0"/><path d="m102.671875 268.011719 6.628906-3.824219v7.652344zm0 0"/><path d="m109.300781 271.839844 6.628907-3.828125v7.65625zm0 0"/><path d="m115.929688 275.667969 6.628906-3.828125v7.652344zm0 0"/><path d="m122.558594 279.492188 6.628906-3.824219v7.652343zm0 0"/><path d="m129.1875 283.320312 6.625-3.828124v7.652343zm0 0"/><path d="m135.8125 287.144531 6.628906-3.824219v7.652344zm0 0"/><path d="m142.441406 290.972656 6.628906-3.828125v7.65625zm0 0"/><path d="m149.070312 294.800781 6.628907-3.828125v7.652344zm0 0"/><path d="m155.699219 298.625 6.625-3.824219v7.652344zm0 0"/><path d="m162.324219 302.453125 6.628906-3.828125v7.65625zm0 0"/><path d="m168.953125 306.28125 6.628906-3.828125v7.652344zm0 0"/><path d="m294.882812 233.574219 6.628907-3.828125v7.652344zm0 0"/><path d="m294.882812 225.917969 6.628907-3.824219v7.652344zm0 0"/><path d="m294.882812 218.265625 6.628907-3.824219v7.652344zm0 0"/><path d="m294.882812 210.613281 6.628907-3.828125v7.65625zm0 0"/><path d="m294.882812 202.960938 6.628907-3.828126v7.652344zm0 0"/><path d="m294.882812 195.304688 6.628907-3.824219v7.652343zm0 0"/><path d="m294.882812 187.652344 6.628907-3.824219v7.652344zm0 0"/><path d="m294.882812 180 6.628907-3.828125v7.65625zm0 0"/><path d="m294.882812 172.347656 6.628907-3.828125v7.652344zm0 0"/><path d="m294.882812 164.695312 6.628907-3.828124v7.652343zm0 0"/><path d="m294.882812 157.039062 6.628907-3.824218v7.652344zm0 0"/><path d="m294.882812 149.386719 6.628907-3.828125v7.65625zm0 0"/><path d="m294.882812 141.734375 6.628907-3.828125v7.652344zm0 0"/><path d="m294.882812 134.082031 6.628907-3.828125v7.652344zm0 0"/><path d="m294.882812 126.425781 6.628907-3.824219v7.652344zm0 0"/><path d="m294.882812 118.773438 6.628907-3.828126v7.65625zm0 0"/><path d="m288.257812 107.292969 6.625-3.824219v7.652344zm0 0"/><path d="m281.628906 103.46875 6.628906-3.828125v7.652344zm0 0"/><path d="m275 99.640625 6.628906-3.828125v7.65625zm0 0"/><path d="m268.371094 95.8125 6.628906-3.824219v7.652344zm0 0"/><path d="m261.746094 91.988281 6.625-3.828125v7.652344zm0 0"/><path d="m255.117188 88.160156 6.628906-3.828125v7.65625zm0 0"/><path d="m248.488281 84.332031 6.628907-3.824219v7.652344zm0 0"/><path d="m241.859375 80.507812 6.628906-3.828124v7.652343zm0 0"/><path d="m235.234375 76.679688 6.625-3.824219v7.652343zm0 0"/><path d="m228.605469 72.855469 6.628906-3.828125v7.652344zm0 0"/><path d="m221.976562 69.027344 6.628907-3.828125v7.65625zm0 0"/><path d="m215.347656 65.199219 6.628906-3.824219v7.652344zm0 0"/><path d="m208.722656 61.375 6.625-3.828125v7.652344zm0 0"/><path d="m202.09375 57.546875 6.628906-3.828125v7.65625zm0 0"/><path d="m188.835938 49.894531 6.628906-3.828125v7.652344zm0 0"/><path d="m69.535156 256.53125 6.625-3.824219v7.652344zm0 0"/><path d="m175.582031 317.757812 6.628907-3.824218v7.652344zm0 0"/><path d="m182.210938 313.933594 6.625-3.828125v7.652343zm0 0"/><path d="m188.835938 310.105469 6.628906-3.824219v7.652344zm0 0"/><path d="m195.464844 306.28125 6.628906-3.828125v7.652344zm0 0"/><path d="m202.09375 302.453125 6.628906-3.828125v7.65625zm0 0"/><path d="m208.722656 298.625 6.625-3.824219v7.652344zm0 0"/><path d="m215.347656 294.800781 6.628906-3.828125v7.652344zm0 0"/><path d="m221.976562 290.972656 6.628907-3.828125v7.65625zm0 0"/><path d="m228.605469 287.144531 6.628906-3.824219v7.652344zm0 0"/><path d="m235.234375 283.320312 6.625-3.828124v7.652343zm0 0"/><path d="m241.859375 279.492188 6.628906-3.824219v7.652343zm0 0"/><path d="m248.488281 275.667969 6.628907-3.828125v7.652344zm0 0"/><path d="m255.117188 271.839844 6.628906-3.828125v7.65625zm0 0"/><path d="m261.746094 268.011719 6.625-3.824219v7.652344zm0 0"/><path d="m268.371094 264.1875 6.628906-3.828125v7.652344zm0 0"/><path d="m275 260.359375 6.628906-3.828125v7.65625zm0 0"/><path d="m301.511719 237.398438 6.628906-3.824219v7.652343zm0 0"/><path d="m301.511719 114.945312 6.628906-3.824218v7.652344zm0 0"/><path d="m182.210938 183.828125-6.628907-3.828125v7.652344zm0 0"/><path d="m195.464844 176.171875-6.628906-3.824219v7.652344zm0 0"/><path d="m175.582031 172.347656-6.628906-3.828125v7.652344zm0 0"/><path d="m175.582031 180-6.628906-3.828125v7.65625zm0 0"/><path d="m182.210938 191.480469-6.628907-3.828125v7.652344zm0 0"/><path d="m188.835938 187.652344-6.625-3.824219v7.652344zm0 0"/><path d="m195.464844 168.519531-6.628906-3.824219v7.652344zm0 0"/><path d="m188.835938 164.695312-6.625-3.828124v7.652343zm0 0"/><path d="m182.210938 160.867188-6.628907-3.828126v7.65625zm0 0"/><path d="m175.582031 164.695312-6.628906-3.828124v7.652343zm0 0"/><path d="m168.953125 176.171875-6.628906-3.824219v7.652344zm0 0"/><path d="m175.582031 195.304688-6.628906-3.824219v7.652343zm0 0"/><path d="m188.835938 195.304688-6.625-3.824219v7.652343zm0 0"/><path d="m195.464844 191.480469-6.628906-3.828125v7.652344zm0 0"/><path d="m208.722656 191.480469-6.628906-3.828125v7.652344zm0 0"/><path d="m195.464844 160.867188-6.628906-3.828126v7.65625zm0 0"/><path d="m188.835938 157.039062-6.625-3.824218v7.652344zm0 0"/><path d="m168.953125 160.867188-6.628906-3.828126v7.65625zm0 0"/><path d="m162.324219 187.652344-6.625-3.824219v7.652344zm0 0"/><path d="m175.582031 202.960938-6.628906-3.828126v7.652344zm0 0"/><path d="m195.464844 199.132812-6.628906-3.828124v7.65625zm0 0"/><path d="m202.09375 195.304688-6.628906-3.824219v7.652343zm0 0"/><path d="m215.347656 187.652344-6.625-3.824219v7.652344zm0 0"/><path d="m202.09375 157.039062-6.628906-3.824218v7.652344zm0 0"/><path d="m175.582031 149.386719-6.628906-3.828125v7.65625zm0 0"/><path d="m155.699219 176.171875-6.628907-3.824219v7.652344zm0 0"/><path d="m155.699219 183.828125-6.628907-3.828125v7.652344zm0 0"/><path d="m168.953125 206.785156-6.628906-3.824218v7.652343zm0 0"/><path d="m182.210938 214.441406-6.628907-3.828125v7.652344zm0 0"/><path d="m221.976562 160.867188-6.628906-3.828126v7.65625zm0 0"/><path d="m215.347656 157.039062-6.625-3.824218v7.652344zm0 0"/><path d="m208.722656 153.214844-6.628906-3.828125v7.652343zm0 0"/><path d="m155.699219 153.214844-6.628907-3.828125v7.652343zm0 0"/><path d="m149.070312 157.039062-6.628906-3.824218v7.652344zm0 0"/><path d="m155.699219 206.785156-6.628907-3.824218v7.652343zm0 0"/><path d="m188.835938 218.265625-6.625-3.824219v7.652344zm0 0"/><path d="m215.347656 202.960938-6.625-3.828126v7.652344zm0 0"/><path d="m228.605469 180-6.628907-3.828125v7.65625zm0 0"/><path d="m175.582031 134.082031-6.628906-3.828125v7.652344zm0 0"/><path d="m162.324219 141.734375-6.625-3.828125v7.652344zm0 0"/><path d="m142.441406 153.214844-6.628906-3.828125v7.652343zm0 0"/><path d="m142.441406 160.867188-6.628906-3.828126v7.65625zm0 0"/><path d="m142.441406 176.171875-6.628906-3.824219v7.652344zm0 0"/><path d="m142.441406 183.828125-6.628906-3.828125v7.652344zm0 0"/><path d="m142.441406 206.785156-6.628906-3.824218v7.652343zm0 0"/><path d="m188.835938 225.917969-6.625-3.824219v7.652344zm0 0"/><path d="m235.234375 191.480469-6.628906-3.828125v7.652344zm0 0"/><path d="m208.722656 137.90625-6.628906-3.824219v7.652344zm0 0"/><path d="m202.09375 134.082031-6.628906-3.828125v7.652344zm0 0"/><path d="m195.464844 130.253906-6.628906-3.828125v7.65625zm0 0"/><path d="m188.835938 126.425781-6.625-3.824219v7.652344zm0 0"/><path d="m149.070312 141.734375-6.628906-3.828125v7.652344zm0 0"/><path d="m135.8125 149.386719-6.625-3.828125v7.65625zm0 0"/><path d="m135.8125 187.652344-6.625-3.824219v7.652344zm0 0"/><path d="m182.210938 237.398438-6.628907-3.824219v7.652343zm0 0"/><path d="m215.347656 218.265625-6.625-3.824219v7.652344zm0 0"/><path d="m241.859375 164.695312-6.625-3.828124v7.652343zm0 0"/><path d="m241.859375 157.039062-6.625-3.824218v7.652344zm0 0"/><path d="m241.859375 149.386719-6.625-3.828125v7.65625zm0 0"/><path d="m235.234375 145.558594-6.628906-3.824219v7.652344zm0 0"/><path d="m228.605469 141.734375-6.628907-3.828125v7.652344zm0 0"/><path d="m215.347656 134.082031-6.625-3.828125v7.652344zm0 0"/><path d="m195.464844 122.601562-6.628906-3.828124v7.652343zm0 0"/><path d="m188.835938 118.773438-6.625-3.828126v7.65625zm0 0"/><path d="m135.8125 141.734375-6.625-3.828125v7.652344zm0 0"/><path d="m129.1875 176.171875-6.628906-3.824219v7.652344zm0 0"/><path d="m129.1875 183.828125-6.628906-3.828125v7.652344zm0 0"/><path d="m129.1875 206.785156-6.628906-3.824218v7.652343zm0 0"/><path d="m162.324219 233.574219-6.625-3.828125v7.652344zm0 0"/><path d="m182.210938 245.054688-6.628907-3.828126v7.652344zm0 0"/><path d="m195.464844 237.398438-6.628906-3.824219v7.652343zm0 0"/><path d="m202.09375 233.574219-6.628906-3.828125v7.652344zm0 0"/><path d="m215.347656 225.917969-6.625-3.824219v7.652344zm0 0"/><path d="m248.488281 214.441406-6.628906-3.828125v7.652344zm0 0"/><path d="m248.488281 206.785156-6.628906-3.824218v7.652343zm0 0"/><path d="m228.605469 134.082031-6.628907-3.828125v7.652344zm0 0"/><path d="m215.347656 126.425781-6.625-3.824219v7.652344zm0 0"/><path d="m208.722656 122.601562-6.628906-3.828124v7.652343zm0 0"/><path d="m202.09375 118.773438-6.628906-3.828126v7.65625zm0 0"/><path d="m195.464844 114.945312-6.628906-3.824218v7.652344zm0 0"/><path d="m182.210938 107.292969-6.628907-3.824219v7.652344zm0 0"/><path d="m175.582031 111.121094-6.628906-3.828125v7.652343zm0 0"/><path d="m168.953125 114.945312-6.628906-3.824218v7.652344zm0 0"/><path d="m162.324219 118.773438-6.625-3.828126v7.65625zm0 0"/><path d="m155.699219 122.601562-6.628907-3.828124v7.652343zm0 0"/><path d="m122.558594 141.734375-6.628906-3.828125v7.652344zm0 0"/><path d="m122.558594 172.347656-6.628906-3.828125v7.652344zm0 0"/><path d="m122.558594 180-6.628906-3.828125v7.65625zm0 0"/><path d="m122.558594 195.304688-6.628906-3.824219v7.652343zm0 0"/><path d="m122.558594 202.960938-6.628906-3.828126v7.652344zm0 0"/><path d="m122.558594 210.613281-6.628906-3.828125v7.65625zm0 0"/><path d="m142.441406 229.746094-6.628906-3.828125v7.65625zm0 0"/><path d="m149.070312 233.574219-6.628906-3.828125v7.652344zm0 0"/><path d="m168.953125 245.054688-6.628906-3.828126v7.652344zm0 0"/><path d="m175.582031 248.878906-6.628906-3.824218v7.652343zm0 0"/><path d="m182.210938 252.707031-6.628907-3.828125v7.652344zm0 0"/><path d="m208.722656 237.398438-6.628906-3.824219v7.652343zm0 0"/><path d="m215.347656 233.574219-6.625-3.828125v7.652344zm0 0"/><path d="m228.605469 225.917969-6.628907-3.824219v7.652344zm0 0"/><path d="m255.117188 157.039062-6.628907-3.824218v7.652344zm0 0"/><path d="m248.488281 137.90625-6.628906-3.824219v7.652344zm0 0"/><path d="m241.859375 134.082031-6.625-3.828125v7.652344zm0 0"/><path d="m208.722656 114.945312-6.628906-3.824218v7.652344zm0 0"/><path d="m195.464844 107.292969-6.628906-3.824219v7.652344zm0 0"/><path d="m175.582031 103.46875-6.628906-3.828125v7.652344zm0 0"/><path d="m162.324219 111.121094-6.625-3.828125v7.652343zm0 0"/><path d="m149.070312 118.773438-6.628906-3.828126v7.65625zm0 0"/><path d="m122.558594 134.082031-6.628906-3.828125v7.652344zm0 0"/><path d="m115.929688 160.867188-6.628907-3.828126v7.65625zm0 0"/><path d="m115.929688 222.09375-6.628907-3.828125v7.652344zm0 0"/><path d="m122.558594 225.917969-6.628906-3.824219v7.652344zm0 0"/><path d="m135.8125 233.574219-6.625-3.828125v7.652344zm0 0"/><path d="m149.070312 241.226562-6.628906-3.828124v7.65625zm0 0"/><path d="m208.722656 245.054688-6.628906-3.828126v7.652344zm0 0"/><path d="m228.605469 233.574219-6.628907-3.828125v7.652344zm0 0"/><path d="m235.234375 229.746094-6.628906-3.828125v7.65625zm0 0"/><path d="m261.746094 222.09375-6.628906-3.828125v7.652344zm0 0"/><path d="m261.746094 199.132812-6.628906-3.828124v7.65625zm0 0"/><path d="m261.746094 183.828125-6.628906-3.828125v7.652344zm0 0"/><path d="m261.746094 137.90625-6.628906-3.824219v7.652344zm0 0"/><path d="m255.117188 134.082031-6.628907-3.828125v7.652344zm0 0"/><path d="m241.859375 126.425781-6.625-3.824219v7.652344zm0 0"/><path d="m235.234375 122.601562-6.628906-3.828124v7.652343zm0 0"/><path d="m228.605469 118.773438-6.628907-3.828126v7.65625zm0 0"/><path d="m208.722656 107.292969-6.628906-3.824219v7.652344zm0 0"/><path d="m202.09375 103.46875-6.628906-3.828125v7.652344zm0 0"/><path d="m175.582031 95.8125-6.628906-3.824219v7.652344zm0 0"/><path d="m162.324219 103.46875-6.625-3.828125v7.652344zm0 0"/><path d="m109.300781 134.082031-6.628906-3.828125v7.652344zm0 0"/><path d="m109.300781 141.734375-6.628906-3.828125v7.652344zm0 0"/><path d="m109.300781 164.695312-6.628906-3.828124v7.652343zm0 0"/><path d="m109.300781 180-6.628906-3.828125v7.65625zm0 0"/><path d="m109.300781 210.613281-6.628906-3.828125v7.65625zm0 0"/><path d="m122.558594 233.574219-6.628906-3.828125v7.652344zm0 0"/><path d="m142.441406 245.054688-6.628906-3.828126v7.652344zm0 0"/><path d="m162.324219 256.53125-6.625-3.824219v7.652344zm0 0"/><path d="m195.464844 260.359375-6.628906-3.828125v7.65625zm0 0"/><path d="m215.347656 248.878906-6.625-3.824218v7.652343zm0 0"/><path d="m228.605469 241.226562-6.628907-3.828124v7.65625zm0 0"/><path d="m241.859375 233.574219-6.625-3.828125v7.652344zm0 0"/><path d="m255.117188 225.917969-6.628907-3.824219v7.652344zm0 0"/><path d="m268.371094 202.960938-6.625-3.828126v7.652344zm0 0"/><path d="m268.371094 187.652344-6.625-3.824219v7.652344zm0 0"/><path d="m268.371094 180-6.625-3.828125v7.65625zm0 0"/><path d="m268.371094 157.039062-6.625-3.824218v7.652344zm0 0"/><path d="m241.859375 118.773438-6.625-3.828126v7.65625zm0 0"/><path d="m235.234375 114.945312-6.628906-3.824218v7.652344zm0 0"/><path d="m221.976562 107.292969-6.628906-3.824219v7.652344zm0 0"/><path d="m215.347656 103.46875-6.625-3.828125v7.652344zm0 0"/><path d="m175.582031 88.160156-6.628906-3.828125v7.65625zm0 0"/><path d="m162.324219 95.8125-6.625-3.824219v7.652344zm0 0"/><path d="m155.699219 99.640625-6.628907-3.828125v7.65625zm0 0"/><path d="m149.070312 103.46875-6.628906-3.828125v7.652344zm0 0"/><path d="m135.8125 111.121094-6.625-3.828125v7.652343zm0 0"/><path d="m129.1875 114.945312-6.628906-3.824218v7.652344zm0 0"/><path d="m109.300781 126.425781-6.628906-3.824219v7.652344zm0 0"/><path d="m102.671875 137.90625-6.625-3.824219v7.652344zm0 0"/><path d="m102.671875 153.214844-6.625-3.828125v7.652343zm0 0"/><path d="m102.671875 176.171875-6.625-3.824219v7.652344zm0 0"/><path d="m102.671875 183.828125-6.625-3.828125v7.652344zm0 0"/><path d="m102.671875 191.480469-6.625-3.828125v7.652344zm0 0"/><path d="m102.671875 222.09375-6.625-3.828125v7.652344zm0 0"/><path d="m102.671875 229.746094-6.625-3.828125v7.65625zm0 0"/><path d="m109.300781 233.574219-6.628906-3.828125v7.652344zm0 0"/><path d="m129.1875 245.054688-6.628906-3.828126v7.652344zm0 0"/><path d="m135.8125 248.878906-6.625-3.824218v7.652343zm0 0"/><path d="m182.210938 275.667969-6.628907-3.828125v7.652344zm0 0"/><path d="m221.976562 252.707031-6.628906-3.828125v7.652344zm0 0"/><path d="m228.605469 248.878906-6.628907-3.824218v7.652343zm0 0"/><path d="m235.234375 245.054688-6.628906-3.828126v7.652344zm0 0"/><path d="m275 229.746094-6.628906-3.828125v7.65625zm0 0"/><path d="m275 222.09375-6.628906-3.828125v7.652344zm0 0"/><path d="m275 214.441406-6.628906-3.828125v7.652344zm0 0"/><path d="m275 176.171875-6.628906-3.824219v7.652344zm0 0"/><path d="m275 168.519531-6.628906-3.824219v7.652344zm0 0"/><path d="m241.859375 111.121094-6.625-3.828125v7.652343zm0 0"/><path d="m221.976562 99.640625-6.628906-3.828125v7.65625zm0 0"/><path d="m202.09375 88.160156-6.628906-3.828125v7.65625zm0 0"/><path d="m188.835938 80.507812-6.625-3.828124v7.652343zm0 0"/><path d="m142.441406 99.640625-6.628906-3.828125v7.65625zm0 0"/><path d="m135.8125 103.46875-6.625-3.828125v7.652344zm0 0"/><path d="m129.1875 107.292969-6.628906-3.824219v7.652344zm0 0"/><path d="m122.558594 111.121094-6.628906-3.828125v7.652343zm0 0"/><path d="m115.929688 114.945312-6.628907-3.824218v7.652344zm0 0"/><path d="m109.300781 118.773438-6.628906-3.828126v7.65625zm0 0"/><path d="m102.671875 122.601562-6.625-3.828124v7.652343zm0 0"/><path d="m96.046875 134.082031-6.628906-3.828125v7.652344zm0 0"/><path d="m96.046875 157.039062-6.628906-3.824218v7.652344zm0 0"/><path d="m96.046875 172.347656-6.628906-3.828125v7.652344zm0 0"/><path d="m96.046875 180-6.628906-3.828125v7.65625zm0 0"/><path d="m96.046875 195.304688-6.628906-3.824219v7.652343zm0 0"/><path d="m96.046875 218.265625-6.628906-3.824219v7.652344zm0 0"/><path d="m96.046875 225.917969-6.628906-3.824219v7.652344zm0 0"/><path d="m115.929688 245.054688-6.628907-3.828126v7.652344zm0 0"/><path d="m122.558594 248.878906-6.628906-3.824218v7.652343zm0 0"/><path d="m129.1875 252.707031-6.628906-3.828125v7.652344zm0 0"/><path d="m182.210938 283.320312-6.628907-3.828124v7.652343zm0 0"/><path d="m208.722656 268.011719-6.628906-3.824219v7.652344zm0 0"/><path d="m221.976562 260.359375-6.628906-3.828125v7.65625zm0 0"/><path d="m235.234375 252.707031-6.628906-3.828125v7.652344zm0 0"/><path d="m248.488281 245.054688-6.628906-3.828126v7.652344zm0 0"/><path d="m281.628906 233.574219-6.628906-3.828125v7.652344zm0 0"/><path d="m281.628906 225.917969-6.628906-3.824219v7.652344zm0 0"/><path d="m281.628906 210.613281-6.628906-3.828125v7.65625zm0 0"/><path d="m281.628906 180-6.628906-3.828125v7.65625zm0 0"/><path d="m281.628906 141.734375-6.628906-3.828125v7.652344zm0 0"/><path d="m268.371094 118.773438-6.625-3.828126v7.65625zm0 0"/><path d="m261.746094 114.945312-6.628906-3.824218v7.652344zm0 0"/><path d="m255.117188 111.121094-6.628907-3.828125v7.652343zm0 0"/><path d="m248.488281 107.292969-6.628906-3.824219v7.652344zm0 0"/><path d="m168.953125 76.679688-6.628906-3.824219v7.652343zm0 0"/><path d="m89.417969 122.601562-6.628907-3.828124v7.652343zm0 0"/><path d="m89.417969 176.171875-6.628907-3.824219v7.652344zm0 0"/><path d="m89.417969 183.828125-6.628907-3.828125v7.652344zm0 0"/><path d="m96.046875 241.226562-6.628906-3.828124v7.65625zm0 0"/><path d="m109.300781 248.878906-6.628906-3.824218v7.652343zm0 0"/><path d="m122.558594 256.53125-6.628906-3.824219v7.652344zm0 0"/><path d="m135.8125 264.1875-6.625-3.828125v7.652344zm0 0"/><path d="m162.324219 279.492188-6.625-3.824219v7.652343zm0 0"/><path d="m175.582031 287.144531-6.628906-3.824219v7.652344zm0 0"/><path d="m188.835938 287.144531-6.625-3.824219v7.652344zm0 0"/><path d="m195.464844 283.320312-6.628906-3.828124v7.652343zm0 0"/><path d="m228.605469 264.1875-6.628907-3.828125v7.652344zm0 0"/><path d="m288.257812 199.132812-6.628906-3.828124v7.65625zm0 0"/><path d="m288.257812 191.480469-6.628906-3.828125v7.652344zm0 0"/><path d="m288.257812 160.867188-6.628906-3.828126v7.65625zm0 0"/><path d="m288.257812 153.214844-6.628906-3.828125v7.652343zm0 0"/><path d="m281.628906 118.773438-6.628906-3.828126v7.65625zm0 0"/><path d="m268.371094 111.121094-6.625-3.828125v7.652343zm0 0"/><path d="m248.488281 99.640625-6.628906-3.828125v7.65625zm0 0"/><path d="m202.09375 72.855469-6.628906-3.828125v7.652344zm0 0"/><path d="m182.210938 61.375-6.628907-3.828125v7.652344zm0 0"/><path d="m175.582031 65.199219-6.628906-3.824219v7.652344zm0 0"/><path d="m82.789062 126.425781-6.628906-3.824219v7.652344zm0 0"/><path d="m82.789062 141.734375-6.628906-3.828125v7.652344zm0 0"/><path d="m82.789062 149.386719-6.628906-3.828125v7.65625zm0 0"/><path d="m82.789062 157.039062-6.628906-3.824218v7.652344zm0 0"/><path d="m82.789062 164.695312-6.628906-3.828124v7.652343zm0 0"/><path d="m82.789062 202.960938-6.628906-3.828126v7.652344zm0 0"/><path d="m96.046875 248.878906-6.628906-3.824218v7.652343zm0 0"/><path d="m102.671875 252.707031-6.625-3.828125v7.652344zm0 0"/><path d="m162.324219 287.144531-6.625-3.824219v7.652344zm0 0"/><path d="m168.953125 290.972656-6.628906-3.828125v7.65625zm0 0"/><path d="m175.582031 294.800781-6.628906-3.828125v7.652344zm0 0"/><path d="m182.210938 298.625-6.628907-3.824219v7.652344zm0 0"/><path d="m188.835938 294.800781-6.625-3.828125v7.652344zm0 0"/><path d="m195.464844 290.972656-6.628906-3.828125v7.65625zm0 0"/><path d="m241.859375 264.1875-6.625-3.828125v7.652344zm0 0"/><path d="m268.371094 248.878906-6.625-3.824218v7.652343zm0 0"/><path d="m275 245.054688-6.628906-3.828126v7.652344zm0 0"/><path d="m281.628906 241.226562-6.628906-3.828124v7.65625zm0 0"/><path d="m294.882812 218.265625-6.625-3.824219v7.652344zm0 0"/><path d="m294.882812 210.613281-6.625-3.828125v7.65625zm0 0"/><path d="m294.882812 202.960938-6.625-3.828126v7.652344zm0 0"/><path d="m294.882812 187.652344-6.625-3.824219v7.652344zm0 0"/><path d="m294.882812 180-6.625-3.828125v7.65625zm0 0"/><path d="m294.882812 172.347656-6.625-3.828125v7.652344zm0 0"/><path d="m294.882812 164.695312-6.625-3.828124v7.652343zm0 0"/><path d="m294.882812 149.386719-6.625-3.828125v7.65625zm0 0"/><path d="m294.882812 141.734375-6.625-3.828125v7.652344zm0 0"/><path d="m294.882812 134.082031-6.625-3.828125v7.652344zm0 0"/><path d="m281.628906 111.121094-6.628906-3.828125v7.652343zm0 0"/><path d="m182.210938 53.71875-6.628907-3.824219v7.652344zm0 0"/><path d="m168.953125 61.375-6.628906-3.828125v7.652344zm0 0"/><path d="m82.789062 111.121094-6.628906-3.828125v7.652343zm0 0"/><path d="m76.160156 114.945312-6.625-3.824218v7.652344zm0 0"/><path d="m76.160156 145.558594-6.625-3.824219v7.652344zm0 0"/><path d="m76.160156 160.867188-6.625-3.828126v7.65625zm0 0"/><path d="m76.160156 176.171875-6.625-3.824219v7.652344zm0 0"/><path d="m76.160156 191.480469-6.625-3.828125v7.652344zm0 0"/><path d="m76.160156 206.785156-6.625-3.824218v7.652343zm0 0"/><path d="m76.160156 222.09375-6.625-3.828125v7.652344zm0 0"/><path d="m89.417969 252.707031-6.628907-3.828125v7.652344zm0 0"/><path d="m281.628906 248.878906-6.628906-3.824218v7.652343zm0 0"/><path d="m288.257812 245.054688-6.628906-3.828126v7.652344zm0 0"/><path d="m301.511719 237.398438-6.628907-3.824219v7.652343zm0 0"/><path d="m301.511719 229.746094-6.628907-3.828125v7.65625zm0 0"/><path d="m301.511719 222.09375-6.628907-3.828125v7.652344zm0 0"/><path d="m301.511719 130.253906-6.628907-3.828125v7.65625zm0 0"/><path d="m301.511719 122.601562-6.628907-3.828124v7.652343zm0 0"/><path d="m301.511719 114.945312-6.628907-3.824218v7.652344zm0 0"/><path d="m188.835938 49.894531-6.625-3.828125v7.652344zm0 0"/><path d="m69.535156 248.878906-6.628906-3.824218v7.652343zm0 0"/><path d="m76.160156 252.707031-6.625-3.828125v7.652344zm0 0"/><path d="m82.789062 256.53125-6.628906-3.824219v7.652344zm0 0"/><path d="m89.417969 260.359375-6.628907-3.828125v7.65625zm0 0"/><path d="m96.046875 264.1875-6.628906-3.828125v7.652344zm0 0"/><path d="m102.671875 268.011719-6.625-3.824219v7.652344zm0 0"/><path d="m109.300781 271.839844-6.628906-3.828125v7.65625zm0 0"/><path d="m115.929688 275.667969-6.628907-3.828125v7.652344zm0 0"/><path d="m122.558594 279.492188-6.628906-3.824219v7.652343zm0 0"/><path d="m129.1875 283.320312-6.628906-3.828124v7.652343zm0 0"/><path d="m135.8125 287.144531-6.625-3.824219v7.652344zm0 0"/><path d="m142.441406 290.972656-6.628906-3.828125v7.65625zm0 0"/><path d="m149.070312 294.800781-6.628906-3.828125v7.652344zm0 0"/><path d="m155.699219 298.625-6.628907-3.824219v7.652344zm0 0"/><path d="m162.324219 302.453125-6.625-3.828125v7.65625zm0 0"/><path d="m168.953125 306.28125-6.628906-3.828125v7.652344zm0 0"/><path d="m175.582031 310.105469-6.628906-3.824219v7.652344zm0 0"/><path d="m182.210938 313.933594-6.628907-3.828125v7.652343zm0 0"/><path d="m188.835938 310.105469-6.625-3.824219v7.652344zm0 0"/><path d="m195.464844 306.28125-6.628906-3.828125v7.652344zm0 0"/><path d="m202.09375 302.453125-6.628906-3.828125v7.65625zm0 0"/><path d="m208.722656 298.625-6.628906-3.824219v7.652344zm0 0"/><path d="m215.347656 294.800781-6.625-3.828125v7.652344zm0 0"/><path d="m221.976562 290.972656-6.628906-3.828125v7.65625zm0 0"/><path d="m228.605469 287.144531-6.628907-3.824219v7.652344zm0 0"/><path d="m235.234375 283.320312-6.628906-3.828124v7.652343zm0 0"/><path d="m241.859375 279.492188-6.625-3.824219v7.652343zm0 0"/><path d="m248.488281 275.667969-6.628906-3.828125v7.652344zm0 0"/><path d="m255.117188 271.839844-6.628907-3.828125v7.65625zm0 0"/><path d="m261.746094 268.011719-6.628906-3.824219v7.652344zm0 0"/><path d="m268.371094 264.1875-6.625-3.828125v7.652344zm0 0"/><path d="m275 260.359375-6.628906-3.828125v7.65625zm0 0"/><path d="m281.628906 256.53125-6.628906-3.824219v7.652344zm0 0"/><path d="m308.140625 233.574219-6.628906-3.828125v7.652344zm0 0"/><path d="m308.140625 225.917969-6.628906-3.824219v7.652344zm0 0"/><path d="m308.140625 218.265625-6.628906-3.824219v7.652344zm0 0"/><path d="m308.140625 210.613281-6.628906-3.828125v7.65625zm0 0"/><path d="m308.140625 202.960938-6.628906-3.828126v7.652344zm0 0"/><path d="m308.140625 195.304688-6.628906-3.824219v7.652343zm0 0"/><path d="m308.140625 187.652344-6.628906-3.824219v7.652344zm0 0"/><path d="m308.140625 180-6.628906-3.828125v7.65625zm0 0"/><path d="m308.140625 172.347656-6.628906-3.828125v7.652344zm0 0"/><path d="m308.140625 164.695312-6.628906-3.828124v7.652343zm0 0"/><path d="m308.140625 157.039062-6.628906-3.824218v7.652344zm0 0"/><path d="m308.140625 149.386719-6.628906-3.828125v7.65625zm0 0"/><path d="m308.140625 141.734375-6.628906-3.828125v7.652344zm0 0"/><path d="m308.140625 134.082031-6.628906-3.828125v7.652344zm0 0"/><path d="m308.140625 126.425781-6.628906-3.824219v7.652344zm0 0"/><path d="m308.140625 118.773438-6.628906-3.828126v7.65625zm0 0"/><path d="m62.90625 122.601562-6.628906-3.828124v7.652343zm0 0"/><path d="m62.90625 245.054688-6.628906-3.828126v7.652344zm0 0"/></g></svg>