<svg height="360pt" viewBox="0 0 360 360" width="360pt" xmlns="http://www.w3.org/2000/svg"><path d="m0 0h360v360h-360z" fill="#800080"/><g fill="#fff" fill-rule="evenodd"><path d="m189.625 168.363281 5.039062-2.90625v5.816407zm0 0"/><path d="m179.550781 162.546875 5.039063-2.910156v5.820312zm0 0"/><path d="m179.550781 197.453125 5.039063-2.910156v5.820312zm0 0"/><path d="m189.625 191.636719 5.039062-2.910157v5.816407zm0 0"/><path d="m159.398438 174.183594 5.035156-2.910156v5.816406zm0 0"/><path d="m159.398438 185.816406 5.035156-2.90625v5.816406zm0 0"/><path d="m199.703125 150.910156 5.039063-2.90625v5.816406zm0 0"/><path d="m189.625 145.09375 5.039062-2.910156v5.820312zm0 0"/><path d="m189.625 214.90625 5.039062-2.910156v5.820312zm0 0"/><path d="m199.703125 209.089844 5.039063-2.910156v5.816406zm0 0"/><path d="m139.242188 174.183594 5.039062-2.910156v5.816406zm0 0"/><path d="m139.242188 185.816406 5.039062-2.90625v5.816406zm0 0"/><path d="m219.855469 150.910156 5.039062-2.90625v5.816406zm0 0"/><path d="m179.550781 127.640625 5.039063-2.910156v5.820312zm0 0"/><path d="m179.550781 232.359375 5.039063-2.910156v5.820312zm0 0"/><path d="m219.855469 209.089844 5.039062-2.910156v5.816406zm0 0"/><path d="m129.167969 156.730469 5.039062-2.910157v5.816407zm0 0"/><path d="m129.167969 203.269531 5.039062-2.90625v5.816407zm0 0"/><path d="m240.007812 116.003906 5.039063-2.90625v5.816406zm0 0"/><path d="m199.703125 92.734375 5.039063-2.910156v5.820312zm0 0"/><path d="m199.703125 267.265625 5.039063-2.910156v5.820312zm0 0"/><path d="m240.007812 243.996094 5.039063-2.910156v5.816406zm0 0"/><path d="m88.859375 156.730469 5.039063-2.910157v5.816407zm0 0"/><path d="m88.859375 203.269531 5.039063-2.90625v5.816407zm0 0"/><path d="m270.238281 121.824219 5.039063-2.910157v5.816407zm0 0"/><path d="m260.164062 116.003906 5.035157-2.90625v5.816406zm0 0"/><path d="m229.933594 98.550781 5.039062-2.90625v5.816407zm0 0"/><path d="m219.855469 92.734375 5.039062-2.910156v5.820312zm0 0"/><path d="m189.625 75.28125 5.039062-2.910156v5.820312zm0 0"/><path d="m179.550781 69.464844 5.039063-2.910156v5.816406zm0 0"/><path d="m179.550781 290.535156 5.039063-2.90625v5.816406zm0 0"/><path d="m189.625 284.71875 5.039062-2.910156v5.820312zm0 0"/><path d="m219.855469 267.265625 5.039062-2.910156v5.820312zm0 0"/><path d="m229.933594 261.449219 5.039062-2.910157v5.816407zm0 0"/><path d="m260.164062 243.996094 5.035157-2.910156v5.816406zm0 0"/><path d="m270.238281 238.175781 5.039063-2.90625v5.816407zm0 0"/><path d="m78.785156 127.640625 5.039063-2.910156v5.820312zm0 0"/><path d="m78.785156 139.277344 5.039063-2.910156v5.816406zm0 0"/><path d="m78.785156 174.183594 5.039063-2.910156v5.816406zm0 0"/><path d="m78.785156 185.816406 5.039063-2.90625v5.816406zm0 0"/><path d="m78.785156 220.722656 5.039063-2.90625v5.816406zm0 0"/><path d="m78.785156 232.359375 5.039063-2.910156v5.820312zm0 0"/><path d="m280.316406 104.371094 5.039063-2.910156v5.816406zm0 0"/><path d="m270.238281 98.550781 5.039063-2.90625v5.816407zm0 0"/><path d="m240.007812 81.097656 5.039063-2.90625v5.816406zm0 0"/><path d="m229.933594 75.28125 5.039062-2.910156v5.820312zm0 0"/><path d="m199.703125 57.828125 5.039063-2.910156v5.820312zm0 0"/><path d="m189.625 52.011719 5.039062-2.910157v5.816407zm0 0"/><path d="m189.625 307.988281 5.039062-2.90625v5.816407zm0 0"/><path d="m199.703125 302.171875 5.039063-2.910156v5.820312zm0 0"/><path d="m229.933594 284.71875 5.039062-2.910156v5.820312zm0 0"/><path d="m240.007812 278.902344 5.039063-2.910156v5.816406zm0 0"/><path d="m270.238281 261.449219 5.039063-2.910157v5.816407zm0 0"/><path d="m280.316406 255.628906 5.039063-2.90625v5.816406zm0 0"/><path d="m58.632812 127.640625 5.035157-2.910156v5.820312zm0 0"/><path d="m58.632812 139.277344 5.035157-2.910156v5.816406zm0 0"/><path d="m58.632812 174.183594 5.035157-2.910156v5.816406zm0 0"/><path d="m58.632812 185.816406 5.035157-2.90625v5.816406zm0 0"/><path d="m58.632812 220.722656 5.035157-2.90625v5.816406zm0 0"/><path d="m58.632812 232.359375 5.035157-2.910156v5.820312zm0 0"/><path d="m300.46875 104.371094 5.039062-2.910156v5.816406zm0 0"/><path d="m260.164062 81.097656 5.035157-2.90625v5.816406zm0 0"/><path d="m219.855469 57.828125 5.039062-2.910156v5.820312zm0 0"/><path d="m179.550781 34.558594 5.039063-2.910156v5.816406zm0 0"/><path d="m179.550781 325.441406 5.039063-2.90625v5.816406zm0 0"/><path d="m219.855469 302.171875 5.039062-2.910156v5.820312zm0 0"/><path d="m260.164062 278.902344 5.035157-2.910156v5.816406zm0 0"/><path d="m300.46875 255.628906 5.039062-2.90625v5.816406zm0 0"/><path d="m48.554688 110.1875 5.039062-2.910156v5.820312zm0 0"/><path d="m48.554688 156.730469 5.039062-2.910157v5.816407zm0 0"/><path d="m48.554688 203.269531 5.039062-2.90625v5.816407zm0 0"/><path d="m48.554688 249.8125 5.039062-2.910156v5.820312zm0 0"/><path d="m199.703125 185.816406-5.039063-2.90625v5.816406zm0 0"/><path d="m199.703125 174.183594-5.039063-2.910156v5.816406zm0 0"/><path d="m179.550781 162.546875-5.039062-2.910156v5.820312zm0 0"/><path d="m169.472656 168.363281-5.039062-2.90625v5.816407zm0 0"/><path d="m169.472656 191.636719-5.039062-2.910157v5.816407zm0 0"/><path d="m179.550781 197.453125-5.039062-2.910156v5.820312zm0 0"/><path d="m219.855469 185.816406-5.039063-2.90625v5.816406zm0 0"/><path d="m219.855469 174.183594-5.039063-2.910156v5.816406zm0 0"/><path d="m169.472656 145.09375-5.039062-2.910156v5.820312zm0 0"/><path d="m159.398438 150.910156-5.039063-2.90625v5.816406zm0 0"/><path d="m159.398438 209.089844-5.039063-2.910156v5.816406zm0 0"/><path d="m169.472656 214.90625-5.039062-2.910156v5.820312zm0 0"/><path d="m229.933594 203.269531-5.039063-2.90625v5.816407zm0 0"/><path d="m229.933594 156.730469-5.039063-2.910157v5.816407zm0 0"/><path d="m179.550781 127.640625-5.039062-2.910156v5.820312zm0 0"/><path d="m139.242188 150.910156-5.035157-2.90625v5.816406zm0 0"/><path d="m139.242188 209.089844-5.035157-2.910156v5.816406zm0 0"/><path d="m179.550781 232.359375-5.039062-2.910156v5.820312zm0 0"/><path d="m270.238281 203.269531-5.039062-2.90625v5.816407zm0 0"/><path d="m270.238281 156.730469-5.039062-2.910157v5.816407zm0 0"/><path d="m159.398438 92.734375-5.039063-2.910156v5.820312zm0 0"/><path d="m119.089844 116.003906-5.039063-2.90625v5.816406zm0 0"/><path d="m119.089844 243.996094-5.039063-2.910156v5.816406zm0 0"/><path d="m159.398438 267.265625-5.039063-2.910156v5.820312zm0 0"/><path d="m280.316406 232.359375-5.039062-2.910156v5.820312zm0 0"/><path d="m280.316406 220.722656-5.039062-2.90625v5.816406zm0 0"/><path d="m280.316406 185.816406-5.039062-2.90625v5.816406zm0 0"/><path d="m280.316406 174.183594-5.039062-2.910156v5.816406zm0 0"/><path d="m280.316406 139.277344-5.039062-2.910156v5.816406zm0 0"/><path d="m280.316406 127.640625-5.039062-2.910156v5.820312zm0 0"/><path d="m179.550781 69.464844-5.039062-2.910156v5.816406zm0 0"/><path d="m169.472656 75.28125-5.039062-2.910156v5.820312zm0 0"/><path d="m139.242188 92.734375-5.035157-2.910156v5.820312zm0 0"/><path d="m129.167969 98.550781-5.039063-2.90625v5.816407zm0 0"/><path d="m98.9375 116.003906-5.039062-2.90625v5.816406zm0 0"/><path d="m88.859375 121.824219-5.035156-2.910157v5.816407zm0 0"/><path d="m88.859375 238.175781-5.035156-2.90625v5.816407zm0 0"/><path d="m98.9375 243.996094-5.039062-2.910156v5.816406zm0 0"/><path d="m129.167969 261.449219-5.039063-2.910157v5.816407zm0 0"/><path d="m139.242188 267.265625-5.035157-2.910156v5.820312zm0 0"/><path d="m169.472656 284.71875-5.039062-2.910156v5.820312zm0 0"/><path d="m179.550781 290.535156-5.039062-2.90625v5.816406zm0 0"/><path d="m300.46875 232.359375-5.039062-2.910156v5.820312zm0 0"/><path d="m300.46875 220.722656-5.039062-2.90625v5.816406zm0 0"/><path d="m300.46875 185.816406-5.039062-2.90625v5.816406zm0 0"/><path d="m300.46875 174.183594-5.039062-2.910156v5.816406zm0 0"/><path d="m300.46875 139.277344-5.039062-2.910156v5.816406zm0 0"/><path d="m300.46875 127.640625-5.039062-2.910156v5.820312zm0 0"/><path d="m169.472656 52.011719-5.039062-2.910157v5.816407zm0 0"/><path d="m159.398438 57.828125-5.039063-2.910156v5.820312zm0 0"/><path d="m129.167969 75.28125-5.039063-2.910156v5.820312zm0 0"/><path d="m119.089844 81.097656-5.039063-2.90625v5.816406zm0 0"/><path d="m88.859375 98.550781-5.035156-2.90625v5.816407zm0 0"/><path d="m78.785156 104.371094-5.039062-2.910156v5.816406zm0 0"/><path d="m78.785156 255.628906-5.039062-2.90625v5.816406zm0 0"/><path d="m88.859375 261.449219-5.035156-2.910157v5.816407zm0 0"/><path d="m119.089844 278.902344-5.039063-2.910156v5.816406zm0 0"/><path d="m129.167969 284.71875-5.039063-2.910156v5.820312zm0 0"/><path d="m159.398438 302.171875-5.039063-2.910156v5.820312zm0 0"/><path d="m169.472656 307.988281-5.039062-2.90625v5.816407zm0 0"/><path d="m310.546875 249.8125-5.039063-2.910156v5.820312zm0 0"/><path d="m310.546875 203.269531-5.039063-2.90625v5.816407zm0 0"/><path d="m310.546875 156.730469-5.039063-2.910157v5.816407zm0 0"/><path d="m310.546875 110.1875-5.039063-2.910156v5.820312zm0 0"/><path d="m179.550781 34.558594-5.039062-2.910156v5.816406zm0 0"/><path d="m139.242188 57.828125-5.035157-2.910156v5.820312zm0 0"/><path d="m98.9375 81.097656-5.039062-2.90625v5.816406zm0 0"/><path d="m58.632812 104.371094-5.039062-2.910156v5.816406zm0 0"/><path d="m58.632812 255.628906-5.039062-2.90625v5.816406zm0 0"/><path d="m98.9375 278.902344-5.039062-2.910156v5.816406zm0 0"/><path d="m139.242188 302.171875-5.035157-2.910156v5.820312zm0 0"/><path d="m179.550781 325.441406-5.039062-2.90625v5.816406zm0 0"/></g></svg>