<svg height="360pt" viewBox="0 0 360 360" width="360pt" xmlns="http://www.w3.org/2000/svg"><path d="m0 0h360v360h-360z" fill="#fff"/><g fill="#800080" fill-rule="evenodd"><path d="m186.058594 183.839844 6.652344-3.839844v7.679688zm0 0"/><path d="m186.058594 176.160156 6.652344-3.839844v7.679688zm0 0"/><path d="m179.40625 172.320312 6.652344-3.839843v7.679687zm0 0"/><path d="m179.40625 187.679688 6.652344-3.839844v7.679687zm0 0"/><path d="m192.710938 180 6.648437-3.839844v7.679688zm0 0"/><path d="m186.058594 168.480469 6.652344-3.839844v7.679687zm0 0"/><path d="m179.40625 164.640625 6.652344-3.84375v7.683594zm0 0"/><path d="m172.753906 168.480469 6.652344-3.839844v7.679687zm0 0"/><path d="m166.101562 172.320312 6.652344-3.839843v7.679687zm0 0"/><path d="m166.101562 180 6.652344-3.839844v7.679688zm0 0"/><path d="m166.101562 187.679688 6.652344-3.839844v7.679687zm0 0"/><path d="m172.753906 191.519531 6.652344-3.839843v7.679687zm0 0"/><path d="m179.40625 195.359375 6.652344-3.839844v7.683594zm0 0"/><path d="m186.058594 191.519531 6.652344-3.839843v7.679687zm0 0"/><path d="m199.359375 191.519531 6.652344-3.839843v7.679687zm0 0"/><path d="m199.359375 183.839844 6.652344-3.839844v7.679688zm0 0"/><path d="m199.359375 176.160156 6.652344-3.839844v7.679688zm0 0"/><path d="m199.359375 168.480469 6.652344-3.839844v7.679687zm0 0"/><path d="m192.710938 164.640625 6.648437-3.84375v7.683594zm0 0"/><path d="m186.058594 160.796875 6.652344-3.839844v7.683594zm0 0"/><path d="m179.40625 156.957031 6.652344-3.839843v7.679687zm0 0"/><path d="m166.101562 164.640625 6.652344-3.84375v7.683594zm0 0"/><path d="m159.453125 176.160156 6.648437-3.839844v7.679688zm0 0"/><path d="m159.453125 183.839844 6.648437-3.839844v7.679688zm0 0"/><path d="m166.101562 195.359375 6.652344-3.839844v7.683594zm0 0"/><path d="m179.40625 203.042969 6.652344-3.839844v7.679687zm0 0"/><path d="m186.058594 199.203125 6.652344-3.84375v7.683594zm0 0"/><path d="m192.710938 195.359375 6.648437-3.839844v7.683594zm0 0"/><path d="m206.011719 195.359375 6.652343-3.839844v7.683594zm0 0"/><path d="m206.011719 187.679688 6.652343-3.839844v7.679687zm0 0"/><path d="m206.011719 180 6.652343-3.839844v7.679688zm0 0"/><path d="m206.011719 172.320312 6.652343-3.839843v7.679687zm0 0"/><path d="m206.011719 164.640625 6.652343-3.84375v7.683594zm0 0"/><path d="m199.359375 160.796875 6.652344-3.839844v7.683594zm0 0"/><path d="m179.40625 149.277344 6.652344-3.839844v7.679688zm0 0"/><path d="m172.753906 153.117188 6.652344-3.839844v7.679687zm0 0"/><path d="m166.101562 156.957031 6.652344-3.839843v7.679687zm0 0"/><path d="m159.453125 160.796875 6.648437-3.839844v7.683594zm0 0"/><path d="m152.800781 164.640625 6.652344-3.84375v7.683594zm0 0"/><path d="m152.800781 172.320312 6.652344-3.839843v7.679687zm0 0"/><path d="m152.800781 180 6.652344-3.839844v7.679688zm0 0"/><path d="m152.800781 187.679688 6.652344-3.839844v7.679687zm0 0"/><path d="m152.800781 195.359375 6.652344-3.839844v7.683594zm0 0"/><path d="m159.453125 199.203125 6.648437-3.84375v7.683594zm0 0"/><path d="m166.101562 203.042969 6.652344-3.839844v7.679687zm0 0"/><path d="m172.753906 206.882812 6.652344-3.839843v7.679687zm0 0"/><path d="m179.40625 210.722656 6.652344-3.839844v7.679688zm0 0"/><path d="m199.359375 199.203125 6.652344-3.84375v7.683594zm0 0"/><path d="m212.664062 199.203125 6.652344-3.84375v7.683594zm0 0"/><path d="m212.664062 191.519531 6.652344-3.839843v7.679687zm0 0"/><path d="m212.664062 168.480469 6.652344-3.839844v7.679687zm0 0"/><path d="m212.664062 160.796875 6.652344-3.839844v7.683594zm0 0"/><path d="m206.011719 156.957031 6.652343-3.839843v7.679687zm0 0"/><path d="m192.710938 149.277344 6.648437-3.839844v7.679688zm0 0"/><path d="m179.40625 141.597656 6.652344-3.839844v7.679688zm0 0"/><path d="m172.753906 145.4375 6.652344-3.839844v7.679688zm0 0"/><path d="m166.101562 149.277344 6.652344-3.839844v7.679688zm0 0"/><path d="m159.453125 153.117188 6.648437-3.839844v7.679687zm0 0"/><path d="m152.800781 156.957031 6.652344-3.839843v7.679687zm0 0"/><path d="m146.148438 160.796875 6.652343-3.839844v7.683594zm0 0"/><path d="m146.148438 168.480469 6.652343-3.839844v7.679687zm0 0"/><path d="m146.148438 191.519531 6.652343-3.839843v7.679687zm0 0"/><path d="m146.148438 199.203125 6.652343-3.84375v7.683594zm0 0"/><path d="m152.800781 203.042969 6.652344-3.839844v7.679687zm0 0"/><path d="m159.453125 206.882812 6.648437-3.839843v7.679687zm0 0"/><path d="m166.101562 210.722656 6.652344-3.839844v7.679688zm0 0"/><path d="m172.753906 214.5625 6.652344-3.839844v7.679688zm0 0"/><path d="m179.40625 218.402344 6.652344-3.839844v7.679688zm0 0"/><path d="m192.710938 210.722656 6.648437-3.839844v7.679688zm0 0"/><path d="m206.011719 203.042969 6.652343-3.839844v7.679687zm0 0"/><path d="m219.316406 203.042969 6.652344-3.839844v7.679687zm0 0"/><path d="m219.316406 195.359375 6.652344-3.839844v7.683594zm0 0"/><path d="m219.316406 180 6.652344-3.839844v7.679688zm0 0"/><path d="m219.316406 164.640625 6.652344-3.84375v7.683594zm0 0"/><path d="m219.316406 156.957031 6.652344-3.839843v7.679687zm0 0"/><path d="m212.664062 153.117188 6.652344-3.839844v7.679687zm0 0"/><path d="m206.011719 149.277344 6.652343-3.839844v7.679688zm0 0"/><path d="m199.359375 145.4375 6.652344-3.839844v7.679688zm0 0"/><path d="m192.710938 141.597656 6.648437-3.839844v7.679688zm0 0"/><path d="m186.058594 137.757812 6.652344-3.839843v7.679687zm0 0"/><path d="m179.40625 133.917969 6.652344-3.839844v7.679687zm0 0"/><path d="m172.753906 137.757812 6.652344-3.839843v7.679687zm0 0"/><path d="m166.101562 141.597656 6.652344-3.839844v7.679688zm0 0"/><path d="m146.148438 153.117188 6.652343-3.839844v7.679687zm0 0"/><path d="m139.496094 156.957031 6.652344-3.839843v7.679687zm0 0"/><path d="m139.496094 164.640625 6.652344-3.84375v7.683594zm0 0"/><path d="m139.496094 180 6.652344-3.839844v7.679688zm0 0"/><path d="m139.496094 195.359375 6.652344-3.839844v7.683594zm0 0"/><path d="m139.496094 203.042969 6.652344-3.839844v7.679687zm0 0"/><path d="m146.148438 206.882812 6.652343-3.839843v7.679687zm0 0"/><path d="m166.101562 218.402344 6.652344-3.839844v7.679688zm0 0"/><path d="m172.753906 222.242188 6.652344-3.839844v7.679687zm0 0"/><path d="m179.40625 226.082031 6.652344-3.839843v7.679687zm0 0"/><path d="m186.058594 222.242188 6.652344-3.839844v7.679687zm0 0"/><path d="m192.710938 218.402344 6.648437-3.839844v7.679688zm0 0"/><path d="m199.359375 214.5625 6.652344-3.839844v7.679688zm0 0"/><path d="m206.011719 210.722656 6.652343-3.839844v7.679688zm0 0"/><path d="m212.664062 206.882812 6.652344-3.839843v7.679687zm0 0"/><path d="m225.96875 206.882812 6.648438-3.839843v7.679687zm0 0"/><path d="m225.96875 199.203125 6.648438-3.84375v7.683594zm0 0"/><path d="m225.96875 160.796875 6.648438-3.839844v7.683594zm0 0"/><path d="m225.96875 153.117188 6.648438-3.839844v7.679687zm0 0"/><path d="m219.316406 149.277344 6.652344-3.839844v7.679688zm0 0"/><path d="m212.664062 145.4375 6.652344-3.839844v7.679688zm0 0"/><path d="m199.359375 137.757812 6.652344-3.839843v7.679687zm0 0"/><path d="m186.058594 130.078125 6.652344-3.84375v7.683594zm0 0"/><path d="m179.40625 126.234375 6.652344-3.839844v7.683594zm0 0"/><path d="m172.753906 130.078125 6.652344-3.84375v7.683594zm0 0"/><path d="m166.101562 133.917969 6.652344-3.839844v7.679687zm0 0"/><path d="m152.800781 141.597656 6.652344-3.839844v7.679688zm0 0"/><path d="m139.496094 149.277344 6.652344-3.839844v7.679688zm0 0"/><path d="m132.84375 153.117188 6.652344-3.839844v7.679687zm0 0"/><path d="m132.84375 160.796875 6.652344-3.839844v7.683594zm0 0"/><path d="m132.84375 168.480469 6.652344-3.839844v7.679687zm0 0"/><path d="m132.84375 176.160156 6.652344-3.839844v7.679688zm0 0"/><path d="m132.84375 183.839844 6.652344-3.839844v7.679688zm0 0"/><path d="m132.84375 191.519531 6.652344-3.839843v7.679687zm0 0"/><path d="m132.84375 199.203125 6.652344-3.84375v7.683594zm0 0"/><path d="m132.84375 206.882812 6.652344-3.839843v7.679687zm0 0"/><path d="m139.496094 210.722656 6.652344-3.839844v7.679688zm0 0"/><path d="m152.800781 218.402344 6.652344-3.839844v7.679688zm0 0"/><path d="m166.101562 226.082031 6.652344-3.839843v7.679687zm0 0"/><path d="m172.753906 229.921875 6.652344-3.839844v7.683594zm0 0"/><path d="m179.40625 233.765625 6.652344-3.84375v7.683594zm0 0"/><path d="m186.058594 229.921875 6.652344-3.839844v7.683594zm0 0"/><path d="m199.359375 222.242188 6.652344-3.839844v7.679687zm0 0"/><path d="m212.664062 214.5625 6.652344-3.839844v7.679688zm0 0"/><path d="m219.316406 210.722656 6.652344-3.839844v7.679688zm0 0"/><path d="m232.617188 203.042969 6.652343-3.839844v7.679687zm0 0"/><path d="m232.617188 195.359375 6.652343-3.839844v7.683594zm0 0"/><path d="m232.617188 187.679688 6.652343-3.839844v7.679687zm0 0"/><path d="m232.617188 172.320312 6.652343-3.839843v7.679687zm0 0"/><path d="m232.617188 164.640625 6.652343-3.84375v7.683594zm0 0"/><path d="m232.617188 156.957031 6.652343-3.839843v7.679687zm0 0"/><path d="m225.96875 145.4375 6.648438-3.839844v7.679688zm0 0"/><path d="m219.316406 141.597656 6.652344-3.839844v7.679688zm0 0"/><path d="m186.058594 122.394531 6.652344-3.839843v7.679687zm0 0"/><path d="m179.40625 118.554688 6.652344-3.839844v7.679687zm0 0"/><path d="m172.753906 122.394531 6.652344-3.839843v7.679687zm0 0"/><path d="m166.101562 126.234375 6.652344-3.839844v7.683594zm0 0"/><path d="m132.84375 145.4375 6.652344-3.839844v7.679688zm0 0"/><path d="m126.195312 149.277344 6.648438-3.839844v7.679688zm0 0"/><path d="m126.195312 156.957031 6.648438-3.839843v7.679687zm0 0"/><path d="m126.195312 164.640625 6.648438-3.84375v7.683594zm0 0"/><path d="m126.195312 180 6.648438-3.839844v7.679688zm0 0"/><path d="m126.195312 195.359375 6.648438-3.839844v7.683594zm0 0"/><path d="m126.195312 203.042969 6.648438-3.839844v7.679687zm0 0"/><path d="m126.195312 210.722656 6.648438-3.839844v7.679688zm0 0"/><path d="m132.84375 214.5625 6.652344-3.839844v7.679688zm0 0"/><path d="m166.101562 233.765625 6.652344-3.84375v7.683594zm0 0"/><path d="m172.753906 237.605469 6.652344-3.839844v7.679687zm0 0"/><path d="m179.40625 241.445312 6.652344-3.839843v7.679687zm0 0"/><path d="m186.058594 237.605469 6.652344-3.839844v7.679687zm0 0"/><path d="m219.316406 218.402344 6.652344-3.839844v7.679688zm0 0"/><path d="m225.96875 214.5625 6.648438-3.839844v7.679688zm0 0"/><path d="m239.269531 206.882812 6.652344-3.839843v7.679687zm0 0"/><path d="m239.269531 199.203125 6.652344-3.84375v7.683594zm0 0"/><path d="m239.269531 191.519531 6.652344-3.839843v7.679687zm0 0"/><path d="m239.269531 168.480469 6.652344-3.839844v7.679687zm0 0"/><path d="m239.269531 160.796875 6.652344-3.839844v7.683594zm0 0"/><path d="m239.269531 153.117188 6.652344-3.839844v7.679687zm0 0"/><path d="m225.96875 137.757812 6.648438-3.839843v7.679687zm0 0"/><path d="m219.316406 133.917969 6.652344-3.839844v7.679687zm0 0"/><path d="m212.664062 130.078125 6.652344-3.84375v7.683594zm0 0"/><path d="m206.011719 126.234375 6.652343-3.839844v7.683594zm0 0"/><path d="m199.359375 122.394531 6.652344-3.839843v7.679687zm0 0"/><path d="m192.710938 118.554688 6.648437-3.839844v7.679687zm0 0"/><path d="m186.058594 114.714844 6.652344-3.839844v7.679688zm0 0"/><path d="m166.101562 118.554688 6.652344-3.839844v7.679687zm0 0"/><path d="m159.453125 122.394531 6.648437-3.839843v7.679687zm0 0"/><path d="m152.800781 126.234375 6.652344-3.839844v7.683594zm0 0"/><path d="m139.496094 133.917969 6.652344-3.839844v7.679687zm0 0"/><path d="m132.84375 137.757812 6.652344-3.839843v7.679687zm0 0"/><path d="m126.195312 141.597656 6.648438-3.839844v7.679688zm0 0"/><path d="m119.542969 153.117188 6.652343-3.839844v7.679687zm0 0"/><path d="m119.542969 160.796875 6.652343-3.839844v7.683594zm0 0"/><path d="m119.542969 199.203125 6.652343-3.84375v7.683594zm0 0"/><path d="m119.542969 206.882812 6.652343-3.839843v7.679687zm0 0"/><path d="m126.195312 218.402344 6.648438-3.839844v7.679688zm0 0"/><path d="m132.84375 222.242188 6.652344-3.839844v7.679687zm0 0"/><path d="m139.496094 226.082031 6.652344-3.839843v7.679687zm0 0"/><path d="m152.800781 233.765625 6.652344-3.84375v7.683594zm0 0"/><path d="m159.453125 237.605469 6.648437-3.839844v7.679687zm0 0"/><path d="m166.101562 241.445312 6.652344-3.839843v7.679687zm0 0"/><path d="m186.058594 245.285156 6.652344-3.839844v7.679688zm0 0"/><path d="m192.710938 241.445312 6.648437-3.839843v7.679687zm0 0"/><path d="m199.359375 237.605469 6.652344-3.839844v7.679687zm0 0"/><path d="m206.011719 233.765625 6.652343-3.84375v7.683594zm0 0"/><path d="m212.664062 229.921875 6.652344-3.839844v7.683594zm0 0"/><path d="m219.316406 226.082031 6.652344-3.839843v7.679687zm0 0"/><path d="m225.96875 222.242188 6.648438-3.839844v7.679687zm0 0"/><path d="m245.921875 187.679688 6.652344-3.839844v7.679687zm0 0"/><path d="m245.921875 180 6.652344-3.839844v7.679688zm0 0"/><path d="m245.921875 172.320312 6.652344-3.839843v7.679687zm0 0"/><path d="m232.617188 133.917969 6.652343-3.839844v7.679687zm0 0"/><path d="m219.316406 126.234375 6.652344-3.839844v7.683594zm0 0"/><path d="m212.664062 122.394531 6.652344-3.839843v7.679687zm0 0"/><path d="m206.011719 118.554688 6.652343-3.839844v7.679687zm0 0"/><path d="m199.359375 114.714844 6.652344-3.839844v7.679688zm0 0"/><path d="m186.058594 107.035156 6.652344-3.839844v7.679688zm0 0"/><path d="m166.101562 110.875 6.652344-3.839844v7.679688zm0 0"/><path d="m159.453125 114.714844 6.648437-3.839844v7.679688zm0 0"/><path d="m152.800781 118.554688 6.652344-3.839844v7.679687zm0 0"/><path d="m132.84375 130.078125 6.652344-3.84375v7.683594zm0 0"/><path d="m126.195312 133.917969 6.648438-3.839844v7.679687zm0 0"/><path d="m119.542969 137.757812 6.652343-3.839843v7.679687zm0 0"/><path d="m112.890625 156.957031 6.652344-3.839843v7.679687zm0 0"/><path d="m112.890625 164.640625 6.652344-3.84375v7.683594zm0 0"/><path d="m112.890625 172.320312 6.652344-3.839843v7.679687zm0 0"/><path d="m112.890625 180 6.652344-3.839844v7.679688zm0 0"/><path d="m112.890625 187.679688 6.652344-3.839844v7.679687zm0 0"/><path d="m112.890625 195.359375 6.652344-3.839844v7.683594zm0 0"/><path d="m112.890625 203.042969 6.652344-3.839844v7.679687zm0 0"/><path d="m119.542969 222.242188 6.652343-3.839844v7.679687zm0 0"/><path d="m126.195312 226.082031 6.648438-3.839843v7.679687zm0 0"/><path d="m132.84375 229.921875 6.652344-3.839844v7.683594zm0 0"/><path d="m152.800781 241.445312 6.652344-3.839843v7.679687zm0 0"/><path d="m159.453125 245.285156 6.648437-3.839844v7.679688zm0 0"/><path d="m166.101562 249.125 6.652344-3.839844v7.679688zm0 0"/><path d="m186.058594 252.964844 6.652344-3.839844v7.679688zm0 0"/><path d="m199.359375 245.285156 6.652344-3.839844v7.679688zm0 0"/><path d="m206.011719 241.445312 6.652343-3.839843v7.679687zm0 0"/><path d="m212.664062 237.605469 6.652344-3.839844v7.679687zm0 0"/><path d="m219.316406 233.765625 6.652344-3.84375v7.683594zm0 0"/><path d="m232.617188 226.082031 6.652343-3.839843v7.679687zm0 0"/><path d="m252.574219 222.242188 6.652343-3.839844v7.679687zm0 0"/><path d="m252.574219 214.5625 6.652343-3.839844v7.679688zm0 0"/><path d="m252.574219 191.519531 6.652343-3.839843v7.679687zm0 0"/><path d="m252.574219 168.480469 6.652343-3.839844v7.679687zm0 0"/><path d="m252.574219 145.4375 6.652343-3.839844v7.679688zm0 0"/><path d="m252.574219 137.757812 6.652343-3.839843v7.679687zm0 0"/><path d="m225.96875 122.394531 6.648438-3.839843v7.679687zm0 0"/><path d="m219.316406 118.554688 6.652344-3.839844v7.679687zm0 0"/><path d="m212.664062 114.714844 6.652344-3.839844v7.679688zm0 0"/><path d="m206.011719 110.875 6.652343-3.839844v7.679688zm0 0"/><path d="m199.359375 107.035156 6.652344-3.839844v7.679688zm0 0"/><path d="m146.148438 114.714844 6.652343-3.839844v7.679688zm0 0"/><path d="m139.496094 118.554688 6.652344-3.839844v7.679687zm0 0"/><path d="m132.84375 122.394531 6.652344-3.839843v7.679687zm0 0"/><path d="m106.238281 153.117188 6.652344-3.839844v7.679687zm0 0"/><path d="m106.238281 168.480469 6.652344-3.839844v7.679687zm0 0"/><path d="m106.238281 176.160156 6.652344-3.839844v7.679688zm0 0"/><path d="m106.238281 183.839844 6.652344-3.839844v7.679688zm0 0"/><path d="m106.238281 191.519531 6.652344-3.839843v7.679687zm0 0"/><path d="m106.238281 206.882812 6.652344-3.839843v7.679687zm0 0"/><path d="m132.84375 237.605469 6.652344-3.839844v7.679687zm0 0"/><path d="m139.496094 241.445312 6.652344-3.839843v7.679687zm0 0"/><path d="m146.148438 245.285156 6.652343-3.839844v7.679688zm0 0"/><path d="m199.359375 252.964844 6.652344-3.839844v7.679688zm0 0"/><path d="m206.011719 249.125 6.652343-3.839844v7.679688zm0 0"/><path d="m212.664062 245.285156 6.652344-3.839844v7.679688zm0 0"/><path d="m219.316406 241.445312 6.652344-3.839843v7.679687zm0 0"/><path d="m225.96875 237.605469 6.648438-3.839844v7.679687zm0 0"/><path d="m259.226562 218.402344 6.648438-3.839844v7.679688zm0 0"/><path d="m259.226562 195.359375 6.648438-3.839844v7.683594zm0 0"/><path d="m259.226562 164.640625 6.648438-3.84375v7.683594zm0 0"/><path d="m259.226562 141.597656 6.648438-3.839844v7.679688zm0 0"/><path d="m252.574219 130.078125 6.652343-3.84375v7.683594zm0 0"/><path d="m232.617188 118.554688 6.652343-3.839844v7.679687zm0 0"/><path d="m199.359375 99.355469 6.652344-3.839844v7.679687zm0 0"/><path d="m179.40625 87.832031 6.652344-3.839843v7.679687zm0 0"/><path d="m172.753906 91.671875 6.652344-3.839844v7.683594zm0 0"/><path d="m166.101562 95.515625 6.652344-3.84375v7.683594zm0 0"/><path d="m146.148438 107.035156 6.652343-3.839844v7.679688zm0 0"/><path d="m126.195312 118.554688 6.648438-3.839844v7.679687zm0 0"/><path d="m106.238281 130.078125 6.652344-3.84375v7.683594zm0 0"/><path d="m99.585938 133.917969 6.652343-3.839844v7.679687zm0 0"/><path d="m99.585938 164.640625 6.652343-3.84375v7.683594zm0 0"/><path d="m99.585938 172.320312 6.652343-3.839843v7.679687zm0 0"/><path d="m99.585938 180 6.652343-3.839844v7.679688zm0 0"/><path d="m99.585938 187.679688 6.652343-3.839844v7.679687zm0 0"/><path d="m99.585938 195.359375 6.652343-3.839844v7.683594zm0 0"/><path d="m99.585938 226.082031 6.652343-3.839843v7.679687zm0 0"/><path d="m106.238281 229.921875 6.652344-3.839844v7.683594zm0 0"/><path d="m126.195312 241.445312 6.648438-3.839843v7.679687zm0 0"/><path d="m146.148438 252.964844 6.652343-3.839844v7.679688zm0 0"/><path d="m166.101562 264.484375 6.652344-3.839844v7.683594zm0 0"/><path d="m172.753906 268.328125 6.652344-3.84375v7.683594zm0 0"/><path d="m179.40625 272.167969 6.652344-3.839844v7.679687zm0 0"/><path d="m199.359375 260.644531 6.652344-3.839843v7.679687zm0 0"/><path d="m232.617188 241.445312 6.652343-3.839843v7.679687zm0 0"/><path d="m252.574219 229.921875 6.652343-3.839844v7.683594zm0 0"/><path d="m265.875 222.242188 6.652344-3.839844v7.679687zm0 0"/><path d="m265.875 214.5625 6.652344-3.839844v7.679688zm0 0"/><path d="m265.875 199.203125 6.652344-3.84375v7.683594zm0 0"/><path d="m265.875 191.519531 6.652344-3.839843v7.679687zm0 0"/><path d="m265.875 168.480469 6.652344-3.839844v7.679687zm0 0"/><path d="m265.875 160.796875 6.652344-3.839844v7.683594zm0 0"/><path d="m265.875 145.4375 6.652344-3.839844v7.679688zm0 0"/><path d="m265.875 137.757812 6.652344-3.839843v7.679687zm0 0"/><path d="m259.226562 126.234375 6.648438-3.839844v7.683594zm0 0"/><path d="m232.617188 110.875 6.652343-3.839844v7.679688zm0 0"/><path d="m206.011719 95.515625 6.652343-3.84375v7.683594zm0 0"/><path d="m179.40625 80.152344 6.652344-3.839844v7.679688zm0 0"/><path d="m166.101562 87.832031 6.652344-3.839843v7.679687zm0 0"/><path d="m146.148438 99.355469 6.652343-3.839844v7.679687zm0 0"/><path d="m119.542969 114.714844 6.652343-3.839844v7.679688zm0 0"/><path d="m99.585938 126.234375 6.652343-3.839844v7.683594zm0 0"/><path d="m92.933594 137.757812 6.652344-3.839843v7.679687zm0 0"/><path d="m92.933594 160.796875 6.652344-3.839844v7.683594zm0 0"/><path d="m92.933594 199.203125 6.652344-3.84375v7.683594zm0 0"/><path d="m92.933594 222.242188 6.652344-3.839844v7.679687zm0 0"/><path d="m99.585938 233.765625 6.652343-3.84375v7.683594zm0 0"/><path d="m119.542969 245.285156 6.652343-3.839844v7.679688zm0 0"/><path d="m146.148438 260.644531 6.652343-3.839843v7.679687zm0 0"/><path d="m166.101562 272.167969 6.652344-3.839844v7.679687zm0 0"/><path d="m179.40625 279.847656 6.652344-3.839844v7.679688zm0 0"/><path d="m206.011719 264.484375 6.652343-3.839844v7.683594zm0 0"/><path d="m232.617188 249.125 6.652343-3.839844v7.679688zm0 0"/><path d="m259.226562 233.765625 6.648438-3.84375v7.683594zm0 0"/><path d="m272.527344 210.722656 6.652344-3.839844v7.679688zm0 0"/><path d="m272.527344 187.679688 6.652344-3.839844v7.679687zm0 0"/><path d="m272.527344 180 6.652344-3.839844v7.679688zm0 0"/><path d="m272.527344 172.320312 6.652344-3.839843v7.679687zm0 0"/><path d="m272.527344 149.277344 6.652344-3.839844v7.679688zm0 0"/><path d="m252.574219 114.714844 6.652343-3.839844v7.679688zm0 0"/><path d="m245.921875 110.875 6.652344-3.839844v7.679688zm0 0"/><path d="m239.269531 107.035156 6.652344-3.839844v7.679688zm0 0"/><path d="m232.617188 103.195312 6.652343-3.839843v7.679687zm0 0"/><path d="m225.96875 99.355469 6.648438-3.839844v7.679687zm0 0"/><path d="m219.316406 95.515625 6.652344-3.84375v7.683594zm0 0"/><path d="m212.664062 91.671875 6.652344-3.839844v7.683594zm0 0"/><path d="m206.011719 87.832031 6.652343-3.839843v7.679687zm0 0"/><path d="m199.359375 83.992188 6.652344-3.839844v7.679687zm0 0"/><path d="m192.710938 80.152344 6.648437-3.839844v7.679688zm0 0"/><path d="m166.101562 80.152344 6.652344-3.839844v7.679688zm0 0"/><path d="m159.453125 83.992188 6.648437-3.839844v7.679687zm0 0"/><path d="m146.148438 91.671875 6.652343-3.839844v7.683594zm0 0"/><path d="m139.496094 95.515625 6.652344-3.84375v7.683594zm0 0"/><path d="m119.542969 107.035156 6.652343-3.839844v7.679688zm0 0"/><path d="m112.890625 110.875 6.652344-3.839844v7.679688zm0 0"/><path d="m99.585938 118.554688 6.652343-3.839844v7.679687zm0 0"/><path d="m92.933594 122.394531 6.652344-3.839843v7.679687zm0 0"/><path d="m86.285156 133.917969 6.648438-3.839844v7.679687zm0 0"/><path d="m86.285156 164.640625 6.648438-3.84375v7.683594zm0 0"/><path d="m86.285156 195.359375 6.648438-3.839844v7.683594zm0 0"/><path d="m86.285156 226.082031 6.648438-3.839843v7.679687zm0 0"/><path d="m92.933594 237.605469 6.652344-3.839844v7.679687zm0 0"/><path d="m99.585938 241.445312 6.652343-3.839843v7.679687zm0 0"/><path d="m112.890625 249.125 6.652344-3.839844v7.679688zm0 0"/><path d="m119.542969 252.964844 6.652343-3.839844v7.679688zm0 0"/><path d="m139.496094 264.484375 6.652344-3.839844v7.683594zm0 0"/><path d="m146.148438 268.328125 6.652343-3.84375v7.683594zm0 0"/><path d="m159.453125 276.007812 6.648437-3.839843v7.679687zm0 0"/><path d="m166.101562 279.847656 6.652344-3.839844v7.679688zm0 0"/><path d="m192.710938 279.847656 6.648437-3.839844v7.679688zm0 0"/><path d="m199.359375 276.007812 6.652344-3.839843v7.679687zm0 0"/><path d="m206.011719 272.167969 6.652343-3.839844v7.679687zm0 0"/><path d="m212.664062 268.328125 6.652344-3.84375v7.683594zm0 0"/><path d="m219.316406 264.484375 6.652344-3.839844v7.683594zm0 0"/><path d="m225.96875 260.644531 6.648438-3.839843v7.679687zm0 0"/><path d="m232.617188 256.804688 6.652343-3.839844v7.679687zm0 0"/><path d="m239.269531 252.964844 6.652344-3.839844v7.679688zm0 0"/><path d="m245.921875 249.125 6.652344-3.839844v7.679688zm0 0"/><path d="m252.574219 245.285156 6.652343-3.839844v7.679688zm0 0"/><path d="m279.179688 191.519531 6.652343-3.839843v7.679687zm0 0"/><path d="m279.179688 168.480469 6.652343-3.839844v7.679687zm0 0"/><path d="m239.269531 99.355469 6.652344-3.839844v7.679687zm0 0"/><path d="m225.96875 91.671875 6.648438-3.839844v7.683594zm0 0"/><path d="m212.664062 83.992188 6.652344-3.839844v7.679687zm0 0"/><path d="m152.800781 80.152344 6.652344-3.839844v7.679688zm0 0"/><path d="m132.84375 91.671875 6.652344-3.839844v7.683594zm0 0"/><path d="m126.195312 95.515625 6.648438-3.84375v7.683594zm0 0"/><path d="m119.542969 99.355469 6.652343-3.839844v7.679687zm0 0"/><path d="m99.585938 110.875 6.652343-3.839844v7.679688zm0 0"/><path d="m79.632812 145.4375 6.652344-3.839844v7.679688zm0 0"/><path d="m79.632812 153.117188 6.652344-3.839844v7.679687zm0 0"/><path d="m79.632812 160.796875 6.652344-3.839844v7.683594zm0 0"/><path d="m79.632812 168.480469 6.652344-3.839844v7.679687zm0 0"/><path d="m79.632812 176.160156 6.652344-3.839844v7.679688zm0 0"/><path d="m79.632812 183.839844 6.652344-3.839844v7.679688zm0 0"/><path d="m79.632812 191.519531 6.652344-3.839843v7.679687zm0 0"/><path d="m79.632812 199.203125 6.652344-3.84375v7.683594zm0 0"/><path d="m79.632812 206.882812 6.652344-3.839843v7.679687zm0 0"/><path d="m79.632812 214.5625 6.652344-3.839844v7.679688zm0 0"/><path d="m99.585938 249.125 6.652343-3.839844v7.679688zm0 0"/><path d="m119.542969 260.644531 6.652343-3.839843v7.679687zm0 0"/><path d="m126.195312 264.484375 6.648438-3.839844v7.683594zm0 0"/><path d="m132.84375 268.328125 6.652344-3.84375v7.683594zm0 0"/><path d="m152.800781 279.847656 6.652344-3.839844v7.679688zm0 0"/><path d="m212.664062 276.007812 6.652344-3.839843v7.679687zm0 0"/><path d="m225.96875 268.328125 6.648438-3.84375v7.683594zm0 0"/><path d="m239.269531 260.644531 6.652344-3.839843v7.679687zm0 0"/><path d="m285.832031 180 6.652344-3.839844v7.679688zm0 0"/><path d="m232.617188 87.832031 6.652343-3.839843v7.679687zm0 0"/><path d="m225.96875 83.992188 6.648438-3.839844v7.679687zm0 0"/><path d="m132.84375 83.992188 6.652344-3.839844v7.679687zm0 0"/><path d="m112.890625 95.515625 6.652344-3.84375v7.683594zm0 0"/><path d="m72.980469 164.640625 6.652343-3.84375v7.683594zm0 0"/><path d="m72.980469 180 6.652343-3.839844v7.679688zm0 0"/><path d="m72.980469 195.359375 6.652343-3.839844v7.683594zm0 0"/><path d="m112.890625 264.484375 6.652344-3.839844v7.683594zm0 0"/><path d="m132.84375 276.007812 6.652344-3.839843v7.679687zm0 0"/><path d="m225.96875 276.007812 6.648438-3.839843v7.679687zm0 0"/><path d="m232.617188 272.167969 6.652343-3.839844v7.679687zm0 0"/><path d="m232.617188 80.152344 6.652343-3.839844v7.679688zm0 0"/><path d="m119.542969 83.992188 6.652343-3.839844v7.679687zm0 0"/><path d="m66.328125 176.160156 6.652344-3.839844v7.679688zm0 0"/><path d="m66.328125 183.839844 6.652344-3.839844v7.679688zm0 0"/><path d="m119.542969 276.007812 6.652343-3.839843v7.679687zm0 0"/><path d="m232.617188 279.847656 6.652343-3.839844v7.679688zm0 0"/><path d="m59.675781 180 6.652344-3.839844v7.679688zm0 0"/><path d="m192.710938 180-6.652344-3.839844v7.679688zm0 0"/><path d="m199.359375 183.839844-6.648437-3.839844v7.679688zm0 0"/><path d="m199.359375 176.160156-6.648437-3.839844v7.679688zm0 0"/><path d="m192.710938 172.320312-6.652344-3.839843v7.679687zm0 0"/><path d="m186.058594 168.480469-6.652344-3.839844v7.679687zm0 0"/><path d="m179.40625 172.320312-6.652344-3.839843v7.679687zm0 0"/><path d="m179.40625 187.679688-6.652344-3.839844v7.679687zm0 0"/><path d="m186.058594 191.519531-6.652344-3.839843v7.679687zm0 0"/><path d="m192.710938 187.679688-6.652344-3.839844v7.679687zm0 0"/><path d="m206.011719 187.679688-6.652344-3.839844v7.679687zm0 0"/><path d="m206.011719 180-6.652344-3.839844v7.679688zm0 0"/><path d="m206.011719 172.320312-6.652344-3.839843v7.679687zm0 0"/><path d="m192.710938 164.640625-6.652344-3.84375v7.683594zm0 0"/><path d="m179.40625 164.640625-6.652344-3.84375v7.683594zm0 0"/><path d="m172.753906 168.480469-6.652344-3.839844v7.679687zm0 0"/><path d="m172.753906 176.160156-6.652344-3.839844v7.679688zm0 0"/><path d="m172.753906 183.839844-6.652344-3.839844v7.679688zm0 0"/><path d="m172.753906 191.519531-6.652344-3.839843v7.679687zm0 0"/><path d="m179.40625 195.359375-6.652344-3.839844v7.683594zm0 0"/><path d="m192.710938 195.359375-6.652344-3.839844v7.683594zm0 0"/><path d="m212.664062 191.519531-6.652343-3.839843v7.679687zm0 0"/><path d="m212.664062 168.480469-6.652343-3.839844v7.679687zm0 0"/><path d="m206.011719 164.640625-6.652344-3.84375v7.683594zm0 0"/><path d="m199.359375 160.796875-6.648437-3.839844v7.683594zm0 0"/><path d="m192.710938 156.957031-6.652344-3.839843v7.679687zm0 0"/><path d="m186.058594 153.117188-6.652344-3.839844v7.679687zm0 0"/><path d="m179.40625 156.957031-6.652344-3.839843v7.679687zm0 0"/><path d="m172.753906 160.796875-6.652344-3.839844v7.683594zm0 0"/><path d="m166.101562 164.640625-6.648437-3.84375v7.683594zm0 0"/><path d="m166.101562 180-6.648437-3.839844v7.679688zm0 0"/><path d="m166.101562 195.359375-6.648437-3.839844v7.683594zm0 0"/><path d="m172.753906 199.203125-6.652344-3.84375v7.683594zm0 0"/><path d="m179.40625 203.042969-6.652344-3.839844v7.679687zm0 0"/><path d="m186.058594 206.882812-6.652344-3.839843v7.679687zm0 0"/><path d="m192.710938 203.042969-6.652344-3.839844v7.679687zm0 0"/><path d="m199.359375 199.203125-6.648437-3.84375v7.683594zm0 0"/><path d="m206.011719 195.359375-6.652344-3.839844v7.683594zm0 0"/><path d="m219.316406 195.359375-6.652344-3.839844v7.683594zm0 0"/><path d="m219.316406 180-6.652344-3.839844v7.679688zm0 0"/><path d="m219.316406 164.640625-6.652344-3.84375v7.683594zm0 0"/><path d="m212.664062 160.796875-6.652343-3.839844v7.683594zm0 0"/><path d="m206.011719 156.957031-6.652344-3.839843v7.679687zm0 0"/><path d="m199.359375 153.117188-6.648437-3.839844v7.679687zm0 0"/><path d="m192.710938 149.277344-6.652344-3.839844v7.679688zm0 0"/><path d="m186.058594 145.4375-6.652344-3.839844v7.679688zm0 0"/><path d="m179.40625 149.277344-6.652344-3.839844v7.679688zm0 0"/><path d="m159.453125 160.796875-6.652344-3.839844v7.683594zm0 0"/><path d="m159.453125 168.480469-6.652344-3.839844v7.679687zm0 0"/><path d="m159.453125 176.160156-6.652344-3.839844v7.679688zm0 0"/><path d="m159.453125 183.839844-6.652344-3.839844v7.679688zm0 0"/><path d="m159.453125 191.519531-6.652344-3.839843v7.679687zm0 0"/><path d="m159.453125 199.203125-6.652344-3.84375v7.683594zm0 0"/><path d="m179.40625 210.722656-6.652344-3.839844v7.679688zm0 0"/><path d="m186.058594 214.5625-6.652344-3.839844v7.679688zm0 0"/><path d="m192.710938 210.722656-6.652344-3.839844v7.679688zm0 0"/><path d="m199.359375 206.882812-6.648437-3.839843v7.679687zm0 0"/><path d="m206.011719 203.042969-6.652344-3.839844v7.679687zm0 0"/><path d="m212.664062 199.203125-6.652343-3.84375v7.683594zm0 0"/><path d="m225.96875 199.203125-6.652344-3.84375v7.683594zm0 0"/><path d="m225.96875 191.519531-6.652344-3.839843v7.679687zm0 0"/><path d="m225.96875 183.839844-6.652344-3.839844v7.679688zm0 0"/><path d="m225.96875 176.160156-6.652344-3.839844v7.679688zm0 0"/><path d="m225.96875 168.480469-6.652344-3.839844v7.679687zm0 0"/><path d="m225.96875 160.796875-6.652344-3.839844v7.683594zm0 0"/><path d="m219.316406 156.957031-6.652344-3.839843v7.679687zm0 0"/><path d="m212.664062 153.117188-6.652343-3.839844v7.679687zm0 0"/><path d="m192.710938 141.597656-6.652344-3.839844v7.679688zm0 0"/><path d="m186.058594 137.757812-6.652344-3.839843v7.679687zm0 0"/><path d="m179.40625 141.597656-6.652344-3.839844v7.679688zm0 0"/><path d="m166.101562 149.277344-6.648437-3.839844v7.679688zm0 0"/><path d="m152.800781 156.957031-6.652343-3.839843v7.679687zm0 0"/><path d="m152.800781 164.640625-6.652343-3.84375v7.683594zm0 0"/><path d="m152.800781 172.320312-6.652343-3.839843v7.679687zm0 0"/><path d="m152.800781 180-6.652343-3.839844v7.679688zm0 0"/><path d="m152.800781 187.679688-6.652343-3.839844v7.679687zm0 0"/><path d="m152.800781 195.359375-6.652343-3.839844v7.683594zm0 0"/><path d="m152.800781 203.042969-6.652343-3.839844v7.679687zm0 0"/><path d="m166.101562 210.722656-6.648437-3.839844v7.679688zm0 0"/><path d="m179.40625 218.402344-6.652344-3.839844v7.679688zm0 0"/><path d="m186.058594 222.242188-6.652344-3.839844v7.679687zm0 0"/><path d="m192.710938 218.402344-6.652344-3.839844v7.679688zm0 0"/><path d="m212.664062 206.882812-6.652343-3.839843v7.679687zm0 0"/><path d="m219.316406 203.042969-6.652344-3.839844v7.679687zm0 0"/><path d="m232.617188 203.042969-6.648438-3.839844v7.679687zm0 0"/><path d="m232.617188 195.359375-6.648438-3.839844v7.683594zm0 0"/><path d="m232.617188 180-6.648438-3.839844v7.679688zm0 0"/><path d="m232.617188 164.640625-6.648438-3.84375v7.683594zm0 0"/><path d="m232.617188 156.957031-6.648438-3.839843v7.679687zm0 0"/><path d="m225.96875 153.117188-6.652344-3.839844v7.679687zm0 0"/><path d="m219.316406 149.277344-6.652344-3.839844v7.679688zm0 0"/><path d="m206.011719 141.597656-6.652344-3.839844v7.679688zm0 0"/><path d="m192.710938 133.917969-6.652344-3.839844v7.679687zm0 0"/><path d="m186.058594 130.078125-6.652344-3.84375v7.683594zm0 0"/><path d="m179.40625 133.917969-6.652344-3.839844v7.679687zm0 0"/><path d="m172.753906 137.757812-6.652344-3.839843v7.679687zm0 0"/><path d="m166.101562 141.597656-6.648437-3.839844v7.679688zm0 0"/><path d="m159.453125 145.4375-6.652344-3.839844v7.679688zm0 0"/><path d="m152.800781 149.277344-6.652343-3.839844v7.679688zm0 0"/><path d="m146.148438 153.117188-6.652344-3.839844v7.679687zm0 0"/><path d="m146.148438 160.796875-6.652344-3.839844v7.683594zm0 0"/><path d="m146.148438 168.480469-6.652344-3.839844v7.679687zm0 0"/><path d="m146.148438 191.519531-6.652344-3.839843v7.679687zm0 0"/><path d="m146.148438 199.203125-6.652344-3.84375v7.683594zm0 0"/><path d="m146.148438 206.882812-6.652344-3.839843v7.679687zm0 0"/><path d="m152.800781 210.722656-6.652343-3.839844v7.679688zm0 0"/><path d="m159.453125 214.5625-6.652344-3.839844v7.679688zm0 0"/><path d="m166.101562 218.402344-6.648437-3.839844v7.679688zm0 0"/><path d="m172.753906 222.242188-6.652344-3.839844v7.679687zm0 0"/><path d="m179.40625 226.082031-6.652344-3.839843v7.679687zm0 0"/><path d="m186.058594 229.921875-6.652344-3.839844v7.683594zm0 0"/><path d="m192.710938 226.082031-6.652344-3.839843v7.679687zm0 0"/><path d="m206.011719 218.402344-6.652344-3.839844v7.679688zm0 0"/><path d="m219.316406 210.722656-6.652344-3.839844v7.679688zm0 0"/><path d="m225.96875 206.882812-6.652344-3.839843v7.679687zm0 0"/><path d="m239.269531 206.882812-6.652343-3.839843v7.679687zm0 0"/><path d="m239.269531 199.203125-6.652343-3.84375v7.683594zm0 0"/><path d="m239.269531 160.796875-6.652343-3.839844v7.683594zm0 0"/><path d="m239.269531 153.117188-6.652343-3.839844v7.679687zm0 0"/><path d="m232.617188 149.277344-6.648438-3.839844v7.679688zm0 0"/><path d="m225.96875 145.4375-6.652344-3.839844v7.679688zm0 0"/><path d="m192.710938 126.234375-6.652344-3.839844v7.683594zm0 0"/><path d="m186.058594 122.394531-6.652344-3.839843v7.679687zm0 0"/><path d="m179.40625 126.234375-6.652344-3.839844v7.683594zm0 0"/><path d="m172.753906 130.078125-6.652344-3.84375v7.683594zm0 0"/><path d="m159.453125 137.757812-6.652344-3.839843v7.679687zm0 0"/><path d="m146.148438 145.4375-6.652344-3.839844v7.679688zm0 0"/><path d="m139.496094 149.277344-6.652344-3.839844v7.679688zm0 0"/><path d="m139.496094 156.957031-6.652344-3.839843v7.679687zm0 0"/><path d="m139.496094 164.640625-6.652344-3.84375v7.683594zm0 0"/><path d="m139.496094 180-6.652344-3.839844v7.679688zm0 0"/><path d="m139.496094 195.359375-6.652344-3.839844v7.683594zm0 0"/><path d="m139.496094 203.042969-6.652344-3.839844v7.679687zm0 0"/><path d="m139.496094 210.722656-6.652344-3.839844v7.679688zm0 0"/><path d="m146.148438 214.5625-6.652344-3.839844v7.679688zm0 0"/><path d="m159.453125 222.242188-6.652344-3.839844v7.679687zm0 0"/><path d="m172.753906 229.921875-6.652344-3.839844v7.683594zm0 0"/><path d="m179.40625 233.765625-6.652344-3.84375v7.683594zm0 0"/><path d="m186.058594 237.605469-6.652344-3.839844v7.679687zm0 0"/><path d="m192.710938 233.765625-6.652344-3.84375v7.683594zm0 0"/><path d="m225.96875 214.5625-6.652344-3.839844v7.679688zm0 0"/><path d="m232.617188 210.722656-6.648438-3.839844v7.679688zm0 0"/><path d="m245.921875 203.042969-6.652344-3.839844v7.679687zm0 0"/><path d="m245.921875 195.359375-6.652344-3.839844v7.683594zm0 0"/><path d="m245.921875 187.679688-6.652344-3.839844v7.679687zm0 0"/><path d="m245.921875 180-6.652344-3.839844v7.679688zm0 0"/><path d="m245.921875 172.320312-6.652344-3.839843v7.679687zm0 0"/><path d="m245.921875 164.640625-6.652344-3.84375v7.683594zm0 0"/><path d="m245.921875 156.957031-6.652344-3.839843v7.679687zm0 0"/><path d="m232.617188 141.597656-6.648438-3.839844v7.679688zm0 0"/><path d="m225.96875 137.757812-6.652344-3.839843v7.679687zm0 0"/><path d="m219.316406 133.917969-6.652344-3.839844v7.679687zm0 0"/><path d="m206.011719 126.234375-6.652344-3.839844v7.683594zm0 0"/><path d="m199.359375 122.394531-6.648437-3.839843v7.679687zm0 0"/><path d="m192.710938 118.554688-6.652344-3.839844v7.679687zm0 0"/><path d="m179.40625 118.554688-6.652344-3.839844v7.679687zm0 0"/><path d="m172.753906 122.394531-6.652344-3.839843v7.679687zm0 0"/><path d="m139.496094 141.597656-6.652344-3.839844v7.679688zm0 0"/><path d="m132.84375 145.4375-6.648438-3.839844v7.679688zm0 0"/><path d="m132.84375 153.117188-6.648438-3.839844v7.679687zm0 0"/><path d="m132.84375 160.796875-6.648438-3.839844v7.683594zm0 0"/><path d="m132.84375 199.203125-6.648438-3.84375v7.683594zm0 0"/><path d="m132.84375 206.882812-6.648438-3.839843v7.679687zm0 0"/><path d="m132.84375 214.5625-6.648438-3.839844v7.679688zm0 0"/><path d="m139.496094 218.402344-6.652344-3.839844v7.679688zm0 0"/><path d="m172.753906 237.605469-6.652344-3.839844v7.679687zm0 0"/><path d="m179.40625 241.445312-6.652344-3.839843v7.679687zm0 0"/><path d="m192.710938 241.445312-6.652344-3.839843v7.679687zm0 0"/><path d="m199.359375 237.605469-6.648437-3.839844v7.679687zm0 0"/><path d="m206.011719 233.765625-6.652344-3.84375v7.683594zm0 0"/><path d="m219.316406 226.082031-6.652344-3.839843v7.679687zm0 0"/><path d="m225.96875 222.242188-6.652344-3.839844v7.679687zm0 0"/><path d="m232.617188 218.402344-6.648438-3.839844v7.679688zm0 0"/><path d="m252.574219 206.882812-6.652344-3.839843v7.679687zm0 0"/><path d="m252.574219 191.519531-6.652344-3.839843v7.679687zm0 0"/><path d="m252.574219 183.839844-6.652344-3.839844v7.679688zm0 0"/><path d="m252.574219 176.160156-6.652344-3.839844v7.679688zm0 0"/><path d="m252.574219 168.480469-6.652344-3.839844v7.679687zm0 0"/><path d="m252.574219 153.117188-6.652344-3.839844v7.679687zm0 0"/><path d="m239.269531 137.757812-6.652343-3.839843v7.679687zm0 0"/><path d="m232.617188 133.917969-6.648438-3.839844v7.679687zm0 0"/><path d="m225.96875 130.078125-6.652344-3.84375v7.683594zm0 0"/><path d="m206.011719 118.554688-6.652344-3.839844v7.679687zm0 0"/><path d="m199.359375 114.714844-6.648437-3.839844v7.679688zm0 0"/><path d="m192.710938 110.875-6.652344-3.839844v7.679688zm0 0"/><path d="m172.753906 114.714844-6.652344-3.839844v7.679688zm0 0"/><path d="m166.101562 118.554688-6.648437-3.839844v7.679687zm0 0"/><path d="m159.453125 122.394531-6.652344-3.839843v7.679687zm0 0"/><path d="m152.800781 126.234375-6.652343-3.839844v7.683594zm0 0"/><path d="m146.148438 130.078125-6.652344-3.84375v7.683594zm0 0"/><path d="m139.496094 133.917969-6.652344-3.839844v7.679687zm0 0"/><path d="m132.84375 137.757812-6.648438-3.839843v7.679687zm0 0"/><path d="m126.195312 156.957031-6.652343-3.839843v7.679687zm0 0"/><path d="m126.195312 164.640625-6.652343-3.84375v7.683594zm0 0"/><path d="m126.195312 172.320312-6.652343-3.839843v7.679687zm0 0"/><path d="m126.195312 187.679688-6.652343-3.839844v7.679687zm0 0"/><path d="m126.195312 195.359375-6.652343-3.839844v7.683594zm0 0"/><path d="m126.195312 203.042969-6.652343-3.839844v7.679687zm0 0"/><path d="m132.84375 222.242188-6.648438-3.839844v7.679687zm0 0"/><path d="m139.496094 226.082031-6.652344-3.839843v7.679687zm0 0"/><path d="m146.148438 229.921875-6.652344-3.839844v7.683594zm0 0"/><path d="m152.800781 233.765625-6.652343-3.84375v7.683594zm0 0"/><path d="m159.453125 237.605469-6.652344-3.839844v7.679687zm0 0"/><path d="m166.101562 241.445312-6.648437-3.839843v7.679687zm0 0"/><path d="m172.753906 245.285156-6.652344-3.839844v7.679688zm0 0"/><path d="m192.710938 249.125-6.652344-3.839844v7.679688zm0 0"/><path d="m199.359375 245.285156-6.648437-3.839844v7.679688zm0 0"/><path d="m206.011719 241.445312-6.652344-3.839843v7.679687zm0 0"/><path d="m225.96875 229.921875-6.652344-3.839844v7.683594zm0 0"/><path d="m232.617188 226.082031-6.648438-3.839843v7.679687zm0 0"/><path d="m239.269531 222.242188-6.652343-3.839844v7.679687zm0 0"/><path d="m259.226562 195.359375-6.652343-3.839844v7.683594zm0 0"/><path d="m259.226562 187.679688-6.652343-3.839844v7.679687zm0 0"/><path d="m259.226562 180-6.652343-3.839844v7.679688zm0 0"/><path d="m259.226562 172.320312-6.652343-3.839843v7.679687zm0 0"/><path d="m259.226562 164.640625-6.652343-3.84375v7.683594zm0 0"/><path d="m225.96875 122.394531-6.652344-3.839843v7.679687zm0 0"/><path d="m219.316406 118.554688-6.652344-3.839844v7.679687zm0 0"/><path d="m212.664062 114.714844-6.652343-3.839844v7.679688zm0 0"/><path d="m172.753906 107.035156-6.652344-3.839844v7.679688zm0 0"/><path d="m159.453125 114.714844-6.652344-3.839844v7.679688zm0 0"/><path d="m152.800781 118.554688-6.652343-3.839844v7.679687zm0 0"/><path d="m146.148438 122.394531-6.652344-3.839843v7.679687zm0 0"/><path d="m139.496094 126.234375-6.652344-3.839844v7.683594zm0 0"/><path d="m126.195312 133.917969-6.652343-3.839844v7.679687zm0 0"/><path d="m119.542969 153.117188-6.652344-3.839844v7.679687zm0 0"/><path d="m119.542969 160.796875-6.652344-3.839844v7.683594zm0 0"/><path d="m119.542969 168.480469-6.652344-3.839844v7.679687zm0 0"/><path d="m119.542969 191.519531-6.652344-3.839843v7.679687zm0 0"/><path d="m119.542969 199.203125-6.652344-3.84375v7.683594zm0 0"/><path d="m119.542969 206.882812-6.652344-3.839843v7.679687zm0 0"/><path d="m126.195312 226.082031-6.652343-3.839843v7.679687zm0 0"/><path d="m139.496094 233.765625-6.652344-3.84375v7.683594zm0 0"/><path d="m146.148438 237.605469-6.652344-3.839844v7.679687zm0 0"/><path d="m152.800781 241.445312-6.652343-3.839843v7.679687zm0 0"/><path d="m159.453125 245.285156-6.652344-3.839844v7.679688zm0 0"/><path d="m172.753906 252.964844-6.652344-3.839844v7.679688zm0 0"/><path d="m212.664062 245.285156-6.652343-3.839844v7.679688zm0 0"/><path d="m219.316406 241.445312-6.652344-3.839843v7.679687zm0 0"/><path d="m225.96875 237.605469-6.652344-3.839844v7.679687zm0 0"/><path d="m265.875 222.242188-6.648438-3.839844v7.679687zm0 0"/><path d="m265.875 199.203125-6.648438-3.84375v7.683594zm0 0"/><path d="m265.875 160.796875-6.648438-3.839844v7.683594zm0 0"/><path d="m265.875 137.757812-6.648438-3.839843v7.679687zm0 0"/><path d="m259.226562 133.917969-6.652343-3.839844v7.679687zm0 0"/><path d="m252.574219 130.078125-6.652344-3.84375v7.683594zm0 0"/><path d="m232.617188 118.554688-6.648438-3.839844v7.679687zm0 0"/><path d="m212.664062 107.035156-6.652343-3.839844v7.679688zm0 0"/><path d="m192.710938 95.515625-6.652344-3.84375v7.683594zm0 0"/><path d="m186.058594 91.671875-6.652344-3.839844v7.683594zm0 0"/><path d="m159.453125 107.035156-6.652344-3.839844v7.679688zm0 0"/><path d="m152.800781 110.875-6.652343-3.839844v7.679688zm0 0"/><path d="m146.148438 114.714844-6.652344-3.839844v7.679688zm0 0"/><path d="m139.496094 118.554688-6.652344-3.839844v7.679687zm0 0"/><path d="m132.84375 122.394531-6.648438-3.839843v7.679687zm0 0"/><path d="m112.890625 172.320312-6.652344-3.839843v7.679687zm0 0"/><path d="m112.890625 180-6.652344-3.839844v7.679688zm0 0"/><path d="m112.890625 187.679688-6.652344-3.839844v7.679687zm0 0"/><path d="m132.84375 237.605469-6.648438-3.839844v7.679687zm0 0"/><path d="m139.496094 241.445312-6.652344-3.839843v7.679687zm0 0"/><path d="m146.148438 245.285156-6.652344-3.839844v7.679688zm0 0"/><path d="m152.800781 249.125-6.652343-3.839844v7.679688zm0 0"/><path d="m159.453125 252.964844-6.652344-3.839844v7.679688zm0 0"/><path d="m186.058594 268.328125-6.652344-3.84375v7.683594zm0 0"/><path d="m192.710938 264.484375-6.652344-3.839844v7.683594zm0 0"/><path d="m212.664062 252.964844-6.652343-3.839844v7.679688zm0 0"/><path d="m232.617188 241.445312-6.648438-3.839843v7.679687zm0 0"/><path d="m252.574219 229.921875-6.652344-3.839844v7.683594zm0 0"/><path d="m259.226562 226.082031-6.652343-3.839843v7.679687zm0 0"/><path d="m272.527344 226.082031-6.652344-3.839843v7.679687zm0 0"/><path d="m272.527344 195.359375-6.652344-3.839844v7.683594zm0 0"/><path d="m272.527344 164.640625-6.652344-3.84375v7.683594zm0 0"/><path d="m272.527344 133.917969-6.652344-3.839844v7.679687zm0 0"/><path d="m259.226562 126.234375-6.652343-3.839844v7.683594zm0 0"/><path d="m239.269531 114.714844-6.652343-3.839844v7.679688zm0 0"/><path d="m212.664062 99.355469-6.652343-3.839844v7.679687zm0 0"/><path d="m192.710938 87.832031-6.652344-3.839843v7.679687zm0 0"/><path d="m179.40625 87.832031-6.652344-3.839843v7.679687zm0 0"/><path d="m159.453125 99.355469-6.652344-3.839844v7.679687zm0 0"/><path d="m126.195312 118.554688-6.652343-3.839844v7.679687zm0 0"/><path d="m106.238281 130.078125-6.652343-3.84375v7.683594zm0 0"/><path d="m106.238281 137.757812-6.652343-3.839843v7.679687zm0 0"/><path d="m106.238281 145.4375-6.652343-3.839844v7.679688zm0 0"/><path d="m106.238281 168.480469-6.652343-3.839844v7.679687zm0 0"/><path d="m106.238281 191.519531-6.652343-3.839843v7.679687zm0 0"/><path d="m106.238281 214.5625-6.652343-3.839844v7.679688zm0 0"/><path d="m106.238281 222.242188-6.652343-3.839844v7.679687zm0 0"/><path d="m106.238281 229.921875-6.652343-3.839844v7.683594zm0 0"/><path d="m126.195312 241.445312-6.652343-3.839843v7.679687zm0 0"/><path d="m159.453125 260.644531-6.652344-3.839843v7.679687zm0 0"/><path d="m179.40625 272.167969-6.652344-3.839844v7.679687zm0 0"/><path d="m192.710938 272.167969-6.652344-3.839844v7.679687zm0 0"/><path d="m212.664062 260.644531-6.652343-3.839843v7.679687zm0 0"/><path d="m239.269531 245.285156-6.652343-3.839844v7.679688zm0 0"/><path d="m259.226562 233.765625-6.652343-3.84375v7.683594zm0 0"/><path d="m279.179688 214.5625-6.652344-3.839844v7.679688zm0 0"/><path d="m279.179688 206.882812-6.652344-3.839843v7.679687zm0 0"/><path d="m279.179688 199.203125-6.652344-3.84375v7.683594zm0 0"/><path d="m279.179688 191.519531-6.652344-3.839843v7.679687zm0 0"/><path d="m279.179688 183.839844-6.652344-3.839844v7.679688zm0 0"/><path d="m279.179688 176.160156-6.652344-3.839844v7.679688zm0 0"/><path d="m279.179688 168.480469-6.652344-3.839844v7.679687zm0 0"/><path d="m279.179688 160.796875-6.652344-3.839844v7.683594zm0 0"/><path d="m279.179688 153.117188-6.652344-3.839844v7.679687zm0 0"/><path d="m279.179688 145.4375-6.652344-3.839844v7.679688zm0 0"/><path d="m265.875 122.394531-6.648438-3.839843v7.679687zm0 0"/><path d="m259.226562 118.554688-6.652343-3.839844v7.679687zm0 0"/><path d="m245.921875 110.875-6.652344-3.839844v7.679688zm0 0"/><path d="m239.269531 107.035156-6.652343-3.839844v7.679688zm0 0"/><path d="m219.316406 95.515625-6.652344-3.84375v7.683594zm0 0"/><path d="m212.664062 91.671875-6.652343-3.839844v7.683594zm0 0"/><path d="m199.359375 83.992188-6.648437-3.839844v7.679687zm0 0"/><path d="m192.710938 80.152344-6.652344-3.839844v7.679688zm0 0"/><path d="m179.40625 80.152344-6.652344-3.839844v7.679688zm0 0"/><path d="m152.800781 95.515625-6.652343-3.84375v7.683594zm0 0"/><path d="m126.195312 110.875-6.652343-3.839844v7.679688zm0 0"/><path d="m99.585938 126.234375-6.652344-3.839844v7.683594zm0 0"/><path d="m99.585938 141.597656-6.652344-3.839844v7.679688zm0 0"/><path d="m99.585938 164.640625-6.652344-3.84375v7.683594zm0 0"/><path d="m99.585938 195.359375-6.652344-3.839844v7.683594zm0 0"/><path d="m99.585938 218.402344-6.652344-3.839844v7.679688zm0 0"/><path d="m99.585938 233.765625-6.652344-3.84375v7.683594zm0 0"/><path d="m126.195312 249.125-6.652343-3.839844v7.679688zm0 0"/><path d="m152.800781 264.484375-6.652343-3.839844v7.683594zm0 0"/><path d="m179.40625 279.847656-6.652344-3.839844v7.679688zm0 0"/><path d="m192.710938 279.847656-6.652344-3.839844v7.679688zm0 0"/><path d="m199.359375 276.007812-6.648437-3.839843v7.679687zm0 0"/><path d="m212.664062 268.328125-6.652343-3.84375v7.683594zm0 0"/><path d="m219.316406 264.484375-6.652344-3.839844v7.683594zm0 0"/><path d="m239.269531 252.964844-6.652343-3.839844v7.679688zm0 0"/><path d="m245.921875 249.125-6.652344-3.839844v7.679688zm0 0"/><path d="m259.226562 241.445312-6.652343-3.839843v7.679687zm0 0"/><path d="m265.875 237.605469-6.648438-3.839844v7.679687zm0 0"/><path d="m285.832031 195.359375-6.652343-3.839844v7.683594zm0 0"/><path d="m285.832031 180-6.652343-3.839844v7.679688zm0 0"/><path d="m285.832031 164.640625-6.652343-3.84375v7.683594zm0 0"/><path d="m259.226562 110.875-6.652343-3.839844v7.679688zm0 0"/><path d="m239.269531 99.355469-6.652343-3.839844v7.679687zm0 0"/><path d="m232.617188 95.515625-6.648438-3.84375v7.683594zm0 0"/><path d="m225.96875 91.671875-6.652344-3.839844v7.683594zm0 0"/><path d="m206.011719 80.152344-6.652344-3.839844v7.679688zm0 0"/><path d="m166.101562 80.152344-6.648437-3.839844v7.679688zm0 0"/><path d="m159.453125 83.992188-6.652344-3.839844v7.679687zm0 0"/><path d="m152.800781 87.832031-6.652343-3.839843v7.679687zm0 0"/><path d="m146.148438 91.671875-6.652344-3.839844v7.683594zm0 0"/><path d="m139.496094 95.515625-6.652344-3.84375v7.683594zm0 0"/><path d="m132.84375 99.355469-6.648438-3.839844v7.679687zm0 0"/><path d="m126.195312 103.195312-6.652343-3.839843v7.679687zm0 0"/><path d="m119.542969 107.035156-6.652344-3.839844v7.679688zm0 0"/><path d="m112.890625 110.875-6.652344-3.839844v7.679688zm0 0"/><path d="m106.238281 114.714844-6.652343-3.839844v7.679688zm0 0"/><path d="m92.933594 137.757812-6.648438-3.839843v7.679687zm0 0"/><path d="m92.933594 145.4375-6.648438-3.839844v7.679688zm0 0"/><path d="m92.933594 160.796875-6.648438-3.839844v7.683594zm0 0"/><path d="m92.933594 168.480469-6.648438-3.839844v7.679687zm0 0"/><path d="m92.933594 191.519531-6.648438-3.839843v7.679687zm0 0"/><path d="m92.933594 199.203125-6.648438-3.84375v7.683594zm0 0"/><path d="m92.933594 214.5625-6.648438-3.839844v7.679688zm0 0"/><path d="m92.933594 222.242188-6.648438-3.839844v7.679687zm0 0"/><path d="m106.238281 245.285156-6.652343-3.839844v7.679688zm0 0"/><path d="m112.890625 249.125-6.652344-3.839844v7.679688zm0 0"/><path d="m119.542969 252.964844-6.652344-3.839844v7.679688zm0 0"/><path d="m126.195312 256.804688-6.652343-3.839844v7.679687zm0 0"/><path d="m132.84375 260.644531-6.648438-3.839843v7.679687zm0 0"/><path d="m139.496094 264.484375-6.652344-3.839844v7.683594zm0 0"/><path d="m146.148438 268.328125-6.652344-3.84375v7.683594zm0 0"/><path d="m152.800781 272.167969-6.652343-3.839844v7.679687zm0 0"/><path d="m159.453125 276.007812-6.652344-3.839843v7.679687zm0 0"/><path d="m166.101562 279.847656-6.648437-3.839844v7.679688zm0 0"/><path d="m206.011719 279.847656-6.652344-3.839844v7.679688zm0 0"/><path d="m225.96875 268.328125-6.652344-3.84375v7.683594zm0 0"/><path d="m232.617188 264.484375-6.648438-3.839844v7.683594zm0 0"/><path d="m239.269531 260.644531-6.652343-3.839843v7.679687zm0 0"/><path d="m259.226562 249.125-6.652343-3.839844v7.679688zm0 0"/><path d="m292.484375 183.839844-6.652344-3.839844v7.679688zm0 0"/><path d="m292.484375 176.160156-6.652344-3.839844v7.679688zm0 0"/><path d="m245.921875 95.515625-6.652344-3.84375v7.683594zm0 0"/><path d="m225.96875 83.992188-6.652344-3.839844v7.679687zm0 0"/><path d="m146.148438 83.992188-6.652344-3.839844v7.679687zm0 0"/><path d="m132.84375 91.671875-6.648438-3.839844v7.683594zm0 0"/><path d="m119.542969 99.355469-6.652344-3.839844v7.679687zm0 0"/><path d="m86.285156 149.277344-6.652344-3.839844v7.679688zm0 0"/><path d="m86.285156 172.320312-6.652344-3.839843v7.679687zm0 0"/><path d="m86.285156 180-6.652344-3.839844v7.679688zm0 0"/><path d="m86.285156 187.679688-6.652344-3.839844v7.679687zm0 0"/><path d="m86.285156 210.722656-6.652344-3.839844v7.679688zm0 0"/><path d="m119.542969 260.644531-6.652344-3.839843v7.679687zm0 0"/><path d="m132.84375 268.328125-6.648438-3.84375v7.683594zm0 0"/><path d="m146.148438 276.007812-6.652344-3.839843v7.679687zm0 0"/><path d="m225.96875 276.007812-6.652344-3.839843v7.679687zm0 0"/><path d="m245.921875 264.484375-6.652344-3.839844v7.683594zm0 0"/><path d="m299.132812 180-6.648437-3.839844v7.679688zm0 0"/><path d="m239.269531 83.992188-6.652343-3.839844v7.679687zm0 0"/><path d="m132.84375 83.992188-6.648438-3.839844v7.679687zm0 0"/><path d="m126.195312 87.832031-6.652343-3.839843v7.679687zm0 0"/><path d="m79.632812 168.480469-6.652343-3.839844v7.679687zm0 0"/><path d="m79.632812 191.519531-6.652343-3.839843v7.679687zm0 0"/><path d="m126.195312 272.167969-6.652343-3.839844v7.679687zm0 0"/><path d="m132.84375 276.007812-6.648438-3.839843v7.679687zm0 0"/><path d="m239.269531 276.007812-6.652343-3.839843v7.679687zm0 0"/><path d="m126.195312 80.152344-6.652343-3.839844v7.679688zm0 0"/><path d="m72.980469 180-6.652344-3.839844v7.679688zm0 0"/><path d="m126.195312 279.847656-6.652343-3.839844v7.679688zm0 0"/></g></svg>